<?xml version="1.0" encoding="UTF-8" standalone="no"?>
<svg xmlns="http://www.w3.org/2000/svg" xmlns:sodipodi="http://sodipodi.sourceforge.net/DTD/sodipodi-0.dtd" xmlns:inkscape="http://www.inkscape.org/namespaces/inkscape" height="24" version="1.1" width="24" enable-background="new">
 <metadata id="metadata90"/>
 <defs id="defs7386">
  <linearGradient id="linearGradient5606" osb:paint="solid">
   <stop id="stop5608"/>
  </linearGradient>
  <filter inkscape:collect="always" color-interpolation-filters="sRGB" id="filter7554">
   <feBlend inkscape:collect="always" id="feBlend7556" in2="BackgroundImage" mode="darken"/>
  </filter>
 </defs>
 <g inkscape:groupmode="layer" id="layer9" inkscape:label="status" transform="translate(-485.0004,231.00336)">
  <path inkscape:connector-curvature="0" d="m 498.2147,-225.89364 c -1.76425,-0.31106 -3.63723,0.0651 -5.22064,1.17379 -3.16683,2.21743 -3.93221,6.55814 -1.71478,9.72497 2.21745,3.16683 6.55813,3.93222 9.72497,1.71478 2.27736,-1.59463 3.3114,-4.28091 2.89004,-6.85226 -0.11726,-0.71752 -0.33572,-1.38448 -0.65922,-2.02016 -0.14958,-0.29582 -0.32036,-0.57307 -0.51604,-0.85256 -1.10872,-1.58343 -2.7401,-2.57747 -4.50433,-2.88856 z m 2.47974,3.00855 c 0.66738,0.11294 1.04012,1.02501 0.64287,1.57304 l -4.41616,6.3293 c -0.35656,0.54299 -1.2814,0.5573 -1.65458,0.0256 l -2.43348,-3.47537 c -0.30778,-0.43586 -0.18978,-1.11294 0.2473,-1.41898 0.43707,-0.30604 1.11368,-0.18535 1.41798,0.25295 l 1.62234,2.31691 3.57273,-5.14526 c 0.17445,-0.27218 0.48781,-0.44991 0.81093,-0.45994 0.0632,-0.005 0.12698,-0.005 0.19009,0.002 z" id="path7141" sodipodi:nodetypes="cssscccccccccscccccc" fill="#ffffff" color="#000000" stroke-width="0.843"/>
 </g>
</svg>
