<?xml version="1.0" encoding="UTF-8" standalone="no"?>
<svg xmlns="http://www.w3.org/2000/svg" xmlns:sodipodi="http://sodipodi.sourceforge.net/DTD/sodipodi-0.dtd" xmlns:inkscape="http://www.inkscape.org/namespaces/inkscape" width="24" height="24" version="1.1">
 <metadata id="metadata3401"/>
 <g id="layer1" inkscape:label="Layer 1" inkscape:groupmode="layer" transform="translate(0,6)">
  <path d="m 10,-0.625 c 0.38928,0.0194 0.73289,0.26582 0.875,0.65625 0.004,0.0103 0.0276,0.0211 0.0312,0.0312 1.77703,-0.1699601 3.47221,0.80812 4.15625,2.6875 0.68583,1.88431 2.07552,5.64071 3.75,5.03125 0.11155,-0.0406 0.23388,0.0262 0.28125,0.15625 l 0.25,0.71875 -1.875,0.6875 -1.875,0.6562492 -3.75,1.3749998 -0.125,0.0312 c 0.16513,-0.43832 0.28125,-0.90998 0.28125,-1.4061498 C 11.99995,7.79086 10.20909,6 7.99995,6 7.91485,6 7.83369,6.026 7.74995,6.0312 7.68925,5.86217 7.61644,5.64828 7.56245,5.49995 6.88141,3.62879 7.54265,1.73374 8.99995,0.7187 8.81047,0.19811 9.07315,-0.37307 9.5937,-0.56255 c 0.13015,-0.0474 0.27649,-0.069 0.40625,-0.0625 z m 5.65625,11.687499 c -0.12102,0.67925 -0.555,1.24704 -1.25,1.5 -0.695,0.25296 -1.43942,0.0988 -1.96875,-0.34375 l 3.21875,-1.15625 z" id="path4188" inkscape:connector-curvature="0" fill="#ffffff" color="#000000" stroke-width="4"/>
  <path transform="matrix(-1,0,0,1,61,-208)" d="m 56,218 a 3,3 0 1 1 -6,0 3,3 0 1 1 6,0 z" sodipodi:ry="3" sodipodi:rx="3" sodipodi:cy="218" sodipodi:cx="53" id="path4190" sodipodi:type="arc" fill="#e74c3c" color="#000000" stroke-width="2"/>
 </g>
</svg>
