<?xml version="1.0" encoding="UTF-8" standalone="no"?>
<svg xmlns="http://www.w3.org/2000/svg" xmlns:sodipodi="http://sodipodi.sourceforge.net/DTD/sodipodi-0.dtd" xmlns:inkscape="http://www.inkscape.org/namespaces/inkscape" width="24" height="24" version="1.1">
 <metadata id="metadata3401"/>
 <g id="layer1" inkscape:label="Layer 1" inkscape:groupmode="layer" transform="translate(0,6)">
  <path d="m 14,-0.625 c -0.38928,0.0194 -0.73289,0.26582 -0.875,0.65625 -0.004,0.0103 -0.0276,0.0211 -0.0312,0.0312 C 11.31677,-0.1075101 9.62159,0.87057 8.93755,2.74995 8.25172,4.63426 6.86203,8.39066 5.18755,7.7812 5.076,7.7406 4.95367,7.8074 4.9063,7.93745 l -0.25,0.71875 1.875,0.6875 1.875,0.6562492 3.75,1.3749998 0.125,0.0312 C 12.11617,10.967829 12.00005,10.496169 12.00005,9.9999992 12.00005,7.79086 13.79091,6 16.00005,6 c 0.0851,0 0.16626,0.026 0.25,0.0312 0.0607,-0.16903 0.13351,-0.38292 0.1875,-0.53125 0.68104,-1.87116 0.0198,-3.76621 -1.4375,-4.78125 0.18948,-0.52059 -0.0732,-1.09177 -0.59375,-1.28125 -0.13015,-0.0474 -0.27649,-0.069 -0.40625,-0.0625 z M 8.34375,11.062499 c 0.12102,0.67925 0.555,1.24704 1.25,1.5 0.695,0.25296 1.43942,0.0988 1.96875,-0.34375 l -3.21875,-1.15625 z" id="path4188" inkscape:connector-curvature="0" fill="#ffffff" color="#000000" stroke-width="4"/>
  <path transform="translate(-37,-208)" d="m 56,218 c 0,1.65685 -1.343146,3 -3,3 -1.656854,0 -3,-1.34315 -3,-3 0,-1.65685 1.343146,-3 3,-3 1.656854,0 3,1.34315 3,3 z" sodipodi:ry="3" sodipodi:rx="3" sodipodi:cy="218" sodipodi:cx="53" id="path4190" sodipodi:type="arc" fill="#4ab3e4" color="#000000" stroke-width="2"/>
 </g>
</svg>
