<?xml version="1.0" encoding="UTF-8" standalone="no"?>
<svg xmlns="http://www.w3.org/2000/svg" xmlns:sodipodi="http://sodipodi.sourceforge.net/DTD/sodipodi-0.dtd" xmlns:inkscape="http://www.inkscape.org/namespaces/inkscape" width="24" height="24" version="1.1">
 <metadata id="metadata3401"/>
 <g id="layer1" inkscape:label="Layer 1" inkscape:groupmode="layer" transform="translate(0,8)">
  <path id="path2994" d="M 6.5,-4 C 6.223,-4 6,-3.777 6,-3.5 L 6,-3 4.5,-3 C 4.223,-3 4,-2.777 4,-2.5 l 0,14 C 4,11.777 4.223,12 4.5,12 l 6,0 c 0.277,0 0.5,-0.223 0.5,-0.5 l 0,-14 C 11,-2.777 10.777,-3 10.5,-3 L 9,-3 9,-3.5 C 9,-3.777 8.777,-4 8.5,-4 z" inkscape:connector-curvature="0" sodipodi:nodetypes="sscsssssssscsss" fill="#ffffff" stroke-linejoin="round" stroke-linecap="round" color="#bebebe" stroke-width="0"/>
  <path d="m 14,-3.0000024 c -0.554,0 -1,0.446 -1,1.0000001 V 11 c 0,0.554 0.446,1 1,1 h 5 c 0.554,0 1,-0.446 1,-1 V -2.0000023 c 0,-0.5540001 -0.446,-1.0000001 -1,-1.0000001 H 14 z M 14,-2.27e-6 h 1 V 0.9999976 H 14 V -2.27e-6 z m 2,0 h 1 V 0.9999976 H 16 V -2.27e-6 z m 2,0.99999987 h 1 v 7 h -1 v -7 z m -4,1 h 1 v 1 h -1 v -1 z m 2,0 h 1 v 1 h -1 v -1 z m -2,2 h 1 v 1 h -1 v -1 z m 2,0 h 1 v 1 h -1 v -1 z m -2,2 h 1 v 1 h -1 v -1 z m 2,0 h 1 v 1 h -1 v -1 z m -2,2 h 1 v 1.000001 h -1 v -1.000001 z m 2,0 h 1 v 1.000001 h -1 v -1.000001 z" inkscape:connector-curvature="0" id="rect2397" fill="#ffffff" fill-rule="evenodd"/>
 </g>
</svg>
