<?xml version="1.0" encoding="UTF-8" standalone="no"?>
<svg xmlns="http://www.w3.org/2000/svg" xmlns:sodipodi="http://sodipodi.sourceforge.net/DTD/sodipodi-0.dtd" xmlns:inkscape="http://www.inkscape.org/namespaces/inkscape" height="24" version="1.1" width="24" enable-background="new">
 <metadata id="metadata90"/>
 <defs id="defs7386">
  <linearGradient id="linearGradient5606" osb:paint="solid">
   <stop id="stop5608"/>
  </linearGradient>
  <filter inkscape:collect="always" color-interpolation-filters="sRGB" id="filter7554">
   <feBlend inkscape:collect="always" id="feBlend7556" in2="BackgroundImage" mode="darken"/>
  </filter>
 </defs>
 <g inkscape:groupmode="layer" id="layer9" inkscape:label="status" transform="translate(-301.0002,428.00336)">
  <path d="m 313.03145,-422.00336 c -3.03435,0 -5.76588,1.07815 -8.03125,2.75 l 8.03125,8.75 0.96875,-1.0625 0,-0.4375 0,-1 1,0 c 0.0168,-1.63737 1.35439,-3 3,-3 l 0.0312,0 2.96875,-3.28125 c -2.25661,-1.65329 -4.9577,-2.71875 -7.96875,-2.71875 z" id="path5923" inkscape:connector-curvature="0" opacity="0.35" fill="#ffffff" color="#000000"/>
  <path d="m 313.0002,-418.00336 c -1.97569,0 -3.79687,0.63948 -5.28125,1.71875 l 5.3125,5.78125 0.96875,-1.0625 0,-0.4375 0,-1 1,0 c 0.0168,-1.63737 1.35439,-3 3,-3 l 0.0312,0 0.25,-0.28125 c -1.48438,-1.07927 -3.30556,-1.71875 -5.28125,-1.71875 z" id="path5964" inkscape:connector-curvature="0" fill="#ffffff" color="#000000"/>
  <path sodipodi:nodetypes="ssccccccccccccssssccss" inkscape:connector-curvature="0" id="path3767" d="m 318.0002,-415.00336 c -1.108,0 -2,0.91081 -2,2.03125 l 0,0.96875 -1,0 0,1 0,2 0,1 1,0 4,0 1,0 0,-1 0,-2 0,-1 -1,0 0,-0.96875 c 0,-1.12 -0.892,-2.03125 -2,-2.03125 z m 0,1 c 0.554,0 1,0.44236 1,1 l 0,1 -2,0 0,-1 c 0,-0.55764 0.446,-1 1,-1 z" fill="#ffffff"/>
 </g>
</svg>
