<?xml version="1.0" encoding="UTF-8" standalone="no"?>
<svg xmlns="http://www.w3.org/2000/svg" xmlns:sodipodi="http://sodipodi.sourceforge.net/DTD/sodipodi-0.dtd" xmlns:inkscape="http://www.inkscape.org/namespaces/inkscape" height="24" version="1.1" width="24" enable-background="new">
 <metadata id="metadata90"/>
 <defs id="defs7386">
  <linearGradient id="linearGradient5606" osb:paint="solid">
   <stop id="stop5608"/>
  </linearGradient>
  <filter inkscape:collect="always" color-interpolation-filters="sRGB" id="filter7554">
   <feBlend inkscape:collect="always" id="feBlend7556" in2="BackgroundImage" mode="darken"/>
  </filter>
 </defs>
 <g inkscape:groupmode="layer" id="layer9" inkscape:label="status" transform="translate(-281.0002,327.00333)">
  <path d="m 300.0002,-322.00333 -14,14 8,0 0,-2 0,-1 0,-1 1,0 c 0.0168,-1.63737 1.35439,-3 3,-3 0.76764,0 1.46927,0.29877 2,0.78125 l 0,-7.78125 z m -4,12 0,2 4,0 0,-2 -1,0 -2,0 -1,0 z" id="path6535" inkscape:connector-curvature="0" opacity="0.35" fill="#ffffff"/>
  <path d="m 297.0002,-319.00333 -11,11 8,0 0,-2 0,-1 0,-1 1,0 c 0.0132,-1.28602 0.84795,-2.39254 2,-2.8125 l 0,-4.1875 z m -1,9 0,2 1,0 0,-2 -1,0 z" id="path6554" inkscape:connector-curvature="0" fill="#ffffff"/>
  <path inkscape:connector-curvature="0" d="m 298.0002,-314 c -1.108,0 -2,0.91081 -2,2.03125 l 0,0.96875 -1,0 0,1 0,2 0,1 1,0 4,0 1,0 0,-1 0,-2 0,-1 -1,0 0,-0.96875 c 0,-1.12 -0.892,-2.03125 -2,-2.03125 z m 0,1 c 0.554,0 1,0.44236 1,1 l 0,1 -2,0 0,-1 c 0,-0.55764 0.446,-1 1,-1 z" id="path5983" sodipodi:nodetypes="ssccccccccccccssssccss" fill="#ffffff"/>
 </g>
</svg>
