<?xml version="1.0" encoding="UTF-8" standalone="no"?>
<svg xmlns="http://www.w3.org/2000/svg" xmlns:sodipodi="http://sodipodi.sourceforge.net/DTD/sodipodi-0.dtd" xmlns:inkscape="http://www.inkscape.org/namespaces/inkscape" height="24" version="1.1" width="24" enable-background="new">
 <metadata id="metadata90"/>
 <defs id="defs7386">
  <linearGradient id="linearGradient5606" osb:paint="solid">
   <stop id="stop5608"/>
  </linearGradient>
  <filter inkscape:collect="always" color-interpolation-filters="sRGB" id="filter7554">
   <feBlend inkscape:collect="always" id="feBlend7556" in2="BackgroundImage" mode="darken"/>
  </filter>
 </defs>
 <g inkscape:groupmode="layer" id="layer9" inkscape:label="status" transform="translate(-465.0004,431.00336)">
  <path inkscape:connector-curvature="0" d="m 482.0004,-418.00331 c -0.0961,0 -0.18881,0.018 -0.28125,0.0312 -0.29767,0.49886 -0.80781,0.84404 -1.40625,0.9375 -0.19227,0.31227 -0.3125,0.66733 -0.3125,1.0625 l 0,0.96875 -1,0 0,1 0,2 0,1 1,0 4,0 1,0 0,-1 0,-2 0,-1 -1,0 0,-0.96875 c 0,-1.1199 -0.892,-2.03125 -2,-2.03125 z m 0,1 c 0.554,0 1,0.4424 1,1 l 0,1 -2,0 0,-1 c 0,-0.5576 0.446,-1 1,-1 z" id="path5983-7" sodipodi:nodetypes="cccsccccccccccccsccssccss" opacity="0.35" fill="#ffffff"/>
  <path inkscape:connector-curvature="0" d="m 474.0004,-420.00336 c -0.55228,0 -1,0.44772 -1,1 0,0.55228 0.44772,1 1,1 0.55228,0 1,-0.44772 1,-1 0,-0.55228 -0.44772,-1 -1,-1 z m 3,0 c -0.55228,0 -1,0.44772 -1,1 0,0.55228 0.44772,1 1,1 0.55228,0 1,-0.44772 1,-1 0,-0.55228 -0.44772,-1 -1,-1 z m 3,0 c -0.55228,0 -1,0.44772 -1,1 0,0.55228 0.44772,1 1,1 0.55228,0 1,-0.44772 1,-1 0,-0.55228 -0.44772,-1 -1,-1 z" id="path9679" fill="#ffffff"/>
  <path inkscape:connector-curvature="0" d="m 479.0002,-427 c 0.004,0.003 0,1.33333 0,2 l -3,0 0,4 4,0 c 0.67626,0 1.26337,0.33287 1.625,0.84375 l 2.875,-2.34375 -5.5,-4.5 z m -6.96875,8.4375 -2.53125,2.0625 5.5,4.5 c -0.004,-0.003 0,-1.33333 0,-2 l 3,0 0,-2.1875 0,-0.8125 -4,0 c -0.95911,0 -1.7718,-0.6642 -1.96875,-1.5625 z" id="path9681" opacity="0.35" fill="#ffffff" color="#000000"/>
 </g>
</svg>
