<?xml version='1.0' encoding='UTF-8' standalone='no'?>
<svg height="16" xmlns:inkscape="http://www.inkscape.org/namespaces/inkscape" xmlns:sodipodi="http://sodipodi.sourceforge.net/DTD/sodipodi-0.dtd" version="1.1" width="16" xmlns="http://www.w3.org/2000/svg" enable-background="new">
 <metadata id="metadata90"/>
 <defs id="defs7386">
  <linearGradient id="linearGradient5606" osb:paint="solid">
   <stop id="stop5608"/>
  </linearGradient>
  <filter inkscape:collect="always" color-interpolation-filters="sRGB" id="filter7554">
   <feBlend inkscape:collect="always" id="feBlend7556" in2="BackgroundImage" mode="darken"/>
  </filter>
 </defs>
 <g inkscape:groupmode="layer" id="layer9" inkscape:label="status" transform="translate(-521.00018,263)">
  <path inkscape:connector-curvature="0" d="m 526.92336,-249.57671 c 0,-0.29059 0.0417,-0.5361 0.12512,-0.73723 0.0834,-0.20045 0.1991,-0.36256 0.34776,-0.48633 0.14799,-0.12377 0.32288,-0.21323 0.524,-0.26906 0.20045,-0.0552 0.41503,-0.0834 0.64373,-0.0834 0.2166,0 0.42243,0.0283 0.61683,0.0834 0.1944,0.0558 0.36592,0.14529 0.51458,0.26906 0.14799,0.12377 0.26503,0.28588 0.3518,0.48633 0.0868,0.20113 0.12982,0.44664 0.12982,0.73723 0,0.27848 -0.0431,0.5166 -0.12982,0.71436 -0.0868,0.19709 -0.20381,0.36189 -0.3518,0.49171 -0.14866,0.12915 -0.32018,0.22333 -0.51458,0.28252 -0.1944,0.0585 -0.40023,0.0881 -0.61683,0.0881 -0.2287,0 -0.44328,-0.0296 -0.64373,-0.0881 -0.20112,-0.0592 -0.37601,-0.15337 -0.524,-0.28252 -0.14866,-0.12982 -0.26435,-0.29462 -0.34776,-0.49171 -0.0834,-0.19776 -0.12512,-0.43588 -0.12512,-0.71436 m 0.30606,-3.1709 0,-0.68544 c 0,-0.31547 0.0323,-0.60135 0.0975,-0.85764 0.0646,-0.25695 0.16345,-0.50045 0.29664,-0.73252 0.13251,-0.23139 0.30404,-0.4574 0.51391,-0.67669 0.21054,-0.21929 0.46413,-0.44664 0.76077,-0.6814 0.25965,-0.20382 0.47893,-0.38611 0.65786,-0.54754 0.1796,-0.1601 0.32422,-0.31952 0.43588,-0.47759 0.11099,-0.1574 0.19171,-0.3222 0.24081,-0.49507 0.0498,-0.17355 0.0747,-0.37468 0.0747,-0.6027 0,-0.35248 -0.11973,-0.64374 -0.35718,-0.87177 -0.23812,-0.2287 -0.60136,-0.34305 -1.08971,-0.34305 -0.42579,0 -0.88521,0.0895 -1.37692,0.26839 -0.49037,0.1796 -0.99957,0.39888 -1.52492,0.65853 l -0.94508,-2.04891 c 0.26503,-0.15471 0.55427,-0.30135 0.86638,-0.43992 0.31279,-0.13924 0.63701,-0.26301 0.97334,-0.37131 0.337,-0.10762 0.67871,-0.19305 1.02445,-0.25494 0.34642,-0.0619 0.68611,-0.0928 1.02042,-0.0928 0.63028,0 1.19868,0.076 1.70519,0.22736 0.50718,0.15134 0.93701,0.37198 1.28881,0.66256 0.35314,0.29059 0.62288,0.64374 0.81122,1.05742 0.18902,0.41436 0.28319,0.88656 0.28319,1.41796 0,0.38947 -0.0437,0.73723 -0.12982,1.04329 -0.0861,0.30606 -0.21525,0.59059 -0.38409,0.85293 -0.17085,0.26301 -0.38409,0.5166 -0.64037,0.7601 -0.25628,0.24417 -0.55494,0.50247 -0.89463,0.77423 -0.25965,0.20381 -0.47153,0.38207 -0.63566,0.53341 -0.16346,0.15135 -0.29194,0.2953 -0.38409,0.4305 -0.0928,0.13655 -0.15605,0.27714 -0.19036,0.42243 -0.0336,0.14463 -0.0511,0.31615 -0.0511,0.51391 l 0,0.55629 -2.44713,0 z" id="path3913" fill="#bebebe"/>
 </g>
</svg>
