<?xml version='1.0' encoding='UTF-8' standalone='no'?>
<svg height="16" xmlns:inkscape="http://www.inkscape.org/namespaces/inkscape" xmlns:sodipodi="http://sodipodi.sourceforge.net/DTD/sodipodi-0.dtd" version="1.1" width="16" xmlns="http://www.w3.org/2000/svg" enable-background="new">
 <metadata id="metadata90"/>
 <defs id="defs7386">
  <linearGradient id="linearGradient5606" osb:paint="solid">
   <stop id="stop5608"/>
  </linearGradient>
  <filter inkscape:collect="always" color-interpolation-filters="sRGB" id="filter7554">
   <feBlend inkscape:collect="always" id="feBlend7556" in2="BackgroundImage" mode="darken"/>
  </filter>
 </defs>
 <g inkscape:groupmode="layer" id="layer9" inkscape:label="status" transform="translate(-541.00018,263)">
  <path inkscape:connector-curvature="0" d="m 547.0002,-262 0,5 c 0.008,2.00609 0.5,2.40625 0.5,4.28125 l 2,0 c 0,-1.875 0.402,-1.87153 0.5,-4.28125 l 0,-5 -3,0 z m 1.5625,10.84375 c -0.2287,0 -0.4558,0.0385 -0.65625,0.0937 -0.20112,0.0558 -0.35201,0.12623 -0.5,0.25 -0.14866,0.12377 -0.26035,0.29955 -0.34375,0.5 -0.0834,0.20113 -0.125,0.45941 -0.125,0.75 0,0.27848 0.0416,0.48974 0.125,0.6875 0.0834,0.19709 0.19509,0.37018 0.34375,0.5 0.14799,0.12915 0.29888,0.22205 0.5,0.28125 0.20045,0.0585 0.42755,0.0937 0.65625,0.0937 0.2166,0 0.4306,-0.0352 0.625,-0.0937 0.1944,-0.0592 0.35134,-0.1521 0.5,-0.28125 0.14799,-0.12982 0.25695,-0.30291 0.34375,-0.5 0.0867,-0.19776 0.15625,-0.40902 0.15625,-0.6875 0,-0.29059 -0.0695,-0.54887 -0.15625,-0.75 -0.0868,-0.20045 -0.19576,-0.37623 -0.34375,-0.5 -0.14866,-0.12377 -0.3056,-0.1942 -0.5,-0.25 -0.1944,-0.0551 -0.4084,-0.0937 -0.625,-0.0937 z" id="path4113" fill="#bebebe"/>
 </g>
</svg>
