<?xml version='1.0' encoding='UTF-8' standalone='no'?>
<svg height="16" xmlns:inkscape="http://www.inkscape.org/namespaces/inkscape" xmlns:sodipodi="http://sodipodi.sourceforge.net/DTD/sodipodi-0.dtd" version="1.1" width="16" xmlns="http://www.w3.org/2000/svg" enable-background="new">
 <metadata id="metadata90"/>
 <defs id="defs7386">
  <linearGradient id="linearGradient5606" osb:paint="solid">
   <stop id="stop5608"/>
  </linearGradient>
  <filter inkscape:collect="always" color-interpolation-filters="sRGB" id="filter7554">
   <feBlend inkscape:collect="always" id="feBlend7556" in2="BackgroundImage" mode="darken"/>
  </filter>
 </defs>
 <g inkscape:groupmode="layer" id="layer9" inkscape:label="status" transform="translate(-521.02081,183)">
  <path sodipodi:cx="-11.667262" sodipodi:cy="107.74711" d="m -11.667264,100.56203 0,1.99789 c -0.901455,-8.2e-4 -1.81332,0.24351 -2.59359,0.69496 -10e-7,0 -10e-7,0 -2e-6,0 -2.311061,1.26466 -3.267748,4.83506 -1.898639,7.08582 1.264661,2.31106 4.835064,3.26775 7.0858241,1.89864 4e-7,0 8e-7,0 1.1e-6,0 2.3110626,-1.26466 3.2677495,-4.83506 1.898641,-7.08582 1.3789898,2.24505 0.4407747,5.82876 -1.8815259,7.11547 -1e-7,0 -3e-7,0 -4e-7,0 -2.2640619,1.38758 -5.8633539,0.44518 -7.1622279,-1.89406 0,0 -1e-6,0 -1e-6,0 -0.690931,-1.12983 -0.80812,-2.58583 -0.464659,-3.92737 -0.354214,1.33874 -0.249733,2.79949 0.435697,3.94409 1.291251,2.36706 4.910281,3.35825 7.2417012,1.96482 3e-7,0 6e-7,0 9e-7,0 2.3835668,-1.3031 3.3788202,-4.93732 1.977027,-7.28725 1.4210469,2.33882 0.4617853,5.99895 -1.9436787,7.34501 -10e-8,0 -3e-7,0 -4e-7,0 -2.357339,1.42942 -6.032658,0.46609 -7.390572,-1.95588 0,0 0,0 0,0 -0.711525,-1.17575 -0.834016,-2.67347 -0.480682,-4.05255 -0.363953,1.37632 -0.254013,2.87873 0.45208,4.06906 1.350386,2.44944 5.045197,3.46096 7.4690551,2.02577 3e-7,0 6e-7,0 9e-7,0 2.4659671,-1.36225 3.4815565,-5.07227 2.0379904,-7.51466 1.4628314,2.43127 0.4832554,6.16722 -2.004622,7.57246 -10e-8,0 -3e-7,0 -4e-7,0 -2.449793,1.4712 -6.200926,0.48755 -7.618015,-2.01683 0,0 0,0 -1e-6,0 -0.732203,-1.22151 -0.860163,-2.7609 -0.497091,-4.17758 -0.373685,1.41392 -0.258267,2.958 0.468507,4.19408 1.409566,2.53184 5.180179,3.56364 7.6964511,2.08667 3e-7,0 7e-7,0 10e-7,0 2.5483441,-1.42142 3.5842141,-5.20721 2.0988769,-7.742 1.5045909,2.52367 0.5047127,6.33539 -2.0655286,7.79976 -10e-8,0 -3e-7,0 -5e-7,0 -2.5421909,1.51296 -6.3690929,0.50902 -7.8453219,-2.07773 0,0 0,0 0,0 -0.752869,-1.26723 -0.886296,-2.84828 -0.513492,-4.30254 -0.383417,1.4515 -0.262532,3.03724 0.484907,4.31904 1.468706,2.6142 5.315088,3.66631 7.9237581,2.14758 3e-7,0 6e-7,0 10e-7,0 2.630708,-1.48056 3.6868802,-5.34213 2.1597835,-7.96931 1.5463504,2.61607 0.52617,6.50355 -2.1264352,8.02707 -10e-8,0 -3e-7,0 -5e-7,0 -2.6345889,1.55472 -6.5372599,0.53047 -8.0726279,-2.13864 0,0 -10e-7,0 -10e-7,0 -0.773534,-1.31296 -0.912428,-2.93566 -0.529892,-4.4275 -0.393155,1.48908 -0.266812,3.11647 0.50129,4.44401 1.527841,2.69658 5.450003,3.76902 8.151112,2.20853 4e-7,0 7e-7,0 10e-7,0 2.7131083,-1.53971 3.7896166,-5.47708 2.2207468,-8.19672 1.588135,2.70852 0.5476402,6.67182 -2.1873784,8.25451 -1e-7,0 -3e-7,0 -5e-7,0 -2.7270429,1.59651 -6.7055279,0.55194 -8.3000709,-2.19958 -1e-6,0 -1e-6,0 -1e-6,0 -0.794213,-1.35871 -0.938577,-3.02309 -0.546302,-4.55253 -0.402887,1.52668 -0.271066,3.19575 0.517717,4.56903 1.58702,2.77898 5.584985,3.8717 8.378508,2.26943 4e-7,0 7e-7,0 1.1e-6,0 2.7954853,-1.59887 3.8922741,-5.61202 2.2816334,-8.42406 1.629906,2.80091 0.5691306,6.84 -2.248265,8.48186 -2e-7,0 -4e-7,0 -5e-7,0 -2.819457,1.63828 -6.873745,0.57343 -8.527467,-2.26049 -10e-7,0 -10e-7,0 -10e-7,0 -0.814894,-1.40446 -0.964736,-3.11051 -0.562729,-4.67756 -0.412626,1.56429 -0.275335,3.27504 0.534127,4.69407 1.646195,2.86139 5.719975,3.97443 8.605951,2.33037 4e-7,0 7e-7,0 1.1e-6,0 2.8778987,-1.65804 3.995002,-5.74701 2.3425766,-8.6515 1.671679,2.89337 0.5905676,7.00826 -2.3092283,8.70926 -10e-8,0 -3e-7,0 -5e-7,0 -2.9118949,1.68005 -7.0419639,0.59487 -8.7548209,-2.32143 0,0 -1e-6,0 -1e-6,0 -0.835556,-1.45019 -0.990857,-3.1979 -0.579112,-4.80253 -0.422364,1.60187 -0.279614,3.35427 0.55051,4.81904 1.70533,2.94377 5.85489,4.07714 8.8333049,2.39132 4e-7,0 8e-7,0 1.1e-6,0 2.960299,-1.7172 4.0977383,-5.88196 2.4035399,-8.87891 1.7134636,2.98583 0.6120378,7.17653 -2.3701715,8.93671 -10e-8,0 -3e-7,0 -5e-7,0 -3.0043489,1.72183 -7.2102319,0.61634 -8.9822639,-2.38238 -1e-6,0 -1e-6,0 -1e-6,0 -0.856235,-1.49594 -1.017006,-3.28533 -0.595522,-4.92756 -0.432096,1.63947 -0.283868,3.43355 0.566937,4.94406 1.76451,3.02617 5.989873,4.17982 9.0607009,2.45222 4e-7,0 8e-7,0 1.2e-6,0 3.042676,-1.77636 4.2003959,-6.01691 2.4644264,-9.10625 1.7552232,3.07823 0.6334951,7.34469 -2.431078,9.16401 -2e-7,0 -4e-7,0 -6e-7,0 -3.0967469,1.7636 -7.3783989,0.6378 -9.2095709,-2.44328 0,0 -1e-6,0 -1e-6,0 -0.8769,-1.54167 -1.043138,-3.37271 -0.611922,-5.05252 -0.441828,1.67705 -0.288134,3.51278 0.583338,5.06902 1.823649,3.10854 6.12478,4.28249 9.2880069,2.51313 4e-7,0 8e-7,0 1.2e-6,0 3.1250399,-1.8355 4.303062,-6.15182 2.5253331,-9.33356 1.7969941,3.17062 0.6549855,7.51287 -2.4919647,9.39135 -2e-7,1e-5 -4e-7,1e-5 -6e-7,1e-5 -3.1891609,1.80537 -7.5466149,0.65929 -9.4369669,-2.50419 0,0 -1e-6,0 -1e-6,0 -0.897582,-1.58741 -1.069297,-3.46013 -0.628349,-5.17755 -0.451567,1.71466 -0.292402,3.59207 0.599748,5.19406 1.882823,3.19095 6.25977,4.38522 9.5154499,2.57407 4e-7,0 8e-7,0 1.2e-6,0 3.2074533,-1.89467 4.4057898,-6.28681 2.5862763,-9.561 1.8387787,3.26307 0.6764557,7.68114 -2.5529079,9.6188 -2e-7,0 -4e-7,0 -6e-7,0 -3.2816149,1.84716 -7.7148829,0.68076 -9.6644099,-2.56513 -10e-7,0 -10e-7,0 -10e-7,0 -0.91826,-1.63317 -1.095445,-3.54756 -0.64476,-5.30258 -0.46133,1.75225 -0.296725,3.67135 0.61609,5.31913 1.94198,3.27343 6.394788,4.48813 9.7430817,2.63518 4e-7,0 8e-7,0 1.2e-6,0 3.2900121,-1.95389 4.5087983,-6.42195 2.6474461,-9.78885 1.8708426,3.36142 0.6697972,7.84226 -2.6310082,9.81732 -3e-7,0 -6e-7,0 -9e-7,0 -3.3610699,1.87069 -7.8416229,0.66972 -9.8164629,-2.63077 -1.870524,-3.36072 -0.669634,-7.84098 2.630543,-9.8156 10e-7,0 2e-6,0 2e-6,0 1.089855,-0.6282 2.334739,-0.96168 3.592641,-0.96244 z" sodipodi:end="10.995574" id="path14339" sodipodi:open="true" inkscape:path-effect="#path-effect14384-8" sodipodi:rx="6.1871843" sodipodi:ry="6.1871843" sodipodi:start="5.7595865" transform="matrix(0.88624425,0,0,0.88624425,539.34025,-270.47972)" sodipodi:type="arc" fill="#bebebe" color="#000000" stroke-width="3.385"/>
 </g>
</svg>
