<?xml version="1.0" encoding="UTF-8" standalone="no"?>
<!-- Created with Inkscape (http://www.inkscape.org/) -->

<svg
   xmlns:dc="http://purl.org/dc/elements/1.1/"
   xmlns:cc="http://creativecommons.org/ns#"
   xmlns:rdf="http://www.w3.org/1999/02/22-rdf-syntax-ns#"
   xmlns:svg="http://www.w3.org/2000/svg"
   xmlns="http://www.w3.org/2000/svg"
   xmlns:xlink="http://www.w3.org/1999/xlink"
   xmlns:sodipodi="http://sodipodi.sourceforge.net/DTD/sodipodi-0.dtd"
   xmlns:inkscape="http://www.inkscape.org/namespaces/inkscape"
   inkscape:export-ydpi="90.000000"
   inkscape:export-xdpi="90.000000"
   width="736"
   height="544"
   id="svg11300"
   sodipodi:version="0.32"
   inkscape:version="0.91 r"
   sodipodi:docname="go-arrows.svg"
   inkscape:output_extension="org.inkscape.output.svg.inkscape"
   version="1.0"
   style="display:inline;enable-background:new"
   inkscape:export-filename="/home/sam/paper-template.png">
  <title
     id="title3004">Paper Icon Theme Template</title>
  <sodipodi:namedview
     stroke="#ef2929"
     fill="#f57900"
     id="base"
     pagecolor="#ffffff"
     bordercolor="#000000"
     borderopacity="0.25490196"
     inkscape:pageopacity="0"
     inkscape:pageshadow="2"
     inkscape:zoom="1"
     inkscape:cx="417.14443"
     inkscape:cy="665.15144"
     inkscape:current-layer="g4447"
     showgrid="false"
     inkscape:grid-bbox="true"
     inkscape:document-units="px"
     inkscape:showpageshadow="false"
     inkscape:window-width="1920"
     inkscape:window-height="1023"
     inkscape:window-x="0"
     inkscape:window-y="27"
     width="400px"
     height="300px"
     inkscape:snap-nodes="true"
     inkscape:snap-bbox="true"
     gridtolerance="10000"
     inkscape:object-nodes="true"
     inkscape:snap-grids="true"
     showguides="true"
     inkscape:guide-bbox="true"
     inkscape:window-maximized="1"
     inkscape:bbox-paths="true"
     inkscape:snap-bbox-midpoints="true"
     inkscape:snap-global="true"
     inkscape:object-paths="true"
     inkscape:snap-intersection-paths="true"
     inkscape:snap-smooth-nodes="true">
    <inkscape:grid
       spacingy="1px"
       spacingx="1px"
       id="grid5883"
       type="xygrid"
       enabled="true"
       visible="true"
       empspacing="4"
       snapvisiblegridlinesonly="true" />
    <inkscape:grid
       type="xygrid"
       id="grid11592"
       empspacing="2"
       visible="true"
       enabled="false"
       spacingx="0.5px"
       spacingy="0.5px"
       color="#ff0000"
       opacity="0.1254902"
       empcolor="#ff0000"
       empopacity="0.25098039"
       snapvisiblegridlinesonly="true" />
  </sodipodi:namedview>
  <defs
     id="defs3">
    <filter
       inkscape:collect="always"
       style="color-interpolation-filters:sRGB"
       id="filter4240"
       x="-0.023830707"
       width="1.0476614"
       y="-0.024171716"
       height="1.0483434">
      <feGaussianBlur
         inkscape:collect="always"
         stdDeviation="3.8803953"
         id="feGaussianBlur4242" />
    </filter>
    <filter
       inkscape:collect="always"
       style="color-interpolation-filters:sRGB"
       id="filter4572"
       x="-0.024171716"
       width="1.0483434"
       y="-0.023830707"
       height="1.0476614">
      <feGaussianBlur
         inkscape:collect="always"
         stdDeviation="3.8803953"
         id="feGaussianBlur4574" />
    </filter>
    <filter
       inkscape:collect="always"
       style="color-interpolation-filters:sRGB"
       id="filter4686"
       x="-0.024171716"
       width="1.0483434"
       y="-0.023830707"
       height="1.0476614">
      <feGaussianBlur
         inkscape:collect="always"
         stdDeviation="3.8803953"
         id="feGaussianBlur4688" />
    </filter>
  </defs>
  <metadata
     id="metadata4">
    <rdf:RDF>
      <cc:Work
         rdf:about="">
        <dc:format>image/svg+xml</dc:format>
        <dc:type
           rdf:resource="http://purl.org/dc/dcmitype/StillImage" />
        <dc:creator>
          <cc:Agent>
            <dc:title>Sam Hewitt</dc:title>
          </cc:Agent>
        </dc:creator>
        <dc:source />
        <cc:license
           rdf:resource="http://creativecommons.org/licenses/by-sa/3.0/" />
        <dc:title>Paper Icon Theme Template</dc:title>
        <dc:subject>
          <rdf:Bag />
        </dc:subject>
        <dc:date />
        <dc:rights>
          <cc:Agent>
            <dc:title />
          </cc:Agent>
        </dc:rights>
        <dc:publisher>
          <cc:Agent>
            <dc:title />
          </cc:Agent>
        </dc:publisher>
        <dc:identifier />
        <dc:relation />
        <dc:language />
        <dc:coverage />
        <dc:description />
        <dc:contributor>
          <cc:Agent>
            <dc:title />
          </cc:Agent>
        </dc:contributor>
      </cc:Work>
      <cc:Work
         rdf:about="">
        <dc:format>image/svg+xml</dc:format>
        <dc:type
           rdf:resource="http://purl.org/dc/dcmitype/StillImage" />
      </cc:Work>
      <cc:License
         rdf:about="http://creativecommons.org/licenses/by-sa/3.0/">
        <cc:permits
           rdf:resource="http://creativecommons.org/ns#Reproduction" />
        <cc:permits
           rdf:resource="http://creativecommons.org/ns#Distribution" />
        <cc:requires
           rdf:resource="http://creativecommons.org/ns#Notice" />
        <cc:requires
           rdf:resource="http://creativecommons.org/ns#Attribution" />
        <cc:permits
           rdf:resource="http://creativecommons.org/ns#DerivativeWorks" />
        <cc:requires
           rdf:resource="http://creativecommons.org/ns#ShareAlike" />
      </cc:License>
    </rdf:RDF>
  </metadata>
  <g
     style="display:inline"
     inkscape:groupmode="layer"
     inkscape:label="go-previous"
     id="layer1"
     transform="translate(0,244)">
    <g
       style="display:none"
       inkscape:label="Baseplate"
       id="layer7"
       inkscape:groupmode="layer">
      <text
         y="337.74512"
         xml:space="preserve"
         x="15.006836"
         style="font-style:normal;font-variant:normal;font-weight:normal;font-stretch:normal;font-size:18px;font-family:'DejaVu Sans';-inkscape-font-specification:'DejaVu Sans';display:inline;fill:#000000;fill-opacity:1;stroke:none;enable-background:new"
         inkscape:label="context"
         id="context"><tspan
           style="font-style:normal;font-variant:normal;font-weight:normal;font-stretch:normal;font-family:'DejaVu Sans';-inkscape-font-specification:'DejaVu Sans'"
           y="337.74512"
           x="15.006836"
           sodipodi:role="line"
           id="tspan3933">actions</tspan></text>
      <text
         y="337.74512"
         xml:space="preserve"
         x="142.48828"
         style="font-style:normal;font-variant:normal;font-weight:bold;font-stretch:normal;font-size:18px;line-height:125%;font-family:'DejaVu Sans';-inkscape-font-specification:'DejaVu Sans Bold';text-align:start;writing-mode:lr-tb;text-anchor:start;display:inline;fill:#000000;fill-opacity:1;stroke:none;enable-background:new"
         sodipodi:linespacing="125%"
         inkscape:label="icon-name"
         id="icon-name"><tspan
           style="font-style:normal;font-variant:normal;font-weight:bold;font-stretch:normal;font-size:18px;font-family:'DejaVu Sans';-inkscape-font-specification:'DejaVu Sans Bold'"
           y="337.74512"
           x="142.48828"
           sodipodi:role="line"
           id="tspan3937">go-previous</tspan></text>
      <rect
         style="display:inline;overflow:visible;visibility:visible;fill:#d3d7cf;fill-opacity:1;fill-rule:nonzero;stroke:none;stroke-width:2;marker:none;enable-background:accumulate"
         id="rect16x16"
         width="16"
         height="16"
         x="-32"
         y="268"
         inkscape:label="16x16"
         transform="scale(-1,1)" />
      <rect
         style="display:inline;overflow:visible;visibility:visible;fill:#d3d7cf;fill-opacity:1;fill-rule:nonzero;stroke:none;stroke-width:2;marker:none;enable-background:accumulate"
         id="rect24x24"
         width="24"
         height="24"
         x="-76"
         y="260"
         inkscape:label="24x24"
         transform="scale(-1,1)" />
      <rect
         style="display:inline;overflow:visible;visibility:visible;fill:#d3d7cf;fill-opacity:1;fill-rule:nonzero;stroke:none;stroke-width:2;marker:none;enable-background:accumulate"
         id="rect32x32"
         width="32"
         height="32"
         x="-128"
         y="252"
         inkscape:label="32x32"
         transform="scale(-1,1)" />
      <rect
         inkscape:label="48x48"
         y="236"
         x="-192"
         height="48"
         width="48"
         id="rect48x48"
         style="display:inline;overflow:visible;visibility:visible;fill:#d3d7cf;fill-opacity:1;fill-rule:nonzero;stroke:none;stroke-width:2;marker:none;enable-background:accumulate"
         transform="scale(-1,1)" />
      <rect
         style="display:inline;overflow:visible;visibility:visible;fill:#d3d7cf;fill-opacity:1;fill-rule:nonzero;stroke:none;stroke-width:2;marker:none;enable-background:accumulate"
         id="rect3951"
         width="512"
         height="512"
         x="-720"
         y="-228"
         inkscape:label="48x48"
         transform="scale(-1,1)" />
    </g>
    <g
       inkscape:groupmode="layer"
       id="layer6"
       inkscape:label="Symbols"
       style="display:inline">
      <g
         id="g4394">
        <path
           d="m 23.7885,270.00049 1.38509,1.38585 -3.63493,3.63476 8.46136,-0.0211 0,2 -8.46136,0.0211 3.63493,3.63439 -1.38509,1.38509 -6.00086,-6.04061 z"
           style="fill:#4d4d4d;fill-opacity:1;fill-rule:nonzero;stroke:none"
           id="path4765"
           inkscape:connector-curvature="0"
           sodipodi:nodetypes="cccccccccc" />
        <rect
           style="display:inline;overflow:visible;visibility:visible;fill:none;fill-opacity:1;fill-rule:nonzero;stroke:none;stroke-width:2;marker:none;enable-background:accumulate"
           id="rect4349"
           width="16"
           height="16"
           x="-32"
           y="268"
           inkscape:label="16x16"
           transform="scale(-1,1)" />
      </g>
      <g
         id="g4388">
        <path
           sodipodi:nodetypes="cccccccccc"
           inkscape:connector-curvature="0"
           id="path4224"
           style="opacity:0.2;fill:#000000;fill-opacity:1;fill-rule:nonzero;stroke:none"
           d="m 63.682715,264.50073 2.077635,2.07878 -5.452395,5.42049 12.69204,0 0,3 -12.69204,0 5.452395,5.48324 -2.077635,2.07763 -9.00129,-9.06091 z" />
        <path
           d="m 63.682715,263.50073 2.077635,2.07878 -5.452395,5.42049 12.69204,0 0,3 -12.69204,0 5.452395,5.48324 -2.077635,2.07763 -9.00129,-9.06091 z"
           style="fill:#4d4d4d;fill-opacity:1;fill-rule:nonzero;stroke:none"
           id="path4192"
           inkscape:connector-curvature="0"
           sodipodi:nodetypes="cccccccccc" />
        <path
           inkscape:connector-curvature="0"
           id="path4212"
           d="m 63.683594,263.5 -9.001953,9 0.498047,0.50195 8.503906,-8.50195 1.576172,1.57812 0.5,-0.49804 L 63.683594,263.5 Z M 61.314453,271 60.308594,272 73,272 l 0,-1 -11.685547,0 z m -1.005859,4 4.953125,4.98047 0.498047,-0.49805 L 61.302734,275 l -0.99414,0 z"
           style="opacity:0.2;fill:#ffffff;fill-opacity:1;fill-rule:nonzero;stroke:none" />
        <rect
           style="display:inline;overflow:visible;visibility:visible;fill:none;fill-opacity:1;fill-rule:nonzero;stroke:none;stroke-width:2;marker:none;enable-background:accumulate"
           id="rect4351"
           width="24"
           height="24"
           x="-76"
           y="260"
           inkscape:label="24x24"
           transform="scale(-1,1)" />
      </g>
      <g
         id="g4382">
        <path
           d="m 111.57695,257.00098 2.77018,2.7717 -7.26986,7.22732 16.92272,0 0,4 -16.92272,0 7.26986,7.31098 -2.77018,2.77018 -12.00172,-12.08122 z"
           style="opacity:0.2;fill:#000000;fill-opacity:1;fill-rule:nonzero;stroke:none"
           id="path4222"
           inkscape:connector-curvature="0"
           sodipodi:nodetypes="cccccccccc" />
        <path
           sodipodi:nodetypes="cccccccccc"
           inkscape:connector-curvature="0"
           id="path4173"
           style="fill:#4d4d4d;fill-opacity:1;fill-rule:nonzero;stroke:none"
           d="m 111.57695,256.00098 2.77018,2.7717 -7.26986,7.22732 16.92272,0 0,4 -16.92272,0 7.26986,7.31098 -2.77018,2.77018 -12.00172,-12.08122 z" />
        <path
           inkscape:connector-curvature="0"
           id="path4210"
           d="M 111.57617,256.00195 99.576172,268 l 0.498048,0.50195 11.50195,-11.5 2.26953,2.26953 0.50196,-0.49804 -2.77149,-2.77149 z M 108.08398,266 l -1.00586,1 16.92188,0 0,-1 -15.91602,0 z m -1.00586,5 6.77149,6.80859 0.49805,-0.49804 -6.27539,-6.31055 -0.99415,0 z"
           style="opacity:0.2;fill:#ffffff;fill-opacity:1;fill-rule:nonzero;stroke:none" />
        <rect
           style="display:inline;overflow:visible;visibility:visible;fill:none;fill-opacity:1;fill-rule:nonzero;stroke:none;stroke-width:2;marker:none;enable-background:accumulate"
           id="rect4353"
           width="32"
           height="32"
           x="-128"
           y="252"
           inkscape:label="32x32"
           transform="scale(-1,1)" />
      </g>
      <g
         id="g4376">
        <path
           d="m 167.36548,243.00147 4.15527,4.15755 L 160.61596,258 l 25.38408,0 0,6 -25.38408,0 10.90479,10.96647 -4.15527,4.15527 -18.00258,-18.12183 z"
           style="opacity:0.2;fill:#000000;fill-opacity:1;fill-rule:nonzero;stroke:none"
           id="path4226"
           inkscape:connector-curvature="0"
           sodipodi:nodetypes="cccccccccc" />
        <path
           sodipodi:nodetypes="cccccccccc"
           inkscape:connector-curvature="0"
           id="path4198"
           style="fill:#4d4d4d;fill-opacity:1;fill-rule:nonzero;stroke:none"
           d="m 167.36548,242.00147 4.15527,4.15755 L 160.61596,257 l 25.38408,0 0,6 -25.38408,0 10.90479,10.96647 -4.15527,4.15527 -18.00258,-18.12183 z" />
        <path
           inkscape:connector-curvature="0"
           id="path4214"
           d="M 167.36523,242.00195 149.36328,260 l 0.49805,0.50195 17.5039,-17.5 3.6543,3.6543 0.50195,-0.49805 -4.15625,-4.15625 z M 161.62109,257 l -1.00586,1 25.38477,0 0,-1 -24.37891,0 z m -1.00586,7 10.40821,10.46484 0.49804,-0.49804 -9.9121,-9.9668 -0.99415,0 z"
           style="opacity:0.2;fill:#ffffff;fill-opacity:1;fill-rule:nonzero;stroke:none" />
        <rect
           inkscape:label="48x48"
           y="236"
           x="-192"
           height="48"
           width="48"
           id="rect4355"
           style="display:inline;overflow:visible;visibility:visible;fill:none;fill-opacity:1;fill-rule:nonzero;stroke:none;stroke-width:2;marker:none;enable-background:accumulate"
           transform="scale(-1,1)" />
      </g>
      <g
         id="g4368">
        <path
           sodipodi:nodetypes="cccccccccc"
           inkscape:connector-curvature="0"
           id="path4244"
           style="opacity:0.1;fill:#000000;fill-opacity:1;fill-rule:nonzero;stroke:none;filter:url(#filter4240)"
           d="m 457.23186,-159.98434 44.32288,44.34722 L 385.23698,0 656.0005,0 l 0,64 -270.76352,0 116.31776,116.97568 -44.32288,44.32288 L 265.20434,31.99904 Z" />
        <path
           d="m 457.23186,-159.98434 44.32288,44.34722 L 385.23698,0 656.0005,0 l 0,64 -270.76352,0 116.31776,116.97568 -44.32288,44.32288 L 265.20434,31.99904 Z"
           style="opacity:0.2;fill:#000000;fill-opacity:1;fill-rule:nonzero;stroke:none;filter:url(#filter4240)"
           id="path4238"
           inkscape:connector-curvature="0"
           sodipodi:nodetypes="cccccccccc" />
        <path
           sodipodi:nodetypes="cccccccccc"
           inkscape:connector-curvature="0"
           id="path4236"
           style="opacity:0.2;fill:#000000;fill-opacity:1;fill-rule:nonzero;stroke:none"
           d="m 457.23186,-161.98434 44.32288,44.34722 L 385.23698,-2 l 270.76352,0 0,64 -270.76352,0 116.31776,116.97568 -44.32288,44.32288 L 265.20434,29.99904 Z" />
        <path
           d="m 457.23186,-163.98434 44.32288,44.34722 L 385.23698,-4 l 270.76352,0 0,64 -270.76352,0 116.31776,116.97568 -44.32288,44.32288 L 265.20434,27.99904 Z"
           style="fill:#4d4d4d;fill-opacity:1;fill-rule:nonzero;stroke:none"
           id="path4167"
           inkscape:connector-curvature="0"
           sodipodi:nodetypes="cccccccccc" />
        <path
           inkscape:connector-curvature="0"
           id="path4231"
           d="M 457.23242,-163.98437 265.20508,28 l 0.99609,1.00391 191.03125,-190.98828 43.32031,43.34375 1.00196,-0.9961 -44.32227,-44.34765 z M 387.24805,-4 385.23633,-2 656,-2 l 0,-2 -268.75195,0 z m -2.01172,66 115.32031,115.97461 0.99805,-0.99805 L 387.22461,62 l -1.98828,0 z"
           style="opacity:0.2;fill:#ffffff;fill-opacity:1;fill-rule:nonzero;stroke:none" />
        <rect
           style="display:inline;overflow:visible;visibility:visible;fill:none;fill-opacity:1;fill-rule:nonzero;stroke:none;stroke-width:2;marker:none;enable-background:accumulate"
           id="rect4357"
           width="512"
           height="512"
           x="-720"
           y="-228"
           inkscape:label="48x48"
           transform="scale(-1,1)" />
      </g>
    </g>
  </g>
  <g
     transform="translate(0,244)"
     id="g4246"
     inkscape:label="go-next"
     inkscape:groupmode="layer"
     style="display:inline">
    <g
       inkscape:groupmode="layer"
       id="g4248"
       inkscape:label="Baseplate"
       style="display:none">
      <text
         id="text4250"
         inkscape:label="context"
         style="font-style:normal;font-variant:normal;font-weight:normal;font-stretch:normal;font-size:18px;font-family:'DejaVu Sans';-inkscape-font-specification:'DejaVu Sans';display:inline;fill:#000000;fill-opacity:1;stroke:none;enable-background:new"
         x="755.00684"
         xml:space="preserve"
         y="337.74512"><tspan
           id="tspan4252"
           sodipodi:role="line"
           x="755.00684"
           y="337.74512"
           style="font-style:normal;font-variant:normal;font-weight:normal;font-stretch:normal;font-family:'DejaVu Sans';-inkscape-font-specification:'DejaVu Sans'">actions</tspan></text>
      <text
         id="text4254"
         inkscape:label="icon-name"
         sodipodi:linespacing="125%"
         style="font-style:normal;font-variant:normal;font-weight:bold;font-stretch:normal;font-size:18px;line-height:125%;font-family:'DejaVu Sans';-inkscape-font-specification:'DejaVu Sans Bold';text-align:start;writing-mode:lr-tb;text-anchor:start;display:inline;fill:#000000;fill-opacity:1;stroke:none;enable-background:new"
         x="882.48828"
         xml:space="preserve"
         y="337.74512"><tspan
           sodipodi:role="line"
           x="882.48828"
           y="337.74512"
           style="font-style:normal;font-variant:normal;font-weight:bold;font-stretch:normal;font-size:18px;font-family:'DejaVu Sans';-inkscape-font-specification:'DejaVu Sans Bold'"
           id="tspan4300">go-next</tspan></text>
      <rect
         transform="scale(-1,1)"
         inkscape:label="16x16"
         y="268"
         x="-772"
         height="16"
         width="16"
         id="rect4258"
         style="display:inline;overflow:visible;visibility:visible;fill:#d3d7cf;fill-opacity:1;fill-rule:nonzero;stroke:none;stroke-width:2;marker:none;enable-background:accumulate" />
      <rect
         transform="scale(-1,1)"
         inkscape:label="24x24"
         y="260"
         x="-816"
         height="24"
         width="24"
         id="rect4260"
         style="display:inline;overflow:visible;visibility:visible;fill:#d3d7cf;fill-opacity:1;fill-rule:nonzero;stroke:none;stroke-width:2;marker:none;enable-background:accumulate" />
      <rect
         transform="scale(-1,1)"
         inkscape:label="32x32"
         y="252"
         x="-868"
         height="32"
         width="32"
         id="rect4262"
         style="display:inline;overflow:visible;visibility:visible;fill:#d3d7cf;fill-opacity:1;fill-rule:nonzero;stroke:none;stroke-width:2;marker:none;enable-background:accumulate" />
      <rect
         transform="scale(-1,1)"
         style="display:inline;overflow:visible;visibility:visible;fill:#d3d7cf;fill-opacity:1;fill-rule:nonzero;stroke:none;stroke-width:2;marker:none;enable-background:accumulate"
         id="rect4264"
         width="48"
         height="48"
         x="-932"
         y="236"
         inkscape:label="48x48" />
      <rect
         transform="scale(-1,1)"
         inkscape:label="48x48"
         y="-228"
         x="-1460"
         height="512"
         width="512"
         id="rect4266"
         style="display:inline;overflow:visible;visibility:visible;fill:#d3d7cf;fill-opacity:1;fill-rule:nonzero;stroke:none;stroke-width:2;marker:none;enable-background:accumulate" />
    </g>
    <g
       style="display:inline"
       inkscape:label="Symbols"
       id="g4268"
       inkscape:groupmode="layer">
      <use
         style="display:inline;enable-background:new"
         x="0"
         y="0"
         xlink:href="#g4368"
         id="use4400"
         transform="matrix(-1,0,0,1,1668,0)"
         width="100%"
         height="100%" />
      <use
         style="display:inline;enable-background:new"
         x="0"
         y="0"
         xlink:href="#g4376"
         id="use4405"
         transform="matrix(-1,0,0,1,1076,0)"
         width="100%"
         height="100%" />
      <use
         style="display:inline;enable-background:new"
         x="0"
         y="0"
         xlink:href="#g4382"
         id="use4410"
         transform="matrix(-1,0,0,1,964,0)"
         width="100%"
         height="100%" />
      <use
         style="display:inline;enable-background:new"
         x="0"
         y="0"
         xlink:href="#g4388"
         id="use4415"
         transform="matrix(-1,0,0,1,868,0)"
         width="100%"
         height="100%" />
      <use
         style="display:inline;enable-background:new"
         x="0"
         y="0"
         xlink:href="#g4394"
         id="use4420"
         transform="matrix(-1,0,0,1,788,0)"
         width="100%"
         height="100%" />
    </g>
  </g>
  <g
     transform="translate(0,244)"
     id="g4425"
     inkscape:label="go-up"
     inkscape:groupmode="layer"
     style="display:inline">
    <g
       inkscape:groupmode="layer"
       id="g4427"
       inkscape:label="Baseplate"
       style="display:none">
      <text
         id="text4429"
         inkscape:label="context"
         style="font-style:normal;font-variant:normal;font-weight:normal;font-stretch:normal;font-size:18px;font-family:'DejaVu Sans';-inkscape-font-specification:'DejaVu Sans';display:inline;fill:#000000;fill-opacity:1;stroke:none;enable-background:new"
         x="15.006836"
         xml:space="preserve"
         y="-302.25488"><tspan
           id="tspan4431"
           sodipodi:role="line"
           x="15.006836"
           y="-302.25488"
           style="font-style:normal;font-variant:normal;font-weight:normal;font-stretch:normal;font-family:'DejaVu Sans';-inkscape-font-specification:'DejaVu Sans'">actions</tspan></text>
      <text
         id="text4433"
         inkscape:label="icon-name"
         sodipodi:linespacing="125%"
         style="font-style:normal;font-variant:normal;font-weight:bold;font-stretch:normal;font-size:18px;line-height:125%;font-family:'DejaVu Sans';-inkscape-font-specification:'DejaVu Sans Bold';text-align:start;writing-mode:lr-tb;text-anchor:start;display:inline;fill:#000000;fill-opacity:1;stroke:none;enable-background:new"
         x="142.48828"
         xml:space="preserve"
         y="-302.25488"><tspan
           sodipodi:role="line"
           x="142.48828"
           y="-302.25488"
           style="font-style:normal;font-variant:normal;font-weight:bold;font-stretch:normal;font-size:18px;font-family:'DejaVu Sans';-inkscape-font-specification:'DejaVu Sans Bold'"
           id="tspan4499">go-up</tspan></text>
      <rect
         transform="scale(-1,1)"
         inkscape:label="16x16"
         y="-372"
         x="-32"
         height="16"
         width="16"
         id="rect4437"
         style="display:inline;overflow:visible;visibility:visible;fill:#d3d7cf;fill-opacity:1;fill-rule:nonzero;stroke:none;stroke-width:2;marker:none;enable-background:accumulate" />
      <rect
         transform="scale(-1,1)"
         inkscape:label="24x24"
         y="-380"
         x="-76"
         height="24"
         width="24"
         id="rect4439"
         style="display:inline;overflow:visible;visibility:visible;fill:#d3d7cf;fill-opacity:1;fill-rule:nonzero;stroke:none;stroke-width:2;marker:none;enable-background:accumulate" />
      <rect
         transform="scale(-1,1)"
         inkscape:label="32x32"
         y="-388"
         x="-128"
         height="32"
         width="32"
         id="rect4441"
         style="display:inline;overflow:visible;visibility:visible;fill:#d3d7cf;fill-opacity:1;fill-rule:nonzero;stroke:none;stroke-width:2;marker:none;enable-background:accumulate" />
      <rect
         transform="scale(-1,1)"
         style="display:inline;overflow:visible;visibility:visible;fill:#d3d7cf;fill-opacity:1;fill-rule:nonzero;stroke:none;stroke-width:2;marker:none;enable-background:accumulate"
         id="rect4443"
         width="48"
         height="48"
         x="-192"
         y="-404"
         inkscape:label="48x48" />
      <rect
         transform="scale(-1,1)"
         inkscape:label="48x48"
         y="-868"
         x="-720"
         height="512"
         width="512"
         id="rect4445"
         style="display:inline;overflow:visible;visibility:visible;fill:#d3d7cf;fill-opacity:1;fill-rule:nonzero;stroke:none;stroke-width:2;marker:none;enable-background:accumulate" />
    </g>
    <g
       style="display:inline"
       inkscape:label="Symbols"
       id="g4447"
       inkscape:groupmode="layer">
      <g
         id="g4534"
         transform="matrix(0,1,-1,0,-340,-388)">
        <path
           sodipodi:nodetypes="cccccccccc"
           inkscape:connector-curvature="0"
           id="path4451"
           style="fill:#4d4d4d;fill-opacity:1;fill-rule:nonzero;stroke:none"
           d="m 23.7885,-369.99951 1.38509,1.38585 -3.63493,3.63476 8.46136,-0.0211 0,2 -8.46136,0.0211 3.63493,3.63439 -1.38509,1.38509 -6.00086,-6.04061 z" />
        <rect
           transform="scale(-1,1)"
           inkscape:label="16x16"
           y="-372"
           x="-32"
           height="16"
           width="16"
           id="rect4453"
           style="display:inline;overflow:visible;visibility:visible;fill:none;fill-opacity:1;fill-rule:nonzero;stroke:none;stroke-width:2;marker:none;enable-background:accumulate" />
      </g>
      <g
         id="g4530"
         transform="matrix(0,1,-1,0,-304,-432)">
        <path
           sodipodi:nodetypes="cccccccccc"
           inkscape:connector-curvature="0"
           id="path4548"
           style="opacity:0.2;fill:#000000;fill-opacity:1;fill-rule:nonzero;stroke:none"
           d="m 64.682715,-376.49927 2.077635,2.07878 -5.452395,5.42049 12.69204,0 0,3 -12.69204,0 5.452395,5.48324 -2.077635,2.07763 -9.00129,-9.06091 z" />
        <path
           sodipodi:nodetypes="cccccccccc"
           inkscape:connector-curvature="0"
           id="path4459"
           style="fill:#4d4d4d;fill-opacity:1;fill-rule:nonzero;stroke:none"
           d="m 63.682715,-376.49927 2.077635,2.07878 -5.452395,5.42049 12.69204,0 0,3 -12.69204,0 5.452395,5.48324 -2.077635,2.07763 -9.00129,-9.06091 z" />
        <rect
           transform="scale(-1,1)"
           inkscape:label="24x24"
           y="-380"
           x="-76"
           height="24"
           width="24"
           id="rect4463"
           style="display:inline;overflow:visible;visibility:visible;fill:none;fill-opacity:1;fill-rule:nonzero;stroke:none;stroke-width:2;marker:none;enable-background:accumulate" />
        <path
           style="opacity:0.2;fill:#ffffff;fill-opacity:1;fill-rule:nonzero;stroke:none"
           d="m 63.5,-133.31836 -9.060547,9.00195 0.501953,0.50196 8.558594,-8.50391 8.5,8.50195 0.5,-0.5 -9,-9.00195 z"
           transform="matrix(0,-1,1,0,188,-304)"
           id="path4542"
           inkscape:connector-curvature="0" />
      </g>
      <g
         id="g4526"
         transform="matrix(0,1,-1,0,-260,-484)">
        <path
           d="m 112.57695,-383.99902 2.77018,2.7717 -7.26986,7.22732 16.92272,0 0,4 -16.92272,0 7.26986,7.31098 -2.77018,2.77018 -12.00172,-12.08122 z"
           style="opacity:0.2;fill:#000000;fill-opacity:1;fill-rule:nonzero;stroke:none"
           id="path4550"
           inkscape:connector-curvature="0"
           sodipodi:nodetypes="cccccccccc" />
        <path
           d="m 111.57695,-383.99902 2.77018,2.7717 -7.26986,7.22732 16.92272,0 0,4 -16.92272,0 7.26986,7.31098 -2.77018,2.77018 -12.00172,-12.08122 z"
           style="fill:#4d4d4d;fill-opacity:1;fill-rule:nonzero;stroke:none"
           id="path4469"
           inkscape:connector-curvature="0"
           sodipodi:nodetypes="cccccccccc" />
        <rect
           transform="scale(-1,1)"
           inkscape:label="32x32"
           y="-388"
           x="-128"
           height="32"
           width="32"
           id="rect4473"
           style="display:inline;overflow:visible;visibility:visible;fill:none;fill-opacity:1;fill-rule:nonzero;stroke:none;stroke-width:2;marker:none;enable-background:accumulate" />
        <path
           style="opacity:0.2;fill:#ffffff;fill-opacity:1;fill-rule:nonzero;stroke:none"
           d="m 112,-140.42383 -12.082031,12 0.501951,0.50195 11.58008,-11.50195 11.49805,11.5 0.5,-0.5 -11.99805,-12 z"
           transform="matrix(0,-1,1,0,240,-260)"
           id="path4544"
           inkscape:connector-curvature="0" />
      </g>
      <g
         id="g4522"
         transform="matrix(0,1,-1,0,-212,-548)">
        <path
           d="m 168.36548,-397.99853 4.15527,4.15755 -10.90479,10.84098 25.38408,0 0,6 -25.38408,0 10.90479,10.96647 -4.15527,4.15527 -18.00258,-18.12183 z"
           style="opacity:0.2;fill:#000000;fill-opacity:1;fill-rule:nonzero;stroke:none"
           id="path4552"
           inkscape:connector-curvature="0"
           sodipodi:nodetypes="cccccccccc" />
        <path
           d="m 167.36548,-397.99853 4.15527,4.15755 -10.90479,10.84098 25.38408,0 0,6 -25.38408,0 10.90479,10.96647 -4.15527,4.15527 -18.00258,-18.12183 z"
           style="fill:#4d4d4d;fill-opacity:1;fill-rule:nonzero;stroke:none"
           id="path4479"
           inkscape:connector-curvature="0"
           sodipodi:nodetypes="cccccccccc" />
        <rect
           transform="scale(-1,1)"
           style="display:inline;overflow:visible;visibility:visible;fill:none;fill-opacity:1;fill-rule:nonzero;stroke:none;stroke-width:2;marker:none;enable-background:accumulate"
           id="rect4483"
           width="48"
           height="48"
           x="-192"
           y="-404"
           inkscape:label="48x48" />
        <path
           style="opacity:0.2;fill:#ffffff;fill-opacity:1;fill-rule:nonzero;stroke:none"
           d="m 168,-154.63672 -18.12109,18.00195 0.50195,0.50196 17.61914,-17.50391 17.49805,17.50195 0.5,-0.5 L 168,-154.63672 Z"
           transform="matrix(0,-1,1,0,304,-212)"
           id="path4546"
           inkscape:connector-curvature="0" />
      </g>
      <g
         id="g4538"
         transform="matrix(0,1,-1,0,-148,-1076)">
        <path
           d="m 461.23186,-803.98434 44.32288,44.34722 L 389.23698,-644 l 270.76352,0 0,64 -270.76352,0 116.31776,116.97568 -44.32288,44.32288 -192.02752,-193.29952 z"
           style="opacity:0.1;fill:#000000;fill-opacity:1;fill-rule:nonzero;stroke:none;filter:url(#filter4572)"
           id="path4576"
           inkscape:connector-curvature="0"
           sodipodi:nodetypes="cccccccccc" />
        <path
           sodipodi:nodetypes="cccccccccc"
           inkscape:connector-curvature="0"
           id="path4570"
           style="opacity:0.2;fill:#000000;fill-opacity:1;fill-rule:nonzero;stroke:none;filter:url(#filter4572)"
           d="m 461.23186,-803.98434 44.32288,44.34722 L 389.23698,-644 l 270.76352,0 0,64 -270.76352,0 116.31776,116.97568 -44.32288,44.32288 -192.02752,-193.29952 z" />
        <path
           d="m 459.23186,-803.98434 44.32288,44.34722 L 387.23698,-644 l 270.76352,0 0,64 -270.76352,0 116.31776,116.97568 -44.32288,44.32288 -192.02752,-193.29952 z"
           style="opacity:0.2;fill:#000000;fill-opacity:1;fill-rule:nonzero;stroke:none"
           id="path4568"
           inkscape:connector-curvature="0"
           sodipodi:nodetypes="cccccccccc" />
        <path
           sodipodi:nodetypes="cccccccccc"
           inkscape:connector-curvature="0"
           id="path4493"
           style="fill:#4d4d4d;fill-opacity:1;fill-rule:nonzero;stroke:none"
           d="m 457.23186,-803.98434 44.32288,44.34722 L 385.23698,-644 l 270.76352,0 0,64 -270.76352,0 116.31776,116.97568 -44.32288,44.32288 -192.02752,-193.29952 z" />
        <rect
           transform="scale(-1,1)"
           inkscape:label="48x48"
           y="-868"
           x="-720"
           height="512"
           width="512"
           id="rect4497"
           style="display:inline;overflow:visible;visibility:visible;fill:none;fill-opacity:1;fill-rule:nonzero;stroke:none;stroke-width:2;marker:none;enable-background:accumulate" />
        <path
           style="opacity:0.2;fill:#ffffff;fill-opacity:1;fill-rule:nonzero;stroke:none"
           d="m 464,-566.79492 -193.29883,192.02734 1.00391,1.00391 L 464,-564.79492 l 190.98438,191.02734 1,-1 L 464,-566.79492 Z"
           transform="matrix(0,-1,1,0,832,-148)"
           id="path4563"
           inkscape:connector-curvature="0" />
      </g>
    </g>
  </g>
  <g
     style="display:inline"
     inkscape:groupmode="layer"
     inkscape:label="go-down"
     id="g4578"
     transform="translate(0,244)">
    <g
       style="display:none"
       inkscape:label="Baseplate"
       id="g4580"
       inkscape:groupmode="layer">
      <text
         y="-302.25488"
         xml:space="preserve"
         x="755.00684"
         style="font-style:normal;font-variant:normal;font-weight:normal;font-stretch:normal;font-size:18px;font-family:'DejaVu Sans';-inkscape-font-specification:'DejaVu Sans';display:inline;fill:#000000;fill-opacity:1;stroke:none;enable-background:new"
         inkscape:label="context"
         id="text4582"><tspan
           style="font-style:normal;font-variant:normal;font-weight:normal;font-stretch:normal;font-family:'DejaVu Sans';-inkscape-font-specification:'DejaVu Sans'"
           y="-302.25488"
           x="755.00684"
           sodipodi:role="line"
           id="tspan4584">actions</tspan></text>
      <text
         y="-302.25488"
         xml:space="preserve"
         x="882.48828"
         style="font-style:normal;font-variant:normal;font-weight:bold;font-stretch:normal;font-size:18px;line-height:125%;font-family:'DejaVu Sans';-inkscape-font-specification:'DejaVu Sans Bold';text-align:start;writing-mode:lr-tb;text-anchor:start;display:inline;fill:#000000;fill-opacity:1;stroke:none;enable-background:new"
         sodipodi:linespacing="125%"
         inkscape:label="icon-name"
         id="text4586"><tspan
           style="font-style:normal;font-variant:normal;font-weight:bold;font-stretch:normal;font-size:18px;font-family:'DejaVu Sans';-inkscape-font-specification:'DejaVu Sans Bold'"
           y="-302.25488"
           x="882.48828"
           sodipodi:role="line"
           id="tspan4652">go-down</tspan></text>
      <rect
         style="display:inline;overflow:visible;visibility:visible;fill:#d3d7cf;fill-opacity:1;fill-rule:nonzero;stroke:none;stroke-width:2;marker:none;enable-background:accumulate"
         id="rect4590"
         width="16"
         height="16"
         x="-772"
         y="-372"
         inkscape:label="16x16"
         transform="scale(-1,1)" />
      <rect
         style="display:inline;overflow:visible;visibility:visible;fill:#d3d7cf;fill-opacity:1;fill-rule:nonzero;stroke:none;stroke-width:2;marker:none;enable-background:accumulate"
         id="rect4592"
         width="24"
         height="24"
         x="-816"
         y="-380"
         inkscape:label="24x24"
         transform="scale(-1,1)" />
      <rect
         style="display:inline;overflow:visible;visibility:visible;fill:#d3d7cf;fill-opacity:1;fill-rule:nonzero;stroke:none;stroke-width:2;marker:none;enable-background:accumulate"
         id="rect4594"
         width="32"
         height="32"
         x="-868"
         y="-388"
         inkscape:label="32x32"
         transform="scale(-1,1)" />
      <rect
         inkscape:label="48x48"
         y="-404"
         x="-932"
         height="48"
         width="48"
         id="rect4596"
         style="display:inline;overflow:visible;visibility:visible;fill:#d3d7cf;fill-opacity:1;fill-rule:nonzero;stroke:none;stroke-width:2;marker:none;enable-background:accumulate"
         transform="scale(-1,1)" />
      <rect
         style="display:inline;overflow:visible;visibility:visible;fill:#d3d7cf;fill-opacity:1;fill-rule:nonzero;stroke:none;stroke-width:2;marker:none;enable-background:accumulate"
         id="rect4598"
         width="512"
         height="512"
         x="-1460"
         y="-868"
         inkscape:label="48x48"
         transform="scale(-1,1)" />
    </g>
    <g
       inkscape:groupmode="layer"
       id="g4600"
       inkscape:label="Symbols"
       style="display:inline">
      <g
         transform="matrix(0,-1,-1,0,400,-340)"
         id="g4602">
        <path
           d="m 23.7885,-369.99951 1.38509,1.38585 -3.63493,3.63476 8.46136,-0.0211 0,2 -8.46136,0.0211 3.63493,3.63439 -1.38509,1.38509 -6.00086,-6.04061 z"
           style="fill:#4d4d4d;fill-opacity:1;fill-rule:nonzero;stroke:none"
           id="path4604"
           inkscape:connector-curvature="0"
           sodipodi:nodetypes="cccccccccc" />
        <rect
           style="display:inline;overflow:visible;visibility:visible;fill:none;fill-opacity:1;fill-rule:nonzero;stroke:none;stroke-width:2;marker:none;enable-background:accumulate"
           id="rect4606"
           width="16"
           height="16"
           x="-32"
           y="-372"
           inkscape:label="16x16"
           transform="scale(-1,1)" />
      </g>
      <g
         transform="matrix(0,-1,-1,0,436,-304)"
         id="g4608">
        <path
           sodipodi:nodetypes="cccccccccc"
           inkscape:connector-curvature="0"
           id="path4668"
           style="opacity:0.2;fill:#000000;fill-opacity:1;fill-rule:nonzero;stroke:none"
           d="m 62.68229,-376.49927 2.077635,2.07878 -5.452395,5.42049 12.69204,0 0,3 -12.69204,0 5.452395,5.48324 -2.077635,2.07763 -9.00129,-9.06091 z" />
        <path
           d="m 63.682715,-376.49927 2.077635,2.07878 -5.452395,5.42049 12.69204,0 0,3 -12.69204,0 5.452395,5.48324 -2.077635,2.07763 -9.00129,-9.06091 z"
           style="fill:#4d4d4d;fill-opacity:1;fill-rule:nonzero;stroke:none"
           id="path4610"
           inkscape:connector-curvature="0"
           sodipodi:nodetypes="cccccccccc" />
        <rect
           style="display:inline;overflow:visible;visibility:visible;fill:none;fill-opacity:1;fill-rule:nonzero;stroke:none;stroke-width:2;marker:none;enable-background:accumulate"
           id="rect4612"
           width="24"
           height="24"
           x="-76"
           y="-380"
           inkscape:label="24x24"
           transform="scale(-1,1)" />
        <path
           style="fill:#ffffff;fill-opacity:1;fill-rule:nonzero;stroke:none;opacity:0.2"
           d="M 802 -133 L 802 -132 L 805 -132 L 805 -133 L 802 -133 z M 796.51758 -125.75977 L 794.43945 -123.68359 L 794.94141 -123.18359 L 796.51758 -124.75977 L 802 -119.30664 L 802 -120.30859 L 796.51758 -125.75977 z M 810.41992 -125.75977 L 805 -120.30859 L 805 -119.30664 L 810.41992 -124.75977 L 811.99805 -123.18164 L 812.5 -123.68359 L 810.41992 -125.75977 z "
           transform="matrix(0,-1,-1,0,-60,436)"
           id="path4656" />
      </g>
      <g
         transform="matrix(0,-1,-1,0,480,-260)"
         id="g4618">
        <path
           d="m 110.57653,-383.99902 2.77018,2.7717 -7.26986,7.22732 16.92272,0 0,4 -16.92272,0 7.26986,7.31098 -2.77018,2.77018 -12.001725,-12.08122 z"
           style="opacity:0.2;fill:#000000;fill-opacity:1;fill-rule:nonzero;stroke:none"
           id="path4670"
           inkscape:connector-curvature="0"
           sodipodi:nodetypes="cccccccccc" />
        <path
           sodipodi:nodetypes="cccccccccc"
           inkscape:connector-curvature="0"
           id="path4620"
           style="fill:#4d4d4d;fill-opacity:1;fill-rule:nonzero;stroke:none"
           d="m 111.57695,-383.99902 2.77018,2.7717 -7.26986,7.22732 16.92272,0 0,4 -16.92272,0 7.26986,7.31098 -2.77018,2.77018 -12.00172,-12.08122 z" />
        <rect
           style="display:inline;overflow:visible;visibility:visible;fill:none;fill-opacity:1;fill-rule:nonzero;stroke:none;stroke-width:2;marker:none;enable-background:accumulate"
           id="rect4622"
           width="32"
           height="32"
           x="-128"
           y="-388"
           inkscape:label="32x32"
           transform="scale(-1,1)" />
        <path
           style="fill:#ffffff;fill-opacity:1;fill-rule:nonzero;stroke:none;opacity:0.2"
           d="M 850 -140 L 850 -139 L 854 -139 L 854 -140 L 850 -140 z M 842.68945 -130.34766 L 839.91797 -127.57617 L 840.41992 -127.07812 L 842.68945 -129.34766 L 850 -122.07617 L 850 -123.07812 L 842.68945 -130.34766 z M 861.22656 -130.34766 L 854 -123.07812 L 854 -122.07617 L 861.22656 -129.34766 L 863.49805 -127.07617 L 863.99805 -127.57617 L 861.22656 -130.34766 z "
           transform="matrix(0,-1,-1,0,-16,480)"
           id="path4658" />
      </g>
      <g
         transform="matrix(0,-1,-1,0,528,-212)"
         id="g4628">
        <path
           d="m 166.36506,-397.99853 4.15527,4.15755 -10.90479,10.84098 25.38408,0 0,6 -25.38408,0 10.90479,10.96647 -4.15527,4.15527 -18.00258,-18.12183 z"
           style="opacity:0.2;fill:#000000;fill-opacity:1;fill-rule:nonzero;stroke:none"
           id="path4672"
           inkscape:connector-curvature="0"
           sodipodi:nodetypes="cccccccccc" />
        <path
           sodipodi:nodetypes="cccccccccc"
           inkscape:connector-curvature="0"
           id="path4630"
           style="fill:#4d4d4d;fill-opacity:1;fill-rule:nonzero;stroke:none"
           d="m 167.36548,-397.99853 4.15527,4.15755 -10.90479,10.84098 25.38408,0 0,6 -25.38408,0 10.90479,10.96647 -4.15527,4.15527 -18.00258,-18.12183 z" />
        <rect
           inkscape:label="48x48"
           y="-404"
           x="-192"
           height="48"
           width="48"
           id="rect4632"
           style="display:inline;overflow:visible;visibility:visible;fill:none;fill-opacity:1;fill-rule:nonzero;stroke:none;stroke-width:2;marker:none;enable-background:accumulate"
           transform="scale(-1,1)" />
        <path
           style="fill:#ffffff;fill-opacity:1;fill-rule:nonzero;stroke:none;opacity:0.2"
           d="M 905 -154 L 905 -153 L 911 -153 L 911 -154 L 905 -154 z M 894.0332 -139.52148 L 889.87891 -135.36523 L 890.38086 -134.86719 L 894.0332 -138.51953 L 905 -127.61523 L 905 -128.61523 L 894.0332 -139.52148 z M 921.8418 -139.52148 L 911 -128.61523 L 911 -127.61523 L 921.8418 -138.51953 L 925.49805 -134.86523 L 925.99805 -135.36523 L 921.8418 -139.52148 z "
           transform="matrix(0,-1,-1,0,32,528)"
           id="path4660" />
      </g>
      <g
         transform="matrix(0,-1,-1,0,592,-148)"
         id="g4638">
        <path
           sodipodi:nodetypes="cccccccccc"
           inkscape:connector-curvature="0"
           id="path4690"
           style="opacity:0.1;fill:#000000;fill-opacity:1;fill-rule:nonzero;stroke:none;filter:url(#filter4686)"
           d="m 453.23186,-803.98434 44.32288,44.34722 L 381.23698,-644 l 270.76352,0 0,64 -270.76352,0 116.31776,116.97568 -44.32288,44.32288 -192.02752,-193.29952 z" />
        <path
           d="m 453.23186,-803.98434 44.32288,44.34722 L 381.23698,-644 l 270.76352,0 0,64 -270.76352,0 116.31776,116.97568 -44.32288,44.32288 -192.02752,-193.29952 z"
           style="opacity:0.2;fill:#000000;fill-opacity:1;fill-rule:nonzero;stroke:none;filter:url(#filter4686)"
           id="path4684"
           inkscape:connector-curvature="0"
           sodipodi:nodetypes="cccccccccc" />
        <path
           sodipodi:nodetypes="cccccccccc"
           inkscape:connector-curvature="0"
           id="path4682"
           style="fill:#000000;fill-opacity:1;fill-rule:nonzero;stroke:none;opacity:0.2"
           d="m 455.23186,-803.98434 44.32288,44.34722 L 383.23698,-644 l 270.76352,0 0,64 -270.76352,0 116.31776,116.97568 -44.32288,44.32288 -192.02752,-193.29952 z" />
        <path
           d="m 457.23186,-803.98434 44.32288,44.34722 L 385.23698,-644 l 270.76352,0 0,64 -270.76352,0 116.31776,116.97568 -44.32288,44.32288 -192.02752,-193.29952 z"
           style="fill:#4d4d4d;fill-opacity:1;fill-rule:nonzero;stroke:none"
           id="path4646"
           inkscape:connector-curvature="0"
           sodipodi:nodetypes="cccccccccc" />
        <rect
           style="display:inline;overflow:visible;visibility:visible;fill:none;fill-opacity:1;fill-rule:nonzero;stroke:none;stroke-width:2;marker:none;enable-background:accumulate"
           id="rect4648"
           width="512"
           height="512"
           x="-720"
           y="-868"
           inkscape:label="48x48"
           transform="scale(-1,1)" />
        <path
           style="fill:#ffffff;fill-opacity:1;fill-rule:nonzero;stroke:none;opacity:0.2"
           d="M 1172 -560 L 1172 -558 L 1236 -558 L 1236 -560 L 1172 -560 z M 1055.0234 -405.55469 L 1010.7012 -361.23242 L 1011.7051 -360.23633 L 1055.0234 -403.55469 L 1172 -287.23633 L 1172 -289.23633 L 1055.0234 -405.55469 z M 1351.6367 -405.55469 L 1236 -289.23633 L 1236 -287.23633 L 1351.6367 -403.55469 L 1394.9844 -360.23242 L 1395.9844 -361.23242 L 1351.6367 -405.55469 z "
           transform="matrix(0,-1,-1,0,96,592)"
           id="path4677" />
      </g>
    </g>
  </g>
</svg>
