<svg xmlns="http://www.w3.org/2000/svg" enable-background="new" viewBox="0 0 16 16"><defs><filter color-interpolation-filters="sRGB"><feBlend in2="BackgroundImage" mode="darken"/></filter></defs><path d="m487.91 22c-.498.043-.837.48-.938.938-.292.892-.592 1.793-.875 2.688l-.094.375v8c0 .554.446 1 1 1h12c.554 0 1-.446 1-1v-8l-.125-.469c-.338-.99-.643-2.02-1-3-.214-.438-.702-.577-1.156-.531m-8.994 2h8.533c.108.323.222.668.332 1h-9.191c.109-.334.216-.664.326-1zm3.275 3h2v3h1.75l-2.75 3-2.75-3h1.75z" fill="#000" opacity="0.5" transform="translate(-485-20.965)"/></svg>