<svg xmlns="http://www.w3.org/2000/svg" enable-background="new" viewBox="0 0 16 16"><defs><filter color-interpolation-filters="sRGB"><feBlend in2="BackgroundImage" mode="darken"/></filter></defs><path d="m527.97 35.993c-.534 0-.969-.427-.969-.969v-.063c.017-6.613 5.383-11.969 12-11.969h.031c.545 0 .969.446.969 1v1 2c0 .554-.446 1-1 1h-2c-.554 0-1-.446-1-1v-.469c-2.557.904-4.565 2.912-5.469 5.469h.469c.554 0 1 .446 1 1v2c0 .554-.446 1-1 1h-1-1-.969-.031-.031" fill="#e74c3c" transform="translate(-525-20.997)"/></svg>