<?xml version='1.0' encoding='UTF-8' standalone='no'?>
<svg height="16" xmlns:inkscape="http://www.inkscape.org/namespaces/inkscape" xmlns:sodipodi="http://sodipodi.sourceforge.net/DTD/sodipodi-0.dtd" version="1.1" width="16" xmlns="http://www.w3.org/2000/svg" enable-background="new">
 <metadata id="metadata90"/>
 <defs id="defs7386">
  <linearGradient id="linearGradient5606" osb:paint="solid">
   <stop id="stop5608"/>
  </linearGradient>
  <filter inkscape:collect="always" color-interpolation-filters="sRGB" id="filter7554">
   <feBlend inkscape:collect="always" id="feBlend7556" in2="BackgroundImage" mode="darken"/>
  </filter>
 </defs>
 <g inkscape:groupmode="layer" id="layer12" inkscape:label="actions" transform="translate(-525.00033,-20.996641)">
  <path inkscape:connector-curvature="0" d="m 527.96892,35.99328 c -0.53403,0 -0.96875,-0.42699 -0.96875,-0.96875 l 0,-0.0625 c 0.0171,-6.61281 5.38317,-11.96875 12,-11.96875 l 0.0312,0 c 0.54483,0 0.9688,0.446 0.9688,1 l 0,1 0,2 c 0,0.554 -0.446,1 -1,1 l -2,0 c -0.554,0 -1,-0.446 -1,-1 l 0,-0.46875 c -2.55686,0.90388 -4.56487,2.91189 -5.46875,5.46875 l 0.46875,0 c 0.55401,0 1,0.44599 1,1 l 0,2 c 0,0.55401 -0.44599,1 -1,1 l -1,0 -1,0 -0.96875,0 -0.0312,0 -0.0312,0 z" id="path6060" fill="#000000" opacity="0.5"/>
 </g>
</svg>
