<?xml version='1.0' encoding='UTF-8' standalone='no'?>
<svg height="16" xmlns:inkscape="http://www.inkscape.org/namespaces/inkscape" xmlns:sodipodi="http://sodipodi.sourceforge.net/DTD/sodipodi-0.dtd" version="1.1" width="16.05" xmlns="http://www.w3.org/2000/svg" enable-background="new">
 <metadata id="metadata90"/>
 <defs id="defs7386">
  <linearGradient id="linearGradient5606" osb:paint="solid">
   <stop id="stop5608"/>
  </linearGradient>
  <filter inkscape:collect="always" color-interpolation-filters="sRGB" id="filter7554">
   <feBlend inkscape:collect="always" id="feBlend7556" in2="BackgroundImage" mode="darken"/>
  </filter>
 </defs>
 <g inkscape:groupmode="layer" id="layer12" inkscape:label="actions" transform="translate(-405.0002,291)">
  <path inkscape:connector-curvature="0" d="m 408.53576,-287.33613 0.57454,0.57452 c 0.0481,0.0815 0.10779,0.15616 0.17681,0.22094 0.0356,0.0242 0.0723,0.0467 0.11043,0.0663 0.387,0.24537 0.94341,0.17704 1.25954,-0.15468 l 0.39775,-0.39775 0,3.02344 -4.6404,0 c -0.32954,-0.003 -0.65578,0.16848 -0.83969,0.44195 l -0.0221,0.0221 -0.55244,0.55243 0.48615,0.48613 c 0.1762,0.33205 0.55254,0.54711 0.92807,0.53033 l 5.65686,-1e-5 c 0.53458,0.009 0.99237,-0.49499 0.98355,-1.02957 l 0,-4.02675 c 0.0356,0.0355 0.0832,0.0503 0.12128,0.0884 l 0.30936,0.30936 c 0.37027,0.37019 1.04395,0.37019 1.41422,0 0.057,-0.0457 0.109,-0.0977 0.15468,-0.15468 l 0.55242,-0.55243 -3.53553,-3.53553 -0.70711,0.70711 -2.12132,2.12132 c -0.0483,0.0398 -0.0928,0.0843 -0.13259,0.13258 l -0.57452,0.57453 z" id="path8448" sodipodi:nodetypes="ccccccccccccccccscccccccccc" opacity="0.35" color="#000000" stroke-width="2" fill="#ffffff"/>
  <path inkscape:connector-curvature="0" d="m 420.08608,-288.03461 c 0.53403,0 0.96875,0.42699 0.96875,0.96875 l 0,0.0625 c -0.0171,6.61281 -5.38317,11.96875 -12,11.96875 l -0.0312,0 c -0.54483,0 -0.9688,-0.446 -0.9688,-1 l 0,-1 0,-2 c 0,-0.554 0.446,-1 1,-1 l 2,0 c 0.554,0 1,0.446 1,1 l 0,0.46875 c 2.55686,-0.90388 4.56487,-2.91189 5.46875,-5.46875 l -0.46875,0 c -0.55401,0 -1,-0.44599 -1,-1 l 0,-2 c 0,-0.55401 0.44599,-1 1,-1 l 1,0 1,0 0.96875,0 0.0312,0 0.0312,0 z" id="path5887" fill="#ffffff"/>
 </g>
</svg>
