<svg xmlns="http://www.w3.org/2000/svg" enable-background="new" viewBox="0 0 16 16"><defs><filter color-interpolation-filters="sRGB"><feBlend in2="BackgroundImage" mode="darken"/></filter></defs><g transform="translate(-566 39.01)" fill="#000" opacity="0.5"><path d="m203 478c0 0-1 0-1 1v3 8.997c0 1 1 1 1 1h10c0 0 1 0 1-1v-3.997l-2-.003v2.997h-8v-9.997h8l2 .003v-1c0-1-1-1-1-1z" transform="matrix(-1 0 0-1 782 454)" color="#555"/><path d="m572-28v-2l-1 .003c-1 0-1 1-1 1v4h-2v-4c0-3 3-3 3-3l1-.003v-2l4.5 3z"/></g></svg>