<?xml version='1.0' encoding='UTF-8' standalone='no'?>
<svg height="16" xmlns:inkscape="http://www.inkscape.org/namespaces/inkscape" xmlns:sodipodi="http://sodipodi.sourceforge.net/DTD/sodipodi-0.dtd" version="1.1" width="16" xmlns="http://www.w3.org/2000/svg" enable-background="new">
 <metadata id="metadata90"/>
 <defs id="defs7386">
  <linearGradient id="linearGradient5606" osb:paint="solid">
   <stop id="stop5608"/>
  </linearGradient>
  <filter inkscape:collect="always" color-interpolation-filters="sRGB" id="filter7554">
   <feBlend inkscape:collect="always" id="feBlend7556" in2="BackgroundImage" mode="darken"/>
  </filter>
 </defs>
 <g inkscape:groupmode="layer" id="layer12" inkscape:label="actions" transform="translate(-505.00038,18.003359)">
  <path inkscape:connector-curvature="0" d="m 507.0004,-17.010089 0,14 6,0.0067 -2e-4,-1.996611 -4,-0.0067 0,-9.9933 7.9998,0.01009 2e-4,4.996641 2.0002,-0.01009 0,-7.00673 z" id="path4929" sodipodi:nodetypes="ccccccccccc" fill="#ffffff" color="#ffffff"/>
  <path inkscape:connector-curvature="0" d="m 517.0002,-9 0,0.5625 c -0.45253,0.0753 -0.89155,0.24731 -1.25,0.5 l -0.15625,-0.1875 c -0.0979,-0.0979 -0.21594,-0.125 -0.34375,-0.125 l -0.5,0 0,0.5 c 0,0.12781 0.0583,0.27706 0.15625,0.375 l 0.15625,0.125 c -0.25889,0.36223 -0.42342,0.79092 -0.5,1.25 l -0.5625,0 0,1 0.5625,0 c 0.0766,0.45908 0.24111,0.88777 0.5,1.25 l -0.15625,0.125 c -0.0979,0.0979 -0.15625,0.24719 -0.15625,0.375 l 0,0.5 0.5,0 c 0.12781,0 0.27706,-0.0271 0.375,-0.125 l 0.15625,-0.1875 c 0.35844,0.25269 0.76622,0.42467 1.21875,0.5 l 0,0.5625 1,0 0,-0.5625 c 0.45253,-0.0753 0.86031,-0.24731 1.21875,-0.5 l 0.15625,0.1875 c 0.0979,0.0979 0.25,0.0984 0.375,0.125 l 0.5,0 0,-0.5 c 0,-0.12781 -0.0583,-0.27706 -0.15625,-0.375 L 519.9377,-3.75 c 0.25889,-0.36223 0.42343,-0.79092 0.5,-1.25 l 0.5625,0 0,-1 -0.5625,0 c -0.0766,-0.45908 -0.24111,-0.88777 -0.5,-1.25 l 0.15625,-0.125 c 0.0979,-0.0979 0.13942,-0.2483 0.15625,-0.375 l 0,-0.5 -0.5,0 c -0.12781,0 -0.27706,0.0271 -0.375,0.125 l -0.15625,0.1875 c -0.35844,-0.25269 -0.76622,-0.42467 -1.21875,-0.5 l 0,-0.5625 -1,0 z m 0.5,2 c 0.82843,0 1.5,0.67157 1.5,1.5 0,0.82843 -0.67157,1.5 -1.5,1.5 -0.82843,0 -1.5,-0.67157 -1.5,-1.5 0,-0.82843 0.67157,-1.5 1.5,-1.5 z" id="path6355-2" fill="#ffffff" color="#000000" stroke-width="2"/>
 </g>
</svg>
