<?xml version="1.0" encoding="UTF-8" standalone="no"?>
<svg
   xmlns:osb="http://www.openswatchbook.org/uri/2009/osb"
   xmlns:dc="http://purl.org/dc/elements/1.1/"
   xmlns:cc="http://creativecommons.org/ns#"
   xmlns:rdf="http://www.w3.org/1999/02/22-rdf-syntax-ns#"
   xmlns:svg="http://www.w3.org/2000/svg"
   xmlns="http://www.w3.org/2000/svg"
   xmlns:sodipodi="http://sodipodi.sourceforge.net/DTD/sodipodi-0.dtd"
   xmlns:inkscape="http://www.inkscape.org/namespaces/inkscape"
   height="16"
   version="1.1"
   width="16"
   enable-background="new"
   id="svg2"
   inkscape:version="0.48.4 r9939"
   sodipodi:docname="document-save-as.svg">
  <sodipodi:namedview
     pagecolor="#ffffff"
     bordercolor="#666666"
     borderopacity="1"
     objecttolerance="10"
     gridtolerance="10"
     guidetolerance="10"
     inkscape:pageopacity="0"
     inkscape:pageshadow="2"
     inkscape:window-width="640"
     inkscape:window-height="480"
     id="namedview13"
     showgrid="false"
     inkscape:zoom="1"
     inkscape:cx="10.332553"
     inkscape:cy="0.23312543"
     inkscape:window-x="0"
     inkscape:window-y="32"
     inkscape:window-maximized="0"
     inkscape:current-layer="layer12">
    <inkscape:grid
       type="xygrid"
       id="grid3060" />
  </sodipodi:namedview>
  <metadata
     id="metadata90">
    <rdf:RDF>
      <cc:Work
         rdf:about="">
        <dc:format>image/svg+xml</dc:format>
        <dc:type
           rdf:resource="http://purl.org/dc/dcmitype/StillImage" />
      </cc:Work>
    </rdf:RDF>
  </metadata>
  <defs
     id="defs7386">
    <linearGradient
       id="linearGradient5606"
       osb:paint="solid">
      <stop
         id="stop5608" />
    </linearGradient>
  </defs>
  <g
     inkscape:groupmode="layer"
     id="layer12"
     inkscape:label="actions"
     transform="translate(-320.99821,-47.999152)">
    <path
       style="fill:#000000;fill-opacity:1;fill-rule:nonzero;stroke:none;opacity:0.5"
       d="M 6 1.03125 L 6 7.03125 L 3.65625 7.03125 L 7 11.84375 L 7 8.90625 C 7 7.89565 7.86914 7.0625 8.875 7.0625 L 10 7.0625 L 10 7 L 10 6.03125 L 10 1.03125 L 6 1.03125 z M 8.875 8.0625 C 8.38255 8.0625 8 8.41809 8 8.90625 L 8 15.125 C 8 15.61316 8.38255 15.96875 8.875 15.96875 L 15.125 15.96875 C 15.61745 15.96875 16 15.61316 16 15.125 L 16 8.90625 C 16 8.41809 15.61745 8.0625 15.125 8.0625 L 8.875 8.0625 z M 12 9.03125 C 13.10457 9.03125 14 9.92668 14 11.03125 C 14 12.13582 13.10457 13.03125 12 13.03125 L 12 13.53125 L 11 13.53125 L 11 12.03125 L 12 12.03125 C 12.55228 12.03125 13 11.58353 13 11.03125 C 13 10.47897 12.55228 10.03125 12 10.03125 C 11.44771 10.03125 11 10.47897 11 11.03125 L 10 11.03125 C 10 9.92668 10.89543 9.03125 12 9.03125 z M 1 14.03125 L 1 16 L 7.25 16 C 7.10041 15.73737 7 15.44334 7 15.125 L 7 14.03125 L 1 14.03125 z M 11 14.03125 L 12 14.03125 L 12 15.03125 L 11 15.03125 L 11 14.03125 z "
       transform="translate(320.99821,47.999152)"
       id="path6137" />
  </g>
</svg>
