<?xml version='1.0' encoding='UTF-8' standalone='no'?>
<svg height="16" xmlns:inkscape="http://www.inkscape.org/namespaces/inkscape" xmlns:sodipodi="http://sodipodi.sourceforge.net/DTD/sodipodi-0.dtd" version="1.1" width="16" xmlns="http://www.w3.org/2000/svg" enable-background="new">
 <metadata id="metadata90"/>
 <defs id="defs7386">
  <linearGradient id="linearGradient5606" osb:paint="solid">
   <stop id="stop5608"/>
  </linearGradient>
  <filter inkscape:collect="always" color-interpolation-filters="sRGB" id="filter7554">
   <feBlend inkscape:collect="always" id="feBlend7556" in2="BackgroundImage" mode="darken"/>
  </filter>
 </defs>
 <g inkscape:groupmode="layer" id="layer12" inkscape:label="actions" transform="translate(-546.00038,19.010089)">
  <g id="g4946" transform="matrix(1,0,0,-1,546.0004,-3.0033591)">
   <path inkscape:connector-curvature="0" d="m 202.9998,477.99664 c 0,0 -1,0 -1,1 L 202,482 l -2e-4,8.99664 c 0,1 1,1 1,1 l 10,0 c 0,0 1,0 1,-1 L 214,487 l -2.0002,-0.003 -2e-4,2.99664 -8,-3.6e-4 2e-4,-9.99682 8,1.8e-4 0,3.00036 L 214,483 l -2e-4,-4.00336 c 0,-1 -1,-1 -1,-1 z" id="path4948" sodipodi:nodetypes="cccccccccccccccccc" transform="translate(-200,-477)" fill="#ffffff" color="#ffffff"/>
  </g>
  <path inkscape:connector-curvature="0" d="m 557.0004,-8.0033591 0,-1.9999999 4,0 0,-2 -4,0 0,-2 -4.5,3 z" id="path4952" sodipodi:nodetypes="cccccccc" fill="#ffffff"/>
 </g>
</svg>
