<?xml version='1.0' encoding='UTF-8' standalone='no'?>
<svg height="16" xmlns:inkscape="http://www.inkscape.org/namespaces/inkscape" xmlns:sodipodi="http://sodipodi.sourceforge.net/DTD/sodipodi-0.dtd" version="1.1" width="16" xmlns="http://www.w3.org/2000/svg" enable-background="new">
 <metadata id="metadata90"/>
 <defs id="defs7386">
  <linearGradient id="linearGradient5606" osb:paint="solid">
   <stop id="stop5608"/>
  </linearGradient>
  <filter inkscape:collect="always" color-interpolation-filters="sRGB" id="filter7554">
   <feBlend inkscape:collect="always" id="feBlend7556" in2="BackgroundImage" mode="darken"/>
  </filter>
 </defs>
 <g inkscape:groupmode="layer" id="layer12" inkscape:label="actions" transform="translate(-265.03146,-22)">
  <path inkscape:connector-curvature="0" d="m 273.1252,24 c -3.37799,0 -6.125,2.68871 -6.125,6 0,3.31129 2.74701,6 6.125,6 3.37799,0 6.125,-2.68871 6.125,-6 0,-3.31129 -2.74701,-6 -6.125,-6 z m 2.3125,3.1875 c 0.4127,-0.0674 0.73037,0.5453 0.4375,0.84375 l -2.5,2.5 c -0.1835,0.1737 -0.504,0.1737 -0.6875,0 l -2,-2 c -0.25696,-0.15718 -0.30676,-0.56824 -0.0937,-0.78125 0.21301,-0.21303 0.62407,-0.16318 0.78125,0.0937 l 1.65625,1.65625 2.15625,-2.15625 c 0.0652,-0.0754 0.1536,-0.13065 0.25,-0.15625 z" id="path6187" fill="#ffffff"/>
 </g>
</svg>
