<svg xmlns="http://www.w3.org/2000/svg" enable-background="new" viewBox="0 0 16 16"><defs><filter color-interpolation-filters="sRGB"><feBlend in2="BackgroundImage" mode="darken"/></filter></defs><path d="m370 3l-5 6 5 6h11v-12zm2 3h1c.277 0 .526.112.707.293l1.293 1.293 1.293-1.293c.181-.181.43-.293.707-.293h1v1c0 .277-.112.526-.293.707l-1.293 1.293 1.293 1.293c.181.181.293.43.293.707v1h-1c-.277 0-.526-.112-.707-.293l-1.293-1.293-1.293 1.293c-.181.181-.43.293-.707.293h-1v-1c0-.277.112-.526.293-.707l1.293-1.293-1.293-1.293c-.181-.181-.293-.43-.293-.707" fill="#000" opacity="0.5" transform="translate(-365-.997)"/></svg>