<?xml version='1.0' encoding='UTF-8' standalone='no'?>
<svg height="16" xmlns:inkscape="http://www.inkscape.org/namespaces/inkscape" xmlns:sodipodi="http://sodipodi.sourceforge.net/DTD/sodipodi-0.dtd" version="1.1" width="16" xmlns="http://www.w3.org/2000/svg" enable-background="new">
 <metadata id="metadata90"/>
 <defs id="defs7386">
  <linearGradient id="linearGradient5606" osb:paint="solid">
   <stop id="stop5608"/>
  </linearGradient>
  <filter inkscape:collect="always" color-interpolation-filters="sRGB" id="filter7554">
   <feBlend inkscape:collect="always" id="feBlend7556" in2="BackgroundImage" mode="darken"/>
  </filter>
 </defs>
 <g inkscape:groupmode="layer" id="layer12" inkscape:label="actions" transform="translate(-341.00019,-3.9966429)">
  <path inkscape:connector-curvature="0" d="m 352.1252,5.99664 c 0.25613,0.0339 0.497,0.17155 0.65625,0.375 l 4,5 c 0.28127,0.35137 0.28127,0.89863 0,1.25 l -4,5 c -0.20539,0.2592 -0.54566,0.40503 -0.875,0.375 -0.01,7.7e-4 -0.0212,-5.1e-4 -0.0312,0 -0.0201,0.001 -0.0421,0 -0.0625,0 l -8.625,0 c -0.6627,0 -1.1875,-0.54894 -1.1875,-1.21875 l 0,-9.5625 c -10e-5,-0.66976 0.52475,-1.21875 1.18745,-1.21875 l 8.625,0 c 0.0416,-0.003 0.0834,-0.003 0.125,0 0.0623,-0.006 0.12518,-0.006 0.1875,0 z m -1.125,3 -1,0 c -0.27614,0 -0.53779,0.10029 -0.71875,0.28125 l -1.28125,1.28125 -1.28125,-1.28125 C 346.53799,9.09693 346.27603,9.00977 346.0002,8.99664 l -1,0 0,1 c 0,0.27614 0.12201,0.51841 0.28125,0.71875 l 1.28125,1.28125 -1.28125,1.28125 c -0.18096,0.18096 -0.19393,0.45678 -0.28125,0.71875 l 0,1 1,0 c 0.27549,0.019 0.56909,-0.0737 0.71875,-0.28125 l 1.28125,-1.28125 1.28125,1.28125 c 0.18096,0.18096 0.44261,0.28125 0.71875,0.28125 l 1,0 0,-1 c 0,-0.27614 -0.0856,-0.55379 -0.28125,-0.71875 l -1.28125,-1.28125 1.28125,-1.28125 c 0.18096,-0.18096 0.35917,-0.45383 0.28125,-0.71875 z" id="path8099" sodipodi:nodetypes="cccccccssscsccccsscsscsscssccscsscsscssc" fill="#ffffff" color="#ffffff"/>
 </g>
</svg>
