<?xml version='1.0' encoding='UTF-8' standalone='no'?>
<svg height="16" xmlns:inkscape="http://www.inkscape.org/namespaces/inkscape" xmlns:sodipodi="http://sodipodi.sourceforge.net/DTD/sodipodi-0.dtd" version="1.1" width="16" xmlns="http://www.w3.org/2000/svg" enable-background="new">
 <metadata id="metadata90"/>
 <defs id="defs7386">
  <linearGradient id="linearGradient5606" osb:paint="solid">
   <stop id="stop5608"/>
  </linearGradient>
  <filter inkscape:collect="always" color-interpolation-filters="sRGB" id="filter7554">
   <feBlend inkscape:collect="always" id="feBlend7556" in2="BackgroundImage" mode="darken"/>
  </filter>
 </defs>
 <g inkscape:groupmode="layer" id="layer12" inkscape:label="actions" transform="translate(-285.0006,-0.99328)">
  <path inkscape:connector-curvature="0" d="m 289.5002,2.5 c -1.38071,0 -2.5,1.11929 -2.5,2.5 0,1.38071 1.11929,2.5 2.5,2.5 0.44608,0 0.85618,-0.13902 1.21875,-0.34375 L 292.6877,9 290.71895,10.84375 C 290.35638,10.63902 289.94628,10.5 289.5002,10.5 c -1.38071,0 -2.5,1.11929 -2.5,2.5 0,1.38071 1.11929,2.5 2.5,2.5 1.38071,0 2.5,-1.11929 2.5,-2.5 0,-0.22916 -0.036,-0.44541 -0.0937,-0.65625 l 2.125,-2.0625 3.9687,3.71875 1.5,0 0,-1 -7.59375,-7.34375 c 0.0578,-0.21084 0.0937,-0.42709 0.0937,-0.65625 0,-1.38071 -1.11929,-2.5 -2.5,-2.5 z m 0,1.5 c 0.55228,0 1,0.44772 1,1 0,0.55228 -0.44772,1 -1,1 -0.55228,0 -1,-0.44772 -1,-1 0,-0.55228 0.44772,-1 1,-1 z m 8.5,0 -3.4375,3.21875 1.3125,1.28125 3.625,-3.5 0,-1 -1.5,0 z m -8.5,8 c 0.55228,0 1,0.44772 1,1 0,0.55228 -0.44772,1 -1,1 -0.55228,0 -1,-0.44772 -1,-1 0,-0.55228 0.44772,-1 1,-1 z" id="rect6492" fill="#ffffff"/>
 </g>
</svg>
