<?xml version='1.0' encoding='UTF-8' standalone='no'?>
<svg height="16" xmlns:inkscape="http://www.inkscape.org/namespaces/inkscape" xmlns:sodipodi="http://sodipodi.sourceforge.net/DTD/sodipodi-0.dtd" version="1.1" width="16" xmlns="http://www.w3.org/2000/svg" enable-background="new">
 <metadata id="metadata90"/>
 <defs id="defs7386">
  <linearGradient id="linearGradient5606" osb:paint="solid">
   <stop id="stop5608"/>
  </linearGradient>
  <filter inkscape:collect="always" color-interpolation-filters="sRGB" id="filter7554">
   <feBlend inkscape:collect="always" id="feBlend7556" in2="BackgroundImage" mode="darken"/>
  </filter>
 </defs>
 <g inkscape:groupmode="layer" id="layer12" inkscape:label="actions" transform="translate(-465.0002,18)">
  <path inkscape:connector-curvature="0" d="m 467.8127,-17 c -0.4584,0.0875 -0.82072,0.5334 -0.8125,1 l 0,13 c 5e-5,0.52358 0.47642,0.99995 1,1 l 10,0 c 0.52358,-5e-5 0.99995,-0.47642 1,-1 l 0,-9.4375 c 0.006,-0.26406 -0.0975,-0.52897 -0.28125,-0.71875 l -3.5625,-3.5625 c -0.18978,-0.1837 -0.45469,-0.28737 -0.71875,-0.28125 l -6.4375,0 c -0.0312,-0.001 -0.0625,-0.001 -0.0937,0 -0.0312,-0.001 -0.0625,-0.001 -0.0937,0 z m 1.1875,7 3,0 0,1 -3,0 z m 0,2 8,0 0,1 -8,0 z m 0,2 8,0 0,1 -8,0 z" id="path9102" sodipodi:nodetypes="cccccccccccccccccccccccccccc" color="#000000" stroke-width="2" fill="#ffffff"/>
 </g>
</svg>
