<?xml version='1.0' encoding='UTF-8' standalone='no'?>
<svg height="16" xmlns:inkscape="http://www.inkscape.org/namespaces/inkscape" xmlns:sodipodi="http://sodipodi.sourceforge.net/DTD/sodipodi-0.dtd" version="1.1" width="16" xmlns="http://www.w3.org/2000/svg" enable-background="new">
 <metadata id="metadata90"/>
 <defs id="defs7386">
  <linearGradient id="linearGradient5606" osb:paint="solid">
   <stop id="stop5608"/>
  </linearGradient>
  <filter inkscape:collect="always" color-interpolation-filters="sRGB" id="filter7554">
   <feBlend inkscape:collect="always" id="feBlend7556" in2="BackgroundImage" mode="darken"/>
  </filter>
 </defs>
 <g inkscape:groupmode="layer" id="layer12" inkscape:label="actions" transform="translate(-324.00059,-0.99663998)">
  <path inkscape:connector-curvature="0" d="m 339.00099,14.99328 0,-8 c 0,-1 -1,-1 -1,-1 l -7,0 c 0,0 -1,0 -1,1 l 0,8 c 0,1 1,1 1,1 l 7,0 c 0,0 1,0 1,-1 z m -12,-3 2,0 0,-5 c 0,-2 1.92388,-2 1.92388,-2 l 4.07612,0 0,-2 c 0,-1 -1,-1 -1,-1 l -7,0 c 0,0 -1,0 -1,1 l 0,8 c 0,0 0,1 1,1 z" id="rect5195" sodipodi:nodetypes="cccccccccccccccccccc" fill="#000000" opacity="0.5" color="#000000"/>
 </g>
</svg>
