<svg xmlns="http://www.w3.org/2000/svg" enable-background="new" viewBox="0 0 16 16"><defs><filter color-interpolation-filters="sRGB"><feBlend in2="BackgroundImage" mode="darken"/></filter></defs><path d="m289.5 3c-1.381 0-2.5 1.119-2.5 2.5 0 1.381 1.119 2.5 2.5 2.5.446 0 .856-.139 1.219-.344l1.969 1.844-1.969 1.844c-.363-.205-.773-.344-1.219-.344-1.381 0-2.5 1.119-2.5 2.5 0 1.381 1.119 2.5 2.5 2.5 1.381 0 2.5-1.119 2.5-2.5 0-.229-.036-.445-.094-.656l2.125-2.063 4.469 4.219h1.5v-1l-8.094-7.844c.058-.211.094-.427.094-.656 0-1.381-1.119-2.5-2.5-2.5m0 1.5c.552 0 1 .448 1 1 0 .552-.448 1-1 1-.552 0-1-.448-1-1 0-.552.448-1 1-1m9-.5l-3.938 3.719 1.313 1.281 4.125-4v-1zm-9 8.5c.552 0 1 .448 1 1 0 .552-.448 1-1 1-.552 0-1-.448-1-1 0-.552.448-1 1-1" fill="#000" opacity="0.5" transform="translate(-285-.993)"/></svg>