<svg xmlns="http://www.w3.org/2000/svg" enable-background="new" viewBox="0 0 16 16"><defs><filter color-interpolation-filters="sRGB"><feBlend in2="BackgroundImage" mode="darken"/></filter></defs><path d="m413.03-17.941c-3.853 0-6.969 3.115-6.969 6.969 0 3.853 3.115 6.969 6.969 6.969 3.853 0 6.969-3.115 6.969-6.969 0-3.853-3.115-6.969-6.969-6.969m-3.03 3.941h1c.276 0 .538.1.719.281l1.281 1.278 1.281-1.278c.181-.181.443-.281.719-.281h1v1c0 .276-.1.538-.281.719l-1.281 1.278 1.281 1.285c.181.181.283.443.281.719v1h-1c-.276 0-.538-.1-.719-.281l-1.281-1.285-1.281 1.285c-.181.181-.443.281-.719.281h-1v-1c0-.276.1-.538.281-.719l1.281-1.285-1.281-1.278c-.181-.181-.281-.443-.281-.719z" fill="#000" opacity="0.5" color="#555" transform="translate(-405 19)"/></svg>