<svg xmlns="http://www.w3.org/2000/svg" enable-background="new" viewBox="0 0 16 16"><defs><filter color-interpolation-filters="sRGB"><feBlend in2="BackgroundImage" mode="darken"/></filter></defs><path d="m356 3l5 6-5 6h-11v-12zm-2 3h-1c-.277 0-.526.112-.707.293l-1.293 1.293-1.293-1.293c-.181-.181-.43-.293-.707-.293h-1v1c0 .277.112.526.293.707l1.293 1.293-1.293 1.293c-.181.181-.293.43-.293.707v1h1c.277 0 .526-.112.707-.293l1.293-1.293 1.293 1.293c.181.181.43.293.707.293h1v-1c0-.277-.112-.526-.293-.707l-1.293-1.293 1.293-1.293c.181-.181.293-.43.293-.707" fill="#000" opacity="0.5" transform="translate(-345-.997)"/></svg>