<svg xmlns="http://www.w3.org/2000/svg" enable-background="new" viewBox="0 0 16 16"><defs><filter color-interpolation-filters="sRGB"><feBlend in2="BackgroundImage" mode="darken"/></filter></defs><g transform="translate(-565-21)" fill="#000" opacity="0.5"><path d="m567 22c0 0-1 .019-1 1v1h2v-2h-1m3 0v2h2v-2h-2m4 0v2h2v-2h-2m4 0v2h2v-1c0-.981-1-1-1-1h-1m-12 4v2h2v-2h-2m12 0v2h2v-2h-2m-12 4v2h2v-2h-2m12 0v2h2v-2h-2m-12 4v1c0 .981 1 1 1 1h1v-2h-2m4 0v2h2v-2h-2m4 0v2h2v-2h-2m4 0v2h1c0 0 1-.019 1-1v-1h-2"/><path d="m570 26h6v6h-6z"/></g></svg>