<?xml version='1.0' encoding='UTF-8' standalone='no'?>
<svg height="16" xmlns:inkscape="http://www.inkscape.org/namespaces/inkscape" xmlns:sodipodi="http://sodipodi.sourceforge.net/DTD/sodipodi-0.dtd" version="1.1" width="16" xmlns="http://www.w3.org/2000/svg" enable-background="new">
 <metadata id="metadata90"/>
 <defs id="defs7386">
  <linearGradient id="linearGradient5606" osb:paint="solid">
   <stop id="stop5608"/>
  </linearGradient>
  <filter inkscape:collect="always" color-interpolation-filters="sRGB" id="filter7554">
   <feBlend inkscape:collect="always" id="feBlend7556" in2="BackgroundImage" mode="darken"/>
  </filter>
 </defs>
 <g inkscape:groupmode="layer" id="layer12" inkscape:label="actions" transform="translate(-405.00041,-19.996639)">
  <path inkscape:connector-curvature="0" d="m 412.0004,21.09375 0,2 c -1.95293,0.39963 -3.50662,1.95332 -3.90625,3.90625 l -2.09375,0 0,2 2.09375,0 c 0.39963,1.95293 1.95332,3.50662 3.90625,3.90625 l 0,2.09375 2,0 0,-2.09375 c 1.95293,-0.39963 3.50662,-1.95332 3.90625,-3.90625 l 2.09375,0 0,-2 -2.09375,0 c -0.39963,-1.95293 -1.95332,-3.50662 -3.90625,-3.90625 l 0,-2 -2,0 z m 1,4.90625 c 1.10457,0 2,0.89543 2,2 0,1.10457 -0.89543,2 -2,2 -1.10457,0 -2,-0.89543 -2,-2 0,-1.10457 0.89543,-2 2,-2 z" id="rect5033" fill="#ffffff"/>
 </g>
</svg>
