<svg xmlns="http://www.w3.org/2000/svg" enable-background="new" viewBox="0 0 16 16"><defs><filter color-interpolation-filters="sRGB"><feBlend in2="BackgroundImage" mode="darken"/></filter></defs><path d="m412 21.09v2c-1.953.4-3.507 1.953-3.906 3.906h-2.094v2h2.094c.4 1.953 1.953 3.507 3.906 3.906v2.094h2v-2.094c1.953-.4 3.507-1.953 3.906-3.906h2.094v-2h-2.094c-.4-1.953-1.953-3.507-3.906-3.906v-2h-2m1 4.906c1.105 0 2 .895 2 2 0 1.105-.895 2-2 2-1.105 0-2-.895-2-2 0-1.105.895-2 2-2" fill="#000" opacity="0.5" transform="translate(-405-19.997)"/></svg>