<svg xmlns="http://www.w3.org/2000/svg" enable-background="new" viewBox="0 0 16 16"><defs><filter color-interpolation-filters="sRGB"><feBlend in2="BackgroundImage" mode="darken"/></filter></defs><g transform="translate(-566-41)" fill="#000" opacity="0.5"><path d="m582 46v6l-4-3z"/><path d="m572 44v2h2.906c-.055 0 .094.171.094.094v.938h-1c-1.716 0-3.038 1.11-3.063 2.469-.012.679.319 1.353.875 1.813.556.459 1.31.719 2.188.719h2 1v-1-4.938c0-1.161-.882-2.078-2.063-2.094h-.031-2.906m2 5.03h1v1h-1c-.519 0-.78-.146-.906-.25-.126-.104-.158-.178-.156-.25.003-.144.093-.5 1.063-.5" color="#000"/><path d="m566 46v6l4-3z"/></g></svg>