<svg xmlns="http://www.w3.org/2000/svg" enable-background="new" viewBox="0 0 16 16"><g transform="translate(-401-109)" fill="#000" opacity="0.5" color="#000" stroke-width="2"><path d="m405 111v2h6c.428 0 1 .614 1 1v1h-5c-.919 0-1.736.384-2.25.969-.514.585-.756 1.311-.75 2.031.006.721.269 1.453.781 2.031.512.579 1.31.969 2.219.969h5 1 1v-.844c.016-.094 0-.156 0-.156v-1-5c0-1.634-1.32-3-3-3h-6m2 6h5v2h-5c-.398 0-.567-.11-.719-.281-.152-.171-.279-.439-.281-.719-.002-.279.105-.554.25-.719.145-.165.328-.281.75-.281"/><path d="m403 122v2h12v-2h-12"/></g></svg>