<?xml version='1.0' encoding='UTF-8' standalone='no'?>
<svg height="16" xmlns:inkscape="http://www.inkscape.org/namespaces/inkscape" xmlns:sodipodi="http://sodipodi.sourceforge.net/DTD/sodipodi-0.dtd" version="1.1" width="16" xmlns="http://www.w3.org/2000/svg" enable-background="new">
 <metadata id="metadata90"/>
 <defs id="defs7386">
  <linearGradient id="linearGradient5606" osb:paint="solid">
   <stop id="stop5608"/>
  </linearGradient>
  <filter inkscape:collect="always" color-interpolation-filters="sRGB" id="filter7554">
   <feBlend inkscape:collect="always" id="feBlend7556" in2="BackgroundImage" mode="darken"/>
  </filter>
 </defs>
 <g inkscape:groupmode="layer" id="layer12" inkscape:label="actions" transform="translate(-541.0002,-89)">
  <path inkscape:connector-curvature="0" d="m 554.65645,89.9375 -12.71875,12.71875 1.40625,1.40625 12.71875,-12.71875 z" id="path2986-2" sodipodi:nodetypes="ccccc" fill="#000000" opacity="0.5" color="#000000"/>
  <path inkscape:connector-curvature="0" d="m 549.00019,93.15625 c -2.89932,0 -5.43923,1.53856 -6.84375,3.84375 0.49639,0.81471 1.16058,1.50463 1.90625,2.09375 l 1.875,-1.875 c -0.005,-0.0733 -0.0312,-0.14413 -0.0312,-0.21875 0,-1.69827 1.39339,-3.0625 3.09375,-3.0625 0.0642,0 0.12429,0.0274 0.1875,0.0312 l 0.75,-0.75 c -0.31012,-0.0364 -0.61758,-0.0625 -0.9375,-0.0625 z m 4.9375,1.75 -1.875,1.875 c 0.005,0.0733 0.0312,0.14414 0.0312,0.21875 0,1.69828 -1.39339,3.0625 -3.09375,3.0625 -0.0642,0 -0.12429,-0.0274 -0.1875,-0.0312 l -0.75,0.75 c 0.31011,0.0364 0.61757,0.0625 0.9375,0.0625 2.89932,0 5.43923,-1.53855 6.84375,-3.84375 -0.49639,-0.81471 -1.16059,-1.50463 -1.90625,-2.09375 z" id="path4268" fill="#e13f2b" color="#ffffff" stroke-width="0.232"/>
 </g>
</svg>
