<svg xmlns="http://www.w3.org/2000/svg" enable-background="new" viewBox="0 0 16 16"><g transform="translate(-301-129)"><path d="m313.5 138c-1.933 0-3.5 1.567-3.5 3.5 0 1.933 1.567 3.5 3.5 3.5 1.933 0 3.5-1.567 3.5-3.5 0-1.933-1.567-3.5-3.5-3.5m0 3h2.5v1h-2.5-2.5v-1z" fill="#e13f2b" color="#555" stroke-width="1.909"/><g fill="#000" opacity="0.5" color="#000" stroke-width="2"><path d="m304 132h10v2h-10z"/><path d="m304 136v2h6.688c.77-.616 1.749-1 2.813-1 .172 0 .333.044.5.063v-1.063h-10"/><path d="m304 140v2h5.063c-.019-.167-.063-.328-.063-.5 0-.53.113-1.027.281-1.5h-5.281"/></g></g></svg>