<svg xmlns="http://www.w3.org/2000/svg" enable-background="new" viewBox="0 0 16 16"><defs><filter color-interpolation-filters="sRGB"><feBlend in2="BackgroundImage" mode="darken"/></filter></defs><path d="m410.22 102l-.313.281-3.625 3.625-.281.313v.406 4.75.406l.281.313 3.625 3.625.313.281h.406 4.75.406l.313-.281 3.625-3.625.281-.313v-.406-4.75-.406l-.281-.313-3.625-3.625-.313-.281h-.406-4.75-.406m1.781 3h2v3l-.25 2h-1.469l-.281-2v-3m1 5.75c.69 0 1.25.56 1.25 1.25 0 .69-.56 1.25-1.25 1.25-.69 0-1.25-.56-1.25-1.25 0-.69.56-1.25 1.25-1.25" color="#000" fill="#000" opacity="0.5" transform="translate(-405-101)"/></svg>