<svg xmlns="http://www.w3.org/2000/svg" enable-background="new" viewBox="0 0 16 16"><defs><filter color-interpolation-filters="sRGB"><feBlend in2="BackgroundImage" mode="darken"/></filter></defs><path d="m389 25c-2.761 0-5 2.239-5 5 0 .173.014.332.031.5.014.167.036.336.063.5.572 3.514 2.906 6 4.906 8 2-2 4.334-4.489 4.906-8 .027-.164.049-.333.063-.5.017-.168.031-.327.031-.5 0-2.761-2.239-5-5-5m0 3c1.105 0 2 .895 2 2 0 1.105-.895 2-2 2-1.105 0-2-.895-2-2 0-1.105.895-2 2-2" fill="#000" opacity="0.5" color="#000" transform="translate(-381-23.997)"/></svg>