<svg xmlns="http://www.w3.org/2000/svg" enable-background="new" viewBox="0 0 16 16"><defs><filter color-interpolation-filters="sRGB"><feBlend in2="BackgroundImage" mode="darken"/></filter></defs><path d="m450.25-36.938l-.313.281-3.625 3.625-.281.313v.406 4.75.406l.281.313 3.625 3.625.313.281h.406 4.75.406l.313-.281 3.625-3.625.281-.313v-.406-4.75-.406l-.281-.313-3.625-3.625-.313-.281h-.406-4.75-.406m.781 2h4l3 3v4l-3 3h-4l-3-3v-4l3-3m.438 1l-2.438 2.438v3.125l2.438 2.438h3.125l2.438-2.438v-3.125l-2.438-2.438h-3.125" color="#000" fill="#000" opacity="0.5" transform="translate(-445.03 37.938)"/></svg>