<svg xmlns="http://www.w3.org/2000/svg" enable-background="new" viewBox="0 0 16 16"><defs><filter color-interpolation-filters="sRGB"><feBlend in2="BackgroundImage" mode="darken"/></filter></defs><path d="m471.49-18.01c3.03 0 5.531 2.475 5.531 5.5 0 1.15-.389 2.208-1 3.094l3.688 3.688a1.00548 1.00548 0 1 1 -1.40625 1.4375l-3.688-3.688c-.887.611-1.973.969-3.125.969-3.03 0-5.5-2.475-5.5-5.5 0-3.03 2.471-5.5 5.5-5.5m0 2c-1.947 0-3.5 1.555-3.5 3.5 0 1.945 1.553 3.5 3.5 3.5 1.947 0 3.5-1.555 3.5-3.5 0-1.945-1.553-3.5-3.5-3.5" color="#000" fill="#000" opacity="0.5" transform="translate(-465 19)"/></svg>