<svg xmlns="http://www.w3.org/2000/svg" enable-background="new" viewBox="0 0 16 16"><defs><filter color-interpolation-filters="sRGB"><feBlend in2="BackgroundImage" mode="darken"/></filter></defs><path d="m534-18l1.219 1.906-4.406 2.75c-.515-.411-1.151-.656-1.813-.656-1.571 0-3 1.429-3 3 0 1.571 1.429 3 3 3 .662 0 1.297-.277 1.813-.688l4.406 2.781-1.219 1.906h6l-2.5-5.5-1.219 1.938-4.375-2.781c.054-.215.094-.432.094-.656 0-.224-.039-.442-.094-.656l4.375-2.781 1.219 1.938 2.5-5.5h-6" fill="#000" opacity="0.5" color="#000" transform="translate(-525 19)"/></svg>