<svg xmlns="http://www.w3.org/2000/svg" enable-background="new" viewBox="0 0 16 16"><defs><filter color-interpolation-filters="sRGB"><feBlend in2="BackgroundImage" mode="darken"/></filter></defs><g transform="translate(-325-20.997)" fill="#000" opacity="0.5"><rect height="7" rx="1" width="2" x="332" y="21.997" color="#bebebe"/><path d="m335.93945 23.988281a1.0001 1.0001 0 0 0 -.54297 1.808594c1.378 1.031 1.941 2.816 1.404 4.451-.537 1.635-2.049 2.739-3.77 2.752-1.721.013-3.25-1.067-3.813-2.693-.562-1.626-.026-3.421 1.336-4.473a1.0001 1.0001 0 1 0 -1.22266 -1.582031c-2.035 1.572-2.842 4.278-2 6.709.84 2.43 3.145 4.059 5.717 4.04 2.572-.02 4.852-1.686 5.654-4.129.802-2.443-.048-5.135-2.107-6.676a1.0001 1.0001 0 0 0 -.6543 -.207031" shape-rendering="auto" mix-blend-mode="normal" color-interpolation-filters="linearRGB" isolation="auto" white-space="normal" solid-opacity="1" image-rendering="auto" solid-color="#000000" color="#000" color-rendering="auto" color-interpolation="sRGB"/></g></svg>