<?xml version='1.0' encoding='UTF-8' standalone='no'?>
<svg height="16" xmlns:inkscape="http://www.inkscape.org/namespaces/inkscape" xmlns:sodipodi="http://sodipodi.sourceforge.net/DTD/sodipodi-0.dtd" version="1.1" width="16" xmlns="http://www.w3.org/2000/svg" enable-background="new">
 <metadata id="metadata90"/>
 <defs id="defs7386">
  <linearGradient id="linearGradient5606" osb:paint="solid">
   <stop id="stop5608"/>
  </linearGradient>
  <filter inkscape:collect="always" color-interpolation-filters="sRGB" id="filter7554">
   <feBlend inkscape:collect="always" id="feBlend7556" in2="BackgroundImage" mode="darken"/>
  </filter>
 </defs>
 <g inkscape:groupmode="layer" id="layer12" inkscape:label="actions" transform="translate(-325.00041,-20.996641)">
  <g id="g3874" transform="translate(65.0004,368.99664)" fill="#ffffff">
   <rect height="6" id="rect5820" rx="0" width="2" x="267" y="-347" color="#ffffff"/>
   <path inkscape:connector-curvature="0" d="M 88.53125,497.125 C 87.00637,498.21211 86,499.98372 86,502 c 0,3.31371 2.686291,6 6,6 3.313708,0 6,-2.68629 6,-6 0,-2.01628 -1.00637,-3.78789 -2.53125,-4.875 L 94.3125,498.75 C 95.336932,499.47069 96,500.65029 96,502 c 0,2.20914 -1.790861,4 -4,4 -2.209139,0 -4,-1.79086 -4,-4 0,-1.34971 0.663068,-2.52931 1.6875,-3.25 l -1.15625,-1.625 z" id="path3864-9" transform="translate(175.9998,-841.99664)" color="#000000"/>
  </g>
 </g>
</svg>
