<?xml version="1.0" encoding="UTF-8" standalone="no"?>
<svg xmlns="http://www.w3.org/2000/svg" xmlns:sodipodi="http://sodipodi.sourceforge.net/DTD/sodipodi-0.dtd" xmlns:inkscape="http://www.inkscape.org/namespaces/inkscape" height="16" version="1.1" width="16" enable-background="new">
 <metadata id="metadata90"/>
 <defs id="defs7386">
  <linearGradient id="linearGradient5606" osb:paint="solid">
   <stop id="stop5608"/>
  </linearGradient>
  <filter inkscape:collect="always" color-interpolation-filters="sRGB" id="filter7554">
   <feBlend inkscape:collect="always" id="feBlend7556" in2="BackgroundImage" mode="darken"/>
  </filter>
 </defs>
 <g inkscape:groupmode="layer" id="layer12" inkscape:label="actions" transform="translate(-345.0002,-20.996641)">
  <path inkscape:connector-curvature="0" d="m 349.0002,23 c 0,0 -2,0 -2,2 l 0,7 c 0,1 -1,1 -1,1 l -1,0 0,2 16,0 0,-2 -1,0 c 0,0 -1,0 -1,-1 l 0,-7 c 0,0 0,-2 -2,-2 z m 3,3 2,0 0,2 2,0 0,2 -2,0 0,2 -2,0 0,-2 -2,0 0,-2 2,0 z" id="path3027-5" sodipodi:nodetypes="csscccccsccscccccccccccccc" fill="#000000" opacity="0.5"/>
 </g>
</svg>
