<?xml version='1.0' encoding='UTF-8' standalone='no'?>
<svg height="16" xmlns:inkscape="http://www.inkscape.org/namespaces/inkscape" xmlns:sodipodi="http://sodipodi.sourceforge.net/DTD/sodipodi-0.dtd" version="1.1" width="16" xmlns="http://www.w3.org/2000/svg" enable-background="new">
 <metadata id="metadata90"/>
 <defs id="defs7386">
  <linearGradient id="linearGradient5606" osb:paint="solid">
   <stop id="stop5608"/>
  </linearGradient>
  <filter inkscape:collect="always" color-interpolation-filters="sRGB" id="filter7554">
   <feBlend inkscape:collect="always" id="feBlend7556" in2="BackgroundImage" mode="darken"/>
  </filter>
 </defs>
 <g inkscape:groupmode="layer" id="layer12" inkscape:label="actions" transform="translate(-265.00041,-146)">
  <path inkscape:connector-curvature="0" d="m 267.0002,147 0,1.625 c 0.22643,-0.13032 0.47097,-0.23331 0.71875,-0.3125 0.4307,-0.1377 0.87508,-0.1946 1.34375,-0.125 0.4594,0.0683 0.92934,0.24683 1.34375,0.53125 l 0,0.0312 c 0.70683,0.49615 0.90391,1.35179 0.40625,2.0625 -0.49677,0.70951 -1.3869,0.86508 -2.09375,0.375 -0.0372,-0.0262 -0.0222,0.0113 -0.0312,0 -0.0287,-0.0362 0.006,-0.0631 -0.0937,-0.0312 -0.008,0.003 -0.20338,0.13973 -0.3125,0.3125 -0.1092,0.17289 -0.1367,0.3447 -0.125,0.4375 0.0207,0.16423 -2.4e-4,0.13728 0.25,0.3125 1.80732,1.2655 2.42547,3.3468 1.8125,5 L 274.0002,161 l 7,-7 -7,-7 -7,0 z" id="path4849" fill="#000000" opacity="0.5"/>
  <path inkscape:connector-curvature="0" d="m 266.88302,149.98821 c 0.30112,-0.34375 0.68838,-0.59712 1.12654,-0.73715 0.58421,-0.18672 1.24821,-0.11788 1.84835,0.30234 0.21868,0.14824 0.28015,0.48405 0.12862,0.70045 -0.15152,0.21641 -0.48795,0.27329 -0.70219,0.11871 -0.36789,-0.2576 -0.67505,-0.26314 -0.9933,-0.16143 -0.31826,0.10171 -0.62665,0.37152 -0.83981,0.70903 -0.21315,0.33753 -0.32362,0.73083 -0.27665,1.10337 0.047,0.37253 0.20993,0.71923 0.65269,1.02925 1.77371,1.24196 2.03486,3.21182 1.1207,4.44705 -0.50983,0.68888 -1.35904,1.10936 -2.36568,1.09027 l -0.49652,-1.03435 c 0.9654,0.21774 1.67363,-0.13171 2.06097,-0.6551 0.57154,-0.77231 0.53145,-2.03127 -0.89305,-3.02872 -0.64874,-0.45426 -0.98957,-1.10408 -1.06988,-1.74102 -0.0803,-0.63693 0.10614,-1.24538 0.43034,-1.75873 0.0812,-0.12821 0.16849,-0.26939 0.26887,-0.38397 z m -1.61392,7.26275 c 0.0816,0.0403 0.16193,0.0592 0.24064,0.0922 l 0.54513,1.18285 c -0.0667,-0.0109 -0.13961,-0.0161 -0.20733,-0.0308 z m 0.41212,0.17418 c 0.0864,0.0316 0.17589,0.0434 0.25854,0.0666 l 0.50419,1.07787 c -0.0763,-0.004 -0.1473,0.004 -0.22529,-0.005 z" id="path7413-8" sodipodi:nodetypes="sscscscssccccsscscccccccccc" color="#000000" fill="#000000" opacity="0.5"/>
 </g>
</svg>
