<?xml version='1.0' encoding='UTF-8' standalone='no'?>
<svg height="16" xmlns:inkscape="http://www.inkscape.org/namespaces/inkscape" xmlns:sodipodi="http://sodipodi.sourceforge.net/DTD/sodipodi-0.dtd" version="1.1" width="16" xmlns:xlink="http://www.w3.org/1999/xlink" xmlns="http://www.w3.org/2000/svg" enable-background="new">
 <metadata id="metadata90"/>
 <defs id="defs7386">
  <linearGradient id="linearGradient5606" osb:paint="solid">
   <stop id="stop5608"/>
  </linearGradient>
  <filter inkscape:collect="always" color-interpolation-filters="sRGB" id="filter7554">
   <feBlend inkscape:collect="always" id="feBlend7556" in2="BackgroundImage" mode="darken"/>
  </filter>
 </defs>
 <g inkscape:groupmode="layer" id="layer12" inkscape:label="actions" transform="translate(-299,-83.996674)">
  <path inkscape:connector-curvature="0" d="m 300.5002,87.000001 c -0.5,0 -0.5,0.5 -0.5,0.5 l 0,1 c 0,0.5 0.5,0.5 0.5,0.5 l 1,0 c 0,0 0.5,0 0.5,-0.5 l 0,-1 c 0,-0.5 -0.5,-0.5 -0.5,-0.5 z" id="rect5006" sodipodi:nodetypes="ccccccccc" fill="#000000" opacity="0.5"/>
  <use height="700" xlink:href="#rect5006" id="use4990" transform="translate(4,0)" width="680"/>
  <use height="700" xlink:href="#rect5006" id="use4992" transform="translate(8,0)" width="680"/>
  <use height="700" xlink:href="#rect5006" id="use4994" transform="translate(12,0)" width="680"/>
  <use height="700" xlink:href="#rect5006" id="use4996" transform="translate(12,4)" width="680"/>
  <use height="700" xlink:href="#rect5006" id="use4998" transform="translate(8,4)" width="680"/>
  <use height="700" xlink:href="#rect5006" id="use5000" transform="translate(4,4)" width="680"/>
  <use height="700" xlink:href="#rect5006" id="use5002" transform="translate(0,4)" width="680"/>
  <use height="700" xlink:href="#rect5006" id="use5004" transform="translate(0,8)" width="680"/>
  <use height="700" xlink:href="#rect5006" id="use5006" transform="translate(4,8)" width="680"/>
  <use height="700" xlink:href="#rect5006" id="use5008" transform="translate(8,8)" width="680"/>
  <use height="700" xlink:href="#rect5006" id="use5010" transform="translate(12,8)" width="680"/>
 </g>
</svg>
