<svg xmlns="http://www.w3.org/2000/svg" enable-background="new" viewBox="0 0 16 16.03"><defs><filter color-interpolation-filters="sRGB"><feBlend in2="BackgroundImage" mode="darken"/></filter></defs><g transform="translate(-457-80.997)" fill="#000" opacity="0.5" color="#000"><path d="m458 81.03c0 4.333 0 8.667 0 13 .667 0 1.333 0 2 0 0-3.676 0-7.352 0-11.03 2.716.005 9 0 9 0 0 0 0-1.522 0-1.973-3.667 0-7.334-.001-11 0"/><path d="m461 84.03c0 4.333 0 8.667 0 13 3.667 0 7.333 0 11 0 0-4.333 0-8.667 0-13-3.667 0-7.333 0-11 0m2 1.972c2.333 0 4.667 0 7 0 0 3 0 6 0 9-2.333 0-4.667 0-7 0 0-3 0-6 0-9"/></g></svg>