<svg xmlns="http://www.w3.org/2000/svg" enable-background="new" viewBox="0 0 16 16"><defs><filter color-interpolation-filters="sRGB"><feBlend in2="BackgroundImage" mode="darken"/></filter></defs><g transform="translate(-471-102)" fill="#000" opacity="0.5" color="#000"><path d="m473.5 104c-.822 0-1.5.678-1.5 1.5 0 .822.678 1.5 1.5 1.5.822 0 1.5-.678 1.5-1.5 0-.822-.678-1.5-1.5-1.5m0 4c-.822 0-1.5.678-1.5 1.5 0 .822.678 1.5 1.5 1.5.822 0 1.5-.678 1.5-1.5 0-.822-.678-1.5-1.5-1.5m0 4c-.822 0-1.5.678-1.5 1.5 0 .822.678 1.5 1.5 1.5.822 0 1.5-.678 1.5-1.5 0-.822-.678-1.5-1.5-1.5"/><path d="m479 115v-4h-3.063l5.063-7 5.188 7h-3.188v4z"/></g></svg>