<svg xmlns="http://www.w3.org/2000/svg" width="16" height="16">
    <g transform="translate(-465 195.035)">
        <path d="m 468.0002,-194 c -2,0 -2,2 -2,2 v 9 c 0,2 2,2 2,2 h 10 c 2,0 2,-2 2,-2 v -1 0 -3 0 -1 0 -3 0 -1 c 0,0 0,-2 -2,-2 z m 3,3 h 1 3 1 v 5.5 c 0,0.82843 -0.67157,1.5 -1.5,1.5 -0.82843,0 -1.5,-0.67157 -1.5,-1.5 0,-0.82843 0.67157,-1.5 1.5,-1.5 0.17259,0 0.34568,0.0401 0.5,0.0937 V -189 h -3 v 3.5 c 0,0.82843 -0.67157,1.5 -1.5,1.5 -0.82843,0 -1.5,-0.67157 -1.5,-1.5 0,-0.82843 0.67157,-1.5 1.5,-1.5 0.17259,0 0.34568,0.0401 0.5,0.0937 V -189 Z" fill="#4c5263"/>
    </g>
</svg>
