<svg xmlns="http://www.w3.org/2000/svg" width="16.001" height="16.002">
    <g transform="translate(-385 195.004)">
        <path style="marker:none" d="m 393.0002,-195.00391 c -1.66208,0 -3,1.33792 -3,3 v 5.00196 c 0,1.66208 1.33792,3 3,3 1.66208,0 3,-1.33792 3,-3 v -5.00196 c 0,-1.66208 -1.33792,-3 -3,-3 z m -6,7.00392 v 0.99804 c 10e-6,2.96553 2.16796,5.42949 5,5.9082 v 2.0918 h 2 v -2.0918 c 2.83204,-0.47871 5,-2.94267 5,-5.9082 v -0.99804 h -2 v 0.99804 c 0,2.23341 -1.76659,4 -4,4 -2.23341,0 -4,-1.76659 -4,-4 v -0.99804 z" color="#bebebe" overflow="visible" fill="#4c5263"/>
    </g>
</svg>
