<svg xmlns="http://www.w3.org/2000/svg" width="16.003" height="16">
    <g transform="translate(-324.997 235)">
        <path d="m 327.0002,-233 c -2,0 -2,2 -2,2 v 6 c 0,2 2,2 2,2 h 4 8 c 0,0 2,0 2,-2 v -6 c 0,0 0,-2 -2,-2 z m 6,8 -4,5 h 8 z m 3,-6 c 1.65685,0 3,1.34315 3,3 0,1.65685 -1.34315,3 -3,3 -1.65685,0 -3,-1.34315 -3,-3 0,-1.65685 1.34315,-3 3,-3 z" style="line-height:normal;-inkscape-font-specification:Sans;text-indent:0;text-align:start;text-decoration-line:none;text-transform:none;marker:none" color="#000" font-weight="400" font-family="Sans" overflow="visible" fill="#4c5263"/>
    </g>
</svg>
