<svg xmlns="http://www.w3.org/2000/svg" width="16" height="16.003">
    <g transform="translate(-385 215.003)">
        <path d="m 393.0002,-215 -2.5,4 h 1.5 v 5 h -3 v -1.27148 c 0.61771,-0.35663 0.99874,-1.01525 1,-1.72852 0,-1.10457 -0.89543,-2 -2,-2 -1.10457,0 -2,0.89543 -2,2 5.6e-4,0.71397 0.38169,1.37349 1,1.73047 V -206 c 0,2 2,2 2,2 h 3 v 1.27148 c -0.61771,0.35663 -0.99874,1.01525 -1,1.72852 0,1.10457 0.89543,2 2,2 1.10457,0 2,-0.89543 2,-2 -5.6e-4,-0.71397 -0.38169,-1.37349 -1,-1.73047 V -204 h 3 c 0,0 2,0 2,-2 v -1 c 0,0 1.125,-0.1875 1,-1 v -2 c 0.125,-1.125 -1,-1 -1,-1 h -2 c -1.0625,0 -1,1 -1,1 v 2 c 0,1 1,1 1,1 v 1 h -3 v -5 h 1.5 z" fill="#4c5263" fill-rule="evenodd"/>
    </g>
</svg>
