<svg xmlns="http://www.w3.org/2000/svg" width="16" height="16">
    <g transform="translate(-446 235.003)">
        <path d="m 448.0002,-233 c 0,0 -2,0 -2,2 v 8 c 0,2 2,2 2,2 h 11 c 0,0 2,0 2,-2 v -8 c 0,-2 -2,-2 -2,-2 z m 0.25,2 h 1.5 c 0.1385,0 0.25,0.1115 0.25,0.25 v 1.5 c 0,0.1385 -0.1115,0.25 -0.25,0.25 h -1.5 c -0.1385,0 -0.25,-0.1115 -0.25,-0.25 v -1.5 c 0,-0.1385 0.1115,-0.25 0.25,-0.25 z m 3,0 h 1.5 c 0.1385,0 0.25,0.1115 0.25,0.25 v 1.5 c 0,0.1385 -0.1115,0.25 -0.25,0.25 h -1.5 c -0.1385,0 -0.25,-0.1115 -0.25,-0.25 v -1.5 c 0,-0.1385 0.1115,-0.25 0.25,-0.25 z m 3,0 h 1.5 c 0.1385,0 0.25,0.1115 0.25,0.25 v 1.5 c 0,0.1385 -0.1115,0.25 -0.25,0.25 h -1.5 c -0.1385,0 -0.25,-0.1115 -0.25,-0.25 v -1.5 c 0,-0.1385 0.1115,-0.25 0.25,-0.25 z m 3,0 h 1.5 c 0.1385,0 0.25,0.1115 0.25,0.25 v 1.5 c 0,0.1385 -0.1115,0.25 -0.25,0.25 h -1.5 c -0.1385,0 -0.25,-0.1115 -0.25,-0.25 v -1.5 c 0,-0.1385 0.1115,-0.25 0.25,-0.25 z m -9,3 h 1.5 c 0.1385,0 0.25,0.1115 0.25,0.25 v 1.5 c 0,0.1385 -0.1115,0.25 -0.25,0.25 h -1.5 c -0.1385,0 -0.25,-0.1115 -0.25,-0.25 v -1.5 c 0,-0.1385 0.1115,-0.25 0.25,-0.25 z m 3,0 h 1.5 c 0.1385,0 0.25,0.1115 0.25,0.25 v 1.5 c 0,0.1385 -0.1115,0.25 -0.25,0.25 h -1.5 c -0.1385,0 -0.25,-0.1115 -0.25,-0.25 v -1.5 c 0,-0.1385 0.1115,-0.25 0.25,-0.25 z m 3,0 h 1.5 c 0.1385,0 0.25,0.1115 0.25,0.25 v 1.5 c 0,0.1385 -0.1115,0.25 -0.25,0.25 h -1.5 c -0.1385,0 -0.25,-0.1115 -0.25,-0.25 v -1.5 c 0,-0.1385 0.1115,-0.25 0.25,-0.25 z m 3,0 h 1.5 c 0.1385,0 0.25,0.1115 0.25,0.25 v 1.5 c 0,0.1385 -0.1115,0.25 -0.25,0.25 h -1.5 c -0.1385,0 -0.25,-0.1115 -0.25,-0.25 v -1.5 c 0,-0.1385 0.1115,-0.25 0.25,-0.25 z m -7,3 h 6.5 c 0.1385,0 0.25,0.1115 0.25,0.25 v 1.5 c 0,0.1385 -0.1115,0.25 -0.25,0.25 h -6.5 c -0.1385,0 -0.25,-0.1115 -0.25,-0.25 v -1.5 c 0,-0.1385 0.1115,-0.25 0.25,-0.25 z" fill="#4c5263"/>
    </g>
</svg>
