<svg xmlns="http://www.w3.org/2000/svg" width="16" height="16">
    <path d="M2 2.003s-2 0-2 2v8c0 2 2 2 2 2h11s2 0 2-2v-8c0-2-2-2-2-2zm.25 2h1.5a.25.25 0 01.25.25v1.5a.25.25 0 01-.25.25h-1.5a.25.25 0 01-.25-.25v-1.5a.25.25 0 01.25-.25zm3 0h1.5a.25.25 0 01.25.25v1.5a.25.25 0 01-.25.25h-1.5a.25.25 0 01-.25-.25v-1.5a.25.25 0 01.25-.25zm3 0h1.5a.25.25 0 01.25.25v1.5a.25.25 0 01-.25.25h-1.5a.25.25 0 01-.25-.25v-1.5a.25.25 0 01.25-.25zm3 0h1.5a.25.25 0 01.25.25v1.5a.25.25 0 01-.25.25h-1.5a.25.25 0 01-.25-.25v-1.5a.25.25 0 01.25-.25zm-9 3h1.5a.25.25 0 01.25.25v1.5a.25.25 0 01-.25.25h-1.5a.25.25 0 01-.25-.25v-1.5a.25.25 0 01.25-.25zm3 0h1.5a.25.25 0 01.25.25v1.5a.25.25 0 01-.25.25h-1.5a.25.25 0 01-.25-.25v-1.5a.25.25 0 01.25-.25zm3 0h1.5a.25.25 0 01.25.25v1.5a.25.25 0 01-.25.25h-1.5a.25.25 0 01-.25-.25v-1.5a.25.25 0 01.25-.25zm3 0h1.5a.25.25 0 01.25.25v1.5a.25.25 0 01-.25.25h-1.5a.25.25 0 01-.25-.25v-1.5a.25.25 0 01.25-.25zm-7 3h6.5a.25.25 0 01.25.25v1.5a.25.25 0 01-.25.25h-6.5a.25.25 0 01-.25-.25v-1.5a.25.25 0 01.25-.25z" fill="#4c5263"/>
</svg>
