<svg xmlns="http://www.w3.org/2000/svg" width="16" height="16">
    <g transform="translate(-425.004 235)">
        <path d="m 428.5002,-234 c -0.277,0 -0.5,0.223 -0.5,0.5 v 2 c 0,0.277 0.223,0.5 0.5,0.5 h 2 c 0.277,0 0.5,-0.223 0.5,-0.5 v -2 c 0,-0.277 -0.223,-0.5 -0.5,-0.5 z m 4,0 c -0.277,0 -0.5,0.223 -0.5,0.5 v 2 c 0,0.277 0.223,0.5 0.5,0.5 h 2 c 0.277,0 0.5,-0.223 0.5,-0.5 v -2 c 0,-0.277 -0.223,-0.5 -0.5,-0.5 z m 4,0 c -0.277,0 -0.5,0.223 -0.5,0.5 v 2 c 0,0.277 0.223,0.5 0.5,0.5 h 2 c 0.277,0 0.5,-0.223 0.5,-0.5 v -2 c 0,-0.277 -0.223,-0.5 -0.5,-0.5 z m -8,4 c -0.277,0 -0.5,0.223 -0.5,0.5 v 2 c 0,0.277 0.223,0.5 0.5,0.5 h 2 c 0.277,0 0.5,-0.223 0.5,-0.5 v -2 c 0,-0.277 -0.223,-0.5 -0.5,-0.5 z m 4,0 c -0.277,0 -0.5,0.223 -0.5,0.5 v 2 c 0,0.277 0.223,0.5 0.5,0.5 h 2 c 0.277,0 0.5,-0.223 0.5,-0.5 v -2 c 0,-0.277 -0.223,-0.5 -0.5,-0.5 z m 4,0 c -0.277,0 -0.5,0.223 -0.5,0.5 v 2 c 0,0.277 0.223,0.5 0.5,0.5 h 2 c 0.277,0 0.5,-0.223 0.5,-0.5 v -2 c 0,-0.277 -0.223,-0.5 -0.5,-0.5 z m -8,4 c -0.277,0 -0.5,0.223 -0.5,0.5 v 2 c 0,0.277 0.223,0.5 0.5,0.5 h 2 c 0.277,0 0.5,-0.223 0.5,-0.5 v -2 c 0,-0.277 -0.223,-0.5 -0.5,-0.5 z m 4,0 c -0.277,0 -0.5,0.223 -0.5,0.5 v 2 c 0,0.277 0.223,0.5 0.5,0.5 h 2 c 0.277,0 0.5,-0.223 0.5,-0.5 v -2 c 0,-0.277 -0.223,-0.5 -0.5,-0.5 z m 4,0 c -0.277,0 -0.5,0.223 -0.5,0.5 v 2 c 0,0.277 0.223,0.5 0.5,0.5 h 2 c 0.277,0 0.5,-0.223 0.5,-0.5 v -2 c 0,-0.277 -0.223,-0.5 -0.5,-0.5 z m -4,4 c -0.277,0 -0.5,0.223 -0.5,0.5 v 2 c 0,0.277 0.223,0.5 0.5,0.5 h 2 c 0.277,0 0.5,-0.223 0.5,-0.5 v -2 c 0,-0.277 -0.223,-0.5 -0.5,-0.5 z" fill="#4c5263"/>
    </g>
</svg>
