<svg xmlns="http://www.w3.org/2000/svg" width="16" height="16">
    <g transform="translate(-505 235.003)">
        <path d="m 512.0002,-234.0625 c -0.554,0 -1,0.446 -1,1 v 3 l 2,2 2,-2 v -3 c 0,-0.554 -0.446,-1 -1,-1 z m -5,5.0625 c -0.554,0 -1,0.446 -1,1 v 2 c 0,0.554 0.44602,1.00513 1,1 h 2.9375 l 2,-2 -2,-2 z m 9.0625,0 -2,2 2,2 h 2.9375 c 0.554,0 1,-0.446 1,-1 v -2 c 0,-0.554 -0.446,-1 -1,-1 z m -3.0625,3.0625 -2,2 V -221 c 0,0.554 0.446,1 1,1 h 2 c 0.554,0 1,-0.446 1,-1 v -2.9375 z" fill="#4c5263"/>
    </g>
</svg>
