<svg xmlns="http://www.w3.org/2000/svg" width="16.013" height="16">
    <g transform="translate(-484.988 235.003)" filter="url(#filter7554)">
        <path d="M485.938-234c-.61-.02-1.03.587-.938 1.156.003 3.664-.01 7.337 0 11 .042.593.675.927 1.219.844 3.984-.003 7.953.011 11.937 0 .593-.041.927-.674.844-1.219v-5.906l-2 2c-.003 1.038 0 2.078 0 3.125h-10v-9h10v.125l1.563-1.563c.07-.07.14-.13.218-.187-.142-.2-.367-.375-.78-.375h-12.063zM500-233c-.277 0-.538.1-.719.281l-6 6c-.18.181-.28.442-.28.719v1h1c.276 0 .537-.1.718-.281l6-6c.18-.181.281-.442.281-.719 0-.554-.446-1-1-1z" style="marker:none" color="#bebebe" overflow="visible" fill="#4c5263"/>
    </g>
</svg>
