<svg xmlns="http://www.w3.org/2000/svg" width="16" height="16">
    <g transform="translate(-405.002 215.002)">
        <path d="m 420.0002,-210.99999 c 0,-2 -2,-2 -2,-2 l -10,9e-5 c -2,0 -2,2 -2,2 v 8 c 0,0 0,2 2,2 l 10,-9e-5 2,-2 z m -4.00147,5.99809 10e-4,1.00191 c 0,1 -1,1 -1,1 l -1.00147,-0.002 v -2 z m 10e-4,-4.99809 -0.005,0.99809 h -2 v -2 l 1.00547,0.002 c 0,0 1,0 1,1 z m -0.005,1.99809 v 2 h -2 v -2 z m -2.996,-3 v 8 h -2 v -8 z m -2.99609,6 v 2 l -1.00244,0.002 c -1,0 -1,-1 -1,-1 l 0.002,-1.00191 z m -0.004,-6 v 2 h -2 l 0.002,-0.99809 c 0,-1 1,-1 1,-1 z m 0,3 v 2 h -2 v -2 z" fill="#4c5263"/>
    </g>
</svg>
