<svg xmlns="http://www.w3.org/2000/svg" width="16" height="16">
    <g color="#000" fill="#4c5263">
        <path d="m 592.99652,240 v 1 3.28125 c -0.29454,-0.17076 -0.63503,-0.28125 -1,-0.28125 -1.10457,0 -2,0.89543 -2,2 0,1.10457 0.89543,2 2,2 1.10457,0 2,-0.89543 2,-2 l 0.003,-4 h 4 l -0.003,2.28125 c -0.29454,-0.17076 -0.63503,-0.28125 -1,-0.28125 -1.10457,0 -2,0.89543 -2,2 0,1.10457 0.89543,2 2,2 1.10457,0 2,-0.89543 2,-2 v -5 -1 h -1 -4 z" style="marker:none" overflow="visible" transform="translate(-583.996 -232)"/>
        <path d="m 585,233 v 1 h -0.004 v 12 H 585 v 2 h 1 v -1 h 1 v 1 h 1 v -2 h -0.004 L 588,245 h 1 l -0.004,-2 h -1 v -5 h 8 v 1 h 1 1 1 v -4 H 599 v -2 h -1 v 1 h -0.004 -0.99609 v -1 h -1 v 1 h -0.004 l 0.004,2 h -8 l -0.004,-1 h 0.004 v -2 h -1 v 1 h -0.004 -0.99609 v -1 z m 0.99609,2 h 1 v 1 h -1 z m 11,0 h 1 v 1 h -1 z m -11,2 h 1 v 1 h -1 z m 11,0 h 1 v 1 h -1 z m -11,2 h 1 v 1 h -1 z m 0,2 h 1 v 1 h -1 z m 0,2 h 1 v 1 h -1 z m 0,2 h 1 v 1 h -1 z" style="marker:none" overflow="visible" transform="translate(-583.996 -232)"/>
    </g>
</svg>
