<svg xmlns="http://www.w3.org/2000/svg" width="16" height="16">
    <g fill="#4c5263">
        <path d="M611.88845 252.00274c-2.10985.0296-4.94513.80221-4.89737 3.28068.0499 2.58608 2.91741 1.66126 3.15054 2.71829.0353-.045.0883-.0821.12477-.12498.19744-.2135.39517-.38769.59267-.59365.31248-.35256.63627-.67899.967-1.03107 1.10674-1.17814 1.15415-1.24979 3.79604-3.24945-1.03459-.62096-2.25793-.96565-3.29695-.99982-.1332-.005-.29604-.002-.4367 0zm-1.9028 1.53098c.82692 0 1.49728.67146 1.49728 1.49975 0 .82829-.67036 1.49974-1.49728 1.49974-.82693 0-1.49728-.67145-1.49728-1.49974 0-.82829.67035-1.49975 1.49728-1.49975zm7.26873.66156c-1.41828 2.23337-2.36679 3.55601-3.36956 4.58755-.63925.65758-1.1631 1.31156-1.62205 1.78094-.83899.89023-1.93776 1.94077-3.15054 3.09322.0633 1.46884.81094 2.74635 3.24412 3.2182 3.89808.75593 8.02683-1.82423 7.61118-7.06129-.17842-2.24796-1.4052-4.28134-2.71315-5.61862zm.34245 3.80643c.5488 0 .99819.44764.99819.99983 0 .55218-.44939.99983-.99819.99983-.54879 0-.99818-.44765-.99818-.99983 0-.55219.44939-.99983.99818-.99983zm-.62386 2.99949c.54879 0 .99818.44764.99818.99983 0 .55218-.44939.99982-.99818.99982-.5488 0-.99819-.44764-.99819-.99982 0-.55219.44939-.99983.99819-.99983zm-4.99094 1.99965c.54879 0 .99818.44765.99818.99983 0 .55219-.44939.99983-.99818.99983-.5488 0-.99819-.44764-.99819-.99983 0-.55218.44939-.99983.99819-.99983zm2.99456 0c.5488 0 .99819.44765.99819.99983 0 .55219-.44939.99983-.99819.99983-.5488 0-.99819-.44764-.99819-.99983 0-.55218.44939-.99983.99819-.99983zM603.99651 265.49915c1.55209.0006 1.39367-1.78749 2.14726-2.28535.87328-.57692 1.63857.13795 1.79136.72627.19279.74234-.11685 1.63129-1.12998 1.8846-1.07336.26836-2.66168.27633-2.80864-.32552z" transform="translate(-603.997 -252)"/>
        <path d="m 618.03354,252.00274 c -1.79965,1.2988 -4.20634,3.30184 -6.11488,5.3335 -0.17324,0.18442 -0.34065,0.36235 -0.50432,0.54703 -0.10346,0.10788 -0.21177,0.19588 -0.3152,0.30771 -0.0653,0.0767 -0.12585,0.16279 -0.18912,0.23932 -1.87306,2.07016 -3.71972,4.68066 -4.91712,6.6327 2.97729,-2.29737 4.91603,-4.16475 6.1464,-5.47026 0.2404,-0.24587 0.52929,-0.56636 0.85103,-0.92311 1.20361,-1.33456 2.92519,-3.43748 5.04321,-6.66689 z" transform="translate(-603.997 -252)"/>
    </g>
</svg>
