<svg xmlns="http://www.w3.org/2000/svg" width="16" height="16">
    <g color="#000">
        <path d="M5.012.1a1 1 0 00-.489 1.873l.493.275V4.93c-.13.204-.25.386-.44.713-.272.47-.605 1.062-.967 1.709a514.615 514.615 0 00-2.203 3.994c-.572 1.047-.55 2.454.301 3.514.673.9 1.738 1.14 2.62 1.14h7.347c.88 0 1.946-.24 2.619-1.14.85-1.058.872-2.461.303-3.508C13.43 8.98 12.12 7.129 11.03 4.949v-2.7l.49-.276A1 1 0 0011.035.1zm2.004 2H9.03v3.107a1 1 0 00.102.44c1.201 2.457 2.574 4.343 3.685 6.617a1 1 0 00.02.04c.24.44.254.884-.1 1.315a1 1 0 00-.035.045c-.144.199-.489.336-1.03.336H4.327c-.54 0-.885-.137-1.03-.336a1 1 0 00-.034-.045c-.354-.431-.34-.875-.1-1.314a510.467 510.467 0 012.191-3.979c.36-.641.69-1.225.954-1.68.263-.453.49-.812.517-.849a1 1 0 00.192-.59z" style="line-height:normal;font-variant-ligatures:normal;font-variant-position:normal;font-variant-caps:normal;font-variant-numeric:normal;font-variant-alternates:normal;font-feature-settings:normal;text-indent:0;text-align:start;text-decoration-line:none;text-decoration-style:solid;text-decoration-color:#000;text-transform:none;text-orientation:mixed;white-space:normal;shape-padding:0;isolation:auto;mix-blend-mode:normal;solid-color:#000;solid-opacity:1" font-weight="400" font-family="sans-serif" overflow="visible" fill="#555"/>
        <path d="M6.219 9.002L4 13h8L9.781 9z" style="marker:none" overflow="visible" opacity=".25" fill="#4c5263"/>
    </g>
</svg>
