<svg xmlns="http://www.w3.org/2000/svg" width="16" height="16">
    <g color="#000" fill="#4c5263">
        <path d="m 529.01172,252.09961 a 1.0001,1.0001 0 0 0 -0.48828,1.87305 l 0.49218,0.27539 v 2.68164 c -0.13051,0.20413 -0.24955,0.38557 -0.43945,0.71289 -0.27262,0.46989 -0.60521,1.06201 -0.96679,1.70898 -0.72317,1.29396 -1.55608,2.81029 -2.20313,3.99414 -0.57244,1.04734 -0.55071,2.4539 0.30078,3.51368 0.6734,0.89951 1.73811,1.14062 2.61914,1.14062 h 7.34766 c 0.88103,0 1.94574,-0.24111 2.61914,-1.14062 0.85004,-1.05798 0.87216,-2.46106 0.30273,-3.50782 -1.16426,-2.37198 -2.47515,-4.22241 -3.56445,-6.40234 v -2.70117 l 0.49023,-0.27539 a 1.0001,1.0001 0 0 0 -0.48632,-1.87305 z m 2.0039,2 h 2.01563 v 3.10742 a 1.0001,1.0001 0 0 0 0.10156,0.43945 c 1.20164,2.45716 2.57372,4.34365 3.68555,6.61719 a 1.0001,1.0001 0 0 0 0.0195,0.041 c 0.23971,0.43859 0.2541,0.88301 -0.0996,1.31445 a 1.0001,1.0001 0 0 0 -0.0352,0.0449 C 536.55868,265.86228 536.21417,266 535.67383,266 h -7.34766 c -0.54034,0 -0.88485,-0.13772 -1.02929,-0.33594 a 1.0001,1.0001 0 0 0 -0.0352,-0.0449 c -0.35372,-0.43145 -0.33932,-0.87588 -0.0996,-1.31445 0.64576,-1.18149 1.47422,-2.69526 2.19141,-3.97852 0.35859,-0.64163 0.68986,-1.22592 0.95312,-1.67969 0.26326,-0.45376 0.49106,-0.81322 0.51758,-0.8496 a 1.0001,1.0001 0 0 0 0.1914,-0.58985 z" style="line-height:normal;font-variant-ligatures:normal;font-variant-position:normal;font-variant-caps:normal;font-variant-numeric:normal;font-variant-alternates:normal;font-feature-settings:normal;text-indent:0;text-align:start;text-decoration-line:none;text-decoration-style:solid;text-decoration-color:#000;text-transform:none;text-orientation:mixed;white-space:normal;shape-padding:0;isolation:auto;mix-blend-mode:normal;solid-color:#000;solid-opacity:1" font-weight="400" font-family="sans-serif" overflow="visible" transform="translate(-524 -252)"/>
        <path d="m 530.21871,261.00142 -2.21875,3.99904 h 8 l -2.21875,-3.99904 z" style="marker:none" overflow="visible" opacity=".25" transform="translate(-524 -252)"/>
    </g>
</svg>
