<svg xmlns="http://www.w3.org/2000/svg" width="16" height="16">
    <g color="#000" fill="#4c5263">
        <path d="M9 8V12.281A1.995 1.995 0 008 12a2 2 0 102 2l.003-4h4L14 12.281A1.995 1.995 0 0013 12a2 2 0 102 2V8h-5z" style="marker:none" overflow="visible"/>
        <path d="M1.004 1v1H1v12h.004v2h1v-1h1v1h1v-2H4l.004-1h1L5 11H4V6h8v1h3V3h.004V1h-1v1h-1V1h-1v1H12l.004 2h-8L4 3h.004V1h-1v1h-1V1zM2 3h1v1H2zm11 0h1v1h-1zM2 5h1v1H2zm11 0h1v1h-1zM2 7h1v1H2zm0 2h1v1H2zm0 2h1v1H2zm0 2h1v1H2z" style="marker:none" overflow="visible"/>
    </g>
</svg>
