<svg xmlns="http://www.w3.org/2000/svg" width="16" height="16">
    <g fill="#4c5263">
        <path d="M563.99845 263.99996c.004-.22414.11244-.53067.30379-.70429l2.16171-2.11644c.23264-.24354.78664-.29256 1.01104-.15675.0805.002 1.13546.63126 1.28813.86541.61665.94579-.34406 1.82732-1.17392 1.54685l-.34957-.2117-1.60232 1.57174c-.63718.52635-1.69148.0922-1.6389-.79478zM575.61563 252.11832c.38967-.10147.79073-.11077 1.17065-.0809l-1.3597 2.3059c-.27942.47386-.12275 1.07071.35378 1.34773l.87431.50825c.47651.277 1.0774.12052 1.35683-.35334l1.35969-2.3059c.21223.3143.40035.66611.50195 1.05317.48628 1.85256-.63144 3.74808-2.4965 4.23377-.38967.10147-.79073.11077-1.17065.0809l-.80213 1.1146L571.99414 260c0 0 1.5186-2.57735 1.62694-2.59472-.21223-.3143-.40034-.66611-.50194-1.05317-.48629-1.85256.63143-3.7481 2.49649-4.23379z" style="line-height:normal;-inkscape-font-specification:Sans;text-indent:0;text-align:start;text-decoration-line:none;text-transform:none;marker:none" color="#000" font-weight="400" font-family="Sans" overflow="visible" transform="translate(-563.997 -252)"/>
        <path d="m 567.59533,252.7188 c -0.2298,0.0471 -0.44326,0.13096 -0.65529,0.21875 -0.0167,0.62433 0.0868,1.44177 -0.15602,1.65625 -0.23862,0.21077 -1.03684,0.0343 -1.65382,-0.0313 -0.1312,0.23649 -0.23492,0.48523 -0.31205,0.75 0.4774,0.39586 1.13884,0.83901 1.15456,1.15625 0.0159,0.32119 -0.6255,0.80489 -1.06094,1.25 0.10323,0.25783 0.24977,0.49354 0.40565,0.71875 0.60743,-0.12641 1.36439,-0.37354 1.62262,-0.1875 0.26292,0.18942 0.26482,1.00535 0.34325,1.625 0.24918,0.075 0.51175,0.1045 0.7801,0.125 0.28094,-0.55462 0.56658,-1.3198 0.87372,-1.40625 0.31529,-0.0887 0.96213,0.45813 1.4978,0.78125 0.21839,-0.1516 0.41233,-0.33706 0.59288,-0.53125 -0.25347,-0.57232 -0.72003,-1.29192 -0.59288,-1.59375 0.12727,-0.30211 0.97398,-0.46963 1.56021,-0.6875 0.004,-0.0735 0.0312,-0.14414 0.0312,-0.21875 0,-0.19137 -0.0344,-0.37899 -0.0624,-0.5625 -0.60521,-0.16082 -1.46506,-0.2413 -1.62262,-0.53125 -0.15651,-0.28801 0.24143,-1.0614 0.43686,-1.65625 -0.20087,-0.17858 -0.4188,-0.33716 -0.65529,-0.46875 -0.50016,0.37513 -1.08274,0.99436 -1.40419,0.9375 -0.31642,-0.056 -0.66192,-0.81955 -0.99853,-1.34375 -0.0401,0.007 -0.0851,-0.008 -0.12482,0 z m 0.62408,1.875 c 0.93062,0 1.68503,0.75552 1.68503,1.6875 0,0.93198 -0.75441,1.6875 -1.68503,1.6875 -0.93061,0 -1.68502,-0.75552 -1.68502,-1.6875 0,-0.93198 0.75441,-1.6875 1.68502,-1.6875 z" style="marker:none" color="#000" overflow="visible" transform="translate(-563.997 -252)"/>
        <path d="m 566.99359,261 h 9.98535 l 0.008,6.0625 c 0,0.4922 -0.47197,0.9375 -0.99463,0.9375 H 568 c -0.53827,0 -0.99853,-0.42964 -0.99853,-1 z" style="marker:none" color="#bebebe" overflow="visible" transform="translate(-563.997 -252)"/>
        <path d="m 579.95735,263.97707 c -0.004,-0.22414 -0.11243,-0.53067 -0.30379,-0.70429 l -2.16171,-2.11644 c -0.23264,-0.24354 -0.78664,-0.29256 -1.01103,-0.15675 -0.0805,0.002 -1.13547,0.63126 -1.28813,0.86541 -0.61666,0.94579 0.34405,1.82732 1.17391,1.54685 l 0.34957,-0.2117 1.60232,1.57174 c 0.63718,0.52635 1.69148,0.0923 1.6389,-0.79478 z" style="line-height:normal;-inkscape-font-specification:Sans;text-indent:0;text-align:start;text-decoration-line:none;text-transform:none;marker:none" color="#000" font-weight="400" font-family="Sans" overflow="visible" transform="translate(-563.997 -252)"/>
    </g>
</svg>
