<svg xmlns="http://www.w3.org/2000/svg" width="16" height="16">
    <path d="m 571.72463,233.00977 c -3.75426,0.14781 -6.72227,3.23306 -6.72461,6.99023 0,3.86599 3.13401,7 7,7 3.86599,0 7,-3.13401 7,-7 -0.004,-3.78793 -3.02015,-6.8856 -6.80664,-6.99023 z M 572.00002,236 c 2.20914,0 4,1.79086 4,4 v 0.5 c 0,0.82843 -0.67157,1.5 -1.5,1.5 -0.44291,2.2e-4 -0.86327,-0.19628 -1.14844,-0.53516 -0.35639,0.32873 -0.82848,0.53516 -1.35156,0.53516 -1.10457,0 -2,-0.89543 -2,-2 0,-1.10457 0.89543,-2 2,-2 1.10457,0 2,0.89543 2,2 v 0.5 c 0,0.27614 0.22386,0.5 0.5,0.5 0.27614,0 0.5,-0.22386 0.5,-0.5 V 240 c 0,-1.65686 -1.34314,-3 -3,-3 -1.65686,0 -3,1.34314 -3,3 0,1.65685 1.34314,3 3,3 h 2.5 c 0,0 0.5,0 0.5,0.5 -0.0312,0.5 -0.5,0.5 -0.5,0.5 h -2.5 c -2.20914,0 -4,-1.79086 -4,-4 0,-2.20914 1.79086,-4 4,-4 z m 0,3 c -0.55229,0 -1,0.44772 -1,1 0,0.55228 0.44771,1 1,1 0.55229,0 1,-0.44772 1,-1 0,-0.55228 -0.44771,-1 -1,-1 z" fill="#4c5263" transform="translate(-564 -232)"/>
</svg>
