<svg xmlns="http://www.w3.org/2000/svg" width="16" height="16">
    <g fill="#4c5263">
        <path d="M.002 12c.004-.224.112-.53.304-.704l2.161-2.117c.233-.243.787-.292 1.011-.157.081.002 1.136.632 1.289.866.616.946-.344 1.827-1.174 1.547l-.35-.212-1.602 1.572C1.004 13.32-.051 12.887 0 12zM11.62.118c.389-.101.79-.11 1.17-.08l-1.36 2.305a.975.975 0 00.354 1.348l.874.508a.99.99 0 001.357-.353l1.36-2.306c.212.314.4.666.502 1.053.486 1.853-.632 3.748-2.497 4.234-.39.101-.79.11-1.17.08l-.803 1.116L7.997 8s1.52-2.577 1.628-2.595a3.483 3.483 0 01-.502-1.053C8.636 2.5 9.754.604 11.619.118z" style="line-height:normal;-inkscape-font-specification:Sans;text-indent:0;text-align:start;text-decoration-line:none;text-transform:none;marker:none" color="#000" font-weight="400" font-family="Sans" overflow="visible"/>
        <path d="M3.599.719a3.5 3.5 0 00-.655.219c-.017.624.086 1.441-.157 1.656-.238.21-1.036.034-1.653-.032a3.63 3.63 0 00-.312.75c.477.396 1.138.84 1.154 1.157.016.32-.625.805-1.06 1.25.102.258.249.493.405.718.607-.126 1.364-.373 1.623-.187.262.19.264 1.005.343 1.625.249.075.512.104.78.125.28-.555.566-1.32.874-1.406.315-.089.962.458 1.497.781.219-.152.413-.337.593-.531-.253-.573-.72-1.292-.593-1.594.128-.302.974-.47 1.56-.688.005-.073.032-.144.032-.218 0-.192-.035-.38-.063-.563-.605-.16-1.465-.241-1.622-.531-.157-.288.241-1.061.437-1.656a3.682 3.682 0 00-.656-.469c-.5.375-1.082.994-1.404.937-.316-.056-.662-.82-.998-1.343-.04.007-.085-.008-.125 0zm.624 1.875A1.686 1.686 0 114.22 5.97a1.686 1.686 0 01.002-3.377z" style="marker:none" color="#000" overflow="visible"/>
        <path d="M2.997 9h9.985l.008 6.063c0 .492-.472.937-.994.937H4.003a.996.996 0 01-.998-1z" style="marker:none" color="#bebebe" overflow="visible"/>
        <path d="M15.96 11.977c-.003-.224-.112-.53-.303-.704l-2.162-2.117c-.232-.243-.786-.292-1.01-.156-.081.002-1.136.63-1.289.865-.616.946.344 1.827 1.174 1.547l.35-.212 1.602 1.572c.637.526 1.691.092 1.639-.795z" style="line-height:normal;-inkscape-font-specification:Sans;text-indent:0;text-align:start;text-decoration-line:none;text-transform:none;marker:none" color="#000" font-weight="400" font-family="Sans" overflow="visible"/>
    </g>
</svg>
