<svg xmlns="http://www.w3.org/2000/svg" width="16" height="16">
    <path d="m 926.03145,52.99999 c 0,0 -2,0 -2,2 v 11 c 0,0 0,2 2,2 h 11 c 0,0 2,0 2,-2 v -11 c 0,-2 -2,-2 -2,-2 z m 0,2 h 5 v 5 h -5 z m 6,0 h 5 v 5 h -5 z m 1.5,1 c -0.277,0 -0.5,0.223 -0.5,0.5 0,0.1385 0.0561,0.26314 0.14648,0.35352 l 0.64649,0.64648 -0.64649,0.64648 c -0.0904,0.09038 -0.14648,0.21502 -0.14648,0.35352 0,0.277 0.223,0.5 0.5,0.5 0.1385,0 0.26314,-0.0561 0.35352,-0.14648 l 0.64648,-0.64649 0.64648,0.64649 c 0.0904,0.09037 0.21502,0.14648 0.35352,0.14648 0.277,0 0.5,-0.223 0.5,-0.5 0,-0.1385 -0.0561,-0.26314 -0.14648,-0.35352 l -0.64649,-0.64648 0.64649,-0.64648 c 0.0904,-0.09038 0.14648,-0.21502 0.14648,-0.35352 0,-0.277 -0.223,-0.5 -0.5,-0.5 -0.1385,0 -0.26314,0.0561 -0.35352,0.14648 l -0.64648,0.64649 -0.64648,-0.64649 c -0.0904,-0.09037 -0.21502,-0.14648 -0.35352,-0.14648 z m -6.5,1 v 1 h 3 v -1 z m -1,4 h 5 v 5 h -5 z m 6,0 h 5 v 5 0 h -5 z m -4,1 v 1 h -1 v 1 h 1 v 1 h 1 v -1 h 1 v -1 h -1 v -1 z m 5,0 v 1 h 3 v -1 z m 0,2 v 1 h 3 v -1 z" fill="#4c5263" transform="translate(-924.031 -52)"/>
</svg>
