<svg xmlns="http://www.w3.org/2000/svg" width="16" height="16">
    <g color="#000" fill="#4c5263">
        <path d="M10.03 1.146a3.95 3.95 0 00-.46.038c-.567.078-1.251.35-2.015.753-1.54-.844-2.741-.896-3.748-.638-1.07.274-1.938.722-3.291.681L0 1.965V16h15V1.982L14.482 2c-1.516.055-2.27-.394-3.25-.684a3.895 3.895 0 00-1.203-.17zm-5.292.99c.62-.064 1.305.082 2.262.604v8.64c-1.104-.635-2.21-.683-3.184-.443-.653.162-1.247.347-1.816.497V2.793c.802-.147 1.474-.377 2.055-.525.23-.06.454-.108.683-.131zm5.6.003c.206.026.405.076.611.136.535.159 1.194.409 2.051.555v8.6c-.57-.151-1.163-.338-1.81-.498-.98-.243-2.092-.184-3.19.48V2.8c.703-.382 1.245-.591 1.68-.654.239-.035.452-.033.658-.006zm-.535 9.61c.372-.012.747.055 1.146.153.642.16 1.325.429 2.051.63V14H2v-1.463c.724-.199 1.408-.47 2.055-.629 1.075-.265 1.992-.296 3.144.739l.34.304.334-.308c.7-.645 1.31-.877 1.93-.895z" style="line-height:normal;text-indent:0;text-align:start;text-decoration-line:none;text-decoration-style:solid;text-decoration-color:#000;text-transform:none;white-space:normal;isolation:auto;mix-blend-mode:normal;solid-color:#000;solid-opacity:1" font-weight="400" font-family="sans-serif" overflow="visible"/>
        <path d="M.938 14.75v-2.188l4.219-1.13 2.343.597 2.387-.671 3.742 1.003v2.451z" style="marker:none" overflow="visible" opacity=".35"/>
    </g>
</svg>
