<svg xmlns="http://www.w3.org/2000/svg" width="16" height="16">
    <g fill="#4c5263">
        <path d="m 846.03145,71.99999 c -1.99959,0 -2,2 -2,2 v 9 c 0,0 0,2 2,2 h 1 v -2.02148 l -1,-0.002 v -8.97656 h 12 v 5 h 2 v -5 c 0,0 4.1e-4,-2 -2,-2 z" transform="translate(-844.031 -71.997)"/>
        <path d="m 852.06313,78.99669 -1,1 h -2.03125 c -0.46865,0.0651 -1,0.5417 -1,1 v 6 c 0,0.4583 0.52685,1 1,1 h 10 c 0.47315,0 1,-0.5417 1,-1 v -6 c 0,-0.4583 -0.52685,-1 -1,-1 h -1.96875 l -1,-1 z m 1.96875,2 c 1.65685,0 3,1.34315 3,3 0,1.65685 -1.34315,3 -3,3 -1.65685,0 -3,-1.34315 -3,-3 0,-1.65685 1.34315,-3 3,-3 z m 0,1 c -1.10457,0 -2,0.89543 -2,2 0,1.10457 0.89543,2 2,2 1.10457,0 2,-0.89543 2,-2 0,-1.10457 -0.89543,-2 -2,-2 z" style="marker:none" color="#bebebe" overflow="visible" transform="translate(-844.031 -71.997)"/>
    </g>
</svg>
