<svg xmlns="http://www.w3.org/2000/svg" width="16" height="16.02">
    <path d="M8.5.02C5.453.02 3 2.696 3 6.02v4c0 3.324 2.453 6 5.5 6s5.5-2.676 5.5-6v-4c0-3.324-2.453-6-5.5-6zm-.5 2h.5c.208 0 .393.133.469.312l2.875 2.844.406.375-.438.344L9.25 8.02l2.562 2.125.438.344-.406.375-2.875 2.843c-.026.06-.08.112-.125.157a.484.484 0 01-.344.156H8V9.082l-2.156 1.782a.485.485 0 01-.344.156H5v-.5c0-.153.079-.283.187-.375L7.75 8.02 5.312 5.989c-.046-.02-.086-.062-.125-.094A.494.494 0 015 5.52v-.5h.5c.123 0 .225.051.312.125.011.009.022.021.032.031L8 6.957V2.02zm1 1.687v3.25l1.78-1.467zm0 5.375v3.25l1.781-1.78z" fill="#4c5263"/>
</svg>
