<svg xmlns="http://www.w3.org/2000/svg" width="16" height="16">
    <path d="m 794.03145,212 c -1.06183,0 -1.91622,0.82178 -1.98633,1.86523 l -0.90039,0.90039 -0.55469,0.55469 -0.79101,0.79102 C 789.55254,216.04623 789.29895,216 789.03145,216 c -1.662,0 -3,1.338 -3,3 0,0.8887 0.3899,1.67622 1,2.22461 V 223.5 225 h 4 v -1.5 -2.27539 c 0.6101,-0.54839 1,-1.33591 1,-2.22461 0,-0.2675 -0.0462,-0.52109 -0.11133,-0.76758 l 0.79102,-0.79101 0.55468,-0.55469 0.9004,-0.90039 c 0.12912,-0.009 0.2538,-0.0309 0.375,-0.0625 l 0.77343,0.77344 0.01,0.01 0.14453,0.14453 -0.29101,0.29102 c -0.0938,0.0937 -0.14646,0.22092 -0.14649,0.35351 v 2 c 3e-5,0.27613 0.22387,0.49998 0.5,0.5 l 2,0.004 c 0.67616,0.01 0.67616,-1.00956 0,-1 l -1.5,-0.002 v -1.29297 l 1.70703,-1.70899 h 1.29297 v 1.5 c -0.01,0.67617 1.00957,0.67617 1,0 v -2 c -2e-5,-0.27613 -0.22387,-0.49997 -0.5,-0.5 h -2 c -0.1326,3e-5 -0.25976,0.0527 -0.35351,0.14649 l -0.29492,0.29492 -0.14454,-0.14453 -0.01,-0.01 -0.77148,-0.77148 c 0.0437,-0.16425 0.0742,-0.33313 0.0742,-0.51177 0,-1.108 -0.892,-2 -2,-2 z m 0,1 c 0.554,0 1,0.446 1,1 0,0.554 -0.446,1 -1,1 -0.554,0 -1,-0.446 -1,-1 0,-0.554 0.446,-1 1,-1 z m -5,4 c 1.108,0 2,0.892 2,2 0,0.36693 -0.10429,0.705 -0.27539,1 -0.16975,0.29267 -0.41275,0.53593 -0.70117,0.71094 -0.0147,0.009 -0.0299,0.0169 -0.0449,0.0254 -0.11806,0.0675 -0.24514,0.11985 -0.37696,0.16211 -0.039,0.0123 -0.0772,0.0252 -0.11718,0.0352 -0.15549,0.0392 -0.31604,0.0663 -0.48438,0.0663 -0.16834,0 -0.3289,-0.0272 -0.48438,-0.0664 -0.04,-0.01 -0.0782,-0.023 -0.11718,-0.0352 -0.13182,-0.0423 -0.25889,-0.0947 -0.37696,-0.16211 -0.015,-0.008 -0.0302,-0.0166 -0.0449,-0.0254 -0.28842,-0.17501 -0.53142,-0.41822 -0.70117,-0.71089 -0.1711,-0.295 -0.27539,-0.63307 -0.27539,-1 0,-1.108 0.892,-2 2,-2 z m 0,1 c -0.554,0 -1,0.446 -1,1 0,0.554 0.446,1 1,1 0.554,0 1,-0.446 1,-1 0,-0.554 -0.446,-1 -1,-1 z m -3,8 c 0,0 -1,0 -1,1 v 1 h 8 v -1 c 0,0 0,-1 -1,-1 z" style="line-height:normal;text-indent:0;text-align:start;text-decoration-line:none;text-decoration-style:solid;text-decoration-color:#000;text-transform:none;white-space:normal;isolation:auto;mix-blend-mode:normal;solid-color:#000;solid-opacity:1" color="#000" font-weight="400" font-family="sans-serif" overflow="visible" fill="#4c5263" fill-rule="evenodd" transform="translate(-784.031 -212)"/>
</svg>
