<svg xmlns="http://www.w3.org/2000/svg" width="16" height="16">
    <path d="M10 0a1.99 1.99 0 00-1.986 1.865l-.9.9-.555.555-.791.791A2.986 2.986 0 005 4a2.993 2.993 0 00-2 5.225V13h4V9.225C7.61 8.676 8 7.889 8 7c0-.267-.046-.521-.111-.768l.79-.79.555-.555.9-.9c.13-.01.255-.032.376-.063l.773.773.01.01.145.145-.291.29a.5.5 0 00-.147.354v2a.5.5 0 00.5.5l2 .004c.676.01.676-1.01 0-1L12 6.998V5.705l1.707-1.709H15v1.5c-.01.677 1.01.677 1 0v-2a.5.5 0 00-.5-.5h-2a.5.5 0 00-.353.147l-.295.295-.145-.145-.01-.01-.771-.771C11.969 2.348 12 2.179 12 2c0-1.108-.892-2-2-2zm0 1c.554 0 1 .446 1 1s-.446 1-1 1-1-.446-1-1 .446-1 1-1zM5 5c1.108 0 2 .892 2 2a2.02 2.02 0 01-.977 1.71c-.014.01-.03.018-.044.026-.119.068-.246.12-.377.162-.04.013-.078.026-.118.036A1.97 1.97 0 015 9a1.97 1.97 0 01-.484-.066c-.04-.01-.079-.023-.118-.036A1.975 1.975 0 013.275 8 1.982 1.982 0 013 7c0-1.108.892-2 2-2zm0 1c-.554 0-1 .446-1 1s.446 1 1 1 1-.446 1-1-.446-1-1-1zm-3 8s-1 0-1 1v1h8v-1s0-1-1-1z" style="line-height:normal;text-indent:0;text-align:start;text-decoration-line:none;text-decoration-style:solid;text-decoration-color:#000;text-transform:none;white-space:normal;isolation:auto;mix-blend-mode:normal;solid-color:#000;solid-opacity:1" color="#000" font-weight="400" font-family="sans-serif" overflow="visible" fill="#4c5263" fill-rule="evenodd"/>
</svg>
