<svg xmlns="http://www.w3.org/2000/svg" width="16" height="16">
    <g fill="#4c5263">
        <path d="M10 16h5s.335-1 0-2c-.18.157-1.566 1-2.5 1-.934 0-2.14-.686-2.5-1-.312 1.226 0 2 0 2zM1 2v12c0 2 2 2 2 2h5v-2H3V2h10v4h2V2c0-2-2-2-2-2H3C1 0 1 2 1 2zm4 3.004a1 1 0 100 2 1 1 0 000-2zm6 0A1 1 0 0010 6h2a1 1 0 00-1-.996zM5.174 9.83l-.707.707A4.999 4.999 0 008 12.004v-1A4 4 0 015.174 9.83z"/>
        <path d="M12.5 7a3.5 3.5 0 100 7 3.5 3.5 0 000-7zm0 2a1.5 1.5 0 11.001 2.999A1.5 1.5 0 0112.5 9z"/>
    </g>
</svg>
