<svg xmlns="http://www.w3.org/2000/svg" width="16" height="16">
    <g fill="#4c5263">
        <path d="M8 2c-.13 0-.26.005-.389.014a.964.964 0 01-.39 1.103c-.36.244-.548.458-.57.496a1.03 1.03 0 01-.046.067c-.013.025-.02.071-.033.1l.155.152c.035.034.038.043.037.047.169.028.337.044.507.035a1 1 0 01.584.148c.187.116.449.328.557.717.082.292-.035.527-.129.742-.007.023-.025.045-.033.068l.027-.043c-.028.062-.007.174-.037.22a.941.941 0 01-.129.154l-.002.002-.006.006-.027.025c-.123.205-.271.39-.465.494l.024-.012c-.12.068-.329.253-.506.395.081.348.272.677.21 1.031a1 1 0 01-.134.356c.705-.308 1.515-.391 2.19-.04a2.61 2.61 0 01.883.756c.052.073.095.153.126.237.103.279.164.748-.1 1.156-.263.407-.672.533-.955.572a.984.984 0 01-.212.006l-.48.315c.016 0 .029.008.046.008.799-.037 1.55-.49 2.373-1.733a1 1 0 01.506-.392c.062-.46.107-.946.027-1.604a1 1 0 01.488-.984c-.03-.401.082-.634-.046-1.139a1 1 0 01.043-.621c-.16-.182-.14-.371-.387-.545v-.002a5.552 5.552 0 00-.229-.15l-.008-.006-.02-.012a9.469 9.469 0 00-1.292-.62 1 1 0 01-.623-1.042.97.97 0 01-.61-.399A5.969 5.969 0 008 2zM6.791 4.527l-.068.05-.024.027.014-.014h.002a.992.992 0 01.076-.063zm.146 1.467c.098.167.044.37.112.549l.021-.049zm2.141 3.024c-.006 0-.066.057-.086.062.226-.002.454-.068.645.022z" opacity=".35"/>
        <path d="M8 0a7.942 7.942 0 00-5.176 1.914c.079.286.154.428.182.473.31-.068.614-.079.916-.065A7 7 0 018 1a7 7 0 01.85.059A.955.955 0 019.74.5c.044 0 .074.016.117.016v-.01s.102.024.114.025c.38.005.732.042 1.078.086A7.963 7.963 0 008 0zm1.752 1.5s1.24.13 1.824 1.014c0 0-.598-.143-1.049.076.55.219 1.026.448 1.432.687l.035.022c.104.062.193.126.287.19.75.525 1.444 1.275 1.39 2.243a1.146 1.146 0 00-.651-.505c.34 1.33.374 2.428.1 3.295-.19-.577-.364-.923-.518-1.045.215 1.783-.075 3.101-.87 3.96.151-.524.212-.953.178-1.292-.933 1.41-1.997 2.14-3.187 2.185a4.34 4.34 0 01-1.332-.213 4.208 4.208 0 01-1.664-1.064c.772.064 1.477-.07 2.097-.387L8.84 10l-.002-.002a.462.462 0 01.377.01c.248-.034.335-.166.252-.39a1.673 1.673 0 00-.535-.454c-.509-.265-1.04-.222-1.594.131-.528.3-1.035.288-1.53-.031a4.52 4.52 0 01-.937-.9l-.121-.178v-.004c.015-.372.17-.577.463-.623h.002c.331.03.712.105 1.14.23.073-.414-.023-.847-.283-1.291V6.49c.403-.376.761-.65 1.067-.824a.442.442 0 00.24-.33l.012-.01.004-.004.013-.014c.08-.118.053-.213-.082-.297a3.36 3.36 0 01-.847-.06l-.004.011c-.117-.034-.263-.137-.444-.312l-.463-.457-.14-.11V4.1h-.004l.004-.016V4.08l-.026-.027.038-.026a2.74 2.74 0 01.32-.898l.033-.031c.151-.251.442-.52.867-.809-.79.099-1.506.456-2.142 1.073-.526-.193-1.15-.153-1.868.123-.452-.208-.757-.807-.904-1.784C1.17 2.27.89 3.29.908 4.76l-.164.249-.043.03-.008.007-.004.004-.008.018c-.087.137-.207.343-.36.621a2.386 2.386 0 00-.314 1.012l-.002.004.002.01L0 6.789l.012-.02a.785.785 0 00.022.194L.5 6.58a5.44 5.44 0 00-.34 1.367l-.013.221L0 8.002c0 1.714.545 3.298 1.463 4.6l.027.043.043.052a8.041 8.041 0 002.48 2.233 7.485 7.485 0 002.259.879l.166.037c.166.032.337.056.508.078.126.016.252.032.38.043l.17.02h.243L8 16l.21-.01.345-.018c.204-.014.405-.037.605-.066l.122-.018v-.002C13.088 15.273 16 11.98 16 8l-.072.09c.114-.757.094-1.43-.063-2.018-.056.436-.118.7-.18.805 0-.034-.007-.49-.152-1.123a7.183 7.183 0 00-.308-1.297c.034.184.054.338.064.477-.58-1.56-2.012-3.48-5.537-3.434zM6.791 4.527l-.068.05-.024.027.014-.014h.002a.992.992 0 01.076-.063zm.147 1.467c.097.167.044.37.11.549l.022-.049zm2.14 3.024c-.006 0-.066.057-.086.062.226-.002.454-.068.645.022z"/>
    </g>
</svg>
