<svg xmlns="http://www.w3.org/2000/svg" width="16" height="16">
    <g fill="#4c5263">
        <path d="m 772.03145,194 c -0.12967,3.6e-4 -0.2593,0.005 -0.38867,0.0137 0.11275,0.38275 0.0181,0.82666 -0.39063,1.10352 -0.36005,0.24371 -0.54736,0.45789 -0.57031,0.49609 -0.0141,0.0227 -0.0291,0.0449 -0.0449,0.0664 -0.0138,0.0251 -0.0202,0.0717 -0.0332,0.0996 l 0.1543,0.15234 c 0.0357,0.0345 0.0383,0.0429 0.0371,0.0469 0.16922,0.028 0.33717,0.0448 0.50781,0.0351 0.20529,-0.0117 0.40921,0.0401 0.58398,0.14844 0.18611,0.11582 0.4485,0.32797 0.55664,0.7168 0.0814,0.29255 -0.0355,0.52712 -0.1289,0.74218 -0.007,0.0234 -0.0252,0.0449 -0.0332,0.0684 l 0.0273,-0.043 c -0.0281,0.0617 -0.007,0.17335 -0.0371,0.21875 -0.0377,0.0556 -0.0809,0.10733 -0.12891,0.1543 l -0.002,0.002 -0.006,0.006 c -0.009,0.009 -0.0181,0.0171 -0.0273,0.0254 -0.12312,0.20554 -0.27142,0.39064 -0.46484,0.49415 l 0.0234,-0.0117 c -0.11885,0.0679 -0.3281,0.2531 -0.50586,0.39453 0.0814,0.34787 0.27255,0.67699 0.21094,1.03125 -0.0218,0.12602 -0.0675,0.24669 -0.13477,0.35547 0.70553,-0.30714 1.51527,-0.39104 2.18945,-0.0391 0.0112,0.006 0.0223,0.0128 0.0332,0.0195 0.3218,0.18437 0.61803,0.41406 0.84961,0.73632 0.0527,0.0727 0.0954,0.15221 0.12696,0.23633 0.10316,0.27908 0.16377,0.74875 -0.0996,1.15625 -0.26339,0.40751 -0.67285,0.53357 -0.95508,0.57227 -0.0706,0.01 -0.14192,0.0114 -0.21289,0.006 l -0.48047,0.31445 c 0.0169,0.001 0.0299,0.008 0.0469,0.008 0.79862,-0.0365 1.55071,-0.48945 2.37304,-1.73242 0.12104,-0.18276 0.29878,-0.3207 0.50586,-0.39258 0.0617,-0.46041 0.10685,-0.94573 0.0273,-1.60351 -0.0482,-0.39616 0.1437,-0.78307 0.48828,-0.98438 -0.0298,-0.40098 0.082,-0.63389 -0.0469,-1.13867 -0.0521,-0.20633 -0.0371,-0.4239 0.043,-0.62109 -0.15864,-0.1823 -0.13957,-0.37121 -0.38671,-0.54493 v -0.002 c -0.10025,-0.068 -0.17164,-0.11619 -0.22852,-0.15039 l -0.008,-0.006 -0.0195,-0.0117 c -0.35099,-0.20687 -0.7815,-0.4153 -1.29297,-0.61914 -0.41924,-0.16723 -0.67451,-0.59455 -0.62305,-1.04297 -0.28137,-0.0622 -0.48051,-0.21067 -0.60937,-0.39844 -0.30604,-0.0502 -0.61556,-0.0763 -0.92571,-0.0784 z m -1.20898,2.52734 -0.0684,0.0488 -0.0234,0.0274 0.0137,-0.0137 h 0.002 c 0.0243,-0.0221 0.0498,-0.0429 0.0762,-0.0625 z m 0.14648,1.4668 c 0.0973,0.16672 0.044,0.36958 0.11133,0.54883 l 0.0215,-0.0488 z m 2.14062,3.02344 c -0.006,9e-4 -0.0662,0.0575 -0.0859,0.0625 0.22626,-0.002 0.45362,-0.0677 0.64454,0.0215 z" opacity=".35" transform="translate(-764.031 -192)"/>
        <path d="m 772.03145,192 c -1.98315,0 -3.78233,0.72608 -5.17578,1.91406 0.0784,0.28545 0.15383,0.42808 0.18164,0.47266 0.31095,-0.0677 0.61426,-0.0785 0.91601,-0.0644 A 7,7 0 0 1 772.03145,193 a 7,7 0 0 1 0.84961,0.0586 c 0.14526,-0.31235 0.4477,-0.5538 0.89062,-0.55859 0.0442,-6e-4 0.0735,0.0156 0.11719,0.0156 v -0.01 c 0,0 0.10171,0.0246 0.11328,0.0254 0.37939,0.005 0.73254,0.0419 1.07813,0.0859 C 774.1402,192.22896 773.11579,192 772.03145,192 Z m 1.75195,1.5 c 0,0 1.24072,0.13018 1.82422,1.01367 0,0 -0.59782,-0.14236 -1.04883,0.0762 0.5495,0.21899 1.02615,0.4485 1.43164,0.6875 l 0.0352,0.0215 c 0.104,0.0625 0.19311,0.12595 0.28711,0.18945 0.749,0.526 1.44362,1.27615 1.39063,2.24414 -0.16151,-0.255 -0.37684,-0.42186 -0.65235,-0.50586 0.33951,1.32999 0.37412,2.42842 0.0996,3.29492 -0.1885,-0.57701 -0.36307,-0.92293 -0.51758,-1.04492 0.21551,1.78299 -0.0747,3.10145 -0.86914,3.96094 0.151,-0.5245 0.21174,-0.95397 0.17774,-1.29297 -0.93351,1.411 -1.99701,2.14056 -3.1875,2.18555 -0.4705,-0.004 -0.91403,-0.0749 -1.33203,-0.21289 -0.614,-0.2075 -1.16956,-0.56146 -1.66407,-1.06446 0.772,0.0645 1.47716,-0.0702 2.09766,-0.38671 L 772.87129,202 l -0.002,-0.002 c 0.132,-0.05 0.25596,-0.0469 0.37696,0.01 0.248,-0.034 0.33495,-0.16611 0.25195,-0.39062 -0.12,-0.16699 -0.30216,-0.31963 -0.53516,-0.45313 -0.5085,-0.2655 -1.03975,-0.22263 -1.59375,0.13086 -0.52749,0.30001 -1.03529,0.28771 -1.52929,-0.0312 -0.3235,-0.22349 -0.6355,-0.52438 -0.9375,-0.90039 l -0.12105,-0.17797 v -0.004 c 0.0145,-0.372 0.16939,-0.57705 0.46289,-0.62305 h 0.002 c 0.3315,0.0305 0.71163,0.10548 1.14063,0.23047 0.072,-0.41399 -0.0237,-0.84652 -0.28321,-1.29101 v -0.008 c 0.403,-0.37601 0.76091,-0.64971 1.06641,-0.82421 0.1355,-0.0725 0.21423,-0.18158 0.24023,-0.33008 l 0.0117,-0.01 0.004,-0.004 0.0137,-0.0137 c 0.079,-0.11801 0.053,-0.21287 -0.082,-0.29687 -0.2825,0.0155 -0.56565,-0.004 -0.84765,-0.0606 l -0.004,0.0117 c -0.1165,-0.034 -0.26236,-0.1375 -0.44336,-0.3125 l -0.46289,-0.45703 -0.14063,-0.10938 v 0.0156 h -0.004 l 0.004,-0.0156 v -0.004 l -0.0254,-0.0274 0.0371,-0.0254 c 0.064,-0.3455 0.16981,-0.64343 0.32031,-0.89843 l 0.0332,-0.0312 c 0.15101,-0.25099 0.44169,-0.52059 0.86719,-0.8086 -0.791,0.0985 -1.50658,0.45577 -2.14258,1.07227 -0.526,-0.19296 -1.15025,-0.15235 -1.86718,0.12305 -0.4525,-0.20803 -0.7573,-0.80671 -0.9043,-1.78321 -0.576,0.5705 -0.85639,1.59005 -0.83789,3.06055 l -0.16406,0.24805 -0.043,0.0293 -0.008,0.008 -0.004,0.004 -0.008,0.0176 c -0.0875,0.137 -0.20738,0.34308 -0.35938,0.62109 -0.2185,0.39299 -0.29295,0.72422 -0.31445,1.01172 l -0.002,0.004 0.002,0.01 -0.008,0.0742 0.0117,-0.0195 c 0.001,0.0665 0.005,0.13336 0.0215,0.19336 l 0.46671,-0.38266 c -0.1695,0.42949 -0.28284,0.8842 -0.33984,1.36719 l -0.0137,0.2207 -0.14649,-0.16602 c 0,1.714 0.54489,3.29762 1.46289,4.59961 l 0.0273,0.043 0.043,0.0527 c 0.66,0.90651 1.50447,1.66942 2.48047,2.23242 0.7015,0.4155 1.45381,0.7059 2.25781,0.8789 l 0.16602,0.0371 c 0.1665,0.032 0.33681,0.0566 0.50781,0.0781 0.1265,0.0165 0.25286,0.032 0.38086,0.043 l 0.16992,0.0195 h 0.24219 l 0.26172,0.0137 0.20898,-0.01 0.34571,-0.0176 c 0.20449,-0.014 0.40547,-0.0374 0.60547,-0.0664 l 0.12109,-0.0176 v -0.002 c 3.80699,-0.61386 6.71875,-3.90591 6.71875,-7.8864 l -0.0723,0.0898 c 0.11399,-0.7565 0.094,-1.42956 -0.0625,-2.01757 -0.056,0.4355 -0.11819,0.69918 -0.17969,0.80468 -5e-4,-0.034 -0.008,-0.48954 -0.15234,-1.12304 -0.0685,-0.46199 -0.16959,-0.89538 -0.3086,-1.29688 0.034,0.184 0.0544,0.33756 0.0645,0.47656 -0.58099,-1.559 -2.01261,-3.4786 -5.5371,-3.43359 z m -2.96093,3.02734 -0.0684,0.0488 -0.0234,0.0274 0.0137,-0.0137 h 0.002 c 0.0243,-0.0221 0.0498,-0.0429 0.0762,-0.0625 z m 0.14648,1.4668 c 0.0973,0.16672 0.044,0.36958 0.11133,0.54883 l 0.0215,-0.0488 z m 2.14062,3.02344 c -0.006,9e-4 -0.0662,0.0575 -0.0859,0.0625 0.22626,-0.002 0.45362,-0.0677 0.64454,0.0215 z" transform="translate(-764.031 -192)"/>
    </g>
</svg>
