<svg xmlns="http://www.w3.org/2000/svg" width="16" height="16">
    <path d="m 792.03145,192 a 8,8 0 0 0 -6.30469,3.07812 l 2.38477,4.13086 A 4,4 0 0 1 792.03145,196 h 6.91992 a 8,8 0 0 0 -6.91992,-4 z m -6.92188,4.00977 A 8,8 0 0 0 784.03145,200 a 8,8 0 0 0 6.89453,7.91406 l 2.38477,-4.1289 a 4,4 0 0 1 -1.2793,0.21484 4,4 0 0 1 -3.45898,-2.00195 l -0.006,0.002 -3.45704,-5.99023 z M 792.03145,197 a 3,3 0 0 0 -3,3 3,3 0 0 0 3,3 3,3 0 0 0 3,-3 3,3 0 0 0 -3,-3 z m 2.63867,0 a 4,4 0 0 1 1.36133,3 4,4 0 0 1 -0.53906,1.99805 l 0.004,0.002 -3.46289,6 A 8,8 0 0 0 800.03145,200 a 8,8 0 0 0 -0.58984,-3 z" fill="#4c5263" transform="translate(-784.031 -192)"/>
</svg>
