<svg xmlns="http://www.w3.org/2000/svg" width="16" height="16.01">
    <g fill="#4c5263">
        <path d="M5.843 1.01c-.546.056-.916.594-.843 1.125v.875h3.406L13 7.604c.003 1.802-.002 3.604 0 5.406.487-.027.995.071 1.463-.092.606-.282.552-1.02.545-1.579.004-2.11-.005-4.22-.008-6.329l-4-4H5.844z"/>
        <path d="M2.843 4.01c-.28.047-.843.25-.843 1v10c0 1 1 1 1 1h8c1 0 1-1 1-1 .019-.046.005-4.453 0-7l-4-4H3s-.063-.016-.157 0zM7 7.01a2 2 0 110 4v1H6v-2h1a1 1 0 10-1-1H5a2 2 0 012-2zm-1 6h1v1H6z"/>
    </g>
</svg>
