<svg xmlns="http://www.w3.org/2000/svg" width="16" height="16.01">
    <g fill="#4c5263">
        <path d="m 809.8752,92.99999 c -0.54651,0.0561 -0.91604,0.59403 -0.84375,1.12506 0,0.29164 0,0.58329 0,0.87494 1.13542,0 2.27083,0 3.40625,0 1.53125,1.53125 3.0625,3.0625 4.59375,4.59375 0.003,1.80208 -0.002,3.60417 0,5.40625 0.48748,-0.0269 0.9955,0.0712 1.46362,-0.0923 0.60518,-0.28156 0.55152,-1.02049 0.54476,-1.57866 0.004,-2.10969 -0.005,-4.21937 -0.008,-6.32905 -1.33333,-1.33333 -2.66667,-2.66667 -4,-4 -1.7186,4e-5 -3.43856,-6e-5 -5.15625,0 z" transform="translate(-804.032 -91.99)"/>
        <path d="m 806.8752,95.99999 c -0.28125,0.0469 -0.84375,0.25 -0.84375,1 v 10 c 0,1 1,1 1,1 h 8 c 1,0 1,-1 1,-1 0.0188,-0.0461 0.005,-4.4529 0,-7 l -4,-4 h -5 c 0,0 -0.0625,-0.0156 -0.15625,0 z m 4.15625,3 c 1.10457,0 2,0.89543 2,2 0,1.10457 -0.89543,2 -2,2 v 1 h -1 v -2 h 1 c 0.55229,0 1,-0.44772 1,-1 0,-0.55228 -0.44771,-1 -1,-1 -0.55228,0 -1,0.44772 -1,1 h -1 c 0,-1.10457 0.89543,-2 2,-2 z m -1,6 h 1 v 1 h -1 z" transform="translate(-804.032 -91.99)"/>
    </g>
</svg>
