<svg xmlns="http://www.w3.org/2000/svg" width="15.991" height="16">
    <path d="M7.996 0C7.542 0 7.1.17 6.752.53L.568 6.903A1.88 1.88 0 00.04 8.178v.031c0 1.366 3.648.04 3.978 1.71.178.904-1.99.49-1.99 1.4 0 1.066 3.068.333 3.947 1.212.362.88-1.174.738-.9 1.555.514.532 1.672.23 1.895 1.088.254.98 1.919.812 2.89.093.515-.531-.794-.774-.28-1.306.515-.531 3.059-.424 3.077-1.585-.243-.73-1.197-.848-1.212-1.71-.051-.731.782-.517 3.419-1.244 1.054-.495 1.091-.758 1.087-1.213v-.031c-.006-.46-.218-.923-.56-1.275L9.24.529A1.704 1.704 0 007.996 0zm.124 1.337c.467.004 1.748 1.584 2.89 2.768.321.43-.124.87-.124.87L8.493 3.67 7.436 5.1l-.932-1.4-.56 2.177-1.647-.995.435-.56 2.58-2.643c.198-.2.35-.345.808-.342zm7.085 9.577a1.22 1.22 0 00-.341.031c-.169.05-.967.077-.902.685.724.303 1.827.544 1.958-.063.099-.455-.337-.639-.715-.653zM2.868 12.936c-.07.008-.118.036-.187.062-.548.208-.916.647-.404.84.513.191.856-.012 1.306-.25.449-.237.436-.28.404-.373-.063.013-.471-.242-.902-.28a1.13 1.13 0 00-.217 0z" fill="#4c5263" fill-rule="evenodd"/>
</svg>
