<svg xmlns="http://www.w3.org/2000/svg" width="15.991" height="16">
    <path d="m 952.03144,191.99999 c -0.45372,0 -0.89539,0.16964 -1.24309,0.52861 l -6.18439,6.37443 c -0.34078,0.35183 -0.52155,0.81575 -0.52832,1.27489 -10e-5,0.007 0,0.0234 0,0.031 -6e-5,1.36608 3.64827,0.04 3.9779,1.71022 0.17841,0.90395 -1.98895,0.48981 -1.98895,1.39927 0,1.06688 3.06783,0.3332 3.94682,1.21269 0.36108,0.87948 -1.17445,0.73753 -0.90123,1.55474 0.51491,0.53164 1.67321,0.23016 1.89572,1.08832 0.25415,0.98026 1.91879,0.81115 2.89019,0.0931 0.51491,-0.53162 -0.7946,-0.77436 -0.27968,-1.30597 0.5149,-0.53163 3.05825,-0.4241 3.07666,-1.58584 -0.24306,-0.72981 -1.19738,-0.84765 -1.21204,-1.71021 -0.0512,-0.73049 0.78151,-0.51683 3.41851,-1.2438 1.05444,-0.49441 1.09176,-0.75739 1.08772,-1.2127 -8e-5,-0.009 0,-0.0214 0,-0.031 -0.006,-0.45914 -0.21863,-0.92306 -0.55939,-1.27489 l -6.15332,-6.37443 c -0.34769,-0.35901 -0.78937,-0.52861 -1.24311,-0.52861 z m 0.12431,1.33708 c 0.46728,0.004 1.74776,1.58409 2.8902,2.76743 0.32134,0.42998 -0.1243,0.87065 -0.1243,0.87065 l -2.39296,-1.30598 -1.05664,1.43037 -0.9323,-1.39928 -0.55941,2.17664 -1.6471,-0.99504 0.43509,-0.55969 2.57942,-2.64306 c 0.19784,-0.2011 0.34932,-0.3456 0.808,-0.34204 z m 7.08564,9.57719 c -0.12567,-0.004 -0.25243,0.006 -0.34185,0.031 -0.16855,0.0486 -0.96701,0.077 -0.90123,0.68409 0.72342,0.3034 1.82641,0.54491 1.95787,-0.0621 0.0987,-0.4552 -0.33771,-0.63905 -0.71479,-0.65297 z m -12.33771,2.02114 c -0.0702,0.008 -0.11786,0.036 -0.18645,0.0621 -0.54864,0.20872 -0.91657,0.64774 -0.40402,0.83956 0.51263,0.1918 0.85588,-0.0109 1.30524,-0.24876 0.44942,-0.23797 0.43651,-0.28133 0.40402,-0.37313 -0.0623,0.0125 -0.47095,-0.24203 -0.90124,-0.27987 -0.0717,-0.006 -0.14738,-0.008 -0.21755,0 z" fill="#4c5263" fill-rule="evenodd" transform="translate(-944.036 -192)"/>
</svg>
