<svg xmlns="http://www.w3.org/2000/svg" width="16" height="16">
    <g fill="#4c5263">
        <path d="m 915.28125,192.00525 c -0.27821,0.0752 -0.37465,0.49932 -0.15625,0.68727 l 3.1875,3.18646 c 0.21982,0.23021 0.69212,0.0371 0.6875,-0.28116 v -3.21769 c -0.0122,-0.20318 -0.20269,-0.37897 -0.40625,-0.37488 h -3.1875 c -0.0413,-0.007 -0.0837,-0.007 -0.125,0 z" style="line-height:normal;-inkscape-font-specification:Sans;text-indent:0;text-align:start;text-decoration-line:none;text-transform:none;marker:none" color="#000" font-weight="400" font-family="Sans" overflow="visible" transform="translate(-904 -192)"/>
        <path d="m 905.84395,192.00525 c -0.4813,0.0874 -0.85238,0.53322 -0.84375,0.99967 v 13.99541 c 6e-5,0.52341 0.51276,0.99962 1.0625,0.99967 h 11.875 c 0.54975,-5e-5 1.06245,-0.47626 1.0625,-0.99967 l -0.0312,-7.59126 c 0.006,-0.26397 -0.0884,-0.52879 -0.28125,-0.71852 l -6.40625,-6.40414 c -0.19927,-0.18364 -0.47275,-0.28728 -0.75,-0.28116 h -5.46875 c -0.0654,-0.006 -0.15331,-0.006 -0.21875,0 z m 1.15625,1.99934 h 4 l 3.5,3.49885 2.5,2.49918 v 5.99804 h -10 z" style="line-height:normal;text-indent:0;text-align:start;text-decoration-line:none;text-transform:none;marker:none" color="#000" font-weight="400" font-family="Andale Mono" overflow="visible" transform="translate(-904 -192)"/>
        <path d="M909.03145 200.7172c0 .951 0 0 0 .951 2.10295 1.09462 4 0 4 0v-.951c0 0-2.05961 1.05726-4 0zM913.03144 199a2.0000021.99999958 0 01-2.00001 1 2.0000021.99999958 0 01-2-1 2.0000021.99999958 0 012-1 2.0000021.99999958 0 012.00001 1zM909.03145 202.7172c0 .951 0 0 0 .951 2.10295 1.09462 4 0 4 0v-.951c0 0-2.05961 1.05726-4 0z" transform="translate(-904 -192)"/>
    </g>
</svg>
