<svg xmlns="http://www.w3.org/2000/svg" width="16" height="16">
    <g fill="#4c5263">
        <path d="m 928.03127,75.99999 v 5 h 8 v -5 z m 1,1 3,1.5 2.99805,-1.5 v 1 l -2.99805,1.5 -3,-1.5 z" transform="translate(-924.031 -72)"/>
        <path d="m 926.03145,72.99999 c -1.0312,0.0625 -1,1 -1,1 v 8 4 c 0,0 -0.0312,0.9375 1,1 h 12 c 1,0 1,-1 1,-1 v -4 -8 c 0,0 0,-1 -1,-1 h -6 z m 1,2 h 10 v 7 0 0 0 h -3 c 0,1.108 -0.892,2 -2,2 -1.108,0 -2,-0.892 -2,-2 h -3 z" fill-rule="evenodd" transform="translate(-924.031 -72)"/>
    </g>
</svg>
