<svg xmlns="http://www.w3.org/2000/svg" width="16" height="16">
    <g fill="#4c5263">
        <path d="m 952.06313,118.9967 -1,1 h -2.03125 c -0.46865,0.0651 -1,0.5417 -1,1 v 6 c 0,0.4583 0.52685,1 1,1 h 10 c 0.47315,0 1,-0.5417 1,-1 v -6 c 0,-0.4583 -0.52685,-1 -1,-1 h -1.96875 l -1,-1 z m 1.96875,2 c 1.65685,0 3,1.34315 3,3 0,1.65685 -1.34315,3 -3,3 -1.65685,0 -3,-1.34315 -3,-3 0,-1.65685 1.34315,-3 3,-3 z m 0,1 c -1.10457,0 -2,0.89543 -2,2 0,1.10457 0.89543,2 2,2 1.10457,0 2,-0.89543 2,-2 0,-1.10457 -0.89543,-2 -2,-2 z" style="marker:none" color="#bebebe" overflow="visible" transform="translate(-944.031 -111.997)"/>
        <path d="m 945.03145,112 c -1,0 -1,1 -1,1 v 10 c 0,1 1,1 1,1 h 2 v -2 h -1 v -2.5 l 2.5,-2.9375 2.13477,2.41602 0.68945,-0.68946 0.29297,-0.29297 h 4.82812 l 1,1 h 0.55469 V 113 c 0,-1 -1,-1 -1,-1 z m 11,8.37891 v 0.17773 c 1.01548,0.59543 1.74602,1.61529 1.9375,2.81836 0.0371,-0.10717 0.0625,-0.22755 0.0625,-0.375 v -2.00391 h -1.38281 z m -7,1.62109 v 2 h 1 c 0,-0.001 0,-0.003 0,-0.004 0,-0.74072 0.2354,-1.40984 0.59961,-1.99609 z m 5,0.99609 c -0.56413,0 -1,0.43587 -1,1 0,0.001 0,0.003 0,0.004 h 2 c 0,-0.001 0,-0.003 0,-0.004 0,-0.56413 -0.43587,-1 -1,-1 z" style="line-height:normal;-inkscape-font-specification:Sans;text-indent:0;text-align:start;text-decoration-line:none;text-transform:none;marker:none" color="#000" font-weight="400" font-family="Sans" overflow="visible" transform="translate(-944.031 -111.997)"/>
    </g>
</svg>
