<svg xmlns="http://www.w3.org/2000/svg" width="16" height="16">
    <g fill="#4c5263">
        <path d="m 916.03145,52 v 11 l -5,5 h 7 c 1.108,0 2,-0.892 2,-2 v -3 -6 -3 c 0,-1.108 -0.892,-2 -2,-2 z" opacity=".35" transform="translate(-904.031 -52)"/>
        <path d="m 906.03145,52 c -1.108,0 -2,0.892 -2,2 v 12 c 0,1.108 0.892,2 2,2 h 4 v -3 c 0,0 0,-2 2,-2 h 3 V 52 Z m 0,2 h 1.5 c 0.831,0 1.5,0.669 1.5,1.5 0,0.38665 -0.14813,0.73456 -0.38672,1 0.23859,0.26544 0.38672,0.61335 0.38672,1 0,0.831 -0.669,1.5 -1.5,1.5 h -1.5 v -1 h 1.5 c 0.277,0 0.5,-0.223 0.5,-0.5 0,-0.277 -0.223,-0.5 -0.5,-0.5 h -1.5 v -1 h 1.5 c 0.277,0 0.5,-0.223 0.5,-0.5 0,-0.277 -0.223,-0.5 -0.5,-0.5 h -1.5 z m 4.5,0 h 1.5 v 5 h -1 v -4 h -1 z" transform="translate(-904.031 -52)"/>
    </g>
</svg>
