<svg xmlns="http://www.w3.org/2000/svg" width="16" height="16.035">
    <g fill="#4c5263">
        <path d="m 906.0315,96.99999 c -2.00023,0 -2,2 -2,2 v 7 c 0,1.96545 2,2 2,2 h 8 1 v -4 h -2.5625 c -0.01,0.14506 -0.0241,0.29613 -0.0312,0.4375 h 0.4375 v 0.5 h -0.5 c -0.0809,0.70707 -0.35897,1.0625 -0.8438,1.0625 -0.12123,0 -0.30903,-0.0221 -0.53125,-0.0625 l -0.0937,-0.5 c 0.26262,0.0403 0.48358,0.0625 0.625,0.0625 0.1414,0 0.20959,-0.19886 0.25,-0.5625 h -2.34375 c 0.0433,-0.29198 0.0629,-0.62438 0.0937,-0.9375 h -0.5 -0.1875 c -0.23211,0.67376 -0.52496,1.33879 -0.90625,1.96875 l -0.5,-0.40625 c 0.31891,-0.51302 0.58792,-1.02708 0.8125,-1.5625 h -0.21875 v -1 -1.40625 c -0.0224,-0.0185 -0.0397,-0.045 -0.0625,-0.0625 l 0.0625,-0.0625 v -1.78125 c -0.0225,-0.0186 -0.0397,-0.045 -0.0625,-0.0625 l 0.0625,-0.0625 v -2.5625 z m 0.0937,2.71875 h 1.59375 v 4.78125 h -0.53125 v -0.53125 h -0.53125 v 0.78125 h -0.53125 z m 0.53125,0.53125 v 3.21875 h 0.53125 v -3.21875 z m 3.46875,3.75 c -0.0195,0.14331 -0.0413,0.30286 -0.0625,0.4375 h 1.78125 c 0.0141,-0.14844 0.0191,-0.29032 0.0312,-0.4375 h -0.46875 l -0.21875,0.28125 c -0.096,-0.10557 -0.20726,-0.1851 -0.3125,-0.28125 z" opacity=".35" transform="translate(-904.031 -91.965)"/>
        <path d="m 909.0315,91.99999 v 11 h 1 8 c 0,0 2,0 2,-2 v -7 c 0,0 0,-2 -2,-2 z m 4.5625,2 h 1.875 l 2.1875,7 h -1.65625 l -0.4375,-1.65625 h -2.125 l -0.4375,1.65625 h -1.59375 z m 0.875,1.1875 c -0.17177,0.7408 -0.33799,1.58341 -0.53125,2.28125 l -0.1875,0.625 h 1.5 l -0.15625,-0.625 c -0.19326,-0.69784 -0.41124,-1.55119 -0.59375,-2.28125 z" transform="translate(-904.031 -91.965)"/>
    </g>
</svg>
