<svg xmlns="http://www.w3.org/2000/svg" width="16" height="16">
    <g color="#000" fill="#4c5263">
        <path d="m 914.00316,141.00501 5.5,-4.5 -5.5,-4.5 c 0.004,0.003 0,1.33333 0,2 -1,0 -2,0 -3,0 0,1.66667 0,3.33333 0,5 1,0 2,0 3,0 0,0.66667 0,2 0,2 z" transform="translate(-904.003 -132.002)"/>
        <path d="m 910.00316,138.00501 -5.5,4.5 5.5,4.5 c -0.004,-0.003 0,-1.33333 0,-2 1,0 3,0 3,0 v -2.1875 -0.8125 -2 c 0,0 -2,0 -3,0 0,-0.66667 0,-2 0,-2 z" transform="translate(-904.003 -132.002)"/>
    </g>
</svg>
