<svg xmlns="http://www.w3.org/2000/svg" width="16" height="16.003">
    <path d="m 980.03147,71.99995 c -1.65685,0 -3,1.343146 -3,3 0,0.231269 0.0442,0.440005 0.0937,0.65625 l -3.21875,2 c -0.51341,-0.411273 -1.16591,-0.65625 -1.87495,-0.65625 -1.65685,0 -3,1.343146 -3,3 0,1.656854 1.34315,3 3,3 0.70904,0 1.36154,-0.244977 1.875,-0.65625 l 3.21875,2 c -0.0495,0.216245 -0.0937,0.424981 -0.0937,0.65625 0,1.656854 1.34315,3 3,3 1.65685,0 3,-1.343146 3,-3 0,-1.656854 -1.34315,-3 -3,-3 -0.70904,0 -1.36154,0.244977 -1.875,0.65625 l -3.21875,-2 c 0.0495,-0.216245 0.0937,-0.424981 0.0937,-0.65625 0,-0.231269 -0.0442,-0.440005 -0.0937,-0.65625 l 3.21875,-2 c 0.51341,0.411273 1.16591,0.65625 1.87495,0.65625 1.65685,0 3,-1.343146 3,-3 0,-1.656854 -1.34315,-3 -3,-3 z" fill="#4c5263" transform="translate(-968.032 -71.997)"/>
</svg>
