<svg xmlns="http://www.w3.org/2000/svg" width="16" height="16.035">
    <g fill="#4c5263">
        <path d="m 892.03145,74.99999 1.21875,1.21875 c 1.61122,0.5166 2.78125,1.99847 2.78125,3.78125 0,2.20914 -1.79086,4 -4,4 -2.20914,0 -4,-1.79086 -4,-4 0,-1.78278 1.17003,-3.26465 2.78125,-3.78125 z m 0,0 c -2.76142,0 -5,2.23857 -5,5 0,2.76142 2.23858,5 5,5 2.76143,0 5,-2.23858 5,-5 0,-2.76143 -2.23857,-5 -5,-5 z" opacity=".35" transform="translate(-884.031 -71.965)"/>
        <path d="m 892.03145,71.99999 c -4.41828,0 -8,3.58172 -8,8 0,4.41828 3.58172,8 8,8 4.41828,0 8,-3.58172 8,-8 0,-4.41828 -3.58172,-8 -8,-8 z m 0,2 c 3.31371,0 6,2.68629 6,6 0,3.31371 -2.68629,6 -6,6 -3.31371,0 -6,-2.68629 -6,-6 0,-3.31371 2.68629,-6 6,-6 z m 0,2 -1.34375,1.34375 c -0.9753,0.49523 -1.65625,1.48753 -1.65625,2.65625 0,1.65685 1.34315,3 3,3 1.65685,0 3,-1.34315 3,-3 0,-1.16872 -0.68095,-2.16102 -1.65625,-2.65625 z" transform="translate(-884.031 -71.965)"/>
    </g>
</svg>
