<svg xmlns="http://www.w3.org/2000/svg" width="16" height="16">
    <g fill="#4c5263">
        <path d="m 786.03145,71.99999 c -1.99959,0 -2,2 -2,2 v 9 c 0,0 0,2 2,2 h 12 c 0,0 1.99953,0 2,-2 v -9 c 0,0 4.1e-4,-2 -2,-2 z m 0,2 h 12 v 9 l -12,-0.024 z m 1,13 2e-4,0.99664 h 10 l -2e-4,-0.99664 c 0,-1 -1,-1 -1,-1 h -8.02177 c 0,0 -0.97823,0 -0.97823,1 z" transform="translate(-784.031 -71.997)"/>
        <path d="m 791.03145,74.99999 v 5.00007 l -4,7e-5 v 1.99986 h 10 v -6.99993 z" style="marker:none" color="#bebebe" overflow="visible" opacity=".35" transform="translate(-784.031 -71.997)"/>
        <path d="m 790.03145,75.00006 -3,4 h 3 z" style="marker:none" color="#000" overflow="visible" transform="translate(-784.031 -71.997)"/>
    </g>
</svg>
