<svg xmlns="http://www.w3.org/2000/svg" width="16" height="16">
    <g fill="#4c5263">
        <path d="m 824.03165,74.98995 v 7 h 12.02 z m 2,3.0536 3.1156,1.9776 h -3.1156 z" transform="translate(-824.031 -71.997)"/>
        <path d="m 826.03145,71.99999 c -1.99959,0 -2,2 -2,2 h 2 3.5 8.5 v 9 l -8.41797,-0.0156 c -0.0276,0.005 -0.053,0.0156 -0.082,0.0156 h -5.5 c 0,0 0,2 2,2 h 12 c 0,0 1.99953,0 2,-2 v -9 c 0,0 4.1e-4,-2 -2,-2 h -12 z m 1.97852,14 c 0,0 -0.97852,0 -0.97852,1 v 0.99609 h 10 v -0.99609 c 0,-1 -1,-1 -1,-1 z" transform="translate(-824.031 -71.997)"/>
    </g>
</svg>
