<svg xmlns="http://www.w3.org/2000/svg" width="16" height="16">
    <g fill="#4c5263">
        <path d="M874.51295 76.69166c.32144.38949.51637.8873.51637 1.43172 0 1.24441-1.0088 2.25321-2.25322 2.25321-.54442 0-1.04223-.19492-1.43172-.51635.27245 1.16131 1.31392 2.01849 2.55833 2.01849 1.45182 0 2.62874-1.17693 2.62874-2.62874 0-1.24442-.85718-2.28588-2.0185-2.55833zM871.53143 74.999992c.277 0 .5.223.5.5 0 .277-.223.5-.5.5-.277 0-.5-.223-.5-.5 0-.277.223-.5.5-.5z" style="marker:none" color="#bebebe" overflow="visible" transform="translate(-864.031 -71.997)"/>
        <path d="m 869.53143,79.499992 -0.49672,-1.50328 -1.50328,-0.49672 1.50328,-0.496719 0.49672,-1.503281 0.49672,1.503281 1.50328,0.496719 -1.50328,0.49672 z" style="marker:none" color="#000" overflow="visible" transform="translate(-864.031 -71.997)"/>
        <path d="M872.53143 76.999992c.277 0 .5.223.5.5 0 .277-.223.5-.5.5-.277 0-.5-.223-.5-.5 0-.277.223-.5.5-.5zM876.53143 74.999992c.277 0 .5.223.5.5 0 .277-.223.5-.5.5-.277 0-.5-.223-.5-.5 0-.277.223-.5.5-.5zM868.53143 79.999992c.277 0 .5.223.5.5 0 .277-.223.5-.5.5-.277 0-.5-.223-.5-.5 0-.277.223-.5.5-.5z" style="marker:none" color="#bebebe" overflow="visible" transform="translate(-864.031 -71.997)"/>
        <path d="m 866.03145,71.99999 c -1.99959,0 -2,2 -2,2 v 9 c 0,0 0,2 2,2 h 12 c 0,0 1.99953,0 2,-2 v -9 c 0,0 4.1e-4,-2 -2,-2 z m 0,2 h 12 v 9 l -12,-0.024 z m 1,13 2e-4,0.99664 h 10 l -2e-4,-0.99664 c 0,-1 -1,-1 -1,-1 h -8.02177 c 0,0 -0.97823,0 -0.97823,1 z" transform="translate(-864.031 -71.997)"/>
    </g>
</svg>
