<svg xmlns="http://www.w3.org/2000/svg" width="16" height="16">
    <g color="#000" fill="#4c5263">
        <path d="M825.53315 159.99999c-.83195 0-1.50171.669-1.50171 1.5v4c0 .831.66976 1.5 1.50171 1.5h9.01023c.83195 0 1.50171-.669 1.50171-1.5v-4c0-.831-.66976-1.5-1.50171-1.5zm.0626 1c3.18559.26867 6.11567.23073 8.88509 0 .30227-.0252.56314.25953.56314.5625v2.875c0 .30297-.26175.52842-.56314.5625-3.00415.33966-5.96426.32696-8.88509 0-.30143-.0337-.56314-.25953-.56314-.5625v-2.875c0-.30297.2609-.58799.56314-.5625zM833.54225 151.99999c-.83195 0-1.50171.669-1.50171 1.5v4c0 .831.66976 1.5 1.50171 1.5h4.00454c.83195 0 1.50171-.669 1.50171-1.5v-4c0-.831-.66976-1.5-1.50171-1.5zm.0626 1c1.29314.1279 2.58626.12207 3.8794 0 .30198-.0285.56314.25953.56314.5625v2.875c0 .30297-.26207.52562-.56314.5625-1.25471.1537-2.54146.17922-3.8794 0-.30063-.0403-.56314-.25953-.56314-.5625v-2.875c0-.30297.26129-.59235.56314-.5625zM825.53315 152.99999c-.83194 0-1.50171.669-1.50171 1.5v3c0 .831.66977 1.5 1.50171 1.5h4.00455c.83194 0 1.50171-.669 1.50171-1.5v-3c0-.831-.66977-1.5-1.50171-1.5zm.0626 1c1.69195.19941 2.84797.13085 3.87941 0 .3009-.0382.56314.25953.56314.5625v2.875c0 .30297-.26231.5238-.56314.5625-1.21498.1563-2.49789.17677-3.87941 0-.30086-.0385-.56314-.25953-.56314-.5625v-2.875c0-.30297.26191-.598.56314-.5625z" style="marker:none" overflow="visible" transform="translate(-824.031 -152)"/>
    </g>
</svg>
