<svg xmlns="http://www.w3.org/2000/svg" width="16" height="16">
    <g fill="#4c5263">
        <path d="m 931.7502,94.99999 c 0.16927,0.47184 0.28125,0.97209 0.28125,1.5 0,2.47344 -2.02656,4.5 -4.5,4.5 -0.92754,0 -1.78145,-0.29458 -2.5,-0.78125 v 3.78125 c 0,0.554 0.446,1 1,1 h 7 l 2,2 2,-2 h 1 c 0.554,0 1,-0.446 1,-1 v -8 c 0,-0.554 -0.446,-1 -1,-1 z" opacity=".35" transform="translate(-924.031 -91.997)"/>
        <path d="m 927.53145,92.99999 c -1.933,0 -3.5,1.567 -3.5,3.5 0,1.933 1.567,3.5 3.5,3.5 1.933,0 3.5,-1.567 3.5,-3.5 0,-1.933 -1.567,-3.5 -3.5,-3.5 z m -0.5,1 h 1 v 3 h -1 z m 0,4 h 1 v 1 h -1 z" transform="translate(-924.031 -91.997)"/>
    </g>
</svg>
