<svg xmlns="http://www.w3.org/2000/svg" width="16" height="16">
    <g color="#000" fill="#4c5263">
        <path d="m 772,153 c -2.20282,0 -4,1.79718 -4,4 0,2.20282 1.79718,4 4,4 2.20282,0 4,-1.79718 4,-4 0,-2.20282 -1.79718,-4 -4,-4 z m 0,1.06641 c 1.62635,-1e-5 2.93359,1.30724 2.93359,2.93359 10e-6,1.62635 -1.30724,2.9336 -2.93359,2.93359 -1.62635,0 -2.9336,-1.30724 -2.93359,-2.93359 0,-1.62635 1.30724,-2.93359 2.93359,-2.93359 z" style="line-height:normal;font-variant-ligatures:normal;font-variant-position:normal;font-variant-caps:normal;font-variant-numeric:normal;font-variant-alternates:normal;font-feature-settings:normal;text-indent:0;text-align:start;text-decoration-line:none;text-decoration-style:solid;text-decoration-color:#000;text-transform:none;text-orientation:mixed;white-space:normal;shape-padding:0;isolation:auto;mix-blend-mode:normal;solid-color:#000;solid-opacity:1;marker:none" font-weight="400" font-family="sans-serif" overflow="visible" transform="translate(-764 -152)"/>
        <path d="m 768,160 c -2.20282,0 -4,1.79718 -4,4 0,2.20282 1.79718,4 4,4 2.20282,0 4,-1.79718 4,-4 0,-2.20282 -1.79718,-4 -4,-4 z m 0,1.06641 c 1.62635,-1e-5 2.93359,1.30724 2.93359,2.93359 10e-6,1.62635 -1.30724,2.9336 -2.93359,2.93359 -1.62635,0 -2.9336,-1.30724 -2.93359,-2.93359 0,-1.62635 1.30724,-2.93359 2.93359,-2.93359 z" style="line-height:normal;font-variant-ligatures:normal;font-variant-position:normal;font-variant-caps:normal;font-variant-numeric:normal;font-variant-alternates:normal;font-feature-settings:normal;text-indent:0;text-align:start;text-decoration-line:none;text-decoration-style:solid;text-decoration-color:#000;text-transform:none;text-orientation:mixed;white-space:normal;shape-padding:0;isolation:auto;mix-blend-mode:normal;solid-color:#000;solid-opacity:1;marker:none" font-weight="400" font-family="sans-serif" overflow="visible" transform="translate(-764 -152)"/>
        <path d="m 779.99848,163.99998 a 3.9991465,3.9991465 0 0 1 -3.99915,3.99915 3.9991465,3.9991465 0 0 1 -3.99915,-3.99915 3.9991465,3.9991465 0 0 1 3.99915,-3.99914 3.9991465,3.9991465 0 0 1 3.99915,3.99914 z" style="marker:none" overflow="visible" transform="translate(-764 -152)"/>
        <path d="m 771.46685,163.99998 a 3.4666672,3.4666672 0 0 1 -3.46667,3.46667 3.4666672,3.4666672 0 0 1 -3.46666,-3.46667 3.4666672,3.4666672 0 0 1 3.46666,-3.46666 3.4666672,3.4666672 0 0 1 3.46667,3.46666 z" style="marker:none" overflow="visible" opacity=".35" transform="translate(-764 -152)"/>
    </g>
</svg>
