<svg xmlns="http://www.w3.org/2000/svg" width="16" height="16.035">
    <g fill="#4c5263">
        <path d="M2 5.035c-2 0-2 2-2 2v7c0 1.965 2 2 2 2h9v-4H8.438c-.01.145-.024.296-.031.437h.437v.5h-.5c-.08.707-.359 1.063-.844 1.063a3.3 3.3 0 01-.531-.063l-.094-.5c.263.04.484.063.625.063.142 0 .21-.2.25-.563H5.407c.043-.292.062-.624.093-.937h-.687a10.207 10.207 0 01-.907 1.968l-.5-.406c.32-.513.588-1.027.813-1.562H4V9.628c-.022-.018-.04-.045-.062-.062L4 9.503v-1.78c-.022-.02-.04-.046-.062-.063L4 7.597V5.035zm.094 2.718h1.594v4.782h-.532v-.532h-.53v.782h-.532zm.531.532v3.218h.531V8.285zm3.469 3.75c-.02.143-.041.302-.063.437h1.782c.014-.148.019-.29.03-.437h-.468l-.219.28c-.096-.105-.207-.184-.312-.28z" opacity=".35"/>
        <path d="M5 .035v11h9s2 0 2-2v-7s0-2-2-2zm4.563 2h1.875l2.187 7H11.97l-.438-1.657H9.406L8.97 9.035H7.375zm.875 1.187c-.172.74-.338 1.583-.532 2.281l-.187.625h1.5l-.156-.625c-.194-.698-.412-1.55-.594-2.28z"/>
    </g>
</svg>
