<svg xmlns="http://www.w3.org/2000/svg" width="16" height="16.004">
    <path d="m 868.03446,128 c -2,0 -2,-2 -2,-2 v -11 c 0,-2 1.89327,-1.99637 2,-2 h 8 c 0,0 2,0.004 2,2 v 11 c 0,2 -2,2 -2,2 z m 7,-0.75 c 0.69036,0 1.25,-0.55964 1.25,-1.25 0,-0.69036 -0.55964,-1.25 -1.25,-1.25 -0.69036,0 -1.25,0.55964 -1.25,1.25 0,0.69036 0.55964,1.25 1.25,1.25 z m -3,-4.25 c 2.20914,0 4,-1.79086 4,-4 0,-2.20914 -1.79086,-4 -4,-4 -2.20914,0 -4,1.79086 -4,4 0,2.20914 1.79086,4 4,4 z m 0,-2 c -1.10457,0 -2,-0.89543 -2,-2 0,-1.10457 0.89543,-2 2,-2 1.10457,0 2,0.89543 2,2 0,1.10457 -0.89543,2 -2,2 z" fill="#4c5263" transform="translate(-864.035 -111.996)"/>
</svg>
