<svg xmlns="http://www.w3.org/2000/svg" width="16" height="16">
    <path d="M2 2.004s-1 0-1 1v11s0 1 1 1h12s1 0 1-1v-9c0-1-1-1-1-1H9l-2-2zm8.626 5.924c.736 0 .2 1.628.795 2.06.595.433 1.977-.58 2.205.12.227.7-1.487.692-1.715 1.392-.228.7 1.164 1.702.568 2.135-.596.432-1.117-1.201-1.853-1.201s-1.258 1.633-1.854 1.2c-.596-.432.796-1.434.569-2.134-.228-.7-1.943-.692-1.715-1.393.227-.7 1.61.314 2.205-.119.595-.432.059-2.06.795-2.06z" style="line-height:normal;-inkscape-font-specification:Sans;text-indent:0;text-align:start;text-decoration-line:none;text-transform:none;marker:none" color="#000" font-weight="400" font-family="Sans" overflow="visible" fill="#4c5263"/>
</svg>
