<svg xmlns="http://www.w3.org/2000/svg" width="16" height="16">
    <g color="#000" font-weight="400" font-family="Sans" fill="#4c5263">
        <path d="m 775.03145,55.94726 c -0.38828,0 -0.75331,0.0893 -1.08398,0.23828 0.0546,0.26205 0.084,0.53308 0.084,0.81054 0,1.10211 -0.45422,2.10419 -1.18359,2.83008 0.4603,0.70369 1.26302,1.17383 2.18357,1.17383 1.43269,0 2.59375,-1.13026 2.59375,-2.52539 0,-1.39513 -1.16106,-2.52734 -2.59375,-2.52734 z m 0,6.05273 c -0.1961,0 -0.37171,0.0126 -0.55273,0.0215 0.69756,0.39966 1.22911,0.87712 1.60351,1.37696 0.94222,1.25731 0.94922,2.60154 0.94922,2.60154 h 3 v -1 c 0,0 0,-3 -5,-3 z m -3.90234,1.05078 c -1.08904,0.86519 -1.09766,1.94922 -1.09766,1.94922 v 1 h 5 c 0,0 0.007,-0.65725 -0.55078,-1.40234 -0.47711,-0.63695 -1.37024,-1.35218 -3.35156,-1.54688 z" style="line-height:normal;-inkscape-font-specification:Sans;text-indent:0;text-align:start;text-decoration-line:none;text-transform:none;marker:none" overflow="visible" transform="translate(-764.031 -51.997)"/>
        <path d="m 770.03168,53.99663 c 1.65686,0 3,1.3432 3,3 0,1.6568 -1.34314,3 -3,3 -1.65686,0 -3,-1.3432 -3,-3 0,-1.6568 1.34314,-3 3,-3 z m 0,8 c 5.99977,-0.003 5.99977,4.00336 5.99977,4.00336 v 1 h -12 v -1 c 0,0 0,-4 6.00023,-4.00336 z" style="line-height:normal;-inkscape-font-specification:Sans;text-indent:0;text-align:start;text-decoration-line:none;text-transform:none;marker:none" overflow="visible" transform="translate(-764.031 -51.997)"/>
    </g>
</svg>
