<svg xmlns="http://www.w3.org/2000/svg" width="16" height="16.003">
    <g fill="#4c5263">
        <path d="m 946.03145,52.99999 c 0,0 -1,0 -1,1 v 1 h 7 1 6 c 0,0 0,-1 -1,-1 h -6 l -1,-1 z" style="line-height:normal;-inkscape-font-specification:Sans;text-indent:0;text-align:start;text-decoration-line:none;text-transform:none;marker:none" color="#000" font-weight="400" font-family="Sans" overflow="visible" transform="translate(-944.031 -51.997)"/>
        <path d="m 945.03145,55.99999 c -0.554,0 -1,0.446 -1,1 v 10 c 0,0.554 0.446,1 1,1 h 14 c 0.554,0 1,-0.446 1,-1 v -10 c 0,-0.554 -0.446,-1 -1,-1 z m 5.25,2 h 3.5 c 0.1385,0 0.25,0.1115 0.25,0.25 v 0.5 c 0,0.1385 -0.1115,0.25 -0.25,0.25 h -3.5 c -0.1385,0 -0.25,-0.1115 -0.25,-0.25 v -0.5 c 0,-0.1385 0.1115,-0.25 0.25,-0.25 z" transform="translate(-944.031 -51.997)"/>
    </g>
</svg>
