<svg xmlns="http://www.w3.org/2000/svg" width="16" height="16">
    <g color="#000" font-weight="400" font-family="Sans" fill="#4c5263">
        <path d="M11 3.95c-.388 0-.753.09-1.084.239a3.97 3.97 0 01-1.1 3.64A2.601 2.601 0 0011 9.004c1.433 0 2.594-1.13 2.594-2.525S12.433 3.951 11 3.951zm0 6.053c-.196 0-.372.013-.553.022.698.4 1.23.877 1.604 1.377.942 1.257.949 2.601.949 2.601h3v-1s0-3-5-3zm-3.902 1.051C6.008 11.92 6 13.004 6 13.004v1h5s.007-.658-.55-1.403c-.478-.637-1.371-1.352-3.352-1.547z" style="line-height:normal;-inkscape-font-specification:Sans;text-indent:0;text-align:start;text-decoration-line:none;text-transform:none;marker:none" overflow="visible"/>
        <path d="M6 2a3 3 0 110 6 3 3 0 010-6zm0 8c6-.003 6 4.003 6 4.003v1H0v-1s0-4 6-4.003z" style="line-height:normal;-inkscape-font-specification:Sans;text-indent:0;text-align:start;text-decoration-line:none;text-transform:none;marker:none" overflow="visible"/>
    </g>
</svg>
