<svg xmlns="http://www.w3.org/2000/svg" width="16" height="16">
    <g fill="#4c5263">
        <path d="m 772.90645,79.99999 c -0.49245,0 -0.875,0.38256 -0.875,0.875 v 6.25 c 0,0.49244 0.38255,0.875 0.875,0.875 h 6.25 c 0.49245,0 0.875,-0.38256 0.875,-0.875 v -6.25 c 0,-0.49244 -0.38255,-0.875 -0.875,-0.875 z m 2.125,1 h 2 v 1 h -2 z m 0,2 h 2 v 4 h -2 z" style="marker:none" color="#bebebe" overflow="visible" transform="translate(-764.031 -72)"/>
        <path d="m 772.03145,73.99999 c -1.65686,0 -3,1.3432 -3,3 0,1.41084 0.9768,2.58597 2.28906,2.90625 0.33568,-0.53551 0.92746,-0.90625 1.58594,-0.90625 h 1.3457 c 0.47909,-0.53166 0.7793,-1.22801 0.7793,-2 0,-1.6568 -1.34314,-3 -3,-3 z m -1,8.04297 c -4.99721,0.42168 -5,3.96094 -5,3.96094 v 1 h 5 z m 2,0 v 4.95703 h 1 v -4 -0.82422 c -0.30834,-0.0595 -0.64227,-0.10295 -1,-0.13281 z" style="line-height:normal;-inkscape-font-specification:Sans;text-indent:0;text-align:start;text-decoration-line:none;text-transform:none;marker:none" color="#000" font-weight="400" font-family="Sans" overflow="visible" transform="translate(-764.031 -72)"/>
    </g>
</svg>
