<svg xmlns="http://www.w3.org/2000/svg" width="16" height="16.003">
    <path d="m 946.03145,92 c 0,0 -2,-0.0034 -2,2 v 12 c 0,1.99664 2,2 2,2 h 12 c 0.0948,-0.003 2,-0.003 2,-2 V 94 c 0,0 0,-2 -2,-2 z m 2.90625,3 h 6.1875 c 1.05606,0 1.90625,0.85019 1.90625,1.90625 v 0.1875 c 0,1.05606 -0.85019,1.90625 -1.90625,1.90625 h -6.1875 c -1.05606,0 -1.90625,-0.85019 -1.90625,-1.90625 v -0.1875 C 947.03145,95.85019 947.88164,95 948.9377,95 Z m 0.0937,1 c -0.55228,0 -1,0.447715 -1,1 0,0.552285 0.44772,1 1,1 0.55228,0 1,-0.447715 1,-1 0,-0.552285 -0.44772,-1 -1,-1 z m -0.0566,5 h 6.11328 c 1.07668,0 1.94336,0.86668 1.94336,1.94336 v 0.11328 c 0,1.07668 -0.86668,1.94336 -1.94336,1.94336 h -6.11328 c -1.07668,0 -1.94336,-0.86668 -1.94336,-1.94336 v -0.11328 C 947.03145,101.86668 947.89813,101 948.9748,101 Z m 6.05664,1 c -0.55228,0 -1,0.44772 -1,1 0,0.55228 0.44772,1 1,1 0.55228,0 1,-0.44772 1,-1 0,-0.55228 -0.44772,-1 -1,-1 z" fill="#4c5263" transform="translate(-944.031 -91.997)"/>
</svg>
