<svg xmlns="http://www.w3.org/2000/svg" width="16" height="16">
    <path d="m 886.0315,52.99999 c -2,0 -2,2 -2,2 v 10 c 0,2 2,2 2,2 h 12 c 1.99977,0 2,-2 2,-2 v -10 c 0,0 0,-2 -2,-2 z m 7.3125,3.96875 c 0.25357,-0.076 0.5534,0.0889 0.625,0.34375 l 1.4375,4.6875 h 1.125 1.5 v 1 h -1.5 -1.5 c -0.20675,-0.003 -0.40415,-0.14734 -0.46875,-0.34375 l -1.0625,-3.46875 -1.53125,5.4375 c -0.10765,0.34867 -0.65332,0.44611 -0.875,0.15625 l -1.3125,-1.78125 h -2.25 -1.5 v -1 h 1.5 2.5 c 0.15984,0.002 0.31634,0.0866 0.40625,0.21875 l 0.875,1.1875 1.6875,-6.09375 c 0.0464,-0.16273 0.18102,-0.29735 0.34375,-0.34375 z" fill="#4c5263" transform="translate(-884.031 -51.965)"/>
</svg>
