<svg xmlns="http://www.w3.org/2000/svg" width="16" height="16.003">
    <path d="M2 .003s-2-.003-2 2v12c0 1.997 2 2 2 2h12c.095-.003 2-.003 2-2v-12s0-2-2-2zm2.906 3h6.188c1.056 0 1.906.85 1.906 1.907v.187c0 1.056-.85 1.906-1.906 1.906H4.906A1.902 1.902 0 013 5.097V4.91c0-1.056.85-1.907 1.906-1.907zm.094 1a1 1 0 100 2 1 1 0 000-2zm-.057 5h6.114c1.076 0 1.943.867 1.943 1.944v.113a1.939 1.939 0 01-1.943 1.943H4.943A1.939 1.939 0 013 11.06v-.113c0-1.077.867-1.944 1.943-1.944zm6.057 1a1 1 0 100 2 1 1 0 000-2z" fill="#4c5263"/>
</svg>
