<svg xmlns="http://www.w3.org/2000/svg" width="16" height="16.003">
    <path d="m 892.03145,91.99999 c -4.41827,0 -8,3.58172 -8,8 0,4.41827 3.58173,8 8,8 4.41828,0 8,-3.58173 8,-8 0,-4.41828 -3.58172,-8 -8,-8 z m 4.85715,3.14286 -3.25,6.46428 -6.46429,3.25 3.25,-6.46428 z m -4.85715,4 c -0.47338,0 -0.85714,0.38376 -0.85714,0.85714 0,0.47338 0.38376,0.85714 0.85714,0.85714 0.47339,0 0.85715,-0.38376 0.85715,-0.85714 0,-0.47338 -0.38376,-0.85714 -0.85715,-0.85714 z" style="marker:none" color="#000" overflow="visible" fill="#4c5263" transform="translate(-884.031 -91.997)"/>
</svg>
