<?xml version="1.0" encoding="UTF-8" standalone="no"?>
<!-- Created with Inkscape (http://www.inkscape.org/) -->

<svg
   xmlns:dc="http://purl.org/dc/elements/1.1/"
   xmlns:cc="http://creativecommons.org/ns#"
   xmlns:rdf="http://www.w3.org/1999/02/22-rdf-syntax-ns#"
   xmlns:svg="http://www.w3.org/2000/svg"
   xmlns="http://www.w3.org/2000/svg"
   xmlns:sodipodi="http://sodipodi.sourceforge.net/DTD/sodipodi-0.dtd"
   xmlns:inkscape="http://www.inkscape.org/namespaces/inkscape"
   inkscape:export-ydpi="90.000000"
   inkscape:export-xdpi="90.000000"
   width="736"
   height="544"
   id="svg11300"
   sodipodi:version="0.32"
   inkscape:version="0.91 r"
   sodipodi:docname="mail-attachment.svg"
   inkscape:output_extension="org.inkscape.output.svg.inkscape"
   version="1.0"
   style="display:inline;enable-background:new"
   inkscape:export-filename="/home/sam/paper-template.png">
  <title
     id="title3004">Paper Icon Theme Template</title>
  <sodipodi:namedview
     stroke="#ef2929"
     fill="#f57900"
     id="base"
     pagecolor="#ffffff"
     bordercolor="#000000"
     borderopacity="0.25490196"
     inkscape:pageopacity="0"
     inkscape:pageshadow="2"
     inkscape:zoom="1"
     inkscape:cx="-514.90759"
     inkscape:cy="393.80561"
     inkscape:current-layer="layer6"
     showgrid="false"
     inkscape:grid-bbox="true"
     inkscape:document-units="px"
     inkscape:showpageshadow="false"
     inkscape:window-width="1920"
     inkscape:window-height="1023"
     inkscape:window-x="0"
     inkscape:window-y="27"
     width="400px"
     height="300px"
     inkscape:snap-nodes="true"
     inkscape:snap-bbox="true"
     gridtolerance="10000"
     inkscape:object-nodes="true"
     inkscape:snap-grids="true"
     showguides="true"
     inkscape:guide-bbox="true"
     inkscape:window-maximized="1"
     inkscape:bbox-paths="true"
     inkscape:snap-bbox-midpoints="true"
     inkscape:snap-global="true"
     inkscape:object-paths="true"
     inkscape:snap-intersection-paths="true"
     inkscape:snap-smooth-nodes="true">
    <inkscape:grid
       spacingy="1px"
       spacingx="1px"
       id="grid5883"
       type="xygrid"
       enabled="true"
       visible="true"
       empspacing="4"
       snapvisiblegridlinesonly="true" />
    <inkscape:grid
       type="xygrid"
       id="grid11592"
       empspacing="2"
       visible="true"
       enabled="false"
       spacingx="0.5px"
       spacingy="0.5px"
       color="#ff0000"
       opacity="0.1254902"
       empcolor="#ff0000"
       empopacity="0.25098039"
       snapvisiblegridlinesonly="true" />
  </sodipodi:namedview>
  <defs
     id="defs3">
    <filter
       inkscape:collect="always"
       style="color-interpolation-filters:sRGB"
       id="filter4262"
       x="-0.042"
       width="1.084"
       y="-0.0168"
       height="1.0336">
      <feGaussianBlur
         inkscape:collect="always"
         stdDeviation="2.8"
         id="feGaussianBlur4264" />
    </filter>
  </defs>
  <metadata
     id="metadata4">
    <rdf:RDF>
      <cc:Work
         rdf:about="">
        <dc:format>image/svg+xml</dc:format>
        <dc:type
           rdf:resource="http://purl.org/dc/dcmitype/StillImage" />
        <dc:creator>
          <cc:Agent>
            <dc:title>Sam Hewitt</dc:title>
          </cc:Agent>
        </dc:creator>
        <dc:source />
        <cc:license
           rdf:resource="http://creativecommons.org/licenses/by-sa/3.0/" />
        <dc:title>Paper Icon Theme Template</dc:title>
        <dc:subject>
          <rdf:Bag />
        </dc:subject>
        <dc:date />
        <dc:rights>
          <cc:Agent>
            <dc:title />
          </cc:Agent>
        </dc:rights>
        <dc:publisher>
          <cc:Agent>
            <dc:title />
          </cc:Agent>
        </dc:publisher>
        <dc:identifier />
        <dc:relation />
        <dc:language />
        <dc:coverage />
        <dc:description />
        <dc:contributor>
          <cc:Agent>
            <dc:title />
          </cc:Agent>
        </dc:contributor>
      </cc:Work>
      <cc:Work
         rdf:about="">
        <dc:format>image/svg+xml</dc:format>
        <dc:type
           rdf:resource="http://purl.org/dc/dcmitype/StillImage" />
      </cc:Work>
      <cc:License
         rdf:about="http://creativecommons.org/licenses/by-sa/3.0/">
        <cc:permits
           rdf:resource="http://creativecommons.org/ns#Reproduction" />
        <cc:permits
           rdf:resource="http://creativecommons.org/ns#Distribution" />
        <cc:requires
           rdf:resource="http://creativecommons.org/ns#Notice" />
        <cc:requires
           rdf:resource="http://creativecommons.org/ns#Attribution" />
        <cc:permits
           rdf:resource="http://creativecommons.org/ns#DerivativeWorks" />
        <cc:requires
           rdf:resource="http://creativecommons.org/ns#ShareAlike" />
      </cc:License>
    </rdf:RDF>
  </metadata>
  <g
     style="display:inline"
     inkscape:groupmode="layer"
     inkscape:label="Icon"
     id="layer1"
     transform="translate(0,244)">
    <g
       style="display:none"
       inkscape:label="Baseplate"
       id="layer7"
       inkscape:groupmode="layer">
      <text
         y="337.74512"
         xml:space="preserve"
         x="15.006836"
         style="font-style:normal;font-variant:normal;font-weight:normal;font-stretch:normal;font-size:18px;font-family:'DejaVu Sans';-inkscape-font-specification:'DejaVu Sans';display:inline;fill:#000000;fill-opacity:1;stroke:none;enable-background:new"
         inkscape:label="context"
         id="context"><tspan
           style="font-style:normal;font-variant:normal;font-weight:normal;font-stretch:normal;font-family:'DejaVu Sans';-inkscape-font-specification:'DejaVu Sans'"
           y="337.74512"
           x="15.006836"
           sodipodi:role="line"
           id="tspan3933">status</tspan></text>
      <text
         y="337.74512"
         xml:space="preserve"
         x="142.48828"
         style="font-style:normal;font-variant:normal;font-weight:bold;font-stretch:normal;font-size:18px;line-height:125%;font-family:'DejaVu Sans';-inkscape-font-specification:'DejaVu Sans Bold';text-align:start;writing-mode:lr-tb;text-anchor:start;display:inline;fill:#000000;fill-opacity:1;stroke:none;enable-background:new"
         sodipodi:linespacing="125%"
         inkscape:label="icon-name"
         id="icon-name"><tspan
           style="font-style:normal;font-variant:normal;font-weight:bold;font-stretch:normal;font-size:18px;font-family:'DejaVu Sans';-inkscape-font-specification:'DejaVu Sans Bold'"
           y="337.74512"
           x="142.48828"
           sodipodi:role="line"
           id="tspan3937">mail-attachment</tspan></text>
      <rect
         style="display:inline;overflow:visible;visibility:visible;fill:#d3d7cf;fill-opacity:1;fill-rule:nonzero;stroke:none;stroke-width:2;marker:none;enable-background:accumulate"
         id="rect16x16"
         width="16"
         height="16"
         x="-32"
         y="268"
         inkscape:label="16x16"
         transform="scale(-1,1)" />
      <rect
         style="display:inline;overflow:visible;visibility:visible;fill:#d3d7cf;fill-opacity:1;fill-rule:nonzero;stroke:none;stroke-width:2;marker:none;enable-background:accumulate"
         id="rect24x24"
         width="24"
         height="24"
         x="-76"
         y="260"
         inkscape:label="24x24"
         transform="scale(-1,1)" />
      <rect
         style="display:inline;overflow:visible;visibility:visible;fill:#d3d7cf;fill-opacity:1;fill-rule:nonzero;stroke:none;stroke-width:2;marker:none;enable-background:accumulate"
         id="rect32x32"
         width="32"
         height="32"
         x="-128"
         y="252"
         inkscape:label="32x32"
         transform="scale(-1,1)" />
      <rect
         inkscape:label="48x48"
         y="236"
         x="-192"
         height="48"
         width="48"
         id="rect48x48"
         style="display:inline;overflow:visible;visibility:visible;fill:#d3d7cf;fill-opacity:1;fill-rule:nonzero;stroke:none;stroke-width:2;marker:none;enable-background:accumulate"
         transform="scale(-1,1)" />
      <rect
         style="display:inline;overflow:visible;visibility:visible;fill:#d3d7cf;fill-opacity:1;fill-rule:nonzero;stroke:none;stroke-width:2;marker:none;enable-background:accumulate"
         id="rect3951"
         width="512"
         height="512"
         x="-720"
         y="-228"
         inkscape:label="48x48"
         transform="scale(-1,1)" />
    </g>
    <g
       inkscape:groupmode="layer"
       id="layer6"
       inkscape:label="Symbols"
       style="display:inline">
      <path
         id="path4266"
         d="m 496,-176 c -26.592,0 -48,21.408 -48,48 l 0,48 0,208 32,0 0,-208 0,-48 c 0,-8.864 7.136,-16 16,-16 8.864,0 16,7.136 16,16 l 0,48 0,192 0,32 c 0,26.592 -21.408,48 -48,48 -26.592,0 -48,-21.408 -48,-48 l 0,-32 0,-192 -32,0 0,208 0,16 c 0,44.32 35.68,80 80,80 44.32,0 80,-35.68 80,-80 l 0,-32 0,-192 0,-48 c 0,-26.592 -21.408,-48 -48,-48 z"
         style="opacity:0.1;fill:#000000;fill-opacity:1;stroke:none;stroke-width:32;stroke-linecap:round;stroke-linejoin:miter;stroke-miterlimit:4;stroke-dasharray:none;stroke-opacity:1;filter:url(#filter4262)"
         inkscape:connector-curvature="0" />
      <path
         inkscape:connector-curvature="0"
         style="opacity:0.2;fill:#000000;fill-opacity:1;stroke:none;stroke-width:32;stroke-linecap:round;stroke-linejoin:miter;stroke-miterlimit:4;stroke-dasharray:none;stroke-opacity:1;filter:url(#filter4262)"
         d="m 496,-176 c -26.592,0 -48,21.408 -48,48 l 0,48 0,208 32,0 0,-208 0,-48 c 0,-8.864 7.136,-16 16,-16 8.864,0 16,7.136 16,16 l 0,48 0,192 0,32 c 0,26.592 -21.408,48 -48,48 -26.592,0 -48,-21.408 -48,-48 l 0,-32 0,-192 -32,0 0,208 0,16 c 0,44.32 35.68,80 80,80 44.32,0 80,-35.68 80,-80 l 0,-32 0,-192 0,-48 c 0,-26.592 -21.408,-48 -48,-48 z"
         id="path4260" />
      <path
         inkscape:connector-curvature="0"
         id="path4244"
         d="m 65,263 c 0,0 -0.708752,-0.0138 -1.447266,0.35547 C 62.81422,263.72473 62,264.66667 62,266 l 0,10 2,0 0,-10 c 0,-0.66667 0.18578,-0.72473 0.447266,-0.85547 C 64.708752,265.01379 65,265 65,265 c 0,0 0.291248,0.0138 0.552734,0.14453 C 65.81422,265.27527 66,265.33333 66,266 l 0,12 c 0,0 -0.01379,0.79125 -0.394531,1.55273 C 65.224726,280.31422 64.666667,281 63,281 61.333333,281 60.775274,280.31422 60.394531,279.55273 60.013788,278.79125 60,278 60,278 l 0,-9 -2,0 0,9 c 0,0 -0.01379,1.20875 0.605469,2.44727 C 59.224726,281.68578 60.666667,283 63,283 c 2.333333,0 3.775274,-1.31422 4.394531,-2.55273 C 68.013788,279.20875 68,278 68,278 l 0,-12 c 0,-1.33333 -0.81422,-2.27527 -1.552734,-2.64453 C 65.708752,262.98621 65,263 65,263 Z"
         style="color:#000000;font-style:normal;font-variant:normal;font-weight:normal;font-stretch:normal;font-size:medium;line-height:normal;font-family:sans-serif;text-indent:0;text-align:start;text-decoration:none;text-decoration-line:none;text-decoration-style:solid;text-decoration-color:#000000;letter-spacing:normal;word-spacing:normal;text-transform:none;direction:ltr;block-progression:tb;writing-mode:lr-tb;baseline-shift:baseline;text-anchor:start;white-space:normal;clip-rule:nonzero;display:inline;overflow:visible;visibility:visible;opacity:0.2;isolation:auto;mix-blend-mode:normal;color-interpolation:sRGB;color-interpolation-filters:linearRGB;solid-color:#000000;solid-opacity:1;fill:#000000;fill-opacity:1;fill-rule:evenodd;stroke:none;stroke-width:2;stroke-linecap:butt;stroke-linejoin:miter;stroke-miterlimit:4;stroke-dasharray:none;stroke-dashoffset:0;stroke-opacity:1;color-rendering:auto;image-rendering:auto;shape-rendering:auto;text-rendering:auto;enable-background:accumulate" />
      <path
         inkscape:connector-curvature="0"
         id="path4246"
         d="m 172,241 c 0,0 -1.41751,-0.0276 -2.89453,0.71094 C 167.62844,242.44945 166,244.33334 166,247 l 0,20 4,0 0,-20 c 0,-1.33333 0.37156,-1.44945 0.89453,-1.71094 C 171.4175,245.02758 172,245 172,245 c 0,0 0.5825,0.0276 1.10547,0.28906 C 173.62844,245.55055 174,245.66667 174,247 l 0,24 c 0,0 -0.0276,1.5825 -0.78906,3.10547 C 172.44945,275.62844 171.33332,277 168,277 c -3.33333,0 -4.44945,-1.37156 -5.21094,-2.89453 C 162.02758,272.5825 162,271 162,271 l 0,-18 -4,0 0,18 c 0,0 -0.0276,2.41751 1.21094,4.89453 C 160.44945,278.37155 163.33335,281 168,281 c 4.66665,0 7.55055,-2.62845 8.78906,-5.10547 C 178.02757,273.41751 178,271 178,271 l 0,-24 c 0,-2.66666 -1.62845,-4.55055 -3.10547,-5.28906 C 173.41751,240.97242 172,241 172,241 Z"
         style="color:#000000;font-style:normal;font-variant:normal;font-weight:normal;font-stretch:normal;font-size:medium;line-height:normal;font-family:sans-serif;text-indent:0;text-align:start;text-decoration:none;text-decoration-line:none;text-decoration-style:solid;text-decoration-color:#000000;letter-spacing:normal;word-spacing:normal;text-transform:none;direction:ltr;block-progression:tb;writing-mode:lr-tb;baseline-shift:baseline;text-anchor:start;white-space:normal;clip-rule:nonzero;display:inline;overflow:visible;visibility:visible;opacity:0.2;isolation:auto;mix-blend-mode:normal;color-interpolation:sRGB;color-interpolation-filters:linearRGB;solid-color:#000000;solid-opacity:1;fill:#000000;fill-opacity:1;fill-rule:evenodd;stroke:none;stroke-width:3.99998689;stroke-linecap:butt;stroke-linejoin:miter;stroke-miterlimit:4;stroke-dasharray:none;stroke-dashoffset:0;stroke-opacity:1;color-rendering:auto;image-rendering:auto;shape-rendering:auto;text-rendering:auto;enable-background:accumulate" />
      <path
         inkscape:connector-curvature="0"
         id="path4248"
         d="m 114.5,255 c 0,0 -1.06215,-0.0207 -2.16992,0.5332 C 111.22231,256.08709 110,257.50001 110,259.5 l 0,14.5 3,0 0,-14.5 c 0,-1 0.27769,-1.08709 0.66992,-1.2832 C 114.06215,258.02068 114.5,258 114.5,258 c 0,0 0.43785,0.0207 0.83008,0.2168 C 115.72231,258.41291 116,258.5 116,259.5 l 0,16 c 0,0 -0.0207,1.18785 -0.5918,2.33008 C 114.83709,278.9723 113.99999,280 111.5,280 c -2.49999,0 -3.33709,-1.0277 -3.9082,-2.16992 C 107.02068,276.68785 107,275.5 107,275.5 l 0,-13.5 -3,0 0,13.5 c 0,0 -0.0207,1.81216 0.9082,3.66992 0.92889,1.85777 3.09181,3.83008 6.5918,3.83008 3.49999,0 5.66291,-1.97231 6.5918,-3.83008 C 119.02068,277.31216 119,275.5 119,275.5 l 0,-16 c 0,-1.99999 -1.22231,-3.41291 -2.33008,-3.9668 C 115.56215,254.97932 114.5,255 114.5,255 Z"
         style="color:#000000;font-style:normal;font-variant:normal;font-weight:normal;font-stretch:normal;font-size:medium;line-height:normal;font-family:sans-serif;text-indent:0;text-align:start;text-decoration:none;text-decoration-line:none;text-decoration-style:solid;text-decoration-color:#000000;letter-spacing:normal;word-spacing:normal;text-transform:none;direction:ltr;block-progression:tb;writing-mode:lr-tb;baseline-shift:baseline;text-anchor:start;white-space:normal;clip-rule:nonzero;display:inline;overflow:visible;visibility:visible;opacity:0.2;isolation:auto;mix-blend-mode:normal;color-interpolation:sRGB;color-interpolation-filters:linearRGB;solid-color:#000000;solid-opacity:1;fill:#000000;fill-opacity:1;fill-rule:evenodd;stroke:none;stroke-width:2.99999022;stroke-linecap:butt;stroke-linejoin:miter;stroke-miterlimit:4;stroke-dasharray:none;stroke-dashoffset:0;stroke-opacity:1;color-rendering:auto;image-rendering:auto;shape-rendering:auto;text-rendering:auto;enable-background:accumulate" />
      <g
         style="display:inline;enable-background:new"
         id="g6651"
         inkscape:label="mail-attachment"
         transform="translate(-669.00037,579.00168)">
        <path
           style="color:#bebebe;display:inline;overflow:visible;visibility:visible;fill:none;stroke:none;stroke-width:2;marker:none"
           d="m 685.00037,-311.00336 16,0 0,16 -16,0 z"
           id="rect35478" />
        <path
           id="rect6613"
           d="m 453,186 c -1.64369,0 -2.99782,1.35287 -3,2.99609 l 2,0 C 452.002,188.43392 452.43722,188 453,188 c 0.56278,0 0.99793,0.43392 1,0.99609 l 2,0 C 455.99783,187.35287 454.64369,186 453,186 Z m -3,3 0,8 2,0 0,-8 -2,0 z m 4,0 0,8.5 c 0,1.39256 -1.10744,2.5 -2.5,2.5 -1.39256,0 -2.5,-1.10744 -2.5,-2.5 l 0,-7.5 -2,0 0,7.5 c 0,2.47344 2.02656,4.5 4.5,4.5 2.47344,0 4.5,-2.02656 4.5,-4.5 l 0,-8.5 -2,0 z"
           style="opacity:1;fill:#e6e6e6;fill-opacity:1;stroke:none;stroke-width:1;stroke-linecap:round;stroke-linejoin:round;stroke-miterlimit:4;stroke-dasharray:none;stroke-opacity:1"
           transform="translate(241.0002,-497)"
           inkscape:connector-curvature="0" />
      </g>
      <path
         style="color:#000000;font-style:normal;font-variant:normal;font-weight:normal;font-stretch:normal;font-size:medium;line-height:normal;font-family:sans-serif;text-indent:0;text-align:start;text-decoration:none;text-decoration-line:none;text-decoration-style:solid;text-decoration-color:#000000;letter-spacing:normal;word-spacing:normal;text-transform:none;direction:ltr;block-progression:tb;writing-mode:lr-tb;baseline-shift:baseline;text-anchor:start;white-space:normal;clip-rule:nonzero;display:inline;overflow:visible;visibility:visible;opacity:1;isolation:auto;mix-blend-mode:normal;color-interpolation:sRGB;color-interpolation-filters:linearRGB;solid-color:#000000;solid-opacity:1;fill:#e6e6e6;fill-opacity:1;fill-rule:evenodd;stroke:none;stroke-width:2;stroke-linecap:butt;stroke-linejoin:miter;stroke-miterlimit:4;stroke-dasharray:none;stroke-dashoffset:0;stroke-opacity:1;color-rendering:auto;image-rendering:auto;shape-rendering:auto;text-rendering:auto;enable-background:accumulate"
         d="m 65,262 c 0,0 -0.708752,-0.0138 -1.447266,0.35547 C 62.81422,262.72473 62,263.66667 62,265 l 0,10 2,0 0,-10 c 0,-0.66667 0.18578,-0.72473 0.447266,-0.85547 C 64.708752,264.01379 65,264 65,264 c 0,0 0.291248,0.0138 0.552734,0.14453 C 65.81422,264.27527 66,264.33333 66,265 l 0,12 c 0,0 -0.01379,0.79125 -0.394531,1.55273 C 65.224726,279.31422 64.666667,280 63,280 61.333333,280 60.775274,279.31422 60.394531,278.55273 60.013788,277.79125 60,277 60,277 l 0,-9 -2,0 0,9 c 0,0 -0.01379,1.20875 0.605469,2.44727 C 59.224726,280.68578 60.666667,282 63,282 c 2.333333,0 3.775274,-1.31422 4.394531,-2.55273 C 68.013788,278.20875 68,277 68,277 l 0,-12 c 0,-1.33333 -0.81422,-2.27527 -1.552734,-2.64453 C 65.708752,261.98621 65,262 65,262 Z"
         id="path4178"
         inkscape:connector-curvature="0" />
      <path
         style="color:#000000;font-style:normal;font-variant:normal;font-weight:normal;font-stretch:normal;font-size:medium;line-height:normal;font-family:sans-serif;text-indent:0;text-align:start;text-decoration:none;text-decoration-line:none;text-decoration-style:solid;text-decoration-color:#000000;letter-spacing:normal;word-spacing:normal;text-transform:none;direction:ltr;block-progression:tb;writing-mode:lr-tb;baseline-shift:baseline;text-anchor:start;white-space:normal;clip-rule:nonzero;display:inline;overflow:visible;visibility:visible;opacity:1;isolation:auto;mix-blend-mode:normal;color-interpolation:sRGB;color-interpolation-filters:linearRGB;solid-color:#000000;solid-opacity:1;fill:#e6e6e6;fill-opacity:1;fill-rule:evenodd;stroke:none;stroke-width:3.99998689;stroke-linecap:butt;stroke-linejoin:miter;stroke-miterlimit:4;stroke-dasharray:none;stroke-dashoffset:0;stroke-opacity:1;color-rendering:auto;image-rendering:auto;shape-rendering:auto;text-rendering:auto;enable-background:accumulate"
         d="m 172,240 c 0,0 -1.41751,-0.0276 -2.89453,0.71094 C 167.62844,241.44945 166,243.33334 166,246 l 0,20 4,0 0,-20 c 0,-1.33333 0.37156,-1.44945 0.89453,-1.71094 C 171.4175,244.02758 172,244 172,244 c 0,0 0.5825,0.0276 1.10547,0.28906 C 173.62844,244.55055 174,244.66667 174,246 l 0,24 c 0,0 -0.0276,1.5825 -0.78906,3.10547 C 172.44945,274.62844 171.33332,276 168,276 c -3.33333,0 -4.44945,-1.37156 -5.21094,-2.89453 C 162.02758,271.5825 162,270 162,270 l 0,-18 -4,0 0,18 c 0,0 -0.0276,2.41751 1.21094,4.89453 C 160.44945,277.37155 163.33335,280 168,280 c 4.66665,0 7.55055,-2.62845 8.78906,-5.10547 C 178.02757,272.41751 178,270 178,270 l 0,-24 c 0,-2.66666 -1.62845,-4.55055 -3.10547,-5.28906 C 173.41751,239.97242 172,240 172,240 Z"
         id="path4182"
         inkscape:connector-curvature="0" />
      <path
         style="color:#000000;font-style:normal;font-variant:normal;font-weight:normal;font-stretch:normal;font-size:medium;line-height:normal;font-family:sans-serif;text-indent:0;text-align:start;text-decoration:none;text-decoration-line:none;text-decoration-style:solid;text-decoration-color:#000000;letter-spacing:normal;word-spacing:normal;text-transform:none;direction:ltr;block-progression:tb;writing-mode:lr-tb;baseline-shift:baseline;text-anchor:start;white-space:normal;clip-rule:nonzero;display:inline;overflow:visible;visibility:visible;opacity:1;isolation:auto;mix-blend-mode:normal;color-interpolation:sRGB;color-interpolation-filters:linearRGB;solid-color:#000000;solid-opacity:1;fill:#e6e6e6;fill-opacity:1;fill-rule:evenodd;stroke:none;stroke-width:2.99999022;stroke-linecap:butt;stroke-linejoin:miter;stroke-miterlimit:4;stroke-dasharray:none;stroke-dashoffset:0;stroke-opacity:1;color-rendering:auto;image-rendering:auto;shape-rendering:auto;text-rendering:auto;enable-background:accumulate"
         d="m 114.5,254 c 0,0 -1.06215,-0.0207 -2.16992,0.5332 C 111.22231,255.08709 110,256.50001 110,258.5 l 0,14.5 3,0 0,-14.5 c 0,-1 0.27769,-1.08709 0.66992,-1.2832 C 114.06215,257.02068 114.5,257 114.5,257 c 0,0 0.43785,0.0207 0.83008,0.2168 C 115.72231,257.41291 116,257.5 116,258.5 l 0,16 c 0,0 -0.0207,1.18785 -0.5918,2.33008 C 114.83709,277.9723 113.99999,279 111.5,279 c -2.49999,0 -3.33709,-1.0277 -3.9082,-2.16992 C 107.02068,275.68785 107,274.5 107,274.5 l 0,-13.5 -3,0 0,13.5 c 0,0 -0.0207,1.81216 0.9082,3.66992 0.92889,1.85777 3.09181,3.83008 6.5918,3.83008 3.49999,0 5.66291,-1.97231 6.5918,-3.83008 C 119.02068,276.31216 119,274.5 119,274.5 l 0,-16 c 0,-1.99999 -1.22231,-3.41291 -2.33008,-3.9668 C 115.56215,253.97932 114.5,254 114.5,254 Z"
         id="path4184"
         inkscape:connector-curvature="0" />
      <path
         style="opacity:1;fill:#e6e6e6;fill-opacity:1;stroke:none;stroke-width:32;stroke-linecap:round;stroke-linejoin:miter;stroke-miterlimit:4;stroke-dasharray:none;stroke-opacity:1"
         d="M 496 64 C 469.408 64 448 85.408 448 112 L 448 160 L 448 368 L 480 368 L 480 160 L 480 112 C 480 103.136 487.136 96 496 96 C 504.864 96 512 103.136 512 112 L 512 160 L 512 352 L 512 384 C 512 410.592 490.592 432 464 432 C 437.408 432 416 410.592 416 384 L 416 352 L 416 160 L 384 160 L 384 368 L 384 384 C 384 428.32 419.68 464 464 464 C 508.32 464 544 428.32 544 384 L 544 352 L 544 160 L 544 112 C 544 85.408 522.592 64 496 64 z "
         transform="translate(0,-244)"
         id="rect4207" />
      <path
         style="color:#000000;font-style:normal;font-variant:normal;font-weight:normal;font-stretch:normal;font-size:medium;line-height:normal;font-family:sans-serif;text-indent:0;text-align:start;text-decoration:none;text-decoration-line:none;text-decoration-style:solid;text-decoration-color:#000000;letter-spacing:normal;word-spacing:normal;text-transform:none;direction:ltr;block-progression:tb;writing-mode:lr-tb;baseline-shift:baseline;text-anchor:start;white-space:normal;clip-rule:nonzero;display:inline;overflow:visible;visibility:visible;opacity:0.5;isolation:auto;mix-blend-mode:normal;color-interpolation:sRGB;color-interpolation-filters:linearRGB;solid-color:#000000;solid-opacity:1;fill:#ffffff;fill-opacity:1;fill-rule:evenodd;stroke:none;stroke-width:2;stroke-linecap:butt;stroke-linejoin:miter;stroke-miterlimit:4;stroke-dasharray:none;stroke-dashoffset:0;stroke-opacity:1;color-rendering:auto;image-rendering:auto;shape-rendering:auto;text-rendering:auto;enable-background:accumulate"
         d="M 65 506 C 65 506 64.291248 505.9862 63.552734 506.35547 C 62.81422 506.72473 62 507.66667 62 509 L 62 510 C 62 508.66667 62.81422 507.72473 63.552734 507.35547 C 64.291248 506.9862 65 507 65 507 C 65 507 65.708752 506.98621 66.447266 507.35547 C 67.18578 507.72473 68 508.66667 68 510 L 68 509 C 68 507.66667 67.18578 506.72473 66.447266 506.35547 C 65.708752 505.98621 65 506 65 506 z M 58 512 L 58 513 L 60 513 L 60 512 L 58 512 z M 60 521 L 60 522 C 60 522 60.013788 522.79125 60.394531 523.55273 C 60.775274 524.31422 61.333333 525 63 525 C 64.666667 525 65.224726 524.31422 65.605469 523.55273 C 65.98621 522.79125 66 522 66 522 L 66 521 C 66 521 65.98621 521.79125 65.605469 522.55273 C 65.224726 523.31422 64.666667 524 63 524 C 61.333333 524 60.775274 523.31422 60.394531 522.55273 C 60.013788 521.79125 60 521 60 521 z "
         transform="translate(0,-244)"
         id="path4232" />
      <path
         style="color:#000000;font-style:normal;font-variant:normal;font-weight:normal;font-stretch:normal;font-size:medium;line-height:normal;font-family:sans-serif;text-indent:0;text-align:start;text-decoration:none;text-decoration-line:none;text-decoration-style:solid;text-decoration-color:#000000;letter-spacing:normal;word-spacing:normal;text-transform:none;direction:ltr;block-progression:tb;writing-mode:lr-tb;baseline-shift:baseline;text-anchor:start;white-space:normal;clip-rule:nonzero;display:inline;overflow:visible;visibility:visible;opacity:0.5;isolation:auto;mix-blend-mode:normal;color-interpolation:sRGB;color-interpolation-filters:linearRGB;solid-color:#000000;solid-opacity:1;fill:#ffffff;fill-opacity:1;fill-rule:evenodd;stroke:none;stroke-width:3.99998689;stroke-linecap:butt;stroke-linejoin:miter;stroke-miterlimit:4;stroke-dasharray:none;stroke-dashoffset:0;stroke-opacity:1;color-rendering:auto;image-rendering:auto;shape-rendering:auto;text-rendering:auto;enable-background:accumulate"
         d="M 172 484 C 172 484 170.58249 483.9724 169.10547 484.71094 C 167.62844 485.44945 166 487.33334 166 490 L 166 491 C 166 488.33334 167.62844 486.44945 169.10547 485.71094 C 170.58249 484.9724 172 485 172 485 C 172 485 173.41751 484.97242 174.89453 485.71094 C 176.37155 486.44945 178 488.33334 178 491 L 178 490 C 178 487.33334 176.37155 485.44945 174.89453 484.71094 C 173.41751 483.97242 172 484 172 484 z M 158 496 L 158 497 L 162 497 L 162 496 L 158 496 z M 162 514 L 162 515 C 162 515 162.02758 516.5825 162.78906 518.10547 C 163.55055 519.62844 164.66667 521 168 521 C 171.33332 521 172.44945 519.62844 173.21094 518.10547 C 173.9724 516.5825 174 515 174 515 L 174 514 C 174 514 173.9724 515.5825 173.21094 517.10547 C 172.44945 518.62844 171.33332 520 168 520 C 164.66667 520 163.55055 518.62844 162.78906 517.10547 C 162.02758 515.5825 162 514 162 514 z "
         transform="translate(0,-244)"
         id="path4234" />
      <path
         style="color:#000000;font-style:normal;font-variant:normal;font-weight:normal;font-stretch:normal;font-size:medium;line-height:normal;font-family:sans-serif;text-indent:0;text-align:start;text-decoration:none;text-decoration-line:none;text-decoration-style:solid;text-decoration-color:#000000;letter-spacing:normal;word-spacing:normal;text-transform:none;direction:ltr;block-progression:tb;writing-mode:lr-tb;baseline-shift:baseline;text-anchor:start;white-space:normal;clip-rule:nonzero;display:inline;overflow:visible;visibility:visible;opacity:0.5;isolation:auto;mix-blend-mode:normal;color-interpolation:sRGB;color-interpolation-filters:linearRGB;solid-color:#000000;solid-opacity:1;fill:#ffffff;fill-opacity:1;fill-rule:evenodd;stroke:none;stroke-width:2.99999022;stroke-linecap:butt;stroke-linejoin:miter;stroke-miterlimit:4;stroke-dasharray:none;stroke-dashoffset:0;stroke-opacity:1;color-rendering:auto;image-rendering:auto;shape-rendering:auto;text-rendering:auto;enable-background:accumulate"
         d="M 114.5 498 C 114.5 498 113.43785 497.9793 112.33008 498.5332 C 111.22231 499.08709 110 500.50001 110 502.5 L 110 503.5 C 110 501.50001 111.22231 500.08709 112.33008 499.5332 C 113.43785 498.9793 114.5 499 114.5 499 C 114.5 499 115.56215 498.97932 116.66992 499.5332 C 117.77769 500.08709 119 501.50001 119 503.5 L 119 502.5 C 119 500.50001 117.77769 499.08709 116.66992 498.5332 C 115.56215 497.97932 114.5 498 114.5 498 z M 104 505 L 104 506 L 107 506 L 107 505 L 104 505 z M 107 518.5 L 107 519.5 C 107 519.5 107.02068 520.68785 107.5918 521.83008 C 108.16291 522.9723 109.00001 524 111.5 524 C 113.99999 524 114.83709 522.9723 115.4082 521.83008 C 115.9793 520.68785 116 519.5 116 519.5 L 116 518.5 C 116 518.5 115.9793 519.68785 115.4082 520.83008 C 114.83709 521.9723 113.99999 523 111.5 523 C 109.00001 523 108.16291 521.9723 107.5918 520.83008 C 107.02068 519.68785 107 518.5 107 518.5 z "
         transform="translate(0,-244)"
         id="path4236" />
      <path
         style="opacity:0.5;fill:#ffffff;fill-opacity:1;stroke:none;stroke-width:32;stroke-linecap:round;stroke-linejoin:miter;stroke-miterlimit:4;stroke-dasharray:none;stroke-opacity:1"
         d="M 496 64 C 469.408 64 448 85.408 448 112 L 448 114 C 448 87.408 469.408 66 496 66 C 522.592 66 544 87.408 544 114 L 544 112 C 544 85.408 522.592 64 496 64 z M 384 160 L 384 162 L 416 162 L 416 160 L 384 160 z M 416 384 L 416 386 C 416 412.592 437.408 434 464 434 C 490.592 434 512 412.592 512 386 L 512 384 C 512 410.592 490.592 432 464 432 C 437.408 432 416 410.592 416 384 z "
         transform="translate(0,-244)"
         id="path4253" />
    </g>
  </g>
</svg>
