<?xml version="1.0" encoding="UTF-8" standalone="no"?>
<!-- Created with Inkscape (http://www.inkscape.org/) -->

<svg
   xmlns:osb="http://www.openswatchbook.org/uri/2009/osb"
   xmlns:dc="http://purl.org/dc/elements/1.1/"
   xmlns:cc="http://creativecommons.org/ns#"
   xmlns:rdf="http://www.w3.org/1999/02/22-rdf-syntax-ns#"
   xmlns:svg="http://www.w3.org/2000/svg"
   xmlns="http://www.w3.org/2000/svg"
   xmlns:sodipodi="http://sodipodi.sourceforge.net/DTD/sodipodi-0.dtd"
   xmlns:inkscape="http://www.inkscape.org/namespaces/inkscape"
   inkscape:export-ydpi="90.000000"
   inkscape:export-xdpi="90.000000"
   width="600"
   height="224"
   id="svg11300"
   sodipodi:version="0.32"
   inkscape:version="0.91 r"
   sodipodi:docname="network-offline.svg"
   inkscape:output_extension="org.inkscape.output.svg.inkscape"
   version="1.0"
   style="display:inline;enable-background:new"
   inkscape:export-filename="/home/sam/paper-template.png">
  <title
     id="title3004">Paper Icon Theme Template</title>
  <sodipodi:namedview
     stroke="#ef2929"
     fill="#f57900"
     id="base"
     pagecolor="#a6a6a6"
     bordercolor="#666666"
     borderopacity="0.25490196"
     inkscape:pageopacity="0"
     inkscape:pageshadow="2"
     inkscape:zoom="1"
     inkscape:cx="351.49147"
     inkscape:cy="23.692193"
     inkscape:current-layer="layer7"
     showgrid="false"
     inkscape:grid-bbox="true"
     inkscape:document-units="px"
     inkscape:showpageshadow="false"
     inkscape:window-width="1366"
     inkscape:window-height="710"
     inkscape:window-x="0"
     inkscape:window-y="28"
     width="400px"
     height="300px"
     inkscape:snap-nodes="true"
     inkscape:snap-bbox="true"
     gridtolerance="10000"
     inkscape:object-nodes="true"
     inkscape:snap-grids="true"
     showguides="true"
     inkscape:guide-bbox="true"
     inkscape:window-maximized="1"
     inkscape:bbox-nodes="true"
     inkscape:snap-bbox-edge-midpoints="true"
     inkscape:snap-intersection-paths="true"
     inkscape:object-paths="true"
     inkscape:snap-smooth-nodes="true"
     inkscape:snap-midpoints="true"
     inkscape:snap-bbox-midpoints="true">
    <inkscape:grid
       spacingy="1px"
       spacingx="1px"
       id="grid5883"
       type="xygrid"
       enabled="true"
       visible="true"
       empspacing="4"
       snapvisiblegridlinesonly="true" />
    <inkscape:grid
       type="xygrid"
       id="grid11592"
       empspacing="2"
       visible="true"
       enabled="false"
       spacingx="0.5px"
       spacingy="0.5px"
       color="#ff0000"
       opacity="0.1254902"
       empcolor="#ff0000"
       empopacity="0.25098039"
       snapvisiblegridlinesonly="true" />
    <sodipodi:guide
       orientation="0,1"
       position="0,224"
       id="guide4275" />
  </sodipodi:namedview>
  <defs
     id="defs3">
    <linearGradient
       osb:paint="solid"
       id="linearGradient5606">
      <stop
         style="stop-color:#000000;stop-opacity:1;"
         offset="0"
         id="stop5608" />
    </linearGradient>
    <clipPath
       clipPathUnits="userSpaceOnUse"
       id="clipPath4617">
      <path
         inkscape:connector-curvature="0"
         d="m 212,237 40,0 0,28 -8,0 -4,4 -16,0 -4,-4 -8,0 z"
         id="path4619"
         sodipodi:nodetypes="ccccccccc"
         style="opacity:1;fill:#3f3f3f;fill-opacity:1;stroke:none;stroke-width:2;stroke-linecap:round;stroke-linejoin:round;stroke-miterlimit:4;stroke-dasharray:none;stroke-opacity:1" />
    </clipPath>
    <filter
       inkscape:collect="always"
       style="color-interpolation-filters:sRGB"
       id="filter4627"
       x="-0.055714286"
       width="1.1114286"
       y="-0.065"
       height="1.13">
      <feGaussianBlur
         inkscape:collect="always"
         stdDeviation="0.65"
         id="feGaussianBlur4629" />
    </filter>
    <filter
       inkscape:collect="always"
       style="color-interpolation-filters:sRGB"
       id="filter4633"
       x="-0.055714286"
       width="1.1114286"
       y="-0.065"
       height="1.13">
      <feGaussianBlur
         inkscape:collect="always"
         stdDeviation="1.3"
         id="feGaussianBlur4635" />
    </filter>
    <filter
       inkscape:collect="always"
       style="color-interpolation-filters:sRGB"
       id="filter4198"
       x="-0.0555"
       width="1.111"
       y="-0.065294118"
       height="1.1305882">
      <feGaussianBlur
         inkscape:collect="always"
         stdDeviation="0.925"
         id="feGaussianBlur4200" />
    </filter>
    <filter
       inkscape:collect="always"
       style="color-interpolation-filters:sRGB"
       id="filter4249"
       x="-0.0222"
       width="1.0444"
       y="-0.026117647"
       height="1.0522353">
      <feGaussianBlur
         inkscape:collect="always"
         stdDeviation="0.74"
         id="feGaussianBlur4251" />
    </filter>
    <filter
       inkscape:collect="always"
       style="color-interpolation-filters:sRGB"
       id="filter4253"
       x="-0.0222"
       width="1.0444"
       y="-0.026117647"
       height="1.0522353">
      <feGaussianBlur
         inkscape:collect="always"
         stdDeviation="1.48"
         id="feGaussianBlur4255" />
    </filter>
    <clipPath
       clipPathUnits="userSpaceOnUse"
       id="clipPath4301">
      <path
         sodipodi:nodetypes="ccccccccc"
         inkscape:connector-curvature="0"
         id="path4303"
         d="m 146,250 28,0 0,18 -4.48438,0 -4,4 -11.03124,0 -4,-4 L 146,268 Z"
         style="color:#000000;font-style:normal;font-variant:normal;font-weight:normal;font-stretch:normal;font-size:medium;line-height:normal;font-family:sans-serif;text-indent:0;text-align:start;text-decoration:none;text-decoration-line:none;text-decoration-style:solid;text-decoration-color:#000000;letter-spacing:normal;word-spacing:normal;text-transform:none;direction:ltr;block-progression:tb;writing-mode:lr-tb;baseline-shift:baseline;text-anchor:start;white-space:normal;clip-rule:nonzero;display:inline;overflow:visible;visibility:visible;opacity:1;isolation:auto;mix-blend-mode:normal;color-interpolation:sRGB;color-interpolation-filters:linearRGB;solid-color:#000000;solid-opacity:1;fill:#3f3f3f;fill-opacity:1;fill-rule:nonzero;stroke:none;stroke-width:12;stroke-linecap:butt;stroke-linejoin:miter;stroke-miterlimit:4;stroke-dasharray:none;stroke-dashoffset:0;stroke-opacity:1;color-rendering:auto;image-rendering:auto;shape-rendering:auto;text-rendering:auto;enable-background:accumulate" />
    </clipPath>
    <filter
       inkscape:collect="always"
       style="color-interpolation-filters:sRGB"
       id="filter4360"
       x="-0.059999999"
       width="1.12"
       y="-0.059999999"
       height="1.12">
      <feGaussianBlur
         inkscape:collect="always"
         stdDeviation="0.6"
         id="feGaussianBlur4362" />
    </filter>
    <filter
       inkscape:collect="always"
       style="color-interpolation-filters:sRGB"
       id="filter4348"
       x="-0.059999999"
       width="1.12"
       y="-0.059999999"
       height="1.12">
      <feGaussianBlur
         inkscape:collect="always"
         stdDeviation="0.85"
         id="feGaussianBlur4350" />
    </filter>
    <filter
       inkscape:collect="always"
       style="color-interpolation-filters:sRGB"
       id="filter4631"
       x="-0.059999999"
       width="1.12"
       y="-0.059999999"
       height="1.12">
      <feGaussianBlur
         inkscape:collect="always"
         stdDeviation="1.2"
         id="feGaussianBlur4633" />
    </filter>
    <filter
       inkscape:collect="always"
       style="color-interpolation-filters:sRGB"
       id="filter4375"
       x="-0.059999999"
       width="1.12"
       y="-0.059999999"
       height="1.12">
      <feGaussianBlur
         inkscape:collect="always"
         stdDeviation="2.4"
         id="feGaussianBlur4377" />
    </filter>
  </defs>
  <metadata
     id="metadata4">
    <rdf:RDF>
      <cc:Work
         rdf:about="">
        <dc:format>image/svg+xml</dc:format>
        <dc:type
           rdf:resource="http://purl.org/dc/dcmitype/StillImage" />
        <dc:creator>
          <cc:Agent>
            <dc:title>Sam Hewitt</dc:title>
          </cc:Agent>
        </dc:creator>
        <dc:source />
        <cc:license
           rdf:resource="http://creativecommons.org/licenses/by-nc-sa/3.0/" />
        <dc:title>Paper Icon Theme Template</dc:title>
        <dc:subject>
          <rdf:Bag />
        </dc:subject>
        <dc:date />
        <dc:rights>
          <cc:Agent>
            <dc:title />
          </cc:Agent>
        </dc:rights>
        <dc:publisher>
          <cc:Agent>
            <dc:title />
          </cc:Agent>
        </dc:publisher>
        <dc:identifier />
        <dc:relation />
        <dc:language />
        <dc:coverage />
        <dc:description />
        <dc:contributor>
          <cc:Agent>
            <dc:title />
          </cc:Agent>
        </dc:contributor>
      </cc:Work>
      <cc:Work
         rdf:about="">
        <dc:format>image/svg+xml</dc:format>
        <dc:type
           rdf:resource="http://purl.org/dc/dcmitype/StillImage" />
      </cc:Work>
      <cc:License
         rdf:about="http://creativecommons.org/licenses/by-nc-sa/3.0/">
        <cc:permits
           rdf:resource="http://creativecommons.org/ns#Reproduction" />
        <cc:permits
           rdf:resource="http://creativecommons.org/ns#Distribution" />
        <cc:requires
           rdf:resource="http://creativecommons.org/ns#Notice" />
        <cc:requires
           rdf:resource="http://creativecommons.org/ns#Attribution" />
        <cc:prohibits
           rdf:resource="http://creativecommons.org/ns#CommercialUse" />
        <cc:permits
           rdf:resource="http://creativecommons.org/ns#DerivativeWorks" />
        <cc:requires
           rdf:resource="http://creativecommons.org/ns#ShareAlike" />
      </cc:License>
    </rdf:RDF>
  </metadata>
  <g
     style="display:inline"
     inkscape:groupmode="layer"
     inkscape:label="Icon"
     id="layer1"
     transform="translate(0,-76)">
    <g
       style="display:none"
       inkscape:label="Baseplate"
       id="layer7"
       inkscape:groupmode="layer">
      <text
         y="59.745117"
         xml:space="preserve"
         x="15.006836"
         style="font-style:normal;font-variant:normal;font-weight:normal;font-stretch:normal;font-size:18px;font-family:'DejaVu Sans';-inkscape-font-specification:'DejaVu Sans';display:inline;fill:#000000;fill-opacity:1;stroke:none;enable-background:new"
         inkscape:label="context"
         id="context"><tspan
           style="font-style:normal;font-variant:normal;font-weight:normal;font-stretch:normal;font-family:'DejaVu Sans';-inkscape-font-specification:'DejaVu Sans'"
           y="59.745117"
           x="15.006836"
           sodipodi:role="line"
           id="tspan3933">status</tspan></text>
      <text
         y="59.745117"
         xml:space="preserve"
         x="142.48828"
         style="font-style:normal;font-variant:normal;font-weight:bold;font-stretch:normal;font-size:18px;line-height:125%;font-family:'DejaVu Sans';-inkscape-font-specification:'DejaVu Sans Bold';text-align:start;writing-mode:lr-tb;text-anchor:start;display:inline;fill:#000000;fill-opacity:1;stroke:none;enable-background:new"
         sodipodi:linespacing="125%"
         inkscape:label="icon-name"
         id="icon-name"><tspan
           style="font-style:normal;font-variant:normal;font-weight:bold;font-stretch:normal;font-size:18px;font-family:'DejaVu Sans';-inkscape-font-specification:'DejaVu Sans Bold'"
           y="59.745117"
           x="142.48828"
           sodipodi:role="line"
           id="tspan4607">network-offline</tspan></text>
      <rect
         style="display:inline;overflow:visible;visibility:visible;fill:#e9e9e9;fill-opacity:1;fill-rule:nonzero;stroke:none;stroke-width:2;marker:none;enable-background:accumulate"
         id="rect16x16"
         width="16"
         height="16"
         x="-32"
         y="268"
         inkscape:label="16x16"
         transform="scale(-1,1)" />
      <rect
         style="display:inline;overflow:visible;visibility:visible;fill:#e9e9e9;fill-opacity:1;fill-rule:nonzero;stroke:none;stroke-width:2;marker:none;enable-background:accumulate"
         id="rect24x24"
         width="24"
         height="24"
         x="-72"
         y="260"
         inkscape:label="24x24"
         transform="scale(-1,1)" />
      <rect
         style="display:inline;overflow:visible;visibility:visible;fill:#e9e9e9;fill-opacity:1;fill-rule:nonzero;stroke:none;stroke-width:2;marker:none;enable-background:accumulate"
         id="rect32x32"
         width="32"
         height="32"
         x="-120"
         y="252"
         inkscape:label="32x32"
         transform="scale(-1,1)" />
      <rect
         inkscape:label="48x48"
         y="236"
         x="-184"
         height="48"
         width="48"
         id="rect48x48"
         style="display:inline;overflow:visible;visibility:visible;fill:#e9e9e9;fill-opacity:1;fill-rule:nonzero;stroke:none;stroke-width:2;marker:none;enable-background:accumulate"
         transform="scale(-1,1)" />
      <rect
         style="display:inline;overflow:visible;visibility:visible;fill:#e9e9e9;fill-opacity:1;fill-rule:nonzero;stroke:none;stroke-width:2;marker:none;enable-background:accumulate"
         id="rect256x256"
         width="192"
         height="192"
         x="-584"
         y="92"
         inkscape:label="256x256"
         transform="scale(-1,1)" />
      <rect
         inkscape:label="256x256"
         y="188"
         x="-376"
         height="96"
         width="96"
         id="rect3949"
         style="display:inline;overflow:visible;visibility:visible;fill:#e9e9e9;fill-opacity:1;fill-rule:nonzero;stroke:none;stroke-width:2;marker:none;enable-background:accumulate"
         transform="scale(-1,1)" />
      <rect
         style="display:inline;overflow:visible;visibility:visible;fill:#e9e9e9;fill-opacity:1;fill-rule:nonzero;stroke:none;stroke-width:2;marker:none;enable-background:accumulate"
         id="rect3951"
         width="64"
         height="64"
         x="-264"
         y="220"
         inkscape:label="48x48"
         transform="scale(-1,1)" />
    </g>
    <g
       inkscape:groupmode="layer"
       id="layer6"
       inkscape:label="Symbols"
       style="display:inline">
      <path
         style="fill:#000000;fill-opacity:1;stroke:none;opacity:0.5;filter:url(#filter4249)"
         d="m 294,205 c 0,0 -6,0 -6,6 l 0,48 c 0,0 0,6 6,6 l 10,0 8,8 32,0 8,-8 10,0 c 0,0 6,0 6,-6 l 0,-48 c 0,-6 -6,-6 -6,-6 z"
         id="path4245"
         inkscape:connector-curvature="0"
         sodipodi:nodetypes="cscscccccsscc" />
      <path
         sodipodi:nodetypes="cscscccccsscc"
         inkscape:connector-curvature="0"
         id="path4247"
         d="m 420,125 c 0,0 -12,0 -12,12 l 0,96 c 0,0 0,12 12,12 l 20,0 16,16 64,0 16,-16 20,0 c 0,0 12,0 12,-12 l 0,-96 c 0,-12 -12,-12 -12,-12 z"
         style="fill:#000000;fill-opacity:1;stroke:none;opacity:0.5;filter:url(#filter4253)" />
      <path
         sodipodi:nodetypes="cscscccccsscc"
         inkscape:connector-curvature="0"
         id="path4222"
         d="m 51.5,265 c 0,0 -1.5,0 -1.5,1.5 l 0,12 c 0,0 0,1.5 1.5,1.5 l 2.5,0 2,2 8,0 2,-2 2.5,0 c 0,0 1.5,0 1.5,-1.5 l 0,-12 C 70,265 68.5,265 68.5,265 Z"
         style="fill:#000000;fill-opacity:1;stroke:#000000;opacity:0.05;stroke-opacity:1;stroke-width:2;stroke-miterlimit:4;stroke-dasharray:none" />
      <path
         style="fill:#000000;fill-opacity:1;stroke:none;opacity:0.3"
         d="m 51.5,265 c 0,0 -1.5,0 -1.5,1.5 l 0,12 c 0,0 0,1.5 1.5,1.5 l 2.5,0 2,2 8,0 2,-2 2.5,0 c 0,0 1.5,0 1.5,-1.5 l 0,-12 C 70,265 68.5,265 68.5,265 Z"
         id="path4220"
         inkscape:connector-curvature="0"
         sodipodi:nodetypes="cscscccccsscc" />
      <path
         sodipodi:nodetypes="cscscccccsscc"
         inkscape:connector-curvature="0"
         id="path4213"
         d="m 51.5,264 c 0,0 -1.5,0 -1.5,1.5 l 0,12 c 0,0 0,1.5 1.5,1.5 l 2.5,0 2,2 8,0 2,-2 2.5,0 c 0,0 1.5,0 1.5,-1.5 l 0,-12 C 70,264 68.5,264 68.5,264 Z"
         style="fill:#ebebeb;fill-opacity:1;stroke:none" />
      <path
         style="color:#000000;font-style:normal;font-variant:normal;font-weight:normal;font-stretch:normal;font-size:medium;line-height:normal;font-family:sans-serif;text-indent:0;text-align:start;text-decoration:none;text-decoration-line:none;text-decoration-style:solid;text-decoration-color:#000000;letter-spacing:normal;word-spacing:normal;text-transform:none;direction:ltr;block-progression:tb;writing-mode:lr-tb;baseline-shift:baseline;text-anchor:start;white-space:normal;clip-rule:nonzero;display:inline;overflow:visible;visibility:visible;opacity:0.4;isolation:auto;mix-blend-mode:normal;color-interpolation:sRGB;color-interpolation-filters:linearRGB;solid-color:#000000;solid-opacity:1;fill:#ffffff;fill-opacity:1;fill-rule:nonzero;stroke:none;stroke-width:12;stroke-linecap:butt;stroke-linejoin:miter;stroke-miterlimit:4;stroke-dasharray:none;stroke-dashoffset:0;stroke-opacity:1;color-rendering:auto;image-rendering:auto;shape-rendering:auto;text-rendering:auto;enable-background:accumulate"
         d="m 53,268 14,0 0,9 -2.24219,0 -2,2 -5.51562,0 -2,-2 L 53,277 Z"
         id="path4283"
         inkscape:connector-curvature="0"
         sodipodi:nodetypes="ccccccccc" />
      <path
         sodipodi:nodetypes="ccccccccc"
         inkscape:connector-curvature="0"
         id="path4215"
         d="m 53,267 14,0 0,9 -2.24219,0 -2,2 -5.51562,0 -2,-2 L 53,276 Z"
         style="color:#000000;font-style:normal;font-variant:normal;font-weight:normal;font-stretch:normal;font-size:medium;line-height:normal;font-family:sans-serif;text-indent:0;text-align:start;text-decoration:none;text-decoration-line:none;text-decoration-style:solid;text-decoration-color:#000000;letter-spacing:normal;word-spacing:normal;text-transform:none;direction:ltr;block-progression:tb;writing-mode:lr-tb;baseline-shift:baseline;text-anchor:start;white-space:normal;clip-rule:nonzero;display:inline;overflow:visible;visibility:visible;opacity:1;isolation:auto;mix-blend-mode:normal;color-interpolation:sRGB;color-interpolation-filters:linearRGB;solid-color:#000000;solid-opacity:1;fill:#3f3f3f;fill-opacity:1;fill-rule:nonzero;stroke:none;stroke-width:12;stroke-linecap:butt;stroke-linejoin:miter;stroke-miterlimit:4;stroke-dasharray:none;stroke-dashoffset:0;stroke-opacity:1;color-rendering:auto;image-rendering:auto;shape-rendering:auto;text-rendering:auto;enable-background:accumulate" />
      <path
         sodipodi:nodetypes="cscscccccsscc"
         inkscape:connector-curvature="0"
         id="path4196"
         d="m 143,245 c 0,0 -3,0 -3,3 l 0,24 c 0,0 0,3 3,3 l 5,0 4,4 16,0 4,-4 5,0 c 0,0 3,0 3,-3 l 0,-24 c 0,-3 -3,-3 -3,-3 z"
         style="fill:#000000;fill-opacity:1;stroke:none;filter:url(#filter4198);opacity:0.5" />
      <path
         style="opacity:0.5;fill:#000000;fill-opacity:1;stroke:none;stroke-width:2;stroke-linecap:round;stroke-linejoin:round;stroke-miterlimit:4;stroke-dasharray:none;stroke-opacity:1;filter:url(#filter4633)"
         sodipodi:nodetypes="cssccccccsscc"
         id="path4631"
         d="m 208,230 c 0,0 -4,0 -4,4 l 0,36 c 0,4 4,4 4,4 l 8,0 4,4 24,0 4,-4 8,0 c 0,0 4,0.51976 4,-4 l 0,-36 c 0,-4 -4,-4 -4,-4 z"
         inkscape:connector-curvature="0" />
      <path
         inkscape:connector-curvature="0"
         d="m 92,258 c 0,0 -2,0 -2,2 l 0,18 c 0,2 2,2 2,2 l 4,0 2,2 12,0 2,-2 4,0 c 0,0 2,0.25988 2,-2 l 0,-18 c 0,-2 -2,-2 -2,-2 z"
         id="path4625"
         sodipodi:nodetypes="cssccccccsscc"
         style="opacity:0.5;fill:#000000;fill-opacity:1;stroke:none;stroke-width:2;stroke-linecap:round;stroke-linejoin:round;stroke-miterlimit:4;stroke-dasharray:none;stroke-opacity:1;filter:url(#filter4627)" />
      <path
         style="opacity:1;fill:#ebebeb;fill-opacity:1;stroke:none;stroke-width:2;stroke-linecap:round;stroke-linejoin:round;stroke-miterlimit:4;stroke-dasharray:none;stroke-opacity:1"
         sodipodi:nodetypes="cssccccccsscc"
         id="path4601"
         d="m 92,257 c 0,0 -2,0 -2,2 l 0,18 c 0,2 2,2 2,2 l 4,0 2,2 12,0 2,-2 4,0 c 0,0 2,0.25988 2,-2 l 0,-18 c 0,-2 -2,-2 -2,-2 z"
         inkscape:connector-curvature="0" />
      <path
         inkscape:connector-curvature="0"
         d="m 18,270 c 0,0 -1,0 -1,1 l 0,9 c 0,1 1,1 1,1 l 2,0 1,1 6,0 1,-1 2,0 c 0,0 1,0.12994 1,-1 l 0,-9 c 0,-1 -1,-1 -1,-1 z"
         id="path6542"
         sodipodi:nodetypes="cssccccccsscc"
         style="opacity:1;fill:#ebebeb;fill-opacity:1;stroke:none;stroke-width:2;stroke-linecap:round;stroke-linejoin:round;stroke-miterlimit:4;stroke-dasharray:none;stroke-opacity:1" />
      <path
         inkscape:connector-curvature="0"
         d="m 208,229 c 0,0 -4,0 -4,4 l 0,36 c 0,4 4,4 4,4 l 8,0 4,4 24,0 4,-4 8,0 c 0,0 4,0.51976 4,-4 l 0,-36 c 0,-4 -4,-4 -4,-4 z"
         id="path4603"
         sodipodi:nodetypes="cssccccccsscc"
         style="opacity:1;fill:#ebebeb;fill-opacity:1;stroke:none;stroke-width:2;stroke-linecap:round;stroke-linejoin:round;stroke-miterlimit:4;stroke-dasharray:none;stroke-opacity:1" />
      <path
         inkscape:connector-curvature="0"
         d="m 212,238 40,0 0,28 -8,0 -4,4 -16,0 -4,-4 -8,0 z"
         id="path4285"
         sodipodi:nodetypes="ccccccccc"
         style="opacity:0.4;fill:#ffffff;fill-opacity:1;stroke:none;stroke-width:2;stroke-linecap:round;stroke-linejoin:round;stroke-miterlimit:4;stroke-dasharray:none;stroke-opacity:1" />
      <path
         style="opacity:1;fill:#3f3f3f;fill-opacity:1;stroke:none;stroke-width:2;stroke-linecap:round;stroke-linejoin:round;stroke-miterlimit:4;stroke-dasharray:none;stroke-opacity:1"
         sodipodi:nodetypes="ccccccccc"
         id="path4611"
         d="m 212,237 40,0 0,28 -8,0 -4,4 -16,0 -4,-4 -8,0 z"
         inkscape:connector-curvature="0" />
      <path
         style="opacity:0.4;fill:#ffffff;fill-opacity:1;stroke:none;stroke-width:2;stroke-linecap:round;stroke-linejoin:round;stroke-miterlimit:4;stroke-dasharray:none;stroke-opacity:1"
         sodipodi:nodetypes="ccccccccc"
         id="path4287"
         d="m 94,262 20,0 0,14 -4,0 -2,2 -8,0 -2,-2 -4,0 z"
         inkscape:connector-curvature="0" />
      <path
         inkscape:connector-curvature="0"
         d="m 94,261 20,0 0,14 -4,0 -2,2 -8,0 -2,-2 -4,0 z"
         id="path4621"
         sodipodi:nodetypes="ccccccccc"
         style="opacity:1;fill:#3f3f3f;fill-opacity:1;stroke:none;stroke-width:2;stroke-linecap:round;stroke-linejoin:round;stroke-miterlimit:4;stroke-dasharray:none;stroke-opacity:1" />
      <path
         inkscape:connector-curvature="0"
         d="m 19,273 10,0 0,7 -2,0 -1,1 -4,0 -1,-1 -2,0 z"
         id="path4289"
         sodipodi:nodetypes="ccccccccc"
         style="opacity:0.4;fill:#ffffff;fill-opacity:1;stroke:none;stroke-width:2;stroke-linecap:round;stroke-linejoin:round;stroke-miterlimit:4;stroke-dasharray:none;stroke-opacity:1" />
      <path
         style="opacity:1;fill:#3f3f3f;fill-opacity:1;stroke:none;stroke-width:2;stroke-linecap:round;stroke-linejoin:round;stroke-miterlimit:4;stroke-dasharray:none;stroke-opacity:1"
         sodipodi:nodetypes="ccccccccc"
         id="path4623"
         d="m 19,272 10,0 0,7 -2,0 -1,1 -4,0 -1,-1 -2,0 z"
         inkscape:connector-curvature="0" />
      <path
         style="opacity:0.1;fill:#ffffff;fill-opacity:1;stroke:none;stroke-width:2;stroke-linecap:round;stroke-linejoin:round;stroke-miterlimit:4;stroke-dasharray:none;stroke-opacity:1"
         d="M 92 181 C 92 181 90 181 90 183 L 90 184 C 90 182 92 182 92 182 L 116 182 C 116 182 118 182 118 184 L 118 183 C 118 181 116 181 116 181 L 92 181 z "
         transform="translate(0,76)"
         id="path4637" />
      <path
         style="opacity:0.1;fill:#ffffff;fill-opacity:1;stroke:none;stroke-width:2;stroke-linecap:round;stroke-linejoin:round;stroke-miterlimit:4;stroke-dasharray:none;stroke-opacity:1"
         d="M 208 153 C 208 153 204 153 204 157 L 204 158 C 204 154 208 154 208 154 L 256 154 C 256 154 260 154 260 158 L 260 157 C 260 153 256 153 256 153 L 208 153 z "
         transform="translate(0,76)"
         id="path4639" />
      <path
         style="fill:#ebebeb;fill-opacity:1;stroke:none"
         d="m 143,244 c 0,0 -3,0 -3,3 l 0,24 c 0,0 0,3 3,3 l 5,0 4,4 16,0 4,-4 5,0 c 0,0 3,0 3,-3 l 0,-24 c 0,-3 -3,-3 -3,-3 z"
         id="rect4203"
         inkscape:connector-curvature="0"
         sodipodi:nodetypes="cscscccccsscc" />
      <path
         sodipodi:nodetypes="ccccccccc"
         inkscape:connector-curvature="0"
         id="path4291"
         d="m 146,251 28,0 0,18 -4.48438,0 -4,4 -11.03124,0 -4,-4 L 146,269 Z"
         style="color:#000000;font-style:normal;font-variant:normal;font-weight:normal;font-stretch:normal;font-size:medium;line-height:normal;font-family:sans-serif;text-indent:0;text-align:start;text-decoration:none;text-decoration-line:none;text-decoration-style:solid;text-decoration-color:#000000;letter-spacing:normal;word-spacing:normal;text-transform:none;direction:ltr;block-progression:tb;writing-mode:lr-tb;baseline-shift:baseline;text-anchor:start;white-space:normal;clip-rule:nonzero;display:inline;overflow:visible;visibility:visible;opacity:0.4;isolation:auto;mix-blend-mode:normal;color-interpolation:sRGB;color-interpolation-filters:linearRGB;solid-color:#000000;solid-opacity:1;fill:#ffffff;fill-opacity:1;fill-rule:nonzero;stroke:none;stroke-width:12;stroke-linecap:butt;stroke-linejoin:miter;stroke-miterlimit:4;stroke-dasharray:none;stroke-dashoffset:0;stroke-opacity:1;color-rendering:auto;image-rendering:auto;shape-rendering:auto;text-rendering:auto;enable-background:accumulate" />
      <path
         style="color:#000000;font-style:normal;font-variant:normal;font-weight:normal;font-stretch:normal;font-size:medium;line-height:normal;font-family:sans-serif;text-indent:0;text-align:start;text-decoration:none;text-decoration-line:none;text-decoration-style:solid;text-decoration-color:#000000;letter-spacing:normal;word-spacing:normal;text-transform:none;direction:ltr;block-progression:tb;writing-mode:lr-tb;baseline-shift:baseline;text-anchor:start;white-space:normal;clip-rule:nonzero;display:inline;overflow:visible;visibility:visible;opacity:1;isolation:auto;mix-blend-mode:normal;color-interpolation:sRGB;color-interpolation-filters:linearRGB;solid-color:#000000;solid-opacity:1;fill:#3f3f3f;fill-opacity:1;fill-rule:nonzero;stroke:none;stroke-width:12;stroke-linecap:butt;stroke-linejoin:miter;stroke-miterlimit:4;stroke-dasharray:none;stroke-dashoffset:0;stroke-opacity:1;color-rendering:auto;image-rendering:auto;shape-rendering:auto;text-rendering:auto;enable-background:accumulate"
         d="m 146,250 28,0 0,18 -4.48438,0 -4,4 -11.03124,0 -4,-4 L 146,268 Z"
         id="path4189"
         inkscape:connector-curvature="0"
         sodipodi:nodetypes="ccccccccc" />
      <path
         style="fill:#ffffff;fill-opacity:1;stroke:none;opacity:0.1"
         d="M 143 168 C 143 168 140 168 140 171 L 140 172 C 140 169 143 169 143 169 L 177 169 C 177 169 180 169 180 172 L 180 171 C 180 168 177 168 177 168 L 143 168 z "
         transform="translate(0,76)"
         id="path4202" />
      <path
         style="fill:#ffffff;fill-opacity:1;stroke:none;opacity:0.1"
         d="M 51.5 188 C 51.5 188 50 188 50 189.5 L 50 190.5 C 50 189 51.5 189 51.5 189 L 68.5 189 C 68.5 189 70 189 70 190.5 L 70 189.5 C 70 188 68.5 188 68.5 188 L 51.5 188 z "
         transform="translate(0,76)"
         id="path4224" />
      <path
         sodipodi:nodetypes="cscscccccsscc"
         inkscape:connector-curvature="0"
         id="path4231"
         d="m 294,204 c 0,0 -6,0 -6,6 l 0,48 c 0,0 0,6 6,6 l 10,0 8,8 32,0 8,-8 10,0 c 0,0 6,0 6,-6 l 0,-48 c 0,-6 -6,-6 -6,-6 z"
         style="fill:#ebebeb;fill-opacity:1;stroke:none" />
      <path
         style="color:#000000;font-style:normal;font-variant:normal;font-weight:normal;font-stretch:normal;font-size:medium;line-height:normal;font-family:sans-serif;text-indent:0;text-align:start;text-decoration:none;text-decoration-line:none;text-decoration-style:solid;text-decoration-color:#000000;letter-spacing:normal;word-spacing:normal;text-transform:none;direction:ltr;block-progression:tb;writing-mode:lr-tb;baseline-shift:baseline;text-anchor:start;white-space:normal;clip-rule:nonzero;display:inline;overflow:visible;visibility:visible;opacity:0.4;isolation:auto;mix-blend-mode:normal;color-interpolation:sRGB;color-interpolation-filters:linearRGB;solid-color:#000000;solid-opacity:1;fill:#ffffff;fill-opacity:1;fill-rule:nonzero;stroke:none;stroke-width:12;stroke-linecap:butt;stroke-linejoin:miter;stroke-miterlimit:4;stroke-dasharray:none;stroke-dashoffset:0;stroke-opacity:1;color-rendering:auto;image-rendering:auto;shape-rendering:auto;text-rendering:auto;enable-background:accumulate"
         d="m 300,217 56,0 0,36 -8.96876,0 -8,8 -22.06248,0 -8,-8 L 300,253 Z"
         id="path4293"
         inkscape:connector-curvature="0"
         sodipodi:nodetypes="ccccccccc" />
      <path
         sodipodi:nodetypes="ccccccccc"
         inkscape:connector-curvature="0"
         id="path4233"
         d="m 300,216 56,0 0,36 -8.96876,0 -8,8 -22.06248,0 -8,-8 L 300,252 Z"
         style="color:#000000;font-style:normal;font-variant:normal;font-weight:normal;font-stretch:normal;font-size:medium;line-height:normal;font-family:sans-serif;text-indent:0;text-align:start;text-decoration:none;text-decoration-line:none;text-decoration-style:solid;text-decoration-color:#000000;letter-spacing:normal;word-spacing:normal;text-transform:none;direction:ltr;block-progression:tb;writing-mode:lr-tb;baseline-shift:baseline;text-anchor:start;white-space:normal;clip-rule:nonzero;display:inline;overflow:visible;visibility:visible;opacity:1;isolation:auto;mix-blend-mode:normal;color-interpolation:sRGB;color-interpolation-filters:linearRGB;solid-color:#000000;solid-opacity:1;fill:#3f3f3f;fill-opacity:1;fill-rule:nonzero;stroke:none;stroke-width:12;stroke-linecap:butt;stroke-linejoin:miter;stroke-miterlimit:4;stroke-dasharray:none;stroke-dashoffset:0;stroke-opacity:1;color-rendering:auto;image-rendering:auto;shape-rendering:auto;text-rendering:auto;enable-background:accumulate" />
      <path
         style="fill:#ebebeb;fill-opacity:1;stroke:none"
         d="m 420,124 c 0,0 -12,0 -12,12 l 0,96 c 0,0 0,12 12,12 l 20,0 16,16 64,0 16,-16 20,0 c 0,0 12,0 12,-12 l 0,-96 c 0,-12 -12,-12 -12,-12 z"
         id="path4237"
         inkscape:connector-curvature="0"
         sodipodi:nodetypes="cscscccccsscc" />
      <path
         sodipodi:nodetypes="ccccccccc"
         inkscape:connector-curvature="0"
         id="path4295"
         d="m 432,149 112,0 0,72 -17.93752,0 -16,16 -44.12496,0 -16,-16 L 432,221 Z"
         style="color:#000000;font-style:normal;font-variant:normal;font-weight:normal;font-stretch:normal;font-size:medium;line-height:normal;font-family:sans-serif;text-indent:0;text-align:start;text-decoration:none;text-decoration-line:none;text-decoration-style:solid;text-decoration-color:#000000;letter-spacing:normal;word-spacing:normal;text-transform:none;direction:ltr;block-progression:tb;writing-mode:lr-tb;baseline-shift:baseline;text-anchor:start;white-space:normal;clip-rule:nonzero;display:inline;overflow:visible;visibility:visible;opacity:0.4;isolation:auto;mix-blend-mode:normal;color-interpolation:sRGB;color-interpolation-filters:linearRGB;solid-color:#000000;solid-opacity:1;fill:#ffffff;fill-opacity:1;fill-rule:nonzero;stroke:none;stroke-width:12;stroke-linecap:butt;stroke-linejoin:miter;stroke-miterlimit:4;stroke-dasharray:none;stroke-dashoffset:0;stroke-opacity:1;color-rendering:auto;image-rendering:auto;shape-rendering:auto;text-rendering:auto;enable-background:accumulate" />
      <path
         style="color:#000000;font-style:normal;font-variant:normal;font-weight:normal;font-stretch:normal;font-size:medium;line-height:normal;font-family:sans-serif;text-indent:0;text-align:start;text-decoration:none;text-decoration-line:none;text-decoration-style:solid;text-decoration-color:#000000;letter-spacing:normal;word-spacing:normal;text-transform:none;direction:ltr;block-progression:tb;writing-mode:lr-tb;baseline-shift:baseline;text-anchor:start;white-space:normal;clip-rule:nonzero;display:inline;overflow:visible;visibility:visible;opacity:1;isolation:auto;mix-blend-mode:normal;color-interpolation:sRGB;color-interpolation-filters:linearRGB;solid-color:#000000;solid-opacity:1;fill:#3f3f3f;fill-opacity:1;fill-rule:nonzero;stroke:none;stroke-width:12;stroke-linecap:butt;stroke-linejoin:miter;stroke-miterlimit:4;stroke-dasharray:none;stroke-dashoffset:0;stroke-opacity:1;color-rendering:auto;image-rendering:auto;shape-rendering:auto;text-rendering:auto;enable-background:accumulate"
         d="m 432,148 112,0 0,72 -17.93752,0 -16,16 -44.12496,0 -16,-16 L 432,220 Z"
         id="path4239"
         inkscape:connector-curvature="0"
         sodipodi:nodetypes="ccccccccc" />
      <path
         style="fill:#ffffff;fill-opacity:1;stroke:none;opacity:0.1"
         d="M 294 128 C 294 128 288 128 288 134 L 288 135 C 288 129 294 129 294 129 L 362 129 C 362 129 368 129 368 135 L 368 134 C 368 128 362 128 362 128 L 294 128 z "
         transform="translate(0,76)"
         id="path4257" />
      <path
         style="fill:#ffffff;fill-opacity:1;stroke:none;opacity:0.1"
         d="M 420 48 C 420 48 408 48 408 60 L 408 61 C 408 49 420 49 420 49 L 556 49 C 556 49 568 49 568 61 L 568 60 C 568 48 556 48 556 48 L 420 48 z "
         transform="translate(0,76)"
         id="path4259" />
      <circle
         r="48"
         cy="230"
         cx="528.00037"
         id="circle4341"
         style="display:inline;opacity:0.5;fill:#000000;fill-opacity:1;fill-rule:evenodd;stroke:none;filter:url(#filter4375);enable-background:new" />
      <circle
         style="display:inline;fill:#b1b1b1;fill-opacity:1;fill-rule:evenodd;stroke:none;enable-background:new"
         id="path8382"
         cx="528.00037"
         cy="228"
         r="48" />
      <circle
         id="circle4339"
         style="display:inline;opacity:0.5;fill:#000000;fill-opacity:1;stroke:none;filter:url(#filter4348);enable-background:new"
         cx="247"
         cy="268.13333"
         r="17"
         transform="matrix(0.88235294,0,0,0.88235294,28.058824,31.411767)" />
      <circle
         r="15"
         cy="267"
         cx="246"
         style="display:inline;fill:#b1b1b1;fill-opacity:1;stroke:none;enable-background:new"
         id="circle3609" />
      <path
         inkscape:connector-curvature="0"
         id="circle4337"
         d="m 372,257.00001 a 24,24 0 0 1 -24,24 24,24 0 0 1 -24,-24 24,24 0 0 1 24,-24 24,24 0 0 1 24,24 z"
         style="display:inline;opacity:0.5;fill:#000000;fill-opacity:1;stroke:none;filter:url(#filter4631);enable-background:new" />
      <path
         inkscape:connector-curvature="0"
         id="circle4449"
         d="m 372,256.00001 a 24,24 0 0 1 -24,24 24,24 0 0 1 -24,-24 24,24 0 0 1 24,-24 24,24 0 0 1 24,24 z"
         style="display:inline;fill:#b1b1b1;fill-opacity:1;stroke:none;enable-background:new" />
      <g
         transform="matrix(2.00044,0,0,2.00044,-678.22612,278.00705)"
         style="display:inline;fill:#ffffff;fill-opacity:1;enable-background:new"
         inkscape:label="actions"
         id="g4627" />
      <circle
         id="circle4335"
         style="display:inline;opacity:0.5;fill:#000000;fill-opacity:1;stroke:none;filter:url(#filter4360);enable-background:new"
         cx="168"
         cy="271"
         r="12"
         transform="matrix(0.83333333,0,0,0.83333333,32,47.166677)" />
      <circle
         r="10"
         cy="272"
         cx="172"
         style="display:inline;fill:#b1b1b1;fill-opacity:1;stroke:none;enable-background:new"
         id="path4058" />
      <circle
         id="circle4345"
         style="display:inline;opacity:0.2;fill:#000000;fill-opacity:1;fill-rule:evenodd;stroke:none;enable-background:new"
         cx="111"
         cy="276"
         r="8" />
      <circle
         r="8"
         cy="275"
         cx="111"
         style="display:inline;fill:#b1b1b1;fill-opacity:1;fill-rule:evenodd;stroke:none;enable-background:new"
         id="circle4426" />
      <circle
         cy="278.5"
         cx="65.5"
         style="display:inline;opacity:0.2;fill:#000000;fill-opacity:1;stroke:none;stroke-width:2;enable-background:new"
         id="circle4343"
         r="5.5" />
      <circle
         r="5.5"
         id="circle7479"
         style="display:inline;fill:#b1b1b1;fill-opacity:1;stroke:none;stroke-width:2;enable-background:new"
         cx="65.5"
         cy="277.5" />
      <path
         style="opacity:0.2;fill:#000000;fill-opacity:1;stroke:none;stroke-width:2;stroke-linecap:round;stroke-linejoin:round;stroke-miterlimit:4;stroke-dasharray:none;stroke-opacity:1"
         d="M 168.46484 191.05078 L 167.05078 192.46484 L 170.58594 196 L 167.05078 199.53516 L 168.46484 200.94922 L 172 197.41406 L 175.53516 200.94922 L 176.94922 199.53516 L 173.41406 196 L 176.94922 192.46484 L 175.53516 191.05078 L 172 194.58594 L 168.46484 191.05078 z "
         transform="translate(0,76)"
         id="rect4396" />
      <path
         style="display:inline;opacity:0.2;fill:#000000;fill-opacity:1;stroke:none;stroke-width:2;stroke-linecap:round;stroke-linejoin:round;stroke-miterlimit:4;stroke-dasharray:none;stroke-opacity:1;enable-background:new"
         d="M 239.2832 182.16211 L 237.16211 184.2832 L 243.87891 191 L 237.16211 197.7168 L 239.2832 199.83789 L 246 193.12109 L 252.7168 199.83789 L 254.83789 197.7168 L 248.12109 191 L 254.83789 184.2832 L 252.7168 182.16211 L 246 188.87891 L 239.2832 182.16211 z "
         transform="translate(0,76)"
         id="rect4396-1" />
      <path
         style="display:inline;opacity:0.2;fill:#000000;fill-opacity:1;stroke:none;stroke-width:2;stroke-linecap:round;stroke-linejoin:round;stroke-miterlimit:4;stroke-dasharray:none;stroke-opacity:1;enable-background:new"
         d="M 337.39258 166.56445 L 334.56445 169.39258 L 345.17188 180 L 334.56445 190.60742 L 337.39258 193.43555 L 348 182.82812 L 358.60742 193.43555 L 361.43555 190.60742 L 350.82812 180 L 361.43555 169.39258 L 358.60742 166.56445 L 348 177.17188 L 337.39258 166.56445 z "
         transform="translate(0,76)"
         id="rect4416" />
      <path
         style="display:inline;opacity:0.2;fill:#000000;fill-opacity:1;stroke:none;stroke-width:2;stroke-linecap:round;stroke-linejoin:round;stroke-miterlimit:4;stroke-dasharray:none;stroke-opacity:1;enable-background:new"
         d="M 508.20117 126.54492 L 502.54492 132.20117 L 522.34375 152 L 502.54492 171.79883 L 508.20117 177.45508 L 528 157.65625 L 547.79883 177.45508 L 553.45703 171.79883 L 533.6582 152 L 553.45703 132.20117 L 547.79883 126.54492 L 528 146.34375 L 508.20117 126.54492 z "
         transform="translate(0,76)"
         id="rect4418" />
      <path
         style="opacity:0.2;fill:#000000;fill-opacity:1;stroke:none;stroke-width:2;stroke-linecap:round;stroke-linejoin:round;stroke-miterlimit:4;stroke-dasharray:none;stroke-opacity:1"
         d="M 63.378906 198.67188 L 62.671875 199.37891 L 64.792969 201.5 L 62.671875 203.62109 L 63.378906 204.32812 L 65.5 202.20703 L 67.621094 204.32812 L 68.328125 203.62109 L 66.207031 201.5 L 68.328125 199.37891 L 67.621094 198.67188 L 65.5 200.79297 L 63.378906 198.67188 z "
         transform="translate(0,76)"
         id="rect4449" />
      <circle
         id="circle4453"
         style="display:inline;fill:#b1b1b1;fill-opacity:1;fill-rule:evenodd;stroke:none;enable-background:new"
         cx="27.5"
         cy="279.5"
         r="4.5" />
      <path
         style="opacity:0.2;fill:#000000;fill-opacity:1;stroke:none;stroke-width:2;stroke-linecap:round;stroke-linejoin:round;stroke-miterlimit:4;stroke-dasharray:none;stroke-opacity:1"
         d="M 26.085938 201.37891 L 25.378906 202.08594 L 26.792969 203.5 L 25.378906 204.91406 L 26.085938 205.62109 L 27.5 204.20703 L 28.914062 205.62109 L 29.621094 204.91406 L 28.207031 203.5 L 29.621094 202.08594 L 28.914062 201.37891 L 27.5 202.79297 L 26.085938 201.37891 z "
         transform="translate(0,76)"
         id="rect4470" />
      <path
         style="opacity:0.2;fill:#000000;fill-opacity:1;stroke:none;stroke-width:2;stroke-linecap:round;stroke-linejoin:round;stroke-miterlimit:4;stroke-dasharray:none;stroke-opacity:1"
         d="M 108.17188 194.75781 L 106.75781 196.17188 L 109.58594 199 L 106.75781 201.82812 L 108.17188 203.24219 L 111 200.41406 L 113.82812 203.24219 L 115.24219 201.82812 L 112.41406 199 L 115.24219 196.17188 L 113.82812 194.75781 L 111 197.58594 L 108.17188 194.75781 z "
         transform="translate(0,76)"
         id="rect4451" />
    </g>
  </g>
</svg>
