<?xml version="1.0" encoding="UTF-8" standalone="no"?>
<!-- Created with Inkscape (http://www.inkscape.org/) -->

<svg
   xmlns:osb="http://www.openswatchbook.org/uri/2009/osb"
   xmlns:dc="http://purl.org/dc/elements/1.1/"
   xmlns:cc="http://creativecommons.org/ns#"
   xmlns:rdf="http://www.w3.org/1999/02/22-rdf-syntax-ns#"
   xmlns:svg="http://www.w3.org/2000/svg"
   xmlns="http://www.w3.org/2000/svg"
   xmlns:sodipodi="http://sodipodi.sourceforge.net/DTD/sodipodi-0.dtd"
   xmlns:inkscape="http://www.inkscape.org/namespaces/inkscape"
   inkscape:export-ydpi="90.000000"
   inkscape:export-xdpi="90.000000"
   width="736"
   height="544"
   id="svg11300"
   sodipodi:version="0.32"
   inkscape:version="0.91 r"
   sodipodi:docname="software-update-available.svg"
   inkscape:output_extension="org.inkscape.output.svg.inkscape"
   version="1.0"
   style="display:inline;enable-background:new"
   inkscape:export-filename="/home/sam/paper-template.png">
  <title
     id="title3004">Paper Icon Theme</title>
  <sodipodi:namedview
     stroke="#ef2929"
     fill="#f57900"
     id="base"
     pagecolor="#5c5c5c"
     bordercolor="#666666"
     borderopacity="0.25490196"
     inkscape:pageopacity="0"
     inkscape:pageshadow="2"
     inkscape:zoom="1"
     inkscape:cx="385.97766"
     inkscape:cy="277.16785"
     inkscape:current-layer="layer6"
     showgrid="false"
     inkscape:grid-bbox="true"
     inkscape:document-units="px"
     inkscape:showpageshadow="false"
     inkscape:window-width="1920"
     inkscape:window-height="1023"
     inkscape:window-x="0"
     inkscape:window-y="27"
     width="400px"
     height="300px"
     inkscape:snap-nodes="true"
     inkscape:snap-bbox="true"
     gridtolerance="10000"
     inkscape:object-nodes="true"
     inkscape:snap-grids="true"
     showguides="true"
     inkscape:guide-bbox="true"
     inkscape:window-maximized="1"
     inkscape:bbox-nodes="true"
     inkscape:snap-bbox-edge-midpoints="true"
     inkscape:snap-bbox-midpoints="true">
    <inkscape:grid
       spacingy="1px"
       spacingx="1px"
       id="grid5883"
       type="xygrid"
       enabled="true"
       visible="true"
       empspacing="4"
       snapvisiblegridlinesonly="true" />
    <inkscape:grid
       type="xygrid"
       id="grid11592"
       empspacing="2"
       visible="true"
       enabled="false"
       spacingx="0.5px"
       spacingy="0.5px"
       color="#ff0000"
       opacity="0.1254902"
       empcolor="#ff0000"
       empopacity="0.25098039"
       snapvisiblegridlinesonly="true" />
  </sodipodi:namedview>
  <defs
     id="defs3">
    <linearGradient
       osb:paint="solid"
       id="linearGradient5606">
      <stop
         style="stop-color:#000000;stop-opacity:1;"
         offset="0"
         id="stop5608" />
    </linearGradient>
    <filter
       inkscape:collect="always"
       style="color-interpolation-filters:sRGB"
       id="filter4218"
       x="-0.023999998"
       width="1.048"
       y="-0.024000002"
       height="1.048">
      <feGaussianBlur
         inkscape:collect="always"
         stdDeviation="4.6600004"
         id="feGaussianBlur4220" />
    </filter>
  </defs>
  <metadata
     id="metadata4">
    <rdf:RDF>
      <cc:Work
         rdf:about="">
        <dc:format>image/svg+xml</dc:format>
        <dc:type
           rdf:resource="http://purl.org/dc/dcmitype/StillImage" />
        <dc:creator>
          <cc:Agent>
            <dc:title>Sam Hewitt</dc:title>
          </cc:Agent>
        </dc:creator>
        <dc:source />
        <cc:license
           rdf:resource="http://creativecommons.org/licenses/by-sa/3.0/" />
        <dc:title>Paper Icon Theme</dc:title>
        <dc:subject>
          <rdf:Bag />
        </dc:subject>
        <dc:date />
        <dc:rights>
          <cc:Agent>
            <dc:title />
          </cc:Agent>
        </dc:rights>
        <dc:publisher>
          <cc:Agent>
            <dc:title />
          </cc:Agent>
        </dc:publisher>
        <dc:identifier />
        <dc:relation />
        <dc:language />
        <dc:coverage />
        <dc:description />
        <dc:contributor>
          <cc:Agent>
            <dc:title />
          </cc:Agent>
        </dc:contributor>
      </cc:Work>
      <cc:Work
         rdf:about="">
        <dc:format>image/svg+xml</dc:format>
        <dc:type
           rdf:resource="http://purl.org/dc/dcmitype/StillImage" />
      </cc:Work>
    </rdf:RDF>
  </metadata>
  <g
     style="display:inline"
     inkscape:groupmode="layer"
     inkscape:label="Icon"
     id="layer1"
     transform="translate(0,244)">
    <g
       style="display:none"
       inkscape:label="Baseplate"
       id="layer7"
       inkscape:groupmode="layer">
      <text
         y="332.48523"
         xml:space="preserve"
         x="15.006836"
         style="font-style:normal;font-variant:normal;font-weight:normal;font-stretch:normal;font-size:18px;font-family:'DejaVu Sans';-inkscape-font-specification:'DejaVu Sans';display:inline;fill:#000000;fill-opacity:1;stroke:none;enable-background:new"
         inkscape:label="context"
         id="context"><tspan
           style="font-style:normal;font-variant:normal;font-weight:normal;font-stretch:normal;font-family:'DejaVu Sans';-inkscape-font-specification:'DejaVu Sans'"
           y="332.48523"
           x="15.006836"
           sodipodi:role="line"
           id="tspan3933">status</tspan></text>
      <text
         y="332.48523"
         xml:space="preserve"
         x="142.48828"
         style="font-style:normal;font-variant:normal;font-weight:bold;font-stretch:normal;font-size:18px;line-height:125%;font-family:'DejaVu Sans';-inkscape-font-specification:'DejaVu Sans Bold';text-align:start;writing-mode:lr-tb;text-anchor:start;display:inline;fill:#000000;fill-opacity:1;stroke:none;enable-background:new"
         sodipodi:linespacing="125%"
         inkscape:label="icon-name"
         id="icon-name"><tspan
           style="font-style:normal;font-variant:normal;font-weight:bold;font-stretch:normal;font-size:18px;font-family:'DejaVu Sans';-inkscape-font-specification:'DejaVu Sans Bold'"
           y="332.48523"
           x="142.48828"
           sodipodi:role="line"
           id="tspan3937">software-update-available</tspan></text>
      <rect
         style="display:inline;overflow:visible;visibility:visible;fill:#e9e9e9;fill-opacity:1;fill-rule:nonzero;stroke:none;stroke-width:2;marker:none;enable-background:accumulate"
         id="rect16x16"
         width="16"
         height="16"
         x="-32"
         y="268"
         inkscape:label="16x16"
         transform="scale(-1,1)" />
      <rect
         style="display:inline;overflow:visible;visibility:visible;fill:#e9e9e9;fill-opacity:1;fill-rule:nonzero;stroke:none;stroke-width:2;marker:none;enable-background:accumulate"
         id="rect24x24"
         width="24"
         height="24"
         x="-76"
         y="260"
         inkscape:label="24x24"
         transform="scale(-1,1)" />
      <rect
         style="display:inline;overflow:visible;visibility:visible;fill:#e9e9e9;fill-opacity:1;fill-rule:nonzero;stroke:none;stroke-width:2;marker:none;enable-background:accumulate"
         id="rect32x32"
         width="32"
         height="32"
         x="-128"
         y="252"
         inkscape:label="32x32"
         transform="scale(-1,1)" />
      <rect
         inkscape:label="48x48"
         y="236"
         x="-192"
         height="48"
         width="48"
         id="rect48x48"
         style="display:inline;overflow:visible;visibility:visible;fill:#e9e9e9;fill-opacity:1;fill-rule:nonzero;stroke:none;stroke-width:2;marker:none;enable-background:accumulate"
         transform="scale(-1,1)" />
      <rect
         style="display:inline;overflow:visible;visibility:visible;fill:#e9e9e9;fill-opacity:1;fill-rule:nonzero;stroke:none;stroke-width:2;marker:none;enable-background:accumulate"
         id="rect3951"
         width="512"
         height="512"
         x="-720"
         y="-228"
         inkscape:label="48x48"
         transform="scale(-1,1)" />
    </g>
    <g
       inkscape:groupmode="layer"
       id="layer6"
       inkscape:label="Symbols"
       style="display:inline">
      <path
         sodipodi:nodetypes="ccccccccccccccccc"
         inkscape:connector-curvature="0"
         id="path4558"
         d="m 455.00024,-201 c -23.60912,23.29712 -46.20864,49.82128 -70.09368,73 l -89.90632,0 0,89.90624 c -23.18208,23.88576 -49.69984,46.484 -73,70.09376 23.29784,23.60976 49.81992,47.10384 73,71.06256 l 0,88.93744 89.90632,0 c 23.88568,23.18144 46.48392,49.69984 70.09368,73 23.60976,-23.29776 47.10384,-49.82048 71.06256,-73 l 88.93744,0 0,-88.9688 C 638.18104,79.07584 664.70208,55.60784 688.00032,32 664.70224,8.38992 638.18056,-14.20656 615.00024,-38.09376 l 0,-89.90624 -88.93744,0 c -23.95744,-23.18128 -47.45392,-49.70096 -71.06256,-73 z"
         style="opacity:0.2;fill:#000000;fill-opacity:1;stroke:none;filter:url(#filter4218)" />
      <path
         sodipodi:nodetypes="ccccccccccccccccc"
         inkscape:connector-curvature="0"
         id="path4419"
         d="m 455.00024,-203 c -23.60912,23.29712 -46.20864,49.82128 -70.09368,73 l -89.90632,0 0,89.90624 c -23.18208,23.88576 -49.69984,46.484 -73,70.09376 23.29784,23.60976 49.81992,47.10384 73,71.06256 l 0,88.93744 89.90632,0 c 23.88568,23.18144 46.48392,49.69984 70.09368,73 23.60976,-23.29776 47.10384,-49.82048 71.06256,-73 l 88.93744,0 0,-88.9688 C 638.18104,77.07584 664.70208,53.60784 688.00032,30 664.70224,6.38992 638.18056,-16.20656 615.00024,-40.09376 l 0,-89.90624 -88.93744,0 c -23.95744,-23.18128 -47.45392,-49.70096 -71.06256,-73 z"
         style="opacity:0.2;fill:#000000;fill-opacity:1;stroke:none;stroke-width:8;stroke-miterlimit:4;stroke-dasharray:none;stroke-opacity:1" />
      <path
         style="opacity:0.1;fill:#000000;fill-opacity:1;stroke:none;stroke-width:8;stroke-miterlimit:4;stroke-dasharray:none;stroke-opacity:1;filter:url(#filter4218)"
         d="m 455.00024,-201 c -23.60912,23.29712 -46.20864,49.82128 -70.09368,73 l -89.90632,0 0,89.90624 c -23.18208,23.88576 -49.69984,46.484 -73,70.09376 23.29784,23.60976 49.81992,47.10384 73,71.06256 l 0,88.93744 89.90632,0 c 23.88568,23.18144 46.48392,49.69984 70.09368,73 23.60976,-23.29776 47.10384,-49.82048 71.06256,-73 l 88.93744,0 0,-88.9688 C 638.18104,79.07584 664.70208,55.60784 688.00032,32 664.70224,8.38992 638.18056,-14.20656 615.00024,-38.09376 l 0,-89.90624 -88.93744,0 c -23.95744,-23.18128 -47.45392,-49.70096 -71.06256,-73 z"
         id="path4222"
         inkscape:connector-curvature="0"
         sodipodi:nodetypes="ccccccccccccccccc" />
      <path
         style="fill:#ff9800;fill-opacity:1;stroke:none"
         d="m 455.00024,-205.00016 c -23.60912,23.29712 -46.20864,49.82128 -70.09368,73 l -89.90632,0 0,89.90624 c -23.18208,23.88576 -49.69984,46.484 -73,70.09376 23.29784,23.60976 49.81992,47.10384 73,71.06256 l 0,88.93744 89.90632,0 c 23.88568,23.18144 46.48392,49.69984 70.09368,73 23.60976,-23.29776 47.10384,-49.82048 71.06256,-73 l 88.93744,0 0,-88.9688 c 23.1808,-23.95536 49.70184,-47.42336 73.00008,-71.0312 -23.29808,-23.61008 -49.81976,-46.20656 -73.00008,-70.09376 l 0,-89.90624 -88.93744,0 c -23.95744,-23.18128 -47.45392,-49.70096 -71.06256,-73 z"
         id="path4435"
         inkscape:connector-curvature="0"
         sodipodi:nodetypes="ccccccccccccccccc" />
      <path
         style="fill:#ff9800;fill-opacity:1;stroke:none"
         d="m 24.000004,268.71875 c -0.737785,0.72803 -1.44402,1.55691 -2.19043,2.28125 l -2.80957,0 0,2.80957 c -0.72444,0.74643 -1.553122,1.45263 -2.28125,2.19043 0.728056,0.7378 1.556872,1.47199 2.28125,2.2207 l 0,2.7793 2.80957,0 c 0.74643,0.72442 1.452625,1.55312 2.19043,2.28125 0.737805,-0.72805 1.471995,-1.55689 2.220705,-2.28125 l 2.779295,0 0,-2.78028 c 0.7244,-0.7486 1.55318,-1.48197 2.28125,-2.21972 -0.728065,-0.73782 -1.556865,-1.44396 -2.28125,-2.19043 l 0,-2.80957 -2.779295,0 c -0.74867,-0.72442 -1.482935,-1.55316 -2.220705,-2.28125 z"
         id="path4467"
         inkscape:connector-curvature="0"
         sodipodi:nodetypes="ccccccccccccccccc" />
      <path
         id="path4618"
         d="M 64,261.68555 60.685547,265 56,265 56,269.68555 52.685547,273 56,276.31445 56,281 60.685547,281 64,284.31445 67.314453,281 72,281 72,276.31445 75.314453,273 72,269.68555 72,265 67.314453,265 64,261.68555 Z"
         style="opacity:0.2;fill:#000000;fill-opacity:1;stroke:none;stroke-width:6;stroke-linejoin:round;stroke-miterlimit:4;stroke-dasharray:none;stroke-opacity:1"
         inkscape:connector-curvature="0" />
      <path
         style="opacity:0.2;fill:#000000;fill-opacity:1;stroke:none"
         d="m 112,254.4375 c -1.47557,1.45607 -2.88804,3.11383 -4.38086,4.5625 L 102,259 l 0,5.61914 c -1.44888,1.49286 -3.106246,2.90525 -4.562503,4.38086 1.456112,1.47561 3.113743,2.94399 4.562503,4.44141 l 0,5.55859 5.61914,0 c 1.49286,1.44884 2.90525,3.10624 4.38086,4.5625 1.47561,-1.45611 2.94399,-3.11378 4.44141,-4.5625 l 5.55859,0 0,-5.56055 c 1.4488,-1.49721 3.10636,-2.96396 4.5625,-4.43945 -1.45613,-1.47563 -3.11373,-2.88791 -4.5625,-4.38086 L 122,259 l -5.55859,0 c -1.49734,-1.44883 -2.96587,-3.10631 -4.44141,-4.5625 z"
         id="path4608"
         inkscape:connector-curvature="0"
         sodipodi:nodetypes="ccccccccccccccccc" />
      <path
         sodipodi:nodetypes="ccccccccccccccccc"
         inkscape:connector-curvature="0"
         id="path4522"
         d="m 168.00001,239.15529 c -2.21336,2.1841 -4.33206,4.67074 -6.57129,6.84375 l -8.42871,0 0,8.42871 c -2.17332,2.23929 -4.65937,4.35787 -6.84375,6.57129 2.18417,2.21341 4.67061,4.41598 6.84375,6.66211 l 0,8.33789 8.42871,0 c 2.23929,2.17326 4.35787,4.65936 6.57129,6.84375 2.21341,-2.18417 4.41598,-4.67067 6.66211,-6.84375 l 8.33789,0 0,-8.34083 c 2.1732,-2.24581 4.65954,-4.44594 6.84375,-6.65917 -2.1842,-2.21345 -4.6706,-4.33187 -6.84375,-6.57129 l 0,-8.42871 -8.33789,0 c -2.24601,-2.17325 -4.4488,-4.65947 -6.66211,-6.84375 z"
         style="opacity:0.2;fill:#000000;fill-opacity:1;stroke:none" />
      <path
         style="opacity:1;fill:#ff9800;fill-opacity:1;stroke:none;stroke-width:6;stroke-linejoin:round;stroke-miterlimit:4;stroke-dasharray:none;stroke-opacity:1"
         d="M 64,260.68555 60.685547,264 56,264 56,268.68555 52.685547,272 56,275.31445 56,280 60.685547,280 64,283.31445 67.314453,280 72,280 72,275.31445 75.314453,272 72,268.68555 72,264 67.314453,264 64,260.68555 Z"
         id="rect4479"
         inkscape:connector-curvature="0" />
      <path
         style="fill:#ff9800;fill-opacity:1;stroke:none"
         d="m 168.00001,238.15529 c -2.21336,2.1841 -4.33206,4.67074 -6.57129,6.84375 l -8.42871,0 0,8.42871 c -2.17332,2.23929 -4.65937,4.35787 -6.84375,6.57129 2.18417,2.21341 4.67061,4.41598 6.84375,6.66211 l 0,8.33789 8.42871,0 c 2.23929,2.17326 4.35787,4.65936 6.57129,6.84375 2.21341,-2.18417 4.41598,-4.67067 6.66211,-6.84375 l 8.33789,0 0,-8.34083 c 2.1732,-2.24581 4.65954,-4.44594 6.84375,-6.65917 -2.1842,-2.21345 -4.6706,-4.33187 -6.84375,-6.57129 l 0,-8.42871 -8.33789,0 c -2.24601,-2.17325 -4.4488,-4.65947 -6.66211,-6.84375 z"
         id="path4443"
         inkscape:connector-curvature="0"
         sodipodi:nodetypes="ccccccccccccccccc" />
      <path
         sodipodi:nodetypes="ccccccccccccccccc"
         inkscape:connector-curvature="0"
         id="rect3762"
         d="m 112,253.4375 c -1.47557,1.45607 -2.88804,3.11383 -4.38086,4.5625 L 102,258 l 0,5.61914 c -1.44888,1.49286 -3.106246,2.90525 -4.562503,4.38086 1.456112,1.47561 3.113743,2.94399 4.562503,4.44141 l 0,5.55859 5.61914,0 c 1.49286,1.44884 2.90525,3.10624 4.38086,4.5625 1.47561,-1.45611 2.94399,-3.11378 4.44141,-4.5625 l 5.55859,0 0,-5.56055 c 1.4488,-1.49721 3.10636,-2.96396 4.5625,-4.43945 -1.45613,-1.47563 -3.11373,-2.88791 -4.5625,-4.38086 L 122,258 l -5.55859,0 c -1.49734,-1.44883 -2.96587,-3.10631 -4.44141,-4.5625 z"
         style="fill:#ff9800;fill-opacity:1;stroke:none" />
      <path
         inkscape:connector-curvature="0"
         id="path4507"
         d="m 168.00001,238.15626 c -2.21336,2.18411 -4.33108,4.67074 -6.57031,6.84375 l -8.42969,0 0,1 8.42969,0 c 2.23923,-2.17301 4.35695,-4.65965 6.57031,-6.84375 2.21331,2.18428 4.4161,4.6705 6.66211,6.84375 l 8.33789,0 0,-1 -8.33789,0 c -2.24601,-2.17325 -4.4488,-4.65946 -6.66211,-6.84375 z m -15,15.27148 c -2.17332,2.23929 -4.65936,4.35885 -6.84375,6.57227 0.16522,0.16743 0.34136,0.33463 0.50977,0.50195 2.05813,-2.03393 4.325,-4.00425 6.33398,-6.07422 l 0,-1 z m 30,0 0,1 c 2.00883,2.07009 4.27595,4.04029 6.33398,6.07422 0.16841,-0.16729 0.34455,-0.33454 0.50977,-0.50195 -2.1842,-2.21345 -4.67059,-4.33284 -6.84375,-6.57227 z"
         style="opacity:0.2;fill:#ffffff;fill-opacity:1;stroke:none" />
      <path
         style="opacity:0.2;fill:#ffffff;fill-opacity:1;stroke:none"
         d="M 455 39 C 431.39088 62.29712 408.79129 88.82128 384.90625 112 L 295 112 L 295 114 L 384.90625 114 C 408.79129 90.82128 431.39088 64.29712 455 41 C 478.60864 64.29904 502.10506 90.81872 526.0625 114 L 615 114 L 615 112 L 526.0625 112 C 502.10506 88.81872 478.60864 62.29904 455 39 z M 295 201.90625 C 271.81792 225.79201 245.30016 248.39024 222 272 C 222.32605 272.33043 222.67105 272.6601 223.00586 272.99023 C 246.06251 249.7457 272.14902 227.45086 295 203.90625 L 295 201.90625 z M 615 201.90625 L 615 203.90625 C 637.84925 227.45228 663.93937 249.74544 686.99414 272.99023 C 687.32895 272.66009 687.67393 272.33039 688 272 C 664.70192 248.38992 638.18032 225.79345 615 201.90625 z "
         transform="translate(0,-244)"
         id="path4528" />
      <path
         style="opacity:0.2;fill:#ffffff;fill-opacity:1;stroke:none;stroke-width:6;stroke-linejoin:round;stroke-miterlimit:4;stroke-dasharray:none;stroke-opacity:1"
         d="M 64,260.68555 60.685547,264 56,264 l 0,1 4.685547,0 L 64,261.68555 67.314453,265 72,265 72,264 67.314453,264 64,260.68555 Z m -8,8 -3.314453,3.31445 0.5,0.5 L 56,269.68555 l 0,-1 z m 16,0 0,1 2.814453,2.81445 0.5,-0.5 L 72,268.68555 Z"
         id="path4543"
         inkscape:connector-curvature="0" />
      <path
         style="opacity:0.2;fill:#ffffff;fill-opacity:1;stroke:none"
         d="m 112,253.4375 c -1.47557,1.45607 -2.88804,3.11383 -4.38086,4.5625 L 102,258 l 0,1 5.61914,0 c 1.49282,-1.44867 2.90529,-3.10643 4.38086,-4.5625 1.47554,1.45619 2.94407,3.11367 4.44141,4.5625 l 5.55859,0 0,-1 -5.55859,0 c -1.49734,-1.44883 -2.96587,-3.10631 -4.44141,-4.5625 z m -10,10.18164 c -1.44888,1.49286 -3.106243,2.90525 -4.5625,4.38086 0.165725,0.16794 0.34919,0.3361 0.519531,0.50391 1.326534,-1.29676 2.758809,-2.56163 4.042969,-3.88477 l 0,-1 z m 20,0 0,1 c 1.28406,1.32322 2.71648,2.58801 4.04297,3.88477 0.17041,-0.16784 0.35373,-0.33591 0.51953,-0.50391 -1.45613,-1.47563 -3.11373,-2.88791 -4.5625,-4.38086 z"
         id="path4545"
         inkscape:connector-curvature="0" />
      <path
         style="opacity:0.1;fill:#ffffff;fill-opacity:1;stroke:none"
         d="M 24,192.71875 C 23.262215,193.44678 22.556957,194.27566 21.810547,195 L 19,195 l 0,1 2.810547,0 c 0.74641,-0.72434 1.451668,-1.55322 2.189453,-2.28125 0.73777,0.72809 1.472033,1.55683 2.220703,2.28125 L 29,196 l 0,-1 -2.779297,0 C 25.472033,194.27558 24.73777,193.44684 24,192.71875 Z m -5,5.08984 c -0.72444,0.74643 -1.553122,1.45361 -2.28125,2.19141 0.165194,0.16741 0.344406,0.33666 0.517578,0.50391 0.590091,-0.56222 1.203555,-1.1182 1.763672,-1.69532 l 0,-1 z m 10,0 0,1 c 0.559751,0.57682 1.17193,1.13344 1.761719,1.69532 C 30.935313,200.33634 31.115661,200.16779 31.28125,200 30.553185,199.26218 29.724385,198.55506 29,197.80859 Z"
         transform="translate(0,76)"
         id="path4547"
         inkscape:connector-curvature="0" />
      <g
         id="layer9"
         inkscape:label="status"
         style="display:inline"
         transform="translate(-389.0002,642.94141)">
        <path
           inkscape:connector-curvature="0"
           d="m 415.5002,-366.94146 -1.5,0 0,4.00005 -2,0 0,-4 -1.5,0 c 0.0764,-0.10405 2.5,-4 2.5,-4 z"
           id="path6775"
           style="fill:#ffffff;fill-opacity:1;stroke:none"
           sodipodi:nodetypes="cccccccc" />
      </g>
      <g
         transform="matrix(2,0,0,2,-714.0004,1000.8828)"
         style="display:inline"
         inkscape:label="status"
         id="g4411">
        <path
           sodipodi:nodetypes="cccccccc"
           style="fill:#ffffff;fill-opacity:1;stroke:none"
           id="path4413"
           d="m 415.5002,-366.9414 -1.5,-5e-5 0,3.00005 -2,0 0,-3 -1.5,0 2.5,-3.00002 z"
           inkscape:connector-curvature="0" />
      </g>
      <path
         inkscape:connector-curvature="0"
         d="M 523.99939,19.99979 488,20 l 0,104 -64,0 0,-104 -35.3682,10e-5 L 456,-72 Z"
         id="path4433"
         style="fill:#ffffff;fill-opacity:1;stroke:none"
         sodipodi:nodetypes="cccccccc" />
      <path
         sodipodi:nodetypes="cccccccc"
         style="fill:#ffffff;fill-opacity:1;stroke:none"
         id="path4427"
         d="m 174.5,259 -3.5,-10e-6 0,10.00013 -6,-1.3e-4 0,-10 -3.5,10e-6 6.5,-9 z"
         inkscape:connector-curvature="0" />
      <path
         inkscape:connector-curvature="0"
         d="m 67.666639,272.00007 -1.66664,-8e-5 0,4.00002 -4,-5e-5 0,-3.99997 -1.66664,0 3.66664,-4.49999 z"
         id="path4429"
         style="fill:#ffffff;fill-opacity:1;stroke:none"
         sodipodi:nodetypes="cccccccc" />
    </g>
  </g>
</svg>
