<?xml version="1.0" encoding="UTF-8" standalone="no"?>
<svg xmlns="http://www.w3.org/2000/svg" xmlns:sodipodi="http://sodipodi.sourceforge.net/DTD/sodipodi-0.dtd" xmlns:inkscape="http://www.inkscape.org/namespaces/inkscape" width="22" height="22" version="1.1">
 <metadata id="metadata3401"/>
 <g id="layer1" inkscape:label="Layer 1" inkscape:groupmode="layer" transform="translate(0,6)">
  <path inkscape:connector-curvature="0" d="m 12,-1 c -0.554,0 -1,0.446 -1,1 0,0.0109 -3.4e-4,0.0205 0,0.0312 C 9.27201,0.47932 8,2 8,4 8,6.00524 8.00069,10 6.21875,10 6.10004,10 6,10.1115 6,10.25 l 0,0.75 2,0 2,0 4,0 2,0 2,0 0,-0.75 C 18,10.1115 17.89996,10 17.78125,10 15.99234,10 16,6.00488 16,4 16,2 14.72799,0.47932 13,0.03125 c 3.4e-4,-0.0108 0,-0.0205 0,-0.0312 0,-0.554 -0.446,-1 -1,-1 z m -1.71875,13 c 0.34604,0.5969 0.97915,1 1.71875,1 0.7396,0 1.37271,-0.4031 1.71875,-1 l -3.4375,0 z" id="path4178" fill="#dbdee0" color="#000000" stroke-width="4"/>
 </g>
</svg>
