<?xml version="1.0" encoding="UTF-8" standalone="no"?>
<svg xmlns="http://www.w3.org/2000/svg" xmlns:sodipodi="http://sodipodi.sourceforge.net/DTD/sodipodi-0.dtd" xmlns:inkscape="http://www.inkscape.org/namespaces/inkscape" width="22" height="22" version="1.1">
 <metadata id="metadata3401"/>
 <g id="layer1" inkscape:label="Layer 1" inkscape:groupmode="layer" transform="translate(0,8)">
  <path sodipodi:nodetypes="sscsssssssscsss" inkscape:connector-curvature="0" d="M 4.5,-4 C 4.223,-4 4,-3.777 4,-3.5 L 4,-3 2.5,-3 C 2.223,-3 2,-2.777 2,-2.5 l 0,14 C 2,11.777 2.223,12 2.5,12 l 6,0 C 8.777,12 9,11.777 9,11.5 l 0,-14 C 9,-2.777 8.777,-3 8.5,-3 L 7,-3 7,-3.5 C 7,-3.777 6.777,-4 6.5,-4 z" id="path2991" opacity="0.35" fill="#e74c3c" stroke-linejoin="round" stroke-linecap="round" color="#bebebe" stroke-width="0"/>
  <path id="rect6337" d="m 16,-4 c -2.77,0 -5,2.676 -5,6 l 5,0 z m 1,0 0,6 5,0 c 0,-3.324 -2.23,-6 -5,-6 z m -6,7 0,3 c 0,3.324 2.23,6 5,6 l 1,0 c 2.77,0 5,-2.676 5,-6 l 0,-3 -5,0 0,0 z" inkscape:connector-curvature="0" sodipodi:nodetypes="cccccccccsssscccc" fill="#dbdee0"/>
 </g>
</svg>
