<?xml version="1.0" encoding="UTF-8" standalone="no"?>
<svg xmlns="http://www.w3.org/2000/svg" xmlns:sodipodi="http://sodipodi.sourceforge.net/DTD/sodipodi-0.dtd" xmlns:inkscape="http://www.inkscape.org/namespaces/inkscape" version="1.0" width="22" height="22">
 <metadata id="metadata12"/>
 <path sodipodi:nodetypes="ssccccccccccccssssccss" inkscape:connector-curvature="0" id="path3767" d="m 17,13 c -1.108,0 -2,0.91081 -2,2.03125 L 15,16 l -1,0 0,1 0,2 0,1 1,0 4,0 1,0 0,-1 0,-2 0,-1 -1,0 0,-0.96875 C 19,13.91125 18.108,13 17,13 z m 0,1 c 0.554,0 1,0.44236 1,1 l 0,1 -2,0 0,-1 c 0,-0.55764 0.446,-1 1,-1 z" fill="#dbdee0"/>
</svg>
