<svg xmlns="http://www.w3.org/2000/svg" enable-background="new" viewBox="0 0 16 16"><defs><filter color-interpolation-filters="sRGB"><feBlend in2="BackgroundImage" mode="darken"/></filter></defs><path d="m448 22c-1.108 0-2 .892-2 2v10c0 1.108.892 2 2 2h10c1.108 0 2-.892 2-2v-10c0-1.108-.892-2-2-2h-10m5 2.99c2.209 0 4 1.791 4 4v.5c0 .828-.672 1.5-1.5 1.5-.443 0-.863-.196-1.148-.535-.356.329-.828.535-1.352.535-1.105 0-2-.895-2-2 0-1.105.895-2 2-2 1.105 0 2 .895 2 2v.5c0 .276.224.5.5.5.276 0 .5-.224.5-.5v-.5c0-1.657-1.343-3-3-3-1.657 0-3 1.343-3 3 0 1.657 1.343 3 3 3h2.5c0 0 .5 0 .5.5-.031.5-.5.5-.5.5h-2.5c-2.209 0-4-1.791-4-4 0-2.209 1.791-4 4-4m0 3c-.552 0-1 .448-1 1 0 .552.448 1 1 1 .552 0 1-.448 1-1 0-.552-.448-1-1-1" fill="#000" opacity="0.5" transform="translate(-445-20.99)"/></svg>