<svg xmlns="http://www.w3.org/2000/svg" enable-background="new" viewBox="0 0 16 16"><defs><filter color-interpolation-filters="sRGB"><feBlend in2="BackgroundImage" mode="darken"/></filter></defs><path d="m491.19 101.72l-.154 1.844a5.5 5.5 0 0 0 -1.60742 .92969l-1.676-.789-1.75 3.03 1.521 1.057a5.5 5.5 0 0 0 -.084 .92773 5.5 5.5 0 0 0 .0801 .93164l-1.518 1.053 1.75 3.03 1.672-.787a5.5 5.5 0 0 0 1.61132 .92382l.154 1.848h3.5l.154-1.844a5.5 5.5 0 0 0 1.60742 -.92969l1.676.789 1.75-3.03-1.521-1.057a5.5 5.5 0 0 0 .084 -.92773 5.5 5.5 0 0 0 -.0801 -.93164l1.518-1.053-1.75-3.03-1.672.787a5.5 5.5 0 0 0 -1.61132 -.92382l-.154-1.848h-3.5m1.75 5a2 2 0 0 1 2 2 2 2 0 0 1 -2 2 2 2 0 0 1 -2 -2 2 2 0 0 1 2 -2" fill="#000" opacity="0.5" transform="translate(-484.94-100.72)"/></svg>