<?xml version='1.0' encoding='UTF-8' standalone='no'?>
<svg height="16" xmlns:inkscape="http://www.inkscape.org/namespaces/inkscape" xmlns:sodipodi="http://sodipodi.sourceforge.net/DTD/sodipodi-0.dtd" version="1.1" width="16" xmlns="http://www.w3.org/2000/svg" enable-background="new">
 <metadata id="metadata90"/>
 <defs id="defs7386">
  <linearGradient id="linearGradient5606" osb:paint="solid">
   <stop id="stop5608"/>
  </linearGradient>
  <filter inkscape:collect="always" color-interpolation-filters="sRGB" id="filter7554">
   <feBlend inkscape:collect="always" id="feBlend7556" in2="BackgroundImage" mode="darken"/>
  </filter>
 </defs>
 <g inkscape:groupmode="layer" id="layer12" inkscape:label="actions" transform="translate(-425.00061,18.003361)">
  <g id="g9075" transform="translate(425.0006,-18.01009)">
   <path inkscape:connector-curvature="0" d="M 206.84375,456 C 206.5625,456.04688 206,456.25 206,457 l 0,9 0,3 c 0,1 1,1 1,1 l 6,0 0,-2 -5,0 0,-10 8,0 0,6 2,0 0,-7 c 0,-1 -1,-1 -1,-1 l -10,0 c 0,0 -0.0625,-0.0156 -0.15625,0 z" id="path9077" sodipodi:nodetypes="cscsccccccccsccc" transform="matrix(1,0,0,-1,-204.0004,470.99328)" fill="#ffffff" color="#ffffff"/>
  </g>
  <path inkscape:connector-curvature="0" d="m 437.00042,-11.99663 0,-2 -2,0 0,-2 2,0 0,-2 3.99998,3.00634 z" id="path6654" sodipodi:nodetypes="cccccccc" fill="#ffffff"/>
 </g>
</svg>
