<svg xmlns="http://www.w3.org/2000/svg" enable-background="new" viewBox="0 0 16 16"><defs><filter color-interpolation-filters="sRGB"><feBlend in2="BackgroundImage" mode="darken"/></filter></defs><path d="m513-16c-1.551.015-3.112.369-4.463 1.135-.538.351-1.185.803-1.672 1.26-.766.75-1.423 1.626-1.865 2.605 1.215 2.68 3.886 4.644 6.824 4.934 1.927.218 3.944-.115 5.639-1.068.538-.351 1.185-.803 1.672-1.26.766-.75 1.423-1.626 1.865-2.605-1.215-2.679-3.886-4.644-6.824-4.934-.39-.045-.783-.066-1.176-.066m0 2c1.607-.036 3.03 1.402 3 3 .052 1.766-1.709 3.291-3.449 2.961-1.758-.206-2.992-2.178-2.414-3.848.369-1.229 1.576-2.129 2.863-2.113m0 2a1 1 0 0 0 -1 1 1 1 0 0 0 1 1 1 1 0 0 0 1 -1 1 1 0 0 0 -1 -1" fill="#000" opacity="0.5" fill-rule="evenodd" transform="translate(-505 19)"/></svg>