<?xml version='1.0' encoding='UTF-8' standalone='no'?>
<svg height="16" xmlns:inkscape="http://www.inkscape.org/namespaces/inkscape" xmlns:sodipodi="http://sodipodi.sourceforge.net/DTD/sodipodi-0.dtd" version="1.1" width="16" xmlns="http://www.w3.org/2000/svg" enable-background="new">
 <metadata id="metadata90"/>
 <defs id="defs7386">
  <linearGradient id="linearGradient5606" osb:paint="solid">
   <stop id="stop5608"/>
  </linearGradient>
  <filter inkscape:collect="always" color-interpolation-filters="sRGB" id="filter7554">
   <feBlend inkscape:collect="always" id="feBlend7556" in2="BackgroundImage" mode="darken"/>
  </filter>
 </defs>
 <g inkscape:groupmode="layer" id="layer12" inkscape:label="actions" transform="translate(-485.0004,18.003359)">
  <path inkscape:connector-curvature="0" d="m 485.0004,-13.010088 v 7 h 12.02 z m 2,3.0536 3.1156,1.9776 h -3.1156 z" id="path3757-2" fill="#ffffff"/>
  <path inkscape:connector-curvature="0" d="m 488.0002,-17 c 0,0 -1,0 -1,1 l 0,2.75 2,1.15625 0,-2.90625 8,0 0,7.96875 0,0.0312 0,2 -8,0 -2,0 0,1 c 0,1 1,1 1,1 l 10,0 c 0,0 1,0 1,-1 l 0,-3 0,-9 c 0,-1 -1,-1 -1,-1 z" id="path9002" sodipodi:nodetypes="cscccccccccsccscscc" fill="#ffffff" color="#ffffff"/>
 </g>
</svg>
