<svg xmlns="http://www.w3.org/2000/svg" enable-background="new" viewBox="0 0 16 16"><defs><filter color-interpolation-filters="sRGB"><feBlend in2="BackgroundImage" mode="darken"/></filter></defs><g transform="translate(-485 59.01)" fill="#000" opacity="0.5"><path d="m489-58.01v2h8v-2zm-2 3c-.5 0-1 .5-1 1v4c0 .5.5 1 1 1h1v-2h5.125c.663-.633 1.551-1.031 2.531-1.031 1.782 0 3.291 1.28 3.625 2.969.393-.137.719-.531.719-.938v-4c0-.5-.5-1-1-1zm2 5v5h5.094c-1.254-.591-2.125-1.875-2.125-3.344 0-.595.152-1.156.406-1.656z"/><path d="m495.66-51.07c-1.496 0-2.719 1.223-2.719 2.719 0 1.496 1.223 2.719 2.719 2.719.487 0 .947-.148 1.344-.375a.750075 .750075 0 0 0 .15625 .21875l1.844 1.813a.751301 .751301 0 1 0 1.0625 -1.0625l-1.844-1.813a.750075 .750075 0 0 0 -.21875 -.15625c.227-.396.375-.857.375-1.344 0-1.496-1.223-2.719-2.719-2.719m0 1c.955 0 1.719.764 1.719 1.719 0 .955-.764 1.719-1.719 1.719-.955 0-1.719-.764-1.719-1.719 0-.955.764-1.719 1.719-1.719" color="#000"/></g></svg>