<svg xmlns="http://www.w3.org/2000/svg" enable-background="new" viewBox="0 0 16 16"><defs><filter color-interpolation-filters="sRGB"><feBlend in2="BackgroundImage" mode="darken"/></filter></defs><g transform="translate(-325 20.02)" fill="#000" opacity="0.5"><path d="m330.99-19l.01 6h-2.342l3.34 4.861v-1.986c0-1.01.901-1.844 1.875-1.844h2.783l.717-1.031h-2.375l-.01-6h-3.998"/><path d="m326-5.988v1.969h6.258c-.156-.265-.256-.564-.256-.887v-1.082h-6m13 0v.926h1l-.002-.926h-.998"/><path d="m340.13-10.969c.492 0 .875.356.875.844v5.219c0 .488-.383.844-.875.844h-6.25c-.492 0-.875-.356-.875-.844v-5.219c0-.488.383-.844.875-.844zm-2.125 4.969h-1v-3h1v-1h-3v1h1v3h-1v1h3z" color="#555"/></g></svg>