<?xml version='1.0' encoding='UTF-8' standalone='no'?>
<svg height="16" xmlns:inkscape="http://www.inkscape.org/namespaces/inkscape" xmlns:sodipodi="http://sodipodi.sourceforge.net/DTD/sodipodi-0.dtd" version="1.1" width="16" xmlns="http://www.w3.org/2000/svg" enable-background="new">
 <metadata id="metadata90"/>
 <defs id="defs7386">
  <linearGradient id="linearGradient5606" osb:paint="solid">
   <stop id="stop5608"/>
  </linearGradient>
  <filter inkscape:collect="always" color-interpolation-filters="sRGB" id="filter7554">
   <feBlend inkscape:collect="always" id="feBlend7556" in2="BackgroundImage" mode="darken"/>
  </filter>
 </defs>
 <g inkscape:groupmode="layer" id="layer12" inkscape:label="actions" transform="translate(-385.0004,19.00336)">
  <path inkscape:connector-curvature="0" d="m 393.03164,-17.94088 c -3.8533,0 -6.96875,3.11545 -6.96875,6.96875 0,3.8533 3.11545,6.96875 6.96875,6.96875 3.8533,0 6.96875,-3.11545 6.96875,-6.96875 0,-3.8533 -3.11545,-6.96875 -6.96875,-6.96875 z M 390.0002,-14 l 1,0 c 0.27614,0 0.53779,0.10028 0.71875,0.28125 l 1.28144,1.27787 1.28106,-1.27787 C 394.46241,-13.89972 394.72406,-14 395.0002,-14 l 1,0 0,1 c 0,0.27614 -0.10029,0.53778 -0.28125,0.71875 l -1.28106,1.27787 1.28106,1.28463 c 0.18096,0.18097 0.28262,0.44261 0.28125,0.71875 l 0,1 -1,0 c -0.27614,0 -0.53779,-0.10028 -0.71875,-0.28125 l -1.28106,-1.28463 -1.28144,1.28463 C 391.53799,-8.10028 391.27634,-8 391.0002,-8 l -1,0 0,-1 c 0,-0.27614 0.10029,-0.53778 0.28125,-0.71875 l 1.28144,-1.28463 -1.28144,-1.27787 C 390.10049,-12.46222 390.0002,-12.72386 390.0002,-13 z" id="path10839-3-4" sodipodi:nodetypes="ssssscscccscscccscscccscscccsc" fill="#ffffff" color="#ffffff"/>
 </g>
</svg>
