<svg xmlns="http://www.w3.org/2000/svg" enable-background="new" viewBox="0 0 16 16"><defs><filter color-interpolation-filters="sRGB"><feBlend in2="BackgroundImage" mode="darken"/></filter></defs><path d="m313 1c-1.105 0-2 .895-2 2h-3c-1 0-1 1-1 1v11c0 1 1 1 1 1h10c0 0 1 0 1-1v-11c0-1-1-1-1-1h-3c0-.138-.005-.276-.031-.406-.187-.911-1-1.594-1.969-1.594m0 1c.414 0 .754.266.906.625.051.12.094.237.094.375 0 .552-.448 1-1 1-.552 0-1-.448-1-1 0-.552.448-1 1-1m-4 3h1v1h6v-1h1v9h-8v-9" fill="#000" opacity="0.5" color="#000" transform="translate(-305-.997)"/></svg>