<?xml version='1.0' encoding='UTF-8' standalone='no'?>
<svg height="16" xmlns:inkscape="http://www.inkscape.org/namespaces/inkscape" xmlns:sodipodi="http://sodipodi.sourceforge.net/DTD/sodipodi-0.dtd" version="1.1" width="16" xmlns="http://www.w3.org/2000/svg" enable-background="new">
 <metadata id="metadata90"/>
 <defs id="defs7386">
  <linearGradient id="linearGradient5606" osb:paint="solid">
   <stop id="stop5608"/>
  </linearGradient>
  <filter inkscape:collect="always" color-interpolation-filters="sRGB" id="filter7554">
   <feBlend inkscape:collect="always" id="feBlend7556" in2="BackgroundImage" mode="darken"/>
  </filter>
 </defs>
 <g inkscape:groupmode="layer" id="layer12" inkscape:label="actions" transform="translate(-446.00043,-19.989926)">
  <path inkscape:connector-curvature="0" d="m 447.84395,21 c -0.28125,0.04688 -0.84375,0.25 -0.84375,1 l 0,11 c 0,0 0,1 1,1 l 12,0 c 0,0 1,0 1,-1 l 0,-9 c 0,-1 -1,-1 -1,-1 l -5,0 -2,-2 -5,0 c 0,0 -0.0625,-0.0156 -0.15625,0 z m 5.15625,4 2,0 0,2 2,0 0,2 -2,0 0,2 -2,0 0,-2 -2,0 0,-2 2,0 0,-2 z" id="path5986" color="#000000" stroke-width="2" fill="#000000" opacity="0.5"/>
 </g>
</svg>
