<?xml version="1.0" encoding="UTF-8" standalone="no"?>
<svg
   xmlns:osb="http://www.openswatchbook.org/uri/2009/osb"
   xmlns:dc="http://purl.org/dc/elements/1.1/"
   xmlns:cc="http://creativecommons.org/ns#"
   xmlns:rdf="http://www.w3.org/1999/02/22-rdf-syntax-ns#"
   xmlns:svg="http://www.w3.org/2000/svg"
   xmlns="http://www.w3.org/2000/svg"
   xmlns:sodipodi="http://sodipodi.sourceforge.net/DTD/sodipodi-0.dtd"
   xmlns:inkscape="http://www.inkscape.org/namespaces/inkscape"
   height="16"
   version="1.1"
   width="16"
   enable-background="new"
   id="svg2"
   inkscape:version="0.48.4 r9939"
   sodipodi:docname="format-text-direction-ltr.svg">
  <sodipodi:namedview
     pagecolor="#ffffff"
     bordercolor="#666666"
     borderopacity="1"
     objecttolerance="10"
     gridtolerance="10"
     guidetolerance="10"
     inkscape:pageopacity="0"
     inkscape:pageshadow="2"
     inkscape:window-width="640"
     inkscape:window-height="480"
     id="namedview14"
     showgrid="false"
     inkscape:zoom="14.75"
     inkscape:cx="8"
     inkscape:cy="8"
     inkscape:window-x="0"
     inkscape:window-y="32"
     inkscape:window-maximized="0"
     inkscape:current-layer="layer12" />
  <metadata
     id="metadata90">
    <rdf:RDF>
      <cc:Work
         rdf:about="">
        <dc:format>image/svg+xml</dc:format>
        <dc:type
           rdf:resource="http://purl.org/dc/dcmitype/StillImage" />
      </cc:Work>
    </rdf:RDF>
  </metadata>
  <defs
     id="defs7386">
    <linearGradient
       id="linearGradient5606"
       osb:paint="solid">
      <stop
         id="stop5608" />
    </linearGradient>
  </defs>
  <g
     inkscape:groupmode="layer"
     id="layer12"
     inkscape:label="actions"
     transform="translate(-521.0002,-109)">
    <path
       inkscape:connector-curvature="0"
       d="m 523.0002,109 0,2 6,0 c 0.42816,0 1,0.61414 1,1 l 0,1 -5,0 c -0.91927,0 -1.7356,0.38396 -2.25,0.96875 -0.5144,0.58479 -0.75639,1.31063 -0.75,2.03125 0.006,0.72062 0.26893,1.45271 0.78125,2.03125 0.51232,0.57854 1.31047,0.96875 2.21875,0.96875 l 5,0 1,0 1,0 0,-1 0,-1 0,-5 c 9e-5,-1.63434 -1.3198,-3 -3,-3 l -6,0 z m 2,6 5,0 0,2 -5,0 c -0.39787,0 -0.56691,-0.10979 -0.71875,-0.28125 -0.15184,-0.17146 -0.27877,-0.43937 -0.28125,-0.71875 -0.002,-0.27938 0.10467,-0.55354 0.25,-0.71875 0.14533,-0.16521 0.32764,-0.28125 0.75,-0.28125 z"
       id="path11643-3-2-2"
       fill="#000000"
       opacity="0.5" />
    <path
       d="M 12 9 C 12 9 12.000021 10.111117 12 11 L 0.9375 11 L 0.9375 13 L 12 13 C 11.999996 13.88889 11.99995 14.999977 12 15 L 16 12 L 12 9 z "
       transform="translate(521.0002,109)"
       id="path4484-2"
       style="opacity:0.5" />
  </g>
</svg>
