<svg xmlns="http://www.w3.org/2000/svg" enable-background="new" viewBox="0 0 16 16" xmlns:xlink="http://www.w3.org/1999/xlink"><defs><filter color-interpolation-filters="sRGB"><feBlend in2="BackgroundImage" mode="darken"/></filter></defs><g transform="translate(-445-141)"><g fill="#000" opacity="0.5" color="#000"><path d="m446 142h2v2h-2z"/><path d="m448 142h2v2h-2z"/><path d="m450 142h2v2h-2z"/><path d="m450 144h2v2h-2z"/><path d="m448 146h2v2h-2z"/><path d="m446 148h2v2h-2z"/><path d="m448 150h2v2h-2z"/><path d="m450 148h2v2h-2z"/><path d="m452 146h2v2h-2z"/><path d="m454 146h2v2h-2z"/><path d="m454 142h2v2h-2z"/><path d="m456 144h2v2h-2z"/><path d="m456 150h2v2h-2z"/><path d="m452 152h2v2h-2z"/><path d="m454 154h2v2h-2z"/><path d="m448 154h2v2h-2z"/><path d="m458 152h2v2h-2z"/></g><path fill="#000" opacity="0.5" color="#000" d="m458 154h2v2h-2z" id="0"/><use xlink:href="#0"/></g></svg>