<svg xmlns="http://www.w3.org/2000/svg" enable-background="new" viewBox="0 0 16 16"><defs><filter color-interpolation-filters="sRGB"><feBlend in2="BackgroundImage" mode="darken"/></filter></defs><g transform="translate(-465-141)" fill="#000" opacity="0.5" color="#000"><path d="m466 142h2v14h-2z"/><path transform="matrix(0 1-1 0 0 0)" d="m154-480h2v14h-2z"/><path d="M478.4375 142.0625A.50005 .50005 0 0 0 478 142.59375c.017 1.182-.043 2.292-.688 3.219-.645.927-1.911 1.742-4.438 2.25-2.72.547-4.348 1.688-5.313 3.063-.964 1.374-1.279 2.931-1.563 4.281a.511823 .511823 0 1 0 1 .21875c.284-1.353.59-2.743 1.406-3.906.817-1.164 2.119-2.146 4.656-2.656 2.674-.538 4.231-1.492 5.063-2.688.832-1.196.893-2.574.875-3.813a.50005 .50005 0 0 0 -.5625 -.5"/><path d="m466.5 155.51c.568-2.704 1.258-5.367 6.497-6.514 5.218-.955 5.085-3.648 6-6v12.558z" opacity=".33"/></g></svg>