<svg xmlns="http://www.w3.org/2000/svg" enable-background="new" viewBox="0 0 16 16"><defs><filter color-interpolation-filters="sRGB"><feBlend in2="BackgroundImage" mode="darken"/></filter></defs><g transform="translate(-445-121)" fill="#000" opacity="0.5" color="#000"><path d="m458.03 122.03c-.095.001-.156.031-.156.031l-11.813 2.063c-.985.174-.813 1.156-.813 1.156l.469 2.719h3.094l1.125-1.938 2.438 1.938h2.313l.906-1.219 1.75 1.219h2.594l-.906-5.125c-.13-.739-.715-.846-1-.844m-11.781 8.969l.719 4.156c.174.985 1.156.813 1.156.813l11.813-2.094c0 0 .986-.171.813-1.156l-.313-1.719h-2l.188 1.063-9.844 1.75-.5-2.813h-2.031"/><path d="m446 129v1h1v-1h-1m2 0v1h1v-1h-1m2 0v1h1v-1h-1m2 0v1h1v-1h-1m2 0v1h1v-1h-1m2 0v1h1v-1h-1m2 0v1h1v-1h-1m2 0v1h1v-1h-1"/></g></svg>