<svg xmlns="http://www.w3.org/2000/svg" enable-background="new" viewBox="0 0 16 16"><defs><filter color-interpolation-filters="sRGB"><feBlend in2="BackgroundImage" mode="darken"/></filter></defs><g transform="translate(-285-101)" fill="#000" opacity="0.5"><path d="m289.3 103l-2.857 8h1.429l.607-1.714h2.786l.607 1.714h1.589l-3.02-8zm.571 2.286l1 2.857h-2z"/><path d="m295 106v1h2.5c.214 0 .5.307.5.5v.5h-2.5c-.46 0-.868.192-1.125.484-.257.292-.378.655-.375 1.016.003.36.134.726.391 1.016.256.289.655.484 1.109.484h2.5.5.5v-.422c.008-.047 0-.078 0-.078v-.5-2.5c0-.817-.66-1.5-1.5-1.5h-2.5m.5 3h2.5v1h-2.5c-.199 0-.283-.055-.359-.141-.076-.086-.139-.22-.141-.359-.001-.14.052-.277.125-.359.073-.083.164-.141.375-.141" color="#000"/><path d="m290 113l3 4 3-4z"/></g></svg>