<svg xmlns="http://www.w3.org/2000/svg" enable-background="new" viewBox="0 0 16 16.01"><defs><filter color-interpolation-filters="sRGB"><feBlend in2="BackgroundImage" mode="darken"/></filter></defs><g transform="translate(-265-100.99)" fill="#000" opacity="0.5"><path d="m270 100.99c-2.77 0-5 2.23-5 5 0 2.77 2.23 5 5 5h2v-2h-2c-1.662 0-3-1.338-3-3 0-1.662 1.338-3 3-3h2v-2h-2m4 0v2h2c1.662 0 3 1.338 3 3 0 1.662-1.338 3-3 3h-2v2h2c2.77 0 5-2.23 5-5 0-2.77-2.23-5-5-5h-2m-4 4v2h6v-2h-6"/><path d="m270 113l3 4 3-4z"/></g></svg>