<svg xmlns="http://www.w3.org/2000/svg" enable-background="new" viewBox="0 0 16 16"><defs><filter color-interpolation-filters="sRGB"><feBlend in2="BackgroundImage" mode="darken"/></filter></defs><g transform="translate(-425-121)" fill="#000" opacity="0.5"><path d="m436.88 122.22l-9.844 1.75c-.985.174-.813 1.156-.813 1.156l.5 2.875h12.188l-.875-4.969c-.174-.985-1.156-.813-1.156-.813m-9.625 8.781l.719 3.969c.174.985 1.156.813 1.156.813l9.844-1.75c0 0 .986-.171.813-1.156l-.344-1.875h-12.188"/><path d="m426 129v1h1v-1h-1m2 0v1h1v-1h-1m2 0v1h1v-1h-1m2 0v1h1v-1h-1m2 0v1h1v-1h-1m2 0v1h1v-1h-1m2 0v1h1v-1h-1m2 0v1h1v-1h-1" color="#000"/></g></svg>