<?xml version="1.0" encoding="UTF-8" standalone="no"?>
<svg
   xmlns:dc="http://purl.org/dc/elements/1.1/"
   xmlns:cc="http://creativecommons.org/ns#"
   xmlns:rdf="http://www.w3.org/1999/02/22-rdf-syntax-ns#"
   xmlns:svg="http://www.w3.org/2000/svg"
   xmlns="http://www.w3.org/2000/svg"
   xmlns:sodipodi="http://sodipodi.sourceforge.net/DTD/sodipodi-0.dtd"
   xmlns:inkscape="http://www.inkscape.org/namespaces/inkscape"
   enable-background="new"
   viewBox="0 0 16 16"
   id="svg2"
   version="1.1"
   inkscape:version="0.91 r13725"
   sodipodi:docname="process-stop.svg">
  <metadata
     id="metadata14">
    <rdf:RDF>
      <cc:Work
         rdf:about="">
        <dc:format>image/svg+xml</dc:format>
        <dc:type
           rdf:resource="http://purl.org/dc/dcmitype/StillImage" />
        <dc:title></dc:title>
      </cc:Work>
    </rdf:RDF>
  </metadata>
  <sodipodi:namedview
     pagecolor="#ffffff"
     bordercolor="#666666"
     borderopacity="1"
     objecttolerance="10"
     gridtolerance="10"
     guidetolerance="10"
     inkscape:pageopacity="0"
     inkscape:pageshadow="2"
     inkscape:window-width="640"
     inkscape:window-height="480"
     id="namedview12"
     showgrid="false"
     inkscape:zoom="14.75"
     inkscape:cx="8"
     inkscape:cy="7.4576271"
     inkscape:window-x="0"
     inkscape:window-y="27"
     inkscape:window-maximized="0"
     inkscape:current-layer="svg2" />
  <defs
     id="defs4">
    <filter
       color-interpolation-filters="sRGB"
       id="filter6">
      <feBlend
         in2="BackgroundImage"
         mode="darken"
         id="feBlend8" />
    </filter>
  </defs>
  <path
     d="m450.25-36.938l-.313.281-3.625 3.625-.281.313v.406 4.75.406l.281.313 3.625 3.625.313.281h.406 4.75.406l.313-.281 3.625-3.625.281-.313v-.406-4.75-.406l-.281-.313-3.625-3.625-.313-.281h-.406-4.75-.406m.781 2h4l3 3v4l-3 3h-4l-3-3v-4l3-3m.438 1l-2.438 2.438v3.125l2.438 2.438h3.125l2.438-2.438v-3.125l-2.438-2.438h-3.125"
     color="#000"
     fill="#000"
     opacity="0.5"
     transform="translate(-445.03 37.938)"
     id="path10" />
</svg>
