<?xml version="1.0" encoding="UTF-8" standalone="no"?>
<svg
   xmlns:osb="http://www.openswatchbook.org/uri/2009/osb"
   xmlns:dc="http://purl.org/dc/elements/1.1/"
   xmlns:cc="http://creativecommons.org/ns#"
   xmlns:rdf="http://www.w3.org/1999/02/22-rdf-syntax-ns#"
   xmlns:svg="http://www.w3.org/2000/svg"
   xmlns="http://www.w3.org/2000/svg"
   xmlns:sodipodi="http://sodipodi.sourceforge.net/DTD/sodipodi-0.dtd"
   xmlns:inkscape="http://www.inkscape.org/namespaces/inkscape"
   height="16"
   version="1.1"
   width="16"
   enable-background="new"
   id="svg3018"
   inkscape:version="0.48.4 r9939"
   sodipodi:docname="send-to.svg">
  <sodipodi:namedview
     pagecolor="#ffffff"
     bordercolor="#666666"
     borderopacity="1"
     objecttolerance="10"
     gridtolerance="10"
     guidetolerance="10"
     inkscape:pageopacity="0"
     inkscape:pageshadow="2"
     inkscape:window-width="640"
     inkscape:window-height="480"
     id="namedview3030"
     showgrid="false"
     inkscape:zoom="14.75"
     inkscape:cx="8"
     inkscape:cy="8"
     inkscape:window-x="0"
     inkscape:window-y="32"
     inkscape:window-maximized="0"
     inkscape:current-layer="layer12" />
  <metadata
     id="metadata90">
    <rdf:RDF>
      <cc:Work
         rdf:about="">
        <dc:format>image/svg+xml</dc:format>
        <dc:type
           rdf:resource="http://purl.org/dc/dcmitype/StillImage" />
      </cc:Work>
    </rdf:RDF>
  </metadata>
  <defs
     id="defs7386">
    <linearGradient
       id="linearGradient5606"
       osb:paint="solid">
      <stop
         id="stop5608" />
    </linearGradient>
  </defs>
  <g
     inkscape:groupmode="layer"
     id="layer12"
     inkscape:label="actions"
     transform="translate(-521.00019,-49)">
    <path
       d="M 9 1 L 10.21875 2.90625 L 5.8125 5.6875 C 5.29706 5.27659 4.66167 4.99996 4 5 C 2.42909 5.00009 1 6.42933 1 8 C 1 9.57067 2.42909 10.99991 4 11 C 4.66167 11.00004 5.29706 10.72341 5.8125 10.3125 L 10.21875 13.09375 L 9 15 L 15 15 L 12.5 9.5 L 11.28125 11.4375 L 6.90625 8.65625 C 6.96075 8.44162 7 8.22414 7 8 C 7 7.77586 6.96075 7.55838 6.90625 7.34375 L 11.28125 4.5625 L 12.5 6.5 L 15 1 L 9 1 z "
       transform="translate(521.00019,49)"
       id="path6545-7"
       style="opacity:0.5" />
  </g>
</svg>
