<svg xmlns="http://www.w3.org/2000/svg" enable-background="new" viewBox="0 0 16 16"><defs><filter color-interpolation-filters="sRGB"><feBlend in2="BackgroundImage" mode="darken"/></filter></defs><g transform="translate(-285-20.997)" fill="#000" opacity="0.5"><path d="m292.76 26.99l-.11 1.317a3.928571 3.928571 0 0 0 -1.14815 .664065l-1.197-.564-1.25 2.165 1.087.755a3.928571 3.928571 0 0 0 -.06 .662664 3.928571 3.928571 0 0 0 .0572 .665457l-1.084.752 1.25 2.165 1.194-.562a3.928571 3.928571 0 0 0 1.15094 .659872l.11 1.32h2.5l.11-1.317a3.928571 3.928571 0 0 0 1.14816 -.664065l1.197.564 1.25-2.165-1.087-.755a3.928571 3.928571 0 0 0 .06 -.662664 3.928571 3.928571 0 0 0 -.0572 -.665457l1.084-.752-1.25-2.165-1.194.562a3.928571 3.928571 0 0 0 -1.15094 -.659872l-.11-1.32h-2.5m1.25 3.571429a1.428571 1.428571 0 0 1 1.42857 1.428571 1.428571 1.428571 0 0 1 -1.42857 1.428571 1.428571 1.428571 0 0 1 -1.42857 -1.428571 1.428571 1.428571 0 0 1 1.42857 -1.428571"/><path d="m292.19 27.26l-.338-.717a2.357143 2.357143 0 0 0 .39738 -.689498l.791-.066v-1.5l-.791-.066a2.357143 2.357143 0 0 0 -.16762 -.36233 2.357143 2.357143 0 0 0 -.22934 -.32863l.338-.716-1.299-.75-.452.65a2.357143 2.357143 0 0 0 -.796 .002l-.453-.653-1.299.75.338.717a2.357143 2.357143 0 0 0 -.39738 .689504l-.791.066v1.5l.791.066a2.357143 2.357143 0 0 0 .16763 .36233 2.357143 2.357143 0 0 0 .22934 .32863l-.338.716 1.299.75.452-.65a2.357143 2.357143 0 0 0 .796 -.002l.453.653 1.299-.75m-1.72096-1.480767a.857143 .857143 0 0 1 -1.17088 -.313741 .857143 .857143 0 0 1 .31373 -1.17088 .857143 .857143 0 0 1 1.17088 .31374 .857143 .857143 0 0 1 -.31373 1.170881"/></g></svg>