<svg xmlns="http://www.w3.org/2000/svg" enable-background="new" viewBox="0 0 16 16"><defs><filter color-interpolation-filters="sRGB"><feBlend in2="BackgroundImage" mode="darken"/></filter></defs><g transform="translate(-586-41)" fill="#000" opacity="0.5" color="#000"><path d="m588 44v2h2.906c-.055 0 .094.171.094.094v.938h-1c-1.716 0-3.038 1.11-3.063 2.469-.012.679.319 1.353.875 1.813.556.459 1.31.719 2.188.719h2 1v-1-4.938c0-1.161-.882-2.078-2.063-2.094h-.031-2.906m2 5.03h1v1h-1c-.519 0-.78-.146-.906-.25-.126-.104-.158-.178-.156-.25.003-.144.093-.5 1.063-.5"/><path d="m594 43v8.03 1h1 2c.939 0 1.782-.382 2.313-.969.53-.586.76-1.333.75-2.063-.01-.73-.286-1.454-.813-2.031-.527-.577-1.329-.969-2.25-.969h-1v-3h-2m2 5h1c.422 0 .62.135.781.313.162.177.278.443.281.719.004.276-.098.52-.25.688-.152.168-.354.313-.813.313h-1v-2.031"/><path d="m589 52.28l-.344.375-2 2a.50005 .50005 0 1 0 .6875 .6875l1.656-1.656 1.656 1.656.344.375.344-.375 1.656-1.656 1.656 1.656.344.375.344-.375 1.656-1.656 1.656 1.656.344.375.344-.375 2-2a.50005 .50005 0 1 0 -.6875 -.6875l-1.656 1.656-1.656-1.656-.344-.375-.344.375-1.656 1.656-1.656-1.656-.344-.375-.344.375-1.656 1.656-1.656-1.656-.344-.375"/></g></svg>