<?xml version="1.0" encoding="UTF-8" standalone="no"?>
<!-- Created with Inkscape (http://www.inkscape.org/) -->

<svg
   xmlns:dc="http://purl.org/dc/elements/1.1/"
   xmlns:cc="http://creativecommons.org/ns#"
   xmlns:rdf="http://www.w3.org/1999/02/22-rdf-syntax-ns#"
   xmlns:svg="http://www.w3.org/2000/svg"
   xmlns="http://www.w3.org/2000/svg"
   xmlns:sodipodi="http://sodipodi.sourceforge.net/DTD/sodipodi-0.dtd"
   xmlns:inkscape="http://www.inkscape.org/namespaces/inkscape"
   width="16"
   height="16"
   id="svg3933"
   version="1.1"
   inkscape:version="0.48.5 r10040"
   sodipodi:docname="twitter-profile.svg">
  <defs
     id="defs3935" />
  <sodipodi:namedview
     id="base"
     pagecolor="#000000"
     bordercolor="#666666"
     borderopacity="1.0"
     inkscape:pageopacity="0.63137255"
     inkscape:pageshadow="2"
     inkscape:zoom="1"
     inkscape:cx="-17.737807"
     inkscape:cy="30.062969"
     inkscape:current-layer="layer1"
     showgrid="true"
     inkscape:grid-bbox="true"
     inkscape:document-units="px"
     inkscape:window-width="1364"
     inkscape:window-height="708"
     inkscape:window-x="0"
     inkscape:window-y="29"
     inkscape:window-maximized="1" />
  <metadata
     id="metadata3938">
    <rdf:RDF>
      <cc:Work
         rdf:about="">
        <dc:format>image/svg+xml</dc:format>
        <dc:type
           rdf:resource="http://purl.org/dc/dcmitype/StillImage" />
        <dc:title />
      </cc:Work>
    </rdf:RDF>
  </metadata>
  <g
     id="layer1"
     inkscape:label="Layer 1"
     inkscape:groupmode="layer">
    <path
       style="color:#000000;fill:#ffffff;fill-opacity:1;fill-rule:nonzero;stroke:none;stroke-width:1;marker:none;visibility:visible;display:inline;overflow:visible;enable-background:accumulate"
       d="m 8.0109152,1.6892547 c -1.8320003,0 -3.3254714,1.5509997 -3.3796401,3.4890134 -0.045037,0.011606 -0.088878,0.031598 -0.1312482,0.054684 -0.4212926,0.2295566 -0.5288846,0.944867 -0.2406216,1.6077901 0.2318998,0.5333048 0.6433924,0.8633303 1.0171733,0.8531131 0.2813785,1.7722967 1.401412,3.0952697 2.7343366,3.0952697 0.00364,0 0.00728,2e-5 0.010955,0 1.332925,0 2.4529578,-1.322973 2.7343368,-3.0952697 0.373781,0.010213 0.785273,-0.3198076 1.017173,-0.8531131 0.288263,-0.6629196 0.180671,-1.37823 -0.240621,-1.6077873 -0.04237,-0.023086 -0.08621,-0.043078 -0.131249,-0.054684 -0.05417,-1.938013 -1.5476398,-3.4890134 -3.3796398,-3.4890134 -0.00364,-1.19e-5 -0.00732,0 -0.010955,0 z m 2.3843408,9.3842443 c -0.288889,0.687651 -1.2748248,1.203108 -2.4499651,1.203108 -1.1698512,0 -2.1451827,-0.509242 -2.4390281,-1.192171 -2.4690789,0.253406 -4.2681131,0.874317 -4.4843121,1.60779 -0.0028,0.0068 0.00245,0.01487 0,0.02187 -0.00672,0.02645 -0.00836,0.04981 -0.010955,0.07656 -0.0014,0.0121 -0.010955,0.02036 -0.010955,0.03281 -9.101e-5,0.004 0,0.0069 0,0.01093 l 0,1.8156 C 1.0000407,14.843902 1.1561385,15 1.3500358,15 l 13.2998132,0 c 0.193898,0 0.349995,-0.156098 0.349995,-0.349995 l 0,-1.8156 c 0,-0.008 3.5e-4,-0.01395 0,-0.02187 -0.0021,-0.04251 -0.02041,-0.07853 -0.0328,-0.120311 -0.220752,-0.742337 -2.057974,-1.371399 -4.571811,-1.618727 z"
       id="path3002"
       inkscape:connector-curvature="0" />
  </g>
</svg>
