<?xml version='1.0' encoding='UTF-8' standalone='no'?>
<svg height="16" xmlns:inkscape="http://www.inkscape.org/namespaces/inkscape" xmlns:sodipodi="http://sodipodi.sourceforge.net/DTD/sodipodi-0.dtd" version="1.1" width="16" xmlns="http://www.w3.org/2000/svg" enable-background="new">
 <metadata id="metadata90"/>
 <defs id="defs7386">
  <linearGradient id="linearGradient5606" osb:paint="solid">
   <stop id="stop5608"/>
  </linearGradient>
  <filter inkscape:collect="always" color-interpolation-filters="sRGB" id="filter7554">
   <feBlend inkscape:collect="always" id="feBlend7556" in2="BackgroundImage" mode="darken"/>
  </filter>
 </defs>
 <g inkscape:groupmode="layer" id="layer12" inkscape:label="actions" transform="translate(-437.0004,-80.996638)">
  <path inkscape:connector-curvature="0" d="m 437.0004,81.996638 c 0,4.66667 0,9.33333 0,14 5.33327,-0.002 10.66653,0.005 15.9998,0.003 0,-4.66667 0,-9.33333 0,-14 -5.33327,0.002 -10.66653,-0.005 -15.9998,-0.003 z m 1.9998,2.00336 c 1.66673,-0.001 3.33347,-0.002 5.0002,-0.003 -7e-5,3.33445 -1.3e-4,6.66891 -2e-4,10.00336 -1.66673,10e-4 -3.33347,0.002 -5.0002,0.003 7e-5,-3.33433 1.3e-4,-6.66867 2e-4,-10.003 z m 7,0 c 1.66667,0 3.33333,0 5,0 -7e-5,3.33445 -1.3e-4,6.66891 -2e-4,10.00336 -1.66667,0 -3.33333,0 -5,0 7e-5,-3.33445 1.3e-4,-6.66891 2e-4,-10.00336 z" id="rect5700" fill="#ffffff"/>
 </g>
</svg>
