<?xml version="1.0" encoding="UTF-8" standalone="no"?>
<svg
   xmlns:osb="http://www.openswatchbook.org/uri/2009/osb"
   xmlns:dc="http://purl.org/dc/elements/1.1/"
   xmlns:cc="http://creativecommons.org/ns#"
   xmlns:rdf="http://www.w3.org/1999/02/22-rdf-syntax-ns#"
   xmlns:svg="http://www.w3.org/2000/svg"
   xmlns="http://www.w3.org/2000/svg"
   xmlns:sodipodi="http://sodipodi.sourceforge.net/DTD/sodipodi-0.dtd"
   xmlns:inkscape="http://www.inkscape.org/namespaces/inkscape"
   height="16.03"
   version="1.1"
   width="16"
   enable-background="new"
   id="svg3032"
   inkscape:version="0.48.4 r9939"
   sodipodi:docname="view-refresh.svg">
  <sodipodi:namedview
     pagecolor="#ffffff"
     bordercolor="#666666"
     borderopacity="1"
     objecttolerance="10"
     gridtolerance="10"
     guidetolerance="10"
     inkscape:pageopacity="0"
     inkscape:pageshadow="2"
     inkscape:window-width="640"
     inkscape:window-height="480"
     id="namedview3043"
     showgrid="false"
     inkscape:zoom="14.722395"
     inkscape:cx="8"
     inkscape:cy="8.0150003"
     inkscape:window-x="0"
     inkscape:window-y="32"
     inkscape:window-maximized="0"
     inkscape:current-layer="layer12" />
  <metadata
     id="metadata90">
    <rdf:RDF>
      <cc:Work
         rdf:about="">
        <dc:format>image/svg+xml</dc:format>
        <dc:type
           rdf:resource="http://purl.org/dc/dcmitype/StillImage" />
      </cc:Work>
    </rdf:RDF>
  </metadata>
  <defs
     id="defs7386">
    <linearGradient
       id="linearGradient5606"
       osb:paint="solid">
      <stop
         id="stop5608" />
    </linearGradient>
  </defs>
  <g
     inkscape:groupmode="layer"
     id="layer12"
     inkscape:label="actions"
     transform="translate(-425.00247,39.062507)">
    <path
       style="fill:#000000;fill-opacity:1;stroke:none;opacity:0.5"
       d="M 8 1.03125 C 4.13401 1.03125 1 4.16526 1 8.03125 C 1 11.89724 4.13401 15.03125 8 15.03125 C 11.17482 15.03125 13.86154 12.92808 14.71875 10.03125 L 12.5625 10.03125 C 11.78823 11.79077 10.04569 13.03125 8 13.03125 C 5.23858 13.03125 3 10.79267 3 8.03125 C 3 5.26983 5.23858 3.03125 8 3.03125 C 9.3794332 3.03125 10.60018 3.6243648 11.5 4.53125 L 9 7.03125 L 15 7.03125 L 15 1.03125 L 12.9375 3.09375 C 11.66986 1.8352884 9.9284255 1.03125 8 1.03125 z "
       transform="translate(425.00247,-39.062507)"
       id="path5865" />
  </g>
</svg>
