<?xml version='1.0' encoding='UTF-8' standalone='no'?>
<svg height="16.03" xmlns:inkscape="http://www.inkscape.org/namespaces/inkscape" xmlns:sodipodi="http://sodipodi.sourceforge.net/DTD/sodipodi-0.dtd" version="1.1" width="16" xmlns="http://www.w3.org/2000/svg" enable-background="new">
 <metadata id="metadata90"/>
 <defs id="defs7386">
  <linearGradient id="linearGradient5606" osb:paint="solid">
   <stop id="stop5608"/>
  </linearGradient>
  <filter inkscape:collect="always" color-interpolation-filters="sRGB" id="filter7554">
   <feBlend inkscape:collect="always" id="feBlend7556" in2="BackgroundImage" mode="darken"/>
  </filter>
 </defs>
 <g inkscape:groupmode="layer" id="layer12" inkscape:label="actions" transform="translate(-425.00247,39.062507)">
  <g id="g8525" transform="matrix(0,1,1,0,464.03159,-464.07524)">
   <path inkscape:connector-curvature="0" d="m 433.01274,-24.000142 c -0.33516,3e-6 -0.67491,-0.0183 -1,-0.0625 l -1e-5,-2.062495 c 0.32425,0.0712 0.65294,0.125 1,0.124999 2.76143,-1e-6 5.00001,-2.238581 5.00001,-5.000002 0,-0.395259 -0.0672,-0.757248 -0.15625,-1.125 l -1.84375,1.124997 0,-3.968749 0,-2.343749 0,-0.187499 5,3.500001 -1.34376,0.8125 c 0.22886,0.689957 0.34376,1.419617 0.34375,2.187501 1e-5,3.865985 -3.134,6.999996 -6.99999,6.999997 z m -3.00001,-0.499997 -5,-3.500001 1.34376,-0.8125 c -0.22302,-0.682002 -0.34375,-1.429892 -0.34375,-2.187501 0,-3.865992 3.13401,-7.000003 6.99999,-6.999997 0.33705,-5e-6 0.67643,0.03974 1.00001,0.09375 l 0,2.031249 c -0.32168,-0.0731 -0.65447,-0.125001 -1,-0.124999 -2.76143,10e-7 -5.00001,2.238581 -5.00001,5.000002 0,0.38212 0.0416,0.768449 0.12501,1.124995 l 1.875,-1.125 0,3.96875 0,2.343749 -1e-5,0.187506 z" id="path8515" fill="#ffffff"/>
  </g>
 </g>
</svg>
