<svg xmlns="http://www.w3.org/2000/svg" enable-background="new" viewBox="0 0 16 16"><defs><filter color-interpolation-filters="sRGB"><feBlend in2="BackgroundImage" mode="darken"/></filter></defs><path d="m424.5 84c-.822 0-1.5.678-1.5 1.5 0 .822.678 1.5 1.5 1.5.822 0 1.5-.678 1.5-1.5 0-.822-.678-1.5-1.5-1.5m0 4c-.822 0-1.5.678-1.5 1.5 0 .822.678 1.5 1.5 1.5.822 0 1.5-.678 1.5-1.5 0-.822-.678-1.5-1.5-1.5m0 4c-.822 0-1.5.678-1.5 1.5 0 .822.678 1.5 1.5 1.5.822 0 1.5-.678 1.5-1.5 0-.822-.678-1.5-1.5-1.5" fill="#000" opacity="0.5" color="#000" transform="translate(-417-80.997)"/></svg>