<?xml version='1.0' encoding='UTF-8' standalone='no'?>
<svg height="16" xmlns:inkscape="http://www.inkscape.org/namespaces/inkscape" xmlns:sodipodi="http://sodipodi.sourceforge.net/DTD/sodipodi-0.dtd" version="1.1" width="16" xmlns="http://www.w3.org/2000/svg" enable-background="new">
 <metadata id="metadata90"/>
 <defs id="defs7386">
  <linearGradient id="linearGradient5606" osb:paint="solid">
   <stop id="stop5608"/>
  </linearGradient>
  <filter inkscape:collect="always" color-interpolation-filters="sRGB" id="filter7554">
   <feBlend inkscape:collect="always" id="feBlend7556" in2="BackgroundImage" mode="darken"/>
  </filter>
 </defs>
 <g inkscape:groupmode="layer" id="layer12" inkscape:label="actions" transform="translate(-501.0002,-9)">
  <path inkscape:connector-curvature="0" d="m 504.99999,12.99999 0,1 c 0,0.27614 0.10028,0.53778 0.28125,0.71875 l 2.28125,2.28125 -2.28125,2.28125 c -0.18097,0.18097 -0.28125,0.44261 -0.28125,0.71875 l 0,1 1,0 c 0.27614,0 0.53778,-0.10028 0.71875,-0.28125 l 2.28125,-2.28125 2.28125,2.28125 c 0.18096,0.18097 0.44261,0.28125 0.71875,0.28125 l 1,0 0,-1 c 0,-0.27614 -0.10029,-0.53778 -0.28125,-0.71875 l -2.28125,-2.28125 2.28125,-2.28125 c 0.18096,-0.18097 0.3178,-0.44504 0.28125,-0.71875 l 0,-1 -1,0 c -0.27614,0 -0.53779,0.10028 -0.71875,0.28125 l -2.28125,2.28125 -2.28125,-2.28125 c -0.18097,-0.18097 -0.44261,-0.28125 -0.71875,-0.28125 z" id="path5757" sodipodi:nodetypes="cscccscscccscscccscscccsc" fill="#ffffff" color="#000000" stroke-width="2"/>
 </g>
</svg>
