<svg xmlns="http://www.w3.org/2000/svg" width="16" height="16">
    <path d="M8 1C4.137 1 1 4.137 1 8s3.137 7 7 7 7-3.137 7-7-3.137-7-7-7zm0 2a4.93 4.93 0 012.75.812L3.812 10.75A4.93 4.93 0 013 8c0-2.76 2.24-5 5-5zm4.187 2.25A4.93 4.93 0 0113 8c0 2.76-2.24 5-5 5a4.93 4.93 0 01-2.75-.813z" style="line-height:normal;-inkscape-font-specification:Sans;text-indent:0;text-align:start;text-decoration-line:none;text-transform:none;marker:none" color="#000" font-weight="400" font-family="Sans" overflow="visible" fill="#4c5263"/>
</svg>
