<svg xmlns="http://www.w3.org/2000/svg" width="16" height="16">
    <path d="m 833.00026,-94.00338 c -3.86295,0 -7,3.13704 -7,7 0,3.86295 3.13705,7 7,7 3.86295,0 7,-3.13705 7,-7 0,-3.86296 -3.13705,-7 -7,-7 z m 0,2 c 1.01943,0 1.95898,0.28763 2.75,0.8125 l -6.9375,6.9375 c -0.52487,-0.79102 -0.8125,-1.73057 -0.8125,-2.75 0,-2.75926 2.24075,-5 5,-5 z m 4.1875,2.25 c 0.52487,0.79102 0.8125,1.73057 0.8125,2.75 0,2.75925 -2.24075,5 -5,5 -1.01943,0 -1.95898,-0.28763 -2.75,-0.8125 z" style="line-height:normal;-inkscape-font-specification:Sans;text-indent:0;text-align:start;text-decoration-line:none;text-transform:none;marker:none" color="#000" font-weight="400" font-family="Sans" overflow="visible" fill="#4c5263" transform="translate(-825 95.003)"/>
</svg>
