<svg xmlns="http://www.w3.org/2000/svg" width="16" height="16">
    <g fill="#4c5263">
        <path d="m 507.0002,-74 c 0,0 -1,0 -1,1 v 4.99414 l 2,0.006 v -1 h 0.79883 l 1.70508,-1.70703 0.70703,-0.70703 2.41406,2.41406 h 4.375 v 7 h -5.33984 l -1.44532,1.45898 L 509.75606,-62 h -1.75586 v -1.99023 l -2,-0.006 v 2.99609 c 0,0 0,1.00001 1,1 h 12 c 1,0 1,-1 1,-1 v -12 c 0,0 0,-1 -1,-1 z" transform="translate(-505 75)"/>
        <path d="m 511.21172,-69.999511 -1.38509,1.385851 1.63493,1.63476 L 505.0002,-67 v 2 l 6.46136,0.0211 -1.63493,1.63439 1.38509,1.38509 4.00086,-4.04061 z" transform="translate(-505 75)"/>
    </g>
</svg>
