<svg xmlns="http://www.w3.org/2000/svg" width="16" height="16">
    <g fill="#4c5263">
        <path style="marker:none" d="m 449.0002,0 c 0,0 -1,0 -1,-1 l 2e-4,-3.00336 -2e-4,-8.99664 c 0,-1 1,-1 1,-1 h 10 c 0,0 1,0 1,1 v 4.25 l -2,-1.25 -2e-4,-1.99664 h -8 L 450.0002,-2 h 8 v -2 l 2,-1.25 V -1 c 0,0 0,1 -1,1 z" color="#bebebe" overflow="visible" transform="translate(-446 15.01)"/>
        <path d="m 456.0004,-4.003359 v -2 h -4 v -2 h 4 v -2 l 4.5,3 z" transform="translate(-446 15.01)"/>
    </g>
</svg>
