<svg xmlns="http://www.w3.org/2000/svg" width="16" height="16">
    <path d="M8 3.003c-1.55.015-3.112.37-4.463 1.135-.538.35-1.185.804-1.672 1.26C1.1 6.148.443 7.024 0 8.003c1.215 2.68 3.886 4.644 6.824 4.934 1.928.218 3.945-.115 5.639-1.068.538-.351 1.185-.804 1.672-1.26.766-.75 1.422-1.626 1.865-2.606-1.215-2.68-3.886-4.643-6.824-4.933-.39-.046-.784-.067-1.176-.067zm0 2c1.607-.035 3.03 1.402 3 3 .051 1.767-1.709 3.291-3.45 2.961-1.757-.206-2.991-2.177-2.413-3.847C5.506 5.887 6.713 4.988 8 5.003zm0 2a1 1 0 00-1 1 1 1 0 001 1 1 1 0 001-1 1 1 0 00-1-1z" fill="#4c5263" fill-rule="evenodd"/>
</svg>
