<svg height="16" width="16" xmlns="http://www.w3.org/2000/svg" enable-background="new">
    <defs>
        <filter color-interpolation-filters="sRGB" id="a">
            <feBlend in2="BackgroundImage" mode="darken"/>
        </filter>
    </defs>
    <path d="M13 15.01s1 0 1-1v-12c0-1-1-1-1-1H3s-1 0-1 1v3.997l2 .003V3.013h8v9.997H4l-2-.003v1.003c0 1 1 1 1 1z" style="marker:none" color="#555" fill="#555" overflow="visible" enable-background="accumulate"/>
    <path d="M6 11.007v-2L5 9.01c-1 0-1 1-1 1v4H2v-4c0-3 3-3 3-3l1-.003v-2l4.5 3z" fill="#555"/>
</svg>
