<svg xmlns="http://www.w3.org/2000/svg" width="16" height="16">
    <path d="m 533.0002,8 c -1.55084,0.0151 -3.11206,0.36936 -4.46289,1.13477 -0.5384,0.35062 -1.18475,0.80348 -1.67188,1.25976 -0.76649,0.75042 -1.42254,1.62599 -1.86523,2.60547 1.21494,2.67956 3.88589,4.64353 6.82422,4.93359 1.92741,0.21811 3.94441,-0.11491 5.63867,-1.06836 0.5384,-0.35062 1.18475,-0.80348 1.67188,-1.25976 C 539.90146,14.85505 540.55751,13.97948 541.0002,13 539.78518,10.32059 537.11438,8.35619 534.17598,8.06641 533.7861,8.02094 533.39269,7.99999 533.0002,8 Z m 0,2 c 1.607,-0.0356 3.0303,1.40182 3,3 0.0515,1.76642 -1.70897,3.29088 -3.44922,2.96094 -1.75762,-0.20634 -2.99214,-2.17777 -2.41406,-3.84766 C 530.50608,10.88393 531.71273,9.9847 533.0002,10 Z m 0,2 a 1,1 0 0 0 -1,1 1,1 0 0 0 1,1 1,1 0 0 0 1,-1 1,1 0 0 0 -1,-1 z" fill="#4c5263" fill-rule="evenodd" transform="translate(-525 -4.997)"/>
</svg>
