<svg xmlns="http://www.w3.org/2000/svg" width="16" height="16">
    <g fill="#4c5263">
        <path style="marker:none" d="m 429.0002,0 c 0,0 -1,0 -1,-1 l 2e-4,-3.00336 -2e-4,-8.99664 c 0,-1 1,-1 1,-1 h 10 c 0,0 1,0 1,1 l 2e-4,3.99664 -2.0002,0.003 -2e-4,-2.99664 -8,3.6e-4 2e-4,9.99682 8,-1.8e-4 v -3.00036 l 2.0002,-0.003 -2e-4,4.00336 c 0,1 -1,1 -1,1 z" color="#bebebe" overflow="visible" transform="translate(-426 15.01)"/>
        <path d="m 437.0004,-4.003359 v -2 h 4 v -2 h -4 v -2 l -4.5,3 z" transform="translate(-426 15.01)"/>
    </g>
</svg>
