<svg xmlns="http://www.w3.org/2000/svg" width="16" height="16">
    <g fill="#4c5263">
        <path style="marker:none" d="m 499.0006,0 c 0,0 1,0 1,-1 l -2e-4,-3.00336 2e-4,-8.99664 c 0,-1 -1,-1 -1,-1 h -10 c 0,0 -1,0 -1,1 l -2e-4,3.99664 2.0002,0.003 2e-4,-2.99664 8,3.6e-4 -2e-4,9.99682 -8,-1.8e-4 v 0 l -2.0002,-0.003 2e-4,1.003 c 0,1 1,1 1,1 z" color="#bebebe" overflow="visible" transform="translate(-486 15.01)"/>
        <path d="m 492,-4.00336 v -2 l -0.9998,0.0034 c -1,0 -1,1 -1,1 v 4 h -2 v -4 c 0,-3 3,-3 3,-3 L 492,-8.00336 v -2 l 4.5,3 z" transform="translate(-486 15.01)"/>
    </g>
</svg>
