<svg xmlns="http://www.w3.org/2000/svg" width="16" height="16">
    <path d="m 450.0002,87 -5,6 5,6 h 11 V 87 Z m 2,3 h 1 c 0.277,0 0.52628,0.11222 0.70703,0.29297 l 1.29297,1.29297 1.29297,-1.29297 C 456.47392,90.11222 456.7232,90 457.0002,90 h 1 v 1 c 0,0.277 -0.11222,0.52628 -0.29297,0.70703 L 456.41426,93 l 1.29297,1.29297 C 457.88798,94.47372 458.0002,94.723 458.0002,95 v 1 h -1 c -0.277,0 -0.52628,-0.11222 -0.70703,-0.29297 l -1.29297,-1.29297 -1.29297,1.29297 C 453.52648,95.88778 453.2772,96 453.0002,96 h -1 v -1 c 0,-0.277 0.11222,-0.52628 0.29297,-0.70703 L 453.58614,93 452.29317,91.70703 C 452.11242,91.52628 452.0002,91.277 452.0002,91 Z" fill="#4c5263" transform="translate(-445 -84.997)"/>
</svg>
