<svg xmlns="http://www.w3.org/2000/svg" width="16" height="15.974">
    <path d="M1 1h1v1H1zm2 0h1v1H3zm2 0h1v1H5zm2 0h1v1H7zm2 0h1v1H9zm2 0h1v1h-1zm2 0h1v1h-1zm0 2h1v1h-1zm0 2h1v1h-1zm0 2h1v1h-1zm0 2h1v1h-1zm0 2h1v1h-1zm0 2h1v1h-1zm-2 0h1v1h-1zm-2 0h1v1H9zm-2 0h1v1H7zm-2 0h1v1H5zm-2 0h1v1H3zm-2 0h1v1H1zm0-2h1v1H1zm0-2h1v1H1zm0-2h1v1H1zm0-2h1v1H1zm0-2h1v1H1zm2 0v4h9V3zm0 5v4h4V8zm5 0v4h4V8z" style="isolation:auto;mix-blend-mode:normal;solid-color:#000;solid-opacity:1;marker:none" overflow="visible" color="#000" fill="#4c5263"/>
</svg>
