<svg xmlns="http://www.w3.org/2000/svg" width="16" height="16">
    <path d="m 429.5002,67 c -1.38071,0 -2.5,1.11929 -2.5,2.5 0,1.38071 1.11929,2.5 2.5,2.5 0.44608,0 0.85618,-0.13902 1.21875,-0.34375 L 432.6877,73.5 430.71895,75.34375 C 430.35638,75.13902 429.94628,75 429.5002,75 c -1.38071,0 -2.5,1.11929 -2.5,2.5 0,1.38071 1.11929,2.5 2.5,2.5 1.38071,0 2.5,-1.11929 2.5,-2.5 0,-0.22916 -0.036,-0.44541 -0.0937,-0.65625 l 2.125,-2.0625 L 438.5002,79 h 1.5 v -1 l -8.09375,-7.84375 c 0.0578,-0.21084 0.0937,-0.42709 0.0937,-0.65625 0,-1.38071 -1.11929,-2.5 -2.5,-2.5 z m 0,1.5 c 0.55228,0 1,0.44772 1,1 0,0.55228 -0.44772,1 -1,1 -0.55228,0 -1,-0.44772 -1,-1 0,-0.55228 0.44772,-1 1,-1 z m 9,-0.5 -3.9375,3.71875 1.3125,1.28125 4.125,-4 v -1 z m -9,8.5 c 0.55228,0 1,0.44772 1,1 0,0.55228 -0.44772,1 -1,1 -0.55228,0 -1,-0.44772 -1,-1 0,-0.55228 0.44772,-1 1,-1 z" fill="#4c5263" transform="translate(-425 -64.993)"/>
</svg>
