<svg xmlns="http://www.w3.org/2000/svg" width="16" height="16">
    <g fill="#4c5263">
        <path d="M6.5 1.003c-3.03 0-5.5 2.475-5.5 5.5 0 1.063.286 2.063.812 2.907l1.469-1.47A3.54 3.54 0 013 6.504c0-1.945 1.552-3.5 3.5-3.5a3.4 3.4 0 011.406.313l.75-.75.094-.094.625-.656A5.455 5.455 0 006.5 1.003zm4.625 8.688l-1.438 1.406 3.726 3.725 1.406-1.437z" style="line-height:normal;-inkscape-font-specification:Sans;text-indent:0;text-align:start;text-decoration-line:none;text-transform:none;marker:none" color="#000" font-weight="400" font-family="Sans" overflow="visible"/>
        <path d="M2 11.33v2.673h2.673l6.75-6.75L8.75 4.58zm11.788-6.433a.708.708 0 000-1.011l-1.67-1.67a.708.708 0 00-1.012 0L9.71 3.62l2.673 2.673z"/>
    </g>
</svg>
