<svg xmlns="http://www.w3.org/2000/svg" width="16" height="15.974">
    <g color="#000" fill="#4c5263">
        <path d="M1 1h1v1H1zM3 1h1v1H3zM5 1h1v1H5zM7 1h1v1H7zM9 1h1v1H9zM11 1h1v1h-1zM13 1h1v1h-1zM13 3h1v1h-1zM13 5h1v1h-1zM13 7h1v1h-1zM13 9h1v1h-1zM13 11h1v1h-1zM13 13h1v1h-1zM11 13h1v1h-1zM9 13h1v1H9zM7 13h1v1H7zM5 13h1v1H5zM3 13h1v1H3zM1 13h1v1H1zM1 11h1v1H1zM1 9h1v1H1zM1 7h1v1H1zM1 5h1v1H1zM1 3h1v1H1zM3 3v4h9V3zm0 5v4h4V8zm5 0v4h4V8z" style="isolation:auto;mix-blend-mode:normal;solid-color:#000;solid-opacity:1;marker:none" overflow="visible"/>
    </g>
</svg>
