<svg xmlns="http://www.w3.org/2000/svg" width="16" height="16">
    <path d="m 473.00059,65.00336 c -1.10457,0 -2,0.89543 -2,2 h -3 c -1,0 -1,1 -1,1 v 11 c 0,1 1,1 1,1 h 10 c 0,0 1,0 1,-1 v -11 c 0,-1 -1,-1 -1,-1 h -3 c 0,-0.13807 -0.005,-0.27605 -0.0312,-0.40625 -0.18649,-0.91137 -1.00225,-1.59375 -1.96875,-1.59375 z m 0,1 c 0.41421,0 0.75444,0.26608 0.90625,0.625 0.0506,0.11964 0.0937,0.23693 0.0937,0.375 0,0.55228 -0.44771,1 -1,1 -0.55229,0 -1,-0.44772 -1,-1 0,-0.55228 0.44771,-1 1,-1 z m -4,3 h 1 v 1 h 6 v -1 h 1 v 9 h -8 z" style="marker:none" color="#000" overflow="visible" fill="#4c5263" transform="translate(-465 -65)"/>
</svg>
