<svg xmlns="http://www.w3.org/2000/svg" width="16" height="15.974">
    <g color="#000" fill="#4c5263">
        <path d="M466.00021 106h1v1h-1zM468.00021 106h1v1h-1zM470.00021 106h1v1h-1zM472.00021 106h1v1h-1zM474.00021 106h1v1h-1zM476.00021 106h1v1h-1zM478.00021 106h1v1h-1zM478.00021 108h1v1h-1zM478.00021 110h1v1h-1zM478.00021 112h1v1h-1zM478.00021 114h1v1h-1zM478.00021 116h1v1h-1zM478.00021 118h1v1h-1zM476.00021 118h1v1h-1zM474.00021 118h1v1h-1zM472.00021 118h1v1h-1zM470.00021 118h1v1h-1zM468.00021 118h1v1h-1zM466.00021 118h1v1h-1zM466.00021 116h1v1h-1zM466.00021 114h1v1h-1zM466.00021 112h1v1h-1zM466.00021 110h1v1h-1zM466.00021 108h1v1h-1zM468.0002 108v4h9v-4zm0 5v4h4v-4zm5 0v4h4v-4z" style="isolation:auto;mix-blend-mode:normal;solid-color:#000;solid-opacity:1;marker:none" overflow="visible" transform="translate(-465 -105)"/>
    </g>
</svg>
