<svg xmlns="http://www.w3.org/2000/svg" width="16" height="16">
    <path d="m 473.03164,86.05912 c -3.8533,0 -6.96875,3.11545 -6.96875,6.96875 0,3.8533 3.11545,6.96875 6.96875,6.96875 3.8533,0 6.96875,-3.11545 6.96875,-6.96875 0,-3.8533 -3.11545,-6.96875 -6.96875,-6.96875 z M 470.0002,90 h 1 c 0.27614,0 0.53779,0.10028 0.71875,0.28125 l 1.28144,1.27787 1.28106,-1.27787 C 474.46241,90.10028 474.72406,90 475.0002,90 h 1 v 1 c 0,0.27614 -0.10029,0.53778 -0.28125,0.71875 l -1.28106,1.27787 1.28106,1.28463 c 0.18096,0.18097 0.28262,0.44261 0.28125,0.71875 v 1 h -1 c -0.27614,0 -0.53779,-0.10028 -0.71875,-0.28125 l -1.28106,-1.28463 -1.28144,1.28463 C 471.53799,95.89972 471.27634,96 471.0002,96 h -1 v -1 c 0,-0.27614 0.10029,-0.53778 0.28125,-0.71875 l 1.28144,-1.28463 -1.28144,-1.27787 C 470.10049,91.53778 470.0002,91.27614 470.0002,91 Z" style="text-indent:0;text-transform:none" color="#bebebe" fill="#4c5263" transform="translate(-465 -84.997)"/>
</svg>
