<svg xmlns="http://www.w3.org/2000/svg" width="16" height="16">
    <g fill="#4c5263">
        <path d="m 511.5002,66 c -3.02886,0 -5.5,2.47458 -5.5,5.5 0,1.06217 0.28612,2.06312 0.8125,2.90625 l 1.46875,-1.46875 C 508.08813,72.50148 508.0002,72.011 508.0002,71.5 c 0,-1.94515 1.55264,-3.5 3.5,-3.5 0.51218,0 0.96974,0.11857 1.40625,0.3125 l 0.75,-0.75 0.0937,-0.0937 0.625,-0.65625 C 513.53207,66.29442 512.55401,66 511.5002,66 Z m 4.625,8.6875 -1.4375,1.40625 3.72537,3.725 1.40625,-1.4375 z" style="line-height:normal;-inkscape-font-specification:Sans;text-indent:0;text-align:start;text-decoration-line:none;text-transform:none;marker:none" color="#000" font-weight="400" font-family="Sans" overflow="visible" transform="translate(-505 -64.997)"/>
        <path d="M 507.0002,76.327146 V 79 h 2.67285 l 6.75067,-6.750669 -2.67285,-2.672853 z m 11.78797,-6.433695 c 0.28271,-0.282706 0.28271,-0.728181 0,-1.010887 l -1.67053,-1.670534 c -0.28271,-0.282705 -0.72818,-0.282705 -1.01089,0 l -1.39639,1.404962 2.67284,2.672853 z" transform="translate(-505 -64.997)"/>
    </g>
</svg>
