<svg xmlns="http://www.w3.org/2000/svg" width="16" height="16">
    <path d="M8.031 1.062a6.963 6.963 0 00-6.969 6.97A6.963 6.963 0 008.032 15 6.963 6.963 0 0015 8.031a6.963 6.963 0 00-6.969-6.969zM5 5.003h1c.276 0 .538.1.719.282L8 6.562l1.281-1.277c.181-.181.443-.282.719-.282h1v1c0 .277-.1.538-.281.72L9.437 8l1.282 1.285c.18.18.282.442.28.718v1h-1c-.275 0-.537-.1-.718-.28L8 9.436l-1.281 1.285a1.015 1.015 0 01-.72.281H5v-1c0-.276.101-.537.282-.718L6.562 8 5.281 6.722A1.015 1.015 0 015 6.003z" style="text-indent:0;text-transform:none" color="#bebebe" fill="#4c5263"/>
</svg>
