<svg xmlns="http://www.w3.org/2000/svg" width="16" height="16">
    <path d="m 832.0004,-53.90625 v 2 c -1.95293,0.39963 -3.50662,1.95332 -3.90625,3.90625 h -2.09375 v 2 h 2.09375 c 0.39963,1.95293 1.95332,3.50662 3.90625,3.90625 V -40 h 2 v -2.09375 c 1.95293,-0.39963 3.50662,-1.95332 3.90625,-3.90625 h 2.09375 v -2 h -2.09375 c -0.39963,-1.95293 -1.95332,-3.50662 -3.90625,-3.90625 v -2 z m 1,4.90625 c 1.10457,0 2,0.89543 2,2 0,1.10457 -0.89543,2 -2,2 -1.10457,0 -2,-0.89543 -2,-2 0,-1.10457 0.89543,-2 2,-2 z" fill="#4c5263" transform="translate(-825 55.003)"/>
</svg>
