<svg xmlns="http://www.w3.org/2000/svg" width="16" height="16">
    <g fill="#4c5263">
        <path d="M16 5v6l-4-3z"/>
        <path d="M6.004 3l-.008 2 2.922.012h.002c-.056 0 .084.159.084.082v.924H8c-1.716 0-3.03 1.125-3.055 2.484-.012.68.306 1.363.861 1.822.556.46 1.316.7 2.194.7h3.004v-5.93c0-1.171-.887-2.082-2.084-2.082zM8 8.018h1.004v1.005H8c-.52 0-.794-.137-.92-.242-.126-.104-.136-.172-.135-.244.003-.144.085-.52 1.055-.52z" style="line-height:normal;font-variant-ligatures:normal;font-variant-position:normal;font-variant-caps:normal;font-variant-numeric:normal;font-variant-alternates:normal;font-feature-settings:normal;text-indent:0;text-align:start;text-decoration-line:none;text-decoration-style:solid;text-decoration-color:#000;text-transform:none;text-orientation:mixed;white-space:normal;shape-padding:0;isolation:auto;mix-blend-mode:normal;solid-color:#000;solid-opacity:1;marker:none" color="#000" font-weight="400" font-family="sans-serif" overflow="visible"/>
        <path d="M0 5v6l4-3z"/>
    </g>
</svg>
