<svg xmlns="http://www.w3.org/2000/svg" width="16" height="16">
    <g fill="#4c5263">
        <path d="m 342.00018,10 v 6 l -3.99998,-3 z" transform="translate(-326 -5)"/>
        <path d="m 332.00391,8 -0.008,2 2.92188,0.01172 h 0.002 c -0.0552,0 0.084,0.159318 0.084,0.08203 v 0.923828 H 334 c -1.71588,0 -3.03006,1.125485 -3.05469,2.484375 -0.0123,0.679445 0.30583,1.362997 0.86133,1.822266 0.5555,0.459269 1.31545,0.699219 2.19336,0.699219 h 3.00391 V 10.09375 c 0,-1.1711874 -0.88715,-2.0820312 -2.08399,-2.0820312 z M 334,13.017578 h 1.00391 v 1.00586 H 334 c -0.51941,0 -0.79379,-0.137902 -0.91992,-0.242188 -0.12614,-0.104286 -0.13607,-0.172178 -0.13477,-0.244141 0.003,-0.143925 0.0849,-0.519531 1.05469,-0.519531 z" style="line-height:normal;font-variant-ligatures:normal;font-variant-position:normal;font-variant-caps:normal;font-variant-numeric:normal;font-variant-alternates:normal;font-feature-settings:normal;text-indent:0;text-align:start;text-decoration-line:none;text-decoration-style:solid;text-decoration-color:#000;text-transform:none;text-orientation:mixed;white-space:normal;shape-padding:0;isolation:auto;mix-blend-mode:normal;solid-color:#000;solid-opacity:1;marker:none" color="#000" font-weight="400" font-family="sans-serif" overflow="visible" transform="translate(-326 -5)"/>
        <path d="m 326.0002,10 v 6 l 4,-3 z" transform="translate(-326 -5)"/>
    </g>
</svg>
