<svg xmlns="http://www.w3.org/2000/svg" width="16" height="16">
    <path d="M4 2v2h6c.428 0 1 .614 1 1v1H6c-.92 0-1.736.384-2.25.969A3.017 3.017 0 003 9c.006.72.269 1.453.78 2.031A2.966 2.966 0 006 12h7v-.844c.015-.094 0-.156 0-.156V5a3 3 0 00-3-3zm2 6h5v2H6c-.398 0-.567-.11-.72-.281A1.144 1.144 0 015 9c-.002-.28.104-.554.25-.719C5.395 8.116 5.577 8 6 8zm-4 5v2h12v-2z" style="line-height:normal;-inkscape-font-specification:Sans;text-indent:0;text-align:start;text-decoration-line:none;text-transform:none;marker:none" overflow="visible" color="#000" font-weight="400" font-family="Sans" fill="#4c5263"/>
</svg>
