<svg xmlns="http://www.w3.org/2000/svg" width="16" height="16">
    <g fill="#4c5263">
        <path d="M6 0v2h6c.428 0 1 .614 1 1v1H8c-.92 0-1.736.384-2.25.969A3.017 3.017 0 005 7c.006.72.269 1.453.781 2.031C6.294 9.61 7.091 10 8 10h7V3a3 3 0 00-3-3zm2 6h5v2H8c-.398 0-.567-.11-.719-.281A1.144 1.144 0 017 7c-.002-.28.105-.554.25-.719C7.395 6.116 7.578 6 8 6zm-8 6l4-3v6z"/>
        <path d="M2 10.987v2h12.938v-2z" style="line-height:normal;-inkscape-font-specification:Sans;text-indent:0;text-align:start;text-decoration-line:none;text-transform:none;marker:none" color="#000" font-weight="400" font-family="Sans" overflow="visible"/>
    </g>
</svg>
