<svg xmlns="http://www.w3.org/2000/svg" width="16" height="16">
    <path d="M4 3v2h5c.428 0 1 .614 1 1v1H5c-.92 0-1.736.384-2.25.969A3.017 3.017 0 002 10c.006.72.269 1.453.78 2.031C3.294 12.61 4.092 13 5 13h9V6a3 3 0 00-3-3H5zm3 6h3v2H7c-.398 0-.567-.11-.72-.281A1.144 1.144 0 016 10c-.002-.28.104-.554.25-.719C6.395 9.116 6.577 9 7 9z" style="line-height:normal;-inkscape-font-specification:Sans;text-indent:0;text-align:start;text-decoration-line:none;text-transform:none;marker:none" color="#000" font-weight="400" font-family="Sans" overflow="visible" fill="#4c5263"/>
</svg>
