<svg xmlns="http://www.w3.org/2000/svg" width="16" height="16">
    <path d="m 269.0004,-12.00336 v 2 h 1 4 c 0.42816,0 1,0.61414 1,1 v 1 h -3 -2 c -0.91927,0 -1.7356,0.38396 -2.25,0.96875 -0.5144,0.58479 -0.75639,1.31063 -0.75,2.03125 0.006,0.72062 0.26893,1.45271 0.78125,2.03125 0.51232,0.57854 1.31047,0.96875 2.21875,0.96875 h 7 1 0.15625 0.84375 v -1 -1 -5 c 0,-1.63434 -1.3198,-3 -3,-3 h -2 -4 z m 3,6 h 3 v 2 h -3 c -0.39787,0 -0.56691,-0.10979 -0.71875,-0.28125 -0.15184,-0.17146 -0.27877,-0.43937 -0.28125,-0.71875 -0.002,-0.27938 0.10467,-0.55354 0.25,-0.71875 0.14533,-0.16521 0.32764,-0.28125 0.75,-0.28125 z" style="line-height:normal;-inkscape-font-specification:Sans;text-indent:0;text-align:start;text-decoration-line:none;text-transform:none;marker:none" color="#000" font-weight="400" font-family="Sans" overflow="visible" fill="#4c5263" transform="translate(-265 15.003)"/>
</svg>
