<svg xmlns="http://www.w3.org/2000/svg" width="16" height="16">
    <g fill="#4c5263">
        <path d="m 309.0004,-12.00336 v 2 h 6 c 0.42816,0 1,0.61414 1,1 h 2 c 0,-1.63434 -1.3198,-3 -3,-3 z m -1,7 c 0.006,0.72062 0.26893,1.45271 0.78125,2.03125 0.51232,0.57854 1.31047,0.96875 2.21875,0.96875 h 5 1 1 v -0.84375 c 0.0156,-0.09375 0,-0.15625 0,-0.15625 v -1 -1 h -2 v 1 h -5 c -0.39787,0 -0.56691,-0.10979 -0.71875,-0.28125 -0.15184,-0.17146 -0.27877,-0.43937 -0.28125,-0.71875 z" transform="translate(-305 15.003)"/>
        <path d="m 306.00061,-8.00334 v 2 h 14 v -2 z" style="line-height:normal;-inkscape-font-specification:Sans;text-indent:0;text-align:start;text-decoration-line:none;text-transform:none;marker:none" color="#000" font-weight="400" font-family="Sans" overflow="visible" transform="translate(-305 15.003)"/>
    </g>
</svg>
