<svg xmlns="http://www.w3.org/2000/svg" width="16" height="16">
    <g fill="#4c5263">
        <path d="M2.344.937l12.719 12.72-1.407 1.405L.938 2.344z" style="marker:none" color="#000" overflow="visible"/>
        <path d="M6.406 3l2 2H10c.428 0 1 .614 1 1v1h-.594L13 9.592V6a3 3 0 00-3-3zM4 3.405v1.593h1.594zm2 3.593c-.92 0-1.736.384-2.25.97A3.017 3.017 0 003 9.998c.006.721.269 1.453.781 2.032.512.578 1.31.968 2.219.968h7v-.593l-2-2v.593H6c-.398 0-.567-.11-.719-.28A1.144 1.144 0 015 9.998a1.117 1.117 0 01.25-.718c.145-.166.327-.282.75-.282h3.594l-2-2z"/>
    </g>
</svg>
