<svg xmlns="http://www.w3.org/2000/svg" width="16" height="16">
    <g fill="#4c5263">
        <path d="M4 3v2h6c.428 0 1 .614 1 1h2a3 3 0 00-3-3zm-1 7c.006.72.269 1.453.78 2.031C4.294 12.61 5.092 13 6 13h7v-.844c.015-.094 0-.156 0-.156v-2h-2v1H6c-.398 0-.567-.11-.72-.281A1.144 1.144 0 015 10z"/>
        <path d="M1 7v2h14V7z" style="line-height:normal;-inkscape-font-specification:Sans;text-indent:0;text-align:start;text-decoration-line:none;text-transform:none;marker:none" color="#000" font-weight="400" font-family="Sans" overflow="visible"/>
    </g>
</svg>
