<svg xmlns="http://www.w3.org/2000/svg" width="16" height="16">
    <g color="#000" fill="#4c5263">
        <path d="M686.00018-74h2v2h-2zM688.00018-74h2v2h-2zM690.00018-74h2v2h-2zM690.00018-72h2v2h-2zM688.00018-70h2v2h-2zM686.00018-68h2v2h-2zM688.00018-66h2v2h-2zM690.00018-68h2v2h-2zM692.00018-70h2v2h-2zM694.00018-70h2v2h-2zM694.00018-74h2v2h-2zM696.00018-72h2v2h-2zM696.00018-66h2v2h-2zM692.00018-64h2v2h-2zM694.00018-62h2v2h-2zM688.00018-62h2v2h-2zM698.00018-64h2v2h-2zM698.00018-62h2v2h-2z" style="marker:none" overflow="visible" transform="translate(-685 75)"/>
        <path d="m 698.00018,-62 h 2 v 2 h -2 z" style="marker:none" overflow="visible" transform="translate(-685 75)"/>
    </g>
</svg>
