<svg xmlns="http://www.w3.org/2000/svg" width="16" height="16">
    <path d="m 647.34395,-74.06641 -1.40625,1.40625 2.11328,2.11328 c -2.20083,1.47465 -3.05078,3.54297 -3.05078,3.54297 0,0 2,5.00391 8,5.00391 1.1823,0 2.19215,-0.20695 3.07812,-0.51953 l 2.57813,2.57812 1.40625,-1.40625 z M 653.0002,-72 c -0.52394,0 -1.00643,0.0496 -1.4707,0.11914 l 1.91992,1.91992 a 3,3 0 0 1 2.51562,2.51563 l 3.10938,3.10937 C 660.44812,-65.63813 661.0002,-67 661.0002,-67 c 0,0 -2,-5 -8,-5 z m -2.69922,3.70312 3.99805,3.99805 A 3,3 0 0 1 653.0002,-64 a 3,3 0 0 1 -3,-3 3,3 0 0 1 0.30078,-1.29688 z" style="marker:none" color="#000" overflow="visible" fill="#4c5263" transform="translate(-645 75.003)"/>
</svg>
