<svg xmlns="http://www.w3.org/2000/svg" width="16" height="16">
    <g color="#000">
        <path d="M1 1h2v14H1z" style="marker:none" overflow="visible" fill="#4c5263"/>
        <path d="M15 13v2H1v-2z" style="marker:none" overflow="visible" fill="#4c5263"/>
        <path d="M13.5 1.074a.5.5 0 00-.487.514c.018 1.182-.07 2.284-.714 3.21-.645.928-1.894 1.762-4.42 2.27-2.72.547-4.343 1.689-5.307 3.063-.964 1.374-1.275 2.929-1.559 4.28a.5.5 0 10.979.206c.284-1.353.584-2.748 1.4-3.912C4.21 9.541 5.54 8.56 8.076 8.05c2.674-.538 4.213-1.484 5.045-2.68.832-1.196.91-2.559.892-3.797a.5.5 0 00-.513-.498z" style="line-height:normal;font-variant-ligatures:normal;font-variant-position:normal;font-variant-caps:normal;font-variant-numeric:normal;font-variant-alternates:normal;font-feature-settings:normal;text-indent:0;text-align:start;text-decoration-line:none;text-decoration-style:solid;text-decoration-color:#000;text-transform:none;text-orientation:mixed;white-space:normal;shape-padding:0;isolation:auto;mix-blend-mode:normal;solid-color:#000;solid-opacity:1;marker:none" font-weight="400" font-family="sans-serif" overflow="visible" fill="#555"/>
        <path d="M1.503 14.514C2.072 11.81 2.761 9.147 8 8c5.218-.955 5.085-3.648 6-6v12.558z" style="marker:none" overflow="visible" opacity=".33" fill="#4c5263"/>
    </g>
</svg>
