<svg xmlns="http://www.w3.org/2000/svg" width="16" height="16">
    <g color="#000" font-weight="400" font-family="Sans" fill="#4c5263">
        <path d="M618.03145-73.96875c-.095.00089-.15625.0312-.15625.0312l-11.8125 2.0625c-.9848.17365-.8125 1.15625-.8125 1.15625l.46875 2.71875h3.09375l1.125-1.9375 2.4375 1.9375h2.3125l.90625-1.21875 1.75 1.21875h2.59375l-.90625-5.125c-.13023-.7386-.71488-.84642-1-.84375zM606.2502-65l.71875 4.15625c.17364.9848 1.15625.8125 1.15625.8125l11.8125-2.09375c0 0 .98614-.17144.8125-1.15625L620.4377-65h-2l.1875 1.0625-9.84375 1.75-.5-2.8125zM606.0002-67v1h1v-1zm2 0v1h1v-1zm2 0v1h1v-1zm2 0v1h1v-1zm2 0v1h1v-1zm2 0v1h1v-1zm2 0v1h1v-1zm2 0v1h1v-1z" style="line-height:normal;-inkscape-font-specification:Sans;text-indent:0;text-align:start;text-decoration-line:none;text-transform:none;marker:none" overflow="visible" transform="translate(-605 75)"/>
    </g>
</svg>
