<svg xmlns="http://www.w3.org/2000/svg" width="16" height="16">
    <g color="#000" fill="#4c5263">
        <path d="m 586.00018,-54 h 2 v 14 h -2 z" style="marker:none" overflow="visible" transform="translate(-585 55)"/>
        <path d="m -42,-600.00024 h 2 v 14 h -2 z" style="marker:none" transform="rotate(90 -320 -265)" overflow="visible"/>
        <path d="m 598.5,-53.925781 a 0.50005,0.50005 0 0 0 -0.48633,0.513672 c 0.0174,1.181828 -0.07,2.284108 -0.71484,3.210937 -0.64481,0.926829 -1.89323,1.761577 -4.41992,2.269531 -2.72029,0.546875 -4.34237,1.688363 -5.30664,3.0625 -0.96428,1.374138 -1.27468,2.928793 -1.5586,4.279297 a 0.5000909,0.5000909 0 1 0 0.97852,0.207032 c 0.28448,-1.353167 0.58385,-2.748505 1.40039,-3.91211 0.81654,-1.163605 2.14641,-2.146185 4.68359,-2.65625 2.67394,-0.537556 4.213,-1.483904 5.04492,-2.679687 0.83193,-1.195784 0.91082,-2.558864 0.89258,-3.796875 A 0.50005,0.50005 0 0 0 598.5,-53.925781 Z" style="line-height:normal;font-variant-ligatures:normal;font-variant-position:normal;font-variant-caps:normal;font-variant-numeric:normal;font-variant-alternates:normal;font-feature-settings:normal;text-indent:0;text-align:start;text-decoration-line:none;text-decoration-style:solid;text-decoration-color:#000;text-transform:none;text-orientation:mixed;white-space:normal;shape-padding:0;isolation:auto;mix-blend-mode:normal;solid-color:#000;solid-opacity:1;marker:none" font-weight="400" font-family="sans-serif" overflow="visible" transform="translate(-585 55)"/>
        <path d="m 586.50354,-40.48615 c 0.5684,-2.70367 1.25808,-5.36691 6.49666,-6.51385 5.21797,-0.9552 5.08547,-3.64757 6,-6 v 12.55805 z" style="marker:none" overflow="visible" opacity=".33" transform="translate(-585 55)"/>
    </g>
</svg>
