<svg xmlns="http://www.w3.org/2000/svg" width="16" height="16">
    <g fill="#4c5263">
        <path d="m 609.29929,87 -2.85714,8 h 1.42858 l 0.60713,-1.71429 h 2.78571 L 611.87073,95 h 1.58928 l -3.01786,-8 z m 0.57144,2.28571 1,2.85715 h -2 z" transform="translate(-605 -85)"/>
        <path d="m 615.00026,90 v 1 h 2.49994 c 0.21408,0 0.5,0.30707 0.5,0.5 V 92 h -2.5 c -0.45964,0 -0.8678,0.19198 -1.125,0.48438 -0.2572,0.29239 -0.3782,0.65531 -0.375,1.01562 0.003,0.36031 0.13446,0.72635 0.39062,1.01563 C 614.64698,94.8049 615.04606,95 615.5002,95 h 2.5 0.5 0.5 v -0.42187 c 0.008,-0.0469 0,-0.0781 0,-0.0781 v -0.5 -2.5 c 0,-0.81717 -0.6599,-1.5 -1.5,-1.5 h -2.49994 z m 0.49994,3 h 2.5 v 1 h -2.5 c -0.19894,0 -0.28346,-0.0549 -0.35938,-0.14062 -0.0759,-0.0857 -0.13938,-0.21969 -0.14062,-0.35938 -10e-4,-0.13969 0.0523,-0.27677 0.125,-0.35937 C 615.1979,93.05803 615.28902,93 615.5002,93 Z" style="line-height:normal;-inkscape-font-specification:Sans;text-indent:0;text-align:start;text-decoration-line:none;text-transform:none;marker:none" color="#000" font-weight="400" font-family="Sans" overflow="visible" transform="translate(-605 -85)"/>
        <path d="m 610.00026,96.99664 3.00025,3.99995 2.99975,-3.99995 z" transform="translate(-605 -85)"/>
    </g>
</svg>
