<svg xmlns="http://www.w3.org/2000/svg" width="16" height="16.003">
    <g fill="#4c5263">
        <path d="M590.0002 97.00003l3.00025 3.99995 2.99975-3.99995zM585.0002 89v2h4c0 0 1 0 1-1 0-1-1-1-1-1zm12 0c0 0-1 0-1 1 0 1 1 1 1 1h4v-2z" transform="translate(-585 -84.997)"/>
        <path d="m 591.0002,86 c -1.46829,0 -2.74566,0.81149 -3.44141,2 h 3.44141 1 2 1 3.44141 c -0.69575,-1.18851 -1.97312,-2 -3.44141,-2 z m -3.44141,6 c 0.69575,1.18851 1.97312,2 3.44141,2 h 4 c 1.46829,0 2.74566,-0.81149 3.44141,-2 h -3.44141 -1 -2 -1 z" style="line-height:normal;text-indent:0;text-align:start;text-decoration-line:none;text-decoration-style:solid;text-decoration-color:#000;text-transform:none;white-space:normal;isolation:auto;mix-blend-mode:normal;solid-color:#000;solid-opacity:1" color="#000" font-weight="400" font-family="sans-serif" overflow="visible" transform="translate(-585 -84.997)"/>
    </g>
</svg>
