<svg xmlns="http://www.w3.org/2000/svg" width="16" height="16">
    <g fill="#4c5263">
        <path d="M4.3 2l-2.858 8H2.87l.607-1.714h2.785L6.871 10H8.46L5.442 2zm.57 2.286l1 2.857h-2z"/>
        <path d="M10 5v1h2.5c.214 0 .5.307.5.5V7h-2.5c-.46 0-.868.192-1.125.484A1.509 1.509 0 009 8.5c.003.36.134.726.39 1.016.257.289.656.484 1.11.484H14v-.422c.008-.047 0-.078 0-.078v-3A1.5 1.5 0 0012.5 5H10zm.5 3H13v1h-2.5c-.199 0-.283-.055-.36-.14A.572.572 0 0110 8.5a.56.56 0 01.125-.36c.073-.082.164-.14.375-.14z" style="line-height:normal;-inkscape-font-specification:Sans;text-indent:0;text-align:start;text-decoration-line:none;text-transform:none;marker:none" color="#000" font-weight="400" font-family="Sans" overflow="visible"/>
        <path d="M5 11.997l3 4 3-4z"/>
    </g>
</svg>
