<svg xmlns="http://www.w3.org/2000/svg" width="16" height="16.003">
    <g fill="#4c5263">
        <path d="M5 12.003l3 4 3-4zm-5-8v2h4s1 0 1-1-1-1-1-1zm12 0s-1 0-1 1 1 1 1 1h4v-2z"/>
        <path d="M6 1.003c-1.468 0-2.746.812-3.441 2H13.44c-.695-1.188-1.973-2-3.441-2zm-3.441 6c.695 1.189 1.973 2 3.441 2h4c1.468 0 2.746-.811 3.441-2H6z" style="line-height:normal;text-indent:0;text-align:start;text-decoration-line:none;text-decoration-style:solid;text-decoration-color:#000;text-transform:none;white-space:normal;isolation:auto;mix-blend-mode:normal;solid-color:#000;solid-opacity:1" color="#000" font-weight="400" font-family="sans-serif" overflow="visible"/>
    </g>
</svg>
