<svg xmlns="http://www.w3.org/2000/svg" width="16" height="16">
    <path d="m 749.0004,-13.00334 v 2 h 7 c 1.6793,0 3,1.3207 3,3 0,1.6793 -1.3207,3 -3,3 h -1 v -2 l -5,3 5,3 v -2 h 1 c 2.75085,0.10093 5,-2.2473 5,-5 0,-2.7527 -2.2473,-5 -5,-5 z m -2,7 a 2,2 0 0 0 -2,2 2,2 0 0 0 2,2 2,2 0 0 0 2,-2 2,2 0 0 0 -2,-2 z" style="line-height:normal;-inkscape-font-specification:Sans;text-indent:0;text-align:start;text-decoration-line:none;text-transform:none;marker:none" color="#bebebe" font-weight="400" font-family="Sans" overflow="visible" fill="#4c5263" transform="translate(-745 15.003)"/>
</svg>
