<svg xmlns="http://www.w3.org/2000/svg" width="16" height="16">
    <g font-weight="400" font-family="Sans" fill="#4c5263">
        <path d="m 451.99995,-93.5 -6.46875,4.5 6.46875,4.5 V -87 h 2 c 0.19015,0 0.37643,0.0205 0.55859,0.0527 0.36102,-0.40679 0.86438,-0.69917 1.42383,-0.83593 l 0.12891,-0.43164 c 0.23712,-0.79262 0.86395,-1.42078 1.65429,-1.66797 C 456.92113,-90.59552 455.80584,-91 454.49995,-91 h -2.5 z m 4.5,7.5 c -0.055,0 -0.10384,0.0128 -0.15234,0.0273 0.22406,0.24317 0.40126,0.51607 0.52148,0.8125 0.0802,-0.0878 0.13086,-0.20385 0.13086,-0.33984 0,-0.28799 -0.21201,-0.5 -0.5,-0.5 z" style="line-height:normal;-inkscape-font-specification:Sans;text-indent:0;text-align:start;text-decoration-line:none;text-transform:none;marker:none" color="#bebebe" overflow="visible" transform="translate(-445 95.003)"/>
        <path d="m 458.49995,-89 c -0.67876,0 -1.24463,0.45371 -1.42969,1.07227 0.91422,0.21867 1.63946,0.94489 1.85742,1.85937 0.61885,-0.18488 1.07227,-0.75268 1.07227,-1.43164 0,-0.82843 -0.67157,-1.5 -1.5,-1.5 z m -2,2 c -0.82843,0 -1.5,0.67157 -1.5,1.5 0,0.82842 0.67157,1.5 1.5,1.5 0.82843,0 1.5,-0.67158 1.5,-1.5 0,-0.82843 -0.67157,-1.5 -1.5,-1.5 z m 2.43555,2.0332 c -0.11623,0.49107 -0.38564,0.92212 -0.74805,1.26172 0.48659,0.17835 0.87803,0.4185 1.1582,0.70508 h 1.6543 v -0.5 c 0,0 -0.0278,-1.29397 -2.06445,-1.4668 z M 456.49995,-83 c -2.5,0 -2.5,1.5 -2.5,1.5 v 0.5 h 5 v -0.5 c 0,0 0,-1.5 -2.5,-1.5 z" style="line-height:normal;-inkscape-font-specification:Sans;text-indent:0;text-align:start;text-decoration-line:none;text-transform:none;marker:none" color="#000" overflow="visible" transform="translate(-445 95.003)"/>
    </g>
</svg>
