<svg xmlns="http://www.w3.org/2000/svg" width="16" height="16">
    <path d="m 450.21895,-54 -0.3125,0.28125 -3.625,3.625 -0.28125,0.3125 v 0.40625 4.75 0.40625 l 0.28125,0.3125 3.625,3.625 0.3125,0.28125 h 0.40625 4.75 0.40625 l 0.3125,-0.28125 3.625,-3.625 0.28125,-0.3125 v -0.40625 -4.75 -0.40625 l -0.28125,-0.3125 -3.625,-3.625 L 455.78145,-54 h -0.40625 -4.75 z m 1.78125,3 h 2 v 3 l -0.25,2 h -1.46875 l -0.28125,-2 z m 1,5.75 c 0.69036,0 1.25,0.55964 1.25,1.25 0,0.69036 -0.55964,1.25 -1.25,1.25 -0.69036,0 -1.25,-0.55964 -1.25,-1.25 0,-0.69036 0.55964,-1.25 1.25,-1.25 z" style="line-height:normal;-inkscape-font-specification:Sans;text-indent:0;text-align:start;text-decoration-line:none;text-transform:none;marker:none" color="#000" font-weight="400" font-family="Sans" overflow="visible" fill="#4c5263" transform="translate(-445 55)"/>
</svg>
