<svg xmlns="http://www.w3.org/2000/svg" width="16" height="16">
    <g font-weight="400" font-family="Sans" fill="#4c5263">
        <path d="M7 1.503l-6.47 4.5 6.47 4.5v-2.5h2c.19 0 .376.02.558.053.361-.407.865-.7 1.424-.836l.129-.432a2.514 2.514 0 011.654-1.667c-.844-.713-1.96-1.118-3.265-1.118H7zm4.5 7.5a.52.52 0 00-.153.028c.224.243.401.516.522.812a.496.496 0 00.13-.34c0-.288-.211-.5-.5-.5z" style="line-height:normal;-inkscape-font-specification:Sans;text-indent:0;text-align:start;text-decoration-line:none;text-transform:none;marker:none" color="#bebebe" overflow="visible"/>
        <path d="M13.5 6.003c-.68 0-1.245.454-1.43 1.073.914.218 1.64.945 1.857 1.859a1.496 1.496 0 00-.427-2.932zm-2 2a1.5 1.5 0 100 3 1.5 1.5 0 000-3zm2.435 2.034a2.536 2.536 0 01-.748 1.261c.487.179.878.419 1.158.705H16v-.5s-.028-1.294-2.065-1.466zM11.5 12.003c-2.5 0-2.5 1.5-2.5 1.5v.5h5v-.5s0-1.5-2.5-1.5z" style="line-height:normal;-inkscape-font-specification:Sans;text-indent:0;text-align:start;text-decoration-line:none;text-transform:none;marker:none" color="#000" overflow="visible"/>
    </g>
</svg>
