<svg xmlns="http://www.w3.org/2000/svg" width="16" height="16">
    <g font-weight="400" font-family="Sans" fill="#4c5263">
        <path d="M9 1.503l6.47 4.5-6.47 4.5v-2.5H7c-.19 0-.376.02-.558.053a2.788 2.788 0 00-1.424-.836l-.129-.432a2.514 2.514 0 00-1.654-1.667c.844-.713 1.96-1.118 3.265-1.118H9zm-4.5 7.5a.52.52 0 01.153.028 2.696 2.696 0 00-.522.812.496.496 0 01-.13-.34c0-.288.211-.5.5-.5z" style="line-height:normal;-inkscape-font-specification:Sans;text-indent:0;text-align:start;text-decoration-line:none;text-transform:none;marker:none" color="#bebebe" overflow="visible"/>
        <path d="M2.5 6.003c.68 0 1.245.454 1.43 1.073a2.524 2.524 0 00-1.857 1.859A1.496 1.496 0 012.5 6.003zm2 2a1.5 1.5 0 110 3 1.5 1.5 0 010-3zm-2.435 2.034c.116.49.386.922.748 1.261-.487.179-.878.419-1.158.705H0v-.5s.028-1.294 2.065-1.466zM4.5 12.003c2.5 0 2.5 1.5 2.5 1.5v.5H2v-.5s0-1.5 2.5-1.5z" style="line-height:normal;-inkscape-font-specification:Sans;text-indent:0;text-align:start;text-decoration-line:none;text-transform:none;marker:none" color="#000" overflow="visible"/>
    </g>
</svg>
