<svg xmlns="http://www.w3.org/2000/svg" width="16" height="16">
    <g fill="#4c5263">
        <path d="m 596.8752,-73.78125 -9.84375,1.75 c -0.98481,0.17365 -0.8125,1.15625 -0.8125,1.15625 l 0.5,2.875 h 12.1875 l -0.875,-4.96875 c -0.17365,-0.98481 -1.15625,-0.8125 -1.15625,-0.8125 z m -9.625,8.78125 0.71875,3.96875 c 0.17365,0.98481 1.15625,0.8125 1.15625,0.8125 l 9.84375,-1.75 c 0,0 0.98615,-0.17144 0.8125,-1.15625 L 599.4377,-65 Z" transform="translate(-585 75)"/>
        <path d="m 586.0002,-67 v 1 h 1 v -1 z m 2,0 v 1 h 1 v -1 z m 2,0 v 1 h 1 v -1 z m 2,0 v 1 h 1 v -1 z m 2,0 v 1 h 1 v -1 z m 2,0 v 1 h 1 v -1 z m 2,0 v 1 h 1 v -1 z m 2,0 v 1 h 1 v -1 z" style="line-height:normal;-inkscape-font-specification:Sans;text-indent:0;text-align:start;text-decoration-line:none;text-transform:none;marker:none" color="#000" font-weight="400" font-family="Sans" overflow="visible" transform="translate(-585 75)"/>
    </g>
</svg>
