<svg xmlns="http://www.w3.org/2000/svg" width="16" height="16">
    <g fill="#4c5263">
        <path d="M11.875 1.219l-9.844 1.75c-.985.173-.812 1.156-.812 1.156L1.719 7h12.187l-.875-4.969c-.173-.985-1.156-.812-1.156-.812zM2.25 10l.719 3.969c.173.985 1.156.812 1.156.812l9.844-1.75s.986-.171.812-1.156L14.437 10z"/>
        <path d="M1 8v1h1V8zm2 0v1h1V8zm2 0v1h1V8zm2 0v1h1V8zm2 0v1h1V8zm2 0v1h1V8zm2 0v1h1V8zm2 0v1h1V8z" style="line-height:normal;-inkscape-font-specification:Sans;text-indent:0;text-align:start;text-decoration-line:none;text-transform:none;marker:none" color="#000" font-weight="400" font-family="Sans" overflow="visible"/>
    </g>
</svg>
