<svg xmlns="http://www.w3.org/2000/svg" width="16" height="16">
    <path d="m 653.00607,-94.99991 v 2 c -3.31371,0 -6,2.68629 -6,6 0,3.31371 2.68629,6 6,6 3.28006,0 5.94034,-2.63316 5.99414,-5.90039 0.004,-0.0331 0.006,-0.0663 0.006,-0.0996 0,-0.006 -0.004,-0.0113 -0.004,-0.0176 h -1.99218 c -1.2e-4,0.006 -0.004,0.0113 -0.004,0.0176 0,2.20914 -1.79086,4 -4,4 -2.20914,0 -4,-1.79086 -4,-4 0,-2.20914 1.79086,-4 4,-4 v 2 l 3.49418,-3.01759 z" fill="#4c5263" transform="translate(-645.034 95)"/>
</svg>
