<svg xmlns="http://www.w3.org/2000/svg" width="16" height="16">
    <path d="m 534.0002,-94 1.21875,1.90625 -4.40625,2.75 c -0.51544,-0.41091 -1.15082,-0.65629 -1.8125,-0.65625 -1.57091,9e-5 -3,1.42933 -3,3 0,1.57067 1.42909,2.99991 3,3 0.66168,4e-5 1.29706,-0.27659 1.8125,-0.6875 l 4.40625,2.78125 L 534.0002,-80 h 6 l -2.5,-5.5 -1.21875,1.9375 -4.375,-2.78125 c 0.0545,-0.21463 0.0937,-0.43211 0.0937,-0.65625 0,-0.22414 -0.0393,-0.44162 -0.0937,-0.65625 l 4.375,-2.78125 1.21875,1.9375 2.5,-5.5 h -6 z" style="marker:none" color="#000" overflow="visible" fill="#4c5263" transform="translate(-525 95.003)"/>
</svg>
