<svg xmlns="http://www.w3.org/2000/svg" width="16.001" height="16">
    <g color="#000" fill="#4c5263">
        <path d="m 753.00606,65.39258 -2.11719,5.49414 -5.88281,0.3164 4.57226,3.71485 -1.51562,5.69141 4.94336,-3.20118 0.004,0.002 C 753.05947,74.97867 755.0575,73 757.5002,73 c 0.38301,0 0.74975,0.063 1.10547,0.1543 l 2.40039,-1.95118 -5.88086,-0.3164 z" style="line-height:normal;-inkscape-font-specification:sans-serif;text-indent:0;text-align:start;text-decoration-line:none;text-transform:none;marker:none" font-weight="400" font-family="sans-serif" overflow="visible" transform="translate(-745.006 -65)"/>
        <path d="m 757.5002,74 c -1.933,0 -3.5,1.567 -3.5,3.5 0,1.933 1.567,3.5 3.5,3.5 1.933,0 3.5,-1.567 3.5,-3.5 0,-1.933 -1.567,-3.5 -3.5,-3.5 z m -0.5,1 h 1 v 2 h 2 v 1 h -2 v 2 h -1 v -2 h -2 v -1 h 2 z" style="isolation:auto;mix-blend-mode:normal;solid-color:#000;solid-opacity:1" overflow="visible" fill-rule="evenodd" transform="translate(-745.006 -65)"/>
    </g>
</svg>
