<svg xmlns="http://www.w3.org/2000/svg" width="16" height="16">
    <g fill="#4c5263">
        <path d="M512.75946 150.99042l-.11022 1.31696a3.9285714 3.9285714 0 00-1.14815.66407l-1.19699-.56362-1.25 2.16517 1.08677.75475a3.9285714 3.9285714 0 00-.06.66267 3.9285714 3.9285714 0 00.0572.66545l-1.08399.75196 1.25 2.16517 1.1942-.56221a3.9285714 3.9285714 0 001.15094.65987l.11022 1.31976h2.5l.11021-1.31697a3.9285714 3.9285714 0 001.14816-.66406l1.19698.56361 1.25-2.16517-1.08677-.75475a3.9285714 3.9285714 0 00.06-.66266 3.9285714 3.9285714 0 00-.0572-.66546l1.08398-.75196-1.25-2.16517-1.1942.56222a3.9285714 3.9285714 0 00-1.15094-.65988l-.1102-1.31975zm1.25 3.57143a1.4285714 1.4285714 0 011.42857 1.42857 1.4285714 1.4285714 0 01-1.42857 1.42857 1.4285714 1.4285714 0 01-1.42857-1.42857 1.4285714 1.4285714 0 011.42857-1.42857zM512.18879 151.25957l-.33784-.71736a2.3571428 2.3571428 0 00.39738-.6895l.79106-.0662-.00003-1.50006-.79113-.0661a2.3571428 2.3571428 0 00-.16762-.36233 2.3571428 2.3571428 0 00-.22934-.32863l.3377-.7159-1.29908-.75006-.45184.65041a2.3571428 2.3571428 0 00-.796.002l-.45317-.65271-1.29903.75.33783.71736a2.3571428 2.3571428 0 00-.39738.6895l-.79106.0662.00004 1.50006.79113.0661a2.3571428 2.3571428 0 00.16763.36233 2.3571428 2.3571428 0 00.22934.32863l-.3377.7159 1.29908.75006.45184-.65041a2.3571428 2.3571428 0 00.796-.002l.45317.65272 1.29904-.75zm-1.72094-1.48076a.85714284.85714284 0 01-1.17088-.31374.85714284.85714284 0 01.31373-1.17088.85714284.85714284 0 011.17088.31374.85714284.85714284 0 01-.31373 1.17088z" transform="translate(-505 -144.997)"/>
    </g>
</svg>
