<svg xmlns="http://www.w3.org/2000/svg" width="16" height="16">
    <path d="M7.759 5.994l-.11 1.317a3.929 3.929 0 00-1.149.664L5.303 7.41l-1.25 2.165 1.087.755a3.929 3.929 0 00-.06.663 3.929 3.929 0 00.057.665l-1.084.752 1.25 2.165 1.194-.562a3.929 3.929 0 001.151.66l.11 1.32h2.5l.11-1.317a3.929 3.929 0 001.149-.664l1.197.563 1.25-2.165-1.087-.755a3.929 3.929 0 00.06-.662 3.929 3.929 0 00-.057-.666l1.084-.752-1.25-2.165-1.194.562a3.929 3.929 0 00-1.151-.66l-.11-1.32zm1.25 3.571a1.429 1.429 0 011.428 1.429 1.429 1.429 0 01-1.428 1.428 1.429 1.429 0 01-1.429-1.428 1.429 1.429 0 011.43-1.429zM7.188 6.263l-.338-.717a2.357 2.357 0 00.398-.69l.79-.066v-1.5l-.79-.066a2.357 2.357 0 00-.168-.363 2.357 2.357 0 00-.23-.328l.338-.716-1.299-.75-.452.65a2.357 2.357 0 00-.796.002l-.453-.653-1.299.75.338.718a2.357 2.357 0 00-.398.69l-.79.066v1.5l.79.066a2.357 2.357 0 00.168.362 2.357 2.357 0 00.23.329l-.338.716 1.299.75.452-.65a2.357 2.357 0 00.796-.003l.453.653 1.299-.75zm-1.721-1.48a.857.857 0 01-1.17-.315.857.857 0 01.313-1.17.857.857 0 011.17.313.857.857 0 01-.313 1.171z" fill="#4c5263"/>
</svg>
