<svg xmlns="http://www.w3.org/2000/svg" width="16" height="16">
    <g fill="#4c5263">
        <path d="m 432.00376,165.99664 h 1.99308 c 0.002,0 0.003,0.001 0.003,0.003 v 6.99664 c 0,0.002 -0.002,0.003 -0.003,0.003 h -1.99308 c -0.002,0 -0.003,-0.001 -0.003,-0.003 V 166 c 0,-0.002 0.001,-0.003 0.003,-0.003 z" color="#bebebe" transform="translate(-425 -164.997)"/>
        <path d="m 436.01172,167.81055 -1.00391,1.73047 c 1.56527,0.90864 2.32376,2.74145 1.85742,4.49023 -0.46633,1.74878 -2.03583,2.96013 -3.8457,2.96875 -1.80987,0.009 -3.39202,-1.18738 -3.875,-2.93164 -0.48297,-1.74426 0.25791,-3.58429 1.81445,-4.50781 l -1.01953,-1.72071 c -2.32456,1.3792 -3.44198,4.15682 -2.7207,6.76172 0.72128,2.60491 3.10766,4.41131 5.81055,4.39844 2.70289,-0.0129 5.07114,-1.84147 5.76758,-4.45312 0.69643,-2.61167 -0.44756,-5.37934 -2.78516,-6.73633 z" style="line-height:normal;font-variant-ligatures:normal;font-variant-position:normal;font-variant-caps:normal;font-variant-numeric:normal;font-variant-alternates:normal;font-feature-settings:normal;text-indent:0;text-align:start;text-decoration-line:none;text-decoration-style:solid;text-decoration-color:#000;text-transform:none;text-orientation:mixed;white-space:normal;shape-padding:0;isolation:auto;mix-blend-mode:normal;solid-color:#000;solid-opacity:1" color="#000" font-weight="400" font-family="sans-serif" overflow="visible" transform="translate(-425 -164.997)"/>
    </g>
</svg>
