<svg xmlns="http://www.w3.org/2000/svg" width="16" height="16">
    <g fill="#4c5263">
        <path d="m 457.24023,168.75391 c -1.71395,-1.71396 -4.29966,-2.22837 -6.53906,-1.30079 -2.23939,0.92759 -3.70508,3.11907 -3.70508,5.54297 0,2.42391 1.46569,4.61538 3.70508,5.54297 2.2394,0.92759 4.82511,0.41318 6.53906,-1.30078 l -1.41406,-1.41406 c -1.14602,1.14602 -2.86202,1.48741 -4.35937,0.86719 -1.49735,-0.62023 -2.47071,-2.0746 -2.47071,-3.69532 0,-1.62072 0.97336,-3.07508 2.47071,-3.69531 1.49735,-0.62022 3.21335,-0.27884 4.35937,0.86719 z" style="line-height:normal;font-variant-ligatures:normal;font-variant-position:normal;font-variant-caps:normal;font-variant-numeric:normal;font-variant-alternates:normal;font-feature-settings:normal;text-indent:0;text-align:start;text-decoration-line:none;text-decoration-style:solid;text-decoration-color:#000;text-transform:none;text-orientation:mixed;white-space:normal;shape-padding:0;isolation:auto;mix-blend-mode:normal;solid-color:#000;solid-opacity:1" color="#000" font-weight="400" font-family="sans-serif" overflow="visible" transform="translate(-445 -164.997)"/>
        <path d="m 457.0002,170 4,3 -4,3 v -2 h -4 v -2 h 4 z" style="marker:none" color="#bebebe" overflow="visible" transform="translate(-445 -164.997)"/>
    </g>
</svg>
