<svg xmlns="http://www.w3.org/2000/svg" width="16" height="16">
    <g fill="#4c5263">
        <path d="M12.24 3.757a6.006 6.006 0 00-6.54-1.3 6.007 6.007 0 00-3.704 5.542A6.007 6.007 0 005.7 13.542a6.006 6.006 0 006.539-1.3l-1.414-1.414a3.994 3.994 0 01-4.36.867 3.995 3.995 0 01-2.47-3.696c0-1.62.973-3.075 2.47-3.695a3.994 3.994 0 014.36.867z" style="line-height:normal;font-variant-ligatures:normal;font-variant-position:normal;font-variant-caps:normal;font-variant-numeric:normal;font-variant-alternates:normal;font-feature-settings:normal;text-indent:0;text-align:start;text-decoration-line:none;text-decoration-style:solid;text-decoration-color:#000;text-transform:none;text-orientation:mixed;white-space:normal;shape-padding:0;isolation:auto;mix-blend-mode:normal;solid-color:#000;solid-opacity:1" color="#000" font-weight="400" font-family="sans-serif" overflow="visible"/>
        <path d="M12 5.003l4 3-4 3v-2H8v-2h4z" style="marker:none" color="#bebebe" overflow="visible"/>
    </g>
</svg>
