<svg xmlns="http://www.w3.org/2000/svg" width="16" height="16">
    <g color="#000" font-weight="400" font-family="sans-serif" fill="#4c5263">
        <path d="M348.00391 8l-.008 2 2.92188.01172h.002c-.0552 0 .084.159318.084.08203v.923828H350c-1.71588 0-3.03006 1.125485-3.05469 2.484375-.0123.679445.30583 1.362997.86133 1.822266.5555.459269 1.31545.699219 2.19336.699219h3.00391V10.09375c0-1.1711874-.88715-2.0820313-2.08399-2.0820312zM350 13.017578h1.00391v1.00586H350c-.51941 0-.79379-.135948-.91992-.240235-.12614-.104286-.13607-.174131-.13477-.246094.003-.143925.0849-.519531 1.05469-.519531zM353.99805 7v9.023438H357c.93855 0 1.76882-.372537 2.29883-.958985.53-.586447.76574-1.336586.75586-2.066406-.01-.72982-.26223-1.465792-.78907-2.042969C358.73879 10.377901 357.92105 10 357 10h-1.00195V7zm2 5H357c.42179 0 .62551.125689.78711.302734.1616.177046.26384.446847.26758.722657.004.27581-.0886.52949-.24024.697265-.15162.167775-.35569.300782-.81445.300782h-1.00195zM349 16.292969l-2.35352 2.353515a.50005.50005 0 10.70704.707032L349 17.707031l2 2 2-2 2 2 2-2 2 2 2.35352-2.353515a.50005.50005 0 10-.70704-.707032L359 18.292969l-2-2-2 2-2-2-2 2z" style="line-height:normal;font-variant-ligatures:normal;font-variant-position:normal;font-variant-caps:normal;font-variant-numeric:normal;font-variant-alternates:normal;font-feature-settings:normal;text-indent:0;text-align:start;text-decoration-line:none;text-decoration-style:solid;text-decoration-color:#000;text-transform:none;text-orientation:mixed;white-space:normal;shape-padding:0;isolation:auto;mix-blend-mode:normal;solid-color:#000;solid-opacity:1;marker:none" overflow="visible" transform="translate(-346 -5)"/>
    </g>
</svg>
