<svg xmlns="http://www.w3.org/2000/svg" xmlns:xlink="http://www.w3.org/1999/xlink" width="16" height="16">
    <g transform="translate(-705 15.003)" fill="#4c5263">
        <path id="a" d="m 708.25024,-12 h 1.49999 c 0.1385,0 0.25,0.1115 0.25,0.25 v 1.5 c 0,0.1385 -0.1115,0.25 -0.25,0.25 h -1.49999 c -0.1385,0 -0.25,-0.1115 -0.25,-0.25 v -1.5 c 0,-0.1385 0.1115,-0.25 0.25,-0.25 z" opacity="1" fill-opacity="1" stroke="none" stroke-width="2" stroke-linecap="round" stroke-linejoin="miter" stroke-miterlimit="4" stroke-dasharray="none" stroke-opacity="1"/>
        <use height="100%" xlink:href="#a" transform="translate(4)" width="100%"/>
        <use height="100%" xlink:href="#a" transform="translate(8)" width="100%"/>
        <use height="100%" xlink:href="#a" transform="translate(4 4)" width="100%"/>
        <use height="100%" xlink:href="#a" transform="translate(8 4)" width="100%"/>
        <use height="100%" xlink:href="#a" transform="translate(4 8)" width="100%"/>
        <use height="100%" xlink:href="#a" transform="translate(8 8)" width="100%"/>
        <use height="100%" xlink:href="#a" transform="translate(0 4)" width="100%"/>
        <use height="100%" xlink:href="#a" transform="translate(0 8)" width="100%"/>
    </g>
</svg>
