<svg xmlns="http://www.w3.org/2000/svg" width="16" height="16">
    <g fill="#4c5263">
        <path d="M4.25 4.003h1.5a.25.25 0 01.25.25v1.5a.25.25 0 01-.25.25h-1.5a.25.25 0 01-.25-.25v-1.5a.25.25 0 01.25-.25zM7.25 4.003h1.5a.25.25 0 01.25.25v1.5a.25.25 0 01-.25.25h-1.5a.25.25 0 01-.25-.25v-1.5a.25.25 0 01.25-.25zM10.25 4.003h1.5a.25.25 0 01.25.25v1.5a.25.25 0 01-.25.25h-1.5a.25.25 0 01-.25-.25v-1.5a.25.25 0 01.25-.25zM4.25 7.003h1.5a.25.25 0 01.25.25v1.5a.25.25 0 01-.25.25h-1.5a.25.25 0 01-.25-.25v-1.5a.25.25 0 01.25-.25zM7.25 7.003h1.5a.25.25 0 01.25.25v1.5a.25.25 0 01-.25.25h-1.5a.25.25 0 01-.25-.25v-1.5a.25.25 0 01.25-.25zM10.25 7.003h1.5a.25.25 0 01.25.25v1.5a.25.25 0 01-.25.25h-1.5a.25.25 0 01-.25-.25v-1.5a.25.25 0 01.25-.25zM4.25 10.003h1.5a.25.25 0 01.25.25v1.5a.25.25 0 01-.25.25h-1.5a.25.25 0 01-.25-.25v-1.5a.25.25 0 01.25-.25zM7.25 10.003h1.5a.25.25 0 01.25.25v1.5a.25.25 0 01-.25.25h-1.5a.25.25 0 01-.25-.25v-1.5a.25.25 0 01.25-.25zM10.25 10.003h1.5a.25.25 0 01.25.25v1.5a.25.25 0 01-.25.25h-1.5a.25.25 0 01-.25-.25v-1.5a.25.25 0 01.25-.25z"/>
    </g>
</svg>
