<svg xmlns="http://www.w3.org/2000/svg" width="16" height="16">
    <path d="M3.25 3.003h3.5a.25.25 0 01.25.25v3.5a.25.25 0 01-.25.25h-3.5a.25.25 0 01-.25-.25v-3.5a.25.25 0 01.25-.25zm6 0h3.5a.25.25 0 01.25.25v3.5a.25.25 0 01-.25.25h-3.5a.25.25 0 01-.25-.25v-3.5a.25.25 0 01.25-.25zm-6 6h3.5a.25.25 0 01.25.25v3.5a.25.25 0 01-.25.25h-3.5a.25.25 0 01-.25-.25v-3.5a.25.25 0 01.25-.25zm6 0h3.5a.25.25 0 01.25.25v3.5a.25.25 0 01-.25.25h-3.5a.25.25 0 01-.25-.25v-3.5a.25.25 0 01.25-.25z" fill="#4c5263"/>
</svg>
