<svg xmlns="http://www.w3.org/2000/svg" width="16" height="16">
    <path d="M4.25 4.003h1.5a.25.25 0 01.25.25v1.5a.25.25 0 01-.25.25h-1.5a.25.25 0 01-.25-.25v-1.5a.25.25 0 01.25-.25zm3 0h1.5a.25.25 0 01.25.25v1.5a.25.25 0 01-.25.25h-1.5a.25.25 0 01-.25-.25v-1.5a.25.25 0 01.25-.25zm3 0h1.5a.25.25 0 01.25.25v1.5a.25.25 0 01-.25.25h-1.5a.25.25 0 01-.25-.25v-1.5a.25.25 0 01.25-.25zm-6 3h1.5a.25.25 0 01.25.25v1.5a.25.25 0 01-.25.25h-1.5a.25.25 0 01-.25-.25v-1.5a.25.25 0 01.25-.25zm3 0h1.5a.25.25 0 01.25.25v1.5a.25.25 0 01-.25.25h-1.5a.25.25 0 01-.25-.25v-1.5a.25.25 0 01.25-.25zm3 0h1.5a.25.25 0 01.25.25v1.5a.25.25 0 01-.25.25h-1.5a.25.25 0 01-.25-.25v-1.5a.25.25 0 01.25-.25zm-6 3h1.5a.25.25 0 01.25.25v1.5a.25.25 0 01-.25.25h-1.5a.25.25 0 01-.25-.25v-1.5a.25.25 0 01.25-.25zm3 0h1.5a.25.25 0 01.25.25v1.5a.25.25 0 01-.25.25h-1.5a.25.25 0 01-.25-.25v-1.5a.25.25 0 01.25-.25zm3 0h1.5a.25.25 0 01.25.25v1.5a.25.25 0 01-.25.25h-1.5a.25.25 0 01-.25-.25v-1.5a.25.25 0 01.25-.25z" fill="#4c5263"/>
</svg>
