<svg xmlns="http://www.w3.org/2000/svg" width="16" height="16">
    <path d="m 672.5002,8 c -0.82235,0 -1.5,0.67765 -1.5,1.5 0,0.82235 0.67765,1.5 1.5,1.5 0.82235,0 1.5,-0.67765 1.5,-1.5 0,-0.82235 -0.67765,-1.5 -1.5,-1.5 z m 0,4 c -0.82235,0 -1.5,0.67765 -1.5,1.5 0,0.82235 0.67765,1.5 1.5,1.5 0.82235,0 1.5,-0.67765 1.5,-1.5 0,-0.82235 -0.67765,-1.5 -1.5,-1.5 z m 0,4 c -0.82235,0 -1.5,0.67765 -1.5,1.5 0,0.82235 0.67765,1.5 1.5,1.5 0.82235,0 1.5,-0.67765 1.5,-1.5 0,-0.82235 -0.67765,-1.5 -1.5,-1.5 z" style="marker:none" color="#000" overflow="visible" fill="#4c5263" transform="translate(-665 -4.997)"/>
</svg>
