<svg xmlns="http://www.w3.org/2000/svg" width="16" height="16">
    <g fill="#4c5263">
        <path d="m 713.0002,6 c -3.86599,0 -7,3.13401 -7,7 0,3.86599 3.13401,7 7,7 3.17482,0 5.86154,-2.10317 6.71875,-5 h -2.15625 c -0.77427,1.75952 -2.51681,3 -4.5625,3 -2.76142,0 -5,-2.23858 -5,-5 0,-2.76142 2.23858,-5 5,-5 2.04569,0 3.78823,1.24048 4.5625,3 h 2.15625 C 718.86174,8.10317 716.17502,6 713.0002,6 Z" transform="translate(-705.002 -4.984)"/>
        <path d="m 714.0002,12 6,-6 v 6 z" transform="translate(-705.002 -4.984)"/>
    </g>
</svg>
