<svg xmlns="http://www.w3.org/2000/svg" width="16" height="16">
    <g color="#000" fill="#4c5263">
        <path d="M647.5002 7c-.82235 0-1.5.67765-1.5 1.5 0 .82235.67765 1.5 1.5 1.5.82235 0 1.5-.67765 1.5-1.5 0-.82235-.67765-1.5-1.5-1.5zm0 4c-.82235 0-1.5.67765-1.5 1.5 0 .82235.67765 1.5 1.5 1.5.82235 0 1.5-.67765 1.5-1.5 0-.82235-.67765-1.5-1.5-1.5zm0 4c-.82235 0-1.5.67765-1.5 1.5 0 .82235.67765 1.5 1.5 1.5.82235 0 1.5-.67765 1.5-1.5 0-.82235-.67765-1.5-1.5-1.5zM653.0002 18v-4h-3.0625l5.0625-7 5.1875 7h-3.1875v4z" style="marker:none" overflow="visible" transform="translate(-645 -5)"/>
    </g>
</svg>
