<svg xmlns="http://www.w3.org/2000/svg" xmlns:xlink="http://www.w3.org/1999/xlink" width="16" height="16">
    <g transform="translate(-705 15.003)" fill="#4c5263">
        <path id="a" d="M708.25-12h1.5a.25.25 0 01.25.25v1.5a.25.25 0 01-.25.25h-1.5a.25.25 0 01-.25-.25v-1.5a.25.25 0 01.25-.25z" opacity="1" fill-opacity="1" stroke="none" stroke-width="2" stroke-linecap="round" stroke-linejoin="miter" stroke-miterlimit="4" stroke-dasharray="none" stroke-opacity="1"/>
        <use height="100%" xlink:href="#a" transform="translate(4)" width="100%"/>
        <use height="100%" xlink:href="#a" transform="translate(8)" width="100%"/>
        <use height="100%" xlink:href="#a" transform="translate(4 4)" width="100%"/>
        <use height="100%" xlink:href="#a" transform="translate(8 4)" width="100%"/>
        <use height="100%" xlink:href="#a" transform="translate(4 8)" width="100%"/>
        <use height="100%" xlink:href="#a" transform="translate(8 8)" width="100%"/>
        <use height="100%" xlink:href="#a" transform="translate(0 4)" width="100%"/>
        <use height="100%" xlink:href="#a" transform="translate(0 8)" width="100%"/>
    </g>
</svg>
