<svg xmlns="http://www.w3.org/2000/svg" width="16" height="16">
    <g color="#000" fill="#4c5263">
        <path d="M627.5002 18c-.82235 0-1.5-.67765-1.5-1.5 0-.82235.67765-1.5 1.5-1.5.82235 0 1.5.67765 1.5 1.5 0 .82235-.67765 1.5-1.5 1.5zm0-4c-.82235 0-1.5-.67765-1.5-1.5 0-.82235.67765-1.5 1.5-1.5.82235 0 1.5.67765 1.5 1.5 0 .82235-.67765 1.5-1.5 1.5zm0-4c-.82235 0-1.5-.67765-1.5-1.5 0-.82235.67765-1.5 1.5-1.5.82235 0 1.5.67765 1.5 1.5 0 .82235-.67765 1.5-1.5 1.5zM633.0002 8v4h-3.0625l5.0625 7 5.1875-7h-3.1875V8z" style="marker:none" overflow="visible" transform="translate(-625 -5)"/>
    </g>
</svg>
