<svg xmlns="http://www.w3.org/2000/svg" width="16" height="16">
    <g fill="#4c5263">
        <path d="M649.25024-11h1.5c.1385 0 .25.1115.25.25v1.5c0 .1385-.1115.25-.25.25h-1.5c-.1385 0-.25-.1115-.25-.25v-1.5c0-.1385.1115-.25.25-.25zM652.25024-11h1.5c.1385 0 .25.1115.25.25v1.5c0 .1385-.1115.25-.25.25h-1.5c-.1385 0-.25-.1115-.25-.25v-1.5c0-.1385.1115-.25.25-.25zM655.25024-11h1.5c.1385 0 .25.1115.25.25v1.5c0 .1385-.1115.25-.25.25h-1.5c-.1385 0-.25-.1115-.25-.25v-1.5c0-.1385.1115-.25.25-.25zM649.25024-8h1.5c.1385 0 .25.1115.25.25v1.5c0 .1385-.1115.25-.25.25h-1.5c-.1385 0-.25-.1115-.25-.25v-1.5c0-.1385.1115-.25.25-.25zM652.25024-8h1.5c.1385 0 .25.1115.25.25v1.5c0 .1385-.1115.25-.25.25h-1.5c-.1385 0-.25-.1115-.25-.25v-1.5c0-.1385.1115-.25.25-.25zM655.25024-8h1.5c.1385 0 .25.1115.25.25v1.5c0 .1385-.1115.25-.25.25h-1.5c-.1385 0-.25-.1115-.25-.25v-1.5c0-.1385.1115-.25.25-.25zM649.25024-5h1.5c.1385 0 .25.1115.25.25v1.5c0 .1385-.1115.25-.25.25h-1.5c-.1385 0-.25-.1115-.25-.25v-1.5c0-.1385.1115-.25.25-.25zM652.25024-5h1.5c.1385 0 .25.1115.25.25v1.5c0 .1385-.1115.25-.25.25h-1.5c-.1385 0-.25-.1115-.25-.25v-1.5c0-.1385.1115-.25.25-.25zM655.25024-5h1.5c.1385 0 .25.1115.25.25v1.5c0 .1385-.1115.25-.25.25h-1.5c-.1385 0-.25-.1115-.25-.25v-1.5c0-.1385.1115-.25.25-.25z" transform="translate(-645 15.003)"/>
    </g>
</svg>
