<svg xmlns="http://www.w3.org/2000/svg" width="16" height="16.031">
    <g color="#000" font-weight="400" font-family="Sans" fill="#4c5263">
        <path d="m 606.0004,45.02789 c 0,4.33333 0,8.66667 0,13 0.66667,0 1.33333,0 2,0 -4.1e-4,-3.67607 -1.1e-4,-7.35213 -2e-4,-11.0282 2.71591,0.005 9,3.1e-4 9,3.1e-4 0,0 2e-4,-1.52168 2e-4,-1.97251 -3.66653,2.7e-4 -7.33413,-5.3e-4 -11,4e-4 z" style="line-height:normal;-inkscape-font-specification:Sans;text-indent:0;text-align:start;text-decoration-line:none;text-transform:none;marker:none" overflow="visible" transform="translate(-605 -44.997)"/>
        <path d="m 609.0004,48.02789 c 0,4.33333 0,8.66667 0,13 3.66667,0 7.33333,0 11,0 0,-4.33333 0,-8.66667 0,-13 -3.66667,0 -7.33333,0 -11,0 z M 611.0002,50 c 2.33333,0 4.66667,0 7,0 0,3 0,6 0,9 -2.33333,0 -4.66667,0 -7,0 0,-3 0,-6 0,-9 z" style="line-height:normal;-inkscape-font-specification:Sans;text-indent:0;text-align:start;text-decoration-line:none;text-transform:none;marker:none" overflow="visible" transform="translate(-605 -44.997)"/>
    </g>
</svg>
