<svg xmlns="http://www.w3.org/2000/svg" width="16" height="16">
    <path d="m 270.0002,169 a 1,1 0 0 0 -1,1 1,1 0 0 0 0.29297,0.70703 l 2.29297,2.29297 -2.29297,2.29297 A 1,1 0 0 0 269.0002,176 a 1,1 0 0 0 1,1 1,1 0 0 0 0.70703,-0.29297 l 2.29297,-2.29297 2.2832,2.28321 a 1,1 0 0 0 0.7168,0.30273 1,1 0 0 0 1,-1 1,1 0 0 0 -0.29297,-0.70703 L 274.41426,173 l 2.28321,-2.2832 A 1,1 0 0 0 277.0002,170 a 1,1 0 0 0 -1,-1 1,1 0 0 0 -0.70703,0.29297 l -2.29297,2.29297 -2.2832,-2.28321 a 1,1 0 0 0 -0.01,-0.01 A 1,1 0 0 0 270,169 Z" fill="#444" transform="translate(-265 -164.997)"/>
</svg>
