<?xml version="1.0" encoding="UTF-8" standalone="no"?>
<!-- Created with Inkscape (http://www.inkscape.org/) -->

<svg
   xmlns:dc="http://purl.org/dc/elements/1.1/"
   xmlns:cc="http://creativecommons.org/ns#"
   xmlns:rdf="http://www.w3.org/1999/02/22-rdf-syntax-ns#"
   xmlns:svg="http://www.w3.org/2000/svg"
   xmlns="http://www.w3.org/2000/svg"
   xmlns:sodipodi="http://sodipodi.sourceforge.net/DTD/sodipodi-0.dtd"
   xmlns:inkscape="http://www.inkscape.org/namespaces/inkscape"
   inkscape:export-ydpi="90.000000"
   inkscape:export-xdpi="90.000000"
   width="736"
   height="544"
   id="svg11300"
   sodipodi:version="0.32"
   inkscape:version="0.91 r"
   sodipodi:docname="emblem-favourite.svg"
   inkscape:output_extension="org.inkscape.output.svg.inkscape"
   version="1.0"
   style="display:inline;enable-background:new"
   inkscape:export-filename="/home/sam/paper-template.png">
  <title
     id="title3004">Paper Icon Theme Template</title>
  <sodipodi:namedview
     stroke="#ef2929"
     fill="#f57900"
     id="base"
     pagecolor="#ffffff"
     bordercolor="#000000"
     borderopacity="0.25490196"
     inkscape:pageopacity="0"
     inkscape:pageshadow="2"
     inkscape:zoom="1"
     inkscape:cx="375.04564"
     inkscape:cy="341.03018"
     inkscape:current-layer="layer6"
     showgrid="false"
     inkscape:grid-bbox="true"
     inkscape:document-units="px"
     inkscape:showpageshadow="false"
     inkscape:window-width="1920"
     inkscape:window-height="1023"
     inkscape:window-x="0"
     inkscape:window-y="27"
     width="400px"
     height="300px"
     inkscape:snap-nodes="true"
     inkscape:snap-bbox="true"
     gridtolerance="10000"
     inkscape:object-nodes="true"
     inkscape:snap-grids="true"
     showguides="true"
     inkscape:guide-bbox="true"
     inkscape:window-maximized="1"
     inkscape:bbox-paths="true"
     inkscape:snap-bbox-midpoints="true"
     inkscape:snap-global="true"
     inkscape:object-paths="true"
     inkscape:snap-intersection-paths="true"
     inkscape:snap-smooth-nodes="true">
    <inkscape:grid
       spacingy="1px"
       spacingx="1px"
       id="grid5883"
       type="xygrid"
       enabled="true"
       visible="true"
       empspacing="4"
       snapvisiblegridlinesonly="true" />
    <inkscape:grid
       type="xygrid"
       id="grid11592"
       empspacing="2"
       visible="true"
       enabled="false"
       spacingx="0.5px"
       spacingy="0.5px"
       color="#ff0000"
       opacity="0.1254902"
       empcolor="#ff0000"
       empopacity="0.25098039"
       snapvisiblegridlinesonly="true" />
  </sodipodi:namedview>
  <defs
     id="defs3">
    <filter
       inkscape:collect="always"
       style="color-interpolation-filters:sRGB"
       id="filter4187"
       x="-0.02301"
       width="1.04602"
       y="-0.025079019"
       height="1.050158">
      <feGaussianBlur
         inkscape:collect="always"
         stdDeviation="4.2952"
         id="feGaussianBlur4189" />
    </filter>
  </defs>
  <metadata
     id="metadata4">
    <rdf:RDF>
      <cc:Work
         rdf:about="">
        <dc:format>image/svg+xml</dc:format>
        <dc:type
           rdf:resource="http://purl.org/dc/dcmitype/StillImage" />
        <dc:creator>
          <cc:Agent>
            <dc:title>Sam Hewitt</dc:title>
          </cc:Agent>
        </dc:creator>
        <dc:source />
        <cc:license
           rdf:resource="http://creativecommons.org/licenses/by-sa/3.0/" />
        <dc:title>Paper Icon Theme Template</dc:title>
        <dc:subject>
          <rdf:Bag />
        </dc:subject>
        <dc:date />
        <dc:rights>
          <cc:Agent>
            <dc:title />
          </cc:Agent>
        </dc:rights>
        <dc:publisher>
          <cc:Agent>
            <dc:title />
          </cc:Agent>
        </dc:publisher>
        <dc:identifier />
        <dc:relation />
        <dc:language />
        <dc:coverage />
        <dc:description />
        <dc:contributor>
          <cc:Agent>
            <dc:title />
          </cc:Agent>
        </dc:contributor>
      </cc:Work>
      <cc:Work
         rdf:about="">
        <dc:format>image/svg+xml</dc:format>
        <dc:type
           rdf:resource="http://purl.org/dc/dcmitype/StillImage" />
      </cc:Work>
      <cc:License
         rdf:about="http://creativecommons.org/licenses/by-sa/3.0/">
        <cc:permits
           rdf:resource="http://creativecommons.org/ns#Reproduction" />
        <cc:permits
           rdf:resource="http://creativecommons.org/ns#Distribution" />
        <cc:requires
           rdf:resource="http://creativecommons.org/ns#Notice" />
        <cc:requires
           rdf:resource="http://creativecommons.org/ns#Attribution" />
        <cc:permits
           rdf:resource="http://creativecommons.org/ns#DerivativeWorks" />
        <cc:requires
           rdf:resource="http://creativecommons.org/ns#ShareAlike" />
      </cc:License>
    </rdf:RDF>
  </metadata>
  <g
     style="display:inline"
     inkscape:groupmode="layer"
     inkscape:label="Icon"
     id="layer1"
     transform="translate(0,244)">
    <g
       style="display:none"
       inkscape:label="Baseplate"
       id="layer7"
       inkscape:groupmode="layer">
      <text
         y="337.74512"
         xml:space="preserve"
         x="15.006836"
         style="font-style:normal;font-variant:normal;font-weight:normal;font-stretch:normal;font-size:18px;font-family:'DejaVu Sans';-inkscape-font-specification:'DejaVu Sans';display:inline;fill:#000000;fill-opacity:1;stroke:none;enable-background:new"
         inkscape:label="context"
         id="context"><tspan
           style="font-style:normal;font-variant:normal;font-weight:normal;font-stretch:normal;font-family:'DejaVu Sans';-inkscape-font-specification:'DejaVu Sans'"
           y="337.74512"
           x="15.006836"
           sodipodi:role="line"
           id="tspan3933">emblems</tspan></text>
      <text
         y="337.74512"
         xml:space="preserve"
         x="142.48828"
         style="font-style:normal;font-variant:normal;font-weight:bold;font-stretch:normal;font-size:18px;line-height:125%;font-family:'DejaVu Sans';-inkscape-font-specification:'DejaVu Sans Bold';text-align:start;writing-mode:lr-tb;text-anchor:start;display:inline;fill:#000000;fill-opacity:1;stroke:none;enable-background:new"
         sodipodi:linespacing="125%"
         inkscape:label="icon-name"
         id="icon-name"><tspan
           style="font-style:normal;font-variant:normal;font-weight:bold;font-stretch:normal;font-size:18px;font-family:'DejaVu Sans';-inkscape-font-specification:'DejaVu Sans Bold'"
           y="337.74512"
           x="142.48828"
           sodipodi:role="line"
           id="tspan3937">emblem-favorite</tspan></text>
      <rect
         style="display:inline;overflow:visible;visibility:visible;fill:#d3d7cf;fill-opacity:1;fill-rule:nonzero;stroke:none;stroke-width:2;marker:none;enable-background:accumulate"
         id="rect16x16"
         width="16"
         height="16"
         x="-32"
         y="268"
         inkscape:label="16x16"
         transform="scale(-1,1)" />
      <rect
         style="display:inline;overflow:visible;visibility:visible;fill:#d3d7cf;fill-opacity:1;fill-rule:nonzero;stroke:none;stroke-width:2;marker:none;enable-background:accumulate"
         id="rect24x24"
         width="24"
         height="24"
         x="-76"
         y="260"
         inkscape:label="24x24"
         transform="scale(-1,1)" />
      <rect
         style="display:inline;overflow:visible;visibility:visible;fill:#d3d7cf;fill-opacity:1;fill-rule:nonzero;stroke:none;stroke-width:2;marker:none;enable-background:accumulate"
         id="rect32x32"
         width="32"
         height="32"
         x="-128"
         y="252"
         inkscape:label="32x32"
         transform="scale(-1,1)" />
      <rect
         inkscape:label="48x48"
         y="236"
         x="-192"
         height="48"
         width="48"
         id="rect48x48"
         style="display:inline;overflow:visible;visibility:visible;fill:#d3d7cf;fill-opacity:1;fill-rule:nonzero;stroke:none;stroke-width:2;marker:none;enable-background:accumulate"
         transform="scale(-1,1)" />
      <rect
         style="display:inline;overflow:visible;visibility:visible;fill:#d3d7cf;fill-opacity:1;fill-rule:nonzero;stroke:none;stroke-width:2;marker:none;enable-background:accumulate"
         id="rect3951"
         width="512"
         height="512"
         x="-720"
         y="-228"
         inkscape:label="48x48"
         transform="scale(-1,1)" />
    </g>
    <g
       inkscape:groupmode="layer"
       id="layer6"
       inkscape:label="Symbols"
       style="display:inline">
      <path
         id="path4191"
         d="M 464,235.1 431.52,205.532 C 316.16,100.92397 240,31.707973 240,-52.740027 240,-121.956 294.208,-175.94 363.2,-175.94 c 38.976,0 76.384,18.144 100.8,46.592 24.416,-28.448 61.824,-46.592 100.8,-46.592 68.992,0 123.2,53.984 123.2,123.199973 0,84.448 -76.16,153.663997 -191.52,258.272027 L 464,235.1 Z"
         inkscape:connector-curvature="0"
         style="display:inline;opacity:0.1;fill:#000000;fill-opacity:1;enable-background:new;filter:url(#filter4187);stroke:#000000;stroke-opacity:1;stroke-width:8;stroke-miterlimit:4;stroke-dasharray:none" />
      <path
         id="path4185"
         d="M 464,233.1 431.52,203.532 C 316.16,98.92397 240,29.707973 240,-54.740027 240,-123.956 294.208,-177.94 363.2,-177.94 c 38.976,0 76.384,18.144 100.8,46.592 24.416,-28.448 61.824,-46.592 100.8,-46.592 68.992,0 123.2,53.984 123.2,123.199973 0,84.448 -76.16,153.663997 -191.52,258.272027 L 464,233.1 Z"
         inkscape:connector-curvature="0"
         style="display:inline;opacity:0.2;fill:#000000;fill-opacity:1;enable-background:new" />
      <path
         style="display:inline;opacity:0.2;fill:#000000;fill-opacity:1;enable-background:new;filter:url(#filter4187)"
         inkscape:connector-curvature="0"
         d="M 464,235.1 431.52,205.532 C 316.16,100.92397 240,31.707973 240,-52.740027 240,-121.956 294.208,-175.94 363.2,-175.94 c 38.976,0 76.384,18.144 100.8,46.592 24.416,-28.448 61.824,-46.592 100.8,-46.592 68.992,0 123.2,53.984 123.2,123.199973 0,84.448 -76.16,153.663997 -191.52,258.272027 L 464,235.1 Z"
         id="path4183" />
      <path
         id="path4160"
         d="M 464,231.1 431.52,201.532 C 316.16,96.923973 240,27.707973 240,-56.740027 240,-125.956 294.208,-179.94 363.2,-179.94 c 38.976,0 76.384,18.144 100.8,46.592 24.416,-28.448 61.824,-46.592 100.8,-46.592 68.992,0 123.2,53.984 123.2,123.199973 0,84.448 -76.16,153.664 -191.52,258.272027 L 464,231.1 Z"
         inkscape:connector-curvature="0"
         style="display:inline;fill:#f44336;enable-background:new" />
      <path
         id="path4174"
         d="m 64,282.35 -1.45,-1.32 C 57.4,276.36 54,273.27 54,269.5 c 0,-3.09 2.42,-5.5 5.5,-5.5 1.74,0 3.41,0.81 4.5,2.08 1.09,-1.27 2.76,-2.08 4.5,-2.08 3.08,0 5.5,2.41 5.5,5.5 0,3.77 -3.4,6.86 -8.55,11.53 L 64,282.35 Z"
         inkscape:connector-curvature="0"
         style="display:inline;opacity:0.2;fill:#000000;enable-background:new" />
      <path
         style="display:inline;opacity:0.2;fill:#000000;enable-background:new"
         inkscape:connector-curvature="0"
         d="m 168,279.70352 -2.9,-2.64 c -10.3,-9.34 -17.1,-15.52 -17.1,-23.06 0,-6.18 4.84,-11 11,-11 3.48,0 6.82,1.62 9,4.16 2.18,-2.54 5.52,-4.16 9,-4.16 6.16,0 11,4.82 11,11 0,7.54 -6.8,13.72 -17.1,23.06 l -2.9,2.64 z"
         id="path4176" />
      <path
         id="path4178"
         d="m 112,281.7009 -2.03,-1.848 C 102.76,273.3149 98,268.9889 98,263.7109 c 0,-4.326 3.388,-7.7 7.7,-7.7 2.436,0 4.774,1.134 6.3,2.912 1.526,-1.778 3.864,-2.912 6.3,-2.912 4.312,0 7.7,3.374 7.7,7.7 0,5.278 -4.76,9.604 -11.97,16.142 l -2.03,1.848 z"
         inkscape:connector-curvature="0"
         style="display:inline;opacity:0.2;fill:#000000;enable-background:new" />
      <path
         style="display:inline;fill:#f44336;enable-background:new"
         inkscape:connector-curvature="0"
         d="m 64,281.35 -1.45,-1.32 C 57.4,275.36 54,272.27 54,268.5 c 0,-3.09 2.42,-5.5 5.5,-5.5 1.74,0 3.41,0.81 4.5,2.08 1.09,-1.27 2.76,-2.08 4.5,-2.08 3.08,0 5.5,2.41 5.5,5.5 0,3.77 -3.4,6.86 -8.55,11.53 L 64,281.35 Z"
         id="path4" />
      <path
         id="path4154"
         d="m 168,278.70352 -2.9,-2.64 c -10.3,-9.34 -17.1,-15.52 -17.1,-23.06 0,-6.18 4.84,-11 11,-11 3.48,0 6.82,1.62 9,4.16 2.18,-2.54 5.52,-4.16 9,-4.16 6.16,0 11,4.82 11,11 0,7.54 -6.8,13.72 -17.1,23.06 l -2.9,2.64 z"
         inkscape:connector-curvature="0"
         style="display:inline;fill:#f44336;enable-background:new" />
      <path
         style="display:inline;fill:#f44336;enable-background:new"
         inkscape:connector-curvature="0"
         d="m 112,280.7009 -2.03,-1.848 C 102.76,272.3149 98,267.9889 98,262.7109 c 0,-4.326 3.388,-7.7 7.7,-7.7 2.436,0 4.774,1.134 6.3,2.912 1.526,-1.778 3.864,-2.912 6.3,-2.912 4.312,0 7.7,3.374 7.7,7.7 0,5.278 -4.76,9.604 -11.97,16.142 l -2.03,1.848 z"
         id="path4156" />
      <path
         id="path4158"
         d="m 24,282.82021 -1.015,-0.924 c -3.605,-3.269 -5.985,-5.432 -5.985,-8.071 0,-2.163 1.694,-3.85 3.85,-3.85 1.218,0 2.387,0.567 3.15,1.456 0.763,-0.889 1.932,-1.456 3.15,-1.456 2.156,0 3.85,1.687 3.85,3.85 0,2.639 -2.38,4.802 -5.985,8.071 l -1.015,0.924 z"
         inkscape:connector-curvature="0"
         style="display:inline;fill:#f44336;enable-background:new" />
      <path
         style="display:inline;fill:#ffffff;enable-background:new;opacity:0.2"
         d="M 59.5 507 C 56.42 507 54 509.41 54 512.5 C 54 512.65532 54.013964 512.80777 54.025391 512.96094 C 54.288635 510.13475 56.601945 508 59.5 508 C 61.24 508 62.91 508.81008 64 510.08008 C 65.09 508.81008 66.76 508 68.5 508 C 71.398055 508 73.711365 510.13475 73.974609 512.96094 C 73.986036 512.80777 74 512.65532 74 512.5 C 74 509.41 71.58 507 68.5 507 C 66.76 507 65.09 507.81008 64 509.08008 C 62.91 507.81008 61.24 507 59.5 507 z "
         transform="translate(0,-244)"
         id="path4162" />
      <path
         style="display:inline;fill:#ffffff;enable-background:new;opacity:0.2"
         d="M 159 486.00391 C 152.84 486.00391 148 490.82391 148 497.00391 C 148 497.16251 148.0194 497.31717 148.02539 497.47461 C 148.29466 491.55281 153.01834 487.00391 159 487.00391 C 162.48 487.00391 165.82 488.62406 168 491.16406 C 170.18 488.62406 173.52 487.00391 177 487.00391 C 182.98166 487.00391 187.70534 491.55281 187.97461 497.47461 C 187.9806 497.31717 188 497.16251 188 497.00391 C 188 490.82391 183.16 486.00391 177 486.00391 C 173.52 486.00391 170.18 487.62406 168 490.16406 C 165.82 487.62406 162.48 486.00391 159 486.00391 z "
         transform="translate(0,-244)"
         id="path4164" />
      <path
         style="display:inline;fill:#ffffff;enable-background:new;opacity:0.2"
         d="M 105.69922 499.01172 C 101.38722 499.01172 98 502.38494 98 506.71094 C 98 506.86829 98.01699 507.02199 98.025391 507.17773 C 98.292151 503.11234 101.56709 500.01172 105.69922 500.01172 C 108.13522 500.01172 110.474 501.14583 112 502.92383 C 113.526 501.14583 115.86478 500.01172 118.30078 500.01172 C 122.43291 500.01172 125.70785 503.11234 125.97461 507.17773 C 125.98301 507.02199 126 506.86829 126 506.71094 C 126 502.38494 122.61278 499.01172 118.30078 499.01172 C 115.86478 499.01172 113.526 500.14583 112 501.92383 C 110.474 500.14583 108.13522 499.01172 105.69922 499.01172 z "
         transform="translate(0,-244)"
         id="path4166" />
      <path
         style="display:inline;fill:#ffffff;enable-background:new;opacity:0.2"
         d="M 363.19922 64.060547 C 294.20722 64.060547 240 118.04379 240 187.25977 C 240 187.5712 240.0116 187.88038 240.01367 188.19141 C 240.56963 119.49043 294.56352 66.060547 363.19922 66.060547 C 402.17522 66.060547 439.584 84.204344 464 112.65234 C 488.416 84.204344 525.82478 66.060547 564.80078 66.060547 C 633.43648 66.060547 687.43037 119.49043 687.98633 188.19141 C 687.9884 187.88038 688 187.5712 688 187.25977 C 688 118.04379 633.79278 64.060547 564.80078 64.060547 C 525.82478 64.060547 488.416 82.204344 464 110.65234 C 439.584 82.204344 402.17522 64.060547 363.19922 64.060547 z "
         transform="translate(0,-244)"
         id="path4193" />
    </g>
  </g>
</svg>
