<?xml version="1.0" encoding="UTF-8" standalone="no"?>
<!-- Created with Inkscape (http://www.inkscape.org/) -->

<svg
   xmlns:dc="http://purl.org/dc/elements/1.1/"
   xmlns:cc="http://creativecommons.org/ns#"
   xmlns:rdf="http://www.w3.org/1999/02/22-rdf-syntax-ns#"
   xmlns:svg="http://www.w3.org/2000/svg"
   xmlns="http://www.w3.org/2000/svg"
   xmlns:xlink="http://www.w3.org/1999/xlink"
   xmlns:sodipodi="http://sodipodi.sourceforge.net/DTD/sodipodi-0.dtd"
   xmlns:inkscape="http://www.inkscape.org/namespaces/inkscape"
   inkscape:export-ydpi="90.000000"
   inkscape:export-xdpi="90.000000"
   width="736"
   height="544"
   id="svg11300"
   sodipodi:version="0.32"
   inkscape:version="0.91 r"
   sodipodi:docname="emblem-unreadable.svg"
   inkscape:output_extension="org.inkscape.output.svg.inkscape"
   version="1.0"
   style="display:inline;enable-background:new"
   inkscape:export-filename="/home/sam/paper-template.png">
  <title
     id="title3004">Paper Icon Theme</title>
  <sodipodi:namedview
     stroke="#ef2929"
     fill="#f57900"
     id="base"
     pagecolor="#ffffff"
     bordercolor="#666666"
     borderopacity="0.25490196"
     inkscape:pageopacity="0"
     inkscape:pageshadow="2"
     inkscape:zoom="1"
     inkscape:cx="321.85561"
     inkscape:cy="34.395326"
     inkscape:current-layer="layer6"
     showgrid="false"
     inkscape:grid-bbox="true"
     inkscape:document-units="px"
     inkscape:showpageshadow="false"
     inkscape:window-width="1920"
     inkscape:window-height="1023"
     inkscape:window-x="0"
     inkscape:window-y="27"
     width="400px"
     height="300px"
     inkscape:snap-nodes="true"
     inkscape:snap-bbox="true"
     gridtolerance="10000"
     inkscape:object-nodes="true"
     inkscape:snap-grids="true"
     showguides="false"
     inkscape:guide-bbox="true"
     inkscape:window-maximized="1"
     inkscape:object-paths="true"
     inkscape:snap-intersection-paths="true"
     inkscape:snap-smooth-nodes="true"
     inkscape:snap-bbox-midpoints="true"
     inkscape:snap-bbox-edge-midpoints="false"
     inkscape:snap-global="true">
    <inkscape:grid
       spacingy="1px"
       spacingx="1px"
       id="grid5883"
       type="xygrid"
       enabled="true"
       visible="true"
       empspacing="4"
       snapvisiblegridlinesonly="true" />
    <inkscape:grid
       type="xygrid"
       id="grid11592"
       empspacing="2"
       visible="true"
       enabled="false"
       spacingx="0.5px"
       spacingy="0.5px"
       color="#ff0000"
       opacity="0.1254902"
       empcolor="#ff0000"
       empopacity="0.25098039"
       snapvisiblegridlinesonly="true" />
  </sodipodi:namedview>
  <defs
     id="defs3">
    <linearGradient
       id="linearGradient4015">
      <stop
         style="stop-color:#000000;stop-opacity:1;"
         offset="0"
         id="stop4017" />
      <stop
         style="stop-color:#000000;stop-opacity:0;"
         offset="1"
         id="stop4019" />
    </linearGradient>
    <linearGradient
       inkscape:collect="always"
       id="linearGradient4001">
      <stop
         style="stop-color:#ffffff;stop-opacity:1;"
         offset="0"
         id="stop4003" />
      <stop
         style="stop-color:#ffffff;stop-opacity:0;"
         offset="1"
         id="stop4005" />
    </linearGradient>
    <linearGradient
       inkscape:collect="always"
       xlink:href="#linearGradient4001"
       id="linearGradient4050"
       gradientUnits="userSpaceOnUse"
       gradientTransform="matrix(1,0,0,-1,0,368)"
       x1="160"
       y1="184"
       x2="160"
       y2="164" />
    <filter
       inkscape:collect="always"
       style="color-interpolation-filters:sRGB"
       id="filter4227"
       x="-0.024"
       width="1.048"
       y="-0.024"
       height="1.048">
      <feGaussianBlur
         inkscape:collect="always"
         stdDeviation="4.48"
         id="feGaussianBlur4229" />
    </filter>
  </defs>
  <metadata
     id="metadata4">
    <rdf:RDF>
      <cc:Work
         rdf:about="">
        <dc:format>image/svg+xml</dc:format>
        <dc:type
           rdf:resource="http://purl.org/dc/dcmitype/StillImage" />
        <dc:creator>
          <cc:Agent>
            <dc:title>Sam Hewitt</dc:title>
          </cc:Agent>
        </dc:creator>
        <dc:source />
        <cc:license
           rdf:resource="http://creativecommons.org/licenses/by-sa/3.0/" />
        <dc:title>Paper Icon Theme</dc:title>
        <dc:subject>
          <rdf:Bag />
        </dc:subject>
        <dc:date />
        <dc:rights>
          <cc:Agent>
            <dc:title />
          </cc:Agent>
        </dc:rights>
        <dc:publisher>
          <cc:Agent>
            <dc:title />
          </cc:Agent>
        </dc:publisher>
        <dc:identifier />
        <dc:relation />
        <dc:language />
        <dc:coverage />
        <dc:description />
        <dc:contributor>
          <cc:Agent>
            <dc:title />
          </cc:Agent>
        </dc:contributor>
      </cc:Work>
      <cc:Work
         rdf:about="">
        <dc:format>image/svg+xml</dc:format>
        <dc:type
           rdf:resource="http://purl.org/dc/dcmitype/StillImage" />
      </cc:Work>
      <cc:License
         rdf:about="http://creativecommons.org/licenses/by-sa/3.0/">
        <cc:permits
           rdf:resource="http://creativecommons.org/ns#Reproduction" />
        <cc:permits
           rdf:resource="http://creativecommons.org/ns#Distribution" />
        <cc:requires
           rdf:resource="http://creativecommons.org/ns#Notice" />
        <cc:requires
           rdf:resource="http://creativecommons.org/ns#Attribution" />
        <cc:permits
           rdf:resource="http://creativecommons.org/ns#DerivativeWorks" />
        <cc:requires
           rdf:resource="http://creativecommons.org/ns#ShareAlike" />
      </cc:License>
    </rdf:RDF>
  </metadata>
  <g
     style="display:inline"
     inkscape:groupmode="layer"
     inkscape:label="Icon"
     id="layer1"
     transform="translate(0,244)">
    <g
       style="display:none"
       inkscape:label="Baseplate"
       id="layer7"
       inkscape:groupmode="layer">
      <text
         y="332.48523"
         xml:space="preserve"
         x="31.006836"
         style="font-style:normal;font-variant:normal;font-weight:normal;font-stretch:normal;font-size:18px;font-family:'DejaVu Sans';-inkscape-font-specification:'DejaVu Sans';display:inline;fill:#000000;fill-opacity:1;stroke:none;enable-background:new"
         inkscape:label="context"
         id="context"><tspan
           style="font-style:normal;font-variant:normal;font-weight:normal;font-stretch:normal;font-family:'DejaVu Sans';-inkscape-font-specification:'DejaVu Sans'"
           y="332.48523"
           x="31.006836"
           sodipodi:role="line"
           id="tspan3933">emblems</tspan></text>
      <text
         y="332.48523"
         xml:space="preserve"
         x="158.48828"
         style="font-style:normal;font-variant:normal;font-weight:bold;font-stretch:normal;font-size:18px;line-height:125%;font-family:'DejaVu Sans';-inkscape-font-specification:'DejaVu Sans Bold';text-align:start;writing-mode:lr-tb;text-anchor:start;display:inline;fill:#000000;fill-opacity:1;stroke:none;enable-background:new"
         sodipodi:linespacing="125%"
         inkscape:label="icon-name"
         id="icon-name"><tspan
           style="font-style:normal;font-variant:normal;font-weight:bold;font-stretch:normal;font-size:18px;font-family:'DejaVu Sans';-inkscape-font-specification:'DejaVu Sans Bold'"
           y="332.48523"
           x="158.48828"
           sodipodi:role="line"
           id="tspan3937">emblem-unreadable</tspan></text>
      <rect
         style="display:inline;overflow:visible;visibility:visible;fill:#e9e9e9;fill-opacity:1;fill-rule:nonzero;stroke:none;stroke-width:2;marker:none;enable-background:accumulate"
         id="rect16x16"
         width="16"
         height="16"
         x="-48"
         y="268"
         inkscape:label="16x16"
         transform="scale(-1,1)" />
      <rect
         style="display:inline;overflow:visible;visibility:visible;fill:#e9e9e9;fill-opacity:1;fill-rule:nonzero;stroke:none;stroke-width:2;marker:none;enable-background:accumulate"
         id="rect24x24"
         width="24"
         height="24"
         x="-92"
         y="260"
         inkscape:label="24x24"
         transform="scale(-1,1)" />
      <rect
         style="display:inline;overflow:visible;visibility:visible;fill:#e9e9e9;fill-opacity:1;fill-rule:nonzero;stroke:none;stroke-width:2;marker:none;enable-background:accumulate"
         id="rect32x32"
         width="32"
         height="32"
         x="-144"
         y="252"
         inkscape:label="32x32"
         transform="scale(-1,1)" />
      <rect
         inkscape:label="48x48"
         y="236"
         x="-208"
         height="48"
         width="48"
         id="rect48x48"
         style="display:inline;overflow:visible;visibility:visible;fill:#e9e9e9;fill-opacity:1;fill-rule:nonzero;stroke:none;stroke-width:2;marker:none;enable-background:accumulate"
         transform="scale(-1,1)" />
      <rect
         style="display:inline;overflow:visible;visibility:visible;fill:#e9e9e9;fill-opacity:1;fill-rule:nonzero;stroke:none;stroke-width:2;marker:none;enable-background:accumulate"
         id="rect3951"
         width="512"
         height="512"
         x="-736"
         y="-228"
         inkscape:label="48x48"
         transform="scale(-1,1)" />
      <rect
         transform="scale(-1,1)"
         inkscape:label="16x16"
         y="276"
         x="-16"
         height="8"
         width="8"
         id="rect4208"
         style="display:inline;overflow:visible;visibility:visible;fill:#e9e9e9;fill-opacity:1;fill-rule:nonzero;stroke:none;stroke-width:2;marker:none;enable-background:accumulate" />
    </g>
    <g
       inkscape:groupmode="layer"
       id="layer6"
       inkscape:label="Symbols"
       style="display:inline">
      <rect
         ry="11"
         rx="11"
         y="-91"
         x="-284"
         height="22"
         width="22"
         id="rect4400"
         style="opacity:0.2;fill:#000000;fill-opacity:1;stroke:none"
         transform="matrix(0,-1,-1,0,0,0)" />
      <rect
         transform="matrix(0,-1,-1,0,0,0)"
         style="opacity:0.2;fill:#000000;fill-opacity:1;stroke:none"
         id="rect4402"
         width="40"
         height="40"
         x="-281"
         y="-204"
         rx="20"
         ry="20" />
      <rect
         transform="matrix(0,-1,-1,0,0,0)"
         style="opacity:0.2;fill:#000000;fill-opacity:1;stroke:none"
         id="rect4404"
         width="28"
         height="28"
         x="-283"
         y="-142"
         rx="14"
         ry="14" />
      <rect
         transform="matrix(0,-1,-1,0,16,0)"
         style="opacity:0.1;fill:#000000;fill-opacity:1;stroke:#000000;stroke-width:8;stroke-miterlimit:4;stroke-dasharray:none;stroke-opacity:1;filter:url(#filter4227)"
         id="rect4406"
         width="448"
         height="448"
         x="-256"
         y="-688"
         rx="224"
         ry="224" />
      <rect
         ry="20"
         rx="20"
         y="-204"
         x="-280"
         height="40"
         width="40"
         id="rect4408"
         style="fill:#d32f2f;fill-opacity:1;stroke:none"
         transform="matrix(0,-1,-1,0,0,0)" />
      <rect
         transform="matrix(0,-1,-1,0,0,0)"
         style="fill:#d32f2f;fill-opacity:1;stroke:none"
         id="rect4410"
         width="22"
         height="22"
         x="-283"
         y="-91"
         rx="11"
         ry="11" />
      <rect
         ry="14"
         rx="14"
         y="-142"
         x="-282"
         height="28"
         width="28"
         id="rect4412"
         style="fill:#d32f2f;fill-opacity:1;stroke:none"
         transform="matrix(0,-1,-1,0,0,0)" />
      <rect
         ry="8"
         rx="8"
         y="-48"
         x="-284"
         height="16"
         width="16"
         id="rect4414"
         style="display:inline;fill:#d32f2f;fill-opacity:1;stroke:none;enable-background:new"
         transform="matrix(0,-1,-1,0,0,0)" />
      <rect
         ry="224"
         rx="224"
         y="-688"
         x="-256"
         height="448"
         width="448"
         id="rect4416"
         style="opacity:0.2;fill:#000000;fill-opacity:1;stroke:none;filter:url(#filter4227)"
         transform="matrix(0,-1,-1,0,16,0)" />
      <rect
         transform="matrix(0,-1,-1,0,0,0)"
         style="fill:#d32f2f;fill-opacity:1;stroke:none"
         id="rect4418"
         width="448"
         height="448"
         x="-252"
         y="-704"
         rx="224"
         ry="224" />
      <rect
         transform="matrix(0,-1,-1,0,0,0)"
         style="display:inline;fill:#d32f2f;fill-opacity:1;stroke:none;enable-background:new"
         id="rect4420"
         width="8"
         height="8"
         x="-284"
         y="-16"
         rx="1"
         ry="1" />
      <path
         inkscape:connector-curvature="0"
         style="opacity:0.1;fill:#ffffff;fill-opacity:1;stroke:none"
         d="m 128,254 c -7.756,0 -14,6.244 -14,14 0,0.16884 0.0195,0.33264 0.0254,0.5 0.26374,-7.52057 6.38745,-13.5 13.97461,-13.5 7.58716,0 13.71087,5.97943 13.97461,13.5 0.006,-0.16736 0.0254,-0.33116 0.0254,-0.5 0,-7.756 -6.244,-14 -14,-14 z"
         id="path4422" />
      <path
         inkscape:connector-curvature="0"
         style="opacity:0.1;fill:#ffffff;fill-opacity:1;stroke:none"
         d="m 184,240 c -11.08,0 -20,8.92 -20,20 0,0.16787 0.008,0.33314 0.0117,0.5 0.26469,-10.84614 9.07617,-19.5 19.9883,-19.5 10.91213,0 19.72361,8.65386 19.98828,19.5 0.004,-0.16686 0.0117,-0.33213 0.0117,-0.5 0,-11.08 -8.92,-20 -20,-20 z"
         id="path4424" />
      <path
         inkscape:connector-curvature="0"
         style="opacity:0.1;fill:#ffffff;fill-opacity:1;stroke:none"
         d="m 80,261 c -6.094,0 -11,4.906 -11,11 0,0.16899 0.01793,0.33292 0.02539,0.5 C 69.287156,266.64183 74.074989,262 80,262 c 5.925011,0 10.712844,4.64183 10.974609,10.5 C 90.982075,272.33292 91,272.16899 91,272 91,265.906 86.094,261 80,261 Z"
         id="path4428" />
      <path
         inkscape:connector-curvature="0"
         style="opacity:0.2;fill:#ffffff;fill-opacity:1;stroke:none"
         d="m 480,-196 c -124.096,0 -224,99.904 -224,224 0,0.33437 0.0103,0.66598 0.0117,1 C 256.5481,-94.63106 356.23837,-194 480,-194 603.76163,-194 703.4519,-94.63106 703.98828,29 703.98973,28.66598 704,28.33437 704,28 704,-96.096 604.096,-196 480,-196 Z"
         id="path4430" />
      <path
         id="path4432"
         d="M 480,254 C 355.904,254 256,154.096 256,30 c 0,-0.33437 0.0103,-0.66598 0.0117,-1 0.5364,123.63106 100.22667,223 223.9883,223 123.76163,0 223.4519,-99.36894 223.98828,-223 10e-4,0.33402 0.0117,0.66563 0.0117,1 0,124.096 -99.904,224 -224,224 z"
         style="opacity:0.2;fill:#000000;fill-opacity:1;stroke:none"
         inkscape:connector-curvature="0" />
    </g>
    <g
       inkscape:groupmode="layer"
       id="layer2"
       inkscape:label="Pictogram"
       style="display:inline">
      <g
         id="g4189"
         transform="matrix(16,0,0,16,-1568,-4260)">
        <path
           style="fill:none;fill-rule:evenodd;stroke:#ffffff;stroke-width:2.5;stroke-linecap:square;stroke-linejoin:miter;stroke-miterlimit:4;stroke-dasharray:none;stroke-opacity:1"
           d="m 122,262 12,12"
           id="path4191"
           inkscape:connector-curvature="0" />
        <path
           inkscape:connector-curvature="0"
           id="path4193"
           d="m 134,262 -12,12"
           style="fill:none;fill-rule:evenodd;stroke:#ffffff;stroke-width:2.5;stroke-linecap:square;stroke-linejoin:miter;stroke-miterlimit:4;stroke-dasharray:none;stroke-opacity:1" />
      </g>
      <path
         style="color:#000000;font-style:normal;font-variant:normal;font-weight:normal;font-stretch:normal;font-size:medium;line-height:normal;font-family:sans-serif;text-indent:0;text-align:start;text-decoration:none;text-decoration-line:none;text-decoration-style:solid;text-decoration-color:#000000;letter-spacing:normal;word-spacing:normal;text-transform:none;direction:ltr;block-progression:tb;writing-mode:lr-tb;baseline-shift:baseline;text-anchor:start;white-space:normal;clip-rule:nonzero;display:inline;overflow:visible;visibility:visible;opacity:1;isolation:auto;mix-blend-mode:normal;color-interpolation:sRGB;color-interpolation-filters:linearRGB;solid-color:#000000;solid-opacity:1;fill:#ffffff;fill-opacity:1;fill-rule:evenodd;stroke:none;stroke-width:2;stroke-linecap:butt;stroke-linejoin:miter;stroke-miterlimit:4;stroke-dasharray:none;stroke-dashoffset:0;stroke-opacity:1;color-rendering:auto;image-rendering:auto;shape-rendering:auto;text-rendering:auto;enable-background:accumulate"
         d="m 36,516 0,1 a 1,1 0 0 0 0.292969,0.70703 L 38.585938,520 36.292969,522.29297 A 1,1 0 0 0 36,523 l 0,1 1,0 a 1,1 0 0 0 0.707031,-0.29297 L 40,521.41406 l 2.283203,2.28321 A 1,1 0 0 0 43,524 l 1,0 0,-1 a 1,1 0 0 0 -0.292969,-0.70703 L 41.414062,520 43.697266,517.7168 A 1,1 0 0 0 44,517 l 0,-1 -1,0 a 1,1 0 0 0 -0.707031,0.29297 L 40,518.58594 37.716797,516.30273 a 1,1 0 0 0 -0.0098,-0.01 A 1,1 0 0 0 37,516 l -1,0 z"
         id="path4285"
         transform="translate(0,-244)"
         inkscape:connector-curvature="0" />
      <path
         style="color:#000000;font-style:normal;font-variant:normal;font-weight:normal;font-stretch:normal;font-size:medium;line-height:normal;font-family:sans-serif;text-indent:0;text-align:start;text-decoration:none;text-decoration-line:none;text-decoration-style:solid;text-decoration-color:#000000;letter-spacing:normal;word-spacing:normal;text-transform:none;direction:ltr;block-progression:tb;writing-mode:lr-tb;baseline-shift:baseline;text-anchor:start;white-space:normal;clip-rule:nonzero;display:inline;overflow:visible;visibility:visible;opacity:1;isolation:auto;mix-blend-mode:normal;color-interpolation:sRGB;color-interpolation-filters:linearRGB;solid-color:#000000;solid-opacity:1;fill:#ffffff;fill-opacity:1;fill-rule:evenodd;stroke:none;stroke-width:2;stroke-linecap:round;stroke-linejoin:miter;stroke-miterlimit:4;stroke-dasharray:none;stroke-dashoffset:0;stroke-opacity:1;color-rendering:auto;image-rendering:auto;shape-rendering:auto;text-rendering:auto;enable-background:accumulate"
         d="m 9.9902344,520.99023 a 1.0001,1.0001 0 0 0 -0.6972656,1.7168 L 10.585938,524 9.2929688,525.29297 a 1.0001,1.0001 0 1 0 1.4140622,1.41406 L 12,525.41406 l 1.292969,1.29297 a 1.0001,1.0001 0 1 0 1.414062,-1.41406 L 13.414062,524 l 1.292969,-1.29297 a 1.0001,1.0001 0 0 0 -0.726562,-1.7168 1.0001,1.0001 0 0 0 -0.6875,0.30274 L 12,522.58594 10.707031,521.29297 a 1.0001,1.0001 0 0 0 -0.7167966,-0.30274 z"
         id="path4291"
         transform="translate(0,-244)"
         inkscape:connector-curvature="0" />
      <g
         id="g4185">
        <path
           inkscape:connector-curvature="0"
           id="path4181"
           d="m 122,262 12,12"
           style="fill:none;fill-rule:evenodd;stroke:#ffffff;stroke-width:2.5;stroke-linecap:square;stroke-linejoin:miter;stroke-opacity:1;stroke-miterlimit:4;stroke-dasharray:none" />
        <path
           style="fill:none;fill-rule:evenodd;stroke:#ffffff;stroke-width:2.5;stroke-linecap:square;stroke-linejoin:miter;stroke-opacity:1;stroke-miterlimit:4;stroke-dasharray:none"
           d="m 134,262 -12,12"
           id="path4183"
           inkscape:connector-curvature="0" />
      </g>
      <path
         sodipodi:nodetypes="cc"
         inkscape:connector-curvature="0"
         id="path4197"
         d="m 176,252 16,16"
         style="fill:none;fill-rule:evenodd;stroke:#ffffff;stroke-width:3.5;stroke-linecap:square;stroke-linejoin:miter;stroke-miterlimit:4;stroke-dasharray:none;stroke-opacity:1" />
      <path
         sodipodi:nodetypes="cc"
         style="fill:none;fill-rule:evenodd;stroke:#ffffff;stroke-width:3.5;stroke-linecap:square;stroke-linejoin:miter;stroke-miterlimit:4;stroke-dasharray:none;stroke-opacity:1"
         d="m 192,252 -16,16"
         id="path4199"
         inkscape:connector-curvature="0" />
      <path
         inkscape:connector-curvature="0"
         id="path4203"
         d="m 76,268 8,8"
         style="fill:none;fill-rule:evenodd;stroke:#ffffff;stroke-width:2.5;stroke-linecap:square;stroke-linejoin:miter;stroke-miterlimit:4;stroke-dasharray:none;stroke-opacity:1"
         sodipodi:nodetypes="cc" />
      <path
         style="fill:none;fill-rule:evenodd;stroke:#ffffff;stroke-width:2.5;stroke-linecap:square;stroke-linejoin:miter;stroke-miterlimit:4;stroke-dasharray:none;stroke-opacity:1"
         d="m 84,268 -8,8"
         id="path4205"
         inkscape:connector-curvature="0"
         sodipodi:nodetypes="cc" />
    </g>
  </g>
</svg>
