<?xml version='1.0' encoding='UTF-8' standalone='no'?>
<svg height="16" xmlns:inkscape="http://www.inkscape.org/namespaces/inkscape" xmlns:sodipodi="http://sodipodi.sourceforge.net/DTD/sodipodi-0.dtd" version="1.1" width="16" xmlns="http://www.w3.org/2000/svg">
 <metadata id="metadata90"/>
 <g inkscape:groupmode="layer" id="layer10" inkscape:label="devices" transform="translate(-81.0002,-466.99908)">
  <path inkscape:connector-curvature="0" d="m 88.968788,466.99908 c -3.305456,0 -6.023869,3.00835 -5.968586,5.71875 0.06164,3.02218 0.933593,4.69547 1.125,5.28125 1.583096,0 -0.125,0 1.400504,0 -1.16149,-2.29152 -1.049064,-5.1562 -1.049064,-5.1562 0,-2.37255 2.006651,-4.31249 4.492146,-4.3125 2.485496,0 4.499787,1.92062 4.492147,4.375 -0.02342,1.67413 -0.171684,2.28358 -1.005236,4.8125 l 1.570681,0 c 0.224499,-0.64458 0.973822,-2.06546 0.973822,-4.90625 0,-2.8298 -2.725958,-5.8125 -6.031414,-5.8125 z" id="path10296" sodipodi:nodetypes="cscccscccssc" fill="#bebebe"/>
  <rect height="5.132" id="rect10298" rx="1.572" ry="1.861" transform="matrix(-0.96317422,-0.26887809,-0.3026725,0.95309462,0,0)" width="3.145" x="-234.41" y="431.7" fill="#bebebe"/>
  <rect height="5.132" id="rect10300" rx="1.572" ry="1.861" transform="matrix(0.96317422,-0.26887809,0.3026725,0.95309462,0,0)" width="3.145" x="-64.6" y="479.61" fill="#bebebe"/>
  <rect height="1.969" id="rect10302" rx="0.984" width="3.906" x="87.06" y="480.97" fill="#bebebe" color="#000000"/>
  <path inkscape:connector-curvature="0" d="m 93.59375,476.40625 a 0.50005,0.50005 0 0 0 -0.0625,0.96875 L 95,477.90625 l -0.03125,1.75 c -0.0049,0.53205 -0.135886,0.86771 -0.3125,1.0625 C 94.479636,480.91354 94.254364,481 93.9375,481 l -4.15625,0 a 0.50005,0.50005 0 1 0 0,1 l 4.15625,0 c 0.547554,0 1.092669,-0.21022 1.46875,-0.625 0.376081,-0.41478 0.555999,-1.00902 0.5625,-1.71875 L 96,477.5625 l 0,-0.34375 -0.3125,-0.125 -1.78125,-0.65625 a 0.50005,0.50005 0 0 0 -0.3125,-0.0312 z" id="path10304" color="#000000" fill="#bebebe"/>
 </g>
</svg>
