<?xml version='1.0' encoding='UTF-8' standalone='no'?>
<svg height="16" xmlns:inkscape="http://www.inkscape.org/namespaces/inkscape" xmlns:sodipodi="http://sodipodi.sourceforge.net/DTD/sodipodi-0.dtd" version="1.1" width="16" xmlns="http://www.w3.org/2000/svg" enable-background="new">
 <metadata id="metadata90"/>
 <defs id="defs7386">
  <linearGradient id="linearGradient5606" osb:paint="solid">
   <stop id="stop5608"/>
  </linearGradient>
  <filter inkscape:collect="always" color-interpolation-filters="sRGB" id="filter7554">
   <feBlend inkscape:collect="always" id="feBlend7556" in2="BackgroundImage" mode="darken"/>
  </filter>
 </defs>
 <g inkscape:groupmode="layer" id="layer10" inkscape:label="devices" transform="translate(-301.00023,90.999969)" filter="url(#filter7554)">
  <path inkscape:connector-curvature="0" d="m 309.0002,-90 c -3.31371,0 -6,2.68629 -6,6 0,2.087 1.07077,3.92508 2.6875,5 l -0.6875,0 c -2,0 -2,2 -2,2 l 0,1 12,0 0,-1 c 0,0 0,-2 -2,-2 l -0.6875,0 c 1.61673,-1.07492 2.6875,-2.913 2.6875,-5 0,-3.31371 -2.68629,-6 -6,-6 z m 0,3 c 1.65685,0 3,1.34315 3,3 0,1.65685 -1.34315,3 -3,3 -1.65685,0 -3,-1.34315 -3,-3 0,-1.65685 1.34315,-3 3,-3 z m 0,1 c -1.10457,0 -2,0.89543 -2,2 0,1.10457 0.89543,2 2,2 1.10457,0 2,-0.89543 2,-2 0,-1.10457 -0.89543,-2 -2,-2 z" id="rect3048" sodipodi:nodetypes="sscsccccscssssssssssss" fill="#bebebe"/>
 </g>
</svg>
