<?xml version='1.0' encoding='UTF-8' standalone='no'?>
<svg height="16" xmlns:inkscape="http://www.inkscape.org/namespaces/inkscape" xmlns:sodipodi="http://sodipodi.sourceforge.net/DTD/sodipodi-0.dtd" version="1.1" width="16" xmlns="http://www.w3.org/2000/svg" enable-background="new">
 <metadata id="metadata90"/>
 <defs id="defs7386">
  <linearGradient id="linearGradient5606" osb:paint="solid">
   <stop id="stop5608"/>
  </linearGradient>
  <filter inkscape:collect="always" color-interpolation-filters="sRGB" id="filter7554">
   <feBlend inkscape:collect="always" id="feBlend7556" in2="BackgroundImage" mode="darken"/>
  </filter>
 </defs>
 <g inkscape:groupmode="layer" id="layer10" inkscape:label="devices" transform="translate(-501.00046,91.002202)" filter="url(#filter7554)">
  <path inkscape:connector-curvature="0" d="m 502.34395,-91 a 0.50005,0.50005 0 0 0 -0.3125,0.65625 l 1.96875,5.875 -1,6.40625 0,0.0312 0,0.0312 0,2.5 0,0.5 12,0 0,-3 0,-0.0312 0,-0.0312 -1,-6.4375 1.71875,-5.875 A 0.50005,0.50005 0 0 0 515.2502,-91 l -12.75,0 a 0.50005,0.50005 0 0 0 -0.0937,0 0.50005,0.50005 0 0 0 -0.0625,0 z m 0.84375,1 11.40625,0 -1.46875,5 -8.28125,0 -1.65625,-5 z m 1.75,6 8.125,0 0.9375,6 -10,0 0.9375,-6 z m -0.9375,7 1,0 0,1 -1,0 0,-1 z" id="rect6035" fill="#bebebe"/>
  <path inkscape:connector-curvature="0" d="m 512.46895,-80.84375 -7.1875,1.8125 0,0.0312 7.4375,0 -0.25,-1.84375 z" id="path6048" color="#000000" fill="#bebebe"/>
  <path inkscape:connector-curvature="0" d="m 505.8127,-83 -0.375,2.875 6.90625,-1.75 L 512.1877,-83 z" id="path6074" sodipodi:nodetypes="ccccc" opacity="0.35" color="#000000" fill="#bebebe"/>
  <path inkscape:connector-curvature="0" d="m 504.5627,-89 1,3 6.8125,0 0.875,-3 -8.6875,0 z" id="path6076" opacity="0.35" color="#000000" fill="#bebebe"/>
 </g>
</svg>
