<?xml version='1.0' encoding='UTF-8' standalone='no'?>
<svg height="16" xmlns:inkscape="http://www.inkscape.org/namespaces/inkscape" xmlns:sodipodi="http://sodipodi.sourceforge.net/DTD/sodipodi-0.dtd" version="1.1" width="16" xmlns="http://www.w3.org/2000/svg" enable-background="new">
 <metadata id="metadata90"/>
 <defs id="defs7386">
  <linearGradient id="linearGradient5606" osb:paint="solid">
   <stop id="stop5608"/>
  </linearGradient>
  <filter inkscape:collect="always" color-interpolation-filters="sRGB" id="filter7554">
   <feBlend inkscape:collect="always" id="feBlend7556" in2="BackgroundImage" mode="darken"/>
  </filter>
 </defs>
 <g inkscape:groupmode="layer" id="layer9" inkscape:label="status" transform="translate(-365.00038,391.00336)">
  <path inkscape:connector-curvature="0" d="m 371.0002,-390 0,1 -2,0 c 0,0 -0.0625,-0.0156 -0.15625,0 -0.28125,0.0469 -0.84376,0.25 -0.84375,1 l 0,11 c 2e-5,1 1,1 1,1 l 7,0 0,-10 2,0 0,-2 c 0,0 0,-1 -1,-1 l -2,0 0,-1 -4,0 z" id="path6056" opacity="0.35" fill="#e13f2b"/>
  <path inkscape:connector-curvature="0" d="m 377.0004,-385.00336 0,5 0.25,2 1.5,0 0.25,-2 0,-5 z m 0,8 0,2 2,0 0,-2 z" id="path7562" sodipodi:nodetypes="cccccccccccc" fill="#e13f2b"/>
 </g>
</svg>
