<?xml version="1.0" encoding="UTF-8" standalone="no"?>
<svg xmlns="http://www.w3.org/2000/svg" xmlns:sodipodi="http://sodipodi.sourceforge.net/DTD/sodipodi-0.dtd" xmlns:inkscape="http://www.inkscape.org/namespaces/inkscape" height="16" version="1.1" width="16.03" enable-background="new">
 <metadata id="metadata90"/>
 <defs id="defs7386">
  <linearGradient id="linearGradient5606" osb:paint="solid">
   <stop id="stop5608"/>
  </linearGradient>
  <filter inkscape:collect="always" color-interpolation-filters="sRGB" id="filter7554">
   <feBlend inkscape:collect="always" id="feBlend7556" in2="BackgroundImage" mode="darken"/>
  </filter>
 </defs>
 <g inkscape:groupmode="layer" id="layer9" inkscape:label="status" transform="translate(-340.96897,428.00336)">
  <path d="M 8.03125 2 C 10.107969 2.0159849 11.881569 3.6356438 12 5.75 L 12.03125 5.78125 L 12.03125 5.8125 C 12.03119 6.60299 11.8893 7.29522 11.53125 7.90625 C 11.1732 8.51728 10.67174 8.95189 10.03125 9.4375 L 10.03125 9.46875 C 9.941 9.5368 9.8559337 9.6180525 9.8125 9.65625 C 9.8068078 9.6617594 9.787525 9.649075 9.78125 9.65625 C 9.77185 9.66695 9.73865 9.6672 9.71875 9.6875 C 9.71175 9.6942 9.72775 9.70975 9.71875 9.71875 C 9.58835 10.02814 9.47816 10.29791 9.21875 10.5 C 9.5315273 10.746799 9.7697765 11.072425 9.90625 11.4375 L 16 4.71875 C 13.74339 3.06546 11.0423 2 8.03125 2 z M 7.65625 2.03125 C 4.7730175 2.1166705 2.1708344 3.1479176 0 4.75 L 6.15625 11.4375 C 6.2839094 11.07245 6.5010562 10.746853 6.8125 10.5 C 6.34783 10.13631 6.02225 9.65722 6.03125 9 C 6.03125 8.20005 6.36858 7.56407 6.71875 7.125 C 6.76305 7.0694 6.79905 7.0511 6.84375 7 L 5.03125 7 L 4.0625 7 L 4.03125 6.0625 C 3.9115675 3.9257912 5.5898906 2.2128005 7.65625 2.03125 z " transform="translate(340.96897,-428.00336)" id="path7616" opacity="0.35" fill="#444444" color="#000000"/>
  <path inkscape:connector-curvature="0" d="m 348.79804,-425.001 c 1.64243,-0.092 3.0955,1.17008 3.1875,2.8125 -1e-4,1.40136 -0.37771,1.92177 -1.59375,2.84375 -0.19093,0.14364 -0.3256,0.2506 -0.375,0.3125 -0.0494,0.0621 -0.0312,0.0332 -0.0312,0.0312 0.007,0.52831 -0.47163,1 -1,1 -0.52837,0 -1.007,-0.47169 -1,-1 0,-0.50239 0.22424,-0.94342 0.46875,-1.25 0.24451,-0.30663 0.4913,-0.51638 0.71875,-0.6875 0.20405,-0.16056 0.46083,-0.38454 0.6875,-0.65625 0.0935,-0.1121 0.129,-0.30766 0.125,-0.4375 l 0,-0.0312 c -0.0316,-0.56324 -0.49926,-0.9691 -1.0625,-0.9375 -0.56324,0.0316 -0.9691,0.43676 -0.9375,1 l -2,0 c -0.092,-1.64243 1.17007,-2.9079 2.8125,-3 z m 0.1875,8 c 0.55228,0 1,0.44772 1,1 0,0.55228 -0.44772,1 -1,1 -0.55228,0 -1,-0.44772 -1,-1 0,-0.55228 0.44772,-1 1,-1 z" id="path19592-2" sodipodi:nodetypes="cccccsccccccsccccsssss" fill="#444444" color="#444444" stroke-width="2"/>
 </g>
</svg>
