<?xml version="1.0" encoding="UTF-8" standalone="no"?>
<svg xmlns="http://www.w3.org/2000/svg" xmlns:sodipodi="http://sodipodi.sourceforge.net/DTD/sodipodi-0.dtd" xmlns:inkscape="http://www.inkscape.org/namespaces/inkscape" height="16" version="1.1" width="16" enable-background="new">
 <metadata id="metadata90"/>
 <defs id="defs7386">
  <linearGradient id="linearGradient5606" osb:paint="solid">
   <stop id="stop5608"/>
  </linearGradient>
  <filter inkscape:collect="always" color-interpolation-filters="sRGB" id="filter7554">
   <feBlend inkscape:collect="always" id="feBlend7556" in2="BackgroundImage" mode="darken"/>
  </filter>
 </defs>
 <g inkscape:groupmode="layer" id="layer9" inkscape:label="status" transform="translate(-281.0002,327.00333)">
  <path d="M 15 1 L 1 15 L 9 15 L 9 13 L 9 12 L 9 11 L 10 11 C 10.01675 9.36263 11.35439 8 13 8 C 13.767637 8 14.46927 8.2987675 15 8.78125 L 15 1 z M 11 13 L 11 15 L 15 15 L 15 13 L 14 13 L 12 13 L 11 13 z " transform="translate(281.0002,-327.00333)" id="path6535" opacity="0.35" fill="#444444"/>
  <path d="M 12 4 L 1 15 L 9 15 L 9 13 L 9 12 L 9 11 L 10 11 C 10.013156 9.7139823 10.847952 8.6074642 12 8.1875 L 12 4 z M 11 13 L 11 15 L 12 15 L 12 13 L 11 13 z " transform="translate(281.0002,-327.00333)" id="path6554" fill="#444444"/>
  <path inkscape:connector-curvature="0" d="m 294.0002,-318 c -1.108,0 -2,0.91081 -2,2.03125 l 0,0.96875 -1,0 0,1 0,2 0,1 1,0 4,0 1,0 0,-1 0,-2 0,-1 -1,0 0,-0.96875 c 0,-1.12 -0.892,-2.03125 -2,-2.03125 z m 0,1 c 0.554,0 1,0.44236 1,1 l 0,1 -2,0 0,-1 c 0,-0.55764 0.446,-1 1,-1 z" id="path5983" sodipodi:nodetypes="ssccccccccccccssssccss" fill="#444444"/>
 </g>
</svg>
