<?xml version="1.0" encoding="UTF-8" standalone="no"?>
<!-- Created with Inkscape (http://www.inkscape.org/) -->

<svg
   xmlns:dc="http://purl.org/dc/elements/1.1/"
   xmlns:cc="http://creativecommons.org/ns#"
   xmlns:rdf="http://www.w3.org/1999/02/22-rdf-syntax-ns#"
   xmlns:svg="http://www.w3.org/2000/svg"
   xmlns="http://www.w3.org/2000/svg"
   xmlns:sodipodi="http://sodipodi.sourceforge.net/DTD/sodipodi-0.dtd"
   xmlns:inkscape="http://www.inkscape.org/namespaces/inkscape"
   inkscape:export-ydpi="90.000000"
   inkscape:export-xdpi="90.000000"
   width="736"
   height="544"
   id="svg11300"
   sodipodi:version="0.32"
   inkscape:version="0.91 r13725"
   sodipodi:docname="applications-science.svg"
   inkscape:output_extension="org.inkscape.output.svg.inkscape"
   version="1.0"
   style="display:inline;enable-background:new"
   inkscape:export-filename="/home/sam/paper-template.png">
  <title
     id="title3004">Paper Icon Theme Template</title>
  <sodipodi:namedview
     stroke="#ef2929"
     fill="#f57900"
     id="base"
     pagecolor="#737373"
     bordercolor="#000000"
     borderopacity="0.25490196"
     inkscape:pageopacity="0"
     inkscape:pageshadow="2"
     inkscape:zoom="1"
     inkscape:cx="359.98815"
     inkscape:cy="173.39794"
     inkscape:current-layer="layer6"
     showgrid="false"
     inkscape:grid-bbox="true"
     inkscape:document-units="px"
     inkscape:showpageshadow="false"
     inkscape:window-width="1920"
     inkscape:window-height="1019"
     inkscape:window-x="0"
     inkscape:window-y="27"
     width="400px"
     height="300px"
     inkscape:snap-nodes="true"
     inkscape:snap-bbox="true"
     gridtolerance="10000"
     inkscape:object-nodes="true"
     inkscape:snap-grids="true"
     showguides="true"
     inkscape:guide-bbox="true"
     inkscape:window-maximized="1"
     inkscape:bbox-paths="true"
     inkscape:snap-bbox-midpoints="true"
     inkscape:snap-global="true"
     inkscape:object-paths="true"
     inkscape:snap-intersection-paths="true"
     inkscape:snap-smooth-nodes="true">
    <inkscape:grid
       spacingy="1px"
       spacingx="1px"
       id="grid5883"
       type="xygrid"
       enabled="true"
       visible="true"
       empspacing="4"
       snapvisiblegridlinesonly="true" />
    <inkscape:grid
       type="xygrid"
       id="grid11592"
       empspacing="2"
       visible="true"
       enabled="false"
       spacingx="0.5px"
       spacingy="0.5px"
       color="#ff0000"
       opacity="0.1254902"
       empcolor="#ff0000"
       empopacity="0.25098039"
       snapvisiblegridlinesonly="true" />
  </sodipodi:namedview>
  <defs
     id="defs3">
    <filter
       inkscape:collect="always"
       style="color-interpolation-filters:sRGB"
       id="filter4239"
       x="-0.022615385"
       width="1.0452308"
       y="-0.025565217"
       height="1.0511304">
      <feGaussianBlur
         inkscape:collect="always"
         stdDeviation="3.92"
         id="feGaussianBlur4241" />
    </filter>
    <filter
       inkscape:collect="always"
       style="color-interpolation-filters:sRGB"
       id="filter4257"
       x="-0.045"
       width="1.09"
       y="-0.09"
       height="1.18">
      <feGaussianBlur
         inkscape:collect="always"
         stdDeviation="3"
         id="feGaussianBlur4259" />
    </filter>
  </defs>
  <metadata
     id="metadata4">
    <rdf:RDF>
      <cc:Work
         rdf:about="">
        <dc:format>image/svg+xml</dc:format>
        <dc:type
           rdf:resource="http://purl.org/dc/dcmitype/StillImage" />
        <dc:creator>
          <cc:Agent>
            <dc:title>Sam Hewitt</dc:title>
          </cc:Agent>
        </dc:creator>
        <dc:source />
        <cc:license
           rdf:resource="http://creativecommons.org/licenses/by-sa/3.0/" />
        <dc:title>Paper Icon Theme Template</dc:title>
        <dc:subject>
          <rdf:Bag />
        </dc:subject>
        <dc:date />
        <dc:rights>
          <cc:Agent>
            <dc:title />
          </cc:Agent>
        </dc:rights>
        <dc:publisher>
          <cc:Agent>
            <dc:title />
          </cc:Agent>
        </dc:publisher>
        <dc:identifier />
        <dc:relation />
        <dc:language />
        <dc:coverage />
        <dc:description />
        <dc:contributor>
          <cc:Agent>
            <dc:title />
          </cc:Agent>
        </dc:contributor>
      </cc:Work>
      <cc:Work
         rdf:about="">
        <dc:format>image/svg+xml</dc:format>
        <dc:type
           rdf:resource="http://purl.org/dc/dcmitype/StillImage" />
      </cc:Work>
      <cc:License
         rdf:about="http://creativecommons.org/licenses/by-sa/3.0/">
        <cc:permits
           rdf:resource="http://creativecommons.org/ns#Reproduction" />
        <cc:permits
           rdf:resource="http://creativecommons.org/ns#Distribution" />
        <cc:requires
           rdf:resource="http://creativecommons.org/ns#Notice" />
        <cc:requires
           rdf:resource="http://creativecommons.org/ns#Attribution" />
        <cc:permits
           rdf:resource="http://creativecommons.org/ns#DerivativeWorks" />
        <cc:requires
           rdf:resource="http://creativecommons.org/ns#ShareAlike" />
      </cc:License>
    </rdf:RDF>
  </metadata>
  <g
     style="display:inline"
     inkscape:groupmode="layer"
     inkscape:label="Icon"
     id="layer1"
     transform="translate(0,244)">
    <g
       style="display:none"
       inkscape:label="Baseplate"
       id="layer7"
       inkscape:groupmode="layer">
      <text
         y="337.74512"
         xml:space="preserve"
         x="15.006836"
         style="font-style:normal;font-variant:normal;font-weight:normal;font-stretch:normal;font-size:18px;font-family:'DejaVu Sans';-inkscape-font-specification:'DejaVu Sans';display:inline;fill:#000000;fill-opacity:1;stroke:none;enable-background:new"
         inkscape:label="context"
         id="context"><tspan
           style="font-style:normal;font-variant:normal;font-weight:normal;font-stretch:normal;font-family:'DejaVu Sans';-inkscape-font-specification:'DejaVu Sans'"
           y="337.74512"
           x="15.006836"
           sodipodi:role="line"
           id="tspan3933">categories</tspan></text>
      <text
         y="337.74512"
         xml:space="preserve"
         x="142.48828"
         style="font-style:normal;font-variant:normal;font-weight:bold;font-stretch:normal;font-size:18px;line-height:125%;font-family:'DejaVu Sans';-inkscape-font-specification:'DejaVu Sans Bold';text-align:start;writing-mode:lr-tb;text-anchor:start;display:inline;fill:#000000;fill-opacity:1;stroke:none;enable-background:new"
         sodipodi:linespacing="125%"
         inkscape:label="icon-name"
         id="icon-name"><tspan
           style="font-style:normal;font-variant:normal;font-weight:bold;font-stretch:normal;font-size:18px;font-family:'DejaVu Sans';-inkscape-font-specification:'DejaVu Sans Bold'"
           y="337.74512"
           x="142.48828"
           sodipodi:role="line"
           id="tspan3937">applications-science</tspan></text>
      <rect
         style="display:inline;overflow:visible;visibility:visible;fill:#d3d7cf;fill-opacity:1;fill-rule:nonzero;stroke:none;stroke-width:2;marker:none;enable-background:accumulate"
         id="rect16x16"
         width="16"
         height="16"
         x="-32"
         y="268"
         inkscape:label="16x16"
         transform="scale(-1,1)" />
      <rect
         style="display:inline;overflow:visible;visibility:visible;fill:#d3d7cf;fill-opacity:1;fill-rule:nonzero;stroke:none;stroke-width:2;marker:none;enable-background:accumulate"
         id="rect24x24"
         width="24"
         height="24"
         x="-76"
         y="260"
         inkscape:label="24x24"
         transform="scale(-1,1)" />
      <rect
         style="display:inline;overflow:visible;visibility:visible;fill:#d3d7cf;fill-opacity:1;fill-rule:nonzero;stroke:none;stroke-width:2;marker:none;enable-background:accumulate"
         id="rect32x32"
         width="32"
         height="32"
         x="-128"
         y="252"
         inkscape:label="32x32"
         transform="scale(-1,1)" />
      <rect
         inkscape:label="48x48"
         y="236"
         x="-192"
         height="48"
         width="48"
         id="rect48x48"
         style="display:inline;overflow:visible;visibility:visible;fill:#d3d7cf;fill-opacity:1;fill-rule:nonzero;stroke:none;stroke-width:2;marker:none;enable-background:accumulate"
         transform="scale(-1,1)" />
      <rect
         style="display:inline;overflow:visible;visibility:visible;fill:#d3d7cf;fill-opacity:1;fill-rule:nonzero;stroke:none;stroke-width:2;marker:none;enable-background:accumulate"
         id="rect3951"
         width="512"
         height="512"
         x="-720"
         y="-228"
         inkscape:label="48x48"
         transform="scale(-1,1)" />
    </g>
    <g
       inkscape:groupmode="layer"
       id="layer6"
       inkscape:label="Symbols"
       style="display:inline">
      <path
         inkscape:connector-curvature="0"
         id="path4243"
         d="m 400,-112 0,19.43744 -132.44445,237.4376 C 260.16,156.15504 256,169.6 256,184 c 0,39.76448 31.0416,72 69.33344,72 l 277.33312,0 C 640.9584,256 672,223.76448 672,184 c 0,-14.4 -4.16,-27.84496 -11.55552,-39.12496 L 528,-92.56256 528,-112 Z"
         style="display:inline;opacity:0.1;fill:#000000;fill-opacity:1;filter:url(#filter4239);enable-background:new"
         sodipodi:nodetypes="cccsssscccc" />
      <path
         sodipodi:nodetypes="cccsssscccc"
         style="display:inline;opacity:0.2;fill:#000000;fill-opacity:1;filter:url(#filter4239);enable-background:new"
         d="m 400,-112 0,19.43744 -132.44445,237.4376 C 260.16,156.15504 256,169.6 256,184 c 0,39.76448 31.0416,72 69.33344,72 l 277.33312,0 C 640.9584,256 672,223.76448 672,184 c 0,-14.4 -4.16,-27.84496 -11.55552,-39.12496 L 528,-92.56256 528,-112 Z"
         id="path4237"
         inkscape:connector-curvature="0" />
      <path
         inkscape:connector-curvature="0"
         d="m 156,281 c -3.31371,0 -6,-2.6863 -6,-6 0,-1.2 0.36,-2.32 1,-3.26 l 11,-19.12 0,-3.62 c 0,0 -2,0 -2,-2 l 0,-4 c 0,-2 2,-2 2,-2 l 12,0 c 2.20914,0 2,2 2,2 l 0,4 c 0,2 -2,2 -2,2 l 0,3.62 11,19.12 c 0.64,0.94 1,2.06 1,3.26 0,3.3137 -2.68629,6 -6,6 l -24,0"
         id="path4182"
         sodipodi:nodetypes="cscccsscscscccssc"
         style="display:inline;fill:#000000;fill-opacity:1;enable-background:new;opacity:0.2" />
      <path
         style="display:inline;fill:#000000;fill-opacity:1;enable-background:new;opacity:0.2"
         sodipodi:nodetypes="cscccsscscscccssc"
         id="path4162"
         d="m 58,283 c -1.656854,0 -3,-1.34315 -3,-3 0,-0.6 0.18,-1.16 0.5,-1.63 L 61,268.81 61,267 c 0,0 -1,0 -1,-1 l 0,-2 c 0,-1 1,-1 1,-1 l 6,0 c 1.104569,0 1,1 1,1 l 0,2 c 0,1 -1,1 -1,1 l 0,1.81 5.5,9.56 c 0.32,0.47 0.5,1.03 0.5,1.63 0,1.65685 -1.343146,3 -3,3 l -12,0"
         inkscape:connector-curvature="0" />
      <path
         style="display:inline;fill:#07ce8e;fill-opacity:1;enable-background:new"
         d="M 61 510 L 61 511.81055 L 55.5 521.36914 C 55.18 521.83914 55 522.4 55 523 C 55 524.65685 56.343146 526 58 526 L 70 526 C 71.656854 526 73 524.65685 73 523 C 73 522.4 72.82 521.83914 72.5 521.36914 L 67 511.81055 L 67 510 L 61 510 z "
         transform="translate(0,-244)"
         id="path4" />
      <path
         style="display:inline;fill:#ffffff;fill-opacity:1;enable-background:new"
         inkscape:connector-curvature="0"
         d="m 57,279 c 0,0.55228 0.447715,1 1,1 l 12,0 c 0.552285,0 1,-0.44772 1,-1 0,-0.21 -0.07,-0.41 -0.18,-0.57 l -2.29,-3.96 c 0,0 -0.53,-1.47 -2.53,-1.47 -2,0 -2,2 -4,2 -2,0 -1.942182,-1.55822 -1.942182,-1.55822 L 57.18,278.43 C 57.07,278.59 57,278.79 57,279 m 6,-9 c -0.552285,0 -1,0.44772 -1,1 0,0.55228 0.447715,1 1,1 0.552285,0 1,-0.44772 1,-1 0,-0.55228 -0.447715,-1 -1,-1 z"
         id="path4155"
         sodipodi:nodetypes="cssscczscccsssss" />
      <path
         style="display:inline;enable-background:new;fill:#ffffff;fill-opacity:1;opacity:0.2"
         d="M 61 506 C 61 506 60 506 60 507 L 60 508 C 60 507 61 507 61 507 L 67 507 C 67.828427 507 67.977633 507.5625 68 507.84375 L 68 507 C 68 507 68.104569 506 67 506 L 61 506 z M 61 511.81055 L 55.5 521.36914 C 55.18 521.83914 55 522.4 55 523 C 55 523.16768 55.022381 523.33005 55.048828 523.49023 C 55.12063 523.08401 55.272955 522.70261 55.5 522.36914 L 61 512.81055 L 61 511.81055 z M 67 511.81055 L 67 512.81055 L 72.5 522.36914 C 72.727045 522.70261 72.87937 523.08401 72.951172 523.49023 C 72.977619 523.33005 73 523.16768 73 523 C 73 522.4 72.82 521.83914 72.5 521.36914 L 67 511.81055 z "
         id="path4157"
         transform="translate(0,-244)" />
      <path
         style="display:inline;fill:#07ce8e;fill-opacity:1;enable-background:new"
         d="M 162 492 L 162 495.61914 L 151 514.74023 C 150.36 515.68023 150 516.8 150 518 C 150 521.3137 152.68629 524 156 524 L 180 524 C 183.31371 524 186 521.3137 186 518 C 186 516.8 185.64 515.68023 185 514.74023 L 174 495.61914 L 174 492 L 162 492 z "
         transform="translate(0,-244)"
         id="path4176" />
      <path
         sodipodi:nodetypes="cssscczscccsssss"
         id="path4178"
         d="m 154,274 c 0,1.10456 0.89543,2 2,2 l 24,0 c 1.10457,0 2,-0.89544 2,-2 0,-0.42 -0.14,-0.82 -0.36,-1.14 l -4.58,-7.92 c 0,0 -1.06,-2.94 -5.06,-2.94 -4,0 -4,4 -8,4 -4,0 -3.88436,-3.11644 -3.88436,-3.11644 L 154.36,272.86 c -0.22,0.32 -0.36,0.72 -0.36,1.14 m 12,-18 c -1.10457,0 -2,0.89544 -2,2 0,1.10456 0.89543,2 2,2 1.10457,0 2,-0.89544 2,-2 0,-1.10456 -0.89543,-2 -2,-2 z"
         inkscape:connector-curvature="0"
         style="display:inline;fill:#ffffff;fill-opacity:1;enable-background:new" />
      <rect
         y="249"
         x="162"
         height="1"
         width="12"
         id="rect4193"
         style="opacity:0.05;fill:#000000;fill-opacity:1;stroke:none;stroke-width:1;stroke-linecap:round;stroke-linejoin:round;stroke-miterlimit:4;stroke-dasharray:none;stroke-opacity:1" />
      <rect
         style="opacity:0.1;fill:#000000;fill-opacity:1;stroke:none;stroke-width:1;stroke-linecap:round;stroke-linejoin:round;stroke-miterlimit:4;stroke-dasharray:none;stroke-opacity:1"
         id="rect4191"
         width="12"
         height="1"
         x="162"
         y="248" />
      <rect
         style="opacity:1;fill:#ffffff;fill-opacity:1;stroke:none;stroke-width:1;stroke-linecap:round;stroke-linejoin:round;stroke-miterlimit:4;stroke-dasharray:none;stroke-opacity:1"
         id="rect4195"
         width="16"
         height="8"
         x="160"
         y="240"
         ry="2" />
      <path
         style="display:inline;opacity:0.4;fill:#ffffff;fill-opacity:1;enable-background:new"
         d="m 162,484 c 0,0 -2,0 -2,2 l 0,1 c 0,-2 2,-2 2,-2 l 12,0 c 2.20914,0 2,2 2,2 l 0,-1 c 0,0 0.20914,-2 -2,-2 z"
         transform="translate(0,-244)"
         id="path4184"
         inkscape:connector-curvature="0"
         sodipodi:nodetypes="csccsccsc" />
      <rect
         style="opacity:0.05;fill:#000000;fill-opacity:1;stroke:none;stroke-width:1;stroke-linecap:round;stroke-linejoin:round;stroke-miterlimit:4;stroke-dasharray:none;stroke-opacity:1"
         id="rect4214"
         width="6"
         height="1"
         x="61"
         y="267" />
      <rect
         y="266"
         x="61"
         height="1"
         width="6"
         id="rect4216"
         style="opacity:0.1;fill:#000000;fill-opacity:1;stroke:none;stroke-width:1;stroke-linecap:round;stroke-linejoin:round;stroke-miterlimit:4;stroke-dasharray:none;stroke-opacity:1" />
      <rect
         ry="1"
         y="262"
         x="60"
         height="4"
         width="8"
         id="rect4218"
         style="opacity:1;fill:#ffffff;fill-opacity:1;stroke:none;stroke-width:1;stroke-linecap:round;stroke-linejoin:round;stroke-miterlimit:4;stroke-dasharray:none;stroke-opacity:1" />
      <path
         sodipodi:nodetypes="cccsssscccc"
         style="display:inline;opacity:0.2;fill:#000000;fill-opacity:1;enable-background:new"
         d="m 108,260 0,1.21484 -8.277778,14.83985 C 99.26,276.75969 99,277.6 99,278.5 c 0,2.48528 1.9401,4.5 4.33334,4.5 l 17.33332,0 C 123.0599,283 125,280.98528 125,278.5 c 0,-0.9 -0.26,-1.74031 -0.72222,-2.44531 L 116,261.21484 116,260 Z"
         id="path4207"
         inkscape:connector-curvature="0" />
      <path
         inkscape:connector-curvature="0"
         id="path4163"
         d="m 108,257 0,3.21484 -8.277778,14.83985 C 99.26,275.75969 99,276.6 99,277.5 c 0,2.48528 1.9401,4.5 4.33334,4.5 l 17.33332,0 C 123.0599,282 125,279.98528 125,277.5 c 0,-0.9 -0.26,-1.74031 -0.72222,-2.44531 L 116,260.21484 116,257 Z"
         style="display:inline;fill:#07ce8e;fill-opacity:1;enable-background:new"
         sodipodi:nodetypes="cccsssscccc" />
      <path
         style="display:inline;fill:#ffffff;fill-opacity:1;enable-background:new"
         inkscape:connector-curvature="0"
         d="m 101.88889,277.5 c 0,0.82842 0.6467,1.5 1.44445,1.5 l 17.33332,0 c 0.79775,0 1.44445,-0.67158 1.44445,-1.5 0,-0.315 -0.10111,-0.615 -0.26,-0.855 l -3.30777,-5.94 c 0,0 -0.76556,-2.205 -3.65445,-2.205 -2.88889,0 -2.88889,3 -5.77778,3 -2.88889,0 -2.80537,-2.33733 -2.80537,-2.33733 l -4.15685,7.48233 c -0.15889,0.24 -0.26,0.54 -0.26,0.855 m 8.66666,-13.5 c -0.79774,0 -1.44444,0.67158 -1.44444,1.5 0,0.82842 0.6467,1.5 1.44444,1.5 0.79775,0 1.44445,-0.67158 1.44445,-1.5 0,-0.82842 -0.6467,-1.5 -1.44445,-1.5 z"
         id="path4165"
         sodipodi:nodetypes="cssscczscccsssss" />
      <rect
         style="opacity:0.2;fill:#000000;fill-opacity:1;stroke:none;stroke-width:1;stroke-linecap:round;stroke-linejoin:round;stroke-miterlimit:4;stroke-dasharray:none;stroke-opacity:1"
         id="rect4182"
         width="10"
         height="5"
         x="107"
         y="254"
         ry="1" />
      <rect
         ry="1"
         y="253"
         x="107"
         height="5"
         width="10"
         id="rect4177"
         style="opacity:1;fill:#ffffff;fill-opacity:1;stroke:none;stroke-width:1;stroke-linecap:round;stroke-linejoin:round;stroke-miterlimit:4;stroke-dasharray:none;stroke-opacity:1" />
      <path
         style="opacity:0.2;fill:#ffffff;fill-opacity:1;stroke:none;stroke-width:1;stroke-linecap:round;stroke-linejoin:round;stroke-miterlimit:4;stroke-dasharray:none;stroke-opacity:1"
         d="m 108,253 c -0.554,0 -1,0.446 -1,1 l 0,1 c 0,-0.554 0.446,-1 1,-1 l 8,0 c 0.554,0 1,0.446 1,1 l 0,-1 c 0,-0.554 -0.446,-1 -1,-1 z"
         id="rect4184"
         inkscape:connector-curvature="0"
         sodipodi:nodetypes="sscsscsss" />
      <path
         inkscape:connector-curvature="0"
         id="path4219"
         d="m 400,-114 0,19.43744 -132.44445,237.4376 C 260.16,154.15504 256,167.6 256,182 c 0,39.76448 31.0416,72 69.33344,72 l 277.33312,0 C 640.9584,254 672,221.76448 672,182 c 0,-14.4 -4.16,-27.84496 -11.55552,-39.12496 L 528,-94.56256 528,-114 Z"
         style="display:inline;opacity:0.2;fill:#000000;fill-opacity:1;enable-background:new"
         sodipodi:nodetypes="cccsssscccc" />
      <path
         sodipodi:nodetypes="cccsssscccc"
         style="display:inline;fill:#07ce8e;fill-opacity:1;enable-background:new"
         d="m 400,-148 0,51.43744 -132.44445,237.4376 C 260.16,152.15504 256,165.6 256,180 c 0,39.76448 31.0416,72 69.33344,72 l 277.33312,0 C 640.9584,252 672,219.76448 672,180 c 0,-14.4 -4.16,-27.84496 -11.55552,-39.12496 L 528,-96.56256 528,-148 Z"
         id="path4221"
         inkscape:connector-curvature="0" />
      <path
         sodipodi:nodetypes="cssscczscccsssss"
         id="path4223"
         d="m 302.22224,180 c 0,13.25472 10.3472,24 23.1112,24 l 277.33312,0 c 12.764,0 23.1112,-10.74528 23.1112,-24 0,-5.04 -1.61776,-9.84 -4.16,-13.68 L 568.69344,71.28 c 0,0 -12.24896,-35.28 -58.4712,-35.28 C 464,36 464,84 417.77776,84 371.55552,84 372.89184,46.60272 372.89184,46.60272 L 306.38224,166.32 c -2.54224,3.84 -4.16,8.64 -4.16,13.68 M 440.8888,-36 c -12.76384,0 -23.11104,10.74528 -23.11104,24 0,13.25472 10.3472,24 23.11104,24 C 453.6528,12 464,1.25472 464,-12 c 0,-13.25472 -10.3472,-24 -23.1112,-24 z"
         inkscape:connector-curvature="0"
         style="display:inline;fill:#ffffff;fill-opacity:1;enable-background:new" />
      <rect
         ry="16"
         y="-208"
         x="384"
         height="80"
         width="160"
         id="rect4255"
         style="opacity:0.2;fill:#000000;fill-opacity:1;stroke:none;stroke-width:1;stroke-linecap:round;stroke-linejoin:round;stroke-miterlimit:4;stroke-dasharray:none;stroke-opacity:1;filter:url(#filter4257)" />
      <rect
         style="opacity:1;fill:#ffffff;fill-opacity:1;stroke:none;stroke-width:1;stroke-linecap:round;stroke-linejoin:round;stroke-miterlimit:4;stroke-dasharray:none;stroke-opacity:1"
         id="rect4227"
         width="160"
         height="80"
         x="384"
         y="-212"
         ry="16" />
      <path
         style="opacity:0.2;fill:#ffffff;fill-opacity:1;stroke:none;stroke-width:1;stroke-linecap:round;stroke-linejoin:round;stroke-miterlimit:4;stroke-dasharray:none;stroke-opacity:1"
         d="M 400 32 C 391.136 32 384 39.136 384 48 L 384 50 C 384 41.136 391.136 34 400 34 L 528 34 C 536.864 34 544 41.136 544 50 L 544 48 C 544 39.136 536.864 32 528 32 L 400 32 z "
         transform="translate(0,-244)"
         id="path4229" />
      <path
         sodipodi:nodetypes="cccsssscccc"
         style="display:inline;fill:#07ce8e;fill-opacity:1;enable-background:new"
         d="m 22,271 0,2.10742 -4.13889,7.41992 C 17.63,280.87984 17.5,281.3 17.5,281.75 c 0,1.24264 0.97005,2.25 2.16667,2.25 l 8.66666,0 c 1.19662,0 2.16667,-1.00736 2.16667,-2.25 0,-0.45 -0.13,-0.87016 -0.36111,-1.22266 L 26,273.10742 26,271 Z"
         id="path4284"
         inkscape:connector-curvature="0" />
      <path
         sodipodi:nodetypes="cssscczscccsssss"
         id="path4286"
         d="M 19.5,281.33242 C 19.5,281.70111 19.787817,282 20.14286,282 l 7.71428,0 c 0.355043,0 0.64286,-0.29889 0.64286,-0.66758 0,-0.14019 -0.045,-0.27371 -0.115714,-0.38052 l -1.47214,-2.64363 c 0,0 -0.340716,-0.98135 -1.626431,-0.98135 -1.285715,0 -1.285715,1.33517 -2.57143,1.33517 -1.285715,0 -1.248544,-1.04025 -1.248544,-1.04025 l -1.850027,3.33006 C 19.545004,281.05871 19.5,281.19223 19.5,281.33242 m 3.85714,-6.00824 c -0.355038,0 -0.642855,0.29889 -0.642855,0.66758 0,0.36869 0.287817,0.66758 0.642855,0.66758 0.355043,0 0.64286,-0.29889 0.64286,-0.66758 0,-0.36869 -0.287817,-0.66758 -0.64286,-0.66758 z"
         inkscape:connector-curvature="0"
         style="display:inline;fill:#ffffff;fill-opacity:1;enable-background:new" />
      <rect
         style="opacity:1;fill:#ffffff;fill-opacity:1;stroke:none;stroke-width:1;stroke-linecap:round;stroke-linejoin:round;stroke-miterlimit:4;stroke-dasharray:none;stroke-opacity:1"
         id="rect4288"
         width="6"
         height="3"
         x="21"
         y="269"
         ry="0.5" />
    </g>
  </g>
</svg>
