<?xml version="1.0" encoding="UTF-8" standalone="no"?>
<!-- Created with Inkscape (http://www.inkscape.org/) -->

<svg
   xmlns:osb="http://www.openswatchbook.org/uri/2009/osb"
   xmlns:dc="http://purl.org/dc/elements/1.1/"
   xmlns:cc="http://creativecommons.org/ns#"
   xmlns:rdf="http://www.w3.org/1999/02/22-rdf-syntax-ns#"
   xmlns:svg="http://www.w3.org/2000/svg"
   xmlns="http://www.w3.org/2000/svg"
   xmlns:sodipodi="http://sodipodi.sourceforge.net/DTD/sodipodi-0.dtd"
   xmlns:inkscape="http://www.inkscape.org/namespaces/inkscape"
   inkscape:export-ydpi="90.000000"
   inkscape:export-xdpi="90.000000"
   width="736"
   height="544"
   id="svg11300"
   sodipodi:version="0.32"
   inkscape:version="0.91 r13725"
   sodipodi:docname="applications-internet.svg"
   inkscape:output_extension="org.inkscape.output.svg.inkscape"
   version="1.0"
   style="display:inline;enable-background:new"
   inkscape:export-filename="/home/sam/paper-template.png">
  <title
     id="title3004">Paper Icon Theme Template</title>
  <sodipodi:namedview
     stroke="#ef2929"
     fill="#f57900"
     id="base"
     pagecolor="#6b6b6b"
     bordercolor="#000000"
     borderopacity="0.25490196"
     inkscape:pageopacity="0"
     inkscape:pageshadow="2"
     inkscape:zoom="1"
     inkscape:cx="180.1871"
     inkscape:cy="13.320148"
     inkscape:current-layer="layer6"
     showgrid="false"
     inkscape:grid-bbox="true"
     inkscape:document-units="px"
     inkscape:showpageshadow="false"
     inkscape:window-width="1366"
     inkscape:window-height="704"
     inkscape:window-x="0"
     inkscape:window-y="27"
     width="400px"
     height="300px"
     inkscape:snap-nodes="true"
     inkscape:snap-bbox="true"
     gridtolerance="10000"
     inkscape:object-nodes="true"
     inkscape:snap-grids="true"
     showguides="true"
     inkscape:guide-bbox="true"
     inkscape:window-maximized="1"
     inkscape:bbox-paths="true"
     inkscape:snap-bbox-midpoints="true"
     inkscape:snap-global="true"
     inkscape:object-paths="true"
     inkscape:snap-intersection-paths="true"
     inkscape:snap-smooth-nodes="true">
    <inkscape:grid
       spacingy="1px"
       spacingx="1px"
       id="grid5883"
       type="xygrid"
       enabled="true"
       visible="true"
       empspacing="4"
       snapvisiblegridlinesonly="true" />
    <inkscape:grid
       type="xygrid"
       id="grid11592"
       empspacing="2"
       visible="true"
       enabled="false"
       spacingx="0.5px"
       spacingy="0.5px"
       color="#ff0000"
       opacity="0.1254902"
       empcolor="#ff0000"
       empopacity="0.25098039"
       snapvisiblegridlinesonly="true" />
  </sodipodi:namedview>
  <defs
     id="defs3">
    <linearGradient
       osb:paint="solid"
       id="linearGradient6882">
      <stop
         style="stop-color:#555555;stop-opacity:1;"
         offset="0"
         id="stop6884" />
    </linearGradient>
    <linearGradient
       osb:paint="solid"
       id="linearGradient5606">
      <stop
         style="stop-color:#000000;stop-opacity:1;"
         offset="0"
         id="stop5608" />
    </linearGradient>
    <filter
       inkscape:collect="always"
       style="color-interpolation-filters:sRGB"
       id="filter6260"
       x="-0.02025"
       width="1.0405"
       y="-0.029454545"
       height="1.0589091">
      <feGaussianBlur
         inkscape:collect="always"
         stdDeviation="4.05"
         id="feGaussianBlur6262" />
    </filter>
  </defs>
  <metadata
     id="metadata4">
    <rdf:RDF>
      <cc:Work
         rdf:about="">
        <dc:format>image/svg+xml</dc:format>
        <dc:type
           rdf:resource="http://purl.org/dc/dcmitype/StillImage" />
        <dc:creator>
          <cc:Agent>
            <dc:title>Sam Hewitt</dc:title>
          </cc:Agent>
        </dc:creator>
        <dc:source />
        <cc:license
           rdf:resource="http://creativecommons.org/licenses/by-sa/3.0/" />
        <dc:title>Paper Icon Theme Template</dc:title>
        <dc:subject>
          <rdf:Bag />
        </dc:subject>
        <dc:date />
        <dc:rights>
          <cc:Agent>
            <dc:title />
          </cc:Agent>
        </dc:rights>
        <dc:publisher>
          <cc:Agent>
            <dc:title />
          </cc:Agent>
        </dc:publisher>
        <dc:identifier />
        <dc:relation />
        <dc:language />
        <dc:coverage />
        <dc:description />
        <dc:contributor>
          <cc:Agent>
            <dc:title />
          </cc:Agent>
        </dc:contributor>
      </cc:Work>
      <cc:Work
         rdf:about="">
        <dc:format>image/svg+xml</dc:format>
        <dc:type
           rdf:resource="http://purl.org/dc/dcmitype/StillImage" />
      </cc:Work>
      <cc:License
         rdf:about="http://creativecommons.org/licenses/by-sa/3.0/">
        <cc:permits
           rdf:resource="http://creativecommons.org/ns#Reproduction" />
        <cc:permits
           rdf:resource="http://creativecommons.org/ns#Distribution" />
        <cc:requires
           rdf:resource="http://creativecommons.org/ns#Notice" />
        <cc:requires
           rdf:resource="http://creativecommons.org/ns#Attribution" />
        <cc:permits
           rdf:resource="http://creativecommons.org/ns#DerivativeWorks" />
        <cc:requires
           rdf:resource="http://creativecommons.org/ns#ShareAlike" />
      </cc:License>
    </rdf:RDF>
  </metadata>
  <g
     style="display:inline"
     inkscape:groupmode="layer"
     inkscape:label="Icon"
     id="layer1"
     transform="translate(0,244)">
    <g
       style="display:none"
       inkscape:label="Baseplate"
       id="layer7"
       inkscape:groupmode="layer">
      <text
         y="337.74512"
         xml:space="preserve"
         x="15.006836"
         style="font-style:normal;font-variant:normal;font-weight:normal;font-stretch:normal;font-size:18px;font-family:'DejaVu Sans';-inkscape-font-specification:'DejaVu Sans';display:inline;fill:#000000;fill-opacity:1;stroke:none;enable-background:new"
         inkscape:label="context"
         id="context"><tspan
           style="font-style:normal;font-variant:normal;font-weight:normal;font-stretch:normal;font-family:'DejaVu Sans';-inkscape-font-specification:'DejaVu Sans'"
           y="337.74512"
           x="15.006836"
           sodipodi:role="line"
           id="tspan3933">categories</tspan></text>
      <text
         y="337.74512"
         xml:space="preserve"
         x="142.48828"
         style="font-style:normal;font-variant:normal;font-weight:bold;font-stretch:normal;font-size:18px;line-height:125%;font-family:'DejaVu Sans';-inkscape-font-specification:'DejaVu Sans Bold';text-align:start;writing-mode:lr-tb;text-anchor:start;display:inline;fill:#000000;fill-opacity:1;stroke:none;enable-background:new"
         sodipodi:linespacing="125%"
         inkscape:label="icon-name"
         id="icon-name"><tspan
           style="font-style:normal;font-variant:normal;font-weight:bold;font-stretch:normal;font-size:18px;font-family:'DejaVu Sans';-inkscape-font-specification:'DejaVu Sans Bold'"
           y="337.74512"
           x="142.48828"
           sodipodi:role="line"
           id="tspan3937">applications-internet</tspan></text>
      <rect
         style="display:inline;overflow:visible;visibility:visible;fill:#d3d7cf;fill-opacity:1;fill-rule:nonzero;stroke:none;stroke-width:2;marker:none;enable-background:accumulate"
         id="rect16x16"
         width="16"
         height="16"
         x="-32"
         y="268"
         inkscape:label="16x16"
         transform="scale(-1,1)" />
      <rect
         style="display:inline;overflow:visible;visibility:visible;fill:#d3d7cf;fill-opacity:1;fill-rule:nonzero;stroke:none;stroke-width:2;marker:none;enable-background:accumulate"
         id="rect24x24"
         width="24"
         height="24"
         x="-76"
         y="260"
         inkscape:label="24x24"
         transform="scale(-1,1)" />
      <rect
         style="display:inline;overflow:visible;visibility:visible;fill:#d3d7cf;fill-opacity:1;fill-rule:nonzero;stroke:none;stroke-width:2;marker:none;enable-background:accumulate"
         id="rect32x32"
         width="32"
         height="32"
         x="-128"
         y="252"
         inkscape:label="32x32"
         transform="scale(-1,1)" />
      <rect
         inkscape:label="48x48"
         y="236"
         x="-192"
         height="48"
         width="48"
         id="rect48x48"
         style="display:inline;overflow:visible;visibility:visible;fill:#d3d7cf;fill-opacity:1;fill-rule:nonzero;stroke:none;stroke-width:2;marker:none;enable-background:accumulate"
         transform="scale(-1,1)" />
      <rect
         style="display:inline;overflow:visible;visibility:visible;fill:#d3d7cf;fill-opacity:1;fill-rule:nonzero;stroke:none;stroke-width:2;marker:none;enable-background:accumulate"
         id="rect3951"
         width="512"
         height="512"
         x="-720"
         y="-228"
         inkscape:label="48x48"
         transform="scale(-1,1)" />
    </g>
    <g
       inkscape:groupmode="layer"
       id="layer6"
       inkscape:label="Symbols"
       style="display:inline">
      <path
         sodipodi:nodetypes="scsssscs"
         inkscape:connector-curvature="0"
         d="m 464,-140 c 62.13218,0 115.04127,38.03782 137.81247,91.875273 C 659.64735,-39.527273 704,9.773091 704,70 c 0,66.27382 -53.72575,120 -120,120 l -255,0 C 271.00989,190 224,142.98945 224,85 224,31.10364 264.52367,-13.060727 316.81247,-19.062909 330.4496,-87.86436 391.19393,-140 464,-140 Z"
         id="path6268"
         style="display:inline;opacity:0.2;fill:#000000;fill-opacity:1;stroke:none;enable-background:new" />
      <path
         sodipodi:nodetypes="scsssscs"
         inkscape:connector-curvature="0"
         d="m 464,-138 c 62.13218,0 115.04127,38.03782 137.81247,91.875273 C 659.64735,-37.527273 704,11.773091 704,72 c 0,66.27382 -53.72575,120 -120,120 l -255,0 C 271.00989,192 224,144.98945 224,87 224,33.10364 264.52367,-11.060727 316.81247,-17.062909 330.4496,-85.86436 391.19393,-138 464,-138 Z"
         id="path6258"
         style="display:inline;opacity:0.2;fill:#000000;fill-opacity:1;stroke:none;filter:url(#filter6260);enable-background:new" />
      <path
         style="display:inline;opacity:0.1;fill:#000000;fill-opacity:1;stroke:none;filter:url(#filter6260);enable-background:new"
         id="path6264"
         d="m 464,-138 c 62.13218,0 115.04127,38.03782 137.81247,91.875273 C 659.64735,-37.527273 704,11.773091 704,72 c 0,66.27382 -53.72575,120 -120,120 l -255,0 C 271.00989,192 224,144.98945 224,87 224,33.10364 264.52367,-11.060727 316.81247,-17.062909 330.4496,-85.86436 391.19393,-138 464,-138 Z"
         inkscape:connector-curvature="0"
         sodipodi:nodetypes="scsssscs" />
      <path
         sodipodi:nodetypes="scsssscs"
         inkscape:connector-curvature="0"
         d="m 24,271 c 2.07107,0 3.83471,1.26792 4.59375,3.0625 C 30.52158,274.3491 32,275.99242 32,278 c 0,2.20914 -1.79086,4 -4,4 l -8.5,0 c -1.933,0 -3.5,-1.567 -3.5,-3.5 0,-1.79654 1.35079,-3.2687 3.09375,-3.46875 C 19.54832,272.73786 21.57313,271 24,271 Z"
         id="path6250"
         style="display:inline;fill:#000000;fill-opacity:1;stroke:none;enable-background:new;opacity:0.2" />
      <path
         style="display:inline;fill:#000000;fill-opacity:1;stroke:none;enable-background:new;opacity:0.2"
         id="path6252"
         d="m 64,264.875 c 2.847721,0 5.272726,1.74339 6.316406,4.21094 C 72.967173,269.48001 75,271.73958 75,274.5 c 0,3.03757 -2.462432,5.5 -5.5,5.5 l -11.6875,0 C 55.154625,280 53,277.84537 53,275.1875 c 0,-2.47024 1.857336,-4.49446 4.253906,-4.76953 C 57.87894,267.26456 60.663054,264.875 64,264.875 Z"
         inkscape:connector-curvature="0"
         sodipodi:nodetypes="scsssscs" />
      <path
         sodipodi:nodetypes="scsssscs"
         inkscape:connector-curvature="0"
         d="m 112,258.375 c 3.88326,0 7.19008,2.37735 8.61328,5.74219 3.61468,0.53737 6.38672,3.6186 6.38672,7.38281 0,4.14214 -3.35786,7.5 -7.5,7.5 l -15.9375,0 C 99.93812,279 97,276.06187 97,272.4375 c 0,-3.36851 2.53273,-6.12881 5.80078,-6.5039 0.85232,-4.30011 4.64884,-7.5586 9.19922,-7.5586 z"
         id="path6254"
         style="display:inline;fill:#000000;fill-opacity:1;stroke:none;enable-background:new;opacity:0.2" />
      <path
         style="display:inline;fill:#000000;fill-opacity:1;stroke:none;enable-background:new;opacity:0.2"
         id="path6256"
         d="m 168,245.75 c 5.69545,0 10.54545,3.4868 12.63281,8.4219 C 185.93434,254.96 190,259.4792 190,265 c 0,6.0751 -4.92486,11 -11,11 l -23.375,0 c -5.31576,0 -9.625,-4.3093 -9.625,-9.625 0,-4.9405 3.71467,-8.9889 8.50781,-9.5391 C 155.75788,250.5291 161.32611,245.75 168,245.75 Z"
         inkscape:connector-curvature="0"
         sodipodi:nodetypes="scsssscs" />
      <path
         style="display:inline;fill:#f7f0f0;fill-opacity:1;stroke:none;enable-background:new"
         id="path6913"
         d="m 24,270 c 2.07107,0 3.83471,1.26792 4.59375,3.0625 C 30.52158,273.3491 32,274.99242 32,277 c 0,2.20914 -1.79086,4 -4,4 l -8.5,0 c -1.933,0 -3.5,-1.567 -3.5,-3.5 0,-1.79654 1.35079,-3.2687 3.09375,-3.46875 C 19.54832,271.73786 21.57313,270 24,270 Z"
         inkscape:connector-curvature="0"
         sodipodi:nodetypes="scsssscs" />
      <path
         sodipodi:nodetypes="scsssscs"
         inkscape:connector-curvature="0"
         d="m 64,263.875 c 2.847721,0 5.272726,1.74339 6.316406,4.21094 C 72.967173,268.48001 75,270.73958 75,273.5 c 0,3.03757 -2.462432,5.5 -5.5,5.5 l -11.6875,0 C 55.154625,279 53,276.84537 53,274.1875 c 0,-2.47024 1.857336,-4.49446 4.253906,-4.76953 C 57.87894,266.26456 60.663054,263.875 64,263.875 Z"
         id="path6238"
         style="display:inline;fill:#f7f0f0;fill-opacity:1;stroke:none;enable-background:new" />
      <path
         style="display:inline;fill:#f7f0f0;fill-opacity:1;stroke:none;enable-background:new"
         id="path6240"
         d="m 112,257.375 c 3.88326,0 7.19008,2.37735 8.61328,5.74219 3.61468,0.53737 6.38672,3.6186 6.38672,7.38281 0,4.14214 -3.35786,7.5 -7.5,7.5 l -15.9375,0 C 99.93812,278 97,275.06187 97,271.4375 c 0,-3.36851 2.53273,-6.12881 5.80078,-6.5039 0.85232,-4.30011 4.64884,-7.5586 9.19922,-7.5586 z"
         inkscape:connector-curvature="0"
         sodipodi:nodetypes="scsssscs" />
      <path
         sodipodi:nodetypes="scsssscs"
         inkscape:connector-curvature="0"
         d="m 168,244.75 c 5.69545,0 10.54545,3.4868 12.63281,8.4219 C 185.93434,253.96 190,258.4792 190,264 c 0,6.0751 -4.92486,11 -11,11 l -23.375,0 c -5.31576,0 -9.625,-4.3093 -9.625,-9.625 0,-4.9405 3.71467,-8.9889 8.50781,-9.5391 C 155.75788,249.5291 161.32611,244.75 168,244.75 Z"
         id="path6242"
         style="display:inline;fill:#f7f0f0;fill-opacity:1;stroke:none;enable-background:new" />
      <path
         style="display:inline;fill:#f7f0f0;fill-opacity:1;stroke:none;enable-background:new"
         id="path6248"
         d="m 464,-142 c 62.13218,0 115.04127,38.03782 137.81247,91.875273 C 659.64735,-41.527273 704,7.773091 704,68 c 0,66.27382 -53.72575,120 -120,120 l -255,0 C 271.00989,188 224,140.98945 224,83 224,29.10364 264.52367,-15.060727 316.81247,-21.062909 330.4496,-89.86436 391.19393,-142 464,-142 Z"
         inkscape:connector-curvature="0"
         sodipodi:nodetypes="scsssscs" />
      <path
         style="display:inline;fill:#ffffff;fill-opacity:1;stroke:none;enable-background:new;opacity:0.5"
         d="M 464 102 C 391.19393 102 330.44963 154.13605 316.8125 222.9375 C 264.5237 228.93968 224 273.10364 224 327 C 224 327.31595 224.00893 327.63002 224.01172 327.94531 C 224.53713 274.52915 264.8657 230.90042 316.8125 224.9375 C 330.44963 156.13605 391.19393 104 464 104 C 526.13218 104 579.0413 142.03755 601.8125 195.875 C 659.31564 204.42314 703.4834 253.21095 703.98828 312.9668 C 703.99083 312.64421 704 312.32319 704 312 C 704 251.77309 659.64738 202.47245 601.8125 193.875 C 579.0413 140.03755 526.13218 102 464 102 z "
         transform="translate(0,-244)"
         id="path6276" />
      <path
         style="display:inline;fill:#ffffff;fill-opacity:1;stroke:none;enable-background:new;opacity:0.5"
         d="M 64 507.875 C 60.663054 507.875 57.87894 510.26456 57.253906 513.41797 C 54.857336 513.69304 53 515.71726 53 518.1875 C 53 518.35196 53.03272 518.50775 53.048828 518.66797 C 53.290614 516.44138 55.029831 514.67324 57.253906 514.41797 C 57.87894 511.26456 60.663054 508.875 64 508.875 C 66.847721 508.875 69.272726 510.61839 70.316406 513.08594 C 72.837732 513.46076 74.779215 515.52947 74.964844 518.10547 C 74.986639 517.90654 75 517.70473 75 517.5 C 75 514.73958 72.967173 512.48001 70.316406 512.08594 C 69.272726 509.61839 66.847721 507.875 64 507.875 z "
         transform="translate(0,-244)"
         id="path6286" />
      <path
         style="display:inline;fill:#ffffff;fill-opacity:1;stroke:none;enable-background:new;opacity:0.5"
         d="M 112 501.375 C 107.44962 501.375 103.6531 504.63348 102.80078 508.93359 C 99.532731 509.30868 97 512.06899 97 515.4375 C 97 515.60146 97.011621 515.76289 97.023438 515.92383 C 97.265758 512.79206 99.700592 510.28942 102.80078 509.93359 C 103.6531 505.63348 107.44962 502.375 112 502.375 C 115.88326 502.375 119.19008 504.75235 120.61328 508.11719 C 124.05584 508.62897 126.7293 511.44975 126.97656 514.96875 C 126.9862 514.81309 127 514.65809 127 514.5 C 127 510.73579 124.22796 507.65456 120.61328 507.11719 C 119.19008 503.75235 115.88326 501.375 112 501.375 z "
         transform="translate(0,-244)"
         id="path6288" />
      <path
         style="display:inline;fill:#ffffff;fill-opacity:1;stroke:none;enable-background:new;opacity:0.5"
         d="M 168 488.75 C 161.32611 488.75 155.75788 493.52914 154.50781 499.83594 C 149.71467 500.38614 146 504.4345 146 509.375 C 146 509.53913 146.01532 509.69922 146.02344 509.86133 C 146.27156 505.1574 149.88265 501.36686 154.50781 500.83594 C 155.75788 494.52914 161.32611 489.75 168 489.75 C 173.69545 489.75 178.54545 493.23678 180.63281 498.17188 C 185.76488 498.93478 189.72776 503.19691 189.97656 508.47656 C 189.9834 508.31741 190 508.16083 190 508 C 190 502.4792 185.93434 497.95998 180.63281 497.17188 C 178.54545 492.23678 173.69545 488.75 168 488.75 z "
         transform="translate(0,-244)"
         id="path6290" />
    </g>
  </g>
</svg>
