<?xml version="1.0" encoding="UTF-8" standalone="no"?>
<!-- Created with Inkscape (http://www.inkscape.org/) -->

<svg
   xmlns:dc="http://purl.org/dc/elements/1.1/"
   xmlns:cc="http://creativecommons.org/ns#"
   xmlns:rdf="http://www.w3.org/1999/02/22-rdf-syntax-ns#"
   xmlns:svg="http://www.w3.org/2000/svg"
   xmlns="http://www.w3.org/2000/svg"
   xmlns:sodipodi="http://sodipodi.sourceforge.net/DTD/sodipodi-0.dtd"
   xmlns:inkscape="http://www.inkscape.org/namespaces/inkscape"
   inkscape:export-ydpi="90.000000"
   inkscape:export-xdpi="90.000000"
   width="736"
   height="544"
   id="svg11300"
   sodipodi:version="0.32"
   inkscape:version="0.91 r13725"
   sodipodi:docname="applications-games.svg"
   inkscape:output_extension="org.inkscape.output.svg.inkscape"
   version="1.0"
   style="display:inline;enable-background:new"
   inkscape:export-filename="/home/sam/paper-template.png">
  <title
     id="title3004">Paper Icon Theme</title>
  <sodipodi:namedview
     stroke="#ef2929"
     fill="#f57900"
     id="base"
     pagecolor="#575757"
     bordercolor="#666666"
     borderopacity="0.25490196"
     inkscape:pageopacity="0"
     inkscape:pageshadow="2"
     inkscape:zoom="1"
     inkscape:cx="34.281519"
     inkscape:cy="24.310039"
     inkscape:current-layer="layer6"
     showgrid="false"
     inkscape:grid-bbox="true"
     inkscape:document-units="px"
     inkscape:showpageshadow="false"
     inkscape:window-width="1920"
     inkscape:window-height="1018"
     inkscape:window-x="0"
     inkscape:window-y="32"
     width="400px"
     height="300px"
     inkscape:snap-nodes="true"
     inkscape:snap-bbox="true"
     gridtolerance="10000"
     inkscape:object-nodes="true"
     inkscape:snap-grids="true"
     showguides="true"
     inkscape:guide-bbox="true"
     inkscape:window-maximized="1"
     inkscape:bbox-nodes="true"
     inkscape:snap-bbox-edge-midpoints="true"
     inkscape:snap-intersection-paths="true"
     inkscape:object-paths="true"
     inkscape:snap-smooth-nodes="true"
     inkscape:snap-midpoints="true"
     inkscape:snap-global="true">
    <inkscape:grid
       spacingy="1px"
       spacingx="1px"
       id="grid5883"
       type="xygrid"
       enabled="true"
       visible="true"
       empspacing="4"
       snapvisiblegridlinesonly="true" />
    <inkscape:grid
       type="xygrid"
       id="grid11592"
       empspacing="2"
       visible="true"
       enabled="false"
       spacingx="0.5px"
       spacingy="0.5px"
       color="#ff0000"
       opacity="0.1254902"
       empcolor="#ff0000"
       empopacity="0.25098039"
       snapvisiblegridlinesonly="true" />
  </sodipodi:namedview>
  <defs
     id="defs3">
    <filter
       inkscape:collect="always"
       style="color-interpolation-filters:sRGB"
       id="filter4310"
       x="-0.10934135"
       width="1.2186826"
       y="-0.13296112"
       height="1.2659222">
      <feGaussianBlur
         inkscape:collect="always"
         stdDeviation="1.7801066"
         id="feGaussianBlur4312" />
    </filter>
    <clipPath
       clipPathUnits="userSpaceOnUse"
       id="clipPath4327">
      <path
         sodipodi:nodetypes="ccssccccc"
         inkscape:connector-curvature="0"
         id="path4329"
         d="m 143,255 0.13393,5.9448 c 0.13393,0.94481 0.9155,2.65508 2.10245,4.00442 C 146.88326,266.82147 149.29903,268 152,268 l 16,0 6,8 c 3,4 6.38128,0.70711 6,-2 l -1,-19 z"
         style="fill:#828b8f;fill-opacity:1" />
    </clipPath>
    <filter
       inkscape:collect="always"
       style="color-interpolation-filters:sRGB"
       id="filter4468"
       x="-0.079285711"
       width="1.1585714"
       y="-0.24666667"
       height="1.4933333">
      <feGaussianBlur
         inkscape:collect="always"
         stdDeviation="0.925"
         id="feGaussianBlur4470" />
    </filter>
    <filter
       inkscape:collect="always"
       style="color-interpolation-filters:sRGB"
       id="filter4429"
       x="-0.0216149"
       width="1.0432298"
       y="-0.026976757"
       height="1.0539535">
      <feGaussianBlur
         inkscape:collect="always"
         stdDeviation="4.0347814"
         id="feGaussianBlur4431" />
    </filter>
    <filter
       inkscape:collect="always"
       style="color-interpolation-filters:sRGB"
       id="filter4487"
       x="-0.11999998"
       width="1.24"
       y="-0.12000002"
       height="1.24">
      <feGaussianBlur
         inkscape:collect="always"
         stdDeviation="4.8000055"
         id="feGaussianBlur4489" />
    </filter>
    <filter
       inkscape:collect="always"
       style="color-interpolation-filters:sRGB"
       id="filter4491"
       x="-0.11999995"
       width="1.2399999"
       y="-0.12000005"
       height="1.2400001">
      <feGaussianBlur
         inkscape:collect="always"
         stdDeviation="4.8000004"
         id="feGaussianBlur4493" />
    </filter>
  </defs>
  <metadata
     id="metadata4">
    <rdf:RDF>
      <cc:Work
         rdf:about="">
        <dc:format>image/svg+xml</dc:format>
        <dc:type
           rdf:resource="http://purl.org/dc/dcmitype/StillImage" />
        <dc:creator>
          <cc:Agent>
            <dc:title>Sam Hewitt</dc:title>
          </cc:Agent>
        </dc:creator>
        <dc:source />
        <cc:license
           rdf:resource="http://creativecommons.org/licenses/by-sa/3.0/" />
        <dc:title>Paper Icon Theme</dc:title>
        <dc:subject>
          <rdf:Bag />
        </dc:subject>
        <dc:date />
        <dc:rights>
          <cc:Agent>
            <dc:title />
          </cc:Agent>
        </dc:rights>
        <dc:publisher>
          <cc:Agent>
            <dc:title />
          </cc:Agent>
        </dc:publisher>
        <dc:identifier />
        <dc:relation />
        <dc:language />
        <dc:coverage />
        <dc:description />
        <dc:contributor>
          <cc:Agent>
            <dc:title />
          </cc:Agent>
        </dc:contributor>
      </cc:Work>
      <cc:Work
         rdf:about="">
        <dc:format>image/svg+xml</dc:format>
        <dc:type
           rdf:resource="http://purl.org/dc/dcmitype/StillImage" />
      </cc:Work>
      <cc:License
         rdf:about="http://creativecommons.org/licenses/by-sa/3.0/">
        <cc:permits
           rdf:resource="http://creativecommons.org/ns#Reproduction" />
        <cc:permits
           rdf:resource="http://creativecommons.org/ns#Distribution" />
        <cc:requires
           rdf:resource="http://creativecommons.org/ns#Notice" />
        <cc:requires
           rdf:resource="http://creativecommons.org/ns#Attribution" />
        <cc:permits
           rdf:resource="http://creativecommons.org/ns#DerivativeWorks" />
        <cc:requires
           rdf:resource="http://creativecommons.org/ns#ShareAlike" />
      </cc:License>
    </rdf:RDF>
  </metadata>
  <g
     style="display:inline"
     inkscape:groupmode="layer"
     inkscape:label="Icon"
     id="layer1"
     transform="translate(0,244)">
    <g
       style="display:none"
       inkscape:label="Baseplate"
       id="layer7"
       inkscape:groupmode="layer"
       sodipodi:insensitive="true">
      <text
         y="332.48523"
         xml:space="preserve"
         x="15.006836"
         style="font-style:normal;font-variant:normal;font-weight:normal;font-stretch:normal;font-size:18px;font-family:'DejaVu Sans';-inkscape-font-specification:'DejaVu Sans';display:inline;fill:#000000;fill-opacity:1;stroke:none;enable-background:new"
         inkscape:label="context"
         id="context"><tspan
           style="font-style:normal;font-variant:normal;font-weight:normal;font-stretch:normal;font-family:'DejaVu Sans';-inkscape-font-specification:'DejaVu Sans'"
           y="332.48523"
           x="15.006836"
           sodipodi:role="line"
           id="tspan3933">categories</tspan></text>
      <text
         y="332.48523"
         xml:space="preserve"
         x="142.48828"
         style="font-style:normal;font-variant:normal;font-weight:bold;font-stretch:normal;font-size:18px;line-height:125%;font-family:'DejaVu Sans';-inkscape-font-specification:'DejaVu Sans Bold';text-align:start;writing-mode:lr-tb;text-anchor:start;display:inline;fill:#000000;fill-opacity:1;stroke:none;enable-background:new"
         sodipodi:linespacing="125%"
         inkscape:label="icon-name"
         id="icon-name"><tspan
           style="font-style:normal;font-variant:normal;font-weight:bold;font-stretch:normal;font-size:18px;font-family:'DejaVu Sans';-inkscape-font-specification:'DejaVu Sans Bold'"
           y="332.48523"
           x="142.48828"
           sodipodi:role="line"
           id="tspan3937">applications-games</tspan></text>
      <rect
         style="display:inline;overflow:visible;visibility:visible;fill:#e9e9e9;fill-opacity:1;fill-rule:nonzero;stroke:none;stroke-width:2;marker:none;enable-background:accumulate"
         id="rect16x16"
         width="16"
         height="16"
         x="-32"
         y="268"
         inkscape:label="16x16"
         transform="scale(-1,1)" />
      <rect
         style="display:inline;overflow:visible;visibility:visible;fill:#e9e9e9;fill-opacity:1;fill-rule:nonzero;stroke:none;stroke-width:2;marker:none;enable-background:accumulate"
         id="rect24x24"
         width="24"
         height="24"
         x="-76"
         y="260"
         inkscape:label="24x24"
         transform="scale(-1,1)" />
      <rect
         style="display:inline;overflow:visible;visibility:visible;fill:#e9e9e9;fill-opacity:1;fill-rule:nonzero;stroke:none;stroke-width:2;marker:none;enable-background:accumulate"
         id="rect32x32"
         width="32"
         height="32"
         x="-128"
         y="252"
         inkscape:label="32x32"
         transform="scale(-1,1)" />
      <rect
         inkscape:label="48x48"
         y="236"
         x="-192"
         height="48"
         width="48"
         id="rect48x48"
         style="display:inline;overflow:visible;visibility:visible;fill:#e9e9e9;fill-opacity:1;fill-rule:nonzero;stroke:none;stroke-width:2;marker:none;enable-background:accumulate"
         transform="scale(-1,1)" />
      <rect
         style="display:inline;overflow:visible;visibility:visible;fill:#e9e9e9;fill-opacity:1;fill-rule:nonzero;stroke:none;stroke-width:2;marker:none;enable-background:accumulate"
         id="rect3951"
         width="512"
         height="512"
         x="-720"
         y="-228"
         inkscape:label="48x48"
         transform="scale(-1,1)" />
    </g>
    <g
       inkscape:groupmode="layer"
       id="layer6"
       inkscape:label="Symbols"
       style="display:inline">
      <path
         inkscape:connector-curvature="0"
         id="path4433"
         d="m 352.52608,-150.95624 c -55.7004,0 -97.60912,44.92424 -100.53664,100.5476 l -11.178,212.2512 c -7.04864,41.50352 33.20992,67.7124 67.03536,22.34512 l 59.77288,-89.65392 c 2.39648,0.1696 4.81063,0.257488 7.25152,0.2848 l 178.73904,0 67.0244,89.3696 c 33.51408,44.68544 71.2948,7.89696 67.03544,-22.3452 L 676.492,-50.40824 c 0,-55.70056 -44.83616,-100.54768 -100.53664,-100.54768 l -223.42928,0 z"
         style="opacity:0.1;fill:#000000;fill-opacity:1;stroke:#000000;stroke-width:8;stroke-miterlimit:4;stroke-dasharray:none;stroke-opacity:1;filter:url(#filter4429)"
         sodipodi:nodetypes="cccccsccccscc" />
      <path
         style="opacity:0.2;fill:#000000;fill-opacity:1;"
         d="m 158,247 c -4.986,0 -8.73794,4.0209 -9,9 l -1,19 c -0.63096,3.71517 2.97213,6.06103 6,2 l 5.35742,-8.03516 C 159.57085,268.97986 159.78263,269 160,269 l 16,0 6,8 c 3,4 6.38128,0.70711 6,-2 l -1,-19 c 0,-4.986 -4.014,-9 -9,-9 l -20,0 z"
         id="path4331"
         inkscape:connector-curvature="0" />
      <path
         style="opacity:0.2;fill:#000000;fill-opacity:1"
         d="m 104.53516,257.00005 c -3.72997,-10e-6 -6.52949,3.00798 -6.732426,6.73242 l -0.748046,13.72871 c -0.472014,2.77927 2.223165,4.5341 4.488282,1.49609 l 4.00586,-6.01172 c 0.16033,0.0113 0.31911,0.0254 0.48242,0.0254 l 11.96875,0 4.49023,5.98633 c 2.24426,2.99235 4.77352,0.52907 4.48829,-1.49609 l -0.74805,-14.21485 c 0,-3.72997 -3.00441,-6.24628 -6.73438,-6.24628 z"
         id="path4419"
         inkscape:connector-curvature="0"
         sodipodi:nodetypes="sscccsccccss" />
      <path
         style="fill:#000000;fill-opacity:1;opacity:0.2"
         d="m 58.513672,265 c -2.735312,0 -4.793734,2.20597 -4.9375,4.9375 l -0.548828,10.42383 c -0.346144,2.03814 1.631884,3.32357 3.292968,1.0957 L 59.375,276.99805 c 0.07879,0.004 0.156588,0.0117 0.236328,0.0117 l 8.777344,0 3.291016,4.38867 c 1.645796,2.1944 3.502138,0.38746 3.292968,-1.09766 l -0.548828,-10.42187 -0.0039,0 C 74.38833,267.17117 72.201822,265 69.486328,265 l -10.972656,0 z"
         id="path4414"
         inkscape:connector-curvature="0" />
      <path
         sodipodi:nodetypes="cccccc"
         inkscape:connector-curvature="0"
         id="path4332"
         d="m 26,273 6,0 -0.0293,8.14258 c 0.25174,1.48228 -1.186469,2.4191 -2.394531,0.79883 L 26,277 Z"
         style="fill:#6e9b3a;fill-opacity:1" />
      <rect
         ry="4"
         y="271"
         x="16"
         height="8"
         width="16"
         id="rect4318"
         style="fill:#6e9b3a;fill-opacity:1;fill-rule:evenodd;stroke:none;stroke-width:1px;stroke-linecap:butt;stroke-linejoin:miter;stroke-opacity:1" />
      <path
         style="opacity:0.2;fill:#000000;fill-opacity:1;filter:url(#filter4429)"
         d="m 352.52608,-150.95624 c -55.7004,0 -97.60912,44.92424 -100.53664,100.5476 l -11.178,212.2512 c -7.04864,41.50352 33.20992,67.7124 67.03536,22.34512 l 59.77288,-89.65392 c 2.39648,0.1696 4.81063,0.257488 7.25152,0.2848 l 178.73904,0 67.0244,89.3696 c 33.51408,44.68544 71.2948,7.89696 67.03544,-22.3452 L 676.492,-50.40824 c 0,-55.70056 -44.83616,-100.54768 -100.53664,-100.54768 l -223.42928,0 z"
         id="path4598"
         inkscape:connector-curvature="0"
         sodipodi:nodetypes="cccccsccccscc" />
      <path
         style="fill:#6e9b3a;fill-opacity:1"
         d="m 151,255 0.13393,5.9448 c 0.13393,0.94481 0.9155,2.65508 2.10245,4.00442 C 154.88326,266.82147 157.29903,268 160,268 l 16,0 6,8 c 3,4 6.38128,0.70711 6,-2 l -1,-19 z"
         id="path4206"
         inkscape:connector-curvature="0"
         sodipodi:nodetypes="ccssccccc" />
      <path
         sodipodi:nodetypes="ssssscccss"
         inkscape:connector-curvature="0"
         id="path4308"
         d="m 150,246 20,0 c 4.986,0 9,4.014 9,9 0,2.28503 -0.84305,4.36591 -2.23636,5.94984 C 175.11671,262.82209 172.70097,264 170,264 l -16,0 -8,12 c -3.02787,4.06103 -6.63096,1.71517 -6,-2 l 1,-19 c 0.26206,-4.9791 4.014,-9 9,-9 z"
         style="opacity:0.2;fill:#000000;fill-opacity:1;filter:url(#filter4310)"
         clip-path="url(#clipPath4327)"
         transform="translate(8,0)" />
      <path
         style="fill:#8ac249;fill-opacity:1"
         d="m 158,246 20,0 c 4.986,0 9,4.014 9,9 0,2.28503 -0.84305,4.36591 -2.23636,5.94984 C 183.11671,262.82209 180.70097,264 178,264 l -16,0 -8,12 c -3.02787,4.06103 -6.63096,1.71517 -6,-2 l 1,-19 c 0.26206,-4.9791 4.014,-9 9,-9 z"
         id="rect4196"
         inkscape:connector-curvature="0"
         sodipodi:nodetypes="ssssscccss" />
      <circle
         style="display:inline;opacity:0.2;fill:#000000;fill-opacity:1;filter:url(#filter4468);enable-background:new"
         id="circle4360"
         cx="174.5"
         cy="256.5"
         r="1.5" />
      <circle
         r="1.5"
         cy="256.5"
         cx="180.5"
         id="circle4362"
         style="display:inline;opacity:0.2;fill:#000000;fill-opacity:1;filter:url(#filter4468);enable-background:new" />
      <circle
         r="1.5"
         cy="-169.5"
         cx="253.5"
         id="circle4364"
         style="display:inline;opacity:0.2;fill:#000000;fill-opacity:1;filter:url(#filter4468);enable-background:new"
         transform="matrix(0,1,-1,0,8,0)" />
      <circle
         style="display:inline;opacity:0.2;fill:#000000;fill-opacity:1;filter:url(#filter4468);enable-background:new"
         id="circle4366"
         cx="259.5"
         cy="-169.5"
         r="1.5"
         transform="matrix(0,1,-1,0,8,0)" />
      <rect
         ry="0"
         y="252"
         x="157"
         height="9"
         width="3"
         id="rect4356"
         style="opacity:0.2;fill:#000000;fill-opacity:1;filter:url(#filter4468)" />
      <rect
         transform="matrix(0,1,-1,0,8,0)"
         style="opacity:0.2;fill:#000000;fill-opacity:1;filter:url(#filter4468)"
         id="rect4358"
         width="3"
         height="9"
         x="255"
         y="-155"
         ry="0" />
      <rect
         style="fill:#e3e8df;fill-opacity:1"
         id="rect4218"
         width="3"
         height="9"
         x="157"
         y="251"
         ry="0" />
      <rect
         ry="0"
         y="-163"
         x="254"
         height="9"
         width="3"
         id="rect4224"
         style="fill:#e3e8df;fill-opacity:1"
         transform="matrix(0,1,-1,0,0,0)" />
      <circle
         style="fill:#e3e8df;fill-opacity:1"
         id="path4238"
         cx="174.5"
         cy="255.5"
         r="1.5" />
      <circle
         r="1.5"
         cy="255.5"
         cx="180.5"
         id="circle4240"
         style="fill:#e3e8df;fill-opacity:1" />
      <circle
         r="1.5"
         cy="-177.5"
         cx="252.5"
         id="circle4276"
         style="fill:#e3e8df;fill-opacity:1"
         transform="matrix(0,1,-1,0,0,0)" />
      <circle
         style="fill:#e3e8df;fill-opacity:1"
         id="circle4278"
         cx="258.5"
         cy="-177.5"
         r="1.5"
         transform="matrix(0,1,-1,0,0,0)" />
      <path
         inkscape:connector-curvature="0"
         style="opacity:0.1;fill:#ffffff;fill-opacity:1"
         d="m 158,246 c -4.986,0 -8.73794,4.0209 -9,9 l -1,19 c -0.0821,0.48356 -0.0878,0.94113 -0.0371,1.36719 0.0118,-0.1221 0.0158,-0.24178 0.0371,-0.36719 l 1,-19 c 0.26206,-4.9791 4.014,-9 9,-9 l 20,0 c 4.82558,0 8.72962,3.7634 8.97656,8.52539 0.01,-0.17444 0.0234,-0.34836 0.0234,-0.52539 0,-4.986 -4.014,-9 -9,-9 l -20,0 z"
         id="path4472" />
      <path
         sodipodi:nodetypes="ccssccccc"
         inkscape:connector-curvature="0"
         id="path4541"
         d="m 274.32768,-53.73584 1.49624,66.41144 c 1.49616,10.55488 10.22736,29.66088 23.4872,44.73488 C 317.70904,78.326 344.69648,92 374.87,92 l 177.13,0 68.64,88.86272 c 33.51408,44.68544 71.28752,7.89936 67.02816,-22.34272 L 676.49672,-53.73584 Z"
         style="fill:#6e9b3a;fill-opacity:1" />
      <path
         clip-path="url(#clipPath4327)"
         style="opacity:0.2;fill:#000000;fill-opacity:1;filter:url(#filter4310)"
         d="m 150,246 20,0 c 4.986,0 9,4.014 9,9 0,2.28503 -0.84305,4.36591 -2.23636,5.94984 C 175.11671,262.82209 172.70097,264 170,264 l -16,0 -8,12 c -3.02787,4.06103 -6.63096,1.71517 -6,-2 l 1,-19 c 0.26206,-4.9791 4.014,-9 9,-9 z"
         id="path4543"
         inkscape:connector-curvature="0"
         sodipodi:nodetypes="ssssscccss"
         transform="matrix(11.171362,0,0,11.171362,-1323.1771,-2902.4333)" />
      <path
         sodipodi:nodetypes="sscccccss"
         inkscape:connector-curvature="0"
         id="path4545"
         d="M 352.57272,-156 576,-156 c 55.7004,0 100.49672,46.56368 100.49672,102.26416 C 674.6036,4.67304 626.50968,43.33472 575.95448,44 L 397.21272,44 307.84184,180.86272 C 274.0164,226.23 233.76496,200.02352 240.8136,158.52 L 251.98504,-53.73584 C 254.91256,-109.3592 296.87232,-156 352.57272,-156 Z"
         style="fill:#8ac249;fill-opacity:1" />
      <g
         id="g4463"
         transform="translate(0,4)"
         style="fill:#000000;opacity:0.2;filter:url(#filter4491)">
        <rect
           ry="0"
           y="-100.00008"
           x="335.99994"
           height="95.999969"
           width="31.999994"
           id="rect4465"
           style="fill:#000000;fill-opacity:1" />
        <rect
           transform="matrix(0,1,-1,0,0,0)"
           style="fill:#000000;fill-opacity:1"
           id="rect4467"
           width="31.999952"
           height="96.000046"
           x="-68.000031"
           y="-399.99988"
           ry="0" />
      </g>
      <g
         id="g4459">
        <rect
           style="fill:#e3e8df;fill-opacity:1"
           id="rect4563"
           width="31.999994"
           height="95.999969"
           x="335.99994"
           y="-100.00008"
           ry="0" />
        <rect
           ry="0"
           y="-399.99988"
           x="-68.000031"
           height="96.000046"
           width="31.999952"
           id="rect4565"
           style="fill:#e3e8df;fill-opacity:1"
           transform="matrix(0,1,-1,0,0,0)" />
      </g>
      <g
         id="g4473"
         transform="translate(0,4)"
         style="fill:#000000;fill-opacity:1;opacity:0.2;filter:url(#filter4487)">
        <circle
           r="16"
           cy="-52.000179"
           cx="543.99988"
           id="circle4475"
           style="fill:#000000;fill-opacity:1" />
        <circle
           style="fill:#000000;fill-opacity:1"
           id="circle4477"
           cx="575.99994"
           cy="-84.000061"
           r="16" />
        <circle
           r="16"
           cy="-52.000179"
           cx="608"
           id="circle4479"
           style="fill:#000000;fill-opacity:1" />
        <circle
           style="fill:#000000;fill-opacity:1"
           id="circle4481"
           cx="575.99994"
           cy="-19.999964"
           r="16" />
      </g>
      <g
         id="g4453">
        <circle
           style="fill:#e3e8df;fill-opacity:1"
           id="circle4567"
           cx="543.99988"
           cy="-52.000179"
           r="16" />
        <circle
           r="16"
           cy="-84.000061"
           cx="575.99994"
           id="circle4382"
           style="fill:#e3e8df;fill-opacity:1" />
        <circle
           style="fill:#e3e8df;fill-opacity:1"
           id="circle4384"
           cx="608"
           cy="-52.000179"
           r="16" />
        <circle
           r="16"
           cy="-19.999964"
           cx="575.99994"
           id="circle4386"
           style="fill:#e3e8df;fill-opacity:1" />
      </g>
      <path
         style="fill:#ffffff;fill-opacity:1;opacity:0.2"
         d="M 352.57227 88 C 296.87187 88 254.9119 134.64031 251.98438 190.26367 L 240.81445 402.51953 C 240.2031 406.1193 239.95429 409.6007 240.01953 412.93359 C 240.07035 410.21469 240.32436 407.40525 240.81445 404.51953 L 251.98438 192.26367 C 254.9119 136.64031 296.87187 90 352.57227 90 L 576 90 C 631.17416 90 675.64111 135.68954 676.47656 190.68945 C 676.48174 190.54706 676.49147 190.4063 676.49609 190.26367 C 676.49609 134.56319 631.7004 88 576 88 L 352.57227 88 z "
         transform="translate(0,-244)"
         id="path4495" />
      <path
         sodipodi:nodetypes="ccssccccc"
         inkscape:connector-curvature="0"
         id="path4218"
         d="m 99.298613,262.24671 0.100191,4.44724 c 0.100192,0.7068 0.684876,1.98623 1.572816,2.99566 1.23202,1.40061 3.03923,2.28225 5.05979,2.28225 l 11.96942,0 4.48854,5.98472 c 2.24426,2.99235 4.77376,0.52898 4.48853,-1.49618 l -0.74809,-14.21369 z"
         style="fill:#6e9b3a;fill-opacity:1" />
      <path
         sodipodi:nodetypes="ssssscccss"
         inkscape:connector-curvature="0"
         id="path4220"
         d="m 104.53523,256.00005 14.96178,0 c 3.72997,0 6.7328,2.51669 6.7328,6.24666 0,1.7094 -0.63067,3.26609 -1.67299,4.45101 -1.23205,1.40061 -3.03924,2.28179 -5.05981,2.28179 l -11.96942,0 -5.98471,8.97707 c -2.265116,3.03801 -4.960548,1.28309 -4.488534,-1.49618 l 0.748089,-13.72755 c 0.202965,-3.72444 3.002825,-6.7328 6.732795,-6.7328 z"
         style="fill:#8ac249;fill-opacity:1" />
      <circle
         r="1.5"
         cy="256.5"
         cx="174.5"
         id="circle4222"
         style="display:inline;opacity:0.2;fill:#000000;fill-opacity:1;filter:url(#filter4468);enable-background:new"
         transform="matrix(0.74808886,0,0,0.74808886,-13.662805,71.484006)" />
      <circle
         style="display:inline;opacity:0.2;fill:#000000;fill-opacity:1;filter:url(#filter4468);enable-background:new"
         id="circle4224"
         cx="180.5"
         cy="256.5"
         r="1.5"
         transform="matrix(0.74808886,0,0,0.74808886,-13.662805,71.484006)" />
      <circle
         transform="matrix(0,0.74808886,-0.74808886,0,-7.6780941,71.484006)"
         style="display:inline;opacity:0.2;fill:#000000;fill-opacity:1;filter:url(#filter4468);enable-background:new"
         id="circle4226"
         cx="253.5"
         cy="-169.5"
         r="1.5" />
      <circle
         transform="matrix(0,0.74808886,-0.74808886,0,-7.6780941,71.484006)"
         r="1.5"
         cy="-169.5"
         cx="259.5"
         id="circle4228"
         style="display:inline;opacity:0.2;fill:#000000;fill-opacity:1;filter:url(#filter4468);enable-background:new" />
      <rect
         ry="0"
         y="-155"
         x="255"
         height="9"
         width="3"
         id="rect4230"
         style="opacity:0.2;fill:#000000;fill-opacity:1;filter:url(#filter4468)"
         transform="matrix(0,0.74808886,-0.74808886,0,-7.5897057,71.218842)" />
      <rect
         ry="0"
         y="258.98923"
         x="103.87553"
         height="6.7327995"
         width="2.2442665"
         id="rect4232"
         style="fill:#e3e8df;fill-opacity:1" />
      <rect
         transform="matrix(0,1,-1,0,0,0)"
         style="fill:#e3e8df;fill-opacity:1"
         id="rect4234"
         width="2.2442665"
         height="6.7327995"
         x="261.23349"
         y="-108.36407"
         ry="0" />
      <circle
         r="1.1221333"
         cy="262.62076"
         cx="116.8787"
         id="circle4236"
         style="fill:#e3e8df;fill-opacity:1" />
      <circle
         style="fill:#e3e8df;fill-opacity:1"
         id="circle4238"
         cx="121.36723"
         cy="262.62076"
         r="1.1221333" />
      <circle
         transform="matrix(0,1,-1,0,0,0)"
         style="fill:#e3e8df;fill-opacity:1"
         id="circle4241"
         cx="260.3765"
         cy="-119.12297"
         r="1.1221333" />
      <circle
         transform="matrix(0,1,-1,0,0,0)"
         r="1.1221333"
         cy="-119.12297"
         cx="264.86502"
         id="circle4243"
         style="fill:#e3e8df;fill-opacity:1" />
      <path
         style="fill:#6e9b3a;fill-opacity:1"
         d="m 54.673826,268.87796 0.07347,3.26131 c 0.07347,0.51832 0.502242,1.45657 1.153401,2.19682 0.903476,1.02711 2.228764,1.67365 3.710512,1.67365 l 8.777576,0 3.291591,4.38879 c 1.645796,2.1944 3.500761,0.38792 3.291591,-1.0972 l -0.548598,-10.42337 z"
         id="path4262"
         inkscape:connector-curvature="0"
         sodipodi:nodetypes="ccssccccc" />
      <path
         style="fill:#8ac249;fill-opacity:1"
         d="m 58.514015,264 10.97197,0 c 2.735312,0 4.937387,2.20208 4.937387,4.93739 0,1.25356 -0.462496,2.5719 -1.226864,3.44085 -0.903504,1.02711 -2.228775,1.67331 -3.710523,1.67331 l -8.777576,0 -4.388788,6.40641 c -1.661085,2.22787 -3.637735,0.94094 -3.291591,-1.0972 l 0.548598,-10.42337 C 53.720394,266.20586 55.778703,264 58.514015,264 Z"
         id="path4264"
         inkscape:connector-curvature="0"
         sodipodi:nodetypes="ssssscccss" />
      <circle
         style="display:inline;opacity:0.2;fill:#000000;fill-opacity:1;filter:url(#filter4468);enable-background:new"
         id="circle4266"
         cx="174.5"
         cy="256.5"
         r="1.5"
         transform="matrix(0.5485985,0,0,0.5485985,-28.164548,129.04477)" />
      <circle
         r="1.5"
         cy="256.5"
         cx="180.5"
         id="circle4268"
         style="display:inline;opacity:0.2;fill:#000000;fill-opacity:1;filter:url(#filter4468);enable-background:new"
         transform="matrix(0.5485985,0,0,0.5485985,-28.164548,129.04477)" />
      <circle
         r="1.5"
         cy="-169.5"
         cx="253.5"
         id="circle4270"
         style="display:inline;opacity:0.2;fill:#000000;fill-opacity:1;filter:url(#filter4468);enable-background:new"
         transform="matrix(0,0.5485985,-0.5485985,0,-23.77576,129.04477)" />
      <circle
         style="display:inline;opacity:0.2;fill:#000000;fill-opacity:1;filter:url(#filter4468);enable-background:new"
         id="circle4272"
         cx="259.5"
         cy="-169.5"
         r="1.5"
         transform="matrix(0,0.5485985,-0.5485985,0,-23.77576,129.04477)" />
      <rect
         transform="matrix(0,0.5485985,-0.5485985,0,-23.77576,129.04477)"
         style="opacity:0.2;fill:#000000;fill-opacity:1;filter:url(#filter4468)"
         id="rect4274"
         width="3"
         height="9"
         x="255"
         y="-155"
         ry="0" />
      <rect
         style="fill:#e3e8df;fill-opacity:1"
         id="rect4276"
         width="1.6457955"
         height="4.9373865"
         x="57.965416"
         y="266.74298"
         ry="0" />
      <rect
         ry="0"
         y="-61.257008"
         x="268.38879"
         height="4.9373865"
         width="1.6457955"
         id="rect4278"
         style="fill:#e3e8df;fill-opacity:1"
         transform="matrix(0,1,-1,0,0,0)" />
      <circle
         style="fill:#e3e8df;fill-opacity:1"
         id="circle4280"
         cx="67.565887"
         cy="269.2117"
         r="0.82289773" />
      <circle
         r="0.82289773"
         cy="269.2117"
         cx="70.857483"
         id="circle4282"
         style="fill:#e3e8df;fill-opacity:1" />
      <circle
         r="0.82289773"
         cy="-69.211685"
         cx="267.56589"
         id="circle4284"
         style="fill:#e3e8df;fill-opacity:1"
         transform="matrix(0,1,-1,0,0,0)" />
      <circle
         style="fill:#e3e8df;fill-opacity:1"
         id="circle4286"
         cx="270.85748"
         cy="-69.211685"
         r="0.82289773"
         transform="matrix(0,1,-1,0,0,0)" />
      <path
         style="fill:#8ac249;fill-opacity:1"
         d="m 22,517 -6,0 0.0293,8.14258 c -0.25174,1.48228 1.186469,2.4191 2.394531,0.79883 L 22,521 Z"
         transform="translate(0,-244)"
         id="path4292"
         inkscape:connector-curvature="0"
         sodipodi:nodetypes="cccccc" />
      <rect
         style="fill:#8ac249;fill-opacity:1;fill-rule:evenodd;stroke:none;stroke-width:1px;stroke-linecap:butt;stroke-linejoin:miter;stroke-opacity:1"
         id="rect4316"
         width="16"
         height="8"
         x="16"
         y="269"
         ry="4" />
      <rect
         ry="0"
         y="271"
         x="19"
         height="3.9711609"
         width="2.0016136"
         id="rect4304"
         style="fill:#e3e8df;fill-opacity:1" />
      <rect
         transform="matrix(0,1,1,0,0,0)"
         style="fill:#e3e8df;fill-opacity:1"
         id="rect4306"
         width="1.9711609"
         height="4.0016136"
         x="272"
         y="18"
         ry="0" />
      <path
         style="fill:#e3e8df;fill-opacity:1;stroke:#e3e8df;stroke-opacity:1;stroke-width:0.3;stroke-miterlimit:4;stroke-dasharray:none"
         d="M 28.023438 514.80469 A 0.75 0.75 0 0 0 27.273438 515.55469 A 0.75 0.75 0 0 0 28.023438 516.30469 A 0.75 0.75 0 0 0 28.773438 515.55469 A 0.75 0.75 0 0 0 28.023438 514.80469 z M 29.460938 516.21094 A 0.75 0.75 0 0 0 28.710938 516.96094 A 0.75 0.75 0 0 0 29.460938 517.71094 A 0.75 0.75 0 0 0 30.210938 516.96094 A 0.75 0.75 0 0 0 29.460938 516.21094 z M 26.5 516.24219 A 0.75 0.75 0 0 0 25.75 516.99219 A 0.75 0.75 0 0 0 26.5 517.74219 A 0.75 0.75 0 0 0 27.25 516.99219 A 0.75 0.75 0 0 0 26.5 516.24219 z M 28.023438 517.71875 A 0.75 0.75 0 0 0 27.273438 518.46875 A 0.75 0.75 0 0 0 28.023438 519.21875 A 0.75 0.75 0 0 0 28.773438 518.46875 A 0.75 0.75 0 0 0 28.023438 517.71875 z "
         transform="translate(0,-244)"
         id="circle4308" />
      <path
         style="opacity:0.2;fill:#ffffff;fill-opacity:1"
         d="m 104.53516,256.00005 c -3.72997,0 -6.52949,3.00798 -6.732426,6.73242 l -0.748046,13.72871 c -0.06758,0.39792 -0.06344,0.77036 -0.01172,1.11523 0.0054,-0.039 0.005,-0.0758 0.01172,-0.11523 l 0.748046,-13.72871 c 0.202936,-3.72444 3.002456,-6.73242 6.732426,-6.73242 l 14.96093,0 c 3.56951,0 6.46772,2.26607 6.71094,5.77167 0.0133,-0.17333 0.0234,-0.34854 0.0234,-0.52539 0,-3.72997 -3.00441,-6.24628 -6.73438,-6.24628 l -14.96093,0 z"
         id="path4424"
         inkscape:connector-curvature="0"
         sodipodi:nodetypes="cscccssscsscc" />
      <path
         style="fill:#ffffff;fill-opacity:1;opacity:0.2"
         d="M 58.513672 508 C 55.77836 508 53.719938 510.20597 53.576172 512.9375 L 53.027344 523.36133 C 52.975096 523.66897 52.990635 523.94898 53.035156 524.21289 L 53.576172 513.9375 C 53.719938 511.20597 55.77836 509 58.513672 509 L 69.486328 509 C 72.02355 509 74.098989 510.89605 74.386719 513.35352 C 74.397747 513.21442 74.423828 513.07571 74.423828 512.9375 C 74.423828 510.20219 72.22164 508 69.486328 508 L 58.513672 508 z "
         transform="translate(0,-244)"
         id="path4429" />
    </g>
  </g>
</svg>
