<?xml version="1.0" encoding="UTF-8" standalone="no"?>
<!-- Created with Inkscape (http://www.inkscape.org/) -->

<svg
   xmlns:dc="http://purl.org/dc/elements/1.1/"
   xmlns:cc="http://creativecommons.org/ns#"
   xmlns:rdf="http://www.w3.org/1999/02/22-rdf-syntax-ns#"
   xmlns:svg="http://www.w3.org/2000/svg"
   xmlns="http://www.w3.org/2000/svg"
   xmlns:sodipodi="http://sodipodi.sourceforge.net/DTD/sodipodi-0.dtd"
   xmlns:inkscape="http://www.inkscape.org/namespaces/inkscape"
   inkscape:export-ydpi="90.000000"
   inkscape:export-xdpi="90.000000"
   width="736"
   height="544"
   id="svg11300"
   sodipodi:version="0.32"
   inkscape:version="0.91 r13725"
   sodipodi:docname="applications-science.svg"
   inkscape:output_extension="org.inkscape.output.svg.inkscape"
   version="1.0"
   style="display:inline;enable-background:new"
   inkscape:export-filename="/home/sam/paper-template.png">
  <title
     id="title3004">Paper Icon Theme Template</title>
  <sodipodi:namedview
     stroke="#ef2929"
     fill="#f57900"
     id="base"
     pagecolor="#737373"
     bordercolor="#000000"
     borderopacity="0.25490196"
     inkscape:pageopacity="0"
     inkscape:pageshadow="2"
     inkscape:zoom="1"
     inkscape:cx="70.552388"
     inkscape:cy="24.604178"
     inkscape:current-layer="layer6"
     showgrid="false"
     inkscape:grid-bbox="true"
     inkscape:document-units="px"
     inkscape:showpageshadow="false"
     inkscape:window-width="1366"
     inkscape:window-height="704"
     inkscape:window-x="0"
     inkscape:window-y="27"
     width="400px"
     height="300px"
     inkscape:snap-nodes="true"
     inkscape:snap-bbox="true"
     gridtolerance="10000"
     inkscape:object-nodes="true"
     inkscape:snap-grids="true"
     showguides="true"
     inkscape:guide-bbox="true"
     inkscape:window-maximized="1"
     inkscape:bbox-paths="true"
     inkscape:snap-bbox-midpoints="true"
     inkscape:snap-global="true"
     inkscape:object-paths="true"
     inkscape:snap-intersection-paths="true"
     inkscape:snap-smooth-nodes="true">
    <inkscape:grid
       spacingy="1px"
       spacingx="1px"
       id="grid5883"
       type="xygrid"
       enabled="true"
       visible="true"
       empspacing="4"
       snapvisiblegridlinesonly="true" />
    <inkscape:grid
       type="xygrid"
       id="grid11592"
       empspacing="2"
       visible="true"
       enabled="false"
       spacingx="0.5px"
       spacingy="0.5px"
       color="#ff0000"
       opacity="0.1254902"
       empcolor="#ff0000"
       empopacity="0.25098039"
       snapvisiblegridlinesonly="true" />
  </sodipodi:namedview>
  <defs
     id="defs3" />
  <metadata
     id="metadata4">
    <rdf:RDF>
      <cc:Work
         rdf:about="">
        <dc:format>image/svg+xml</dc:format>
        <dc:type
           rdf:resource="http://purl.org/dc/dcmitype/StillImage" />
        <dc:creator>
          <cc:Agent>
            <dc:title>Sam Hewitt</dc:title>
          </cc:Agent>
        </dc:creator>
        <dc:source />
        <cc:license
           rdf:resource="http://creativecommons.org/licenses/by-sa/3.0/" />
        <dc:title>Paper Icon Theme Template</dc:title>
        <dc:subject>
          <rdf:Bag />
        </dc:subject>
        <dc:date />
        <dc:rights>
          <cc:Agent>
            <dc:title />
          </cc:Agent>
        </dc:rights>
        <dc:publisher>
          <cc:Agent>
            <dc:title />
          </cc:Agent>
        </dc:publisher>
        <dc:identifier />
        <dc:relation />
        <dc:language />
        <dc:coverage />
        <dc:description />
        <dc:contributor>
          <cc:Agent>
            <dc:title />
          </cc:Agent>
        </dc:contributor>
      </cc:Work>
      <cc:Work
         rdf:about="">
        <dc:format>image/svg+xml</dc:format>
        <dc:type
           rdf:resource="http://purl.org/dc/dcmitype/StillImage" />
      </cc:Work>
      <cc:License
         rdf:about="http://creativecommons.org/licenses/by-sa/3.0/">
        <cc:permits
           rdf:resource="http://creativecommons.org/ns#Reproduction" />
        <cc:permits
           rdf:resource="http://creativecommons.org/ns#Distribution" />
        <cc:requires
           rdf:resource="http://creativecommons.org/ns#Notice" />
        <cc:requires
           rdf:resource="http://creativecommons.org/ns#Attribution" />
        <cc:permits
           rdf:resource="http://creativecommons.org/ns#DerivativeWorks" />
        <cc:requires
           rdf:resource="http://creativecommons.org/ns#ShareAlike" />
      </cc:License>
    </rdf:RDF>
  </metadata>
  <g
     style="display:inline"
     inkscape:groupmode="layer"
     inkscape:label="Icon"
     id="layer1"
     transform="translate(0,244)">
    <g
       style="display:none"
       inkscape:label="Baseplate"
       id="layer7"
       inkscape:groupmode="layer">
      <text
         y="337.74512"
         xml:space="preserve"
         x="15.006836"
         style="font-style:normal;font-variant:normal;font-weight:normal;font-stretch:normal;font-size:18px;font-family:'DejaVu Sans';-inkscape-font-specification:'DejaVu Sans';display:inline;fill:#000000;fill-opacity:1;stroke:none;enable-background:new"
         inkscape:label="context"
         id="context"><tspan
           style="font-style:normal;font-variant:normal;font-weight:normal;font-stretch:normal;font-family:'DejaVu Sans';-inkscape-font-specification:'DejaVu Sans'"
           y="337.74512"
           x="15.006836"
           sodipodi:role="line"
           id="tspan3933">categories</tspan></text>
      <text
         y="337.74512"
         xml:space="preserve"
         x="142.48828"
         style="font-style:normal;font-variant:normal;font-weight:bold;font-stretch:normal;font-size:18px;line-height:125%;font-family:'DejaVu Sans';-inkscape-font-specification:'DejaVu Sans Bold';text-align:start;writing-mode:lr-tb;text-anchor:start;display:inline;fill:#000000;fill-opacity:1;stroke:none;enable-background:new"
         sodipodi:linespacing="125%"
         inkscape:label="icon-name"
         id="icon-name"><tspan
           style="font-style:normal;font-variant:normal;font-weight:bold;font-stretch:normal;font-size:18px;font-family:'DejaVu Sans';-inkscape-font-specification:'DejaVu Sans Bold'"
           y="337.74512"
           x="142.48828"
           sodipodi:role="line"
           id="tspan3937">applications-science</tspan></text>
      <rect
         style="display:inline;overflow:visible;visibility:visible;fill:#d3d7cf;fill-opacity:1;fill-rule:nonzero;stroke:none;stroke-width:2;marker:none;enable-background:accumulate"
         id="rect16x16"
         width="16"
         height="16"
         x="-32"
         y="268"
         inkscape:label="16x16"
         transform="scale(-1,1)" />
      <rect
         style="display:inline;overflow:visible;visibility:visible;fill:#d3d7cf;fill-opacity:1;fill-rule:nonzero;stroke:none;stroke-width:2;marker:none;enable-background:accumulate"
         id="rect24x24"
         width="24"
         height="24"
         x="-76"
         y="260"
         inkscape:label="24x24"
         transform="scale(-1,1)" />
      <rect
         style="display:inline;overflow:visible;visibility:visible;fill:#d3d7cf;fill-opacity:1;fill-rule:nonzero;stroke:none;stroke-width:2;marker:none;enable-background:accumulate"
         id="rect32x32"
         width="32"
         height="32"
         x="-128"
         y="252"
         inkscape:label="32x32"
         transform="scale(-1,1)" />
      <rect
         inkscape:label="48x48"
         y="236"
         x="-192"
         height="48"
         width="48"
         id="rect48x48"
         style="display:inline;overflow:visible;visibility:visible;fill:#d3d7cf;fill-opacity:1;fill-rule:nonzero;stroke:none;stroke-width:2;marker:none;enable-background:accumulate"
         transform="scale(-1,1)" />
      <rect
         style="display:inline;overflow:visible;visibility:visible;fill:#d3d7cf;fill-opacity:1;fill-rule:nonzero;stroke:none;stroke-width:2;marker:none;enable-background:accumulate"
         id="rect3951"
         width="512"
         height="512"
         x="-720"
         y="-228"
         inkscape:label="48x48"
         transform="scale(-1,1)" />
    </g>
    <g
       inkscape:groupmode="layer"
       id="layer6"
       inkscape:label="Symbols"
       style="display:inline">
      <path
         inkscape:connector-curvature="0"
         d="m 156,281 c -3.31371,0 -6,-2.6863 -6,-6 0,-1.2 0.36,-2.32 1,-3.26 l 11,-19.12 0,-3.62 c 0,0 -2,0 -2,-2 l 0,-4 c 0,-2 2,-2 2,-2 l 12,0 c 2.20914,0 2,2 2,2 l 0,4 c 0,2 -2,2 -2,2 l 0,3.62 11,19.12 c 0.64,0.94 1,2.06 1,3.26 0,3.3137 -2.68629,6 -6,6 l -24,0"
         id="path4182"
         sodipodi:nodetypes="cscccsscscscccssc"
         style="display:inline;fill:#000000;fill-opacity:1;enable-background:new;opacity:0.2" />
      <path
         style="display:inline;fill:#000000;fill-opacity:1;enable-background:new;opacity:0.2"
         sodipodi:nodetypes="cscccsscscscccssc"
         id="path4162"
         d="m 58,283 c -1.656854,0 -3,-1.34315 -3,-3 0,-0.6 0.18,-1.16 0.5,-1.63 L 61,268.81 61,267 c 0,0 -1,0 -1,-1 l 0,-2 c 0,-1 1,-1 1,-1 l 6,0 c 1.104569,0 1,1 1,1 l 0,2 c 0,1 -1,1 -1,1 l 0,1.81 5.5,9.56 c 0.32,0.47 0.5,1.03 0.5,1.63 0,1.65685 -1.343146,3 -3,3 l -12,0"
         inkscape:connector-curvature="0" />
      <path
         style="display:inline;fill:#02a8f3;fill-opacity:1;enable-background:new"
         d="M 61 510 L 61 511.81055 L 55.5 521.36914 C 55.18 521.83914 55 522.4 55 523 C 55 524.65685 56.343146 526 58 526 L 70 526 C 71.656854 526 73 524.65685 73 523 C 73 522.4 72.82 521.83914 72.5 521.36914 L 67 511.81055 L 67 510 L 61 510 z "
         transform="translate(0,-244)"
         id="path4" />
      <path
         style="display:inline;fill:#ffffff;fill-opacity:1;enable-background:new"
         inkscape:connector-curvature="0"
         d="m 57,279 c 0,0.55228 0.447715,1 1,1 l 12,0 c 0.552285,0 1,-0.44772 1,-1 0,-0.21 -0.07,-0.41 -0.18,-0.57 l -2.29,-3.96 c 0,0 -0.53,-1.47 -2.53,-1.47 -2,0 -2,2 -4,2 -2,0 -1.942182,-1.55822 -1.942182,-1.55822 L 57.18,278.43 C 57.07,278.59 57,278.79 57,279 m 6,-9 c -0.552285,0 -1,0.44772 -1,1 0,0.55228 0.447715,1 1,1 0.552285,0 1,-0.44772 1,-1 0,-0.55228 -0.447715,-1 -1,-1 z"
         id="path4155"
         sodipodi:nodetypes="cssscczscccsssss" />
      <path
         style="display:inline;enable-background:new;fill:#ffffff;fill-opacity:1;opacity:0.2"
         d="M 61 506 C 61 506 60 506 60 507 L 60 508 C 60 507 61 507 61 507 L 67 507 C 67.828427 507 67.977633 507.5625 68 507.84375 L 68 507 C 68 507 68.104569 506 67 506 L 61 506 z M 61 511.81055 L 55.5 521.36914 C 55.18 521.83914 55 522.4 55 523 C 55 523.16768 55.022381 523.33005 55.048828 523.49023 C 55.12063 523.08401 55.272955 522.70261 55.5 522.36914 L 61 512.81055 L 61 511.81055 z M 67 511.81055 L 67 512.81055 L 72.5 522.36914 C 72.727045 522.70261 72.87937 523.08401 72.951172 523.49023 C 72.977619 523.33005 73 523.16768 73 523 C 73 522.4 72.82 521.83914 72.5 521.36914 L 67 511.81055 z "
         id="path4157"
         transform="translate(0,-244)" />
      <path
         style="display:inline;fill:#02a8f3;fill-opacity:1;enable-background:new"
         sodipodi:nodetypes="cscccsscscscccssc"
         id="path4176"
         d="m 156,280 c -3.31371,0 -6,-2.6863 -6,-6 0,-1.2 0.36,-2.32 1,-3.26 l 11,-19.12 0,-3.62 c 0,0 -2,0 -2,-2 l 0,-4 c 0,-2 2,-2 2,-2 l 12,0 c 2.20914,0 2,2 2,2 l 0,4 c 0,2 -2,2 -2,2 l 0,3.62 11,19.12 c 0.64,0.94 1,2.06 1,3.26 0,3.3137 -2.68629,6 -6,6 l -24,0"
         inkscape:connector-curvature="0" />
      <path
         sodipodi:nodetypes="cssscczscccsssss"
         id="path4178"
         d="m 154,274 c 0,1.10456 0.89543,2 2,2 l 24,0 c 1.10457,0 2,-0.89544 2,-2 0,-0.42 -0.14,-0.82 -0.36,-1.14 l -4.58,-7.92 c 0,0 -1.06,-2.94 -5.06,-2.94 -4,0 -4,4 -8,4 -4,0 -3.88436,-3.11644 -3.88436,-3.11644 L 154.36,272.86 c -0.22,0.32 -0.36,0.72 -0.36,1.14 m 12,-18 c -1.10457,0 -2,0.89544 -2,2 0,1.10456 0.89543,2 2,2 1.10457,0 2,-0.89544 2,-2 0,-1.10456 -0.89543,-2 -2,-2 z"
         inkscape:connector-curvature="0"
         style="display:inline;fill:#ffffff;fill-opacity:1;enable-background:new" />
      <rect
         y="249"
         x="162"
         height="1"
         width="12"
         id="rect4193"
         style="opacity:0.05;fill:#000000;fill-opacity:1;stroke:none;stroke-width:1;stroke-linecap:round;stroke-linejoin:round;stroke-miterlimit:4;stroke-dasharray:none;stroke-opacity:1" />
      <rect
         style="opacity:0.1;fill:#000000;fill-opacity:1;stroke:none;stroke-width:1;stroke-linecap:round;stroke-linejoin:round;stroke-miterlimit:4;stroke-dasharray:none;stroke-opacity:1"
         id="rect4191"
         width="12"
         height="1"
         x="162"
         y="248" />
      <rect
         style="opacity:1;fill:#e9dbc1;fill-opacity:1;stroke:none;stroke-width:1;stroke-linecap:round;stroke-linejoin:round;stroke-miterlimit:4;stroke-dasharray:none;stroke-opacity:1"
         id="rect4195"
         width="16"
         height="8"
         x="160"
         y="240"
         ry="2" />
      <path
         style="display:inline;fill:#ffffff;fill-opacity:1;enable-background:new;opacity:0.4"
         d="M 162 484 C 162 484 160 484 160 486 L 160 487 C 160 485 162 485 162 485 L 174 485 C 176.20914 485 176 487 176 487 L 176 486 C 176 486 176.20914 484 174 484 L 162 484 z M 162 495.61914 L 151 514.74023 C 150.36 515.68023 150 516.8 150 518 C 150 518.20119 150.01191 518.3996 150.03125 518.5957 C 150.10333 517.5505 150.43329 516.5726 151 515.74023 L 162 496.61914 L 162 495.61914 z M 174 495.61914 L 174 496.61914 L 185 515.74023 C 185.56671 516.5726 185.89667 517.5505 185.96875 518.5957 C 185.98809 518.3996 186 518.20119 186 518 C 186 516.8 185.64 515.68023 185 514.74023 L 174 495.61914 z "
         transform="translate(0,-244)"
         id="path4184" />
      <rect
         style="opacity:0.05;fill:#000000;fill-opacity:1;stroke:none;stroke-width:1;stroke-linecap:round;stroke-linejoin:round;stroke-miterlimit:4;stroke-dasharray:none;stroke-opacity:1"
         id="rect4214"
         width="6"
         height="1"
         x="61"
         y="267" />
      <rect
         y="266"
         x="61"
         height="1"
         width="6"
         id="rect4216"
         style="opacity:0.1;fill:#000000;fill-opacity:1;stroke:none;stroke-width:1;stroke-linecap:round;stroke-linejoin:round;stroke-miterlimit:4;stroke-dasharray:none;stroke-opacity:1" />
      <rect
         ry="1"
         y="262"
         x="60"
         height="4"
         width="8"
         id="rect4218"
         style="opacity:1;fill:#e9dbc1;fill-opacity:1;stroke:none;stroke-width:1;stroke-linecap:round;stroke-linejoin:round;stroke-miterlimit:4;stroke-dasharray:none;stroke-opacity:1" />
    </g>
  </g>
</svg>
