<svg xmlns="http://www.w3.org/2000/svg" width="16" height="16">
    <path d="M6.49.997c3.028 0 5.53 2.475 5.53 5.5 0 1.15-.389 2.208-1 3.094l3.688 3.687a1.005 1.005 0 11-1.406 1.438l-3.688-3.688a5.513 5.513 0 01-3.125.97c-3.029 0-5.5-2.475-5.5-5.5 0-3.026 2.471-5.5 5.5-5.5zm0 2a3.483 3.483 0 00-3.5 3.5c0 1.945 1.552 3.5 3.5 3.5 1.947 0 3.5-1.555 3.5-3.5s-1.553-3.5-3.5-3.5z" style="line-height:normal;-inkscape-font-specification:Sans;text-indent:0;text-align:start;text-decoration-line:none;text-transform:none;marker:none" color="#000" font-weight="400" font-family="Sans" overflow="visible" fill="#4c5263"/>
</svg>
