<svg xmlns="http://www.w3.org/2000/svg" width="16" height="16">
    <path d="M1.844 1C1.562 1.047 1 1.25 1 2v11s0 1 1 1h12s1 0 1-1V4c0-1-1-1-1-1H9L7 1H2s-.063-.016-.156 0zM10.5 6a1.5 1.5 0 110 3 1.5 1.5 0 010-3zm0 4c2.5 0 2.5 1.5 2.5 1.5v.5H8v-.5S8 10 10.5 10z" style="line-height:normal;-inkscape-font-specification:Sans;text-indent:0;text-align:start;text-decoration-line:none;text-transform:none;marker:none" color="#000" font-weight="400" font-family="Sans" overflow="visible" fill="#4c5263"/>
</svg>
