<svg xmlns="http://www.w3.org/2000/svg" width="16" height="16">
    <path d="M 605.84375,-57 C 605.5625,-56.953125 605,-56.75 605,-56 v 11 c 0,0 0,1 1,1 h 12 c 0,0 1,0 1,-1 v -9 c 0,-1 -1,-1 -1,-1 h -5 l -2,-2 h -5 c 0,0 -0.0625,-0.01563 -0.15625,0 z m 8.65625,5 c 0.82843,0 1.5,0.671573 1.5,1.5 0,0.828427 -0.67157,1.5 -1.5,1.5 -0.82843,0 -1.5,-0.671573 -1.5,-1.5 0,-0.828427 0.67157,-1.5 1.5,-1.5 z m 0,4 c 2.5,0 2.5,1.5 2.5,1.5 v 0.5 h -5 v -0.5 c 0,0 0,-1.5 2.5,-1.5 z" style="line-height:normal;-inkscape-font-specification:Sans;text-indent:0;text-align:start;text-decoration-line:none;text-transform:none;marker:none" color="#000" font-weight="400" font-family="Sans" overflow="visible" fill="#4c5263" transform="translate(-604 58)"/>
</svg>
