<svg xmlns="http://www.w3.org/2000/svg" width="16" height="16">
    <path d="m 651,-58 v 2 h -1 c -0.554,0 -1,0.446 -1,1 v 4 l 0.53906,0.53906 -3.4082,5.96485 L 646,-42 l 1.86914,-1.50391 0.72265,-1.26562 c 1.06549,0.5045 2.22932,0.76727 3.40821,0.76953 1.17838,-0.003 2.34151,-0.26659 3.40625,-0.77148 l 0.72461,1.26757 L 658,-42 l -0.13086,-2.49609 -0.76758,-1.34375 C 658.93681,-47.35918 659.99936,-49.61746 660,-52 h -2 c -0.002,1.66346 -0.69447,3.25143 -1.91211,4.38477 L 654.46094,-50.46094 655,-51 v -4 c 0,-0.554 -0.446,-1 -1,-1 h -1 v -2 z m 1,4 c 0.554,0 1,0.446 1,1 0,0.554 -0.446,1 -1,1 -0.554,0 -1,-0.446 -1,-1 0,-0.554 0.446,-1 1,-1 z m -0.99219,5.00391 c 0.62793,0.3068 1.26523,0.53165 1.98633,0 l 1.41797,2.48242 c -0.75979,0.3364 -1.58118,0.51132 -2.41211,0.51367 -0.83027,-0.003 -1.65097,-0.17753 -2.41016,-0.51367 z" fill="#4c5263" transform="translate(-644 58)"/>
</svg>
