<svg xmlns="http://www.w3.org/2000/svg" width="16" height="16">
    <path d="m 650.48933,-37.00284 c 3.02885,0 5.53125,2.47458 5.53125,5.5 0,1.14986 -0.38921,2.20784 -1,3.09375 l 3.6875,3.6875 a 1.0054782,1.0054782 0 1 1 -1.40625,1.4375 l -3.6875,-3.6875 c -0.88729,0.61091 -1.973,0.96875 -3.125,0.96875 -3.02886,0 -5.5,-2.47459 -5.5,-5.5 0,-3.02542 2.47114,-5.5 5.5,-5.5 z m 0,2 c -1.94736,0 -3.5,1.55485 -3.5,3.5 0,1.94514 1.55264,3.5 3.5,3.5 1.94735,0 3.5,-1.55486 3.5,-3.5 0,-1.94515 -1.55265,-3.5 -3.5,-3.5 z" style="line-height:normal;-inkscape-font-specification:Sans;text-indent:0;text-align:start;text-decoration-line:none;text-transform:none;marker:none" color="#000" font-weight="400" font-family="Sans" overflow="visible" fill="#4c5263" transform="translate(-644 38)"/>
</svg>
