<svg xmlns="http://www.w3.org/2000/svg" width="16" height="16">
    <g fill="#4c5263">
        <path d="m 708,-38 v 1 h 1 5.99805 H 716 v -1 z m 0,2 v 1 h 1 5.99805 H 716 v -1 z m 0,2 v 5 h 8 v -5 z m 1,1 3,1.5 2.99805,-1.5 v 1 L 712,-30.5 709,-32 Z" transform="translate(-704 38)"/>
        <path d="m 706,-37 c -1.0312,0.0625 -1,1 -1,1 v 8 4 c 0,0 -0.0312,0.9375 1,1 h 12 c 1,0 1,-1 1,-1 v -4 -8 c 0,0 0,-1 -1,-1 h -1 v 2 1.75 5.25 H 716 715.84375 715 714 c 0,1.108 -0.892,2 -2,2 -1.108,0 -2,-0.892 -2,-2 H 709 708.15625 707 v -5.25 -1.75 -2 z" fill-rule="evenodd" transform="translate(-704 38)"/>
    </g>
</svg>
