<svg xmlns="http://www.w3.org/2000/svg" width="16" height="16">
    <g fill="#4c5263">
        <path d="m 686,-37 c -1.0312,0.0625 -1,1 -1,1 v 8 4 c 0,0 -0.0312,0.9375 1,1 h 12 c 1,0 1,-1 1,-1 v -4 -8 c 0,0 0,-1 -1,-1 h -5.53125 l 0.3125,0.375 1.3125,1.625 H 697 v 7 H 696 695.84375 695 694 c 0,1.108 -0.892,2 -2,2 -1.108,0 -2,-0.892 -2,-2 H 689 688.15625 687 v -7 h 2.90625 l 1.3125,-1.625 0.3125,-0.375 z" fill-rule="evenodd" transform="translate(-684 38)"/>
        <path d="m 690,-29 v -2 h -2 l 4,-5 4,5 h -2 v 2 z" transform="translate(-684 38)"/>
    </g>
</svg>
