<svg xmlns="http://www.w3.org/2000/svg" width="16" height="16">
    <path d="M8 1a7 7 0 100 14A7 7 0 008 1zm-.5 1.938c.067-.007.151.004.219 0 .008.032-.049.145-.125.312-.486 1.061-.514 2.304-.063 2.969.082.12.157.235.157.25 0 .015-.088.031-.188.031-.234 0-.455-.142-.906-.5-.2-.159-.462-.292-.563-.313-.158-.031-.2-.017-.406.188-.191.19-.25.294-.25.469 0 .663.787 1.19 2.25 1.5 1.987.42 2.476.799 2.531 1.843.069 1.31-.628 2.298-2.156 3.063-.182.091-.298.127-.375.156-.034-.003-.06.003-.094 0a1.113 1.113 0 01-.03-.312c0-.696-.275-1.412-.688-1.813a5.258 5.258 0 00-.688-.5c-.266-.164-.534-.356-.594-.437-.099-.136-.107-.219-.03-.469.138-.457.303-.711.624-1 .168-.151.338-.278.375-.281.037-.003-.215-.08-.594-.157-.378-.077-.932-.24-1.218-.343-.524-.19-1.23-.587-1.5-.875l-.032-.031A5.026 5.026 0 016.063 3.28c.3-.127.61-.214.937-.281.163-.033.332-.045.5-.062zm4.688 2.343c.117.073.56 1.032.687 1.5.163.604.152 1.65 0 2.25-.058.229-.132.442-.156.469-.025.027-.114-.127-.219-.312-.105-.186-.44-.582-.719-.875-.804-.849-.93-1.292-.594-1.97.17-.34.91-1.118 1-1.062z" fill="#4c5263"/>
</svg>
