<svg xmlns="http://www.w3.org/2000/svg" width="16" height="16">
    <g fill="#4c5263">
        <path d="M507.25-55h3.49999c.1385 0 .25.1115.25.25v3.5c0 .1385-.1115.25-.25.25H507.25c-.1385 0-.25-.1115-.25-.25v-3.5c0-.1385.1115-.25.25-.25zM513.25-55h3.49999c.1385 0 .25.1115.25.25v3.5c0 .1385-.1115.25-.25.25H513.25c-.1385 0-.25-.1115-.25-.25v-3.5c0-.1385.1115-.25.25-.25zM507.25-49h3.50001c.1385 0 .25.1115.25.25v3.5c0 .1385-.1115.25-.25.25H507.25c-.1385 0-.25-.1115-.25-.25v-3.5c0-.1385.1115-.25.25-.25zM513.25-49h3.50001c.1385 0 .25.1115.25.25v3.5c0 .1385-.1115.25-.25.25H513.25c-.1385 0-.25-.1115-.25-.25v-3.5c0-.1385.1115-.25.25-.25z" transform="translate(-504 58.003)"/>
    </g>
</svg>
