<svg xmlns="http://www.w3.org/2000/svg" width="16" height="16.003">
    <path d="m 797.00022,-515.00004 c -1.65685,0 -3,1.34315 -3,3 0,0.23127 0.0442,0.44 0.0937,0.65625 l -3.21875,2 c -0.51341,-0.41127 -1.16591,-0.65625 -1.87495,-0.65625 -1.65685,0 -3,1.34315 -3,3 0,1.65685 1.34315,3 3,3 0.70904,0 1.36154,-0.24498 1.875,-0.65625 l 3.21875,2 c -0.0495,0.21625 -0.0937,0.42498 -0.0937,0.65625 0,1.65685 1.34315,3 3,3 1.65685,0 3,-1.34315 3,-3 0,-1.65685 -1.34315,-3 -3,-3 -0.70904,0 -1.36154,0.24498 -1.875,0.65625 l -3.21875,-2 c 0.0495,-0.21625 0.0937,-0.42498 0.0937,-0.65625 0,-0.23127 -0.0442,-0.44 -0.0937,-0.65625 l 3.21875,-2 c 0.51341,0.41127 1.16591,0.65625 1.87495,0.65625 1.65685,0 3,-1.34315 3,-3 0,-1.65685 -1.34315,-3 -3,-3 z" fill="#4c5263" transform="translate(-785 515.003)"/>
</svg>
