<svg xmlns="http://www.w3.org/2000/svg" width="16" height="16">
    <path d="m 810.0002,-514 c 0,0 -4.3e-4,0.003 -4.3e-4,1.00336 v 7.1875 c -0.31647,-0.11352 -0.64447,-0.1875 -1,-0.1875 -1.65685,0 -3,1.34315 -3,3 0,1.65685 1.34315,3 3,3 1.65685,0 3,-1.34315 3,-3 v -7 h 6 v 4.1875 c -0.31647,-0.11352 -0.64447,-0.1875 -1,-0.1875 -1.65685,0 -3,1.34315 -3,3 0,1.65685 1.34315,3 3,3 1.65685,0 2.99994,-1.34315 3,-3 L 820.0002,-514 c 0,0 -4.3e-4,0.004 -1.00043,0.003 z" fill="#4c5263" transform="translate(-805 515)"/>
</svg>
