<svg xmlns="http://www.w3.org/2000/svg" width="16" height="16">
    <g fill="#4c5263">
        <path d="m 830.84367,-513.9899 c -0.28125,0.0469 -0.84375,0.25 -0.84375,1 v 1 h 3 0.40625 l 0.3125,0.3125 4,4 0.28125,0.28125 v 0.40625 c 0.003,1.27288 -0.002,3.01044 0,4.4375 2.7e-4,0.22144 -1.2e-4,0.35876 0,0.5625 h 1 c 1,0 1,-1 1,-1 0.0188,-0.0461 0.005,-4.4529 0,-7 l -4,-4 h -5 c 0,0 -0.0625,-0.0156 -0.15625,0 z" transform="translate(-825 515)"/>
        <path d="m 827.84367,-511 c -0.28125,0.0469 -0.84375,0.25 -0.84375,1 v 10 c 0,1 1,1 1,1 h 8 c 1,0 1,-1 1,-1 0.0188,-0.0461 0.005,-4.4529 0,-7 l -4,-4 h -5 c 0,0 -0.0625,-0.0156 -0.15625,0 z" transform="translate(-825 515)"/>
    </g>
</svg>
