<?xml version='1.0' encoding='UTF-8' standalone='no'?>
<svg height="16" xmlns:inkscape="http://www.inkscape.org/namespaces/inkscape" xmlns:sodipodi="http://sodipodi.sourceforge.net/DTD/sodipodi-0.dtd" version="1.1" width="16" xmlns="http://www.w3.org/2000/svg" enable-background="new">
 <metadata id="metadata90"/>
 <defs id="defs7386">
  <linearGradient id="linearGradient5606" osb:paint="solid">
   <stop id="stop5608"/>
  </linearGradient>
  <filter inkscape:collect="always" color-interpolation-filters="sRGB" id="filter7554">
   <feBlend inkscape:collect="always" id="feBlend7556" in2="BackgroundImage" mode="darken"/>
  </filter>
 </defs>
 <g inkscape:groupmode="layer" id="g71291" inkscape:label="emotes" transform="translate(-760.99999,42.999993)">
  <path inkscape:connector-curvature="0" d="m 768.99997,-42 c -3.86599,0 -7,3.13401 -7,7 0,3.86599 3.13401,7 7,7 3.86599,0 7,-3.13401 7,-7 0,-3.86599 -3.13401,-7 -7,-7 z m -3,4 c 0.55404,0 1,0.44936 1,1 0,0.55064 -0.44596,1 -1,1 -0.55422,0 -1,-0.44936 -1,-1 0,-0.55055 0.44578,-1 1,-1 z m 6,0 c 0.55418,0 1,0.44936 1,1 0,0.55064 -0.44582,1 -1,1 -0.55418,0 -1,-0.44936 -1,-1 0,-0.55055 0.44582,-1 1,-1 z m -4.9375,4.5 c 0.755,-0.1008 1.6036,0.19715 2.375,0.96875 0.5861,0.5855 0.9858,0.64875 1.375,0.59375 0.389,-0.0549 0.81685,-0.2948 1.21875,-0.625 a 0.60256938,0.60256938 0 1 1 0.75,0.90625 c -0.4692,0.3853 -1.0575,0.79975 -1.8125,0.90625 -0.7548,0.1067 -1.63055,-0.1618 -2.40625,-0.9375 -0.5901,-0.5906 -0.96425,-0.676 -1.34375,-0.625 -0.3795,0.0507 -0.8294,0.30655 -1.25,0.65625 a 0.60256938,0.60256938 0 1 1 -0.75,-0.90625 c 0.4882,-0.406 1.08875,-0.8368 1.84375,-0.9375 z" id="path8003" fill="#bebebe" color="#bebebe" stroke-width="2"/>
 </g>
</svg>
