<?xml version='1.0' encoding='UTF-8' standalone='no'?>
<svg height="16" xmlns:inkscape="http://www.inkscape.org/namespaces/inkscape" xmlns:sodipodi="http://sodipodi.sourceforge.net/DTD/sodipodi-0.dtd" version="1.1" width="16" xmlns="http://www.w3.org/2000/svg">
 <metadata id="metadata90"/>
 <g inkscape:groupmode="layer" id="g71291" inkscape:label="emotes" transform="translate(-641.00018,-659)">
  <path inkscape:connector-curvature="0" d="m 648.84395,659.03125 c -1.22726,0.73385 -1.06237,1.63247 -0.90625,2.03125 -1.80729,0.26848 -3.54878,1.31123 -4.125,3.1875 -0.28347,-0.21168 -0.58797,-0.34375 -0.9375,-0.34375 -1.03385,0 -1.875,1.08269 -1.875,2.375 0,1.29231 0.84115,2.34375 1.875,2.34375 0.46667,0 0.88574,-0.21164 1.21875,-0.5625 2.719,-1.27361 7.09252,-1.46625 9.875,0.0312 0.31962,0.32225 0.71112,0.53125 1.15625,0.53125 1.03385,0 1.875,-1.05144 1.875,-2.34375 0,-1.29231 -0.84115,-2.375 -1.875,-2.375 -0.42839,0 -0.81111,0.19311 -1.125,0.5 -0.50745,-1.70199 -1.83978,-2.91021 -3.8125,-3.28125 -0.17036,-0.63874 -0.28432,-1.91587 1.625,-1.78125 -2.16948,-0.79311 -2.71875,1.625 -2.71875,1.625 -0.26551,-0.11722 -0.96537,-0.6383 -0.25,-1.9375 z m -1.375,5.03125 c 0.37988,0 0.71875,0.64637 0.71875,1.46875 0,0.82238 -0.33887,1.5 -0.71875,1.5 -0.37988,0 -0.65625,-0.67762 -0.65625,-1.5 0,-0.82238 0.27637,-1.46875 0.65625,-1.46875 z m 3,0 c 0.37988,0 0.71875,0.64637 0.71875,1.46875 0,0.82238 -0.33887,1.5 -0.71875,1.5 -0.37988,0 -0.65625,-0.67762 -0.65625,-1.5 0,-0.82238 0.27637,-1.46875 0.65625,-1.46875 z m -7.46875,0.90625 c 0.25587,0 0.47396,0.14945 0.65625,0.34375 -0.0332,0.52908 -0.0185,1.11829 0.125,1.75 -0.19168,0.29374 -0.45209,0.5 -0.78125,0.5 -0.57176,0 -1.03125,-0.56655 -1.03125,-1.28125 0,-0.7147 0.45949,-1.3125 1.03125,-1.3125 z m 12.03125,0 c 0.57182,0 1.0625,0.59772 1.0625,1.3125 0,0.71478 -0.49068,1.28125 -1.0625,1.28125 -0.37247,0 -0.65921,-0.26193 -0.84375,-0.625 0.055,-0.48001 0.0368,-0.93512 0,-1.375 0.18776,-0.35024 0.48432,-0.59375 0.84375,-0.59375 z" id="path9123" fill="#babdb6"/>
  <path inkscape:connector-curvature="0" d="m 648.96895,667.96875 c -3.88002,0 -7.03125,1.567 -7.03125,3.5 0,1.933 3.15123,3.5 7.03125,3.5 3.88002,0 7.03125,-1.567 7.03125,-3.5 0,-1.933 -3.15123,-3.5 -7.03125,-3.5 z m -4.96875,2.0625 c 0,0 0.36695,2.03125 4.96875,2.03125 4.38662,0 5.09375,-2 5.09375,-2 0,0 -0.0395,2.97659 -5.09375,2.9375 -5.1481,-0.0398 -4.96875,-2.96875 -4.96875,-2.96875 z" id="path8939" sodipodi:nodetypes="ssssscscsc" fill="#babdb6" color="#000000"/>
 </g>
</svg>
