<?xml version='1.0' encoding='UTF-8' standalone='no'?>
<svg height="16" xmlns:inkscape="http://www.inkscape.org/namespaces/inkscape" xmlns:sodipodi="http://sodipodi.sourceforge.net/DTD/sodipodi-0.dtd" version="1.1" width="16" xmlns="http://www.w3.org/2000/svg" enable-background="new">
 <metadata id="metadata90"/>
 <defs id="defs7386">
  <linearGradient id="linearGradient5606" osb:paint="solid">
   <stop id="stop5608"/>
  </linearGradient>
  <filter inkscape:collect="always" color-interpolation-filters="sRGB" id="filter7554">
   <feBlend inkscape:collect="always" id="feBlend7556" in2="BackgroundImage" mode="darken"/>
  </filter>
 </defs>
 <g inkscape:groupmode="layer" id="g71291" inkscape:label="emotes" transform="translate(-861.00015,63.000006)">
  <g id="g4926" transform="translate(-146.00004,-161.00001)">
   <g id="g7975">
    <path inkscape:connector-curvature="0" d="m 628,367 c -3.86599,0 -7,3.13401 -7,7 0,3.86599 3.13401,7 7,7 3.86599,0 7,-3.13401 7,-7 0,-3.86599 -3.13401,-7 -7,-7 z m 4.09375,3.375 c 0.01,-0.023 0.4323,0.0833 0.5,0.625 0.067,0.542 -0.40625,1 -0.40625,1 0,0 -3.1765,0.017 -3.1875,0 -0.192,-0.2918 -0.2751,-0.7658 0.0625,-1.0625 0.019,0 3.02675,-0.5406 3.03125,-0.5625 z m -8.40625,0.0312 c 0.0424,-0.015 0.06,-0.006 0.0625,0 0.005,0.0219 2.981,0.5625 3,0.5625 0.3376,0.2967 0.28575,0.7707 0.0937,1.0625 -0.0109,0.017 -3.1875,0 -3.1875,0 0,0 -0.47325,-0.458 -0.40625,-1 0.0506,-0.40627 0.31042,-0.58006 0.4375,-0.625 z m 5.6875,4.1875 c 0.1448,0 0.4132,0.14146 0.625,0.3125 0.085,0.0692 0.2718,0.24048 0.4375,0.375 0.3403,0.27626 0.9255,0.64561 1.3125,0.875 0.1431,0.0844 0.251,0.17829 0.25,0.1875 -0.01,0.009 -0.10225,0.0687 -0.21875,0.125 -0.3111,0.15264 -0.6794,0.37533 -0.875,0.5625 -0.095,0.0911 -0.3366,0.38987 -0.5625,0.65625 -0.5547,0.65449 -0.8291,0.8838 -1.25,1.09375 -0.3595,0.17929 -0.4809,0.20936 -1,0.21875 -0.2567,0.009 -0.52425,-0.026 -0.59375,-0.0312 l 0,0.0312 c -0.4171,-0.0759 -0.89755,-0.33687 -1.28125,-0.6875 -0.083,-0.075 -0.3365,-0.35852 -0.5625,-0.625 -0.2257,-0.26648 -0.4676,-0.53412 -0.5625,-0.625 -0.1957,-0.18717 -0.5636,-0.44101 -0.875,-0.59375 -0.1158,-0.0569 -0.21795,-0.1158 -0.21875,-0.125 -0.01,-0.009 0.1069,-0.0717 0.25,-0.15625 0.3871,-0.22948 0.9722,-0.63 1.3125,-0.90625 0.1656,-0.13443 0.3521,-0.30584 0.4375,-0.375 0.2114,-0.17057 0.4809,-0.28125 0.625,-0.28125 0.082,0 0.2057,0.0172 0.4375,0.125 0.7306,0.33934 1.18215,0.34815 1.90625,0 0.2292,-0.10768 0.32225,-0.15625 0.40625,-0.15625 z m -1.90625,1.71875 c -0.044,0.009 -0.21835,0.0911 -0.40625,0.1875 -0.1878,0.0958 -0.3545,0.15625 -0.375,0.15625 -0.021,0 -0.0312,0.017 -0.0312,0.0312 0,0.0152 -0.016,0.0312 0,0.0312 0.015,0 0.2251,0.0842 0.4375,0.1875 0.2125,0.10369 0.4228,0.2223 0.5,0.25 0.1819,0.0655 0.59945,0.0612 0.78125,0 0.07,-0.0237 0.30755,-0.14137 0.53125,-0.25 0.2237,-0.10862 0.4227,-0.1875 0.4375,-0.1875 0.015,0 0.0312,-0.017 0.0312,-0.0312 0,-0.0152 -0.0415,-0.0312 -0.0625,-0.0312 -0.021,0 -0.1871,-0.0606 -0.375,-0.15625 -0.1881,-0.096 -0.36165,-0.18607 -0.40625,-0.1875 -0.045,-0.009 -0.1704,0.008 -0.25,0.0312 -0.1847,0.056 -0.3779,0.056 -0.5625,0 -0.08,-0.0237 -0.2053,-0.0331 -0.25,-0.0312 z" id="path7970" transform="translate(387.00002,-267.99999)" fill="#bebebe" color="#bebebe" stroke-width="2"/>
   </g>
  </g>
 </g>
</svg>
