<?xml version='1.0' encoding='UTF-8' standalone='no'?>
<svg height="16" xmlns:inkscape="http://www.inkscape.org/namespaces/inkscape" xmlns:sodipodi="http://sodipodi.sourceforge.net/DTD/sodipodi-0.dtd" version="1.1" width="16" xmlns="http://www.w3.org/2000/svg" enable-background="new">
 <metadata id="metadata90"/>
 <defs id="defs7386">
  <linearGradient id="linearGradient5606" osb:paint="solid">
   <stop id="stop5608"/>
  </linearGradient>
  <filter inkscape:collect="always" color-interpolation-filters="sRGB" id="filter7554">
   <feBlend inkscape:collect="always" id="feBlend7556" in2="BackgroundImage" mode="darken"/>
  </filter>
 </defs>
 <g inkscape:groupmode="layer" id="g71291" inkscape:label="emotes" transform="translate(-741.00021,63.000006)">
  <path inkscape:connector-curvature="0" d="m 748.99998,-62 c -3.86599,0 -7,3.13401 -7,7 0,3.86599 3.13401,7 7,7 3.86599,0 7,-3.13401 7,-7 0,-3.86599 -3.13401,-7 -7,-7 z m -3,4 c 0.55404,0 1,0.44936 1,1 0,0.55064 -0.44596,1 -1,1 -0.55422,0 -1,-0.44936 -1,-1 0,-0.55064 0.44578,-1 1,-1 z m 6,0 c 0.55418,0 1,0.44936 1,1 0,0.55064 -0.44582,1 -1,1 -0.55418,0 -1,-0.44936 -1,-1 0,-0.55064 0.44582,-1 1,-1 z m -3,4 c 1.10826,0 2,0.89889 2,2 0,1.10129 -0.89174,2 -2,2 -1.10835,0 -2,-0.89871 -2,-2 0,-1.10111 0.89165,-2 2,-2 z" id="path5107" fill="#bebebe" color="#bebebe"/>
 </g>
</svg>
