<?xml version='1.0' encoding='UTF-8' standalone='no'?>
<svg height="16" xmlns:inkscape="http://www.inkscape.org/namespaces/inkscape" xmlns:sodipodi="http://sodipodi.sourceforge.net/DTD/sodipodi-0.dtd" version="1.1" width="16" xmlns="http://www.w3.org/2000/svg" enable-background="new">
 <metadata id="metadata90"/>
 <defs id="defs7386">
  <linearGradient id="linearGradient5606" osb:paint="solid">
   <stop id="stop5608"/>
  </linearGradient>
  <filter inkscape:collect="always" color-interpolation-filters="sRGB" id="filter7554">
   <feBlend inkscape:collect="always" id="feBlend7556" in2="BackgroundImage" mode="darken"/>
  </filter>
 </defs>
 <g inkscape:groupmode="layer" id="g71291" inkscape:label="emotes" transform="translate(-780.99997,63.000051)">
  <path inkscape:connector-curvature="0" d="m 788.99998,-62 c -3.86599,0 -7,3.13401 -7,7 0,3.86599 3.13401,7 7,7 3.86599,0 7,-3.13401 7,-7 0,-3.86599 -3.13401,-7 -7,-7 z m -3,4 c 0.55404,0 1,0.44936 1,1 0,0.55064 -0.44596,1 -1,1 -0.55422,0 -1,-0.44936 -1,-1 0,-0.55055 0.44578,-1 1,-1 z m 4.5,1 3,0 c 0.277,0 0.5,0.223 0.5,0.5 0,0.277 -0.223,0.5 -0.5,0.5 l -3,0 c -0.277,0 -0.5,-0.223 -0.5,-0.5 0,-0.277 0.223,-0.5 0.5,-0.5 z m -4.625,4 c 0.7011,0.2848 1.77725,0.46875 2.96875,0.46875 1.1915,0 2.2364,-0.18395 2.9375,-0.46875 0.1414,0.144 0.25,0.30475 0.25,0.46875 0,0.7028 -1.4296,1.90625 -3.1875,1.90625 -1.7578,0 -3.1875,-1.20345 -3.1875,-1.90625 0,-0.164 0.0771,-0.32475 0.21875,-0.46875 z" id="path7944" sodipodi:nodetypes="ssssssssssssssssscscsssc" fill="#bebebe" color="#bebebe" stroke-width="2"/>
 </g>
</svg>
