<?xml version='1.0' encoding='UTF-8' standalone='no'?>
<svg height="16" xmlns:inkscape="http://www.inkscape.org/namespaces/inkscape" xmlns:sodipodi="http://sodipodi.sourceforge.net/DTD/sodipodi-0.dtd" version="1.1" width="16" xmlns="http://www.w3.org/2000/svg" enable-background="new">
 <metadata id="metadata90"/>
 <defs id="defs7386">
  <linearGradient id="linearGradient5606" osb:paint="solid">
   <stop id="stop5608"/>
  </linearGradient>
  <filter inkscape:collect="always" color-interpolation-filters="sRGB" id="filter7554">
   <feBlend inkscape:collect="always" id="feBlend7556" in2="BackgroundImage" mode="darken"/>
  </filter>
 </defs>
 <g inkscape:groupmode="layer" id="g71291" inkscape:label="emotes" transform="translate(-800.99997,42.999998)">
  <g id="g4913" transform="translate(-206.00023,-301)">
   <path inkscape:connector-curvature="0" d="m 568,387 c -3.86599,0 -7,3.13401 -7,7 0,3.86599 3.13401,7 7,7 3.86599,0 7,-3.13401 7,-7 0,-3.86599 -3.13401,-7 -7,-7 z m -3,4 c 0.5541,0 1,0.44954 1,1 0,0.55064 -0.4459,1 -1,1 -0.5541,0 -1,-0.44936 -1,-1 0,-0.55046 0.4459,-1 1,-1 z m 6,0 c 0.5541,0 1,0.44954 1,1 0,0.55064 -0.4459,1 -1,1 -0.5542,0 -1,-0.44936 -1,-1 0,-0.55046 0.4458,-1 1,-1 z m -5.5,5 5,0 c 0.27698,0 0.5,0.17255 0.5,0.40625 l 0,0.15625 c 0,0.2337 -0.22302,0.4375 -0.5,0.4375 l -0.5,0 0,1.25 c 0,0.9272 -0.669,1.6875 -1.5,1.6875 -0.8313,0 -1.5,-0.7603 -1.5,-1.6875 l 0,-1.25 -1.5,0 c -0.27698,0 -0.5,-0.2038 -0.5,-0.4375 l 0,-0.15625 C 565,396.17255 565.22302,396 565.5,396 z" id="path7986" transform="translate(447.00021,-128)" fill="#bebebe" color="#bebebe" stroke-width="2"/>
  </g>
 </g>
</svg>
