<?xml version='1.0' encoding='UTF-8' standalone='no'?>
<svg height="16" xmlns:inkscape="http://www.inkscape.org/namespaces/inkscape" xmlns:sodipodi="http://sodipodi.sourceforge.net/DTD/sodipodi-0.dtd" version="1.1" width="16" xmlns="http://www.w3.org/2000/svg" enable-background="new">
 <metadata id="metadata90"/>
 <defs id="defs7386">
  <linearGradient id="linearGradient5606" osb:paint="solid">
   <stop id="stop5608"/>
  </linearGradient>
  <filter inkscape:collect="always" color-interpolation-filters="sRGB" id="filter7554">
   <feBlend inkscape:collect="always" id="feBlend7556" in2="BackgroundImage" mode="darken"/>
  </filter>
 </defs>
 <g inkscape:groupmode="layer" id="g71291" inkscape:label="emotes" transform="translate(-820.99998,42.999998)">
  <path inkscape:connector-curvature="0" d="m 828.99997,-42 c -3.86599,0 -7,3.13401 -7,7 0,3.86599 3.13401,7 7,7 3.86599,0 7,-3.13401 7,-7 0,-3.86599 -3.13401,-7 -7,-7 z m -1.34375,5.375 c 0.01,-0.023 0.4325,0.0832 0.5,0.625 0.068,0.542 -0.40625,1 -0.40625,1 0,0 -0.52292,-8.1e-4 -0.75,0 0,0.55062 -0.44596,1 -1,1 -0.55422,0 -1,-0.44938 -1,-1 -0.53519,-2.1e-4 -1.24656,0.005 -1.25,0 -0.1919,-0.2918 -0.24375,-0.7658 0.0937,-1.0625 0.019,0 3.8081,-0.5404 3.8125,-0.5625 z m 2.625,0 c 0.0421,-0.0152 0.06,-0.006 0.0625,0 0.004,0.0221 3.7935,0.5625 3.8125,0.5625 0.3366,0.2967 0.28575,0.7707 0.0937,1.0625 -0.003,0.005 -0.71484,-2.1e-4 -1.25,0 0,0.55062 -0.44569,1 -1,1 -0.55413,0 -1,-0.44938 -1,-1 -0.22707,-8.1e-4 -0.75,0 -0.75,0 0,0 -0.47425,-0.458 -0.40625,-1 0.0508,-0.40635 0.31134,-0.57944 0.4375,-0.625 z m -2.78125,5.625 3,0 c 0.277,0 0.5,0.2101 0.5,0.46875 l 0,0.0625 c 0,0.25865 -0.223,0.46875 -0.5,0.46875 l -3,0 c -0.277,0 -0.5,-0.2101 -0.5,-0.46875 l 0,-0.0625 c 0,-0.25865 0.223,-0.46875 0.5,-0.46875 z" id="path7506" fill="#bebebe" color="#bebebe" stroke-width="2"/>
 </g>
</svg>
