<?xml version='1.0' encoding='UTF-8' standalone='no'?>
<svg height="16" xmlns:inkscape="http://www.inkscape.org/namespaces/inkscape" xmlns:sodipodi="http://sodipodi.sourceforge.net/DTD/sodipodi-0.dtd" version="1.1" width="16" xmlns="http://www.w3.org/2000/svg">
 <metadata id="metadata90"/>
 <g inkscape:groupmode="layer" id="g71291" inkscape:label="emotes" transform="translate(-481.0002,-538.96875)">
  <path inkscape:connector-curvature="0" d="m 489.00019,539.96875 c -3.86599,0 -7,3.13401 -7,7 0,3.86599 3.13401,7 7,7 3.86599,0 7,-3.13401 7,-7 0,-3.86599 -3.13401,-7 -7,-7 z m -2.46875,3.71875 c 0.73437,0 1.46875,0.44603 1.46875,1.3125 -1.5,-0.33848 -3.125,1.73294 -3,0 0.0625,-0.86647 0.79688,-1.3125 1.53125,-1.3125 z m 4.9375,0 c 0.73437,0 1.46875,0.44603 1.53125,1.3125 0.125,1.73294 -1.5,-0.33848 -3,0 0,-0.86647 0.73438,-1.3125 1.46875,-1.3125 z M 484.00019,548 c 2,1.30345 7.98706,1.30345 10.03125,0 l -0.0312,0.53125 c -0.0364,0.42971 -0.99999,3.375 -5,3.40625 -3.99999,0.0312 -5,-2.78 -5,-3.3125 l 0,-0.625 z" id="path5785" fill="#babdb6"/>
 </g>
</svg>
