<?xml version='1.0' encoding='UTF-8' standalone='no'?>
<svg height="16" xmlns:inkscape="http://www.inkscape.org/namespaces/inkscape" xmlns:sodipodi="http://sodipodi.sourceforge.net/DTD/sodipodi-0.dtd" version="1.1" width="16" xmlns="http://www.w3.org/2000/svg" enable-background="new">
 <metadata id="metadata90"/>
 <defs id="defs7386">
  <linearGradient id="linearGradient5606" osb:paint="solid">
   <stop id="stop5608"/>
  </linearGradient>
  <filter inkscape:collect="always" color-interpolation-filters="sRGB" id="filter7554">
   <feBlend inkscape:collect="always" id="feBlend7556" in2="BackgroundImage" mode="darken"/>
  </filter>
 </defs>
 <g inkscape:groupmode="layer" id="g71291" inkscape:label="emotes" transform="translate(-801.0004,63.000008)">
  <path inkscape:connector-curvature="0" d="m 808.99997,-62 c -3.86599,0 -7,3.13401 -7,7 0,3.86599 3.13401,7 7,7 3.86599,0 7,-3.13401 7,-7 0,-3.86599 -3.13401,-7 -7,-7 z m -3,4 c 0.55407,0 1,0.44945 1,1 0,0.55064 -0.44593,1 -1,1 -0.55424,0 -1,-0.44936 -1,-1 0,-0.55055 0.44576,-1 1,-1 z m 6,0 c 0.55415,0 1,0.44945 1,1 0,0.55064 -0.44585,1 -1,1 -0.55407,0 -1,-0.44936 -1,-1 0,-0.55055 0.44593,-1 1,-1 z m -5.78125,4 c 0.112,-0.008 0.2335,-0.0104 0.34375,0 0.60763,0.0573 1.05383,0.36028 1.4375,0.59375 0.19046,0.1159 0.36399,0.24213 0.53125,0.3125 0.16603,0.0698 0.32929,0.0937 0.46875,0.0937 0.13945,0 0.30271,-0.0239 0.46875,-0.0937 0.16726,-0.0704 0.34079,-0.1966 0.53125,-0.3125 0.38368,-0.23347 0.82988,-0.53647 1.4375,-0.59375 0.441,-0.0416 0.91269,0.0668 1.28125,0.3125 0.36855,0.2457 0.61876,0.60819 0.75,1.03125 a 0.50005,0.50005 0 1 1 -0.9375,0.3125 c -0.0614,-0.19791 -0.20259,-0.38506 -0.375,-0.5 -0.17242,-0.11495 -0.38745,-0.1757 -0.59375,-0.15625 -0.29626,0.0279 -0.63935,0.23027 -1.03125,0.46875 -0.19732,0.12008 -0.43634,0.23808 -0.6875,0.34375 -0.2524,0.10618 -0.52926,0.1875 -0.84375,0.1875 -0.31448,0 -0.59134,-0.0813 -0.84375,-0.1875 -0.25116,-0.10567 -0.49018,-0.22367 -0.6875,-0.34375 -0.39191,-0.23848 -0.735,-0.44083 -1.03125,-0.46875 -0.2063,-0.0195 -0.42133,0.0413 -0.59375,0.15625 -0.17242,0.11495 -0.3136,0.30213 -0.375,0.5 a 0.50005,0.50005 0 1 1 -0.9375,-0.3125 c 0.13123,-0.4231 0.38146,-0.78555 0.75,-1.03125 0.27642,-0.18428 0.60151,-0.28804 0.9375,-0.3125 z" id="path8045" fill="#bebebe" color="#bebebe"/>
 </g>
</svg>
