<?xml version='1.0' encoding='UTF-8' standalone='no'?>
<svg height="16" xmlns:inkscape="http://www.inkscape.org/namespaces/inkscape" xmlns:sodipodi="http://sodipodi.sourceforge.net/DTD/sodipodi-0.dtd" version="1.1" width="16" xmlns="http://www.w3.org/2000/svg" enable-background="new">
 <metadata id="metadata90"/>
 <defs id="defs7386">
  <linearGradient id="linearGradient5606" osb:paint="solid">
   <stop id="stop5608"/>
  </linearGradient>
  <filter inkscape:collect="always" color-interpolation-filters="sRGB" id="filter7554">
   <feBlend inkscape:collect="always" id="feBlend7556" in2="BackgroundImage" mode="darken"/>
  </filter>
 </defs>
 <g inkscape:groupmode="layer" id="g71291" inkscape:label="emotes" transform="translate(-721.00021,42.99999)">
  <g id="g4920" transform="translate(-285.99998,-220.99999)">
   <path inkscape:connector-curvature="0" d="m 488,387 c -3.86599,0 -7,3.13401 -7,7 0,3.86599 3.13401,7 7,7 3.86599,0 7,-3.13401 7,-7 0,-3.86599 -3.13401,-7 -7,-7 z m -3,4 c 0.5542,0 1,0.44949 1,1 0,0.55069 -0.4458,1 -1,1 -0.554,0 -1,-0.44931 -1,-1 0,-0.55051 0.446,-1 1,-1 z m 6,0 c 0.5541,0 1,0.44949 1,1 0,0.55069 -0.4459,1 -1,1 -0.5542,0 -1,-0.44931 -1,-1 0,-0.55051 0.4458,-1 1,-1 z m 0.6875,4.53125 c 0.21054,-0.01 0.6444,0.0372 0.84375,0.40625 0.2659,0.4922 -0.34375,1.125 -0.34375,1.125 0,0 -4.94695,1.35505 -4.96875,1.34375 -0.3863,-0.1995 -0.6263,-0.6356 -0.1875,-1.0625 0.03,-0.01 4.53085,-1.75825 4.53125,-1.78125 0,-0.006 0.0548,-0.0279 0.125,-0.0312 z" id="path7981" transform="translate(526.99996,-208.00001)" fill="#bebebe" color="#bebebe" stroke-width="2"/>
  </g>
 </g>
</svg>
