<?xml version='1.0' encoding='UTF-8' standalone='no'?>
<svg height="16" xmlns:inkscape="http://www.inkscape.org/namespaces/inkscape" xmlns:sodipodi="http://sodipodi.sourceforge.net/DTD/sodipodi-0.dtd" version="1.1" width="16" xmlns="http://www.w3.org/2000/svg" enable-background="new">
 <metadata id="metadata90"/>
 <defs id="defs7386">
  <linearGradient id="linearGradient5606" osb:paint="solid">
   <stop id="stop5608"/>
  </linearGradient>
  <filter inkscape:collect="always" color-interpolation-filters="sRGB" id="filter7554">
   <feBlend inkscape:collect="always" id="feBlend7556" in2="BackgroundImage" mode="darken"/>
  </filter>
 </defs>
 <g inkscape:groupmode="layer" id="g71291" inkscape:label="emotes" transform="translate(-740.99997,43.000006)">
  <path inkscape:connector-curvature="0" d="m 748.99998,-42 c -3.86599,0 -7,3.13401 -7,7 0,3.86599 3.13401,7 7,7 3.86599,0 7,-3.13401 7,-7 0,-3.86599 -3.13401,-7 -7,-7 z m -3,4 c 0.55427,0 1,0.44949 1,1 0,0.55069 -0.44573,1 -1,1 -0.55409,0 -1,-0.44931 -1,-1 0,-0.55051 0.44591,-1 1,-1 z m 6,0 c 0.55411,0 1,0.44949 1,1 0,0.55069 -0.44589,1 -1,1 -0.55412,0 -1,-0.44931 -1,-1 0,-0.55051 0.44588,-1 1,-1 z m -7,4 4,1 4,-1 c 0.0206,0.14762 0.0192,0.27798 0,0.40625 -0.0576,0.38481 -0.27337,0.6646 -0.65625,0.75 l -1.34375,0.34375 1.3125,0.3125 c 0.53601,0.14363 0.6606,0.49922 0.6875,0.84375 0.009,0.11484 0,0.23785 0,0.34375 l -4,-1 -4,1 c -0.0655,-0.63125 0.0484,-0.97818 0.53125,-1.125 l 1.46875,-0.375 -1.5,-0.34375 c -0.4745,-0.12796 -0.5831,-0.67248 -0.5,-1.15625 z" id="rect5869" fill="#bebebe" color="#bebebe" stroke-width="2"/>
 </g>
</svg>
