<?xml version='1.0' encoding='UTF-8' standalone='no'?>
<svg height="16" xmlns:inkscape="http://www.inkscape.org/namespaces/inkscape" xmlns:sodipodi="http://sodipodi.sourceforge.net/DTD/sodipodi-0.dtd" version="1.1" width="16" xmlns="http://www.w3.org/2000/svg" enable-background="new">
 <metadata id="metadata90"/>
 <defs id="defs7386">
  <linearGradient id="linearGradient5606" osb:paint="solid">
   <stop id="stop5608"/>
  </linearGradient>
  <filter inkscape:collect="always" color-interpolation-filters="sRGB" id="filter7554">
   <feBlend inkscape:collect="always" id="feBlend7556" in2="BackgroundImage" mode="darken"/>
  </filter>
 </defs>
 <g inkscape:groupmode="layer" id="g71291" inkscape:label="emotes" transform="translate(-680.99997,42.999998)">
  <g id="g4935" transform="translate(-2.3114062e-4,7.000002)">
   <path inkscape:connector-curvature="0" d="m 448,387 c -2.37562,0 -4.48452,1.19054 -5.75,3 l 11.5,0 c -1.26548,-1.80946 -3.37438,-3 -5.75,-3 z m 5.96875,3.34375 L 454,391.875 c 0,1.5064 -0.67495,2.625 -2.03125,2.625 l -0.84375,0 c -1.3563,0 -2.71875,-1.2435 -2.71875,-2.75 l 0,-0.4375 -0.8125,0 0,0.4375 c -0.0181,1.5064 -1.36235,2.75 -2.71875,2.75 l -0.84375,0 c -1.3561,0 -2.02025,-1.1186 -2.03125,-2.625 l -0.0312,-1.4375 C 441.35095,391.48086 441,392.69957 441,394 c 0,3.86599 3.13401,7 7,7 3.86599,0 7,-3.13401 7,-7 0,-1.34169 -0.37671,-2.59129 -1.03125,-3.65625 z m -9.09375,6.0625 c 0.7011,0.2849 1.77725,0.46875 2.96875,0.46875 1.1915,0 2.2364,-0.18385 2.9375,-0.46875 0.1414,0.144 0.25,0.30495 0.25,0.46875 0,0.7028 -1.4296,1.90625 -3.1875,1.90625 -1.7578,0 -3.1875,-1.20345 -3.1875,-1.90625 0,-0.1638 0.0772,-0.32475 0.21875,-0.46875 z" id="path7939" transform="translate(241.0002,-436)" fill="#bebebe" color="#bebebe" stroke-width="2"/>
  </g>
 </g>
</svg>
