<?xml version='1.0' encoding='UTF-8' standalone='no'?>
<svg height="16" xmlns:inkscape="http://www.inkscape.org/namespaces/inkscape" xmlns:sodipodi="http://sodipodi.sourceforge.net/DTD/sodipodi-0.dtd" version="1.1" width="16" xmlns="http://www.w3.org/2000/svg">
 <metadata id="metadata90"/>
 <g inkscape:groupmode="layer" id="g71291" inkscape:label="emotes" transform="translate(-541.0002,-639)">
  <path inkscape:connector-curvature="0" d="m 549.00022,640 c -3.86599,0 -7,3.13401 -7,7 0,3.86599 3.13401,7 7,7 3.86599,0 7,-3.13401 7,-7 0,-3.86599 -3.13401,-7 -7,-7 z m -2,4 c 0.55833,0 1.03125,0.47292 1.03125,1.03125 l 0,0.96875 c 0,0.55833 -0.47292,1 -1.03125,1 -0.55833,0 -1,-0.44167 -1,-1 l 0,-0.96875 c 0,-0.55833 0.44167,-1.03125 1,-1.03125 z m 4,0 c 0.55833,0 1,0.47292 1,1.03125 l 0,0.96875 c 0,0.55833 -0.44167,1 -1,1 -0.55833,0 -1,-0.44167 -1,-1 l 0,-0.96875 c 0,-0.55833 0.44167,-1.03125 1,-1.03125 z m -2,4.59375 c 1.05921,0 1.92914,0.9211 1.9375,2.03125 0,1.11641 -0.87235,2.03125 -1.9375,2.03125 -1.06515,0 -1.9375,-0.91484 -1.9375,-2.03125 0,-1.11641 0.87235,-2.03125 1.9375,-2.03125 z" id="path71360-4" fill="#babdb6"/>
 </g>
</svg>
