<?xml version="1.0" encoding="UTF-8" standalone="no"?>
<!-- Created with Inkscape (http://www.inkscape.org/) -->

<svg
   xmlns:dc="http://purl.org/dc/elements/1.1/"
   xmlns:cc="http://creativecommons.org/ns#"
   xmlns:rdf="http://www.w3.org/1999/02/22-rdf-syntax-ns#"
   xmlns:svg="http://www.w3.org/2000/svg"
   xmlns="http://www.w3.org/2000/svg"
   xmlns:sodipodi="http://sodipodi.sourceforge.net/DTD/sodipodi-0.dtd"
   xmlns:inkscape="http://www.inkscape.org/namespaces/inkscape"
   inkscape:export-ydpi="90.000000"
   inkscape:export-xdpi="90.000000"
   width="736"
   height="544"
   id="svg11300"
   sodipodi:version="0.32"
   inkscape:version="0.91 r13725"
   sodipodi:docname="distributor-logo-antergos.svg"
   inkscape:output_extension="org.inkscape.output.svg.inkscape"
   version="1.0"
   style="display:inline;enable-background:new"
   inkscape:export-filename="/home/sam/paper-template.png">
  <title
     id="title3004">Paper Icon Theme Template</title>
  <sodipodi:namedview
     stroke="#ef2929"
     fill="#f57900"
     id="base"
     pagecolor="#6b6b6b"
     bordercolor="#000000"
     borderopacity="0.25490196"
     inkscape:pageopacity="0"
     inkscape:pageshadow="2"
     inkscape:zoom="1"
     inkscape:cx="254.91823"
     inkscape:cy="410.44546"
     inkscape:current-layer="layer6"
     showgrid="false"
     inkscape:grid-bbox="true"
     inkscape:document-units="px"
     inkscape:showpageshadow="false"
     inkscape:window-width="1920"
     inkscape:window-height="1023"
     inkscape:window-x="0"
     inkscape:window-y="27"
     width="400px"
     height="300px"
     inkscape:snap-nodes="true"
     inkscape:snap-bbox="true"
     gridtolerance="10000"
     inkscape:object-nodes="true"
     inkscape:snap-grids="true"
     showguides="true"
     inkscape:guide-bbox="true"
     inkscape:window-maximized="1"
     inkscape:bbox-paths="true"
     inkscape:snap-bbox-midpoints="true"
     inkscape:snap-global="true"
     inkscape:object-paths="true"
     inkscape:snap-intersection-paths="true"
     inkscape:snap-smooth-nodes="true">
    <inkscape:grid
       spacingy="1px"
       spacingx="1px"
       id="grid5883"
       type="xygrid"
       enabled="true"
       visible="true"
       empspacing="4"
       snapvisiblegridlinesonly="true" />
    <inkscape:grid
       type="xygrid"
       id="grid11592"
       empspacing="2"
       visible="true"
       enabled="false"
       spacingx="0.5px"
       spacingy="0.5px"
       color="#ff0000"
       opacity="0.1254902"
       empcolor="#ff0000"
       empopacity="0.25098039"
       snapvisiblegridlinesonly="true" />
  </sodipodi:namedview>
  <defs
     id="defs3">
    <filter
       inkscape:collect="always"
       style="color-interpolation-filters:sRGB"
       id="filter4392"
       x="-0.023657965"
       width="1.0473159"
       y="-0.02435207"
       height="1.0487041">
      <feGaussianBlur
         inkscape:collect="always"
         stdDeviation="4.5457195"
         id="feGaussianBlur4394" />
    </filter>
  </defs>
  <metadata
     id="metadata4">
    <rdf:RDF>
      <cc:Work
         rdf:about="">
        <dc:format>image/svg+xml</dc:format>
        <dc:type
           rdf:resource="http://purl.org/dc/dcmitype/StillImage" />
        <dc:creator>
          <cc:Agent>
            <dc:title>Sam Hewitt</dc:title>
          </cc:Agent>
        </dc:creator>
        <dc:source />
        <cc:license
           rdf:resource="http://creativecommons.org/licenses/by-sa/3.0/" />
        <dc:title>Paper Icon Theme Template</dc:title>
        <dc:subject>
          <rdf:Bag />
        </dc:subject>
        <dc:date />
        <dc:rights>
          <cc:Agent>
            <dc:title />
          </cc:Agent>
        </dc:rights>
        <dc:publisher>
          <cc:Agent>
            <dc:title />
          </cc:Agent>
        </dc:publisher>
        <dc:identifier />
        <dc:relation />
        <dc:language />
        <dc:coverage />
        <dc:description />
        <dc:contributor>
          <cc:Agent>
            <dc:title />
          </cc:Agent>
        </dc:contributor>
      </cc:Work>
      <cc:Work
         rdf:about="">
        <dc:format>image/svg+xml</dc:format>
        <dc:type
           rdf:resource="http://purl.org/dc/dcmitype/StillImage" />
      </cc:Work>
      <cc:License
         rdf:about="http://creativecommons.org/licenses/by-sa/3.0/">
        <cc:permits
           rdf:resource="http://creativecommons.org/ns#Reproduction" />
        <cc:permits
           rdf:resource="http://creativecommons.org/ns#Distribution" />
        <cc:requires
           rdf:resource="http://creativecommons.org/ns#Notice" />
        <cc:requires
           rdf:resource="http://creativecommons.org/ns#Attribution" />
        <cc:permits
           rdf:resource="http://creativecommons.org/ns#DerivativeWorks" />
        <cc:requires
           rdf:resource="http://creativecommons.org/ns#ShareAlike" />
      </cc:License>
    </rdf:RDF>
  </metadata>
  <g
     style="display:inline"
     inkscape:groupmode="layer"
     inkscape:label="Icon"
     id="layer1"
     transform="translate(0,244)">
    <g
       style="display:none"
       inkscape:label="Baseplate"
       id="layer7"
       inkscape:groupmode="layer">
      <text
         y="337.74512"
         xml:space="preserve"
         x="15.006836"
         style="font-style:normal;font-variant:normal;font-weight:normal;font-stretch:normal;font-size:18px;font-family:'DejaVu Sans';-inkscape-font-specification:'DejaVu Sans';display:inline;fill:#000000;fill-opacity:1;stroke:none;enable-background:new"
         inkscape:label="context"
         id="context"><tspan
           style="font-style:normal;font-variant:normal;font-weight:normal;font-stretch:normal;font-family:'DejaVu Sans';-inkscape-font-specification:'DejaVu Sans'"
           y="337.74512"
           x="15.006836"
           sodipodi:role="line"
           id="tspan3933">places</tspan></text>
      <text
         y="337.74512"
         xml:space="preserve"
         x="142.48828"
         style="font-style:normal;font-variant:normal;font-weight:bold;font-stretch:normal;font-size:18px;line-height:125%;font-family:'DejaVu Sans';-inkscape-font-specification:'DejaVu Sans Bold';text-align:start;writing-mode:lr-tb;text-anchor:start;display:inline;fill:#000000;fill-opacity:1;stroke:none;enable-background:new"
         sodipodi:linespacing="125%"
         inkscape:label="icon-name"
         id="icon-name"><tspan
           style="font-style:normal;font-variant:normal;font-weight:bold;font-stretch:normal;font-size:18px;font-family:'DejaVu Sans';-inkscape-font-specification:'DejaVu Sans Bold'"
           y="337.74512"
           x="142.48828"
           sodipodi:role="line"
           id="tspan3937">distributor-logo-antergos</tspan></text>
      <rect
         style="display:inline;overflow:visible;visibility:visible;fill:#d3d7cf;fill-opacity:1;fill-rule:nonzero;stroke:none;stroke-width:2;marker:none;enable-background:accumulate"
         id="rect16x16"
         width="16"
         height="16"
         x="-32"
         y="268"
         inkscape:label="16x16"
         transform="scale(-1,1)" />
      <rect
         style="display:inline;overflow:visible;visibility:visible;fill:#d3d7cf;fill-opacity:1;fill-rule:nonzero;stroke:none;stroke-width:2;marker:none;enable-background:accumulate"
         id="rect24x24"
         width="24"
         height="24"
         x="-76"
         y="260"
         inkscape:label="24x24"
         transform="scale(-1,1)" />
      <rect
         style="display:inline;overflow:visible;visibility:visible;fill:#d3d7cf;fill-opacity:1;fill-rule:nonzero;stroke:none;stroke-width:2;marker:none;enable-background:accumulate"
         id="rect32x32"
         width="32"
         height="32"
         x="-128"
         y="252"
         inkscape:label="32x32"
         transform="scale(-1,1)" />
      <rect
         inkscape:label="48x48"
         y="236"
         x="-192"
         height="48"
         width="48"
         id="rect48x48"
         style="display:inline;overflow:visible;visibility:visible;fill:#d3d7cf;fill-opacity:1;fill-rule:nonzero;stroke:none;stroke-width:2;marker:none;enable-background:accumulate"
         transform="scale(-1,1)" />
      <rect
         style="display:inline;overflow:visible;visibility:visible;fill:#d3d7cf;fill-opacity:1;fill-rule:nonzero;stroke:none;stroke-width:2;marker:none;enable-background:accumulate"
         id="rect3951"
         width="512"
         height="512"
         x="-720"
         y="-228"
         inkscape:label="48x48"
         transform="scale(-1,1)" />
    </g>
    <g
       inkscape:groupmode="layer"
       id="layer6"
       inkscape:label="Symbols"
       style="display:inline">
      <path
         style="opacity:0.1;fill:#000000;fill-opacity:1;fill-rule:evenodd;stroke:none;stroke-width:1px;stroke-linecap:butt;stroke-linejoin:miter;stroke-opacity:1;filter:url(#filter4392)"
         d="m 463.99997,-192.00006 c -114.87179,0 -218.2564,218.256397 -229.74358,310.15383 -14.31911,114.55325 160.82051,137.84615 229.74358,137.84615 68.92308,0 244.0627,-23.2929 229.74358,-137.84615 C 682.25637,26.256337 578.87176,-192.00006 463.99997,-192.00006 Z"
         id="path4396"
         inkscape:connector-curvature="0" />
      <path
         inkscape:connector-curvature="0"
         id="path4390"
         d="m 463.99997,-192.00006 c -114.87179,0 -218.2564,218.256397 -229.74358,310.15383 -14.31911,114.55325 160.82051,137.84615 229.74358,137.84615 68.92308,0 244.0627,-23.2929 229.74358,-137.84615 C 682.25637,26.256337 578.87176,-192.00006 463.99997,-192.00006 Z"
         style="opacity:0.2;fill:#000000;fill-opacity:1;fill-rule:evenodd;stroke:none;stroke-width:1px;stroke-linecap:butt;stroke-linejoin:miter;stroke-opacity:1;filter:url(#filter4392)" />
      <path
         style="opacity:0.2;fill:#000000;fill-opacity:1;fill-rule:evenodd;stroke:none;stroke-width:1px;stroke-linecap:butt;stroke-linejoin:miter;stroke-opacity:1"
         d="m 463.99997,-194.00006 c -114.87179,0 -218.2564,218.256397 -229.74358,310.15383 -14.31911,114.55325 160.82051,137.84615 229.74358,137.84615 68.92308,0 244.0627,-23.2929 229.74358,-137.84615 C 682.25637,24.256337 578.87176,-194.00006 463.99997,-194.00006 Z"
         id="path4388"
         inkscape:connector-curvature="0" />
      <path
         style="opacity:0.2;fill:#000000;fill-opacity:1;fill-rule:evenodd;stroke:none;stroke-width:1px;stroke-linecap:butt;stroke-linejoin:miter;stroke-opacity:1"
         d="m 168,241 c -10.25641,0 -19.48718,19.48718 -20.51282,27.69231 C 146.20869,278.92028 161.84615,281 168,281 c 6.15385,0 21.79131,-2.07972 20.51282,-12.30769 C 187.48718,260.48718 178.25641,241 168,241 Z"
         id="path4379"
         inkscape:connector-curvature="0" />
      <path
         inkscape:connector-curvature="0"
         id="path4381"
         d="m 112,255 c -7.17949,0 -13.641026,13.64103 -14.358974,19.38462 C 96.746081,281.5442 107.69231,283 112,283 c 4.30769,0 15.25392,-1.4558 14.35897,-8.61538 C 125.64103,268.64103 119.17949,255 112,255 Z"
         style="opacity:0.2;fill:#000000;fill-opacity:1;fill-rule:evenodd;stroke:none;stroke-width:1px;stroke-linecap:butt;stroke-linejoin:miter;stroke-opacity:1" />
      <path
         style="opacity:0.2;fill:#000000;fill-opacity:1;fill-rule:evenodd;stroke:none;stroke-width:1px;stroke-linecap:butt;stroke-linejoin:miter;stroke-opacity:1"
         d="m 64,263 c -5.128205,0 -9.74359,9.74359 -10.256411,13.84616 C 53.104343,281.96014 60.923077,283 64,283 c 3.076923,0 10.895656,-1.03986 10.25641,-6.15384 C 73.743589,272.74359 69.128205,263 64,263 Z"
         id="path4383"
         inkscape:connector-curvature="0" />
      <path
         inkscape:connector-curvature="0"
         id="path4282"
         d="m 168,240 c -10.25641,0 -19.48718,19.48718 -20.51282,27.69231 C 146.20869,277.92028 161.84615,280 168,280 c 6.15385,0 21.79131,-2.07972 20.51282,-12.30769 C 187.48718,259.48718 178.25641,240 168,240 Z"
         style="opacity:1;fill:#7986cb;fill-opacity:1;fill-rule:evenodd;stroke:none;stroke-width:1px;stroke-linecap:butt;stroke-linejoin:miter;stroke-opacity:1" />
      <path
         sodipodi:nodetypes="sssssscssssscssssssssss"
         inkscape:connector-curvature="0"
         id="path4284"
         d="m 170.89845,272.34037 c 2.66263,-6.65456 3.18243,-15.25952 1.28107,-21.20718 -0.49963,-1.56289 -0.72667,-1.20132 -1.61565,2.5731 -1.34149,5.6956 -4.44294,12.54362 -7.33348,16.19237 -0.79883,1.00839 -1.3919,2.01537 -1.31791,2.23776 0.25391,0.76331 3.42059,1.66908 5.90651,1.68943 l 2.47699,0.0203 z M 180.1568,261.708 c 0,-3.33783 -1.28394,-6.47353 -3.52468,-8.60818 -1.00252,-0.95507 -1.41825,-1.19196 -1.22645,-0.69889 1.29891,3.33922 2.49865,8.03703 2.88653,11.30278 l 0.46385,3.9053 0.70038,-1.6061 c 0.47191,-1.08219 0.70037,-2.48323 0.70037,-4.29491 z m -21.48847,1.45461 c 2.77758,-2.06891 5.63193,-4.92253 7.407,-7.40504 2.57675,-3.60372 3.84277,-6.5268 2.82684,-6.5268 -0.19575,0 -1.45866,0.82433 -2.80647,1.83183 -1.3478,1.0075 -3.95196,2.60728 -5.78702,3.55505 -3.294,1.70128 -3.34372,1.74764 -3.9068,3.64379 -0.81271,2.73665 -0.72161,6.26069 0.16184,6.26069 0.15369,0 1.10076,-0.61178 2.10461,-1.35952 z"
         style="display:inline;fill:#ffffff;fill-opacity:1;enable-background:new" />
      <path
         style="opacity:1;fill:#7986cb;fill-opacity:1;fill-rule:evenodd;stroke:none;stroke-width:1px;stroke-linecap:butt;stroke-linejoin:miter;stroke-opacity:1"
         d="m 112,254 c -7.17949,0 -13.641026,13.64103 -14.358974,19.38462 C 96.746081,280.5442 107.69231,282 112,282 c 4.30769,0 15.25392,-1.4558 14.35897,-8.61538 C 125.64103,267.64103 119.17949,254 112,254 Z"
         id="path4288"
         inkscape:connector-curvature="0" />
      <path
         style="display:inline;fill:#ffffff;fill-opacity:1;enable-background:new"
         d="m 114.02892,276.63826 c 1.86383,-4.65819 2.2277,-10.68166 0.89674,-14.84502 -0.34974,-1.09403 -0.50866,-0.84093 -1.13095,1.80116 -0.93904,3.98692 -3.11006,8.78054 -5.13344,11.33466 -0.55918,0.70588 -0.97433,1.41076 -0.92253,1.56644 0.17773,0.53432 2.39441,1.16835 4.13456,1.1826 l 1.73389,0.0142 z m 6.48084,-7.44266 c 0,-2.33648 -0.89876,-4.53147 -2.46727,-6.02573 -0.70177,-0.66854 -0.99278,-0.83437 -0.85852,-0.48921 0.90924,2.33745 1.74905,5.62591 2.02057,7.91194 l 0.3247,2.73371 0.49026,-1.12427 c 0.33034,-0.75753 0.49026,-1.73826 0.49026,-3.00644 z m -15.04193,1.01823 c 1.94431,-1.44824 3.94235,-3.44577 5.1849,-5.18353 1.80373,-2.5226 2.68994,-4.56876 1.97879,-4.56876 -0.13703,0 -1.02106,0.57703 -1.96453,1.28229 -0.94346,0.70524 -2.76637,1.82509 -4.05092,2.48853 -2.3058,1.1909 -2.3406,1.22335 -2.73476,2.55065 -0.56889,1.91566 -0.50512,4.38249 0.1133,4.38249 0.10757,0 0.77053,-0.42825 1.47322,-0.95167 z"
         id="path4290"
         inkscape:connector-curvature="0"
         sodipodi:nodetypes="sssssscssssscssssssssss" />
      <path
         inkscape:connector-curvature="0"
         id="path4294"
         d="m 64,262 c -5.128205,0 -9.74359,9.74359 -10.256411,13.84616 C 53.104343,280.96014 60.923077,282 64,282 c 3.076923,0 10.895656,-1.03986 10.25641,-6.15384 C 73.743589,271.74359 69.128205,262 64,262 Z"
         style="opacity:1;fill:#7986cb;fill-opacity:1;fill-rule:evenodd;stroke:none;stroke-width:1px;stroke-linecap:butt;stroke-linejoin:miter;stroke-opacity:1" />
      <path
         sodipodi:nodetypes="sssssscssssscssssssssss"
         inkscape:connector-curvature="0"
         id="path4296"
         d="m 65.449225,278.17019 c 1.331313,-3.32728 1.591216,-7.62976 0.640534,-10.60359 -0.249816,-0.78145 -0.363334,-0.60066 -0.807826,1.28655 -0.670744,2.8478 -2.221467,6.27181 -3.666738,8.09618 -0.399416,0.5042 -0.695949,1.00769 -0.658954,1.11888 0.126954,0.38166 1.710292,0.83454 2.953256,0.84472 l 1.238492,0.0102 z M 70.0784,272.854 c 0,-1.66891 -0.64197,-3.23676 -1.762339,-4.30409 -0.501261,-0.47753 -0.709128,-0.59598 -0.613225,-0.34944 0.649456,1.66961 1.249323,4.01851 1.443266,5.65139 l 0.231923,1.95265 0.35019,-0.80305 c 0.235954,-0.5411 0.350185,-1.24162 0.350185,-2.14746 z m -10.744236,0.72731 c 1.38879,-1.03446 2.815964,-2.46127 3.703502,-3.70252 1.288375,-1.80186 1.921385,-3.2634 1.413421,-3.2634 -0.09788,0 -0.729333,0.41216 -1.403236,0.91591 -0.673903,0.50375 -1.97598,1.30364 -2.893513,1.77753 -1.647,0.85064 -1.671856,0.87382 -1.9534,1.82189 -0.406354,1.36833 -0.360805,3.13035 0.08092,3.13035 0.07684,0 0.55038,-0.30589 1.052303,-0.67976 z"
         style="display:inline;fill:#ffffff;fill-opacity:1;enable-background:new" />
      <path
         style="opacity:1;fill:#7986cb;fill-opacity:1;fill-rule:evenodd;stroke:none;stroke-width:1px;stroke-linecap:butt;stroke-linejoin:miter;stroke-opacity:1"
         d="m 24,268 c -3.98563,0 -7.572696,7.5727 -7.971259,10.7612 -0.49682,3.97458 5.579881,4.78276 7.971259,4.78276 2.391377,0 8.468079,-0.80818 7.971258,-4.78276 C 31.572695,275.5727 27.985629,268 24,268 Z"
         id="path4300"
         inkscape:connector-curvature="0" />
      <path
         style="display:inline;fill:#ffffff;fill-opacity:1;enable-background:new"
         d="m 25.126334,280.56743 c 1.034694,-2.58595 1.236689,-5.92983 0.497821,-8.24108 -0.194156,-0.60734 -0.282381,-0.46684 -0.62784,0.9999 -0.5213,2.2133 -1.726519,4.87443 -2.84978,6.29233 -0.310425,0.39186 -0.54089,0.78318 -0.512138,0.8696 0.09867,0.29662 1.329235,0.6486 2.295264,0.65651 l 0.962554,0.008 z m 3.597784,-4.13173 c 0,-1.29707 -0.498937,-2.5156 -1.369685,-3.34513 -0.38958,-0.37113 -0.551133,-0.46319 -0.476598,-0.27158 0.504756,1.29762 0.970971,3.12318 1.121704,4.39225 l 0.18025,1.51759 0.272166,-0.62413 c 0.183383,-0.42054 0.272163,-0.96498 0.272163,-1.669 z m -8.350395,0.56527 c 1.079364,-0.80398 2.18856,-1.91289 2.878353,-2.8776 1.001322,-1.4004 1.493296,-2.5363 1.098507,-2.5363 -0.07607,0 -0.566836,0.32033 -1.090591,0.71185 -0.523756,0.39151 -1.535727,1.01318 -2.248832,1.38148 -1.280044,0.66112 -1.299363,0.67913 -1.518178,1.41597 -0.315817,1.06347 -0.280417,2.4329 0.06289,2.4329 0.05972,0 0.427753,-0.23774 0.817847,-0.5283 z"
         id="path4302"
         inkscape:connector-curvature="0"
         sodipodi:nodetypes="sssssscssssscssssssssss" />
      <path
         inkscape:connector-curvature="0"
         id="path4306"
         d="m 463.99997,-196.00006 c -114.87179,0 -218.2564,218.256397 -229.74358,310.15383 -14.31911,114.55325 160.82051,137.84615 229.74358,137.84615 68.92308,0 244.0627,-23.2929 229.74358,-137.84615 C 682.25637,22.256337 578.87176,-196.00006 463.99997,-196.00006 Z"
         style="opacity:1;fill:#7986cb;fill-opacity:1;fill-rule:evenodd;stroke:none;stroke-width:1px;stroke-linecap:butt;stroke-linejoin:miter;stroke-opacity:1" />
      <path
         sodipodi:nodetypes="sssssscssssscssssssssss"
         inkscape:connector-curvature="0"
         id="path4308"
         d="m 496.46262,166.21208 c 29.82141,-74.531 35.64323,-170.9065938 14.34795,-237.5204 -5.59586,-17.504393 -8.13867,-13.454818 -18.09529,28.81869 -15.02466,63.790717 -49.76085,140.488544 -82.13494,181.35453 -8.9469,11.29396 -15.58925,22.57219 -14.76057,25.06295 2.84377,8.54911 38.31055,18.69367 66.15294,18.92157 l 27.74223,0.22745 z M 600.15613,47.12955 c 0,-37.3836459 -14.38011,-72.503513 -39.47638,-96.411664 -11.22826,-10.696746 -15.88447,-13.34994 -13.73626,-7.827479 14.54783,37.399269 27.98484,90.014684 32.32917,126.591125 l 5.19508,43.739388 7.84425,-17.988349 c 5.28537,-12.120582 7.84414,-27.812183 7.84414,-48.103021 z M 359.48525,63.421241 c 31.10889,-23.171822 63.0776,-55.1323707 82.95846,-82.936513 28.85958,-40.361697 43.03901,-73.100157 31.66061,-73.100157 -2.19244,0 -16.33706,9.232476 -31.43248,20.516561 -15.09542,11.283971 -44.26194,29.201443 -64.81468,39.816515 -36.8928,19.054359 -37.44958,19.573579 -43.75616,40.8103864 -9.10233,30.6505506 -8.08204,70.1198086 1.81268,70.1198086 1.72123,0 12.3285,-6.851988 23.57157,-15.226601 z"
         style="display:inline;fill:#ffffff;fill-opacity:1;enable-background:new" />
      <path
         style="opacity:0.2;fill:#ffffff;fill-opacity:1;fill-rule:evenodd;stroke:none;stroke-width:1px;stroke-linecap:butt;stroke-linejoin:miter;stroke-opacity:1"
         d="M 168 484 C 157.74359 484 148.51197 503.48628 147.48633 511.69141 C 147.4131 512.27727 147.40274 512.83366 147.43555 513.36719 C 147.44747 513.14454 147.45747 512.92228 147.48633 512.69141 C 148.51197 504.48628 157.74359 485 168 485 C 178.25641 485 187.48803 504.48628 188.51367 512.69141 C 188.54253 512.92228 188.55253 513.14454 188.56445 513.36719 C 188.59726 512.83366 188.5869 512.27727 188.51367 511.69141 C 187.48803 503.48628 178.25641 484 168 484 z "
         transform="translate(0,-244)"
         id="path4367" />
      <path
         style="opacity:0.2;fill:#ffffff;fill-opacity:1;fill-rule:evenodd;stroke:none;stroke-width:1px;stroke-linecap:butt;stroke-linejoin:miter;stroke-opacity:1"
         d="M 112 498 C 104.82051 498 98.358573 511.64118 97.640625 517.38477 C 97.581821 517.8552 97.577036 518.30027 97.615234 518.72266 C 97.623587 518.61006 97.626182 518.50031 97.640625 518.38477 C 98.358573 512.64118 104.82051 499 112 499 C 119.17949 499 125.64144 512.64118 126.35938 518.38477 C 126.37382 518.50031 126.37641 518.61006 126.38477 518.72266 C 126.42296 518.30027 126.41818 517.8552 126.35938 517.38477 C 125.64144 511.64118 119.17949 498 112 498 z "
         transform="translate(0,-244)"
         id="path4369" />
      <path
         style="opacity:0.2;fill:#ffffff;fill-opacity:1;fill-rule:evenodd;stroke:none;stroke-width:1px;stroke-linecap:butt;stroke-linejoin:miter;stroke-opacity:1"
         d="M 64 506 C 58.871795 506 54.256962 515.74313 53.744141 519.8457 C 53.698011 520.21474 53.705189 520.55702 53.742188 520.88477 C 53.743779 520.87113 53.742429 520.8594 53.744141 520.8457 C 54.256962 516.74313 58.871795 507 64 507 C 69.128205 507 73.743038 516.74313 74.255859 520.8457 C 74.257571 520.8594 74.256221 520.87113 74.257812 520.88477 C 74.294811 520.55702 74.301989 520.21474 74.255859 519.8457 C 73.743038 515.74313 69.128205 506 64 506 z "
         transform="translate(0,-244)"
         id="path4371" />
      <path
         style="opacity:0.2;fill:#ffffff;fill-opacity:1;fill-rule:evenodd;stroke:none;stroke-width:1px;stroke-linecap:butt;stroke-linejoin:miter;stroke-opacity:1"
         d="M 464 48 C 349.12821 48 245.74304 266.25686 234.25586 358.1543 C 233.6521 362.98436 233.39367 367.64753 233.44141 372.1582 C 233.48002 368.27121 233.74087 364.27422 234.25586 360.1543 C 245.74304 268.25686 349.12821 50 464 50 C 578.87179 50 682.25696 268.25686 693.74414 360.1543 C 694.25913 364.27422 694.51998 368.27121 694.55859 372.1582 C 694.60633 367.64753 694.3479 362.98436 693.74414 358.1543 C 682.25696 266.25686 578.87179 48 464 48 z "
         transform="translate(0,-244)"
         id="path4398" />
    </g>
  </g>
</svg>
