<?xml version="1.0" encoding="UTF-8" standalone="no"?>
<!-- Created with Inkscape (http://www.inkscape.org/) -->

<svg
   xmlns:dc="http://purl.org/dc/elements/1.1/"
   xmlns:cc="http://creativecommons.org/ns#"
   xmlns:rdf="http://www.w3.org/1999/02/22-rdf-syntax-ns#"
   xmlns:svg="http://www.w3.org/2000/svg"
   xmlns="http://www.w3.org/2000/svg"
   xmlns:sodipodi="http://sodipodi.sourceforge.net/DTD/sodipodi-0.dtd"
   xmlns:inkscape="http://www.inkscape.org/namespaces/inkscape"
   inkscape:export-ydpi="90.000000"
   inkscape:export-xdpi="90.000000"
   width="736"
   height="544"
   id="svg11300"
   sodipodi:version="0.32"
   inkscape:version="0.91 r"
   sodipodi:docname="distributor-logo-mageia.svg"
   inkscape:output_extension="org.inkscape.output.svg.inkscape"
   version="1.0"
   style="display:inline;enable-background:new"
   inkscape:export-filename="/home/sam/paper-template.png">
  <title
     id="title3004">Paper Icon Theme Template</title>
  <sodipodi:namedview
     stroke="#ef2929"
     fill="#f57900"
     id="base"
     pagecolor="#6b6b6b"
     bordercolor="#000000"
     borderopacity="0.25490196"
     inkscape:pageopacity="0"
     inkscape:pageshadow="2"
     inkscape:zoom="1"
     inkscape:cx="555.34208"
     inkscape:cy="176.4459"
     inkscape:current-layer="layer6"
     showgrid="false"
     inkscape:grid-bbox="true"
     inkscape:document-units="px"
     inkscape:showpageshadow="false"
     inkscape:window-width="1920"
     inkscape:window-height="1023"
     inkscape:window-x="0"
     inkscape:window-y="27"
     width="400px"
     height="300px"
     inkscape:snap-nodes="true"
     inkscape:snap-bbox="true"
     gridtolerance="10000"
     inkscape:object-nodes="true"
     inkscape:snap-grids="true"
     showguides="true"
     inkscape:guide-bbox="true"
     inkscape:window-maximized="1"
     inkscape:bbox-paths="true"
     inkscape:snap-bbox-midpoints="true"
     inkscape:snap-global="true"
     inkscape:object-paths="true"
     inkscape:snap-intersection-paths="true"
     inkscape:snap-smooth-nodes="true">
    <inkscape:grid
       spacingy="1px"
       spacingx="1px"
       id="grid5883"
       type="xygrid"
       enabled="true"
       visible="true"
       empspacing="4"
       snapvisiblegridlinesonly="true" />
    <inkscape:grid
       type="xygrid"
       id="grid11592"
       empspacing="2"
       visible="true"
       enabled="false"
       spacingx="0.5px"
       spacingy="0.5px"
       color="#ff0000"
       opacity="0.1254902"
       empcolor="#ff0000"
       empopacity="0.25098039"
       snapvisiblegridlinesonly="true" />
  </sodipodi:namedview>
  <defs
     id="defs3">
    <linearGradient
       gradientTransform="matrix(1,0,0,-1,-0.80292847,1022.6884)"
       y2="253.84129"
       x2="-51.767601"
       y1="235.84129"
       x1="-51.767601"
       gradientUnits="userSpaceOnUse"
       id="SVGID_12_">
      <stop
         id="stop83"
         style="stop-color:#2397D4"
         offset="0" />
      <stop
         id="stop85"
         style="stop-color:#65E7FF"
         offset="1" />
    </linearGradient>
    <linearGradient
       gradientTransform="matrix(1,0,0,-1,-0.80292847,1022.6884)"
       y2="265.84329"
       x2="-75.768997"
       y1="249.84129"
       x1="-75.768997"
       gradientUnits="userSpaceOnUse"
       id="SVGID_11_">
      <stop
         id="stop76"
         style="stop-color:#2397D4"
         offset="0" />
      <stop
         id="stop78"
         style="stop-color:#65E7FF"
         offset="1" />
    </linearGradient>
    <linearGradient
       gradientTransform="matrix(1,0,0,-1,-0.80292847,1022.6884)"
       y2="220.8394"
       x2="-48.767601"
       y1="198.83839"
       x1="-48.767601"
       gradientUnits="userSpaceOnUse"
       id="SVGID_10_">
      <stop
         id="stop69"
         style="stop-color:#2397D4"
         offset="0" />
      <stop
         id="stop71"
         style="stop-color:#65E7FF"
         offset="1" />
    </linearGradient>
    <linearGradient
       gradientTransform="matrix(1,0,0,-1,-0.80292847,1022.6884)"
       y2="237.84129"
       x2="-70.767601"
       y1="217.8394"
       x1="-70.767601"
       gradientUnits="userSpaceOnUse"
       id="SVGID_9_">
      <stop
         id="stop62"
         style="stop-color:#2397D4"
         offset="0" />
      <stop
         id="stop64"
         style="stop-color:#65E7FF"
         offset="1" />
    </linearGradient>
    <linearGradient
       gradientTransform="matrix(1,0,0,-1,-0.80292847,1022.6884)"
       y2="214.8394"
       x2="-84.767601"
       y1="190.83839"
       x1="-84.767601"
       gradientUnits="userSpaceOnUse"
       id="SVGID_8_">
      <stop
         id="stop55"
         style="stop-color:#2397D4"
         offset="0" />
      <stop
         id="stop57"
         style="stop-color:#65E7FF"
         offset="1" />
    </linearGradient>
    <linearGradient
       gradientTransform="matrix(1,0,0,-1,214.5,339.5771)"
       y2="193.83791"
       x2="-68.769096"
       y1="67.834"
       x1="-68.768997"
       gradientUnits="userSpaceOnUse"
       id="SVGID_7_">
      <stop
         id="stop48"
         style="stop-color:#252D42"
         offset="0" />
      <stop
         id="stop50"
         style="stop-color:#485E82"
         offset="1" />
    </linearGradient>
    <linearGradient
       gradientTransform="matrix(1.2857964,0,0,-1.2857964,258.25103,1168.7191)"
       y2="191.8867"
       x2="421.94781"
       y1="169.6572"
       x1="421.94781"
       gradientUnits="userSpaceOnUse"
       id="SVGID_13_">
      <stop
         id="stop4379"
         style="stop-color:#2397D4"
         offset="0" />
      <stop
         id="stop4381"
         style="stop-color:#65E7FF"
         offset="1" />
    </linearGradient>
    <linearGradient
       gradientTransform="matrix(1.2857964,0,0,-1.2857964,258.25103,1168.7191)"
       y2="253.84129"
       x2="-51.767601"
       y1="235.84129"
       x1="-51.767601"
       gradientUnits="userSpaceOnUse"
       id="SVGID_12_-6">
      <stop
         id="stop4372"
         style="stop-color:#2397D4"
         offset="0" />
      <stop
         id="stop4374"
         style="stop-color:#65E7FF"
         offset="1" />
    </linearGradient>
    <linearGradient
       gradientTransform="matrix(1.2857964,0,0,-1.2857964,258.25103,1168.7191)"
       y2="265.84329"
       x2="-75.768997"
       y1="249.84129"
       x1="-75.768997"
       gradientUnits="userSpaceOnUse"
       id="SVGID_11_-6">
      <stop
         id="stop4365"
         style="stop-color:#2397D4"
         offset="0" />
      <stop
         id="stop4367"
         style="stop-color:#65E7FF"
         offset="1" />
    </linearGradient>
    <linearGradient
       gradientTransform="matrix(1.2857964,0,0,-1.2857964,258.25103,1168.7191)"
       y2="220.8394"
       x2="-48.767601"
       y1="198.83839"
       x1="-48.767601"
       gradientUnits="userSpaceOnUse"
       id="SVGID_10_-9">
      <stop
         id="stop4358"
         style="stop-color:#2397D4"
         offset="0" />
      <stop
         id="stop4360"
         style="stop-color:#65E7FF"
         offset="1" />
    </linearGradient>
    <linearGradient
       gradientTransform="matrix(1.2857964,0,0,-1.2857964,258.25103,1168.7191)"
       y2="237.84129"
       x2="-70.767601"
       y1="217.8394"
       x1="-70.767601"
       gradientUnits="userSpaceOnUse"
       id="SVGID_9_-9">
      <stop
         id="stop4351"
         style="stop-color:#2397D4"
         offset="0" />
      <stop
         id="stop4353"
         style="stop-color:#65E7FF"
         offset="1" />
    </linearGradient>
    <linearGradient
       gradientTransform="matrix(1.2857964,0,0,-1.2857964,258.25103,1168.7191)"
       y2="214.8394"
       x2="-84.767601"
       y1="190.83839"
       x1="-84.767601"
       gradientUnits="userSpaceOnUse"
       id="SVGID_8_-1">
      <stop
         id="stop4344"
         style="stop-color:#2397D4"
         offset="0" />
      <stop
         id="stop4346"
         style="stop-color:#65E7FF"
         offset="1" />
    </linearGradient>
    <linearGradient
       gradientTransform="matrix(1.2857964,0,0,-1.2857964,258.25103,1168.7191)"
       y2="161.147"
       x2="421.94781"
       y1="87.412102"
       x1="421.94781"
       gradientUnits="userSpaceOnUse"
       id="SVGID_6_">
      <stop
         id="stop4328"
         style="stop-color:#252D42"
         offset="0" />
      <stop
         id="stop4330"
         style="stop-color:#485E82"
         offset="1" />
    </linearGradient>
    <linearGradient
       gradientTransform="matrix(1.2857964,0,0,-1.2857964,258.25103,1168.7191)"
       y2="161.1479"
       x2="89.801804"
       y1="87.414101"
       x1="89.801804"
       gradientUnits="userSpaceOnUse"
       id="SVGID_5_">
      <stop
         id="stop4321"
         style="stop-color:#252D42"
         offset="0" />
      <stop
         id="stop4323"
         style="stop-color:#485E82"
         offset="1" />
    </linearGradient>
    <linearGradient
       gradientTransform="matrix(1.2857964,0,0,-1.2857964,258.25103,1168.7191)"
       y2="161.14841"
       x2="363.0806"
       y1="87.414101"
       x1="363.0806"
       gradientUnits="userSpaceOnUse"
       id="SVGID_4_">
      <stop
         id="stop4314"
         style="stop-color:#252D42"
         offset="0" />
      <stop
         id="stop4316"
         style="stop-color:#485E82"
         offset="1" />
    </linearGradient>
    <linearGradient
       gradientTransform="matrix(1.2857964,0,0,-1.2857964,258.25103,1168.7191)"
       y2="161.147"
       x2="481.40869"
       y1="87.414101"
       x1="481.40869"
       gradientUnits="userSpaceOnUse"
       id="SVGID_3_">
      <stop
         id="stop4307"
         style="stop-color:#252D42"
         offset="0" />
      <stop
         id="stop4309"
         style="stop-color:#485E82"
         offset="1" />
    </linearGradient>
    <linearGradient
       gradientTransform="matrix(1.2857964,0,0,-1.2857964,258.25103,1168.7191)"
       y2="161.147"
       x2="191.85789"
       y1="87.414101"
       x1="191.85789"
       gradientUnits="userSpaceOnUse"
       id="SVGID_2_">
      <stop
         id="stop4300"
         style="stop-color:#252D42"
         offset="0" />
      <stop
         id="stop4302"
         style="stop-color:#485E82"
         offset="1" />
    </linearGradient>
    <linearGradient
       gradientTransform="matrix(1,0,0,-1,214.5,339.5771)"
       y2="162.6368"
       x2="277.86081"
       y1="84.733398"
       x1="277.86081"
       gradientUnits="userSpaceOnUse"
       id="SVGID_1_">
      <stop
         id="stop4293"
         style="stop-color:#252D42"
         offset="0" />
      <stop
         id="stop4295"
         style="stop-color:#485E82"
         offset="1" />
    </linearGradient>
    <filter
       inkscape:collect="always"
       style="color-interpolation-filters:sRGB"
       id="filter4748"
       x="-0.03"
       width="1.06"
       y="-0.02"
       height="1.04">
      <feGaussianBlur
         inkscape:collect="always"
         stdDeviation="4"
         id="feGaussianBlur4750" />
    </filter>
  </defs>
  <metadata
     id="metadata4">
    <rdf:RDF>
      <cc:Work
         rdf:about="">
        <dc:format>image/svg+xml</dc:format>
        <dc:type
           rdf:resource="http://purl.org/dc/dcmitype/StillImage" />
        <dc:creator>
          <cc:Agent>
            <dc:title>Sam Hewitt</dc:title>
          </cc:Agent>
        </dc:creator>
        <dc:source />
        <cc:license
           rdf:resource="http://creativecommons.org/licenses/by-sa/3.0/" />
        <dc:title>Paper Icon Theme Template</dc:title>
        <dc:subject>
          <rdf:Bag />
        </dc:subject>
        <dc:date />
        <dc:rights>
          <cc:Agent>
            <dc:title />
          </cc:Agent>
        </dc:rights>
        <dc:publisher>
          <cc:Agent>
            <dc:title />
          </cc:Agent>
        </dc:publisher>
        <dc:identifier />
        <dc:relation />
        <dc:language />
        <dc:coverage />
        <dc:description />
        <dc:contributor>
          <cc:Agent>
            <dc:title />
          </cc:Agent>
        </dc:contributor>
      </cc:Work>
      <cc:Work
         rdf:about="">
        <dc:format>image/svg+xml</dc:format>
        <dc:type
           rdf:resource="http://purl.org/dc/dcmitype/StillImage" />
      </cc:Work>
      <cc:License
         rdf:about="http://creativecommons.org/licenses/by-sa/3.0/">
        <cc:permits
           rdf:resource="http://creativecommons.org/ns#Reproduction" />
        <cc:permits
           rdf:resource="http://creativecommons.org/ns#Distribution" />
        <cc:requires
           rdf:resource="http://creativecommons.org/ns#Notice" />
        <cc:requires
           rdf:resource="http://creativecommons.org/ns#Attribution" />
        <cc:permits
           rdf:resource="http://creativecommons.org/ns#DerivativeWorks" />
        <cc:requires
           rdf:resource="http://creativecommons.org/ns#ShareAlike" />
      </cc:License>
    </rdf:RDF>
  </metadata>
  <g
     style="display:inline"
     inkscape:groupmode="layer"
     inkscape:label="Icon"
     id="layer1"
     transform="translate(0,244)">
    <g
       style="display:none"
       inkscape:label="Baseplate"
       id="layer7"
       inkscape:groupmode="layer">
      <text
         y="337.74512"
         xml:space="preserve"
         x="15.006836"
         style="font-style:normal;font-variant:normal;font-weight:normal;font-stretch:normal;font-size:18px;font-family:'DejaVu Sans';-inkscape-font-specification:'DejaVu Sans';display:inline;fill:#000000;fill-opacity:1;stroke:none;enable-background:new"
         inkscape:label="context"
         id="context"><tspan
           style="font-style:normal;font-variant:normal;font-weight:normal;font-stretch:normal;font-family:'DejaVu Sans';-inkscape-font-specification:'DejaVu Sans'"
           y="337.74512"
           x="15.006836"
           sodipodi:role="line"
           id="tspan3933">places</tspan></text>
      <text
         y="337.74512"
         xml:space="preserve"
         x="142.48828"
         style="font-style:normal;font-variant:normal;font-weight:bold;font-stretch:normal;font-size:18px;line-height:125%;font-family:'DejaVu Sans';-inkscape-font-specification:'DejaVu Sans Bold';text-align:start;writing-mode:lr-tb;text-anchor:start;display:inline;fill:#000000;fill-opacity:1;stroke:none;enable-background:new"
         sodipodi:linespacing="125%"
         inkscape:label="icon-name"
         id="icon-name"><tspan
           style="font-style:normal;font-variant:normal;font-weight:bold;font-stretch:normal;font-size:18px;font-family:'DejaVu Sans';-inkscape-font-specification:'DejaVu Sans Bold'"
           y="337.74512"
           x="142.48828"
           sodipodi:role="line"
           id="tspan3937">distributor-logo-mageia</tspan></text>
      <rect
         style="display:inline;overflow:visible;visibility:visible;fill:#d3d7cf;fill-opacity:1;fill-rule:nonzero;stroke:none;stroke-width:2;marker:none;enable-background:accumulate"
         id="rect16x16"
         width="16"
         height="16"
         x="-32"
         y="268"
         inkscape:label="16x16"
         transform="scale(-1,1)" />
      <rect
         style="display:inline;overflow:visible;visibility:visible;fill:#d3d7cf;fill-opacity:1;fill-rule:nonzero;stroke:none;stroke-width:2;marker:none;enable-background:accumulate"
         id="rect24x24"
         width="24"
         height="24"
         x="-76"
         y="260"
         inkscape:label="24x24"
         transform="scale(-1,1)" />
      <rect
         style="display:inline;overflow:visible;visibility:visible;fill:#d3d7cf;fill-opacity:1;fill-rule:nonzero;stroke:none;stroke-width:2;marker:none;enable-background:accumulate"
         id="rect32x32"
         width="32"
         height="32"
         x="-128"
         y="252"
         inkscape:label="32x32"
         transform="scale(-1,1)" />
      <rect
         inkscape:label="48x48"
         y="236"
         x="-192"
         height="48"
         width="48"
         id="rect48x48"
         style="display:inline;overflow:visible;visibility:visible;fill:#d3d7cf;fill-opacity:1;fill-rule:nonzero;stroke:none;stroke-width:2;marker:none;enable-background:accumulate"
         transform="scale(-1,1)" />
      <rect
         style="display:inline;overflow:visible;visibility:visible;fill:#d3d7cf;fill-opacity:1;fill-rule:nonzero;stroke:none;stroke-width:2;marker:none;enable-background:accumulate"
         id="rect3951"
         width="512"
         height="512"
         x="208"
         y="-228"
         inkscape:label="48x48" />
    </g>
    <g
       inkscape:groupmode="layer"
       id="layer6"
       inkscape:label="Symbols"
       style="display:inline">
      <path
         inkscape:connector-curvature="0"
         style="opacity:0.2;fill:#000000;fill-opacity:1"
         d="m 167,240 a 1.5,1.5 0 0 0 -1.5,1.5 1.5,1.5 0 0 0 1.5,1.5 1.5,1.5 0 0 0 1.5,-1.5 1.5,1.5 0 0 0 -1.5,-1.5 z m 4,2.5 a 1.75,1.75 0 0 0 -1.75,1.75 1.75,1.75 0 0 0 1.75,1.75 1.75,1.75 0 0 0 1.75,-1.75 1.75,1.75 0 0 0 -1.75,-1.75 z m -4,2.5 a 2,2 0 0 0 -2,2 2,2 0 0 0 2,2 2,2 0 0 0 2,-2 2,2 0 0 0 -2,-2 z m 4.99609,4.5 c -1.24077,0.001 -2.25004,1.01176 -2.24804,2.25391 8.1e-4,1.23887 1.01005,2.24609 2.25,2.24609 l 0.002,0 c 1.24058,-0.001 2.24805,-1.01176 2.24805,-2.25391 -0.001,-1.23887 -1.01037,-2.24609 -2.25196,-2.24609 z m -6.49804,1.5 c -1.37834,0.001 -2.50005,1.12319 -2.49805,2.50391 0.001,1.37613 1.12291,2.49609 2.5,2.49609 l 0.002,0 C 166.88029,255.99855 168,254.87681 168,253.49609 167.99834,252.11996 166.87721,251 165.49805,251 Z m -6.14258,5.99219 A 14,14 0 0 0 154,268 14,14 0 0 0 168,282 14,14 0 0 0 182,268 14,14 0 0 0 176.64453,257.00781 14,14 0 0 1 168,260 a 14,14 0 0 1 -8.64453,-3.00781 z"
         id="path4781" />
      <path
         inkscape:connector-curvature="0"
         style="opacity:0.2;fill:#000000;fill-opacity:1"
         d="m 111.28516,254 a 1.0714286,1.0714286 0 0 0 -1.07032,1.07227 1.0714286,1.0714286 0 0 0 1.07032,1.07031 1.0714286,1.0714286 0 0 0 1.07226,-1.07031 A 1.0714286,1.0714286 0 0 0 111.28516,254 Z m 2.85742,1.78516 a 1.25,1.25 0 0 0 -1.25,1.25 1.25,1.25 0 0 0 1.25,1.25 1.25,1.25 0 0 0 1.25,-1.25 1.25,1.25 0 0 0 -1.25,-1.25 z m -2.85742,1.78711 A 1.4285714,1.4285714 0 0 0 109.85742,259 a 1.4285714,1.4285714 0 0 0 1.42774,1.42773 1.4285714,1.4285714 0 0 0 1.42968,-1.42773 1.4285714,1.4285714 0 0 0 -1.42968,-1.42773 z m 3.56836,3.21289 c -0.88626,7.5e-4 -1.60658,0.72211 -1.60547,1.60937 5.8e-4,0.8849 0.72174,1.60547 1.60742,1.60547 l 0.002,0 c 0.88612,-8.8e-4 1.60352,-0.72212 1.60352,-1.60938 -8.7e-4,-0.8849 -0.72058,-1.60546 -1.60742,-1.60546 z m -4.64063,1.07226 c -0.98363,0.002 -1.78626,0.8035 -1.78516,1.78906 0.001,0.98295 0.80346,1.78125 1.78711,1.78125 l 0.002,0 c 0.98453,-10e-4 1.7832,-0.80088 1.7832,-1.78711 -0.001,-0.98229 -0.80095,-1.78213 -1.78516,-1.7832 l -0.002,0 z m -4.38672,4.2793 A 9.9999999,9.9999999 0 0 0 102,274 a 9.9999999,9.9999999 0 0 0 10,10 9.9999999,9.9999999 0 0 0 10,-10 9.9999999,9.9999999 0 0 0 -3.82617,-7.85156 9.9999999,9.9999999 0 0 1 -6.17383,2.13672 9.9999999,9.9999999 0 0 1 -6.17383,-2.14844 z"
         id="path4783" />
      <path
         inkscape:connector-curvature="0"
         style="opacity:0.2;fill:#000000;fill-opacity:1"
         d="m 63.5,262 a 0.75,0.75 0 0 0 -0.75,0.75 0.75,0.75 0 0 0 0.75,0.75 0.75,0.75 0 0 0 0.75,-0.75 A 0.75,0.75 0 0 0 63.5,262 Z m 2,1.25 A 0.875,0.875 0 0 0 64.625,264.125 0.875,0.875 0 0 0 65.5,265 0.875,0.875 0 0 0 66.375,264.125 0.875,0.875 0 0 0 65.5,263.25 Z m -2,1.25 a 1,1 0 0 0 -1,1 1,1 0 0 0 1,1 1,1 0 0 0 1,-1 1,1 0 0 0 -1,-1 z m 2.498047,2.25 c -0.620385,5.1e-4 -1.126,0.50588 -1.125,1.12695 4.05e-4,0.61944 0.505025,1.12305 1.125,1.12305 L 66,269 c 0.62029,-6.2e-4 1.123047,-0.50588 1.123047,-1.12695 -6.1e-4,-0.61944 -0.504205,-1.12305 -1.125,-1.12305 z m -3.25,0.75 C 62.058877,267.50073 61.499,268.06159 61.5,268.75195 61.500725,269.44001 62.061455,270 62.75,270 l 0.002,0 C 63.441123,269.99927 64,269.43841 64,268.74805 63.99917,268.05998 63.437627,267.5 62.748047,267.5 Z m -3.070313,2.99609 A 7,7 0 0 0 57,276 a 7,7 0 0 0 7,7 7,7 0 0 0 7,-7 7,7 0 0 0 -2.677734,-5.49609 A 7,7 0 0 1 64,272 7,7 0 0 1 59.677734,270.49609 Z"
         id="path4785" />
      <path
         style="opacity:0.1;fill:#000000;fill-opacity:1;filter:url(#filter4748)"
         d="m 452.57227,-208 a 17.142857,17.142857 0 0 0 -17.14454,17.14258 17.142857,17.142857 0 0 0 17.14454,17.14258 17.142857,17.142857 0 0 0 17.14257,-17.14258 A 17.142857,17.142857 0 0 0 452.57227,-208 Z m 45.71289,28.57227 a 20,20 0 0 0 -20,20 20,20 0 0 0 20,20 20,20 0 0 0 20,-20 20,20 0 0 0 -20,-20 z m -45.71289,28.57031 A 22.857141,22.857141 0 0 0 429.71484,-128 22.857141,22.857141 0 0 0 452.57227,-105.14258 22.857141,22.857141 0 0 0 475.42773,-128 22.857141,22.857141 0 0 0 452.57227,-150.85742 Z m 57.0957,51.42773 c -14.18023,0.0118 -25.71431,11.554 -25.69141,25.75 C 483.98582,-59.52117 495.52055,-48 509.69141,-48 l 0.0234,0 c 14.17806,-0.01406 25.68946,-11.554 25.68946,-25.75 -0.0139,-14.15851 -11.54673,-25.67969 -25.73633,-25.67969 z M 435.4043,-82.2832 c -15.75246,0.0168 -28.56978,12.83362 -28.54688,28.61328 0.0166,15.7272 12.83214,28.52734 28.57031,28.52734 l 0.0234,0 0.002,0.002 C 451.20558,-25.1572 464,-37.97816 464,-53.75781 463.981,-69.48501 451.16613,-82.2832 435.4043,-82.2832 Z m -70.19922,68.48047 A 159.99999,159.99999 0 0 0 304,112 159.99999,159.99999 0 0 0 464,272 159.99999,159.99999 0 0 0 624,112 159.99999,159.99999 0 0 0 562.79492,-13.625 159.99999,159.99999 0 0 1 464,20.57227 a 159.99999,159.99999 0 0 1 -98.79492,-34.375 z"
         id="path4752"
         inkscape:connector-curvature="0" />
      <path
         inkscape:connector-curvature="0"
         id="path4746"
         d="m 452.57227,-208 a 17.142857,17.142857 0 0 0 -17.14454,17.14258 17.142857,17.142857 0 0 0 17.14454,17.14258 17.142857,17.142857 0 0 0 17.14257,-17.14258 A 17.142857,17.142857 0 0 0 452.57227,-208 Z m 45.71289,28.57227 a 20,20 0 0 0 -20,20 20,20 0 0 0 20,20 20,20 0 0 0 20,-20 20,20 0 0 0 -20,-20 z m -45.71289,28.57031 A 22.857141,22.857141 0 0 0 429.71484,-128 22.857141,22.857141 0 0 0 452.57227,-105.14258 22.857141,22.857141 0 0 0 475.42773,-128 22.857141,22.857141 0 0 0 452.57227,-150.85742 Z m 57.0957,51.42773 c -14.18023,0.0118 -25.71431,11.554 -25.69141,25.75 C 483.98582,-59.52117 495.52055,-48 509.69141,-48 l 0.0234,0 c 14.17806,-0.01406 25.68946,-11.554 25.68946,-25.75 -0.0139,-14.15851 -11.54673,-25.67969 -25.73633,-25.67969 z M 435.4043,-82.2832 c -15.75246,0.0168 -28.56978,12.83362 -28.54688,28.61328 0.0166,15.7272 12.83214,28.52734 28.57031,28.52734 l 0.0234,0 0.002,0.002 C 451.20558,-25.1572 464,-37.97816 464,-53.75781 463.981,-69.48501 451.16613,-82.2832 435.4043,-82.2832 Z m -70.19922,68.48047 A 159.99999,159.99999 0 0 0 304,112 159.99999,159.99999 0 0 0 464,272 159.99999,159.99999 0 0 0 624,112 159.99999,159.99999 0 0 0 562.79492,-13.625 159.99999,159.99999 0 0 1 464,20.57227 a 159.99999,159.99999 0 0 1 -98.79492,-34.375 z"
         style="opacity:0.2;fill:#000000;fill-opacity:1;filter:url(#filter4748)" />
      <path
         style="fill:#000000;fill-opacity:1;opacity:0.2"
         d="m 452.57227,-210 a 17.142857,17.142857 0 0 0 -17.14454,17.14258 17.142857,17.142857 0 0 0 17.14454,17.14258 17.142857,17.142857 0 0 0 17.14257,-17.14258 A 17.142857,17.142857 0 0 0 452.57227,-210 Z m 45.71289,28.57227 a 20,20 0 0 0 -20,20 20,20 0 0 0 20,20 20,20 0 0 0 20,-20 20,20 0 0 0 -20,-20 z m -45.71289,28.57031 A 22.857141,22.857141 0 0 0 429.71484,-130 22.857141,22.857141 0 0 0 452.57227,-107.14258 22.857141,22.857141 0 0 0 475.42773,-130 22.857141,22.857141 0 0 0 452.57227,-152.85742 Z m 57.0957,51.42773 c -14.18023,0.0118 -25.71431,11.554 -25.69141,25.75 C 483.98582,-61.52117 495.52055,-50 509.69141,-50 l 0.0234,0 c 14.17806,-0.01406 25.68946,-11.554 25.68946,-25.75 -0.0139,-14.15851 -11.54673,-25.67969 -25.73633,-25.67969 z M 435.4043,-84.2832 c -15.75246,0.0168 -28.56978,12.83362 -28.54688,28.61328 0.0166,15.7272 12.83214,28.52734 28.57031,28.52734 l 0.0234,0 0.002,0.002 C 451.20558,-27.1572 464,-39.97816 464,-55.75781 c -0.019,-15.7272 -12.83387,-28.52539 -28.5957,-28.52539 z m -70.19922,68.48047 A 159.99999,159.99999 0 0 0 304,110 159.99999,159.99999 0 0 0 464,270 159.99999,159.99999 0 0 0 624,110 159.99999,159.99999 0 0 0 562.79492,-15.625 159.99999,159.99999 0 0 1 464,18.57227 a 159.99999,159.99999 0 0 1 -98.79492,-34.375 z"
         id="path4741"
         inkscape:connector-curvature="0" />
      <path
         style="fill:#03a9f4;fill-opacity:1"
         d="M 167 483 A 1.5 1.5 0 0 0 165.5 484.5 A 1.5 1.5 0 0 0 167 486 A 1.5 1.5 0 0 0 168.5 484.5 A 1.5 1.5 0 0 0 167 483 z M 171 485.5 A 1.75 1.75 0 0 0 169.25 487.25 A 1.75 1.75 0 0 0 171 489 A 1.75 1.75 0 0 0 172.75 487.25 A 1.75 1.75 0 0 0 171 485.5 z M 167 488 A 2 2 0 0 0 165 490 A 2 2 0 0 0 167 492 A 2 2 0 0 0 169 490 A 2 2 0 0 0 167 488 z M 171.99609 492.5 C 170.75532 492.50103 169.74605 493.51176 169.74805 494.75391 C 169.74886 495.99278 170.7581 497 171.99805 497 L 172 497 C 173.24058 496.99877 174.24805 495.98824 174.24805 494.74609 C 174.24683 493.50722 173.23768 492.5 171.99609 492.5 z M 165.49805 494 C 164.11971 494.00147 162.998 495.12319 163 496.50391 C 163.00145 497.88004 164.12291 499 165.5 499 L 165.50195 499 C 166.88029 498.99855 168 497.87681 168 496.49609 C 167.99834 495.11996 166.87721 494 165.49805 494 z "
         transform="translate(0,-244)"
         id="path3042-0-6-4" />
      <path
         style="opacity:1;fill:#0d47a1;fill-opacity:1;stroke:none;stroke-width:8;stroke-linecap:round;stroke-linejoin:miter;stroke-miterlimit:4;stroke-dasharray:none;stroke-opacity:0.62886598"
         d="M 159.35547,255.99219 A 14,14 0 0 0 154,267 14,14 0 0 0 168,281 14,14 0 0 0 182,267 14,14 0 0 0 176.64453,256.00781 14,14 0 0 1 168,259 a 14,14 0 0 1 -8.64453,-3.00781 z"
         id="path4607"
         inkscape:connector-curvature="0" />
      <path
         style="fill:#03a9f4;fill-opacity:1"
         d="M 63.5 505 A 0.75 0.75 0 0 0 62.75 505.75 A 0.75 0.75 0 0 0 63.5 506.5 A 0.75 0.75 0 0 0 64.25 505.75 A 0.75 0.75 0 0 0 63.5 505 z M 65.5 506.25 A 0.875 0.875 0 0 0 64.625 507.125 A 0.875 0.875 0 0 0 65.5 508 A 0.875 0.875 0 0 0 66.375 507.125 A 0.875 0.875 0 0 0 65.5 506.25 z M 63.5 507.5 A 1 1 0 0 0 62.5 508.5 A 1 1 0 0 0 63.5 509.5 A 1 1 0 0 0 64.5 508.5 A 1 1 0 0 0 63.5 507.5 z M 65.998047 509.75 C 65.377662 509.75051 64.872047 510.25588 64.873047 510.87695 C 64.873452 511.49639 65.378072 512 65.998047 512 L 66 512 C 66.62029 511.99938 67.123047 511.49412 67.123047 510.87305 C 67.122437 510.25361 66.618842 509.75 65.998047 509.75 z M 62.748047 510.5 C 62.058877 510.50073 61.499 511.06159 61.5 511.75195 C 61.500725 512.44001 62.061455 513 62.75 513 L 62.751953 513 C 63.441123 512.99927 64 512.43841 64 511.74805 C 63.99917 511.05998 63.437627 510.5 62.748047 510.5 z "
         transform="translate(0,-244)"
         id="path4634" />
      <path
         inkscape:connector-curvature="0"
         id="path4644"
         d="M 59.677735,269.49609 A 7,7 0 0 0 57,275 a 7,7 0 0 0 7,7 7,7 0 0 0 7,-7 7,7 0 0 0 -2.677735,-5.49609 A 7,7 0 0 1 64,271 7,7 0 0 1 59.677735,269.49609 Z"
         style="opacity:1;fill:#0d47a1;fill-opacity:1;stroke:none;stroke-width:8;stroke-linecap:round;stroke-linejoin:miter;stroke-miterlimit:4;stroke-dasharray:none;stroke-opacity:0.62886598" />
      <path
         inkscape:connector-curvature="0"
         style="fill:#03a9f4;fill-opacity:1"
         d="m 111.28602,253 a 1.0714286,1.0714286 0 0 0 -1.07204,1.07204 1.0714286,1.0714286 0 0 0 1.07204,1.06988 1.0714286,1.0714286 0 0 0 1.07206,-1.06988 A 1.0714286,1.0714286 0 0 0 111.28602,253 Z m 2.8559,1.78602 a 1.25,1.25 0 0 0 -1.25,1.25 1.25,1.25 0 0 0 1.25,1.25 1.25,1.25 0 0 0 1.25,-1.25 1.25,1.25 0 0 0 -1.25,-1.25 z m -2.8559,1.78602 A 1.4285714,1.4285714 0 0 0 109.85808,258 a 1.4285714,1.4285714 0 0 0 1.42794,1.42795 1.4285714,1.4285714 0 0 0 1.42796,-1.42795 1.4285714,1.4285714 0 0 0 -1.42796,-1.42796 z m 3.56771,3.21398 c -0.88626,7.5e-4 -1.60701,0.72082 -1.6059,1.60808 5.8e-4,0.8849 0.72239,1.6059 1.60807,1.6059 l 0.002,0 c 0.88612,-8.8e-4 1.60372,-0.72299 1.60372,-1.61025 -8.7e-4,-0.8849 -0.72122,-1.60373 -1.60806,-1.60373 z m -4.63975,1.07206 c -0.98454,0.001 -1.78714,0.80196 -1.78603,1.78819 0.001,0.98295 0.80238,1.78168 1.78603,1.78168 l 0.002,0 c 0.98453,-0.001 1.78385,-0.80197 1.78385,-1.7882 -0.001,-0.98295 -0.80091,-1.78167 -1.78602,-1.78167 z"
         id="path4654" />
      <path
         inkscape:connector-curvature="0"
         id="path4664"
         d="M 105.82533,265.13728 A 9.9999999,9.9999999 0 0 0 102,273 a 9.9999999,9.9999999 0 0 0 10,10 9.9999999,9.9999999 0 0 0 10,-10 9.9999999,9.9999999 0 0 0 -3.82533,-7.85157 9.9999999,9.9999999 0 0 1 -6.17467,2.13728 9.9999999,9.9999999 0 0 1 -6.17467,-2.14843 z"
         style="opacity:1;fill:#0d47a1;fill-opacity:1;stroke:none;stroke-width:8;stroke-linecap:round;stroke-linejoin:miter;stroke-miterlimit:4;stroke-dasharray:none;stroke-opacity:0.62886598" />
      <path
         style="fill:#03a9f4;fill-opacity:1"
         d="M 452.57227 32 A 17.142857 17.142857 0 0 0 435.42773 49.142578 A 17.142857 17.142857 0 0 0 452.57227 66.285156 A 17.142857 17.142857 0 0 0 469.71484 49.142578 A 17.142857 17.142857 0 0 0 452.57227 32 z M 498.28516 60.572266 A 20 20 0 0 0 478.28516 80.572266 A 20 20 0 0 0 498.28516 100.57227 A 20 20 0 0 0 518.28516 80.572266 A 20 20 0 0 0 498.28516 60.572266 z M 452.57227 89.142578 A 22.857141 22.857141 0 0 0 429.71484 112 A 22.857141 22.857141 0 0 0 452.57227 134.85742 A 22.857141 22.857141 0 0 0 475.42773 112 A 22.857141 22.857141 0 0 0 452.57227 89.142578 z M 509.66797 140.57031 C 495.48774 140.58208 483.95366 152.12431 483.97656 166.32031 C 483.98582 180.47883 495.52055 192 509.69141 192 L 509.71484 192 C 523.8929 191.98594 535.4043 180.446 535.4043 166.25 C 535.39036 152.09149 523.85757 140.57031 509.66797 140.57031 z M 435.4043 157.7168 C 419.65184 157.7336 406.83452 170.55042 406.85742 186.33008 C 406.87399 202.05728 419.68956 214.85742 435.42773 214.85742 L 435.45117 214.85742 L 435.45312 214.85938 C 451.20558 214.8428 464 202.02184 464 186.24219 C 463.98103 170.51499 451.16613 157.7168 435.4043 157.7168 z "
         transform="translate(0,-244)"
         id="path4674" />
      <path
         style="opacity:1;fill:#0d47a1;fill-opacity:1;stroke:none;stroke-width:8;stroke-linecap:round;stroke-linejoin:miter;stroke-miterlimit:4;stroke-dasharray:none;stroke-opacity:0.62886598"
         d="m 365.20533,-17.803581 a 159.99999,159.99999 0 0 0 -61.20537,125.803541 159.99999,159.99999 0 0 0 160,159.99999 159.99999,159.99999 0 0 0 159.99999,-159.99999 159.99999,159.99999 0 0 0 -61.20537,-125.625027 159.99999,159.99999 0 0 1 -98.79462,34.196456 159.99999,159.99999 0 0 1 -98.79463,-34.37497 z"
         id="path4684"
         inkscape:connector-curvature="0" />
      <path
         id="path4722"
         d="m 23.64301,269 a 0.5357143,0.5357143 0 0 0 -0.53602,0.53602 0.5357143,0.5357143 0 0 0 0.53602,0.53494 0.5357143,0.5357143 0 0 0 0.53603,-0.53494 A 0.5357143,0.5357143 0 0 0 23.64301,269 Z m 1.42795,0.89301 a 0.625,0.625 0 0 0 -0.625,0.625 0.625,0.625 0 0 0 0.625,0.625 0.625,0.625 0 0 0 0.625,-0.625 0.625,0.625 0 0 0 -0.625,-0.625 z m -1.42795,0.89301 a 0.7142857,0.7142857 0 0 0 -0.71397,0.71398 0.7142857,0.7142857 0 0 0 0.71397,0.71397 0.7142857,0.7142857 0 0 0 0.71398,-0.71397 0.7142857,0.7142857 0 0 0 -0.71398,-0.71398 z m 1.783855,1.60699 c -0.44313,3.7e-4 -0.803505,0.36041 -0.80295,0.80404 C 24.624205,273.6395 24.98511,274 25.42795,274 l 0.001,0 c 0.44306,-4.4e-4 0.80186,-0.3615 0.80186,-0.80512 -4.35e-4,-0.44245 -0.36061,-0.80187 -0.80403,-0.80187 z m -2.319875,0.53603 c -0.49227,5e-4 -0.89357,0.40098 -0.893015,0.89409 5e-4,0.49148 0.40119,0.89084 0.893015,0.89084 l 0.001,0 c 0.492265,-4.9e-4 0.891925,-0.40098 0.891925,-0.89409 -5e-4,-0.49148 -0.400455,-0.89084 -0.89301,-0.89084 z"
         style="fill:#03a9f4;fill-opacity:1"
         inkscape:connector-curvature="0" />
      <path
         style="opacity:1;fill:#0d47a1;fill-opacity:1;stroke:none;stroke-width:8;stroke-linecap:round;stroke-linejoin:miter;stroke-miterlimit:4;stroke-dasharray:none;stroke-opacity:0.62886598"
         d="M 20.912665,275.06864 A 5,5 0 0 0 19,279 a 5,5 0 0 0 5,5 5,5 0 0 0 5,-5 5,5 0 0 0 -1.912665,-3.92579 A 5,5 0 0 1 24,276.14285 5,5 0 0 1 20.912665,275.06864 Z"
         id="path4724"
         inkscape:connector-curvature="0" />
      <path
         style="fill:#ffffff;fill-opacity:1;opacity:0.2"
         d="M 452.57227 32 A 17.142857 17.142857 0 0 0 435.42773 49.142578 A 17.142857 17.142857 0 0 0 435.46875 49.96875 A 17.142857 17.142857 0 0 1 452.57227 34 A 17.142857 17.142857 0 0 1 469.67383 50.314453 A 17.142857 17.142857 0 0 0 469.71484 49.142578 A 17.142857 17.142857 0 0 0 452.57227 32 z M 498.28516 60.572266 A 20 20 0 0 0 478.28516 80.572266 A 20 20 0 0 0 478.32617 81.410156 A 20 20 0 0 1 498.28516 62.572266 A 20 20 0 0 1 518.24414 81.734375 A 20 20 0 0 0 518.28516 80.572266 A 20 20 0 0 0 498.28516 60.572266 z M 452.57227 89.142578 A 22.857141 22.857141 0 0 0 429.71484 112 A 22.857141 22.857141 0 0 0 429.75586 112.82812 A 22.857141 22.857141 0 0 1 452.57227 91.142578 A 22.857141 22.857141 0 0 1 475.38672 113.17188 A 22.857141 22.857141 0 0 0 475.42773 112 A 22.857141 22.857141 0 0 0 452.57227 89.142578 z M 509.66797 140.57031 C 495.48774 140.58208 483.95366 152.12431 483.97656 166.32031 C 483.97677 166.63579 483.9904 166.94896 484.00195 167.26172 C 484.538 153.55577 495.84251 142.58182 509.66797 142.57031 C 523.53156 142.57031 534.85276 153.56906 535.37891 167.2793 C 535.3924 166.93724 535.4043 166.59533 535.4043 166.25 C 535.39036 152.09149 523.85757 140.57031 509.66797 140.57031 z M 435.4043 157.7168 C 419.65184 157.7336 406.83452 170.55042 406.85742 186.33008 C 406.85776 186.64724 406.87215 186.96069 406.88281 187.27539 C 407.41818 171.98401 420.00486 159.73322 435.4043 159.7168 C 450.83907 159.7168 463.44015 171.99186 463.97461 187.26953 C 463.9867 186.928 464 186.58664 464 186.24219 C 463.98103 170.51499 451.16613 157.7168 435.4043 157.7168 z M 365.20508 226.19727 A 159.99999 159.99999 0 0 0 304 352 A 159.99999 159.99999 0 0 0 304.0332 352.65234 A 159.99999 159.99999 0 0 1 365.20508 228.19727 A 159.99999 159.99999 0 0 0 464 262.57227 A 159.99999 159.99999 0 0 0 562.79492 228.375 A 159.99999 159.99999 0 0 1 623.95898 353.18555 A 159.99999 159.99999 0 0 0 624 352 A 159.99999 159.99999 0 0 0 562.79492 226.375 A 159.99999 159.99999 0 0 1 464 260.57227 A 159.99999 159.99999 0 0 1 365.20508 226.19727 z "
         transform="translate(0,-244)"
         id="path4730" />
      <path
         style="fill:#ffffff;fill-opacity:1;opacity:0.2"
         d="M 167 483 A 1.5 1.5 0 0 0 165.5 484.5 A 1.5 1.5 0 0 0 165.58789 485 A 1.5 1.5 0 0 1 167 484 A 1.5 1.5 0 0 1 168.41211 485 A 1.5 1.5 0 0 0 168.5 484.5 A 1.5 1.5 0 0 0 167 483 z M 171 485.5 A 1.75 1.75 0 0 0 169.25 487.25 A 1.75 1.75 0 0 0 169.32422 487.75195 A 1.75 1.75 0 0 1 171 486.5 A 1.75 1.75 0 0 1 172.67578 487.74805 A 1.75 1.75 0 0 0 172.75 487.25 A 1.75 1.75 0 0 0 171 485.5 z M 167 488 A 2 2 0 0 0 165 490 A 2 2 0 0 0 165.06445 490.49609 A 2 2 0 0 1 167 489 A 2 2 0 0 1 168.93555 490.50391 A 2 2 0 0 0 169 490 A 2 2 0 0 0 167 488 z M 171.99609 492.5 C 170.75532 492.50103 169.74605 493.51176 169.74805 494.75391 C 169.74816 494.92464 169.77221 495.0901 169.80859 495.25 C 170.03721 494.25054 170.929 493.50086 171.99609 493.5 C 173.06657 493.5 173.95972 494.24961 174.1875 495.25 C 174.22484 495.08736 174.24805 494.91994 174.24805 494.74609 C 174.24683 493.50722 173.23768 492.5 171.99609 492.5 z M 165.49805 494 C 164.11971 494.00147 162.998 495.12319 163 496.50391 C 163.00018 496.67393 163.01804 496.83942 163.05078 497 C 163.28299 495.86022 164.292 495.00087 165.49805 495 C 166.70481 495 167.71466 495.85787 167.94922 496.99414 C 167.98178 496.83307 168 496.6667 168 496.49609 C 167.99834 495.11996 166.87721 494 165.49805 494 z M 159.35547 499.99219 A 14 14 0 0 0 154 511 A 14 14 0 0 0 154.02539 511.49023 A 14 14 0 0 1 159.35547 500.99219 A 14 14 0 0 0 168 504 A 14 14 0 0 0 176.64453 501.00781 A 14 14 0 0 1 181.97852 511.5918 A 14 14 0 0 0 182 511 A 14 14 0 0 0 176.64453 500.00781 A 14 14 0 0 1 168 503 A 14 14 0 0 1 159.35547 499.99219 z "
         transform="translate(0,-244)"
         id="path4754" />
      <path
         style="fill:#ffffff;fill-opacity:1;opacity:0.2"
         d="M 111.28516 497 A 1.0714286 1.0714286 0 0 0 110.21484 498.07227 A 1.0714286 1.0714286 0 0 0 110.33789 498.57031 A 1.0714286 1.0714286 0 0 1 111.28516 498 A 1.0714286 1.0714286 0 0 1 112.23242 498.57227 A 1.0714286 1.0714286 0 0 0 112.35742 498.07227 A 1.0714286 1.0714286 0 0 0 111.28516 497 z M 114.14258 498.78516 A 1.25 1.25 0 0 0 112.89258 500.03516 A 1.25 1.25 0 0 0 112.99805 500.53516 A 1.25 1.25 0 0 1 114.14258 499.78516 A 1.25 1.25 0 0 1 115.28711 500.53516 A 1.25 1.25 0 0 0 115.39258 500.03516 A 1.25 1.25 0 0 0 114.14258 498.78516 z M 111.28516 500.57227 A 1.4285714 1.4285714 0 0 0 109.85742 502 A 1.4285714 1.4285714 0 0 0 109.94922 502.5 A 1.4285714 1.4285714 0 0 1 111.28516 501.57227 A 1.4285714 1.4285714 0 0 1 112.62305 502.50195 A 1.4285714 1.4285714 0 0 0 112.71484 502 A 1.4285714 1.4285714 0 0 0 111.28516 500.57227 z M 114.85352 503.78516 C 113.96726 503.78591 113.24694 504.50727 113.24805 505.39453 C 113.24816 505.5694 113.28384 505.73484 113.33594 505.89258 C 113.54736 505.25226 114.14355 504.78576 114.85352 504.78516 C 115.56511 504.78516 116.16168 505.25209 116.37305 505.89258 C 116.4255 505.73359 116.46094 505.56711 116.46094 505.39062 C 116.46007 504.50572 115.74036 503.78516 114.85352 503.78516 z M 110.21289 504.85742 C 109.22926 504.8595 108.42663 505.66092 108.42773 506.64648 C 108.42791 506.82037 108.46091 506.9856 108.50781 507.14453 C 108.72595 506.40439 109.40441 505.85907 110.21289 505.85742 L 110.21484 505.85742 C 111.02429 505.8583 111.70169 506.40203 111.91992 507.14062 C 111.96671 506.98091 112 506.81547 112 506.64062 C 111.999 505.65833 111.19905 504.85849 110.21484 504.85742 L 110.21289 504.85742 z M 105.82617 509.13672 A 9.9999999 9.9999999 0 0 0 102 517 A 9.9999999 9.9999999 0 0 0 102.02539 517.49219 A 9.9999999 9.9999999 0 0 1 105.82617 510.13672 A 9.9999999 9.9999999 0 0 0 112 512.28516 A 9.9999999 9.9999999 0 0 0 118.17383 510.14844 A 9.9999999 9.9999999 0 0 1 121.97852 517.58594 A 9.9999999 9.9999999 0 0 0 122 517 A 9.9999999 9.9999999 0 0 0 118.17383 509.14844 A 9.9999999 9.9999999 0 0 1 112 511.28516 A 9.9999999 9.9999999 0 0 1 105.82617 509.13672 z "
         transform="translate(0,-244)"
         id="path4759" />
      <path
         style="fill:#ffffff;fill-opacity:1;opacity:0.2"
         d="M 63.5 505 A 0.75 0.75 0 0 0 62.75 505.75 A 0.75 0.75 0 0 0 62.941406 506.25 A 0.75 0.75 0 0 1 63.5 506 A 0.75 0.75 0 0 1 64.058594 506.25 A 0.75 0.75 0 0 0 64.25 505.75 A 0.75 0.75 0 0 0 63.5 505 z M 63.5 507.5 A 1 1 0 0 0 62.5 508.5 A 1 1 0 0 0 62.634766 509 A 1 1 0 0 1 63.5 508.5 A 1 1 0 0 1 64.365234 509 A 1 1 0 0 0 64.5 508.5 A 1 1 0 0 0 63.5 507.5 z M 65.998047 509.75 C 65.377662 509.75051 64.872047 510.25588 64.873047 510.87695 C 64.873166 511.05912 64.926464 511.22468 65.003906 511.37695 C 65.189527 511.01005 65.559901 510.75036 65.998047 510.75 C 66.436277 510.75 66.806472 511.00754 66.992188 511.37305 C 67.069242 511.22041 67.123047 511.05555 67.123047 510.87305 C 67.122437 510.25361 66.618842 509.75 65.998047 509.75 z M 62.748047 510.5 C 62.058877 510.50073 61.499 511.06159 61.5 511.75195 C 61.500188 511.92999 61.541689 512.0966 61.609375 512.25 C 61.802935 511.81066 62.238171 511.50054 62.748047 511.5 C 63.259199 511.5 63.696396 511.81053 63.890625 512.25 C 63.958731 512.09551 64 511.92765 64 511.74805 C 63.99917 511.05998 63.437627 510.5 62.748047 510.5 z M 59.677734 513.49609 A 7 7 0 0 0 57 519 A 7 7 0 0 0 57.025391 519.50781 A 7 7 0 0 1 59.677734 514.49609 A 7 7 0 0 0 64 516 A 7 7 0 0 0 68.322266 514.50391 A 7 7 0 0 1 70.976562 519.54102 A 7 7 0 0 0 71 519 A 7 7 0 0 0 68.322266 513.50391 A 7 7 0 0 1 64 515 A 7 7 0 0 1 59.677734 513.49609 z "
         transform="translate(0,-244)"
         id="path4764" />
    </g>
  </g>
</svg>
