<svg xmlns="http://www.w3.org/2000/svg" width="16" height="16">
    <g fill="#4c5263">
        <path d="M14.997 8c0 .554-.446 1-1 1h-1.594L6.21 2.81l-.246-.746C5.704 1.016 5.701 1 6.497 1c.432 0 .434.012.718.5L10.903 7h3.094c.554 0 1 .446 1 1zm-4.621 1.785L7.216 14.5c-.267.457-.284.498-.657.5h-.062c-.794 0-.781-.033-.532-1.031L7.59 9h-4.5l-1.218 1.781c-.14.21-.123.22-.344.22h-.219c-.428 0-.281-.438-.281-.438L1.309 8l-.281-2.562S.888 5 1.278 5h.25c.211 0 .204.01.344.219L3.09 7h4.5z"/>
        <path d="M15.06 13.656L2.34.938.934 2.344l12.719 12.719z" style="marker:none" color="#000" overflow="visible"/>
    </g>
</svg>
