<svg xmlns="http://www.w3.org/2000/svg" width="16" height="16.03">
    <path d="M4.5 0A3.5 3.5 0 001 3.5a3.5 3.5 0 00.234 1.248A8 8 0 017.015 1.07 3.5 3.5 0 004.5 0zm7 0a3.5 3.5 0 00-2.516 1.068 8 8 0 015.785 3.676A3.5 3.5 0 0015 3.5 3.5 3.5 0 0011.5 0zM8 2a7 7 0 00-7 7 7 7 0 001.851 4.73l-.558.56c-.982.942.471 2.395 1.414 1.413L4.41 15A7 7 0 008 16a7.001 7.001 0 003.59-1l.703.703c.942.982 2.395-.471 1.414-1.414l-.559-.559A7 7 0 0015 9a7 7 0 00-7-7zm0 2a5 5 0 110 10A5 5 0 018 4zm2.308 2.184a.504.504 0 00-.25.156L7.902 8.496 6.246 6.84c-.157-.257-.569-.307-.782-.094-.213.213-.163.624.094.781l2 2a.519.519 0 00.688 0l2.5-2.5c.293-.298-.025-.91-.438-.843z" fill="#4c5263"/>
</svg>
