<svg xmlns="http://www.w3.org/2000/svg" width="16" height="16">
    <g fill="#4c5263">
        <path d="m 693.00042,-334.00336 c -3.86599,0 -7,3.13401 -7,7 0,3.86599 3.13401,7 7,7 0.70161,0 1.39221,-0.0892 2.03125,-0.28125 0.0537,-0.41966 0.21363,-0.83863 0.53125,-1.15625 l 0.0625,-0.0625 -0.0625,-0.0625 c -0.25599,-0.25599 -0.41871,-0.57407 -0.5,-0.90625 -0.63262,0.28931 -1.32139,0.46875 -2.0625,0.46875 -2.76143,0 -5,-2.23858 -5,-5 0,-2.76142 2.23857,-5 5,-5 2.76142,0 5,2.23858 5,5 0,0.74111 -0.17944,1.42988 -0.46875,2.0625 0.33218,0.0813 0.65026,0.24401 0.90625,0.5 l 0.0625,0.0625 0.0625,-0.0625 c 0.31762,-0.31762 0.73659,-0.47756 1.15625,-0.53125 0.19209,-0.63904 0.28125,-1.32964 0.28125,-2.03125 0,-3.86599 -3.13401,-7 -7,-7 z m 2.40625,4.1875 c -0.0964,0.0256 -0.18476,0.0808 -0.25,0.15625 l -2.15625,2.15625 -1.65625,-1.65625 c -0.15718,-0.25698 -0.56824,-0.30673 -0.78125,-0.0937 -0.21301,0.21301 -0.16326,0.62407 0.0937,0.78125 l 2,2 c 0.1835,0.1737 0.504,0.1737 0.6875,0 l 2.5,-2.5 c 0.29287,-0.29845 -0.0248,-0.91114 -0.4375,-0.84375 z" style="marker:none" color="#bebebe" overflow="visible" opacity=".35" transform="translate(-685 335.003)"/>
        <path d="m 696.00042,-324.00336 v 1 c 0,0.27614 0.10029,0.53779 0.28125,0.71875 l 0.78125,0.78125 -0.78125,0.78125 c -0.18096,0.18096 -0.28125,0.44261 -0.28125,0.71875 v 1 h 1 c 0.27614,0 0.53779,-0.10029 0.71875,-0.28125 l 0.78125,-0.78125 0.78125,0.78125 c 0.18096,0.18096 0.44261,0.28125 0.71875,0.28125 h 1 v -1 c 0,-0.27614 -0.10029,-0.53779 -0.28125,-0.71875 l -0.78125,-0.78125 0.78125,-0.78125 c 0.18096,-0.18096 0.28125,-0.44261 0.28125,-0.71875 v -1 h -1 c -0.27614,0 -0.53779,0.10029 -0.71875,0.28125 l -0.78125,0.78125 -0.78125,-0.78125 c -0.18096,-0.18096 -0.44261,-0.28125 -0.71875,-0.28125 z" transform="translate(-685 335.003)"/>
    </g>
</svg>
