<svg xmlns="http://www.w3.org/2000/svg" width="16" height="16">
    <g fill="#4c5263">
        <path d="M8 1a7 7 0 000 14c.702 0 1.392-.09 2.031-.281.054-.42.214-.839.532-1.156l.062-.063-.062-.063a1.917 1.917 0 01-.5-.906A4.927 4.927 0 018 13a5 5 0 115-5c0 .741-.18 1.43-.469 2.063.332.08.65.244.907.5l.062.062.063-.063c.317-.317.736-.477 1.156-.53C14.91 9.391 15 8.701 15 8a7 7 0 00-7-7zm2.406 4.188a.504.504 0 00-.25.156L8 7.5 6.344 5.844c-.157-.257-.568-.307-.781-.094-.213.213-.164.624.093.781l2 2a.519.519 0 00.688 0l2.5-2.5c.293-.298-.025-.91-.438-.843z" style="marker:none" color="#bebebe" overflow="visible" opacity=".35"/>
        <path d="M11 11v1c0 .276.1.538.281.719l.782.781-.782.781A1.015 1.015 0 0011 15v1h1c.276 0 .538-.1.719-.281l.781-.781.781.78c.181.182.443.282.719.282h1v-1c0-.276-.1-.538-.281-.719l-.781-.781.78-.781c.182-.181.282-.443.282-.719v-1h-1c-.276 0-.538.1-.719.281l-.781.781-.781-.78A1.015 1.015 0 0012 11z"/>
    </g>
</svg>
