<svg xmlns="http://www.w3.org/2000/svg" width="16" height="16">
    <g fill="#4c5263">
        <path d="M 413.0002,-533.99805 409.09004,-530 h -3.08984 v 6 h 3.08789 l 3.91211,4.00195 z" transform="translate(-405 534.998)"/>
        <path d="m 415,-533.99833 v 1.5 c 2.32,0.74 4,2.93 4,5.5 0,2.57 -1.68,4.76 -4,5.5 v 1.5 c 3.15,-0.78 5.5,-3.6 5.5,-7 0,-3.4 -2.35,-6.22 -5.5,-7 z" opacity=".35" transform="translate(-405 534.998)"/>
        <path d="m 416.79,-526.99833 c 0,-1.3 -0.72,-2.42 -1.79,-3 v 6 c 1.06,-0.58 1.79,-1.7 1.79,-3 z" opacity=".35" transform="translate(-405 534.998)"/>
    </g>
</svg>
