<svg xmlns="http://www.w3.org/2000/svg" width="16" height="16">
    <path d="m 331.00021,-573.99854 v 1 h -3 c 0,0 0,0.446 0,1 v 11 c 0,0.554 0.446,1 1,1 h 8 c 0.554,0 1,-0.446 1,-1 v -11 c 0,-0.554 0,-1 0,-1 h -3 v -1 z m 2,4 c 1.10457,0 2,0.89543 2,2 0,1.10457 -0.89543,2 -2,2 v 1 h -1 v -2 h 1 c 0.55229,0 1,-0.44772 1,-1 0,-0.55228 -0.44771,-1 -1,-1 -0.55228,0 -1,0.44772 -1,1 h -1 c 0,-1.10457 0.89543,-2 2,-2 z m -1,6 h 1 v 1 h -1 z" fill="#4c5263" transform="translate(-325 574.999)"/>
</svg>
