<svg xmlns="http://www.w3.org/2000/svg" width="16" height="16.02">
    <path d="m 693.5002,-495 c -3.047,0 -5.5,2.676 -5.5,6 v 4 c 0,3.324 2.453,6 5.5,6 3.047,0 5.5,-2.676 5.5,-6 v -4 c 0,-3.324 -2.453,-6 -5.5,-6 z m -0.5,1.29297 4.24023,4.23828 -2.93945,2.46875 2.93945,2.46875 -4.24023,4.23828 v -5.61328 l -2.42773,2.03906 -0.64454,-0.76562 2.81836,-2.36719 -2.81836,-2.36719 0.64454,-0.76562 2.42773,2.03906 z m 1,2.41406 v 3.24024 l 1.75977,-1.48047 z m 0,5.3457 v 3.24024 l 1.75977,-1.75977 z" opacity=".35" fill="#4c5263" transform="translate(-685 495.02)"/>
</svg>
