<svg xmlns="http://www.w3.org/2000/svg" width="16" height="16">
    <path d="m 532.0002,-414 1.79297,1.79297 -1.79297,1.79297 -2.29297,-2.29297 -0.70703,-0.70703 -1.41406,1.41406 0.70703,0.70703 3,3 a 1.0001,1.0001 0 0 0 1.41406,0 l 2.5,-2.5 1.79297,1.79297 v -5 z" style="line-height:normal;text-indent:0;text-align:start;text-decoration-line:none;text-decoration-style:solid;text-decoration-color:#000;text-transform:none;white-space:normal;isolation:auto;mix-blend-mode:normal;solid-color:#000;solid-opacity:1" color="#000" font-weight="400" font-family="sans-serif" overflow="visible" opacity=".35" fill="#525252" fill-rule="evenodd" transform="translate(-524 415)"/>
    <path d="m 532.14473,-406.98633 c -2.67808,-0.0394 -5.25808,1.00686 -7.15234,2.90039 l -0.70117,0.70117 c -0.38825,0.38825 -0.38825,1.0141 0,1.40235 l 2.10351,2.10156 c 0.38823,0.38824 1.01214,0.38824 1.40039,0 l 1.20508,-1.20312 v -2.25782 0 l 0.19727,-0.082 c 1.78668,-0.78535 3.82153,-0.7818 5.60546,0.01 l 0.19727,0.0723 v 0 2.25782 l 0.50391,0.50195 0.70117,0.70117 c 0.38825,0.38825 1.01216,0.38824 1.40039,0 l 2.10351,-2.10156 c 0.38825,-0.38825 0.38825,-1.0141 0,-1.40235 l -0.70117,-0.70117 c -1.82342,-1.8227 -4.28535,-2.8631 -6.86328,-2.90039 z" fill="#4c5263" transform="translate(-524 415)"/>
</svg>
