<svg xmlns="http://www.w3.org/2000/svg" width="16" height="16.003">
    <path d="m 667.5002,-514 c -0.831,0 -1.5,0.669 -1.5,1.5 v 12 c 0,0.831 0.669,1.5 1.5,1.5 h 12 c 0.831,0 1.5,-0.669 1.5,-1.5 v -12 c 0,-0.831 -0.669,-1.5 -1.5,-1.5 z m 5.5,2 h 1 c 1.662,0 3,1.338 3,3 v 2 c 0.554,0 1,0.446 1,1 v 4 c 0,0.554 -0.446,1 -1,1 h -7 c -0.554,0 -1,-0.446 -1,-1 v -4 c 0,-1 1,-1 1,-1 v -2 c 0,-1.662 1.338,-3 3,-3 z m 0,1 c -1.108,0 -2.01816,0.89215 -2,2 v 2 h 5 v -2 c 0,-1.108 -0.892,-2 -2,-2 z m 0.5,5 c -0.82843,0 -1.5,0.67157 -1.5,1.5 8.9e-4,0.6349 0.40141,1.20048 1,1.41211 V -502 h 1 v -1.08789 c 0.59859,-0.21163 0.99911,-0.77721 1,-1.41211 0,-0.82843 -0.67157,-1.5 -1.5,-1.5 z" fill="#4c5263" transform="translate(-665 515.003)"/>
</svg>
