<svg xmlns="http://www.w3.org/2000/svg" width="16" height="16">
    <g color="#000" fill="#4c5263">
        <path d="m 609.0002,-333 c -1.108,0 -2,0.892 -2,2 v 8 c 0,1.108 0.892,2 2,2 h 8 c 1.108,0 2,-0.892 2,-2 v -8 c 0,-1.108 -0.892,-2 -2,-2 z m 0,1 h 8 c 0.554,0 1,0.446 1,1 v 8 c 0,0.554 -0.446,1 -1,1 h -8 c -0.554,0 -1,-0.446 -1,-1 v -8 c 0,-0.554 0.446,-1 1,-1 z" style="marker:none" overflow="visible" transform="translate(-605 335.003)"/>
        <path d="m 608.97003,-328.01529 h 8.03017 V -326 h -8.03017 z" style="marker:none" overflow="visible" transform="translate(-605 335.003)"/>
    </g>
</svg>
