<svg xmlns="http://www.w3.org/2000/svg" width="16" height="16">
    <g color="#000" fill="#4c5263">
        <path d="M4 2.003c-1.108 0-2 .892-2 2v8c0 1.108.892 2 2 2h8c1.108 0 2-.892 2-2v-4.75L13 8.41v3.593c0 .554-.446 1-1 1H4c-.554 0-1-.446-1-1v-8c0-.554.446-1 1-1h8c.127 0 .231.05.344.094l.687-.812A2.014 2.014 0 0012 2.003z" style="marker:none" overflow="visible"/>
        <path d="M14.844 2.035a1.01 1.01 0 00-.563.343L8 9.566l-2.25-2.25c-.377-.377-1.061-.377-1.438 0-.376.376-.376 1.061 0 1.437l3 3 .782.75.687-.812 7-8c.567-.618-.116-1.825-.937-1.656z" style="line-height:normal;-inkscape-font-specification:Sans;text-indent:0;text-align:start;text-decoration-line:none;text-transform:none;marker:none" font-weight="400" font-family="Sans" overflow="visible"/>
    </g>
</svg>
