<svg xmlns="http://www.w3.org/2000/svg" width="16" height="16">
    <g color="#000" fill="#4c5263">
        <path d="m 609.0002,-353 c -1.108,0 -2,0.892 -2,2 v 8 c 0,1.108 0.892,2 2,2 h 8 c 1.108,0 2,-0.892 2,-2 v -4.75 l -1,1.15625 V -343 c 0,0.554 -0.446,1 -1,1 h -8 c -0.554,0 -1,-0.446 -1,-1 V -346.96875 -351 c 0,-0.554 0.446,-1 1,-1 h 8 c 0.12764,0 0.23171,0.0505 0.34375,0.0937 l 0.6875,-0.8125 C 617.73172,-352.8976 617.376,-353 617.0002,-353 Z" style="marker:none" overflow="visible" transform="translate(-605 355.003)"/>
        <path d="m 619.84395,-352.96875 c -0.21888,0.0473 -0.42059,0.17053 -0.5625,0.34375 l -6.28125,7.1875 -2.25,-2.25 c -0.37633,-0.37638 -1.06119,-0.3764 -1.43755,-5e-5 -0.37635,0.37636 -0.37633,1.06122 5e-5,1.43755 l 3,3 0.78125,0.75 0.6875,-0.8125 7,-8 c 0.56742,-0.61773 -0.11583,-1.8248 -0.9375,-1.65625 z" style="line-height:normal;-inkscape-font-specification:Sans;text-indent:0;text-align:start;text-decoration-line:none;text-transform:none;marker:none" font-weight="400" font-family="Sans" overflow="visible" transform="translate(-605 355.003)"/>
    </g>
</svg>
