<svg xmlns="http://www.w3.org/2000/svg" width="16" height="16">
    <path d="M7.984 0a1 1 0 00-.691.293l-7 7a1 1 0 000 1.414l7 7a1 1 0 001.414 0l7-7a1 1 0 000-1.414l-7-7A1 1 0 007.984 0zM8 4a2 2 0 110 4v1H7V7h1a1 1 0 10-1-1H6a2 2 0 012-2zm-.5 5.75a.75.75 0 110 1.5.75.75 0 010-1.5z" style="line-height:normal;text-indent:0;text-align:start;text-decoration-line:none;text-decoration-style:solid;text-decoration-color:#000;text-transform:none;white-space:normal;isolation:auto;mix-blend-mode:normal;solid-color:#000;solid-opacity:1" color="#000" font-weight="400" font-family="sans-serif" overflow="visible" fill="#4c5263" fill-rule="evenodd"/>
</svg>
