<svg xmlns="http://www.w3.org/2000/svg" width="16" height="16">
    <g fill="#4c5263">
        <path d="m 433.0002,-494.28125 c -0.73799,0.72824 -1.44477,1.55677 -2.19141,2.28125 h -2.80859 v 2.80859 c -0.72459,0.74666 -1.55292,1.4534 -2.28125,2.19141 0.72849,0.73824 1.55656,1.47349 2.28125,2.22266 V -482 h 2.80664 c 0.74736,0.725 1.45473,1.55231 2.19336,2.28125 0.73886,-0.7291 1.47479,-1.55615 2.22461,-2.28125 h 2.77539 v -2.77734 c 0.72474,-0.74912 1.5527,-1.48443 2.28125,-2.22266 -0.72829,-0.73805 -1.5567,-1.44467 -2.28125,-2.19141 V -492 h -2.77734 c -0.74913,-0.72473 -1.48445,-1.55272 -2.22266,-2.28125 z m 0,3.28125 c 2.20914,0 4,1.79086 4,4 0,2.20914 -1.79086,4 -4,4 -2.20914,0 -4,-1.79086 -4,-4 0,-2.20914 1.79086,-4 4,-4 z" opacity=".35" transform="translate(-425 495.003)"/>
        <path d="m 433.0002,-490 c -1.65685,0 -3,1.34315 -3,3 0,1.65685 1.34315,3 3,3 z" opacity=".35" transform="translate(-425 495.003)"/>
    </g>
</svg>
