<svg xmlns="http://www.w3.org/2000/svg" width="16" height="16">
    <path d="M8 .722c-.738.728-1.445 1.557-2.192 2.281H3v2.809c-.725.747-1.553 1.453-2.281 2.191.728.739 1.556 1.474 2.28 2.223v2.777h2.807c.748.725 1.455 1.553 2.194 2.282.739-.73 1.475-1.557 2.224-2.282H13v-2.777c.725-.75 1.552-1.484 2.281-2.223-.728-.738-1.557-1.444-2.281-2.191V3.003h-2.778C9.473 2.28 8.738 1.451 8 .723zm0 3.281a4 4 0 110 8 4 4 0 010-8zm0 1a3 3 0 00-3 3 3 3 0 003 3 3 3 0 003-3 3 3 0 00-3-3z" fill="#4c5263"/>
</svg>
