<svg xmlns="http://www.w3.org/2000/svg" width="16" height="16">
    <path d="m 465.0002,-393 v 10.01007 c 2e-5,0.83333 0.57399,1.50574 1.0625,1.75 0.48851,0.24436 0.9375,0.25 0.9375,0.25 h 12 c 0,0 0.44899,-0.006 0.9375,-0.25 0.48851,-0.24426 1.0625,-0.91667 1.0625,-1.75 v -5 h -13.03125 l -0.46875,5.03125 c -0.0164,0.2618 -0.26945,0.48511 -0.53125,0.46875 -0.2618,-0.0164 -0.48511,-0.26945 -0.46875,-0.53125 l 0.5,-5.5 c 0.01,-0.22281 0.18713,-0.42714 0.40625,-0.46875 0.0312,-0.003 0.0626,-0.003 0.0937,0 h 11.5 l 5e-5,-2.01007 c 0,-1 -0.96528,-0.98993 -0.96528,-0.98993 h -4.53477 L 471.0002,-394 h -5 c 0,0 -1,0 -1,1 z" style="line-height:normal;-inkscape-font-specification:Sans;text-indent:0;text-align:start;text-decoration-line:none;text-transform:none;marker:none" color="#000" font-weight="400" font-family="Sans" overflow="visible" fill="#4c5263" transform="translate(-465 395)"/>
</svg>
