<svg xmlns="http://www.w3.org/2000/svg" width="16" height="16.003">
    <path d="m 554.0002,-395 c -1.64369,0 -2.99782,1.35287 -3,2.99609 h 2 c 0.002,-0.56217 0.43722,-0.99609 1,-0.99609 0.56278,0 0.99793,0.43392 1,0.99609 h 2 c -0.002,-1.64322 -1.35631,-2.99609 -3,-2.99609 z m -3,3 v 8 h 2 v -8 z m 4,0 v 8.5 c 0,1.39256 -1.10744,2.5 -2.5,2.5 -1.39256,0 -2.5,-1.10744 -2.5,-2.5 v -7.5 h -2 v 7.5 c 0,2.47344 2.02656,4.5 4.5,4.5 2.47344,0 4.5,-2.02656 4.5,-4.5 v -8.5 z" fill="#4c5263" transform="translate(-545 395.003)"/>
</svg>
