<svg xmlns="http://www.w3.org/2000/svg" width="16" height="16">
    <g fill="#4c5263">
        <path d="m 669.0004,-632.00336 c -1.6447,0 -3,1.3553 -3,3 v 4 c 0,1.6447 1.3553,3 3,3 h 1 0.65625 3.34375 3 c 1.6447,0 3,-1.3553 3,-3 v -4 c 0,-1.6447 -1.3553,-3 -3,-3 h -0.25 -0.75 v 0.5 1 0.5 h 0.75 0.25 c 0.5713,0 1,0.4287 1,1 v 4 c 0,0.5713 -0.4287,1 -1,1 h -3 -3.34375 -0.65625 -1 c -0.5713,0 -1,-0.4287 -1,-1 v -4 c 0,-0.5713 0.4287,-1 1,-1 h 3 v -2 z" style="text-indent:0;text-transform:none" color="#000" transform="translate(-665 635.003)"/>
        <path d="m 675.00065,-631.00336 -4,-3 v 6 z" transform="translate(-665 635.003)"/>
    </g>
</svg>
