<svg xmlns="http://www.w3.org/2000/svg" width="16" height="16">
    <path d="m 651.00035,-634.00334 v 2 h -2 c -1.6447,0 -3,1.3553 -3,3 v 4 c 0,1.6447 1.3553,3 3,3 h 8 c 1.6447,0 3,-1.3553 3,-3 v -4 c 0,-1.6447 -1.3553,-3 -3,-3 h -0.25 -0.75 v 0.5 1 0.25 0.25 h 1 c 0.5713,0 1,0.4287 1,1 v 4 c 0,0.5713 -0.4287,1 -1,1 h -8 c -0.5713,0 -1,-0.4287 -1,-1 v -4 c 0,-0.5713 0.4287,-1 1,-1 h 2 v 2 l 4,-3 z" style="text-indent:0;text-transform:none" color="#000" opacity=".35" fill="#4c5263" transform="translate(-645 635.003)"/>
</svg>
