<svg xmlns="http://www.w3.org/2000/svg" width="16" height="16">
    <g fill="#4c5263">
        <path d="M666.00065-592.00336v.9375 1.0625h4c.5713 0 1 .4287 1 1v4c0 1.6447 1.3553 3 3 3h5v-2h-5c-.5713 0-1-.4287-1-1v-4c0-1.6447-1.3553-3-3-3zM674.00065-592.00336c-.22957 0-.44085.0438-.65625.0937.4813.5511.86125 1.1776 1.0312 1.9062h4.625v-2h-5zm-8 10h4c.22957 0 .44085-.0438.65625-.0937-.4813-.55115-.86125-1.1777-1.0312-1.9063h-3.62505z" style="text-indent:0;text-transform:none" color="#bebebe" transform="translate(-665 595.003)"/>
        <path d="M677.00065-594.00336v6l4-3zM677.00065-586.00336v6l4-3z" transform="translate(-665 595.003)"/>
    </g>
</svg>
