<svg xmlns="http://www.w3.org/2000/svg" width="16" height="16">
    <g fill="#4c5263">
        <path d="m 669.00044,-612.00338 c -1.6447,0 -3,1.3553 -3,3 v 4 c 0,1.6447 1.3553,3 3,3 h 1 0.65625 1.625 c -0.16854,-0.47255 -0.28125,-0.96957 -0.28125,-1.5 0,-0.17178 0.0438,-0.33323 0.0625,-0.5 h -1.40625 -0.65625 -1 c -0.5713,0 -1,-0.4287 -1,-1 v -4 c 0,-0.5713 0.4287,-1 1,-1 h 3 v -2 z m 7,0 v 0.5 1 0.5 h 1 c 0.5713,0 1,0.4287 1,1 v 1.28125 c 0.79448,0.28335 1.48291,0.76028 2,1.40625 v -2.6875 c 0,-1.6447 -1.3553,-3 -3,-3 z" style="text-indent:0;text-transform:none" color="#000" transform="translate(-665 615.003)"/>
        <path d="m 675.00064,-611.00336 -4,-3 v 6 z" transform="translate(-665 615.003)"/>
        <path d="m 676.50039,-607.00336 c -1.933,0 -3.5,1.567 -3.5,3.5 0,1.933 1.567,3.5 3.5,3.5 1.933,0 3.5,-1.567 3.5,-3.5 0,-1.933 -1.567,-3.5 -3.5,-3.5 z m -0.5,1 h 1 v 5 h -1 v -3.5 h -1 v -0.5 c 1,0 1,-1 1,-1 z" style="marker:none" color="#bebebe" overflow="visible" transform="translate(-665 615.003)"/>
    </g>
</svg>
