<svg xmlns="http://www.w3.org/2000/svg" width="16" height="16">
    <g fill="#4c5263">
        <path d="M700.0004-592.00336v.9375 1.0625h-4c-.5713 0-1 .4287-1 1v4c0 1.6447-1.3553 3-3 3h-5v-2h5c.5713 0 1-.4287 1-1v-4c0-1.6447 1.3553-3 3-3zM692.0004-592.00336c.22957 0 .44085.0438.65625.0937-.4813.5511-.86125 1.1776-1.0312 1.9062h-4.625v-2h5zm8 10h-4c-.22957 0-.44085-.0438-.65625-.0937.4813-.55115.86125-1.1777 1.0312-1.9063h3.62505z" style="text-indent:0;text-transform:none" color="#bebebe" transform="translate(-685 595.003)"/>
        <path d="M689.0004-594.00336v6l-4-3zM689.0004-586.00336v6l-4-3z" transform="translate(-685 595.003)"/>
    </g>
</svg>
