<svg xmlns="http://www.w3.org/2000/svg" width="16" height="16">
    <path d="M4 2.5C2.08 2.5.5 4.08.5 6v4c0 1.919 1.58 3.5 3.5 3.5h8c1.919 0 3.5-1.581 3.5-3.5V6c0-1.92-1.581-3.5-3.5-3.5h-1.5v3H12c.32 0 .5.178.5.5v4c0 .32-.18.5-.5.5H4c-.322 0-.5-.18-.5-.5V6c0-.322.178-.5.5-.5h3.5v-3zm0 1h2.5v1H4c-.822 0-1.5.678-1.5 1.5v4c0 .82.678 1.5 1.5 1.5h8c.821 0 1.5-.68 1.5-1.5V6c0-.822-.679-1.5-1.5-1.5h-.5v-1h.5c1.37 0 2.5 1.13 2.5 2.5v4c0 1.37-1.13 2.5-2.5 2.5H4c-1.37 0-2.5-1.13-2.5-2.5V6c0-1.37 1.13-2.5 2.5-2.5z" style="line-height:normal;font-variant-ligatures:normal;font-variant-position:normal;font-variant-caps:normal;font-variant-numeric:normal;font-variant-alternates:normal;font-feature-settings:normal;text-indent:0;text-align:start;text-decoration-line:none;text-decoration-style:solid;text-decoration-color:#000;text-transform:none;text-orientation:mixed;white-space:normal;shape-padding:0;isolation:auto;mix-blend-mode:normal;solid-color:#000;solid-opacity:1" color="#000" font-weight="400" font-family="sans-serif" overflow="visible"/>
    <path d="M10 4L6 1v6z" fill="#4c5263"/>
</svg>
