<svg xmlns="http://www.w3.org/2000/svg" width="16.001" height="16.001">
    <g fill="#4c5263">
        <path d="M2.345.938l12.718 12.719-1.406 1.406L.938 2.345z" style="marker:none" color="#000" overflow="visible"/>
        <path d="M8 0a2.995 2.995 0 00-2.764 1.83v.002l5.766 5.764V3c0-1.662-1.338-3-3-3zM5 4.408v3.594a2.993 2.993 0 005.391 1.797zM2 7.001v1a5.992 5.992 0 005 5.906v2.094h2v-2.094a5.988 5.988 0 003.524-1.977l-1.418-1.417A3.961 3.961 0 018.001 12a3.97 3.97 0 01-4-4V7zm10 0v1c0 .186-.028.362-.052.54l1.637 1.638A5.958 5.958 0 0014 8V7z" style="marker:none" color="#bebebe" overflow="visible"/>
    </g>
</svg>
