<svg xmlns="http://www.w3.org/2000/svg" width="16.001" height="16.001">
    <path d="m 393.00098,-514.99851 c -1.66209,0 -3,1.33792 -3,3 v 5 c 0,1.66208 1.33791,3 3,3 1.66208,0 3,-1.33792 3,-3 v -5 c 0,-1.66208 -1.33792,-3 -3,-3 z m 0,2 c 0.554,0 1,0.446 1,1 v 5 c 0,0.554 -0.446,1 -1,1 -0.554,0 -1,-0.446 -1,-1 v -5 c 0,-0.554 0.446,-1 1,-1 z m -6,5 v 1 c 0,2.96947 2.16237,5.43216 5,5.90625 v 2.09375 h 2 v -2.09375 c 2.83763,-0.47409 5,-2.93678 5,-5.90625 v -1 h -2 v 1 c 0,2.23341 -1.76659,4 -4,4 -2.23342,0 -4,-1.76659 -4,-4 v -1 z" style="marker:none" color="#bebebe" overflow="visible" fill="#4c5263" transform="translate(-385 515)"/>
</svg>
