<svg xmlns="http://www.w3.org/2000/svg" width="16.001" height="16.001">
    <g fill="#4c5263">
        <path d="m 427.3448,-514.06101 12.71875,12.71875 -1.40625,1.40625 -12.71875,-12.71875 z" style="marker:none" color="#000" overflow="visible" transform="translate(-425 515)"/>
        <path d="m 433.00098,-514.99851 c -1.24595,0 -2.31105,0.7515 -2.76562,1.82813 -2.3e-4,5.3e-4 2.2e-4,0.001 0,0.002 l 5.76562,5.76363 v -4.59375 c 0,-1.66208 -1.33792,-3 -3,-3 z m -3,4.40625 v 3.59375 c 0,1.66208 1.33791,3 3,3 0.98363,0 1.84418,-0.47608 2.39062,-1.20312 z m -3,2.59375 v 1 c 0,2.96947 2.16237,5.43216 5,5.90625 v 2.09375 h 2 v -2.09375 c 1.39887,-0.23371 2.63093,-0.95383 3.52344,-1.97656 l -1.41797,-1.41797 c -0.72909,0.90441 -1.8347,1.48828 -3.10547,1.48828 -2.23342,0 -4,-1.76659 -4,-4 v -1 z m 10,0 v 1 c 0,0.18587 -0.029,0.36236 -0.0527,0.54102 l 1.63671,1.63671 c 0.26447,-0.6756 0.41599,-1.4083 0.41599,-2.17773 v -1 z" style="marker:none" color="#bebebe" overflow="visible" transform="translate(-425 515)"/>
    </g>
</svg>
