<svg xmlns="http://www.w3.org/2000/svg" width="16" height="16.003">
    <g fill="#4c5263">
        <path d="M8 1.005a11.28 11.28 0 00-8 3.31l8 9.688 2-2.422v-1.578h1.303L16 4.316a11.28 11.28 0 00-8-3.31z" opacity=".35"/>
        <path d="M11 11.003v1c0 .277.1.538.281.72l.781.78-.78.782a1.015 1.015 0 00-.282.718v1h1c.276 0 .538-.1.719-.28l.781-.782.781.781c.181.181.443.281.719.281h1v-1c0-.276-.1-.537-.281-.718l-.781-.782.78-.78c.182-.182.282-.443.282-.72v-1h-1c-.276 0-.538.1-.719.282l-.781.78-.781-.78a1.015 1.015 0 00-.719-.282z"/>
    </g>
</svg>
