<svg xmlns="http://www.w3.org/2000/svg" width="16" height="16">
    <g fill="#4c5263">
        <path d="m 300.00312,-593.99478 -4,4 h 4 z m -10,10 -4,4 h 14 v -4 z" opacity=".35" transform="translate(-285.004 594.998)"/>
        <path d="m 288.00312,-588.99478 c -1.108,0 -2,0.892 -2,2 0,1.108 0.892,2 2,2 1.108,0 2,-0.892 2,-2 0,-1.108 -0.892,-2 -2,-2 z m 5,0 c -1.108,0 -2,0.892 -2,2 0,1.108 0.892,2 2,2 1.108,0 2,-0.892 2,-2 0,-1.108 -0.892,-2 -2,-2 z m 5,0 c -1.108,0 -2,0.892 -2,2 0,1.108 0.892,2 2,2 1.108,0 2,-0.892 2,-2 0,-1.108 -0.892,-2 -2,-2 z" style="marker:none" color="#000" overflow="visible" transform="translate(-285.004 594.998)"/>
    </g>
</svg>
