<svg xmlns="http://www.w3.org/2000/svg" width="16" height="16">
    <g fill="#4c5263">
        <path d="M8 1.005a11.28 11.28 0 00-8 3.31l.568.688h14.864L16 4.316a11.28 11.28 0 00-8-3.31zm-2.477 9.998l2.477 3 2.477-3z" opacity=".35"/>
        <path d="M2.997 6c-1.108 0-2 .892-2 2s.892 2 2 2 2-.892 2-2-.892-2-2-2zm5 0c-1.108 0-2 .892-2 2s.892 2 2 2 2-.892 2-2-.892-2-2-2zm5 0c-1.108 0-2 .892-2 2s.892 2 2 2 2-.892 2-2-.892-2-2-2z" style="marker:none" color="#000" overflow="visible"/>
    </g>
</svg>
