<svg xmlns="http://www.w3.org/2000/svg" width="16" height="16">
    <path d="m 327.00336,-632.995 c 0,0 -1,0 -1,1 v 9 c 0,1 1,1 1,1 h 2 l 1,1 h 6 l 1,-1 h 2 c 0,0 1,0.12994 1,-1 v -9 c 0,-1 -1,-1 -1,-1 z m 6,2 c 1.10457,0 2,0.89543 2,2 0,1.10457 -0.89543,2 -2,2 v 1 h -1 v -2 h 1 c 0.55229,0 1,-0.44772 1,-1 0,-0.55228 -0.44771,-1 -1,-1 -0.55228,0 -1,0.44772 -1,1 h -1 c 0,-1.10457 0.89543,-2 2,-2 z m -0.5,5.75 c 0.41421,0 0.75,0.33579 0.75,0.75 0,0.41421 -0.33579,0.75 -0.75,0.75 -0.41421,0 -0.75,-0.33579 -0.75,-0.75 0,-0.41421 0.33579,-0.75 0.75,-0.75 z" fill="#4c5263" transform="translate(-325.004 634.998)"/>
</svg>
