<svg xmlns="http://www.w3.org/2000/svg" width="16" height="16">
    <g fill="#4c5263">
        <path d="M2 2.003s-1 0-1 1v2h2v-1h10v1h2v-2c0-1-1-1-1-1zm-1 9v1c0 1 1 1 1 1h2l1 1h6l1-1h2s1 .13 1-1v-1h-4l-1 1H6l-1-1H3z" opacity=".35"/>
        <path d="M3 6.003c-1.108 0-2 .892-2 2s.892 2 2 2 2-.892 2-2-.892-2-2-2zm5 0c-1.108 0-2 .892-2 2s.892 2 2 2 2-.892 2-2-.892-2-2-2zm5 0c-1.108 0-2 .892-2 2s.892 2 2 2 2-.892 2-2-.892-2-2-2z" style="marker:none" color="#000" overflow="visible"/>
    </g>
</svg>
