<svg xmlns="http://www.w3.org/2000/svg" width="16" height="16.003">
    <g fill="#4c5263">
        <path d="M4.5 3.003a4.5 4.5 0 000 9 4.5 4.5 0 004.236-3L12 9v1.004h3V8.995L16 9V6l-7.264.004a4.5 4.5 0 00-4.236-3zm0 3a1.5 1.5 0 110 3 1.5 1.5 0 010-3z" opacity=".35"/>
        <path d="M11 11.003v1c0 .277.1.538.281.72l.781.78-.781.782a1.015 1.015 0 00-.281.718v1h1c.276 0 .538-.1.719-.28l.78-.782.782.781c.181.181.443.281.719.281h1v-1c0-.276-.1-.537-.281-.718l-.782-.782.782-.78c.18-.182.28-.443.28-.72v-1h-1c-.275 0-.537.1-.718.282l-.781.78-.781-.78a1.015 1.015 0 00-.72-.282z"/>
    </g>
</svg>
