<svg xmlns="http://www.w3.org/2000/svg" width="16" height="16">
    <g fill="#4c5263">
        <path d="M2 2.003s-1 0-1 1v9c0 1 1 1 1 1h2l1 1h5v-2H6l-1-1H3v-7h10v6h2v-7c0-1-1-1-1-1z" opacity=".35"/>
        <path d="M11 11v1c0 .276.1.538.281.719l.781.781-.78.781A1.015 1.015 0 0011 15v1h1c.276 0 .538-.1.719-.281l.781-.781.781.78c.181.182.443.282.719.282h1v-1c0-.276-.1-.538-.281-.719l-.782-.781.782-.781c.18-.181.281-.443.281-.719v-1h-1c-.276 0-.538.1-.719.281l-.781.781-.781-.78A1.015 1.015 0 0012 11z"/>
    </g>
</svg>
