<svg xmlns="http://www.w3.org/2000/svg" width="16" height="16">
    <g fill="#4c5263">
        <path d="m 289.50336,-670.995 c -1.06313,0 -2.02683,0.38353 -2.79688,1 h 5.59961 c -0.77946,-0.62546 -1.7558,-0.99853 -2.80273,-1 z m -3.73828,7 c 0.8074,1.20511 2.17874,2 3.73828,2 1.52116,-0.002 2.89978,-0.77661 3.7207,-2 z m 11.23828,0 v 0.99609 h 3 v -0.99609 z" opacity=".35" transform="translate(-285.004 674.998)"/>
        <path d="m 288.00336,-668.995 c -1.108,0 -2,0.892 -2,2 0,1.108 0.892,2 2,2 1.108,0 2,-0.892 2,-2 0,-1.108 -0.892,-2 -2,-2 z m 5,0 c -1.108,0 -2,0.892 -2,2 0,1.108 0.892,2 2,2 1.108,0 2,-0.892 2,-2 0,-1.108 -0.892,-2 -2,-2 z m 5,0 c -1.108,0 -2,0.892 -2,2 0,1.108 0.892,2 2,2 1.108,0 2,-0.892 2,-2 0,-1.108 -0.892,-2 -2,-2 z" style="marker:none" color="#000" overflow="visible" transform="translate(-285.004 674.998)"/>
    </g>
</svg>
