<svg xmlns="http://www.w3.org/2000/svg" width="16" height="16">
    <path d="m 333.00344,-613.9931 c -2.89543,0 -5.79086,1.10272 -8,3.31055 l 8,9.6875 8,-9.6875 c -2.20914,-2.20783 -5.10457,-3.31055 -8,-3.31055 z m 0,1.99805 c 1.10457,0 2,0.89543 2,2 0,1.10457 -0.89543,2 -2,2 v 1 h -1 v -2 h 1 c 0.55229,0 1,-0.44772 1,-1 0,-0.55228 -0.44771,-1 -1,-1 -0.55228,0 -1,0.44772 -1,1 h -1 c 0,-1.10457 0.89543,-2 2,-2 z m -0.5,5.75 c 0.41421,0 0.75,0.33579 0.75,0.75 0,0.41421 -0.33579,0.75 -0.75,0.75 -0.41421,0 -0.75,-0.33579 -0.75,-0.75 0,-0.41421 0.33579,-0.75 0.75,-0.75 z" fill="#4c5263" transform="translate(-325.003 614.998)"/>
</svg>
