<svg xmlns="http://www.w3.org/2000/svg" width="16" height="16">
    <path d="m 349.50356,-671.99499 c -2.48528,0 -4.5,2.01472 -4.5,4.5 0,2.48528 2.01472,4.5 4.5,4.5 1.90471,-0.003 3.60143,-1.20422 4.23633,-3 l 3.26367,-0.004 v 2 h 3 v -2.00391 l 1,0.004 v -3 l -7.26367,0.004 c -0.6349,-1.79578 -2.33162,-2.99733 -4.23633,-3 z m 0,3 c 0.82843,0 1.5,0.67157 1.5,1.5 0,0.82843 -0.67157,1.5 -1.5,1.5 -0.82843,0 -1.5,-0.67157 -1.5,-1.5 0,-0.82843 0.67157,-1.5 1.5,-1.5 z" fill="#4c5263" transform="translate(-345.004 674.998)"/>
</svg>
