<svg xmlns="http://www.w3.org/2000/svg" width="16" height="16">
    <g color="#000" fill="#4c5263">
        <path d="m 288,-648.99497 c -1.108,0 -2,0.892 -2,2 0,1.108 0.892,2 2,2 1.108,0 2,-0.892 2,-2 0,-1.108 -0.892,-2 -2,-2 z m 5,0 c -1.108,0 -2,0.892 -2,2 0,1.108 0.892,2 2,2 1.108,0 2,-0.892 2,-2 0,-1.108 -0.892,-2 -2,-2 z m 5,0 c -1.108,0 -2,0.892 -2,2 0,1.108 0.892,2 2,2 1.108,0 2,-0.892 2,-2 0,-1.108 -0.892,-2 -2,-2 z" style="marker:none" overflow="visible" transform="translate(-285 654.998)"/>
        <path d="m 295,-654.99497 c 0.004,0.003 0,1.33333 0,2 h -3 v 3 h 7.88867 l 0.61133,-0.5 z m -8.88867,11 4.88867,4 c -0.004,-0.003 0,-1.33333 0,-2 h 3 v -2 z" opacity=".35" transform="translate(-285 654.998)"/>
    </g>
</svg>
