<svg xmlns="http://www.w3.org/2000/svg" width="16" height="16.003">
    <g fill="#4c5263">
        <path d="m 273.00176,-613.99478 c -2.89543,0 -5.79086,1.10272 -8,3.31055 l 8,9.6875 2,-2.42187 v -1.57813 h 1.30273 l 4.69727,-5.6875 c -2.20914,-2.20783 -5.10457,-3.31055 -8,-3.31055 z" opacity=".35" transform="translate(-265.002 615)"/>
        <path d="m 276.00176,-603.99673 v 1 c 0,0.27614 0.10029,0.53779 0.28125,0.71875 l 0.78125,0.78125 -0.78125,0.78125 c -0.18096,0.18096 -0.28125,0.44261 -0.28125,0.71875 v 1 h 1 c 0.27614,0 0.53779,-0.10029 0.71875,-0.28125 l 0.78125,-0.78125 0.78125,0.78125 c 0.18096,0.18096 0.44261,0.28125 0.71875,0.28125 h 1 v -1 c 0,-0.27614 -0.10029,-0.53779 -0.28125,-0.71875 l -0.78125,-0.78125 0.78125,-0.78125 c 0.18096,-0.18096 0.28125,-0.44261 0.28125,-0.71875 v -1 h -1 c -0.27614,0 -0.53779,0.10029 -0.71875,0.28125 l -0.78125,0.78125 -0.78125,-0.78125 c -0.18096,-0.18096 -0.44261,-0.28125 -0.71875,-0.28125 z" transform="translate(-265.002 615)"/>
    </g>
</svg>
