<svg xmlns="http://www.w3.org/2000/svg" width="16" height="16.003">
    <g fill="#4c5263">
        <path d="m 269.50188,-671.99664 c -2.48528,0 -4.5,2.01472 -4.5,4.5 0,2.48528 2.01472,4.5 4.5,4.5 1.90471,-0.003 3.60143,-1.20422 4.23633,-3 l 3.26367,-0.004 -2e-4,1.004 h 3 l 2e-4,-1.00791 1,0.004 v -3 l -7.26367,0.004 c -0.6349,-1.79578 -2.33162,-2.99733 -4.23633,-3 z m 0,3 c 0.82843,0 1.5,0.67157 1.5,1.5 0,0.82843 -0.67157,1.5 -1.5,1.5 -0.82843,0 -1.5,-0.67157 -1.5,-1.5 0,-0.82843 0.67157,-1.5 1.5,-1.5 z" opacity=".35" transform="translate(-265.002 675)"/>
        <path d="m 276.00168,-663.99664 v 1 c 0,0.27614 0.10029,0.53779 0.28125,0.71875 l 0.78125,0.78125 -0.78125,0.78125 c -0.18096,0.18096 -0.28125,0.44261 -0.28125,0.71875 v 1 h 1 c 0.27614,0 0.53779,-0.10029 0.71875,-0.28125 l 0.78125,-0.78125 0.78125,0.78125 c 0.18096,0.18096 0.44261,0.28125 0.71875,0.28125 h 1 v -1 c 0,-0.27614 -0.10029,-0.53779 -0.28125,-0.71875 l -0.78125,-0.78125 0.78125,-0.78125 c 0.18096,-0.18096 0.28125,-0.44261 0.28125,-0.71875 v -1 h -1 c -0.27614,0 -0.53779,0.10029 -0.71875,0.28125 l -0.78125,0.78125 -0.78125,-0.78125 c -0.18096,-0.18096 -0.44261,-0.28125 -0.71875,-0.28125 z" transform="translate(-265.002 675)"/>
    </g>
</svg>
