<svg xmlns="http://www.w3.org/2000/svg" width="16" height="16.003">
    <path class="new" d="m 653.00034,-473.99999 c 0.55228,0 1,0.44772 1,1 -2.9e-4,0.0333 -0.002,0.0665 -0.006,0.0996 2.29032,0.45883 4.00603,2.47123 4.00586,4.90039 l -1.4e-4,1.99999 v 2.5 l 2,2 v 0.5 h -2 -10 -2 v -0.5 l 2,-2 1.4e-4,-4.49999 c 8e-5,-2.42916 1.71568,-4.44157 4.00586,-4.90039 -0.004,-0.0331 -0.006,-0.0663 -0.006,-0.0996 0,-0.55228 0.44772,-1 1,-1 z M 654.72872,-460 c -0.35663,0.61771 -1.01525,0.99874 -1.72852,1 -0.71397,-5.6e-4 -1.37349,-0.38169 -1.73047,-1 z" fill="#2196f3" transform="translate(-645 475.003)"/>
</svg>
