<svg xmlns="http://www.w3.org/2000/svg" width="16" height="16">
    <path d="m 337.48067,-466.27148 c -0.15005,0.007 -0.28696,0.0902 -0.36133,0.2207 l -3.06055,5.39648 c -0.16565,0.29157 0.0436,0.65416 0.37891,0.6543 h 6.125 c 0.33534,-1.4e-4 0.54457,-0.36273 0.37891,-0.6543 l -3.06055,-5.39648 c -0.0813,-0.14271 -0.23629,-0.22812 -0.40039,-0.2207 z M 337.0002,-465 h 1 v 2 h -1 z m 0,3 h 1 v 1 h -1 z" style="line-height:normal;text-indent:0;text-align:start;text-decoration-line:none;text-decoration-style:solid;text-decoration-color:#000;text-transform:none;white-space:normal;isolation:auto;mix-blend-mode:normal;solid-color:#000;solid-opacity:1" color="#000" font-weight="400" font-family="sans-serif" overflow="visible" fill="#ff9800" fill-rule="evenodd" transform="translate(-325 475.003)"/>
    <path d="m 329.0002,-474 v 2 h 8 v -2 z m -2,3 c -0.5,0 -1,0.5 -1,1 v 4 c 0,0.5 0.5,1 1,1 h 1 v -2 h 7 1.67383 c 0.22177,-0.15629 0.48142,-0.25653 0.75976,-0.26953 h 0.002 c 0.5384,-0.0244 1.04753,0.25604 1.31446,0.72461 l 0.76758,1.35351 c 0.27379,-0.18968 0.48237,-0.49211 0.48237,-0.80859 v -4 c 0,-0.5 -0.5,-1 -1,-1 z m 2,5 v 5 h 4.13086 c 0.0206,-0.0494 0.0314,-0.10057 0.0586,-0.14844 L 335.94161,-466 Z" fill="#4c5263" transform="translate(-325 475.003)"/>
</svg>
