<svg xmlns="http://www.w3.org/2000/svg" width="16" height="16">
    <g fill="#4c5263">
        <path d="m 289.0002,-474.00391 v 2 h 8 v -2 z m -2,3 c -0.5,0 -1,0.5 -1,1 v 0.004 h 14 v -0.004 c 0,-0.5 -0.5,-1 -1,-1 z m 2,7.00391 v 2.99609 h 8 V -464 Z" opacity=".35" transform="translate(-285 475.003)"/>
        <path d="m 288.0004,-469.00336 c -1.108,0 -2,0.892 -2,2 0,1.108 0.892,2 2,2 1.108,0 2,-0.892 2,-2 0,-1.108 -0.892,-2 -2,-2 z m 5,0 c -1.108,0 -2,0.892 -2,2 0,1.108 0.892,2 2,2 1.108,0 2,-0.892 2,-2 0,-1.108 -0.892,-2 -2,-2 z m 5,0 c -1.108,0 -2,0.892 -2,2 0,1.108 0.892,2 2,2 1.108,0 2,-0.892 2,-2 0,-1.108 -0.892,-2 -2,-2 z" style="marker:none" color="#000" overflow="visible" transform="translate(-285 475.003)"/>
    </g>
</svg>
