<svg xmlns="http://www.w3.org/2000/svg" width="16" height="16">
    <path d="M12.48 8.732a.44.44 0 00-.361.22l-3.06 5.397a.437.437 0 00.378.654h6.125a.437.437 0 00.38-.654L12.88 8.953a.439.439 0 00-.4-.221zM12 10.003h1v2h-1zm0 3h1v1h-1z" style="line-height:normal;text-indent:0;text-align:start;text-decoration-line:none;text-decoration-style:solid;text-decoration-color:#000;text-transform:none;white-space:normal;isolation:auto;mix-blend-mode:normal;solid-color:#000;solid-opacity:1" color="#000" font-weight="400" font-family="sans-serif" overflow="visible" fill="#ff9800" fill-rule="evenodd"/>
    <path d="M4 1.003v2h8v-2zm-2 3c-.5 0-1 .5-1 1v4c0 .5.5 1 1 1h1v-2h8.674c.221-.156.481-.256.76-.27h.001a1.44 1.44 0 011.315.725l.767 1.354c.274-.19.483-.492.483-.809v-4c0-.5-.5-1-1-1zm2 5v5h4.13c.021-.049.032-.1.06-.148l2.751-4.852z" fill="#4c5263"/>
</svg>
