<svg xmlns="http://www.w3.org/2000/svg" width="16" height="16">
    <path d="m 593.0004,-334.0034 c -3.85772,0 -7,3.14228 -7,7 0,3.85772 3.14228,7 7,7 3.85772,0 7,-3.14227 7,-7 0,-3.85773 -3.14229,-7 -7,-7 z m 0,1 c 3.31371,0 6,2.68629 6,6 0,3.31371 -2.68629,6 -6,6 -3.31371,0 -6,-2.68629 -6,-6 0,-3.31371 2.68629,-6 6,-6 z m -4,5 v 2 h 8 v -2 z" style="line-height:normal;-inkscape-font-specification:Sans;text-indent:0;text-align:start;text-decoration-line:none;text-transform:none;marker:none" color="#bebebe" font-weight="400" font-family="Andale Mono" overflow="visible" fill="#4c5263" transform="translate(-585 335.003)"/>
</svg>
