<svg xmlns="http://www.w3.org/2000/svg" width="16.001" height="16">
    <g fill="#4c5263">
        <path d="m 693.0002,-393 c -3.31371,0 -6,2.68629 -6,6 h -2 l 3,4 3,-4 h -2 c 0,-2.20914 1.79086,-4 4,-4 2.20914,0 4,1.79086 4,4 0,0.0668 -0.0163,0.12927 -0.0195,0.19531 0.31884,-0.11945 0.65949,-0.19531 1.0195,-0.19531 0.34924,0 0.67942,0.0728 0.99023,0.18555 0.002,-0.0622 0.01,-0.12292 0.01,-0.18555 0,-3.31371 -2.68629,-6 -6,-6 z m 1,9.85742 c -0.32138,0.0832 -0.6526,0.14258 -1,0.14258 v 2 a 1,1 0 0 0 0.0996,-0.006 c 0.30696,-0.005 0.60628,-0.0404 0.90039,-0.0898 v -0.9043 -1.14258 z m 2,1.14258 v 0.1875 c 0.10355,-0.0599 0.20517,-0.12172 0.30469,-0.1875 z" opacity=".35" transform="translate(-685 394.972)"/>
        <path d="m 698.00088,-386 c -1.108,0 -2,0.91085 -2,2.03125 V -383 h -1 v 1 2 1 h 1 4 1 v -1 -2 -1 h -1 v -0.96875 c 0,-1.1199 -0.892,-2.03125 -2,-2.03125 z m 0,1 c 0.554,0 1,0.4424 1,1 v 1 h -2 v -1 c 0,-0.5576 0.446,-1 1,-1 z" transform="translate(-685 394.972)"/>
    </g>
</svg>
