<svg xmlns="http://www.w3.org/2000/svg" width="16.001" height="16">
    <g fill="#4c5263">
        <path d="M8 1.972a6 6 0 00-6 6H0l3 4 3-4H4a4 4 0 118 0c0 .067-.016.13-.02.195.32-.119.66-.195 1.02-.195.35 0 .68.073.99.186.002-.063.01-.123.01-.186a6 6 0 00-6-6zm1 9.858a3.969 3.969 0 01-1 .142v2a1 1 0 00.1-.006c.307-.005.606-.04.9-.09V11.83zm2 1.142v.188c.104-.06.205-.122.305-.188z" opacity=".35"/>
        <path d="M13 8.972c-1.107 0-2 .911-2 2.031v.97h-1v4h6v-4h-1v-.97c0-1.12-.891-2.03-2-2.03zm0 1c.555 0 1 .443 1 1v1h-2v-1c0-.557.447-1 1-1z"/>
    </g>
</svg>
