<svg xmlns="http://www.w3.org/2000/svg" width="16" height="16">
    <path class="error" d="M8 .01L2 2v7c0 2.072 1.575 3.522 2.937 4.47C6.3 14.415 8 15.01 8 15.01s1.704-.616 3.062-1.572C12.42 12.483 14 11.045 14 9.001V2zM5.75 3.522l.619.62 1.63 1.63 1.632-1.63.619-.62 1.238 1.238-.62.62-1.63 1.63 1.63 1.631.62.62-1.238 1.238-.62-.62L8 8.25l-1.631 1.63-.62.62L4.514 9.26l.618-.619 1.63-1.63-1.63-1.632-.618-.619z" style="line-height:normal;-inkscape-font-specification:Sans;text-indent:0;text-align:start;text-decoration-line:none;text-transform:none;marker:none" color="#bebebe" font-weight="400" font-family="Sans" overflow="visible" fill="#f44336"/>
</svg>
