<svg xmlns="http://www.w3.org/2000/svg" width="16" height="16">
    <path class="warning" d="m 333.0002,-394.28125 c -0.73799,0.72824 -1.44477,1.55671 -2.19141,2.28125 h -2.80859 v 2.80859 c -0.72465,0.74666 -1.55292,1.4534 -2.28125,2.19141 0.72849,0.73824 1.55651,1.47349 2.28125,2.22266 V -382 h 2.80664 c 0.74736,0.72494 1.45473,1.55231 2.19336,2.28125 0.73886,-0.7291 1.47479,-1.55622 2.22461,-2.28125 h 2.77539 v -2.77734 c 0.72478,-0.74913 1.55272,-1.48445 2.28125,-2.22266 -0.72829,-0.73805 -1.55664,-1.44471 -2.28125,-2.19141 V -392 h -2.77734 c -0.74913,-0.72478 -1.48446,-1.55272 -2.22266,-2.28125 z m -1,3.28125 h 2 v 2.99609 V -386 h -2 v -2.00391 z m 0,5.99609 h 2 v 2 h -2 z" fill="#ff9800" transform="translate(-325 395.003)"/>
</svg>
