<svg xmlns="http://www.w3.org/2000/svg" width="16" height="16.003">
    <g fill="#4c5263">
        <path d="m 693.0002,-355 c -1.06855,-0.0284 -2.02842,0.93145 -2,2 h -4 c 0,0 -1,0 -1,1 v 11 c 0,1 1,1 1,1 h 8 v -3 h -6 v -1 h 6 v -1 h 5 v -7 c 0,-1 -1,-1 -1,-1 h -4 c 0.0469,-1.08177 -0.93065,-2.02193 -2,-2 z m 0,1 c 0.83678,-0.0296 1.35434,1.15278 0.71875,1.71875 -0.54266,0.60179 -1.67751,0.18423 -1.71875,-0.625 -0.0722,-0.57256 0.42311,-1.10726 1,-1.09375 z m -4,4 h 8 v 1 h -8 z m 0,3 h 8 v 1 h -8 z" style="marker:none" color="#000" overflow="visible" opacity=".35" transform="translate(-685.032 355.003)"/>
        <path d="m 696.0002,-344 v 1 c 0,0.27614 0.10029,0.53779 0.28125,0.71875 l 0.78125,0.78125 -0.78125,0.78125 c -0.18096,0.18096 -0.28125,0.44261 -0.28125,0.71875 v 1 h 1 c 0.27614,0 0.53779,-0.10029 0.71875,-0.28125 l 0.78125,-0.78125 0.78125,0.78125 c 0.18096,0.18096 0.44261,0.28125 0.71875,0.28125 h 1 v -1 c 0,-0.27614 -0.10029,-0.53779 -0.28125,-0.71875 l -0.78125,-0.78125 0.78125,-0.78125 c 0.18096,-0.18096 0.28125,-0.44261 0.28125,-0.71875 v -1 h -1 c -0.27614,0 -0.53779,0.10029 -0.71875,0.28125 l -0.78125,0.78125 -0.78125,-0.78125 C 697.53799,-343.89971 697.27634,-344 697.0002,-344 Z" transform="translate(-685.032 355.003)"/>
    </g>
</svg>
