<svg xmlns="http://www.w3.org/2000/svg" width="16" height="16">
    <g fill="#4c5263">
        <path d="m 686.0002,-373 c -0.9998,0 -1,1 -1,1 v 11 c 0,0 0,1 1,1 h 9 v -2 h -2 v -3 h 5 2 v -7 c 0,-1 -1,-1 -1,-1 z m 1,2 h 11 v 5 h -11 z m 0,6 h 5 v 3 h -5 z" opacity=".35" transform="translate(-685 375.003)"/>
        <path d="m 696.00039,-364.00336 v 1 c 0,0.27614 0.10029,0.53779 0.28125,0.71875 l 0.78125,0.78125 -0.78125,0.78125 c -0.18096,0.18096 -0.28125,0.44261 -0.28125,0.71875 v 1 h 1 c 0.27614,0 0.53779,-0.10029 0.71875,-0.28125 l 0.78125,-0.78125 0.78125,0.78125 c 0.18096,0.18096 0.44261,0.28125 0.71875,0.28125 h 1 v -1 c 0,-0.27614 -0.10029,-0.53779 -0.28125,-0.71875 l -0.78125,-0.78125 0.78125,-0.78125 c 0.18096,-0.18096 0.28125,-0.44261 0.28125,-0.71875 v -1 h -1 c -0.27614,0 -0.53779,0.10029 -0.71875,0.28125 l -0.78125,0.78125 -0.78125,-0.78125 c -0.18096,-0.18096 -0.44261,-0.28125 -0.71875,-0.28125 z" transform="translate(-685 375.003)"/>
    </g>
</svg>
