<svg xmlns="http://www.w3.org/2000/svg" width="16" height="16">
    <g color="#000" fill="#4c5263">
        <path d="m 288.0004,-449.00336 c -1.108,0 -2,0.892 -2,2 0,1.108 0.892,2 2,2 1.108,0 2,-0.892 2,-2 0,-1.108 -0.892,-2 -2,-2 z m 5,0 c -1.108,0 -2,0.892 -2,2 0,1.108 0.892,2 2,2 1.108,0 2,-0.892 2,-2 0,-1.108 -0.892,-2 -2,-2 z m 5,0 c -1.108,0 -2,0.892 -2,2 0,1.108 0.892,2 2,2 1.108,0 2,-0.892 2,-2 0,-1.108 -0.892,-2 -2,-2 z" style="marker:none" overflow="visible" transform="translate(-285 455.003)"/>
        <path d="m 293.0002,-453.00391 c -1.65686,0 -3,1.3432 -3,3 0,0.001 0,0.003 0,0.004 h 6 c 0,-10e-4 0,-0.003 0,-0.004 0,-1.6568 -1.34314,-3 -3,-3 z M 288.84395,-444 c -1.83616,1.18579 -1.84375,3 -1.84375,3 v 1 h 12 v -1 c 0,0 -0.008,-1.81421 -1.83984,-3 z" style="line-height:normal;-inkscape-font-specification:Sans;text-indent:0;text-align:start;text-decoration-line:none;text-transform:none;marker:none" font-weight="400" font-family="Sans" overflow="visible" opacity=".35" transform="translate(-285 455.003)"/>
    </g>
</svg>
