<svg xmlns="http://www.w3.org/2000/svg" width="16.001" height="16.007">
    <g fill="#4c5263">
        <path d="M8 2a3 3 0 100 6 3 3 0 000-6zm0 8c-6 .002-6 4.003-6 4.003v1h8v-4.828A10.526 10.526 0 008 10z" style="line-height:normal;-inkscape-font-specification:Sans;text-indent:0;text-align:start;text-decoration-line:none;text-transform:none;marker:none" color="#000" font-weight="400" font-family="Sans" overflow="visible" opacity=".35"/>
        <path d="M11.001 11.007v1c0 .276.1.538.281.719l.782.78-.782.782a1.015 1.015 0 00-.281.719v1h1c.276 0 .538-.1.719-.281l.781-.782.781.782c.181.18.443.28.719.28h1v-1c0-.275-.1-.537-.281-.718l-.781-.781.78-.781c.182-.181.282-.443.282-.72v-1h-1c-.276 0-.538.101-.719.282l-.781.781-.781-.78a1.015 1.015 0 00-.719-.282z"/>
    </g>
</svg>
