<svg xmlns="http://www.w3.org/2000/svg" width="16" height="16.003">
    <g color="#000" fill="#4c5263">
        <path d="M8 2a3 3 0 100 6 3 3 0 000-6zm0 8c-6 .002-6 4.003-6 4.003v1h6.76a4.5 4.5 0 01-.761-2.5 4.5 4.5 0 01.742-2.472c-.24-.015-.479-.032-.742-.032z" style="line-height:normal;-inkscape-font-specification:Sans;text-indent:0;text-align:start;text-decoration-line:none;text-transform:none;marker:none" font-weight="400" font-family="Sans" overflow="visible" opacity=".35"/>
        <path d="M12.5 9.003a3.5 3.5 0 100 7 3.5 3.5 0 000-7zm-.5 1h1v2h2v1h-3z" style="isolation:auto;mix-blend-mode:normal;solid-color:#000;solid-opacity:1" overflow="visible" fill-rule="evenodd"/>
    </g>
</svg>
