<svg xmlns="http://www.w3.org/2000/svg" width="16" height="16">
    <path d="M8 2a3 3 0 100 6 3 3 0 000-6zm0 1.003a2 2 0 012 2 2 2 0 01-2 2 2 2 0 01-2-2 2 2 0 012-2zM8 10c-6 .003-6 4.004-6 4.004v1h12v-1S14 9.996 8 10zm0 1c2.777 0 3.89.855 4.449 1.6.558.745.55 1.404.55 1.404H3s-.006-.655.552-1.4c.558-.745 1.67-1.602 4.449-1.604z" style="line-height:normal;-inkscape-font-specification:Sans;text-indent:0;text-align:start;text-decoration-line:none;text-transform:none;marker:none" color="#000" font-weight="400" font-family="Sans" overflow="visible" opacity=".35" fill="#4c5263"/>
</svg>
