<svg xmlns="http://www.w3.org/2000/svg" width="16" height="16.003">
    <g color="#000" fill="#4c5263">
        <path d="m 353.0002,-453.00391 c -1.65686,0 -3,1.3432 -3,3 0,1.6568 1.34314,3 3,3 1.65686,0 3,-1.3432 3,-3 0,-1.6568 -1.34314,-3 -3,-3 z m 0,8 c -6.00023,0.003 -6,4.00391 -6,4.00391 v 1 h 6.76172 a 4.5,4.5 0 0 1 -0.76172,-2.5 4.5,4.5 0 0 1 0.74219,-2.47266 c -0.24077,-0.0146 -0.4788,-0.0314 -0.74219,-0.0312 z" style="line-height:normal;-inkscape-font-specification:Sans;text-indent:0;text-align:start;text-decoration-line:none;text-transform:none;marker:none" font-weight="400" font-family="Sans" overflow="visible" opacity=".35" transform="translate(-345 455.003)"/>
        <path d="m 357.5002,-446 c -1.933,0 -3.5,1.567 -3.5,3.5 0,1.933 1.567,3.5 3.5,3.5 1.933,0 3.5,-1.567 3.5,-3.5 0,-1.933 -1.567,-3.5 -3.5,-3.5 z m -0.5,1 h 1 v 2 h 2 v 1 h -3 z" style="isolation:auto;mix-blend-mode:normal;solid-color:#000;solid-opacity:1" overflow="visible" fill-rule="evenodd" transform="translate(-345 455.003)"/>
    </g>
</svg>
