<svg xmlns="http://www.w3.org/2000/svg" width="16" height="16">
    <path d="M1 5v3c0 1 .062 2.147.2 2.996.138.85.8 3 .8 3s.476 1 1 1h9c.523 0 1-.996 1-1 0 0 .662-2.15.8-3C13.938 10.147 14 9 14 8V5zm0-2.004v1l13-.003v-.996c0-1-1-1.004-1-1.004h-3s0-1-1-1H6c-1 0-1 1-1 1H2s-1 .003-1 1.004z" style="line-height:normal;-inkscape-font-specification:Sans;text-indent:0;text-align:start;text-decoration-line:none;text-transform:none;marker:none" overflow="visible" color="#000" font-weight="400" font-family="Sans" fill="#4c5263"/>
</svg>
