<svg xmlns="http://www.w3.org/2000/svg" width="16" height="16">
    <path d="m 373.0002,-453.00391 c -1.65686,0 -3,1.3432 -3,3 0,1.6568 1.34314,3 3,3 1.65686,0 3,-1.3432 3,-3 0,-1.6568 -1.34314,-3 -3,-3 z m 0,1.00391 a 2,2 0 0 1 2,2 2,2 0 0 1 -2,2 2,2 0 0 1 -2,-2 2,2 0 0 1 2,-2 z m 0,6.99609 c -6.00023,0.003 -6,4.00391 -6,4.00391 v 1 h 12 v -1 c 0,0 -2.3e-4,-4.00691 -6,-4.00391 z m 0,1 c 2.77727,-10e-4 3.89102,0.85436 4.44922,1.59961 0.5582,0.74525 0.55078,1.4043 0.55078,1.4043 h -10 c 0,0 -0.007,-0.65576 0.55078,-1.40039 0.55814,-0.74463 1.67135,-1.60196 4.44922,-1.60352 z" style="line-height:normal;-inkscape-font-specification:Sans;text-indent:0;text-align:start;text-decoration-line:none;text-transform:none;marker:none" color="#000" font-weight="400" font-family="Sans" overflow="visible" opacity=".35" fill="#4c5263" transform="translate(-365 455.003)"/>
</svg>
