<svg xmlns="http://www.w3.org/2000/svg" width="16" height="16">
    <path d="M6 .5C4.08.5 2.5 2.08 2.5 4v3.5h3V4c0-.322.178-.5.5-.5h4c.32 0 .5.178.5.5V11.998c0 .322-.18.5-.5.5H6.5v3H10c1.919 0 3.5-1.58 3.5-3.5V4C13.5 2.08 11.919.5 10 .5zm0 1h4c1.37 0 2.5 1.13 2.5 2.5V11.998c0 1.37-1.13 2.5-2.5 2.5H7.5v-1H10c.821 0 1.5-.678 1.5-1.5V4c0-.821-.679-1.5-1.5-1.5H6c-.822 0-1.5.679-1.5 1.5v2.5h-1V4c0-1.37 1.13-2.5 2.5-2.5z" style="line-height:normal;font-variant-ligatures:normal;font-variant-position:normal;font-variant-caps:normal;font-variant-numeric:normal;font-variant-alternates:normal;font-feature-settings:normal;text-indent:0;text-align:start;text-decoration-line:none;text-decoration-style:solid;text-decoration-color:#000;text-transform:none;text-orientation:mixed;white-space:normal;shape-padding:0;isolation:auto;mix-blend-mode:normal;solid-color:#000;solid-opacity:1" color="#000" font-weight="400" font-family="sans-serif" overflow="visible"/>
    <path d="M4 10L1 6h6z" fill="#4c5263"/>
</svg>
