<svg xmlns="http://www.w3.org/2000/svg" width="16" height="16">
    <g fill="#4c5263">
        <path d="M4 8a3 3 0 000 6c1.559 0 2.822-1.198 2.969-2.719.3-.179.656-.281 1.031-.281.375 0 .732.102 1.031.281C9.178 12.801 10.441 14 12 14a3 3 0 000-6c-1.391 0-2.535.966-2.875 2.25C8.773 10.105 8.404 10 8 10s-.773.105-1.125.25C6.535 8.966 5.391 8 4 8zm0 1.25a1.75 1.75 0 110 3.5 1.75 1.75 0 010-3.5zm8 0a1.75 1.75 0 110 3.5 1.75 1.75 0 010-3.5zM4 1l-.75 3h9.5L12 1l-4 .5zM3 5L0 7h16l-3-2z"/>
    </g>
</svg>
