<svg xmlns="http://www.w3.org/2000/svg" width="16" height="16">
    <g fill="#4c5263">
        <path d="M449.0002-407c-1.65685 0-3 1.34315-3 3 0 1.65685 1.34315 3 3 3 1.55869 0 2.82243-1.19843 2.96875-2.71875.29974-.17924.65661-.28125 1.03125-.28125.37464 0 .73151.10201 1.03125.28125.14632 1.52032 1.41006 2.71875 2.96875 2.71875 1.65685 0 3-1.34315 3-3 0-1.65685-1.34315-3-3-3-1.39107 0-2.53544.96568-2.875 2.25-.35167-.1447-.72114-.25-1.125-.25-.40386 0-.77333.1053-1.125.25-.33956-1.28432-1.48393-2.25-2.875-2.25zm0 1.25c.9665 0 1.75.7835 1.75 1.75 0 .9665-.7835 1.75-1.75 1.75-.9665 0-1.75-.7835-1.75-1.75 0-.9665.7835-1.75 1.75-1.75zm8 0c.9665 0 1.75.7835 1.75 1.75 0 .9665-.7835 1.75-1.75 1.75-.9665 0-1.75-.7835-1.75-1.75 0-.9665.7835-1.75 1.75-1.75zM449.0002-414l-.75 3h9.5l-.75-3-4 .5zm-1 4l-3 2h16l-3-2z" transform="translate(-445 415)"/>
    </g>
</svg>
