<svg xmlns="http://www.w3.org/2000/svg" width="16" height="16">
    <g fill="#4c5263">
        <path d="m 695.0004,-654.00336 c 1.6447,0 3,1.3553 3,3 v 1 0.65625 3.34375 3 c 0,1.6447 -1.3553,3 -3,3 h -3 v -2 h 3 c 0.5713,0 1,-0.4287 1,-1 v -3 -3.34375 -0.65625 -1 c 0,-0.5713 -0.4287,-1 -1,-1 h -4 c -0.5713,0 -1,0.4287 -1,1 v 3 h -2 v -3 c 0,-1.6447 1.3553,-3 3,-3 z" style="text-indent:0;text-transform:none" color="#000" transform="translate(-685 655.003)"/>
        <path d="m 689.0004,-645.00311 -3,-4 h 6 z" transform="translate(-685 655.003)"/>
    </g>
</svg>
