<svg xmlns="http://www.w3.org/2000/svg" width="16" height="16">
    <g fill="#4c5263">
        <path d="m 487.97872,-343.00977 a 0.50005,0.50005 0 0 0 -0.42579,0.28321 l -1,2 a 0.50006083,0.50006083 0 1 0 0.89454,0.44726 l 1,-2 a 0.50005,0.50005 0 0 0 -0.46875,-0.73047 z m 2.5,0 a 0.50005,0.50005 0 0 0 -0.42579,0.28321 l -1,2 a 0.50006083,0.50006083 0 1 0 0.89454,0.44726 l 1,-2 a 0.50005,0.50005 0 0 0 -0.46875,-0.73047 z m 2.5,0 a 0.50005,0.50005 0 0 0 -0.42579,0.28321 l -1,2 a 0.50006083,0.50006083 0 1 0 0.89454,0.44726 l 1,-2 a 0.50005,0.50005 0 0 0 -0.46875,-0.73047 z m 2.5,0 a 0.50005,0.50005 0 0 0 -0.42579,0.28321 l -1,2 a 0.50006083,0.50006083 0 1 0 0.89454,0.44726 l 1,-2 a 0.50005,0.50005 0 0 0 -0.46875,-0.73047 z m 2.5,0 a 0.50005,0.50005 0 0 0 -0.42579,0.28321 l -1,2 a 0.50006083,0.50006083 0 1 0 0.89454,0.44726 l 1,-2 a 0.50005,0.50005 0 0 0 -0.46875,-0.73047 z" style="line-height:normal;text-indent:0;text-align:start;text-decoration-line:none;text-decoration-style:solid;text-decoration-color:#000;text-transform:none;white-space:normal;isolation:auto;mix-blend-mode:normal;solid-color:#000;solid-opacity:1" color="#000" font-weight="400" font-family="sans-serif" overflow="visible" transform="translate(-485 355.003)"/>
        <path d="m 493.0002,-355 c -2.07107,0 -3.83471,1.26792 -4.59375,3.0625 -1.92783,0.2866 -3.40625,1.92992 -3.40625,3.9375 0,2.20914 1.79086,4 4,4 h 8.5 c 1.933,0 3.5,-1.567 3.5,-3.5 0,-1.79654 -1.35079,-3.2687 -3.09375,-3.46875 C 497.45188,-353.26214 495.42707,-355 493.0002,-355 Z" transform="translate(-485 355.003)"/>
    </g>
</svg>
