<svg xmlns="http://www.w3.org/2000/svg" width="16" height="16.003">
    <g fill="#4c5263">
        <path d="m 511.0002,-348 v 5 h 1 v 4 l 3,-5 h -1 l 1.5,-4 z" transform="translate(-505 355.003)"/>
        <path d="m 513.0002,-355 c -2.07107,0 -3.83471,1.26792 -4.59375,3.0625 -1.92783,0.2866 -3.40625,1.92992 -3.40625,3.9375 0,2.20914 1.79086,4 4,4 h 1 v -4 -1 h 6.94336 l -1.5,4 h 1.32226 l -0.5996,1 h 1.33398 c 1.933,0 3.5,-1.567 3.5,-3.5 0,-1.79654 -1.35079,-3.2687 -3.09375,-3.46875 C 517.45188,-353.26214 515.42707,-355 513.0002,-355 Z m -1,8 v 3 h 0.93164 l 1.125,-3 z" transform="translate(-505 355.003)"/>
    </g>
</svg>
