<svg xmlns="http://www.w3.org/2000/svg" width="16" height="16.003">
    <g fill="#4c5263">
        <path d="M11 9.003c-1.312 0-2.405.859-2.813 2.032a2.494 2.494 0 00.313 4.968h5a2.494 2.494 0 00.313-4.969c-.408-1.172-1.501-2.03-2.813-2.03z"/>
        <path d="M7 .003l-.5 1.032c.162-.014.335-.032.5-.032h.5zm0 2a5 5 0 00-5 5c0 2.252 1.51 4.122 3.557 4.748.22-.32.495-.6.814-.834.033-.025.064-.05.098-.074.074-.05.15-.095.228-.14a3.52 3.52 0 01.83-.385c.07-.143.15-.28.233-.414.467-.748 1.146-1.345 1.969-1.658a3 3 0 000-.002l.01-.004c.165-.063.336-.113.513-.15.043-.01.084-.022.127-.03.2-.035.407-.057.621-.057.152-.002.299.012.443.036.149.018.292.048.434.084.084-.363.123-.732.123-1.12a5 5 0 00-5-5zm-4.938.063l.344 1.062c.22-.259.46-.5.719-.718zm9.876 0l-1.094.375h-.063c.14.11.275.225.406.344.132.118.258.241.376.375zM1 6.503l-1 .5 1.031.5c-.015-.169-.03-.326-.03-.5 0-.027-.003-.083 0-.156.005-.116.021-.232.03-.344zm11.969 0c.015.17.031.327.031.5 0 .028.002.084 0 .157-.006.115-.022.232-.031.343H13l1-.5-1.031-.5zM2.438 10.847l-.376 1.094 1.094-.375h.063a8.605 8.605 0 01-.406-.344 4.596 4.596 0 01-.376-.375z" style="marker:none" color="#bebebe" overflow="visible"/>
    </g>
</svg>
