<svg xmlns="http://www.w3.org/2000/svg" width="16" height="16">
    <g fill="#4c5263">
        <path d="M2.979 11.994a.5.5 0 00-.426.283l-1 2a.5.5 0 10.894.447l1-2a.5.5 0 00-.468-.73zm2.5 0a.5.5 0 00-.426.283l-1 2a.5.5 0 10.894.447l1-2a.5.5 0 00-.468-.73zm2.5 0a.5.5 0 00-.426.283l-1 2a.5.5 0 10.894.447l1-2a.5.5 0 00-.468-.73zm2.5 0a.5.5 0 00-.426.283l-1 2a.5.5 0 10.894.447l1-2a.5.5 0 00-.468-.73zm2.5 0a.5.5 0 00-.426.283l-1 2a.5.5 0 10.894.447l1-2a.5.5 0 00-.468-.73z" style="line-height:normal;text-indent:0;text-align:start;text-decoration-line:none;text-decoration-style:solid;text-decoration-color:#000;text-transform:none;white-space:normal;isolation:auto;mix-blend-mode:normal;solid-color:#000;solid-opacity:1" color="#000" font-weight="400" font-family="sans-serif" overflow="visible"/>
        <path d="M8 .003c-2.071 0-3.835 1.268-4.594 3.063A3.981 3.981 0 000 7.003a4 4 0 004 4h8.5a3.5 3.5 0 003.5-3.5 3.49 3.49 0 00-3.094-3.468A5.011 5.011 0 008 .003z"/>
    </g>
</svg>
