<svg xmlns="http://www.w3.org/2000/svg" width="16.002" height="16.005">
    <g fill="#4c5263">
        <path d="M7.752 1.037c-2.763.101-5.309 1.804-6.313 4.562-1.264 3.472.369 7.325 3.688 8.813a3.3 3.3 0 01-.125-1.063c.028-1.001.584-1.887 1.375-2.469a6.497 6.497 0 01-1.281-6.593c.514-1.413 1.474-2.509 2.656-3.25z" style="marker:none" color="#bebebe" overflow="visible"/>
        <path d="M11.002 9.005c-1.312 0-2.405.859-2.813 2.032a2.494 2.494 0 00.313 4.968h5a2.494 2.494 0 00.313-4.969c-.408-1.172-1.502-2.03-2.813-2.03z"/>
    </g>
</svg>
