<svg xmlns="http://www.w3.org/2000/svg" width="16" height="16">
    <g fill="#4c5263">
        <path d="m 493.0002,-335 c -2.07107,0 -3.83471,1.26792 -4.59375,3.0625 -1.92783,0.2866 -3.40625,1.92992 -3.40625,3.9375 0,2.20914 1.79086,4 4,4 h 8.5 c 1.933,0 3.5,-1.567 3.5,-3.5 0,-1.79654 -1.35079,-3.2687 -3.09375,-3.46875 C 497.45188,-333.26214 495.42707,-335 493.0002,-335 Z" transform="translate(-485 335)"/>
        <path d="M488.0002-323v1.13281l-.98242-.5664-.5.86718.98047.56641-.98047.56641.5.86718.98242-.5664V-319h1v-1.13281l.98242.5664.5-.86718-.98047-.56641.98047-.56641-.5-.86718-.98242.5664V-323zM493.0002-323v1.13281l-.98242-.5664-.5.86718.98047.56641-.98047.56641.5.86718.98242-.5664V-319h1v-1.13281l.98242.5664.5-.86718-.98047-.56641.98047-.56641-.5-.86718-.98242.5664V-323zM498.0002-323v1.13281l-.98242-.5664-.5.86718.98047.56641-.98047.56641.5.86718.98242-.5664V-319h1v-1.13281l.98242.5664.5-.86718-.98047-.56641.98047-.56641-.5-.86718-.98242.5664V-323z" opacity=".35" transform="translate(-485 335)"/>
    </g>
</svg>
