<svg xmlns="http://www.w3.org/2000/svg" width="16" height="16">
    <g fill="#4c5263">
        <path d="M8 0C5.929 0 4.165 1.268 3.406 3.063A3.981 3.981 0 000 7a4 4 0 004 4h8.5A3.5 3.5 0 0016 7.5a3.49 3.49 0 00-3.094-3.469A5.011 5.011 0 008 0z"/>
        <path d="M3 12v1.133l-.982-.567-.5.868.98.566-.98.566.5.868.982-.567V16h1v-1.133l.982.567.5-.868-.98-.566.98-.566-.5-.868-.982.567V12zm5 0v1.133l-.982-.567-.5.868.98.566-.98.566.5.868.982-.567V16h1v-1.133l.982.567.5-.868-.98-.566.98-.566-.5-.868-.982.567V12zm5 0v1.133l-.982-.567-.5.868.98.566-.98.566.5.868.982-.567V16h1v-1.133l.982.567.5-.868-.98-.566.98-.566-.5-.868-.982.567V12z" opacity=".35"/>
    </g>
</svg>
