<svg xmlns="http://www.w3.org/2000/svg" width="16.002" height="16.005">
    <g fill="#4c5263">
        <path d="m 452.7502,-333.96875 c -2.76278,0.10144 -5.3087,1.80458 -6.3125,4.5625 -1.26383,3.47234 0.36867,7.32457 3.6875,8.8125 -0.0932,-0.33746 -0.14688,-0.70692 -0.125,-1.0625 0.0277,-1.00125 0.58397,-1.88737 1.375,-2.46875 -1.56688,-1.73319 -2.13559,-4.24646 -1.28125,-6.59375 0.51416,-1.41265 1.47444,-2.50836 2.65625,-3.25 z" style="marker:none" color="#bebebe" overflow="visible" transform="translate(-444.998 335.005)"/>
        <path d="m 456.0002,-326 c -1.31168,0 -2.40482,0.85843 -2.8125,2.03125 -1.23083,0.15597 -2.1875,1.19557 -2.1875,2.46875 0,1.38071 1.11929,2.5 2.5,2.5 h 2.5 2.5 c 1.38071,0 2.5,-1.11929 2.5,-2.5 0,-1.27318 -0.95667,-2.31278 -2.1875,-2.46875 C 458.40502,-325.14157 457.31188,-326 456.0002,-326 Z" transform="translate(-444.998 335.005)"/>
    </g>
</svg>
