<svg xmlns="http://www.w3.org/2000/svg" width="16" height="16">
    <g fill="#4c5263">
        <path d="M10 8c-1.312 0-2.405.858-2.813 2.031A2.494 2.494 0 007.5 15h5a2.494 2.494 0 00.313-4.969C12.405 8.858 11.312 8 10 8z"/>
        <path d="M8 0C5.929 0 4.165 1.268 3.406 3.063A3.981 3.981 0 000 7c0 .732.211 1.41.555 2a3.98 3.98 0 00.897 1.059c.053.045.107.092.163.134a3.968 3.968 0 00.918.52 3.908 3.908 0 00.75.215c.233.043.471.072.717.072h.393c.444-.795 1.223-1.386 2.129-1.676C7.167 8.001 8.423 7 10 7c1.577 0 2.833 1 3.479 2.324.503.161.965.417 1.355.746a3.59 3.59 0 00.437-.465c.028-.035.056-.069.082-.105.111-.159.213-.324.297-.5.22-.453.35-.959.35-1.5a3.49 3.49 0 00-3.094-3.469A5.011 5.011 0 008 0zm2 9c-.875 0-1.592.567-1.867 1.36l-.205.585-.432.055H12.5l-.428-.055-.205-.586C11.592 9.567 10.875 9 10 9z"/>
    </g>
</svg>
