<svg xmlns="http://www.w3.org/2000/svg" width="16" height="16">
    <path class="error" d="m 512.0004,-329.00336 v 4 l 0.25,2 h 1.5 l 0.25,-2 v -4 z m 0,7 v 2 h 2 v -2 z" style="marker:none" color="#bebebe" overflow="visible" fill="#f44336" transform="translate(-505 335.003)"/>
    <path d="m 513.0002,-335 c -2.07107,0 -3.83471,1.26792 -4.59375,3.0625 -1.92783,0.2866 -3.40625,1.92992 -3.40625,3.9375 0,2.20914 1.79086,4 4,4 h 2 v -6 h 4 v 6 h 2.5 c 1.933,0 3.5,-1.567 3.5,-3.5 0,-1.79654 -1.35079,-3.2687 -3.09375,-3.46875 C 517.45188,-333.26214 515.42707,-335 513.0002,-335 Z" fill="#4c5263" transform="translate(-505 335.003)"/>
</svg>
