<?xml version="1.0" encoding="UTF-8" standalone="no"?>
<svg xmlns="http://www.w3.org/2000/svg" xmlns:xlink="http://www.w3.org/1999/xlink" xmlns:sodipodi="http://sodipodi.sourceforge.net/DTD/sodipodi-0.dtd" xmlns:inkscape="http://www.inkscape.org/namespaces/inkscape" version="1.2" width="48" height="48">
 <defs id="defs4">
  <linearGradient y1="92.54" x2="0" y2="7.02" id="ButtonShadow-9" gradientUnits="userSpaceOnUse" gradientTransform="scale(1.0058652,0.994169)">
   <stop id="stop3750-3"/>
   <stop id="stop3752-1" offset="1" stop-opacity="0.588"/>
  </linearGradient>
  <filter color-interpolation-filters="sRGB" id="filter3174-4">
   <feGaussianBlur stdDeviation="1.71" id="feGaussianBlur3176-5"/>
  </filter>
  <linearGradient y1="92.54" x2="0" y2="7.02" id="linearGradient6176" xlink:href="#ButtonShadow-9" gradientUnits="userSpaceOnUse" gradientTransform="scale(1.0058652,0.994169)"/>
 </defs>
 <metadata id="metadata7"/>
 <path inkscape:connector-curvature="0" d="m 28,10 0,3 c 4.64,1.48 8,5.86 8,11 0,5.14 -3.36,9.52 -8,11 l 0,3 C 34.3,36.44 39,30.8 39,24 39,17.2 34.3,11.56 28,10 z" id="path6" sodipodi:nodetypes="ccsccsc" opacity="0.35" fill="#ffffff"/>
 <path sodipodi:nodetypes="ccccccc" id="path3006" d="m 10,18 0,12 6,0 8,8 0,-28 -8,8 z" inkscape:connector-curvature="0" fill="#ffffff"/>
 <path inkscape:connector-curvature="0" d="m 31.58,24 c 0,-2.6 -1.44,-4.84 -3.58,-6 l 0,12 c 2.12,-1.16 3.58,-3.4 3.58,-6 z" id="path3008" sodipodi:nodetypes="sccs" fill="#ffffff"/>
</svg>
