<?xml version="1.0" encoding="UTF-8" standalone="no"?>
<svg xmlns="http://www.w3.org/2000/svg" xmlns:xlink="http://www.w3.org/1999/xlink" xmlns:sodipodi="http://sodipodi.sourceforge.net/DTD/sodipodi-0.dtd" xmlns:inkscape="http://www.inkscape.org/namespaces/inkscape" version="1.2" width="48" height="48">
 <defs id="defs4">
  <linearGradient y1="92.54" x2="0" y2="7.02" id="ButtonShadow-9" gradientUnits="userSpaceOnUse" gradientTransform="scale(1.0058652,0.994169)">
   <stop id="stop3750-3"/>
   <stop id="stop3752-1" offset="1" stop-opacity="0.588"/>
  </linearGradient>
  <filter color-interpolation-filters="sRGB" id="filter3174-4">
   <feGaussianBlur stdDeviation="1.71" id="feGaussianBlur3176-5"/>
  </filter>
  <linearGradient y1="92.54" x2="0" y2="7.02" id="linearGradient6176" xlink:href="#ButtonShadow-9" gradientUnits="userSpaceOnUse" gradientTransform="scale(1.0058652,0.994169)"/>
 </defs>
 <metadata id="metadata7"/>
 <path d="m 75,8 c -0.553999,0 -1,0.4460011 -1,1 l 0,2 c 0,0.553999 0.446001,1 1,1 l 2,0 c 0.553999,0 1,-0.446001 1,-1 L 78,9 C 78,8.4460011 77.553999,8 77,8 l -2,0 z m -8.90625,3.6875 c -0.255619,0 -0.491632,0.08538 -0.6875,0.28125 l -1.4375,1.4375 c -0.391736,0.391736 -0.391736,1.014514 0,1.40625 l 1.4375,1.40625 c 0.391736,0.391736 1.014514,0.391736 1.40625,0 l 1.40625,-1.40625 c 0.391736,-0.391736 0.391736,-1.014514 0,-1.40625 L 66.8125,11.96875 C 66.616632,11.772882 66.349369,11.6875 66.09375,11.6875 z m 19.8125,0 c -0.255619,0 -0.522882,0.08538 -0.71875,0.28125 l -1.40625,1.4375 c -0.391736,0.391736 -0.391736,1.014514 0,1.40625 l 1.40625,1.40625 c 0.391736,0.391736 1.014514,0.391736 1.40625,0 l 1.4375,-1.40625 c 0.391736,-0.391736 0.391736,-1.014514 0,-1.40625 l -1.4375,-1.4375 C 86.397882,11.772882 86.161869,11.6875 85.90625,11.6875 z M 76,14 c -5.23635,3.2e-4 -10,4.76445 -10,10 0,5.23555 4.76365,9.99968 10,10 5.23633,3.2e-4 10,-4.76387 10,-10 0,-5.23613 -4.76367,-10.00032 -10,-10 z m -15,8 c -0.553999,0 -1,0.446001 -1,1 l 0,2 c 0,0.553999 0.446001,1 1,1 l 2,0 c 0.553999,0 1,-0.446001 1,-1 l 0,-2 c 0,-0.553999 -0.446001,-1 -1,-1 l -2,0 z m 28,0 c -0.553999,0 -1,0.446001 -1,1 l 0,2 c 0,0.553999 0.446001,1 1,1 l 2,0 c 0.553999,0 1,-0.446001 1,-1 l 0,-2 c 0,-0.553999 -0.446001,-1 -1,-1 l -2,0 z m -22.90625,9.46875 c -0.255619,0 -0.491632,0.116632 -0.6875,0.3125 l -1.4375,1.40625 c -0.391736,0.391736 -0.391736,1.014514 0,1.40625 l 1.4375,1.4375 c 0.391736,0.391736 1.014514,0.391736 1.40625,0 l 1.40625,-1.4375 c 0.391736,-0.391736 0.391736,-1.014514 0,-1.40625 L 66.8125,31.78125 c -0.195868,-0.195868 -0.463131,-0.3125 -0.71875,-0.3125 z m 19.8125,0 c -0.255619,0 -0.522882,0.116632 -0.71875,0.3125 l -1.40625,1.40625 c -0.391736,0.391736 -0.391736,1.014514 0,1.40625 l 1.40625,1.4375 c 0.391736,0.391736 1.014514,0.391736 1.40625,0 l 1.4375,-1.4375 c 0.391736,-0.391736 0.391736,-1.014514 0,-1.40625 l -1.4375,-1.40625 c -0.195868,-0.195868 -0.431881,-0.3125 -0.6875,-0.3125 z M 75,36 c -0.553999,0 -1,0.446001 -1,1 l 0,2 c 0,0.553999 0.446001,1 1,1 l 2,0 c 0.553999,0 1,-0.446001 1,-1 l 0,-2 c 0,-0.553999 -0.446001,-1 -1,-1 l -2,0 z" id="path6210" inkscape:connector-curvature="0" fill="#ffffff"/>
 <g id="g3804">
  <path id="rect3762" d="M 24 9.4375 C 22.464064 10.953145 20.967411 12.511037 19.40625 14 L 14 14 L 14 19.40625 C 12.510763 20.967477 10.953344 22.464017 9.4375 24 C 10.953266 25.536057 12.51087 27.032422 14 28.59375 L 14 34 L 19.40625 34 C 20.967477 35.489237 22.464017 37.046656 24 38.5625 C 25.536057 37.046734 27.032422 35.48913 28.59375 34 L 34 34 L 34 28.59375 C 35.489237 27.032523 37.046656 25.535983 38.5625 24 C 37.046734 22.463943 35.48913 20.967578 34 19.40625 L 34 14 L 28.59375 14 C 27.032523 12.510763 25.535983 10.953344 24 9.4375 z M 24 15 C 28.970563 15 33 19.029437 33 24 C 33 28.970563 28.970563 33 24 33 C 19.029437 33 15 28.970563 15 24 C 15 19.029437 19.029437 15 24 15 z " fill="#ffffff"/>
  <path id="path3797" d="M 24 18 C 20.686292 18 18 20.686292 18 24 C 18 27.313708 20.686292 30 24 30 L 24 18 z " fill="#ffffff" stroke-width="2"/>
 </g>
</svg>
