<?xml version="1.0" encoding="UTF-8" standalone="no"?>
<!-- Created with Inkscape (http://www.inkscape.org/) -->

<svg
   xmlns:osb="http://www.openswatchbook.org/uri/2009/osb"
   xmlns:dc="http://purl.org/dc/elements/1.1/"
   xmlns:cc="http://creativecommons.org/ns#"
   xmlns:rdf="http://www.w3.org/1999/02/22-rdf-syntax-ns#"
   xmlns:svg="http://www.w3.org/2000/svg"
   xmlns="http://www.w3.org/2000/svg"
   xmlns:sodipodi="http://sodipodi.sourceforge.net/DTD/sodipodi-0.dtd"
   xmlns:inkscape="http://www.inkscape.org/namespaces/inkscape"
   sodipodi:docname="accessories-character-map-symbolic.svg"
   inkscape:export-filename="/home/sam/source-symbolic.png"
   inkscape:export-xdpi="270"
   inkscape:export-ydpi="270"
   height="16"
   id="svg7384"
   style="enable-background:new"
   version="1.1"
   inkscape:version="0.48.4 r9939"
   width="15.999999">
  <sodipodi:namedview
     inkscape:bbox-nodes="true"
     inkscape:bbox-paths="true"
     bordercolor="#666666"
     borderlayer="false"
     borderopacity="1"
     inkscape:current-layer="g6058"
     inkscape:cx="7.9999995"
     inkscape:cy="8"
     gridtolerance="10"
     inkscape:guide-bbox="true"
     guidetolerance="10"
     id="namedview88"
     inkscape:object-nodes="true"
     inkscape:object-paths="true"
     objecttolerance="10"
     pagecolor="#333333"
     inkscape:pageopacity="1"
     inkscape:pageshadow="2"
     showborder="false"
     showgrid="false"
     showguides="true"
     inkscape:showpageshadow="false"
     inkscape:snap-bbox="true"
     inkscape:snap-bbox-edge-midpoints="false"
     inkscape:snap-bbox-midpoints="false"
     inkscape:snap-center="false"
     inkscape:snap-global="true"
     inkscape:snap-grids="true"
     inkscape:snap-intersection-paths="true"
     inkscape:snap-midpoints="true"
     inkscape:snap-nodes="true"
     inkscape:snap-object-midpoints="true"
     inkscape:snap-others="true"
     inkscape:snap-page="false"
     inkscape:snap-smooth-nodes="true"
     inkscape:snap-to-guides="true"
     inkscape:window-height="706"
     inkscape:window-maximized="1"
     inkscape:window-width="1366"
     inkscape:window-x="0"
     inkscape:window-y="32"
     inkscape:zoom="1">
    <inkscape:grid
       color="#000000"
       dotted="false"
       empcolor="#0800ff"
       empopacity="0.4627451"
       empspacing="4"
       enabled="true"
       id="grid4866"
       opacity="0.16470588"
       originx="-603.96875px"
       originy="-196px"
       snapvisiblegridlinesonly="true"
       spacingx="0.25px"
       spacingy="0.25px"
       type="xygrid"
       visible="true" />
  </sodipodi:namedview>
  <metadata
     id="metadata90">
    <rdf:RDF>
      <cc:Work
         rdf:about="">
        <dc:format>image/svg+xml</dc:format>
        <dc:type
           rdf:resource="http://purl.org/dc/dcmitype/StillImage" />
        <dc:title>Paper Symbolic Icon Theme</dc:title>
      </cc:Work>
    </rdf:RDF>
  </metadata>
  <title
     id="title8473">Paper Symbolic Icon Theme</title>
  <defs
     id="defs7386">
    <linearGradient
       id="linearGradient5606"
       osb:paint="solid">
      <stop
         id="stop5608"
         offset="0"
         style="stop-color:#000000;stop-opacity:1;" />
    </linearGradient>
    <filter
       inkscape:collect="always"
       color-interpolation-filters="sRGB"
       id="filter7554">
      <feBlend
         inkscape:collect="always"
         id="feBlend7556"
         in2="BackgroundImage"
         mode="darken" />
    </filter>
  </defs>
  <g
     inkscape:groupmode="layer"
     id="layer9"
     inkscape:label="status"
     style="display:inline"
     transform="translate(-844.96895,-21)" />
  <g
     inkscape:groupmode="layer"
     id="layer10"
     inkscape:label="devices"
     style="display:inline;filter:url(#filter7554)"
     transform="translate(-844.96895,-21)" />
  <g
     inkscape:groupmode="layer"
     id="layer1"
     inkscape:label="places"
     style="display:inline"
     transform="translate(-603.96875,-638)" />
  <g
     inkscape:groupmode="layer"
     id="layer14"
     inkscape:label="mimetypes"
     style="display:inline"
     transform="translate(-844.96895,-21)" />
  <g
     inkscape:groupmode="layer"
     id="layer15"
     inkscape:label="emblems"
     style="display:inline"
     transform="translate(-844.96895,-21)" />
  <g
     inkscape:groupmode="layer"
     id="g71291"
     inkscape:label="emotes"
     style="display:inline"
     transform="translate(-844.96895,-21)" />
  <g
     inkscape:groupmode="layer"
     id="layer2"
     inkscape:label="categories"
     style="display:inline"
     transform="translate(-603.96875,-488)" />
  <g
     inkscape:groupmode="layer"
     id="g6058"
     inkscape:label="apps"
     style="display:inline"
     transform="translate(-603.96875,-488)">
    <path
       style="font-size:medium;font-style:normal;font-variant:normal;font-weight:normal;font-stretch:normal;text-indent:0;text-align:start;text-decoration:none;line-height:normal;letter-spacing:normal;word-spacing:normal;text-transform:none;direction:ltr;block-progression:tb;writing-mode:lr-tb;text-anchor:start;color:#bebebe;fill:#bebebe;fill-opacity:1;fill-rule:nonzero;stroke:none;stroke-width:2;marker:none;visibility:visible;display:inline;overflow:visible;enable-background:accumulate;font-family:Bitstream Vera Sans;-inkscape-font-specification:Bitstream Vera Sans"
       d="M 3.6875 1 C 2.15462 1 0.96875 2.31948 0.96875 3.84375 L 0.96875 12.1875 C 0.96875 13.71177 2.15462 15.03125 3.6875 15.03125 L 12.28125 15.03125 C 13.81413 15.03125 15.03125 13.71177 15.03125 12.1875 L 15.03125 3.84375 C 15.03125 2.31948 13.81413 1 12.28125 1 L 3.6875 1 z M 4.21875 2.03125 C 4.3104855 2.0156947 4.3744425 2.024405 4.46875 2.03125 C 7.99543 2.28723 9.8007 2.16503 11.53125 2.03125 C 12.28544 1.97295 13.0625 2.64709 13.0625 3.46875 L 13.0625 10.84375 C 13.0625 11.50916 12.53131 11.93942 11.875 12.03125 C 9.03858 12.4281 7.10716 12.47132 4.1875 12.03125 C 3.53221 11.93245 3 11.50916 3 10.84375 L 3 3.5 C 3 2.7810475 3.5766012 2.1401372 4.21875 2.03125 z M 11.34375 3.03125 L 8.34375 4.03125 L 8.65625 4.96875 L 11.65625 3.96875 L 11.34375 3.03125 z M 10.53125 5.96875 L 7.625 6.03125 L 7.625 7.03125 L 10.5 6.96875 C 10.7071 6.98465 10.83933 7.06455 10.90625 7.125 C 10.97315 7.1854 11.03125 7.23438 11.03125 7.40625 L 11.03125 8 L 8.5625 8 L 8.53125 8 C 8.07828 7.9752 7.6404 8.1572 7.375 8.4375 C 7.10331 8.72444 6.98186 9.10132 6.96875 9.46875 C 6.95565 9.83618 7.05215 10.22783 7.3125 10.53125 C 7.56687 10.82776 8.00695 11.00465 8.46875 11 C 8.47955 10.99989 8.4892 11.00032 8.5 11 L 11.46875 11 L 11.96875 11 L 11.96875 10.5 L 12.03125 7.40625 C 12.03125 7.0036 11.86934 6.62391 11.59375 6.375 C 11.31816 6.12609 10.96116 5.99702 10.59375 5.96875 L 10.5625 5.96875 L 10.53125 5.96875 z M 8.46875 9 L 8.5 9 L 8.53125 9 L 11 9 L 10.96875 10 L 8.46875 10 C 8.24867 10.007 8.16349 9.9563 8.09375 9.875 C 8.02405 9.7937 7.96349 9.64748 7.96875 9.5 C 7.97375 9.35252 8.04645 9.20798 8.125 9.125 C 8.2036 9.042 8.26863 8.9849 8.46875 9 z "
       transform="translate(603.96875,488)"
       id="rect11749-5-9-2-7" />
  </g>
  <g
     inkscape:groupmode="layer"
     id="layer12"
     inkscape:label="actions"
     style="display:inline"
     transform="translate(-844.96895,-21)" />
</svg>
