<?xml version="1.0" encoding="UTF-8" standalone="no"?>
<!-- Created with Inkscape (http://www.inkscape.org/) -->

<svg
   xmlns:osb="http://www.openswatchbook.org/uri/2009/osb"
   xmlns:dc="http://purl.org/dc/elements/1.1/"
   xmlns:cc="http://creativecommons.org/ns#"
   xmlns:rdf="http://www.w3.org/1999/02/22-rdf-syntax-ns#"
   xmlns:svg="http://www.w3.org/2000/svg"
   xmlns="http://www.w3.org/2000/svg"
   xmlns:sodipodi="http://sodipodi.sourceforge.net/DTD/sodipodi-0.dtd"
   xmlns:inkscape="http://www.inkscape.org/namespaces/inkscape"
   sodipodi:docname="accessories-dictionary-symbolic.svg"
   inkscape:export-filename="/home/sam/source-symbolic.png"
   inkscape:export-xdpi="270"
   inkscape:export-ydpi="270"
   height="16"
   id="svg7384"
   style="enable-background:new"
   version="1.1"
   inkscape:version="0.48.4 r9939"
   width="16.000214">
  <sodipodi:namedview
     inkscape:bbox-nodes="true"
     inkscape:bbox-paths="true"
     bordercolor="#666666"
     borderlayer="false"
     borderopacity="1"
     inkscape:current-layer="g6058"
     inkscape:cx="7.5002"
     inkscape:cy="7.4339841"
     gridtolerance="10"
     inkscape:guide-bbox="true"
     guidetolerance="10"
     id="namedview88"
     inkscape:object-nodes="true"
     inkscape:object-paths="true"
     objecttolerance="10"
     pagecolor="#333333"
     inkscape:pageopacity="1"
     inkscape:pageshadow="2"
     showborder="false"
     showgrid="false"
     showguides="true"
     inkscape:showpageshadow="false"
     inkscape:snap-bbox="true"
     inkscape:snap-bbox-edge-midpoints="false"
     inkscape:snap-bbox-midpoints="false"
     inkscape:snap-center="false"
     inkscape:snap-global="true"
     inkscape:snap-grids="true"
     inkscape:snap-intersection-paths="true"
     inkscape:snap-midpoints="true"
     inkscape:snap-nodes="true"
     inkscape:snap-object-midpoints="true"
     inkscape:snap-others="true"
     inkscape:snap-page="false"
     inkscape:snap-smooth-nodes="true"
     inkscape:snap-to-guides="true"
     inkscape:window-height="706"
     inkscape:window-maximized="1"
     inkscape:window-width="1366"
     inkscape:window-x="0"
     inkscape:window-y="32"
     inkscape:zoom="1">
    <inkscape:grid
       color="#000000"
       dotted="false"
       empcolor="#0800ff"
       empopacity="0.4627451"
       empspacing="4"
       enabled="true"
       id="grid4866"
       opacity="0.16470588"
       originx="-443.96855px"
       originy="-136px"
       snapvisiblegridlinesonly="true"
       spacingx="0.25px"
       spacingy="0.25px"
       type="xygrid"
       visible="true" />
  </sodipodi:namedview>
  <metadata
     id="metadata90">
    <rdf:RDF>
      <cc:Work
         rdf:about="">
        <dc:format>image/svg+xml</dc:format>
        <dc:type
           rdf:resource="http://purl.org/dc/dcmitype/StillImage" />
        <dc:title>Paper Symbolic Icon Theme</dc:title>
      </cc:Work>
    </rdf:RDF>
  </metadata>
  <title
     id="title8473">Paper Symbolic Icon Theme</title>
  <defs
     id="defs7386">
    <linearGradient
       id="linearGradient5606"
       osb:paint="solid">
      <stop
         id="stop5608"
         offset="0"
         style="stop-color:#000000;stop-opacity:1;" />
    </linearGradient>
    <filter
       inkscape:collect="always"
       color-interpolation-filters="sRGB"
       id="filter7554">
      <feBlend
         inkscape:collect="always"
         id="feBlend7556"
         in2="BackgroundImage"
         mode="darken" />
    </filter>
  </defs>
  <g
     inkscape:groupmode="layer"
     id="layer9"
     inkscape:label="status"
     style="display:inline"
     transform="translate(-684.96875,-81)" />
  <g
     inkscape:groupmode="layer"
     id="layer10"
     inkscape:label="devices"
     style="display:inline;filter:url(#filter7554)"
     transform="translate(-684.96875,-81)" />
  <g
     inkscape:groupmode="layer"
     id="layer1"
     inkscape:label="places"
     style="display:inline"
     transform="translate(-443.96855,-698)" />
  <g
     inkscape:groupmode="layer"
     id="layer14"
     inkscape:label="mimetypes"
     style="display:inline"
     transform="translate(-684.96875,-81)" />
  <g
     inkscape:groupmode="layer"
     id="layer15"
     inkscape:label="emblems"
     style="display:inline"
     transform="translate(-684.96875,-81)" />
  <g
     inkscape:groupmode="layer"
     id="g71291"
     inkscape:label="emotes"
     style="display:inline"
     transform="translate(-684.96875,-81)" />
  <g
     inkscape:groupmode="layer"
     id="layer2"
     inkscape:label="categories"
     style="display:inline"
     transform="translate(-443.96855,-548)" />
  <g
     inkscape:groupmode="layer"
     id="g6058"
     inkscape:label="apps"
     style="display:inline"
     transform="translate(-443.96855,-548)">
    <path
       style="font-size:medium;font-style:normal;font-variant:normal;font-weight:normal;font-stretch:normal;text-indent:0;text-align:start;text-decoration:none;line-height:normal;letter-spacing:normal;word-spacing:normal;text-transform:none;direction:ltr;block-progression:tb;writing-mode:lr-tb;text-anchor:start;baseline-shift:baseline;color:#000000;fill:#c3c3c3;fill-opacity:1;stroke:none;stroke-width:0.99999988;marker:none;visibility:visible;display:inline;overflow:visible;enable-background:accumulate;font-family:Sans;-inkscape-font-specification:Sans"
       d="M 4.65625 1.15625 C 4.3599288 1.181825 4.07971 1.24405 3.8125 1.3125 C 2.74366 1.58632 1.8533 2.00895 0.5 1.96875 L 0 1.96875 L 0 2.46875 L 0 12.28125 L 0 12.78125 L 0 15 L 0 16 L 1 16 L 14 16 L 15 16 L 15 15 L 15 12.28125 L 15 2.5 L 15 1.96875 L 14.46875 2 C 12.95211 2.0547 12.19823 1.60243 11.21875 1.3125 C 10.29369 1.03868 9.18046 1.08472 7.5625 1.9375 C 6.83644 1.53835 6.1773 1.26869 5.59375 1.1875 C 5.264995 1.14175 4.9525712 1.130675 4.65625 1.15625 z M 4.75 2.15625 C 4.98054 2.1308388 5.21577 2.1204 5.46875 2.15625 C 5.8985223 2.2171534 6.4000067 2.4213341 7 2.75 L 7 11.375 C 5.8986105 10.750728 4.7808266 10.698465 3.8125 10.9375 C 3.1600625 11.098556 2.5674033 11.285745 2 11.4375 L 2 2.78125 C 2.8064274 2.6425676 3.4785226 2.4308553 4.0625 2.28125 C 4.29361 2.222045 4.51946 2.1816612 4.75 2.15625 z M 9.6875 2.15625 C 10.160983 2.0859488 10.5242 2.15891 10.9375 2.28125 C 11.467196 2.4380394 12.146137 2.6986663 13 2.84375 L 13 11.4375 C 12.431213 11.285655 11.834894 11.097644 11.1875 10.9375 C 10.210265 10.695764 9.0967165 10.749495 8 11.40625 L 8 2.8125 C 8.7074962 2.4267915 9.2557954 2.2203482 9.6875 2.15625 z M 5.21875 11.75 C 5.8455373 11.770515 6.4675125 12.009637 7.1875 12.65625 L 7.53125 12.9375 L 7.875 12.65625 C 8.99387 11.6241 9.87293 11.64291 10.9375 11.90625 C 11.579183 12.064981 12.270025 12.330265 13 12.53125 L 13 14 L 2 14 L 2 12.53125 C 2.7281798 12.330043 3.4144822 12.066217 4.0625 11.90625 C 4.465655 11.806729 4.8426776 11.737691 5.21875 11.75 z "
       transform="translate(443.96855,548)"
       id="rect2996" />
    <path
       inkscape:connector-curvature="0"
       d="m 444.90625,562.75 0,-2.1875 4.21949,-1.13061 2.34301,0.59711 2.38717,-0.67107 3.74171,1.00259 0,2.45198 z"
       id="path13183"
       sodipodi:nodetypes="cccccccc"
       style="opacity:0.3;color:#000000;fill:#c3c3c3;fill-opacity:1;stroke:none;stroke-width:2;marker:none;visibility:visible;display:inline;overflow:visible;enable-background:accumulate" />
  </g>
  <g
     inkscape:groupmode="layer"
     id="layer12"
     inkscape:label="actions"
     style="display:inline"
     transform="translate(-684.96875,-81)" />
</svg>
