<?xml version="1.0" encoding="UTF-8" standalone="no"?>
<!-- Created with Inkscape (http://www.inkscape.org/) -->

<svg
   xmlns:dc="http://purl.org/dc/elements/1.1/"
   xmlns:cc="http://creativecommons.org/ns#"
   xmlns:rdf="http://www.w3.org/1999/02/22-rdf-syntax-ns#"
   xmlns:svg="http://www.w3.org/2000/svg"
   xmlns="http://www.w3.org/2000/svg"
   xmlns:sodipodi="http://sodipodi.sourceforge.net/DTD/sodipodi-0.dtd"
   xmlns:inkscape="http://www.inkscape.org/namespaces/inkscape"
   sodipodi:docname="notification-disabled-symbolic.svg"
   height="24"
   id="svg6530"
   version="1.1"
   inkscape:version="0.91 r"
   viewBox="0 0 24 24"
   width="24">
  <defs
     id="defs6532" />
  <sodipodi:namedview
     inkscape:bbox-nodes="true"
     bordercolor="#666666"
     borderopacity="1.0"
     inkscape:current-layer="layer1"
     inkscape:cx="11.999999"
     inkscape:cy="12.968787"
     inkscape:document-units="px"
     id="base"
     inkscape:object-nodes="true"
     inkscape:object-paths="true"
     pagecolor="#454d50"
     inkscape:pageopacity="0"
     inkscape:pageshadow="2"
     showgrid="false"
     inkscape:snap-bbox="true"
     inkscape:snap-bbox-edge-midpoints="true"
     inkscape:snap-bbox-midpoints="true"
     inkscape:snap-smooth-nodes="true"
     units="px"
     inkscape:window-height="1024"
     inkscape:window-maximized="1"
     inkscape:window-width="1920"
     inkscape:window-x="0"
     inkscape:window-y="30"
     inkscape:zoom="1">
    <inkscape:grid
       empspacing="4"
       id="grid8845"
       originx="-104.00023"
       originy="-392.00163"
       type="xygrid" />
  </sodipodi:namedview>
  <metadata
     id="metadata6535">
    <rdf:RDF>
      <cc:Work
         rdf:about="">
        <dc:format>image/svg+xml</dc:format>
        <dc:type
           rdf:resource="http://purl.org/dc/dcmitype/StillImage" />
        <dc:title />
      </cc:Work>
    </rdf:RDF>
  </metadata>
  <g
     inkscape:groupmode="layer"
     id="layer1"
     inkscape:label="panel"
     transform="translate(-104.00023,-636.36053)">
    <path
       inkscape:connector-curvature="0"
       d="m 116,640.36216 c -0.55228,0 -1,0.44772 -1,1 0,0.0333 0.002,0.0665 0.006,0.0996 -0.64334,0.12889 -1.2324,0.39135 -1.75977,0.74023 l 7.75377,7.75392 0,-1.59375 0,-2 c 1.7e-4,-2.42916 -1.71554,-4.44156 -4.00586,-4.90039 0.004,-0.0331 0.006,-0.0663 0.006,-0.0996 0,-0.55228 -0.44772,-1 -1,-1 z m -5.65625,0.9375 -1.40625,1.40625 2.26953,2.26953 c -0.13062,0.4396 -0.20702,0.9025 -0.20703,1.38672 l 0,4.5 -2,2 0,0.5 2,0 8.59375,0 2.0625,2.0625 1.40625,-1.40625 -12.71875,-12.71875 z m 3.92578,13.0625 c 0.35698,0.61831 1.0165,0.99944 1.73047,1 0.71327,-10e-4 1.37189,-0.38229 1.72852,-1 l -3.45899,0 z"
       id="path2986-2-78"
       style="color:#000000;display:inline;overflow:visible;visibility:visible;opacity:0.4;fill:#555555;fill-opacity:1;fill-rule:nonzero;stroke:none;stroke-width:1;marker:none;enable-background:accumulate" />
  </g>
  <g
     inkscape:groupmode="layer"
     id="layer2"
     inkscape:label="animations"
     transform="translate(-104.00023,-183.99837)" />
</svg>
