<?xml version="1.0" encoding="UTF-8" standalone="no"?>
<svg xmlns="http://www.w3.org/2000/svg" xmlns:sodipodi="http://sodipodi.sourceforge.net/DTD/sodipodi-0.dtd" xmlns:inkscape="http://www.inkscape.org/namespaces/inkscape" height="16" version="1.1" width="16" enable-background="new">
 <metadata id="metadata90"/>
 <defs id="defs7386">
  <linearGradient id="linearGradient5606" osb:paint="solid">
   <stop id="stop5608"/>
  </linearGradient>
  <filter inkscape:collect="always" color-interpolation-filters="sRGB" id="filter7554">
   <feBlend inkscape:collect="always" id="feBlend7556" in2="BackgroundImage" mode="darken"/>
  </filter>
 </defs>
 <g inkscape:groupmode="layer" id="layer9" inkscape:label="status" transform="translate(-325.0004,413)">
  <g id="g3860">
   <path sodipodi:nodetypes="ccccccc" id="path6061" d="m 326.0002,-408 0,6 3,0 4,4 0,-14 -4,4 z" inkscape:connector-curvature="0" fill="#4ab3e4"/>
   <path sodipodi:nodetypes="ccsccsc" id="path6044" d="m 335.0004,-412 0,1.5 c 2.32,0.74 4,2.93 4,5.5 0,2.57 -1.68,4.76 -4,5.5 l 0,1.5 c 3.15,-0.78 5.5,-3.6 5.5,-7 0,-3.4 -2.35,-6.22 -5.5,-7 z" inkscape:connector-curvature="0" fill="#4ab3e4"/>
   <path sodipodi:nodetypes="sccs" id="path6046" d="m 336.7904,-405 c 0,-1.3 -0.72,-2.42 -1.79,-3 l 0,6 c 1.06,-0.58 1.79,-1.7 1.79,-3 z" inkscape:connector-curvature="0" fill="#4ab3e4"/>
  </g>
 </g>
</svg>
