<?xml version='1.0' encoding='UTF-8' standalone='no'?>
<svg height="16" xmlns:inkscape="http://www.inkscape.org/namespaces/inkscape" xmlns:sodipodi="http://sodipodi.sourceforge.net/DTD/sodipodi-0.dtd" version="1.1" width="16" xmlns="http://www.w3.org/2000/svg" enable-background="new">
 <metadata id="metadata90"/>
 <defs id="defs7386">
  <linearGradient id="linearGradient5606" osb:paint="solid">
   <stop id="stop5608"/>
  </linearGradient>
  <filter inkscape:collect="always" color-interpolation-filters="sRGB" id="filter7554">
   <feBlend inkscape:collect="always" id="feBlend7556" in2="BackgroundImage" mode="darken"/>
  </filter>
 </defs>
 <g inkscape:groupmode="layer" id="layer9" inkscape:label="status" transform="translate(-505.00043,431.00336)">
  <path inkscape:connector-curvature="0" d="m 515.0002,-431 c 0.004,0.003 0,1.33333 0,2 l -3,0 0,5 3,0 0,2 1,-0.8125 0,-3.1875 3.875,0 0.625,-0.5 -5.5,-4.5 z" id="path9723" fill="#444444" color="#000000"/>
  <path inkscape:connector-curvature="0" d="m 511.0002,-425 -5.5,4.5 5.5,4.5 c -0.004,-0.003 0,-1.33333 0,-2 1,0 3,0 3,0 l 0,-2.1875 0,-0.8125 0,-2 c 0,0 -2,0 -3,0 0,-0.66667 0,-2 0,-2 z" id="path9727" sodipodi:nodetypes="cccccccccc" fill="#444444" color="#000000"/>
  <path inkscape:connector-curvature="0" d="m 517.0002,-425 -10e-6,4 0.25,2 1.5,0 0.25,-2 10e-6,-4 z m 0,7 0,2 2,0 0,-2 z" id="path6053-9" sodipodi:nodetypes="cccccccccccc" fill="#ef2929" color="#444444"/>
 </g>
</svg>
