<?xml version="1.0" encoding="UTF-8" standalone="no"?>
<svg xmlns="http://www.w3.org/2000/svg" xmlns:sodipodi="http://sodipodi.sourceforge.net/DTD/sodipodi-0.dtd" xmlns:inkscape="http://www.inkscape.org/namespaces/inkscape" height="16" version="1.1" width="16" enable-background="new">
 <metadata id="metadata90"/>
 <defs id="defs7386">
  <linearGradient id="linearGradient5606" osb:paint="solid">
   <stop id="stop5608"/>
  </linearGradient>
  <filter inkscape:collect="always" color-interpolation-filters="sRGB" id="filter7554">
   <feBlend inkscape:collect="always" id="feBlend7556" in2="BackgroundImage" mode="darken"/>
  </filter>
 </defs>
 <g inkscape:groupmode="layer" id="layer9" inkscape:label="status" transform="translate(-321.0002,428.00336)">
  <path d="M 8.03125 2 C 4.9969 2 2.26537 3.07815 0 4.75 L 8.03125 13.5 L 9 12.4375 L 9 12 L 9 11 L 10 11 C 10.01675 9.36263 11.35439 8 13 8 L 13.03125 8 L 16 4.71875 C 13.74339 3.06546 11.0423 2 8.03125 2 z " transform="translate(321.0002,-428.00336)" id="path5938" opacity="0.35" fill="#444444" color="#000000"/>
  <path sodipodi:nodetypes="ssccccccccccccssssccss" inkscape:connector-curvature="0" id="path3767" d="m 334.0002,-419 c -1.108,0 -2,0.91081 -2,2.03125 l 0,0.96875 -1,0 0,1 0,2 0,1 1,0 4,0 1,0 0,-1 0,-2 0,-1 -1,0 0,-0.96875 c 0,-1.12 -0.892,-2.03125 -2,-2.03125 z m 0,1 c 0.554,0 1,0.44236 1,1 l 0,1 -2,0 0,-1 c 0,-0.55764 0.446,-1 1,-1 z" fill="#444444"/>
 </g>
</svg>
