<?xml version="1.0" encoding="UTF-8" standalone="no"?>
<!-- Created with Inkscape (http://www.inkscape.org/) -->

<svg
   xmlns:osb="http://www.openswatchbook.org/uri/2009/osb"
   xmlns:dc="http://purl.org/dc/elements/1.1/"
   xmlns:cc="http://creativecommons.org/ns#"
   xmlns:rdf="http://www.w3.org/1999/02/22-rdf-syntax-ns#"
   xmlns:svg="http://www.w3.org/2000/svg"
   xmlns="http://www.w3.org/2000/svg"
   xmlns:sodipodi="http://sodipodi.sourceforge.net/DTD/sodipodi-0.dtd"
   xmlns:inkscape="http://www.inkscape.org/namespaces/inkscape"
   inkscape:export-ydpi="90.000000"
   inkscape:export-xdpi="90.000000"
   width="600"
   height="224"
   id="svg11300"
   sodipodi:version="0.32"
   inkscape:version="0.91 r"
   sodipodi:docname="accessories-notes.svg"
   inkscape:output_extension="org.inkscape.output.svg.inkscape"
   version="1.0"
   style="display:inline;enable-background:new"
   inkscape:export-filename="/home/sam/paper-template.png">
  <title
     id="title3004">Paper Icon Theme Template</title>
  <sodipodi:namedview
     stroke="#ef2929"
     fill="#f57900"
     id="base"
     pagecolor="#474747"
     bordercolor="#666666"
     borderopacity="0.25490196"
     inkscape:pageopacity="0"
     inkscape:pageshadow="2"
     inkscape:zoom="1"
     inkscape:cx="166.9769"
     inkscape:cy="36.768551"
     inkscape:current-layer="layer6"
     showgrid="false"
     inkscape:grid-bbox="true"
     inkscape:document-units="px"
     inkscape:showpageshadow="false"
     inkscape:window-width="1366"
     inkscape:window-height="710"
     inkscape:window-x="0"
     inkscape:window-y="28"
     width="400px"
     height="300px"
     inkscape:snap-nodes="true"
     inkscape:snap-bbox="true"
     gridtolerance="10000"
     inkscape:object-nodes="true"
     inkscape:snap-grids="true"
     showguides="true"
     inkscape:guide-bbox="true"
     inkscape:window-maximized="1"
     inkscape:bbox-nodes="true"
     inkscape:snap-bbox-edge-midpoints="true"
     inkscape:object-paths="true"
     inkscape:snap-intersection-paths="true"
     inkscape:snap-smooth-nodes="true">
    <inkscape:grid
       spacingy="1px"
       spacingx="1px"
       id="grid5883"
       type="xygrid"
       enabled="true"
       visible="true"
       empspacing="4"
       snapvisiblegridlinesonly="true" />
    <inkscape:grid
       type="xygrid"
       id="grid11592"
       empspacing="2"
       visible="true"
       enabled="false"
       spacingx="0.5px"
       spacingy="0.5px"
       color="#ff0000"
       opacity="0.1254902"
       empcolor="#ff0000"
       empopacity="0.25098039"
       snapvisiblegridlinesonly="true" />
    <sodipodi:guide
       orientation="0,1"
       position="0,224"
       id="guide4275" />
  </sodipodi:namedview>
  <defs
     id="defs3">
    <filter
       inkscape:collect="always"
       style="color-interpolation-filters:sRGB"
       id="filter4278"
       x="-0.06"
       width="1.12"
       y="-0.06"
       height="1.12">
      <feGaussianBlur
         inkscape:collect="always"
         stdDeviation="1"
         id="feGaussianBlur4280" />
    </filter>
    <filter
       inkscape:collect="always"
       style="color-interpolation-filters:sRGB"
       id="filter4292"
       x="-0.024"
       width="1.048"
       y="-0.024"
       height="1.048">
      <feGaussianBlur
         inkscape:collect="always"
         stdDeviation="0.8"
         id="feGaussianBlur4294" />
    </filter>
    <filter
       inkscape:collect="always"
       style="color-interpolation-filters:sRGB"
       id="filter4296"
       x="-0.06"
       width="1.12"
       y="-0.06"
       height="1.12">
      <feGaussianBlur
         inkscape:collect="always"
         stdDeviation="4"
         id="feGaussianBlur4298" />
    </filter>
    <clipPath
       clipPathUnits="userSpaceOnUse"
       id="clipPath4401">
      <path
         sodipodi:nodetypes="ssssccsss"
         inkscape:connector-curvature="0"
         id="path4403"
         d="m 416,108 c -4.432,0 -8,3.568 -8,8 l 0,144 c 0,4.432 3.568,8 8,8 l 96,0 56,-56 0,-96 c 0,-4.432 -3.568,-8 -8,-8 z"
         style="fill:#fecd38;fill-opacity:1;stroke:none" />
    </clipPath>
    <filter
       inkscape:collect="always"
       style="color-interpolation-filters:sRGB"
       id="filter4409"
       x="-0.12"
       width="1.24"
       y="-0.12"
       height="1.24">
      <feGaussianBlur
         inkscape:collect="always"
         stdDeviation="2.8"
         id="feGaussianBlur4411" />
    </filter>
    <clipPath
       clipPathUnits="userSpaceOnUse"
       id="clipPath4415">
      <path
         sodipodi:nodetypes="ssssccsss"
         inkscape:connector-curvature="0"
         id="path4417"
         d="m 292,196 c -2.216,0 -4,1.784 -4,4 l 0,72 c 0,2.216 1.784,4 4,4 l 44,0 32,-32 0,-44 c 0,-2.216 -1.784,-4 -4,-4 z"
         style="fill:#fecd38;fill-opacity:1;stroke:none" />
    </clipPath>
    <filter
       inkscape:collect="always"
       style="color-interpolation-filters:sRGB"
       id="filter4451"
       x="-0.12"
       width="1.24"
       y="-0.12"
       height="1.24">
      <feGaussianBlur
         inkscape:collect="always"
         stdDeviation="1.6"
         id="feGaussianBlur4453" />
    </filter>
    <clipPath
       clipPathUnits="userSpaceOnUse"
       id="clipPath4463">
      <path
         sodipodi:nodetypes="ssssccsss"
         inkscape:connector-curvature="0"
         id="path4465"
         d="m 207,224 c -1.662,0 -3,1.338 -3,3 l 0,50 c 0,1.662 1.338,3 3,3 l 29,0 24,-24 0,-29 c 0,-1.662 -1.338,-3 -3,-3 z"
         style="fill:#fecd38;fill-opacity:1;stroke:none" />
    </clipPath>
    <filter
       inkscape:collect="always"
       style="color-interpolation-filters:sRGB"
       id="filter4467"
       x="-0.12"
       width="1.24"
       y="-0.12"
       height="1.24">
      <feGaussianBlur
         inkscape:collect="always"
         stdDeviation="1.2"
         id="feGaussianBlur4469" />
    </filter>
    <clipPath
       clipPathUnits="userSpaceOnUse"
       id="clipPath4473">
      <path
         sodipodi:nodetypes="ssssccsss"
         inkscape:connector-curvature="0"
         id="path4475"
         d="m 142,240 c -1.108,0 -2,0.892 -2,2 l 0,36 c 0,1.108 0.892,2 2,2 l 22,0 16,-16 0,-22 c 0,-1.108 -0.892,-2 -2,-2 z"
         style="fill:#fecd38;fill-opacity:1;stroke:none" />
    </clipPath>
    <filter
       inkscape:collect="always"
       style="color-interpolation-filters:sRGB"
       id="filter4477"
       x="-0.12"
       width="1.24"
       y="-0.12"
       height="1.24">
      <feGaussianBlur
         inkscape:collect="always"
         stdDeviation="0.8"
         id="feGaussianBlur4479" />
    </filter>
    <clipPath
       clipPathUnits="userSpaceOnUse"
       id="clipPath4483">
      <path
         sodipodi:nodetypes="ssssccsss"
         inkscape:connector-curvature="0"
         id="path4485"
         d="m 91.5,254 c -0.831,0 -1.5,0.669 -1.5,1.5 l 0,25 c 0,0.831 0.669,1.5 1.5,1.5 l 16.5,0 10,-10 0,-16.5 c 0,-0.831 -0.669,-1.5 -1.5,-1.5 z"
         style="fill:#fecd38;fill-opacity:1;stroke:none" />
    </clipPath>
    <filter
       inkscape:collect="always"
       style="color-interpolation-filters:sRGB"
       id="filter4487"
       x="-0.12"
       width="1.24"
       y="-0.12"
       height="1.24">
      <feGaussianBlur
         inkscape:collect="always"
         stdDeviation="0.5"
         id="feGaussianBlur4489" />
    </filter>
    <clipPath
       clipPathUnits="userSpaceOnUse"
       id="clipPath4493">
      <path
         sodipodi:nodetypes="ssssccsss"
         inkscape:connector-curvature="0"
         id="path4495"
         d="m 51,262 c -0.554,0 -1,0.446 -1,1 l 0,18 c 0,0.554 0.446,1 1,1 l 11,0 8,-8 0,-11 c 0,-0.554 -0.446,-1 -1,-1 z"
         style="fill:#fecd38;fill-opacity:1;stroke:none" />
    </clipPath>
    <clipPath
       clipPathUnits="userSpaceOnUse"
       id="clipPath4499">
      <path
         sodipodi:nodetypes="ssssccsss"
         inkscape:connector-curvature="0"
         id="path4501"
         d="m 17,268 c -0.554,0 -1,0.446 -1,1 l 0,14 c 0,0.554 0.446,1 1,1 l 9,0 6,-6 0,-9 c 0,-0.554 -0.446,-1 -1,-1 z"
         style="display:inline;fill:#fecd38;fill-opacity:1;stroke:none;enable-background:new" />
    </clipPath>
    <filter
       inkscape:collect="always"
       style="color-interpolation-filters:sRGB"
       id="filter4503"
       x="-0.048"
       width="1.096"
       y="-0.048"
       height="1.096">
      <feGaussianBlur
         inkscape:collect="always"
         stdDeviation="1.12"
         id="feGaussianBlur4505" />
    </filter>
    <linearGradient
       osb:paint="solid"
       id="linearGradient5606">
      <stop
         style="stop-color:#000000;stop-opacity:1;"
         offset="0"
         id="stop5608" />
    </linearGradient>
  </defs>
  <metadata
     id="metadata4">
    <rdf:RDF>
      <cc:Work
         rdf:about="">
        <dc:format>image/svg+xml</dc:format>
        <dc:type
           rdf:resource="http://purl.org/dc/dcmitype/StillImage" />
        <dc:creator>
          <cc:Agent>
            <dc:title>Sam Hewitt</dc:title>
          </cc:Agent>
        </dc:creator>
        <dc:source />
        <cc:license
           rdf:resource="http://creativecommons.org/licenses/by-nc-sa/3.0/" />
        <dc:title>Paper Icon Theme Template</dc:title>
        <dc:subject>
          <rdf:Bag />
        </dc:subject>
        <dc:date />
        <dc:rights>
          <cc:Agent>
            <dc:title />
          </cc:Agent>
        </dc:rights>
        <dc:publisher>
          <cc:Agent>
            <dc:title />
          </cc:Agent>
        </dc:publisher>
        <dc:identifier />
        <dc:relation />
        <dc:language />
        <dc:coverage />
        <dc:description />
        <dc:contributor>
          <cc:Agent>
            <dc:title />
          </cc:Agent>
        </dc:contributor>
      </cc:Work>
      <cc:Work
         rdf:about="">
        <dc:format>image/svg+xml</dc:format>
        <dc:type
           rdf:resource="http://purl.org/dc/dcmitype/StillImage" />
      </cc:Work>
      <cc:License
         rdf:about="http://creativecommons.org/licenses/by-nc-sa/3.0/">
        <cc:permits
           rdf:resource="http://creativecommons.org/ns#Reproduction" />
        <cc:permits
           rdf:resource="http://creativecommons.org/ns#Distribution" />
        <cc:requires
           rdf:resource="http://creativecommons.org/ns#Notice" />
        <cc:requires
           rdf:resource="http://creativecommons.org/ns#Attribution" />
        <cc:prohibits
           rdf:resource="http://creativecommons.org/ns#CommercialUse" />
        <cc:permits
           rdf:resource="http://creativecommons.org/ns#DerivativeWorks" />
        <cc:requires
           rdf:resource="http://creativecommons.org/ns#ShareAlike" />
      </cc:License>
    </rdf:RDF>
  </metadata>
  <g
     style="display:inline"
     inkscape:groupmode="layer"
     inkscape:label="Icon"
     id="layer1"
     transform="translate(0,-76)">
    <g
       style="display:none"
       inkscape:label="Baseplate"
       id="layer7"
       inkscape:groupmode="layer">
      <text
         y="59.745117"
         xml:space="preserve"
         x="15.006836"
         style="font-style:normal;font-variant:normal;font-weight:normal;font-stretch:normal;font-size:18px;font-family:'DejaVu Sans';-inkscape-font-specification:'DejaVu Sans';display:inline;fill:#000000;fill-opacity:1;stroke:none;enable-background:new"
         inkscape:label="context"
         id="context"><tspan
           style="font-style:normal;font-variant:normal;font-weight:normal;font-stretch:normal;font-family:'DejaVu Sans';-inkscape-font-specification:'DejaVu Sans'"
           y="59.745117"
           x="15.006836"
           sodipodi:role="line"
           id="tspan3933">apps</tspan></text>
      <text
         y="59.745117"
         xml:space="preserve"
         x="142.48828"
         style="font-style:normal;font-variant:normal;font-weight:bold;font-stretch:normal;font-size:18px;line-height:125%;font-family:'DejaVu Sans';-inkscape-font-specification:'DejaVu Sans Bold';text-align:start;writing-mode:lr-tb;text-anchor:start;display:inline;fill:#000000;fill-opacity:1;stroke:none;enable-background:new"
         sodipodi:linespacing="125%"
         inkscape:label="icon-name"
         id="icon-name"><tspan
           style="font-style:normal;font-variant:normal;font-weight:bold;font-stretch:normal;font-size:18px;font-family:'DejaVu Sans';-inkscape-font-specification:'DejaVu Sans Bold'"
           y="59.745117"
           x="142.48828"
           sodipodi:role="line"
           id="tspan3937">accessories-notes</tspan></text>
      <rect
         style="display:inline;overflow:visible;visibility:visible;fill:#e9e9e9;fill-opacity:1;fill-rule:nonzero;stroke:none;stroke-width:2;marker:none;enable-background:accumulate"
         id="rect16x16"
         width="16"
         height="16"
         x="-32"
         y="268"
         inkscape:label="16x16"
         transform="scale(-1,1)" />
      <rect
         style="display:inline;overflow:visible;visibility:visible;fill:#e9e9e9;fill-opacity:1;fill-rule:nonzero;stroke:none;stroke-width:2;marker:none;enable-background:accumulate"
         id="rect24x24"
         width="24"
         height="24"
         x="-72"
         y="260"
         inkscape:label="24x24"
         transform="scale(-1,1)" />
      <rect
         style="display:inline;overflow:visible;visibility:visible;fill:#e9e9e9;fill-opacity:1;fill-rule:nonzero;stroke:none;stroke-width:2;marker:none;enable-background:accumulate"
         id="rect32x32"
         width="32"
         height="32"
         x="-120"
         y="252"
         inkscape:label="32x32"
         transform="scale(-1,1)" />
      <rect
         inkscape:label="48x48"
         y="236"
         x="-184"
         height="48"
         width="48"
         id="rect48x48"
         style="display:inline;overflow:visible;visibility:visible;fill:#e9e9e9;fill-opacity:1;fill-rule:nonzero;stroke:none;stroke-width:2;marker:none;enable-background:accumulate"
         transform="scale(-1,1)" />
      <rect
         style="display:inline;overflow:visible;visibility:visible;fill:#e9e9e9;fill-opacity:1;fill-rule:nonzero;stroke:none;stroke-width:2;marker:none;enable-background:accumulate"
         id="rect256x256"
         width="192"
         height="192"
         x="-584"
         y="92"
         inkscape:label="256x256"
         transform="scale(-1,1)" />
      <rect
         inkscape:label="256x256"
         y="188"
         x="-376"
         height="96"
         width="96"
         id="rect3949"
         style="display:inline;overflow:visible;visibility:visible;fill:#e9e9e9;fill-opacity:1;fill-rule:nonzero;stroke:none;stroke-width:2;marker:none;enable-background:accumulate"
         transform="scale(-1,1)" />
      <rect
         style="display:inline;overflow:visible;visibility:visible;fill:#e9e9e9;fill-opacity:1;fill-rule:nonzero;stroke:none;stroke-width:2;marker:none;enable-background:accumulate"
         id="rect3951"
         width="64"
         height="64"
         x="-264"
         y="220"
         inkscape:label="48x48"
         transform="scale(-1,1)" />
    </g>
    <g
       inkscape:groupmode="layer"
       id="layer6"
       inkscape:label="Symbols"
       style="display:inline">
      <path
         sodipodi:nodetypes="ssssccsss"
         inkscape:connector-curvature="0"
         style="opacity:0.05;fill:#000000;fill-opacity:1;stroke:#000000;stroke-opacity:1;stroke-width:2;stroke-miterlimit:4;stroke-dasharray:none"
         d="m 91.5,255 c -0.831,0 -1.5,0.669 -1.5,1.5 l 0,25 c 0,0.831 0.669,1.5 1.5,1.5 l 16.5,0 10,-10 0,-16.5 c 0,-0.831 -0.669,-1.5 -1.5,-1.5 z"
         id="path4515" />
      <path
         id="path4235"
         d="m 207,225 c -1.662,0 -3,1.338 -3,3 l 0,50 c 0,1.662 1.338,3 3,3 l 29,0 24,-24 0,-29 c 0,-1.662 -1.338,-3 -3,-3 z"
         style="opacity:0.4;fill:#000000;fill-opacity:1;stroke:none;filter:url(#filter4503)"
         inkscape:connector-curvature="0"
         sodipodi:nodetypes="ssssccsss" />
      <path
         inkscape:connector-curvature="0"
         style="opacity:0.05;fill:#000000;fill-opacity:1;stroke:#000000;stroke-width:2;stroke-miterlimit:4;stroke-dasharray:none;stroke-opacity:1"
         d="m 51,263 c -0.554,0 -1,0.446 -1,1 l 0,18 c 0,0.554 0.446,1 1,1 l 11,0 8,-8 0,-11 c 0,-0.554 -0.446,-1 -1,-1 z"
         id="path4300"
         sodipodi:nodetypes="ssssccsss" />
      <path
         id="path4229"
         d="m 416,110 c -4.432,0 -8,3.568 -8,8 l 0,144 c 0,4.432 3.568,8 8,8 l 96,0 56,-56 0,-96 c 0,-4.432 -3.568,-8 -8,-8 z"
         style="opacity:0.5;fill:#000000;fill-opacity:1;stroke:none;filter:url(#filter4296)"
         inkscape:connector-curvature="0"
         sodipodi:nodetypes="ssssccsss" />
      <path
         id="path4231"
         d="m 142,241 c -1.108,0 -2,0.892 -2,2 l 0,36 c 0,1.108 0.892,2 2,2 l 22,0 16,-16 0,-22 c 0,-1.108 -0.892,-2 -2,-2 z"
         style="opacity:0.5;fill:#000000;fill-opacity:1;stroke:none;filter:url(#filter4278)"
         inkscape:connector-curvature="0"
         sodipodi:nodetypes="ssssccsss" />
      <path
         id="path4233"
         d="m 292,197 c -2.216,0 -4,1.784 -4,4 l 0,72 c 0,2.216 1.784,4 4,4 l 44,0 32,-32 0,-44 c 0,-2.216 -1.784,-4 -4,-4 z"
         style="opacity:0.5;fill:#000000;fill-opacity:1;stroke:none;filter:url(#filter4292)"
         inkscape:connector-curvature="0"
         sodipodi:nodetypes="ssssccsss" />
      <path
         id="path4237"
         d="m 51,263 c -0.554,0 -1,0.446 -1,1 l 0,18 c 0,0.554 0.446,1 1,1 l 11,0 8,-8 0,-11 c 0,-0.554 -0.446,-1 -1,-1 z"
         style="opacity:0.3;fill:#000000;fill-opacity:1;stroke:none"
         inkscape:connector-curvature="0"
         sodipodi:nodetypes="ssssccsss" />
      <path
         id="path4239"
         d="m 91.5,255 c -0.831,0 -1.5,0.669 -1.5,1.5 l 0,25 c 0,0.831 0.669,1.5 1.5,1.5 l 16.5,0 10,-10 0,-16.5 c 0,-0.831 -0.669,-1.5 -1.5,-1.5 z"
         style="opacity:0.2;fill:#000000;fill-opacity:1;stroke:none;"
         inkscape:connector-curvature="0"
         sodipodi:nodetypes="ssssccsss" />
      <path
         style="fill:#fecd38;fill-opacity:1;stroke:none"
         d="m 416,32 c -4.432,0 -8,3.568 -8,8 l 0,144 c 0,4.432 3.568,8 8,8 l 96,0 56,-56 0,-96 c 0,-4.432 -3.568,-8 -8,-8 z"
         transform="translate(0,76)"
         id="rect4189"
         inkscape:connector-curvature="0"
         sodipodi:nodetypes="ssssccsss" />
      <path
         style="fill:#fecd38;fill-opacity:1;stroke:none"
         d="m 142,164 c -1.108,0 -2,0.892 -2,2 l 0,36 c 0,1.108 0.892,2 2,2 l 22,0 16,-16 0,-22 c 0,-1.108 -0.892,-2 -2,-2 z"
         transform="translate(0,76)"
         id="rect4203"
         inkscape:connector-curvature="0"
         sodipodi:nodetypes="ssssccsss" />
      <path
         style="fill:#fecd38;fill-opacity:1;stroke:none"
         d="m 292,120 c -2.216,0 -4,1.784 -4,4 l 0,72 c 0,2.216 1.784,4 4,4 l 44,0 32,-32 0,-44 c 0,-2.216 -1.784,-4 -4,-4 z"
         transform="translate(0,76)"
         id="rect4217"
         inkscape:connector-curvature="0"
         sodipodi:nodetypes="ssssccsss" />
      <path
         style="fill:#fecd38;fill-opacity:1;stroke:none"
         d="m 207,148 c -1.662,0 -3,1.338 -3,3 l 0,50 c 0,1.662 1.338,3 3,3 l 29,0 24,-24 0,-29 c 0,-1.662 -1.338,-3 -3,-3 z"
         id="rect4229"
         inkscape:connector-curvature="0"
         sodipodi:nodetypes="ssssccsss"
         transform="translate(0,76)" />
      <path
         style="fill:#fecd38;fill-opacity:1;stroke:none"
         d="m 51,186 c -0.554,0 -1,0.446 -1,1 l 0,18 c 0,0.554 0.446,1 1,1 l 11,0 8,-8 0,-11 c 0,-0.554 -0.446,-1 -1,-1 z"
         transform="translate(0,76)"
         id="rect4243"
         inkscape:connector-curvature="0"
         sodipodi:nodetypes="ssssccsss" />
      <path
         style="fill:#fecd38;fill-opacity:1;stroke:none"
         d="m 92,178 c 0,0 -2,0 -2,2 l 0,24 c 0,2 2,2 2,2 l 16,0 10,-10 0,-16 c 0,-2 -2,-2 -2,-2 z"
         transform="translate(0,76)"
         id="rect4255"
         inkscape:connector-curvature="0"
         sodipodi:nodetypes="csscccscc" />
      <path
         style="display:inline;fill:#fecd38;fill-opacity:1;stroke:none;enable-background:new"
         d="m 17,192 c -0.554,0 -1,0.446 -1,1 l 0,14 c 0,0.554 0.446,1 1,1 l 9,0 6,-6 0,-9 c 0,-0.554 -0.446,-1 -1,-1 z"
         transform="translate(0,76)"
         id="rect4265"
         inkscape:connector-curvature="0"
         sodipodi:nodetypes="ssssccsss" />
      <path
         sodipodi:nodetypes="csscc"
         style="display:inline;opacity:0.5;fill:#000000;fill-opacity:1;stroke:none;enable-background:new;filter:url(#filter4477)"
         d="m 180,265 -14,0 c -1.10457,0 -2,0.89544 -2,2 l 0,14 z"
         id="path4357"
         inkscape:connector-curvature="0"
         clip-path="url(#clipPath4473)" />
      <path
         inkscape:connector-curvature="0"
         id="path4240"
         d="m 180,264 -14,0 c -1.10457,0 -2,0.89544 -2,2 l 0,14 z"
         style="display:inline;opacity:1;fill:#ffe69b;fill-opacity:1;stroke:none;enable-background:new"
         sodipodi:nodetypes="csscc" />
      <path
         sodipodi:nodetypes="ccccc"
         inkscape:connector-curvature="0"
         id="path4359"
         d="m 70,274 -8,8 0,-7 c 0,0 0,-1 1,-1 z"
         style="display:inline;opacity:0.05;fill:#000000;fill-opacity:1;stroke:#000000;stroke-width:2;stroke-linecap:butt;stroke-linejoin:miter;stroke-opacity:1;enable-background:new;stroke-miterlimit:4;stroke-dasharray:none"
         clip-path="url(#clipPath4493)" />
      <path
         style="display:inline;opacity:1;fill:#ffe69b;fill-opacity:1;stroke:none;stroke-width:1px;stroke-linecap:butt;stroke-linejoin:miter;stroke-opacity:1;enable-background:new"
         d="m 70,274 -8,8 0,-7 c 0,0 0,-1 1,-1 z"
         id="path3315"
         inkscape:connector-curvature="0"
         sodipodi:nodetypes="ccccc" />
      <path
         style="display:inline;opacity:0.05;fill:#000000;fill-opacity:1;stroke:#000000;enable-background:new;stroke-opacity:1;stroke-width:2;stroke-miterlimit:4;stroke-dasharray:none"
         d="m 32,278 -6,6 0,-5 c 0,0 0,-1 1,-1 z"
         id="path4361"
         inkscape:connector-curvature="0"
         sodipodi:nodetypes="ccccc"
         clip-path="url(#clipPath4499)" />
      <path
         sodipodi:nodetypes="ccccc"
         inkscape:connector-curvature="0"
         id="path4088"
         d="m 32,278 -6,6 0,-5 c 0,0 0,-1 1,-1 z"
         style="display:inline;opacity:1;fill:#ffe69b;fill-opacity:1;stroke:none;enable-background:new" />
      <path
         sodipodi:nodetypes="csscc"
         inkscape:connector-curvature="0"
         id="path4363"
         d="m 260,258 -21,0 c -1.65685,0 -3,1.34316 -3,3 l 0,21 z"
         style="display:inline;opacity:0.2;fill:#000000;fill-opacity:1;stroke:none;enable-background:new;filter:url(#filter4467)"
         clip-path="url(#clipPath4463)" />
      <path
         style="display:inline;opacity:1;fill:#ffe69b;fill-opacity:1;stroke:none;enable-background:new"
         d="m 260,256 -21,0 c -1.65685,0 -3,1.34316 -3,3 l 0,21 z"
         id="path4145"
         inkscape:connector-curvature="0"
         sodipodi:nodetypes="csscc" />
      <path
         style="display:inline;fill:#000000;fill-opacity:1;stroke:none;enable-background:new;opacity:0.2;filter:url(#filter4487)"
         d="m 118,272 -8.5,0 c -0.82843,0 -1.5,0.67158 -1.5,1.5 l 0,8.5 z"
         id="path4365"
         inkscape:connector-curvature="0"
         sodipodi:nodetypes="csscc"
         clip-path="url(#clipPath4483)" />
      <path
         sodipodi:nodetypes="csscc"
         inkscape:connector-curvature="0"
         id="path4172"
         d="m 118,272 -8.5,0 c -0.82843,0 -1.5,0.67158 -1.5,1.5 l 0,8.5 z"
         style="display:inline;fill:#ffe69b;fill-opacity:1;stroke:none;enable-background:new" />
      <path
         sodipodi:nodetypes="csscc"
         id="path4367"
         d="m 368,246 -28,0 c -2.20914,0 -4,1.79087 -4,4 l 0,28 z"
         style="display:inline;opacity:0.2;fill:#000000;fill-opacity:1;stroke:none;enable-background:new;filter:url(#filter4451)"
         inkscape:connector-curvature="0"
         clip-path="url(#clipPath4415)" />
      <path
         inkscape:connector-curvature="0"
         style="display:inline;fill:#ffe69b;fill-opacity:1;stroke:none;enable-background:new"
         d="m 368,244 -28,0 c -2.20914,0 -4,1.79087 -4,4 l 0,28 z"
         id="path4248"
         sodipodi:nodetypes="csscc" />
      <path
         sodipodi:nodetypes="csscc"
         inkscape:connector-curvature="0"
         style="display:inline;opacity:0.2;fill:#000000;fill-opacity:1;stroke:none;filter:url(#filter4409);enable-background:new"
         d="m 568,216 -48,0 c -4.41828,0 -8,3.58173 -8,8 l 0,48 z"
         id="path4369"
         clip-path="url(#clipPath4401)" />
      <path
         id="path4287"
         d="m 568,212 -48,0 c -4.41828,0 -8,3.58173 -8,8 l 0,48 z"
         style="display:inline;fill:#ffe69b;fill-opacity:1;stroke:none;enable-background:new"
         inkscape:connector-curvature="0"
         sodipodi:nodetypes="csscc" />
      <path
         style="opacity:0.1;fill:#ffffff;fill-opacity:1;stroke:none"
         d="m 416,32 c -4.432,0 -8,3.568 -8,8 l 0,1 c 0,-4.432 3.568,-8 8,-8 l 144,0 c 4.432,0 8,3.568 8,8 l 0,-1 c 0,-4.432 -3.568,-8 -8,-8 z"
         transform="translate(0,76)"
         id="path4243"
         inkscape:connector-curvature="0"
         sodipodi:nodetypes="sscsscsss" />
      <path
         style="opacity:0.1;fill:#ffffff;fill-opacity:1;stroke:none"
         d="m 142,164 c -1.108,0 -2,0.892 -2,2 l 0,1 c 0,-1.108 0.892,-2 2,-2 l 36,0 c 1.108,0 2,0.892 2,2 l 0,-1 c 0,-1.108 -0.892,-2 -2,-2 z"
         transform="translate(0,76)"
         id="path4245"
         inkscape:connector-curvature="0"
         sodipodi:nodetypes="sscsscsss" />
      <path
         style="opacity:0.1;fill:#ffffff;fill-opacity:1;stroke:none"
         d="m 292,120 c -2.216,0 -4,1.784 -4,4 l 0,1 c 0,-2.216 1.784,-4 4,-4 l 72,0 c 2.216,0 4,1.784 4,4 l 0,-1 c 0,-2.216 -1.784,-4 -4,-4 z"
         transform="translate(0,76)"
         id="path4247"
         inkscape:connector-curvature="0"
         sodipodi:nodetypes="sscsscsss" />
      <path
         style="opacity:0.1;fill:#ffffff;fill-opacity:1;stroke:none"
         d="m 207,148 c -1.662,0 -3,1.338 -3,3 l 0,1 c 0,-1.662 1.338,-3 3,-3 l 50,0 c 1.662,0 3,1.338 3,3 l 0,-1 c 0,-1.662 -1.338,-3 -3,-3 z"
         transform="translate(0,76)"
         id="path4249"
         inkscape:connector-curvature="0"
         sodipodi:nodetypes="sscsscsss" />
      <path
         style="opacity:0.1;fill:#ffffff;fill-opacity:1;stroke:none"
         d="m 51,186 c -0.554,0 -1,0.446 -1,1 l 0,1 c 0,-0.554 0.446,-1 1,-1 l 18,0 c 0.554,0 1,0.446 1,1 l 0,-1 c 0,-0.554 -0.446,-1 -1,-1 z"
         transform="translate(0,76)"
         id="path4251"
         inkscape:connector-curvature="0"
         sodipodi:nodetypes="sscsscsss" />
      <path
         style="opacity:0.1;fill:#ffffff;fill-opacity:1;stroke:none"
         d="m 92,178 c -0.831,0 -2,1.169 -2,2 l 0,1 c 0,-0.831 1.169,-2 2,-2 l 24,0 c 0.831,0 2,1.169 2,2 l 0,-1 c 0,-0.831 -1.169,-2 -2,-2 z"
         transform="translate(0,76)"
         id="path4253"
         inkscape:connector-curvature="0"
         sodipodi:nodetypes="sscsscsss" />
      <path
         style="display:inline;opacity:0.1;fill:#ffffff;fill-opacity:1;stroke:none;enable-background:new"
         d="m 17,192 c -0.554,0 -1,0.446 -1,1 l 0,1 c 0,-0.554 0.446,-1 1,-1 l 14,0 c 0.554,0 1,0.446 1,1 l 0,-1 c 0,-0.554 -0.446,-1 -1,-1 z"
         transform="translate(0,76)"
         id="path4255"
         inkscape:connector-curvature="0"
         sodipodi:nodetypes="sscsscsss" />
      <path
         style="display:inline;opacity:0.1;fill:#ffffff;fill-opacity:1;stroke:none;enable-background:new"
         d="m 166,262 c -1.10457,0 -2,0.89544 -2,2 l 0,1 c 0,-1.10456 0.89543,-2 2,-2 l 13,0 1,-1 -14,0 z"
         id="path4320"
         inkscape:connector-curvature="0" />
      <path
         style="display:inline;opacity:0.1;fill:#ffffff;fill-opacity:1;stroke:none;stroke-width:1px;stroke-linecap:butt;stroke-linejoin:miter;stroke-opacity:1;enable-background:new"
         d="M 63 198 C 62 198 62 199 62 199 L 62 200 C 62 200 62 199 63 199 L 69 199 L 70 198 L 63 198 z "
         transform="translate(0,76)"
         id="path4322" />
      <path
         style="display:inline;opacity:0.1;fill:#ffffff;fill-opacity:1;stroke:none;enable-background:new"
         d="M 27 202 C 26 202 26 203 26 203 L 26 204 C 26 204 26 203 27 203 L 31 203 L 32 202 L 27 202 z "
         transform="translate(0,76)"
         id="path4324" />
      <path
         style="display:inline;opacity:0.1;fill:#ffffff;fill-opacity:1;stroke:none;enable-background:new"
         d="M 239 180 C 237.34315 180 236 181.34316 236 183 L 236 184 C 236 182.34316 237.34315 181 239 181 L 259 181 L 260 180 L 239 180 z "
         transform="translate(0,76)"
         id="path4326" />
      <path
         style="display:inline;fill:#ffffff;fill-opacity:1;stroke:none;enable-background:new;opacity:0.1"
         d="M 109.5 196 C 108.67157 196 108 196.67158 108 197.5 L 108 198.5 C 108 197.67158 108.67157 197 109.5 197 L 117 197 L 118 196 L 109.5 196 z "
         transform="translate(0,76)"
         id="path4328" />
      <path
         style="display:inline;fill:#ffffff;fill-opacity:1;stroke:none;enable-background:new;opacity:0.1"
         d="M 340 168 C 337.79086 168 336 169.79087 336 172 L 336 173 C 336 170.79087 337.79086 169 340 169 L 367 169 L 368 168 L 340 168 z "
         transform="translate(0,76)"
         id="path4330" />
      <path
         style="display:inline;fill:#ffffff;fill-opacity:1;stroke:none;enable-background:new;opacity:0.1"
         d="M 520 136 C 515.58172 136 512 139.58173 512 144 L 512 145 C 512 140.58173 515.58172 137 520 137 L 567 137 L 568 136 L 520 136 z "
         transform="translate(0,76)"
         id="path4332" />
      <text
         transform="matrix(0.98963588,-0.14359955,0.14359955,0.98963588,0,0)"
         sodipodi:linespacing="125%"
         id="text5613"
         y="279.2641"
         x="121.95627"
         style="font-style:normal;font-variant:normal;font-weight:normal;font-stretch:normal;font-size:17.2367363px;line-height:125%;font-family:'Jenna Sue';-inkscape-font-specification:'Jenna Sue';text-align:center;letter-spacing:0px;word-spacing:0px;text-anchor:middle;opacity:0.1;fill:#ffffff;fill-opacity:1;stroke:none;stroke-width:1px;stroke-linecap:butt;stroke-linejoin:miter;stroke-opacity:1"
         xml:space="preserve"><tspan
           y="279.2641"
           x="121.95627"
           id="tspan5615"
           sodipodi:role="line">Notes</tspan></text>
      <text
         xml:space="preserve"
         style="font-style:normal;font-variant:normal;font-weight:normal;font-stretch:normal;font-size:17.2367363px;line-height:125%;font-family:'Jenna Sue';-inkscape-font-specification:'Jenna Sue';text-align:center;letter-spacing:0px;word-spacing:0px;text-anchor:middle;opacity:1;fill:#a67d00;fill-opacity:1;stroke:none;stroke-width:1px;stroke-linecap:butt;stroke-linejoin:miter;stroke-opacity:1"
         x="122.09987"
         y="278.27448"
         id="text5597"
         sodipodi:linespacing="125%"
         transform="matrix(0.98963588,-0.14359955,0.14359955,0.98963588,0,0)"><tspan
           sodipodi:role="line"
           id="tspan5599"
           x="122.09987"
           y="278.27448">Notes</tspan></text>
      <text
         xml:space="preserve"
         style="font-style:normal;font-variant:normal;font-weight:normal;font-stretch:normal;font-size:34.93260574px;line-height:125%;font-family:'Jenna Sue';-inkscape-font-specification:'Jenna Sue';text-align:center;letter-spacing:0px;word-spacing:0px;text-anchor:middle;opacity:0.1;fill:#ffffff;fill-opacity:1;stroke:none;stroke-width:1px;stroke-linecap:butt;stroke-linejoin:miter;stroke-opacity:1;"
         x="291.05746"
         y="279.28168"
         id="text5617"
         sodipodi:linespacing="125%"
         transform="matrix(0.98963588,-0.14359955,0.14359955,0.98963588,0,0)"><tspan
           sodipodi:role="line"
           id="tspan5619"
           x="291.05746"
           y="279.28168">Notes</tspan></text>
      <text
         transform="matrix(0.98963588,-0.14359955,0.14359955,0.98963588,0,0)"
         sodipodi:linespacing="125%"
         id="text5601"
         y="278.29205"
         x="291.20105"
         style="font-style:normal;font-variant:normal;font-weight:normal;font-stretch:normal;font-size:34.93260574px;line-height:125%;font-family:'Jenna Sue';-inkscape-font-specification:'Jenna Sue';text-align:center;letter-spacing:0px;word-spacing:0px;text-anchor:middle;opacity:1;fill:#a67d00;fill-opacity:1;stroke:none;stroke-width:1px;stroke-linecap:butt;stroke-linejoin:miter;stroke-opacity:1;"
         xml:space="preserve"><tspan
           y="278.29205"
           x="291.20105"
           id="tspan5603"
           sodipodi:role="line">Notes</tspan></text>
      <text
         transform="matrix(0.98963588,-0.14359955,0.14359955,0.98963588,0,0)"
         sodipodi:linespacing="125%"
         id="text5621"
         y="281.70074"
         x="194.06105"
         style="font-style:normal;font-variant:normal;font-weight:normal;font-stretch:normal;font-size:24.45282364px;line-height:125%;font-family:'Jenna Sue';-inkscape-font-specification:'Jenna Sue';text-align:center;letter-spacing:0px;word-spacing:0px;text-anchor:middle;opacity:0.1;fill:#ffffff;fill-opacity:1;stroke:none;stroke-width:1px;stroke-linecap:butt;stroke-linejoin:miter;stroke-opacity:1;"
         xml:space="preserve"><tspan
           y="281.70074"
           x="194.06105"
           id="tspan5623"
           sodipodi:role="line">Notes</tspan></text>
      <text
         xml:space="preserve"
         style="font-style:normal;font-variant:normal;font-weight:normal;font-stretch:normal;font-size:24.45282364px;line-height:125%;font-family:'Jenna Sue';-inkscape-font-specification:'Jenna Sue';text-align:center;letter-spacing:0px;word-spacing:0px;text-anchor:middle;opacity:1;fill:#a67d00;fill-opacity:1;stroke:none;stroke-width:1px;stroke-linecap:butt;stroke-linejoin:miter;stroke-opacity:1;"
         x="194.20465"
         y="280.71112"
         id="text5605"
         sodipodi:linespacing="125%"
         transform="matrix(0.98963588,-0.14359955,0.14359955,0.98963588,0,0)"><tspan
           sodipodi:role="line"
           id="tspan5607"
           x="194.20465"
           y="280.71112">Notes</tspan></text>
      <text
         transform="matrix(0.98963588,-0.14359955,0.14359955,0.98963588,0,0)"
         sodipodi:linespacing="125%"
         id="text5625"
         y="254.6588"
         x="458.47403"
         style="font-style:normal;font-variant:normal;font-weight:normal;font-stretch:normal;font-size:69.86521149px;line-height:125%;font-family:'Jenna Sue';-inkscape-font-specification:'Jenna Sue';text-align:center;letter-spacing:0px;word-spacing:0px;text-anchor:middle;opacity:0.1;fill:#ffffff;fill-opacity:1;stroke:none;stroke-width:1px;stroke-linecap:butt;stroke-linejoin:miter;stroke-opacity:1;"
         xml:space="preserve"><tspan
           y="254.6588"
           x="458.47403"
           id="tspan5627"
           sodipodi:role="line">Notes</tspan></text>
      <text
         xml:space="preserve"
         style="font-style:normal;font-variant:normal;font-weight:normal;font-stretch:normal;font-size:69.86521149px;line-height:125%;font-family:'Jenna Sue';-inkscape-font-specification:'Jenna Sue';text-align:center;letter-spacing:0px;word-spacing:0px;text-anchor:middle;opacity:1;fill:#a67d00;fill-opacity:1;stroke:none;stroke-width:1px;stroke-linecap:butt;stroke-linejoin:miter;stroke-opacity:1;"
         x="458.61761"
         y="253.66916"
         id="text5609"
         sodipodi:linespacing="125%"
         transform="matrix(0.98963588,-0.14359955,0.14359955,0.98963588,0,0)"><tspan
           sodipodi:role="line"
           id="tspan5611"
           x="458.61761"
           y="253.66916">Notes</tspan></text>
    </g>
  </g>
</svg>
