<?xml version="1.0" encoding="UTF-8" standalone="no"?>
<!-- Created with Inkscape (http://www.inkscape.org/) -->

<svg
   xmlns:osb="http://www.openswatchbook.org/uri/2009/osb"
   xmlns:dc="http://purl.org/dc/elements/1.1/"
   xmlns:cc="http://creativecommons.org/ns#"
   xmlns:rdf="http://www.w3.org/1999/02/22-rdf-syntax-ns#"
   xmlns:svg="http://www.w3.org/2000/svg"
   xmlns="http://www.w3.org/2000/svg"
   xmlns:sodipodi="http://sodipodi.sourceforge.net/DTD/sodipodi-0.dtd"
   xmlns:inkscape="http://www.inkscape.org/namespaces/inkscape"
   inkscape:export-ydpi="90.000000"
   inkscape:export-xdpi="90.000000"
   width="600"
   height="224"
   id="svg11300"
   sodipodi:version="0.32"
   inkscape:version="0.91 r13725"
   sodipodi:docname="accessories-dictionary.svg"
   inkscape:output_extension="org.inkscape.output.svg.inkscape"
   version="1.0"
   style="display:inline;enable-background:new"
   inkscape:export-filename="/home/sam/paper-template.png">
  <title
     id="title3004">Paper Icon Theme Template</title>
  <sodipodi:namedview
     stroke="#ef2929"
     fill="#f57900"
     id="base"
     pagecolor="#484848"
     bordercolor="#666666"
     borderopacity="0.25490196"
     inkscape:pageopacity="0"
     inkscape:pageshadow="2"
     inkscape:zoom="1"
     inkscape:cx="175.65157"
     inkscape:cy="68.562898"
     inkscape:current-layer="layer6"
     showgrid="false"
     inkscape:grid-bbox="true"
     inkscape:document-units="px"
     inkscape:showpageshadow="false"
     inkscape:window-width="1366"
     inkscape:window-height="711"
     inkscape:window-x="0"
     inkscape:window-y="27"
     width="400px"
     height="300px"
     inkscape:snap-nodes="true"
     inkscape:snap-bbox="true"
     gridtolerance="10000"
     inkscape:object-nodes="true"
     inkscape:snap-grids="true"
     showguides="true"
     inkscape:guide-bbox="true"
     inkscape:window-maximized="1"
     inkscape:snap-global="true"
     inkscape:snap-intersection-paths="true">
    <inkscape:grid
       spacingy="1px"
       spacingx="1px"
       id="grid5883"
       type="xygrid"
       enabled="true"
       visible="true"
       empspacing="4"
       snapvisiblegridlinesonly="true" />
    <inkscape:grid
       type="xygrid"
       id="grid11592"
       empspacing="2"
       visible="true"
       enabled="false"
       spacingx="0.5px"
       spacingy="0.5px"
       color="#ff0000"
       opacity="0.1254902"
       empcolor="#ff0000"
       empopacity="0.25098039"
       snapvisiblegridlinesonly="true" />
    <sodipodi:guide
       orientation="0,1"
       position="0,224"
       id="guide4275" />
  </sodipodi:namedview>
  <defs
     id="defs3">
    <filter
       inkscape:collect="always"
       id="filter4120">
      <feGaussianBlur
         inkscape:collect="always"
         stdDeviation="0.89999943"
         id="feGaussianBlur4122" />
    </filter>
    <filter
       inkscape:collect="always"
       style="color-interpolation-filters:sRGB"
       id="filter8393"
       x="-0.12437639"
       width="1.2487528"
       y="-0.039536284"
       height="1.0790726">
      <feGaussianBlur
         inkscape:collect="always"
         stdDeviation="0.72552892"
         id="feGaussianBlur8395" />
    </filter>
    <filter
       inkscape:collect="always"
       style="color-interpolation-filters:sRGB"
       id="filter4456"
       x="-0.06752462"
       width="1.1350492"
       y="-0.053984254"
       height="1.1079685">
      <feGaussianBlur
         inkscape:collect="always"
         stdDeviation="3.5989503"
         id="feGaussianBlur4458" />
    </filter>
    <linearGradient
       osb:paint="solid"
       id="linearGradient5606">
      <stop
         style="stop-color:#000000;stop-opacity:1;"
         offset="0"
         id="stop5608" />
    </linearGradient>
    <filter
       inkscape:collect="always"
       style="color-interpolation-filters:sRGB"
       id="filter4686"
       x="-0.0675"
       width="1.135"
       y="-0.054"
       height="1.108">
      <feGaussianBlur
         inkscape:collect="always"
         stdDeviation="0.45"
         id="feGaussianBlur4688" />
    </filter>
    <filter
       inkscape:collect="always"
       style="color-interpolation-filters:sRGB"
       id="filter4711"
       x="-0.24875278"
       width="1.4975056"
       y="-0.079072566"
       height="1.1581451">
      <feGaussianBlur
         inkscape:collect="always"
         stdDeviation="5.8042378"
         id="feGaussianBlur4713" />
    </filter>
    <filter
       inkscape:collect="always"
       style="color-interpolation-filters:sRGB"
       id="filter4717"
       x="-0.24875278"
       width="1.4975056"
       y="-0.079072566"
       height="1.1581451">
      <feGaussianBlur
         inkscape:collect="always"
         stdDeviation="2.9021189"
         id="feGaussianBlur4719" />
    </filter>
    <filter
       inkscape:collect="always"
       style="color-interpolation-filters:sRGB"
       id="filter4462"
       x="-0.135"
       width="1.27"
       y="-0.038571429"
       height="1.0771429">
      <feGaussianBlur
         inkscape:collect="always"
         stdDeviation="0.28125"
         id="feGaussianBlur4464" />
    </filter>
  </defs>
  <metadata
     id="metadata4">
    <rdf:RDF>
      <cc:Work
         rdf:about="">
        <dc:format>image/svg+xml</dc:format>
        <dc:type
           rdf:resource="http://purl.org/dc/dcmitype/StillImage" />
        <dc:creator>
          <cc:Agent>
            <dc:title>Sam Hewitt</dc:title>
          </cc:Agent>
        </dc:creator>
        <dc:source />
        <cc:license
           rdf:resource="" />
        <dc:title>Paper Icon Theme Template</dc:title>
        <dc:subject>
          <rdf:Bag />
        </dc:subject>
        <dc:date />
        <dc:rights>
          <cc:Agent>
            <dc:title />
          </cc:Agent>
        </dc:rights>
        <dc:publisher>
          <cc:Agent>
            <dc:title />
          </cc:Agent>
        </dc:publisher>
        <dc:identifier />
        <dc:relation />
        <dc:language />
        <dc:coverage />
        <dc:description />
        <dc:contributor>
          <cc:Agent>
            <dc:title />
          </cc:Agent>
        </dc:contributor>
      </cc:Work>
      <cc:Work
         rdf:about="">
        <dc:format>image/svg+xml</dc:format>
        <dc:type
           rdf:resource="http://purl.org/dc/dcmitype/StillImage" />
      </cc:Work>
    </rdf:RDF>
  </metadata>
  <g
     style="display:inline"
     inkscape:groupmode="layer"
     inkscape:label="Icon"
     id="layer1"
     transform="translate(0,-76)">
    <g
       style="display:none"
       inkscape:label="Baseplate"
       id="layer7"
       inkscape:groupmode="layer">
      <text
         y="59.745117"
         xml:space="preserve"
         x="15.006836"
         style="font-style:normal;font-variant:normal;font-weight:normal;font-stretch:normal;font-size:18px;font-family:'DejaVu Sans';-inkscape-font-specification:'DejaVu Sans';display:inline;fill:#000000;fill-opacity:1;stroke:none;enable-background:new"
         inkscape:label="context"
         id="context"><tspan
           style="font-style:normal;font-variant:normal;font-weight:normal;font-stretch:normal;font-family:'DejaVu Sans';-inkscape-font-specification:'DejaVu Sans'"
           y="59.745117"
           x="15.006836"
           sodipodi:role="line"
           id="tspan3933">apps</tspan></text>
      <text
         y="59.745117"
         xml:space="preserve"
         x="142.48828"
         style="font-style:normal;font-variant:normal;font-weight:bold;font-stretch:normal;font-size:18px;line-height:125%;font-family:'DejaVu Sans';-inkscape-font-specification:'DejaVu Sans Bold';text-align:start;writing-mode:lr-tb;text-anchor:start;display:inline;fill:#000000;fill-opacity:1;stroke:none;enable-background:new"
         sodipodi:linespacing="125%"
         inkscape:label="icon-name"
         id="icon-name"><tspan
           style="font-style:normal;font-variant:normal;font-weight:bold;font-stretch:normal;font-size:18px;font-family:'DejaVu Sans';-inkscape-font-specification:'DejaVu Sans Bold'"
           y="59.745117"
           x="142.48828"
           sodipodi:role="line"
           id="tspan3937">accessories-dictionary</tspan></text>
      <rect
         style="display:inline;overflow:visible;visibility:visible;fill:#e9e9e9;fill-opacity:1;fill-rule:nonzero;stroke:none;stroke-width:2;marker:none;enable-background:accumulate"
         id="rect16x16"
         width="16"
         height="16"
         x="-32"
         y="268"
         inkscape:label="16x16"
         transform="scale(-1,1)" />
      <rect
         style="display:inline;overflow:visible;visibility:visible;fill:#e9e9e9;fill-opacity:1;fill-rule:nonzero;stroke:none;stroke-width:2;marker:none;enable-background:accumulate"
         id="rect24x24"
         width="24"
         height="24"
         x="-72"
         y="260"
         inkscape:label="24x24"
         transform="scale(-1,1)" />
      <rect
         style="display:inline;overflow:visible;visibility:visible;fill:#e9e9e9;fill-opacity:1;fill-rule:nonzero;stroke:none;stroke-width:2;marker:none;enable-background:accumulate"
         id="rect32x32"
         width="32"
         height="32"
         x="-120"
         y="252"
         inkscape:label="32x32"
         transform="scale(-1,1)" />
      <rect
         inkscape:label="48x48"
         y="236"
         x="-184"
         height="48"
         width="48"
         id="rect48x48"
         style="display:inline;overflow:visible;visibility:visible;fill:#e9e9e9;fill-opacity:1;fill-rule:nonzero;stroke:none;stroke-width:2;marker:none;enable-background:accumulate"
         transform="scale(-1,1)" />
      <rect
         style="display:inline;overflow:visible;visibility:visible;fill:#e9e9e9;fill-opacity:1;fill-rule:nonzero;stroke:none;stroke-width:2;marker:none;enable-background:accumulate"
         id="rect256x256"
         width="192"
         height="192"
         x="-584"
         y="92"
         inkscape:label="256x256"
         transform="scale(-1,1)" />
      <rect
         inkscape:label="256x256"
         y="188"
         x="-376"
         height="96"
         width="96"
         id="rect3949"
         style="display:inline;overflow:visible;visibility:visible;fill:#e9e9e9;fill-opacity:1;fill-rule:nonzero;stroke:none;stroke-width:2;marker:none;enable-background:accumulate"
         transform="scale(-1,1)" />
      <rect
         style="display:inline;overflow:visible;visibility:visible;fill:#e9e9e9;fill-opacity:1;fill-rule:nonzero;stroke:none;stroke-width:2;marker:none;enable-background:accumulate"
         id="rect3951"
         width="64"
         height="64"
         x="-264"
         y="220"
         inkscape:label="48x48"
         transform="scale(-1,1)" />
    </g>
    <g
       inkscape:groupmode="layer"
       id="layer6"
       inkscape:label="Symbols"
       style="display:inline">
      <path
         style="opacity:0.5;fill:#000000;fill-opacity:1;stroke:none;filter:url(#filter4686)"
         d="M 65.398438 185.97852 C 65.269479 185.96682 65.13581 185.97284 65 186 L 60 187 L 54 187 C 52.892 187 52 187.892 52 189 L 52 205 C 52 206.108 52.892 207 54 207 L 60 207 L 65 208 C 65.814862 208.16298 66.531988 207.57979 66.839844 206.81055 C 67.523988 206.49349 68 205.80624 68 205 L 68 189 C 68 188.19376 67.523988 187.50651 66.839844 187.18945 C 66.583297 186.54842 66.043231 186.03702 65.398438 185.97852 z "
         transform="translate(0,76)"
         id="path4680" />
      <path
         style="opacity:0.5;fill:#000000;fill-opacity:1;stroke:none;filter:url(#filter4456)"
         d="m 432,110 c -4.432,0 -8,3.568 -8,8 l 0,144 c 0,4.432 3.568,8 8,8 l 55.91602,0 56,0 c 4.432,0 8,-3.56798 8,-8 l 0,-144 c 0,-4.432 -3.568,-8 -8,-8 l -56,0 L 432,110 Z"
         id="path4439"
         inkscape:connector-curvature="0" />
      <rect
         transform="matrix(0,-2.0000022,-2.0000022,0,7.499703,-285.00053)"
         style="opacity:0.5;fill:#000000;fill-opacity:1;stroke:none;filter:url(#filter4120)"
         id="rect8322"
         width="39.999954"
         height="32"
         x="-281"
         y="-176.25"
         rx="2"
         ry="2" />
      <rect
         ry="3"
         rx="3"
         y="-260"
         x="-280"
         height="56"
         width="56"
         id="rect4229"
         style="fill:#ebebeb;fill-opacity:1;stroke:none"
         transform="matrix(0,-1,-1,0,0,0)" />
      <path
         d="m 42,8 a 2,2 0 0 1 -2,2 2,2 0 0 1 -2,-2 2,2 0 0 1 2,-2 2,2 0 0 1 2,2 z"
         sodipodi:ry="2"
         sodipodi:rx="2"
         sodipodi:cy="8"
         sodipodi:cx="40"
         id="path4231"
         style="opacity:0.2;fill:#000000;fill-opacity:1;stroke:none"
         sodipodi:type="arc"
         transform="matrix(1.5,0,0,1.5,197,215)" />
      <path
         transform="matrix(1.5,0,0,1.5,147,215)"
         sodipodi:type="arc"
         style="opacity:0.2;fill:#000000;fill-opacity:1;stroke:none"
         id="path4233"
         sodipodi:cx="40"
         sodipodi:cy="8"
         sodipodi:rx="2"
         sodipodi:ry="2"
         d="m 42,8 a 2,2 0 0 1 -2,2 2,2 0 0 1 -2,-2 2,2 0 0 1 2,-2 2,2 0 0 1 2,2 z" />
      <path
         d="m 42,8 a 2,2 0 0 1 -2,2 2,2 0 0 1 -2,-2 2,2 0 0 1 2,-2 2,2 0 0 1 2,2 z"
         sodipodi:ry="2"
         sodipodi:rx="2"
         sodipodi:cy="8"
         sodipodi:cx="40"
         id="path4235"
         style="opacity:0.2;fill:#000000;fill-opacity:1;stroke:none"
         sodipodi:type="arc"
         transform="matrix(1.5,0,0,1.5,147,265)" />
      <path
         transform="matrix(1.5,0,0,1.5,197,265)"
         sodipodi:type="arc"
         style="opacity:0.2;fill:#000000;fill-opacity:1;stroke:none"
         id="path4237"
         sodipodi:cx="40"
         sodipodi:cy="8"
         sodipodi:rx="2"
         sodipodi:ry="2"
         d="m 42,8 a 2,2 0 0 1 -2,2 2,2 0 0 1 -2,-2 2,2 0 0 1 2,-2 2,2 0 0 1 2,2 z" />
      <path
         style="fill:#ebebeb;fill-opacity:1;stroke:none"
         d="M 60 186 L 60 206 L 66 206 C 67.108 206 68 205.108 68 204 L 68 188 C 68 186.892 67.108 186 66 186 L 60 186 z "
         id="rect4243"
         transform="translate(0,76)" />
      <path
         transform="translate(0,76)"
         id="path4678"
         d="M 60 186 L 60 206 L 66 206 C 67.108 206 68 205.108 68 204 L 68 188 C 68 186.892 67.108 186 66 186 L 60 186 z "
         style="fill:#000000;fill-opacity:1;stroke:none;opacity:0.1" />
      <rect
         transform="matrix(0,-1,-1,0,0,0)"
         style="fill:#ebebeb;fill-opacity:1;stroke:none"
         id="rect4255"
         width="28"
         height="28"
         x="-282"
         y="-118"
         rx="1.5"
         ry="1.5" />
      <path
         transform="matrix(0.75,0,0,0.75,86.5,249.5)"
         sodipodi:type="arc"
         style="opacity:0.2;fill:#000000;fill-opacity:1;stroke:none"
         id="path4257"
         sodipodi:cx="40"
         sodipodi:cy="8"
         sodipodi:rx="2"
         sodipodi:ry="2"
         d="m 42,8 a 2,2 0 0 1 -2,2 2,2 0 0 1 -2,-2 2,2 0 0 1 2,-2 2,2 0 0 1 2,2 z" />
      <path
         d="m 42,8 a 2,2 0 0 1 -2,2 2,2 0 0 1 -2,-2 2,2 0 0 1 2,-2 2,2 0 0 1 2,2 z"
         sodipodi:ry="2"
         sodipodi:rx="2"
         sodipodi:cy="8"
         sodipodi:cx="40"
         id="path4259"
         style="opacity:0.2;fill:#000000;fill-opacity:1;stroke:none"
         sodipodi:type="arc"
         transform="matrix(0.75,0,0,0.75,61.5,249.5)" />
      <path
         transform="matrix(0.75,0,0,0.75,61.5,274.5)"
         sodipodi:type="arc"
         style="opacity:0.2;fill:#000000;fill-opacity:1;stroke:none"
         id="path4261"
         sodipodi:cx="40"
         sodipodi:cy="8"
         sodipodi:rx="2"
         sodipodi:ry="2"
         d="m 42,8 a 2,2 0 0 1 -2,2 2,2 0 0 1 -2,-2 2,2 0 0 1 2,-2 2,2 0 0 1 2,2 z" />
      <path
         d="m 42,8 a 2,2 0 0 1 -2,2 2,2 0 0 1 -2,-2 2,2 0 0 1 2,-2 2,2 0 0 1 2,2 z"
         sodipodi:ry="2"
         sodipodi:rx="2"
         sodipodi:cy="8"
         sodipodi:cx="40"
         id="path4263"
         style="opacity:0.2;fill:#000000;fill-opacity:1;stroke:none"
         sodipodi:type="arc"
         transform="matrix(0.75,0,0,0.75,86.5,274.5)" />
      <rect
         transform="matrix(0,-1,-1,0,0,0)"
         style="display:inline;enable-background:new;fill:#ebebeb;fill-opacity:1;stroke:none"
         id="rect4265"
         width="16"
         height="16"
         x="-284"
         y="-32"
         rx="1"
         ry="1" />
      <path
         transform="matrix(0.5,0,0,0.5,11,265)"
         sodipodi:type="arc"
         style="display:inline;enable-background:new;opacity:0.20000000000000001;fill:#000000;fill-opacity:1;stroke:none"
         id="path4267"
         sodipodi:cx="40"
         sodipodi:cy="8"
         sodipodi:rx="2"
         sodipodi:ry="2"
         d="m 42,8 a 2,2 0 0 1 -2,2 2,2 0 0 1 -2,-2 2,2 0 0 1 2,-2 2,2 0 0 1 2,2 z" />
      <path
         d="m 42,8 a 2,2 0 0 1 -2,2 2,2 0 0 1 -2,-2 2,2 0 0 1 2,-2 2,2 0 0 1 2,2 z"
         sodipodi:ry="2"
         sodipodi:rx="2"
         sodipodi:cy="8"
         sodipodi:cx="40"
         id="path4269"
         style="display:inline;enable-background:new;opacity:0.20000000000000001;fill:#000000;fill-opacity:1;stroke:none"
         sodipodi:type="arc"
         transform="matrix(0.5,0,0,0.5,-3,265)" />
      <path
         transform="matrix(0.5,0,0,0.5,-3,279)"
         sodipodi:type="arc"
         style="display:inline;enable-background:new;opacity:0.20000000000000001;fill:#000000;fill-opacity:1;stroke:none"
         id="path4271"
         sodipodi:cx="40"
         sodipodi:cy="8"
         sodipodi:rx="2"
         sodipodi:ry="2"
         d="m 42,8 a 2,2 0 0 1 -2,2 2,2 0 0 1 -2,-2 2,2 0 0 1 2,-2 2,2 0 0 1 2,2 z" />
      <path
         d="m 42,8 a 2,2 0 0 1 -2,2 2,2 0 0 1 -2,-2 2,2 0 0 1 2,-2 2,2 0 0 1 2,2 z"
         sodipodi:ry="2"
         sodipodi:rx="2"
         sodipodi:cy="8"
         sodipodi:cx="40"
         id="path4273"
         style="display:inline;enable-background:new;opacity:0.20000000000000001;fill:#000000;fill-opacity:1;stroke:none"
         sodipodi:type="arc"
         transform="matrix(0.5,0,0,0.5,11,279)" />
      <rect
         ry="2"
         rx="2"
         y="-176.25"
         x="-281"
         height="32"
         width="39.999954"
         id="rect3350"
         style="opacity:0.5;fill:#000000;fill-opacity:1;stroke:none;filter:url(#filter4120)"
         transform="matrix(0,-1,-1,0,-0.22900764,0)" />
      <path
         inkscape:connector-curvature="0"
         id="rect4203"
         d="m 160,240 0,40 14.02148,0 c 1.108,0 2,-0.892 2,-2 l 0,-36 c 0,-1.108 -0.892,-2 -2,-2 L 160,240 Z"
         style="fill:#ebebeb;fill-opacity:1;stroke:none" />
      <path
         id="path8391"
         d="m 160,241 0,40 12,2 c 1.09292,0.18215 2,-0.892 2,-2 l 0,-40 c 0,-1.108 -0.90857,-2.1909 -2,-2 z"
         style="opacity:0.5;fill:#000000;fill-opacity:1;stroke:none;filter:url(#filter8393)"
         inkscape:connector-curvature="0"
         sodipodi:nodetypes="ccssssc" />
      <path
         id="path4682"
         d="m 174,240 c 1.108,0 2,0.892 2,2 l 0,36 c 0,1.108 -0.892,2 -2,2 l -14,0 0,-40 z"
         style="opacity:0.1;fill:#000000;fill-opacity:1;stroke:none"
         inkscape:connector-curvature="0"
         sodipodi:nodetypes="ssssccs" />
      <path
         id="path3314"
         d="m 160,240 0,40 12,2 c 1.09292,0.18215 2,-0.892 2,-2 l 0,-40 c 0,-1.108 -0.90708,-2.18215 -2,-2 z"
         style="fill:#ebebeb;fill-opacity:1;stroke:none"
         inkscape:connector-curvature="0"
         sodipodi:nodetypes="ccssssc" />
      <path
         sodipodi:nodetypes="ccssssc"
         inkscape:connector-curvature="0"
         style="opacity:0.1;fill:#ffffff;fill-opacity:1;stroke:none"
         d="m 160,240 0,40 12,2 c 1.09292,0.18215 2,-0.892 2,-2 l 0,-40 c 0,-1.108 -0.90857,-2.1909 -2,-2 z"
         id="path3323" />
      <path
         sodipodi:nodetypes="ssssccs"
         inkscape:connector-curvature="0"
         id="path8375"
         d="m 146.02098,240 c -1.108,0 -2,0.892 -2,2 l 0,36 c 0,1.108 0.892,2 2,2 L 160,280 l 0,-40 z"
         style="opacity:1;fill:#d8d8d8;fill-opacity:1;stroke:none" />
      <path
         style="opacity:0.2;fill:#ffffff;fill-opacity:1;stroke:none"
         d="m 172,238 -12,2 0,1 12,-2 c 1.09292,-0.18215 2,0.892 2,2 l 0,-1 c 0,-1.108 -0.90708,-2.18215 -2,-2 z"
         id="path4672"
         inkscape:connector-curvature="0"
         sodipodi:nodetypes="sccscss" />
      <path
         style="opacity:0.2;fill:#ffffff;fill-opacity:1;stroke:none"
         d="m 146.02098,240 c -1.108,0 -2,0.892 -2,2 l 0,1 c 0,-1.108 0.892,-2 2,-2 L 160,241 l 0,-1 z"
         id="path4679"
         inkscape:connector-curvature="0"
         sodipodi:nodetypes="sscsccs" />
      <path
         inkscape:connector-curvature="0"
         style="fill:#ebebeb;fill-opacity:1;stroke:none"
         d="m 327.95898,196 0,80 L 356,276 c 2.216,0 4,-1.784 4,-4 l 0,-72 c 0,-2.216 -1.784,-4 -4,-4 l -28.04102,0 z"
         id="rect8324" />
      <path
         sodipodi:nodetypes="ssssccs"
         inkscape:connector-curvature="0"
         style="opacity:0.1;fill:#000000;fill-opacity:1;stroke:none"
         d="m 355.9581,196 c 2.216,0 4.00001,1.784 4.00001,4 l 0,72.00008 c 0,2.21601 -1.78401,4.00001 -4.00001,4.00001 l -28.00003,0 0,-80.00009 z"
         id="path8326" />
      <path
         sodipodi:nodetypes="ccssssc"
         inkscape:connector-curvature="0"
         style="opacity:0.2;fill:#000000;fill-opacity:1;stroke:none;filter:url(#filter4717)"
         d="m 327.95807,196 0,80.00009 24.00003,4 c 2.18584,0.3643 4,-1.784 4,-4 l 0,-80.00009 c 0,-2.216 -1.81714,-4.38181 -4,-4.00001 z"
         id="path4715" />
      <path
         sodipodi:nodetypes="ssssccs"
         inkscape:connector-curvature="0"
         id="path8336"
         d="m 300,196 c -2.216,0 -4,1.784 -4,4 l 0,72.00008 c 0,2.216 1.784,4.00001 4,4.00001 l 29.95807,0 0,-80.00009 z"
         style="opacity:1;fill:#d8d8d8;fill-opacity:1;stroke:none" />
      <path
         sodipodi:nodetypes="ccssssc"
         inkscape:connector-curvature="0"
         style="fill:#ebebeb;fill-opacity:1;stroke:none"
         d="m 327.95807,196 0,80.00009 24.00003,4 c 2.18584,0.3643 4,-1.784 4,-4 l 0,-80.00009 c 0,-2.216 -1.81416,-4.36431 -4,-4.00001 z"
         id="path8328" />
      <path
         id="path8334"
         d="m 327.95807,196 0,80.00009 24.00003,4 c 2.18584,0.3643 4,-1.784 4,-4 l 0,-80.00009 c 0,-2.216 -1.81714,-4.38181 -4,-4.00001 z"
         style="opacity:0.1;fill:#ffffff;fill-opacity:1;stroke:none"
         inkscape:connector-curvature="0"
         sodipodi:nodetypes="ccssssc" />
      <path
         inkscape:connector-curvature="0"
         style="opacity:0.2;fill:#ffffff;fill-opacity:1;stroke:none"
         d="m 352.36328,191.96094 c -0.13336,0.004 -0.26768,0.0163 -0.4043,0.0391 l -24,4 0,1 24,-4 c 2.18584,-0.3643 4,1.784 4,4 l 0,-1 c 0,-2.0775 -1.59531,-4.0951 -3.5957,-4.03906 z"
         id="path8338" />
      <path
         inkscape:connector-curvature="0"
         style="opacity:0.2;fill:#ffffff;fill-opacity:1;stroke:none"
         d="m 300,196 c -2.216,0 -4,1.784 -4,4 l 0,1 c 0,-2.216 1.784,-4 4,-4 l 27.95898,0 0,-1 L 300,196 Z"
         id="path8340" />
      <path
         inkscape:connector-curvature="0"
         id="path4400"
         d="m 487.91796,108 0,160 L 544,268 c 4.432,0 8,-3.568 8,-8 l 0,-144 c 0,-4.432 -3.568,-8 -8,-8 l -56.08204,0 z"
         style="fill:#ebebeb;fill-opacity:1;stroke:none" />
      <path
         id="path4693"
         d="m 487.91614,109 0,160.00018 48.00006,8 c 4.37168,0.7286 8,-3.568 8,-8 l 0,-160.00018 c 0,-4.432 -3.63428,-8.76362 -8,-8.00002 z"
         style="opacity:0.2;fill:#000000;fill-opacity:1;stroke:none;filter:url(#filter4711)"
         inkscape:connector-curvature="0"
         sodipodi:nodetypes="ccssssc" />
      <path
         style="opacity:1;fill:#d8d8d8;fill-opacity:1;stroke:none"
         d="m 432,108 c -4.432,0 -8,3.568 -8,8 l 0,144.00016 c 0,4.432 3.568,8.00002 8,8.00002 l 61.91614,0 0,-160.00018 z"
         id="path4410"
         inkscape:connector-curvature="0"
         sodipodi:nodetypes="ssssccs" />
      <path
         id="path4437"
         d="m 543.91797,108 c 4.432,0 8,3.568 8,8 l 0,1 c 0,-4.432 -3.568,-8 -8,-8 L 488,109 l 0,-1 55.91797,0 z"
         style="opacity:0.2;fill:#ffffff;fill-opacity:1;stroke:none"
         inkscape:connector-curvature="0" />
      <path
         id="path4402"
         d="m 543.9162,108 c 4.432,0 8.00002,3.568 8.00002,8 l 0,144.00016 c 0,4.43202 -3.56802,8.00002 -8.00002,8.00002 l -56.00006,0 0,-160.00018 z"
         style="opacity:0.1;fill:#000000;fill-opacity:1;stroke:none"
         inkscape:connector-curvature="0"
         sodipodi:nodetypes="ssssccs" />
      <path
         id="path4404"
         d="m 487.91614,108 0,160.00018 48.00006,8 c 4.37168,0.7286 8,-3.568 8,-8 l 0,-160.00018 c 0,-4.432 -3.62832,-8.72862 -8,-8.00002 z"
         style="fill:#ebebeb;fill-opacity:1;stroke:none"
         inkscape:connector-curvature="0"
         sodipodi:nodetypes="ccssssc" />
      <path
         sodipodi:nodetypes="ccssssc"
         inkscape:connector-curvature="0"
         style="opacity:0.1;fill:#ffffff;fill-opacity:1;stroke:none"
         d="m 487.91614,108 0,160.00018 48.00006,8 c 4.37168,0.7286 8,-3.568 8,-8 l 0,-160.00018 c 0,-4.432 -3.63428,-8.76362 -8,-8.00002 z"
         id="path4408" />
      <path
         style="opacity:0.2;fill:#ffffff;fill-opacity:1;stroke:none"
         d="M 536.72656 23.921875 C 536.45984 23.929875 536.19121 23.9544 535.91797 24 L 487.91797 32 L 487.91797 33 L 535.91797 25 C 536.19121 24.9544 536.45984 24.929875 536.72656 24.921875 C 540.72734 24.809795 543.91797 28.845 543.91797 33 L 543.91797 32 C 543.91797 27.845 540.72734 23.809795 536.72656 23.921875 z "
         transform="translate(0,76)"
         id="path4412" />
      <path
         style="opacity:0.2;fill:#ffffff;fill-opacity:1;stroke:none"
         d="M 432 32 C 427.568 32 424 35.568 424 40 L 424 41 C 424 36.568 427.568 33 432 33 L 487.91797 33 L 487.91797 32 L 432 32 z "
         transform="translate(0,76)"
         id="path4414" />
      <path
         style="fill:#d8d8d8;fill-opacity:1;stroke:none"
         d="M 54 186 C 52.892 186 52 186.892 52 188 L 52 204 C 52 205.108 52.892 206 54 206 L 60 206 L 60 186 L 54 186 z "
         transform="translate(0,76)"
         id="rect4654" />
      <path
         id="path4671"
         d="m 66,262 c 1.108,0 2,0.892 2,2 l 0,1 c 0,-1.108 -0.892,-2 -2,-2 l -6,0 0,-1 6,0 z"
         style="opacity:0.1;fill:#ffffff;fill-opacity:1;stroke:none"
         inkscape:connector-curvature="0" />
      <path
         id="path4662"
         d="m 60,186 0,20 5,1 c 1.086482,0.2173 2,-0.892 2,-2 l 0,-18 c 0,-1.108 -0.913518,-2.2173 -2,-2 z"
         style="fill:#ebebeb;fill-opacity:1;stroke:none"
         inkscape:connector-curvature="0"
         sodipodi:nodetypes="ccssssc"
         transform="translate(0,76)" />
      <path
         sodipodi:nodetypes="ccssssc"
         inkscape:connector-curvature="0"
         style="fill:#ffffff;fill-opacity:1;stroke:none;opacity:0.1"
         d="m 60,186 0,20 5,1 c 1.086482,0.2173 2,-0.892 2,-2 l 0,-18 c 0,-1.108 -0.913518,-2.2173 -2,-2 z"
         id="path4664"
         transform="translate(0,76)" />
      <path
         style="fill:#ffffff;fill-opacity:1;stroke:none;opacity:0.1"
         d="M 54 186 C 52.892 186 52 186.892 52 188 L 52 189 C 52 187.892 52.892 187 54 187 L 60 187 L 60 186 L 54 186 z "
         transform="translate(0,76)"
         id="path4666" />
      <path
         style="fill:#ffffff;fill-opacity:1;stroke:none;opacity:0.1"
         d="M 65.398438 184.97852 C 65.269479 184.96682 65.13581 184.97284 65 185 L 60 186 L 60 187 L 65 186 C 66.086482 185.7827 67 186.892 67 188 L 67 187 C 67 186.0305 66.301149 185.06042 65.398438 184.97852 z "
         transform="translate(0,76)"
         id="path4673" />
      <g
         id="g4490">
        <path
           style="display:inline;fill:#000000;fill-opacity:1;stroke:none;enable-background:new;opacity:0.2;filter:url(#filter4462)"
           d="m 156,240 c -1,0 -1,1 -1,1 l 0,16.5 2.5,-1.5 2.5,1.5 0,-16.5 c 0,-1 -1,-1 -1,-1 z"
           id="path4452"
           inkscape:connector-curvature="0"
           sodipodi:nodetypes="cccccccc" />
        <path
           sodipodi:nodetypes="cccccccc"
           inkscape:connector-curvature="0"
           id="path5078-2"
           transform="translate(0,76)"
           d="m 156,163 c -1,0 -1,1 -1,1 l 0,16.5 2.5,-1.5 2.5,1.5 0,-16.5 c 0,-1 -1,-1 -1,-1 z"
           style="display:inline;fill:#c2352a;fill-opacity:1;stroke:none;enable-background:new" />
        <path
           id="path4447"
           transform="translate(0,76)"
           d="M 156 163 C 155 163 155 164 155 164 L 155 165 C 155 165 155 164 156 164 L 159 164 C 159 164 160 164 160 165 L 160 164 C 160 163 159 163 159 163 L 156 163 z "
           style="display:inline;fill:#ffffff;fill-opacity:1;stroke:none;enable-background:new;opacity:0.1" />
      </g>
      <g
         id="g4495"
         transform="matrix(2,0,0,2,7.95807,-284)">
        <path
           sodipodi:nodetypes="cccccccc"
           inkscape:connector-curvature="0"
           id="path4497"
           d="m 156,240 c -1,0 -1,1 -1,1 l 0,16.5 2.5,-1.5 2.5,1.5 0,-16.5 c 0,-1 -1,-1 -1,-1 z"
           style="display:inline;opacity:0.2;fill:#000000;fill-opacity:1;stroke:none;filter:url(#filter4462);enable-background:new" />
        <path
           style="display:inline;fill:#c2352a;fill-opacity:1;stroke:none;enable-background:new"
           d="m 156,163 c -1,0 -1,1 -1,1 l 0,16.5 2.5,-1.5 2.5,1.5 0,-16.5 c 0,-1 -1,-1 -1,-1 z"
           transform="translate(0,76)"
           id="path4499"
           inkscape:connector-curvature="0"
           sodipodi:nodetypes="cccccccc" />
        <path
           style="display:inline;opacity:0.1;fill:#ffffff;fill-opacity:1;stroke:none;enable-background:new"
           d="M 319.95898 118 C 317.95898 118 317.95898 120 317.95898 120 L 317.95898 121 C 317.95898 121 317.95898 119 319.95898 119 L 325.95898 119 C 325.95898 119 327.95898 119 327.95898 121 L 327.95898 120 C 327.95898 118 325.95898 118 325.95898 118 L 319.95898 118 z "
           transform="matrix(0.5,0,0,0.5,-3.979035,180)"
           id="path4501" />
      </g>
      <g
         transform="matrix(4,0,0,4,-152.08568,-852)"
         id="g4506">
        <path
           style="display:inline;opacity:0.2;fill:#000000;fill-opacity:1;stroke:none;filter:url(#filter4462);enable-background:new"
           d="m 156,239.5 c -1,0 -1,1 -1,1 l 0,16.5 2.5,-1.5 2.5,1.5 0,-16.5 c 0,-1 -1,-1 -1,-1 z"
           id="path4508"
           inkscape:connector-curvature="0"
           sodipodi:nodetypes="cccccccc" />
        <path
           sodipodi:nodetypes="cccccccc"
           inkscape:connector-curvature="0"
           id="path4510"
           transform="translate(0,76)"
           d="m 156,163 c -1,0 -1,1 -1,1 l 0,16.5 2.5,-1.5 2.5,1.5 0,-16.5 c 0,-1 -1,-1 -1,-1 z"
           style="display:inline;fill:#c2352a;fill-opacity:1;stroke:none;enable-background:new" />
        <path
           style="display:inline;opacity:0.1;fill:#ffffff;fill-opacity:1;stroke:none;enable-background:new"
           d="M 471.91602 28 C 467.91602 28 467.91602 32 467.91602 32 L 467.91602 33 C 467.91602 33 467.91602 29 471.91602 29 L 483.91602 29 C 483.91602 29 487.91602 29 487.91602 33 L 487.91602 32 C 487.91602 28 483.91602 28 483.91602 28 L 471.91602 28 z "
           transform="matrix(0.25,0,0,0.25,38.02142,232)"
           id="path4512" />
      </g>
    </g>
  </g>
</svg>
