<?xml version="1.0" encoding="UTF-8" standalone="no"?>
<!-- Created with Inkscape (http://www.inkscape.org/) -->

<svg
   xmlns:osb="http://www.openswatchbook.org/uri/2009/osb"
   xmlns:dc="http://purl.org/dc/elements/1.1/"
   xmlns:cc="http://creativecommons.org/ns#"
   xmlns:rdf="http://www.w3.org/1999/02/22-rdf-syntax-ns#"
   xmlns:svg="http://www.w3.org/2000/svg"
   xmlns="http://www.w3.org/2000/svg"
   xmlns:sodipodi="http://sodipodi.sourceforge.net/DTD/sodipodi-0.dtd"
   xmlns:inkscape="http://www.inkscape.org/namespaces/inkscape"
   inkscape:export-ydpi="90.000000"
   inkscape:export-xdpi="90.000000"
   width="736"
   height="544"
   id="svg11300"
   sodipodi:version="0.32"
   inkscape:version="0.91 r13725"
   sodipodi:docname="accessories-notes.svg"
   inkscape:output_extension="org.inkscape.output.svg.inkscape"
   version="1.0"
   style="display:inline;enable-background:new"
   inkscape:export-filename="/home/sam/paper-template.png">
  <title
     id="title3004">Paper Icon Theme</title>
  <sodipodi:namedview
     stroke="#ef2929"
     fill="#f57900"
     id="base"
     pagecolor="#474747"
     bordercolor="#666666"
     borderopacity="0.25490196"
     inkscape:pageopacity="0"
     inkscape:pageshadow="2"
     inkscape:zoom="1"
     inkscape:cx="276.84821"
     inkscape:cy="222.21469"
     inkscape:current-layer="layer6"
     showgrid="false"
     inkscape:grid-bbox="true"
     inkscape:document-units="px"
     inkscape:showpageshadow="false"
     inkscape:window-width="1366"
     inkscape:window-height="704"
     inkscape:window-x="0"
     inkscape:window-y="27"
     width="400px"
     height="300px"
     inkscape:snap-nodes="true"
     inkscape:snap-bbox="true"
     gridtolerance="10000"
     inkscape:object-nodes="true"
     inkscape:snap-grids="true"
     showguides="true"
     inkscape:guide-bbox="true"
     inkscape:window-maximized="1"
     inkscape:bbox-nodes="true"
     inkscape:snap-bbox-edge-midpoints="true"
     inkscape:object-paths="true"
     inkscape:snap-intersection-paths="true"
     inkscape:snap-smooth-nodes="true">
    <inkscape:grid
       spacingy="1px"
       spacingx="1px"
       id="grid5883"
       type="xygrid"
       enabled="true"
       visible="true"
       empspacing="4"
       snapvisiblegridlinesonly="true" />
    <inkscape:grid
       type="xygrid"
       id="grid11592"
       empspacing="2"
       visible="true"
       enabled="false"
       spacingx="0.5px"
       spacingy="0.5px"
       color="#ff0000"
       opacity="0.1254902"
       empcolor="#ff0000"
       empopacity="0.25098039"
       snapvisiblegridlinesonly="true" />
  </sodipodi:namedview>
  <defs
     id="defs3">
    <filter
       inkscape:collect="always"
       style="color-interpolation-filters:sRGB"
       id="filter4278"
       x="-0.059999999"
       width="1.12"
       y="-0.059999999"
       height="1.12">
      <feGaussianBlur
         inkscape:collect="always"
         stdDeviation="1"
         id="feGaussianBlur4280" />
    </filter>
    <clipPath
       clipPathUnits="userSpaceOnUse"
       id="clipPath4401">
      <path
         sodipodi:nodetypes="ssssccsss"
         inkscape:connector-curvature="0"
         id="path4403"
         d="m 416,108 c -4.432,0 -8,3.568 -8,8 l 0,144 c 0,4.432 3.568,8 8,8 l 96,0 56,-56 0,-96 c 0,-4.432 -3.568,-8 -8,-8 z"
         style="fill:#fecd38;fill-opacity:1;stroke:none" />
    </clipPath>
    <clipPath
       clipPathUnits="userSpaceOnUse"
       id="clipPath4415">
      <path
         sodipodi:nodetypes="ssssccsss"
         inkscape:connector-curvature="0"
         id="path4417"
         d="m 292,196 c -2.216,0 -4,1.784 -4,4 l 0,72 c 0,2.216 1.784,4 4,4 l 44,0 32,-32 0,-44 c 0,-2.216 -1.784,-4 -4,-4 z"
         style="fill:#fecd38;fill-opacity:1;stroke:none" />
    </clipPath>
    <clipPath
       clipPathUnits="userSpaceOnUse"
       id="clipPath4463">
      <path
         sodipodi:nodetypes="ssssccsss"
         inkscape:connector-curvature="0"
         id="path4465"
         d="m 207,224 c -1.662,0 -3,1.338 -3,3 l 0,50 c 0,1.662 1.338,3 3,3 l 29,0 24,-24 0,-29 c 0,-1.662 -1.338,-3 -3,-3 z"
         style="fill:#fecd38;fill-opacity:1;stroke:none" />
    </clipPath>
    <filter
       inkscape:collect="always"
       style="color-interpolation-filters:sRGB"
       id="filter4467"
       x="-0.12"
       width="1.24"
       y="-0.12"
       height="1.24">
      <feGaussianBlur
         inkscape:collect="always"
         stdDeviation="1.2"
         id="feGaussianBlur4469" />
    </filter>
    <clipPath
       clipPathUnits="userSpaceOnUse"
       id="clipPath4473">
      <path
         sodipodi:nodetypes="ssssccsss"
         inkscape:connector-curvature="0"
         id="path4475"
         d="m 142,240 c -1.108,0 -2,0.892 -2,2 l 0,36 c 0,1.108 0.892,2 2,2 l 22,0 16,-16 0,-22 c 0,-1.108 -0.892,-2 -2,-2 z"
         style="fill:#fecd38;fill-opacity:1;stroke:none" />
    </clipPath>
    <filter
       inkscape:collect="always"
       style="color-interpolation-filters:sRGB"
       id="filter4477"
       x="-0.12"
       width="1.24"
       y="-0.12"
       height="1.24">
      <feGaussianBlur
         inkscape:collect="always"
         stdDeviation="0.8"
         id="feGaussianBlur4479" />
    </filter>
    <clipPath
       clipPathUnits="userSpaceOnUse"
       id="clipPath4483">
      <path
         sodipodi:nodetypes="ssssccsss"
         inkscape:connector-curvature="0"
         id="path4485"
         d="m 91.5,254 c -0.831,0 -1.5,0.669 -1.5,1.5 l 0,25 c 0,0.831 0.669,1.5 1.5,1.5 l 16.5,0 10,-10 0,-16.5 c 0,-0.831 -0.669,-1.5 -1.5,-1.5 z"
         style="fill:#fecd38;fill-opacity:1;stroke:none" />
    </clipPath>
    <filter
       inkscape:collect="always"
       style="color-interpolation-filters:sRGB"
       id="filter4487"
       x="-0.12"
       width="1.24"
       y="-0.12"
       height="1.24">
      <feGaussianBlur
         inkscape:collect="always"
         stdDeviation="0.5"
         id="feGaussianBlur4489" />
    </filter>
    <clipPath
       clipPathUnits="userSpaceOnUse"
       id="clipPath4493">
      <path
         sodipodi:nodetypes="ssssccsss"
         inkscape:connector-curvature="0"
         id="path4495"
         d="m 51,262 c -0.554,0 -1,0.446 -1,1 l 0,18 c 0,0.554 0.446,1 1,1 l 11,0 8,-8 0,-11 c 0,-0.554 -0.446,-1 -1,-1 z"
         style="fill:#fecd38;fill-opacity:1;stroke:none" />
    </clipPath>
    <clipPath
       clipPathUnits="userSpaceOnUse"
       id="clipPath4499">
      <path
         sodipodi:nodetypes="ssssccsss"
         inkscape:connector-curvature="0"
         id="path4501"
         d="m 17,268 c -0.554,0 -1,0.446 -1,1 l 0,14 c 0,0.554 0.446,1 1,1 l 9,0 6,-6 0,-9 c 0,-0.554 -0.446,-1 -1,-1 z"
         style="display:inline;fill:#fecd38;fill-opacity:1;stroke:none;enable-background:new" />
    </clipPath>
    <linearGradient
       osb:paint="solid"
       id="linearGradient5606">
      <stop
         style="stop-color:#000000;stop-opacity:1;"
         offset="0"
         id="stop5608" />
    </linearGradient>
    <filter
       inkscape:collect="always"
       style="color-interpolation-filters:sRGB"
       id="filter4331"
       x="-0.024"
       width="1.048"
       y="-0.024"
       height="1.048">
      <feGaussianBlur
         inkscape:collect="always"
         stdDeviation="0.56"
         id="feGaussianBlur4333" />
    </filter>
  </defs>
  <metadata
     id="metadata4">
    <rdf:RDF>
      <cc:Work
         rdf:about="">
        <dc:format>image/svg+xml</dc:format>
        <dc:type
           rdf:resource="http://purl.org/dc/dcmitype/StillImage" />
        <dc:creator>
          <cc:Agent>
            <dc:title>Sam Hewitt</dc:title>
          </cc:Agent>
        </dc:creator>
        <dc:source />
        <cc:license
           rdf:resource="http://creativecommons.org/licenses/by-sa/3.0/" />
        <dc:title>Paper Icon Theme</dc:title>
        <dc:subject>
          <rdf:Bag />
        </dc:subject>
        <dc:date />
        <dc:rights>
          <cc:Agent>
            <dc:title />
          </cc:Agent>
        </dc:rights>
        <dc:publisher>
          <cc:Agent>
            <dc:title />
          </cc:Agent>
        </dc:publisher>
        <dc:identifier />
        <dc:relation />
        <dc:language />
        <dc:coverage />
        <dc:description />
        <dc:contributor>
          <cc:Agent>
            <dc:title />
          </cc:Agent>
        </dc:contributor>
      </cc:Work>
      <cc:Work
         rdf:about="">
        <dc:format>image/svg+xml</dc:format>
        <dc:type
           rdf:resource="http://purl.org/dc/dcmitype/StillImage" />
      </cc:Work>
    </rdf:RDF>
  </metadata>
  <g
     style="display:inline"
     inkscape:groupmode="layer"
     inkscape:label="Icon"
     id="layer1"
     transform="translate(0,244)">
    <g
       style="display:none"
       inkscape:label="Baseplate"
       id="layer7"
       inkscape:groupmode="layer">
      <text
         y="332.25586"
         xml:space="preserve"
         x="15.006836"
         style="font-style:normal;font-variant:normal;font-weight:normal;font-stretch:normal;font-size:18px;font-family:'DejaVu Sans';-inkscape-font-specification:'DejaVu Sans';display:inline;fill:#000000;fill-opacity:1;stroke:none;enable-background:new"
         inkscape:label="context"
         id="context"><tspan
           style="font-style:normal;font-variant:normal;font-weight:normal;font-stretch:normal;font-family:'DejaVu Sans';-inkscape-font-specification:'DejaVu Sans'"
           y="332.25586"
           x="15.006836"
           sodipodi:role="line"
           id="tspan3933">apps</tspan></text>
      <text
         y="332.25586"
         xml:space="preserve"
         x="142.48828"
         style="font-style:normal;font-variant:normal;font-weight:bold;font-stretch:normal;font-size:18px;line-height:125%;font-family:'DejaVu Sans';-inkscape-font-specification:'DejaVu Sans Bold';text-align:start;writing-mode:lr-tb;text-anchor:start;display:inline;fill:#000000;fill-opacity:1;stroke:none;enable-background:new"
         sodipodi:linespacing="125%"
         inkscape:label="icon-name"
         id="icon-name"><tspan
           style="font-style:normal;font-variant:normal;font-weight:bold;font-stretch:normal;font-size:18px;font-family:'DejaVu Sans';-inkscape-font-specification:'DejaVu Sans Bold'"
           y="332.25586"
           x="142.48828"
           sodipodi:role="line"
           id="tspan3937">accessories-notes</tspan></text>
      <rect
         style="display:inline;overflow:visible;visibility:visible;fill:#e9e9e9;fill-opacity:1;fill-rule:nonzero;stroke:none;stroke-width:2;marker:none;enable-background:accumulate"
         id="rect16x16"
         width="16"
         height="16"
         x="-32"
         y="268"
         inkscape:label="16x16"
         transform="scale(-1,1)" />
      <rect
         style="display:inline;overflow:visible;visibility:visible;fill:#e9e9e9;fill-opacity:1;fill-rule:nonzero;stroke:none;stroke-width:2;marker:none;enable-background:accumulate"
         id="rect24x24"
         width="24"
         height="24"
         x="-72"
         y="260"
         inkscape:label="24x24"
         transform="scale(-1,1)" />
      <rect
         style="display:inline;overflow:visible;visibility:visible;fill:#e9e9e9;fill-opacity:1;fill-rule:nonzero;stroke:none;stroke-width:2;marker:none;enable-background:accumulate"
         id="rect32x32"
         width="32"
         height="32"
         x="-128"
         y="252"
         inkscape:label="32x32"
         transform="scale(-1,1)" />
      <rect
         inkscape:label="48x48"
         y="236"
         x="-192"
         height="48"
         width="48"
         id="rect48x48"
         style="display:inline;overflow:visible;visibility:visible;fill:#e9e9e9;fill-opacity:1;fill-rule:nonzero;stroke:none;stroke-width:2;marker:none;enable-background:accumulate"
         transform="scale(-1,1)" />
      <rect
         style="display:inline;overflow:visible;visibility:visible;fill:#e9e9e9;fill-opacity:1;fill-rule:nonzero;stroke:none;stroke-width:2;marker:none;enable-background:accumulate"
         id="rect3951"
         width="512"
         height="512"
         x="-720"
         y="-228"
         inkscape:label="48x48"
         transform="scale(-1,1)" />
    </g>
    <g
       inkscape:groupmode="layer"
       id="layer6"
       inkscape:label="Symbols"
       style="display:inline">
      <path
         id="path4235"
         d="m 207,225 c -1.662,0 -3,1.338 -3,3 l 0,50 c 0,1.662 1.338,3 3,3 l 29,0 24,-24 0,-29 c 0,-1.662 -1.338,-3 -3,-3 z"
         style="opacity:0.2;fill:#000000;fill-opacity:1;stroke:none;filter:url(#filter4331)"
         inkscape:connector-curvature="0"
         sodipodi:nodetypes="ssssccsss"
         transform="matrix(8,0,0,8,-1392,-1992)" />
      <path
         transform="matrix(8,0,0,8,-1392,-1992)"
         sodipodi:nodetypes="ssssccsss"
         inkscape:connector-curvature="0"
         style="opacity:0.1;fill:#000000;fill-opacity:1;stroke:#000000;stroke-opacity:1;filter:url(#filter4331)"
         d="m 207,225 c -1.662,0 -3,1.338 -3,3 l 0,50 c 0,1.662 1.338,3 3,3 l 29,0 24,-24 0,-29 c 0,-1.662 -1.338,-3 -3,-3 z"
         id="path4335" />
      <path
         sodipodi:nodetypes="ssssccsss"
         inkscape:connector-curvature="0"
         style="opacity:0.05;fill:#000000;fill-opacity:1;stroke:#000000;stroke-width:2;stroke-miterlimit:4;stroke-dasharray:none;stroke-opacity:1"
         d="m 99.5,255 c -0.831,0 -1.5,0.669 -1.5,1.5 l 0,25 c 0,0.831 0.669,1.5 1.5,1.5 l 16.5,0 10,-10 0,-16.5 c 0,-0.831 -0.669,-1.5 -1.5,-1.5 z"
         id="path4515" />
      <path
         inkscape:connector-curvature="0"
         style="opacity:0.05;fill:#000000;fill-opacity:1;stroke:#000000;stroke-width:2;stroke-miterlimit:4;stroke-dasharray:none;stroke-opacity:1"
         d="m 51,263 c -0.554,0 -1,0.446 -1,1 l 0,18 c 0,0.554 0.446,1 1,1 l 11,0 8,-8 0,-11 c 0,-0.554 -0.446,-1 -1,-1 z"
         id="path4300"
         sodipodi:nodetypes="ssssccsss" />
      <path
         id="path4231"
         d="m 150,241 c -1.108,0 -2,0.892 -2,2 l 0,36 c 0,1.108 0.892,2 2,2 l 22,0 16,-16 0,-22 c 0,-1.108 -0.892,-2 -2,-2 z"
         style="opacity:0.5;fill:#000000;fill-opacity:1;stroke:none;filter:url(#filter4278)"
         inkscape:connector-curvature="0"
         sodipodi:nodetypes="ssssccsss" />
      <path
         id="path4237"
         d="m 51,263 c -0.554,0 -1,0.446 -1,1 l 0,18 c 0,0.554 0.446,1 1,1 l 11,0 8,-8 0,-11 c 0,-0.554 -0.446,-1 -1,-1 z"
         style="opacity:0.3;fill:#000000;fill-opacity:1;stroke:none"
         inkscape:connector-curvature="0"
         sodipodi:nodetypes="ssssccsss" />
      <path
         id="path4239"
         d="m 99.5,255 c -0.831,0 -1.5,0.669 -1.5,1.5 l 0,25 c 0,0.831 0.669,1.5 1.5,1.5 l 16.5,0 10,-10 0,-16.5 c 0,-0.831 -0.669,-1.5 -1.5,-1.5 z"
         style="opacity:0.2;fill:#000000;fill-opacity:1;stroke:none"
         inkscape:connector-curvature="0"
         sodipodi:nodetypes="ssssccsss" />
      <path
         style="fill:#fecd38;fill-opacity:1;stroke:none"
         d="m 150,240 c -1.108,0 -2,0.892 -2,2 l 0,36 c 0,1.108 0.892,2 2,2 l 22,0 16,-16 0,-22 c 0,-1.108 -0.892,-2 -2,-2 z"
         id="rect4203"
         inkscape:connector-curvature="0"
         sodipodi:nodetypes="ssssccsss" />
      <path
         style="fill:#fecd38;fill-opacity:1;stroke:none"
         d="m 51,186 c -0.554,0 -1,0.446 -1,1 l 0,18 c 0,0.554 0.446,1 1,1 l 11,0 8,-8 0,-11 c 0,-0.554 -0.446,-1 -1,-1 z"
         transform="translate(0,76)"
         id="rect4243"
         inkscape:connector-curvature="0"
         sodipodi:nodetypes="ssssccsss" />
      <path
         style="fill:#fecd38;fill-opacity:1;stroke:none"
         d="m 100,254 c 0,0 -2,0 -2,2 l 0,24 c 0,2 2,2 2,2 l 16,0 10,-10 0,-16 c 0,-2 -2,-2 -2,-2 z"
         id="rect4255"
         inkscape:connector-curvature="0"
         sodipodi:nodetypes="csscccscc" />
      <path
         style="display:inline;fill:#fecd38;fill-opacity:1;stroke:none;enable-background:new"
         d="m 17,192 c -0.554,0 -1,0.446 -1,1 l 0,14 c 0,0.554 0.446,1 1,1 l 9,0 6,-6 0,-9 c 0,-0.554 -0.446,-1 -1,-1 z"
         transform="translate(0,76)"
         id="rect4265"
         inkscape:connector-curvature="0"
         sodipodi:nodetypes="ssssccsss" />
      <path
         sodipodi:nodetypes="csscc"
         style="display:inline;opacity:0.5;fill:#000000;fill-opacity:1;stroke:none;filter:url(#filter4477);enable-background:new"
         d="m 180,265 -14,0 c -1.10457,0 -2,0.89544 -2,2 l 0,14 z"
         id="path4357"
         inkscape:connector-curvature="0"
         clip-path="url(#clipPath4473)"
         transform="translate(8,0)" />
      <path
         inkscape:connector-curvature="0"
         id="path4240"
         d="m 188,264 -14,0 c -1.10457,0 -2,0.89544 -2,2 l 0,14 z"
         style="display:inline;opacity:1;fill:#ffe69b;fill-opacity:1;stroke:none;enable-background:new"
         sodipodi:nodetypes="csscc" />
      <path
         sodipodi:nodetypes="ccccc"
         inkscape:connector-curvature="0"
         id="path4359"
         d="m 70,274 -8,8 0,-7 c 0,0 0,-1 1,-1 z"
         style="display:inline;opacity:0.05;fill:#000000;fill-opacity:1;stroke:#000000;stroke-width:2;stroke-linecap:butt;stroke-linejoin:miter;stroke-miterlimit:4;stroke-dasharray:none;stroke-opacity:1;enable-background:new"
         clip-path="url(#clipPath4493)" />
      <path
         style="display:inline;opacity:1;fill:#ffe69b;fill-opacity:1;stroke:none;stroke-width:1px;stroke-linecap:butt;stroke-linejoin:miter;stroke-opacity:1;enable-background:new"
         d="m 70,274 -8,8 0,-7 c 0,0 0,-1 1,-1 z"
         id="path3315"
         inkscape:connector-curvature="0"
         sodipodi:nodetypes="ccccc" />
      <path
         style="display:inline;opacity:0.05;fill:#000000;fill-opacity:1;stroke:#000000;stroke-width:2;stroke-miterlimit:4;stroke-dasharray:none;stroke-opacity:1;enable-background:new"
         d="m 32,278 -6,6 0,-5 c 0,0 0,-1 1,-1 z"
         id="path4361"
         inkscape:connector-curvature="0"
         sodipodi:nodetypes="ccccc"
         clip-path="url(#clipPath4499)" />
      <path
         sodipodi:nodetypes="ccccc"
         inkscape:connector-curvature="0"
         id="path4088"
         d="m 32,278 -6,6 0,-5 c 0,0 0,-1 1,-1 z"
         style="display:inline;opacity:1;fill:#ffe69b;fill-opacity:1;stroke:none;enable-background:new" />
      <path
         style="display:inline;opacity:0.2;fill:#000000;fill-opacity:1;stroke:none;filter:url(#filter4487);enable-background:new"
         d="m 118,272 -8.5,0 c -0.82843,0 -1.5,0.67158 -1.5,1.5 l 0,8.5 z"
         id="path4365"
         inkscape:connector-curvature="0"
         sodipodi:nodetypes="csscc"
         clip-path="url(#clipPath4483)"
         transform="translate(8,0)" />
      <path
         sodipodi:nodetypes="csscc"
         inkscape:connector-curvature="0"
         id="path4172"
         d="m 126,272 -8.5,0 c -0.82843,0 -1.5,0.67158 -1.5,1.5 l 0,8.5 z"
         style="display:inline;fill:#ffe69b;fill-opacity:1;stroke:none;enable-background:new" />
      <path
         style="opacity:0.1;fill:#ffffff;fill-opacity:1;stroke:none"
         d="m 150,240 c -1.108,0 -2,0.892 -2,2 l 0,1 c 0,-1.108 0.892,-2 2,-2 l 36,0 c 1.108,0 2,0.892 2,2 l 0,-1 c 0,-1.108 -0.892,-2 -2,-2 z"
         id="path4245"
         inkscape:connector-curvature="0"
         sodipodi:nodetypes="sscsscsss" />
      <path
         style="opacity:0.1;fill:#ffffff;fill-opacity:1;stroke:none"
         d="m 51,186 c -0.554,0 -1,0.446 -1,1 l 0,1 c 0,-0.554 0.446,-1 1,-1 l 18,0 c 0.554,0 1,0.446 1,1 l 0,-1 c 0,-0.554 -0.446,-1 -1,-1 z"
         transform="translate(0,76)"
         id="path4251"
         inkscape:connector-curvature="0"
         sodipodi:nodetypes="sscsscsss" />
      <path
         style="opacity:0.1;fill:#ffffff;fill-opacity:1;stroke:none"
         d="m 100,254 c -0.831,0 -2,1.169 -2,2 l 0,1 c 0,-0.831 1.169,-2 2,-2 l 24,0 c 0.831,0 2,1.169 2,2 l 0,-1 c 0,-0.831 -1.169,-2 -2,-2 z"
         id="path4253"
         inkscape:connector-curvature="0"
         sodipodi:nodetypes="sscsscsss" />
      <path
         style="display:inline;opacity:0.1;fill:#ffffff;fill-opacity:1;stroke:none;enable-background:new"
         d="m 17,192 c -0.554,0 -1,0.446 -1,1 l 0,1 c 0,-0.554 0.446,-1 1,-1 l 14,0 c 0.554,0 1,0.446 1,1 l 0,-1 c 0,-0.554 -0.446,-1 -1,-1 z"
         transform="translate(0,76)"
         id="path4255"
         inkscape:connector-curvature="0"
         sodipodi:nodetypes="sscsscsss" />
      <path
         style="display:inline;opacity:0.1;fill:#ffffff;fill-opacity:1;stroke:none;enable-background:new"
         d="m 174,262 c -1.10457,0 -2,0.89544 -2,2 l 0,1 c 0,-1.10456 0.89543,-2 2,-2 l 13,0 1,-1 -14,0 z"
         id="path4320"
         inkscape:connector-curvature="0" />
      <path
         style="display:inline;opacity:0.1;fill:#ffffff;fill-opacity:1;stroke:none;stroke-width:1px;stroke-linecap:butt;stroke-linejoin:miter;stroke-opacity:1;enable-background:new"
         d="m 63,198 c -1,0 -1,1 -1,1 l 0,1 c 0,0 0,-1 1,-1 l 6,0 1,-1 -7,0 z"
         transform="translate(0,76)"
         id="path4322"
         inkscape:connector-curvature="0" />
      <path
         style="display:inline;opacity:0.1;fill:#ffffff;fill-opacity:1;stroke:none;enable-background:new"
         d="m 27,202 c -1,0 -1,1 -1,1 l 0,1 c 0,0 0,-1 1,-1 l 4,0 1,-1 -5,0 z"
         transform="translate(0,76)"
         id="path4324"
         inkscape:connector-curvature="0" />
      <path
         style="display:inline;opacity:0.1;fill:#ffffff;fill-opacity:1;stroke:none;enable-background:new"
         d="m 117.5,272 c -0.82843,0 -1.5,0.67158 -1.5,1.5 l 0,1 c 0,-0.82842 0.67157,-1.5 1.5,-1.5 l 7.5,0 1,-1 -8.5,0 z"
         id="path4328"
         inkscape:connector-curvature="0" />
      <g
         transform="matrix(0.98963588,-0.14359955,0.14359955,0.98963588,8,0)"
         style="font-style:normal;font-variant:normal;font-weight:normal;font-stretch:normal;font-size:17.2367363px;line-height:125%;font-family:'Jenna Sue';-inkscape-font-specification:'Jenna Sue';text-align:center;letter-spacing:0px;word-spacing:0px;text-anchor:middle;opacity:0.1;fill:#ffffff;fill-opacity:1;stroke:none"
         id="text5613">
        <path
           d="m 111.67402,267.1122 c 0.2528,-0.023 0.43666,0.0805 0.55157,0.31026 0.11491,0.21834 0.19535,0.48839 0.24132,0.81013 0.046,0.32176 0.0632,0.655 0.0517,0.99973 -0.0115,0.34474 -0.0172,0.62628 -0.0172,0.8446 0,0.16088 0,0.4022 0,0.72394 0,0.31027 0,0.65501 0,1.03421 0,0.36772 -0.006,0.75267 -0.0172,1.15486 0,0.3907 -0.006,0.75267 -0.0172,1.08591 -1e-5,0.32176 -1e-5,0.5918 0,0.81013 -1e-5,0.21833 -1e-5,0.33899 0,0.36197 0.023,-0.023 0.0575,-0.14364 0.10342,-0.36197 0.0575,-0.22982 0.12065,-0.49986 0.1896,-0.81013 0.0804,-0.32175 0.16662,-0.66073 0.25855,-1.01697 0.10342,-0.35622 0.20684,-0.68371 0.31026,-0.98249 0.0115,-0.0345 0.046,-0.17236 0.10342,-0.41368 0.069,-0.24131 0.16087,-0.48837 0.27579,-0.74118 0.1264,-0.26429 0.28153,-0.49411 0.46539,-0.68947 0.18386,-0.19534 0.40793,-0.26429 0.67224,-0.20684 0.20683,-0.046 0.38494,0.10343 0.53433,0.44815 0.16087,0.34475 0.29302,0.79865 0.39645,1.36171 0.1149,0.56307 0.20683,1.18934 0.27579,1.8788 0.0804,0.68947 0.14938,1.34447 0.20684,1.96499 0.0689,0.62052 0.12639,1.16061 0.17237,1.62025 0.0574,0.45965 0.1149,0.75267 0.17236,0.87907 0.18385,0.24132 0.42517,0.25856 0.72395,0.0517 0.29876,-0.20683 0.63775,-0.54582 1.01696,-1.01696 0.023,0.0345 0.0345,0.10342 0.0345,0.20684 0.0115,0.0919 -0.0115,0.21259 -0.069,0.36197 -0.046,0.1379 -0.14365,0.30452 -0.29302,0.49987 -0.13791,0.18385 -0.339,0.38495 -0.60329,0.60328 -0.41369,0.20684 -0.75268,0.23557 -1.01697,0.0862 -0.25281,-0.16087 -0.42518,-0.41368 -0.5171,-0.75841 -0.023,-0.11491 -0.0575,-0.37921 -0.10342,-0.79289 -0.046,-0.41368 -0.0977,-0.89631 -0.15513,-1.44789 -0.0575,-0.55157 -0.12066,-1.12613 -0.18961,-1.72367 -0.069,-0.59754 -0.14364,-1.14911 -0.22407,-1.65473 -0.069,-0.5056 -0.14939,-0.91928 -0.24132,-1.24104 -0.0804,-0.32175 -0.16088,-0.47113 -0.24131,-0.44816 -0.069,-0.046 -0.14365,-0.0115 -0.22408,0.10342 -0.0804,0.10343 -0.16663,0.25856 -0.25855,0.46539 -0.0804,0.20685 -0.16663,0.44817 -0.25855,0.72395 -0.0804,0.27579 -0.16663,0.55158 -0.25855,0.82736 -0.0804,0.27579 -0.15514,0.53435 -0.22408,0.77565 -0.0575,0.22983 -0.10917,0.41369 -0.15513,0.55158 -0.11492,0.3907 -0.21259,0.74693 -0.29302,1.06868 -0.0804,0.32175 -0.15514,0.66649 -0.22408,1.0342 -0.069,0.36772 -0.13215,0.78715 -0.18961,1.25828 -0.0575,0.45965 -0.10917,1.01697 -0.15513,1.67197 -0.22982,0.023 -0.37921,-0.006 -0.44815,-0.0862 -0.069,-0.0804 -0.16663,-0.15513 -0.29303,-0.22407 0,-0.21834 0,-0.56882 0,-1.05145 0.0115,-0.48262 0.0172,-1.02271 0.0172,-1.62025 0,-0.60903 0,-1.24104 0,-1.89604 0.0115,-0.66648 0.0172,-1.287 0.0172,-1.86157 -10e-6,-0.023 0.006,-0.14363 0.0172,-0.36197 0.023,-0.21832 0.0402,-0.48262 0.0517,-0.79289 0.0115,-0.31025 0.023,-0.64924 0.0345,-1.01697 0.0115,-0.3792 0.006,-0.74117 -0.0172,-1.08591 -0.0115,-0.34473 -0.0402,-0.64924 -0.0862,-0.91355 -0.0345,-0.27577 -0.0977,-0.47112 -0.18961,-0.58605 -0.13789,-0.0804 -0.30452,-0.0287 -0.49986,0.15513 -0.18386,0.18387 -0.38496,0.44817 -0.60329,0.79289 -0.21833,0.33326 -0.43666,0.72396 -0.65499,1.1721 -0.21834,0.43667 -0.41943,0.87908 -0.60329,1.32723 -0.18386,0.43667 -0.34474,0.8561 -0.48263,1.25828 -0.1264,0.39071 -0.21258,0.70097 -0.25855,0.93079 -0.0345,0.0919 -0.0862,0.17237 -0.15513,0.24131 -0.0804,0.0689 -0.16088,0.12066 -0.24131,0.15513 -0.0804,0.0345 -0.15513,0.0517 -0.22408,0.0517 -0.0804,-0.0115 -0.1379,-0.046 -0.17237,-0.10342 0.10342,-0.41368 0.24132,-0.86183 0.41368,-1.34446 0.17237,-0.49412 0.36772,-0.98824 0.58605,-1.48236 0.21833,-0.50561 0.44816,-0.99398 0.68947,-1.46513 0.25281,-0.47112 0.50561,-0.88481 0.75842,-1.24104 0.26429,-0.36771 0.52284,-0.66073 0.77565,-0.87908 0.26429,-0.22981 0.5171,-0.34472 0.75842,-0.34473"
           id="path3117"
           inkscape:connector-curvature="0" />
        <path
           d="m 118.37291,274.09308 c 0.21833,0.0115 0.45965,0.046 0.72395,0.10342 0.26429,0.046 0.52284,0.11492 0.77565,0.20684 0.2528,0.0804 0.48262,0.17812 0.68947,0.29302 0.21833,0.10343 0.39644,0.22409 0.53434,0.36198 0.13789,0.1264 0.21833,0.32175 0.24131,0.58604 0.023,0.25281 0.006,0.53435 -0.0517,0.8446 -0.0575,0.31027 -0.14939,0.63202 -0.27579,0.96526 -0.11491,0.32176 -0.24706,0.61478 -0.39644,0.87908 -0.14939,0.26429 -0.31027,0.48262 -0.48263,0.65499 -0.17237,0.17237 -0.33325,0.25855 -0.48263,0.25855 -0.25281,0 -0.46539,-0.0575 -0.63776,-0.17236 -0.17237,-0.12641 -0.31026,-0.27579 -0.41368,-0.44816 -0.10342,-0.17237 -0.18386,-0.35048 -0.24131,-0.53434 -0.046,-0.19535 -0.0747,-0.36197 -0.0862,-0.49986 -0.0345,-0.60903 -0.0402,-1.14912 -0.0172,-1.62026 0.023,-0.47113 0.0632,-0.86183 0.12065,-1.1721 -0.0345,-0.0575 -0.0689,-0.10916 -0.10342,-0.15513 -0.0345,-0.046 -0.069,-0.0862 -0.10342,-0.12065 -0.0345,-0.046 -0.0747,-0.0862 -0.12066,-0.12066 0.046,-0.023 0.0919,-0.0575 0.1379,-0.10342 0.0919,-0.0689 0.15513,-0.13789 0.1896,-0.20684 m 0.62052,4.10234 c 0.0345,0.046 0.0804,0.0977 0.1379,0.15513 0.0574,0.046 0.1264,0.0862 0.20684,0.12066 0.0919,0.023 0.18386,0.023 0.27579,0 0.0919,-0.023 0.1896,-0.0862 0.29302,-0.1896 0.27579,-0.28728 0.48263,-0.58031 0.62052,-0.87908 0.1379,-0.31026 0.22408,-0.59754 0.25856,-0.86184 0.046,-0.27578 0.0402,-0.51709 -0.0172,-0.72394 -0.046,-0.20684 -0.12641,-0.35622 -0.24132,-0.44815 -0.0919,-0.0575 -0.17237,-0.10342 -0.24131,-0.1379 -0.0575,-0.046 -0.1379,-0.0862 -0.24131,-0.12065 -0.0919,-0.0345 -0.21259,-0.069 -0.36198,-0.10342 -0.14938,-0.046 -0.34473,-0.10342 -0.58604,-0.17237 -0.11492,0.36772 -0.19536,0.73544 -0.24132,1.10315 -0.046,0.36772 -0.069,0.70671 -0.069,1.01697 0.0115,0.29877 0.0345,0.56306 0.069,0.79289 0.046,0.21833 0.0919,0.36771 0.13789,0.44815"
           id="path3119"
           inkscape:connector-curvature="0" />
        <path
           d="m 124.25926,274.12755 c 0.49411,-0.0345 0.97674,-0.0689 1.44788,-0.10342 0.48263,-0.046 0.98249,-0.0919 1.4996,-0.13789 0.11491,0.0115 0.1896,0.0747 0.22408,0.1896 0.0345,0.10343 -0.0115,0.16663 -0.1379,0.18961 -0.42518,0.046 -0.91355,0.10917 -1.46512,0.1896 -0.55158,0.0804 -1.07443,0.18386 -1.56854,0.31026 0.023,0.35623 0.0345,0.72395 0.0345,1.10315 0,0.36772 0.006,0.73544 0.0172,1.10315 0.023,0.35623 0.0575,0.70671 0.10342,1.05144 0.0575,0.33325 0.14363,0.64351 0.25855,0.93079 0.16087,0.19535 0.32175,0.31026 0.48263,0.34473 0.16087,0.0345 0.31025,0.023 0.44815,-0.0345 0.14938,-0.046 0.28153,-0.12066 0.39645,-0.22408 0.1264,-0.11491 0.23556,-0.22408 0.3275,-0.3275 0.0804,-0.0804 0.14363,-0.0804 0.1896,0 0.0575,0.0804 0.0115,0.2011 -0.13789,0.36198 -0.069,0.0804 -0.15514,0.16662 -0.25856,0.25855 -0.10342,0.0919 -0.22982,0.16662 -0.3792,0.22407 -0.1379,0.069 -0.29878,0.10917 -0.48263,0.12066 -0.17237,0.023 -0.36198,0.006 -0.56881,-0.0517 -0.2643,-0.069 -0.45965,-0.28153 -0.58605,-0.63776 -0.12641,-0.35622 -0.22408,-0.76991 -0.29303,-1.24104 -0.0575,-0.48263 -0.0977,-0.9825 -0.12065,-1.4996 -0.023,-0.5171 -0.0517,-0.98249 -0.0862,-1.39618 -0.50561,0.046 -0.87907,0.0862 -1.12039,0.12066 -0.22982,0.0345 -0.39644,0.0575 -0.49986,0.0689 -0.10342,0.0115 -0.17237,0.006 -0.20684,-0.0172 -0.0345,-0.023 -0.0977,-0.0747 -0.18961,-0.15513 0.0115,-0.0575 0.0115,-0.10916 0,-0.15513 0,-0.0574 0,-0.10342 0,-0.13789 0.0115,-0.0345 0.0345,-0.069 0.069,-0.10342 0.046,-0.0345 0.1264,-0.0632 0.24131,-0.0862 0.17237,-0.046 0.41943,-0.0689 0.74118,-0.0689 0.33325,-0.0115 0.655,-0.0402 0.96526,-0.0862 -0.0115,-0.36771 -0.023,-0.65499 -0.0345,-0.86183 -0.0115,-0.20684 -0.023,-0.38495 -0.0345,-0.53434 -0.0115,-0.16087 -0.023,-0.316 -0.0345,-0.4654 0,-0.14937 0,-0.34472 0,-0.58604 0,-0.0575 0.0287,-0.0977 0.0862,-0.12066 0.069,-0.0345 0.14364,-0.0517 0.22408,-0.0517 0.0804,-0.0115 0.15513,10e-6 0.22408,0.0345 0.0689,0.023 0.11491,0.0632 0.13789,0.12066 0.0345,0.10343 0.0575,0.25856 0.069,0.46539 0.0115,0.19536 0.0172,0.40794 0.0172,0.63776 0.0115,0.21834 0.0172,0.44242 0.0172,0.67223 0,0.22983 -0.006,0.42518 -0.0172,0.58605"
           id="path3121"
           inkscape:connector-curvature="0" />
        <path
           d="m 127.88409,274.3861 c 0.0345,-0.0115 0.13215,-0.0402 0.29302,-0.0862 0.16088,-0.0574 0.29303,-0.0689 0.39645,-0.0345 0.33324,-0.0115 0.58605,0.0747 0.75842,0.25855 0.18385,0.18386 0.20109,0.54009 0.0517,1.06867 -0.21834,0.58606 -0.51136,1.07443 -0.87908,1.46513 -0.35623,0.3907 -0.7814,0.76416 -1.27552,1.12038 0.11491,0.29878 0.28728,0.4654 0.51711,0.49987 0.22982,0.0345 0.47113,0 0.72394,-0.10342 0.2528,-0.11491 0.49986,-0.2643 0.74118,-0.44816 0.24131,-0.18385 0.43666,-0.34473 0.58605,-0.48262 0.24131,-0.20684 0.43091,-0.37921 0.56881,-0.51711 0.14938,-0.14938 0.30451,-0.32749 0.46539,-0.53434 0.0345,-0.023 0.0517,-0.0172 0.0517,0.0172 0.0115,0.023 0.0115,0.0632 0,0.12066 -0.0115,0.0575 -0.0287,0.1379 -0.0517,0.24131 -0.0345,0.0804 -0.069,0.15514 -0.10342,0.22408 -0.0345,0.0575 -0.0862,0.12641 -0.15513,0.20684 -0.0575,0.0689 -0.1379,0.15513 -0.24131,0.25855 -0.10343,0.10342 -0.22983,0.24132 -0.37921,0.41368 -0.17237,0.16088 -0.33899,0.32176 -0.49987,0.48263 -0.16088,0.14939 -0.33324,0.28154 -0.5171,0.39645 -0.17237,0.11491 -0.36772,0.19535 -0.58605,0.24131 -0.20684,0.046 -0.44816,0.046 -0.72394,0 -0.22983,-0.0804 -0.41368,-0.16662 -0.55158,-0.25855 -0.13789,-0.0919 -0.24706,-0.18386 -0.32749,-0.27579 -0.069,-0.10342 -0.12066,-0.19535 -0.15514,-0.27578 -0.0345,-0.0804 -0.0575,-0.14939 -0.0689,-0.20685 -0.0575,-0.22982 -0.0804,-0.54008 -0.069,-0.93078 0.0115,-0.3907 0.1264,-0.89631 0.34474,-1.51683 0.14938,-0.32175 0.31026,-0.59179 0.48262,-0.81013 0.17237,-0.22982 0.37347,-0.40793 0.60329,-0.53434 m -0.75842,3.05091 c 0.14939,-0.0804 0.32175,-0.18961 0.51711,-0.3275 0.20683,-0.14939 0.39644,-0.31601 0.56881,-0.49987 0.18385,-0.19535 0.33898,-0.40793 0.46539,-0.63776 0.13789,-0.22982 0.21258,-0.47113 0.22408,-0.72394 0.0345,-0.17236 0.0287,-0.29302 -0.0172,-0.36197 -0.023,-0.0345 -0.046,-0.0517 -0.0689,-0.0517 -0.19535,-0.0919 -0.3907,-0.0632 -0.58605,0.0862 -0.19535,0.14939 -0.37346,0.36198 -0.53433,0.63776 -0.16088,0.27579 -0.29878,0.58605 -0.41369,0.93078 -0.10342,0.33325 -0.15513,0.64926 -0.15513,0.94803"
           id="path3123"
           inkscape:connector-curvature="0" />
        <path
           d="m 132.53801,273.83453 c 0.28727,0.046 0.52284,0.10917 0.7067,0.1896 0.19535,0.0804 0.34474,0.17237 0.44816,0.27579 0.11491,0.0919 0.20109,0.18961 0.25855,0.29302 0.0689,0.10343 0.13214,0.2011 0.1896,0.29303 -0.0115,0.046 -0.069,0.0402 -0.17236,-0.0172 -0.0919,-0.0575 -0.18387,-0.11491 -0.27579,-0.17237 -0.25281,-0.16087 -0.55732,-0.25854 -0.91355,-0.29302 -0.35623,-0.0345 -0.68947,-0.0115 -0.99973,0.0689 -0.29877,0.069 -0.54008,0.19535 -0.72394,0.3792 -0.18386,0.18387 -0.22983,0.40794 -0.1379,0.67224 0.0919,0.2643 0.25281,0.49412 0.48263,0.68947 0.24132,0.19535 0.50561,0.37346 0.79289,0.53434 0.28728,0.14938 0.57456,0.28728 0.86184,0.41368 0.28728,0.1264 0.52284,0.2528 0.70671,0.37921 0.22982,-0.12641 0.42517,-0.22983 0.58604,-0.31027 0.16088,-0.0919 0.30452,-0.17236 0.43092,-0.24131 0.1264,-0.0804 0.2528,-0.14938 0.37921,-0.20684 0.13789,-0.069 0.29302,-0.14364 0.46539,-0.22408 0.023,-0.0115 0.0402,-0.0172 0.0517,-0.0172 0.023,10e-6 0.023,0.0172 0,0.0517 -0.0115,0.023 -0.0575,0.069 -0.13789,0.1379 -0.069,0.0575 -0.18386,0.14364 -0.34474,0.25855 -0.0804,0.0575 -0.22982,0.15513 -0.44815,0.29302 -0.21834,0.1379 -0.4539,0.28729 -0.70671,0.44816 0.13789,0.1264 0.24706,0.25855 0.3275,0.39644 0.0689,0.12641 0.11491,0.2643 0.1379,0.41369 0.0345,0.13789 0.0115,0.28153 -0.0689,0.43091 -0.22983,0.36772 -0.48838,0.655 -0.77565,0.86184 -0.28729,0.20684 -0.55158,0.35048 -0.79289,0.43092 -0.16088,0.0575 -0.339,0.0632 -0.53434,0.0172 -0.19535,-0.046 -0.35049,-0.1379 -0.4654,-0.27579 -0.1264,-0.18386 -0.16087,-0.37346 -0.10342,-0.56881 0.069,-0.18386 0.17812,-0.36197 0.3275,-0.53434 0.14939,-0.18386 0.32175,-0.35623 0.5171,-0.5171 0.19535,-0.16088 0.36772,-0.30452 0.51711,-0.43092 -0.10343,-0.11491 -0.30452,-0.25281 -0.60329,-0.41368 -0.29877,-0.17237 -0.60903,-0.35623 -0.93078,-0.55158 -0.31026,-0.20684 -0.5918,-0.42517 -0.8446,-0.655 -0.25281,-0.22982 -0.3907,-0.45964 -0.41368,-0.68947 -0.046,-0.2528 -0.0115,-0.49411 0.10342,-0.72394 0.10342,-0.24131 0.25855,-0.44815 0.46539,-0.62052 0.21833,-0.18385 0.46539,-0.316 0.74118,-0.39645 0.28727,-0.0919 0.58604,-0.1149 0.89631,-0.0689 m -0.15513,5.9122 c 0.1264,0.0574 0.27004,0.0574 0.43092,0 0.16087,-0.0575 0.31025,-0.14364 0.44815,-0.25855 0.14938,-0.10342 0.27579,-0.21834 0.37921,-0.34474 0.11491,-0.13789 0.1896,-0.25855 0.22408,-0.36197 0.0345,-0.0919 -1e-5,-0.1896 -0.10342,-0.29302 -0.0919,-0.11491 -0.18961,-0.20684 -0.29303,-0.27579 -0.1264,0.0919 -0.27004,0.21259 -0.43092,0.36197 -0.16088,0.13789 -0.30451,0.28153 -0.43092,0.43092 -0.11491,0.14938 -0.20109,0.29302 -0.25855,0.43092 -0.0574,0.13789 -0.046,0.24131 0.0345,0.31026"
           id="path3125"
           inkscape:connector-curvature="0" />
      </g>
      <g
         transform="matrix(0.98963588,-0.14359955,0.14359955,0.98963588,8,0)"
         style="font-style:normal;font-variant:normal;font-weight:normal;font-stretch:normal;font-size:17.2367363px;line-height:125%;font-family:'Jenna Sue';-inkscape-font-specification:'Jenna Sue';text-align:center;letter-spacing:0px;word-spacing:0px;text-anchor:middle;fill:#a67d00;fill-opacity:1;stroke:none"
         id="text5597">
        <path
           d="m 111.81762,266.12258 c 0.2528,-0.023 0.43666,0.0804 0.55157,0.31026 0.11491,0.21834 0.19535,0.48838 0.24132,0.81012 0.046,0.32177 0.0632,0.65501 0.0517,0.99973 -0.0115,0.34475 -0.0172,0.62628 -0.0172,0.8446 0,0.16089 0,0.4022 0,0.72395 0,0.31027 0,0.655 0,1.0342 0,0.36773 -0.006,0.75268 -0.0172,1.15486 0,0.39071 -0.006,0.75268 -0.0172,1.08592 -10e-6,0.32175 -10e-6,0.5918 0,0.81012 -10e-6,0.21834 -10e-6,0.339 0,0.36198 0.023,-0.023 0.0574,-0.14364 0.10342,-0.36198 0.0574,-0.22981 0.12065,-0.49986 0.1896,-0.81012 0.0804,-0.32175 0.16662,-0.66074 0.25855,-1.01697 0.10342,-0.35622 0.20684,-0.68372 0.31026,-0.98249 0.0115,-0.0345 0.046,-0.17236 0.10342,-0.41369 0.069,-0.2413 0.16088,-0.48836 0.27579,-0.74118 0.1264,-0.26428 0.28153,-0.49411 0.46539,-0.68946 0.18386,-0.19535 0.40793,-0.26429 0.67224,-0.20685 0.20683,-0.046 0.38494,0.10343 0.53434,0.44816 0.16086,0.34474 0.29301,0.79864 0.39644,1.3617 0.1149,0.56308 0.20683,1.18934 0.27579,1.87881 0.0804,0.68947 0.14938,1.34447 0.20684,1.96498 0.0689,0.62053 0.12639,1.16061 0.17237,1.62026 0.0574,0.45964 0.1149,0.75267 0.17236,0.87907 0.18385,0.24132 0.42517,0.25855 0.72395,0.0517 0.29876,-0.20684 0.63775,-0.54583 1.01696,-1.01697 0.023,0.0345 0.0345,0.10343 0.0345,0.20684 0.0115,0.0919 -0.0115,0.21259 -0.069,0.36198 -0.046,0.13789 -0.14365,0.30451 -0.29302,0.49986 -0.13791,0.18386 -0.339,0.38496 -0.60329,0.60329 -0.41369,0.20684 -0.75268,0.23557 -1.01697,0.0862 -0.25281,-0.16088 -0.42518,-0.41368 -0.5171,-0.75842 -0.023,-0.11491 -0.0575,-0.3792 -0.10342,-0.79289 -0.046,-0.41368 -0.0977,-0.8963 -0.15513,-1.44788 -0.0575,-0.55157 -0.12066,-1.12613 -0.1896,-1.72368 -0.069,-0.59753 -0.14365,-1.1491 -0.22408,-1.65472 -0.069,-0.50561 -0.14939,-0.91929 -0.24132,-1.24105 -0.0804,-0.32174 -0.16088,-0.47113 -0.24131,-0.44815 -0.069,-0.046 -0.14365,-0.0115 -0.22408,0.10342 -0.0804,0.10343 -0.16663,0.25856 -0.25855,0.46539 -0.0804,0.20685 -0.16663,0.44816 -0.25855,0.72394 -0.0804,0.2758 -0.16663,0.55159 -0.25855,0.82737 -0.0804,0.27579 -0.15514,0.53434 -0.22408,0.77565 -0.0575,0.22983 -0.10917,0.41369 -0.15513,0.55158 -0.11492,0.3907 -0.21259,0.74692 -0.29302,1.06867 -0.0804,0.32176 -0.15514,0.66649 -0.22408,1.03421 -0.069,0.36772 -0.13215,0.78714 -0.18961,1.25828 -0.0575,0.45965 -0.10917,1.01697 -0.15513,1.67196 -0.22982,0.023 -0.37921,-0.006 -0.44815,-0.0862 -0.069,-0.0804 -0.16663,-0.15513 -0.29303,-0.22408 0,-0.21833 0,-0.56881 0,-1.05144 0.0115,-0.48263 0.0172,-1.02271 0.0172,-1.62025 0,-0.60903 0,-1.24104 0,-1.89604 0.0115,-0.66649 0.0172,-1.28701 0.0172,-1.86157 -1e-5,-0.023 0.006,-0.14363 0.0172,-0.36197 0.023,-0.21833 0.0402,-0.48262 0.0517,-0.79289 0.0115,-0.31026 0.023,-0.64924 0.0345,-1.01697 0.0115,-0.3792 0.006,-0.74117 -0.0172,-1.08591 -0.0115,-0.34473 -0.0402,-0.64924 -0.0862,-0.91355 -0.0345,-0.27578 -0.0977,-0.47113 -0.18961,-0.58605 -0.13789,-0.0804 -0.30452,-0.0287 -0.49986,0.15513 -0.18386,0.18387 -0.38496,0.44817 -0.60329,0.79289 -0.21833,0.33325 -0.43666,0.72395 -0.65499,1.1721 -0.21834,0.43667 -0.41943,0.87908 -0.60329,1.32723 -0.18386,0.43667 -0.34473,0.85609 -0.48263,1.25828 -0.1264,0.3907 -0.21258,0.70096 -0.25855,0.93078 -0.0345,0.0919 -0.0862,0.17237 -0.15513,0.24132 -0.0804,0.069 -0.16088,0.12066 -0.24131,0.15513 -0.0804,0.0345 -0.15513,0.0517 -0.22408,0.0517 -0.0804,-0.0115 -0.13789,-0.046 -0.17237,-0.10342 0.10342,-0.41368 0.24132,-0.86183 0.41368,-1.34447 0.17237,-0.49411 0.36772,-0.98823 0.58605,-1.48236 0.21833,-0.5056 0.44816,-0.99397 0.68947,-1.46512 0.25281,-0.47113 0.50561,-0.88481 0.75842,-1.24105 0.26429,-0.3677 0.52284,-0.66073 0.77565,-0.87907 0.26429,-0.22981 0.5171,-0.34472 0.75842,-0.34473"
           id="path3106"
           inkscape:connector-curvature="0" />
        <path
           d="m 118.51651,273.10345 c 0.21833,0.0115 0.45965,0.046 0.72395,0.10342 0.26429,0.046 0.52284,0.11492 0.77565,0.20685 0.2528,0.0804 0.48263,0.17811 0.68947,0.29302 0.21833,0.10342 0.39644,0.22408 0.53434,0.36197 0.13789,0.12641 0.21833,0.32176 0.24131,0.58605 0.023,0.25281 0.006,0.53434 -0.0517,0.8446 -0.0575,0.31026 -0.14939,0.63202 -0.27579,0.96526 -0.11491,0.32175 -0.24706,0.61478 -0.39644,0.87907 -0.14939,0.2643 -0.31026,0.48263 -0.48263,0.655 -0.17237,0.17236 -0.33325,0.25855 -0.48263,0.25855 -0.25281,0 -0.46539,-0.0575 -0.63776,-0.17237 -0.17237,-0.1264 -0.31026,-0.27579 -0.41368,-0.44815 -0.10342,-0.17237 -0.18386,-0.35048 -0.24131,-0.53434 -0.046,-0.19535 -0.0747,-0.36197 -0.0862,-0.49987 -0.0345,-0.60903 -0.0402,-1.14911 -0.0172,-1.62025 0.023,-0.47114 0.0632,-0.86183 0.12065,-1.1721 -0.0345,-0.0575 -0.0689,-0.10916 -0.10342,-0.15513 -0.0345,-0.046 -0.0689,-0.0862 -0.10342,-0.12066 -0.0345,-0.046 -0.0747,-0.0862 -0.12066,-0.12065 0.046,-0.023 0.0919,-0.0575 0.1379,-0.10342 0.0919,-0.0689 0.15513,-0.13789 0.1896,-0.20685 m 0.62053,4.10235 c 0.0345,0.046 0.0804,0.0977 0.13789,0.15513 0.0575,0.046 0.1264,0.0862 0.20684,0.12066 0.0919,0.023 0.18386,0.023 0.27579,0 0.0919,-0.023 0.1896,-0.0862 0.29302,-0.18961 0.27579,-0.28728 0.48263,-0.5803 0.62052,-0.87907 0.1379,-0.31026 0.22408,-0.59754 0.25856,-0.86184 0.046,-0.27578 0.0402,-0.5171 -0.0172,-0.72394 -0.046,-0.20684 -0.12641,-0.35622 -0.24132,-0.44816 -0.0919,-0.0574 -0.17236,-0.10341 -0.24131,-0.13789 -0.0575,-0.046 -0.1379,-0.0862 -0.24131,-0.12066 -0.0919,-0.0345 -0.21259,-0.0689 -0.36198,-0.10342 -0.14938,-0.046 -0.34473,-0.10341 -0.58604,-0.17237 -0.11492,0.36772 -0.19535,0.73544 -0.24132,1.10315 -0.046,0.36772 -0.069,0.70671 -0.069,1.01697 0.0115,0.29877 0.0345,0.56307 0.069,0.79289 0.046,0.21834 0.0919,0.36772 0.1379,0.44816"
           id="path3108"
           inkscape:connector-curvature="0" />
        <path
           d="m 124.40286,273.13793 c 0.49411,-0.0345 0.97674,-0.0689 1.44788,-0.10342 0.48263,-0.046 0.98249,-0.0919 1.4996,-0.1379 0.11491,0.0115 0.1896,0.0747 0.22408,0.18961 0.0345,0.10342 -0.0115,0.16662 -0.1379,0.1896 -0.42517,0.046 -0.91355,0.10917 -1.46512,0.18961 -0.55158,0.0804 -1.07443,0.18386 -1.56854,0.31026 0.023,0.35623 0.0345,0.72394 0.0345,1.10315 0,0.36772 0.006,0.73543 0.0172,1.10315 0.023,0.35623 0.0575,0.70671 0.10342,1.05144 0.0575,0.33324 0.14363,0.64351 0.25855,0.93078 0.16087,0.19535 0.32175,0.31027 0.48263,0.34474 0.16087,0.0345 0.31026,0.023 0.44815,-0.0345 0.14938,-0.046 0.28153,-0.12066 0.39645,-0.22408 0.1264,-0.11491 0.23556,-0.22408 0.3275,-0.3275 0.0804,-0.0804 0.14363,-0.0804 0.1896,0 0.0575,0.0804 0.0115,0.2011 -0.13789,0.36197 -0.069,0.0804 -0.15514,0.16662 -0.25855,0.25855 -0.10343,0.0919 -0.22983,0.16662 -0.37921,0.22408 -0.1379,0.069 -0.29878,0.10917 -0.48263,0.12066 -0.17237,0.023 -0.36198,0.006 -0.56881,-0.0517 -0.2643,-0.069 -0.45965,-0.28154 -0.58605,-0.63776 -0.12641,-0.35623 -0.22408,-0.76991 -0.29303,-1.24105 -0.0575,-0.48262 -0.0977,-0.98249 -0.12065,-1.49959 -0.023,-0.5171 -0.0517,-0.98249 -0.0862,-1.39618 -0.50561,0.046 -0.87907,0.0862 -1.12039,0.12066 -0.22982,0.0345 -0.39644,0.0575 -0.49986,0.0689 -0.10342,0.0115 -0.17237,0.006 -0.20684,-0.0172 -0.0345,-0.023 -0.0977,-0.0747 -0.18961,-0.15513 0.0115,-0.0575 0.0115,-0.10916 0,-0.15513 0,-0.0574 0,-0.10342 0,-0.1379 0.0115,-0.0345 0.0345,-0.0689 0.069,-0.10342 0.046,-0.0345 0.1264,-0.0632 0.24131,-0.0862 0.17237,-0.046 0.41943,-0.0689 0.74118,-0.0689 0.33325,-0.0115 0.655,-0.0402 0.96526,-0.0862 -0.0115,-0.36771 -0.023,-0.65499 -0.0345,-0.86184 -0.0115,-0.20683 -0.023,-0.38495 -0.0345,-0.53434 -0.0115,-0.16087 -0.023,-0.316 -0.0345,-0.46539 0,-0.14938 0,-0.34473 0,-0.58605 0,-0.0574 0.0287,-0.0977 0.0862,-0.12066 0.0689,-0.0345 0.14363,-0.0517 0.22407,-0.0517 0.0804,-0.0115 0.15513,10e-6 0.22408,0.0345 0.0689,0.023 0.11491,0.0632 0.13789,0.12065 0.0345,0.10343 0.0575,0.25856 0.069,0.4654 0.0115,0.19535 0.0172,0.40794 0.0172,0.63776 0.0115,0.21833 0.0172,0.44241 0.0172,0.67223 0,0.22983 -0.006,0.42518 -0.0172,0.58605"
           id="path3110"
           inkscape:connector-curvature="0" />
        <path
           d="m 128.02769,273.39648 c 0.0345,-0.0115 0.13215,-0.0402 0.29302,-0.0862 0.16088,-0.0575 0.29303,-0.0689 0.39645,-0.0345 0.33324,-0.0115 0.58605,0.0747 0.75842,0.25855 0.18385,0.18387 0.20109,0.54009 0.0517,1.06868 -0.21834,0.58605 -0.51136,1.07443 -0.87908,1.46512 -0.35623,0.3907 -0.7814,0.76417 -1.27552,1.12039 0.11491,0.29877 0.28728,0.46539 0.51711,0.49987 0.22982,0.0345 0.47113,0 0.72394,-0.10342 0.2528,-0.11492 0.49986,-0.2643 0.74118,-0.44816 0.24131,-0.18386 0.43666,-0.34473 0.58605,-0.48263 0.24131,-0.20684 0.43091,-0.3792 0.56881,-0.5171 0.14938,-0.14938 0.30451,-0.3275 0.46539,-0.53434 0.0345,-0.023 0.0517,-0.0172 0.0517,0.0172 0.0115,0.023 0.0115,0.0632 0,0.12065 -0.0115,0.0575 -0.0287,0.1379 -0.0517,0.24132 -0.0345,0.0804 -0.069,0.15513 -0.10342,0.22408 -0.0345,0.0575 -0.0862,0.1264 -0.15513,0.20684 -0.0575,0.0689 -0.1379,0.15513 -0.24131,0.25855 -0.10343,0.10342 -0.22983,0.24131 -0.37921,0.41368 -0.17237,0.16088 -0.33899,0.32175 -0.49987,0.48263 -0.16088,0.14938 -0.33324,0.28153 -0.5171,0.39644 -0.17237,0.11492 -0.36772,0.19535 -0.58605,0.24132 -0.20684,0.046 -0.44815,0.046 -0.72394,0 -0.22983,-0.0804 -0.41368,-0.16662 -0.55158,-0.25855 -0.13789,-0.0919 -0.24706,-0.18386 -0.32749,-0.27579 -0.069,-0.10342 -0.12066,-0.19535 -0.15514,-0.27579 -0.0345,-0.0804 -0.0575,-0.14938 -0.0689,-0.20684 -0.0575,-0.22982 -0.0804,-0.54008 -0.0689,-0.93078 0.0115,-0.3907 0.1264,-0.89631 0.34474,-1.51684 0.14938,-0.32174 0.31026,-0.59179 0.48262,-0.81012 0.17237,-0.22982 0.37347,-0.40793 0.60329,-0.53434 m -0.75842,3.0509 c 0.14939,-0.0804 0.32175,-0.1896 0.51711,-0.3275 0.20684,-0.14938 0.39644,-0.316 0.56881,-0.49986 0.18385,-0.19535 0.33899,-0.40794 0.46539,-0.63776 0.13789,-0.22982 0.21258,-0.47114 0.22408,-0.72394 0.0345,-0.17237 0.0287,-0.29302 -0.0172,-0.36198 -0.023,-0.0345 -0.046,-0.0517 -0.069,-0.0517 -0.19535,-0.0919 -0.3907,-0.0632 -0.58605,0.0862 -0.19535,0.14939 -0.37346,0.36197 -0.53433,0.63776 -0.16088,0.27579 -0.29878,0.58605 -0.41369,0.93078 -0.10342,0.33325 -0.15513,0.64925 -0.15513,0.94802"
           id="path3112"
           inkscape:connector-curvature="0" />
        <path
           d="m 132.68161,272.8449 c 0.28727,0.046 0.52284,0.10917 0.7067,0.18961 0.19535,0.0804 0.34474,0.17237 0.44816,0.27579 0.11491,0.0919 0.20109,0.1896 0.25855,0.29302 0.0689,0.10342 0.13215,0.2011 0.1896,0.29302 -0.0115,0.046 -0.069,0.0402 -0.17236,-0.0172 -0.0919,-0.0575 -0.18386,-0.11491 -0.27579,-0.17237 -0.25281,-0.16087 -0.55732,-0.25855 -0.91355,-0.29302 -0.35623,-0.0345 -0.68947,-0.0115 -0.99973,0.0689 -0.29877,0.0689 -0.54008,0.19536 -0.72394,0.37921 -0.18386,0.18386 -0.22982,0.40794 -0.1379,0.67223 0.0919,0.2643 0.25281,0.49413 0.48263,0.68947 0.24132,0.19536 0.50561,0.37347 0.79289,0.53434 0.28728,0.14939 0.57456,0.28728 0.86184,0.41368 0.28728,0.12641 0.52284,0.25281 0.70671,0.37921 0.22982,-0.1264 0.42517,-0.22982 0.58605,-0.31026 0.16087,-0.0919 0.30451,-0.17236 0.43091,-0.24131 0.1264,-0.0804 0.2528,-0.14939 0.37921,-0.20684 0.13789,-0.069 0.29302,-0.14364 0.46539,-0.22408 0.023,-0.0115 0.0402,-0.0172 0.0517,-0.0172 0.023,0 0.023,0.0172 0,0.0517 -0.0115,0.023 -0.0575,0.069 -0.13789,0.13789 -0.069,0.0575 -0.18386,0.14365 -0.34473,0.25856 -0.0805,0.0574 -0.22983,0.15513 -0.44816,0.29302 -0.21834,0.1379 -0.4539,0.28728 -0.70671,0.44816 0.13789,0.1264 0.24706,0.25855 0.3275,0.39644 0.069,0.1264 0.11491,0.2643 0.1379,0.41368 0.0345,0.1379 0.0115,0.28154 -0.069,0.43092 -0.22983,0.36772 -0.48838,0.655 -0.77565,0.86184 -0.28729,0.20684 -0.55158,0.35048 -0.79289,0.43092 -0.16088,0.0575 -0.339,0.0632 -0.53434,0.0172 -0.19535,-0.046 -0.35048,-0.13789 -0.46539,-0.27579 -0.12641,-0.18385 -0.16088,-0.37346 -0.10343,-0.56881 0.069,-0.18386 0.17812,-0.36197 0.3275,-0.53434 0.14939,-0.18385 0.32175,-0.35622 0.5171,-0.5171 0.19535,-0.16087 0.36772,-0.30451 0.51711,-0.43092 -0.10343,-0.11491 -0.30452,-0.2528 -0.60329,-0.41368 -0.29877,-0.17236 -0.60903,-0.35622 -0.93078,-0.55157 -0.31026,-0.20684 -0.5918,-0.42517 -0.8446,-0.655 -0.25281,-0.22982 -0.3907,-0.45964 -0.41368,-0.68947 -0.046,-0.2528 -0.0115,-0.49412 0.10342,-0.72394 0.10342,-0.24131 0.25855,-0.44815 0.46539,-0.62052 0.21833,-0.18386 0.46539,-0.31601 0.74118,-0.39645 0.28728,-0.0919 0.58605,-0.11491 0.89631,-0.069 m -0.15513,5.9122 c 0.1264,0.0575 0.27004,0.0575 0.43092,0 0.16087,-0.0574 0.31025,-0.14364 0.44815,-0.25855 0.14938,-0.10342 0.27579,-0.21833 0.37921,-0.34473 0.11491,-0.1379 0.1896,-0.25855 0.22408,-0.36197 0.0345,-0.0919 -1e-5,-0.18961 -0.10342,-0.29303 -0.0919,-0.11491 -0.18961,-0.20684 -0.29303,-0.27579 -0.1264,0.0919 -0.27004,0.21259 -0.43092,0.36198 -0.16088,0.13789 -0.30451,0.28153 -0.43092,0.43091 -0.11491,0.14939 -0.20109,0.29303 -0.25855,0.43092 -0.0574,0.1379 -0.046,0.24132 0.0345,0.31026"
           id="path3114"
           inkscape:connector-curvature="0" />
      </g>
      <path
         style="fill:#fecd38;fill-opacity:1;stroke:none"
         d="m 264,-196 c -13.296,0 -24,10.704 -24,24 l 0,400 c 0,13.296 10.704,24 24,24 l 232,0 192,-192 0,-232 c 0,-13.296 -10.704,-24 -24,-24 z"
         id="rect4229"
         inkscape:connector-curvature="0"
         sodipodi:nodetypes="ssssccsss" />
      <g
         transform="matrix(7.917087,-1.1487964,1.1487964,7.917087,-1392,-1994)"
         style="font-style:normal;font-variant:normal;font-weight:normal;font-stretch:normal;font-size:24.45282364px;line-height:125%;font-family:'Jenna Sue';-inkscape-font-specification:'Jenna Sue';text-align:center;letter-spacing:0px;word-spacing:0px;text-anchor:middle;opacity:0.2;fill:#ffffff;fill-opacity:1;stroke:none"
         id="text5621">
        <path
           inkscape:connector-curvature="0"
           d="m 179.47418,264.4615 c 0.35863,-0.0326 0.61946,0.11413 0.78249,0.44015 0.16301,0.30976 0.27712,0.69285 0.34234,1.14929 0.0652,0.45647 0.0897,0.92922 0.0734,1.41826 -0.0163,0.48907 -0.0245,0.88847 -0.0245,1.19819 0,0.22824 0,0.57058 0,1.02702 0,0.44016 0,0.92922 0,1.46717 0,0.52167 -0.008,1.06778 -0.0245,1.63834 -1e-5,0.55427 -0.008,1.06778 -0.0245,1.54052 -1e-5,0.45646 -1e-5,0.83956 0,1.14929 -1e-5,0.30974 -1e-5,0.48091 0,0.51351 0.0326,-0.0326 0.0815,-0.20377 0.14671,-0.51351 0.0815,-0.32603 0.17117,-0.70913 0.26898,-1.14929 0.11411,-0.45644 0.23638,-0.93735 0.3668,-1.44271 0.14671,-0.50535 0.29342,-0.96995 0.44015,-1.39381 0.0163,-0.0489 0.0652,-0.24452 0.14671,-0.58687 0.0978,-0.34233 0.22822,-0.69282 0.39125,-1.05147 0.17931,-0.37493 0.39939,-0.70097 0.66023,-0.97811 0.26082,-0.27712 0.5787,-0.37494 0.95366,-0.29344 0.29342,-0.0652 0.5461,0.14673 0.75803,0.63577 0.22822,0.48907 0.41569,1.133 0.56242,1.93178 0.16301,0.7988 0.29342,1.68725 0.39124,2.66536 0.11411,0.97812 0.21192,1.90732 0.29344,2.78762 0.0978,0.8803 0.17931,1.64649 0.24453,2.29856 0.0815,0.65208 0.163,1.06778 0.24452,1.2471 0.26082,0.34234 0.60316,0.36679 1.02702,0.0734 0.42384,-0.29344 0.90474,-0.77434 1.44272,-1.44272 0.0326,0.0489 0.0489,0.14672 0.0489,0.29343 0.0163,0.13042 -0.0163,0.30159 -0.0978,0.51351 -0.0652,0.19563 -0.20378,0.432 -0.41569,0.70913 -0.19564,0.26083 -0.48092,0.54612 -0.85585,0.85585 -0.58688,0.29344 -1.06779,0.33419 -1.44272,0.12227 -0.35865,-0.22823 -0.60318,-0.58687 -0.73358,-1.07593 -0.0326,-0.16301 -0.0815,-0.53796 -0.14672,-1.12483 -0.0652,-0.58686 -0.13858,-1.27154 -0.22008,-2.05403 -0.0815,-0.78249 -0.17118,-1.59758 -0.26898,-2.44529 -0.0978,-0.84769 -0.20378,-1.63018 -0.31788,-2.34747 -0.0978,-0.71727 -0.21194,-1.30414 -0.34234,-1.7606 -0.11413,-0.45644 -0.22824,-0.66837 -0.34234,-0.63577 -0.0978,-0.0652 -0.20379,-0.0163 -0.31789,0.14671 -0.11412,0.14673 -0.23639,0.36681 -0.36679,0.66023 -0.11412,0.29344 -0.23639,0.63578 -0.36679,1.02702 -0.11413,0.39125 -0.23639,0.7825 -0.3668,1.17373 -0.11412,0.39126 -0.22008,0.75805 -0.31788,1.10038 -0.0815,0.32604 -0.15488,0.58687 -0.22008,0.78249 -0.16302,0.55427 -0.30159,1.05963 -0.4157,1.51607 -0.11412,0.45646 -0.22008,0.94552 -0.31788,1.46717 -0.0978,0.52167 -0.18748,1.11669 -0.26898,1.78506 -0.0815,0.65208 -0.15488,1.44272 -0.22008,2.37192 -0.32604,0.0326 -0.53797,-0.008 -0.63577,-0.12226 -0.0978,-0.11411 -0.23639,-0.22007 -0.4157,-0.31789 -1e-5,-0.30973 -1e-5,-0.80694 0,-1.49162 0.0163,-0.68468 0.0245,-1.45086 0.0245,-2.29856 0,-0.864 0,-1.7606 0,-2.68981 0.0163,-0.94551 0.0245,-1.82581 0.0245,-2.64091 0,-0.0326 0.008,-0.20376 0.0245,-0.51351 0.0326,-0.30972 0.0571,-0.68467 0.0734,-1.12483 0.0163,-0.44014 0.0326,-0.92104 0.0489,-1.44272 0.0163,-0.53794 0.008,-1.05145 -0.0245,-1.54052 -0.0163,-0.48905 -0.0571,-0.92104 -0.12227,-1.296 -0.0489,-0.39123 -0.13857,-0.66836 -0.26898,-0.8314 -0.19562,-0.1141 -0.432,-0.0407 -0.70913,0.22008 -0.26083,0.26084 -0.54611,0.63579 -0.85585,1.12483 -0.30974,0.47277 -0.61947,1.02703 -0.92921,1.66279 -0.30973,0.61948 -0.59501,1.2471 -0.85584,1.88287 -0.26083,0.61948 -0.48906,1.2145 -0.68468,1.78505 -0.17932,0.55427 -0.30159,0.99443 -0.3668,1.32045 -0.0489,0.13043 -0.12226,0.24454 -0.22007,0.34234 -0.11411,0.0978 -0.22823,0.17118 -0.34234,0.22008 -0.11411,0.0489 -0.22007,0.0734 -0.31789,0.0734 -0.11411,-0.0163 -0.19562,-0.0652 -0.24453,-0.14672 0.14672,-0.58686 0.34235,-1.22263 0.58687,-1.90732 0.24453,-0.70097 0.52166,-1.40195 0.8314,-2.10294 0.30973,-0.71727 0.63577,-1.4101 0.97811,-2.07849 0.35864,-0.66837 0.71728,-1.25523 1.07593,-1.76061 0.37494,-0.52164 0.74173,-0.93734 1.10037,-1.24709 0.37494,-0.32602 0.73358,-0.48904 1.07593,-0.48906"
           id="path3139"
           style="" />
        <path
           inkscape:connector-curvature="0"
           d="m 188.97754,274.3649 c 0.30973,0.0163 0.65207,0.0652 1.02702,0.14671 0.37494,0.0652 0.74173,0.16303 1.10037,0.29344 0.35864,0.11412 0.68468,0.25268 0.97812,0.4157 0.30973,0.14672 0.56241,0.31789 0.75803,0.51351 0.19562,0.17932 0.30974,0.45645 0.34234,0.83139 0.0326,0.35865 0.008,0.75804 -0.0734,1.19819 -0.0815,0.44015 -0.21192,0.89661 -0.39124,1.36936 -0.16302,0.45645 -0.35049,0.87215 -0.56242,1.24709 -0.21192,0.37495 -0.44015,0.68468 -0.68467,0.92921 -0.24454,0.24453 -0.47276,0.36679 -0.68468,0.36679 -0.35865,0 -0.66023,-0.0815 -0.90476,-0.24453 -0.24453,-0.17932 -0.44015,-0.39124 -0.58687,-0.63577 -0.14671,-0.24453 -0.26083,-0.49721 -0.34234,-0.75804 -0.0652,-0.27713 -0.10596,-0.5135 -0.12226,-0.70913 -0.0489,-0.864 -0.0571,-1.63018 -0.0245,-2.29856 0.0326,-0.66838 0.0897,-1.22264 0.17117,-1.6628 -0.0489,-0.0815 -0.0978,-0.15486 -0.14672,-0.22007 -0.0489,-0.0652 -0.0978,-0.12226 -0.14672,-0.17117 -0.0489,-0.0652 -0.10596,-0.12226 -0.17117,-0.17117 0.0652,-0.0326 0.13042,-0.0815 0.19563,-0.14672 0.13041,-0.0978 0.22007,-0.19561 0.26898,-0.29343 m 0.8803,5.81977 c 0.0489,0.0652 0.11411,0.13857 0.19562,0.22007 0.0815,0.0652 0.17932,0.12227 0.29344,0.17117 0.13041,0.0326 0.26082,0.0326 0.39124,0 0.13041,-0.0326 0.26898,-0.12226 0.4157,-0.26898 0.39124,-0.40754 0.68467,-0.82324 0.8803,-1.24709 0.19562,-0.44015 0.31788,-0.84769 0.36679,-1.22264 0.0652,-0.39124 0.0571,-0.73358 -0.0245,-1.02702 -0.0652,-0.29343 -0.17932,-0.50535 -0.34234,-0.63577 -0.13042,-0.0815 -0.24453,-0.14671 -0.34234,-0.19563 -0.0815,-0.0652 -0.19562,-0.12225 -0.34234,-0.17117 -0.13042,-0.0489 -0.30159,-0.0978 -0.51351,-0.14671 -0.21192,-0.0652 -0.48906,-0.14671 -0.83139,-0.24453 -0.16302,0.52166 -0.27714,1.04332 -0.34234,1.56498 -0.0652,0.52166 -0.0978,1.00257 -0.0978,1.44272 0.0163,0.42385 0.0489,0.79879 0.0978,1.12483 0.0652,0.30973 0.13041,0.52166 0.19562,0.63577"
           id="path3141"
           style="" />
        <path
           inkscape:connector-curvature="0"
           d="m 197.32818,274.4138 c 0.70097,-0.0489 1.38565,-0.0978 2.05403,-0.14671 0.68468,-0.0652 1.39381,-0.13041 2.1274,-0.19563 0.16301,0.0163 0.26897,0.10597 0.31789,0.26898 0.0489,0.14673 -0.0163,0.23639 -0.19563,0.26899 -0.60317,0.0652 -1.296,0.15487 -2.07849,0.26898 -0.78249,0.11412 -1.52423,0.26083 -2.2252,0.44015 0.0326,0.50536 0.0489,1.02702 0.0489,1.56498 0,0.52166 0.008,1.04332 0.0245,1.56498 0.0326,0.50536 0.0815,1.00257 0.14672,1.49162 0.0815,0.47276 0.20377,0.91291 0.36679,1.32045 0.22823,0.27714 0.45645,0.44015 0.68468,0.48906 0.22822,0.0489 0.44015,0.0326 0.63578,-0.0489 0.21191,-0.0652 0.39939,-0.17116 0.56241,-0.31788 0.17932,-0.16302 0.33418,-0.31789 0.4646,-0.46461 0.11411,-0.11411 0.20377,-0.11411 0.26899,0 0.0815,0.11412 0.0163,0.28529 -0.19563,0.51351 -0.0978,0.11412 -0.22008,0.23638 -0.36679,0.3668 -0.14672,0.13041 -0.32604,0.23637 -0.53796,0.31788 -0.19563,0.0978 -0.42386,0.15487 -0.68468,0.17117 -0.24453,0.0326 -0.51351,0.008 -0.80694,-0.0734 -0.37495,-0.0978 -0.65208,-0.39939 -0.8314,-0.90475 -0.17932,-0.50536 -0.31789,-1.09223 -0.4157,-1.7606 -0.0815,-0.68468 -0.13857,-1.39381 -0.17117,-2.1274 -0.0326,-0.73358 -0.0734,-1.3938 -0.12226,-1.98068 -0.71729,0.0652 -1.2471,0.12227 -1.58943,0.17117 -0.32604,0.0489 -0.56242,0.0815 -0.70914,0.0978 -0.14671,0.0163 -0.24453,0.008 -0.29343,-0.0244 -0.0489,-0.0326 -0.13857,-0.10596 -0.26898,-0.22008 0.0163,-0.0815 0.0163,-0.15486 0,-0.22007 0,-0.0815 0,-0.14671 0,-0.19562 0.0163,-0.0489 0.0489,-0.0978 0.0978,-0.14672 0.0652,-0.0489 0.17932,-0.0896 0.34234,-0.12226 0.24453,-0.0652 0.59502,-0.0978 1.05147,-0.0978 0.47275,-0.0163 0.92921,-0.0571 1.36936,-0.12226 -0.0163,-0.52165 -0.0326,-0.9292 -0.0489,-1.22264 -0.0163,-0.29343 -0.0326,-0.54611 -0.0489,-0.75804 -0.0163,-0.22822 -0.0326,-0.44829 -0.0489,-0.66022 0,-0.21192 0,-0.48905 0,-0.8314 0,-0.0815 0.0408,-0.13856 0.12227,-0.17117 0.0978,-0.0489 0.20377,-0.0734 0.31788,-0.0734 0.11411,-0.0163 0.22007,10e-6 0.31789,0.0489 0.0978,0.0326 0.16301,0.0897 0.19562,0.17117 0.0489,0.14672 0.0815,0.3668 0.0978,0.66022 0.0163,0.27714 0.0245,0.57873 0.0245,0.90476 0.0163,0.30974 0.0244,0.62763 0.0245,0.95366 -1e-5,0.32604 -0.008,0.60317 -0.0245,0.83139"
           id="path3143"
           style="" />
        <path
           inkscape:connector-curvature="0"
           d="m 202.47053,274.7806 c 0.0489,-0.0163 0.18747,-0.0571 0.4157,-0.12227 0.22822,-0.0815 0.41569,-0.0978 0.56241,-0.0489 0.47275,-0.0163 0.83139,0.10596 1.07593,0.36679 0.26082,0.26083 0.28527,0.76619 0.0733,1.51607 -0.30974,0.8314 -0.72543,1.52423 -1.24709,2.07849 -0.50536,0.55427 -1.10853,1.08408 -1.80951,1.58944 0.16302,0.42385 0.40755,0.66022 0.73359,0.70913 0.32603,0.0489 0.66837,0 1.02701,-0.14672 0.35864,-0.16302 0.70913,-0.37494 1.05148,-0.63577 0.34233,-0.26083 0.61946,-0.48906 0.83139,-0.68468 0.34234,-0.29343 0.61132,-0.53796 0.80695,-0.73359 0.21191,-0.21192 0.43199,-0.4646 0.66022,-0.75803 0.0489,-0.0326 0.0734,-0.0245 0.0734,0.0245 0.0163,0.0326 0.0163,0.0897 0,0.17117 -0.0163,0.0815 -0.0408,0.19563 -0.0734,0.34234 -0.0489,0.11412 -0.0978,0.22008 -0.14672,0.31789 -0.0489,0.0815 -0.12227,0.17932 -0.22007,0.29343 -0.0815,0.0978 -0.19563,0.22008 -0.34234,0.36679 -0.14672,0.14672 -0.32604,0.34234 -0.53796,0.58687 -0.24454,0.22823 -0.48091,0.45645 -0.70913,0.68468 -0.22823,0.21192 -0.47276,0.3994 -0.73359,0.56241 -0.24453,0.16302 -0.52166,0.27714 -0.8314,0.34234 -0.29343,0.0652 -0.63577,0.0652 -1.02701,0 -0.32604,-0.11411 -0.58687,-0.23637 -0.78249,-0.36679 -0.19563,-0.13041 -0.3505,-0.26083 -0.46461,-0.39124 -0.0978,-0.14672 -0.17117,-0.27714 -0.22007,-0.39125 -0.0489,-0.11411 -0.0815,-0.21192 -0.0978,-0.29343 -0.0815,-0.32604 -0.11412,-0.76619 -0.0978,-1.32046 0.0163,-0.55426 0.17932,-1.27154 0.48906,-2.15184 0.21192,-0.45645 0.44015,-0.83955 0.68468,-1.14929 0.24453,-0.32603 0.52981,-0.57871 0.85585,-0.75803 m -1.07593,4.32815 c 0.21193,-0.11412 0.45646,-0.26898 0.73359,-0.46461 0.29343,-0.21192 0.56241,-0.4483 0.80694,-0.70913 0.26083,-0.27713 0.4809,-0.57871 0.66023,-0.90475 0.19562,-0.32604 0.30158,-0.66838 0.31789,-1.02702 0.0489,-0.24453 0.0408,-0.4157 -0.0245,-0.51351 -0.0326,-0.0489 -0.0652,-0.0734 -0.0978,-0.0734 -0.27713,-0.13041 -0.55427,-0.0897 -0.83139,0.12226 -0.27714,0.21193 -0.52982,0.51352 -0.75804,0.90476 -0.22823,0.39125 -0.42385,0.8314 -0.58687,1.32045 -0.14672,0.47276 -0.22008,0.92106 -0.22008,1.34491"
           id="path3145"
           style="" />
        <path
           inkscape:connector-curvature="0"
           d="m 209.07279,273.99811 c 0.40755,0.0652 0.74173,0.15487 1.00257,0.26898 0.27713,0.11412 0.48905,0.24453 0.63577,0.39124 0.16302,0.13042 0.28528,0.26899 0.36679,0.4157 0.0978,0.14672 0.18747,0.28529 0.26898,0.4157 -0.0163,0.0652 -0.0978,0.0571 -0.24452,-0.0245 -0.13042,-0.0815 -0.26084,-0.16301 -0.39125,-0.24452 -0.35864,-0.22822 -0.79064,-0.36679 -1.296,-0.4157 -0.50536,-0.0489 -0.97811,-0.0163 -1.41826,0.0978 -0.42385,0.0978 -0.76619,0.27714 -1.02702,0.53796 -0.26083,0.26084 -0.32604,0.57872 -0.19562,0.95366 0.13041,0.37495 0.35864,0.70099 0.68468,0.97811 0.34233,0.27714 0.71728,0.52982 1.12483,0.75804 0.40754,0.21193 0.81509,0.40755 1.22264,0.58687 0.40754,0.17932 0.74173,0.35864 1.00256,0.53796 0.32604,-0.17932 0.60317,-0.32603 0.8314,-0.44015 0.22822,-0.13041 0.43199,-0.24452 0.61132,-0.34234 0.17931,-0.11411 0.35863,-0.21192 0.53796,-0.29343 0.19562,-0.0978 0.41569,-0.20377 0.66023,-0.31789 0.0326,-0.0163 0.0571,-0.0245 0.0734,-0.0245 0.0326,0 0.0326,0.0245 0,0.0734 -0.0163,0.0326 -0.0815,0.0978 -0.19563,0.19562 -0.0978,0.0815 -0.26083,0.20378 -0.48905,0.36679 -0.11412,0.0815 -0.32605,0.22008 -0.63578,0.4157 -0.30974,0.19563 -0.64393,0.40755 -1.00256,0.63577 0.19562,0.17933 0.35048,0.3668 0.4646,0.56242 0.0978,0.17932 0.16301,0.37494 0.19562,0.58687 0.0489,0.19562 0.0163,0.39939 -0.0978,0.61132 -0.32604,0.52166 -0.69283,0.9292 -1.10037,1.22264 -0.40756,0.29343 -0.7825,0.4972 -1.12483,0.61132 -0.22823,0.0815 -0.48091,0.0897 -0.75804,0.0245 -0.27714,-0.0652 -0.49721,-0.19562 -0.66023,-0.39124 -0.17932,-0.26083 -0.22823,-0.52982 -0.14671,-0.80695 0.0978,-0.26083 0.25267,-0.51351 0.4646,-0.75803 0.21192,-0.26083 0.45645,-0.50536 0.73358,-0.73359 0.27713,-0.22822 0.52166,-0.432 0.73359,-0.61132 -0.14672,-0.16302 -0.432,-0.35864 -0.85585,-0.58687 -0.42385,-0.24452 -0.864,-0.50535 -1.32045,-0.78249 -0.44015,-0.29343 -0.83955,-0.60316 -1.19819,-0.92921 -0.35864,-0.32603 -0.55427,-0.65207 -0.58687,-0.97811 -0.0652,-0.35863 -0.0163,-0.70097 0.14672,-1.02702 0.14671,-0.34233 0.36679,-0.63576 0.66022,-0.8803 0.30974,-0.26082 0.66023,-0.44829 1.05148,-0.56241 0.40754,-0.13041 0.83139,-0.16301 1.27154,-0.0978 m -0.22007,8.38731 c 0.17931,0.0815 0.38309,0.0815 0.61132,0 0.22822,-0.0815 0.44014,-0.20377 0.63577,-0.36679 0.21192,-0.14672 0.39124,-0.30973 0.53796,-0.48906 0.16302,-0.19562 0.26898,-0.36679 0.31789,-0.5135 0.0489,-0.13042 -1e-5,-0.26898 -0.14672,-0.4157 -0.13042,-0.16302 -0.26898,-0.29343 -0.4157,-0.39125 -0.17932,0.13042 -0.38309,0.30159 -0.61132,0.51351 -0.22823,0.19563 -0.432,0.3994 -0.61132,0.61132 -0.16302,0.21193 -0.28528,0.4157 -0.36679,0.61132 -0.0815,0.19563 -0.0652,0.34234 0.0489,0.44015"
           id="path3147"
           style="" />
      </g>
      <path
         sodipodi:nodetypes="csscc"
         inkscape:connector-curvature="0"
         id="path4363"
         d="m 260,258 -21,0 c -1.65685,0 -3,1.34316 -3,3 l 0,21 z"
         style="display:inline;opacity:0.2;fill:#000000;fill-opacity:1;stroke:none;filter:url(#filter4467);enable-background:new"
         clip-path="url(#clipPath4463)"
         transform="matrix(8,0,0,8,-1392,-1988)" />
      <path
         style="display:inline;opacity:1;fill:#ffe69b;fill-opacity:1;stroke:none;enable-background:new"
         d="m 688,60 -168,0 c -13.2548,0 -24,10.74528 -24,24 l 0,168 z"
         id="path4145"
         inkscape:connector-curvature="0"
         sodipodi:nodetypes="csscc" />
      <path
         style="opacity:0.2;fill:#ffffff;fill-opacity:1;stroke:none"
         d="M 264 48 C 250.704 48 240 58.704 240 72 L 240 74 C 240 60.704 250.704 50 264 50 L 664 50 C 677.296 50 688 60.704 688 74 L 688 72 C 688 58.704 677.296 48 664 48 L 264 48 z "
         transform="translate(0,-244)"
         id="path4249" />
      <path
         style="display:inline;opacity:0.2;fill:#ffffff;fill-opacity:1;stroke:none;enable-background:new"
         d="M 520 304 C 506.7452 304 496 314.74528 496 328 L 496 330 C 496 316.74528 506.7452 306 520 306 L 686 306 L 688 304 L 520 304 z "
         transform="translate(0,-244)"
         id="path4326" />
      <g
         transform="matrix(7.917087,-1.1487964,1.1487964,7.917087,-1392,-1988)"
         style="font-style:normal;font-variant:normal;font-weight:normal;font-stretch:normal;font-size:24.45282364px;line-height:125%;font-family:'Jenna Sue';-inkscape-font-specification:'Jenna Sue';text-align:center;letter-spacing:0px;word-spacing:0px;text-anchor:middle;fill:#a67d00;fill-opacity:1;stroke:none"
         id="text5605">
        <path
           inkscape:connector-curvature="0"
           d="m 179.61778,263.47188 c 0.35863,-0.0326 0.61946,0.11413 0.78249,0.44015 0.16301,0.30975 0.27712,0.69285 0.34234,1.14928 0.0652,0.45647 0.0896,0.92923 0.0734,1.41827 -0.0163,0.48907 -0.0245,0.88846 -0.0245,1.19819 0,0.22823 0,0.57057 0,1.02701 0,0.44017 0,0.92922 0,1.46717 0,0.52167 -0.008,1.06779 -0.0245,1.63834 -1e-5,0.55428 -0.008,1.06778 -0.0244,1.54053 -1e-5,0.45646 -1e-5,0.83955 0,1.14928 -1e-5,0.30975 -1e-5,0.48091 0,0.51351 0.0326,-0.0326 0.0815,-0.20376 0.14671,-0.51351 0.0815,-0.32603 0.17117,-0.70912 0.26899,-1.14928 0.1141,-0.45644 0.23637,-0.93735 0.36679,-1.44272 0.14671,-0.50534 0.29343,-0.96995 0.44015,-1.39381 0.0163,-0.0489 0.0652,-0.24451 0.14672,-0.58686 0.0978,-0.34233 0.22821,-0.69282 0.39124,-1.05148 0.17931,-0.37493 0.39939,-0.70096 0.66023,-0.97811 0.26082,-0.27712 0.57871,-0.37493 0.95366,-0.29343 0.29342,-0.0652 0.5461,0.14673 0.75803,0.63577 0.22822,0.48907 0.41569,1.13299 0.56242,1.93177 0.16301,0.79881 0.29342,1.68726 0.39124,2.66536 0.11411,0.97812 0.21192,1.90733 0.29344,2.78762 0.0978,0.88031 0.17931,1.6465 0.24453,2.29857 0.0815,0.65208 0.163,1.06777 0.24452,1.24709 0.26082,0.34234 0.60316,0.3668 1.02702,0.0734 0.42384,-0.29343 0.90474,-0.77434 1.44272,-1.44272 0.0326,0.0489 0.0489,0.14672 0.0489,0.29344 0.0163,0.13042 -0.0163,0.30159 -0.0978,0.51351 -0.0652,0.19562 -0.20378,0.432 -0.41569,0.70913 -0.19564,0.26083 -0.48092,0.54611 -0.85585,0.85585 -0.58688,0.29343 -1.06779,0.33419 -1.44272,0.12226 -0.35865,-0.22822 -0.60318,-0.58686 -0.73358,-1.07592 -0.0326,-0.16302 -0.0815,-0.53796 -0.14672,-1.12483 -0.0652,-0.58687 -0.13858,-1.27154 -0.22008,-2.05404 -0.0815,-0.78248 -0.17118,-1.59758 -0.26898,-2.44528 -0.0978,-0.84769 -0.20378,-1.63018 -0.31788,-2.34747 -0.0978,-0.71727 -0.21194,-1.30414 -0.34234,-1.76061 -0.11413,-0.45644 -0.22824,-0.66836 -0.34234,-0.63577 -0.0978,-0.0652 -0.20378,-0.0163 -0.31789,0.14672 -0.11412,0.14673 -0.23638,0.3668 -0.36679,0.66022 -0.11412,0.29345 -0.23639,0.63579 -0.36679,1.02702 -0.11412,0.39126 -0.23639,0.7825 -0.3668,1.17374 -0.11412,0.39125 -0.22008,0.75804 -0.31788,1.10038 -0.0815,0.32604 -0.15488,0.58687 -0.22008,0.78249 -0.16302,0.55427 -0.30159,1.05962 -0.4157,1.51607 -0.11412,0.45646 -0.22008,0.94551 -0.31788,1.46717 -0.0978,0.52166 -0.18748,1.11668 -0.26898,1.78506 -0.0815,0.65207 -0.15488,1.44271 -0.22008,2.37192 -0.32604,0.0326 -0.53797,-0.008 -0.63577,-0.12226 -0.0978,-0.11412 -0.23639,-0.22008 -0.4157,-0.31789 -1e-5,-0.30974 -1e-5,-0.80694 0,-1.49162 0.0163,-0.68468 0.0245,-1.45087 0.0245,-2.29857 0,-0.86399 0,-1.7606 0,-2.68981 0.0163,-0.9455 0.0245,-1.8258 0.0245,-2.6409 0,-0.0326 0.008,-0.20377 0.0245,-0.51351 0.0326,-0.30973 0.0571,-0.68467 0.0734,-1.12483 0.0163,-0.44014 0.0326,-0.92105 0.0489,-1.44272 0.0163,-0.53795 0.008,-1.05146 -0.0245,-1.54053 -0.0163,-0.48904 -0.0571,-0.92104 -0.12227,-1.296 -0.0489,-0.39123 -0.13857,-0.66836 -0.26898,-0.83139 -0.19562,-0.1141 -0.432,-0.0407 -0.70913,0.22007 -0.26083,0.26085 -0.54611,0.63579 -0.85585,1.12483 -0.30974,0.47277 -0.61947,1.02703 -0.9292,1.66279 -0.30974,0.61949 -0.59502,1.24711 -0.85585,1.88287 -0.26083,0.61948 -0.48906,1.2145 -0.68468,1.78506 -0.17932,0.55427 -0.30159,0.99442 -0.36679,1.32045 -0.0489,0.13042 -0.12227,0.24454 -0.22008,0.34234 -0.11411,0.0978 -0.22823,0.17118 -0.34234,0.22008 -0.11411,0.0489 -0.22007,0.0734 -0.31789,0.0734 -0.11411,-0.0163 -0.19562,-0.0652 -0.24452,-0.14671 0.14671,-0.58686 0.34234,-1.22264 0.58686,-1.90732 0.24453,-0.70097 0.52166,-1.40195 0.8314,-2.10295 0.30973,-0.71727 0.63577,-1.4101 0.97811,-2.07849 0.35864,-0.66836 0.71728,-1.25523 1.07593,-1.7606 0.37494,-0.52164 0.74173,-0.93734 1.10037,-1.24709 0.37494,-0.32602 0.73358,-0.48904 1.07593,-0.48906"
           id="path3128" />
        <path
           inkscape:connector-curvature="0"
           d="m 189.12114,273.37527 c 0.30973,0.0163 0.65207,0.0652 1.02702,0.14672 0.37494,0.0652 0.74173,0.16303 1.10037,0.29343 0.35864,0.11412 0.68468,0.25269 0.97812,0.4157 0.30973,0.14673 0.56241,0.3179 0.75803,0.51351 0.19562,0.17933 0.30974,0.45646 0.34234,0.8314 0.0326,0.35864 0.008,0.75804 -0.0734,1.19819 -0.0815,0.44015 -0.21193,0.8966 -0.39125,1.36935 -0.16302,0.45646 -0.35049,0.87216 -0.56241,1.2471 -0.21193,0.37494 -0.44016,0.68468 -0.68468,0.92921 -0.24453,0.24452 -0.47276,0.36679 -0.68468,0.36679 -0.35865,0 -0.66023,-0.0815 -0.90476,-0.24453 -0.24453,-0.17932 -0.44015,-0.39124 -0.58687,-0.63577 -0.14671,-0.24453 -0.26083,-0.49721 -0.34233,-0.75804 -0.0652,-0.27713 -0.10597,-0.51351 -0.12227,-0.70913 -0.0489,-0.864 -0.0571,-1.63019 -0.0245,-2.29857 0.0326,-0.66837 0.0897,-1.22263 0.17117,-1.66279 -0.0489,-0.0815 -0.0978,-0.15486 -0.14672,-0.22008 -0.0489,-0.0652 -0.0978,-0.12225 -0.14672,-0.17117 -0.0489,-0.0652 -0.10596,-0.12225 -0.17117,-0.17117 0.0652,-0.0326 0.13042,-0.0815 0.19563,-0.14671 0.13041,-0.0978 0.22007,-0.19562 0.26898,-0.29344 m 0.8803,5.81978 c 0.0489,0.0652 0.11411,0.13856 0.19562,0.22007 0.0815,0.0652 0.17932,0.12227 0.29344,0.17117 0.13041,0.0326 0.26082,0.0326 0.39124,0 0.13041,-0.0326 0.26898,-0.12226 0.4157,-0.26898 0.39124,-0.40755 0.68468,-0.82324 0.8803,-1.24709 0.19562,-0.44015 0.31788,-0.8477 0.36679,-1.22265 0.0652,-0.39124 0.0571,-0.73358 -0.0245,-1.02701 -0.0652,-0.29343 -0.17932,-0.50536 -0.34234,-0.63578 -0.13042,-0.0815 -0.24453,-0.14671 -0.34234,-0.19562 -0.0815,-0.0652 -0.19562,-0.12226 -0.34234,-0.17117 -0.13042,-0.0489 -0.30159,-0.0978 -0.51351,-0.14672 -0.21192,-0.0652 -0.48906,-0.14671 -0.83139,-0.24453 -0.16302,0.52167 -0.27714,1.04333 -0.34234,1.56499 -0.0652,0.52166 -0.0978,1.00257 -0.0978,1.44271 0.0163,0.42385 0.0489,0.7988 0.0978,1.12483 0.0652,0.30974 0.13041,0.52166 0.19562,0.63578"
           id="path3130" />
        <path
           inkscape:connector-curvature="0"
           d="m 197.47178,273.42418 c 0.70097,-0.0489 1.38565,-0.0978 2.05403,-0.14672 0.68468,-0.0652 1.39381,-0.13041 2.1274,-0.19562 0.16301,0.0163 0.26897,0.10597 0.31789,0.26898 0.0489,0.14672 -0.0163,0.23639 -0.19563,0.26898 -0.60317,0.0652 -1.296,0.15488 -2.07849,0.26898 -0.78249,0.11412 -1.52423,0.26084 -2.2252,0.44015 0.0326,0.50537 0.0489,1.02703 0.0489,1.56498 0,0.52167 0.008,1.04333 0.0245,1.56499 0.0326,0.50536 0.0815,1.00256 0.14671,1.49162 0.0815,0.47275 0.20377,0.9129 0.36679,1.32045 0.22823,0.27713 0.45645,0.44015 0.68468,0.48906 0.22822,0.0489 0.44015,0.0326 0.63578,-0.0489 0.21192,-0.0652 0.39939,-0.17117 0.56241,-0.31789 0.17932,-0.16301 0.33418,-0.31788 0.46461,-0.4646 0.1141,-0.11411 0.20376,-0.11411 0.26898,0 0.0815,0.11411 0.0163,0.28528 -0.19563,0.51351 -0.0978,0.11411 -0.22008,0.23638 -0.36679,0.36679 -0.14672,0.13042 -0.32604,0.23638 -0.53796,0.31789 -0.19563,0.0978 -0.42386,0.15487 -0.68468,0.17117 -0.24453,0.0326 -0.51351,0.008 -0.80694,-0.0734 -0.37495,-0.0978 -0.65208,-0.3994 -0.8314,-0.90475 -0.17932,-0.50536 -0.31789,-1.09223 -0.4157,-1.76061 -0.0815,-0.68467 -0.13857,-1.39381 -0.17117,-2.12739 -0.0326,-0.73358 -0.0734,-1.39381 -0.12226,-1.98068 -0.71729,0.0652 -1.2471,0.12227 -1.58943,0.17117 -0.32604,0.0489 -0.56242,0.0815 -0.70914,0.0978 -0.14671,0.0163 -0.24452,0.008 -0.29343,-0.0245 -0.0489,-0.0326 -0.13857,-0.10596 -0.26898,-0.22008 0.0163,-0.0815 0.0163,-0.15486 0,-0.22007 0,-0.0815 0,-0.14672 0,-0.19563 0.0163,-0.0489 0.0489,-0.0978 0.0978,-0.14671 0.0652,-0.0489 0.17932,-0.0897 0.34234,-0.12227 0.24453,-0.0652 0.59502,-0.0978 1.05147,-0.0978 0.47275,-0.0163 0.92921,-0.0571 1.36936,-0.12226 -0.0163,-0.52166 -0.0326,-0.9292 -0.0489,-1.22265 -0.0163,-0.29342 -0.0326,-0.5461 -0.0489,-0.75803 -0.0163,-0.22822 -0.0326,-0.44829 -0.0489,-0.66023 0,-0.21191 0,-0.48905 0,-0.83139 0,-0.0815 0.0408,-0.13856 0.12227,-0.17117 0.0978,-0.0489 0.20377,-0.0734 0.31788,-0.0734 0.11411,-0.0163 0.22008,10e-6 0.31789,0.0489 0.0978,0.0326 0.16301,0.0897 0.19562,0.17117 0.0489,0.14673 0.0815,0.3668 0.0978,0.66023 0.0163,0.27714 0.0245,0.57872 0.0245,0.90475 0.0163,0.30975 0.0245,0.62763 0.0245,0.95366 0,0.32605 -0.008,0.60318 -0.0245,0.8314"
           id="path3132" />
        <path
           inkscape:connector-curvature="0"
           d="m 202.61413,273.79097 c 0.0489,-0.0163 0.18747,-0.0571 0.4157,-0.12226 0.22822,-0.0815 0.41569,-0.0978 0.56241,-0.0489 0.47275,-0.0163 0.83139,0.10597 1.07593,0.36679 0.26082,0.26084 0.28527,0.7662 0.0734,1.51608 -0.30973,0.8314 -0.72543,1.52423 -1.24709,2.07849 -0.50536,0.55427 -1.10853,1.08408 -1.80951,1.58943 0.16302,0.42385 0.40755,0.66023 0.73359,0.70913 0.32603,0.0489 0.66837,1e-5 1.02702,-0.14671 0.35863,-0.16302 0.70912,-0.37494 1.05147,-0.63578 0.34233,-0.26082 0.61946,-0.48905 0.83139,-0.68467 0.34234,-0.29344 0.61132,-0.53796 0.80695,-0.73359 0.21191,-0.21192 0.43199,-0.4646 0.66022,-0.75804 0.0489,-0.0326 0.0734,-0.0245 0.0734,0.0245 0.0163,0.0326 0.0163,0.0897 0,0.17117 -0.0163,0.0815 -0.0408,0.19562 -0.0734,0.34234 -0.0489,0.11411 -0.0978,0.22007 -0.14671,0.31788 -0.0489,0.0815 -0.12228,0.17933 -0.22008,0.29344 -0.0815,0.0978 -0.19563,0.22007 -0.34234,0.36679 -0.14672,0.14672 -0.32604,0.34234 -0.53796,0.58687 -0.24454,0.22822 -0.48091,0.45645 -0.70913,0.68467 -0.22823,0.21193 -0.47276,0.3994 -0.73359,0.56242 -0.24453,0.16302 -0.52166,0.27713 -0.83139,0.34234 -0.29344,0.0652 -0.63578,0.0652 -1.02702,0 -0.32604,-0.11411 -0.58687,-0.23638 -0.78249,-0.36679 -0.19563,-0.13042 -0.35049,-0.26083 -0.46461,-0.39125 -0.0978,-0.14671 -0.17117,-0.27713 -0.22007,-0.39124 -0.0489,-0.11412 -0.0815,-0.21193 -0.0978,-0.29344 -0.0815,-0.32603 -0.11412,-0.76618 -0.0978,-1.32045 0.0163,-0.55426 0.17933,-1.27154 0.48906,-2.15185 0.21192,-0.45645 0.44015,-0.83954 0.68468,-1.14928 0.24453,-0.32603 0.52981,-0.57871 0.85585,-0.75804 m -1.07593,4.32815 c 0.21193,-0.11411 0.45646,-0.26898 0.73359,-0.4646 0.29343,-0.21192 0.56241,-0.4483 0.80694,-0.70913 0.26083,-0.27713 0.48091,-0.57872 0.66023,-0.90476 0.19562,-0.32603 0.30158,-0.66837 0.31789,-1.02702 0.0489,-0.24452 0.0408,-0.41569 -0.0245,-0.51351 -0.0326,-0.0489 -0.0652,-0.0733 -0.0978,-0.0734 -0.27713,-0.1304 -0.55427,-0.0897 -0.83139,0.12227 -0.27714,0.21193 -0.52982,0.51351 -0.75804,0.90475 -0.22823,0.39125 -0.42385,0.8314 -0.58687,1.32046 -0.14672,0.47275 -0.22008,0.92106 -0.22008,1.3449"
           id="path3134" />
        <path
           inkscape:connector-curvature="0"
           d="m 209.21639,273.00848 c 0.40755,0.0652 0.74173,0.15488 1.00257,0.26898 0.27713,0.11412 0.48905,0.24454 0.63577,0.39125 0.16302,0.13042 0.28528,0.26899 0.36679,0.4157 0.0978,0.14672 0.18747,0.28528 0.26899,0.41569 -0.0163,0.0652 -0.0978,0.0571 -0.24453,-0.0245 -0.13042,-0.0815 -0.26084,-0.16301 -0.39125,-0.24453 -0.35864,-0.22822 -0.79064,-0.36678 -1.296,-0.4157 -0.50536,-0.0489 -0.97811,-0.0163 -1.41826,0.0978 -0.42385,0.0978 -0.76619,0.27713 -1.02702,0.53796 -0.26083,0.26083 -0.32604,0.57872 -0.19562,0.95366 0.13041,0.37495 0.35864,0.70098 0.68468,0.97811 0.34233,0.27714 0.71728,0.52982 1.12483,0.75804 0.40754,0.21193 0.81509,0.40755 1.22264,0.58687 0.40754,0.17932 0.74173,0.35864 1.00256,0.53796 0.32604,-0.17932 0.60317,-0.32604 0.8314,-0.44015 0.22822,-0.13041 0.43199,-0.24453 0.61132,-0.34234 0.17931,-0.11411 0.35863,-0.21192 0.53796,-0.29344 0.19562,-0.0978 0.41569,-0.20377 0.66023,-0.31788 0.0326,-0.0163 0.0571,-0.0245 0.0734,-0.0245 0.0326,10e-6 0.0326,0.0245 0,0.0734 -0.0163,0.0326 -0.0815,0.0978 -0.19563,0.19563 -0.0978,0.0815 -0.26083,0.20377 -0.48905,0.36679 -0.11412,0.0815 -0.32605,0.22008 -0.63578,0.4157 -0.30974,0.19562 -0.64393,0.40755 -1.00256,0.63577 0.19562,0.17932 0.35048,0.36679 0.4646,0.56241 0.0978,0.17933 0.16302,0.37495 0.19562,0.58687 0.0489,0.19563 0.0163,0.3994 -0.0978,0.61132 -0.32604,0.52166 -0.69283,0.92921 -1.10037,1.22264 -0.40755,0.29344 -0.7825,0.49721 -1.12483,0.61132 -0.22823,0.0815 -0.48091,0.0897 -0.75804,0.0245 -0.27714,-0.0652 -0.49721,-0.19563 -0.66023,-0.39125 -0.17932,-0.26083 -0.22823,-0.52981 -0.14671,-0.80694 0.0978,-0.26083 0.25267,-0.51351 0.4646,-0.75804 0.21192,-0.26083 0.45645,-0.50536 0.73358,-0.73358 0.27713,-0.22823 0.52166,-0.432 0.73359,-0.61132 -0.14672,-0.16302 -0.432,-0.35864 -0.85585,-0.58687 -0.42385,-0.24453 -0.864,-0.50536 -1.32045,-0.78249 -0.44015,-0.29343 -0.83955,-0.60317 -1.19819,-0.92921 -0.35864,-0.32603 -0.55426,-0.65207 -0.58687,-0.97811 -0.0652,-0.35864 -0.0163,-0.70098 0.14672,-1.02702 0.14672,-0.34233 0.36679,-0.63577 0.66022,-0.8803 0.30974,-0.26083 0.66023,-0.4483 1.05148,-0.56242 0.40754,-0.1304 0.83139,-0.16301 1.27154,-0.0978 m -0.22007,8.38732 c 0.17932,0.0815 0.38309,0.0815 0.61132,0 0.22822,-0.0815 0.44015,-0.20377 0.63577,-0.36679 0.21192,-0.14672 0.39124,-0.30974 0.53796,-0.48906 0.16302,-0.19562 0.26898,-0.36679 0.31789,-0.51351 0.0489,-0.13041 0,-0.26898 -0.14672,-0.4157 -0.13042,-0.16301 -0.26898,-0.29343 -0.41569,-0.39124 -0.17933,0.13041 -0.3831,0.30158 -0.61133,0.51351 -0.22823,0.19562 -0.432,0.39939 -0.61132,0.61132 -0.16302,0.21192 -0.28528,0.4157 -0.36679,0.61132 -0.0815,0.19562 -0.0652,0.34234 0.0489,0.44015"
           id="path3136" />
      </g>
      <g
         transform="matrix(0.98963588,-0.14359955,0.14359955,0.98963588,8,0)"
         style="font-style:normal;font-variant:normal;font-weight:normal;font-stretch:normal;font-size:12.80862236px;line-height:125%;font-family:'Jenna Sue';-inkscape-font-specification:'Jenna Sue';text-align:center;letter-spacing:0px;word-spacing:0px;text-anchor:middle;fill:#a67d00;fill-opacity:1;stroke:none"
         id="text4258">
        <path
           d="m 57.638843,270.80162 c 0.187858,-0.0171 0.324483,0.0598 0.409876,0.23055 0.08539,0.16225 0.145162,0.36292 0.179321,0.60201 0.03415,0.2391 0.04696,0.48673 0.03843,0.7429 -0.0085,0.25618 -0.01281,0.46538 -0.01281,0.62762 -3e-6,0.11955 -3e-6,0.29887 0,0.53796 -3e-6,0.23056 -3e-6,0.48674 0,0.76852 -3e-6,0.27326 -0.0043,0.55931 -0.01281,0.85818 -3e-6,0.29033 -0.0043,0.55931 -0.01281,0.80694 -3e-6,0.2391 -3e-6,0.43977 0,0.60201 -3e-6,0.16224 -3e-6,0.2519 0,0.26898 0.01707,-0.0171 0.04269,-0.10674 0.07685,-0.26898 0.04269,-0.17078 0.08966,-0.37145 0.140894,-0.60201 0.05977,-0.23909 0.123814,-0.49099 0.19213,-0.75571 0.07685,-0.26471 0.1537,-0.50807 0.230555,-0.73009 0.0085,-0.0256 0.03415,-0.12808 0.07685,-0.30741 0.05123,-0.17931 0.119543,-0.3629 0.204938,-0.55077 0.09393,-0.19639 0.209203,-0.36717 0.345833,-0.51234 0.136621,-0.14516 0.303133,-0.19639 0.499536,-0.15371 0.153699,-0.0342 0.286054,0.0769 0.397067,0.33303 0.119542,0.25618 0.217741,0.59347 0.294598,1.01188 0.08539,0.41842 0.153698,0.8838 0.204938,1.39614 0.05977,0.51235 0.111003,0.99907 0.153704,1.46018 0.05123,0.46111 0.09392,0.86245 0.128086,1.20401 0.04269,0.34157 0.08539,0.55931 0.128086,0.65324 0.13662,0.17932 0.31594,0.19213 0.537962,0.0384 0.22201,-0.1537 0.473913,-0.40561 0.755709,-0.75571 0.01707,0.0256 0.02561,0.0768 0.02562,0.1537 0.0085,0.0683 -0.0085,0.15798 -0.05123,0.26898 -0.03416,0.10247 -0.106746,0.22629 -0.217747,0.37145 -0.102475,0.13663 -0.251909,0.28606 -0.448301,0.44831 -0.307414,0.1537 -0.559316,0.17505 -0.755709,0.064 -0.187866,-0.11955 -0.315952,-0.30741 -0.384259,-0.56358 -0.01708,-0.0854 -0.0427,-0.28179 -0.07685,-0.5892 -0.03416,-0.3074 -0.07259,-0.66604 -0.115277,-1.07592 -0.0427,-0.40987 -0.08967,-0.83683 -0.140895,-1.28086 -0.05124,-0.44403 -0.106743,-0.85391 -0.166512,-1.22963 -0.05124,-0.37572 -0.111013,-0.68312 -0.179321,-0.92222 -0.05978,-0.23909 -0.119552,-0.3501 -0.179321,-0.33303 -0.05124,-0.0342 -0.106742,-0.009 -0.166512,0.0769 -0.05978,0.0768 -0.123821,0.19213 -0.192129,0.34583 -0.05978,0.15371 -0.123821,0.33303 -0.192129,0.53796 -0.05978,0.20494 -0.123821,0.40988 -0.19213,0.61481 -0.05978,0.20495 -0.115281,0.39708 -0.166512,0.57639 -0.0427,0.17079 -0.08113,0.30741 -0.115277,0.40988 -0.08539,0.29033 -0.157977,0.55504 -0.217747,0.79413 -0.05978,0.2391 -0.115281,0.49527 -0.166512,0.76852 -0.05124,0.27325 -0.0982,0.58493 -0.140895,0.93503 -0.0427,0.34156 -0.08112,0.75571 -0.115277,1.24244 -0.170785,0.0171 -0.281793,-0.004 -0.333025,-0.0641 -0.05124,-0.0598 -0.123819,-0.11527 -0.217746,-0.16651 -2e-6,-0.16224 -2e-6,-0.42268 0,-0.78133 0.0085,-0.35864 0.01281,-0.75997 0.01281,-1.20401 -2e-6,-0.45256 -2e-6,-0.92221 0,-1.40894 0.0085,-0.49527 0.01281,-0.95638 0.01281,-1.38334 -2e-6,-0.0171 0.0043,-0.10673 0.01281,-0.26898 0.01707,-0.16223 0.02988,-0.35863 0.03843,-0.58919 0.0085,-0.23055 0.01707,-0.48245 0.02562,-0.75571 0.0085,-0.28178 0.0043,-0.55077 -0.01281,-0.80695 -0.0085,-0.25616 -0.02989,-0.48245 -0.06404,-0.67885 -0.02562,-0.20493 -0.07258,-0.3501 -0.140895,-0.4355 -0.102471,-0.0598 -0.226287,-0.0213 -0.37145,0.11528 -0.136627,0.13664 -0.286061,0.33303 -0.448302,0.5892 -0.162243,0.24764 -0.324486,0.53797 -0.486727,0.87099 -0.162244,0.32449 -0.311677,0.65324 -0.448302,0.98626 -0.136626,0.32449 -0.256173,0.63617 -0.358642,0.93503 -0.09393,0.29033 -0.157972,0.52089 -0.192129,0.69166 -0.02562,0.0683 -0.06404,0.12809 -0.115277,0.17933 -0.05977,0.0512 -0.119547,0.0897 -0.179321,0.11527 -0.05977,0.0256 -0.115277,0.0384 -0.166512,0.0384 -0.05977,-0.009 -0.102469,-0.0342 -0.128086,-0.0768 0.07685,-0.30741 0.179321,-0.64043 0.307406,-0.99908 0.128087,-0.36717 0.273251,-0.73435 0.435494,-1.10154 0.162242,-0.37571 0.333023,-0.73862 0.512345,-1.08873 0.187859,-0.3501 0.375718,-0.6575 0.563579,-0.92222 0.196397,-0.27324 0.388527,-0.49099 0.576388,-0.65324 0.196397,-0.17077 0.384257,-0.25616 0.563579,-0.25617"
           id="path3095"
           inkscape:connector-curvature="0" />
        <path
           d="m 62.616794,275.98911 c 0.162242,0.009 0.341563,0.0342 0.537962,0.0769 0.196398,0.0342 0.388527,0.0854 0.576388,0.1537 0.187859,0.0598 0.35864,0.13236 0.512345,0.21775 0.162241,0.0769 0.294596,0.16652 0.397067,0.26898 0.102467,0.0939 0.162241,0.2391 0.179321,0.43549 0.01708,0.18787 0.0043,0.39707 -0.03843,0.62763 -0.0427,0.23055 -0.11101,0.46965 -0.204938,0.71728 -0.08539,0.2391 -0.183592,0.45684 -0.294598,0.65324 -0.11101,0.1964 -0.230557,0.35864 -0.358641,0.48673 -0.128088,0.12808 -0.247635,0.19213 -0.358642,0.19213 -0.18786,0 -0.345833,-0.0427 -0.473919,-0.12809 -0.128087,-0.0939 -0.230555,-0.20494 -0.307407,-0.33302 -0.07685,-0.12809 -0.136625,-0.26044 -0.179321,-0.39707 -0.03416,-0.14516 -0.0555,-0.26898 -0.06404,-0.37145 -0.02562,-0.45257 -0.02989,-0.85391 -0.01281,-1.20401 0.01708,-0.3501 0.04697,-0.64043 0.08966,-0.87099 -0.02562,-0.0427 -0.05123,-0.0811 -0.07685,-0.11528 -0.02562,-0.0342 -0.05123,-0.064 -0.07685,-0.0897 -0.02562,-0.0342 -0.0555,-0.064 -0.08966,-0.0897 0.03416,-0.0171 0.06831,-0.0427 0.102469,-0.0768 0.06831,-0.0512 0.115278,-0.10246 0.140895,-0.1537 m 0.46111,3.04845 c 0.02562,0.0342 0.05977,0.0726 0.102469,0.11528 0.04269,0.0342 0.09393,0.064 0.153704,0.0897 0.06831,0.0171 0.136624,0.0171 0.204938,0 0.06831,-0.0171 0.140894,-0.064 0.217746,-0.1409 0.204937,-0.21347 0.35864,-0.43122 0.461111,-0.65324 0.102467,-0.23055 0.16651,-0.44403 0.192129,-0.64043 0.03416,-0.20493 0.02989,-0.38425 -0.01281,-0.53796 -0.03416,-0.1537 -0.09393,-0.26471 -0.179321,-0.33302 -0.06831,-0.0427 -0.128088,-0.0769 -0.179321,-0.10247 -0.0427,-0.0342 -0.10247,-0.064 -0.179321,-0.0897 -0.06831,-0.0256 -0.157974,-0.0512 -0.268981,-0.0768 -0.111009,-0.0342 -0.256173,-0.0769 -0.435493,-0.12809 -0.08539,0.27325 -0.145165,0.5465 -0.17932,0.81975 -0.03416,0.27325 -0.05124,0.52516 -0.05124,0.75571 0.0085,0.22202 0.02562,0.41842 0.05124,0.5892 0.03415,0.16224 0.06831,0.27325 0.102468,0.33302"
           id="path3097"
           inkscape:connector-curvature="0" />
        <path
           d="m 66.990939,276.01473 c 0.367178,-0.0256 0.725819,-0.0512 1.075924,-0.0769 0.358638,-0.0341 0.730087,-0.0683 1.11435,-0.10246 0.08539,0.009 0.14089,0.0555 0.166512,0.14089 0.02561,0.0769 -0.0085,0.12382 -0.102469,0.1409 -0.31595,0.0342 -0.678861,0.0811 -1.088733,0.14089 -0.409879,0.0598 -0.798406,0.13663 -1.165584,0.23056 0.01708,0.26471 0.02562,0.53796 0.02562,0.81975 -2e-6,0.27325 0.0043,0.5465 0.01281,0.81975 0.01708,0.26471 0.04269,0.52515 0.07685,0.78132 0.04269,0.24764 0.106736,0.47819 0.192129,0.69167 0.119545,0.14516 0.239092,0.23056 0.358642,0.25617 0.119544,0.0256 0.230552,0.0171 0.333024,-0.0256 0.111005,-0.0342 0.209204,-0.0897 0.294598,-0.16652 0.09393,-0.0854 0.175048,-0.16651 0.243364,-0.24336 0.05977,-0.0598 0.106735,-0.0598 0.140895,0 0.04269,0.0598 0.0085,0.14943 -0.102469,0.26898 -0.05124,0.0598 -0.115281,0.12382 -0.192129,0.19213 -0.07685,0.0683 -0.170785,0.12382 -0.28179,0.16651 -0.102472,0.0512 -0.222019,0.0811 -0.358641,0.0897 -0.128089,0.0171 -0.268984,0.004 -0.422685,-0.0384 -0.196401,-0.0512 -0.341565,-0.20921 -0.435493,-0.47392 -0.09393,-0.26471 -0.166514,-0.57212 -0.217747,-0.92222 -0.0427,-0.35864 -0.07258,-0.73009 -0.08966,-1.11435 -0.01708,-0.38426 -0.03843,-0.73009 -0.06404,-1.0375 -0.375721,0.0342 -0.653241,0.064 -0.832561,0.0897 -0.170782,0.0256 -0.294598,0.0427 -0.37145,0.0512 -0.07685,0.009 -0.128086,0.004 -0.153703,-0.0128 -0.02562,-0.0171 -0.07258,-0.0555 -0.140895,-0.11527 0.0085,-0.0427 0.0085,-0.0811 0,-0.11528 0,-0.0427 0,-0.0768 0,-0.10247 0.0085,-0.0256 0.02562,-0.0512 0.05124,-0.0769 0.03416,-0.0256 0.09393,-0.047 0.17932,-0.064 0.128086,-0.0342 0.311676,-0.0512 0.550771,-0.0512 0.247632,-0.009 0.486726,-0.0299 0.717283,-0.064 -0.0085,-0.27325 -0.01708,-0.48673 -0.02562,-0.64043 -0.0085,-0.1537 -0.01708,-0.28606 -0.02562,-0.39707 -0.0085,-0.11954 -0.01708,-0.23482 -0.02562,-0.34583 -10e-7,-0.11101 -10e-7,-0.25617 0,-0.4355 -10e-7,-0.0427 0.02135,-0.0726 0.06404,-0.0897 0.05123,-0.0256 0.106737,-0.0384 0.166512,-0.0384 0.05977,-0.009 0.115276,0 0.166512,0.0256 0.05123,0.0171 0.08539,0.047 0.102469,0.0897 0.02562,0.0769 0.04269,0.19214 0.05123,0.34584 0.0085,0.14517 0.01281,0.30314 0.01281,0.47392 0.0085,0.16224 0.01281,0.32876 0.01281,0.49953 -2e-6,0.17079 -0.0043,0.31595 -0.01281,0.4355"
           id="path3099"
           inkscape:connector-curvature="0" />
        <path
           d="m 69.684551,276.20686 c 0.02562,-0.009 0.0982,-0.0299 0.217747,-0.0641 0.119546,-0.0427 0.217745,-0.0512 0.294598,-0.0256 0.247632,-0.009 0.435491,0.0555 0.56358,0.19212 0.136623,0.13663 0.149431,0.40134 0.03843,0.79414 -0.162245,0.43549 -0.379991,0.79841 -0.65324,1.08873 -0.264713,0.29033 -0.580659,0.56785 -0.947838,0.83256 0.08539,0.22202 0.213476,0.34584 0.384258,0.37145 0.170781,0.0256 0.350101,0 0.537963,-0.0769 0.187858,-0.0854 0.371448,-0.1964 0.55077,-0.33302 0.179319,-0.13663 0.324483,-0.25617 0.435493,-0.35864 0.179318,-0.15371 0.320213,-0.28179 0.422685,-0.38426 0.111005,-0.11101 0.226282,-0.24337 0.345833,-0.39707 0.02561,-0.0171 0.03842,-0.0128 0.03843,0.0128 0.0085,0.0171 0.0085,0.047 0,0.0897 -0.0085,0.0427 -0.02135,0.10247 -0.03843,0.17932 -0.02562,0.0598 -0.05124,0.11528 -0.07685,0.16651 -0.02562,0.0427 -0.06405,0.0939 -0.115278,0.1537 -0.0427,0.0512 -0.102472,0.11528 -0.17932,0.19213 -0.07686,0.0769 -0.170785,0.17933 -0.28179,0.30741 -0.128089,0.11955 -0.251905,0.2391 -0.37145,0.35864 -0.119549,0.11101 -0.247635,0.20921 -0.384259,0.2946 -0.128088,0.0854 -0.273252,0.14516 -0.435493,0.17932 -0.153705,0.0342 -0.333025,0.0342 -0.537962,0 -0.170782,-0.0598 -0.307408,-0.12382 -0.409876,-0.19213 -0.102469,-0.0683 -0.18359,-0.13662 -0.243364,-0.20494 -0.05123,-0.0769 -0.08966,-0.14516 -0.115277,-0.20493 -0.02562,-0.0598 -0.0427,-0.11101 -0.05124,-0.15371 -0.04269,-0.17078 -0.05977,-0.40133 -0.05123,-0.69166 0.0085,-0.29033 0.09393,-0.66605 0.256172,-1.12716 0.111008,-0.23909 0.230555,-0.43976 0.358642,-0.60201 0.128085,-0.17078 0.277519,-0.30313 0.448301,-0.39706 m -0.563579,2.26712 c 0.111007,-0.0598 0.239093,-0.14089 0.384259,-0.24336 0.153702,-0.11101 0.294597,-0.23483 0.422684,-0.37145 0.136624,-0.14516 0.251901,-0.30314 0.345833,-0.47392 0.102467,-0.17078 0.157971,-0.3501 0.166512,-0.53796 0.02562,-0.12809 0.02135,-0.21775 -0.01281,-0.26898 -0.01708,-0.0256 -0.03416,-0.0384 -0.05124,-0.0384 -0.145166,-0.0683 -0.29033,-0.047 -0.435493,0.064 -0.145166,0.11101 -0.277521,0.26899 -0.397067,0.47392 -0.119548,0.20494 -0.222017,0.4355 -0.307407,0.69167 -0.07685,0.24763 -0.115279,0.48246 -0.115278,0.70447"
           id="path3101"
           inkscape:connector-curvature="0" />
        <path
           d="m 73.14288,275.79698 c 0.213475,0.0342 0.388526,0.0811 0.525153,0.14089 0.145163,0.0598 0.256171,0.12809 0.333025,0.20494 0.08539,0.0683 0.149431,0.1409 0.192129,0.21775 0.05123,0.0768 0.0982,0.14944 0.140895,0.21775 -0.0085,0.0342 -0.05124,0.0299 -0.128086,-0.0128 -0.06831,-0.0427 -0.136628,-0.0854 -0.204938,-0.12809 -0.187862,-0.11954 -0.414148,-0.19213 -0.678857,-0.21775 -0.264713,-0.0256 -0.512346,-0.009 -0.7429,0.0512 -0.222017,0.0512 -0.401338,0.14517 -0.537963,0.28179 -0.136625,0.13663 -0.170781,0.30314 -0.102469,0.49953 0.06831,0.19641 0.18786,0.36719 0.358642,0.51235 0.17932,0.14517 0.375718,0.27752 0.589196,0.39707 0.213476,0.11101 0.426953,0.21348 0.640432,0.3074 0.213475,0.0939 0.388526,0.18786 0.525153,0.28179 0.170779,-0.0939 0.315943,-0.17078 0.435493,-0.23055 0.119545,-0.0683 0.226283,-0.12809 0.320216,-0.17932 0.09393,-0.0598 0.187856,-0.11101 0.28179,-0.15371 0.102465,-0.0512 0.217743,-0.10673 0.345832,-0.16651 0.01707,-0.009 0.02988,-0.0128 0.03843,-0.0128 0.01708,1e-5 0.01708,0.0128 0,0.0384 -0.0085,0.0171 -0.0427,0.0512 -0.102469,0.10247 -0.05124,0.0427 -0.136629,0.10674 -0.256172,0.19213 -0.05978,0.0427 -0.170785,0.11528 -0.333024,0.21774 -0.162246,0.10247 -0.337297,0.21348 -0.525154,0.33303 0.102466,0.0939 0.183588,0.19213 0.243364,0.2946 0.05123,0.0939 0.08539,0.1964 0.102469,0.3074 0.02561,0.10247 0.0085,0.20921 -0.05124,0.32022 -0.170784,0.27325 -0.362913,0.48673 -0.576388,0.64043 -0.213479,0.1537 -0.409877,0.26044 -0.589196,0.32022 -0.119549,0.0427 -0.251905,0.047 -0.397068,0.0128 -0.145165,-0.0342 -0.260443,-0.10247 -0.345832,-0.20493 -0.09393,-0.13663 -0.119548,-0.27752 -0.07685,-0.42269 0.05123,-0.13662 0.132355,-0.26898 0.243364,-0.39707 0.111007,-0.13662 0.239093,-0.26471 0.384258,-0.38425 0.145163,-0.11955 0.273249,-0.22629 0.384259,-0.32022 -0.07685,-0.0854 -0.226287,-0.18786 -0.448302,-0.30741 -0.222017,-0.12808 -0.452572,-0.26471 -0.691665,-0.40987 -0.230556,-0.1537 -0.439763,-0.31595 -0.627623,-0.48673 -0.187859,-0.17078 -0.290328,-0.34156 -0.307407,-0.51235 -0.03416,-0.18785 -0.0085,-0.36717 0.07685,-0.53796 0.07685,-0.17931 0.192129,-0.33302 0.345833,-0.46111 0.162242,-0.13662 0.345832,-0.23482 0.550771,-0.2946 0.213476,-0.0683 0.435492,-0.0854 0.666048,-0.0512 m -0.115278,4.39336 c 0.09393,0.0427 0.200667,0.0427 0.320216,0 0.119545,-0.0427 0.230553,-0.10674 0.333024,-0.19213 0.111006,-0.0768 0.204936,-0.16224 0.28179,-0.25617 0.08539,-0.10247 0.140892,-0.19213 0.166512,-0.26899 0.02562,-0.0683 -3e-6,-0.14089 -0.07685,-0.21774 -0.06831,-0.0854 -0.140897,-0.15371 -0.217746,-0.20494 -0.09393,0.0683 -0.200671,0.15797 -0.320216,0.26898 -0.119549,0.10247 -0.226287,0.20921 -0.320216,0.32022 -0.08539,0.111 -0.149435,0.21774 -0.192129,0.32021 -0.0427,0.10247 -0.03416,0.17932 0.02562,0.23056"
           id="path3103"
           inkscape:connector-curvature="0" />
      </g>
    </g>
  </g>
</svg>
