<?xml version="1.0" encoding="UTF-8" standalone="no"?>
<!-- Created with Inkscape (http://www.inkscape.org/) -->

<svg
   xmlns:osb="http://www.openswatchbook.org/uri/2009/osb"
   xmlns:dc="http://purl.org/dc/elements/1.1/"
   xmlns:cc="http://creativecommons.org/ns#"
   xmlns:rdf="http://www.w3.org/1999/02/22-rdf-syntax-ns#"
   xmlns:svg="http://www.w3.org/2000/svg"
   xmlns="http://www.w3.org/2000/svg"
   xmlns:sodipodi="http://sodipodi.sourceforge.net/DTD/sodipodi-0.dtd"
   xmlns:inkscape="http://www.inkscape.org/namespaces/inkscape"
   inkscape:export-ydpi="90.000000"
   inkscape:export-xdpi="90.000000"
   width="736"
   height="544"
   id="svg11300"
   sodipodi:version="0.32"
   inkscape:version="0.91 r13725"
   sodipodi:docname="adobe-reader.svg"
   inkscape:output_extension="org.inkscape.output.svg.inkscape"
   version="1.0"
   style="display:inline;enable-background:new"
   inkscape:export-filename="/home/sam/paper-template.png">
  <title
     id="title3004">Paper Icon Theme</title>
  <sodipodi:namedview
     stroke="#ef2929"
     fill="#f57900"
     id="base"
     pagecolor="#474747"
     bordercolor="#666666"
     borderopacity="0.25490196"
     inkscape:pageopacity="0"
     inkscape:pageshadow="2"
     inkscape:zoom="1"
     inkscape:cx="35.863306"
     inkscape:cy="21.207461"
     inkscape:current-layer="layer7"
     showgrid="false"
     inkscape:grid-bbox="true"
     inkscape:document-units="px"
     inkscape:showpageshadow="false"
     inkscape:window-width="1366"
     inkscape:window-height="704"
     inkscape:window-x="0"
     inkscape:window-y="27"
     width="400px"
     height="300px"
     inkscape:snap-nodes="true"
     inkscape:snap-bbox="true"
     gridtolerance="10000"
     inkscape:object-nodes="true"
     inkscape:snap-grids="true"
     showguides="true"
     inkscape:guide-bbox="true"
     inkscape:window-maximized="1"
     inkscape:bbox-nodes="true"
     inkscape:snap-bbox-edge-midpoints="true"
     inkscape:snap-bbox-midpoints="true">
    <inkscape:grid
       spacingy="1px"
       spacingx="1px"
       id="grid5883"
       type="xygrid"
       enabled="true"
       visible="true"
       empspacing="4"
       snapvisiblegridlinesonly="true" />
    <inkscape:grid
       type="xygrid"
       id="grid11592"
       empspacing="2"
       visible="true"
       enabled="false"
       spacingx="0.5px"
       spacingy="0.5px"
       color="#ff0000"
       opacity="0.1254902"
       empcolor="#ff0000"
       empopacity="0.25098039"
       snapvisiblegridlinesonly="true" />
  </sodipodi:namedview>
  <defs
     id="defs3">
    <clipPath
       clipPathUnits="userSpaceOnUse"
       id="clipPath4193">
      <rect
         transform="matrix(0,-1,-1,0,0,0)"
         style="fill:#c03630;fill-opacity:1;stroke:none"
         id="rect4195"
         width="56"
         height="56"
         x="-280"
         y="-260"
         rx="3"
         ry="3" />
    </clipPath>
    <clipPath
       clipPathUnits="userSpaceOnUse"
       id="clipPath4255">
      <rect
         ry="2"
         rx="2"
         y="-180"
         x="-280"
         height="40"
         width="40"
         id="rect4257"
         style="fill:#c03630;fill-opacity:1;stroke:none"
         transform="matrix(0,-1,-1,0,0,0)" />
    </clipPath>
    <clipPath
       clipPathUnits="userSpaceOnUse"
       id="clipPath4275">
      <rect
         ry="1"
         rx="1"
         y="-32"
         x="-284"
         height="16"
         width="16"
         id="rect4277"
         style="display:inline;fill:#c03630;fill-opacity:1;stroke:none;enable-background:new"
         transform="matrix(0,-1,-1,0,0,0)" />
    </clipPath>
    <linearGradient
       osb:paint="solid"
       id="linearGradient5606">
      <stop
         style="stop-color:#000000;stop-opacity:1;"
         offset="0"
         id="stop5608" />
    </linearGradient>
    <clipPath
       clipPathUnits="userSpaceOnUse"
       id="clipPath4266-4">
      <path
         id="path4268-0"
         d="m 146,240 c -1.108,0 -2,0.892 -2,2 l 0,36 c 0,1.108 0.892,2 2,2 l 28,0 c 1.108,0 2,-0.892 2,-2 l 0,-26 -12,-12 -18,0 z"
         style="fill:#ffffff;fill-opacity:1;stroke:none"
         inkscape:connector-curvature="0" />
    </clipPath>
    <clipPath
       clipPathUnits="userSpaceOnUse"
       id="clipPath4140-8">
      <path
         id="path4142-3"
         d="m 213,224 c -1.662,0 -3,1.338 -3,3 l 0,50 c 0,1.662 1.338,3 3,3 l 38,0 c 1.662,0 3,-1.338 3,-3 l 0,-35 -18,-18 -23,0 z"
         style="fill:#e1e1e1;fill-opacity:1;stroke:none"
         inkscape:connector-curvature="0" />
    </clipPath>
    <clipPath
       clipPathUnits="userSpaceOnUse"
       id="clipPath4168">
      <path
         id="path4170"
         d="m 94.5,254 c -0.831,0 -1.5,0.669 -1.5,1.5 l 0,25 c 0,0.831 0.669,1.5 1.5,1.5 l 19,0 c 0.831,0 1.5,-0.669 1.5,-1.5 l 0,-18.5 -8,-8 -12.5,0 z"
         style="fill:#e1e1e1;fill-opacity:1;stroke:none"
         inkscape:connector-curvature="0" />
    </clipPath>
    <clipPath
       clipPathUnits="userSpaceOnUse"
       id="clipPath4278">
      <path
         sodipodi:nodetypes="ssssssccs"
         style="fill:#e1e1e1;fill-opacity:1;stroke:none"
         d="m 300,196 c -2.216,0 -4,1.784 -4,4 l 0,72 c 0,2.216 1.784,4 4,4 l 56,0 c 2.216,0 4,-1.784 4,-4 l 0,-52 -24,-24 z"
         id="path4280"
         inkscape:connector-curvature="0" />
    </clipPath>
    <clipPath
       clipPathUnits="userSpaceOnUse"
       id="clipPath4754">
      <path
         sodipodi:nodetypes="ssssssccs"
         style="fill:#e1e1e1;fill-opacity:1;stroke:none"
         d="m 300,196 c -2.216,0 -4,1.784 -4,4 l 0,72 c 0,2.216 1.784,4 4,4 l 56,0 c 2.216,0 4,-1.784 4,-4 l 0,-52 -24,-24 z"
         id="path4756"
         inkscape:connector-curvature="0" />
    </clipPath>
    <filter
       inkscape:collect="always"
       style="color-interpolation-filters:sRGB"
       id="filter4225"
       x="-0.024"
       width="1.048"
       y="-0.024"
       height="1.048">
      <feGaussianBlur
         inkscape:collect="always"
         stdDeviation="2.4"
         id="feGaussianBlur4227" />
    </filter>
    <filter
       inkscape:collect="always"
       style="color-interpolation-filters:sRGB"
       id="filter4516"
       x="-0.027272727"
       width="1.0545455"
       y="-0.02142857"
       height="1.0428571">
      <feGaussianBlur
         inkscape:collect="always"
         stdDeviation="4"
         id="feGaussianBlur4518" />
    </filter>
    <clipPath
       clipPathUnits="userSpaceOnUse"
       id="clipPath4266-4-8">
      <path
         id="path4268-0-9"
         d="m 146,240 c -1.108,0 -2,0.892 -2,2 l 0,36 c 0,1.108 0.892,2 2,2 l 28,0 c 1.108,0 2,-0.892 2,-2 l 0,-26 -12,-12 -18,0 z"
         style="fill:#ffffff;fill-opacity:1;stroke:none"
         inkscape:connector-curvature="0" />
    </clipPath>
    <filter
       inkscape:collect="always"
       id="filter4987"
       x="-0.13"
       width="1.26"
       y="-0.11142857"
       height="1.2228571">
      <feGaussianBlur
         inkscape:collect="always"
         stdDeviation="0.65"
         id="feGaussianBlur4989" />
    </filter>
    <clipPath
       clipPathUnits="userSpaceOnUse"
       id="clipPath4321">
      <path
         sodipodi:nodetypes="sssssscccs"
         inkscape:connector-curvature="0"
         id="path4323"
         d="m 145.22,242.44857 c -1.108,0 -2,0.892 -2,2 l 0,36 c 0,1.108 0.892,2 2,2 l 28,0 c 1.108,0 2,-0.892 2,-2 l 0,-26 -11,-1 -1,-11 z"
         style="display:inline;fill:#ece9d8;fill-opacity:1;stroke:none;enable-background:new" />
    </clipPath>
    <clipPath
       clipPathUnits="userSpaceOnUse"
       id="clipPath4168-6">
      <path
         id="path4170-2"
         d="m 94.5,254 c -0.831,0 -1.5,0.669 -1.5,1.5 l 0,25 c 0,0.831 0.669,1.5 1.5,1.5 l 19,0 c 0.831,0 1.5,-0.669 1.5,-1.5 l 0,-18.5 -8,-8 -12.5,0 z"
         style="fill:#e1e1e1;fill-opacity:1;stroke:none"
         inkscape:connector-curvature="0" />
    </clipPath>
    <filter
       inkscape:collect="always"
       id="filter4148"
       x="-0.1275"
       width="1.255"
       y="-0.11333333"
       height="1.2266667">
      <feGaussianBlur
         inkscape:collect="always"
         stdDeviation="0.425"
         id="feGaussianBlur4150" />
    </filter>
    <clipPath
       clipPathUnits="userSpaceOnUse"
       id="clipPath4140-8-0">
      <path
         id="path4142-3-6"
         d="m 213,224 c -1.662,0 -3,1.338 -3,3 l 0,50 c 0,1.662 1.338,3 3,3 l 38,0 c 1.662,0 3,-1.338 3,-3 l 0,-35 -18,-18 -23,0 z"
         style="fill:#e1e1e1;fill-opacity:1;stroke:none"
         inkscape:connector-curvature="0" />
    </clipPath>
    <filter
       inkscape:collect="always"
       id="filter4128"
       x="-0.12"
       width="1.24"
       y="-0.12"
       height="1.24">
      <feGaussianBlur
         inkscape:collect="always"
         stdDeviation="0.9"
         id="feGaussianBlur4130" />
    </filter>
  </defs>
  <metadata
     id="metadata4">
    <rdf:RDF>
      <cc:Work
         rdf:about="">
        <dc:format>image/svg+xml</dc:format>
        <dc:type
           rdf:resource="http://purl.org/dc/dcmitype/StillImage" />
        <dc:creator>
          <cc:Agent>
            <dc:title>Sam Hewitt</dc:title>
          </cc:Agent>
        </dc:creator>
        <dc:source />
        <cc:license
           rdf:resource="http://creativecommons.org/licenses/by-sa/3.0/" />
        <dc:title>Paper Icon Theme</dc:title>
        <dc:subject>
          <rdf:Bag />
        </dc:subject>
        <dc:date />
        <dc:rights>
          <cc:Agent>
            <dc:title />
          </cc:Agent>
        </dc:rights>
        <dc:publisher>
          <cc:Agent>
            <dc:title />
          </cc:Agent>
        </dc:publisher>
        <dc:identifier />
        <dc:relation />
        <dc:language />
        <dc:coverage />
        <dc:description />
        <dc:contributor>
          <cc:Agent>
            <dc:title />
          </cc:Agent>
        </dc:contributor>
      </cc:Work>
      <cc:Work
         rdf:about="">
        <dc:format>image/svg+xml</dc:format>
        <dc:type
           rdf:resource="http://purl.org/dc/dcmitype/StillImage" />
      </cc:Work>
    </rdf:RDF>
  </metadata>
  <g
     style="display:inline"
     inkscape:groupmode="layer"
     inkscape:label="Icon"
     id="layer1"
     transform="translate(0,244)">
    <g
       style="display:none"
       inkscape:label="Baseplate"
       id="layer7"
       inkscape:groupmode="layer">
      <text
         y="332.76685"
         xml:space="preserve"
         x="15.006836"
         style="font-style:normal;font-variant:normal;font-weight:normal;font-stretch:normal;font-size:18px;font-family:'DejaVu Sans';-inkscape-font-specification:'DejaVu Sans';display:inline;fill:#000000;fill-opacity:1;stroke:none;enable-background:new"
         inkscape:label="context"
         id="context"><tspan
           style="font-style:normal;font-variant:normal;font-weight:normal;font-stretch:normal;font-family:'DejaVu Sans';-inkscape-font-specification:'DejaVu Sans'"
           y="332.76685"
           x="15.006836"
           sodipodi:role="line"
           id="tspan3933">apps</tspan></text>
      <text
         y="332.76685"
         xml:space="preserve"
         x="142.48828"
         style="font-style:normal;font-variant:normal;font-weight:bold;font-stretch:normal;font-size:18px;line-height:125%;font-family:'DejaVu Sans';-inkscape-font-specification:'DejaVu Sans Bold';text-align:start;writing-mode:lr-tb;text-anchor:start;display:inline;fill:#000000;fill-opacity:1;stroke:none;enable-background:new"
         sodipodi:linespacing="125%"
         inkscape:label="icon-name"
         id="icon-name"><tspan
           style="font-style:normal;font-variant:normal;font-weight:bold;font-stretch:normal;font-size:18px;font-family:'DejaVu Sans';-inkscape-font-specification:'DejaVu Sans Bold'"
           y="332.76685"
           x="142.48828"
           sodipodi:role="line"
           id="tspan3937">adobe-reader</tspan></text>
      <rect
         style="display:inline;overflow:visible;visibility:visible;fill:#e9e9e9;fill-opacity:1;fill-rule:nonzero;stroke:none;stroke-width:2;marker:none;enable-background:accumulate"
         id="rect16x16"
         width="16"
         height="16"
         x="-32"
         y="268"
         inkscape:label="16x16"
         transform="scale(-1,1)" />
      <rect
         style="display:inline;overflow:visible;visibility:visible;fill:#e9e9e9;fill-opacity:1;fill-rule:nonzero;stroke:none;stroke-width:2;marker:none;enable-background:accumulate"
         id="rect24x24"
         width="24"
         height="24"
         x="-76"
         y="260"
         inkscape:label="24x24"
         transform="scale(-1,1)" />
      <rect
         style="display:inline;overflow:visible;visibility:visible;fill:#e9e9e9;fill-opacity:1;fill-rule:nonzero;stroke:none;stroke-width:2;marker:none;enable-background:accumulate"
         id="rect32x32"
         width="32"
         height="32"
         x="-130"
         y="252"
         inkscape:label="32x32"
         transform="scale(-1,1)" />
      <rect
         inkscape:label="48x48"
         y="236"
         x="-194"
         height="48"
         width="48"
         id="rect48x48"
         style="display:inline;overflow:visible;visibility:visible;fill:#e9e9e9;fill-opacity:1;fill-rule:nonzero;stroke:none;stroke-width:2;marker:none;enable-background:accumulate"
         transform="scale(-1,1)" />
      <rect
         style="display:inline;overflow:visible;visibility:visible;fill:#e9e9e9;fill-opacity:1;fill-rule:nonzero;stroke:none;stroke-width:2;marker:none;enable-background:accumulate"
         id="rect3951"
         width="512"
         height="512"
         x="-720"
         y="-228"
         inkscape:label="48x48"
         transform="scale(-1,1)" />
    </g>
    <g
       inkscape:groupmode="layer"
       id="layer6"
       inkscape:label="Symbols"
       style="display:inline">
      <path
         inkscape:connector-curvature="0"
         id="path4520"
         d="m 312,-192 c -13.296,0 -24,10.704 -24,24 l 0,400 c 0,13.296 10.704,24 24,24 l 304,0 c 13.296,0 24,-10.704 24,-24 L 640,-47.999999 496,-192 l -184,0 z"
         style="display:inline;opacity:0.1;fill:#000000;fill-opacity:1;stroke:none;filter:url(#filter4516);enable-background:new" />
      <path
         style="display:inline;opacity:0.2;fill:#000000;fill-opacity:1;stroke:none;filter:url(#filter4516);enable-background:new"
         d="m 312,-192 c -13.296,0 -24,10.704 -24,24 l 0,400 c 0,13.296 10.704,24 24,24 l 304,0 c 13.296,0 24,-10.704 24,-24 L 640,-47.999999 496,-192 l -184,0 z"
         id="path4511"
         inkscape:connector-curvature="0" />
      <path
         sodipodi:nodetypes="sssssscccs"
         inkscape:connector-curvature="0"
         id="path4610"
         d="m 154,240 c -1.108,0 -2,0.892 -2,2 l 0,36 c 0,1.108 0.892,2 2,2 l 28,0 c 1.108,0 2,-0.892 2,-2 l 0,-26 -11,-1 -1,-11 z"
         style="display:inline;fill:#c03630;fill-opacity:1;stroke:none;enable-background:new" />
      <path
         sodipodi:nodetypes="csscccc"
         clip-path="url(#clipPath4266-4-8)"
         inkscape:connector-curvature="0"
         id="path4612"
         d="m 163.22,242.44857 0,11 c 0,1.10457 0.89543,2 2,2 l 10,0 -1,-1 -10,-9 z"
         style="display:inline;opacity:0.1;fill:#000000;fill-opacity:1;stroke:none;filter:url(#filter4987);enable-background:new"
         transform="translate(8.7799999,-2.4485694)" />
      <path
         transform="translate(8.7799999,-2.4485694)"
         style="display:inline;opacity:0.1;fill:#000000;fill-opacity:1;stroke:none;filter:url(#filter4987);enable-background:new"
         d="m 163.22,242.44857 0,11 c 0,1.10457 0.89543,2 2,2 l 10,0 0,-4 -7,-9 z"
         id="path4614"
         inkscape:connector-curvature="0"
         clip-path="url(#clipPath4321)"
         sodipodi:nodetypes="csscccc" />
      <path
         inkscape:connector-curvature="0"
         style="display:inline;opacity:1;fill:#f36961;fill-opacity:1;stroke:none;enable-background:new"
         d="m 172,240 0,10 c 0,1.10457 0.89543,2 2,2 l 10,0 -12,-12 z"
         id="path4616" />
      <path
         inkscape:connector-curvature="0"
         id="path4618"
         d="m 57,262 c -0.554,0 -1,0.446 -1,1 l 0,18 c 0,0.554 0.446,1 1,1 l 14,0 c 0.554,0 1,-0.446 1,-1 L 72,268 66.5,267.5 66,262 Z"
         style="display:inline;fill:#c03630;fill-opacity:1;stroke:none;enable-background:new"
         sodipodi:nodetypes="sssssscccs" />
      <path
         inkscape:connector-curvature="0"
         id="path4620"
         d="m 102.5,254 c -0.831,0 -1.5,0.669 -1.5,1.5 l 0,25 c 0,0.831 0.669,1.5 1.5,1.5 l 19,0 c 0.831,0 1.5,-0.669 1.5,-1.5 l 0,-18.5 -7.25,-0.75 C 114.92158,261.25 115,254 115,254 Z"
         style="display:inline;fill:#c03630;fill-opacity:1;stroke:none;enable-background:new"
         sodipodi:nodetypes="sssssscccs" />
      <path
         style="display:inline;opacity:0.2;fill:#000000;fill-opacity:1;stroke:none;stroke-width:1px;stroke-linecap:butt;stroke-linejoin:miter;stroke-opacity:1;enable-background:new"
         d="m 66,263 6,5 0,1 -5,0 c 0,0 -1,0 -1,-1 z"
         id="path4622"
         inkscape:connector-curvature="0"
         sodipodi:nodetypes="cccccc" />
      <path
         sodipodi:nodetypes="ccccc"
         inkscape:connector-curvature="0"
         id="path4624"
         d="m 66,262 6,6 -5,0 c 0,0 -1,0 -1,-1 z"
         style="display:inline;opacity:1;fill:#f36961;fill-opacity:1;stroke:none;stroke-width:1px;stroke-linecap:butt;stroke-linejoin:miter;stroke-opacity:1;enable-background:new" />
      <path
         transform="translate(7.9999999,6.0000002e-7)"
         clip-path="url(#clipPath4168-6)"
         style="display:inline;opacity:0.2;fill:#000000;fill-opacity:1;stroke:none;filter:url(#filter4148);enable-background:new"
         d="m 107,254 0,7.5 c 0,0.82843 0.67158,1.5 1.5,1.5 l 6.5,0 0,-1 z"
         id="path4626"
         inkscape:connector-curvature="0"
         sodipodi:nodetypes="cssccc" />
      <path
         style="display:inline;fill:#f36961;fill-opacity:1;stroke:none;enable-background:new"
         d="m 115,254 0,6.5 c 0,0.82843 0.67158,1.5 1.5,1.5 l 6.5,0 z"
         id="path4628"
         inkscape:connector-curvature="0"
         sodipodi:nodetypes="csscc" />
      <path
         sodipodi:nodetypes="sscsccs"
         inkscape:connector-curvature="0"
         id="path4630"
         d="m 57,262 c -0.554,0 -1,0.446 -1,1 l 0,1 c 0,-0.554 0.446,-1 1,-1 l 9,0 0,-1 z"
         style="display:inline;opacity:0.1;fill:#ffffff;fill-opacity:1;stroke:none;enable-background:new" />
      <path
         sodipodi:nodetypes="sscsccs"
         inkscape:connector-curvature="0"
         id="path4632"
         d="m 102.5,254 c -0.831,0 -1.5,0.669 -1.5,1.5 l 0,1 c 0,-0.831 0.669,-1.5 1.5,-1.5 l 12.5,0 0,-1 z"
         style="display:inline;opacity:0.2;fill:#ffffff;fill-opacity:1;stroke:none;enable-background:new" />
      <path
         sodipodi:nodetypes="sssssscccs"
         inkscape:connector-curvature="0"
         id="path4634"
         d="m 312,-196 c -13.296,0 -24,10.704 -24,24 l 0,400 c 0,13.296 10.704,24 24,24 l 304,0 c 13.296,0 24,-10.704 24,-24 l 0,-279.999999 c -44,-4 -132,-12 -132,-12 L 496,-196 Z"
         style="display:inline;fill:#c03630;fill-opacity:1;stroke:none;enable-background:new" />
      <path
         clip-path="url(#clipPath4140-8-0)"
         sodipodi:nodetypes="cssccc"
         inkscape:connector-curvature="0"
         id="path4636"
         d="m 236,224 0,16 c 0,1.65685 1.34315,3 3,3 l 15,0 0,-1 z"
         style="display:inline;opacity:0.2;fill:#000000;fill-opacity:1;stroke:none;filter:url(#filter4128);enable-background:new"
         transform="matrix(8,0,0,8,-1390.72,-1985.12)" />
      <path
         style="display:inline;opacity:1;fill:#f36961;fill-opacity:1;stroke:none;enable-background:new"
         d="m 496,-196 0,120.000001 c 0,13.2548 10.7452,24 24,24 l 120,0 L 496,-196 Z"
         id="path4638"
         inkscape:connector-curvature="0" />
      <path
         id="path4640"
         d="m 312,-196 c -13.296,0 -24,10.704 -24,24 l 0,2 c 0,-13.296 10.704,-24 24,-24 l 184,0 0,-2 -184,0 z"
         style="display:inline;opacity:0.2;fill:#ffffff;fill-opacity:1;stroke:none;enable-background:new"
         inkscape:connector-curvature="0" />
      <path
         sodipodi:nodetypes="cssccsccc"
         inkscape:connector-curvature="0"
         id="path4642"
         d="m 19,269 c 0,0 -2,0 -2,2 l 0,10 c 0,2 2,2 2,2 l 10,0 c 0,0 2,0 2,-2 l 0,-10 c 0,0 0,-2 -2,-2 z"
         style="display:inline;fill:#c03630;fill-opacity:1;stroke:none;enable-background:new" />
      <path
         sodipodi:nodetypes="sscsccccs"
         inkscape:connector-curvature="0"
         id="path4644"
         d="m 154,240 c -1.108,0 -2,0.892 -2,2 l 0,1 c 0,-1.108 0.892,-2 2,-2 l 18,0 11,11 1,0 -12,-12 z"
         style="display:inline;opacity:0.2;fill:#ffffff;fill-opacity:1;stroke:none;enable-background:new" />
      <path
         style="display:inline;opacity:0.1;fill:#000000;fill-opacity:1;stroke:none;enable-background:new"
         d="m 288,226 0,2 c 0,13.296 10.704,24 24,24 l 304,0 c 13.296,0 24,-10.704 24,-24 l 0,-2 c 0,13.296 -10.704,24 -24,24 l -304,0 c -13.296,0 -24,-10.704 -24,-24 z"
         id="path4669"
         inkscape:connector-curvature="0" />
      <path
         clip-path="none"
         id="path13618"
         d="m 166.78046,254.17993 c -0.46126,0 -0.89261,0.22577 -0.99696,0.59841 -0.38752,1.42855 0.0462,3.63786 0.76956,6.39063 l -0.21821,0.53294 c -0.55387,1.35011 -1.24618,2.6947 -1.85496,3.8879 -2.51351,4.91796 -4.4689,7.57151 -5.77272,7.75744 l -0.005,-0.054 c -0.0283,-0.61346 1.10378,-2.19506 2.63825,-3.45259 0.16005,-0.12944 0.84304,-0.79021 0.84304,-0.79021 0,0 -0.92191,0.48667 -1.12904,0.61218 -1.92277,1.14771 -2.87955,2.29763 -3.03565,3.06093 -0.0463,0.22672 -0.0166,0.5057 0.18375,0.62024 l 0.4916,0.24694 c 1.33835,0.66995 2.98408,-1.09163 5.172,-4.92621 2.22638,-0.73036 5.00429,-1.41799 7.53346,-1.79062 2.26403,1.29363 4.86099,1.90954 5.85885,1.6436 0.18987,-0.0502 0.3896,-0.19924 0.4916,-0.33652 0.08,-0.12631 0.19183,-0.63172 0.19183,-0.63172 0,0 -0.18773,0.25547 -0.3423,0.33078 -0.63152,0.29811 -2.6253,-0.19924 -4.6712,-1.20025 1.76899,-0.18828 3.24268,-0.19554 4.03029,0.0562 1.00026,0.3193 1.00113,0.64659 0.98778,0.71326 0.0135,-0.0549 0.0583,-0.27418 0.0528,-0.36753 -0.0227,-0.24006 -0.0967,-0.45443 -0.27795,-0.63172 -0.37027,-0.36479 -1.28452,-0.54862 -2.5303,-0.56509 -0.939,-0.0102 -2.06495,0.072 -3.28717,0.24694 -0.56012,-0.32164 -1.15116,-0.67522 -1.61951,-1.11296 -1.18769,-1.10927 -2.18318,-2.6494 -2.80135,-4.37605 0.0422,-0.16553 0.0826,-0.32727 0.11944,-0.49045 0.17183,-0.77271 0.29517,-3.3274 0.29517,-3.3274 0,0 -0.48934,1.91922 -0.56622,2.2087 -0.0494,0.18357 -0.11086,0.3795 -0.18147,0.58347 -0.375,-1.31794 -0.56509,-2.59516 -0.56509,-3.564 0,-0.27379 0.0235,-0.80656 0.10105,-1.22783 0.0378,-0.30045 0.1466,-0.45647 0.2596,-0.53179 0.22357,0.0542 0.47383,0.39708 0.73509,0.97054 0.22435,0.4958 0.21017,1.07 0.21017,1.42538 0,0 0.24061,-0.87999 0.18492,-1.4001 -0.0339,-0.31223 -0.33096,-1.11548 -0.96248,-1.10608 l -0.0517,0 -0.28139,-0.003 z m 0.21478,7.97911 c 0.65351,1.31402 1.55482,2.56186 2.73708,3.56287 0.26357,0.22279 0.544,0.43475 0.83269,0.634 -2.14712,0.39931 -4.40208,0.96102 -6.49746,1.83886 0.37891,-0.67309 0.78861,-1.40645 1.2083,-2.19721 0.81274,-1.53682 1.30521,-2.72219 1.71939,-3.83852 z"
         style="color:#bebebe;display:inline;overflow:visible;visibility:visible;fill:#ffffff;fill-opacity:1;fill-rule:nonzero;stroke:none;stroke-width:1;marker:none;enable-background:accumulate"
         inkscape:connector-curvature="0" />
      <path
         inkscape:connector-curvature="0"
         style="color:#bebebe;display:inline;overflow:visible;visibility:visible;fill:#ffffff;fill-opacity:1;fill-rule:nonzero;stroke:none;stroke-width:1;marker:none;enable-background:accumulate"
         d="m 63.26817,268.13494 c -0.27675,0 -0.53556,0.13547 -0.59817,0.35905 -0.23251,0.85713 0.0277,2.18271 0.46174,3.83438 l -0.13093,0.31976 c -0.33232,0.81006 -0.7477,1.61682 -1.11297,2.33274 -1.50811,2.95078 -2.68135,4.54291 -3.46364,4.65447 l -0.003,-0.0324 c -0.017,-0.36808 0.66227,-1.31704 1.58295,-2.07156 0.096,-0.0777 0.50583,-0.47412 0.50583,-0.47412 0,0 -0.55315,0.29199 -0.67743,0.3673 -1.15366,0.68863 -1.72773,1.37858 -1.82138,1.83656 -0.0278,0.13603 -0.01,0.30342 0.11024,0.37214 l 0.29497,0.14817 c 0.803,0.40197 1.79044,-0.65498 3.10319,-2.95573 1.33583,-0.43821 3.00258,-0.85079 4.52008,-1.07437 1.35842,0.77618 2.91659,1.14573 3.51531,0.98616 0.11392,-0.0301 0.23376,-0.11954 0.29496,-0.20191 0.048,-0.0758 0.1151,-0.37903 0.1151,-0.37903 0,0 -0.11264,0.15328 -0.20538,0.19847 -0.37891,0.17886 -1.57518,-0.11955 -2.80272,-0.72015 1.06139,-0.11297 1.94561,-0.11733 2.41817,0.0337 0.60016,0.19157 0.60068,0.38795 0.59267,0.42795 0.008,-0.0329 0.035,-0.16451 0.0317,-0.22052 -0.0136,-0.14403 -0.058,-0.27265 -0.16677,-0.37903 -0.22216,-0.21887 -0.77071,-0.32917 -1.51818,-0.33905 -0.5634,-0.006 -1.23897,0.0432 -1.9723,0.14816 -0.33608,-0.19298 -0.6907,-0.40513 -0.97171,-0.66778 -0.71262,-0.66556 -1.30991,-1.58963 -1.68081,-2.62563 0.0253,-0.0993 0.0496,-0.19636 0.0717,-0.29426 0.1031,-0.46363 0.1771,-1.99645 0.1771,-1.99645 0,0 -0.2936,1.15154 -0.33973,1.32522 -0.0297,0.11015 -0.0665,0.22771 -0.10888,0.35009 -0.225,-0.79077 -0.33905,-1.5571 -0.33905,-2.13841 0,-0.16427 0.0141,-0.48393 0.0606,-0.73669 0.0227,-0.18027 0.088,-0.27388 0.15577,-0.31907 0.13414,0.0325 0.28429,0.23824 0.44105,0.58232 0.13461,0.29748 0.1261,0.642 0.1261,0.85522 0,0 0.14437,-0.52799 0.11095,-0.84005 -0.0204,-0.18734 -0.19857,-0.66929 -0.57749,-0.66365 l -0.031,0 -0.16883,-0.002 z m 0.12887,4.78747 c 0.39211,0.78841 0.9329,1.53711 1.64225,2.13772 0.15814,0.13367 0.3264,0.26085 0.49962,0.3804 -1.28828,0.23959 -2.64125,0.57661 -3.89848,1.10332 0.22735,-0.40386 0.47317,-0.84387 0.72498,-1.31833 0.48765,-0.92209 0.78313,-1.63332 1.03163,-2.30311 z"
         id="path13624"
         clip-path="none" />
      <path
         clip-path="none"
         id="path13626"
         d="m 111.02436,262.17991 c -0.36901,0 -0.71409,0.18062 -0.79757,0.47872 -0.31001,1.14285 0.037,2.9103 0.61565,5.11252 l -0.17457,0.42635 c -0.44309,1.08009 -0.99694,2.15577 -1.48397,3.11033 -2.01081,3.93438 -3.57513,6.05722 -4.61819,6.20596 l -0.004,-0.0432 c -0.0226,-0.49077 0.88303,-1.75605 2.11061,-2.76208 0.12804,-0.10355 0.67444,-0.63216 0.67444,-0.63216 0,0 -0.73753,0.38933 -0.90324,0.48973 -1.53822,0.91818 -2.30365,1.83812 -2.42852,2.44876 -0.0371,0.18137 -0.0132,0.40456 0.14699,0.49619 l 0.39329,0.19755 c 1.07068,0.53596 2.38727,-0.87331 4.1376,-3.94097 1.78111,-0.58429 4.00345,-1.1344 6.02678,-1.4325 1.81123,1.0349 3.8888,1.52764 4.68709,1.31488 0.1519,-0.0402 0.31168,-0.15939 0.39328,-0.26922 0.064,-0.10104 0.15346,-0.50537 0.15346,-0.50537 0,0 -0.15018,0.20438 -0.27384,0.26463 -0.50521,0.23848 -2.10024,-0.1594 -3.73696,-0.9602 1.4152,-0.15063 2.59415,-0.15644 3.22424,0.045 0.8002,0.25543 0.8009,0.51726 0.79022,0.5706 0.0108,-0.0439 0.0466,-0.21934 0.0422,-0.29402 -0.0181,-0.19205 -0.0774,-0.36354 -0.22236,-0.50538 -0.29621,-0.29183 -1.02761,-0.4389 -2.02424,-0.45207 -0.7512,-0.008 -1.65197,0.0576 -2.62975,0.19754 -0.44809,-0.2573 -0.92093,-0.54017 -1.29561,-0.89036 -0.95015,-0.88741 -1.74654,-2.11952 -2.24108,-3.50085 0.0337,-0.13242 0.0661,-0.26181 0.0956,-0.39235 0.13746,-0.61818 0.23614,-2.66193 0.23614,-2.66193 0,0 -0.39148,1.53538 -0.45298,1.76696 -0.0395,0.14686 -0.0887,0.30361 -0.14518,0.46678 -0.3,-1.05436 -0.45206,-2.07613 -0.45206,-2.85121 0,-0.21903 0.0188,-0.64525 0.0808,-0.98227 0.0302,-0.24036 0.11729,-0.36517 0.20769,-0.42542 0.17885,0.0434 0.37906,0.31766 0.58806,0.77643 0.17948,0.39664 0.16814,0.856 0.16814,1.1403 0,0 0.19249,-0.70399 0.14794,-1.12008 -0.0272,-0.24979 -0.26477,-0.89239 -0.76999,-0.88486 l -0.0413,0 -0.22511,-0.002 z m 0.17182,6.3833 c 0.52282,1.05122 1.24386,2.04949 2.18967,2.85029 0.21085,0.17824 0.4352,0.3478 0.66615,0.50721 -1.7177,0.31945 -3.52166,0.76882 -5.19797,1.47109 0.30312,-0.53847 0.63088,-1.12516 0.96664,-1.75778 0.65019,-1.22945 1.04417,-2.17775 1.37551,-3.07081 z"
         style="color:#bebebe;display:inline;overflow:visible;visibility:visible;fill:#ffffff;fill-opacity:1;fill-rule:nonzero;stroke:none;stroke-width:0.99999994;marker:none;enable-background:accumulate"
         inkscape:connector-curvature="0" />
      <path
         clip-path="none"
         id="path13628"
         d="m 23.38983,271.11261 c -0.23063,0 -0.4463,0.11289 -0.49848,0.29921 -0.19375,0.71427 0.0231,1.81892 0.38479,3.19531 l -0.10911,0.26647 c -0.27693,0.67505 -0.62308,1.34735 -0.92748,1.94395 -1.25675,2.45898 -2.23445,3.78575 -2.88636,3.87872 l -0.002,-0.027 c -0.0142,-0.30673 0.55189,-1.09753 1.31912,-1.7263 0.08,-0.0648 0.42153,-0.3951 0.42153,-0.3951 0,0 -0.46096,0.24332 -0.56453,0.30608 -0.96138,0.57386 -1.43977,1.14882 -1.51781,1.53047 -0.0232,0.11336 -0.008,0.25285 0.0919,0.31012 l 0.24581,0.12347 c 0.66917,0.33498 1.49204,-0.54582 2.58599,-2.46311 1.11319,-0.36517 2.50215,-0.70899 3.76673,-0.8953 1.13202,0.64681 2.4305,0.95477 2.92943,0.8218 0.0949,-0.0251 0.1948,-0.0996 0.2458,-0.16826 0.04,-0.0632 0.0959,-0.31586 0.0959,-0.31586 0,0 -0.0939,0.12773 -0.17115,0.16539 -0.31575,0.14905 -1.31264,-0.0996 -2.33559,-0.60012 0.88449,-0.0941 1.62134,-0.0978 2.01514,0.0281 0.50013,0.15964 0.50056,0.32329 0.49389,0.35662 0.007,-0.0274 0.0292,-0.13709 0.0264,-0.18376 -0.0113,-0.12003 -0.0483,-0.22721 -0.13897,-0.31586 -0.18513,-0.18239 -0.64226,-0.27431 -1.26515,-0.28254 -0.4695,-0.005 -1.03247,0.036 -1.64358,0.12346 -0.28007,-0.16081 -0.57559,-0.3376 -0.80976,-0.55648 -0.59385,-0.55463 -1.09159,-1.32469 -1.40067,-2.18802 0.0211,-0.0828 0.0413,-0.16364 0.0598,-0.24522 0.0859,-0.38636 0.14758,-1.66371 0.14758,-1.66371 0,0 -0.24467,0.95962 -0.28311,1.10435 -0.0247,0.0918 -0.0554,0.18976 -0.0907,0.29174 -0.1875,-0.65897 -0.28254,-1.29758 -0.28254,-1.782 0,-0.1369 0.0118,-0.40328 0.0505,-0.61391 0.0189,-0.15023 0.0733,-0.22823 0.1298,-0.26589 0.11179,0.0271 0.23691,0.19853 0.36755,0.48526 0.11217,0.2479 0.10508,0.535 0.10508,0.71269 0,0 0.12031,-0.44 0.0925,-0.70004 -0.017,-0.15612 -0.16548,-0.55775 -0.48124,-0.55305 l -0.0258,0 -0.14069,-0.002 z m 0.10739,3.98955 c 0.32676,0.65701 0.77742,1.28093 1.36854,1.78144 0.13179,0.11139 0.272,0.21737 0.41635,0.317 -1.07356,0.19965 -2.20104,0.4805 -3.24873,0.91943 0.18946,-0.33655 0.39431,-0.70323 0.60415,-1.09861 0.40637,-0.76841 0.65261,-1.3611 0.85969,-1.91926 z"
         style="color:#bebebe;display:inline;overflow:visible;visibility:visible;fill:#ffffff;fill-opacity:1;fill-rule:nonzero;stroke:none;stroke-width:1;marker:none;enable-background:accumulate"
         inkscape:connector-curvature="0" />
      <path
         inkscape:connector-curvature="0"
         style="color:#bebebe;display:inline;overflow:visible;visibility:visible;fill:#ffffff;fill-opacity:1;fill-rule:nonzero;stroke:none;stroke-width:1;marker:none;enable-background:accumulate"
         d="m 450.5882,-25.322449 c -5.0738,0 -9.8187,2.48348 -10.9665,6.58252 -4.2629,15.7140796 0.5082,40.01652 8.4651,70.29704 l -2.4003,5.86235 c -6.0925,14.85124 -13.7081,29.64175 -20.4046,42.766969 -27.6487,54.09765 -49.158,83.28675 -63.5001,85.33198 l -0.055,-0.594 c -0.3113,-6.74807 12.1416,-24.1457 29.0209,-37.97855 1.7605,-1.42384 9.2734,-8.69233 9.2734,-8.69233 0,0 -10.141,5.35338 -12.4194,6.734 -21.1506,12.62483 -31.6752,25.27397 -33.3923,33.67028 -0.5093,2.49392 -0.1826,5.56271 2.0213,6.82265 l 5.4076,2.71635 c 14.7218,7.36946 32.825,-12.00795 56.8921,-54.1884 24.4903,-8.03398 55.0473,-15.59792 82.8682,-19.69685 24.9044,14.22995 53.4709,21.00497 64.4475,18.07962 2.0886,-0.5522 4.2856,-2.19164 5.4076,-3.70172 0.88,-1.38941 2.1101,-6.94893 2.1101,-6.94893 0,0 -2.065,2.81017 -3.7653,3.63858 -6.9467,3.27922 -28.8784,-2.19164 -51.3833,-13.20277 19.4589,-2.07108 35.6695,-2.15094 44.3333,0.6182 11.0029,3.51231 11.0124,7.1125 10.8656,7.84588 0.1485,-0.60391 0.6413,-3.01599 0.5808,-4.04284 -0.2497,-2.64067 -1.0637,-4.99874 -3.0575,-6.94893 -4.0729,-4.0127 -14.1298,-6.03483 -27.8334,-6.216 -10.329,-0.1122 -22.7144,0.792 -36.1588,2.71634 -6.1613,-3.53804 -12.6629,-7.42743 -17.8147,-12.242579 -13.0646,-12.20199 -24.015,-29.14345 -30.8149,-48.13663 0.4642,-1.82083 0.9086,-3.59997 1.3139,-5.39496 1.8901,-8.49982 3.2468,-36.6014604 3.2468,-36.6014604 0,0 -5.3827,21.1114604 -6.2284,24.2957404 -0.5434,2.01928 -1.2195,4.17451 -1.9962,6.41818 -4.125,-14.49736 -6.216,-28.5468004 -6.216,-39.2040604 0,-3.01169 0.2585,-8.8721696 1.1116,-13.5061496 0.4158,-3.30495 1.6126,-5.02117 2.8556,-5.8497 2.4593,0.5962 5.2121,4.36789 8.086,10.67596 2.4678,5.4538096 2.3119,11.7700196 2.3119,15.6791996 0,0 2.6467,-9.6799 2.0341,-15.4011196 -0.3729,-3.43454 -3.6406,-12.2703 -10.5873,-12.1669 l -0.5687,0 -3.0953,-0.033 z m 2.3626,87.77035 c 7.1886,14.45424 17.103,28.18051 30.1079,39.191629 2.8993,2.4507 5.984,4.78226 9.1596,6.97402 -23.6183,4.39241 -48.4229,10.57123 -71.4722,20.22749 4.168,-7.404 8.6747,-15.47098 13.2913,-24.16935 8.9403,-16.905049 14.3574,-29.944139 18.9134,-42.223789 z"
         id="path4689"
         clip-path="none" />
      <g
         id="g4204">
        <circle
           r="12"
           cy="271"
           cx="178"
           style="display:inline;opacity:0.2;fill:#000000;fill-opacity:1;stroke:none;enable-background:new;"
           id="circle5118" />
        <circle
           id="path4058-7"
           style="display:inline;fill:#2095f2;fill-opacity:1;stroke:none;enable-background:new"
           cx="178"
           cy="270"
           r="12" />
        <circle
           r="8"
           cy="276"
           cx="119"
           style="display:inline;opacity:0.2;fill:#000000;fill-opacity:1;fill-rule:evenodd;stroke:none;enable-background:new"
           id="circle4345" />
        <circle
           id="circle4426"
           style="display:inline;fill:#2095f2;fill-opacity:1;fill-rule:evenodd;stroke:none;enable-background:new"
           cx="119"
           cy="275"
           r="8" />
        <circle
           r="5.5"
           id="circle4343"
           style="display:inline;opacity:0.2;fill:#000000;fill-opacity:1;stroke:none;stroke-width:2;enable-background:new"
           cx="68.5"
           cy="278.5" />
        <circle
           cy="277.5"
           cx="68.5"
           style="display:inline;fill:#2095f2;fill-opacity:1;stroke:none;stroke-width:2;enable-background:new"
           id="circle7479"
           r="5.5" />
        <circle
           transform="matrix(1,0,0,-1,0,311.99997)"
           r="120"
           cy="155.99998"
           cx="584"
           style="display:inline;opacity:0.2;fill:#000000;fill-opacity:1;stroke:none;enable-background:new;filter:url(#filter4225)"
           id="circle4373" />
        <circle
           id="circle4229"
           style="display:inline;opacity:0.1;fill:#000000;fill-opacity:1;stroke:#000000;enable-background:new;filter:url(#filter4225);stroke-opacity:1;stroke-width:8;stroke-miterlimit:4;stroke-dasharray:none"
           cx="584"
           cy="155.99998"
           r="120"
           transform="matrix(1,0,0,-1,0,311.99997)" />
        <circle
           id="circle3609"
           style="display:inline;fill:#2095f2;fill-opacity:1;stroke:none;enable-background:new"
           cx="584"
           cy="147.99998"
           r="120" />
        <path
           inkscape:connector-curvature="0"
           d="m 178,265.00005 c -1.55117,0.0151 -3.11274,0.36944 -4.46386,1.13502 -0.53853,0.3507 -1.18501,0.80366 -1.67225,1.26004 -0.76666,0.75058 -1.42284,1.62634 -1.86563,2.60604 1.21521,2.68013 3.88674,4.64453 6.8257,4.93464 1.92782,0.21817 3.94527,-0.11487 5.6399,-1.06858 0.53851,-0.3507 1.18501,-0.80366 1.67223,-1.26003 0.76667,-0.75059 1.42285,-1.62635 1.86565,-2.60603 -1.21529,-2.67999 -3.88666,-4.64483 -6.8257,-4.93466 -0.38997,-0.0455 -0.78346,-0.0665 -1.17603,-0.0665 z m 0,2.00043 c 1.60734,-0.0356 3.03095,1.40213 3.00064,3.00067 0.0515,1.76679 -1.70933,3.29159 -3.44997,2.96156 -1.75799,-0.20637 -2.99277,-2.17823 -2.41458,-3.84848 0.36925,-1.22963 1.57616,-2.12905 2.86391,-2.11375 z m 0,2.00045 a 1.0002168,1.0002168 0 0 0 -1.00023,1.00022 1.0002168,1.0002168 0 0 0 1.00023,1.00021 1.0002168,1.0002168 0 0 0 1.00021,-1.00021 A 1.0002168,1.0002168 0 0 0 178,269.00093 Z"
           id="path6807"
           style="display:inline;fill:#ffffff;fill-opacity:1;fill-rule:evenodd;stroke:none;stroke-width:1px;stroke-linecap:butt;stroke-linejoin:miter;stroke-opacity:1;enable-background:new" />
        <path
           style="display:inline;fill:#ffffff;fill-opacity:1;fill-rule:evenodd;stroke:none;stroke-width:1px;stroke-linecap:butt;stroke-linejoin:miter;stroke-opacity:1;enable-background:new"
           id="path4645"
           d="m 119,271.5 c -1.08582,0.0105 -2.17892,0.25861 -3.1247,0.79452 -0.37697,0.24549 -0.82951,0.56256 -1.17057,0.88203 -0.53667,0.5254 -0.99601,1.13844 -1.30596,1.82422 0.85064,1.8761 2.72073,3.25119 4.77801,3.45428 1.34948,0.1527 2.76169,-0.0805 3.94793,-0.74802 0.37697,-0.24549 0.8295,-0.56256 1.17058,-0.88203 0.53665,-0.5254 0.99599,-1.13844 1.30594,-1.82423 -0.8507,-1.876 -2.72068,-3.25137 -4.778,-3.45427 C 119.55025,271.5147 119.2748,271.5 119,271.5 Z m 0,1.40031 c 1.12515,-0.0249 2.12168,0.9815 2.10046,2.10046 0.0361,1.23677 -1.19653,2.30413 -2.41499,2.07312 -1.2306,-0.14447 -2.09496,-1.52478 -1.6902,-2.69396 0.25846,-0.86073 1.1033,-1.49033 2.00473,-1.47962 z m 0,1.40031 a 0.70015385,0.70015385 0 0 0 -0.70016,0.70015 0.70015385,0.70015385 0 0 0 0.70016,0.70016 0.70015385,0.70015385 0 0 0 0.70016,-0.70016 A 0.70015385,0.70015385 0 0 0 119,274.30062 Z"
           inkscape:connector-curvature="0" />
        <path
           inkscape:connector-curvature="0"
           d="m 68.50001,275 c -0.77559,0.008 -1.55639,0.18472 -2.23194,0.56752 -0.26927,0.17535 -0.59251,0.40181 -0.83612,0.63002 -0.38334,0.37528 -0.71144,0.81317 -0.93284,1.30302 0.6076,1.34007 1.94339,2.32229 3.41288,2.46736 0.96392,0.109 1.97264,-0.0575 2.81996,-0.5343 0.26927,-0.17535 0.5925,-0.40184 0.83614,-0.63004 0.38332,-0.37528 0.71142,-0.81317 0.9328,-1.30302 -0.60763,-1.34001 -1.94334,-2.32243 -3.41286,-2.46735 -0.19499,-0.0227 -0.39174,-0.0332 -0.58802,-0.0332 z m 0,1.00022 c 0.80367,-0.0178 1.51549,0.70108 1.50032,1.50034 0.0258,0.8834 -0.85465,1.6458 -1.72499,1.4808 -0.879,-0.10316 -1.4964,-1.08913 -1.20729,-1.92425 0.18462,-0.61482 0.78807,-1.06454 1.43196,-1.05689 z m 0,1.00024 a 0.50011201,0.50011201 0 0 0 -0.50012,0.5001 0.50011201,0.50011201 0 0 0 0.50012,0.50012 0.50011201,0.50011201 0 0 0 0.50012,-0.50012 0.50011201,0.50011201 0 0 0 -0.50012,-0.5001 z"
           id="path4647"
           style="display:inline;fill:#ffffff;fill-opacity:1;fill-rule:evenodd;stroke:none;stroke-width:1px;stroke-linecap:butt;stroke-linejoin:miter;stroke-opacity:1;enable-background:new" />
        <path
           style="display:inline;fill:#ffffff;fill-opacity:1;fill-rule:evenodd;stroke:none;stroke-width:1px;stroke-linecap:butt;stroke-linejoin:miter;stroke-opacity:1;enable-background:new"
           id="path4221"
           d="m 584,98.011284 c -15.50833,0.150963 -31.12064,3.693586 -44.62889,11.347726 -5.38414,3.50624 -11.84752,8.03484 -16.71887,12.59766 -7.66493,7.50417 -14.2253,16.25986 -18.65224,26.05473 12.14946,26.79547 38.85895,46.4352 68.24216,49.33567 19.274,2.18122 39.44412,-1.14845 56.38673,-10.68348 5.38393,-3.50624 11.84752,-8.03485 16.71867,-12.59756 7.66503,-7.50426 14.2254,-16.25996 18.65244,-26.05463 -12.15026,-26.79407 -38.85815,-46.43819 -68.24216,-49.335866 -3.89885,-0.4549 -7.83289,-0.66485 -11.75774,-0.66485 z m 0,19.999946 c 16.0699,-0.35593 30.30291,14.01825 29.99987,30.00017 0.51489,17.66405 -17.08958,32.90874 -34.49219,29.60917 C 561.9316,175.5573 549.58649,155.84299 555.36712,139.14413 559.05882,126.8505 571.1253,117.85825 584,118.01123 Z m 0,20.00015 A 9.999993,9.999993 0 0 0 573.99987,148.0114 9.999993,9.999993 0 0 0 584,158.01133 9.999993,9.999993 0 0 0 593.99992,148.0114 9.999993,9.999993 0 0 0 584,138.01138 Z"
           inkscape:connector-curvature="0" />
      </g>
    </g>
  </g>
</svg>
