<?xml version="1.0" encoding="UTF-8" standalone="no"?>
<!-- Created with Inkscape (http://www.inkscape.org/) -->

<svg
   xmlns:dc="http://purl.org/dc/elements/1.1/"
   xmlns:cc="http://creativecommons.org/ns#"
   xmlns:rdf="http://www.w3.org/1999/02/22-rdf-syntax-ns#"
   xmlns:svg="http://www.w3.org/2000/svg"
   xmlns="http://www.w3.org/2000/svg"
   xmlns:xlink="http://www.w3.org/1999/xlink"
   xmlns:sodipodi="http://sodipodi.sourceforge.net/DTD/sodipodi-0.dtd"
   xmlns:inkscape="http://www.inkscape.org/namespaces/inkscape"
   inkscape:export-ydpi="90.000000"
   inkscape:export-xdpi="90.000000"
   width="736"
   height="544"
   id="svg11300"
   sodipodi:version="0.32"
   inkscape:version="0.91 r13725"
   sodipodi:docname="audacity.svg"
   inkscape:output_extension="org.inkscape.output.svg.inkscape"
   version="1.0"
   style="display:inline;enable-background:new"
   inkscape:export-filename="/home/sam/paper-template.png">
  <title
     id="title3004">Paper Icon Theme</title>
  <sodipodi:namedview
     stroke="#ef2929"
     fill="#f57900"
     id="base"
     pagecolor="#474747"
     bordercolor="#666666"
     borderopacity="0.25490196"
     inkscape:pageopacity="0"
     inkscape:pageshadow="2"
     inkscape:zoom="1"
     inkscape:cx="325.55742"
     inkscape:cy="164.64804"
     inkscape:current-layer="layer6"
     showgrid="false"
     inkscape:grid-bbox="true"
     inkscape:document-units="px"
     inkscape:showpageshadow="false"
     inkscape:window-width="1366"
     inkscape:window-height="704"
     inkscape:window-x="0"
     inkscape:window-y="27"
     width="400px"
     height="300px"
     inkscape:snap-nodes="true"
     inkscape:snap-bbox="true"
     gridtolerance="10000"
     inkscape:object-nodes="true"
     inkscape:snap-grids="true"
     showguides="true"
     inkscape:guide-bbox="true"
     inkscape:window-maximized="1"
     inkscape:snap-bbox-midpoints="true">
    <inkscape:grid
       spacingy="1px"
       spacingx="1px"
       id="grid5883"
       type="xygrid"
       enabled="true"
       visible="true"
       empspacing="4"
       snapvisiblegridlinesonly="true" />
    <inkscape:grid
       type="xygrid"
       id="grid11592"
       empspacing="2"
       visible="true"
       enabled="false"
       spacingx="0.5px"
       spacingy="0.5px"
       color="#ff0000"
       opacity="0.1254902"
       empcolor="#ff0000"
       empopacity="0.25098039"
       snapvisiblegridlinesonly="true" />
  </sodipodi:namedview>
  <defs
     id="defs3">
    <linearGradient
       inkscape:collect="always"
       id="linearGradient4219">
      <stop
         style="stop-color:#ffffff;stop-opacity:1;"
         offset="0"
         id="stop4221" />
      <stop
         style="stop-color:#ffffff;stop-opacity:0;"
         offset="1"
         id="stop4223" />
    </linearGradient>
    <linearGradient
       inkscape:collect="always"
       id="linearGradient4137">
      <stop
         style="stop-color:#000000;stop-opacity:1;"
         offset="0"
         id="stop4139" />
      <stop
         style="stop-color:#000000;stop-opacity:0;"
         offset="1"
         id="stop4141" />
    </linearGradient>
    <linearGradient
       inkscape:collect="always"
       xlink:href="#linearGradient4137"
       id="linearGradient4303"
       gradientUnits="userSpaceOnUse"
       gradientTransform="matrix(0,1,1,0,12.000005,96.000005)"
       x1="153"
       y1="164"
       x2="158"
       y2="169" />
    <radialGradient
       inkscape:collect="always"
       xlink:href="#linearGradient4137"
       id="radialGradient4305"
       gradientUnits="userSpaceOnUse"
       gradientTransform="matrix(0,2,-1.5,0,399,-148)"
       cx="156"
       cy="162"
       fx="156"
       fy="162"
       r="8" />
    <linearGradient
       inkscape:collect="always"
       xlink:href="#linearGradient4219"
       id="linearGradient4307"
       gradientUnits="userSpaceOnUse"
       gradientTransform="translate(0,76)"
       x1="160"
       y1="156"
       x2="160"
       y2="212" />
    <clipPath
       clipPathUnits="userSpaceOnUse"
       id="clipPath4223">
      <path
         sodipodi:nodetypes="sscscssscsss"
         inkscape:connector-curvature="0"
         id="path4225"
         d="m 232,222 c -15.46397,0 -28,12.53603 -28,28 l 0,15.96094 0,0.0391 c 0,7.13929 5.08382,9.082 8,9.61328 L 212,250 c 0,-11.08 8.92,-20 20,-20 11.08,0 20,8.92 20,20 l 0,25.62305 c 2.91618,-0.53471 8,-2.48376 8,-9.62305 l 0,-16 c 0,-15.46397 -12.53603,-28 -28,-28 z"
         style="fill:#f56e2c;fill-opacity:1;stroke:none" />
    </clipPath>
    <clipPath
       clipPathUnits="userSpaceOnUse"
       id="clipPath4240">
      <path
         style="opacity:1;fill:#f56e2c;fill-opacity:1;stroke:none;stroke-opacity:1"
         d="m 327.99995,198 c -19.944,0 -36,16.056 -36,36 l 0,24 c 0,0 0,12 12,12 l 0.004,0 0,-30 -0.004,0 0,-6 c 0,-13.296 10.704,-24 24,-24 13.296,0 24,10.704 24,24 l 0,3.98046 0.004,0 0,32.01954 c 0.0226,-2e-5 11.9961,-0.012 11.9961,-12 l 0,-6 0,-3 0,-15 c 0,-19.944 -16.056,-36 -36,-36 z"
         id="path4242"
         inkscape:connector-curvature="0" />
    </clipPath>
    <clipPath
       clipPathUnits="userSpaceOnUse"
       id="clipPath4255">
      <path
         inkscape:connector-curvature="0"
         id="path4257"
         d="M 487.9999,112.0001 C 448.11196,112.0001 416,144.11206 416,184 l 0,47.99993 c 0,0 0,23.99997 23.99997,23.99997 l 0.008,0 0,-59.99992 -0.008,0 0,-11.99998 c 0,-26.59196 21.40797,-47.99993 47.99993,-47.99993 26.59197,0 47.99994,21.40797 47.99994,47.99993 l 0,7.96091 0.008,0 0,64.03899 C 536.05304,255.99986 560,255.9759 560,231.99993 l 0,-11.99998 0,-5.99999 L 560,184 c 0,-39.88794 -32.11195,-71.9999 -71.9999,-71.9999 z"
         style="opacity:1;fill:#f56e2c;fill-opacity:1;stroke:none;stroke-opacity:1" />
    </clipPath>
    <clipPath
       clipPathUnits="userSpaceOnUse"
       id="clipPath4270">
      <path
         inkscape:connector-curvature="0"
         id="path4272"
         d="m 159.99805,240.00977 c -9.972,0 -18,8.028 -18,18 l 0,12 c 0,0 0,6 6,6 l 0.002,0 0,-15 -0.002,0 0,-3 c 0,-6.648 5.352,-12 12,-12 6.648,0 12,5.352 12,12 l 0,1.99023 0.002,0 0,16.00977 c 0.0113,-10e-6 5.99805,-0.006 5.99805,-6 l 0,-3 0,-1.5 0,-7.5 c 0,-9.972 -8.028,-18 -18,-18 z"
         style="opacity:1;fill:#f56e2c;fill-opacity:1;stroke:none;stroke-opacity:1" />
    </clipPath>
    <clipPath
       clipPathUnits="userSpaceOnUse"
       id="clipPath4246">
      <path
         sodipodi:nodetypes="sscscssscsss"
         inkscape:connector-curvature="0"
         id="path4248"
         d="m 456,-212 c -123.71176,0 -224,100.28824 -224,224 l 0,127.68752 0,0.3128 c 0,57.11432 40.67056,72.656 64,76.90624 L 296,12 c 0,-88.64 71.36,-160 160,-160 88.64,0 160,71.36 160,160 l 0,204.9844 C 639.32944,212.70672 680,197.11432 680,140 l 0,-128 c 0,-123.71176 -100.28824,-224 -224,-224 z"
         style="fill:#f56e2c;fill-opacity:1;stroke:none" />
    </clipPath>
    <filter
       inkscape:collect="always"
       style="color-interpolation-filters:sRGB"
       id="filter4358"
       x="-0.0228"
       width="1.0456"
       y="-0.025333333"
       height="1.0506667">
      <feGaussianBlur
         inkscape:collect="always"
         stdDeviation="4.56"
         id="feGaussianBlur4360" />
    </filter>
    <filter
       inkscape:collect="always"
       style="color-interpolation-filters:sRGB"
       id="filter4424"
       x="-0.044"
       width="1.088"
       y="-0.094285714"
       height="1.1885714">
      <feGaussianBlur
         inkscape:collect="always"
         stdDeviation="8.8"
         id="feGaussianBlur4426" />
    </filter>
    <clipPath
       clipPathUnits="userSpaceOnUse"
       id="clipPath4430">
      <path
         sodipodi:nodetypes="sscscsssccss"
         inkscape:connector-curvature="0"
         id="path4432"
         d="M 464,48 C 348.768,48 256,140.768 256,256 l 0,64.30078 C 258.63951,320.10183 261.30786,320 264,320 l 40,0 0,-64 c 0,-88.64 71.36,-160 160,-160 88.64,0 160,71.36 160,160 l 0,64 48,0 0,-64 C 672,140.768 579.232,48 464,48 Z"
         style="opacity:1;fill:#6573c3;fill-opacity:1;stroke:none;stroke-width:2.5;stroke-linecap:butt;stroke-linejoin:round;stroke-miterlimit:4;stroke-dasharray:none;stroke-opacity:1" />
    </clipPath>
  </defs>
  <metadata
     id="metadata4">
    <rdf:RDF>
      <cc:Work
         rdf:about="">
        <dc:format>image/svg+xml</dc:format>
        <dc:type
           rdf:resource="http://purl.org/dc/dcmitype/StillImage" />
        <dc:creator>
          <cc:Agent>
            <dc:title>Sam Hewitt</dc:title>
          </cc:Agent>
        </dc:creator>
        <dc:source />
        <cc:license
           rdf:resource="http://creativecommons.org/licenses/by-sa/3.0/" />
        <dc:title>Paper Icon Theme</dc:title>
        <dc:subject>
          <rdf:Bag />
        </dc:subject>
        <dc:date />
        <dc:rights>
          <cc:Agent>
            <dc:title />
          </cc:Agent>
        </dc:rights>
        <dc:publisher>
          <cc:Agent>
            <dc:title />
          </cc:Agent>
        </dc:publisher>
        <dc:identifier />
        <dc:relation />
        <dc:language />
        <dc:coverage />
        <dc:description />
        <dc:contributor>
          <cc:Agent>
            <dc:title />
          </cc:Agent>
        </dc:contributor>
      </cc:Work>
      <cc:Work
         rdf:about="">
        <dc:format>image/svg+xml</dc:format>
        <dc:type
           rdf:resource="http://purl.org/dc/dcmitype/StillImage" />
      </cc:Work>
    </rdf:RDF>
  </metadata>
  <g
     style="display:inline"
     inkscape:groupmode="layer"
     inkscape:label="Icon"
     id="layer1"
     transform="translate(0,244)">
    <g
       style="display:none"
       inkscape:label="Baseplate"
       id="layer7"
       inkscape:groupmode="layer">
      <text
         y="332.48523"
         xml:space="preserve"
         x="15.006836"
         style="font-style:normal;font-variant:normal;font-weight:normal;font-stretch:normal;font-size:18px;font-family:'DejaVu Sans';-inkscape-font-specification:'DejaVu Sans';display:inline;fill:#000000;fill-opacity:1;stroke:none;enable-background:new"
         inkscape:label="context"
         id="context"><tspan
           style="font-style:normal;font-variant:normal;font-weight:normal;font-stretch:normal;font-family:'DejaVu Sans';-inkscape-font-specification:'DejaVu Sans'"
           y="332.48523"
           x="15.006836"
           sodipodi:role="line"
           id="tspan3933">apps</tspan></text>
      <text
         y="332.48523"
         xml:space="preserve"
         x="149.48828"
         style="font-style:normal;font-variant:normal;font-weight:bold;font-stretch:normal;font-size:18px;line-height:125%;font-family:'DejaVu Sans';-inkscape-font-specification:'DejaVu Sans Bold';text-align:start;writing-mode:lr-tb;text-anchor:start;display:inline;fill:#000000;fill-opacity:1;stroke:none;enable-background:new"
         sodipodi:linespacing="125%"
         inkscape:label="icon-name"
         id="icon-name"><tspan
           style="font-style:normal;font-variant:normal;font-weight:bold;font-stretch:normal;font-size:18px;font-family:'DejaVu Sans';-inkscape-font-specification:'DejaVu Sans Bold'"
           y="332.48523"
           x="149.48828"
           sodipodi:role="line"
           id="tspan3937">audacity</tspan></text>
      <rect
         style="display:inline;overflow:visible;visibility:visible;fill:#e9e9e9;fill-opacity:1;fill-rule:nonzero;stroke:none;stroke-width:2;marker:none;enable-background:accumulate"
         id="rect16x16"
         width="16"
         height="16"
         x="-32"
         y="268"
         inkscape:label="16x16"
         transform="scale(-1,1)" />
      <rect
         style="display:inline;overflow:visible;visibility:visible;fill:#e9e9e9;fill-opacity:1;fill-rule:nonzero;stroke:none;stroke-width:2;marker:none;enable-background:accumulate"
         id="rect24x24"
         width="24"
         height="24"
         x="-72"
         y="260"
         inkscape:label="24x24"
         transform="scale(-1,1)" />
      <rect
         style="display:inline;overflow:visible;visibility:visible;fill:#e9e9e9;fill-opacity:1;fill-rule:nonzero;stroke:none;stroke-width:2;marker:none;enable-background:accumulate"
         id="rect32x32"
         width="32"
         height="32"
         x="-128"
         y="252"
         inkscape:label="32x32"
         transform="scale(-1,1)" />
      <rect
         inkscape:label="48x48"
         y="236"
         x="-192"
         height="48"
         width="48"
         id="rect48x48"
         style="display:inline;overflow:visible;visibility:visible;fill:#e9e9e9;fill-opacity:1;fill-rule:nonzero;stroke:none;stroke-width:2;marker:none;enable-background:accumulate"
         transform="scale(-1,1)" />
      <rect
         style="display:inline;overflow:visible;visibility:visible;fill:#e9e9e9;fill-opacity:1;fill-rule:nonzero;stroke:none;stroke-width:2;marker:none;enable-background:accumulate"
         id="rect3951"
         width="512"
         height="512"
         x="-720"
         y="-228"
         inkscape:label="48x48"
         transform="scale(-1,1)" />
    </g>
    <g
       inkscape:groupmode="layer"
       id="layer6"
       inkscape:label="Symbols"
       style="display:inline">
      <g
         id="g4444"
         transform="translate(1,0)">
        <path
           sodipodi:nodetypes="ccccccccccccccccccccc"
           inkscape:connector-curvature="0"
           id="path3229-2"
           d="m 435,-16.25 -8,24 -43.75,132.5 L 279,140 l 0,16 110,0.2496 5.75,0 1.75,-5.5 37.75,-113.75 61,205.25 7,23 8.25,-22.5 32.25,-86.5 L 667,156 l 0,-16 -129.75,0.2496 -5.5,0 -2,5 -25.75,69.5 L 442.25,8 Z"
           style="color:#000000;font-style:normal;font-variant:normal;font-weight:normal;font-stretch:normal;font-size:medium;line-height:normal;font-family:Sans;-inkscape-font-specification:Sans;text-indent:0;text-align:start;text-decoration:none;text-decoration-line:none;letter-spacing:normal;word-spacing:normal;text-transform:none;direction:ltr;block-progression:tb;writing-mode:lr-tb;baseline-shift:baseline;text-anchor:start;display:inline;overflow:visible;visibility:visible;fill:#feea3a;fill-opacity:1;stroke:none;stroke-width:2;marker:none;enable-background:new" />
        <path
           style="color:#000000;font-style:normal;font-variant:normal;font-weight:normal;font-stretch:normal;font-size:medium;line-height:normal;font-family:Sans;-inkscape-font-specification:Sans;text-indent:0;text-align:start;text-decoration:none;text-decoration-line:none;letter-spacing:normal;word-spacing:normal;text-transform:none;direction:ltr;block-progression:tb;writing-mode:lr-tb;baseline-shift:baseline;text-anchor:start;display:inline;overflow:visible;visibility:visible;fill:#fec006;fill-opacity:1;stroke:none;stroke-width:2;marker:none;enable-background:new"
           d="m 435,264.25 -8,-24 L 383.25,107.75 279,108 l 0,-16 110,-0.2496 5.75,0 1.75,5.5 37.75,113.75 61,-205.25 7,-23 8.25,22.5 32.25,86.5 L 667,92 l 0,16 -129.75,-0.2496 -5.5,0 -2,-5 L 504,33.2504 442.25,240 Z"
           id="path4442"
           inkscape:connector-curvature="0"
           sodipodi:nodetypes="ccccccccccccccccccccc" />
      </g>
      <path
         sodipodi:nodetypes="sssccsscssscssscs"
         inkscape:connector-curvature="0"
         id="path4416"
         d="m 158,261 c -4.97056,0 -9,4.02944 -9,9 0,4.97056 4.02944,9 9,9 l 1.96875,0 0,0 c 0,0 1,0 1,-1 l 0,-16 c 0,-0.875 -0.96875,-1 -0.96875,-1 z m 17,1 0,16 c 0,1 1,1 1,1 l 2,0 c 4.97056,0 9,-4.02944 9,-9 0,-4.97056 -4.02944,-9 -9,-9 l -1.9375,0 c 0,0 -1.0625,0 -1.0625,1 z"
         style="opacity:0.2;fill:#000000;fill-opacity:1;stroke:none;stroke-width:4;stroke-linecap:square;stroke-linejoin:round;stroke-miterlimit:4;stroke-dasharray:none;stroke-opacity:1" />
      <path
         style="opacity:0.2;fill:#000000;fill-opacity:1;stroke:none"
         d="m 24,269 c -3.865993,0 -7,3.134 -7,7 l 0,1.36133 A 4,4 0 0 0 16,280 a 4,4 0 0 0 4,4 l 1,0 0,-8 -1,0 a 4,4 0 0 0 -1,0.13281 L 19,276 c 0,-2.77 2.23,-5 5,-5 2.770003,0 5,2.23 5,5 l 0,0.13086 A 4,4 0 0 0 28,276 l -1,0 0,8 1,0 a 4,4 0 0 0 4,-4 4,4 0 0 0 -1,-2.63867 L 31,276 c 0,-3.866 -3.13401,-7 -7,-7 z"
         id="path4397"
         inkscape:connector-curvature="0" />
      <path
         style="color:#000000;font-style:normal;font-variant:normal;font-weight:normal;font-stretch:normal;font-size:medium;line-height:normal;font-family:Sans;-inkscape-font-specification:Sans;text-indent:0;text-align:start;text-decoration:none;text-decoration-line:none;letter-spacing:normal;word-spacing:normal;text-transform:none;direction:ltr;block-progression:tb;writing-mode:lr-tb;baseline-shift:baseline;text-anchor:start;display:inline;overflow:visible;visibility:visible;fill:#fec006;fill-opacity:1;stroke:none;stroke-width:2;marker:none;enable-background:new"
         d="m 114.21714,265.25381 c 1.08361,3.25208 2.15171,6.5093 3.22855,9.76364 2.16797,-0.005 4.33593,-0.0104 6.5039,-0.0156 C 124,274.99985 124,276 124,276 c -2.3411,0.005 -4.93066,0.0122 -7.27176,0.0156 -0.81303,-2.48263 -1.64423,-4.95936 -2.46431,-7.4397 -1.4165,4.74593 -2.81044,9.49865 -4.24235,14.23994 -0.83016,-2.27121 -1.6848,-4.53336 -2.52669,-6.80024 C 103.66326,276.0106 105.83163,276.0052 102,276 l 0,-1 c 3.99437,0.005 2.18679,0.0132 6.18115,0.0174 0.593,1.54315 1.15163,3.09955 1.73125,4.64786 1.43502,-4.80379 2.86905,-9.60788 4.30474,-14.41148 z"
         id="path4594"
         inkscape:connector-curvature="0"
         sodipodi:nodetypes="cccccccccccccc" />
      <path
         sodipodi:nodetypes="cccccccccccccc"
         inkscape:connector-curvature="0"
         id="path4393"
         d="m 110.78286,265.25381 c -1.08361,3.25208 -2.15171,6.5093 -3.22855,9.76364 -2.16797,-0.005 -4.33593,-0.0104 -6.5039,-0.0156 C 101,274.99985 101,276 101,276 c 2.3411,0.005 4.93066,0.0122 7.27176,0.0156 0.81303,-2.48263 1.64423,-4.95936 2.46431,-7.4397 1.4165,4.74593 2.81044,9.49865 4.24235,14.23994 0.83016,-2.27121 1.6848,-4.53336 2.52669,-6.80024 3.83163,-0.005 1.66326,-0.0104 5.49489,-0.0156 l 0,-1 c -3.99437,0.005 -2.18679,0.0132 -6.18115,0.0174 -0.593,1.54315 -1.15163,3.09955 -1.73125,4.64786 -1.43502,-4.80379 -2.86905,-9.60788 -4.30474,-14.41148 z"
         style="color:#000000;font-style:normal;font-variant:normal;font-weight:normal;font-stretch:normal;font-size:medium;line-height:normal;font-family:Sans;-inkscape-font-specification:Sans;text-indent:0;text-align:start;text-decoration:none;text-decoration-line:none;letter-spacing:normal;word-spacing:normal;text-transform:none;direction:ltr;block-progression:tb;writing-mode:lr-tb;baseline-shift:baseline;text-anchor:start;display:inline;overflow:visible;visibility:visible;fill:#feea3a;fill-opacity:1;stroke:none;stroke-width:2;marker:none;enable-background:new" />
      <path
         inkscape:connector-curvature="0"
         id="path4362"
         d="m 464,-192 c -115.232,0 -208,92.768 -208,208 l 0,33.64844 A 112,112 0 0 0 224,128 112,112 0 0 0 336,240 l 16,0 c 8.864,0 16,-7.136 16,-16 l 0,-192 c 0,-8.864 -7.136,-16 -16,-16 l -16,0 a 112,112 0 0 0 -32,4.72266 L 304,16 c 0,-88.64 71.36,-160 160,-160 88.64,0 160,71.36 160,160 l 0,4.75977 A 112,112 0 0 0 592,16 l -16,0 c -8.864,0 -16,7.136 -16,16 l 0,192 c 0,8.864 7.136,16 16,16 l 16,0 A 112,112 0 0 0 704,128 112,112 0 0 0 672,49.76953 L 672,16 c 0,-115.232 -92.768,-208 -208,-208 z"
         style="opacity:0.1;fill:#000000;fill-opacity:1;stroke:#000000;stroke-width:8;stroke-linecap:butt;stroke-linejoin:round;stroke-miterlimit:4;stroke-dasharray:none;stroke-opacity:1;filter:url(#filter4358)"
         transform="matrix(-1,0,0,1,928.00003,0)" />
      <path
         style="opacity:0.2;fill:#000000;fill-opacity:1;stroke:none;stroke-width:2.5;stroke-linecap:butt;stroke-linejoin:round;stroke-miterlimit:4;stroke-dasharray:none;stroke-opacity:1;filter:url(#filter4358)"
         d="m 464,-192 c -115.232,0 -208,92.768 -208,208 l 0,33.64844 A 112,112 0 0 0 224,128 112,112 0 0 0 336,240 l 16,0 c 8.864,0 16,-7.136 16,-16 l 0,-192 c 0,-8.864 -7.136,-16 -16,-16 l -16,0 a 112,112 0 0 0 -32,4.72266 L 304,16 c 0,-88.64 71.36,-160 160,-160 88.64,0 160,71.36 160,160 l 0,4.75977 A 112,112 0 0 0 592,16 l -16,0 c -8.864,0 -16,7.136 -16,16 l 0,192 c 0,8.864 7.136,16 16,16 l 16,0 A 112,112 0 0 0 704,128 112,112 0 0 0 672,49.76953 L 672,16 c 0,-115.232 -92.768,-208 -208,-208 z"
         id="path4353"
         inkscape:connector-curvature="0" />
      <path
         style="color:#000000;font-style:normal;font-variant:normal;font-weight:normal;font-stretch:normal;font-size:medium;line-height:normal;font-family:Sans;-inkscape-font-specification:Sans;text-indent:0;text-align:start;text-decoration:none;text-decoration-line:none;letter-spacing:normal;word-spacing:normal;text-transform:none;direction:ltr;block-progression:tb;writing-mode:lr-tb;baseline-shift:baseline;text-anchor:start;display:inline;overflow:visible;visibility:visible;fill:#fec006;fill-opacity:1;stroke:none;stroke-width:1;marker:none;enable-background:new"
         d="m 61.278109,269.84375 0.5,1.5 1.875,5.65625 4.346891,0 0,1 -4.690641,0 -0.375,0 -0.09375,-0.34375 -1.5,-4.53125 -2.5625,8.53125 -0.34375,1.1875 -0.5625,-1.125 L 55.996859,278 52,278 l 0,-1 4.309359,0 0.3125,0 0.125,0.28125 1.4375,2.90625 2.65625,-8.84375 z"
         id="path3229-0"
         inkscape:connector-curvature="0"
         sodipodi:nodetypes="ccccccccccccccccccccc" />
      <path
         sodipodi:nodetypes="ccccccccccccccccccccc"
         inkscape:connector-curvature="0"
         id="path4292"
         d="m 58.677697,269.84375 -0.5,1.5 L 56.302697,277 52,277 l 0,1 4.646447,0 0.375,0 0.09375,-0.34375 1.5,-4.53125 2.5625,8.53125 0.34375,1.1875 0.5625,-1.125 L 63.958947,278 68,278 l 0,-1 -4.353553,0 -0.3125,0 -0.125,0.28125 -1.4375,2.90625 -2.65625,-8.84375 z"
         style="color:#000000;font-style:normal;font-variant:normal;font-weight:normal;font-stretch:normal;font-size:medium;line-height:normal;font-family:Sans;-inkscape-font-specification:Sans;text-indent:0;text-align:start;text-decoration:none;text-decoration-line:none;letter-spacing:normal;word-spacing:normal;text-transform:none;direction:ltr;block-progression:tb;writing-mode:lr-tb;baseline-shift:baseline;text-anchor:start;display:inline;overflow:visible;visibility:visible;fill:#feea3a;fill-opacity:1;stroke:none;stroke-width:1;marker:none;enable-background:new" />
      <path
         sodipodi:nodetypes="ccccccccccccccccccccc"
         inkscape:connector-curvature="0"
         id="path4289"
         d="m 25.374625,273.125 0.5,1.46875 L 27.343375,279 30,279 l 0,1 -3.000375,0 -0.34375,0 -0.125,-0.34375 -1.09375,-3.28125 -1.96875,6.4375 -0.34375,1.1875 -0.5625,-1.125 L 21.124625,280 18,280 l 0,-1 3.405875,0 0.3125,0 0.125,0.28125 1.03125,2.0625 2.03125,-6.71875 z"
         style="color:#000000;font-style:normal;font-variant:normal;font-weight:normal;font-stretch:normal;font-size:medium;line-height:normal;font-family:Sans;-inkscape-font-specification:Sans;text-indent:0;text-align:start;text-decoration:none;text-decoration-line:none;letter-spacing:normal;word-spacing:normal;text-transform:none;direction:ltr;block-progression:tb;writing-mode:lr-tb;baseline-shift:baseline;text-anchor:start;display:inline;overflow:visible;visibility:visible;fill:#fec006;fill-opacity:1;stroke:none;stroke-width:1;marker:none;enable-background:new" />
      <path
         style="color:#000000;font-style:normal;font-variant:normal;font-weight:normal;font-stretch:normal;font-size:medium;line-height:normal;font-family:Sans;-inkscape-font-specification:Sans;text-indent:0;text-align:start;text-decoration:none;text-decoration-line:none;letter-spacing:normal;word-spacing:normal;text-transform:none;direction:ltr;block-progression:tb;writing-mode:lr-tb;baseline-shift:baseline;text-anchor:start;display:inline;overflow:visible;visibility:visible;fill:#feea3a;fill-opacity:1;stroke:none;stroke-width:1;marker:none;enable-background:new"
         d="m 22.625375,273.125 -0.5,1.46875 L 20.656625,279 18,279 l 0,1 3.000375,0 0.34375,0 0.125,-0.34375 1.09375,-3.28125 1.96875,6.4375 0.34375,1.1875 0.5625,-1.125 1.4375,-2.875 3.124625,0 0,-1 -3.405875,0 -0.3125,0 -0.125,0.28125 -1.03125,2.0625 -2.03125,-6.71875 z"
         id="path4608"
         inkscape:connector-curvature="0"
         sodipodi:nodetypes="ccccccccccccccccccccc" />
      <path
         id="path4226"
         d="m 168,243 c -8.864,0 -16,7.136 -16,16 l 0,12 c 0,1.85591 0.32828,3.62844 0.9043,5.2832 0.79637,0.43848 1.79854,0.72657 3.09375,0.72657 l 0.002,0 0,-15 -0.002,0 0,-3 c 0,-6.648 5.352,-12 12,-12 6.648,0 12,5.352 12,12 l 0,1.99023 0.002,0 0,16.00977 c 0.006,-10e-6 1.59154,-0.008 3.13086,-0.82422 C 183.68528,274.55865 184,272.81922 184,271 l 0,-12 c 0,-8.864 -7.136,-16 -16,-16 z"
         style="opacity:0.2;fill:#000000;fill-opacity:1;stroke:none;stroke-opacity:1"
         inkscape:connector-curvature="0" />
      <path
         style="color:#000000;font-style:normal;font-variant:normal;font-weight:normal;font-stretch:normal;font-size:medium;line-height:normal;font-family:Sans;-inkscape-font-specification:Sans;text-indent:0;text-align:start;text-decoration:none;text-decoration-line:none;letter-spacing:normal;word-spacing:normal;text-transform:none;direction:ltr;block-progression:tb;writing-mode:lr-tb;baseline-shift:baseline;text-anchor:start;display:inline;overflow:visible;visibility:visible;fill:#fec006;fill-opacity:1;stroke:none;stroke-width:1;marker:none;enable-background:new"
         d="m 165.5313,280.15625 c -1.46059,-4.38467 -2.91638,-8.77093 -4.375,-13.15625 l -5.15625,0 0,-1 5.875,0 c 1.16075,3.63623 2.40188,7.24816 3.5937,10.875 1.98526,-6.64711 4.00759,-13.2833 5.96875,-19.9375 1.16155,3.0109 2.26848,6.04256 3.40625,9.0625 l 5.15625,0 5e-5,1 -5.8438,0 c -0.87941,-2.30677 -1.72677,-4.62593 -2.59375,-6.9375 -2.00677,6.69895 -4.04538,13.38872 -6.0312,20.09375 z"
         id="path3229"
         inkscape:connector-curvature="0"
         sodipodi:nodetypes="ccccccccccccc" />
      <path
         sodipodi:nodetypes="ccccccccccccc"
         inkscape:connector-curvature="0"
         id="path4229"
         d="m 165.53125,256.84375 c -1.46059,4.38467 -2.91638,8.77093 -4.375,13.15625 L 156,270 l 0,1 5.875,0 c 1.16075,-3.63623 2.40188,-7.24816 3.5937,-10.875 1.98526,6.64711 4.00759,13.2833 5.96875,19.9375 1.16155,-3.0109 2.26848,-6.04256 3.40625,-9.0625 l 5.15625,0 5e-5,-1 -5.8438,0 c -0.87941,2.30677 -1.72677,4.62593 -2.59375,6.9375 -2.00677,-6.69895 -4.04538,-13.38872 -6.0312,-20.09375 z"
         style="color:#000000;font-style:normal;font-variant:normal;font-weight:normal;font-stretch:normal;font-size:medium;line-height:normal;font-family:Sans;-inkscape-font-specification:Sans;text-indent:0;text-align:start;text-decoration:none;text-decoration-line:none;letter-spacing:normal;word-spacing:normal;text-transform:none;direction:ltr;block-progression:tb;writing-mode:lr-tb;baseline-shift:baseline;text-anchor:start;display:inline;overflow:visible;visibility:visible;fill:#feea3a;fill-opacity:1;stroke:none;stroke-width:1;marker:none;enable-background:new" />
      <path
         style="opacity:0.2;fill:#000000;fill-opacity:1;stroke:none;stroke-opacity:1"
         d="m 59.998047,265.00391 c -3.324,0 -6,2.676 -6,6 l 0,1 c 0,-3.324 2.676,-6 6,-6 3.32268,0 5.997876,2.67392 6,5.99609 l 0,-0.99609 c 0,-3.324 -2.676,-6 -6,-6 z m 6,6.99609 c 10e-7,10e-4 0,0.003 0,0.004 l 0,0.99609 0.002,0 0,-1 -0.002,0 z m -15,5.00391 0,1 c 0,0 0,3 3,3 l 0.002,0 0,-1 -0.002,0 c -3,0 -3,-3 -3,-3 z m 18,0 c 0,2.997 -2.992347,3 -2.998047,3 l 0,1 c 0.0057,0 2.998047,-0.003 2.998047,-3 l 0,-1 z"
         id="path4237"
         inkscape:connector-curvature="0" />
      <g
         style="opacity:0.2;fill:#000000;fill-opacity:1;stroke:#000000;stroke-width:4;stroke-miterlimit:4;stroke-dasharray:none;stroke-opacity:1"
         id="g4334"
         transform="matrix(0.5,0,0,0.5,-20.000975,142)" />
      <g
         transform="matrix(0.5,0,0,0.5,-20.000975,142)"
         id="g4328"
         style="opacity:0.2;fill:#000000;fill-opacity:1" />
      <path
         style="opacity:1;fill:#3e50b4;fill-opacity:1;stroke:none;stroke-opacity:1"
         d="m 168,486 c -8.864,0 -16,7.136 -16,16 l 0,8 3.99805,0 0,-7.99023 c 0,-6.648 5.352,-12 12,-12 6.648,0 12,5.352 12,12 l 0,7.99023 0.002,0 4,0 0,-8 c 0,-8.864 -7.136,-16 -16,-16 z"
         transform="translate(0,-244)"
         id="rect10440"
         inkscape:connector-curvature="0"
         sodipodi:nodetypes="ssccssscccss" />
      <path
         inkscape:connector-curvature="0"
         id="path4291"
         d="m 112,252 c -7.73198,0 -14,6.26801 -14,14 l 0,8.98047 0,0.0195 c 0,3.56964 2.54191,4.541 4,4.80664 L 102,266 c 0,-5.54 4.46,-10 10,-10 5.54,0 10,4.46 10,10 l 0,13.81153 c 1.45809,-0.26736 4,-1.24188 4,-4.81153 l 0,-9 c 0,-7.73199 -6.26802,-14 -14,-14 z"
         style="fill:#3e50b4;fill-opacity:1;stroke:none"
         sodipodi:nodetypes="sscscssscsss" />
      <path
         style="opacity:0.2;fill:#ffffff;fill-opacity:1;stroke:none"
         d="m 112,252 c -7.73198,0 -14,6.26801 -14,14 l 0,1 c 0,-7.73199 6.26802,-14 14,-14 7.73198,0 14,6.26801 14,14 l 0,-1 c 0,-7.73199 -6.26802,-14 -14,-14 z"
         id="path4309"
         inkscape:connector-curvature="0"
         sodipodi:nodetypes="sscscss" />
      <path
         inkscape:connector-curvature="0"
         id="path4320"
         d="m 59.99805,262.00488 c -4.986,0 -9,4.014 -9,9 l 0,6 c 0,0 0,3 3,3 l 10e-4,0 0,-7.5 -10e-4,0 0,-1.5 c 0,-3.324 2.676,-6 6,-6 3.324,0 6,2.676 6,6 l 0,0.99512 10e-4,0 0,8.00488 c 0.0057,0 2.999025,-0.003 2.999025,-3 l 0,-1.5 0,-0.75 0,-3.75 c 0,-4.986 -4.014,-9 -9,-9 z"
         style="opacity:1;fill:#3e50b4;fill-opacity:1;stroke:none;stroke-opacity:1"
         sodipodi:nodetypes="sscscccssscccsccsss" />
      <path
         style="opacity:0.1;fill:#ffffff;fill-opacity:1;stroke:none;stroke-opacity:1"
         d="m 59.998047,186.00391 c -4.986,0 -9,4.014 -9,9 l 0,1 c 0,-4.986 4.014,-9 9,-9 4.986,0 9,4.014 9,9 l 0,-1 c 0,-4.986 -4.014,-9 -9,-9 z m -6,10.5 0,-1 0.002,0 0,1 z"
         transform="translate(0,76)"
         id="path4342"
         inkscape:connector-curvature="0"
         sodipodi:nodetypes="sscscssccccc" />
      <path
         style="fill:#3e50b4;fill-opacity:1;stroke:none"
         d="m 24,268 c -3.865993,0 -7,3.134 -7,7 l 0,4.49024 0,0.01 c 0,1.78483 1.270955,2.27051 2,2.40333 l 0,-6.90331 c 0,-2.77 2.23,-5 5,-5 2.770003,0 5,2.23 5,5 l 0,6.90577 c 0.72904,-0.13364 2,-0.62091 2,-2.40573 l 0,-4.5 c 0,-3.866 -3.13401,-7 -7,-7 z"
         id="path4352"
         inkscape:connector-curvature="0" />
      <path
         style="opacity:0.2;fill:#000000;fill-opacity:1;stroke:none"
         d="m 112,256 c -5.54,0 -10,4.46 -10,10 l 0,1 c 0,-5.54 4.46,-10 10,-10 5.54,0 10,4.46 10,10 l 0,-1 c 0,-5.54 -4.46,-10 -10,-10 z m -14,19 0,0.98047 0,0.0195 c 0,3.56964 2.54191,4.541 4,4.80664 l 0,-1 C 100.54191,279.541 98,278.56964 98,275 Z m 28,0 c 0,3.56965 -2.54191,4.54319 -4,4.81055 l 0,1.00195 c 1.45809,-0.26736 4,-1.24285 4,-4.8125 l 0,-1 z"
         id="path4235"
         inkscape:connector-curvature="0" />
      <path
         style="opacity:1;fill:#3e50b4;fill-opacity:1;stroke:none;stroke-width:4;stroke-linecap:square;stroke-linejoin:round;stroke-miterlimit:4;stroke-dasharray:none;stroke-opacity:1"
         d="m 158,260 c -4.97056,0 -9,4.02944 -9,9 0,4.97056 4.02944,9 9,9 l 1.96875,0 0,0 c 0,0 1,0 1,-1 l 0,-16 c 0,-0.875 -0.96875,-1 -0.96875,-1 z m 17,1 0,16 c 0,1 1,1 1,1 l 2,0 c 4.97056,0 9,-4.02944 9,-9 0,-4.97056 -4.02944,-9 -9,-9 l -1.9375,0 c 0,0 -1.0625,0 -1.0625,1 z"
         id="path4267"
         inkscape:connector-curvature="0"
         sodipodi:nodetypes="sssccsscssscssscs" />
      <path
         style="opacity:0.2;fill:#ffffff;fill-opacity:1;stroke:none;stroke-opacity:1"
         d="m 168,242 c -8.864,0 -16,7.136 -16,16 l 0,1 c 0,-8.864 7.136,-16 16,-16 8.864,0 16,7.136 16,16 l 0,-1 c 0,-8.864 -7.136,-16 -16,-16 z m -12.00195,19.00977 0,1 0.002,0 0,-1 -0.002,0 z"
         id="path4213"
         inkscape:connector-curvature="0" />
      <path
         style="opacity:0.2;fill:#000000;fill-opacity:1;stroke:none;stroke-width:4;stroke-linecap:square;stroke-linejoin:round;stroke-miterlimit:4;stroke-dasharray:none;stroke-opacity:1"
         d="m 54.5,273 c -2.485281,0 -4.5,2.01472 -4.5,4.5 0,2.48528 2.014719,4.5 4.5,4.5 l 0.5,0 0.5,0 c 0,0 0.5,0 0.5,-0.5 l 0,-8 C 56,273.0625 55.53125,273 55.53125,273 L 55,273 Z m 10.0625,0 c 0,0 -0.5625,0 -0.5625,0.5 l 0,8 c 0,0.5 0.5,0.5 0.5,0.5 l 0.5,0 10e-7,0 0.5,0 c 2.485281,0 4.5,-2.01472 4.5,-4.5 0,-2.48528 -2.014719,-4.5 -4.5,-4.5 l -0.5,0 -10e-7,0 z"
         id="path4236"
         inkscape:connector-curvature="0"
         sodipodi:nodetypes="sssccssccscsscccsssccc" />
      <path
         inkscape:connector-curvature="0"
         id="path4233"
         d="m 54.5,272 c -2.485281,0 -4.5,2.01472 -4.5,4.5 0,2.48528 2.014719,4.5 4.5,4.5 l 0.5,0 0.5,0 c 0,0 0.5,0 0.5,-0.5 l 0,-8 C 56,272.0625 55.53125,272 55.53125,272 L 55,272 Z m 10.0625,0 c 0,0 -0.5625,0 -0.5625,0.5 l 0,8 c 0,0.5 0.5,0.5 0.5,0.5 l 0.5,0 10e-7,0 0.5,0 c 2.485281,0 4.5,-2.01472 4.5,-4.5 0,-2.48528 -2.014719,-4.5 -4.5,-4.5 l -0.5,0 -10e-7,0 z"
         style="opacity:1;fill:#3e50b4;fill-opacity:1;stroke:none;stroke-width:4;stroke-linecap:square;stroke-linejoin:round;stroke-miterlimit:4;stroke-dasharray:none;stroke-opacity:1"
         sodipodi:nodetypes="sssccssccscsscccsssccc" />
      <path
         style="opacity:0.2;fill:#ffffff;fill-opacity:1;stroke:none;stroke-width:4;stroke-linecap:square;stroke-linejoin:round;stroke-miterlimit:4;stroke-dasharray:none;stroke-opacity:1"
         d="m 54.5,516 c -2.485281,0 -4.5,2.01472 -4.5,4.5 0.0013,0.17107 0.01242,0.34192 0.0332,0.51172 C 50.28209,518.73149 52.206235,517.00338 54.5,517 l 0.5,0 0.53125,0 c 0,0 0.46875,0.0625 0.46875,0.5 l 0,-1 C 56,516.0625 55.53125,516 55.53125,516 L 55,516 Z m 10.0625,0 c 0,0 -0.5625,0 -0.5625,0.5 l 0,1 c 0,-0.5 0.5625,-0.5 0.5625,-0.5 l 0.4375,0 10e-7,0 0.5,0 c 2.28576,0.002 4.206872,1.71735 4.466797,3.98828 0.01992,-0.16204 0.031,-0.32504 0.0332,-0.48828 0,-2.48528 -2.014719,-4.5 -4.5,-4.5 l -0.5,0 -1e-6,0 z"
         transform="translate(0,-244)"
         id="path4243"
         inkscape:connector-curvature="0"
         sodipodi:nodetypes="sccccccsccscscccccccsccc" />
      <path
         style="opacity:1;fill:#3e50b4;fill-opacity:1;stroke:none;stroke-width:2.5;stroke-linecap:butt;stroke-linejoin:round;stroke-miterlimit:4;stroke-dasharray:none;stroke-opacity:1"
         d="m 20,275 a 4,4 0 0 0 -4,4 4,4 0 0 0 4,4 l 1,0 0,-8 -1,0 z m 7,0 0,8 1,0 a 4,4 0 0 0 4,-4 4,4 0 0 0 -4,-4 l -1,0 z"
         id="path4260"
         inkscape:connector-curvature="0" />
      <path
         style="opacity:0.2;fill:#ffffff;fill-opacity:1;stroke:none;stroke-width:2.5;stroke-linecap:butt;stroke-linejoin:round;stroke-miterlimit:4;stroke-dasharray:none;stroke-opacity:1"
         d="m 20,275 a 4,4 0 0 0 -4,4 4,4 0 0 0 0.03516,0.50586 A 4,4 0 0 1 20,276 l 1,0 0,-1 -1,0 z m 7,0 0,1 1,0 a 4,4 0 0 1 3.964844,3.49414 A 4,4 0 0 0 32,279 4,4 0 0 0 28,275 l -1,0 z"
         id="path4273"
         inkscape:connector-curvature="0" />
      <path
         style="fill:#ffffff;fill-opacity:1;stroke:none;opacity:0.2"
         d="M 24 512 C 20.134007 512 17 515.134 17 519 L 17 520 C 17 516.134 20.134007 513 24 513 C 27.86599 513 31 516.134 31 520 L 31 519 C 31 515.134 27.86599 512 24 512 z "
         transform="translate(0,-244)"
         id="path4278" />
      <path
         style="opacity:1;fill:#3e50b4;fill-opacity:1;stroke:none;stroke-width:2.5;stroke-linecap:butt;stroke-linejoin:round;stroke-miterlimit:4;stroke-dasharray:none;stroke-opacity:1"
         d="M 464,48 C 348.768,48 256,140.768 256,256 l 0,64.30078 C 258.63951,320.10183 261.30786,320 264,320 l 40,0 0,-64 c 0,-88.64 71.36,-160 160,-160 88.64,0 160,71.36 160,160 l 0,64 48,0 0,-64 C 672,140.768 579.232,48 464,48 Z"
         transform="translate(0,-244)"
         id="rect4305"
         inkscape:connector-curvature="0"
         sodipodi:nodetypes="sscscsssccss" />
      <path
         transform="translate(0,-244)"
         id="path4422"
         d="M 336 256 A 112 112 0 0 0 224 368 A 112 112 0 0 0 336 480 L 352 480 C 360.864 480 368 472.864 368 464 L 368 272 C 368 263.136 360.864 256 352 256 L 336 256 z M 576 256 C 567.136 256 560 263.136 560 272 L 560 464 C 560 472.864 567.136 480 576 480 L 592 480 A 112 112 0 0 0 704 368 A 112 112 0 0 0 592 256 L 576 256 z "
         style="opacity:0.2;fill:#000000;fill-opacity:1;stroke:none;stroke-width:2.5;stroke-linecap:butt;stroke-linejoin:round;stroke-miterlimit:4;stroke-dasharray:none;stroke-opacity:1;filter:url(#filter4424)"
         clip-path="url(#clipPath4430)" />
      <path
         style="opacity:1;fill:#3e50b4;fill-opacity:1;stroke:none;stroke-width:2.5;stroke-linecap:butt;stroke-linejoin:round;stroke-miterlimit:4;stroke-dasharray:none;stroke-opacity:1"
         d="M 336 256 A 112 112 0 0 0 224 368 A 112 112 0 0 0 336 480 L 352 480 C 360.864 480 368 472.864 368 464 L 368 272 C 368 263.136 360.864 256 352 256 L 336 256 z M 576 256 C 567.136 256 560 263.136 560 272 L 560 464 C 560 472.864 567.136 480 576 480 L 592 480 A 112 112 0 0 0 704 368 A 112 112 0 0 0 592 256 L 576 256 z "
         id="path4317"
         transform="translate(0,-244)" />
      <path
         style="opacity:0.2;fill:#ffffff;fill-opacity:1;stroke:none;stroke-width:2.5;stroke-linecap:butt;stroke-linejoin:round;stroke-miterlimit:4;stroke-dasharray:none;stroke-opacity:1"
         d="M 336 256 A 112 112 0 0 0 224 368 A 112 112 0 0 0 224.04102 368.83008 A 112 112 0 0 1 336 258 L 352 258 C 360.864 258 368 265.136 368 274 L 368 272 C 368 263.136 360.864 256 352 256 L 336 256 z M 576 256 C 567.136 256 560 263.136 560 272 L 560 274 C 560 265.136 567.136 258 576 258 L 592 258 A 112 112 0 0 1 703.95898 369.16992 A 112 112 0 0 0 704 368 A 112 112 0 0 0 592 256 L 576 256 z "
         transform="translate(0,-244)"
         id="path4343" />
      <path
         style="opacity:0.2;fill:#ffffff;fill-opacity:1;stroke:none;stroke-width:2.5;stroke-linecap:butt;stroke-linejoin:round;stroke-miterlimit:4;stroke-dasharray:none;stroke-opacity:1"
         d="M 464 48 C 348.768 48 256 140.768 256 256 L 256 258 C 256 142.768 348.768 50 464 50 C 579.232 50 672 142.768 672 258 L 672 256 C 672 140.768 579.232 48 464 48 z "
         transform="translate(0,-244)"
         id="path4348" />
      <path
         sodipodi:nodetypes="sssccccscccssscc"
         inkscape:connector-curvature="0"
         id="path4403"
         d="m 104,268 c -4.418278,0 -8,3.58172 -8,8 0,4.41828 3.581722,8 8,8 l 1,0 c 0,0 1,0 1,-1 l 0,-14 c 0,-1 -1,-1 -1,-1 z m 14,1 0,14 c 0,1 1,1 1,1 l 1,0 c 4.41828,0 8,-3.58172 8,-8 0,-4.41828 -3.58172,-8 -8,-8 l -1,0 c 0,0 -1,0 -1,1 z"
         style="opacity:0.2;fill:#000000;fill-opacity:1;stroke:none;stroke-width:2.5;stroke-linecap:butt;stroke-linejoin:round;stroke-miterlimit:4;stroke-dasharray:none;stroke-opacity:1" />
      <path
         style="opacity:1;fill:#3e50b4;fill-opacity:1;stroke:none;stroke-width:2.5;stroke-linecap:butt;stroke-linejoin:round;stroke-miterlimit:4;stroke-dasharray:none;stroke-opacity:1"
         d="m 104,267 c -4.418278,0 -8,3.58172 -8,8 0,4.41828 3.581722,8 8,8 l 1,0 c 0,0 1,0 1,-1 l 0,-14 c 0,-1 -1,-1 -1,-1 z m 14,1 0,14 c 0,1 1,1 1,1 l 1,0 c 4.41828,0 8,-3.58172 8,-8 0,-4.41828 -3.58172,-8 -8,-8 l -1,0 c 0,0 -1,0 -1,1 z"
         id="path4378"
         inkscape:connector-curvature="0"
         sodipodi:nodetypes="sssccccscccssscc" />
      <path
         style="opacity:0.2;fill:#ffffff;fill-opacity:1;stroke:none;stroke-width:2.5;stroke-linecap:butt;stroke-linejoin:round;stroke-miterlimit:4;stroke-dasharray:none;stroke-opacity:1"
         d="M 104 511 C 99.581722 511 96 514.58172 96 519 C 96 519.16872 96.015097 519.33387 96.025391 519.5 C 96.284647 515.31575 99.750445 512 104 512 L 105 512 C 105 512 106 512 106 513 L 106 512 C 106 511 105 511 105 511 L 104 511 z M 119 511 C 119 511 118 511 118 512 L 118 513 C 118 512 119 512 119 512 L 120 512 C 124.24956 512 127.71535 515.31575 127.97461 519.5 C 127.9849 519.33387 128 519.16872 128 519 C 128 514.58172 124.41828 511 120 511 L 119 511 z "
         transform="translate(0,-244)"
         id="path4407" />
      <path
         style="opacity:0.2;fill:#ffffff;fill-opacity:1;stroke:none;stroke-width:4;stroke-linecap:square;stroke-linejoin:round;stroke-miterlimit:4;stroke-dasharray:none;stroke-opacity:1"
         d="m 158,504 c -4.97056,0 -9,4.02944 -9,9 0,0.16885 0.0162,0.33344 0.0254,0.5 0.26102,-4.7365 4.1729,-8.5 8.97461,-8.5 l 2,0 c 0,0 0.96875,0.125 0.96875,1 l 0,-1 c 0,-0.875 -0.96875,-1 -0.96875,-1 z m 18.0625,0 c 0,0 -1.0625,0 -1.0625,1 l 0,1 c 0,-1 1.0625,-1 1.0625,-1 L 178,505 c 4.80171,0 8.71359,3.7635 8.97461,8.5 0.009,-0.16656 0.0254,-0.33115 0.0254,-0.5 0,-4.97056 -4.02944,-9 -9,-9 z"
         transform="translate(0,-244)"
         id="path4411"
         inkscape:connector-curvature="0"
         sodipodi:nodetypes="sscsccscscsccscssc" />
    </g>
  </g>
</svg>
