<?xml version="1.0" encoding="UTF-8" standalone="no"?>
<!-- Created with Inkscape (http://www.inkscape.org/) -->

<svg
   xmlns:osb="http://www.openswatchbook.org/uri/2009/osb"
   xmlns:dc="http://purl.org/dc/elements/1.1/"
   xmlns:cc="http://creativecommons.org/ns#"
   xmlns:rdf="http://www.w3.org/1999/02/22-rdf-syntax-ns#"
   xmlns:svg="http://www.w3.org/2000/svg"
   xmlns="http://www.w3.org/2000/svg"
   xmlns:sodipodi="http://sodipodi.sourceforge.net/DTD/sodipodi-0.dtd"
   xmlns:inkscape="http://www.inkscape.org/namespaces/inkscape"
   inkscape:export-ydpi="90.000000"
   inkscape:export-xdpi="90.000000"
   width="736"
   height="544"
   id="svg11300"
   sodipodi:version="0.32"
   inkscape:version="0.91 r13725"
   sodipodi:docname="bleachbit.svg"
   inkscape:output_extension="org.inkscape.output.svg.inkscape"
   version="1.0"
   style="display:inline;enable-background:new"
   inkscape:export-filename="/home/sam/paper-template.png">
  <title
     id="title3004">Paper Icon Theme</title>
  <sodipodi:namedview
     stroke="#ef2929"
     fill="#f57900"
     id="base"
     pagecolor="#474747"
     bordercolor="#666666"
     borderopacity="0.25490196"
     inkscape:pageopacity="0"
     inkscape:pageshadow="2"
     inkscape:zoom="1"
     inkscape:cx="332.80001"
     inkscape:cy="258.8"
     inkscape:current-layer="layer6"
     showgrid="false"
     inkscape:grid-bbox="true"
     inkscape:document-units="px"
     inkscape:showpageshadow="false"
     inkscape:window-width="1920"
     inkscape:window-height="1023"
     inkscape:window-x="0"
     inkscape:window-y="27"
     width="400px"
     height="300px"
     inkscape:snap-nodes="true"
     inkscape:snap-bbox="true"
     gridtolerance="10000"
     inkscape:object-nodes="true"
     inkscape:snap-grids="true"
     showguides="true"
     inkscape:guide-bbox="true"
     inkscape:window-maximized="1"
     inkscape:bbox-nodes="true"
     inkscape:snap-bbox-edge-midpoints="true"
     inkscape:snap-bbox-midpoints="true">
    <inkscape:grid
       spacingy="1px"
       spacingx="1px"
       id="grid5883"
       type="xygrid"
       enabled="true"
       visible="true"
       empspacing="4"
       snapvisiblegridlinesonly="true" />
    <inkscape:grid
       type="xygrid"
       id="grid11592"
       empspacing="2"
       visible="true"
       enabled="false"
       spacingx="0.5px"
       spacingy="0.5px"
       color="#ff0000"
       opacity="0.1254902"
       empcolor="#ff0000"
       empopacity="0.25098039"
       snapvisiblegridlinesonly="true" />
  </sodipodi:namedview>
  <defs
     id="defs3">
    <clipPath
       clipPathUnits="userSpaceOnUse"
       id="clipPath4193">
      <rect
         transform="matrix(0,-1,-1,0,0,0)"
         style="fill:#c03630;fill-opacity:1;stroke:none"
         id="rect4195"
         width="56"
         height="56"
         x="-280"
         y="-260"
         rx="3"
         ry="3" />
    </clipPath>
    <clipPath
       clipPathUnits="userSpaceOnUse"
       id="clipPath4255">
      <rect
         ry="2"
         rx="2"
         y="-180"
         x="-280"
         height="40"
         width="40"
         id="rect4257"
         style="fill:#c03630;fill-opacity:1;stroke:none"
         transform="matrix(0,-1,-1,0,0,0)" />
    </clipPath>
    <clipPath
       clipPathUnits="userSpaceOnUse"
       id="clipPath4275">
      <rect
         ry="1"
         rx="1"
         y="-32"
         x="-284"
         height="16"
         width="16"
         id="rect4277"
         style="display:inline;fill:#c03630;fill-opacity:1;stroke:none;enable-background:new"
         transform="matrix(0,-1,-1,0,0,0)" />
    </clipPath>
    <linearGradient
       osb:paint="solid"
       id="linearGradient5606">
      <stop
         style="stop-color:#000000;stop-opacity:1;"
         offset="0"
         id="stop5608" />
    </linearGradient>
    <clipPath
       clipPathUnits="userSpaceOnUse"
       id="clipPath4266-4">
      <path
         id="path4268-0"
         d="m 146,240 c -1.108,0 -2,0.892 -2,2 l 0,36 c 0,1.108 0.892,2 2,2 l 28,0 c 1.108,0 2,-0.892 2,-2 l 0,-26 -12,-12 -18,0 z"
         style="fill:#ffffff;fill-opacity:1;stroke:none"
         inkscape:connector-curvature="0" />
    </clipPath>
    <clipPath
       clipPathUnits="userSpaceOnUse"
       id="clipPath4140-8">
      <path
         id="path4142-3"
         d="m 213,224 c -1.662,0 -3,1.338 -3,3 l 0,50 c 0,1.662 1.338,3 3,3 l 38,0 c 1.662,0 3,-1.338 3,-3 l 0,-35 -18,-18 -23,0 z"
         style="fill:#e1e1e1;fill-opacity:1;stroke:none"
         inkscape:connector-curvature="0" />
    </clipPath>
    <clipPath
       clipPathUnits="userSpaceOnUse"
       id="clipPath4168">
      <path
         id="path4170"
         d="m 94.5,254 c -0.831,0 -1.5,0.669 -1.5,1.5 l 0,25 c 0,0.831 0.669,1.5 1.5,1.5 l 19,0 c 0.831,0 1.5,-0.669 1.5,-1.5 l 0,-18.5 -8,-8 -12.5,0 z"
         style="fill:#e1e1e1;fill-opacity:1;stroke:none"
         inkscape:connector-curvature="0" />
    </clipPath>
    <clipPath
       clipPathUnits="userSpaceOnUse"
       id="clipPath4278">
      <path
         sodipodi:nodetypes="ssssssccs"
         style="fill:#e1e1e1;fill-opacity:1;stroke:none"
         d="m 300,196 c -2.216,0 -4,1.784 -4,4 l 0,72 c 0,2.216 1.784,4 4,4 l 56,0 c 2.216,0 4,-1.784 4,-4 l 0,-52 -24,-24 z"
         id="path4280"
         inkscape:connector-curvature="0" />
    </clipPath>
    <clipPath
       clipPathUnits="userSpaceOnUse"
       id="clipPath4754">
      <path
         sodipodi:nodetypes="ssssssccs"
         style="fill:#e1e1e1;fill-opacity:1;stroke:none"
         d="m 300,196 c -2.216,0 -4,1.784 -4,4 l 0,72 c 0,2.216 1.784,4 4,4 l 56,0 c 2.216,0 4,-1.784 4,-4 l 0,-52 -24,-24 z"
         id="path4756"
         inkscape:connector-curvature="0" />
    </clipPath>
    <filter
       inkscape:collect="always"
       style="color-interpolation-filters:sRGB"
       id="filter4862"
       x="-0.027272727"
       width="1.0545455"
       y="-0.021428571"
       height="1.0428571">
      <feGaussianBlur
         inkscape:collect="always"
         stdDeviation="4"
         id="feGaussianBlur4864" />
    </filter>
  </defs>
  <metadata
     id="metadata4">
    <rdf:RDF>
      <cc:Work
         rdf:about="">
        <dc:format>image/svg+xml</dc:format>
        <dc:type
           rdf:resource="http://purl.org/dc/dcmitype/StillImage" />
        <dc:creator>
          <cc:Agent>
            <dc:title>Sam Hewitt</dc:title>
          </cc:Agent>
        </dc:creator>
        <dc:source />
        <cc:license
           rdf:resource="http://creativecommons.org/licenses/by-sa/3.0/" />
        <dc:title>Paper Icon Theme</dc:title>
        <dc:subject>
          <rdf:Bag />
        </dc:subject>
        <dc:date />
        <dc:rights>
          <cc:Agent>
            <dc:title />
          </cc:Agent>
        </dc:rights>
        <dc:publisher>
          <cc:Agent>
            <dc:title />
          </cc:Agent>
        </dc:publisher>
        <dc:identifier />
        <dc:relation />
        <dc:language />
        <dc:coverage />
        <dc:description />
        <dc:contributor>
          <cc:Agent>
            <dc:title />
          </cc:Agent>
        </dc:contributor>
      </cc:Work>
      <cc:Work
         rdf:about="">
        <dc:format>image/svg+xml</dc:format>
        <dc:type
           rdf:resource="http://purl.org/dc/dcmitype/StillImage" />
      </cc:Work>
    </rdf:RDF>
  </metadata>
  <g
     style="display:inline"
     inkscape:groupmode="layer"
     inkscape:label="Icon"
     id="layer1"
     transform="translate(0,244)">
    <g
       style="display:none"
       inkscape:label="Baseplate"
       id="layer7"
       inkscape:groupmode="layer">
      <text
         y="332.76685"
         xml:space="preserve"
         x="15.006836"
         style="font-style:normal;font-variant:normal;font-weight:normal;font-stretch:normal;font-size:18px;font-family:'DejaVu Sans';-inkscape-font-specification:'DejaVu Sans';display:inline;fill:#000000;fill-opacity:1;stroke:none;enable-background:new"
         inkscape:label="context"
         id="context"><tspan
           style="font-style:normal;font-variant:normal;font-weight:normal;font-stretch:normal;font-family:'DejaVu Sans';-inkscape-font-specification:'DejaVu Sans'"
           y="332.76685"
           x="15.006836"
           sodipodi:role="line"
           id="tspan3933">apps</tspan></text>
      <text
         y="332.76685"
         xml:space="preserve"
         x="142.48828"
         style="font-style:normal;font-variant:normal;font-weight:bold;font-stretch:normal;font-size:18px;line-height:125%;font-family:'DejaVu Sans';-inkscape-font-specification:'DejaVu Sans Bold';text-align:start;writing-mode:lr-tb;text-anchor:start;display:inline;fill:#000000;fill-opacity:1;stroke:none;enable-background:new"
         sodipodi:linespacing="125%"
         inkscape:label="icon-name"
         id="icon-name"><tspan
           style="font-style:normal;font-variant:normal;font-weight:bold;font-stretch:normal;font-size:18px;font-family:'DejaVu Sans';-inkscape-font-specification:'DejaVu Sans Bold'"
           y="332.76685"
           x="142.48828"
           sodipodi:role="line"
           id="tspan3937">bleachbit</tspan></text>
      <rect
         style="display:inline;overflow:visible;visibility:visible;fill:#e9e9e9;fill-opacity:1;fill-rule:nonzero;stroke:none;stroke-width:2;marker:none;enable-background:accumulate"
         id="rect16x16"
         width="16"
         height="16"
         x="-32"
         y="268"
         inkscape:label="16x16"
         transform="scale(-1,1)" />
      <rect
         style="display:inline;overflow:visible;visibility:visible;fill:#e9e9e9;fill-opacity:1;fill-rule:nonzero;stroke:none;stroke-width:2;marker:none;enable-background:accumulate"
         id="rect24x24"
         width="24"
         height="24"
         x="-76"
         y="260"
         inkscape:label="24x24"
         transform="scale(-1,1)" />
      <rect
         style="display:inline;overflow:visible;visibility:visible;fill:#e9e9e9;fill-opacity:1;fill-rule:nonzero;stroke:none;stroke-width:2;marker:none;enable-background:accumulate"
         id="rect32x32"
         width="32"
         height="32"
         x="-128"
         y="252"
         inkscape:label="32x32"
         transform="scale(-1,1)" />
      <rect
         inkscape:label="48x48"
         y="236"
         x="-192"
         height="48"
         width="48"
         id="rect48x48"
         style="display:inline;overflow:visible;visibility:visible;fill:#e9e9e9;fill-opacity:1;fill-rule:nonzero;stroke:none;stroke-width:2;marker:none;enable-background:accumulate"
         transform="scale(-1,1)" />
      <rect
         style="display:inline;overflow:visible;visibility:visible;fill:#e9e9e9;fill-opacity:1;fill-rule:nonzero;stroke:none;stroke-width:2;marker:none;enable-background:accumulate"
         id="rect3951"
         width="512"
         height="512"
         x="-720"
         y="-228"
         inkscape:label="48x48"
         transform="scale(-1,1)" />
    </g>
    <g
       inkscape:groupmode="layer"
       id="layer6"
       inkscape:label="Symbols"
       style="display:inline">
      <path
         id="path4866"
         d="m 312,-192 c -13.296,0 -24,10.704 -24,24 l 0,328 32,0 0,-32 32,0 0,32 32,0 0,-32 32,0 0,32 32,0 0,-32 32,0 0,32 32,0 0,-32 32,0 0,32 32,0 0,-32 32,0 0,32 32,0 0,-328 c 0,-13.296 -10.704,-24 -24,-24 l -304,0 z m 296,352 -32,0 0,32 32,0 0,-32 z m 0,32 0,32 32,0 0,-32 -32,0 z m 0,32 -32,0 0,32 32,0 0,-32 z m -32,0 0,-32 -32,0 0,32 32,0 z m -32,0 -32,0 0,32 32,0 0,-32 z m -32,0 0,-32 -32,0 0,32 32,0 z m -32,0 -32,0 0,32 32,0 0,-32 z m -32,0 0,-32 -32,0 0,32 32,0 z m -32,0 -32,0 0,32 32,0 0,-32 z m -32,0 0,-32 -32,0 0,32 32,0 z m -32,0 -32,0 0,32 32,0 0,-32 z m -32,0 0,-32 -32,0 0,32 32,0 z m 0,-32 32,0 0,-32 -32,0 0,32 z m 64,0 32,0 0,-32 -32,0 0,32 z m 64,0 32,0 0,-32 -32,0 0,32 z m 64,0 32,0 0,-32 -32,0 0,32 z"
         style="opacity:0.1;fill:#000000;fill-opacity:1;stroke:none;filter:url(#filter4862)"
         inkscape:connector-curvature="0" />
      <path
         inkscape:connector-curvature="0"
         style="opacity:0.2;fill:#000000;fill-opacity:1;stroke:none;filter:url(#filter4862)"
         d="m 312,-192 c -13.296,0 -24,10.704 -24,24 l 0,328 32,0 0,-32 32,0 0,32 32,0 0,-32 32,0 0,32 32,0 0,-32 32,0 0,32 32,0 0,-32 32,0 0,32 32,0 0,-32 32,0 0,32 32,0 0,-328 c 0,-13.296 -10.704,-24 -24,-24 l -304,0 z m 296,352 -32,0 0,32 32,0 0,-32 z m 0,32 0,32 32,0 0,-32 -32,0 z m 0,32 -32,0 0,32 32,0 0,-32 z m -32,0 0,-32 -32,0 0,32 32,0 z m -32,0 -32,0 0,32 32,0 0,-32 z m -32,0 0,-32 -32,0 0,32 32,0 z m -32,0 -32,0 0,32 32,0 0,-32 z m -32,0 0,-32 -32,0 0,32 32,0 z m -32,0 -32,0 0,32 32,0 0,-32 z m -32,0 0,-32 -32,0 0,32 32,0 z m -32,0 -32,0 0,32 32,0 0,-32 z m -32,0 0,-32 -32,0 0,32 32,0 z m 0,-32 32,0 0,-32 -32,0 0,32 z m 64,0 32,0 0,-32 -32,0 0,32 z m 64,0 32,0 0,-32 -32,0 0,32 z m 64,0 32,0 0,-32 -32,0 0,32 z"
         id="path4860" />
      <path
         id="path4858"
         d="m 312,-194 c -13.296,0 -24,10.704 -24,24 l 0,328 32,0 0,-32 32,0 0,32 32,0 0,-32 32,0 0,32 32,0 0,-32 32,0 0,32 32,0 0,-32 32,0 0,32 32,0 0,-32 32,0 0,32 32,0 0,-328 c 0,-13.296 -10.704,-24 -24,-24 l -304,0 z m 296,352 -32,0 0,32 32,0 0,-32 z m 0,32 0,32 32,0 0,-32 -32,0 z m 0,32 -32,0 0,32 32,0 0,-32 z m -32,0 0,-32 -32,0 0,32 32,0 z m -32,0 -32,0 0,32 32,0 0,-32 z m -32,0 0,-32 -32,0 0,32 32,0 z m -32,0 -32,0 0,32 32,0 0,-32 z m -32,0 0,-32 -32,0 0,32 32,0 z m -32,0 -32,0 0,32 32,0 0,-32 z m -32,0 0,-32 -32,0 0,32 32,0 z m -32,0 -32,0 0,32 32,0 0,-32 z m -32,0 0,-32 -32,0 0,32 32,0 z m 0,-32 32,0 0,-32 -32,0 0,32 z m 64,0 32,0 0,-32 -32,0 0,32 z m 64,0 32,0 0,-32 -32,0 0,32 z m 64,0 32,0 0,-32 -32,0 0,32 z"
         style="fill:#000000;fill-opacity:1;stroke:none;opacity:0.2"
         inkscape:connector-curvature="0" />
      <path
         id="path4852"
         d="m 154,241 c -1.108,0 -2,0.892 -2,2 l 0,26 4,0 0,4 4,0 0,-4 4,0 0,4 4,0 0,-4 4,0 0,4 4,0 0,-4 4,0 0,4 4,0 0,-30 c 0,-1.108 -0.892,-2 -2,-2 l -28,0 z m 26,32 -4,0 0,4 4,0 0,-4 z m 0,4 0,4 4,0 0,-4 -4,0 z m -4,0 -4,0 0,4 4,0 0,-4 z m -4,0 0,-4 -4,0 0,4 4,0 z m -4,0 -4,0 0,4 4,0 0,-4 z m -4,0 0,-4 -4,0 0,4 4,0 z m -4,0 -4,0 0,4 4,0 0,-4 z m -4,0 0,-4 -4,0 0,4 4,0 z"
         style="fill:#000000;fill-opacity:1;stroke:none;opacity:0.2"
         inkscape:connector-curvature="0" />
      <path
         id="path4854"
         d="m 57,263 c -0.554,0 -1,0.446 -1,1 l 0,13 2,0 0,2 2,0 0,-2 2,0 0,2 2,0 0,-2 2,0 0,2 2,0 0,-2 2,0 0,2 2,0 0,-15 c 0,-0.554 -0.446,-1 -1,-1 l -14,0 z m 13,16 -2,0 0,2 2,0 0,-2 z m 0,2 0,2 2,0 0,-2 -2,0 z m -2,0 -2,0 0,2 2,0 0,-2 z m -2,0 0,-2 -2,0 0,2 2,0 z m -2,0 -2,0 0,2 2,0 0,-2 z m -2,0 0,-2 -2,0 0,2 2,0 z m -2,0 -2,0 0,2 2,0 0,-2 z m -2,0 0,-2 -2,0 0,2 2,0 z"
         style="fill:#000000;fill-opacity:1;stroke:none;opacity:0.2"
         inkscape:connector-curvature="0" />
      <path
         id="path4856"
         d="m 102.5,255 c -0.831,0 -1.5,0.669 -1.5,1.5 l 0,20.5 2,0 0,-2 2,0 0,2 2,0 0,-2 2,0 0,2 2,0 0,-2 2,0 0,2 2,0 0,-2 2,0 0,2 2,0 0,-2 2,0 0,2 2,0 0,-20.5 c 0,-0.831 -0.669,-1.5 -1.5,-1.5 l -19,0 z m 18.5,22 -2,0 0,2 2,0 0,-2 z m 0,2 0,2 2,0 0,-2 -2,0 z m 0,2 -2,0 0,2 2,0 0,-2 z m -2,0 0,-2 -2,0 0,2 2,0 z m -2,0 -2,0 0,2 2,0 0,-2 z m -2,0 0,-2 -2,0 0,2 2,0 z m -2,0 -2,0 0,2 2,0 0,-2 z m -2,0 0,-2 -2,0 0,2 2,0 z m -2,0 -2,0 0,2 2,0 0,-2 z m -2,0 0,-2 -2,0 0,2 2,0 z m -2,0 -2,0 0,2 2,0 0,-2 z m -2,0 0,-2 -2,0 0,2 2,0 z m 0,-2 2,0 0,-2 -2,0 0,2 z m 4,0 2,0 0,-2 -2,0 0,2 z m 4,0 2,0 0,-2 -2,0 0,2 z m 4,0 2,0 0,-2 -2,0 0,2 z"
         style="fill:#000000;fill-opacity:1;stroke:none;opacity:0.2"
         inkscape:connector-curvature="0" />
      <path
         style="fill:#e6e6e6;fill-opacity:1;stroke:none"
         d="M 154 484 C 152.892 484 152 484.892 152 486 L 152 512 L 156 512 L 156 516 L 160 516 L 160 512 L 164 512 L 164 516 L 168 516 L 168 512 L 172 512 L 172 516 L 176 516 L 176 512 L 180 512 L 180 516 L 184 516 L 184 486 C 184 484.892 183.108 484 182 484 L 154 484 z M 180 516 L 176 516 L 176 520 L 180 520 L 180 516 z M 180 520 L 180 524 L 184 524 L 184 520 L 180 520 z M 176 520 L 172 520 L 172 524 L 176 524 L 176 520 z M 172 520 L 172 516 L 168 516 L 168 520 L 172 520 z M 168 520 L 164 520 L 164 524 L 168 524 L 168 520 z M 164 520 L 164 516 L 160 516 L 160 520 L 164 520 z M 160 520 L 156 520 L 156 524 L 160 524 L 160 520 z M 156 520 L 156 516 L 152 516 L 152 520 L 156 520 z "
         transform="translate(0,-244)"
         id="rect4203" />
      <path
         style="fill:#e6e6e6;fill-opacity:1;stroke:none"
         d="M 57 506 C 56.446 506 56 506.446 56 507 L 56 520 L 58 520 L 58 522 L 60 522 L 60 520 L 62 520 L 62 522 L 64 522 L 64 520 L 66 520 L 66 522 L 68 522 L 68 520 L 70 520 L 70 522 L 72 522 L 72 507 C 72 506.446 71.554 506 71 506 L 57 506 z M 70 522 L 68 522 L 68 524 L 70 524 L 70 522 z M 70 524 L 70 526 L 72 526 L 72 524 L 70 524 z M 68 524 L 66 524 L 66 526 L 68 526 L 68 524 z M 66 524 L 66 522 L 64 522 L 64 524 L 66 524 z M 64 524 L 62 524 L 62 526 L 64 526 L 64 524 z M 62 524 L 62 522 L 60 522 L 60 524 L 62 524 z M 60 524 L 58 524 L 58 526 L 60 526 L 60 524 z M 58 524 L 58 522 L 56 522 L 56 524 L 58 524 z "
         transform="translate(0,-244)"
         id="rect4243" />
      <path
         style="fill:#e6e6e6;fill-opacity:1;stroke:none"
         d="M 102.5 498 C 101.669 498 101 498.669 101 499.5 L 101 520 L 103 520 L 103 518 L 105 518 L 105 520 L 107 520 L 107 518 L 109 518 L 109 520 L 111 520 L 111 518 L 113 518 L 113 520 L 115 520 L 115 518 L 117 518 L 117 520 L 119 520 L 119 518 L 121 518 L 121 520 L 123 520 L 123 499.5 C 123 498.669 122.331 498 121.5 498 L 102.5 498 z M 121 520 L 119 520 L 119 522 L 121 522 L 121 520 z M 121 522 L 121 524 L 123 524 L 123 522 L 121 522 z M 121 524 L 119 524 L 119 526 L 121 526 L 121 524 z M 119 524 L 119 522 L 117 522 L 117 524 L 119 524 z M 117 524 L 115 524 L 115 526 L 117 526 L 117 524 z M 115 524 L 115 522 L 113 522 L 113 524 L 115 524 z M 113 524 L 111 524 L 111 526 L 113 526 L 113 524 z M 111 524 L 111 522 L 109 522 L 109 524 L 111 524 z M 109 524 L 107 524 L 107 526 L 109 526 L 109 524 z M 107 524 L 107 522 L 105 522 L 105 524 L 107 524 z M 105 524 L 103 524 L 103 526 L 105 526 L 105 524 z M 103 524 L 103 522 L 101 522 L 101 524 L 103 524 z M 103 522 L 105 522 L 105 520 L 103 520 L 103 522 z M 107 522 L 109 522 L 109 520 L 107 520 L 107 522 z M 111 522 L 113 522 L 113 520 L 111 520 L 111 522 z M 115 522 L 117 522 L 117 520 L 115 520 L 115 522 z "
         transform="translate(0,-244)"
         id="rect4255" />
      <path
         style="display:inline;fill:#e6e6e6;fill-opacity:1;stroke:none;enable-background:new"
         d="M 18 512 C 16.892 512 16 512.892 16 514 L 16 522 L 18 522 L 18 524 L 20 524 L 20 522 L 22 522 L 22 524 L 24 524 L 24 522 L 26 522 L 26 524 L 28 524 L 28 522 L 30 522 L 30 524 L 32 524 L 32 514 C 32 512.892 31.108 512 30 512 L 18 512 z M 30 524 L 28 524 L 28 526 L 30 526 L 30 524 z M 30 526 L 30 528 L 32 528 L 32 526 L 30 526 z M 28 526 L 26 526 L 26 528 L 28 528 L 28 526 z M 26 526 L 26 524 L 24 524 L 24 526 L 26 526 z M 24 526 L 22 526 L 22 528 L 24 528 L 24 526 z M 22 526 L 22 524 L 20 524 L 20 526 L 22 526 z M 20 526 L 18 526 L 18 528 L 20 528 L 20 526 z M 18 526 L 18 524 L 16 524 L 16 526 L 18 526 z "
         transform="translate(0,-244)"
         id="rect4265" />
      <path
         style="opacity:0.1;fill:#ffffff;fill-opacity:1;stroke:none"
         d="m 154,240 c -1.108,0 -2,0.892 -2,2 l 0,1 c 0,-1.108 0.892,-2 2,-2 l 28,0 c 1.108,0 2,0.892 2,2 l 0,-1 c 0,-1.108 -0.892,-2 -2,-2 z"
         id="rect4199"
         inkscape:connector-curvature="0"
         sodipodi:nodetypes="sscsscsss" />
      <path
         style="opacity:0.1;fill:#ffffff;fill-opacity:1;stroke:none"
         d="m 57,262 c -0.554,0 -1,0.446 -1,1 l 0,1 c 0,-0.554 0.446,-1 1,-1 l 14,0 c 0.554,0 1,0.446 1,1 l 0,-1 c 0,-0.554 -0.446,-1 -1,-1 z"
         id="rect4206"
         inkscape:connector-curvature="0"
         sodipodi:nodetypes="sscsscsss" />
      <path
         style="opacity:0.1;fill:#ffffff;fill-opacity:1;stroke:none"
         d="m 102.5,254 c -0.831,0 -1.5,0.669 -1.5,1.5 l 0,1 c 0,-0.831 0.669,-1.5 1.5,-1.5 l 19,0 c 0.831,0 1.5,0.669 1.5,1.5 l 0,-1 c 0,-0.831 -0.669,-1.5 -1.5,-1.5 z"
         id="rect4208"
         inkscape:connector-curvature="0"
         sodipodi:nodetypes="sscsscsss" />
      <g
         id="g4635"
         inkscape:label="actions"
         style="display:inline;fill:#ffffff;fill-opacity:1;enable-background:new"
         transform="matrix(4.0008799,0,0,4.0008799,-1532.4518,272.01408)" />
      <g
         transform="matrix(2.00044,0,0,2.00044,-682.22612,278.00704)"
         style="display:inline;fill:#ffffff;fill-opacity:1;enable-background:new"
         inkscape:label="actions"
         id="g4627" />
      <path
         style="fill:#e6e6e6;fill-opacity:1;stroke:none"
         d="M 312 48 C 298.704 48 288 58.704 288 72 L 288 400 L 320 400 L 320 368 L 352 368 L 352 400 L 384 400 L 384 368 L 416 368 L 416 400 L 448 400 L 448 368 L 480 368 L 480 400 L 512 400 L 512 368 L 544 368 L 544 400 L 576 400 L 576 368 L 608 368 L 608 400 L 640 400 L 640 72 C 640 58.704 629.296 48 616 48 L 312 48 z M 608 400 L 576 400 L 576 432 L 608 432 L 608 400 z M 608 432 L 608 464 L 640 464 L 640 432 L 608 432 z M 608 464 L 576 464 L 576 496 L 608 496 L 608 464 z M 576 464 L 576 432 L 544 432 L 544 464 L 576 464 z M 544 464 L 512 464 L 512 496 L 544 496 L 544 464 z M 512 464 L 512 432 L 480 432 L 480 464 L 512 464 z M 480 464 L 448 464 L 448 496 L 480 496 L 480 464 z M 448 464 L 448 432 L 416 432 L 416 464 L 448 464 z M 416 464 L 384 464 L 384 496 L 416 496 L 416 464 z M 384 464 L 384 432 L 352 432 L 352 464 L 384 464 z M 352 464 L 320 464 L 320 496 L 352 496 L 352 464 z M 320 464 L 320 432 L 288 432 L 288 464 L 320 464 z M 320 432 L 352 432 L 352 400 L 320 400 L 320 432 z M 384 432 L 416 432 L 416 400 L 384 400 L 384 432 z M 448 432 L 480 432 L 480 400 L 448 400 L 448 432 z M 512 432 L 544 432 L 544 400 L 512 400 L 512 432 z "
         transform="translate(0,-244)"
         id="rect4229" />
      <path
         style="opacity:0.1;fill:#ffffff;fill-opacity:1;stroke:none"
         d="m 312,-196 c -13.296,0 -24,10.704 -24,24 l 0,2 c 0,-13.296 10.704,-24 24,-24 l 304,0 c 13.296,0 24,10.704 24,24 l 0,-2 c 0,-13.296 -10.704,-24 -24,-24 l -304,0 z"
         id="rect4204"
         inkscape:connector-curvature="0" />
    </g>
  </g>
</svg>
