<?xml version="1.0" encoding="UTF-8" standalone="no"?>
<!-- Created with Inkscape (http://www.inkscape.org/) -->

<svg
   xmlns:dc="http://purl.org/dc/elements/1.1/"
   xmlns:cc="http://creativecommons.org/ns#"
   xmlns:rdf="http://www.w3.org/1999/02/22-rdf-syntax-ns#"
   xmlns:svg="http://www.w3.org/2000/svg"
   xmlns="http://www.w3.org/2000/svg"
   xmlns:sodipodi="http://sodipodi.sourceforge.net/DTD/sodipodi-0.dtd"
   xmlns:inkscape="http://www.inkscape.org/namespaces/inkscape"
   inkscape:export-ydpi="90.000000"
   inkscape:export-xdpi="90.000000"
   width="736"
   height="544"
   id="svg11300"
   sodipodi:version="0.32"
   inkscape:version="0.91 r13725"
   sodipodi:docname="brave.svg"
   inkscape:output_extension="org.inkscape.output.svg.inkscape"
   version="1.0"
   style="display:inline;enable-background:new"
   inkscape:export-filename="/home/sam/paper-template.png">
  <title
     id="title3004">Paper Icon Theme Template</title>
  <sodipodi:namedview
     stroke="#ef2929"
     fill="#f57900"
     id="base"
     pagecolor="#6b6b6b"
     bordercolor="#000000"
     borderopacity="0.25490196"
     inkscape:pageopacity="0"
     inkscape:pageshadow="2"
     inkscape:zoom="1"
     inkscape:cx="-110.30499"
     inkscape:cy="39.591502"
     inkscape:current-layer="layer6"
     showgrid="false"
     inkscape:grid-bbox="true"
     inkscape:document-units="px"
     inkscape:showpageshadow="false"
     inkscape:window-width="1920"
     inkscape:window-height="1023"
     inkscape:window-x="0"
     inkscape:window-y="27"
     width="400px"
     height="300px"
     inkscape:snap-nodes="true"
     inkscape:snap-bbox="true"
     gridtolerance="10000"
     inkscape:object-nodes="true"
     inkscape:snap-grids="true"
     showguides="true"
     inkscape:guide-bbox="true"
     inkscape:window-maximized="1"
     inkscape:bbox-paths="true"
     inkscape:snap-bbox-midpoints="true"
     inkscape:snap-global="true"
     inkscape:object-paths="true"
     inkscape:snap-intersection-paths="true"
     inkscape:snap-smooth-nodes="true">
    <inkscape:grid
       spacingy="1px"
       spacingx="1px"
       id="grid5883"
       type="xygrid"
       enabled="true"
       visible="true"
       empspacing="4"
       snapvisiblegridlinesonly="true" />
    <inkscape:grid
       type="xygrid"
       id="grid11592"
       empspacing="2"
       visible="true"
       enabled="false"
       spacingx="0.5px"
       spacingy="0.5px"
       color="#ff0000"
       opacity="0.1254902"
       empcolor="#ff0000"
       empopacity="0.25098039"
       snapvisiblegridlinesonly="true" />
  </sodipodi:namedview>
  <defs
     id="defs3">
    <filter
       inkscape:collect="always"
       style="color-interpolation-filters:sRGB"
       id="filter4235"
       x="-0.026163934"
       width="1.0523279"
       y="-0.022166667"
       height="1.0443333">
      <feGaussianBlur
         inkscape:collect="always"
         stdDeviation="4.1377778"
         id="feGaussianBlur4237" />
    </filter>
  </defs>
  <metadata
     id="metadata4">
    <rdf:RDF>
      <cc:Work
         rdf:about="">
        <dc:format>image/svg+xml</dc:format>
        <dc:type
           rdf:resource="http://purl.org/dc/dcmitype/StillImage" />
        <dc:creator>
          <cc:Agent>
            <dc:title>Sam Hewitt</dc:title>
          </cc:Agent>
        </dc:creator>
        <dc:source />
        <cc:license
           rdf:resource="http://creativecommons.org/licenses/by-sa/3.0/" />
        <dc:title>Paper Icon Theme Template</dc:title>
        <dc:subject>
          <rdf:Bag />
        </dc:subject>
        <dc:date />
        <dc:rights>
          <cc:Agent>
            <dc:title />
          </cc:Agent>
        </dc:rights>
        <dc:publisher>
          <cc:Agent>
            <dc:title />
          </cc:Agent>
        </dc:publisher>
        <dc:identifier />
        <dc:relation />
        <dc:language />
        <dc:coverage />
        <dc:description />
        <dc:contributor>
          <cc:Agent>
            <dc:title />
          </cc:Agent>
        </dc:contributor>
      </cc:Work>
      <cc:Work
         rdf:about="">
        <dc:format>image/svg+xml</dc:format>
        <dc:type
           rdf:resource="http://purl.org/dc/dcmitype/StillImage" />
      </cc:Work>
      <cc:License
         rdf:about="http://creativecommons.org/licenses/by-sa/3.0/">
        <cc:permits
           rdf:resource="http://creativecommons.org/ns#Reproduction" />
        <cc:permits
           rdf:resource="http://creativecommons.org/ns#Distribution" />
        <cc:requires
           rdf:resource="http://creativecommons.org/ns#Notice" />
        <cc:requires
           rdf:resource="http://creativecommons.org/ns#Attribution" />
        <cc:permits
           rdf:resource="http://creativecommons.org/ns#DerivativeWorks" />
        <cc:requires
           rdf:resource="http://creativecommons.org/ns#ShareAlike" />
      </cc:License>
    </rdf:RDF>
  </metadata>
  <g
     style="display:inline"
     inkscape:groupmode="layer"
     inkscape:label="Icon"
     id="layer1"
     transform="translate(0,244)">
    <g
       style="display:none"
       inkscape:label="Baseplate"
       id="layer7"
       inkscape:groupmode="layer">
      <text
         y="337.74512"
         xml:space="preserve"
         x="15.006836"
         style="font-style:normal;font-variant:normal;font-weight:normal;font-stretch:normal;font-size:18px;font-family:'DejaVu Sans';-inkscape-font-specification:'DejaVu Sans';display:inline;fill:#000000;fill-opacity:1;stroke:none;enable-background:new"
         inkscape:label="context"
         id="context"><tspan
           style="font-style:normal;font-variant:normal;font-weight:normal;font-stretch:normal;font-family:'DejaVu Sans';-inkscape-font-specification:'DejaVu Sans'"
           y="337.74512"
           x="15.006836"
           sodipodi:role="line"
           id="tspan3933">apps</tspan></text>
      <text
         y="337.74512"
         xml:space="preserve"
         x="142.48828"
         style="font-style:normal;font-variant:normal;font-weight:bold;font-stretch:normal;font-size:18px;line-height:125%;font-family:'DejaVu Sans';-inkscape-font-specification:'DejaVu Sans Bold';text-align:start;writing-mode:lr-tb;text-anchor:start;display:inline;fill:#000000;fill-opacity:1;stroke:none;enable-background:new"
         sodipodi:linespacing="125%"
         inkscape:label="icon-name"
         id="icon-name"><tspan
           style="font-style:normal;font-variant:normal;font-weight:bold;font-stretch:normal;font-size:18px;font-family:'DejaVu Sans';-inkscape-font-specification:'DejaVu Sans Bold'"
           y="337.74512"
           x="142.48828"
           sodipodi:role="line"
           id="tspan3937">brave</tspan></text>
      <rect
         style="display:inline;overflow:visible;visibility:visible;fill:#d3d7cf;fill-opacity:1;fill-rule:nonzero;stroke:none;stroke-width:2;marker:none;enable-background:accumulate"
         id="rect16x16"
         width="16"
         height="16"
         x="-32"
         y="268"
         inkscape:label="16x16"
         transform="scale(-1,1)" />
      <rect
         style="display:inline;overflow:visible;visibility:visible;fill:#d3d7cf;fill-opacity:1;fill-rule:nonzero;stroke:none;stroke-width:2;marker:none;enable-background:accumulate"
         id="rect24x24"
         width="24"
         height="24"
         x="-76"
         y="260"
         inkscape:label="24x24"
         transform="scale(-1,1)" />
      <rect
         style="display:inline;overflow:visible;visibility:visible;fill:#d3d7cf;fill-opacity:1;fill-rule:nonzero;stroke:none;stroke-width:2;marker:none;enable-background:accumulate"
         id="rect32x32"
         width="32"
         height="32"
         x="-128"
         y="252"
         inkscape:label="32x32"
         transform="scale(-1,1)" />
      <rect
         inkscape:label="48x48"
         y="236"
         x="-192"
         height="48"
         width="48"
         id="rect48x48"
         style="display:inline;overflow:visible;visibility:visible;fill:#d3d7cf;fill-opacity:1;fill-rule:nonzero;stroke:none;stroke-width:2;marker:none;enable-background:accumulate"
         transform="scale(-1,1)" />
      <rect
         style="display:inline;overflow:visible;visibility:visible;fill:#d3d7cf;fill-opacity:1;fill-rule:nonzero;stroke:none;stroke-width:2;marker:none;enable-background:accumulate"
         id="rect3951"
         width="512"
         height="512"
         x="-720"
         y="-228"
         inkscape:label="48x48"
         transform="scale(-1,1)" />
    </g>
    <g
       inkscape:groupmode="layer"
       id="layer6"
       inkscape:label="Symbols"
       style="display:inline">
      <path
         style="display:inline;fill:#000000;fill-opacity:1;fill-rule:evenodd;stroke:none;stroke-width:1px;stroke-linecap:butt;stroke-linejoin:miter;stroke-opacity:1;enable-background:new;opacity:0.2"
         d="m 60.464286,262 -1.767857,2.16072 -1.178572,-0.19643 -1.374999,1.375 0.09821,0.98214 -1.473214,2.55357 c -0.196429,0.39286 0,0.58929 0,0.58929 L 57.125,278.5 c 0.196429,1.17857 1.375,1.96429 1.375,1.96429 l 4.910714,3.33928 c 0,0 0.392857,0.19643 0.589286,0.19643 0.196429,0 0.589286,-0.19643 0.589286,-0.19643 L 69.5,280.46429 c 0,0 1.178571,-0.78572 1.375,-1.96429 l 2.357142,-9.03571 c 0,0 0.196429,-0.19643 0,-0.58929 l -1.473214,-2.55357 0.09821,-0.98214 -1.375,-1.375 -1.178571,0.19643 L 67.535714,262 64,262 l -3.535714,0 z"
         id="path4325"
         inkscape:connector-curvature="0" />
      <path
         style="display:inline;fill:#000000;fill-opacity:1;fill-rule:evenodd;stroke:none;stroke-width:1px;stroke-linecap:butt;stroke-linejoin:miter;stroke-opacity:1;enable-background:new;opacity:0.2"
         d="m 107.17857,254 -2.41071,2.94642 -1.60715,-0.26785 -1.875,1.875 0.13393,1.33928 -2.008927,3.48215 c -0.267857,0.53571 0,0.80357 0,0.80357 L 102.625,276.5 c 0.26786,1.60714 1.875,2.67857 1.875,2.67857 l 6.69643,4.55357 c 0,0 0.53571,0.26786 0.80357,0.26786 0.26786,0 0.80357,-0.26786 0.80357,-0.26786 L 119.5,279.17857 c 0,0 1.60714,-1.07143 1.875,-2.67857 l 3.21429,-12.32143 c 0,0 0.26785,-0.26786 0,-0.80357 l -2.00893,-3.48215 0.13393,-1.33928 -1.875,-1.875 -1.60715,0.26785 L 116.82143,254 112,254 l -4.82143,0 z"
         id="path4304"
         inkscape:connector-curvature="0" />
      <path
         id="path4239"
         d="m 392,-192 -36,44 -24,-4 -28,28 2,20 -30,52 c -4,8 0,12 0,12 l 48,184 c 4,24 28,40 28,40 l 100,68 c 0,0 8,4 12,4 4,0 12,-4 12,-4 l 100,-68 c 0,0 24,-16 28,-40 l 48,-184 c 0,0 4,-4 0,-12 l -30,-52 2,-20 -28,-28 -24,4 -36,-44 -72,0 -72,0 z"
         style="display:inline;opacity:0.1;fill:#000000;fill-opacity:1;fill-rule:evenodd;stroke:none;stroke-width:1px;stroke-linecap:butt;stroke-linejoin:miter;stroke-opacity:1;filter:url(#filter4235);enable-background:new"
         inkscape:connector-curvature="0" />
      <path
         inkscape:connector-curvature="0"
         style="display:inline;opacity:0.2;fill:#000000;fill-opacity:1;fill-rule:evenodd;stroke:none;stroke-width:1px;stroke-linecap:butt;stroke-linejoin:miter;stroke-opacity:1;filter:url(#filter4235);enable-background:new"
         d="m 392,-192 -36,44 -24,-4 -28,28 2,20 -30,52 c -4,8 0,12 0,12 l 48,184 c 4,24 28,40 28,40 l 100,68 c 0,0 8,4 12,4 4,0 12,-4 12,-4 l 100,-68 c 0,0 24,-16 28,-40 l 48,-184 c 0,0 4,-4 0,-12 l -30,-52 2,-20 -28,-28 -24,4 -36,-44 -72,0 -72,0 z"
         id="path4233" />
      <path
         id="path4231"
         d="m 392,-194 -36,44 -24,-4 -28,28 2,20 -30,52 c -4,8 0,12 0,12 l 48,184 c 4,24 28,40 28,40 l 100,68 c 0,0 8,4 12,4 4,0 12,-4 12,-4 l 100,-68 c 0,0 24,-16 28,-40 l 48,-184 c 0,0 4,-4 0,-12 l -30,-52 2,-20 -28,-28 -24,4 -36,-44 -72,0 -72,0 z"
         style="display:inline;fill:#000000;fill-opacity:1;fill-rule:evenodd;stroke:none;stroke-width:1px;stroke-linecap:butt;stroke-linejoin:miter;stroke-opacity:1;enable-background:new;opacity:0.2"
         inkscape:connector-curvature="0" />
      <path
         inkscape:connector-curvature="0"
         style="display:inline;fill:#ff5722;fill-opacity:1;fill-rule:evenodd;stroke:none;stroke-width:1px;stroke-linecap:butt;stroke-linejoin:miter;stroke-opacity:1;enable-background:new"
         d="m 392,-196 -36,44 -24,-4 -28,28 2,20 -30,52 c -4,8 0,12 0,12 l 48,184 c 4,24 28,40 28,40 l 100,68 c 0,0 8,4 12,4 4,0 12,-4 12,-4 l 100,-68 c 0,0 24,-16 28,-40 l 48,-184 c 0,0 4,-4 0,-12 l -30,-52 2,-20 -28,-28 -24,4 -36,-44 -72,0 -72,0 z"
         id="path4216" />
      <path
         inkscape:connector-curvature="0"
         id="path4214"
         d="m 480.85318,132.14491 c 13.1114,-11.43125 18.28714,-15.54463 34.5675,-27.47217 9.15904,-6.710237 10.60259,-8.421527 9.10569,-10.794597 -1.19823,-1.8996 -30.74678,-16.77946 -44.87339,-22.597054 -14.85874,-6.119095 -16.41969,-6.126094 -30.83334,-0.138165 -12.92492,5.369453 -42.00474,20.091409 -44.44504,22.500739 -2.51962,2.48766 -1.25074,4.76881 5.09946,9.167627 13.08171,9.06176 26.34145,19.37806 38.1611,29.68994 17.05293,14.87758 15.72876,14.89179 33.21802,-0.35632 z M 412.30524,75.717537 C 430.04011,67.182631 432.69145,65.417935 446.24869,53.125248 457.64584,42.79116 459.75491,39.716944 458.1333,35.80203 457.58408,34.476087 449.01994,26.38857 439.10188,17.829761 415.6599,-2.3995556 416.64123,0.45127738 425.56113,-21.507098 c 5.29706,-13.039921 6.67998,-17.403492 6.66121,-21.018354 -0.0283,-5.46185 -2.00799,-9.560064 -5.98637,-12.392915 -1.61322,-1.14871 -15.77769,-6.996871 -31.47661,-12.9959 -15.69891,-5.999028 -28.45357,-11.304659 -28.34367,-11.790293 0.25096,-1.108981 17.56333,-3.038108 30.13137,-3.357554 l 9.50679,-0.241635 17.4761,6.247328 c 15.24947,5.451356 17.64315,6.570369 18.78723,8.782771 0.72112,1.394492 1.30131,3.268687 1.28931,4.16487 -0.012,0.896182 -2.83807,13.852443 -6.28014,28.791684 -6.02885,26.1663344 -6.19866,27.2231004 -4.63146,28.8216894 2.48678,2.536566 26.86369,7.22557698 34.47404,6.63123998 8.69301,-0.678885 26.45099,-4.90978598 28.24464,-6.72939498 1.44964,-1.47061 1.17496,-3.138581 -4.72996,-28.7235344 -3.44792,-14.939241 -6.27862,-27.895502 -6.29043,-28.791684 -0.0119,-0.896183 0.57258,-2.778228 1.29866,-4.182318 1.14514,-2.214448 3.39574,-3.296275 16.97641,-8.160329 21.89386,-7.841508 21.44873,-7.777242 41.34336,-5.96829 9.27691,0.843523 17.23903,1.89128 17.6936,2.328348 0.48767,0.468893 -0.0691,1.141376 -1.35811,1.640392 -1.20153,0.465154 -14.00019,5.383188 -28.44146,10.928979 -14.44126,5.545781 -27.77336,11.086401 -29.62688,12.312479 -4.35674,2.881924 -6.47153,6.998319 -6.5011,12.654216 -0.0187,3.575684 1.35475,7.908517 6.50818,20.531497 3.59254,8.799656 6.53188,16.8250264 6.53188,17.8341494 0,4.08279498 -2.97315,7.379351 -19.45341,21.5694386 -9.46859,8.152797 -17.87353,16.023169 -18.67763,17.489714 -0.8041,1.466544 -1.26354,3.704669 -1.02097,4.973608 0.41559,2.173977 11.75614,13.39724 23.30736,23.066297 4.85001,4.059734 34.23169,18.889162 38.9387,19.653002 3.94185,0.63968 8.15502,-1.38574 15.04968,-7.234898 6.76037,-5.735238 10.78951,-11.474686 13.52868,-19.271431 2.5691,-7.312641 1.92308,-12.2403 -3.15812,-24.089074 -3.87723,-9.041265 -4.9065,-14.007105 -3.6058,-17.396637 0.29889,-0.778932 10.79031,-10.9442616 23.31427,-22.5896266 27.28115,-25.3673294 31.65529,-29.9120914 33.15101,-34.4441584 1.66076,-5.032162 0.48947,-11.660386 -3.23856,-18.326728 -8.91807,-15.946988 -44.36408,-62.80428 -47.50939,-62.80428 -0.88801,0 -11.11422,1.83203 -22.72491,4.07118 -11.61069,2.23915 -22.20743,4.0726 -23.54832,4.07434 -1.34089,0.002 -7.04496,-1.4277 -12.67572,-3.17654 -24.04169,-7.46699 -31.83957,-9.49602 -36.49459,-9.49602 -4.65502,0 -12.4529,2.02903 -36.49459,9.49602 -5.63075,1.74884 -11.39689,3.1797 -12.81362,3.1797 -1.41674,0 -12.48419,-1.8764 -24.59435,-4.16978 -13.17505,-2.49503 -22.47646,-3.85871 -23.15879,-3.39528 -2.71403,1.84331 -25.73421,32.006744 -35.70454,46.783797 -11.72455,17.376963 -12.90539,19.611684 -13.85891,26.227739 -1.3343,9.258111 -0.0773,10.81621 34.95196,43.3232384 11.78221,10.933868 21.66248,20.5059006 21.95615,21.2711886 1.31428,3.424943 0.27573,8.595161 -3.54457,17.645915 -5.24694,12.430689 -5.71683,15.881508 -3.18443,23.386539 2.75399,8.161715 7.42244,14.760079 14.474,20.45748 6.55716,5.297936 9.09317,6.608056 12.96204,6.696236 1.38469,0.0316 9.17639,-3.14713 17.31489,-7.063786 z"
         style="display:inline;fill:#ffffff;enable-background:new"
         sodipodi:nodetypes="sssssssssssssscsssscsssssssscsssssssssssssssssscssssscssssssssssssscs" />
      <path
         sodipodi:nodetypes="ccccccccccccc"
         inkscape:connector-curvature="0"
         id="path4218"
         d="m 536,-196 36,44 24,-4 28,28 -2,20 30,52 c 4,8 0,12 0,12 l -48,184 c -4,24 -28,40 -28,40 l -100,68 c 0,0 -8,4 -12,4 l 0,-448 z"
         style="display:inline;opacity:0.05;fill:#000000;fill-opacity:1;fill-rule:evenodd;stroke:none;stroke-width:1px;stroke-linecap:butt;stroke-linejoin:miter;stroke-opacity:1;enable-background:new" />
      <path
         style="display:inline;enable-background:new;fill:#ffffff;fill-opacity:1;fill-rule:evenodd;stroke:none;stroke-width:1px;stroke-linecap:butt;stroke-linejoin:miter;stroke-opacity:1;opacity:0.2"
         d="M 392 48 L 356 92 L 332 88 L 304 116 L 304.18164 117.81836 L 332 90 L 356 94 L 392 50 L 464 50 L 536 50 L 572 94 L 596 90 L 623.81836 117.81836 L 624 116 L 596 88 L 572 92 L 536 48 L 464 48 L 392 48 z M 305.83008 136.29492 L 276 188 C 274.40298 191.19403 274.08956 193.7394 274.2793 195.6582 C 274.42162 194.06802 274.90533 192.18934 276 190 L 306 138 L 305.83008 136.29492 z M 622.16992 136.29492 L 622 138 L 652 190 C 653.09467 192.18934 653.57838 194.06802 653.7207 195.6582 C 653.91044 193.7394 653.59702 191.19403 652 188 L 622.16992 136.29492 z "
         transform="translate(0,-244)"
         id="path4226" />
      <path
         style="display:inline;opacity:0.2;fill:#000000;fill-opacity:1;fill-rule:evenodd;stroke:none;stroke-width:1px;stroke-linecap:butt;stroke-linejoin:miter;stroke-opacity:1;enable-background:new"
         d="m 161.25,240 -3.375,4.125 -2.25,-0.375 -2.625,2.625 0.1875,1.875 -2.8125,4.875 c -0.375,0.75 0,1.125 0,1.125 l 4.5,17.25 c 0.375,2.25 2.625,3.75 2.625,3.75 l 9.375,6.375 c 0,0 0.75,0.375 1.125,0.375 0.375,0 1.125,-0.375 1.125,-0.375 l 9.375,-6.375 c 0,0 2.25,-1.5 2.625,-3.75 l 4.5,-17.25 c 0,0 0.375,-0.375 0,-1.125 l -2.8125,-4.875 0.1875,-1.875 -2.625,-2.625 -2.25,0.375 -3.375,-4.125 -6.75,0 -6.75,0 z"
         id="path4255"
         inkscape:connector-curvature="0" />
      <path
         inkscape:connector-curvature="0"
         id="path4249"
         d="m 161.25,239 -3.375,4.125 -2.25,-0.375 -2.625,2.625 0.1875,1.875 -2.8125,4.875 c -0.375,0.75 0,1.125 0,1.125 l 4.5,17.25 c 0.375,2.25 2.625,3.75 2.625,3.75 l 9.375,6.375 c 0,0 0.75,0.375 1.125,0.375 0.375,0 1.125,-0.375 1.125,-0.375 l 9.375,-6.375 c 0,0 2.25,-1.5 2.625,-3.75 l 4.5,-17.25 c 0,0 0.375,-0.375 0,-1.125 l -2.8125,-4.875 0.1875,-1.875 -2.625,-2.625 -2.25,0.375 -3.375,-4.125 -6.75,0 -6.75,0 z"
         style="display:inline;fill:#ff5722;fill-opacity:1;fill-rule:evenodd;stroke:none;stroke-width:1px;stroke-linecap:butt;stroke-linejoin:miter;stroke-opacity:1;enable-background:new" />
      <path
         sodipodi:nodetypes="sssssssssssssscsssscsssssssscsssssssssssssssssscssssscssssssssssssscs"
         style="display:inline;fill:#ffffff;enable-background:new"
         d="m 169.57999,269.76359 c 1.22919,-1.07168 1.71441,-1.45731 3.2407,-2.57552 0.85866,-0.62909 0.99399,-0.78952 0.85366,-1.01199 -0.11234,-0.17809 -2.88251,-1.57308 -4.20688,-2.11848 -1.39301,-0.57366 -1.53935,-0.57432 -2.89063,-0.0129 -1.21171,0.50339 -3.93794,1.88357 -4.16672,2.10944 -0.23622,0.23322 -0.11726,0.44708 0.47807,0.85947 1.22641,0.84954 2.46951,1.81669 3.57761,2.78343 1.59871,1.39477 1.47457,1.39611 3.11419,-0.0334 z m -6.42637,-5.29007 c 1.66264,-0.80015 1.9112,-0.96559 3.18219,-2.11803 1.06849,-0.96882 1.26621,-1.25703 1.11419,-1.62405 -0.0515,-0.12431 -0.85438,-0.88251 -1.7842,-1.6849 -2.19768,-1.8965 -2.10568,-1.62923 -1.26944,-3.68783 0.4966,-1.22249 0.62624,-1.63158 0.62448,-1.97047 -0.003,-0.51205 -0.18824,-0.89626 -0.56122,-1.16184 -0.15124,-0.10769 -1.47916,-0.65595 -2.95093,-1.21836 -1.47177,-0.56241 -2.66752,-1.05981 -2.65722,-1.10534 0.0235,-0.10397 1.64656,-0.28483 2.82482,-0.31477 l 0.89126,-0.0227 1.63838,0.58569 c 1.42964,0.51107 1.65405,0.61597 1.76131,0.82339 0.0676,0.13073 0.12199,0.30643 0.12087,0.39045 -0.001,0.084 -0.26607,1.29867 -0.58876,2.69922 -0.56521,2.4531 -0.58113,2.55217 -0.4342,2.70204 0.23313,0.2378 2.51847,0.67739 3.23194,0.62167 0.81497,-0.0636 2.47978,-0.46029 2.64793,-0.63088 0.13591,-0.13787 0.11015,-0.29424 -0.44343,-2.69283 -0.32324,-1.40055 -0.58862,-2.6152 -0.58973,-2.69922 -0.001,-0.084 0.0537,-0.26046 0.12175,-0.39209 0.10736,-0.2076 0.31835,-0.30903 1.59154,-0.76503 2.05255,-0.73514 2.01082,-0.72912 3.87594,-0.55953 0.86971,0.0791 1.61616,0.17731 1.65877,0.21828 0.0457,0.044 -0.006,0.10701 -0.12732,0.15379 -0.11264,0.0436 -1.31252,0.50467 -2.66639,1.02459 -1.35386,0.51992 -2.60375,1.03935 -2.77752,1.1543 -0.40844,0.27018 -0.6067,0.65609 -0.60947,1.18633 -0.002,0.33522 0.127,0.74142 0.61014,1.92483 0.3368,0.82497 0.61236,1.57734 0.61236,1.67195 0,0.38276 -0.27873,0.69181 -1.82376,2.02213 -0.88768,0.76433 -1.67564,1.50218 -1.75102,1.63967 -0.0754,0.13748 -0.11846,0.34731 -0.0957,0.46627 0.039,0.20381 1.10214,1.25599 2.18507,2.16247 0.45468,0.3806 3.20922,1.77086 3.6505,1.84247 0.36955,0.06 0.76453,-0.12992 1.41091,-0.67828 0.63378,-0.53767 1.01151,-1.07575 1.26831,-1.80669 0.24085,-0.68556 0.18029,-1.14753 -0.29607,-2.25835 -0.36349,-0.84762 -0.45999,-1.31317 -0.33805,-1.63094 0.028,-0.073 1.01159,-1.02602 2.18571,-2.11778 2.55761,-2.37818 2.96769,-2.80425 3.10791,-3.22914 0.1557,-0.47176 0.0459,-1.09316 -0.30361,-1.71813 -0.83607,-1.49503 -4.15914,-5.8879 -4.45401,-5.8879 -0.0833,0 -1.04196,0.17175 -2.13046,0.38168 -1.0885,0.20992 -2.08195,0.3818 -2.20765,0.38196 -0.12571,1.9e-4 -0.66047,-0.13384 -1.18835,-0.2978 -2.25391,-0.70003 -2.98496,-0.89025 -3.42137,-0.89025 -0.43641,0 -1.16746,0.19022 -3.42137,0.89025 -0.52788,0.16396 -1.06846,0.2981 -1.20127,0.2981 -0.13282,0 -1.1704,-0.17591 -2.30573,-0.39092 -1.23516,-0.23391 -2.10716,-0.36175 -2.17113,-0.3183 -0.25444,0.17281 -2.41258,3.00063 -3.3473,4.38598 -1.09918,1.62909 -1.20988,1.83859 -1.29928,2.45885 -0.12509,0.86795 -0.007,1.01402 3.27675,4.06155 1.10458,1.02505 2.03086,1.92243 2.05839,1.99418 0.12321,0.32108 0.0259,0.80579 -0.3323,1.6543 -0.4919,1.16538 -0.53596,1.48889 -0.29854,2.19249 0.25818,0.76516 0.69585,1.38376 1.35693,1.91789 0.61474,0.49668 0.85249,0.6195 1.2152,0.62777 0.12981,0.003 0.86028,-0.29504 1.62327,-0.66223 z"
         id="path4251"
         inkscape:connector-curvature="0" />
      <path
         style="display:inline;opacity:0.05;fill:#000000;fill-opacity:1;fill-rule:evenodd;stroke:none;stroke-width:1px;stroke-linecap:butt;stroke-linejoin:miter;stroke-opacity:1;enable-background:new"
         d="m 174.75,239 3.375,4.125 2.25,-0.375 2.625,2.625 -0.1875,1.875 2.8125,4.875 c 0.375,0.75 0,1.125 0,1.125 l -4.5,17.25 c -0.375,2.25 -2.625,3.75 -2.625,3.75 l -9.375,6.375 c 0,0 -0.75,0.375 -1.125,0.375 l 0,-42 z"
         id="path4253"
         inkscape:connector-curvature="0"
         sodipodi:nodetypes="ccccccccccccc" />
      <path
         sodipodi:nodetypes="ccccccccccccc"
         inkscape:connector-curvature="0"
         id="path4265"
         d="m 174.75,239 3.375,4.125 2.25,-0.375 2.625,2.625 -0.1875,1.875 2.8125,4.875 c 0.375,0.75 0,1.125 0,1.125 l -4.5,17.25 c -0.375,2.25 -2.625,3.75 -2.625,3.75 l -9.375,6.375 c 0,0 -0.75,0.375 -1.125,0.375 l 0,-42 z"
         style="display:inline;opacity:0.05;fill:#000000;fill-opacity:1;fill-rule:evenodd;stroke:none;stroke-width:1px;stroke-linecap:butt;stroke-linejoin:miter;stroke-opacity:1;enable-background:new" />
      <path
         inkscape:connector-curvature="0"
         id="path4277"
         d="m 161.25,239 -3.375,4.125 -2.25,-0.375 -2.625,2.625 0.0918,0.9082 2.5332,-2.5332 2.25,0.375 3.375,-4.125 6.75,0 6.75,0 3.375,4.125 2.25,-0.375 2.5332,2.5332 0.0918,-0.9082 -2.625,-2.625 -2.25,0.375 -3.375,-4.125 -6.75,0 -6.75,0 z m -8.14844,8.39844 -2.72656,4.72656 c -0.32583,0.65167 -0.096,1.00245 -0.0273,1.08789 0.0138,-0.0319 0.0106,-0.0545 0.0273,-0.0879 l 2.8125,-4.875 -0.0859,-0.85156 z m 29.79688,0 -0.0859,0.85156 2.8125,4.875 c 0.0167,0.0334 0.0135,0.056 0.0273,0.0879 0.0686,-0.0854 0.29849,-0.43622 -0.0273,-1.08789 l -2.72656,-4.72656 z"
         style="display:inline;opacity:0.2;fill:#ffffff;fill-opacity:1;fill-rule:evenodd;stroke:none;stroke-width:1px;stroke-linecap:butt;stroke-linejoin:miter;stroke-opacity:1;enable-background:new" />
      <path
         inkscape:connector-curvature="0"
         id="path4290"
         d="m 107.17857,253 -2.41071,2.94642 -1.60715,-0.26785 -1.875,1.875 0.13393,1.33928 -2.008927,3.48215 c -0.267857,0.53571 0,0.80357 0,0.80357 L 102.625,275.5 c 0.26786,1.60714 1.875,2.67857 1.875,2.67857 l 6.69643,4.55357 c 0,0 0.53571,0.26786 0.80357,0.26786 0.26786,0 0.80357,-0.26786 0.80357,-0.26786 L 119.5,278.17857 c 0,0 1.60714,-1.07143 1.875,-2.67857 l 3.21429,-12.32143 c 0,0 0.26785,-0.26786 0,-0.80357 l -2.00893,-3.48215 0.13393,-1.33928 -1.875,-1.875 -1.60715,0.26785 L 116.82143,253 112,253 l -4.82143,0 z"
         style="display:inline;fill:#ff5722;fill-opacity:1;fill-rule:evenodd;stroke:none;stroke-width:1px;stroke-linecap:butt;stroke-linejoin:miter;stroke-opacity:1;enable-background:new" />
      <path
         sodipodi:nodetypes="sssssssssssssscsssscsssssssscsssssssssssssssssscssssscssssssssssssscs"
         style="display:inline;fill:#ffffff;enable-background:new"
         d="m 113.12856,274.97399 c 0.878,-0.76549 1.22459,-1.04094 2.31479,-1.83965 0.61333,-0.44935 0.70999,-0.56395 0.60975,-0.72286 -0.0802,-0.1272 -2.05893,-1.12362 -3.00491,-1.51319 -0.995,-0.40976 -1.09953,-0.41023 -2.06473,-0.009 -0.86551,0.35956 -2.81282,1.3454 -2.97623,1.50674 -0.16873,0.16659 -0.0838,0.31934 0.34148,0.61391 0.87601,0.60681 1.76394,1.29763 2.55543,1.98816 1.14194,0.99627 1.05326,0.99722 2.22442,-0.0239 z m -4.59026,-3.77862 c 1.1876,-0.57153 1.36514,-0.6897 2.273,-1.51288 0.7632,-0.69201 0.90443,-0.89787 0.79584,-1.16003 -0.0368,-0.0888 -0.61027,-0.63037 -1.27443,-1.2035 -1.56977,-1.35464 -1.50406,-1.16374 -0.90674,-2.63417 0.35471,-0.87321 0.44732,-1.16541 0.44606,-1.40748 -0.002,-0.36575 -0.13446,-0.64018 -0.40087,-0.82988 -0.10803,-0.0769 -1.05654,-0.46854 -2.10781,-0.87026 -1.05127,-0.40172 -1.90537,-0.75701 -1.89801,-0.78953 0.0168,-0.0743 1.17611,-0.20344 2.01772,-0.22484 l 0.63662,-0.0162 1.17027,0.41835 c 1.02117,0.36505 1.18146,0.43998 1.25807,0.58813 0.0483,0.0934 0.0872,0.21889 0.0863,0.2789 -8e-4,0.06 -0.19005,0.92762 -0.42054,1.92802 -0.40372,1.75221 -0.41509,1.82297 -0.31014,1.93002 0.16652,0.16986 1.7989,0.48386 2.30852,0.44406 0.58213,-0.0455 1.77128,-0.32878 1.89139,-0.45063 0.0971,-0.0985 0.0787,-0.21018 -0.31674,-1.92345 -0.23089,-1.0004 -0.42044,-1.86801 -0.42124,-1.92802 -7.9e-4,-0.06 0.0383,-0.18604 0.087,-0.28006 0.0767,-0.14829 0.22739,-0.22074 1.13681,-0.54646 1.46611,-0.5251 1.4363,-0.52079 2.76853,-0.39966 0.62122,0.0565 1.1544,0.12665 1.18484,0.15592 0.0327,0.0314 -0.005,0.0764 -0.091,0.10985 -0.0804,0.0311 -0.93751,0.36048 -1.90456,0.73185 -0.96705,0.37137 -1.85982,0.74239 -1.98394,0.82449 -0.29175,0.19299 -0.43336,0.46864 -0.43534,0.84738 -0.001,0.23945 0.0907,0.52959 0.43581,1.37488 0.24058,0.58926 0.43741,1.12668 0.43741,1.19425 0,0.2734 -0.1991,0.49416 -1.30269,1.44438 -0.63405,0.54595 -1.19689,1.07298 -1.25073,1.17119 -0.0539,0.0982 -0.0846,0.24808 -0.0684,0.33306 0.0278,0.14557 0.78724,0.89713 1.56076,1.54461 0.32478,0.27186 2.2923,1.2649 2.6075,1.31605 0.26397,0.0428 0.5461,-0.0928 1.00779,-0.48448 0.45271,-0.38405 0.72252,-0.76839 0.90594,-1.29049 0.17204,-0.48969 0.12878,-0.81967 -0.21148,-1.61311 -0.25963,-0.60544 -0.32856,-0.93798 -0.24146,-1.16496 0.02,-0.0522 0.72257,-0.73287 1.56123,-1.51269 1.82686,-1.69871 2.11977,-2.00305 2.21993,-2.30653 0.11121,-0.33698 0.0328,-0.78083 -0.21687,-1.22724 -0.59719,-1.06788 -2.97081,-4.20564 -3.18143,-4.20564 -0.0595,0 -0.74426,0.12268 -1.52176,0.27262 -0.7775,0.14994 -1.4871,0.27272 -1.5769,0.27284 -0.0898,1.3e-4 -0.47176,-0.0956 -0.84882,-0.21272 -1.60993,-0.50002 -2.13211,-0.63589 -2.44383,-0.63589 -0.31172,0 -0.8339,0.13587 -2.44383,0.63589 -0.37706,0.11711 -0.76319,0.21293 -0.85806,0.21293 -0.0949,0 -0.83599,-0.12565 -1.64694,-0.27923 -0.88226,-0.16708 -1.50512,-0.25839 -1.55081,-0.22736 -0.18175,0.12343 -1.72328,2.14331 -2.39093,3.13284 -0.78513,1.16364 -0.8642,1.31328 -0.92806,1.75632 -0.0893,0.61997 -0.005,0.7243 2.34054,2.90111 0.78898,0.73218 1.45061,1.37317 1.47028,1.42441 0.088,0.22935 0.0185,0.57557 -0.23736,1.18165 -0.35136,0.83241 -0.38283,1.06349 -0.21325,1.56606 0.18442,0.54655 0.49704,0.9884 0.96924,1.36992 0.4391,0.35478 0.60892,0.44251 0.868,0.44841 0.0927,0.002 0.61449,-0.21074 1.15948,-0.47302 z"
         id="path4292"
         inkscape:connector-curvature="0" />
      <path
         style="display:inline;opacity:0.05;fill:#000000;fill-opacity:1;fill-rule:evenodd;stroke:none;stroke-width:1px;stroke-linecap:butt;stroke-linejoin:miter;stroke-opacity:1;enable-background:new"
         d="m 116.82143,253 2.41071,2.94643 1.60715,-0.26786 1.875,1.875 -0.13393,1.33929 2.00893,3.48214 c 0.26785,0.53571 0,0.80357 0,0.80357 L 121.375,275.5 c -0.26786,1.60714 -1.875,2.67857 -1.875,2.67857 l -6.69643,4.55357 c 0,0 -0.53571,0.26786 -0.80357,0.26786 l 0,-30 z"
         id="path4294"
         inkscape:connector-curvature="0"
         sodipodi:nodetypes="ccccccccccccc" />
      <path
         style="display:inline;fill:#ffffff;fill-opacity:1;fill-rule:evenodd;stroke:none;stroke-width:1px;stroke-linecap:butt;stroke-linejoin:miter;stroke-opacity:1;enable-background:new;opacity:0.2"
         d="M 107.17773 497 L 104.76758 499.94727 L 103.16016 499.67773 L 101.28516 501.55273 L 101.37695 502.46094 L 103.16016 500.67773 L 104.76758 500.94727 L 107.17773 498 L 112 498 L 116.82227 498 L 119.23242 500.94727 L 120.83984 500.67773 L 122.62305 502.46094 L 122.71484 501.55273 L 120.83984 499.67773 L 119.23242 499.94727 L 116.82227 497 L 112 497 L 107.17773 497 z M 101.33398 503.04102 L 99.410156 506.375 C 99.142299 506.91071 99.410156 507.17773 99.410156 507.17773 L 99.445312 507.31445 L 101.41992 503.89258 L 101.33398 503.04102 z M 122.66602 503.04102 L 122.58008 503.89258 L 124.55469 507.31445 L 124.58984 507.17773 C 124.58984 507.17773 124.85769 506.91071 124.58984 506.375 L 122.66602 503.04102 z "
         transform="translate(0,-244)"
         id="path4299" />
      <path
         inkscape:connector-curvature="0"
         id="path4308"
         d="m 60.464286,261 -1.767857,2.16072 -1.178572,-0.19643 -1.374999,1.375 0.09821,0.98214 -1.473214,2.55357 c -0.196429,0.39286 0,0.58929 0,0.58929 L 57.125,277.5 c 0.196429,1.17857 1.375,1.96429 1.375,1.96429 l 4.910714,3.33928 c 0,0 0.392857,0.19643 0.589286,0.19643 0.196429,0 0.589286,-0.19643 0.589286,-0.19643 L 69.5,279.46429 c 0,0 1.178571,-0.78572 1.375,-1.96429 l 2.357142,-9.03571 c 0,0 0.196429,-0.19643 0,-0.58929 l -1.473214,-2.55357 0.09821,-0.98214 -1.375,-1.375 -1.178571,0.19643 L 67.535714,261 64,261 l -3.535714,0 z"
         style="display:inline;fill:#ff5722;fill-opacity:1;fill-rule:evenodd;stroke:none;stroke-width:1px;stroke-linecap:butt;stroke-linejoin:miter;stroke-opacity:1;enable-background:new" />
      <path
         sodipodi:nodetypes="sssssssssssssscsssscsssssssscsssssssssssssssssscssssscssssssssssssscs"
         style="display:inline;fill:#ffffff;enable-background:new"
         d="m 64.827611,277.11426 c 0.643864,-0.56136 0.89803,-0.76335 1.697511,-1.34908 0.449775,-0.32952 0.520663,-0.41356 0.447155,-0.53009 -0.05884,-0.0933 -1.509887,-0.82399 -2.203604,-1.10968 -0.72967,-0.30049 -0.806324,-0.30083 -1.514137,-0.007 -0.634706,0.26367 -2.062733,0.98663 -2.182569,1.10494 -0.123731,0.12216 -0.06142,0.23419 0.25042,0.4502 0.642405,0.445 1.293553,0.9516 1.873982,1.45799 0.837421,0.73059 0.772395,0.73129 1.631242,-0.0175 z m -3.366193,-2.77099 c 0.870909,-0.41912 1.001109,-0.50578 1.666866,-1.10944 0.559681,-0.50748 0.663252,-0.65844 0.583619,-0.85069 -0.02697,-0.0651 -0.447531,-0.46227 -0.934579,-0.88257 -1.151168,-0.99341 -1.102978,-0.85341 -0.664947,-1.93172 0.260123,-0.64036 0.328035,-0.85464 0.327113,-1.03215 -0.0014,-0.26822 -0.09861,-0.46947 -0.293974,-0.60858 -0.07922,-0.0564 -0.774797,-0.3436 -1.545726,-0.6382 -0.770928,-0.29459 -1.397273,-0.55513 -1.391876,-0.57898 0.01232,-0.0545 0.862484,-0.1492 1.479665,-0.16488 l 0.466851,-0.0119 0.858202,0.30679 c 0.748857,0.2677 0.866404,0.32265 0.922587,0.4313 0.03541,0.0685 0.0639,0.16051 0.06331,0.20452 -5.89e-4,0.044 -0.139369,0.68026 -0.3084,1.41388 -0.296059,1.28495 -0.304398,1.33685 -0.227437,1.41535 0.122118,0.12456 1.319199,0.35483 1.692921,0.32564 0.426889,-0.0333 1.298933,-0.24111 1.387014,-0.33046 0.07119,-0.0722 0.0577,-0.15413 -0.232275,-1.41053 -0.169318,-0.73362 -0.308325,-1.36987 -0.308905,-1.41388 -5.85e-4,-0.044 0.02812,-0.13643 0.06377,-0.20538 0.05624,-0.10875 0.166755,-0.16187 0.833663,-0.40073 1.075145,-0.38507 1.053286,-0.38192 2.030254,-0.29309 0.455563,0.0414 0.84656,0.0929 0.868882,0.11434 0.02395,0.023 -0.0034,0.0561 -0.06669,0.0806 -0.059,0.0228 -0.687509,0.26435 -1.396678,0.53669 -0.709169,0.27234 -1.363871,0.54442 -1.454892,0.60463 -0.213947,0.14152 -0.317798,0.34367 -0.31925,0.62141 -9.18e-4,0.17559 0.06653,0.38837 0.319598,1.00824 0.176419,0.43213 0.320762,0.82623 0.320762,0.87579 0,0.20049 -0.146003,0.36238 -0.955301,1.05921 -0.464976,0.40036 -0.877718,0.78685 -0.917205,0.85887 -0.03949,0.072 -0.06205,0.18193 -0.05014,0.24424 0.02041,0.10676 0.57731,0.6579 1.144558,1.13272 0.23817,0.19936 1.68102,0.92759 1.912168,0.9651 0.193573,0.0314 0.400469,-0.068 0.739046,-0.35528 0.331983,-0.28164 0.529842,-0.56349 0.664355,-0.94637 0.126161,-0.3591 0.09444,-0.60108 -0.155086,-1.18294 -0.1904,-0.44399 -0.240944,-0.68785 -0.17707,-0.8543 0.01468,-0.0383 0.529881,-0.53744 1.144897,-1.10931 1.339699,-1.24572 1.5545,-1.4689 1.627951,-1.69146 0.08155,-0.24711 0.02404,-0.57261 -0.159036,-0.89997 -0.437941,-0.78311 -2.178594,-3.08414 -2.333051,-3.08414 -0.04361,0 -0.545787,0.09 -1.115955,0.19993 -0.570168,0.10995 -1.090543,0.19999 -1.156391,0.20007 -0.06585,1e-4 -0.345958,-0.0701 -0.622468,-0.15599 -1.180619,-0.36668 -1.56355,-0.46632 -1.792145,-0.46632 -0.228595,0 -0.611526,0.0996 -1.792145,0.46632 -0.27651,0.0859 -0.559669,0.15615 -0.62924,0.15615 -0.06957,0 -0.613063,-0.0922 -1.207758,-0.20477 -0.646989,-0.12252 -1.103755,-0.18949 -1.137262,-0.16673 -0.133279,0.0905 -1.263734,1.57176 -1.753348,2.29742 -0.575759,0.85333 -0.633747,0.96307 -0.680572,1.28797 -0.06552,0.45464 -0.0038,0.53115 1.716391,2.12748 0.578591,0.53693 1.063783,1.00699 1.078204,1.04457 0.06454,0.16819 0.01354,0.42208 -0.174064,0.86654 -0.257662,0.61043 -0.280737,0.77989 -0.156378,1.14844 0.135241,0.4008 0.364495,0.72483 0.710777,1.00461 0.322003,0.26017 0.446539,0.3245 0.636528,0.32883 0.068,0.002 0.450627,-0.15454 0.850285,-0.34688 z"
         id="path4310"
         inkscape:connector-curvature="0" />
      <path
         style="display:inline;opacity:0.05;fill:#000000;fill-opacity:1;fill-rule:evenodd;stroke:none;stroke-width:1px;stroke-linecap:butt;stroke-linejoin:miter;stroke-opacity:1;enable-background:new"
         d="m 67.535714,261 1.767857,2.16071 1.178571,-0.19642 1.375,1.375 -0.09821,0.98214 1.473214,2.55357 c 0.196429,0.39286 0,0.58929 0,0.58929 L 70.875,277.5 c -0.196429,1.17857 -1.375,1.96429 -1.375,1.96429 l -4.910714,3.33928 c 0,0 -0.392857,0.19643 -0.589286,0.19643 l 0,-22 z"
         id="path4312"
         inkscape:connector-curvature="0"
         sodipodi:nodetypes="ccccccccccccc" />
      <g
         transform="matrix(0.03571429,0,0,0.03571429,7.4285694,275)"
         id="g4314">
        <path
           inkscape:connector-curvature="0"
           transform="translate(0,-244)"
           id="path4316"
           d="m 392,48 -36,44 -24,-4 -28,28 2,20 -30,52 c -4,8 0,12 0,12 l 48,184 c 4,24 28,40 28,40 l 100,68 c 0,0 8,4 12,4 4,0 12,-4 12,-4 l 100,-68 c 0,0 24,-16 28,-40 l 48,-184 c 0,0 4,-4 0,-12 l -30,-52 2,-20 -28,-28 -24,4 -36,-44 -72,0 -72,0 z"
           style="display:inline;fill:#ff5722;fill-opacity:1;fill-rule:evenodd;stroke:none;stroke-width:1px;stroke-linecap:butt;stroke-linejoin:miter;stroke-opacity:1;enable-background:new" />
        <path
           sodipodi:nodetypes="sssssssssssssscsssscsssssssscsssssssssssssssssscssssscssssssssssssscs"
           style="display:inline;fill:#ffffff;enable-background:new"
           d="m 480.85318,132.14491 c 13.1114,-11.43125 18.28714,-15.54463 34.5675,-27.47217 9.15904,-6.710237 10.60259,-8.421527 9.10569,-10.794597 -1.19823,-1.8996 -30.74678,-16.77946 -44.87339,-22.597054 -14.85874,-6.119095 -16.41969,-6.126094 -30.83334,-0.138165 -12.92492,5.369453 -42.00474,20.091409 -44.44504,22.500739 -2.51962,2.48766 -1.25074,4.76881 5.09946,9.167627 13.08171,9.06176 26.34145,19.37806 38.1611,29.68994 17.05293,14.87758 15.72876,14.89179 33.21802,-0.35632 z M 412.30524,75.717537 C 430.04011,67.182631 432.69145,65.417935 446.24869,53.125248 457.64584,42.79116 459.75491,39.716944 458.1333,35.80203 457.58408,34.476087 449.01994,26.38857 439.10188,17.829761 415.6599,-2.3995556 416.64123,0.45127738 425.56113,-21.507098 c 5.29706,-13.039921 6.67998,-17.403492 6.66121,-21.018354 -0.0283,-5.46185 -2.00799,-9.560064 -5.98637,-12.392915 -1.61322,-1.14871 -15.77769,-6.996871 -31.47661,-12.9959 -15.69891,-5.999028 -28.45357,-11.304659 -28.34367,-11.790293 0.25096,-1.108981 17.56333,-3.038108 30.13137,-3.357554 l 9.50679,-0.241635 17.4761,6.247328 c 15.24947,5.451356 17.64315,6.570369 18.78723,8.782771 0.72112,1.394492 1.30131,3.268687 1.28931,4.16487 -0.012,0.896182 -2.83807,13.852443 -6.28014,28.791684 -6.02885,26.1663344 -6.19866,27.2231004 -4.63146,28.8216894 2.48678,2.536566 26.86369,7.22557698 34.47404,6.63123998 8.69301,-0.678885 26.45099,-4.90978598 28.24464,-6.72939498 1.44964,-1.47061 1.17496,-3.138581 -4.72996,-28.7235344 -3.44792,-14.939241 -6.27862,-27.895502 -6.29043,-28.791684 -0.0119,-0.896183 0.57258,-2.778228 1.29866,-4.182318 1.14514,-2.214448 3.39574,-3.296275 16.97641,-8.160329 21.89386,-7.841508 21.44873,-7.777242 41.34336,-5.96829 9.27691,0.843523 17.23903,1.89128 17.6936,2.328348 0.48767,0.468893 -0.0691,1.141376 -1.35811,1.640392 -1.20153,0.465154 -14.00019,5.383188 -28.44146,10.928979 -14.44126,5.545781 -27.77336,11.086401 -29.62688,12.312479 -4.35674,2.881924 -6.47153,6.998319 -6.5011,12.654216 -0.0187,3.575684 1.35475,7.908517 6.50818,20.531497 3.59254,8.799656 6.53188,16.8250264 6.53188,17.8341494 0,4.08279498 -2.97315,7.379351 -19.45341,21.5694386 -9.46859,8.152797 -17.87353,16.023169 -18.67763,17.489714 -0.8041,1.466544 -1.26354,3.704669 -1.02097,4.973608 0.41559,2.173977 11.75614,13.39724 23.30736,23.066297 4.85001,4.059734 34.23169,18.889162 38.9387,19.653002 3.94185,0.63968 8.15502,-1.38574 15.04968,-7.234898 6.76037,-5.735238 10.78951,-11.474686 13.52868,-19.271431 2.5691,-7.312641 1.92308,-12.2403 -3.15812,-24.089074 -3.87723,-9.041265 -4.9065,-14.007105 -3.6058,-17.396637 0.29889,-0.778932 10.79031,-10.9442616 23.31427,-22.5896266 27.28115,-25.3673294 31.65529,-29.9120914 33.15101,-34.4441584 1.66076,-5.032162 0.48947,-11.660386 -3.23856,-18.326728 -8.91807,-15.946988 -44.36408,-62.80428 -47.50939,-62.80428 -0.88801,0 -11.11422,1.83203 -22.72491,4.07118 -11.61069,2.23915 -22.20743,4.0726 -23.54832,4.07434 -1.34089,0.002 -7.04496,-1.4277 -12.67572,-3.17654 -24.04169,-7.46699 -31.83957,-9.49602 -36.49459,-9.49602 -4.65502,0 -12.4529,2.02903 -36.49459,9.49602 -5.63075,1.74884 -11.39689,3.1797 -12.81362,3.1797 -1.41674,0 -12.48419,-1.8764 -24.59435,-4.16978 -13.17505,-2.49503 -22.47646,-3.85871 -23.15879,-3.39528 -2.71403,1.84331 -25.73421,32.006744 -35.70454,46.783797 -11.72455,17.376963 -12.90539,19.611684 -13.85891,26.227739 -1.3343,9.258111 -0.0773,10.81621 34.95196,43.3232384 11.78221,10.933868 21.66248,20.5059006 21.95615,21.2711886 1.31428,3.424943 0.27573,8.595161 -3.54457,17.645915 -5.24694,12.430689 -5.71683,15.881508 -3.18443,23.386539 2.75399,8.161715 7.42244,14.760079 14.474,20.45748 6.55716,5.297936 9.09317,6.608056 12.96204,6.696236 1.38469,0.0316 9.17639,-3.14713 17.31489,-7.063786 z"
           id="path4318"
           inkscape:connector-curvature="0" />
        <path
           style="display:inline;opacity:0.05;fill:#000000;fill-opacity:1;fill-rule:evenodd;stroke:none;stroke-width:1px;stroke-linecap:butt;stroke-linejoin:miter;stroke-opacity:1;enable-background:new"
           d="m 536,-196 36,44 24,-4 28,28 -2,20 30,52 c 4,8 0,12 0,12 l -48,184 c -4,24 -28,40 -28,40 l -100,68 c 0,0 -8,4 -12,4 l 0,-448 z"
           id="path4320"
           inkscape:connector-curvature="0"
           sodipodi:nodetypes="ccccccccccccc" />
      </g>
      <path
         style="display:inline;fill:#ffffff;fill-opacity:1;fill-rule:evenodd;stroke:none;stroke-width:1px;stroke-linecap:butt;stroke-linejoin:miter;stroke-opacity:1;enable-background:new;opacity:0.2"
         d="M 60.464844 505 L 58.697266 507.16016 L 57.517578 506.96484 L 56.142578 508.33984 L 56.232422 509.25 L 57.517578 507.96484 L 58.697266 508.16016 L 60.464844 506 L 64 506 L 67.535156 506 L 69.302734 508.16016 L 70.482422 507.96484 L 71.767578 509.25 L 71.857422 508.33984 L 70.482422 506.96484 L 69.302734 507.16016 L 67.535156 505 L 64 505 L 60.464844 505 z M 56.15625 509.46875 L 54.767578 511.875 C 54.571149 512.26786 54.767578 512.46484 54.767578 512.46484 L 54.841797 512.74805 L 56.240234 510.32227 L 56.15625 509.46875 z M 71.84375 509.46875 L 71.759766 510.32227 L 73.158203 512.74805 L 73.232422 512.46484 C 73.232422 512.46484 73.428851 512.26786 73.232422 511.875 L 71.84375 509.46875 z "
         transform="translate(0,-244)"
         id="path4327" />
    </g>
  </g>
</svg>
