<?xml version="1.0" encoding="UTF-8" standalone="no"?>
<!-- Created with Inkscape (http://www.inkscape.org/) -->

<svg
   xmlns:dc="http://purl.org/dc/elements/1.1/"
   xmlns:cc="http://creativecommons.org/ns#"
   xmlns:rdf="http://www.w3.org/1999/02/22-rdf-syntax-ns#"
   xmlns:svg="http://www.w3.org/2000/svg"
   xmlns="http://www.w3.org/2000/svg"
   xmlns:sodipodi="http://sodipodi.sourceforge.net/DTD/sodipodi-0.dtd"
   xmlns:inkscape="http://www.inkscape.org/namespaces/inkscape"
   inkscape:export-ydpi="90.000000"
   inkscape:export-xdpi="90.000000"
   width="736"
   height="544"
   id="svg11300"
   sodipodi:version="0.32"
   inkscape:version="0.91 r13725"
   sodipodi:docname="caffeine.svg"
   inkscape:output_extension="org.inkscape.output.svg.inkscape"
   version="1.0"
   style="display:inline;enable-background:new"
   inkscape:export-filename="/home/sam/paper-template.png">
  <title
     id="title3004">Paper Icon Theme Template</title>
  <sodipodi:namedview
     stroke="#ef2929"
     fill="#f57900"
     id="base"
     pagecolor="#6b6b6b"
     bordercolor="#000000"
     borderopacity="0.25490196"
     inkscape:pageopacity="0"
     inkscape:pageshadow="2"
     inkscape:zoom="1"
     inkscape:cx="79.235889"
     inkscape:cy="18.577837"
     inkscape:current-layer="layer6"
     showgrid="false"
     inkscape:grid-bbox="true"
     inkscape:document-units="px"
     inkscape:showpageshadow="false"
     inkscape:window-width="1920"
     inkscape:window-height="1023"
     inkscape:window-x="0"
     inkscape:window-y="27"
     width="400px"
     height="300px"
     inkscape:snap-nodes="true"
     inkscape:snap-bbox="true"
     gridtolerance="10000"
     inkscape:object-nodes="true"
     inkscape:snap-grids="true"
     showguides="true"
     inkscape:guide-bbox="true"
     inkscape:window-maximized="1"
     inkscape:bbox-paths="true"
     inkscape:snap-bbox-midpoints="true"
     inkscape:snap-global="true"
     inkscape:object-paths="true"
     inkscape:snap-intersection-paths="true"
     inkscape:snap-smooth-nodes="true">
    <inkscape:grid
       spacingy="1px"
       spacingx="1px"
       id="grid5883"
       type="xygrid"
       enabled="true"
       visible="true"
       empspacing="4"
       snapvisiblegridlinesonly="true" />
    <inkscape:grid
       type="xygrid"
       id="grid11592"
       empspacing="2"
       visible="true"
       enabled="false"
       spacingx="0.5px"
       spacingy="0.5px"
       color="#ff0000"
       opacity="0.1254902"
       empcolor="#ff0000"
       empopacity="0.25098039"
       snapvisiblegridlinesonly="true" />
  </sodipodi:namedview>
  <defs
     id="defs3">
    <filter
       inkscape:collect="always"
       style="color-interpolation-filters:sRGB"
       id="filter4401"
       x="-0.018857143"
       width="1.0377143"
       y="-0.033"
       height="1.066">
      <feGaussianBlur
         inkscape:collect="always"
         stdDeviation="3.52"
         id="feGaussianBlur4403" />
    </filter>
    <filter
       inkscape:collect="always"
       style="color-interpolation-filters:sRGB"
       id="filter4415"
       x="-0.020999946"
       width="1.0419999"
       y="-0.028000095"
       height="1.0560002">
      <feGaussianBlur
         inkscape:collect="always"
         stdDeviation="2.2400076"
         id="feGaussianBlur4417" />
    </filter>
  </defs>
  <metadata
     id="metadata4">
    <rdf:RDF>
      <cc:Work
         rdf:about="">
        <dc:format>image/svg+xml</dc:format>
        <dc:type
           rdf:resource="http://purl.org/dc/dcmitype/StillImage" />
        <dc:creator>
          <cc:Agent>
            <dc:title>Sam Hewitt</dc:title>
          </cc:Agent>
        </dc:creator>
        <dc:source />
        <cc:license
           rdf:resource="http://creativecommons.org/licenses/by-sa/3.0/" />
        <dc:title>Paper Icon Theme Template</dc:title>
        <dc:subject>
          <rdf:Bag />
        </dc:subject>
        <dc:date />
        <dc:rights>
          <cc:Agent>
            <dc:title />
          </cc:Agent>
        </dc:rights>
        <dc:publisher>
          <cc:Agent>
            <dc:title />
          </cc:Agent>
        </dc:publisher>
        <dc:identifier />
        <dc:relation />
        <dc:language />
        <dc:coverage />
        <dc:description />
        <dc:contributor>
          <cc:Agent>
            <dc:title />
          </cc:Agent>
        </dc:contributor>
      </cc:Work>
      <cc:Work
         rdf:about="">
        <dc:format>image/svg+xml</dc:format>
        <dc:type
           rdf:resource="http://purl.org/dc/dcmitype/StillImage" />
      </cc:Work>
      <cc:License
         rdf:about="http://creativecommons.org/licenses/by-sa/3.0/">
        <cc:permits
           rdf:resource="http://creativecommons.org/ns#Reproduction" />
        <cc:permits
           rdf:resource="http://creativecommons.org/ns#Distribution" />
        <cc:requires
           rdf:resource="http://creativecommons.org/ns#Notice" />
        <cc:requires
           rdf:resource="http://creativecommons.org/ns#Attribution" />
        <cc:permits
           rdf:resource="http://creativecommons.org/ns#DerivativeWorks" />
        <cc:requires
           rdf:resource="http://creativecommons.org/ns#ShareAlike" />
      </cc:License>
    </rdf:RDF>
  </metadata>
  <g
     style="display:inline"
     inkscape:groupmode="layer"
     inkscape:label="Icon"
     id="layer1"
     transform="translate(0,244)">
    <g
       style="display:none"
       inkscape:label="Baseplate"
       id="layer7"
       inkscape:groupmode="layer">
      <text
         y="337.74512"
         xml:space="preserve"
         x="15.006836"
         style="font-style:normal;font-variant:normal;font-weight:normal;font-stretch:normal;font-size:18px;font-family:'DejaVu Sans';-inkscape-font-specification:'DejaVu Sans';display:inline;fill:#000000;fill-opacity:1;stroke:none;enable-background:new"
         inkscape:label="context"
         id="context"><tspan
           style="font-style:normal;font-variant:normal;font-weight:normal;font-stretch:normal;font-family:'DejaVu Sans';-inkscape-font-specification:'DejaVu Sans'"
           y="337.74512"
           x="15.006836"
           sodipodi:role="line"
           id="tspan3933">apps</tspan></text>
      <text
         y="337.74512"
         xml:space="preserve"
         x="142.48828"
         style="font-style:normal;font-variant:normal;font-weight:bold;font-stretch:normal;font-size:18px;line-height:125%;font-family:'DejaVu Sans';-inkscape-font-specification:'DejaVu Sans Bold';text-align:start;writing-mode:lr-tb;text-anchor:start;display:inline;fill:#000000;fill-opacity:1;stroke:none;enable-background:new"
         sodipodi:linespacing="125%"
         inkscape:label="icon-name"
         id="icon-name"><tspan
           style="font-style:normal;font-variant:normal;font-weight:bold;font-stretch:normal;font-size:18px;font-family:'DejaVu Sans';-inkscape-font-specification:'DejaVu Sans Bold'"
           y="337.74512"
           x="142.48828"
           sodipodi:role="line"
           id="tspan3937">caffeine</tspan></text>
      <rect
         style="display:inline;overflow:visible;visibility:visible;fill:#d3d7cf;fill-opacity:1;fill-rule:nonzero;stroke:none;stroke-width:2;marker:none;enable-background:accumulate"
         id="rect16x16"
         width="16"
         height="16"
         x="-32"
         y="268"
         inkscape:label="16x16"
         transform="scale(-1,1)" />
      <rect
         style="display:inline;overflow:visible;visibility:visible;fill:#d3d7cf;fill-opacity:1;fill-rule:nonzero;stroke:none;stroke-width:2;marker:none;enable-background:accumulate"
         id="rect24x24"
         width="24"
         height="24"
         x="-76"
         y="260"
         inkscape:label="24x24"
         transform="scale(-1,1)" />
      <rect
         style="display:inline;overflow:visible;visibility:visible;fill:#d3d7cf;fill-opacity:1;fill-rule:nonzero;stroke:none;stroke-width:2;marker:none;enable-background:accumulate"
         id="rect32x32"
         width="32"
         height="32"
         x="-128"
         y="252"
         inkscape:label="32x32"
         transform="scale(-1,1)" />
      <rect
         inkscape:label="48x48"
         y="236"
         x="-192"
         height="48"
         width="48"
         id="rect48x48"
         style="display:inline;overflow:visible;visibility:visible;fill:#d3d7cf;fill-opacity:1;fill-rule:nonzero;stroke:none;stroke-width:2;marker:none;enable-background:accumulate"
         transform="scale(-1,1)" />
      <rect
         style="display:inline;overflow:visible;visibility:visible;fill:#d3d7cf;fill-opacity:1;fill-rule:nonzero;stroke:none;stroke-width:2;marker:none;enable-background:accumulate"
         id="rect3951"
         width="512"
         height="512"
         x="-720"
         y="-228"
         inkscape:label="48x48"
         transform="scale(-1,1)" />
      <g
         id="layer2"
         inkscape:label="animations"
         transform="translate(-529.00002,-248.00159)" />
    </g>
    <g
       inkscape:groupmode="layer"
       id="layer6"
       inkscape:label="Symbols"
       style="display:inline">
      <path
         style="color:#000000;opacity:1;fill:#bcaaa4;fill-opacity:1;stroke:none"
         sodipodi:nodetypes="cscsc"
         id="path4276"
         d="m 23.1933,268 c -1.0982,1.38422 -1.4282,2.06599 -1.0321,2.94706 0.3591,0.79867 1.2876,1.20591 0.821,3.05294 0.7664,-0.89992 1.3758,-2.04275 0.774,-2.9647 C 23.144,270.0976 22.8083,269.528 23.1933,268 Z"
         inkscape:connector-curvature="0" />
      <path
         style="color:#000000;opacity:1;fill:#bcaaa4;fill-opacity:1;stroke:none"
         sodipodi:nodetypes="cscsc"
         id="path4280"
         d="m 26.1933,268 c -1.0982,1.38422 -1.4282,2.06599 -1.0321,2.94706 0.3591,0.79867 1.2876,1.20591 0.821,3.05294 0.7664,-0.89992 1.3758,-2.04275 0.774,-2.9647 C 26.144,270.0976 25.8083,269.528 26.1933,268 Z"
         inkscape:connector-curvature="0" />
      <path
         style="color:#000000;opacity:1;fill:#bcaaa4;fill-opacity:1;stroke:none"
         sodipodi:nodetypes="cscsc"
         id="path4278"
         d="m 20.1933,268 c -1.0982,1.38422 -1.4282,2.06599 -1.0321,2.94706 0.3591,0.79867 1.2876,1.20591 0.821,3.05294 0.7664,-0.89992 1.3758,-2.04275 0.774,-2.9647 C 20.144,270.0976 19.8083,269.528 20.1933,268 Z"
         inkscape:connector-curvature="0" />
      <path
         style="color:#000000;fill:#000000;fill-opacity:1;stroke:none;opacity:0.2"
         sodipodi:nodetypes="scccscscccsccscccc"
         id="path4475"
         d="m 99,274 c 0,6 4,10 10,10 l 4,0 c 6,0 9.5196,-3.13138 9.918,-8 l 1.082,0 c 3,0 3,-3 3,-3 l 0,-2 c 0,-3 -3,-3 -3,-3 l -1,0 -24,0 z m 25,-4 c 1,-0.0646 1.0312,1.0625 1.0312,1.0625 l 0,2 C 125.0312,274 124,274 124,274 l -1,0 0.02,-3.96876 z"
         inkscape:connector-curvature="0" />
      <path
         style="color:#000000;opacity:0.2;fill:#000000;fill-opacity:1;stroke:none"
         sodipodi:nodetypes="cscsc"
         id="path4477"
         d="m 111.3866,254 c -2.1964,2.76844 -2.8564,4.13198 -2.0642,5.89412 0.7182,1.59734 2.5752,2.41182 1.642,6.10588 1.5328,-1.79984 2.7516,-4.0855 1.548,-5.9294 -1.2244,-1.8754 -1.8958,-3.0146 -1.1258,-6.0706 z"
         inkscape:connector-curvature="0" />
      <path
         style="color:#000000;opacity:0.2;fill:#000000;fill-opacity:1;stroke:none"
         sodipodi:nodetypes="cscsc"
         id="path4479"
         d="m 105.3866,254 c -2.1964,2.76844 -2.8564,4.13198 -2.0642,5.89412 0.7182,1.59734 2.5752,2.41182 1.642,6.10588 1.5328,-1.79984 2.7516,-4.0855 1.548,-5.9294 -1.2244,-1.8754 -1.8958,-3.0146 -1.1258,-6.0706 z"
         inkscape:connector-curvature="0" />
      <path
         style="color:#000000;opacity:0.2;fill:#000000;fill-opacity:1;stroke:none"
         sodipodi:nodetypes="cscsc"
         id="path4481"
         d="m 117.3866,254 c -2.1964,2.76844 -2.8564,4.13198 -2.0642,5.89412 0.7182,1.59734 2.5752,2.41182 1.642,6.10588 1.5328,-1.79984 2.7516,-4.0855 1.548,-5.9294 -1.2244,-1.8754 -1.8958,-3.0146 -1.1258,-6.0706 z"
         inkscape:connector-curvature="0" />
      <path
         inkscape:connector-curvature="0"
         d="m 149,269 c 0,9 6,15 15,15 l 6,0 c 9,0 14.2794,-4.69707 14.877,-12 l 1.623,0 c 4.5,0 4.5,-4.5 4.5,-4.5 l 0,-3 c 0,-4.5 -4.5,-4.5 -4.5,-4.5 l -1.5,0 -36,0 z m 37.5,-6 c 1.5,-0.0969 1.5468,1.59375 1.5468,1.59375 l 0,3 C 188.0468,269 186.5,269 186.5,269 l -1.5,0 0.03,-5.95314 z"
         id="path4483"
         sodipodi:nodetypes="scccscscccsccscccc"
         style="color:#000000;fill:#000000;fill-opacity:1;stroke:none;opacity:0.2" />
      <path
         inkscape:connector-curvature="0"
         d="m 167.5799,239 c -3.2946,4.15266 -4.2846,6.19797 -3.0963,8.84118 1.0773,2.39601 3.8628,3.61773 2.463,9.15882 2.2992,-2.69976 4.1274,-6.12825 2.322,-8.8941 -1.8366,-2.8131 -2.8437,-4.5219 -1.6887,-9.1059 z"
         id="path4485"
         sodipodi:nodetypes="cscsc"
         style="color:#000000;opacity:0.2;fill:#000000;fill-opacity:1;stroke:none" />
      <path
         inkscape:connector-curvature="0"
         d="m 158.5799,239 c -3.2946,4.15266 -4.2846,6.19797 -3.0963,8.84118 1.0773,2.39601 3.8628,3.61773 2.463,9.15882 2.2992,-2.69976 4.1274,-6.12825 2.322,-8.8941 -1.8366,-2.8131 -2.8437,-4.5219 -1.6887,-9.1059 z"
         id="path4487"
         sodipodi:nodetypes="cscsc"
         style="color:#000000;opacity:0.2;fill:#000000;fill-opacity:1;stroke:none" />
      <path
         inkscape:connector-curvature="0"
         d="m 176.5799,239 c -3.2946,4.15266 -4.2846,6.19797 -3.0963,8.84118 1.0773,2.39601 3.8628,3.61773 2.463,9.15882 2.2992,-2.69976 4.1274,-6.12825 2.322,-8.8941 -1.8366,-2.8131 -2.8437,-4.5219 -1.6887,-9.1059 z"
         id="path4489"
         sodipodi:nodetypes="cscsc"
         style="color:#000000;opacity:0.2;fill:#000000;fill-opacity:1;stroke:none" />
      <path
         style="color:#000000;fill:#000000;fill-opacity:1;stroke:none;opacity:0.2"
         sodipodi:nodetypes="scccscscccsccscccc"
         id="path4491"
         d="m 54,276.5 c 0,4.5 3,7.5 7.5,7.5 l 3,0 c 4.5,0 7.1397,-2.34853 7.4385,-6 l 0.8115,0 C 75,278 75,275.75 75,275.75 l 0,-1.5 C 75,272 72.75,272 72.75,272 l -0.75,0 -18,0 z m 18.735,-3.52343 C 74,273 74,274.29687 74,274.29687 l 0,1.5 C 74,277 73,277 73,277 l -1,0 0,-4 z"
         inkscape:connector-curvature="0" />
      <path
         style="color:#000000;opacity:0.2;fill:#000000;fill-opacity:1;stroke:none"
         sodipodi:nodetypes="cscsc"
         id="path4493"
         d="m 63.28995,262 c -1.6473,2.07633 -2.1423,3.09898 -1.54815,4.42059 0.53865,1.198 1.9314,1.80886 1.2315,4.57941 1.1496,-1.34988 2.0637,-3.06413 1.161,-4.44705 C 63.216,265.1464 62.71245,264.292 63.28995,262 Z"
         inkscape:connector-curvature="0" />
      <path
         style="color:#000000;opacity:0.2;fill:#000000;fill-opacity:1;stroke:none"
         sodipodi:nodetypes="cscsc"
         id="path4495"
         d="m 58.78995,262 c -1.6473,2.07633 -2.1423,3.09898 -1.54815,4.42059 0.53865,1.198 1.9314,1.80886 1.2315,4.57941 1.1496,-1.34988 2.0637,-3.06413 1.161,-4.44705 C 58.716,265.1464 58.21245,264.292 58.78995,262 Z"
         inkscape:connector-curvature="0" />
      <path
         style="color:#000000;opacity:0.2;fill:#000000;fill-opacity:1;stroke:none"
         sodipodi:nodetypes="cscsc"
         id="path4497"
         d="m 67.78995,262 c -1.6473,2.07633 -2.1423,3.09898 -1.54815,4.42059 0.53865,1.198 1.9314,1.80886 1.2315,4.57941 1.1496,-1.34988 2.0637,-3.06413 1.161,-4.44705 C 67.716,265.1464 67.21245,264.292 67.78995,262 Z"
         inkscape:connector-curvature="0" />
      <path
         id="path4419"
         d="m 358.18555,-208 c -35.1424,44.29504 -45.70255,66.1124 -33.02735,94.30664 11.4912,25.55744 41.20269,38.5884 26.27149,97.69336 24.5248,-28.79744 44.02713,-65.36869 24.76953,-94.87109 C 356.60882,-140.87749 345.86555,-159.104 358.18555,-208 Z m 96,0 c -35.1424,44.29504 -45.70255,66.1124 -33.02735,94.30664 11.4912,25.55744 41.20269,38.5884 26.27149,97.69336 24.5248,-28.79744 44.02713,-65.36869 24.76953,-94.87109 C 452.60882,-140.87749 441.86555,-159.104 454.18555,-208 Z m 96,0 c -35.1424,44.29504 -45.70255,66.1124 -33.02735,94.30664 11.4912,25.55744 41.20269,38.5884 26.27149,97.69336 24.5248,-28.79744 44.02713,-65.36869 24.76953,-94.87109 C 548.60882,-140.87749 537.86555,-159.104 550.18555,-208 Z"
         style="color:#000000;opacity:0.1;fill:#000000;fill-opacity:1;stroke:none;filter:url(#filter4415)"
         inkscape:connector-curvature="0" />
      <path
         inkscape:connector-curvature="0"
         style="color:#000000;opacity:0.2;fill:#000000;fill-opacity:1;stroke:none;filter:url(#filter4415)"
         d="m 358.18555,-208 c -35.1424,44.29504 -45.70255,66.1124 -33.02735,94.30664 11.4912,25.55744 41.20269,38.5884 26.27149,97.69336 24.5248,-28.79744 44.02713,-65.36869 24.76953,-94.87109 C 356.60882,-140.87749 345.86555,-159.104 358.18555,-208 Z m 96,0 c -35.1424,44.29504 -45.70255,66.1124 -33.02735,94.30664 11.4912,25.55744 41.20269,38.5884 26.27149,97.69336 24.5248,-28.79744 44.02713,-65.36869 24.76953,-94.87109 C 452.60882,-140.87749 441.86555,-159.104 454.18555,-208 Z m 96,0 c -35.1424,44.29504 -45.70255,66.1124 -33.02735,94.30664 11.4912,25.55744 41.20269,38.5884 26.27149,97.69336 24.5248,-28.79744 44.02713,-65.36869 24.76953,-94.87109 C 548.60882,-140.87749 537.86555,-159.104 550.18555,-208 Z"
         id="path4413" />
      <path
         id="path4407"
         d="m 358.18555,-210 c -35.1424,44.29504 -45.70255,66.1124 -33.02735,94.30664 11.4912,25.55744 41.20269,38.5884 26.27149,97.69336 24.5248,-28.79744 44.02713,-65.36869 24.76953,-94.87109 C 356.60882,-142.87749 345.86555,-161.104 358.18555,-210 Z m 96,0 c -35.1424,44.29504 -45.70255,66.1124 -33.02735,94.30664 11.4912,25.55744 41.20269,38.5884 26.27149,97.69336 24.5248,-28.79744 44.02713,-65.36869 24.76953,-94.87109 C 452.60882,-142.87749 441.86555,-161.104 454.18555,-210 Z m 96,0 c -35.1424,44.29504 -45.70255,66.1124 -33.02735,94.30664 11.4912,25.55744 41.20269,38.5884 26.27149,97.69336 24.5248,-28.79744 44.02713,-65.36869 24.76953,-94.87109 C 548.60882,-142.87749 537.86555,-161.104 550.18555,-210 Z"
         style="color:#000000;opacity:0.2;fill:#000000;fill-opacity:1;stroke:none;"
         inkscape:connector-curvature="0" />
      <path
         inkscape:connector-curvature="0"
         d="m 256,112 c 0,96 64,160 160,160 l 64,0 c 96,0 152.3136,-50.10208 158.688,-128 L 656,144 c 48,0 48,-48 48,-48 l 0,-32 C 704,16 656,16 656,16 l -16,0 -384,0 z M 656,48 c 16,-1.0336 16.4992,17 16.4992,17 l 0,32 c 0,15 -16.4992,15 -16.4992,15 l -16,0 0.32,-63.50016 z"
         id="path4405"
         sodipodi:nodetypes="scccscscccsccscccc"
         style="color:#000000;opacity:0.1;fill:#000000;fill-opacity:1;stroke:none;filter:url(#filter4401)" />
      <path
         style="color:#000000;opacity:0.2;fill:#000000;fill-opacity:1;stroke:none;filter:url(#filter4401)"
         sodipodi:nodetypes="scccscscccsccscccc"
         id="path4399"
         d="m 256,112 c 0,96 64,160 160,160 l 64,0 c 96,0 152.3136,-50.10208 158.688,-128 L 656,144 c 48,0 48,-48 48,-48 l 0,-32 C 704,16 656,16 656,16 l -16,0 -384,0 z M 656,48 c 16,-1.0336 16.4992,17 16.4992,17 l 0,32 c 0,15 -16.4992,15 -16.4992,15 l -16,0 0.32,-63.50016 z"
         inkscape:connector-curvature="0" />
      <path
         inkscape:connector-curvature="0"
         d="m 256,110 c 0,96 64,160 160,160 l 64,0 c 96,0 152.3136,-50.10208 158.688,-128 L 656,142 c 48,0 48,-48 48,-48 l 0,-32 C 704,14 656,14 656,14 l -16,0 -384,0 z M 656,46 c 16,-1.0336 16.4992,17 16.4992,17 l 0,32 c 0,15 -16.4992,15 -16.4992,15 l -16,0 0.32,-63.50016 z"
         id="path4393"
         sodipodi:nodetypes="scccscscccsccscccc"
         style="color:#000000;fill:#000000;fill-opacity:1;stroke:none;opacity:0.2;" />
      <path
         style="color:#000000;fill:#fef8e2;fill-opacity:1;stroke:none"
         sodipodi:nodetypes="scccscscccsccscccc"
         id="path4362"
         d="m 256,108 c 0,96 64,160 160,160 l 64,0 c 96,0 152.3136,-50.10208 158.688,-128 L 656,140 c 48,0 48,-48 48,-48 l 0,-32 C 704,12 656,12 656,12 l -16,0 -384,0 z M 656,44 c 16,-1.0336 16.4992,17 16.4992,17 l 0,32 c 0,15 -16.4992,15 -16.4992,15 l -16,0 0.32,-63.50016 z"
         inkscape:connector-curvature="0" />
      <path
         style="color:#000000;fill:#fef8e2;fill-opacity:1;stroke:none"
         sodipodi:nodetypes="scccscscccsccscccc"
         id="path4274"
         d="m 17,278 c 0,3 2,5 5,5 l 2,0 c 3,0 4.7598,-1.56569 4.959,-4 l 0.541,0 c 1.5,0 1.5,-1.5 1.5,-1.5 l 0,-1 C 31,275 29.5,275 29.5,275 l -0.5,0 -12,0 z m 12.5,-2 c 0.5,-0.0323 0.5156,0.53125 0.5156,0.53125 l 0,1 C 30.0156,278 29.5,278 29.5,278 l -0.5,0 0.01,-1.98438 z"
         inkscape:connector-curvature="0" />
      <path
         inkscape:connector-curvature="0"
         d="m 99,273 c 0,6 4,10 10,10 l 4,0 c 6,0 9.5196,-3.13138 9.918,-8 l 1.082,0 c 3,0 3,-3 3,-3 l 0,-2 c 0,-3 -3,-3 -3,-3 l -1,0 -24,0 z m 25,-4 c 1,-0.0646 1.0312,1.0625 1.0312,1.0625 l 0,2 C 125.0312,273 124,273 124,273 l -1,0 0.02,-3.96876 z"
         id="path4352"
         sodipodi:nodetypes="scccscscccsccscccc"
         style="color:#000000;fill:#fef8e2;fill-opacity:1;stroke:none" />
      <path
         inkscape:connector-curvature="0"
         d="m 111.3866,253 c -2.1964,2.76844 -2.8564,4.13198 -2.0642,5.89412 0.7182,1.59734 2.5752,2.41182 1.642,6.10588 1.5328,-1.79984 2.7516,-4.0855 1.548,-5.9294 -1.2244,-1.8754 -1.8958,-3.0146 -1.1258,-6.0706 z"
         id="path4354"
         sodipodi:nodetypes="cscsc"
         style="color:#000000;opacity:1;fill:#bcaaa4;fill-opacity:1;stroke:none" />
      <path
         inkscape:connector-curvature="0"
         d="m 105.3866,253 c -2.1964,2.76844 -2.8564,4.13198 -2.0642,5.89412 0.7182,1.59734 2.5752,2.41182 1.642,6.10588 1.5328,-1.79984 2.7516,-4.0855 1.548,-5.9294 -1.2244,-1.8754 -1.8958,-3.0146 -1.1258,-6.0706 z"
         id="path4356"
         sodipodi:nodetypes="cscsc"
         style="color:#000000;opacity:1;fill:#bcaaa4;fill-opacity:1;stroke:none" />
      <path
         inkscape:connector-curvature="0"
         d="m 117.3866,253 c -2.1964,2.76844 -2.8564,4.13198 -2.0642,5.89412 0.7182,1.59734 2.5752,2.41182 1.642,6.10588 1.5328,-1.79984 2.7516,-4.0855 1.548,-5.9294 -1.2244,-1.8754 -1.8958,-3.0146 -1.1258,-6.0706 z"
         id="path4358"
         sodipodi:nodetypes="cscsc"
         style="color:#000000;opacity:1;fill:#bcaaa4;fill-opacity:1;stroke:none" />
      <path
         style="color:#000000;opacity:1;fill:#bcaaa4;fill-opacity:1;stroke:none"
         d="M 358.18555 32 C 323.04315 76.29504 312.483 98.112401 325.1582 126.30664 C 336.6494 151.86408 366.36089 164.89504 351.42969 224 C 375.95449 195.20256 395.45682 158.63131 376.19922 129.12891 C 356.60882 99.122506 345.86555 80.896 358.18555 32 z M 454.18555 32 C 419.04315 76.29504 408.483 98.112401 421.1582 126.30664 C 432.6494 151.86408 462.36089 164.89504 447.42969 224 C 471.95449 195.20256 491.45682 158.63131 472.19922 129.12891 C 452.60882 99.122506 441.86555 80.896 454.18555 32 z M 550.18555 32 C 515.04315 76.29504 504.483 98.112401 517.1582 126.30664 C 528.6494 151.86408 558.36089 164.89504 543.42969 224 C 567.95449 195.20256 587.45682 158.63131 568.19922 129.12891 C 548.60882 99.122506 537.86555 80.896 550.18555 32 z "
         transform="translate(0,-244)"
         id="path4364" />
      <path
         style="color:#000000;opacity:0.4;fill:#ffffff;fill-opacity:1;stroke:none"
         d="M 358.18555 32 C 332.19169 64.763808 319.66178 85.229132 320.02148 105.07422 C 320.5063 86.028792 332.84845 66.031371 357.48438 34.894531 C 357.71369 33.935245 357.93767 32.98377 358.18555 32 z M 454.18555 32 C 428.19169 64.763808 415.66178 85.229132 416.02148 105.07422 C 416.5063 86.028792 428.84845 66.031371 453.48438 34.894531 C 453.71369 33.935245 453.93767 32.98377 454.18555 32 z M 550.18555 32 C 524.19169 64.763808 511.66178 85.229132 512.02148 105.07422 C 512.5063 86.028792 524.84845 66.031371 549.48438 34.894531 C 549.71369 33.935245 549.93767 32.98377 550.18555 32 z M 352.95312 68.705078 C 352.55751 93.98889 362.07886 109.50091 376.19922 131.12891 C 381.44648 139.16764 383.79827 147.73337 383.97266 156.52148 C 384.13843 147.03329 381.84375 137.77626 376.19922 129.12891 C 362.45675 108.07972 353.08112 92.814073 352.95312 68.705078 z M 448.95312 68.705078 C 448.55751 93.98889 458.07886 109.50091 472.19922 131.12891 C 477.44648 139.16764 479.79827 147.73337 479.97266 156.52148 C 480.13843 147.03329 477.84375 137.77626 472.19922 129.12891 C 458.45675 108.07972 449.08112 92.814073 448.95312 68.705078 z M 544.95312 68.705078 C 544.55751 93.98889 554.07886 109.50091 568.19922 131.12891 C 573.44648 139.16764 575.79827 147.73337 575.97266 156.52148 C 576.13843 147.03329 573.84375 137.77626 568.19922 129.12891 C 554.45675 108.07972 545.08112 92.814073 544.95312 68.705078 z M 355.51562 195.83398 C 355.38805 203.9234 354.16211 213.18376 351.42969 224 C 351.64916 223.74229 351.86534 223.47965 352.08398 223.2207 C 354.54724 212.71396 355.5712 203.69642 355.51562 195.83398 z M 451.51562 195.83398 C 451.38805 203.9234 450.16211 213.18376 447.42969 224 C 447.64916 223.74229 447.86534 223.47965 448.08398 223.2207 C 450.54724 212.71396 451.5712 203.69642 451.51562 195.83398 z M 547.51562 195.83398 C 547.38805 203.9234 546.16211 213.18376 543.42969 224 C 543.64916 223.74229 543.86534 223.47965 544.08398 223.2207 C 546.54724 212.71396 547.5712 203.69642 547.51562 195.83398 z "
         id="path4383"
         transform="translate(0,-244)" />
      <path
         style="color:#000000;fill:#ffffff;fill-opacity:1;stroke:none;opacity:0.5"
         d="M 256 256 L 256 258 L 640 258 L 656 258 C 656 258 704 258 704 306 L 704 304 C 704 256 656 256 656 256 L 640 256 L 256 256 z M 672.5 337 C 672.5 352 656 352 656 352 L 640.00977 352 L 640 354 L 656 354 C 656 354 672.5 354 672.5 339 L 672.5 337 z "
         transform="translate(0,-244)"
         id="path4388" />
      <path
         style="color:#000000;fill:#fef8e2;fill-opacity:1;stroke:none"
         sodipodi:nodetypes="scccscscccsccscccc"
         id="path4435"
         d="m 149,268 c 0,9 6,15 15,15 l 6,0 c 9,0 14.2794,-4.69707 14.877,-12 l 1.623,0 c 4.5,0 4.5,-4.5 4.5,-4.5 l 0,-3 c 0,-4.5 -4.5,-4.5 -4.5,-4.5 l -1.5,0 -36,0 z m 37.5,-6 c 1.5,-0.0969 1.5468,1.59375 1.5468,1.59375 l 0,3 C 188.0468,268 186.5,268 186.5,268 l -1.5,0 0.03,-5.95314 z"
         inkscape:connector-curvature="0" />
      <path
         style="color:#000000;opacity:1;fill:#bcaaa4;fill-opacity:1;stroke:none"
         sodipodi:nodetypes="cscsc"
         id="path4437"
         d="m 167.5799,238 c -3.2946,4.15266 -4.2846,6.19797 -3.0963,8.84118 1.0773,2.39601 3.8628,3.61773 2.463,9.15882 2.2992,-2.69976 4.1274,-6.12825 2.322,-8.8941 -1.8366,-2.8131 -2.8437,-4.5219 -1.6887,-9.1059 z"
         inkscape:connector-curvature="0" />
      <path
         style="color:#000000;opacity:1;fill:#bcaaa4;fill-opacity:1;stroke:none"
         sodipodi:nodetypes="cscsc"
         id="path4439"
         d="m 158.5799,238 c -3.2946,4.15266 -4.2846,6.19797 -3.0963,8.84118 1.0773,2.39601 3.8628,3.61773 2.463,9.15882 2.2992,-2.69976 4.1274,-6.12825 2.322,-8.8941 -1.8366,-2.8131 -2.8437,-4.5219 -1.6887,-9.1059 z"
         inkscape:connector-curvature="0" />
      <path
         style="color:#000000;opacity:1;fill:#bcaaa4;fill-opacity:1;stroke:none"
         sodipodi:nodetypes="cscsc"
         id="path4441"
         d="m 176.5799,238 c -3.2946,4.15266 -4.2846,6.19797 -3.0963,8.84118 1.0773,2.39601 3.8628,3.61773 2.463,9.15882 2.2992,-2.69976 4.1274,-6.12825 2.322,-8.8941 -1.8366,-2.8131 -2.8437,-4.5219 -1.6887,-9.1059 z"
         inkscape:connector-curvature="0" />
      <path
         inkscape:connector-curvature="0"
         d="m 54,275.5 c 0,4.5 3,7.5 7.5,7.5 l 3,0 c 4.5,0 7.1397,-2.34853 7.4385,-6 l 0.8115,0 C 75,277 75,274.75 75,274.75 l 0,-1.5 C 75,271 72.75,271 72.75,271 l -0.75,0 -18,0 z m 18.735,-3.52343 C 74,272 74,273.29687 74,273.29687 l 0,1.5 C 74,276 73,276 73,276 l -1,0 0,-4 z"
         id="path4451"
         sodipodi:nodetypes="scccscscccsccscccc"
         style="color:#000000;fill:#fef8e2;fill-opacity:1;stroke:none" />
      <path
         inkscape:connector-curvature="0"
         d="m 63.28995,261 c -1.6473,2.07633 -2.1423,3.09898 -1.54815,4.42059 0.53865,1.198 1.9314,1.80886 1.2315,4.57941 1.1496,-1.34988 2.0637,-3.06413 1.161,-4.44705 C 63.216,264.1464 62.71245,263.292 63.28995,261 Z"
         id="path4453"
         sodipodi:nodetypes="cscsc"
         style="color:#000000;opacity:1;fill:#bcaaa4;fill-opacity:1;stroke:none" />
      <path
         inkscape:connector-curvature="0"
         d="m 58.78995,261 c -1.6473,2.07633 -2.1423,3.09898 -1.54815,4.42059 0.53865,1.198 1.9314,1.80886 1.2315,4.57941 1.1496,-1.34988 2.0637,-3.06413 1.161,-4.44705 C 58.716,264.1464 58.21245,263.292 58.78995,261 Z"
         id="path4455"
         sodipodi:nodetypes="cscsc"
         style="color:#000000;opacity:1;fill:#bcaaa4;fill-opacity:1;stroke:none" />
      <path
         inkscape:connector-curvature="0"
         d="m 67.78995,261 c -1.6473,2.07633 -2.1423,3.09898 -1.54815,4.42059 0.53865,1.198 1.9314,1.80886 1.2315,4.57941 1.1496,-1.34988 2.0637,-3.06413 1.161,-4.44705 C 67.716,264.1464 67.21245,263.292 67.78995,261 Z"
         id="path4457"
         sodipodi:nodetypes="cscsc"
         style="color:#000000;opacity:1;fill:#bcaaa4;fill-opacity:1;stroke:none" />
      <path
         style="color:#000000;opacity:0.4;fill:#ffffff;fill-opacity:1;stroke:none"
         d="M 99 511 L 99 512 L 123 512 L 124 512 C 124 512 127 512 127 515 L 127 514 C 127 511 124 511 124 511 L 123 511 L 99 511 z M 125.03125 516.0625 C 125.03125 517 124 517 124 517 L 123.00586 517 L 123 518 L 124 518 C 124 518 125.03125 518 125.03125 517.0625 L 125.03125 516.0625 z "
         transform="translate(0,-244)"
         id="path4507" />
      <path
         style="color:#000000;opacity:0.4;fill:#ffffff;fill-opacity:1;stroke:none"
         d="M 105.38672 497 C 103.58681 499.26868 102.83551 500.59438 103.05273 501.96875 C 103.23704 500.97148 103.9347 499.8663 105.13477 498.32617 C 105.18772 497.92178 105.26249 497.49305 105.38672 497 z M 111.38672 497 C 109.58681 499.26868 108.83551 500.59438 109.05273 501.96875 C 109.23704 500.97148 109.9347 499.8663 111.13477 498.32617 C 111.18772 497.92178 111.26249 497.49305 111.38672 497 z M 117.38672 497 C 115.58681 499.26868 114.83551 500.59438 115.05273 501.96875 C 115.23704 500.97148 115.9347 499.8663 117.13477 498.32617 C 117.18772 497.92178 117.26249 497.49305 117.38672 497 z M 105.08594 499.79297 C 104.95713 501.5962 105.563 502.61717 106.51172 504.07031 C 106.76696 504.46133 106.89362 504.87495 106.95117 505.29688 C 107.07321 504.52528 106.96577 503.76592 106.51172 503.07031 C 105.75153 501.90594 105.20693 501.02463 105.08594 499.79297 z M 111.08594 499.79297 C 110.95713 501.5962 111.563 502.61717 112.51172 504.07031 C 112.76696 504.46133 112.89362 504.87495 112.95117 505.29688 C 113.07321 504.52528 112.96577 503.76592 112.51172 503.07031 C 111.75153 501.90594 111.20693 501.02463 111.08594 499.79297 z M 117.08594 499.79297 C 116.95713 501.5962 117.563 502.61717 118.51172 504.07031 C 118.76696 504.46133 118.89362 504.87495 118.95117 505.29688 C 119.07321 504.52528 118.96577 503.76592 118.51172 503.07031 C 117.75153 501.90594 117.20693 501.02463 117.08594 499.79297 z M 105.19336 507.65625 C 105.15959 508.06001 105.09123 508.49968 104.96484 509 C 105.04286 508.90839 105.1153 508.8108 105.19141 508.7168 C 105.22824 508.32392 105.22545 507.97543 105.19336 507.65625 z M 111.19336 507.65625 C 111.15959 508.06001 111.09123 508.49968 110.96484 509 C 111.04286 508.90839 111.1153 508.8108 111.19141 508.7168 C 111.22824 508.32392 111.22545 507.97543 111.19336 507.65625 z M 117.19336 507.65625 C 117.15959 508.06001 117.09123 508.49968 116.96484 509 C 117.04286 508.90839 117.1153 508.8108 117.19141 508.7168 C 117.22824 508.32392 117.22545 507.97543 117.19336 507.65625 z "
         transform="translate(0,-244)"
         id="path4509" />
      <path
         style="color:#000000;opacity:0.4;fill:#ffffff;fill-opacity:1;stroke:none"
         d="M 149 503 L 149 504 L 185 504 L 186.5 504 C 186.5 504 191 504 191 508.5 L 191 507.5 C 191 503 186.5 503 186.5 503 L 185 503 L 149 503 z M 188.04688 510.59375 C 188.04688 512 186.5 512 186.5 512 L 185.00586 512 L 185 513 L 186.5 513 C 186.5 513 188.04688 513 188.04688 511.59375 L 188.04688 510.59375 z "
         transform="translate(0,-244)"
         id="path4515" />
      <path
         style="color:#000000;opacity:0.4;fill:#ffffff;fill-opacity:1;stroke:none"
         d="M 158.58008 482 C 155.9596 485.30296 154.80308 487.27348 155.03516 489.27148 C 155.21996 487.66342 156.3046 485.91274 158.29102 483.375 C 158.36698 482.94205 158.45536 482.495 158.58008 482 z M 167.58008 482 C 164.9596 485.30296 163.80308 487.27348 164.03516 489.27148 C 164.21996 487.66342 165.3046 485.91274 167.29102 483.375 C 167.36698 482.94205 167.45536 482.495 167.58008 482 z M 176.58008 482 C 173.9596 485.30296 172.80308 487.27348 173.03516 489.27148 C 173.21996 487.66342 174.3046 485.91274 176.29102 483.375 C 176.36698 482.94205 176.45536 482.495 176.58008 482 z M 158.11523 485.79688 C 157.95302 488.43771 158.86458 489.95351 160.26953 492.10547 C 160.68275 492.73852 160.89833 493.40792 160.96875 494.09375 C 161.06884 493.05774 160.88169 492.04328 160.26953 491.10547 C 159.0529 489.24196 158.2167 487.84789 158.11523 485.79688 z M 167.11523 485.79688 C 166.95302 488.43771 167.86458 489.95351 169.26953 492.10547 C 169.68275 492.73852 169.89833 493.40792 169.96875 494.09375 C 170.06884 493.05774 169.88169 492.04328 169.26953 491.10547 C 168.0529 489.24196 167.2167 487.84789 167.11523 485.79688 z M 176.11523 485.79688 C 175.95302 488.43771 176.86458 489.95351 178.26953 492.10547 C 178.68275 492.73852 178.89833 493.40792 178.96875 494.09375 C 179.06884 493.05774 178.88169 492.04328 178.26953 491.10547 C 177.0529 489.24196 176.2167 487.84789 176.11523 485.79688 z M 158.31055 497.70508 C 158.27388 498.38164 158.16631 499.13293 157.94727 500 C 158.0376 499.89393 158.1203 499.78011 158.20898 499.67188 C 158.31912 498.93497 158.35023 498.28291 158.31055 497.70508 z M 167.31055 497.70508 C 167.27388 498.38164 167.16631 499.13293 166.94727 500 C 167.0376 499.89393 167.1203 499.78011 167.20898 499.67188 C 167.31912 498.93497 167.35023 498.28291 167.31055 497.70508 z M 176.31055 497.70508 C 176.27388 498.38164 176.16631 499.13293 175.94727 500 C 176.0376 499.89393 176.1203 499.78011 176.20898 499.67188 C 176.31912 498.93497 176.35023 498.28291 176.31055 497.70508 z "
         transform="translate(0,-244)"
         id="path4517" />
      <path
         style="color:#000000;opacity:0.4;fill:#ffffff;fill-opacity:1;stroke:none"
         d="M 54 515 L 54 516 L 72 516 L 72.734375 515.97656 C 72.908272 515.97978 73.054221 516.01001 73.183594 516.05469 C 73.836021 516.18064 75 516.62676 75 518.25 L 75 517.25 C 75 515 72.75 515 72.75 515 L 72 515 L 54 515 z M 74 518.79688 C 74 520 73 520 73 520 L 72 520 L 72 521 L 72.75 521 C 72.913655 521 73.062411 520.98497 73.203125 520.96289 C 73.494319 520.8934 74 520.65828 74 519.79688 L 74 518.79688 z "
         transform="translate(0,-244)"
         id="path4523" />
      <path
         style="color:#000000;opacity:0.4;fill:#ffffff;fill-opacity:1;stroke:none"
         d="M 58.789062 505 C 57.366372 506.79322 56.808584 507.8 57.064453 508.89258 C 57.22015 508.18284 57.735863 507.37383 58.568359 506.29883 C 58.598633 505.91683 58.663873 505.49686 58.789062 505 z M 63.289062 505 C 61.866372 506.79322 61.308584 507.8 61.564453 508.89258 C 61.72015 508.18284 62.235863 507.37383 63.068359 506.29883 C 63.098633 505.91683 63.163873 505.49686 63.289062 505 z M 67.789062 505 C 66.366372 506.79322 65.808584 507.8 66.064453 508.89258 C 66.22015 508.18284 66.735863 507.37383 67.568359 506.29883 C 67.598633 505.91683 67.663872 505.49686 67.789062 505 z M 58.580078 507.18945 C 58.437569 508.63783 58.897165 509.42296 59.634766 510.55273 C 59.797284 510.80171 59.883589 511.06367 59.9375 511.33008 C 60.057749 510.71417 59.996528 510.10695 59.634766 509.55273 C 59.085231 508.71102 58.690156 508.06205 58.580078 507.18945 z M 63.080078 507.18945 C 62.937569 508.63783 63.397165 509.42296 64.134766 510.55273 C 64.297284 510.80171 64.383589 511.06367 64.4375 511.33008 C 64.557749 510.71417 64.496528 510.10695 64.134766 509.55273 C 63.585231 508.71102 63.190156 508.06205 63.080078 507.18945 z M 67.580078 507.18945 C 67.437569 508.63783 67.897165 509.42296 68.634766 510.55273 C 68.797284 510.80171 68.883589 511.06367 68.9375 511.33008 C 69.057749 510.71417 68.996528 510.10695 68.634766 509.55273 C 68.085231 508.71102 67.690156 508.06205 67.580078 507.18945 z M 58.626953 513.14648 C 58.597046 513.40859 58.551821 513.68663 58.472656 514 C 58.532406 513.92984 58.588224 513.85523 58.646484 513.7832 C 58.654717 513.55499 58.652019 513.3388 58.626953 513.14648 z M 63.126953 513.14648 C 63.097046 513.40859 63.051821 513.68663 62.972656 514 C 63.032406 513.92984 63.088224 513.85523 63.146484 513.7832 C 63.154717 513.55499 63.152019 513.3388 63.126953 513.14648 z M 67.626953 513.14648 C 67.597046 513.40859 67.551821 513.68663 67.472656 514 C 67.532406 513.92984 67.588224 513.85523 67.646484 513.7832 C 67.654717 513.55499 67.652019 513.3388 67.626953 513.14648 z "
         transform="translate(0,-244)"
         id="path4525" />
    </g>
  </g>
</svg>
