<?xml version="1.0" encoding="UTF-8" standalone="no"?>
<!-- Created with Inkscape (http://www.inkscape.org/) -->

<svg
   xmlns:dc="http://purl.org/dc/elements/1.1/"
   xmlns:cc="http://creativecommons.org/ns#"
   xmlns:rdf="http://www.w3.org/1999/02/22-rdf-syntax-ns#"
   xmlns:svg="http://www.w3.org/2000/svg"
   xmlns="http://www.w3.org/2000/svg"
   xmlns:sodipodi="http://sodipodi.sourceforge.net/DTD/sodipodi-0.dtd"
   xmlns:inkscape="http://www.inkscape.org/namespaces/inkscape"
   inkscape:export-ydpi="90.000000"
   inkscape:export-xdpi="90.000000"
   width="736"
   height="544"
   id="svg11300"
   sodipodi:version="0.32"
   inkscape:version="0.91 r13725"
   sodipodi:docname="desktop-panel.svg"
   inkscape:output_extension="org.inkscape.output.svg.inkscape"
   version="1.0"
   style="display:inline;enable-background:new"
   inkscape:export-filename="/home/sam/paper-template.png">
  <title
     id="title3004">Paper Icon Theme</title>
  <sodipodi:namedview
     stroke="#ef2929"
     fill="#f57900"
     id="base"
     pagecolor="#7c7c7c"
     bordercolor="#666666"
     borderopacity="0.25490196"
     inkscape:pageopacity="0"
     inkscape:pageshadow="2"
     inkscape:zoom="1"
     inkscape:cx="383.66323"
     inkscape:cy="229.51411"
     inkscape:current-layer="g4368"
     showgrid="false"
     inkscape:grid-bbox="true"
     inkscape:document-units="px"
     inkscape:showpageshadow="false"
     inkscape:window-width="1920"
     inkscape:window-height="1019"
     inkscape:window-x="0"
     inkscape:window-y="27"
     width="400px"
     height="300px"
     inkscape:snap-nodes="true"
     inkscape:snap-bbox="true"
     gridtolerance="10000"
     inkscape:object-nodes="true"
     inkscape:snap-grids="true"
     showguides="true"
     inkscape:guide-bbox="true"
     inkscape:window-maximized="1"
     inkscape:bbox-nodes="true"
     inkscape:snap-bbox-edge-midpoints="true"
     inkscape:object-paths="true"
     inkscape:snap-intersection-paths="true"
     inkscape:snap-smooth-nodes="true"
     inkscape:snap-bbox-midpoints="true">
    <inkscape:grid
       spacingy="1px"
       spacingx="1px"
       id="grid5883"
       type="xygrid"
       enabled="true"
       visible="true"
       empspacing="4"
       snapvisiblegridlinesonly="true" />
    <inkscape:grid
       type="xygrid"
       id="grid11592"
       empspacing="2"
       visible="true"
       enabled="false"
       spacingx="0.5px"
       spacingy="0.5px"
       color="#ff0000"
       opacity="0.1254902"
       empcolor="#ff0000"
       empopacity="0.25098039"
       snapvisiblegridlinesonly="true" />
  </sodipodi:namedview>
  <defs
     id="defs3">
    <filter
       inkscape:collect="always"
       style="color-interpolation-filters:sRGB"
       id="filter4235"
       x="-0.021428598"
       width="1.0428572"
       y="-0.027272684"
       height="1.0545454">
      <feGaussianBlur
         inkscape:collect="always"
         stdDeviation="3.9999896"
         id="feGaussianBlur4237" />
    </filter>
    <clipPath
       clipPathUnits="userSpaceOnUse"
       id="clipPath4222">
      <path
         inkscape:connector-curvature="0"
         id="path4224"
         d="m 264.0039,-148 c -13.296,0 -24,10.704 -24,24 l 0,24 0,280 c 0,13.296 10.704,24 24,24 l 399.99805,0 c 13.296,0 24,-10.704 24,-24 l 0,-280 0,-24 c 0,-13.296 -10.704,-24 -24,-24 l -399.99805,0 z"
         style="fill:#4ab3e4;fill-opacity:1;stroke:none" />
    </clipPath>
    <clipPath
       clipPathUnits="userSpaceOnUse"
       id="clipPath4242">
      <path
         id="path4244"
         d="m 240.00391,-120 0,300 c 0,13.296 10.704,24 24,24 l 399.99804,0 c 13.296,0 24,-10.704 24,-24 l 0,-300 z"
         style="fill:#4ab3e4;fill-opacity:1;stroke:none"
         inkscape:connector-curvature="0"
         sodipodi:nodetypes="csssscc" />
    </clipPath>
    <filter
       inkscape:collect="always"
       style="color-interpolation-filters:sRGB"
       id="filter4317"
       x="-0.013090913"
       width="1.0261818"
       y="-0.14399951"
       height="1.287999">
      <feGaussianBlur
         inkscape:collect="always"
         stdDeviation="2.8799902"
         id="feGaussianBlur4319" />
    </filter>
  </defs>
  <metadata
     id="metadata4">
    <rdf:RDF>
      <cc:Work
         rdf:about="">
        <dc:format>image/svg+xml</dc:format>
        <dc:type
           rdf:resource="http://purl.org/dc/dcmitype/StillImage" />
        <dc:creator>
          <cc:Agent>
            <dc:title>Sam Hewitt</dc:title>
          </cc:Agent>
        </dc:creator>
        <dc:source />
        <cc:license
           rdf:resource="http://creativecommons.org/licenses/by-sa/3.0/" />
        <dc:title>Paper Icon Theme</dc:title>
        <dc:subject>
          <rdf:Bag />
        </dc:subject>
        <dc:date />
        <dc:rights>
          <cc:Agent>
            <dc:title />
          </cc:Agent>
        </dc:rights>
        <dc:publisher>
          <cc:Agent>
            <dc:title />
          </cc:Agent>
        </dc:publisher>
        <dc:identifier />
        <dc:relation />
        <dc:language />
        <dc:coverage />
        <dc:description />
        <dc:contributor>
          <cc:Agent>
            <dc:title />
          </cc:Agent>
        </dc:contributor>
      </cc:Work>
      <cc:Work
         rdf:about="">
        <dc:format>image/svg+xml</dc:format>
        <dc:type
           rdf:resource="http://purl.org/dc/dcmitype/StillImage" />
      </cc:Work>
      <cc:License
         rdf:about="http://creativecommons.org/licenses/by-sa/3.0/">
        <cc:permits
           rdf:resource="http://creativecommons.org/ns#Reproduction" />
        <cc:permits
           rdf:resource="http://creativecommons.org/ns#Distribution" />
        <cc:requires
           rdf:resource="http://creativecommons.org/ns#Notice" />
        <cc:requires
           rdf:resource="http://creativecommons.org/ns#Attribution" />
        <cc:permits
           rdf:resource="http://creativecommons.org/ns#DerivativeWorks" />
        <cc:requires
           rdf:resource="http://creativecommons.org/ns#ShareAlike" />
      </cc:License>
    </rdf:RDF>
  </metadata>
  <g
     style="display:inline"
     inkscape:groupmode="layer"
     inkscape:label="Icon"
     id="g4344"
     transform="translate(0,244)">
    <g
       style="display:none"
       inkscape:label="Baseplate"
       id="g4346"
       inkscape:groupmode="layer">
      <text
         y="332.76678"
         xml:space="preserve"
         x="15.006836"
         style="font-style:normal;font-variant:normal;font-weight:normal;font-stretch:normal;font-size:18px;font-family:'DejaVu Sans';-inkscape-font-specification:'DejaVu Sans';display:inline;fill:#000000;fill-opacity:1;stroke:none;enable-background:new"
         inkscape:label="context"
         id="text4348"><tspan
           style="font-style:normal;font-variant:normal;font-weight:normal;font-stretch:normal;font-family:'DejaVu Sans';-inkscape-font-specification:'DejaVu Sans'"
           y="332.76678"
           x="15.006836"
           sodipodi:role="line"
           id="tspan4350">apps</tspan></text>
      <text
         y="332.76678"
         xml:space="preserve"
         x="142.48828"
         style="font-style:normal;font-variant:normal;font-weight:bold;font-stretch:normal;font-size:18px;line-height:125%;font-family:'DejaVu Sans';-inkscape-font-specification:'DejaVu Sans Bold';text-align:start;writing-mode:lr-tb;text-anchor:start;display:inline;fill:#000000;fill-opacity:1;stroke:none;enable-background:new"
         sodipodi:linespacing="125%"
         inkscape:label="icon-name"
         id="text4352"><tspan
           style="font-style:normal;font-variant:normal;font-weight:bold;font-stretch:normal;font-size:18px;font-family:'DejaVu Sans';-inkscape-font-specification:'DejaVu Sans Bold'"
           y="332.76678"
           x="142.48828"
           sodipodi:role="line"
           id="tspan4354">desktop-panel</tspan><tspan
           id="tspan4356"
           style="font-style:normal;font-variant:normal;font-weight:bold;font-stretch:normal;font-size:18px;font-family:'DejaVu Sans';-inkscape-font-specification:'DejaVu Sans Bold'"
           y="355.26678"
           x="142.48828"
           sodipodi:role="line" /></text>
      <rect
         style="display:inline;overflow:visible;visibility:visible;fill:#e9e9e9;fill-opacity:1;fill-rule:nonzero;stroke:none;stroke-width:2;marker:none;enable-background:accumulate"
         id="rect4358"
         width="16"
         height="16"
         x="-32"
         y="268"
         inkscape:label="16x16"
         transform="scale(-1,1)" />
      <rect
         style="display:inline;overflow:visible;visibility:visible;fill:#e9e9e9;fill-opacity:1;fill-rule:nonzero;stroke:none;stroke-width:2;marker:none;enable-background:accumulate"
         id="rect4360"
         width="24"
         height="24"
         x="-76"
         y="260"
         inkscape:label="24x24"
         transform="scale(-1,1)" />
      <rect
         style="display:inline;overflow:visible;visibility:visible;fill:#e9e9e9;fill-opacity:1;fill-rule:nonzero;stroke:none;stroke-width:2;marker:none;enable-background:accumulate"
         id="rect4362"
         width="32"
         height="32"
         x="-128"
         y="252"
         inkscape:label="32x32"
         transform="scale(-1,1)" />
      <rect
         inkscape:label="48x48"
         y="236"
         x="-192"
         height="48"
         width="48"
         id="rect4364"
         style="display:inline;overflow:visible;visibility:visible;fill:#e9e9e9;fill-opacity:1;fill-rule:nonzero;stroke:none;stroke-width:2;marker:none;enable-background:accumulate"
         transform="scale(-1,1)" />
      <rect
         style="display:inline;overflow:visible;visibility:visible;fill:#e9e9e9;fill-opacity:1;fill-rule:nonzero;stroke:none;stroke-width:2;marker:none;enable-background:accumulate"
         id="rect4366"
         width="512"
         height="512"
         x="-720"
         y="-228"
         inkscape:label="48x48"
         transform="scale(-1,1)" />
    </g>
    <g
       inkscape:groupmode="layer"
       id="g4368"
       inkscape:label="Symbols"
       style="display:inline">
      <path
         style="fill:#2196f3;fill-opacity:1;stroke:none"
         d="M 148.00195 492 L 148.00195 504 L 148.00195 518 C 148.00195 519.108 148.89395 520 150.00195 520 L 186.00195 520 C 187.10995 520 188.00195 519.108 188.00195 518 L 188.00195 492 L 148.00195 492 z "
         transform="translate(0,-244)"
         id="path4590" />
      <path
         id="path4309"
         d="m 150.00195,247 c 0,0 -2,0 -2,2 l 0,2 40,0 0,-2 c 0,-1.108 -0.892,-2 -2,-2 l -18,0 -18,0 z"
         style="opacity:0.1;fill:#000000;fill-opacity:1;stroke:none"
         inkscape:connector-curvature="0" />
      <path
         style="fill:#333333;fill-opacity:1;stroke:none"
         d="m 150.00195,488 c 0,0 -2,0 -2,2 l 0,4 40,0 0,-4 c 0,-1.108 -0.892,-2 -2,-2 l -18,0 z"
         transform="translate(0,-244)"
         id="path4301"
         inkscape:connector-curvature="0"
         sodipodi:nodetypes="csccsscc" />
      <rect
         ry="24"
         rx="24"
         y="-688"
         x="-208"
         height="447.99829"
         width="351.99963"
         id="rect4584"
         style="opacity:0.1;fill:#000000;fill-opacity:1;stroke:#000000;stroke-width:8;stroke-miterlimit:4;stroke-dasharray:none;stroke-opacity:1;filter:url(#filter4235)"
         transform="matrix(0,-1,-1,0,0.00195,0)" />
      <path
         style="opacity:0.2;fill:#000000;fill-opacity:1;stroke:none"
         d="m 99.50195,280 c -0.831,0 -1.5,-0.669 -1.5,-1.5 l 0,-1 c 0,0.831 0.669,1.5 1.5,1.5 l 25,0 c 0.831,0 1.5,-0.669 1.5,-1.5 l 0,1 c 0,0.831 -0.669,1.5 -1.5,1.5 l -25,0 z"
         id="path4576"
         inkscape:connector-curvature="0" />
      <path
         style="opacity:0.2;fill:#000000;fill-opacity:1;stroke:none"
         d="m 55.501958,281 c -0.831,0 -1.5,-0.669 -1.5,-1.5 l 0,-1 c 0,0.831 0.669,1.5 1.5,1.5 l 15.999021,0 c 0.831,0 1.5,-0.669 1.5,-1.5 l 0,1 c 0,0.831 -0.669,1.5 -1.5,1.5 z"
         id="path4578"
         inkscape:connector-curvature="0"
         sodipodi:nodetypes="sscsscsss" />
      <path
         style="opacity:0.2;fill:#000000;fill-opacity:1;stroke:none"
         d="m 150.00195,277 c -1.108,0 -2,-0.892 -2,-2 l 0,-1 c 0,1.108 0.892,2 2,2 l 36,0 c 1.108,0 2,-0.892 2,-2 l 0,1 c 0,1.108 -0.892,2 -2,2 l -36,0 z"
         id="path4580"
         inkscape:connector-curvature="0" />
      <rect
         transform="matrix(0,-1,-1,0,0.00195,0)"
         style="opacity:0.2;fill:#000000;fill-opacity:1;stroke:none;filter:url(#filter4235)"
         id="rect4582"
         width="351.99963"
         height="447.99829"
         x="-208"
         y="-688"
         rx="24"
         ry="24" />
      <path
         style="fill:#2196f3;fill-opacity:1;stroke:none"
         d="m 54.001953,511 0,11.5 c 0,0.831 0.669,1.5 1.5,1.5 L 71.5,524 c 0.831,0 1.5,-0.669 1.5,-1.5 L 73,511 Z"
         transform="translate(0,-244)"
         id="rect4586"
         inkscape:connector-curvature="0"
         sodipodi:nodetypes="csssscc" />
      <path
         style="fill:#2196f3;fill-opacity:1;stroke:none"
         d="M 98.001953 505 L 98.001953 521.5 C 98.001953 522.331 98.670953 523 99.501953 523 L 124.50195 523 C 125.33295 523 126.00195 522.331 126.00195 521.5 L 126.00195 505 L 98.001953 505 z "
         transform="translate(0,-244)"
         id="rect4598" />
      <path
         style="fill:#2196f3;fill-opacity:1;stroke:none"
         d="m 240.00391,-100 0,280 c 0,13.296 10.704,24 24,24 l 399.99804,0 c 13.296,0 24,-10.704 24,-24 l 0,-280 -447.99804,0 z"
         id="path4228"
         inkscape:connector-curvature="0" />
      <path
         id="path4606"
         d="m 264.00195,206 c -13.296,0 -24,-10.704 -24,-24 l 0,-2 c 0,13.296 10.704,24 24,24 l 400,0 c 13.296,0 24,-10.704 24,-24 l 0,2 c 0,13.296 -10.704,24 -24,24 l -400,0 z"
         style="opacity:0.1;fill:#000000;fill-opacity:1;stroke:none"
         inkscape:connector-curvature="0" />
      <path
         id="path4234"
         d="m 224.00391,-146 c -13.296,0 -24,10.704 -24,24 l 0,24 527.99804,0 0,-24 c 0,-13.296 -10.704,-24 -24,-24 z"
         style="opacity:0.2;fill:#000000;fill-opacity:1;stroke:none;stroke-opacity:1;filter:url(#filter4317)"
         inkscape:connector-curvature="0"
         sodipodi:nodetypes="ssccsss"
         clip-path="url(#clipPath4242)"
         transform="translate(0,16)" />
      <path
         style="fill:#333333;fill-opacity:1;stroke:none;stroke-opacity:1"
         d="m 264.00391,96 c 0,0 -24.00391,0 -24,24 0.001,7.88199 -0.0702,40.01589 0,40 l 447.99804,0 0,-40 c 0,-13.296 -10.704,-24 -24,-24 z"
         id="path4594"
         inkscape:connector-curvature="0"
         sodipodi:nodetypes="csccssc"
         transform="translate(0,-244)" />
      <path
         style="display:inline;fill:#2196f3;fill-opacity:1;stroke:none;enable-background:new"
         d="m 17,516 0.002,9 c 1.2e-4,0.554 0.446,1 1,1 l 11,0 c 0.554,0 1,-0.446 1,-1 L 30,516 Z"
         id="path4271"
         transform="translate(0,-244)"
         inkscape:connector-curvature="0"
         sodipodi:nodetypes="csssscc" />
      <path
         style="display:inline;fill:#333333;fill-opacity:1;stroke:none;enable-background:new"
         d="m 18.001953,514 c -0.554,0 -1,0.446 -1,1 l -0.002,2 13,0 0.002,-2 c 5.41e-4,-0.554 -0.446,-1 -1,-1 z"
         transform="translate(0,-244)"
         id="path4273"
         inkscape:connector-curvature="0"
         sodipodi:nodetypes="ssccsss" />
      <path
         id="path4311"
         d="m 55.501953,265 c -0.831,0 -1.5,0.669 -1.5,1.5 l 0,1.5 L 73,268 l 0,-1.5 c 0,-0.831 -0.669,-1.5 -1.5,-1.5 l -15.998047,0 z"
         style="fill:#000000;fill-opacity:1;stroke:none;opacity:0.1"
         inkscape:connector-curvature="0" />
      <path
         style="fill:#333333;fill-opacity:1;stroke:none"
         d="M 55.501953 508 C 54.670953 508 54.001953 508.669 54.001953 509.5 L 54.001953 511 L 73 511 L 73 509.5 C 73 508.669 72.331 508 71.5 508 L 55.501953 508 z "
         id="path4281"
         transform="translate(0,-244)" />
      <path
         id="path4313"
         d="m 99.501953,258 c -0.831,0 -1.5,0.669 -1.5,1.5 L 98,263 l 28,0 0.002,-3.5 c 4.6e-4,-0.831 -0.669,-1.5 -1.5,-1.5 z"
         style="opacity:0.1;fill:#000000;fill-opacity:1;stroke:none"
         inkscape:connector-curvature="0"
         sodipodi:nodetypes="ssccsss" />
      <path
         style="fill:#333333;fill-opacity:1;stroke:none"
         d="m 99.501953,501 c -0.831,0 -1.5,0.669 -1.5,1.5 L 98,506 l 28,0 0.002,-3.5 c 4.6e-4,-0.831 -0.669,-1.5 -1.5,-1.5 z"
         transform="translate(0,-244)"
         id="rect4293"
         inkscape:connector-curvature="0"
         sodipodi:nodetypes="ssccsss" />
      <path
         inkscape:connector-curvature="0"
         style="opacity:0.1;fill:#ffffff;fill-opacity:1;stroke:none"
         d="m 264.00195,204 c -13.296,0 -24,-10.704 -24,-24 l 0,-2 c 0,13.296 10.704,24 24,24 l 400,0 c 13.296,0 24,-10.704 24,-24 l 0,2 c 0,13.296 -10.704,24 -24,24 l -400,0 z"
         id="path4315" />
      <path
         style="fill:#ffffff;fill-opacity:1;stroke:none;stroke-opacity:1;opacity:0.2"
         d="M 264.00391 96 C 264.00391 96 240 96 240.00391 120 C 240.00445 124.27205 239.98638 135.42049 239.97852 144.96094 C 239.98742 135.9442 240.00441 125.941 240.00391 122 C 240 98 264.00391 98 264.00391 98 L 664.00195 98 C 677.29795 98 688.00195 108.704 688.00195 122 L 688.00195 120 C 688.00195 106.704 677.29795 96 664.00195 96 L 264.00391 96 z "
         transform="translate(0,-244)"
         id="path4321" />
    </g>
  </g>
</svg>
