<?xml version="1.0" encoding="UTF-8" standalone="no"?>
<!-- Created with Inkscape (http://www.inkscape.org/) -->

<svg
   xmlns:osb="http://www.openswatchbook.org/uri/2009/osb"
   xmlns:dc="http://purl.org/dc/elements/1.1/"
   xmlns:cc="http://creativecommons.org/ns#"
   xmlns:rdf="http://www.w3.org/1999/02/22-rdf-syntax-ns#"
   xmlns:svg="http://www.w3.org/2000/svg"
   xmlns="http://www.w3.org/2000/svg"
   xmlns:sodipodi="http://sodipodi.sourceforge.net/DTD/sodipodi-0.dtd"
   xmlns:inkscape="http://www.inkscape.org/namespaces/inkscape"
   inkscape:export-ydpi="90.000000"
   inkscape:export-xdpi="90.000000"
   width="600"
   height="224"
   id="svg11300"
   sodipodi:version="0.32"
   inkscape:version="0.91 r13725"
   sodipodi:docname="disk-usage-analyzer.svg"
   inkscape:output_extension="org.inkscape.output.svg.inkscape"
   version="1.0"
   style="display:inline;enable-background:new"
   inkscape:export-filename="/home/sam/paper-template.png">
  <title
     id="title3004">Paper Icon Theme Template</title>
  <sodipodi:namedview
     stroke="#ef2929"
     fill="#f57900"
     id="base"
     pagecolor="#efefef"
     bordercolor="#666666"
     borderopacity="0.25490196"
     inkscape:pageopacity="0"
     inkscape:pageshadow="2"
     inkscape:zoom="1"
     inkscape:cx="276.01347"
     inkscape:cy="13.927487"
     inkscape:current-layer="layer7"
     showgrid="false"
     inkscape:grid-bbox="true"
     inkscape:document-units="px"
     inkscape:showpageshadow="false"
     inkscape:window-width="1366"
     inkscape:window-height="711"
     inkscape:window-x="0"
     inkscape:window-y="27"
     width="400px"
     height="300px"
     inkscape:snap-nodes="true"
     inkscape:snap-bbox="true"
     gridtolerance="10000"
     inkscape:object-nodes="true"
     inkscape:snap-grids="true"
     showguides="true"
     inkscape:guide-bbox="true"
     inkscape:window-maximized="1"
     inkscape:bbox-nodes="true"
     inkscape:snap-bbox-edge-midpoints="true"
     inkscape:snap-bbox-midpoints="true"
     inkscape:bbox-paths="true">
    <inkscape:grid
       spacingy="1px"
       spacingx="1px"
       id="grid5883"
       type="xygrid"
       enabled="true"
       visible="true"
       empspacing="4"
       snapvisiblegridlinesonly="true" />
    <inkscape:grid
       type="xygrid"
       id="grid11592"
       empspacing="2"
       visible="true"
       enabled="false"
       spacingx="0.5px"
       spacingy="0.5px"
       color="#ff0000"
       opacity="0.1254902"
       empcolor="#ff0000"
       empopacity="0.25098039"
       snapvisiblegridlinesonly="true" />
    <sodipodi:guide
       orientation="0,1"
       position="0,224"
       id="guide4275" />
  </sodipodi:namedview>
  <defs
     id="defs3">
    <filter
       inkscape:collect="always"
       style="color-interpolation-filters:sRGB"
       id="filter4221"
       x="-0.040500034"
       width="1.0810001"
       y="-0.032399978"
       height="1.0648">
      <feGaussianBlur
         inkscape:collect="always"
         stdDeviation="0.54000046"
         id="feGaussianBlur4223" />
    </filter>
    <filter
       inkscape:collect="always"
       style="color-interpolation-filters:sRGB"
       id="filter4235"
       x="-0.027"
       width="1.054"
       y="-0.0216"
       height="1.0432">
      <feGaussianBlur
         inkscape:collect="always"
         stdDeviation="0.72"
         id="feGaussianBlur4237" />
    </filter>
    <filter
       inkscape:collect="always"
       style="color-interpolation-filters:sRGB"
       id="filter4249"
       x="-0.027272744"
       width="1.0545455"
       y="-0.021428561"
       height="1.0428571">
      <feGaussianBlur
         inkscape:collect="always"
         stdDeviation="0.25000015"
         id="feGaussianBlur4251" />
    </filter>
    <filter
       inkscape:collect="always"
       style="color-interpolation-filters:sRGB"
       id="filter4287"
       x="-0.027272727"
       width="1.0545455"
       y="-0.021428571"
       height="1.0428571">
      <feGaussianBlur
         inkscape:collect="always"
         stdDeviation="0.5"
         id="feGaussianBlur4289" />
    </filter>
    <filter
       inkscape:collect="always"
       style="color-interpolation-filters:sRGB"
       id="filter4314"
       x="-0.027"
       width="1.054"
       y="-0.0216"
       height="1.0432">
      <feGaussianBlur
         inkscape:collect="always"
         stdDeviation="1.44"
         id="feGaussianBlur4316" />
    </filter>
    <filter
       inkscape:collect="always"
       style="color-interpolation-filters:sRGB"
       id="filter4360"
       x="-0.059999999"
       width="1.12"
       y="-0.059999999"
       height="1.12">
      <feGaussianBlur
         inkscape:collect="always"
         stdDeviation="0.6"
         id="feGaussianBlur4362" />
    </filter>
    <filter
       inkscape:collect="always"
       style="color-interpolation-filters:sRGB"
       id="filter4348"
       x="-0.059999999"
       width="1.12"
       y="-0.059999999"
       height="1.12">
      <feGaussianBlur
         inkscape:collect="always"
         stdDeviation="0.85"
         id="feGaussianBlur4350" />
    </filter>
    <filter
       inkscape:collect="always"
       style="color-interpolation-filters:sRGB"
       id="filter4375"
       x="-0.059999999"
       width="1.12"
       y="-0.059999999"
       height="1.12">
      <feGaussianBlur
         inkscape:collect="always"
         stdDeviation="2.4"
         id="feGaussianBlur4377" />
    </filter>
    <filter
       inkscape:collect="always"
       style="color-interpolation-filters:sRGB"
       id="filter4631"
       x="-0.059999999"
       width="1.12"
       y="-0.059999999"
       height="1.12">
      <feGaussianBlur
         inkscape:collect="always"
         stdDeviation="1.2"
         id="feGaussianBlur4633" />
    </filter>
    <linearGradient
       osb:paint="solid"
       id="linearGradient5606">
      <stop
         style="stop-color:#000000;stop-opacity:1;"
         offset="0"
         id="stop5608" />
    </linearGradient>
    <filter
       inkscape:collect="always"
       style="color-interpolation-filters:sRGB"
       id="filter5139"
       x="-0.06"
       width="1.12"
       y="-0.06"
       height="1.12">
      <feGaussianBlur
         inkscape:collect="always"
         stdDeviation="0.4"
         id="feGaussianBlur5141" />
    </filter>
  </defs>
  <metadata
     id="metadata4">
    <rdf:RDF>
      <cc:Work
         rdf:about="">
        <dc:format>image/svg+xml</dc:format>
        <dc:type
           rdf:resource="http://purl.org/dc/dcmitype/StillImage" />
        <dc:creator>
          <cc:Agent>
            <dc:title>Sam Hewitt</dc:title>
          </cc:Agent>
        </dc:creator>
        <dc:source />
        <cc:license
           rdf:resource="http://creativecommons.org/licenses/by-nc-sa/3.0/" />
        <dc:title>Paper Icon Theme Template</dc:title>
        <dc:subject>
          <rdf:Bag />
        </dc:subject>
        <dc:date />
        <dc:rights>
          <cc:Agent>
            <dc:title />
          </cc:Agent>
        </dc:rights>
        <dc:publisher>
          <cc:Agent>
            <dc:title />
          </cc:Agent>
        </dc:publisher>
        <dc:identifier />
        <dc:relation />
        <dc:language />
        <dc:coverage />
        <dc:description />
        <dc:contributor>
          <cc:Agent>
            <dc:title />
          </cc:Agent>
        </dc:contributor>
      </cc:Work>
      <cc:Work
         rdf:about="">
        <dc:format>image/svg+xml</dc:format>
        <dc:type
           rdf:resource="http://purl.org/dc/dcmitype/StillImage" />
      </cc:Work>
      <cc:License
         rdf:about="http://creativecommons.org/licenses/by-nc-sa/3.0/">
        <cc:permits
           rdf:resource="http://creativecommons.org/ns#Reproduction" />
        <cc:permits
           rdf:resource="http://creativecommons.org/ns#Distribution" />
        <cc:requires
           rdf:resource="http://creativecommons.org/ns#Notice" />
        <cc:requires
           rdf:resource="http://creativecommons.org/ns#Attribution" />
        <cc:prohibits
           rdf:resource="http://creativecommons.org/ns#CommercialUse" />
        <cc:permits
           rdf:resource="http://creativecommons.org/ns#DerivativeWorks" />
        <cc:requires
           rdf:resource="http://creativecommons.org/ns#ShareAlike" />
      </cc:License>
    </rdf:RDF>
  </metadata>
  <g
     style="display:inline"
     inkscape:groupmode="layer"
     inkscape:label="Icon"
     id="layer1"
     transform="translate(0,-76)">
    <g
       style="display:none"
       inkscape:label="Baseplate"
       id="layer7"
       inkscape:groupmode="layer">
      <text
         y="59.745117"
         xml:space="preserve"
         x="15.006836"
         style="font-style:normal;font-variant:normal;font-weight:normal;font-stretch:normal;font-size:18px;font-family:'DejaVu Sans';-inkscape-font-specification:'DejaVu Sans';display:inline;fill:#000000;fill-opacity:1;stroke:none;enable-background:new"
         inkscape:label="context"
         id="context"><tspan
           style="font-style:normal;font-variant:normal;font-weight:normal;font-stretch:normal;font-family:'DejaVu Sans';-inkscape-font-specification:'DejaVu Sans'"
           y="59.745117"
           x="15.006836"
           sodipodi:role="line"
           id="tspan3933">apps</tspan></text>
      <text
         y="59.745117"
         xml:space="preserve"
         x="142.48828"
         style="font-style:normal;font-variant:normal;font-weight:bold;font-stretch:normal;font-size:18px;line-height:125%;font-family:'DejaVu Sans';-inkscape-font-specification:'DejaVu Sans Bold';text-align:start;writing-mode:lr-tb;text-anchor:start;display:inline;fill:#000000;fill-opacity:1;stroke:none;enable-background:new"
         sodipodi:linespacing="125%"
         inkscape:label="icon-name"
         id="icon-name"><tspan
           style="font-style:normal;font-variant:normal;font-weight:bold;font-stretch:normal;font-size:18px;font-family:'DejaVu Sans';-inkscape-font-specification:'DejaVu Sans Bold'"
           y="59.745117"
           x="142.48828"
           sodipodi:role="line"
           id="tspan3937">disk-usage-analyzer</tspan></text>
      <rect
         style="display:inline;overflow:visible;visibility:visible;fill:#e9e9e9;fill-opacity:1;fill-rule:nonzero;stroke:none;stroke-width:2;marker:none;enable-background:accumulate"
         id="rect16x16"
         width="16"
         height="16"
         x="-32"
         y="268"
         inkscape:label="16x16"
         transform="scale(-1,1)" />
      <rect
         style="display:inline;overflow:visible;visibility:visible;fill:#e9e9e9;fill-opacity:1;fill-rule:nonzero;stroke:none;stroke-width:2;marker:none;enable-background:accumulate"
         id="rect24x24"
         width="24"
         height="24"
         x="-72"
         y="260"
         inkscape:label="24x24"
         transform="scale(-1,1)" />
      <rect
         style="display:inline;overflow:visible;visibility:visible;fill:#e9e9e9;fill-opacity:1;fill-rule:nonzero;stroke:none;stroke-width:2;marker:none;enable-background:accumulate"
         id="rect32x32"
         width="32"
         height="32"
         x="-120"
         y="252"
         inkscape:label="32x32"
         transform="scale(-1,1)" />
      <rect
         inkscape:label="48x48"
         y="236"
         x="-184"
         height="48"
         width="48"
         id="rect48x48"
         style="display:inline;overflow:visible;visibility:visible;fill:#e9e9e9;fill-opacity:1;fill-rule:nonzero;stroke:none;stroke-width:2;marker:none;enable-background:accumulate"
         transform="scale(-1,1)" />
      <rect
         style="display:inline;overflow:visible;visibility:visible;fill:#e9e9e9;fill-opacity:1;fill-rule:nonzero;stroke:none;stroke-width:2;marker:none;enable-background:accumulate"
         id="rect256x256"
         width="192"
         height="192"
         x="-584"
         y="92"
         inkscape:label="256x256"
         transform="scale(-1,1)" />
      <rect
         inkscape:label="256x256"
         y="188"
         x="-376"
         height="96"
         width="96"
         id="rect3949"
         style="display:inline;overflow:visible;visibility:visible;fill:#e9e9e9;fill-opacity:1;fill-rule:nonzero;stroke:none;stroke-width:2;marker:none;enable-background:accumulate"
         transform="scale(-1,1)" />
      <rect
         style="display:inline;overflow:visible;visibility:visible;fill:#e9e9e9;fill-opacity:1;fill-rule:nonzero;stroke:none;stroke-width:2;marker:none;enable-background:accumulate"
         id="rect3951"
         width="64"
         height="64"
         x="-264"
         y="220"
         inkscape:label="48x48"
         transform="scale(-1,1)" />
    </g>
    <g
       inkscape:groupmode="layer"
       id="layer6"
       inkscape:label="Symbols"
       style="display:inline">
      <rect
         ry="2"
         rx="2"
         y="-115"
         x="-283"
         height="22"
         width="28.000031"
         id="rect4247"
         style="fill:#000000;fill-opacity:1;stroke:none;opacity:0.5;filter:url(#filter4249)"
         transform="matrix(0,-1,-1,0,0,0)" />
      <rect
         ry="4"
         rx="4"
         y="-360"
         x="197"
         height="64"
         width="80"
         id="rect4225"
         style="fill:#000000;fill-opacity:1;stroke:none;opacity:0.5;filter:url(#filter4235)"
         transform="matrix(0,1,-1,0,0,0)" />
      <rect
         transform="matrix(0,-1,-1,0,0,0)"
         style="fill:#000000;fill-opacity:1;stroke:none;opacity:0.5;filter:url(#filter4287)"
         id="rect4269"
         width="56"
         height="44"
         x="-281"
         y="-254"
         rx="3"
         ry="3" />
      <rect
         ry="1.5"
         rx="1.5"
         y="-68"
         x="-283"
         height="16"
         width="20"
         id="rect4322"
         style="fill:#000000;fill-opacity:1;stroke:#000000;opacity:0.05;stroke-opacity:1;stroke-width:2;stroke-miterlimit:4;stroke-dasharray:none"
         transform="matrix(0,-1,-1,0,0,0)" />
      <rect
         transform="matrix(0,-1,-1,0,0,0)"
         style="fill:#000000;fill-opacity:1;stroke:none;opacity:0.5"
         id="rect4320"
         width="20"
         height="16"
         x="-283"
         y="-68"
         rx="1.5"
         ry="1.5" />
      <rect
         transform="matrix(0,-1,-1,0,0,0)"
         style="fill:#000000;fill-opacity:1;stroke:none;opacity:0.5;filter:url(#filter4314)"
         id="rect4300"
         width="160"
         height="128"
         x="-269"
         y="-552"
         rx="8"
         ry="8" />
      <rect
         ry="2"
         rx="2"
         y="-176"
         x="-281"
         height="32"
         width="40.000061"
         id="rect4211"
         style="fill:#000000;fill-opacity:1;stroke:none;opacity:0.5;filter:url(#filter4221)"
         transform="matrix(0,-1,-1,0,0,0)" />
      <rect
         transform="matrix(0,-1,-1,0,0,0)"
         style="fill:#858a89;fill-opacity:1;stroke:none"
         id="rect4203"
         width="40.000061"
         height="32"
         x="-280"
         y="-176"
         rx="2"
         ry="2" />
      <rect
         transform="matrix(0,-1,-1,0,0,0)"
         style="fill:#858a89;fill-opacity:1;stroke:none"
         id="rect4217"
         width="80"
         height="64"
         x="-276"
         y="-360"
         rx="4"
         ry="4" />
      <rect
         ry="3"
         rx="3"
         y="-254"
         x="-280"
         height="44"
         width="56"
         id="rect4229"
         style="fill:#858a89;fill-opacity:1;stroke:none"
         transform="matrix(0,-1,-1,0,0,0)" />
      <rect
         ry="1.5"
         rx="1.5"
         y="-68"
         x="-282"
         height="16"
         width="20"
         id="rect4243"
         style="fill:#858a89;fill-opacity:1;stroke:none"
         transform="matrix(0,-1,-1,0,0,0)" />
      <rect
         transform="matrix(0,-1,-1,0,0,0)"
         style="fill:#858a89;fill-opacity:1;stroke:none"
         id="rect4255"
         width="28.000031"
         height="22"
         x="-282"
         y="-115"
         rx="2"
         ry="2" />
      <rect
         transform="matrix(0,-1,-1,0,0,0)"
         style="display:inline;fill:#858a89;fill-opacity:1;stroke:none;enable-background:new"
         id="rect4265"
         width="16"
         height="14"
         x="-284"
         y="-31"
         rx="1"
         ry="1" />
      <path
         style="display:inline;opacity:0.2;fill:#000000;fill-opacity:1;stroke:none;enable-background:new"
         sodipodi:nodetypes="ssscsssssss"
         id="rect8476"
         d="m 160,246 c 5.52285,0 10,4.47715 10,10 0,5.52285 -4.47715,10 -10,10 l -10,0 0,-10 c 0,-5.52285 4.47715,-10 10,-10 z m 0,5 c -2.76143,0 -5,2.23857 -5,5 0,2.76142 2.23857,5 5,5 2.76142,0 5,-2.23858 5,-5 0,-2.76143 -2.23858,-5 -5,-5 z"
         inkscape:connector-curvature="0" />
      <path
         inkscape:connector-curvature="0"
         d="m 328,208 c 11.0457,0 20,8.9543 20,20 0,11.0457 -8.9543,20 -20,20 l -20,0 0,-20 c 0,-11.0457 8.9543,-20 20,-20 z m 0,10 c -5.52286,0 -10,4.47714 -10,10 0,5.52284 4.47714,10 10,10 5.52284,0 10,-4.47716 10,-10 0,-5.52286 -4.47716,-10 -10,-10 z"
         id="path4192"
         sodipodi:nodetypes="ssscsssssss"
         style="display:inline;opacity:0.2;fill:#000000;fill-opacity:1;stroke:none;enable-background:new" />
      <path
         inkscape:connector-curvature="0"
         d="m 60,265 c 2.76142,0 5,2.23857 5,5 0,2.76143 -2.23858,5 -5,5 l -5,0 0,-5 c 0,-2.76143 2.23857,-5 5,-5 z m 0,2.5 c -1.38072,0 -2.5,1.11928 -2.5,2.5 0,1.38071 1.11928,2.5 2.5,2.5 1.38071,0 2.5,-1.11929 2.5,-2.5 0,-1.38072 -1.11929,-2.5 -2.5,-2.5 z"
         id="path4194"
         sodipodi:nodetypes="ssscsssssss"
         style="display:inline;opacity:0.2;fill:#000000;fill-opacity:1;stroke:none;enable-background:new" />
      <path
         style="fill:#ffffff;fill-opacity:1;stroke:none;opacity:0.1"
         d="M 146 164 C 144.892 164 144 164.892 144 166 L 144 167 C 144 165.892 144.892 165 146 165 L 174 165 C 175.108 165 176 165.892 176 167 L 176 166 C 176 164.892 175.108 164 174 164 L 146 164 z "
         transform="translate(0,76)"
         id="rect4196" />
      <path
         style="fill:#ffffff;fill-opacity:1;stroke:none;opacity:0.1"
         d="M 300 120 C 297.784 120 296 121.784 296 124 L 296 125 C 296 122.784 297.784 121 300 121 L 356 121 C 358.216 121 360 122.784 360 125 L 360 124 C 360 121.784 358.216 120 356 120 L 300 120 z "
         transform="translate(0,76)"
         id="rect4198" />
      <path
         style="fill:#ffffff;fill-opacity:1;stroke:none;opacity:0.1"
         d="M 53.5 186 C 52.669 186 52 186.669 52 187.5 L 52 188.5 C 52 187.669 52.669 187 53.5 187 L 66.5 187 C 67.331 187 68 187.669 68 188.5 L 68 187.5 C 68 186.669 67.331 186 66.5 186 L 53.5 186 z "
         transform="translate(0,76)"
         id="rect4200" />
      <path
         inkscape:connector-curvature="0"
         d="m 160,247 c 5.52285,0 10,4.47715 10,10 0,5.52285 -4.47715,10 -10,10 l -10,0 0,-10 c 0,-5.52285 4.47715,-10 10,-10 z m 0,5 c -2.76143,0 -5,2.23857 -5,5 0,2.76142 2.23857,5 5,5 2.76142,0 5,-2.23858 5,-5 0,-2.76143 -2.23858,-5 -5,-5 z"
         id="path5143"
         sodipodi:nodetypes="ssscsssssss"
         style="display:inline;opacity:0.05;fill:#ffffff;fill-opacity:1;stroke:none;enable-background:new" />
      <path
         style="display:inline;opacity:0.2;fill:#000000;fill-opacity:1;stroke:none;enable-background:new"
         d="M 104 182 C 100.134 182 97 185.134 97 189 L 97 196 L 104 196 C 107.86599 196 111 192.866 111 189 C 111 185.134 107.86599 182 104 182 z M 104 185 A 4 4 0 0 1 108 189 A 4 4 0 0 1 104 193 A 4 4 0 0 1 100 189 A 4 4 0 0 1 104 185 z "
         transform="translate(0,76)"
         id="path4239" />
      <path
         style="display:inline;opacity:0.05;fill:#ffffff;fill-opacity:1;stroke:none;enable-background:new"
         sodipodi:nodetypes="ssscsssssss"
         id="path5145"
         d="m 328,209 c 11.0457,0 20,8.9543 20,20 0,11.0457 -8.9543,20 -20,20 l -20,0 0,-20 c 0,-11.0457 8.9543,-20 20,-20 z m 0,10 c -5.52286,0 -10,4.47714 -10,10 0,5.52284 4.47714,10 10,10 5.52284,0 10,-4.47716 10,-10 0,-5.52286 -4.47716,-10 -10,-10 z"
         inkscape:connector-curvature="0" />
      <path
         style="fill:#ffffff;fill-opacity:1;stroke:none;opacity:0.1"
         d="M 95 178 C 93.892 178 93 178.892 93 180 L 93 181 C 93 179.892 93.892 179 95 179 L 113 179 C 114.108 179 115 179.892 115 181 L 115 180 C 115 178.892 114.108 178 113 178 L 95 178 z "
         transform="translate(0,76)"
         id="rect4241" />
      <path
         style="display:inline;opacity:0.05;fill:#ffffff;fill-opacity:1;stroke:none;enable-background:new"
         sodipodi:nodetypes="ssscsssssss"
         id="path5147"
         d="m 60,266 c 2.76142,0 5,2.23857 5,5 0,2.76143 -2.23858,5 -5,5 l -5,0 0,-5 c 0,-2.76143 2.23857,-5 5,-5 z m 0,2.5 c -1.38072,0 -2.5,1.11928 -2.5,2.5 0,1.38071 1.11928,2.5 2.5,2.5 1.38071,0 2.5,-1.11929 2.5,-2.5 0,-1.38072 -1.11929,-2.5 -2.5,-2.5 z"
         inkscape:connector-curvature="0" />
      <path
         inkscape:connector-curvature="0"
         d="m 232,232 c 7.73199,0 14,6.26801 14,14 0,7.73199 -6.26801,14 -14,14 l -14,0 0,-14 c 0,-7.73199 6.26801,-14 14,-14 z m 0,7 c -3.866,0 -7,3.134 -7,7 0,3.86599 3.134,7 7,7 3.86599,0 7,-3.13401 7,-7 0,-3.866 -3.13401,-7 -7,-7 z"
         id="path4261"
         sodipodi:nodetypes="ssscsssssss"
         style="display:inline;opacity:0.2;fill:#000000;fill-opacity:1;stroke:none;enable-background:new" />
      <path
         id="path5149"
         d="m 104,259 c -3.866,0 -7,3.134 -7,7 l 0,7 7,0 c 3.86599,0 7,-3.134 7,-7 0,-3.866 -3.13401,-7 -7,-7 z m 0,3 a 4,4 0 0 1 4,4 4,4 0 0 1 -4,4 4,4 0 0 1 -4,-4 4,4 0 0 1 4,-4 z"
         style="display:inline;opacity:0.05;fill:#ffffff;fill-opacity:1;stroke:none;enable-background:new"
         inkscape:connector-curvature="0" />
      <path
         style="fill:#ffffff;fill-opacity:1;stroke:none;opacity:0.1"
         d="M 213 148 C 211.338 148 210 149.338 210 151 L 210 152 C 210 150.338 211.338 149 213 149 L 251 149 C 252.662 149 254 150.338 254 152 L 254 151 C 254 149.338 252.662 148 251 148 L 213 148 z "
         transform="translate(0,76)"
         id="rect4263" />
      <path
         style="display:inline;opacity:0.05;fill:#ffffff;fill-opacity:1;stroke:none;enable-background:new"
         sodipodi:nodetypes="ssscsssssss"
         id="path5151"
         d="m 232,233 c 7.73199,0 14,6.26801 14,14 0,7.73199 -6.26801,14 -14,14 l -14,0 0,-14 c 0,-7.73199 6.26801,-14 14,-14 z m 0,7 c -3.866,0 -7,3.134 -7,7 0,3.86599 3.134,7 7,7 3.86599,0 7,-3.13401 7,-7 0,-3.866 -3.13401,-7 -7,-7 z"
         inkscape:connector-curvature="0" />
      <rect
         ry="8"
         rx="8"
         y="-552"
         x="-268"
         height="128"
         width="160"
         id="rect4291"
         style="fill:#858a89;fill-opacity:1;stroke:none"
         transform="matrix(0,-1,-1,0,0,0)" />
      <path
         inkscape:connector-curvature="0"
         d="m 488,133 c 22.0914,0 40,17.9086 40,40 0,22.0914 -17.9086,40 -40,40 l -40,0 0,-40 c 0,-22.0914 17.9086,-40 40,-40 z m 0,20 c -11.04572,0 -20,8.95428 -20,20 0,11.04568 8.95428,20 20,20 11.04568,0 20,-8.95432 20,-20 0,-11.04572 -8.95432,-20 -20,-20 z"
         id="path5153"
         sodipodi:nodetypes="ssscsssssss"
         style="display:inline;opacity:0.05;fill:#ffffff;fill-opacity:1;stroke:none;enable-background:new" />
      <path
         style="display:inline;opacity:0.2;fill:#000000;fill-opacity:1;stroke:none;enable-background:new"
         sodipodi:nodetypes="ssscsssssss"
         id="path4293"
         d="m 488,132 c 22.0914,0 40,17.9086 40,40 0,22.0914 -17.9086,40 -40,40 l -40,0 0,-40 c 0,-22.0914 17.9086,-40 40,-40 z m 0,20 c -11.04572,0 -20,8.95428 -20,20 0,11.04568 8.95428,20 20,20 11.04568,0 20,-8.95432 20,-20 0,-11.04572 -8.95432,-20 -20,-20 z"
         inkscape:connector-curvature="0" />
      <path
         inkscape:connector-curvature="0"
         d="m 24,271 c 2.76142,0 5,2.23857 5,5 0,2.76143 -2.23858,5 -5,5 l -5,0 0,-5 c 0,-2.76143 2.23857,-5 5,-5 z m 0,2.5 c -1.38072,0 -2.5,1.11928 -2.5,2.5 0,1.38071 1.11928,2.5 2.5,2.5 1.38071,0 2.5,-1.11929 2.5,-2.5 0,-1.38072 -1.11929,-2.5 -2.5,-2.5 z"
         id="path5155"
         sodipodi:nodetypes="ssscsssssss"
         style="display:inline;opacity:0.05;fill:#ffffff;fill-opacity:1;stroke:none;enable-background:new" />
      <path
         style="fill:#ffffff;fill-opacity:1;stroke:none;opacity:0.1"
         d="M 432 32 C 427.568 32 424 35.568 424 40 L 424 41 C 424 36.568 427.568 33 432 33 L 544 33 C 548.432 33 552 36.568 552 41 L 552 40 C 552 35.568 548.432 32 544 32 L 432 32 z "
         transform="translate(0,76)"
         id="rect4295" />
      <path
         style="display:inline;opacity:0.2;fill:#000000;fill-opacity:1;stroke:none;enable-background:new"
         sodipodi:nodetypes="ssscsssssss"
         id="path4318"
         d="m 24,270 c 2.76142,0 5,2.23857 5,5 0,2.76143 -2.23858,5 -5,5 l -5,0 0,-5 c 0,-2.76143 2.23857,-5 5,-5 z m 0,2.5 c -1.38072,0 -2.5,1.11928 -2.5,2.5 0,1.38071 1.11928,2.5 2.5,2.5 1.38071,0 2.5,-1.11929 2.5,-2.5 0,-1.38072 -1.11929,-2.5 -2.5,-2.5 z"
         inkscape:connector-curvature="0" />
      <circle
         r="48"
         cy="230"
         cx="520.00037"
         id="circle4341"
         style="display:inline;opacity:0.5;fill:#000000;fill-opacity:1;fill-rule:evenodd;stroke:none;filter:url(#filter4375);enable-background:new" />
      <circle
         style="display:inline;fill:#cc5e55;fill-opacity:1;fill-rule:evenodd;stroke:none;enable-background:new"
         id="path8382"
         cx="520.00037"
         cy="228"
         r="48" />
      <g
         id="g4635"
         inkscape:label="actions"
         style="display:inline;fill:#ffffff;fill-opacity:1;enable-background:new"
         transform="matrix(4.0008799,0,0,4.0008799,-1532.4518,272.01409)" />
      <circle
         id="circle4339"
         style="display:inline;opacity:0.5;fill:#000000;fill-opacity:1;stroke:none;filter:url(#filter4348);enable-background:new"
         cx="247"
         cy="268.13333"
         r="17"
         transform="matrix(0.88235294,0,0,0.88235294,26.058824,31.411767)" />
      <circle
         r="15"
         cy="267"
         cx="244"
         style="display:inline;fill:#cc5e55;fill-opacity:1;stroke:none;enable-background:new"
         id="circle3609" />
      <path
         inkscape:connector-curvature="0"
         id="circle4337"
         d="m 368,257.00001 a 24,24 0 0 1 -24,24 24,24 0 0 1 -24,-24 24,24 0 0 1 24,-24 24,24 0 0 1 24,24 z"
         style="display:inline;opacity:0.5;fill:#000000;fill-opacity:1;stroke:none;filter:url(#filter4631);enable-background:new" />
      <path
         inkscape:connector-curvature="0"
         id="circle4449"
         d="m 368,256.00001 a 24,24 0 0 1 -24,24 24,24 0 0 1 -24,-24 24,24 0 0 1 24,-24 24,24 0 0 1 24,24 z"
         style="display:inline;fill:#cc5e55;fill-opacity:1;stroke:none;enable-background:new" />
      <g
         transform="matrix(2.00044,0,0,2.00044,-682.22612,278.00705)"
         style="display:inline;fill:#ffffff;fill-opacity:1;enable-background:new"
         inkscape:label="actions"
         id="g4627" />
      <circle
         id="circle4335"
         style="display:inline;opacity:0.5;fill:#000000;fill-opacity:1;stroke:none;filter:url(#filter4360);enable-background:new"
         cx="168"
         cy="271"
         r="12"
         transform="matrix(0.83333333,0,0,0.83333333,30,47.166677)" />
      <circle
         r="10"
         cy="272"
         cx="170"
         style="display:inline;fill:#cc5e55;fill-opacity:1;stroke:none;enable-background:new"
         id="path4058" />
      <circle
         id="circle4345"
         style="display:inline;opacity:0.5;fill:#000000;fill-opacity:1;fill-rule:evenodd;stroke:none;enable-background:new;filter:url(#filter5139)"
         cx="109"
         cy="276"
         r="8" />
      <circle
         r="8"
         cy="275"
         cx="109"
         style="display:inline;fill:#cc5e55;fill-opacity:1;fill-rule:evenodd;stroke:none;enable-background:new"
         id="circle4426" />
      <circle
         cy="278.5"
         cx="65"
         style="display:inline;opacity:0.5;fill:#000000;fill-opacity:1;stroke:none;stroke-width:2;enable-background:new"
         id="circle4343"
         r="5.5" />
      <circle
         r="5.5"
         id="circle7479"
         style="display:inline;fill:#cc5e55;fill-opacity:1;stroke:none;stroke-width:2;enable-background:new"
         cx="65"
         cy="277.5" />
      <path
         style="display:inline;opacity:1;fill:#ffffff;fill-opacity:1;stroke:none;stroke-opacity:1;enable-background:new"
         id="path10500"
         d="m 242.00003,259 -0.17634,2.10714 a 6.2857143,6.2857143 0 0 0 -1.83705,1.06251 l -1.91518,-0.90179 -2,3.46428 1.73883,1.2076 a 6.2857143,6.2857143 0 0 0 -0.096,1.06026 6.2857143,6.2857143 0 0 0 0.0915,1.06473 l -1.73438,1.20313 2,3.46428 1.91072,-0.89955 a 6.2857143,6.2857143 0 0 0 1.84151,1.0558 l 0.17634,2.11161 4,0 0.17634,-2.10714 a 6.2857143,6.2857143 0 0 0 1.83706,-1.06251 l 1.91517,0.90179 2,-3.46428 -1.73883,-1.2076 a 6.2857143,6.2857143 0 0 0 0.096,-1.06026 6.2857143,6.2857143 0 0 0 -0.0915,-1.06473 l 1.73437,-1.20313 -2,-3.46428 -1.91072,0.89955 a 6.2857143,6.2857143 0 0 0 -1.84151,-1.0558 L 246.00003,259 l -4,0 z m 2,5.71429 A 2.2857143,2.2857143 0 0 1 246.28575,267 2.2857143,2.2857143 0 0 1 244.00003,269.28571 2.2857143,2.2857143 0 0 1 241.71432,267 a 2.2857143,2.2857143 0 0 1 2.28571,-2.28571 z"
         inkscape:connector-curvature="0" />
      <path
         inkscape:connector-curvature="0"
         d="m 168.50003,266 -0.13226,1.58035 a 4.7142857,4.7142857 0 0 0 -1.37779,0.79689 l -1.43638,-0.67635 -1.5,2.59821 1.30412,0.9057 a 4.7142857,4.7142857 0 0 0 -0.072,0.7952 4.7142857,4.7142857 0 0 0 0.0686,0.79855 l -1.30078,0.90234 1.5,2.59821 1.43304,-0.67466 a 4.7142857,4.7142857 0 0 0 1.38113,0.79185 l 0.13226,1.58371 3,0 0.13225,-1.58036 a 4.7142857,4.7142857 0 0 0 1.3778,-0.79688 l 1.43638,0.67634 1.5,-2.59821 -1.30413,-0.9057 a 4.7142857,4.7142857 0 0 0 0.072,-0.79519 4.7142857,4.7142857 0 0 0 -0.0686,-0.79855 l 1.30079,-0.90235 -1.5,-2.59821 -1.43305,0.67467 a 4.7142857,4.7142857 0 0 0 -1.38113,-0.79185 L 171.50003,266 l -3,0 z m 1.5,4.28572 A 1.7142857,1.7142857 0 0 1 171.71432,272 1.7142857,1.7142857 0 0 1 170.00003,273.71428 1.7142857,1.7142857 0 0 1 168.28574,272 a 1.7142857,1.7142857 0 0 1 1.71428,-1.71428 z"
         id="path5125"
         style="display:inline;opacity:1;fill:#ffffff;fill-opacity:1;stroke:none;stroke-opacity:1;enable-background:new" />
      <path
         style="display:inline;opacity:1;fill:#ffffff;fill-opacity:1;stroke:none;stroke-opacity:1;enable-background:new"
         id="path5127"
         d="m 108.00004,271 -0.0882,1.05357 a 3.1428571,3.1428571 0 0 0 -0.91852,0.53126 l -0.95759,-0.4509 -1,1.73214 0.86941,0.6038 a 3.1428571,3.1428571 0 0 0 -0.048,0.53013 3.1428571,3.1428571 0 0 0 0.0457,0.53237 l -0.86719,0.60156 1,1.73214 0.95536,-0.44978 a 3.1428571,3.1428571 0 0 0 0.92075,0.5279 l 0.0882,1.05581 2,0 0.0882,-1.05357 a 3.1428571,3.1428571 0 0 0 0.91854,-0.53126 l 0.95758,0.4509 1,-1.73214 -0.86942,-0.6038 a 3.1428571,3.1428571 0 0 0 0.048,-0.53013 3.1428571,3.1428571 0 0 0 -0.0457,-0.53237 l 0.86719,-0.60156 -1,-1.73214 -0.95536,0.44978 a 3.1428571,3.1428571 0 0 0 -0.92076,-0.5279 L 110.00003,271 l -2,0 z m 1,2.85715 A 1.1428571,1.1428571 0 0 1 110.1429,275 1.1428571,1.1428571 0 0 1 109.00004,276.14285 1.1428571,1.1428571 0 0 1 107.85718,275 a 1.1428571,1.1428571 0 0 1 1.14285,-1.14285 z"
         inkscape:connector-curvature="0" />
      <path
         inkscape:connector-curvature="0"
         d="m 340.50004,242.00001 -0.30858,3.6875 a 11,11 0 0 0 -3.21484,1.85939 l -3.35156,-1.57814 -3.5,6.0625 3.04295,2.11329 a 11,11 0 0 0 -0.168,1.85546 11,11 0 0 0 0.16012,1.86328 l -3.03516,2.10547 3.5,6.0625 3.34375,-1.57422 a 11,11 0 0 0 3.22265,1.84765 l 0.3086,3.69532 7,0 0.30858,-3.6875 a 11,11 0 0 0 3.21486,-1.85939 l 3.35155,1.57814 3.5,-6.06249 -3.04296,-2.1133 a 11,11 0 0 0 0.168,-1.85546 11,11 0 0 0 -0.16012,-1.86328 l 3.03515,-2.10547 -3.5,-6.06249 -3.34376,1.57421 a 11,11 0 0 0 -3.22265,-1.84765 l -0.30858,-3.69532 -7,0 z m 3.5,10.00001 a 4,4 0 0 1 4.00002,3.99999 4,4 0 0 1 -4.00002,3.99999 4,4 0 0 1 -3.99999,-3.99999 4,4 0 0 1 3.99999,-3.99999 z"
         id="path5129"
         style="display:inline;opacity:1;fill:#ffffff;fill-opacity:1;stroke:none;stroke-opacity:1;enable-background:new" />
      <path
         style="display:inline;opacity:1;fill:#ffffff;fill-opacity:1;stroke:none;stroke-opacity:1;enable-background:new"
         id="path5131"
         d="m 513.00045,200 -0.61716,7.375 a 22,22 0 0 0 -6.42968,3.71878 l -6.70312,-3.15628 -7,12.125 6.0859,4.22658 a 22,22 0 0 0 -0.336,3.71092 22,22 0 0 0 0.32024,3.72656 l -6.07032,4.21094 7,12.125 6.6875,-3.14844 a 22,22 0 0 0 6.4453,3.6953 l 0.6172,7.39064 14,0 0.61716,-7.375 a 22,22 0 0 0 6.42972,-3.71878 l 6.7031,3.15628 7,-12.12498 -6.08592,-4.2266 a 22,22 0 0 0 0.336,-3.71092 22,22 0 0 0 -0.32024,-3.72656 l 6.0703,-4.21094 -7,-12.12498 -6.68752,3.14842 a 22,22 0 0 0 -6.4453,-3.6953 L 527.00045,200 l -14,0 z m 7,20.00002 A 8,8 0 0 1 528.00049,228 8,8 0 0 1 520.00045,235.99998 8,8 0 0 1 512.00047,228 a 8,8 0 0 1 7.99998,-7.99998 z"
         inkscape:connector-curvature="0" />
      <path
         inkscape:connector-curvature="0"
         d="m 64.24996,274.5 -0.0661,0.79018 a 2.3571428,2.3571428 0 0 0 -0.68889,0.39844 l -0.71819,-0.33817 -0.75,1.2991 0.65206,0.45285 a 2.3571428,2.3571428 0 0 0 -0.036,0.3976 2.3571428,2.3571428 0 0 0 0.0343,0.39928 l -0.65039,0.45117 0.75,1.2991 0.71652,-0.33733 a 2.3571428,2.3571428 0 0 0 0.69056,0.39592 l 0.0662,0.79186 1.5,0 0.0661,-0.79018 a 2.3571428,2.3571428 0 0 0 0.68891,-0.39844 l 0.71818,0.33817 0.75,-1.2991 -0.65206,-0.45285 a 2.3571428,2.3571428 0 0 0 0.036,-0.3976 2.3571428,2.3571428 0 0 0 -0.0343,-0.39928 l 0.65039,-0.45117 -0.75,-1.2991 -0.71652,0.33733 a 2.3571428,2.3571428 0 0 0 -0.69057,-0.39592 L 65.74995,274.5 l -1.5,0 z m 0.75,2.14286 a 0.85714282,0.85714283 0 0 1 0.85715,0.85714 0.85714282,0.85714283 0 0 1 -0.85715,0.85714 0.85714282,0.85714283 0 0 1 -0.85714,-0.85714 0.85714282,0.85714283 0 0 1 0.85713,-0.85714 z"
         id="path5133"
         style="display:inline;opacity:1;fill:#ffffff;fill-opacity:1;stroke:none;stroke-opacity:1;enable-background:new" />
    </g>
  </g>
</svg>
