<?xml version="1.0" encoding="UTF-8" standalone="no"?>
<!-- Created with Inkscape (http://www.inkscape.org/) -->

<svg
   xmlns:osb="http://www.openswatchbook.org/uri/2009/osb"
   xmlns:dc="http://purl.org/dc/elements/1.1/"
   xmlns:cc="http://creativecommons.org/ns#"
   xmlns:rdf="http://www.w3.org/1999/02/22-rdf-syntax-ns#"
   xmlns:svg="http://www.w3.org/2000/svg"
   xmlns="http://www.w3.org/2000/svg"
   xmlns:sodipodi="http://sodipodi.sourceforge.net/DTD/sodipodi-0.dtd"
   xmlns:inkscape="http://www.inkscape.org/namespaces/inkscape"
   inkscape:export-ydpi="90.000000"
   inkscape:export-xdpi="90.000000"
   width="600"
   height="224"
   id="svg11300"
   sodipodi:version="0.32"
   inkscape:version="0.91 r"
   sodipodi:docname="document-viewer.svg"
   inkscape:output_extension="org.inkscape.output.svg.inkscape"
   version="1.0"
   style="display:inline;enable-background:new"
   inkscape:export-filename="/home/sam/paper-template.png">
  <title
     id="title3004">Paper Icon Theme Template</title>
  <sodipodi:namedview
     stroke="#ef2929"
     fill="#f57900"
     id="base"
     pagecolor="#474747"
     bordercolor="#666666"
     borderopacity="0.25490196"
     inkscape:pageopacity="0"
     inkscape:pageshadow="2"
     inkscape:zoom="1"
     inkscape:cx="223.62117"
     inkscape:cy="15.832436"
     inkscape:current-layer="layer6"
     showgrid="false"
     inkscape:grid-bbox="true"
     inkscape:document-units="px"
     inkscape:showpageshadow="false"
     inkscape:window-width="1366"
     inkscape:window-height="710"
     inkscape:window-x="0"
     inkscape:window-y="28"
     width="400px"
     height="300px"
     inkscape:snap-nodes="true"
     inkscape:snap-bbox="true"
     gridtolerance="10000"
     inkscape:object-nodes="true"
     inkscape:snap-grids="true"
     showguides="true"
     inkscape:guide-bbox="true"
     inkscape:window-maximized="1"
     inkscape:bbox-nodes="true"
     inkscape:snap-bbox-edge-midpoints="true">
    <inkscape:grid
       spacingy="1px"
       spacingx="1px"
       id="grid5883"
       type="xygrid"
       enabled="true"
       visible="true"
       empspacing="4"
       snapvisiblegridlinesonly="true" />
    <inkscape:grid
       type="xygrid"
       id="grid11592"
       empspacing="2"
       visible="true"
       enabled="false"
       spacingx="0.5px"
       spacingy="0.5px"
       color="#ff0000"
       opacity="0.1254902"
       empcolor="#ff0000"
       empopacity="0.25098039"
       snapvisiblegridlinesonly="true" />
    <sodipodi:guide
       orientation="0,1"
       position="0,224"
       id="guide4275" />
  </sodipodi:namedview>
  <defs
     id="defs3">
    <clipPath
       clipPathUnits="userSpaceOnUse"
       id="clipPath4193">
      <rect
         transform="matrix(0,-1,-1,0,0,0)"
         style="fill:#c03630;fill-opacity:1;stroke:none"
         id="rect4195"
         width="56"
         height="56"
         x="-280"
         y="-260"
         rx="3"
         ry="3" />
    </clipPath>
    <clipPath
       clipPathUnits="userSpaceOnUse"
       id="clipPath4255">
      <rect
         ry="2"
         rx="2"
         y="-180"
         x="-280"
         height="40"
         width="40"
         id="rect4257"
         style="fill:#c03630;fill-opacity:1;stroke:none"
         transform="matrix(0,-1,-1,0,0,0)" />
    </clipPath>
    <clipPath
       clipPathUnits="userSpaceOnUse"
       id="clipPath4275">
      <rect
         ry="1"
         rx="1"
         y="-32"
         x="-284"
         height="16"
         width="16"
         id="rect4277"
         style="display:inline;fill:#c03630;fill-opacity:1;stroke:none;enable-background:new"
         transform="matrix(0,-1,-1,0,0,0)" />
    </clipPath>
    <filter
       inkscape:collect="always"
       style="color-interpolation-filters:sRGB"
       id="filter4285"
       x="-0.06"
       width="1.12"
       y="-0.06"
       height="1.12">
      <feGaussianBlur
         inkscape:collect="always"
         stdDeviation="1"
         id="feGaussianBlur4287" />
    </filter>
    <filter
       inkscape:collect="always"
       style="color-interpolation-filters:sRGB"
       id="filter4293"
       x="-0.024"
       width="1.048"
       y="-0.024"
       height="1.048">
      <feGaussianBlur
         inkscape:collect="always"
         stdDeviation="0.8"
         id="feGaussianBlur4295" />
    </filter>
    <filter
       inkscape:collect="always"
       style="color-interpolation-filters:sRGB"
       id="filter4307"
       x="-0.024"
       width="1.048"
       y="-0.024"
       height="1.048">
      <feGaussianBlur
         inkscape:collect="always"
         stdDeviation="1.6"
         id="feGaussianBlur4309" />
    </filter>
    <filter
       inkscape:collect="always"
       style="color-interpolation-filters:sRGB"
       id="filter4375"
       x="-0.06"
       width="1.12"
       y="-0.06"
       height="1.12">
      <feGaussianBlur
         inkscape:collect="always"
         stdDeviation="2.4"
         id="feGaussianBlur4377" />
    </filter>
    <linearGradient
       osb:paint="solid"
       id="linearGradient5606">
      <stop
         style="stop-color:#000000;stop-opacity:1;"
         offset="0"
         id="stop5608" />
    </linearGradient>
    <filter
       inkscape:collect="always"
       style="color-interpolation-filters:sRGB"
       id="filter4631"
       x="-0.06"
       width="1.12"
       y="-0.06"
       height="1.12">
      <feGaussianBlur
         inkscape:collect="always"
         stdDeviation="1.2"
         id="feGaussianBlur4633" />
    </filter>
    <clipPath
       clipPathUnits="userSpaceOnUse"
       id="clipPath4266-4">
      <path
         id="path4268-0"
         d="m 146,240 c -1.108,0 -2,0.892 -2,2 l 0,36 c 0,1.108 0.892,2 2,2 l 28,0 c 1.108,0 2,-0.892 2,-2 l 0,-26 -12,-12 -18,0 z"
         style="fill:#ffffff;fill-opacity:1;stroke:none"
         inkscape:connector-curvature="0" />
    </clipPath>
    <clipPath
       clipPathUnits="userSpaceOnUse"
       id="clipPath4140-8">
      <path
         id="path4142-3"
         d="m 213,224 c -1.662,0 -3,1.338 -3,3 l 0,50 c 0,1.662 1.338,3 3,3 l 38,0 c 1.662,0 3,-1.338 3,-3 l 0,-35 -18,-18 -23,0 z"
         style="fill:#e1e1e1;fill-opacity:1;stroke:none"
         inkscape:connector-curvature="0" />
    </clipPath>
    <clipPath
       clipPathUnits="userSpaceOnUse"
       id="clipPath4168">
      <path
         id="path4170"
         d="m 94.5,254 c -0.831,0 -1.5,0.669 -1.5,1.5 l 0,25 c 0,0.831 0.669,1.5 1.5,1.5 l 19,0 c 0.831,0 1.5,-0.669 1.5,-1.5 l 0,-18.5 -8,-8 -12.5,0 z"
         style="fill:#e1e1e1;fill-opacity:1;stroke:none"
         inkscape:connector-curvature="0" />
    </clipPath>
    <clipPath
       clipPathUnits="userSpaceOnUse"
       id="clipPath4278">
      <path
         sodipodi:nodetypes="ssssssccs"
         style="fill:#e1e1e1;fill-opacity:1;stroke:none"
         d="m 300,196 c -2.216,0 -4,1.784 -4,4 l 0,72 c 0,2.216 1.784,4 4,4 l 56,0 c 2.216,0 4,-1.784 4,-4 l 0,-52 -24,-24 z"
         id="path4280"
         inkscape:connector-curvature="0" />
    </clipPath>
    <clipPath
       clipPathUnits="userSpaceOnUse"
       id="clipPath4754">
      <path
         sodipodi:nodetypes="ssssssccs"
         style="fill:#e1e1e1;fill-opacity:1;stroke:none"
         d="m 300,196 c -2.216,0 -4,1.784 -4,4 l 0,72 c 0,2.216 1.784,4 4,4 l 56,0 c 2.216,0 4,-1.784 4,-4 l 0,-52 -24,-24 z"
         id="path4756"
         inkscape:connector-curvature="0" />
    </clipPath>
    <filter
       inkscape:collect="always"
       style="color-interpolation-filters:sRGB"
       id="filter4348"
       x="-0.06"
       width="1.12"
       y="-0.06"
       height="1.12">
      <feGaussianBlur
         inkscape:collect="always"
         stdDeviation="0.85"
         id="feGaussianBlur4350" />
    </filter>
    <filter
       inkscape:collect="always"
       style="color-interpolation-filters:sRGB"
       id="filter4360"
       x="-0.06"
       width="1.12"
       y="-0.06"
       height="1.12">
      <feGaussianBlur
         inkscape:collect="always"
         stdDeviation="0.6"
         id="feGaussianBlur4362" />
    </filter>
    <filter
       inkscape:collect="always"
       style="color-interpolation-filters:sRGB"
       id="filter4364"
       x="-0.054545455"
       width="1.1090909"
       y="-0.042857143"
       height="1.0857143">
      <feGaussianBlur
         inkscape:collect="always"
         stdDeviation="1"
         id="feGaussianBlur4366" />
    </filter>
  </defs>
  <metadata
     id="metadata4">
    <rdf:RDF>
      <cc:Work
         rdf:about="">
        <dc:format>image/svg+xml</dc:format>
        <dc:type
           rdf:resource="http://purl.org/dc/dcmitype/StillImage" />
        <dc:creator>
          <cc:Agent>
            <dc:title>Sam Hewitt</dc:title>
          </cc:Agent>
        </dc:creator>
        <dc:source />
        <cc:license
           rdf:resource="http://creativecommons.org/licenses/by-nc-sa/3.0/" />
        <dc:title>Paper Icon Theme Template</dc:title>
        <dc:subject>
          <rdf:Bag />
        </dc:subject>
        <dc:date />
        <dc:rights>
          <cc:Agent>
            <dc:title />
          </cc:Agent>
        </dc:rights>
        <dc:publisher>
          <cc:Agent>
            <dc:title />
          </cc:Agent>
        </dc:publisher>
        <dc:identifier />
        <dc:relation />
        <dc:language />
        <dc:coverage />
        <dc:description />
        <dc:contributor>
          <cc:Agent>
            <dc:title />
          </cc:Agent>
        </dc:contributor>
      </cc:Work>
      <cc:Work
         rdf:about="">
        <dc:format>image/svg+xml</dc:format>
        <dc:type
           rdf:resource="http://purl.org/dc/dcmitype/StillImage" />
      </cc:Work>
      <cc:License
         rdf:about="http://creativecommons.org/licenses/by-nc-sa/3.0/">
        <cc:permits
           rdf:resource="http://creativecommons.org/ns#Reproduction" />
        <cc:permits
           rdf:resource="http://creativecommons.org/ns#Distribution" />
        <cc:requires
           rdf:resource="http://creativecommons.org/ns#Notice" />
        <cc:requires
           rdf:resource="http://creativecommons.org/ns#Attribution" />
        <cc:prohibits
           rdf:resource="http://creativecommons.org/ns#CommercialUse" />
        <cc:permits
           rdf:resource="http://creativecommons.org/ns#DerivativeWorks" />
        <cc:requires
           rdf:resource="http://creativecommons.org/ns#ShareAlike" />
      </cc:License>
    </rdf:RDF>
  </metadata>
  <g
     style="display:inline"
     inkscape:groupmode="layer"
     inkscape:label="Icon"
     id="layer1"
     transform="translate(0,-76)">
    <g
       style="display:none"
       inkscape:label="Baseplate"
       id="layer7"
       inkscape:groupmode="layer">
      <text
         y="59.745117"
         xml:space="preserve"
         x="15.006836"
         style="font-style:normal;font-variant:normal;font-weight:normal;font-stretch:normal;font-size:18px;font-family:'DejaVu Sans';-inkscape-font-specification:'DejaVu Sans';display:inline;fill:#000000;fill-opacity:1;stroke:none;enable-background:new"
         inkscape:label="context"
         id="context"><tspan
           style="font-style:normal;font-variant:normal;font-weight:normal;font-stretch:normal;font-family:'DejaVu Sans';-inkscape-font-specification:'DejaVu Sans'"
           y="59.745117"
           x="15.006836"
           sodipodi:role="line"
           id="tspan3933">apps</tspan></text>
      <text
         y="59.745117"
         xml:space="preserve"
         x="142.48828"
         style="font-style:normal;font-variant:normal;font-weight:bold;font-stretch:normal;font-size:18px;line-height:125%;font-family:'DejaVu Sans';-inkscape-font-specification:'DejaVu Sans Bold';text-align:start;writing-mode:lr-tb;text-anchor:start;display:inline;fill:#000000;fill-opacity:1;stroke:none;enable-background:new"
         sodipodi:linespacing="125%"
         inkscape:label="icon-name"
         id="icon-name"><tspan
           style="font-style:normal;font-variant:normal;font-weight:bold;font-stretch:normal;font-size:18px;font-family:'DejaVu Sans';-inkscape-font-specification:'DejaVu Sans Bold'"
           y="59.745117"
           x="142.48828"
           sodipodi:role="line"
           id="tspan3937">document-viewer</tspan></text>
      <rect
         style="display:inline;overflow:visible;visibility:visible;fill:#e9e9e9;fill-opacity:1;fill-rule:nonzero;stroke:none;stroke-width:2;marker:none;enable-background:accumulate"
         id="rect16x16"
         width="16"
         height="16"
         x="-32"
         y="268"
         inkscape:label="16x16"
         transform="scale(-1,1)" />
      <rect
         style="display:inline;overflow:visible;visibility:visible;fill:#e9e9e9;fill-opacity:1;fill-rule:nonzero;stroke:none;stroke-width:2;marker:none;enable-background:accumulate"
         id="rect24x24"
         width="24"
         height="24"
         x="-72"
         y="260"
         inkscape:label="24x24"
         transform="scale(-1,1)" />
      <rect
         style="display:inline;overflow:visible;visibility:visible;fill:#e9e9e9;fill-opacity:1;fill-rule:nonzero;stroke:none;stroke-width:2;marker:none;enable-background:accumulate"
         id="rect32x32"
         width="32"
         height="32"
         x="-120"
         y="252"
         inkscape:label="32x32"
         transform="scale(-1,1)" />
      <rect
         inkscape:label="48x48"
         y="236"
         x="-184"
         height="48"
         width="48"
         id="rect48x48"
         style="display:inline;overflow:visible;visibility:visible;fill:#e9e9e9;fill-opacity:1;fill-rule:nonzero;stroke:none;stroke-width:2;marker:none;enable-background:accumulate"
         transform="scale(-1,1)" />
      <rect
         style="display:inline;overflow:visible;visibility:visible;fill:#e9e9e9;fill-opacity:1;fill-rule:nonzero;stroke:none;stroke-width:2;marker:none;enable-background:accumulate"
         id="rect256x256"
         width="192"
         height="192"
         x="-584"
         y="92"
         inkscape:label="256x256"
         transform="scale(-1,1)" />
      <rect
         inkscape:label="256x256"
         y="188"
         x="-376"
         height="96"
         width="96"
         id="rect3949"
         style="display:inline;overflow:visible;visibility:visible;fill:#e9e9e9;fill-opacity:1;fill-rule:nonzero;stroke:none;stroke-width:2;marker:none;enable-background:accumulate"
         transform="scale(-1,1)" />
      <rect
         style="display:inline;overflow:visible;visibility:visible;fill:#e9e9e9;fill-opacity:1;fill-rule:nonzero;stroke:none;stroke-width:2;marker:none;enable-background:accumulate"
         id="rect3951"
         width="64"
         height="64"
         x="-264"
         y="220"
         inkscape:label="48x48"
         transform="scale(-1,1)" />
    </g>
    <g
       inkscape:groupmode="layer"
       id="layer6"
       inkscape:label="Symbols"
       style="display:inline">
      <path
         transform="matrix(0,-1,-1,0,0,0)"
         style="opacity:0.05;fill:#000000;fill-opacity:1;stroke:#000000;stroke-width:2;stroke-miterlimit:4;stroke-dasharray:none;stroke-opacity:1"
         d="m -281.5,-115 25,0 c 0.831,0 1.5,0.669 1.5,1.5 l 0,19 c 0,0.831 -0.669,1.5 -1.5,1.5 l -25,0 c -0.831,0 -1.5,-0.669 -1.5,-1.5 l 0,-19 c 0,-0.831 0.669,-1.5 1.5,-1.5 z"
         id="rect4315"
         inkscape:connector-curvature="0"
         sodipodi:nodetypes="sssssssss" />
      <path
         transform="matrix(0,-1,-1,0,0,0)"
         style="opacity:0.2;fill:#000000;fill-opacity:1;stroke:none"
         d="m -281.5,-115 25,0 c 0.831,0 1.5,0.669 1.5,1.5 l 0,19 c 0,0.831 -0.669,1.5 -1.5,1.5 l -25,0 c -0.831,0 -1.5,-0.669 -1.5,-1.5 l 0,-19 c 0,-0.831 0.669,-1.5 1.5,-1.5 z"
         id="rect4313"
         inkscape:connector-curvature="0"
         sodipodi:nodetypes="sssssssss" />
      <path
         transform="matrix(0,-1,-1,0,0,0)"
         style="opacity:0.2;fill:#000000;fill-opacity:1;stroke:none"
         d="m -282,-68 18,0 c 0.554,0 1,0.446 1,1 l 0,14 c 0,0.554 -0.446,1 -1,1 l -18,0 c -0.554,0 -1,-0.446 -1,-1 l 0,-14 c 0,-0.554 0.446,-1 1,-1 z"
         id="rect4311"
         inkscape:connector-curvature="0"
         sodipodi:nodetypes="sssssssss" />
      <path
         transform="matrix(0,-1,-1,0,0,0)"
         style="opacity:0.5;fill:#000000;fill-opacity:1;stroke:none;filter:url(#filter4307)"
         d="m -261,-552 144,0 c 4.432,0 8,3.568 8,8 l 0,112 c 0,4.432 -3.568,8 -8,8 l -144,0 c -4.432,0 -8,-3.568 -8,-8 l 0,-112 c 0,-4.432 3.568,-8 8,-8 z"
         id="rect4297"
         inkscape:connector-curvature="0"
         sodipodi:nodetypes="sssssssss" />
      <path
         transform="matrix(0,-1,-1,0,0,0)"
         style="opacity:0.2;fill:#000000;fill-opacity:1;stroke:none;filter:url(#filter4293)"
         d="m -273,-360 72,0 c 2.216,0 4,1.784 4,4 l 0,56 c 0,2.216 -1.784,4 -4,4 l -72,0 c -2.216,0 -4,-1.784 -4,-4 l 0,-56 c 0,-2.216 1.784,-4 4,-4 z"
         id="rect4291"
         inkscape:connector-curvature="0"
         sodipodi:nodetypes="sssssssss" />
      <path
         transform="matrix(0,-1,-1,0,0,0)"
         style="opacity:0.4;fill:#000000;fill-opacity:1;stroke:none;filter:url(#filter4364)"
         d="m -278,-254 50,0 c 1.662,0 3,1.338 3,3 l 0,38 c 0,1.662 -1.338,3 -3,3 l -50,0 c -1.662,0 -3,-1.338 -3,-3 l 0,-38 c 0,-1.662 1.338,-3 3,-3 z"
         id="rect4289"
         inkscape:connector-curvature="0"
         sodipodi:nodetypes="sssssssss" />
      <path
         transform="matrix(0,-1,-1,0,0,0)"
         style="opacity:0.5;fill:#000000;fill-opacity:1;stroke:none;filter:url(#filter4285)"
         d="m -279,-176 36,0 c 1.108,0 2,0.892 2,2 l 0,28 c 0,1.108 -0.892,2 -2,2 l -36,0 c -1.108,0 -2,-0.892 -2,-2 l 0,-28 c 0,-1.108 0.892,-2 2,-2 z"
         id="rect4279"
         inkscape:connector-curvature="0"
         sodipodi:nodetypes="sssssssss" />
      <path
         transform="matrix(0,-1,-1,0,0,0)"
         style="fill:#ece9d8;fill-opacity:1;stroke:none"
         d="m -260,-552 144,0 c 4.432,0 8,3.568 8,8 l 0,112 c 0,4.432 -3.568,8 -8,8 l -144,0 c -4.432,0 -8,-3.568 -8,-8 l 0,-112 c 0,-4.432 3.568,-8 8,-8 z"
         id="rect4189"
         inkscape:connector-curvature="0"
         sodipodi:nodetypes="sssssssss" />
      <path
         transform="matrix(0,-1,-1,0,0,0)"
         style="fill:#ece9d8;fill-opacity:1;stroke:none"
         d="m -278,-176 36,0 c 1.108,0 2,0.892 2,2 l 0,28 c 0,1.108 -0.892,2 -2,2 l -36,0 c -1.108,0 -2,-0.892 -2,-2 l 0,-28 c 0,-1.108 0.892,-2 2,-2 z"
         id="rect4203"
         inkscape:connector-curvature="0"
         sodipodi:nodetypes="sssssssss" />
      <path
         transform="matrix(0,-1,-1,0,0,0)"
         style="fill:#ece9d8;fill-opacity:1;stroke:none"
         d="m -272,-360 72,0 c 2.216,0 4,1.784 4,4 l 0,56 c 0,2.216 -1.784,4 -4,4 l -72,0 c -2.216,0 -4,-1.784 -4,-4 l 0,-56 c 0,-2.216 1.784,-4 4,-4 z"
         id="rect4217"
         inkscape:connector-curvature="0"
         sodipodi:nodetypes="sssssssss" />
      <path
         transform="matrix(0,-1,-1,0,0,0)"
         style="fill:#ece9d8;fill-opacity:1;stroke:none"
         d="m -277,-254 50,0 c 1.662,0 3,1.338 3,3 l 0,38 c 0,1.662 -1.338,3 -3,3 l -50,0 c -1.662,0 -3,-1.338 -3,-3 l 0,-38 c 0,-1.662 1.338,-3 3,-3 z"
         id="rect4229"
         inkscape:connector-curvature="0"
         sodipodi:nodetypes="sssssssss" />
      <path
         transform="matrix(0,-1,-1,0,0,0)"
         style="fill:#ece9d8;fill-opacity:1;stroke:none"
         d="m -281,-68 18,0 c 0.554,0 1,0.446 1,1 l 0,14 c 0,0.554 -0.446,1 -1,1 l -18,0 c -0.554,0 -1,-0.446 -1,-1 l 0,-14 c 0,-0.554 0.446,-1 1,-1 z"
         id="rect4243"
         inkscape:connector-curvature="0"
         sodipodi:nodetypes="sssssssss" />
      <path
         transform="matrix(0,-1,-1,0,0,0)"
         style="fill:#ece9d8;fill-opacity:1;stroke:none"
         d="m -280.5,-115 25,0 c 0.831,0 1.5,0.669 1.5,1.5 l 0,19 c 0,0.831 -0.669,1.5 -1.5,1.5 l -25,0 c -0.831,0 -1.5,-0.669 -1.5,-1.5 l 0,-19 c 0,-0.831 0.669,-1.5 1.5,-1.5 z"
         id="rect4255"
         inkscape:connector-curvature="0"
         sodipodi:nodetypes="sssssssss" />
      <rect
         transform="matrix(0,-1,-1,0,0,0)"
         style="display:inline;fill:#c03630;fill-opacity:1;stroke:none;enable-background:new"
         id="rect4265"
         width="16"
         height="16"
         x="-284"
         y="-32"
         rx="1"
         ry="1" />
      <path
         style="opacity:0.1;fill:#ffffff;fill-opacity:1;stroke:none"
         d="m 432,32 c -4.432,0 -8,3.568 -8,8 l 0,1 c 0,-4.432 3.568,-8 8,-8 l 112,0 c 4.432,0 8,3.568 8,8 l 0,-1 c 0,-4.432 -3.568,-8 -8,-8 z"
         transform="translate(0,76)"
         id="rect4197"
         inkscape:connector-curvature="0"
         sodipodi:nodetypes="sscsscsss" />
      <path
         style="opacity:0.1;fill:#ffffff;fill-opacity:1;stroke:none"
         d="m 146,164 c -1.108,0 -2,0.892 -2,2 l 0,1 c 0,-1.108 0.892,-2 2,-2 l 28,0 c 1.108,0 2,0.892 2,2 l 0,-1 c 0,-1.108 -0.892,-2 -2,-2 z"
         transform="translate(0,76)"
         id="rect4199"
         inkscape:connector-curvature="0"
         sodipodi:nodetypes="sscsscsss" />
      <path
         style="opacity:0.1;fill:#ffffff;fill-opacity:1;stroke:none"
         d="m 300,120 c -2.216,0 -4,1.784 -4,4 l 0,1 c 0,-2.216 1.784,-4 4,-4 l 56,0 c 2.216,0 4,1.784 4,4 l 0,-1 c 0,-2.216 -1.784,-4 -4,-4 z"
         transform="translate(0,76)"
         id="rect4201"
         inkscape:connector-curvature="0"
         sodipodi:nodetypes="sscsscsss" />
      <path
         style="opacity:0.1;fill:#ffffff;fill-opacity:1;stroke:none"
         d="m 213,148 c -1.662,0 -3,1.338 -3,3 l 0,1 c 0,-1.662 1.338,-3 3,-3 l 38,0 c 1.662,0 3,1.338 3,3 l 0,-1 c 0,-1.662 -1.338,-3 -3,-3 z"
         transform="translate(0,76)"
         id="rect4204"
         inkscape:connector-curvature="0"
         sodipodi:nodetypes="sscsscsss" />
      <path
         style="opacity:0.1;fill:#ffffff;fill-opacity:1;stroke:none"
         d="m 53,186 c -0.554,0 -1,0.446 -1,1 l 0,1 c 0,-0.554 0.446,-1 1,-1 l 14,0 c 0.554,0 1,0.446 1,1 l 0,-1 c 0,-0.554 -0.446,-1 -1,-1 z"
         transform="translate(0,76)"
         id="rect4206"
         inkscape:connector-curvature="0"
         sodipodi:nodetypes="sscsscsss" />
      <path
         style="opacity:0.1;fill:#ffffff;fill-opacity:1;stroke:none"
         d="m 94.5,178 c -0.831,0 -1.5,0.669 -1.5,1.5 l 0,1 c 0,-0.831 0.669,-1.5 1.5,-1.5 l 19,0 c 0.831,0 1.5,0.669 1.5,1.5 l 0,-1 c 0,-0.831 -0.669,-1.5 -1.5,-1.5 z"
         transform="translate(0,76)"
         id="rect4208"
         inkscape:connector-curvature="0"
         sodipodi:nodetypes="sscsscsss" />
      <path
         style="display:inline;fill:#ffffff;fill-opacity:1;stroke:none;enable-background:new;opacity:0.1"
         d="M 17 192 C 16.446 192 16 192.446 16 193 L 16 194 C 16 193.446 16.446 193 17 193 L 31 193 C 31.554 193 32 193.446 32 194 L 32 193 C 32 192.446 31.554 192 31 192 L 17 192 z "
         transform="translate(0,76)"
         id="rect4210" />
      <g
         id="layer9"
         inkscape:label="status"
         style="display:inline"
         transform="translate(134.4999,522)" />
      <g
         id="layer1-7"
         inkscape:label="places"
         style="display:inline"
         transform="translate(375.5001,-95)" />
      <g
         id="layer14"
         inkscape:label="mimetypes"
         style="display:inline"
         transform="translate(134.4999,522)" />
      <g
         id="layer15"
         inkscape:label="emblems"
         style="display:inline"
         transform="translate(134.4999,522)" />
      <g
         id="g71291"
         inkscape:label="emotes"
         style="display:inline"
         transform="translate(134.4999,522)" />
      <g
         id="layer2"
         inkscape:label="categories"
         style="display:inline"
         transform="translate(375.5001,55)" />
      <g
         id="g6058"
         inkscape:label="apps"
         style="display:inline"
         transform="translate(375.5001,55)" />
      <path
         style="display:inline;opacity:0.05;fill:#000000;fill-opacity:1;stroke:none;enable-background:new"
         d="m 174,260 c 1.108,0 2,-0.892 2,-2 l 0,-17 -32,0 0,17 c 0,1.108 0.892,2 2,2 z"
         id="path4009"
         inkscape:connector-curvature="0"
         sodipodi:nodetypes="ssccsss" />
      <path
         style="display:inline;opacity:0.05;fill:#000000;fill-opacity:1;stroke:none;enable-background:new"
         d="m 300,197 c -2.216,0 -4,1.784 -4,4 l 0,35 64,0 0,-35 c 0,-2.216 -1.784,-4 -4,-4 z"
         id="rect4208-1"
         inkscape:connector-curvature="0"
         sodipodi:nodetypes="ssccsss" />
      <path
         style="display:inline;opacity:0.05;fill:#000000;fill-opacity:1;stroke:none;enable-background:new"
         d="m 94.5,255 c -0.831,0 -1.428011,0.67213 -1.5,1.5 l 0,11.5 22,0 0,-11.5 c 0,-0.831 -0.669,-1.5 -1.5,-1.5 z"
         id="rect4192"
         inkscape:connector-curvature="0"
         sodipodi:nodetypes="ssccsss" />
      <path
         style="display:inline;opacity:0.05;fill:#000000;fill-opacity:1;stroke:none;enable-background:new"
         d="m 251,252 c 1.662,0 3,-1.338 3,-3 l 0,-24 -44,0 0,24 c 0,1.662 1.338,3 3,3 z"
         id="rect4211"
         inkscape:connector-curvature="0"
         sodipodi:nodetypes="ssccsss" />
      <path
         style="display:inline;opacity:0.05;fill:#000000;fill-opacity:1;stroke:none;enable-background:new"
         d="m 53,263 c -0.554,0 -1,0.446 -1,1 l 0,8 16,0 0,-8 c 0,-0.554 -0.446,-1 -1,-1 z"
         id="rect4261"
         inkscape:connector-curvature="0"
         sodipodi:nodetypes="ssccsss" />
      <path
         style="display:inline;fill:#ffffff;fill-opacity:1;fill-rule:evenodd;stroke:none;stroke-width:1px;stroke-linecap:butt;stroke-linejoin:miter;stroke-opacity:1;enable-background:new"
         id="path4281"
         d="m 24,272 c 1.240937,0.012 2.490194,0.29555 3.571086,0.90802 0.430823,0.28056 0.948011,0.64293 1.337794,1.00804 0.613337,0.60045 1.138297,1.30107 1.492526,2.08482 -0.972159,2.14411 -3.109406,3.71565 -5.460584,3.94775 -1.542263,0.17451 -3.156217,-0.092 -4.51192,-0.85488 -0.430823,-0.28056 -0.948,-0.64293 -1.337806,-1.00804 -0.613314,-0.60045 -1.138274,-1.30107 -1.492503,-2.08483 0.972229,-2.144 3.10935,-3.71585 5.460572,-3.94774 0.311977,-0.0363 0.626777,-0.0531 0.940834,-0.0531 z m 0,1.60035 c -1.285886,-0.0284 -2.424777,1.12172 -2.400526,2.40053 -0.04126,1.41345 1.367463,2.63329 2.759989,2.36928 1.406401,-0.16511 2.394241,-1.74261 1.931658,-3.07881 -0.295384,-0.98369 -1.260916,-1.70324 -2.291121,-1.691 z m 0,1.60036 a 0.80017592,0.80017592 0 0 1 0.800183,0.80017 A 0.80017592,0.80017592 0 0 1 24,276.80106 0.80017592,0.80017592 0 0 1 23.199818,276.00088 0.80017592,0.80017592 0 0 1 24,275.20071 Z"
         inkscape:connector-curvature="0" />
      <path
         style="display:inline;opacity:0.05;fill:#000000;fill-opacity:1;stroke:none;enable-background:new"
         d="m 17,269 c -0.554,0 -1,0.446 -1,1 l 0,6 16,0 0,-6 c 0,-0.554 -0.446,-1 -1,-1 z"
         id="rect4275"
         inkscape:connector-curvature="0"
         sodipodi:nodetypes="ssccsss" />
      <path
         sodipodi:nodetypes="ssccsss"
         inkscape:connector-curvature="0"
         id="path4301"
         d="m 431.875,108.875 c -4.432,0 -8.13236,3.56998 -8,8 L 424,188 l 128,0 -0.125,-71.125 c -0.008,-4.43199 -3.568,-8 -8,-8 z"
         style="display:inline;opacity:0.05;fill:#000000;fill-opacity:1;stroke:none;enable-background:new" />
      <g
         id="g4248"
         transform="translate(-8,0)">
        <circle
           style="display:inline;opacity:0.5;fill:#000000;fill-opacity:1;fill-rule:evenodd;stroke:none;filter:url(#filter4375);enable-background:new"
           id="circle4341"
           cx="528.00037"
           cy="230"
           r="48" />
        <circle
           r="48"
           cy="228"
           cx="528.00037"
           id="path8382"
           style="display:inline;fill:#c03630;fill-opacity:1;fill-rule:evenodd;stroke:none;enable-background:new" />
        <g
           transform="matrix(4.0008799,0,0,4.0008799,-1524.4518,272.01408)"
           style="display:inline;fill:#ffffff;fill-opacity:1;enable-background:new"
           inkscape:label="actions"
           id="g4635">
          <path
             style="fill:#ffffff;fill-opacity:1;fill-rule:evenodd;stroke:none;stroke-width:1px;stroke-linecap:butt;stroke-linejoin:miter;stroke-opacity:1"
             id="path4637"
             d="m 513.0002,-16 c -1.55084,0.0151 -3.11206,0.36936 -4.46289,1.13477 -0.5384,0.35062 -1.18475,0.80348 -1.67188,1.25976 -0.76649,0.75042 -1.42254,1.62599 -1.86523,2.60547 1.21494,2.67956 3.88589,4.64353 6.82422,4.93359 1.92741,0.21811 3.94441,-0.11491 5.63867,-1.06836 0.5384,-0.35062 1.18475,-0.80348 1.67188,-1.25976 0.76649,-0.75042 1.42254,-1.62599 1.86523,-2.60547 -1.21502,-2.67941 -3.88582,-4.64381 -6.82422,-4.93359 -0.38988,-0.04547 -0.78329,-0.06642 -1.17578,-0.06641 z m 0,2 c 1.607,-0.0356 3.0303,1.40182 3,3 0.0515,1.76642 -1.70897,3.29088 -3.44922,2.96094 -1.75762,-0.20634 -2.99214,-2.17777 -2.41406,-3.84766 0.36916,-1.22935 1.57581,-2.12858 2.86328,-2.11328 z m 0,2 a 1,1 0 0 0 -1,1 1,1 0 0 0 1,1 1,1 0 0 0 1,-1 1,1 0 0 0 -1,-1 z"
             inkscape:connector-curvature="0" />
        </g>
      </g>
      <g
         id="g4241"
         transform="matrix(0.88235294,0,0,0.88235294,26.058824,31.411765)">
        <circle
           r="17"
           cy="268.13333"
           cx="247"
           style="display:inline;opacity:0.5;fill:#000000;fill-opacity:1;stroke:none;enable-background:new;filter:url(#filter4348)"
           id="circle4339" />
        <circle
           id="circle3609"
           style="display:inline;fill:#c03630;fill-opacity:1;stroke:none;enable-background:new"
           cx="247"
           cy="267"
           r="17" />
        <path
           style="fill:#ffffff;fill-opacity:1;fill-rule:evenodd;stroke:none;stroke-width:1px;stroke-linecap:butt;stroke-linejoin:miter;stroke-opacity:1"
           id="path4639"
           d="m 247,260.2 c -2.10961,0.0205 -4.23333,0.50245 -6.07086,1.54363 -0.7324,0.47695 -1.61162,1.09298 -2.27426,1.71365 -1.04265,1.0208 -1.93508,2.21184 -2.53727,3.54422 1.65268,3.645 5.28597,6.31658 9.28299,6.71116 2.62184,0.29669 5.36557,-0.15631 7.67027,-1.4533 0.73238,-0.47694 1.61161,-1.09296 2.27426,-1.71364 1.04265,-1.0208 1.93507,-2.21183 2.53725,-3.54422 -1.65278,-3.6448 -5.28587,-6.31697 -9.28297,-6.71115 -0.53035,-0.0619 -1.06551,-0.0904 -1.59941,-0.0904 z m 0,2.72061 c 2.186,-0.0484 4.12212,1.90689 4.08089,4.08089 0.07,2.40286 -2.3247,4.47658 -4.69196,4.02776 -2.39089,-0.28068 -4.07021,-2.96242 -3.28385,-5.23396 0.50217,-1.67229 2.14358,-2.89551 3.89492,-2.87469 z m 0,2.7206 a 1.3602988,1.3602988 0 0 0 -1.36029,1.36029 1.3602988,1.3602988 0 0 0 1.36029,1.3603 1.3602988,1.3602988 0 0 0 1.36031,-1.3603 A 1.3602988,1.3602988 0 0 0 247,265.64121 Z"
           inkscape:connector-curvature="0" />
      </g>
      <g
         id="g4256"
         transform="translate(-4,0)">
        <path
           style="display:inline;opacity:0.5;fill:#000000;fill-opacity:1;stroke:none;filter:url(#filter4631);enable-background:new"
           d="m 372,257 a 24,24 0 0 1 -24,24 24,24 0 0 1 -24,-24 24,24 0 0 1 24,-24 24,24 0 0 1 24,24 z"
           id="circle4337"
           inkscape:connector-curvature="0" />
        <path
           style="display:inline;fill:#c03630;fill-opacity:1;stroke:none;enable-background:new"
           d="m 372,256 a 24,24 0 0 1 -24,24 24,24 0 0 1 -24,-24 24,24 0 0 1 24,-24 24,24 0 0 1 24,24 z"
           id="circle4449"
           inkscape:connector-curvature="0" />
        <g
           id="g4627"
           inkscape:label="actions"
           style="display:inline;fill:#ffffff;fill-opacity:1;enable-background:new"
           transform="matrix(2.00044,0,0,2.00044,-678.22612,278.00704)">
          <path
             inkscape:connector-curvature="0"
             d="m 513.0002,-16 c -1.55084,0.0151 -3.11206,0.36936 -4.46289,1.13477 -0.5384,0.35062 -1.18475,0.80348 -1.67188,1.25976 -0.76649,0.75042 -1.42254,1.62599 -1.86523,2.60547 1.21494,2.67956 3.88589,4.64353 6.82422,4.93359 1.92741,0.21811 3.94441,-0.11491 5.63867,-1.06836 0.5384,-0.35062 1.18475,-0.80348 1.67188,-1.25976 0.76649,-0.75042 1.42254,-1.62599 1.86523,-2.60547 -1.21502,-2.67941 -3.88582,-4.64381 -6.82422,-4.93359 -0.38988,-0.04547 -0.78329,-0.06642 -1.17578,-0.06641 z m 0,2 c 1.607,-0.0356 3.0303,1.40182 3,3 0.0515,1.76642 -1.70897,3.29088 -3.44922,2.96094 -1.75762,-0.20634 -2.99214,-2.17777 -2.41406,-3.84766 0.36916,-1.22935 1.57581,-2.12858 2.86328,-2.11328 z m 0,2 a 1,1 0 0 0 -1,1 1,1 0 0 0 1,1 1,1 0 0 0 1,-1 1,1 0 0 0 -1,-1 z"
             id="path4629"
             style="fill:#ffffff;fill-opacity:1;fill-rule:evenodd;stroke:none;stroke-width:1px;stroke-linecap:butt;stroke-linejoin:miter;stroke-opacity:1" />
        </g>
      </g>
      <g
         id="g4355"
         transform="matrix(0.83333333,0,0,0.83333333,30,47.166667)">
        <circle
           r="12"
           cy="271"
           cx="168"
           style="display:inline;opacity:0.5;fill:#000000;fill-opacity:1;stroke:none;filter:url(#filter4360);enable-background:new"
           id="circle4335" />
        <circle
           id="path4058"
           style="display:inline;fill:#c03630;fill-opacity:1;stroke:none;enable-background:new"
           cx="168"
           cy="269.79999"
           r="12" />
        <path
           inkscape:connector-curvature="0"
           d="m 168,265.00003 c -1.48913,0.0145 -2.98824,0.35466 -4.28532,1.08962 -0.51698,0.33667 -1.13761,0.77151 -1.60536,1.20964 -0.73599,0.72056 -1.36593,1.56129 -1.79101,2.5018 1.1666,2.57294 3.73128,4.45877 6.55269,4.73728 1.85072,0.20944 3.78747,-0.11033 5.41432,-1.02585 0.51697,-0.33667 1.13761,-0.77151 1.60535,-1.20963 0.736,-0.72056 1.36594,-1.5613 1.79102,-2.5018 -1.16668,-2.5728 -3.73121,-4.45904 -6.55269,-4.73729 C 168.75463,265.0201 168.37687,265 168,265 Z m 0,1.92042 c 1.54306,-0.0342 2.90973,1.34605 2.88063,2.88064 0.0495,1.69613 -1.64097,3.15994 -3.31198,2.84312 -1.68768,-0.19813 -2.87308,-2.09111 -2.318,-3.69456 0.35447,-1.18044 1.51311,-2.04389 2.74935,-2.0292 z m 0,1.92043 a 0.96021118,0.96021118 0 0 0 -0.96021,0.96021 A 0.96021118,0.96021118 0 0 0 168,270.7613 0.96021118,0.96021118 0 0 0 168.96021,269.80109 0.96021118,0.96021118 0 0 0 168,268.84088 Z"
           id="path6807"
           style="fill:#ffffff;fill-opacity:1;fill-rule:evenodd;stroke:none;stroke-width:1px;stroke-linecap:butt;stroke-linejoin:miter;stroke-opacity:1" />
      </g>
      <g
         id="g4273"
         transform="translate(-2,0)">
        <circle
           r="8"
           cy="276"
           cx="111"
           style="display:inline;opacity:0.2;fill:#000000;fill-opacity:1;fill-rule:evenodd;stroke:none;enable-background:new"
           id="circle4345" />
        <circle
           id="circle4426"
           style="display:inline;fill:#c03630;fill-opacity:1;fill-rule:evenodd;stroke:none;enable-background:new"
           cx="111"
           cy="275"
           r="8" />
        <path
           inkscape:connector-curvature="0"
           d="m 111,271.5 c -1.08582,0.0105 -2.17892,0.25861 -3.1247,0.79452 -0.37697,0.24549 -0.82951,0.56256 -1.17057,0.88203 -0.53667,0.5254 -0.99601,1.13844 -1.30596,1.82422 0.85064,1.8761 2.72073,3.25119 4.77801,3.45428 1.34948,0.1527 2.76169,-0.0805 3.94793,-0.74802 0.37697,-0.24549 0.8295,-0.56256 1.17058,-0.88203 0.53665,-0.5254 0.99599,-1.13844 1.30594,-1.82423 -0.8507,-1.876 -2.72068,-3.25137 -4.778,-3.45427 C 111.55025,271.5147 111.2748,271.5 111,271.5 Z m 0,1.40031 c 1.12515,-0.0249 2.12168,0.9815 2.10046,2.10046 0.0361,1.23677 -1.19653,2.30413 -2.41499,2.07312 -1.2306,-0.14447 -2.09496,-1.52478 -1.6902,-2.69396 0.25846,-0.86073 1.1033,-1.49033 2.00473,-1.47962 z m 0,1.40031 a 0.70015385,0.70015385 0 0 0 -0.70016,0.70015 0.70015385,0.70015385 0 0 0 0.70016,0.70016 0.70015385,0.70015385 0 0 0 0.70016,-0.70016 A 0.70015385,0.70015385 0 0 0 111,274.30062 Z"
           id="path4645"
           style="fill:#ffffff;fill-opacity:1;fill-rule:evenodd;stroke:none;stroke-width:1px;stroke-linecap:butt;stroke-linejoin:miter;stroke-opacity:1" />
      </g>
      <g
         id="g4266">
        <circle
           r="5.5"
           id="circle4343"
           style="display:inline;fill:#000000;fill-opacity:1;stroke:none;stroke-width:2;enable-background:new;opacity:0.2;"
           cx="65"
           cy="278.5" />
        <circle
           cy="277.5"
           cx="65"
           style="display:inline;fill:#c03630;fill-opacity:1;stroke:none;stroke-width:2;enable-background:new"
           id="circle7479"
           r="5.5" />
        <path
           style="fill:#ffffff;fill-opacity:1;fill-rule:evenodd;stroke:none;stroke-width:1px;stroke-linecap:butt;stroke-linejoin:miter;stroke-opacity:1"
           id="path4647"
           d="m 65,274.99999 c -0.77559,0.008 -1.55639,0.18472 -2.23194,0.56752 -0.26927,0.17535 -0.59251,0.40181 -0.83612,0.63002 -0.38334,0.37528 -0.71144,0.81317 -0.93284,1.30302 0.6076,1.34007 1.94339,2.32229 3.41288,2.46736 0.96392,0.109 1.97264,-0.0575 2.81996,-0.5343 0.26927,-0.17535 0.5925,-0.40184 0.83614,-0.63004 0.38332,-0.37528 0.71142,-0.81317 0.9328,-1.30302 -0.60763,-1.34001 -1.94334,-2.32243 -3.41286,-2.46735 C 65.39303,275.0105 65.19628,275 65,275 Z m 0,1.00022 c 0.80367,-0.0178 1.51549,0.70108 1.50032,1.50034 0.0258,0.8834 -0.85465,1.6458 -1.72499,1.4808 -0.879,-0.10316 -1.4964,-1.08913 -1.20729,-1.92425 0.18462,-0.61482 0.78807,-1.06454 1.43196,-1.05689 z m 0,1.00024 a 0.50011201,0.50011201 0 0 0 -0.50012,0.5001 A 0.50011201,0.50011201 0 0 0 65,278.00067 0.50011201,0.50011201 0 0 0 65.50012,277.50055 0.50011201,0.50011201 0 0 0 65,277.00045 Z"
           inkscape:connector-curvature="0" />
      </g>
    </g>
  </g>
</svg>
