<?xml version="1.0" encoding="UTF-8" standalone="no"?>
<!-- Created with Inkscape (http://www.inkscape.org/) -->

<svg
   xmlns:osb="http://www.openswatchbook.org/uri/2009/osb"
   xmlns:dc="http://purl.org/dc/elements/1.1/"
   xmlns:cc="http://creativecommons.org/ns#"
   xmlns:rdf="http://www.w3.org/1999/02/22-rdf-syntax-ns#"
   xmlns:svg="http://www.w3.org/2000/svg"
   xmlns="http://www.w3.org/2000/svg"
   xmlns:sodipodi="http://sodipodi.sourceforge.net/DTD/sodipodi-0.dtd"
   xmlns:inkscape="http://www.inkscape.org/namespaces/inkscape"
   inkscape:export-ydpi="90.000000"
   inkscape:export-xdpi="90.000000"
   width="736"
   height="544"
   id="svg11300"
   sodipodi:version="0.32"
   inkscape:version="0.91 r13725"
   sodipodi:docname="easytag.svg"
   inkscape:output_extension="org.inkscape.output.svg.inkscape"
   version="1.0"
   style="display:inline;enable-background:new"
   inkscape:export-filename="/home/sam/paper-template.png">
  <title
     id="title3004">Paper Icon Theme Template</title>
  <sodipodi:namedview
     stroke="#ef2929"
     fill="#f57900"
     id="base"
     pagecolor="#6b6b6b"
     bordercolor="#000000"
     borderopacity="0.25490196"
     inkscape:pageopacity="0"
     inkscape:pageshadow="2"
     inkscape:zoom="1"
     inkscape:cx="136.70822"
     inkscape:cy="33.14417"
     inkscape:current-layer="layer6"
     showgrid="false"
     inkscape:grid-bbox="true"
     inkscape:document-units="px"
     inkscape:showpageshadow="false"
     inkscape:window-width="1920"
     inkscape:window-height="1019"
     inkscape:window-x="0"
     inkscape:window-y="27"
     width="400px"
     height="300px"
     inkscape:snap-nodes="true"
     inkscape:snap-bbox="true"
     gridtolerance="10000"
     inkscape:object-nodes="true"
     inkscape:snap-grids="true"
     showguides="true"
     inkscape:guide-bbox="true"
     inkscape:window-maximized="1"
     inkscape:bbox-paths="true"
     inkscape:snap-bbox-midpoints="true"
     inkscape:snap-global="true"
     inkscape:object-paths="true"
     inkscape:snap-intersection-paths="true"
     inkscape:snap-smooth-nodes="true">
    <inkscape:grid
       spacingy="1px"
       spacingx="1px"
       id="grid5883"
       type="xygrid"
       enabled="true"
       visible="true"
       empspacing="4"
       snapvisiblegridlinesonly="true" />
    <inkscape:grid
       type="xygrid"
       id="grid11592"
       empspacing="2"
       visible="true"
       enabled="false"
       spacingx="0.5px"
       spacingy="0.5px"
       color="#ff0000"
       opacity="0.1254902"
       empcolor="#ff0000"
       empopacity="0.25098039"
       snapvisiblegridlinesonly="true" />
  </sodipodi:namedview>
  <defs
     id="defs3">
    <linearGradient
       osb:paint="solid"
       id="linearGradient5606">
      <stop
         style="stop-color:#000000;stop-opacity:1;"
         offset="0"
         id="stop5608" />
    </linearGradient>
    <filter
       inkscape:collect="always"
       style="color-interpolation-filters:sRGB"
       id="filter4402"
       x="-0.023999954"
       width="1.0479999"
       y="-0.024000046"
       height="1.0480001">
      <feGaussianBlur
         inkscape:collect="always"
         stdDeviation="4.4799914"
         id="feGaussianBlur4404" />
    </filter>
    <filter
       inkscape:collect="always"
       style="color-interpolation-filters:sRGB"
       id="filter4426"
       x="-0.12"
       width="1.24"
       y="-0.12"
       height="1.24">
      <feGaussianBlur
         inkscape:collect="always"
         stdDeviation="2.4000004"
         id="feGaussianBlur4428" />
    </filter>
  </defs>
  <metadata
     id="metadata4">
    <rdf:RDF>
      <cc:Work
         rdf:about="">
        <dc:format>image/svg+xml</dc:format>
        <dc:type
           rdf:resource="http://purl.org/dc/dcmitype/StillImage" />
        <dc:creator>
          <cc:Agent>
            <dc:title>Sam Hewitt</dc:title>
          </cc:Agent>
        </dc:creator>
        <dc:source />
        <cc:license
           rdf:resource="http://creativecommons.org/licenses/by-sa/3.0/" />
        <dc:title>Paper Icon Theme Template</dc:title>
        <dc:subject>
          <rdf:Bag />
        </dc:subject>
        <dc:date />
        <dc:rights>
          <cc:Agent>
            <dc:title />
          </cc:Agent>
        </dc:rights>
        <dc:publisher>
          <cc:Agent>
            <dc:title />
          </cc:Agent>
        </dc:publisher>
        <dc:identifier />
        <dc:relation />
        <dc:language />
        <dc:coverage />
        <dc:description />
        <dc:contributor>
          <cc:Agent>
            <dc:title />
          </cc:Agent>
        </dc:contributor>
      </cc:Work>
      <cc:Work
         rdf:about="">
        <dc:format>image/svg+xml</dc:format>
        <dc:type
           rdf:resource="http://purl.org/dc/dcmitype/StillImage" />
      </cc:Work>
      <cc:License
         rdf:about="http://creativecommons.org/licenses/by-sa/3.0/">
        <cc:permits
           rdf:resource="http://creativecommons.org/ns#Reproduction" />
        <cc:permits
           rdf:resource="http://creativecommons.org/ns#Distribution" />
        <cc:requires
           rdf:resource="http://creativecommons.org/ns#Notice" />
        <cc:requires
           rdf:resource="http://creativecommons.org/ns#Attribution" />
        <cc:permits
           rdf:resource="http://creativecommons.org/ns#DerivativeWorks" />
        <cc:requires
           rdf:resource="http://creativecommons.org/ns#ShareAlike" />
      </cc:License>
    </rdf:RDF>
  </metadata>
  <g
     style="display:inline"
     inkscape:groupmode="layer"
     inkscape:label="Icon"
     id="layer1"
     transform="translate(0,244)">
    <g
       style="display:none"
       inkscape:label="Baseplate"
       id="layer7"
       inkscape:groupmode="layer">
      <text
         y="337.74512"
         xml:space="preserve"
         x="15.006836"
         style="font-style:normal;font-variant:normal;font-weight:normal;font-stretch:normal;font-size:18px;font-family:'DejaVu Sans';-inkscape-font-specification:'DejaVu Sans';display:inline;fill:#000000;fill-opacity:1;stroke:none;enable-background:new"
         inkscape:label="context"
         id="context"><tspan
           style="font-style:normal;font-variant:normal;font-weight:normal;font-stretch:normal;font-family:'DejaVu Sans';-inkscape-font-specification:'DejaVu Sans'"
           y="337.74512"
           x="15.006836"
           sodipodi:role="line"
           id="tspan3933">apps</tspan></text>
      <text
         y="337.74512"
         xml:space="preserve"
         x="142.48828"
         style="font-style:normal;font-variant:normal;font-weight:bold;font-stretch:normal;font-size:18px;line-height:125%;font-family:'DejaVu Sans';-inkscape-font-specification:'DejaVu Sans Bold';text-align:start;writing-mode:lr-tb;text-anchor:start;display:inline;fill:#000000;fill-opacity:1;stroke:none;enable-background:new"
         sodipodi:linespacing="125%"
         inkscape:label="icon-name"
         id="icon-name"><tspan
           style="font-style:normal;font-variant:normal;font-weight:bold;font-stretch:normal;font-size:18px;font-family:'DejaVu Sans';-inkscape-font-specification:'DejaVu Sans Bold'"
           y="337.74512"
           x="142.48828"
           sodipodi:role="line"
           id="tspan3937">easytag</tspan></text>
      <rect
         style="display:inline;overflow:visible;visibility:visible;fill:#d3d7cf;fill-opacity:1;fill-rule:nonzero;stroke:none;stroke-width:2;marker:none;enable-background:accumulate"
         id="rect16x16"
         width="16"
         height="16"
         x="-32"
         y="268"
         inkscape:label="16x16"
         transform="scale(-1,1)" />
      <rect
         style="display:inline;overflow:visible;visibility:visible;fill:#d3d7cf;fill-opacity:1;fill-rule:nonzero;stroke:none;stroke-width:2;marker:none;enable-background:accumulate"
         id="rect24x24"
         width="24"
         height="24"
         x="-76"
         y="260"
         inkscape:label="24x24"
         transform="scale(-1,1)" />
      <rect
         style="display:inline;overflow:visible;visibility:visible;fill:#d3d7cf;fill-opacity:1;fill-rule:nonzero;stroke:none;stroke-width:2;marker:none;enable-background:accumulate"
         id="rect32x32"
         width="32"
         height="32"
         x="-128"
         y="252"
         inkscape:label="32x32"
         transform="scale(-1,1)" />
      <rect
         inkscape:label="48x48"
         y="236"
         x="-192"
         height="48"
         width="48"
         id="rect48x48"
         style="display:inline;overflow:visible;visibility:visible;fill:#d3d7cf;fill-opacity:1;fill-rule:nonzero;stroke:none;stroke-width:2;marker:none;enable-background:accumulate"
         transform="scale(-1,1)" />
      <rect
         style="display:inline;overflow:visible;visibility:visible;fill:#d3d7cf;fill-opacity:1;fill-rule:nonzero;stroke:none;stroke-width:2;marker:none;enable-background:accumulate"
         id="rect3951"
         width="512"
         height="512"
         x="-720"
         y="-228"
         inkscape:label="48x48"
         transform="scale(-1,1)" />
    </g>
    <g
       inkscape:groupmode="layer"
       id="layer6"
       inkscape:label="Symbols"
       style="display:inline">
      <path
         style="color:#000000;font-style:normal;font-variant:normal;font-weight:normal;font-stretch:normal;font-size:medium;line-height:normal;font-family:sans-serif;text-indent:0;text-align:start;text-decoration:none;text-decoration-line:none;text-decoration-style:solid;text-decoration-color:#000000;letter-spacing:normal;word-spacing:normal;text-transform:none;direction:ltr;block-progression:tb;writing-mode:lr-tb;baseline-shift:baseline;text-anchor:start;white-space:normal;clip-rule:nonzero;display:inline;overflow:visible;visibility:visible;opacity:0.2;isolation:auto;mix-blend-mode:normal;color-interpolation:sRGB;color-interpolation-filters:linearRGB;solid-color:#000000;solid-opacity:1;fill:#000000;fill-opacity:1;fill-rule:evenodd;stroke:none;stroke-width:2;stroke-linecap:butt;stroke-linejoin:round;stroke-miterlimit:4;stroke-dasharray:none;stroke-dashoffset:0;stroke-opacity:1;color-rendering:auto;image-rendering:auto;shape-rendering:auto;text-rendering:auto;enable-background:accumulate"
         d="m 146.4818,260.41838 c -0.30841,-0.30852 -0.48166,-0.72691 -0.48162,-1.16316 l 0,-16.28409 c 0,0 -0.0236,-0.92527 0.46343,-1.89919 0.48697,-0.97393 1.79618,-2.07186 3.50764,-2.07186 l 16.28407,0 c 0.43623,-3e-5 0.85462,0.17322 1.16314,0.48162 l 22.09982,22.09982 c 0.64229,0.64243 0.64229,1.68388 0,2.32631 l -18.61037,18.61037 c -0.64243,0.64229 -1.68386,0.64229 -2.32629,0 z"
         id="path4483"
         inkscape:connector-curvature="0"
         sodipodi:nodetypes="cccssccccccc" />
      <path
         sodipodi:nodetypes="cccssccccccc"
         inkscape:connector-curvature="0"
         id="path4452"
         d="m 98.3066,268.62988 c -0.19626,-0.19633 -0.30651,-0.46258 -0.30648,-0.74019 l 0,-10.3626 c 0,0 -0.015,-0.58881 0.29491,-1.20858 0.30989,-0.61977 1.14302,-1.31845 2.23213,-1.31845 l 10.36259,0 c 0.2776,-2e-5 0.54385,0.11023 0.74018,0.30648 l 14.06352,14.06352 c 0.40873,0.40882 0.40873,1.07156 0,1.48038 l -11.84296,11.84296 c -0.40882,0.40873 -1.07155,0.40873 -1.48037,0 z"
         style="color:#000000;font-style:normal;font-variant:normal;font-weight:normal;font-stretch:normal;font-size:medium;line-height:normal;font-family:sans-serif;text-indent:0;text-align:start;text-decoration:none;text-decoration-line:none;text-decoration-style:solid;text-decoration-color:#000000;letter-spacing:normal;word-spacing:normal;text-transform:none;direction:ltr;block-progression:tb;writing-mode:lr-tb;baseline-shift:baseline;text-anchor:start;white-space:normal;clip-rule:nonzero;display:inline;overflow:visible;visibility:visible;opacity:0.2;isolation:auto;mix-blend-mode:normal;color-interpolation:sRGB;color-interpolation-filters:linearRGB;solid-color:#000000;solid-opacity:1;fill:#000000;fill-opacity:1;fill-rule:evenodd;stroke:none;stroke-width:2;stroke-linecap:butt;stroke-linejoin:round;stroke-miterlimit:4;stroke-dasharray:none;stroke-dashoffset:0;stroke-opacity:1;color-rendering:auto;image-rendering:auto;shape-rendering:auto;text-rendering:auto;enable-background:accumulate" />
      <g
         id="g4441"
         inkscape:label="actions"
         style="display:inline;enable-background:new;fill:#000000;fill-opacity:1;opacity:0.2"
         transform="matrix(1.6,0,0,1.6,-534.20032,-61.2)">
        <path
           inkscape:connector-curvature="0"
           d="m 368.5002,202 c 0,0 -1.5,0 -1.5,1.5 l 0,5.375 7.5,6.875 0.625,0 5.625,-6.25 0,-0.625 -6.875,-6.875 z"
           id="path4443"
           sodipodi:nodetypes="csccccccc"
           style="fill:#000000;fill-opacity:1;fill-rule:evenodd;stroke:none;stroke-width:1px;stroke-linecap:butt;stroke-linejoin:miter;stroke-opacity:1" />
        <g
           id="g4445"
           inkscape:label="folder-remote"
           transform="translate(137.00061,-795)"
           style="fill:#000000;fill-opacity:1" />
      </g>
      <path
         style="color:#000000;font-style:normal;font-variant:normal;font-weight:normal;font-stretch:normal;font-size:medium;line-height:normal;font-family:sans-serif;text-indent:0;text-align:start;text-decoration:none;text-decoration-line:none;text-decoration-style:solid;text-decoration-color:#000000;letter-spacing:normal;word-spacing:normal;text-transform:none;direction:ltr;block-progression:tb;writing-mode:lr-tb;baseline-shift:baseline;text-anchor:start;white-space:normal;clip-rule:nonzero;display:inline;overflow:visible;visibility:visible;opacity:0.1;isolation:auto;mix-blend-mode:normal;color-interpolation:sRGB;color-interpolation-filters:linearRGB;solid-color:#000000;solid-opacity:1;fill:#000000;fill-opacity:1;fill-rule:evenodd;stroke:none;stroke-width:2;stroke-linecap:butt;stroke-linejoin:round;stroke-miterlimit:4;stroke-dasharray:none;stroke-dashoffset:0;stroke-opacity:1;filter:url(#filter4402);color-rendering:auto;image-rendering:auto;shape-rendering:auto;text-rendering:auto;enable-background:accumulate"
         d="m 244.90559,26.077983 c -3.14016,-3.141281 -4.90416,-7.401281 -4.90368,-11.843042 l 0,-165.801631 c 0,0 -0.24,-9.42096 4.71856,-19.33728 4.95825,-9.91633 18.28833,-21.09521 35.71409,-21.09521 l 165.80147,0 c 4.4416,-3.2e-4 8.7016,1.76368 11.84288,4.90368 L 683.09528,37.920865 c 6.53968,6.541121 6.53968,17.144963 0,23.686085 l -189.4874,189.4874 c -6.54112,6.53968 -17.1448,6.53968 -23.68592,0 z"
         id="path4406"
         inkscape:connector-curvature="0"
         sodipodi:nodetypes="cccssccccccc" />
      <path
         sodipodi:nodetypes="cccssccccccc"
         inkscape:connector-curvature="0"
         id="path4400"
         d="m 244.90559,26.077983 c -3.14016,-3.141281 -4.90416,-7.401281 -4.90368,-11.843042 l 0,-165.801631 c 0,0 -0.24,-9.42096 4.71856,-19.33728 4.95825,-9.91633 18.28833,-21.09521 35.71409,-21.09521 l 165.80147,0 c 4.4416,-3.2e-4 8.7016,1.76368 11.84288,4.90368 L 683.09528,37.920865 c 6.53968,6.541121 6.53968,17.144963 0,23.686085 l -189.4874,189.4874 c -6.54112,6.53968 -17.1448,6.53968 -23.68592,0 z"
         style="color:#000000;font-style:normal;font-variant:normal;font-weight:normal;font-stretch:normal;font-size:medium;line-height:normal;font-family:sans-serif;text-indent:0;text-align:start;text-decoration:none;text-decoration-line:none;text-decoration-style:solid;text-decoration-color:#000000;letter-spacing:normal;word-spacing:normal;text-transform:none;direction:ltr;block-progression:tb;writing-mode:lr-tb;baseline-shift:baseline;text-anchor:start;white-space:normal;clip-rule:nonzero;display:inline;overflow:visible;visibility:visible;opacity:0.2;isolation:auto;mix-blend-mode:normal;color-interpolation:sRGB;color-interpolation-filters:linearRGB;solid-color:#000000;solid-opacity:1;fill:#000000;fill-opacity:1;fill-rule:evenodd;stroke:none;stroke-width:2;stroke-linecap:butt;stroke-linejoin:round;stroke-miterlimit:4;stroke-dasharray:none;stroke-dashoffset:0;stroke-opacity:1;filter:url(#filter4402);color-rendering:auto;image-rendering:auto;shape-rendering:auto;text-rendering:auto;enable-background:accumulate" />
      <path
         style="color:#000000;font-style:normal;font-variant:normal;font-weight:normal;font-stretch:normal;font-size:medium;line-height:normal;font-family:sans-serif;text-indent:0;text-align:start;text-decoration:none;text-decoration-line:none;text-decoration-style:solid;text-decoration-color:#000000;letter-spacing:normal;word-spacing:normal;text-transform:none;direction:ltr;block-progression:tb;writing-mode:lr-tb;baseline-shift:baseline;text-anchor:start;white-space:normal;clip-rule:nonzero;display:inline;overflow:visible;visibility:visible;opacity:0.2;isolation:auto;mix-blend-mode:normal;color-interpolation:sRGB;color-interpolation-filters:linearRGB;solid-color:#000000;solid-opacity:1;fill:#000000;fill-opacity:1;fill-rule:evenodd;stroke:none;stroke-width:2;stroke-linecap:butt;stroke-linejoin:round;stroke-miterlimit:4;stroke-dasharray:none;stroke-dashoffset:0;stroke-opacity:1;color-rendering:auto;image-rendering:auto;shape-rendering:auto;text-rendering:auto;enable-background:accumulate"
         d="m 244.90559,24.077983 c -3.14016,-3.141281 -4.90416,-7.401281 -4.90368,-11.843042 l 0,-165.801631 c 0,0 -0.24,-9.42096 4.71856,-19.33728 4.95825,-9.91633 18.28833,-21.09521 35.71409,-21.09521 l 165.80147,0 c 4.4416,-3.2e-4 8.7016,1.76368 11.84288,4.90368 L 683.09528,35.920865 c 6.53968,6.541121 6.53968,17.144963 0,23.686085 l -189.4874,189.4874 c -6.54112,6.53968 -17.1448,6.53968 -23.68592,0 z"
         id="path4398"
         inkscape:connector-curvature="0"
         sodipodi:nodetypes="cccssccccccc" />
      <g
         id="layer12"
         inkscape:label="actions"
         style="display:inline;enable-background:new"
         transform="translate(-350.0002,67)">
        <path
           inkscape:connector-curvature="0"
           d="m 368.5002,202 c 0,0 -1.5,0 -1.5,1.5 l 0,5 7.75,7.25 6,-6 -7.25,-7.75 z"
           id="path11098"
           sodipodi:nodetypes="csccccc"
           style="fill:#4caf50;fill-opacity:1;fill-rule:evenodd;stroke:none;stroke-width:1px;stroke-linecap:butt;stroke-linejoin:miter;stroke-opacity:1" />
        <g
           id="g5317"
           inkscape:label="folder-remote"
           transform="translate(137.00061,-795)" />
      </g>
      <g
         transform="translate(-350.0002,67)"
         style="display:inline;enable-background:new;fill:#ffffff"
         inkscape:label="actions"
         id="g4356">
        <path
           style="fill:#ffffff;fill-opacity:1;fill-rule:evenodd;stroke:none;stroke-width:1px;stroke-linecap:butt;stroke-linejoin:miter;stroke-opacity:1"
           sodipodi:nodetypes="sssss"
           id="path4358"
           d="m 370.0002,204 c 0.55228,0 1,0.44772 1,1 0,0.55228 -0.44772,1 -1,1 -0.55228,0 -1,-0.44772 -1,-1 0,-0.55228 0.44772,-1 1,-1 z"
           inkscape:connector-curvature="0" />
        <g
           transform="translate(137.00061,-795)"
           inkscape:label="folder-remote"
           id="g4360"
           style="fill:#ffffff" />
      </g>
      <path
         style="color:#000000;font-style:normal;font-variant:normal;font-weight:normal;font-stretch:normal;font-size:medium;line-height:normal;font-family:sans-serif;text-indent:0;text-align:start;text-decoration:none;text-decoration-line:none;text-decoration-style:solid;text-decoration-color:#000000;letter-spacing:normal;word-spacing:normal;text-transform:none;direction:ltr;block-progression:tb;writing-mode:lr-tb;baseline-shift:baseline;text-anchor:start;white-space:normal;clip-rule:nonzero;display:inline;overflow:visible;visibility:visible;opacity:1;isolation:auto;mix-blend-mode:normal;color-interpolation:sRGB;color-interpolation-filters:linearRGB;solid-color:#000000;solid-opacity:1;fill:#4caf50;fill-opacity:1;fill-rule:evenodd;stroke:none;stroke-width:2;stroke-linecap:butt;stroke-linejoin:round;stroke-miterlimit:4;stroke-dasharray:none;stroke-dashoffset:0;stroke-opacity:1;color-rendering:auto;image-rendering:auto;shape-rendering:auto;text-rendering:auto;enable-background:accumulate"
         d="m 98.3066,267.62988 c -0.19626,-0.19633 -0.30651,-0.46258 -0.30648,-0.74019 l 0,-10.3626 c 0,0 -0.015,-0.58881 0.29491,-1.20858 0.30989,-0.61977 1.14302,-1.31845 2.23213,-1.31845 l 10.36259,0 c 0.2776,-2e-5 0.54385,0.11023 0.74018,0.30648 l 14.06352,14.06352 c 0.40873,0.40882 0.40873,1.07156 0,1.48038 l -11.84296,11.84296 c -0.40882,0.40873 -1.07155,0.40873 -1.48037,0 z"
         id="path4368"
         inkscape:connector-curvature="0"
         sodipodi:nodetypes="cccssccccccc" />
      <circle
         r="1.5"
         cy="258.5"
         cx="101.5"
         id="circle4467"
         style="display:inline;opacity:0.2;fill:#000000;fill-opacity:1;stroke:none;stroke-width:2;stroke-linejoin:round;stroke-miterlimit:4;stroke-dasharray:none;stroke-opacity:1;enable-background:new" />
      <circle
         style="display:inline;opacity:1;fill:#ffffff;fill-opacity:1;stroke:none;stroke-width:2;stroke-linejoin:round;stroke-miterlimit:4;stroke-dasharray:none;stroke-opacity:1;enable-background:new"
         id="path4372"
         cx="101.5"
         cy="257.5"
         r="1.5" />
      <path
         style="fill:none;fill-rule:evenodd;stroke:#f9f9f9;stroke-width:2;stroke-linecap:butt;stroke-linejoin:miter;stroke-miterlimit:4;stroke-dasharray:none;stroke-opacity:1;opacity:1"
         d="m 120.94975,268.53554 -6.12132,6.12132 c 0,0 -1.41421,1.41421 -2.82842,0 l -6,-5.82843 c -1.41422,-1.41421 0,-2.82843 0,-2.82843 L 108,264.00001 l 2.00001,-2 c 0,0 1.41421,-1.41422 2.82842,0 l 0.70711,0.7071 L 116,265.00001 109.00001,272"
         id="path4376"
         inkscape:connector-curvature="0"
         sodipodi:nodetypes="ccccccccccc" />
      <path
         sodipodi:nodetypes="cccssccccccc"
         inkscape:connector-curvature="0"
         id="path4389"
         d="m 244.90559,22.077983 c -3.14016,-3.141281 -4.90416,-7.401281 -4.90368,-11.843042 l 0,-165.801631 c 0,0 -0.24,-9.42096 4.71856,-19.33728 4.95825,-9.91633 18.28833,-21.09521 35.71409,-21.09521 l 165.80147,0 c 4.4416,-3.2e-4 8.7016,1.76368 11.84288,4.90368 L 683.09528,33.920865 c 6.53968,6.541121 6.53968,17.144963 0,23.686085 l -189.4874,189.4874 c -6.54112,6.53968 -17.1448,6.53968 -23.68592,0 z"
         style="color:#000000;font-style:normal;font-variant:normal;font-weight:normal;font-stretch:normal;font-size:medium;line-height:normal;font-family:sans-serif;text-indent:0;text-align:start;text-decoration:none;text-decoration-line:none;text-decoration-style:solid;text-decoration-color:#000000;letter-spacing:normal;word-spacing:normal;text-transform:none;direction:ltr;block-progression:tb;writing-mode:lr-tb;baseline-shift:baseline;text-anchor:start;white-space:normal;clip-rule:nonzero;display:inline;overflow:visible;visibility:visible;opacity:1;isolation:auto;mix-blend-mode:normal;color-interpolation:sRGB;color-interpolation-filters:linearRGB;solid-color:#000000;solid-opacity:1;fill:#4caf50;fill-opacity:1;fill-rule:evenodd;stroke:none;stroke-width:2;stroke-linecap:butt;stroke-linejoin:round;stroke-miterlimit:4;stroke-dasharray:none;stroke-dashoffset:0;stroke-opacity:1;color-rendering:auto;image-rendering:auto;shape-rendering:auto;text-rendering:auto;enable-background:accumulate" />
      <circle
         style="display:inline;opacity:0.2;fill:#000000;fill-opacity:1;stroke:none;stroke-width:2;stroke-linejoin:round;stroke-miterlimit:4;stroke-dasharray:none;stroke-opacity:1;filter:url(#filter4426);enable-background:new"
         id="circle4408"
         cx="296"
         cy="-134.00012"
         r="24.000004" />
      <circle
         r="24.000004"
         cy="-140.00012"
         cx="296"
         id="circle4391"
         style="display:inline;opacity:1;fill:#ffffff;fill-opacity:1;stroke:none;stroke-width:2;stroke-linejoin:round;stroke-miterlimit:4;stroke-dasharray:none;stroke-opacity:1;enable-background:new" />
      <path
         sodipodi:nodetypes="ccccccccccc"
         inkscape:connector-curvature="0"
         id="path4393"
         d="m 607.19606,36.568546 -97.94114,97.941134 c 0,0 -22.62736,22.62737 -45.25472,0 L 368.00018,41.254786 c -22.62753,-22.627364 0,-45.254888 0,-45.254888 l 31.99984,-31.999846 32.00017,-32.000006 c 0,0 22.62736,-22.627524 45.25473,0 l 11.31376,11.313602 39.43137,36.686407 -111.99986,111.999861"
         style="fill:none;fill-rule:evenodd;stroke:#f2f2f2;stroke-width:32.00000763;stroke-linecap:butt;stroke-linejoin:miter;stroke-miterlimit:4;stroke-dasharray:none;stroke-opacity:1;opacity:1" />
      <g
         transform="matrix(1.6,0,0,1.6,-534.20032,-62.2)"
         style="display:inline;enable-background:new"
         inkscape:label="actions"
         id="g4430">
        <path
           style="fill:#4caf50;fill-opacity:1;fill-rule:evenodd;stroke:none;stroke-width:1px;stroke-linecap:butt;stroke-linejoin:miter;stroke-opacity:1"
           sodipodi:nodetypes="csccccccc"
           id="path4432"
           d="m 368.5002,202 c 0,0 -1.5,0 -1.5,1.5 l 0,5.375 7.5,6.875 0.625,0 5.625,-6.25 0,-0.625 -6.875,-6.875 z"
           inkscape:connector-curvature="0" />
        <g
           transform="translate(137.00061,-795)"
           inkscape:label="folder-remote"
           id="g4434" />
      </g>
      <circle
         r="1.5"
         cy="264.5"
         cx="56.5"
         id="circle4439"
         style="display:inline;opacity:1;fill:#ffffff;fill-opacity:1;stroke:none;stroke-width:2;stroke-linejoin:round;stroke-miterlimit:4;stroke-dasharray:none;stroke-opacity:1;enable-background:new" />
      <path
         style="color:#000000;font-style:normal;font-variant:normal;font-weight:normal;font-stretch:normal;font-size:medium;line-height:normal;font-family:sans-serif;text-indent:0;text-align:start;text-decoration:none;text-decoration-line:none;text-decoration-style:solid;text-decoration-color:#000000;letter-spacing:normal;word-spacing:normal;text-transform:none;direction:ltr;block-progression:tb;writing-mode:lr-tb;baseline-shift:baseline;text-anchor:start;white-space:normal;clip-rule:nonzero;display:inline;overflow:visible;visibility:visible;opacity:0.2;isolation:auto;mix-blend-mode:normal;color-interpolation:sRGB;color-interpolation-filters:linearRGB;solid-color:#000000;solid-opacity:1;fill:#ffffff;fill-opacity:1;fill-rule:evenodd;stroke:none;stroke-width:2;stroke-linecap:butt;stroke-linejoin:round;stroke-miterlimit:4;stroke-dasharray:none;stroke-dashoffset:0;stroke-opacity:1;color-rendering:auto;image-rendering:auto;shape-rendering:auto;text-rendering:auto;enable-background:accumulate"
         d="M 280.43359 48 C 263.00783 48 249.67895 59.179373 244.7207 69.095703 C 239.76214 79.012023 240.00195 88.433594 240.00195 88.433594 L 240.00195 90.433594 C 240.00195 90.433594 239.76214 81.012023 244.7207 71.095703 C 249.67895 61.179373 263.00783 50 280.43359 50 L 446.23633 50 C 450.67793 49.99968 454.93685 51.764297 458.07812 54.904297 L 683.0957 279.91992 C 686.11096 282.93585 687.71837 286.81682 687.95312 290.76367 C 688.22752 286.15035 686.62012 281.44512 683.0957 277.91992 L 458.07812 52.904297 C 454.93685 49.764297 450.67793 47.99968 446.23633 48 L 280.43359 48 z "
         transform="translate(0,-244)"
         id="path4447" />
      <path
         style="color:#000000;font-style:normal;font-variant:normal;font-weight:normal;font-stretch:normal;font-size:medium;line-height:normal;font-family:sans-serif;text-indent:0;text-align:start;text-decoration:none;text-decoration-line:none;text-decoration-style:solid;text-decoration-color:#000000;letter-spacing:normal;word-spacing:normal;text-transform:none;direction:ltr;block-progression:tb;writing-mode:lr-tb;baseline-shift:baseline;text-anchor:start;white-space:normal;clip-rule:nonzero;display:inline;overflow:visible;visibility:visible;opacity:0.2;isolation:auto;mix-blend-mode:normal;color-interpolation:sRGB;color-interpolation-filters:linearRGB;solid-color:#000000;solid-opacity:1;fill:#ffffff;fill-opacity:1;fill-rule:evenodd;stroke:none;stroke-width:2;stroke-linecap:butt;stroke-linejoin:round;stroke-miterlimit:4;stroke-dasharray:none;stroke-dashoffset:0;stroke-opacity:1;color-rendering:auto;image-rendering:auto;shape-rendering:auto;text-rendering:auto;enable-background:accumulate"
         d="M 100.52734 498 C 99.438234 498 98.604812 498.69859 98.294922 499.31836 C 97.985012 499.93813 98 500.52734 98 500.52734 L 98 501.52734 C 98 501.52734 97.985012 500.93813 98.294922 500.31836 C 98.604812 499.69859 99.438234 499 100.52734 499 L 110.89062 499 C 111.16823 498.99998 111.43453 499.11039 111.63086 499.30664 L 125.69336 513.36914 C 125.76409 513.43989 125.80726 513.52605 125.85352 513.60938 C 126.07389 513.21134 126.03108 512.70694 125.69336 512.36914 L 111.63086 498.30664 C 111.43453 498.11039 111.16823 497.99998 110.89062 498 L 100.52734 498 z "
         transform="translate(0,-244)"
         id="path4456" />
      <path
         sodipodi:nodetypes="cccssccccccc"
         inkscape:connector-curvature="0"
         id="path4469"
         d="m 146.4818,259.41838 c -0.30841,-0.30852 -0.48166,-0.72691 -0.48162,-1.16316 l 0,-16.28409 c 0,0 -0.0236,-0.92527 0.46343,-1.89919 0.48697,-0.97393 1.79618,-2.07186 3.50764,-2.07186 l 16.28407,0 c 0.43623,-3e-5 0.85462,0.17322 1.16314,0.48162 l 22.09982,22.09982 c 0.64229,0.64243 0.64229,1.68388 0,2.32631 l -18.61037,18.61037 c -0.64243,0.64229 -1.68386,0.64229 -2.32629,0 z"
         style="color:#000000;font-style:normal;font-variant:normal;font-weight:normal;font-stretch:normal;font-size:medium;line-height:normal;font-family:sans-serif;text-indent:0;text-align:start;text-decoration:none;text-decoration-line:none;text-decoration-style:solid;text-decoration-color:#000000;letter-spacing:normal;word-spacing:normal;text-transform:none;direction:ltr;block-progression:tb;writing-mode:lr-tb;baseline-shift:baseline;text-anchor:start;white-space:normal;clip-rule:nonzero;display:inline;overflow:visible;visibility:visible;opacity:1;isolation:auto;mix-blend-mode:normal;color-interpolation:sRGB;color-interpolation-filters:linearRGB;solid-color:#000000;solid-opacity:1;fill:#4caf50;fill-opacity:1;fill-rule:evenodd;stroke:none;stroke-width:2;stroke-linecap:butt;stroke-linejoin:round;stroke-miterlimit:4;stroke-dasharray:none;stroke-dashoffset:0;stroke-opacity:1;color-rendering:auto;image-rendering:auto;shape-rendering:auto;text-rendering:auto;enable-background:accumulate" />
      <circle
         r="2"
         cy="243.99998"
         cx="151.99998"
         id="circle4471"
         style="display:inline;opacity:1;fill:#ffffff;fill-opacity:1;stroke:none;stroke-width:2;stroke-linejoin:round;stroke-miterlimit:4;stroke-dasharray:none;stroke-opacity:1;enable-background:new" />
      <path
         sodipodi:nodetypes="ccccccccccc"
         inkscape:connector-curvature="0"
         id="path4473"
         d="m 182.0639,260.84156 -9.61922,9.61922 c 0,0 -2.22233,2.22233 -4.44466,0 l -9.42858,-9.15897 c -2.22234,-2.22233 0,-4.44467 0,-4.44467 l 3.14284,-3.14284 3.14288,-3.14286 c 0,0 2.22233,-2.22235 4.44466,0 l 1.11117,1.11115 3.87273,3.60313 -10.99999,10.99999"
         style="fill:none;fill-rule:evenodd;stroke:#f9f9f9;stroke-width:3;stroke-linecap:butt;stroke-linejoin:miter;stroke-miterlimit:4;stroke-dasharray:none;stroke-opacity:1;opacity:1" />
      <circle
         style="display:inline;opacity:0.2;fill:#000000;fill-opacity:1;stroke:none;stroke-width:2;stroke-linejoin:round;stroke-miterlimit:4;stroke-dasharray:none;stroke-opacity:1;enable-background:new"
         id="circle4494"
         cx="151.99998"
         cy="244.99998"
         r="2" />
      <path
         style="color:#000000;font-style:normal;font-variant:normal;font-weight:normal;font-stretch:normal;font-size:medium;line-height:normal;font-family:sans-serif;text-indent:0;text-align:start;text-decoration:none;text-decoration-line:none;text-decoration-style:solid;text-decoration-color:#000000;letter-spacing:normal;word-spacing:normal;text-transform:none;direction:ltr;block-progression:tb;writing-mode:lr-tb;baseline-shift:baseline;text-anchor:start;white-space:normal;clip-rule:nonzero;display:inline;overflow:visible;visibility:visible;opacity:0.2;isolation:auto;mix-blend-mode:normal;color-interpolation:sRGB;color-interpolation-filters:linearRGB;solid-color:#000000;solid-opacity:1;fill:#ffffff;fill-opacity:1;fill-rule:evenodd;stroke:none;stroke-width:2;stroke-linecap:butt;stroke-linejoin:round;stroke-miterlimit:4;stroke-dasharray:none;stroke-dashoffset:0;stroke-opacity:1;color-rendering:auto;image-rendering:auto;shape-rendering:auto;text-rendering:auto;enable-background:accumulate"
         d="M 149.9707 482 C 148.25924 482 146.94986 483.09834 146.46289 484.07227 C 145.97586 485.04619 146 485.9707 146 485.9707 L 146 486.9707 C 146 486.9707 145.97586 486.04619 146.46289 485.07227 C 146.94986 484.09834 148.25924 483 149.9707 483 L 166.25586 483 C 166.69209 482.99997 167.10945 483.17402 167.41797 483.48242 L 189.51758 505.58203 C 189.70949 505.77399 189.83683 506.00223 189.91406 506.24414 C 190.0953 505.67642 189.96796 505.03251 189.51758 504.58203 L 167.41797 482.48242 C 167.10945 482.17402 166.69209 481.99997 166.25586 482 L 149.9707 482 z "
         transform="translate(0,-244)"
         id="path4487" />
    </g>
  </g>
</svg>
