<?xml version="1.0" encoding="UTF-8" standalone="no"?>
<!-- Created with Inkscape (http://www.inkscape.org/) -->

<svg
   xmlns:dc="http://purl.org/dc/elements/1.1/"
   xmlns:cc="http://creativecommons.org/ns#"
   xmlns:rdf="http://www.w3.org/1999/02/22-rdf-syntax-ns#"
   xmlns:svg="http://www.w3.org/2000/svg"
   xmlns="http://www.w3.org/2000/svg"
   xmlns:sodipodi="http://sodipodi.sourceforge.net/DTD/sodipodi-0.dtd"
   xmlns:inkscape="http://www.inkscape.org/namespaces/inkscape"
   inkscape:export-ydpi="90.000000"
   inkscape:export-xdpi="90.000000"
   width="736"
   height="544"
   id="svg11300"
   sodipodi:version="0.32"
   inkscape:version="0.91 r"
   sodipodi:docname="five-or-more.svg"
   inkscape:output_extension="org.inkscape.output.svg.inkscape"
   version="1.0"
   style="display:inline;enable-background:new"
   inkscape:export-filename="/home/sam/paper-template.png">
  <title
     id="title3004">Paper Icon Theme Template</title>
  <sodipodi:namedview
     stroke="#ef2929"
     fill="#f57900"
     id="base"
     pagecolor="#6b6b6b"
     bordercolor="#000000"
     borderopacity="0.25490196"
     inkscape:pageopacity="0"
     inkscape:pageshadow="2"
     inkscape:zoom="1"
     inkscape:cx="109.94982"
     inkscape:cy="36.600354"
     inkscape:current-layer="layer6"
     showgrid="false"
     inkscape:grid-bbox="true"
     inkscape:document-units="px"
     inkscape:showpageshadow="false"
     inkscape:window-width="1920"
     inkscape:window-height="1024"
     inkscape:window-x="0"
     inkscape:window-y="30"
     width="400px"
     height="300px"
     inkscape:snap-nodes="true"
     inkscape:snap-bbox="true"
     gridtolerance="10000"
     inkscape:object-nodes="true"
     inkscape:snap-grids="true"
     showguides="true"
     inkscape:guide-bbox="true"
     inkscape:window-maximized="1"
     inkscape:bbox-paths="true"
     inkscape:snap-bbox-midpoints="true"
     inkscape:snap-global="true"
     inkscape:object-paths="true"
     inkscape:snap-intersection-paths="true"
     inkscape:snap-smooth-nodes="true">
    <inkscape:grid
       spacingy="1px"
       spacingx="1px"
       id="grid5883"
       type="xygrid"
       enabled="true"
       visible="true"
       empspacing="4"
       snapvisiblegridlinesonly="true" />
    <inkscape:grid
       type="xygrid"
       id="grid11592"
       empspacing="2"
       visible="true"
       enabled="false"
       spacingx="0.5px"
       spacingy="0.5px"
       color="#ff0000"
       opacity="0.1254902"
       empcolor="#ff0000"
       empopacity="0.25098039"
       snapvisiblegridlinesonly="true" />
  </sodipodi:namedview>
  <defs
     id="defs3">
    <filter
       inkscape:collect="always"
       style="color-interpolation-filters:sRGB"
       id="filter4337"
       x="-0.024"
       width="1.048"
       y="-0.024"
       height="1.048">
      <feGaussianBlur
         inkscape:collect="always"
         stdDeviation="4.56"
         id="feGaussianBlur4339" />
    </filter>
  </defs>
  <metadata
     id="metadata4">
    <rdf:RDF>
      <cc:Work
         rdf:about="">
        <dc:format>image/svg+xml</dc:format>
        <dc:type
           rdf:resource="http://purl.org/dc/dcmitype/StillImage" />
        <dc:creator>
          <cc:Agent>
            <dc:title>Sam Hewitt</dc:title>
          </cc:Agent>
        </dc:creator>
        <dc:source />
        <cc:license
           rdf:resource="http://creativecommons.org/licenses/by-sa/3.0/" />
        <dc:title>Paper Icon Theme Template</dc:title>
        <dc:subject>
          <rdf:Bag />
        </dc:subject>
        <dc:date />
        <dc:rights>
          <cc:Agent>
            <dc:title />
          </cc:Agent>
        </dc:rights>
        <dc:publisher>
          <cc:Agent>
            <dc:title />
          </cc:Agent>
        </dc:publisher>
        <dc:identifier />
        <dc:relation />
        <dc:language />
        <dc:coverage />
        <dc:description />
        <dc:contributor>
          <cc:Agent>
            <dc:title />
          </cc:Agent>
        </dc:contributor>
      </cc:Work>
      <cc:Work
         rdf:about="">
        <dc:format>image/svg+xml</dc:format>
        <dc:type
           rdf:resource="http://purl.org/dc/dcmitype/StillImage" />
      </cc:Work>
      <cc:License
         rdf:about="http://creativecommons.org/licenses/by-sa/3.0/">
        <cc:permits
           rdf:resource="http://creativecommons.org/ns#Reproduction" />
        <cc:permits
           rdf:resource="http://creativecommons.org/ns#Distribution" />
        <cc:requires
           rdf:resource="http://creativecommons.org/ns#Notice" />
        <cc:requires
           rdf:resource="http://creativecommons.org/ns#Attribution" />
        <cc:permits
           rdf:resource="http://creativecommons.org/ns#DerivativeWorks" />
        <cc:requires
           rdf:resource="http://creativecommons.org/ns#ShareAlike" />
      </cc:License>
    </rdf:RDF>
  </metadata>
  <g
     style="display:inline"
     inkscape:groupmode="layer"
     inkscape:label="Icon"
     id="layer1"
     transform="translate(0,244)">
    <g
       style="display:none"
       inkscape:label="Baseplate"
       id="layer7"
       inkscape:groupmode="layer">
      <text
         y="337.74512"
         xml:space="preserve"
         x="15.006836"
         style="font-style:normal;font-variant:normal;font-weight:normal;font-stretch:normal;font-size:18px;font-family:'DejaVu Sans';-inkscape-font-specification:'DejaVu Sans';display:inline;fill:#000000;fill-opacity:1;stroke:none;enable-background:new"
         inkscape:label="context"
         id="context"><tspan
           style="font-style:normal;font-variant:normal;font-weight:normal;font-stretch:normal;font-family:'DejaVu Sans';-inkscape-font-specification:'DejaVu Sans'"
           y="337.74512"
           x="15.006836"
           sodipodi:role="line"
           id="tspan3933">apps</tspan></text>
      <text
         y="337.74512"
         xml:space="preserve"
         x="142.48828"
         style="font-style:normal;font-variant:normal;font-weight:bold;font-stretch:normal;font-size:18px;line-height:125%;font-family:'DejaVu Sans';-inkscape-font-specification:'DejaVu Sans Bold';text-align:start;writing-mode:lr-tb;text-anchor:start;display:inline;fill:#000000;fill-opacity:1;stroke:none;enable-background:new"
         sodipodi:linespacing="125%"
         inkscape:label="icon-name"
         id="icon-name"><tspan
           style="font-style:normal;font-variant:normal;font-weight:bold;font-stretch:normal;font-size:18px;font-family:'DejaVu Sans';-inkscape-font-specification:'DejaVu Sans Bold'"
           y="337.74512"
           x="142.48828"
           sodipodi:role="line"
           id="tspan3937">five-or-more</tspan></text>
      <rect
         style="display:inline;overflow:visible;visibility:visible;fill:#d3d7cf;fill-opacity:1;fill-rule:nonzero;stroke:none;stroke-width:2;marker:none;enable-background:accumulate"
         id="rect16x16"
         width="16"
         height="16"
         x="-32"
         y="268"
         inkscape:label="16x16"
         transform="scale(-1,1)" />
      <rect
         style="display:inline;overflow:visible;visibility:visible;fill:#d3d7cf;fill-opacity:1;fill-rule:nonzero;stroke:none;stroke-width:2;marker:none;enable-background:accumulate"
         id="rect24x24"
         width="24"
         height="24"
         x="-76"
         y="260"
         inkscape:label="24x24"
         transform="scale(-1,1)" />
      <rect
         style="display:inline;overflow:visible;visibility:visible;fill:#d3d7cf;fill-opacity:1;fill-rule:nonzero;stroke:none;stroke-width:2;marker:none;enable-background:accumulate"
         id="rect32x32"
         width="32"
         height="32"
         x="-128"
         y="252"
         inkscape:label="32x32"
         transform="scale(-1,1)" />
      <rect
         inkscape:label="48x48"
         y="236"
         x="-192"
         height="48"
         width="48"
         id="rect48x48"
         style="display:inline;overflow:visible;visibility:visible;fill:#d3d7cf;fill-opacity:1;fill-rule:nonzero;stroke:none;stroke-width:2;marker:none;enable-background:accumulate"
         transform="scale(-1,1)" />
      <rect
         style="display:inline;overflow:visible;visibility:visible;fill:#d3d7cf;fill-opacity:1;fill-rule:nonzero;stroke:none;stroke-width:2;marker:none;enable-background:accumulate"
         id="rect3951"
         width="512"
         height="512"
         x="-720"
         y="-228"
         inkscape:label="48x48"
         transform="scale(-1,1)" />
    </g>
    <g
       inkscape:groupmode="layer"
       id="layer6"
       inkscape:label="Symbols"
       style="display:inline">
      <path
         inkscape:connector-curvature="0"
         id="path4579"
         d="m 102,255 a 3,3 0 0 0 -3,3 3,3 0 0 0 3,3 3,3 0 0 0 3,-3 3,3 0 0 0 -3,-3 z m 7,0 a 3,3 0 0 0 -3,3 3,3 0 0 0 3,3 3,3 0 0 0 3,-3 3,3 0 0 0 -3,-3 z m 14,0 a 3,3 0 0 0 -3,3 3,3 0 0 0 3,3 3,3 0 0 0 3,-3 3,3 0 0 0 -3,-3 z m -14,7 a 3,3 0 0 0 -3,3 3,3 0 0 0 3,3 3,3 0 0 0 3,-3 3,3 0 0 0 -3,-3 z m 7,0 a 3,3 0 0 0 -3,3 3,3 0 0 0 3,3 3,3 0 0 0 3,-3 3,3 0 0 0 -3,-3 z m -7,7 a 3,3 0 0 0 -3,3 3,3 0 0 0 3,3 3,3 0 0 0 3,-3 3,3 0 0 0 -3,-3 z m 14,0 a 3,3 0 0 0 -3,3 3,3 0 0 0 3,3 3,3 0 0 0 3,-3 3,3 0 0 0 -3,-3 z m -21,7 a 3,3 0 0 0 -3,3 3,3 0 0 0 3,3 3,3 0 0 0 3,-3 3,3 0 0 0 -3,-3 z m 14,0 a 3,3 0 0 0 -3,3 3,3 0 0 0 3,3 3,3 0 0 0 3,-3 3,3 0 0 0 -3,-3 z m 7,0 a 3,3 0 0 0 -3,3 3,3 0 0 0 3,3 3,3 0 0 0 3,-3 3,3 0 0 0 -3,-3 z"
         style="display:inline;opacity:0.2;fill:#000000;fill-opacity:1;stroke:none;stroke-width:16;stroke-linecap:round;stroke-miterlimit:4;stroke-dasharray:none;stroke-opacity:1;enable-background:new" />
      <path
         style="display:inline;opacity:0.2;fill:#000000;fill-opacity:1;stroke:none;stroke-width:16;stroke-linecap:round;stroke-miterlimit:4;stroke-dasharray:none;stroke-opacity:1;enable-background:new"
         d="m 56,263 a 2,2 0 0 0 -2,2 2,2 0 0 0 2,2 2,2 0 0 0 2,-2 2,2 0 0 0 -2,-2 z m 5,0 a 2,2 0 0 0 -2,2 2,2 0 0 0 2,2 2,2 0 0 0 2,-2 2,2 0 0 0 -2,-2 z m 10,0 a 2,2 0 0 0 -2,2 2,2 0 0 0 2,2 2,2 0 0 0 2,-2 2,2 0 0 0 -2,-2 z m -10,5 a 2,2 0 0 0 -2,2 2,2 0 0 0 2,2 2,2 0 0 0 2,-2 2,2 0 0 0 -2,-2 z m 5,0 a 2,2 0 0 0 -2,2 2,2 0 0 0 2,2 2,2 0 0 0 2,-2 2,2 0 0 0 -2,-2 z m -5,5 a 2,2 0 0 0 -2,2 2,2 0 0 0 2,2 2,2 0 0 0 2,-2 2,2 0 0 0 -2,-2 z m 10,0 a 2,2 0 0 0 -2,2 2,2 0 0 0 2,2 2,2 0 0 0 2,-2 2,2 0 0 0 -2,-2 z m -15,5 a 2,2 0 0 0 -2,2 2,2 0 0 0 2,2 2,2 0 0 0 2,-2 2,2 0 0 0 -2,-2 z m 10,0 a 2,2 0 0 0 -2,2 2,2 0 0 0 2,2 2,2 0 0 0 2,-2 2,2 0 0 0 -2,-2 z m 5,0 a 2,2 0 0 0 -2,2 2,2 0 0 0 2,2 2,2 0 0 0 2,-2 2,2 0 0 0 -2,-2 z"
         id="circle4447"
         inkscape:connector-curvature="0" />
      <path
         id="path4335"
         d="m 284,-198 a 48,48 0 0 0 -48,48 48,48 0 0 0 48,48 48,48 0 0 0 48,-48 48,48 0 0 0 -48,-48 z m 120,0 a 48,48 0 0 0 -48,48 48,48 0 0 0 48,48 48,48 0 0 0 48,-48 48,48 0 0 0 -48,-48 z m 240,0 a 48,48 0 0 0 -48,48 48,48 0 0 0 48,48 48,48 0 0 0 48,-48 48,48 0 0 0 -48,-48 z M 404,-78 a 48,48 0 0 0 -48,48 48,48 0 0 0 48,48 48,48 0 0 0 48,-48 48,48 0 0 0 -48,-48 z m 120,0 a 48,48 0 0 0 -48,48 48,48 0 0 0 48,48 48,48 0 0 0 48,-48 48,48 0 0 0 -48,-48 z M 404,42 a 48,48 0 0 0 -48,48 48,48 0 0 0 48,48 48,48 0 0 0 48,-48 48,48 0 0 0 -48,-48 z m 240,0 a 48,48 0 0 0 -48,48 48,48 0 0 0 48,48 48,48 0 0 0 48,-48 48,48 0 0 0 -48,-48 z M 284,162 a 48,48 0 0 0 -48,48 48,48 0 0 0 48,48 48,48 0 0 0 48,-48 48,48 0 0 0 -48,-48 z m 240,0 a 48,48 0 0 0 -48,48 48,48 0 0 0 48,48 48,48 0 0 0 48,-48 48,48 0 0 0 -48,-48 z m 120,0 a 48,48 0 0 0 -48,48 48,48 0 0 0 48,48 48,48 0 0 0 48,-48 48,48 0 0 0 -48,-48 z"
         style="display:inline;opacity:0.2;fill:#000000;fill-opacity:1;stroke:none;stroke-width:16;stroke-linecap:round;stroke-miterlimit:4;stroke-dasharray:none;stroke-opacity:1;enable-background:new;filter:url(#filter4337)"
         inkscape:connector-curvature="0" />
      <path
         inkscape:connector-curvature="0"
         style="display:inline;opacity:0.2;fill:#000000;fill-opacity:1;stroke:none;stroke-width:16;stroke-linecap:round;stroke-miterlimit:4;stroke-dasharray:none;stroke-opacity:1;enable-background:new"
         d="m 284,-198 a 48,48 0 0 0 -48,48 48,48 0 0 0 48,48 48,48 0 0 0 48,-48 48,48 0 0 0 -48,-48 z m 120,0 a 48,48 0 0 0 -48,48 48,48 0 0 0 48,48 48,48 0 0 0 48,-48 48,48 0 0 0 -48,-48 z m 240,0 a 48,48 0 0 0 -48,48 48,48 0 0 0 48,48 48,48 0 0 0 48,-48 48,48 0 0 0 -48,-48 z M 404,-78 a 48,48 0 0 0 -48,48 48,48 0 0 0 48,48 48,48 0 0 0 48,-48 48,48 0 0 0 -48,-48 z m 120,0 a 48,48 0 0 0 -48,48 48,48 0 0 0 48,48 48,48 0 0 0 48,-48 48,48 0 0 0 -48,-48 z M 404,42 a 48,48 0 0 0 -48,48 48,48 0 0 0 48,48 48,48 0 0 0 48,-48 48,48 0 0 0 -48,-48 z m 240,0 a 48,48 0 0 0 -48,48 48,48 0 0 0 48,48 48,48 0 0 0 48,-48 48,48 0 0 0 -48,-48 z M 284,162 a 48,48 0 0 0 -48,48 48,48 0 0 0 48,48 48,48 0 0 0 48,-48 48,48 0 0 0 -48,-48 z m 240,0 a 48,48 0 0 0 -48,48 48,48 0 0 0 48,48 48,48 0 0 0 48,-48 48,48 0 0 0 -48,-48 z m 120,0 a 48,48 0 0 0 -48,48 48,48 0 0 0 48,48 48,48 0 0 0 48,-48 48,48 0 0 0 -48,-48 z"
         id="path4333" />
      <path
         inkscape:connector-curvature="0"
         style="display:inline;opacity:0.2;fill:#000000;fill-opacity:1;stroke:none;stroke-width:16;stroke-linecap:round;stroke-miterlimit:4;stroke-dasharray:none;stroke-opacity:1;enable-background:new"
         d="m 153,242 a 4,4 0 0 0 -4,4 4,4 0 0 0 4,4 4,4 0 0 0 4,-4 4,4 0 0 0 -4,-4 z m 10,0 a 4,4 0 0 0 -4,4 4,4 0 0 0 4,4 4,4 0 0 0 4,-4 4,4 0 0 0 -4,-4 z m 20,0 a 4,4 0 0 0 -4,4 4,4 0 0 0 4,4 4,4 0 0 0 4,-4 4,4 0 0 0 -4,-4 z m -20,10 a 4,4 0 0 0 -4,4 4,4 0 0 0 4,4 4,4 0 0 0 4,-4 4,4 0 0 0 -4,-4 z m 10,0 a 4,4 0 0 0 -4,4 4,4 0 0 0 4,4 4,4 0 0 0 4,-4 4,4 0 0 0 -4,-4 z m -10,10 a 4,4 0 0 0 -4,4 4,4 0 0 0 4,4 4,4 0 0 0 4,-4 4,4 0 0 0 -4,-4 z m 20,0 a 4,4 0 0 0 -4,4 4,4 0 0 0 4,4 4,4 0 0 0 4,-4 4,4 0 0 0 -4,-4 z m -30,10 a 4,4 0 0 0 -4,4 4,4 0 0 0 4,4 4,4 0 0 0 4,-4 4,4 0 0 0 -4,-4 z m 20,0 a 4,4 0 0 0 -4,4 4,4 0 0 0 4,4 4,4 0 0 0 4,-4 4,4 0 0 0 -4,-4 z m 10,0 a 4,4 0 0 0 -4,4 4,4 0 0 0 4,4 4,4 0 0 0 4,-4 4,4 0 0 0 -4,-4 z"
         id="path4256" />
      <circle
         style="display:inline;opacity:1;fill:#4caf50;fill-opacity:1;stroke:none;stroke-width:16;stroke-linecap:round;stroke-miterlimit:4;stroke-dasharray:none;stroke-opacity:1;enable-background:new"
         id="path4147"
         cx="153"
         cy="245"
         r="4" />
      <circle
         r="4"
         cy="245"
         cx="163"
         id="circle4149"
         style="display:inline;opacity:1;fill:#f44336;fill-opacity:1;stroke:none;stroke-width:16;stroke-linecap:round;stroke-miterlimit:4;stroke-dasharray:none;stroke-opacity:1;enable-background:new" />
      <circle
         r="4"
         cy="245"
         cx="183"
         id="circle4153"
         style="display:inline;opacity:1;fill:#3f51b5;fill-opacity:1;stroke:none;stroke-width:16;stroke-linecap:round;stroke-miterlimit:4;stroke-dasharray:none;stroke-opacity:1;enable-background:new" />
      <circle
         style="display:inline;opacity:1;fill:#4caf50;fill-opacity:1;stroke:none;stroke-width:16;stroke-linecap:round;stroke-miterlimit:4;stroke-dasharray:none;stroke-opacity:1;enable-background:new"
         id="circle4157"
         cx="163"
         cy="255"
         r="4" />
      <circle
         r="4"
         cy="255"
         cx="173"
         id="circle4159"
         style="display:inline;opacity:1;fill:#3f51b5;fill-opacity:1;stroke:none;stroke-width:16;stroke-linecap:round;stroke-miterlimit:4;stroke-dasharray:none;stroke-opacity:1;enable-background:new" />
      <circle
         r="4"
         cy="265"
         cx="163"
         id="circle4165"
         style="display:inline;opacity:1;fill:#3f51b5;fill-opacity:1;stroke:none;stroke-width:16;stroke-linecap:round;stroke-miterlimit:4;stroke-dasharray:none;stroke-opacity:1;enable-background:new" />
      <circle
         r="4"
         cy="265"
         cx="183"
         id="circle4169"
         style="display:inline;opacity:1;fill:#f44336;fill-opacity:1;stroke:none;stroke-width:16;stroke-linecap:round;stroke-miterlimit:4;stroke-dasharray:none;stroke-opacity:1;enable-background:new" />
      <circle
         r="4"
         cy="275"
         cx="153"
         id="circle4171"
         style="display:inline;opacity:1;fill:#3f51b5;fill-opacity:1;stroke:none;stroke-width:16;stroke-linecap:round;stroke-miterlimit:4;stroke-dasharray:none;stroke-opacity:1;enable-background:new" />
      <circle
         r="4"
         cy="275"
         cx="173"
         id="circle4175"
         style="display:inline;opacity:1;fill:#3f51b5;fill-opacity:1;stroke:none;stroke-width:16;stroke-linecap:round;stroke-miterlimit:4;stroke-dasharray:none;stroke-opacity:1;enable-background:new" />
      <circle
         style="display:inline;opacity:1;fill:#4caf50;fill-opacity:1;stroke:none;stroke-width:16;stroke-linecap:round;stroke-miterlimit:4;stroke-dasharray:none;stroke-opacity:1;enable-background:new"
         id="circle4177"
         cx="183"
         cy="275"
         r="4" />
      <circle
         r="2"
         cy="264"
         cx="56"
         id="circle4203"
         style="display:inline;opacity:1;fill:#4caf50;fill-opacity:1;stroke:none;stroke-width:16;stroke-linecap:round;stroke-miterlimit:4;stroke-dasharray:none;stroke-opacity:1;enable-background:new" />
      <circle
         style="display:inline;opacity:1;fill:#f44336;fill-opacity:1;stroke:none;stroke-width:16;stroke-linecap:round;stroke-miterlimit:4;stroke-dasharray:none;stroke-opacity:1;enable-background:new"
         id="circle4205"
         cx="61"
         cy="264"
         r="2" />
      <circle
         style="display:inline;opacity:1;fill:#3f51b5;fill-opacity:1;stroke:none;stroke-width:16;stroke-linecap:round;stroke-miterlimit:4;stroke-dasharray:none;stroke-opacity:1;enable-background:new"
         id="circle4207"
         cx="71"
         cy="264"
         r="2" />
      <circle
         r="2"
         cy="269"
         cx="61"
         id="circle4209"
         style="display:inline;opacity:1;fill:#4caf50;fill-opacity:1;stroke:none;stroke-width:16;stroke-linecap:round;stroke-miterlimit:4;stroke-dasharray:none;stroke-opacity:1;enable-background:new" />
      <circle
         style="display:inline;opacity:1;fill:#3f51b5;fill-opacity:1;stroke:none;stroke-width:16;stroke-linecap:round;stroke-miterlimit:4;stroke-dasharray:none;stroke-opacity:1;enable-background:new"
         id="circle4211"
         cx="66"
         cy="269"
         r="2" />
      <circle
         style="display:inline;opacity:1;fill:#3f51b5;fill-opacity:1;stroke:none;stroke-width:16;stroke-linecap:round;stroke-miterlimit:4;stroke-dasharray:none;stroke-opacity:1;enable-background:new"
         id="circle4213"
         cx="61"
         cy="274"
         r="2" />
      <circle
         style="display:inline;opacity:1;fill:#f44336;fill-opacity:1;stroke:none;stroke-width:16;stroke-linecap:round;stroke-miterlimit:4;stroke-dasharray:none;stroke-opacity:1;enable-background:new"
         id="circle4215"
         cx="71"
         cy="274"
         r="2" />
      <circle
         style="display:inline;opacity:1;fill:#3f51b5;fill-opacity:1;stroke:none;stroke-width:16;stroke-linecap:round;stroke-miterlimit:4;stroke-dasharray:none;stroke-opacity:1;enable-background:new"
         id="circle4217"
         cx="56"
         cy="279"
         r="2" />
      <circle
         style="display:inline;opacity:1;fill:#3f51b5;fill-opacity:1;stroke:none;stroke-width:16;stroke-linecap:round;stroke-miterlimit:4;stroke-dasharray:none;stroke-opacity:1;enable-background:new"
         id="circle4219"
         cx="66"
         cy="279"
         r="2" />
      <circle
         r="2"
         cy="279"
         cx="71"
         id="circle4221"
         style="display:inline;opacity:1;fill:#4caf50;fill-opacity:1;stroke:none;stroke-width:16;stroke-linecap:round;stroke-miterlimit:4;stroke-dasharray:none;stroke-opacity:1;enable-background:new" />
      <path
         style="display:inline;opacity:0.1;fill:#ffffff;fill-opacity:1;stroke:none;stroke-width:16;stroke-linecap:round;stroke-miterlimit:4;stroke-dasharray:none;stroke-opacity:1;enable-background:new"
         d="M 153 485 A 4 4 0 0 0 149 489 A 4 4 0 0 0 149.03516 489.50586 A 4 4 0 0 1 153 486 A 4 4 0 0 1 156.96484 489.49414 A 4 4 0 0 0 157 489 A 4 4 0 0 0 153 485 z M 163 485 A 4 4 0 0 0 159 489 A 4 4 0 0 0 159.03516 489.50586 A 4 4 0 0 1 163 486 A 4 4 0 0 1 166.96484 489.49414 A 4 4 0 0 0 167 489 A 4 4 0 0 0 163 485 z M 183 485 A 4 4 0 0 0 179 489 A 4 4 0 0 0 179.03516 489.50586 A 4 4 0 0 1 183 486 A 4 4 0 0 1 186.96484 489.49414 A 4 4 0 0 0 187 489 A 4 4 0 0 0 183 485 z M 163 495 A 4 4 0 0 0 159 499 A 4 4 0 0 0 159.03516 499.50586 A 4 4 0 0 1 163 496 A 4 4 0 0 1 166.96484 499.49414 A 4 4 0 0 0 167 499 A 4 4 0 0 0 163 495 z M 173 495 A 4 4 0 0 0 169 499 A 4 4 0 0 0 169.03516 499.50586 A 4 4 0 0 1 173 496 A 4 4 0 0 1 176.96484 499.49414 A 4 4 0 0 0 177 499 A 4 4 0 0 0 173 495 z M 163 505 A 4 4 0 0 0 159 509 A 4 4 0 0 0 159.03516 509.50586 A 4 4 0 0 1 163 506 A 4 4 0 0 1 166.96484 509.49414 A 4 4 0 0 0 167 509 A 4 4 0 0 0 163 505 z M 183 505 A 4 4 0 0 0 179 509 A 4 4 0 0 0 179.03516 509.50586 A 4 4 0 0 1 183 506 A 4 4 0 0 1 186.96484 509.49414 A 4 4 0 0 0 187 509 A 4 4 0 0 0 183 505 z M 153 515 A 4 4 0 0 0 149 519 A 4 4 0 0 0 149.03516 519.50586 A 4 4 0 0 1 153 516 A 4 4 0 0 1 156.96484 519.49414 A 4 4 0 0 0 157 519 A 4 4 0 0 0 153 515 z M 173 515 A 4 4 0 0 0 169 519 A 4 4 0 0 0 169.03516 519.50586 A 4 4 0 0 1 173 516 A 4 4 0 0 1 176.96484 519.49414 A 4 4 0 0 0 177 519 A 4 4 0 0 0 173 515 z M 183 515 A 4 4 0 0 0 179 519 A 4 4 0 0 0 179.03516 519.50586 A 4 4 0 0 1 183 516 A 4 4 0 0 1 186.96484 519.49414 A 4 4 0 0 0 187 519 A 4 4 0 0 0 183 515 z "
         transform="translate(0,-244)"
         id="circle4233" />
      <circle
         style="display:inline;opacity:1;fill:#4caf50;fill-opacity:1;stroke:none;stroke-width:16;stroke-linecap:round;stroke-miterlimit:4;stroke-dasharray:none;stroke-opacity:1;enable-background:new"
         id="circle4280"
         cx="284"
         cy="-152"
         r="48" />
      <circle
         r="48"
         cy="-152"
         cx="404"
         id="circle4282"
         style="display:inline;opacity:1;fill:#f44336;fill-opacity:1;stroke:none;stroke-width:16;stroke-linecap:round;stroke-miterlimit:4;stroke-dasharray:none;stroke-opacity:1;enable-background:new" />
      <circle
         r="48"
         cy="-152"
         cx="644"
         id="circle4284"
         style="display:inline;opacity:1;fill:#3f51b5;fill-opacity:1;stroke:none;stroke-width:16;stroke-linecap:round;stroke-miterlimit:4;stroke-dasharray:none;stroke-opacity:1;enable-background:new" />
      <circle
         style="display:inline;opacity:1;fill:#4caf50;fill-opacity:1;stroke:none;stroke-width:16;stroke-linecap:round;stroke-miterlimit:4;stroke-dasharray:none;stroke-opacity:1;enable-background:new"
         id="circle4286"
         cx="404"
         cy="-32"
         r="48" />
      <circle
         r="48"
         cy="-32"
         cx="524"
         id="circle4288"
         style="display:inline;opacity:1;fill:#3f51b5;fill-opacity:1;stroke:none;stroke-width:16;stroke-linecap:round;stroke-miterlimit:4;stroke-dasharray:none;stroke-opacity:1;enable-background:new" />
      <circle
         r="48"
         cy="88"
         cx="404"
         id="circle4290"
         style="display:inline;opacity:1;fill:#3f51b5;fill-opacity:1;stroke:none;stroke-width:16;stroke-linecap:round;stroke-miterlimit:4;stroke-dasharray:none;stroke-opacity:1;enable-background:new" />
      <circle
         r="48"
         cy="88"
         cx="644"
         id="circle4292"
         style="display:inline;opacity:1;fill:#f44336;fill-opacity:1;stroke:none;stroke-width:16;stroke-linecap:round;stroke-miterlimit:4;stroke-dasharray:none;stroke-opacity:1;enable-background:new" />
      <circle
         r="48"
         cy="208"
         cx="284"
         id="circle4294"
         style="display:inline;opacity:1;fill:#3f51b5;fill-opacity:1;stroke:none;stroke-width:16;stroke-linecap:round;stroke-miterlimit:4;stroke-dasharray:none;stroke-opacity:1;enable-background:new" />
      <circle
         r="48"
         cy="208"
         cx="524"
         id="circle4296"
         style="display:inline;opacity:1;fill:#3f51b5;fill-opacity:1;stroke:none;stroke-width:16;stroke-linecap:round;stroke-miterlimit:4;stroke-dasharray:none;stroke-opacity:1;enable-background:new" />
      <circle
         style="display:inline;opacity:1;fill:#4caf50;fill-opacity:1;stroke:none;stroke-width:16;stroke-linecap:round;stroke-miterlimit:4;stroke-dasharray:none;stroke-opacity:1;enable-background:new"
         id="circle4298"
         cx="644"
         cy="208"
         r="48" />
      <path
         style="display:inline;opacity:0.2;fill:#ffffff;fill-opacity:1;stroke:none;stroke-width:16;stroke-linecap:round;stroke-miterlimit:4;stroke-dasharray:none;stroke-opacity:1;enable-background:new"
         d="M 284 44 A 48 48 0 0 0 236 92 A 48 48 0 0 0 236.04102 92.832031 A 48 48 0 0 1 284 46 A 48 48 0 0 1 331.95898 93.167969 A 48 48 0 0 0 332 92 A 48 48 0 0 0 284 44 z M 404 44 A 48 48 0 0 0 356 92 A 48 48 0 0 0 356.04102 92.832031 A 48 48 0 0 1 404 46 A 48 48 0 0 1 451.95898 93.167969 A 48 48 0 0 0 452 92 A 48 48 0 0 0 404 44 z M 644 44 A 48 48 0 0 0 596 92 A 48 48 0 0 0 596.04102 92.832031 A 48 48 0 0 1 644 46 A 48 48 0 0 1 691.95898 93.167969 A 48 48 0 0 0 692 92 A 48 48 0 0 0 644 44 z M 404 164 A 48 48 0 0 0 356 212 A 48 48 0 0 0 356.04102 212.83203 A 48 48 0 0 1 404 166 A 48 48 0 0 1 451.95898 213.16797 A 48 48 0 0 0 452 212 A 48 48 0 0 0 404 164 z M 524 164 A 48 48 0 0 0 476 212 A 48 48 0 0 0 476.04102 212.83203 A 48 48 0 0 1 524 166 A 48 48 0 0 1 571.95898 213.16797 A 48 48 0 0 0 572 212 A 48 48 0 0 0 524 164 z M 404 284 A 48 48 0 0 0 356 332 A 48 48 0 0 0 356.04102 332.83203 A 48 48 0 0 1 404 286 A 48 48 0 0 1 451.95898 333.16797 A 48 48 0 0 0 452 332 A 48 48 0 0 0 404 284 z M 644 284 A 48 48 0 0 0 596 332 A 48 48 0 0 0 596.04102 332.83203 A 48 48 0 0 1 644 286 A 48 48 0 0 1 691.95898 333.16797 A 48 48 0 0 0 692 332 A 48 48 0 0 0 644 284 z M 284 404 A 48 48 0 0 0 236 452 A 48 48 0 0 0 236.04102 452.83203 A 48 48 0 0 1 284 406 A 48 48 0 0 1 331.95898 453.16797 A 48 48 0 0 0 332 452 A 48 48 0 0 0 284 404 z M 524 404 A 48 48 0 0 0 476 452 A 48 48 0 0 0 476.04102 452.83203 A 48 48 0 0 1 524 406 A 48 48 0 0 1 571.95898 453.16797 A 48 48 0 0 0 572 452 A 48 48 0 0 0 524 404 z M 644 404 A 48 48 0 0 0 596 452 A 48 48 0 0 0 596.04102 452.83203 A 48 48 0 0 1 644 406 A 48 48 0 0 1 691.95898 453.16797 A 48 48 0 0 0 692 452 A 48 48 0 0 0 644 404 z "
         transform="translate(0,-244)"
         id="circle4310" />
      <g
         id="g4401"
         transform="translate(-1,1)">
        <circle
           r="1"
           cy="271"
           cx="20"
           id="circle4371"
           style="display:inline;opacity:1;fill:#4caf50;fill-opacity:1;stroke:none;stroke-width:16;stroke-linecap:round;stroke-miterlimit:4;stroke-dasharray:none;stroke-opacity:1;enable-background:new" />
        <circle
           style="display:inline;opacity:1;fill:#f44336;fill-opacity:1;stroke:none;stroke-width:16;stroke-linecap:round;stroke-miterlimit:4;stroke-dasharray:none;stroke-opacity:1;enable-background:new"
           id="circle4373"
           cx="23"
           cy="271"
           r="1" />
        <circle
           style="display:inline;opacity:1;fill:#3f51b5;fill-opacity:1;stroke:none;stroke-width:16;stroke-linecap:round;stroke-miterlimit:4;stroke-dasharray:none;stroke-opacity:1;enable-background:new"
           id="circle4375"
           cx="29"
           cy="271"
           r="1" />
        <circle
           r="1"
           cy="274"
           cx="23"
           id="circle4377"
           style="display:inline;opacity:1;fill:#4caf50;fill-opacity:1;stroke:none;stroke-width:16;stroke-linecap:round;stroke-miterlimit:4;stroke-dasharray:none;stroke-opacity:1;enable-background:new" />
        <circle
           style="display:inline;opacity:1;fill:#3f51b5;fill-opacity:1;stroke:none;stroke-width:16;stroke-linecap:round;stroke-miterlimit:4;stroke-dasharray:none;stroke-opacity:1;enable-background:new"
           id="circle4379"
           cx="26"
           cy="274"
           r="1" />
        <circle
           style="display:inline;opacity:1;fill:#3f51b5;fill-opacity:1;stroke:none;stroke-width:16;stroke-linecap:round;stroke-miterlimit:4;stroke-dasharray:none;stroke-opacity:1;enable-background:new"
           id="circle4381"
           cx="23"
           cy="277"
           r="1" />
        <circle
           style="display:inline;opacity:1;fill:#f44336;fill-opacity:1;stroke:none;stroke-width:16;stroke-linecap:round;stroke-miterlimit:4;stroke-dasharray:none;stroke-opacity:1;enable-background:new"
           id="circle4383"
           cx="29"
           cy="277"
           r="1" />
        <circle
           style="display:inline;opacity:1;fill:#3f51b5;fill-opacity:1;stroke:none;stroke-width:16;stroke-linecap:round;stroke-miterlimit:4;stroke-dasharray:none;stroke-opacity:1;enable-background:new"
           id="circle4385"
           cx="20"
           cy="280"
           r="1" />
        <circle
           style="display:inline;opacity:1;fill:#3f51b5;fill-opacity:1;stroke:none;stroke-width:16;stroke-linecap:round;stroke-miterlimit:4;stroke-dasharray:none;stroke-opacity:1;enable-background:new"
           id="circle4387"
           cx="26"
           cy="280"
           r="1" />
        <circle
           r="1"
           cy="280"
           cx="29"
           id="circle4389"
           style="display:inline;opacity:1;fill:#4caf50;fill-opacity:1;stroke:none;stroke-width:16;stroke-linecap:round;stroke-miterlimit:4;stroke-dasharray:none;stroke-opacity:1;enable-background:new" />
      </g>
      <path
         style="display:inline;opacity:0.1;fill:#ffffff;fill-opacity:1;stroke:none;stroke-width:16;stroke-linecap:round;stroke-miterlimit:4;stroke-dasharray:none;stroke-opacity:1;enable-background:new"
         d="M 56 506 A 2 2 0 0 0 54 508 A 2 2 0 0 0 54.064453 508.49609 A 2 2 0 0 1 56 507 A 2 2 0 0 1 57.935547 508.50391 A 2 2 0 0 0 58 508 A 2 2 0 0 0 56 506 z M 61 506 A 2 2 0 0 0 59 508 A 2 2 0 0 0 59.064453 508.49609 A 2 2 0 0 1 61 507 A 2 2 0 0 1 62.935547 508.50391 A 2 2 0 0 0 63 508 A 2 2 0 0 0 61 506 z M 71 506 A 2 2 0 0 0 69 508 A 2 2 0 0 0 69.064453 508.49609 A 2 2 0 0 1 71 507 A 2 2 0 0 1 72.935547 508.50391 A 2 2 0 0 0 73 508 A 2 2 0 0 0 71 506 z M 61 511 A 2 2 0 0 0 59 513 A 2 2 0 0 0 59.064453 513.49609 A 2 2 0 0 1 61 512 A 2 2 0 0 1 62.935547 513.50391 A 2 2 0 0 0 63 513 A 2 2 0 0 0 61 511 z M 66 511 A 2 2 0 0 0 64 513 A 2 2 0 0 0 64.064453 513.49609 A 2 2 0 0 1 66 512 A 2 2 0 0 1 67.935547 513.50391 A 2 2 0 0 0 68 513 A 2 2 0 0 0 66 511 z M 61 516 A 2 2 0 0 0 59 518 A 2 2 0 0 0 59.064453 518.49609 A 2 2 0 0 1 61 517 A 2 2 0 0 1 62.935547 518.50391 A 2 2 0 0 0 63 518 A 2 2 0 0 0 61 516 z M 71 516 A 2 2 0 0 0 69 518 A 2 2 0 0 0 69.064453 518.49609 A 2 2 0 0 1 71 517 A 2 2 0 0 1 72.935547 518.50391 A 2 2 0 0 0 73 518 A 2 2 0 0 0 71 516 z M 56 521 A 2 2 0 0 0 54 523 A 2 2 0 0 0 54.064453 523.49609 A 2 2 0 0 1 56 522 A 2 2 0 0 1 57.935547 523.50391 A 2 2 0 0 0 58 523 A 2 2 0 0 0 56 521 z M 66 521 A 2 2 0 0 0 64 523 A 2 2 0 0 0 64.064453 523.49609 A 2 2 0 0 1 66 522 A 2 2 0 0 1 67.935547 523.50391 A 2 2 0 0 0 68 523 A 2 2 0 0 0 66 521 z M 71 521 A 2 2 0 0 0 69 523 A 2 2 0 0 0 69.064453 523.49609 A 2 2 0 0 1 71 522 A 2 2 0 0 1 72.935547 523.50391 A 2 2 0 0 0 73 523 A 2 2 0 0 0 71 521 z "
         transform="translate(0,-244)"
         id="circle4423" />
      <g
         id="g4532">
        <circle
           r="3"
           cy="257"
           cx="102"
           id="circle4490"
           style="display:inline;opacity:1;fill:#4caf50;fill-opacity:1;stroke:none;stroke-width:16;stroke-linecap:round;stroke-miterlimit:4;stroke-dasharray:none;stroke-opacity:1;enable-background:new" />
        <circle
           style="display:inline;opacity:1;fill:#f44336;fill-opacity:1;stroke:none;stroke-width:16;stroke-linecap:round;stroke-miterlimit:4;stroke-dasharray:none;stroke-opacity:1;enable-background:new"
           id="circle4492"
           cx="109"
           cy="257"
           r="3" />
        <circle
           style="display:inline;opacity:1;fill:#3f51b5;fill-opacity:1;stroke:none;stroke-width:16;stroke-linecap:round;stroke-miterlimit:4;stroke-dasharray:none;stroke-opacity:1;enable-background:new"
           id="circle4494"
           cx="123"
           cy="257"
           r="3" />
        <circle
           r="3"
           cy="264"
           cx="109"
           id="circle4496"
           style="display:inline;opacity:1;fill:#4caf50;fill-opacity:1;stroke:none;stroke-width:16;stroke-linecap:round;stroke-miterlimit:4;stroke-dasharray:none;stroke-opacity:1;enable-background:new" />
        <circle
           style="display:inline;opacity:1;fill:#3f51b5;fill-opacity:1;stroke:none;stroke-width:16;stroke-linecap:round;stroke-miterlimit:4;stroke-dasharray:none;stroke-opacity:1;enable-background:new"
           id="circle4498"
           cx="116"
           cy="264"
           r="3" />
        <circle
           style="display:inline;opacity:1;fill:#3f51b5;fill-opacity:1;stroke:none;stroke-width:16;stroke-linecap:round;stroke-miterlimit:4;stroke-dasharray:none;stroke-opacity:1;enable-background:new"
           id="circle4500"
           cx="109"
           cy="271"
           r="3" />
        <circle
           style="display:inline;opacity:1;fill:#f44336;fill-opacity:1;stroke:none;stroke-width:16;stroke-linecap:round;stroke-miterlimit:4;stroke-dasharray:none;stroke-opacity:1;enable-background:new"
           id="circle4502"
           cx="123"
           cy="271"
           r="3" />
        <circle
           style="display:inline;opacity:1;fill:#3f51b5;fill-opacity:1;stroke:none;stroke-width:16;stroke-linecap:round;stroke-miterlimit:4;stroke-dasharray:none;stroke-opacity:1;enable-background:new"
           id="circle4504"
           cx="102"
           cy="278"
           r="3" />
        <circle
           style="display:inline;opacity:1;fill:#3f51b5;fill-opacity:1;stroke:none;stroke-width:16;stroke-linecap:round;stroke-miterlimit:4;stroke-dasharray:none;stroke-opacity:1;enable-background:new"
           id="circle4506"
           cx="116"
           cy="278"
           r="3" />
        <circle
           r="3"
           cy="278"
           cx="123"
           id="circle4508"
           style="display:inline;opacity:1;fill:#4caf50;fill-opacity:1;stroke:none;stroke-width:16;stroke-linecap:round;stroke-miterlimit:4;stroke-dasharray:none;stroke-opacity:1;enable-background:new" />
      </g>
      <path
         style="display:inline;opacity:0.1;fill:#ffffff;fill-opacity:1;stroke:none;stroke-width:16;stroke-linecap:round;stroke-miterlimit:4;stroke-dasharray:none;stroke-opacity:1;enable-background:new"
         d="M 102 498 A 3 3 0 0 0 99 501 A 3 3 0 0 0 99.042969 501.48633 A 3 3 0 0 1 102 499 A 3 3 0 0 1 104.95703 501.51367 A 3 3 0 0 0 105 501 A 3 3 0 0 0 102 498 z M 109 498 A 3 3 0 0 0 106 501 A 3 3 0 0 0 106.04297 501.48633 A 3 3 0 0 1 109 499 A 3 3 0 0 1 111.95703 501.51367 A 3 3 0 0 0 112 501 A 3 3 0 0 0 109 498 z M 123 498 A 3 3 0 0 0 120 501 A 3 3 0 0 0 120.04297 501.48633 A 3 3 0 0 1 123 499 A 3 3 0 0 1 125.95703 501.51367 A 3 3 0 0 0 126 501 A 3 3 0 0 0 123 498 z M 109 505 A 3 3 0 0 0 106 508 A 3 3 0 0 0 106.04297 508.48633 A 3 3 0 0 1 109 506 A 3 3 0 0 1 111.95703 508.51367 A 3 3 0 0 0 112 508 A 3 3 0 0 0 109 505 z M 116 505 A 3 3 0 0 0 113 508 A 3 3 0 0 0 113.04297 508.48633 A 3 3 0 0 1 116 506 A 3 3 0 0 1 118.95703 508.51367 A 3 3 0 0 0 119 508 A 3 3 0 0 0 116 505 z M 109 512 A 3 3 0 0 0 106 515 A 3 3 0 0 0 106.04297 515.48633 A 3 3 0 0 1 109 513 A 3 3 0 0 1 111.95703 515.51367 A 3 3 0 0 0 112 515 A 3 3 0 0 0 109 512 z M 123 512 A 3 3 0 0 0 120 515 A 3 3 0 0 0 120.04297 515.48633 A 3 3 0 0 1 123 513 A 3 3 0 0 1 125.95703 515.51367 A 3 3 0 0 0 126 515 A 3 3 0 0 0 123 512 z M 102 519 A 3 3 0 0 0 99 522 A 3 3 0 0 0 99.042969 522.48633 A 3 3 0 0 1 102 520 A 3 3 0 0 1 104.95703 522.51367 A 3 3 0 0 0 105 522 A 3 3 0 0 0 102 519 z M 116 519 A 3 3 0 0 0 113 522 A 3 3 0 0 0 113.04297 522.48633 A 3 3 0 0 1 116 520 A 3 3 0 0 1 118.95703 522.51367 A 3 3 0 0 0 119 522 A 3 3 0 0 0 116 519 z M 123 519 A 3 3 0 0 0 120 522 A 3 3 0 0 0 120.04297 522.48633 A 3 3 0 0 1 123 520 A 3 3 0 0 1 125.95703 522.51367 A 3 3 0 0 0 126 522 A 3 3 0 0 0 123 519 z "
         transform="translate(0,-244)"
         id="path4577" />
    </g>
  </g>
</svg>
