<?xml version="1.0" encoding="UTF-8" standalone="no"?>
<!-- Created with Inkscape (http://www.inkscape.org/) -->

<svg
   xmlns:osb="http://www.openswatchbook.org/uri/2009/osb"
   xmlns:dc="http://purl.org/dc/elements/1.1/"
   xmlns:cc="http://creativecommons.org/ns#"
   xmlns:rdf="http://www.w3.org/1999/02/22-rdf-syntax-ns#"
   xmlns:svg="http://www.w3.org/2000/svg"
   xmlns="http://www.w3.org/2000/svg"
   xmlns:sodipodi="http://sodipodi.sourceforge.net/DTD/sodipodi-0.dtd"
   xmlns:inkscape="http://www.inkscape.org/namespaces/inkscape"
   inkscape:export-ydpi="90.000000"
   inkscape:export-xdpi="90.000000"
   width="736"
   height="544"
   id="svg11300"
   sodipodi:version="0.32"
   inkscape:version="0.91 r13725"
   sodipodi:docname="folder-dropbox.svg"
   inkscape:output_extension="org.inkscape.output.svg.inkscape"
   version="1.0"
   style="display:inline;enable-background:new"
   inkscape:export-filename="/home/sam/paper-template.png">
  <title
     id="title3004">Paper Icon Theme</title>
  <sodipodi:namedview
     stroke="#ef2929"
     fill="#f57900"
     id="base"
     pagecolor="#ededed"
     bordercolor="#666666"
     borderopacity="0.25490196"
     inkscape:pageopacity="0"
     inkscape:pageshadow="2"
     inkscape:zoom="1.8407005"
     inkscape:cx="357.08801"
     inkscape:cy="243.08857"
     inkscape:current-layer="layer6"
     showgrid="false"
     inkscape:grid-bbox="true"
     inkscape:document-units="px"
     inkscape:showpageshadow="false"
     inkscape:window-width="1920"
     inkscape:window-height="1019"
     inkscape:window-x="0"
     inkscape:window-y="27"
     width="400px"
     height="300px"
     inkscape:snap-nodes="true"
     inkscape:snap-bbox="true"
     gridtolerance="10000"
     inkscape:object-nodes="true"
     inkscape:snap-grids="true"
     showguides="true"
     inkscape:guide-bbox="true"
     inkscape:window-maximized="1"
     inkscape:object-paths="false"
     inkscape:snap-intersection-paths="false"
     inkscape:snap-smooth-nodes="false"
     inkscape:snap-midpoints="true"
     inkscape:snap-global="true">
    <inkscape:grid
       spacingy="1px"
       spacingx="1px"
       id="grid5883"
       type="xygrid"
       enabled="true"
       visible="true"
       empspacing="4"
       snapvisiblegridlinesonly="true" />
    <inkscape:grid
       type="xygrid"
       id="grid11592"
       empspacing="2"
       visible="true"
       enabled="false"
       spacingx="0.5px"
       spacingy="0.5px"
       color="#ff0000"
       opacity="0.1254902"
       empcolor="#ff0000"
       empopacity="0.25098039"
       snapvisiblegridlinesonly="true" />
  </sodipodi:namedview>
  <defs
     id="defs3">
    <clipPath
       clipPathUnits="userSpaceOnUse"
       id="clipPath4718">
      <path
         style="fill:#bb9e7b;fill-opacity:1;stroke:none"
         d="m 288,260 0,-56 c 0,-2.216 1.79756,-4.24472 4,-4 l 32,0 8,8 32.20504,0 c 0,0 3.79496,0 3.79496,4 l 0,48 c 0,2.21598 -1.784,4 -4,4 l -72,0 c -2.216,0 -4,-1.784 -4,-4 z"
         id="path4720"
         inkscape:connector-curvature="0"
         sodipodi:nodetypes="sssccccssss" />
    </clipPath>
    <clipPath
       clipPathUnits="userSpaceOnUse"
       id="clipPath7328">
      <path
         style="fill:#bb9e7b;fill-opacity:1;stroke:none"
         d="m 240,100 0,-256 c 0,-0.2208 0,-24 24,-24 l 176,0 48,48 176,0 c 13.296,0 24,10.704 24,24 l 0,208 c 0,13.296 -10.704,24 -24,24 l -400,0 c -13.296,0 -24,-10.704 -24,-24 z"
         id="path7330"
         inkscape:connector-curvature="0"
         sodipodi:nodetypes="scsccssssss" />
    </clipPath>
    <filter
       inkscape:collect="always"
       style="color-interpolation-filters:sRGB"
       id="filter4198"
       x="-0.022714286"
       width="1.0454286"
       y="-0.02544"
       height="1.05088">
      <feGaussianBlur
         inkscape:collect="always"
         stdDeviation="4.24"
         id="feGaussianBlur4200" />
    </filter>
    <linearGradient
       osb:paint="solid"
       id="linearGradient5606">
      <stop
         style="stop-color:#000000;stop-opacity:1;"
         offset="0"
         id="stop5608" />
    </linearGradient>
    <filter
       inkscape:collect="always"
       style="color-interpolation-filters:sRGB"
       id="filter4881"
       x="-0.053571429"
       width="1.1071429"
       y="-0.068181818"
       height="1.1363636">
      <feGaussianBlur
         inkscape:collect="always"
         stdDeviation="10"
         id="feGaussianBlur4883" />
    </filter>
    <linearGradient
       osb:paint="solid"
       id="linearGradient6882">
      <stop
         style="stop-color:#555555;stop-opacity:1;"
         offset="0"
         id="stop6884" />
    </linearGradient>
    <filter
       inkscape:collect="always"
       style="color-interpolation-filters:sRGB"
       id="filter4415"
       x="-0.056637762"
       width="1.1132755"
       y="-0.063786622"
       height="1.1275732">
      <feGaussianBlur
         inkscape:collect="always"
         stdDeviation="4.5359378"
         id="feGaussianBlur4417" />
    </filter>
  </defs>
  <metadata
     id="metadata4">
    <rdf:RDF>
      <cc:Work
         rdf:about="">
        <dc:format>image/svg+xml</dc:format>
        <dc:type
           rdf:resource="http://purl.org/dc/dcmitype/StillImage" />
        <dc:creator>
          <cc:Agent>
            <dc:title>Sam Hewitt</dc:title>
          </cc:Agent>
        </dc:creator>
        <dc:source />
        <cc:license
           rdf:resource="http://creativecommons.org/licenses/by-sa/3.0/" />
        <dc:title>Paper Icon Theme</dc:title>
        <dc:subject>
          <rdf:Bag />
        </dc:subject>
        <dc:date />
        <dc:rights>
          <cc:Agent>
            <dc:title />
          </cc:Agent>
        </dc:rights>
        <dc:publisher>
          <cc:Agent>
            <dc:title />
          </cc:Agent>
        </dc:publisher>
        <dc:identifier />
        <dc:relation />
        <dc:language />
        <dc:coverage />
        <dc:description />
        <dc:contributor>
          <cc:Agent>
            <dc:title />
          </cc:Agent>
        </dc:contributor>
      </cc:Work>
      <cc:Work
         rdf:about="">
        <dc:format>image/svg+xml</dc:format>
        <dc:type
           rdf:resource="http://purl.org/dc/dcmitype/StillImage" />
      </cc:Work>
      <cc:License
         rdf:about="http://creativecommons.org/licenses/by-sa/3.0/">
        <cc:permits
           rdf:resource="http://creativecommons.org/ns#Reproduction" />
        <cc:permits
           rdf:resource="http://creativecommons.org/ns#Distribution" />
        <cc:requires
           rdf:resource="http://creativecommons.org/ns#Notice" />
        <cc:requires
           rdf:resource="http://creativecommons.org/ns#Attribution" />
        <cc:permits
           rdf:resource="http://creativecommons.org/ns#DerivativeWorks" />
        <cc:requires
           rdf:resource="http://creativecommons.org/ns#ShareAlike" />
      </cc:License>
    </rdf:RDF>
  </metadata>
  <g
     style="display:inline"
     inkscape:groupmode="layer"
     inkscape:label="folder-dropbox"
     id="layer1"
     transform="translate(0,244)">
    <g
       inkscape:groupmode="layer"
       id="g5642"
       inkscape:label="Baseplate"
       style="display:none">
      <text
         id="text5644"
         inkscape:label="context"
         style="font-style:normal;font-variant:normal;font-weight:normal;font-stretch:normal;font-size:18px;font-family:'DejaVu Sans';-inkscape-font-specification:'DejaVu Sans';display:inline;fill:#000000;fill-opacity:1;stroke:none;enable-background:new"
         x="15.006836"
         xml:space="preserve"
         y="331.74512"><tspan
           id="tspan5646"
           sodipodi:role="line"
           x="15.006836"
           y="331.74512"
           style="font-style:normal;font-variant:normal;font-weight:normal;font-stretch:normal;font-family:'DejaVu Sans';-inkscape-font-specification:'DejaVu Sans'">places</tspan></text>
      <text
         id="text5648"
         inkscape:label="icon-name"
         sodipodi:linespacing="125%"
         style="font-style:normal;font-variant:normal;font-weight:bold;font-stretch:normal;font-size:18px;line-height:125%;font-family:'DejaVu Sans';-inkscape-font-specification:'DejaVu Sans Bold';text-align:start;writing-mode:lr-tb;text-anchor:start;display:inline;fill:#000000;fill-opacity:1;stroke:none;enable-background:new"
         x="142.48828"
         xml:space="preserve"
         y="331.74512"><tspan
           id="tspan5650"
           sodipodi:role="line"
           x="142.48828"
           y="331.74512"
           style="font-style:normal;font-variant:normal;font-weight:bold;font-stretch:normal;font-size:18px;font-family:'DejaVu Sans';-inkscape-font-specification:'DejaVu Sans Bold'">folder-dropbox</tspan></text>
      <rect
         transform="scale(-1,1)"
         inkscape:label="16x16"
         y="268"
         x="-32"
         height="16"
         width="16"
         id="rect5652"
         style="display:inline;overflow:visible;visibility:visible;fill:#e9e9e9;fill-opacity:1;fill-rule:nonzero;stroke:none;stroke-width:2;marker:none;enable-background:accumulate" />
      <rect
         transform="scale(-1,1)"
         inkscape:label="24x24"
         y="260"
         x="-76"
         height="24"
         width="24"
         id="rect5654"
         style="display:inline;overflow:visible;visibility:visible;fill:#e9e9e9;fill-opacity:1;fill-rule:nonzero;stroke:none;stroke-width:2;marker:none;enable-background:accumulate" />
      <rect
         transform="scale(-1,1)"
         inkscape:label="32x32"
         y="252"
         x="-128"
         height="32"
         width="32"
         id="rect5656"
         style="display:inline;overflow:visible;visibility:visible;fill:#e9e9e9;fill-opacity:1;fill-rule:nonzero;stroke:none;stroke-width:2;marker:none;enable-background:accumulate" />
      <rect
         transform="scale(-1,1)"
         style="display:inline;overflow:visible;visibility:visible;fill:#e9e9e9;fill-opacity:1;fill-rule:nonzero;stroke:none;stroke-width:2;marker:none;enable-background:accumulate"
         id="rect5658"
         width="48"
         height="48"
         x="-192"
         y="236"
         inkscape:label="48x48" />
      <rect
         transform="scale(-1,1)"
         inkscape:label="48x48"
         y="-228"
         x="-720"
         height="512"
         width="512"
         id="rect5664"
         style="display:inline;overflow:visible;visibility:visible;fill:#e9e9e9;fill-opacity:1;fill-rule:nonzero;stroke:none;stroke-width:2;marker:none;enable-background:accumulate" />
    </g>
    <g
       inkscape:groupmode="layer"
       id="layer6"
       inkscape:label="Symbols"
       style="display:inline">
      <path
         style="opacity:0.1;fill:#000000;fill-opacity:1;stroke:none"
         d="m 98,279.50195 0,1 C 98,281.33203 98.66796,282 99.49805,282 l 24.97265,0 c 0.83008,0 1.49805,-0.66797 1.49805,-1.49805 l 0,-1 c 0,0.83008 -0.66797,1.49805 -1.49805,1.49805 l -24.97265,0 C 98.66796,281 98,280.33203 98,279.50195 Z"
         id="path4524"
         inkscape:connector-curvature="0" />
      <path
         style="opacity:0.1;fill:#000000;fill-opacity:1;stroke:none"
         d="m 148,276 0,1 c 0,1.10799 0.892,2 2,2 l 36,0 c 1.108,0 2,-0.892 2,-2 l 0,-1 c 0,1.108 -0.892,2 -2,2 l -36,0 c -1.108,0 -2,-0.89201 -2,-2 z"
         id="path4526"
         inkscape:connector-curvature="0" />
      <path
         style="opacity:0.1;fill:#000000;fill-opacity:1;stroke:none"
         d="m 54,279.99609 0,1 c 0,0.55384 0.44615,0.99805 1,0.99805 l 17.99414,0 c 0.55385,0 1,-0.44421 1,-0.99805 l 0,-1 c 0,0.55384 -0.44615,0.99805 -1,0.99805 l -17.99414,0 c -0.55385,0 -1,-0.44421 -1,-0.99805 z"
         id="path4528"
         inkscape:connector-curvature="0" />
      <path
         inkscape:connector-curvature="0"
         id="path4202"
         d="m 264,-160 c -24,0 -24,23.7792 -24,24 l 0,96 0,160 0,96 c 0,13.296 10.704,24 24,24 l 400,0 c 13.296,0 24,-10.704 24,-24 l 0,-96 0,-208 c 0,-3.40647 -0.7078,-6.64054 -1.9766,-9.57031 -2.4696,-6.44528 -8.0441,-13.84886 -20.582,-14.38281 -0.4772,-0.028 -0.9569,-0.0469 -1.4414,-0.0469 l -176,0 -48,-48 -176,0 z"
         style="opacity:0.2;fill:#000000;fill-opacity:1;stroke:#000000;stroke-width:0;stroke-miterlimit:4;stroke-dasharray:none;stroke-opacity:1;filter:url(#filter4198)" />
      <path
         style="opacity:0.05;fill:#000000;fill-opacity:1;stroke:#000000;stroke-width:0;stroke-miterlimit:4;stroke-dasharray:none;stroke-opacity:1;filter:url(#filter4198)"
         d="m 264,-160 c -24,0 -24,23.7792 -24,24 l 0,96 0,160 0,96 c 0,13.296 10.704,24 24,24 l 400,0 c 13.296,0 24,-10.704 24,-24 l 0,-96 0,-208 c 0,-3.40647 -0.7078,-6.64054 -1.9766,-9.57031 -2.4696,-6.44528 -8.0441,-13.84886 -20.582,-14.38281 -0.4772,-0.028 -0.9569,-0.0469 -1.4414,-0.0469 l -176,0 -48,-48 -176,0 z"
         id="path7332"
         inkscape:connector-curvature="0" />
      <path
         sodipodi:nodetypes="scsccssssss"
         inkscape:connector-curvature="0"
         id="path3300"
         d="m 240,116 0,-256 c 0,-0.2208 0,-24 24,-24 l 176,0 48,48 176,0 c 13.296,0 24,10.704 24,24 l 0,208 c 0,13.296 -10.704,24 -24,24 l -400,0 c -13.296,0 -24,-10.704 -24,-24 z"
         style="fill:#006dc5;fill-opacity:1;stroke:none" />
      <path
         style="opacity:0.2;fill:#ffffff;fill-opacity:1;stroke:none"
         d="m 264,-164 c -24,0 -24,23.7792 -24,24 l 0,2 c 0,-0.2208 0,-24 24,-24 l 176,0 48,48 176,0 c 13.296,0 24,10.704 24,24 l 0,-2 c 0,-13.296 -10.704,-24 -24,-24 l -176,0 -48,-48 -176,0 z"
         id="path7310"
         inkscape:connector-curvature="0" />
      <path
         transform="translate(0,20)"
         sodipodi:nodetypes="scsccssssss"
         inkscape:connector-curvature="0"
         id="path7320"
         d="m 688,196 0,-304 c 0,0.2208 0,-24 -24,-24 l -176,0 -48,48 -176,0 c -13.296,0 -24,10.704 -24,24 l 0,256 c 0,13.296 10.704,24 24,24 l 400,0 c 13.296,0 24,-10.704 24,-24 z"
         style="opacity:0.3;fill:#000000;fill-opacity:1;stroke:none;filter:url(#filter4881)"
         clip-path="url(#clipPath7328)" />
      <path
         style="fill:#007ee5;fill-opacity:1;stroke:none"
         d="m 688,212 0,-304 c 0,0.2208 0,-24 -24,-24 l -176,0 -48,48 -176,0 c -13.296,0 -24,10.704 -24,24 l 0,256 c 0,13.296 10.704,24 24,24 l 400,0 c 13.296,0 24,-10.704 24,-24 z"
         id="rect3292"
         inkscape:connector-curvature="0"
         sodipodi:nodetypes="scsccssssss" />
      <path
         style="opacity:0.2;fill:#ffffff;fill-opacity:1;stroke:none"
         d="m 488,-116 -48,48 -176,0 c -13.296,0 -24,10.704 -24,24 l 0,2 c 0,-13.296 10.704,-24 24,-24 l 176,0 48,-48 176,0 c 24,0 24,24.2208 24,24 l 0,-2 c 0,0.2208 0,-24 -24,-24 l -176,0 z"
         id="path7312"
         inkscape:connector-curvature="0" />
      <path
         inkscape:connector-curvature="0"
         id="path7355"
         d="m 240,208 0,2 0,2 c 0,13.296 10.704,24 24,24 l 400,0 c 13.296,0 24,-10.704 24,-24 l 0,-2 0,-2 c 0,13.296 -10.704,24 -24,24 l -400,0 c -13.296,0 -24,-10.704 -24,-24 z"
         style="opacity:0.1;fill:#000000;fill-opacity:1;stroke:none" />
      <path
         sodipodi:nodetypes="sssccccssss"
         inkscape:connector-curvature="0"
         id="path4600"
         d="m 16.00028,279.99581 0,-9.99609 c 0,-0.55385 0.44926,-1.06088 0.99972,-0.99972 l 5.99777,0 1.99944,1.99944 6.04901,0 c 0,0 0.94848,0 0.94848,0.99972 l 0,7.99665 c 0,0.55384 -0.44588,0.99972 -0.99972,0.99972 l -13.99498,0 c -0.55385,0 -0.99972,-0.44587 -0.99972,-0.99972 z"
         style="fill:#006dc5;fill-opacity:1;stroke:none" />
      <path
         style="fill:#007ee5;fill-opacity:1;stroke:none"
         d="m 31.9947,282.99917 0,-11.00001 c 0,-0.55384 -0.44588,-0.99972 -0.99972,-0.99972 l -5.99777,0 -1.99944,1.99944 -5.99777,0 c -0.99972,0 -0.99972,0.95811 -0.99972,0.95811 l 0,9.04218 c 0,0.55384 0.44587,0.99972 0.99972,0.99972 l 13.99498,0 c 0.55384,0 0.99972,-0.44588 0.99972,-0.99972 z"
         id="path4602"
         inkscape:connector-curvature="0"
         sodipodi:nodetypes="sssccccssss" />
      <path
         sodipodi:nodetypes="sssccccssss"
         inkscape:connector-curvature="0"
         id="path4159"
         d="m 148,272 0,-28 c 0,-1.108 0.89878,-2.12236 2,-2 l 16,0 4,4 16.10252,0 c 0,0 1.89748,0 1.89748,2 l 0,24 c 0,1.10799 -0.892,2 -2,2 l -36,0 c -1.108,0 -2,-0.892 -2,-2 z"
         style="fill:#006dc5;fill-opacity:1;stroke:none" />
      <path
         style="fill:#007ee5;fill-opacity:1;stroke:none"
         d="m 188,276 0,-28 c 0,-1.108 -0.89878,-2.12236 -2,-2 l -16,0 -4,4 -16,0 c -2,0 -2,1.91674 -2,1.91674 L 148,276 c 0,1.10799 0.892,2 2,2 l 36,0 c 1.108,0 2,-0.892 2,-2 z"
         id="rect3454"
         inkscape:connector-curvature="0"
         sodipodi:nodetypes="sssccccssss" />
      <path
         style="opacity:0.2;fill:#ffffff;fill-opacity:1;stroke:none"
         d="m 150,242 c -1.108,0 -2,0.892 -2,2 l 0,1 c 0,-1.108 0.892,-2 2,-2 l 16,0 4,4 0,-1 -4,-4 z"
         id="path4298"
         inkscape:connector-curvature="0"
         sodipodi:nodetypes="sscsccccs" />
      <path
         style="opacity:0.2;fill:#ffffff;fill-opacity:1;stroke:none"
         d="m 170,246 -4,4 -16,0 c -2,0 -2,1.90625 -2,1.90625 l 0,1 c 0,0 0,-1.90625 2,-1.90625 l 16,0 4,-4 16,0 c 1.10122,-0.12236 2,0.892 2,2 l 0,-1 c 0,-1.108 -0.89878,-2.12236 -2,-2 l -16,0 z"
         id="path4161"
         inkscape:connector-curvature="0" />
      <path
         style="fill:#006dc5;fill-opacity:1;stroke:none"
         d="m 98,273.50827 0,-15.98236 c 0,-0.83008 0.69118,-1.69206 1.49834,-1.49834 l 10.98788,0 2.99669,2.99669 10.98787,0 c 0.83008,0 1.49834,0.66826 1.49834,1.49835 l 0,12.98566 c 0,0.83009 -0.66826,1.49835 -1.49834,1.49835 l -24.97244,0 C 98.66826,275.00662 98,274.33836 98,273.50827 Z"
         id="path4112"
         inkscape:connector-curvature="0"
         sodipodi:nodetypes="sssccssssss" />
      <path
         style="opacity:0.1;fill:#000000;fill-opacity:1;stroke:none"
         d="m 112.96875,258.53125 -2.46875,2.5 -11,0 c -0.83008,0 -1.5,0.66991 -1.5,1.5 l 0,1 c 0,-0.83009 0.66992,-1.5 1.5,-1.5 l 11,0 2.96875,-3 z"
         id="path4127"
         inkscape:connector-curvature="0"
         sodipodi:nodetypes="ccsscsccc" />
      <path
         sodipodi:nodetypes="sssccssssss"
         inkscape:connector-curvature="0"
         id="path4114"
         d="m 125.96912,279.50166 0,-18.97905 c 0,-0.83009 -0.67166,-1.5735 -1.49834,-1.49835 l -10.98787,0 -2.99669,2.99669 -10.98788,0 C 98.66826,262.02095 98,262.68921 98,263.5193 l 0,15.98236 C 98,280.33174 98.66826,281 99.49834,281 l 24.97244,0 c 0.83008,0 1.49834,-0.66826 1.49834,-1.49834 z"
         style="fill:#007ee5;fill-opacity:1;stroke:none" />
      <path
         style="opacity:0.2;fill:#ffffff;fill-opacity:1;stroke:none"
         d="M 99.1875,256 C 98.51447,256.0466 98,256.80493 98,257.53125 l 0,1 c 0,-0.83008 0.69284,-1.69372 1.5,-1.5 l 11,0 2.46875,2.5 0.5,-0.5 -2.96875,-3 -11,0 c -0.1009,-0.0242 -0.21635,-0.0379 -0.3125,-0.0312 z"
         id="path4133"
         inkscape:connector-curvature="0"
         sodipodi:nodetypes="cscccccccc" />
      <path
         style="opacity:0.1;fill:#ffffff;fill-opacity:1;stroke:none"
         d="m 113.46875,259.03125 -2.96875,3 -11,0 c -0.83008,0 -1.5,0.66991 -1.5,1.5 l 0,1 c 0,-0.83009 0.66992,-1.5 1.5,-1.5 l 11,0 2.96875,-3 11,0 c 0.82668,-0.0752 1.5,0.66991 1.5,1.5 l 0,-1 c 0,-0.83009 -0.67332,-1.57515 -1.5,-1.5 l -11,0 z"
         id="path4135"
         inkscape:connector-curvature="0" />
      <path
         style="fill:#006dc5;fill-opacity:1;stroke:none"
         d="m 54.00028,277.99581 0,-13.99609 c 0,-0.55385 0.44926,-1.06088 0.99972,-0.99972 l 7.99777,0 1.99944,1.99944 8.04901,0 c 0,0 0.94848,0 0.94848,0.99972 l 0,11.99665 c 0,0.55384 -0.44588,0.99972 -0.99972,0.99972 l -17.99498,0 c -0.55385,0 -0.99972,-0.44587 -0.99972,-0.99972 z"
         id="path4234"
         inkscape:connector-curvature="0"
         sodipodi:nodetypes="sssccccssss" />
      <path
         sodipodi:nodetypes="sssccccssss"
         inkscape:connector-curvature="0"
         id="path4236"
         d="m 73.9947,279.99526 0,-13.9961 c 0,-0.55384 -0.44927,-1.06088 -0.99972,-0.99972 l -7.99777,0 -1.99944,1.99944 -7.99777,0 c -0.99972,0 -0.99972,0.95811 -0.99972,0.95811 l 0,12.03827 c 0,0.55384 0.44587,0.99972 0.99972,0.99972 l 17.99498,0 c 0.55384,0 0.99972,-0.44588 0.99972,-0.99972 z"
         style="fill:#007ee5;fill-opacity:1;stroke:none" />
      <path
         style="opacity:0.2;fill:#ffffff;fill-opacity:1;stroke:none"
         d="M 54.8125,263 C 54.35775,263.0636 54,263.51538 54,264 l 0,1 c 0,-0.55385 0.44954,-1.06116 1,-1 l 8,0 1.5,1.5 0.5,-0.5 -2,-2 -8,0 c -0.0688,-0.008 -0.12253,-0.009 -0.1875,0 z m 18.90625,2.3125 C 73.88835,265.49935 74,265.73326 74,266 c 0,-0.34007 -0.13332,-0.5394 -0.28125,-0.6875 z M 73.03125,266 c 0,0 0.18813,0.0313 0.40625,0.125 -0.12901,-0.0664 -0.25219,-0.13564 -0.40625,-0.125 z"
         id="path4244"
         inkscape:connector-curvature="0" />
      <path
         style="opacity:0.1;fill:#ffffff;fill-opacity:1;stroke:none"
         d="m 65,265 -2,2 -8,0 c -0.99972,0 -1,0.96875 -1,0.96875 l 0,1 c 0,0 2.8e-4,-0.96875 1,-0.96875 l 8,0 2,-2 8,0 c 0.55046,-0.0612 1,0.44616 1,1 l 0,-1 c 0,-0.55384 -0.44954,-1.06116 -1,-1 l -8,0 z"
         id="path4246"
         inkscape:connector-curvature="0" />
      <path
         style="opacity:0.1;fill:#000000;fill-opacity:1;stroke:none"
         d="m 64.5,264.5 -1.5,1.5 -8,0 c -0.99972,0 -1,0.96875 -1,0.96875 l 0,1 c 0,0 2.8e-4,-0.96875 1,-0.96875 l 8,0 2,-2 z"
         id="path4260"
         inkscape:connector-curvature="0"
         sodipodi:nodetypes="ccsccsccc" />
      <path
         inkscape:connector-curvature="0"
         id="path4290"
         d="m 54.875,263.5 c -0.57873,0.25534 -0.31486,0.96999 -0.375,1.46873 0,5.01043 0,10.02085 0,15.03127 0.06,0.68358 0.83869,0.46293 1.30728,0.5 5.73091,0 11.46181,0 17.19272,0 0.68358,-0.06 0.46293,-0.83869 0.5,-1.30728 -0.006,-4.44195 0.0131,-8.88485 -0.01,-13.3262 -0.12776,-0.48918 -0.58894,-0.34535 -0.9971,-0.36647 -2.57061,0 -5.14121,0 -7.71182,0 -0.62405,-0.6955 -1.31742,-1.32896 -1.96875,-2.00005 -2.64583,0 -5.29166,0 -7.9375,0 z"
         style="opacity:0.4;fill:none;stroke:none" />
      <path
         sodipodi:nodetypes="ccsccsccc"
         inkscape:connector-curvature="0"
         id="path4518"
         d="m 169,246 -3,3 -16,0 c -2,0 -2,1.90625 -2,1.90625 l 0,1 c 0,0 0,-1.90625 2,-1.90625 l 16,0 3.5,-3.5 z"
         style="opacity:0.05;fill:#000000;fill-opacity:1;stroke:none" />
      <path
         inkscape:connector-curvature="0"
         id="path4604"
         d="m 24.99805,271 -2,1.99805 -5.99805,0 c -0.99972,0 -1,0.95898 -1,0.95898 l 0,1 c 0,0 2.8e-4,-0.95898 1,-0.95898 l 5.99805,0 2,-1.99805 5.99609,0 c 0.55385,0 1,0.44616 1,1 l 0,-1 c 0,-0.55384 -0.44615,-1 -1,-1 l -5.99609,0 z"
         style="opacity:0.1;fill:#ffffff;fill-opacity:1;stroke:none" />
      <path
         inkscape:connector-curvature="0"
         id="path4609"
         d="m 17.00195,269 c -0.55384,0 -1,0.44616 -1,1 l 0,1 c 0,-0.55384 0.44616,-1 1,-1 l 5.9961,0 1.5,1.5 0.5,-0.5 5.99609,0 c 0.41382,0 0.76752,0.24851 0.91992,0.60547 -0.097,-0.27545 -0.32126,-0.60742 -0.91797,-0.60742 l -5.99804,0 -2,-1.99805 -5.9961,0 z m 14.91602,2.61914 c 0.0481,0.1173 0.0762,0.24586 0.0762,0.38086 l 0,0.9375 c 3e-5,0.002 0.002,0.0195 0.002,0.0195 l 0,-1 c 0,0 -0.0175,-0.15817 -0.0781,-0.33789 z"
         style="opacity:0.1;fill:#ffffff;fill-opacity:1;stroke:none" />
      <path
         sodipodi:nodetypes="ccsccsccc"
         inkscape:connector-curvature="0"
         id="path4713"
         d="m 24.49721,270.49944 -1.49916,1.49861 -5.99805,0 c -0.99972,0 -1,0.95898 -1,0.95898 l 0,1 c 0,0 2.8e-4,-0.95898 1,-0.95898 l 5.99805,0 1.99916,-1.99861 z"
         style="opacity:0.1;fill:#000000;fill-opacity:1;stroke:none" />
      <path
         inkscape:connector-curvature="0"
         id="path4515"
         d="m 98,278.50195 0,1 C 98,280.33203 98.66796,281 99.49805,281 l 24.97265,0 c 0.83008,0 1.49805,-0.66797 1.49805,-1.49805 l 0,-1 c 0,0.83008 -0.66797,1.49805 -1.49805,1.49805 l -24.97265,0 C 98.66796,280 98,279.33203 98,278.50195 Z"
         style="opacity:0.1;fill:#000000;fill-opacity:1;stroke:none" />
      <path
         inkscape:connector-curvature="0"
         id="path4520"
         d="m 148,275 0,1 c 0,1.10799 0.892,2 2,2 l 36,0 c 1.108,0 2,-0.892 2,-2 l 0,-1 c 0,1.108 -0.892,2 -2,2 l -36,0 c -1.108,0 -2,-0.89201 -2,-2 z"
         style="opacity:0.1;fill:#000000;fill-opacity:1;stroke:none" />
      <path
         sodipodi:nodetypes="csssscssc"
         inkscape:connector-curvature="0"
         id="path4542"
         d="m 16,282 0,1 c 0,0.55384 0.44615,0.99805 1,0.99805 l 13.99414,0 c 0.55385,0 1,-0.44421 1,-0.99805 l 0,-1 c 0,0.55384 -0.44615,0.99805 -1,0.99805 l -13.99414,0 c -0.55385,0 -1,-0.44421 -1,-0.99805 z"
         style="opacity:0.1;fill:#000000;fill-opacity:1;stroke:none" />
      <path
         inkscape:connector-curvature="0"
         id="path4544"
         d="m 54,278.99609 0,1 c 0,0.55384 0.44615,0.99805 1,0.99805 l 17.99414,0 c 0.55385,0 1,-0.44421 1,-0.99805 l 0,-1 c 0,0.55384 -0.44615,0.99805 -1,0.99805 l -17.99414,0 c -0.55385,0 -1,-0.44421 -1,-0.99805 z"
         style="opacity:0.1;fill:#000000;fill-opacity:1;stroke:none" />
      <g
         transform="translate(131,-676.36216)"
         id="g5141"
         inkscape:label="dropboxstatus-logo"
         style="stroke:none">
        <path
           style="color:#000000;opacity:0.2;fill:#000000;fill-opacity:1;stroke:none"
           d="m 40,935.36216 -5,3 4,2.98438 -4.009766,3.00781 5.009766,3.00781 4,-3 -5,-3 5,-3 5,3.01562 -5,2.98438 4,3 5.009766,-3.02344 L 49,941.36216 l 4,-3 -5,-3 -4,2.98438 -4,-2.98438 z m 4,10 -4,3 -1,-0.59961 0,0.59961 5,3 5,-3 0,-0.60352 -1,0.60352 -4,-3 z"
           id="path4386"
           inkscape:connector-curvature="0" />
        <path
           inkscape:connector-curvature="0"
           id="path3967"
           d="m 40,934.36216 -5,3 4,2.98438 -4.009766,3.00781 5.009766,3.00781 4,-3 -5,-3 5,-3 5,3.01562 -5,2.98438 4,3 5.009766,-3.02344 L 49,940.36216 l 4,-3 -5,-3 -4,2.98438 -4,-2.98438 z m 4,10 -4,3 -1,-0.59961 0,0.59961 5,3 5,-3 0,-0.60352 -1,0.60352 -4,-3 z"
           style="color:#000000;fill:#ffffff;fill-opacity:1;stroke:none" />
        <rect
           style="color:#bebebe;display:inline;overflow:visible;visibility:visible;fill:none;stroke:none;stroke-width:1;marker:none;enable-background:new"
           id="rect5087"
           width="24"
           height="24"
           x="32.000229"
           y="930.36053" />
      </g>
      <g
         style="stroke:none"
         inkscape:label="dropboxstatus-logo"
         id="g4388"
         transform="matrix(0.66666667,0,0,0.66666667,88.66674,-355.24198)">
        <path
           inkscape:connector-curvature="0"
           id="path4390"
           d="m 40,935.36216 -5,3 4,2.98438 -4.009766,3.00781 5.009766,3.00781 4,-3 -5,-3 5,-3 5,3.01562 -5,2.98438 4,3 5.009766,-3.02344 L 49,941.36216 l 4,-3 -5,-3 -4,2.98438 -4,-2.98438 z m 4,10 -4,3 -1,-0.59961 0,0.59961 5,3 5,-3 0,-0.60352 -1,0.60352 -4,-3 z"
           style="color:#000000;opacity:0.2;fill:#000000;fill-opacity:1;stroke:none" />
        <path
           style="color:#000000;fill:#ffffff;fill-opacity:1;stroke:none"
           d="m 39.99989,933.86297 -5,3 4,2.98438 -4.009766,3.00781 5.009766,3.00781 4,-3 -5,-3 5,-3 5,3.01562 -5,2.98438 4,3 5.009766,-3.02344 -4.009766,-2.97656 4,-3 -5,-3 -4,2.98438 -4,-2.98438 z m 4,10 -4,3 -1,-0.59961 0,0.59961 5,3 5,-3 0,-0.60352 -1,0.60352 -4,-3 z"
           id="path4392"
           inkscape:connector-curvature="0" />
        <rect
           y="930.36053"
           x="32.000229"
           height="24"
           width="24"
           id="rect4394"
           style="color:#bebebe;display:inline;overflow:visible;visibility:visible;fill:none;stroke:none;stroke-width:1;marker:none;enable-background:new" />
      </g>
      <path
         style="color:#000000;fill:#ffffff;fill-opacity:1;stroke:none"
         d="m 66.224149,270.89659 -2.219813,1.33189 1.775851,1.32495 L 64,274.88879 66.224149,276.22415 68,274.89226 65.780187,273.56037 68,272.22848 70.219813,273.56731 68,274.89226 69.775851,276.22415 72,274.88186 70.219813,273.56037 71.995664,272.22848 69.775851,270.89659 68,272.22154 66.224149,270.89659 Z M 68,275.33622 l -1.775851,1.33189 -0.443962,-0.26621 0,0.26621 L 68,278 l 2.219813,-1.33189 0,-0.26794 -0.443962,0.26794 L 68,275.33622 Z"
         id="path4427"
         inkscape:connector-curvature="0" />
      <path
         style="color:#000000;opacity:0.2;fill:#000000;fill-opacity:1;stroke:none;filter:url(#filter4415)"
         d="m 517.33091,27.350985 -53.33334,32.000001 42.66667,31.833388 -42.77084,32.083306 53.43751,32.08331 42.66667,-32 -53.33334,-32.000003 53.33334,-32.000001 53.33333,32.166614 -53.33333,31.83339 42.66667,32 53.4375,-32.25003 L 613.33091,91.350987 655.99758,59.350986 602.66425,27.350985 559.99758,59.184373 517.33091,27.350985 Z m 42.66667,106.666675 -42.66667,32 -10.66667,-6.39584 0,6.39584 53.33334,32 53.33333,-32 0,-6.43755 -10.66666,6.43755 -42.66667,-32 z"
         id="path4406"
         inkscape:connector-curvature="0" />
      <path
         inkscape:connector-curvature="0"
         id="path4408"
         d="m 517.33091,22.684318 -53.33334,32.000001 42.66667,31.833388 -42.77084,32.083303 53.43751,32.08331 42.66667,-32 -53.33334,-32 53.33334,-32.000001 53.33333,32.166614 -53.33333,31.833387 42.66667,32 53.4375,-32.25003 L 613.33091,86.68432 655.99758,54.684319 602.66425,22.684318 559.99758,54.517706 517.33091,22.684318 Z m 42.66667,106.666672 -42.66667,32 -10.66667,-6.39584 0,6.39584 53.33334,32 53.33333,-32 0,-6.43755 -10.66666,6.43755 -42.66667,-32 z"
         style="color:#000000;fill:#ffffff;fill-opacity:1;stroke:none" />
      <path
         inkscape:connector-curvature="0"
         id="path4421"
         d="m 25.224149,274.89659 -2.219813,1.33189 1.775851,1.32495 L 23,278.88879 25.224149,280.22415 27,278.89226 24.780187,277.56037 27,276.22848 29.219813,277.56731 27,278.89226 28.775851,280.22415 31,278.88186 29.219813,277.56037 30.995664,276.22848 28.775851,274.89659 27,276.22154 25.224149,274.89659 Z M 27,279.33622 l -1.775851,1.33189 -0.443962,-0.26621 0,0.26621 L 27,282 l 2.219813,-1.33189 0,-0.26794 -0.443962,0.26794 L 27,279.33622 Z"
         style="color:#000000;fill:#ffffff;fill-opacity:1;stroke:none" />
    </g>
  </g>
</svg>
