<?xml version="1.0" encoding="UTF-8" standalone="no"?>
<!-- Created with Inkscape (http://www.inkscape.org/) -->

<svg
   xmlns:osb="http://www.openswatchbook.org/uri/2009/osb"
   xmlns:dc="http://purl.org/dc/elements/1.1/"
   xmlns:cc="http://creativecommons.org/ns#"
   xmlns:rdf="http://www.w3.org/1999/02/22-rdf-syntax-ns#"
   xmlns:svg="http://www.w3.org/2000/svg"
   xmlns="http://www.w3.org/2000/svg"
   xmlns:sodipodi="http://sodipodi.sourceforge.net/DTD/sodipodi-0.dtd"
   xmlns:inkscape="http://www.inkscape.org/namespaces/inkscape"
   inkscape:export-ydpi="90.000000"
   inkscape:export-xdpi="90.000000"
   width="736"
   height="544"
   id="svg11300"
   sodipodi:version="0.32"
   inkscape:version="0.91 r"
   sodipodi:docname="glade.svg"
   inkscape:output_extension="org.inkscape.output.svg.inkscape"
   version="1.0"
   style="display:inline;enable-background:new"
   inkscape:export-filename="/home/sam/paper-template.png">
  <title
     id="title3004">Paper Icon Theme</title>
  <sodipodi:namedview
     stroke="#ef2929"
     fill="#f57900"
     id="base"
     pagecolor="#474747"
     bordercolor="#666666"
     borderopacity="0.25490196"
     inkscape:pageopacity="0"
     inkscape:pageshadow="2"
     inkscape:zoom="1"
     inkscape:cx="155.4278"
     inkscape:cy="17.012145"
     inkscape:current-layer="layer6"
     showgrid="false"
     inkscape:grid-bbox="true"
     inkscape:document-units="px"
     inkscape:showpageshadow="false"
     inkscape:window-width="1920"
     inkscape:window-height="1023"
     inkscape:window-x="0"
     inkscape:window-y="27"
     width="400px"
     height="300px"
     inkscape:snap-nodes="true"
     inkscape:snap-bbox="true"
     gridtolerance="10000"
     inkscape:object-nodes="true"
     inkscape:snap-grids="true"
     showguides="true"
     inkscape:guide-bbox="true"
     inkscape:window-maximized="1"
     inkscape:bbox-nodes="true"
     inkscape:snap-bbox-edge-midpoints="true"
     inkscape:snap-bbox-midpoints="true">
    <inkscape:grid
       spacingy="1px"
       spacingx="1px"
       id="grid5883"
       type="xygrid"
       enabled="true"
       visible="true"
       empspacing="4"
       snapvisiblegridlinesonly="true" />
    <inkscape:grid
       type="xygrid"
       id="grid11592"
       empspacing="2"
       visible="true"
       enabled="false"
       spacingx="0.5px"
       spacingy="0.5px"
       color="#ff0000"
       opacity="0.1254902"
       empcolor="#ff0000"
       empopacity="0.25098039"
       snapvisiblegridlinesonly="true" />
  </sodipodi:namedview>
  <defs
     id="defs3">
    <clipPath
       clipPathUnits="userSpaceOnUse"
       id="clipPath4193">
      <rect
         transform="matrix(0,-1,-1,0,0,0)"
         style="fill:#c03630;fill-opacity:1;stroke:none"
         id="rect4195"
         width="56"
         height="56"
         x="-280"
         y="-260"
         rx="3"
         ry="3" />
    </clipPath>
    <clipPath
       clipPathUnits="userSpaceOnUse"
       id="clipPath4255">
      <rect
         ry="2"
         rx="2"
         y="-180"
         x="-280"
         height="40"
         width="40"
         id="rect4257"
         style="fill:#c03630;fill-opacity:1;stroke:none"
         transform="matrix(0,-1,-1,0,0,0)" />
    </clipPath>
    <clipPath
       clipPathUnits="userSpaceOnUse"
       id="clipPath4275">
      <rect
         ry="1"
         rx="1"
         y="-32"
         x="-284"
         height="16"
         width="16"
         id="rect4277"
         style="display:inline;fill:#c03630;fill-opacity:1;stroke:none;enable-background:new"
         transform="matrix(0,-1,-1,0,0,0)" />
    </clipPath>
    <linearGradient
       osb:paint="solid"
       id="linearGradient5606">
      <stop
         style="stop-color:#000000;stop-opacity:1;"
         offset="0"
         id="stop5608" />
    </linearGradient>
    <clipPath
       clipPathUnits="userSpaceOnUse"
       id="clipPath4266-4">
      <path
         id="path4268-0"
         d="m 146,240 c -1.108,0 -2,0.892 -2,2 l 0,36 c 0,1.108 0.892,2 2,2 l 28,0 c 1.108,0 2,-0.892 2,-2 l 0,-26 -12,-12 -18,0 z"
         style="fill:#ffffff;fill-opacity:1;stroke:none"
         inkscape:connector-curvature="0" />
    </clipPath>
    <clipPath
       clipPathUnits="userSpaceOnUse"
       id="clipPath4140-8">
      <path
         id="path4142-3"
         d="m 213,224 c -1.662,0 -3,1.338 -3,3 l 0,50 c 0,1.662 1.338,3 3,3 l 38,0 c 1.662,0 3,-1.338 3,-3 l 0,-35 -18,-18 -23,0 z"
         style="fill:#e1e1e1;fill-opacity:1;stroke:none"
         inkscape:connector-curvature="0" />
    </clipPath>
    <clipPath
       clipPathUnits="userSpaceOnUse"
       id="clipPath4168">
      <path
         id="path4170"
         d="m 94.5,254 c -0.831,0 -1.5,0.669 -1.5,1.5 l 0,25 c 0,0.831 0.669,1.5 1.5,1.5 l 19,0 c 0.831,0 1.5,-0.669 1.5,-1.5 l 0,-18.5 -8,-8 -12.5,0 z"
         style="fill:#e1e1e1;fill-opacity:1;stroke:none"
         inkscape:connector-curvature="0" />
    </clipPath>
    <clipPath
       clipPathUnits="userSpaceOnUse"
       id="clipPath4278">
      <path
         sodipodi:nodetypes="ssssssccs"
         style="fill:#e1e1e1;fill-opacity:1;stroke:none"
         d="m 300,196 c -2.216,0 -4,1.784 -4,4 l 0,72 c 0,2.216 1.784,4 4,4 l 56,0 c 2.216,0 4,-1.784 4,-4 l 0,-52 -24,-24 z"
         id="path4280"
         inkscape:connector-curvature="0" />
    </clipPath>
    <clipPath
       clipPathUnits="userSpaceOnUse"
       id="clipPath4754">
      <path
         sodipodi:nodetypes="ssssssccs"
         style="fill:#e1e1e1;fill-opacity:1;stroke:none"
         d="m 300,196 c -2.216,0 -4,1.784 -4,4 l 0,72 c 0,2.216 1.784,4 4,4 l 56,0 c 2.216,0 4,-1.784 4,-4 l 0,-52 -24,-24 z"
         id="path4756"
         inkscape:connector-curvature="0" />
    </clipPath>
    <filter
       inkscape:collect="always"
       style="color-interpolation-filters:sRGB"
       id="filter4265"
       x="-0.027272727"
       width="1.0545455"
       y="-0.02142857"
       height="1.0428571">
      <feGaussianBlur
         inkscape:collect="always"
         stdDeviation="4"
         id="feGaussianBlur4267" />
    </filter>
    <filter
       inkscape:collect="always"
       style="color-interpolation-filters:sRGB"
       id="filter4312"
       x="-0.022285714"
       width="1.0445714"
       y="-0.026"
       height="1.052">
      <feGaussianBlur
         inkscape:collect="always"
         stdDeviation="4.16"
         id="feGaussianBlur4314" />
    </filter>
    <filter
       inkscape:collect="always"
       style="color-interpolation-filters:sRGB"
       id="filter4219"
       x="-0.055714286"
       width="1.1114286"
       y="-0.065"
       height="1.13">
      <feGaussianBlur
         inkscape:collect="always"
         stdDeviation="10.4"
         id="feGaussianBlur4221" />
    </filter>
  </defs>
  <metadata
     id="metadata4">
    <rdf:RDF>
      <cc:Work
         rdf:about="">
        <dc:format>image/svg+xml</dc:format>
        <dc:type
           rdf:resource="http://purl.org/dc/dcmitype/StillImage" />
        <dc:creator>
          <cc:Agent>
            <dc:title>Sam Hewitt</dc:title>
          </cc:Agent>
        </dc:creator>
        <dc:source />
        <cc:license
           rdf:resource="http://creativecommons.org/licenses/by-sa/3.0/" />
        <dc:title>Paper Icon Theme</dc:title>
        <dc:subject>
          <rdf:Bag />
        </dc:subject>
        <dc:date />
        <dc:rights>
          <cc:Agent>
            <dc:title />
          </cc:Agent>
        </dc:rights>
        <dc:publisher>
          <cc:Agent>
            <dc:title />
          </cc:Agent>
        </dc:publisher>
        <dc:identifier />
        <dc:relation />
        <dc:language />
        <dc:coverage />
        <dc:description />
        <dc:contributor>
          <cc:Agent>
            <dc:title />
          </cc:Agent>
        </dc:contributor>
      </cc:Work>
      <cc:Work
         rdf:about="">
        <dc:format>image/svg+xml</dc:format>
        <dc:type
           rdf:resource="http://purl.org/dc/dcmitype/StillImage" />
      </cc:Work>
    </rdf:RDF>
  </metadata>
  <g
     style="display:inline"
     inkscape:groupmode="layer"
     inkscape:label="Icon"
     id="layer1"
     transform="translate(0,244)">
    <g
       style="display:none"
       inkscape:label="Baseplate"
       id="layer7"
       inkscape:groupmode="layer">
      <text
         y="332.76685"
         xml:space="preserve"
         x="15.006836"
         style="font-style:normal;font-variant:normal;font-weight:normal;font-stretch:normal;font-size:18px;font-family:'DejaVu Sans';-inkscape-font-specification:'DejaVu Sans';display:inline;fill:#000000;fill-opacity:1;stroke:none;enable-background:new"
         inkscape:label="context"
         id="context"><tspan
           style="font-style:normal;font-variant:normal;font-weight:normal;font-stretch:normal;font-family:'DejaVu Sans';-inkscape-font-specification:'DejaVu Sans'"
           y="332.76685"
           x="15.006836"
           sodipodi:role="line"
           id="tspan3933">apps</tspan></text>
      <text
         y="332.76685"
         xml:space="preserve"
         x="142.48828"
         style="font-style:normal;font-variant:normal;font-weight:bold;font-stretch:normal;font-size:18px;line-height:125%;font-family:'DejaVu Sans';-inkscape-font-specification:'DejaVu Sans Bold';text-align:start;writing-mode:lr-tb;text-anchor:start;display:inline;fill:#000000;fill-opacity:1;stroke:none;enable-background:new"
         sodipodi:linespacing="125%"
         inkscape:label="icon-name"
         id="icon-name"><tspan
           style="font-style:normal;font-variant:normal;font-weight:bold;font-stretch:normal;font-size:18px;font-family:'DejaVu Sans';-inkscape-font-specification:'DejaVu Sans Bold'"
           y="332.76685"
           x="142.48828"
           sodipodi:role="line"
           id="tspan3937">glade</tspan></text>
      <rect
         style="display:inline;overflow:visible;visibility:visible;fill:#e9e9e9;fill-opacity:1;fill-rule:nonzero;stroke:none;stroke-width:2;marker:none;enable-background:accumulate"
         id="rect16x16"
         width="16"
         height="16"
         x="-32"
         y="268"
         inkscape:label="16x16"
         transform="scale(-1,1)" />
      <rect
         style="display:inline;overflow:visible;visibility:visible;fill:#e9e9e9;fill-opacity:1;fill-rule:nonzero;stroke:none;stroke-width:2;marker:none;enable-background:accumulate"
         id="rect24x24"
         width="24"
         height="24"
         x="-76"
         y="260"
         inkscape:label="24x24"
         transform="scale(-1,1)" />
      <rect
         style="display:inline;overflow:visible;visibility:visible;fill:#e9e9e9;fill-opacity:1;fill-rule:nonzero;stroke:none;stroke-width:2;marker:none;enable-background:accumulate"
         id="rect32x32"
         width="32"
         height="32"
         x="-130"
         y="252"
         inkscape:label="32x32"
         transform="scale(-1,1)" />
      <rect
         inkscape:label="48x48"
         y="236"
         x="-194"
         height="48"
         width="48"
         id="rect48x48"
         style="display:inline;overflow:visible;visibility:visible;fill:#e9e9e9;fill-opacity:1;fill-rule:nonzero;stroke:none;stroke-width:2;marker:none;enable-background:accumulate"
         transform="scale(-1,1)" />
      <rect
         style="display:inline;overflow:visible;visibility:visible;fill:#e9e9e9;fill-opacity:1;fill-rule:nonzero;stroke:none;stroke-width:2;marker:none;enable-background:accumulate"
         id="rect3951"
         width="512"
         height="512"
         x="-720"
         y="-228"
         inkscape:label="48x48"
         transform="scale(-1,1)" />
    </g>
    <g
       inkscape:groupmode="layer"
       id="layer6"
       inkscape:label="Symbols"
       style="display:inline">
      <path
         sodipodi:nodetypes="sssssssss"
         inkscape:connector-curvature="0"
         id="path4213"
         d="m 640,230 0,-400 c 0,-13.296 -10.704,-24 -24,-24 l -304,0 c -13.296,0 -24,10.704 -24,24 l 0,400 c 0,13.296 10.704,24 24,24 l 304,0 c 13.296,0 24,-10.704 24,-24 z"
         style="opacity:0.2;fill:#000000;fill-opacity:1;stroke:none" />
      <path
         sodipodi:nodetypes="sssssssss"
         inkscape:connector-curvature="0"
         id="path4282"
         d="m 30,283.2 0,-14.4 c 0,-0.4432 -0.3345,-0.8 -0.75,-0.8 l -10.5,0 c -0.4155,0 -0.75,0.3568 -0.75,0.8 l 0,14.4 c 0,0.4432 0.3345,0.8 0.75,0.8 l 10.5,0 c 0.4155,0 0.75,-0.3568 0.75,-0.8 z"
         style="fill:#ececec;fill-opacity:1;stroke:none" />
      <path
         sodipodi:nodetypes="sssssssss"
         inkscape:connector-curvature="0"
         id="path4269"
         d="m 640,232 0,-400 c 0,-13.296 -10.704,-24 -24,-24 l -304,0 c -13.296,0 -24,10.704 -24,24 l 0,400 c 0,13.296 10.704,24 24,24 l 304,0 c 13.296,0 24,-10.704 24,-24 z"
         style="opacity:0.1;fill:#000000;fill-opacity:1;stroke:#000000;stroke-width:8;stroke-miterlimit:4;stroke-dasharray:none;stroke-opacity:1;filter:url(#filter4265)" />
      <path
         style="opacity:0.2;fill:#000000;fill-opacity:1;stroke:none"
         d="m 125,281.5 0,-25 c 0,-0.831 -0.669,-1.5 -1.5,-1.5 l -19,0 c -0.831,0 -1.5,0.669 -1.5,1.5 l 0,25 c 0,0.831 0.669,1.5 1.5,1.5 l 19,0 c 0.831,0 1.5,-0.669 1.5,-1.5 z"
         id="rect4313"
         inkscape:connector-curvature="0"
         sodipodi:nodetypes="sssssssss" />
      <path
         style="opacity:0.2;fill:#000000;fill-opacity:1;stroke:none"
         d="m 72,282 0,-18 c 0,-0.554 -0.446,-1 -1,-1 l -14,0 c -0.554,0 -1,0.446 -1,1 l 0,18 c 0,0.554 0.446,1 1,1 l 14,0 c 0.554,0 1,-0.446 1,-1 z"
         id="rect4311"
         inkscape:connector-curvature="0"
         sodipodi:nodetypes="sssssssss" />
      <path
         transform="matrix(0,-1,-1,0,10,0)"
         style="opacity:0.2;fill:#000000;fill-opacity:1;stroke:none"
         d="m -279,-176 36,0 c 1.108,0 2,0.892 2,2 l 0,28 c 0,1.108 -0.892,2 -2,2 l -36,0 c -1.108,0 -2,-0.892 -2,-2 l 0,-28 c 0,-1.108 0.892,-2 2,-2 z"
         id="rect4279"
         inkscape:connector-curvature="0"
         sodipodi:nodetypes="sssssssss" />
      <path
         style="fill:#ececec;fill-opacity:1;stroke:none"
         d="m 186,278 0,-36 c 0,-1.108 -0.892,-2 -2,-2 l -28,0 c -1.108,0 -2,0.892 -2,2 l 0,36 c 0,1.108 0.892,2 2,2 l 28,0 c 1.108,0 2,-0.892 2,-2 z"
         id="rect4203"
         inkscape:connector-curvature="0"
         sodipodi:nodetypes="sssssssss" />
      <path
         style="fill:#ececec;fill-opacity:1;stroke:none"
         d="m 72,281 0,-18 c 0,-0.554 -0.446,-1 -1,-1 l -14,0 c -0.554,0 -1,0.446 -1,1 l 0,18 c 0,0.554 0.446,1 1,1 l 14,0 c 0.554,0 1,-0.446 1,-1 z"
         id="rect4243"
         inkscape:connector-curvature="0"
         sodipodi:nodetypes="sssssssss" />
      <path
         style="fill:#ececec;fill-opacity:1;stroke:none"
         d="m 125,280.5 0,-25 c 0,-0.831 -0.669,-1.5 -1.5,-1.5 l -19,0 c -0.831,0 -1.5,0.669 -1.5,1.5 l 0,25 c 0,0.831 0.669,1.5 1.5,1.5 l 19,0 c 0.831,0 1.5,-0.669 1.5,-1.5 z"
         id="rect4255"
         inkscape:connector-curvature="0"
         sodipodi:nodetypes="sssssssss" />
      <path
         style="opacity:0.1;fill:#ffffff;fill-opacity:1;stroke:none"
         d="m 156,240 c -1.108,0 -2,0.892 -2,2 l 0,1 c 0,-1.108 0.892,-2 2,-2 l 28,0 c 1.108,0 2,0.892 2,2 l 0,-1 c 0,-1.108 -0.892,-2 -2,-2 z"
         id="rect4199"
         inkscape:connector-curvature="0"
         sodipodi:nodetypes="sscsscsss" />
      <path
         style="opacity:0.1;fill:#ffffff;fill-opacity:1;stroke:none"
         d="m 57,262 c -0.554,0 -1,0.446 -1,1 l 0,1 c 0,-0.554 0.446,-1 1,-1 l 14,0 c 0.554,0 1,0.446 1,1 l 0,-1 c 0,-0.554 -0.446,-1 -1,-1 z"
         id="rect4206"
         inkscape:connector-curvature="0"
         sodipodi:nodetypes="sscsscsss" />
      <path
         style="opacity:0.1;fill:#ffffff;fill-opacity:1;stroke:none"
         d="m 104.5,254 c -0.831,0 -1.5,0.669 -1.5,1.5 l 0,1 c 0,-0.831 0.669,-1.5 1.5,-1.5 l 19,0 c 0.831,0 1.5,0.669 1.5,1.5 l 0,-1 c 0,-0.831 -0.669,-1.5 -1.5,-1.5 z"
         id="rect4208"
         inkscape:connector-curvature="0"
         sodipodi:nodetypes="sscsscsss" />
      <g
         id="g4635"
         inkscape:label="actions"
         style="display:inline;fill:#ffffff;fill-opacity:1;enable-background:new"
         transform="matrix(4.0008799,0,0,4.0008799,-1532.4518,272.01408)" />
      <g
         transform="matrix(2.00044,0,0,2.00044,-682.22612,278.00704)"
         style="display:inline;fill:#ffffff;fill-opacity:1;enable-background:new"
         inkscape:label="actions"
         id="g4627" />
      <path
         style="opacity:0.2;fill:#000000;fill-opacity:1;stroke:none;filter:url(#filter4265)"
         d="m 640,232 0,-400 c 0,-13.296 -10.704,-24 -24,-24 l -304,0 c -13.296,0 -24,10.704 -24,24 l 0,400 c 0,13.296 10.704,24 24,24 l 304,0 c 13.296,0 24,-10.704 24,-24 z"
         id="rect4289"
         inkscape:connector-curvature="0"
         sodipodi:nodetypes="sssssssss" />
      <path
         style="fill:#ececec;fill-opacity:1;stroke:none"
         d="m 640,228 0,-400 c 0,-13.296 -10.704,-24 -24,-24 l -304,0 c -13.296,0 -24,10.704 -24,24 l 0,400 c 0,13.296 10.704,24 24,24 l 304,0 c 13.296,0 24,-10.704 24,-24 z"
         id="rect4229"
         inkscape:connector-curvature="0"
         sodipodi:nodetypes="sssssssss" />
      <path
         style="opacity:0.1;fill:#ffffff;fill-opacity:1;stroke:none"
         d="m 312,-196 c -13.296,0 -24,10.704 -24,24 l 0,2 c 0,-13.296 10.704,-24 24,-24 l 304,0 c 13.296,0 24,10.704 24,24 l 0,-2 c 0,-13.296 -10.704,-24 -24,-24 l -304,0 z"
         id="rect4204"
         inkscape:connector-curvature="0" />
      <path
         id="path4570"
         d="m 100,257 0,22 c 0,2 2,2 2,2 l 26,0 -28,-24 z m 5,10.87109 L 114.48242,276 105,276 l 0,-8.12891 z"
         style="opacity:0.2;fill:#000000;fill-opacity:1;stroke:none"
         inkscape:connector-curvature="0" />
      <path
         id="path4566"
         d="m 54,265 0,14 c 0,2 2,2 2,2 l 18,0 -20,-16 z m 4,8.32227 L 62.597656,277 58,277 l 0,-3.67773 z"
         style="opacity:0.2;fill:#000000;fill-opacity:1;stroke:none"
         inkscape:connector-curvature="0" />
      <path
         style="fill:#009688;fill-opacity:1;stroke:none;opacity:0.8"
         d="m 54,264 0,14 c 0,2 2,2 2,2 l 18,0 -20,-16 z m 4,8.32227 L 62.597656,276 58,276 l 0,-3.67773 z"
         id="rect4243-5"
         inkscape:connector-curvature="0" />
      <path
         style="fill:#009688;fill-opacity:1;stroke:none;opacity:0.8"
         d="m 100,256 0,22 c 0,2 2,2 2,2 l 26,0 -28,-24 z m 5,10.87109 L 114.48242,275 105,275 l 0,-8.12891 z"
         id="rect4255-1"
         inkscape:connector-curvature="0" />
      <path
         sodipodi:nodetypes="ccccccccc"
         inkscape:connector-curvature="0"
         style="opacity:0.2;fill:#000000;fill-opacity:1;stroke:none"
         d="m 150,245 0,30 c 0,2 2,2 2,2 l 37,0 z m 7,13.85742 L 169.75,270 157,270 Z"
         id="path4228" />
      <path
         id="path4411"
         d="m 150,244 0,30 c 0,2 2,2 2,2 l 37,0 z m 7,13.85742 L 169.75,269 157,269 Z"
         style="fill:#009688;fill-opacity:1;stroke:none;opacity:0.8"
         inkscape:connector-curvature="0"
         sodipodi:nodetypes="ccccccccc" />
      <path
         style="display:inline;fill:#009688;fill-opacity:1;stroke:none;enable-background:new;opacity:0.8"
         d="m 16,269 0,13 c 0,1 1,1 1,1 l 15,0 -16,-14 z m 3,6.61133 L 24.015625,280 19,280 l 0,-4.38867 z"
         id="rect4265-9"
         inkscape:connector-curvature="0" />
      <g
         id="layer1-2"
         inkscape:label="places"
         style="display:inline"
         transform="translate(186.5001,-174.5)" />
      <g
         id="layer14"
         inkscape:label="mimetypes"
         style="display:inline"
         transform="translate(-54.5001,442.5)" />
      <g
         id="layer15"
         inkscape:label="emblems"
         style="display:inline"
         transform="translate(-54.5001,442.5)" />
      <g
         id="g71291"
         inkscape:label="emotes"
         style="display:inline"
         transform="translate(-54.5001,442.5)" />
      <g
         id="layer2"
         inkscape:label="categories"
         style="display:inline"
         transform="translate(186.5001,-24.5)" />
      <g
         id="g6058"
         inkscape:label="apps"
         style="display:inline"
         transform="translate(186.5001,-24.5)" />
      <g
         id="layer12"
         inkscape:label="actions"
         style="display:inline"
         transform="translate(-54.5001,442.5)" />
      <path
         inkscape:connector-curvature="0"
         id="path4310"
         d="m 240,-160 0,360 c 0,24 24,24 24,24 l 424,0 -448,-384 z M 320,13.9375 471.74023,144 320,144 320,13.9375 Z"
         style="opacity:0.2;fill:#000000;fill-opacity:1;stroke:none;filter:url(#filter4312)" />
      <path
         style="opacity:0.2;fill:#000000;fill-opacity:1;stroke:#000000;stroke-width:8;stroke-miterlimit:4;stroke-dasharray:none;stroke-opacity:1;filter:url(#filter4219)"
         d="m 240,-152 0,360 c 0,24 24,24 24,24 l 424,0 -448,-384 z M 320,21.9375 471.74023,152 320,152 320,21.9375 Z"
         id="path4316"
         inkscape:connector-curvature="0" />
      <path
         style="fill:#009688;fill-opacity:1;stroke:none;opacity:0.8"
         d="m 240,-164 0,360 c 0,24 24,24 24,24 l 424,0 -448,-384 z M 320,9.9375 471.74023,140 320,140 320,9.9375 Z"
         id="rect4229-5"
         inkscape:connector-curvature="0" />
      <path
         style="opacity:0.2;fill:#ffffff;fill-opacity:1;stroke:none"
         d="m 54,264 0,1 18.75,15 1.25,0 -20,-16 z m 4,12 0,1 4.597656,0 -1.25,-1 L 58,276 Z"
         id="path4514"
         inkscape:connector-curvature="0" />
      <path
         style="opacity:0.2;fill:#ffffff;fill-opacity:1;stroke:none"
         d="m 100,256 0,1 26.83398,23 1.16602,0 -28,-24 z m 5,19 0,1 9.48242,0 -1.16601,-1 L 105,275 Z"
         id="path4535"
         inkscape:connector-curvature="0" />
      <path
         id="path4629"
         d="M 688,220 685.66602,218 264,218 c 0,0 -24,0 -24,-24 l 0,2 c 0,24 24,24 24,24 l 424,0 z M 471.74023,138 320,7.9375 l 0,2 L 469.40625,138 l 2.33398,0 z"
         style="opacity:0.1;fill:#000000;fill-opacity:1;stroke:none"
         inkscape:connector-curvature="0" />
      <path
         style="opacity:0.2;fill:#ffffff;fill-opacity:1;stroke:none"
         d="m 240,-164 0,2 L 685.66602,220 688,220 240,-164 Z m 80,304 0,2 151.74023,0 -2.33398,-2 L 320,140 Z"
         id="path4615"
         inkscape:connector-curvature="0" />
      <path
         style="opacity:0.2;fill:#ffffff;fill-opacity:1;stroke:none"
         d="m 150,488 0,1 37.78125,31 1.21875,0 z m 7,25 0,1 12.75,0 -1.14453,-1 z"
         id="path4223"
         inkscape:connector-curvature="0"
         sodipodi:nodetypes="cccccccccc"
         transform="translate(0,-244)" />
    </g>
  </g>
</svg>
