<?xml version="1.0" encoding="UTF-8" standalone="no"?>
<!-- Created with Inkscape (http://www.inkscape.org/) -->

<svg
   xmlns:dc="http://purl.org/dc/elements/1.1/"
   xmlns:cc="http://creativecommons.org/ns#"
   xmlns:rdf="http://www.w3.org/1999/02/22-rdf-syntax-ns#"
   xmlns:svg="http://www.w3.org/2000/svg"
   xmlns="http://www.w3.org/2000/svg"
   xmlns:sodipodi="http://sodipodi.sourceforge.net/DTD/sodipodi-0.dtd"
   xmlns:inkscape="http://www.inkscape.org/namespaces/inkscape"
   inkscape:export-ydpi="90.000000"
   inkscape:export-xdpi="90.000000"
   width="736"
   height="544"
   id="svg11300"
   sodipodi:version="0.32"
   inkscape:version="0.91 r"
   sodipodi:docname="gnome-weather.svg"
   inkscape:output_extension="org.inkscape.output.svg.inkscape"
   version="1.0"
   style="display:inline;enable-background:new"
   inkscape:export-filename="/home/sam/paper-template.png">
  <title
     id="title3004">Paper Icon Theme Template</title>
  <sodipodi:namedview
     stroke="#ef2929"
     fill="#f57900"
     id="base"
     pagecolor="#6b6b6b"
     bordercolor="#000000"
     borderopacity="0.25490196"
     inkscape:pageopacity="0"
     inkscape:pageshadow="2"
     inkscape:zoom="1"
     inkscape:cx="143.50001"
     inkscape:cy="39.5"
     inkscape:current-layer="layer6"
     showgrid="false"
     inkscape:grid-bbox="true"
     inkscape:document-units="px"
     inkscape:showpageshadow="false"
     inkscape:window-width="1920"
     inkscape:window-height="1023"
     inkscape:window-x="0"
     inkscape:window-y="27"
     width="400px"
     height="300px"
     inkscape:snap-nodes="true"
     inkscape:snap-bbox="true"
     gridtolerance="10000"
     inkscape:object-nodes="true"
     inkscape:snap-grids="true"
     showguides="true"
     inkscape:guide-bbox="true"
     inkscape:window-maximized="1"
     inkscape:bbox-paths="true"
     inkscape:snap-bbox-midpoints="true"
     inkscape:snap-global="true"
     inkscape:object-paths="true"
     inkscape:snap-intersection-paths="true"
     inkscape:snap-smooth-nodes="true">
    <inkscape:grid
       spacingy="1px"
       spacingx="1px"
       id="grid5883"
       type="xygrid"
       enabled="true"
       visible="true"
       empspacing="4"
       snapvisiblegridlinesonly="true" />
    <inkscape:grid
       type="xygrid"
       id="grid11592"
       empspacing="2"
       visible="true"
       enabled="false"
       spacingx="0.5px"
       spacingy="0.5px"
       color="#ff0000"
       opacity="0.1254902"
       empcolor="#ff0000"
       empopacity="0.25098039"
       snapvisiblegridlinesonly="true" />
  </sodipodi:namedview>
  <defs
     id="defs3">
    <filter
       inkscape:collect="always"
       style="color-interpolation-filters:sRGB"
       id="filter4203"
       x="-0.023076923"
       width="1.0461538"
       y="-0.025"
       height="1.05">
      <feGaussianBlur
         inkscape:collect="always"
         stdDeviation="4"
         id="feGaussianBlur4205" />
    </filter>
    <filter
       inkscape:collect="always"
       style="color-interpolation-filters:sRGB"
       id="filter4213"
       x="-0.02025"
       width="1.0405"
       y="-0.029454546"
       height="1.0589091">
      <feGaussianBlur
         inkscape:collect="always"
         stdDeviation="2.97"
         id="feGaussianBlur4215" />
    </filter>
  </defs>
  <metadata
     id="metadata4">
    <rdf:RDF>
      <cc:Work
         rdf:about="">
        <dc:format>image/svg+xml</dc:format>
        <dc:type
           rdf:resource="http://purl.org/dc/dcmitype/StillImage" />
        <dc:creator>
          <cc:Agent>
            <dc:title>Sam Hewitt</dc:title>
          </cc:Agent>
        </dc:creator>
        <dc:source />
        <cc:license
           rdf:resource="http://creativecommons.org/licenses/by-sa/3.0/" />
        <dc:title>Paper Icon Theme Template</dc:title>
        <dc:subject>
          <rdf:Bag />
        </dc:subject>
        <dc:date />
        <dc:rights>
          <cc:Agent>
            <dc:title />
          </cc:Agent>
        </dc:rights>
        <dc:publisher>
          <cc:Agent>
            <dc:title />
          </cc:Agent>
        </dc:publisher>
        <dc:identifier />
        <dc:relation />
        <dc:language />
        <dc:coverage />
        <dc:description />
        <dc:contributor>
          <cc:Agent>
            <dc:title />
          </cc:Agent>
        </dc:contributor>
      </cc:Work>
      <cc:Work
         rdf:about="">
        <dc:format>image/svg+xml</dc:format>
        <dc:type
           rdf:resource="http://purl.org/dc/dcmitype/StillImage" />
      </cc:Work>
      <cc:License
         rdf:about="http://creativecommons.org/licenses/by-sa/3.0/">
        <cc:permits
           rdf:resource="http://creativecommons.org/ns#Reproduction" />
        <cc:permits
           rdf:resource="http://creativecommons.org/ns#Distribution" />
        <cc:requires
           rdf:resource="http://creativecommons.org/ns#Notice" />
        <cc:requires
           rdf:resource="http://creativecommons.org/ns#Attribution" />
        <cc:permits
           rdf:resource="http://creativecommons.org/ns#DerivativeWorks" />
        <cc:requires
           rdf:resource="http://creativecommons.org/ns#ShareAlike" />
      </cc:License>
    </rdf:RDF>
  </metadata>
  <g
     style="display:inline"
     inkscape:groupmode="layer"
     inkscape:label="Icon"
     id="layer1"
     transform="translate(0,244)">
    <g
       style="display:none"
       inkscape:label="Baseplate"
       id="layer7"
       inkscape:groupmode="layer">
      <text
         y="337.74512"
         xml:space="preserve"
         x="15.006836"
         style="font-style:normal;font-variant:normal;font-weight:normal;font-stretch:normal;font-size:18px;font-family:'DejaVu Sans';-inkscape-font-specification:'DejaVu Sans';display:inline;fill:#000000;fill-opacity:1;stroke:none;enable-background:new"
         inkscape:label="context"
         id="context"><tspan
           style="font-style:normal;font-variant:normal;font-weight:normal;font-stretch:normal;font-family:'DejaVu Sans';-inkscape-font-specification:'DejaVu Sans'"
           y="337.74512"
           x="15.006836"
           sodipodi:role="line"
           id="tspan3933">apps</tspan></text>
      <text
         y="337.74512"
         xml:space="preserve"
         x="142.48828"
         style="font-style:normal;font-variant:normal;font-weight:bold;font-stretch:normal;font-size:18px;line-height:125%;font-family:'DejaVu Sans';-inkscape-font-specification:'DejaVu Sans Bold';text-align:start;writing-mode:lr-tb;text-anchor:start;display:inline;fill:#000000;fill-opacity:1;stroke:none;enable-background:new"
         sodipodi:linespacing="125%"
         inkscape:label="icon-name"
         id="icon-name"><tspan
           style="font-style:normal;font-variant:normal;font-weight:bold;font-stretch:normal;font-size:18px;font-family:'DejaVu Sans';-inkscape-font-specification:'DejaVu Sans Bold'"
           y="337.74512"
           x="142.48828"
           sodipodi:role="line"
           id="tspan3937">gnome-weather</tspan></text>
      <rect
         style="display:inline;overflow:visible;visibility:visible;fill:#d3d7cf;fill-opacity:1;fill-rule:nonzero;stroke:none;stroke-width:2;marker:none;enable-background:accumulate"
         id="rect16x16"
         width="16"
         height="16"
         x="-32"
         y="268"
         inkscape:label="16x16"
         transform="scale(-1,1)" />
      <rect
         style="display:inline;overflow:visible;visibility:visible;fill:#d3d7cf;fill-opacity:1;fill-rule:nonzero;stroke:none;stroke-width:2;marker:none;enable-background:accumulate"
         id="rect24x24"
         width="24"
         height="24"
         x="-76"
         y="260"
         inkscape:label="24x24"
         transform="scale(-1,1)" />
      <rect
         style="display:inline;overflow:visible;visibility:visible;fill:#d3d7cf;fill-opacity:1;fill-rule:nonzero;stroke:none;stroke-width:2;marker:none;enable-background:accumulate"
         id="rect32x32"
         width="32"
         height="32"
         x="-128"
         y="252"
         inkscape:label="32x32"
         transform="scale(-1,1)" />
      <rect
         inkscape:label="48x48"
         y="236"
         x="-192"
         height="48"
         width="48"
         id="rect48x48"
         style="display:inline;overflow:visible;visibility:visible;fill:#d3d7cf;fill-opacity:1;fill-rule:nonzero;stroke:none;stroke-width:2;marker:none;enable-background:accumulate"
         transform="scale(-1,1)" />
      <rect
         style="display:inline;overflow:visible;visibility:visible;fill:#d3d7cf;fill-opacity:1;fill-rule:nonzero;stroke:none;stroke-width:2;marker:none;enable-background:accumulate"
         id="rect3951"
         width="512"
         height="512"
         x="-720"
         y="-228"
         inkscape:label="48x48"
         transform="scale(-1,1)" />
    </g>
    <g
       inkscape:groupmode="layer"
       id="layer6"
       inkscape:label="Symbols"
       style="display:inline">
      <path
         inkscape:connector-curvature="0"
         id="path4207"
         d="m 416,-192 -8,16 16,0 -8,-16 z m 0,32 A 176,176 0 0 0 240,16 176,176 0 0 0 416,192 176,176 0 0 0 592,16 176,176 0 0 0 416,-160 Z m -147.07813,28.92188 5.65625,16.9707 11.31446,-11.31446 -16.9707,-5.65624 z m 294.15625,0 -16.9707,5.65624 11.31446,11.31446 5.65624,-16.9707 z M 223.99999,8 l -16,8 16,8 0,-16 z m 384,0 0,16 16,-8 -16,-8 z m -333.42187,138.10742 -5.65624,16.9707 16.9707,-5.65624 -11.31446,-11.31446 z"
         style="display:inline;opacity:0.1;fill:#000000;fill-opacity:1;stroke:none;stroke-width:32;stroke-linecap:round;stroke-linejoin:round;stroke-miterlimit:4;stroke-dasharray:none;stroke-opacity:1;enable-background:new;filter:url(#filter4203)" />
      <path
         style="display:inline;opacity:0.2;fill:#000000;fill-opacity:1;stroke:none;stroke-width:32;stroke-linecap:round;stroke-linejoin:round;stroke-miterlimit:4;stroke-dasharray:none;stroke-opacity:1;enable-background:new;filter:url(#filter4203)"
         d="m 416,-192 -8,16 16,0 -8,-16 z m 0,32 A 176,176 0 0 0 240,16 176,176 0 0 0 416,192 176,176 0 0 0 592,16 176,176 0 0 0 416,-160 Z m -147.07813,28.92188 5.65625,16.9707 11.31446,-11.31446 -16.9707,-5.65624 z m 294.15625,0 -16.9707,5.65624 11.31446,11.31446 5.65624,-16.9707 z M 223.99999,8 l -16,8 16,8 0,-16 z m 384,0 0,16 16,-8 -16,-8 z m -333.42187,138.10742 -5.65624,16.9707 16.9707,-5.65624 -11.31446,-11.31446 z"
         id="path4201"
         inkscape:connector-curvature="0" />
      <path
         inkscape:connector-curvature="0"
         id="path3399"
         d="m 416,-194 -8,16 16,0 -8,-16 z m 0,32 A 176,176 0 0 0 240,14 176,176 0 0 0 416,190 176,176 0 0 0 592,14 176,176 0 0 0 416,-162 Z m -147.07813,28.92188 5.65625,16.9707 11.31446,-11.31446 -16.9707,-5.65624 z m 294.15625,0 -16.9707,5.65624 11.31446,11.31446 5.65624,-16.9707 z M 223.99999,6 l -16,8 16,8 0,-16 z m 384,0 0,16 16,-8 -16,-8 z m -333.42187,138.10742 -5.65624,16.9707 16.9707,-5.65624 -11.31446,-11.31446 z"
         style="display:inline;opacity:0.2;fill:#000000;fill-opacity:1;stroke:none;stroke-width:32;stroke-linecap:round;stroke-linejoin:round;stroke-miterlimit:4;stroke-dasharray:none;stroke-opacity:1;enable-background:new" />
      <circle
         r="8"
         cy="271"
         cx="62"
         id="circle3387"
         style="display:inline;opacity:0.2;fill:#000000;fill-opacity:1;stroke:none;stroke-width:32;stroke-linecap:round;stroke-linejoin:round;stroke-miterlimit:4;stroke-dasharray:none;stroke-opacity:1;enable-background:new" />
      <circle
         r="10"
         cy="266"
         cx="109.00002"
         id="circle3389"
         style="display:inline;opacity:0.2;fill:#000000;fill-opacity:1;stroke:none;stroke-width:32;stroke-linecap:round;stroke-linejoin:round;stroke-miterlimit:4;stroke-dasharray:none;stroke-opacity:1;enable-background:new" />
      <circle
         r="16"
         cy="257"
         cx="164"
         id="circle3391"
         style="display:inline;opacity:0.2;fill:#000000;fill-opacity:1;stroke:none;stroke-width:32;stroke-linecap:round;stroke-linejoin:round;stroke-miterlimit:4;stroke-dasharray:none;stroke-opacity:1;enable-background:new" />
      <circle
         style="display:inline;opacity:1;fill:#f9ce1d;fill-opacity:1;stroke:none;stroke-width:32;stroke-linecap:round;stroke-linejoin:round;stroke-miterlimit:4;stroke-dasharray:none;stroke-opacity:1;enable-background:new"
         id="path4886"
         cx="62"
         cy="270"
         r="8" />
      <circle
         style="display:inline;opacity:1;fill:#f9ce1d;fill-opacity:1;stroke:none;stroke-width:32;stroke-linecap:round;stroke-linejoin:round;stroke-miterlimit:4;stroke-dasharray:none;stroke-opacity:1;enable-background:new"
         id="path4884"
         cx="22"
         cy="274"
         r="5" />
      <circle
         style="display:inline;opacity:1;fill:#f9ce1d;fill-opacity:1;stroke:none;stroke-width:32;stroke-linecap:round;stroke-linejoin:round;stroke-miterlimit:4;stroke-dasharray:none;stroke-opacity:1;enable-background:new"
         id="path4882"
         cx="109.00002"
         cy="265"
         r="10" />
      <circle
         style="display:inline;opacity:1;fill:#f9ce1d;fill-opacity:1;stroke:none;stroke-width:32;stroke-linecap:round;stroke-linejoin:round;stroke-miterlimit:4;stroke-dasharray:none;stroke-opacity:1;enable-background:new"
         id="path4880"
         cx="164"
         cy="256"
         r="16" />
      <path
         style="display:inline;opacity:1;fill:#f9ce1d;fill-opacity:1;stroke:none;stroke-width:32;stroke-linecap:round;stroke-linejoin:round;stroke-miterlimit:4;stroke-dasharray:none;stroke-opacity:1;enable-background:new"
         d="m 416,-196 -8,16 16,0 -8,-16 z m 0,32 A 176,176 0 0 0 240,12 176,176 0 0 0 416,188 176,176 0 0 0 592,12 176,176 0 0 0 416,-164 Z m -147.07813,28.92188 5.65625,16.9707 11.31446,-11.31446 -16.9707,-5.65624 z m 294.15625,0 -16.9707,5.65624 11.31446,11.31446 5.65624,-16.9707 z M 223.99999,4 l -16,8 16,8 0,-16 z m 384,0 0,16 16,-8 -16,-8 z m -333.42187,138.10742 -5.65624,16.9707 16.9707,-5.65624 -11.31446,-11.31446 z"
         id="path4878"
         inkscape:connector-curvature="0" />
      <path
         sodipodi:nodetypes="scsssscs"
         id="path4508"
         d="m 26.000002,274.75 c -1.553303,0 -2.876033,0.95094 -3.445313,2.29688 -1.445872,0.21495 -2.554687,1.44744 -2.554687,2.95312 0,1.65686 1.343145,3 3,3 l 6.375,0 c 1.44975,0 2.625,-1.17525 2.625,-2.625 0,-1.3474 -1.013093,-2.45152 -2.320313,-2.60155 C 29.338762,276.05339 27.820154,274.75 26.000002,274.75 Z"
         style="display:inline;fill:#e6e6e6;fill-opacity:1;stroke:none;enable-background:new"
         inkscape:connector-curvature="0" />
      <path
         inkscape:connector-curvature="0"
         style="display:inline;fill:#000000;fill-opacity:1;stroke:none;enable-background:new;opacity:0.2"
         d="m 512.00004,12.00005 c -45.56365,0 -84.36372,27.89424 -101.06238,67.375 -42.41238,6.3052 -74.93762,42.45824 -74.93762,86.625 0,48.60108 39.39892,88 88,88 l 187.00001,0 c 42.52611,0 77,-34.47389 77,-77 0,-39.52388 -29.71749,-71.9114 -68.06261,-76.31251 C 609.937,50.23297 565.39107,12.00005 512.00003,12.00005 Z"
         id="path4209"
         sodipodi:nodetypes="scsssscs" />
      <path
         sodipodi:nodetypes="scsssscs"
         id="path4211"
         d="m 512.00004,14.00005 c -45.56365,0 -84.36372,27.89424 -101.06238,67.375 -42.41238,6.3052 -74.93762,42.45824 -74.93762,86.625 0,48.60108 39.39892,88 88,88 l 187.00001,0 c 42.52611,0 77,-34.47389 77,-77 0,-39.52388 -29.71749,-71.9114 -68.06261,-76.31251 C 609.937,52.23297 565.39107,14.00005 512.00003,14.00005 Z"
         style="display:inline;opacity:0.2;fill:#000000;fill-opacity:1;stroke:none;filter:url(#filter4213);enable-background:new"
         inkscape:connector-curvature="0" />
      <path
         inkscape:connector-curvature="0"
         style="display:inline;opacity:0.1;fill:#000000;fill-opacity:1;stroke:#000000;filter:url(#filter4213);enable-background:new;stroke-opacity:1;stroke-width:8;stroke-miterlimit:4;stroke-dasharray:none"
         d="m 512.00004,14.00005 c -45.56365,0 -84.36372,27.89424 -101.06238,67.375 -42.41238,6.3052 -74.93762,42.45824 -74.93762,86.625 0,48.60108 39.39892,88 88,88 l 187.00001,0 c 42.52611,0 77,-34.47389 77,-77 0,-39.52388 -29.71749,-71.9114 -68.06261,-76.31251 C 609.937,52.23297 565.39107,14.00005 512.00003,14.00005 Z"
         id="path4217"
         sodipodi:nodetypes="scsssscs" />
      <path
         sodipodi:nodetypes="scsssscs"
         id="path4554"
         d="m 512.00004,10.00005 c -45.56365,0 -84.36372,27.89424 -101.06238,67.375 -42.41238,6.3052 -74.93762,42.45824 -74.93762,86.625 0,48.60108 39.39892,88 88,88 l 187.00001,0 c 42.52611,0 77,-34.47389 77,-77 0,-39.52388 -29.71749,-71.9114 -68.06261,-76.31251 C 609.937,48.23297 565.39107,10.00005 512.00003,10.00005 Z"
         style="display:inline;fill:#e6e6e6;fill-opacity:1;stroke:none;enable-background:new"
         inkscape:connector-curvature="0" />
      <path
         style="display:inline;opacity:0.2;fill:#ffffff;fill-opacity:1;stroke:none;enable-background:new"
         d="M 512,10 C 466.43635,10 427.63616,37.89424 410.9375,77.375 368.52512,83.6802 336,119.83324 336,164 c 0,0.42703 0.01,0.85175 0.0156,1.27734 C 336.36977,121.44091 368.75774,85.64562 410.93747,79.375 427.63616,39.89424 466.43635,12 512,12 c 53.39103,0 97.93707,38.23293 107.9375,88.6875 38.11514,4.37471 67.69328,36.40449 68.04688,75.60547 0.007,-0.43041 0.0156,-0.86087 0.0156,-1.29297 0,-39.52388 -29.71738,-71.91139 -68.0625,-76.3125 C 609.93707,48.23293 565.39103,10 512,10 Z"
         id="path4896"
         inkscape:connector-curvature="0" />
      <path
         style="display:inline;opacity:0.2;fill:#ffffff;fill-opacity:1;stroke:none;stroke-width:32;stroke-linecap:round;stroke-linejoin:round;stroke-miterlimit:4;stroke-dasharray:none;stroke-opacity:1;enable-background:new"
         d="m 416,-196 -8,16 1,0 7,-14 7,14 1,0 -8,-16 z m 0,32 A 176,176 0 0 0 240,12 176,176 0 0 0 240.041,12.83008 176,176 0 0 1 416,-162 176,176 0 0 1 591.95898,13.16992 176,176 0 0 0 591.99998,12 a 176,176 0 0 0 -176,-176 z m -147.07813,28.92188 0.75,2.25 14.72071,4.90624 1.5,-1.5 -16.9707,-5.65624 z m 294.15625,0 -16.9707,5.65624 1.5,1.5 14.7207,-4.90624 0.75,-2.25 z M 223.99999,4 l -16,8 2,1 14,-7 0,-2 z m 384,0 0,2 14,7 2,-1 -16,-8 z m -333.42187,138.10742 -5.65624,16.9707 0.75,-0.25 4.90624,-14.7207 9.81446,9.81446 1.5,-0.5 -11.31446,-11.31446 z"
         id="path4902"
         inkscape:connector-curvature="0" />
      <path
         style="display:inline;opacity:0.2;fill:#ffffff;fill-opacity:1;stroke:none;stroke-width:32;stroke-linecap:round;stroke-linejoin:round;stroke-miterlimit:4;stroke-dasharray:none;stroke-opacity:1;enable-background:new"
         d="m 62.000002,262 a 8,8 0 0 0 -8,8 8,8 0 0 0 0.02148,0.57617 8,8 0 0 1 7.97852,-7.57617 8,8 0 0 1 7.978516,7.42383 8,8 0 0 0 0.02148,-0.42383 8,8 0 0 0 -8,-8 z"
         id="circle4913"
         inkscape:connector-curvature="0" />
      <path
         style="display:inline;opacity:0.2;fill:#ffffff;fill-opacity:1;stroke:none;stroke-width:32;stroke-linecap:round;stroke-linejoin:round;stroke-miterlimit:4;stroke-dasharray:none;stroke-opacity:1;enable-background:new"
         d="m 109,255 a 10,10 0 0 0 -9.999998,10 10,10 0 0 0 0.02148,0.58594 A 10,10 0 0 1 109,256 a 10,10 0 0 1 9.97852,9.41406 10,10 0 0 0 0.0215,-0.41406 10,10 0 0 0 -10,-10 z"
         id="circle4915"
         inkscape:connector-curvature="0" />
      <path
         style="display:inline;opacity:0.2;fill:#ffffff;fill-opacity:1;stroke:none;stroke-width:32;stroke-linecap:round;stroke-linejoin:round;stroke-miterlimit:4;stroke-dasharray:none;stroke-opacity:1;enable-background:new"
         d="m 164,240 a 16,16 0 0 0 -16,16 16,16 0 0 0 0.0215,0.58008 A 16,16 0 0 1 164,241 16,16 0 0 1 179.97853,256.41992 16,16 0 0 0 180.00003,256 16,16 0 0 0 164.00002,240 Z"
         id="circle4917"
         inkscape:connector-curvature="0" />
      <path
         sodipodi:nodetypes="scsssscs"
         id="path3397"
         d="m 172,257 c -4.14215,0 -7.66943,2.53584 -9.18749,6.125 C 158.95684,263.6982 156,266.98484 156,271 c 0,4.41828 3.58172,8 8,8 l 17.00001,0 c 3.866,0 7,-3.13399 7,-7 0,-3.59308 -2.7016,-6.5374 -6.18751,-6.9375 C 180.90337,260.47572 176.85373,257 172,257 Z"
         style="display:inline;opacity:0.2;fill:#000000;fill-opacity:1;stroke:none;enable-background:new"
         inkscape:connector-curvature="0" />
      <path
         inkscape:connector-curvature="0"
         style="display:inline;fill:#e6e6e6;fill-opacity:1;stroke:none;enable-background:new"
         d="m 172,256 c -4.14215,0 -7.66943,2.53584 -9.18749,6.125 C 158.95684,262.6982 156,265.98484 156,270 c 0,4.41828 3.58172,8 8,8 l 17.00001,0 c 3.866,0 7,-3.13399 7,-7 0,-3.59308 -2.7016,-6.5374 -6.18751,-6.9375 C 180.90337,259.47572 176.85373,256 172,256 Z"
         id="path4540"
         sodipodi:nodetypes="scsssscs" />
      <path
         inkscape:connector-curvature="0"
         style="display:inline;opacity:0.5;fill:#ffffff;fill-opacity:1;stroke:none;enable-background:new"
         d="m 172,256 c -4.14215,0 -7.66944,2.53584 -9.1875,6.125 C 158.95683,262.6982 156,265.98484 156,270 c 0,0.15883 0.0143,0.31416 0.0234,0.4707 0.24732,-3.77102 3.10479,-6.79798 6.78906,-7.3457 1.51806,-3.58916 5.04535,-6.125 9.1875,-6.125 4.85373,0 8.90338,3.47572 9.81251,8.0625 3.31404,0.38037 5.91326,3.0614 6.16211,6.41211 0.0106,-0.15774 0.0254,-0.31417 0.0254,-0.47461 0,-3.59308 -2.70158,-6.5374 -6.1875,-6.9375 C 180.90338,259.47572 176.85373,256 172,256 Z"
         id="path4027" />
      <path
         inkscape:connector-curvature="0"
         style="display:inline;opacity:0.2;fill:#000000;fill-opacity:1;stroke:none;enable-background:new"
         d="m 115,265.875 c -2.84773,0 -5.27273,1.74339 -6.3164,4.21094 C 106.03283,270.48001 104,272.73958 104,275.5 c 0,3.03757 2.46243,5.5 5.5,5.5 l 11.6875,0 c 2.65788,0 4.8125,-2.15462 4.8125,-4.8125 0,-2.47024 -1.85734,-4.49446 -4.25391,-4.76953 C 121.12106,268.26456 118.33694,265.875 115,265.875 Z"
         id="path3395"
         sodipodi:nodetypes="scsssscs" />
      <path
         sodipodi:nodetypes="scsssscs"
         id="path4533"
         d="m 115,264.875 c -2.84773,0 -5.27273,1.74339 -6.3164,4.21094 C 106.03283,269.48001 104,271.73958 104,274.5 c 0,3.03757 2.46243,5.5 5.5,5.5 l 11.6875,0 c 2.65788,0 4.8125,-2.15462 4.8125,-4.8125 0,-2.47024 -1.85734,-4.49446 -4.25391,-4.76953 C 121.12106,267.26456 118.33694,264.875 115,264.875 Z"
         style="display:inline;fill:#e6e6e6;fill-opacity:1;stroke:none;enable-background:new"
         inkscape:connector-curvature="0" />
      <path
         inkscape:connector-curvature="0"
         style="display:inline;opacity:0.5;fill:#ffffff;fill-opacity:1;stroke:none;enable-background:new"
         d="m 115,264.875 c -2.84773,0 -5.27274,1.74339 -6.31641,4.21094 C 106.03282,269.48001 104,271.73958 104,274.5 c 0,0.20473 0.0134,0.40654 0.0352,0.60547 0.18562,-2.576 2.1271,-4.64471 4.64843,-5.01953 1.04367,-2.46755 3.46868,-4.21094 6.31641,-4.21094 3.33694,0 6.12106,2.38956 6.74609,5.54297 2.22408,0.25527 3.9633,2.02341 4.20508,4.25 0.0161,-0.16022 0.0488,-0.31601 0.0488,-0.48047 0,-2.47024 -1.85734,-4.49446 -4.25391,-4.76953 -0.62503,-3.15341 -3.40915,-5.54297 -6.74609,-5.54297 z"
         id="path4032" />
      <path
         sodipodi:nodetypes="scsssscs"
         id="path3393"
         d="m 67.000002,272 c -2.07107,0 -3.83471,1.26792 -4.59375,3.0625 -1.92783,0.2866 -3.40625,1.92992 -3.40625,3.9375 0,2.20914 1.79086,4 4,4 l 8.5,0 c 1.933,0 3.5,-1.567 3.5,-3.5 0,-1.79654 -1.35079,-3.2687 -3.09375,-3.46875 C 71.451682,273.73786 69.426872,272 67.000002,272 Z"
         style="display:inline;opacity:0.2;fill:#000000;fill-opacity:1;stroke:none;enable-background:new"
         inkscape:connector-curvature="0" />
      <path
         inkscape:connector-curvature="0"
         style="display:inline;fill:#e6e6e6;fill-opacity:1;stroke:none;enable-background:new"
         d="m 67.000002,271 c -2.07107,0 -3.83471,1.26792 -4.59375,3.0625 -1.92783,0.2866 -3.40625,1.92992 -3.40625,3.9375 0,2.20914 1.79086,4 4,4 l 8.5,0 c 1.933,0 3.5,-1.567 3.5,-3.5 0,-1.79654 -1.35079,-3.2687 -3.09375,-3.46875 C 71.451682,272.73786 69.426872,271 67.000002,271 Z"
         id="path5884"
         sodipodi:nodetypes="scsssscs" />
      <path
         inkscape:connector-curvature="0"
         style="display:inline;opacity:0.5;fill:#ffffff;fill-opacity:1;stroke:none;enable-background:new"
         d="m 67.000002,271 c -2.07107,0 -3.83471,1.26792 -4.59375,3.0625 -1.92783,0.2866 -3.40625,1.92992 -3.40625,3.9375 0,0.16117 0.0303,0.31452 0.04883,0.4707 0.234825,-1.75962 1.603305,-3.14742 3.357422,-3.4082 0.759038,-1.79458 2.522678,-3.0625 4.593748,-3.0625 2.42687,0 4.45168,1.73786 4.90625,4.03125 1.570452,0.18025 2.812461,1.39671 3.044922,2.94922 0.02201,-0.15863 0.04883,-0.31579 0.04883,-0.48047 0,-1.79654 -1.35079,-3.2687 -3.09375,-3.46875 C 71.451684,272.73786 69.426874,271 67.000004,271 Z"
         id="path4037" />
    </g>
  </g>
</svg>
