<?xml version="1.0" encoding="UTF-8" standalone="no"?>
<!-- Created with Inkscape (http://www.inkscape.org/) -->

<svg
   xmlns:dc="http://purl.org/dc/elements/1.1/"
   xmlns:cc="http://creativecommons.org/ns#"
   xmlns:rdf="http://www.w3.org/1999/02/22-rdf-syntax-ns#"
   xmlns:svg="http://www.w3.org/2000/svg"
   xmlns="http://www.w3.org/2000/svg"
   xmlns:xlink="http://www.w3.org/1999/xlink"
   xmlns:sodipodi="http://sodipodi.sourceforge.net/DTD/sodipodi-0.dtd"
   xmlns:inkscape="http://www.inkscape.org/namespaces/inkscape"
   inkscape:export-ydpi="90.000000"
   inkscape:export-xdpi="90.000000"
   width="736"
   height="544"
   id="svg11300"
   sodipodi:version="0.32"
   inkscape:version="0.91 r13725"
   sodipodi:docname="guake.svg"
   inkscape:output_extension="org.inkscape.output.svg.inkscape"
   version="1.0"
   style="display:inline;enable-background:new"
   inkscape:export-filename="/home/sam/paper-template.png">
  <title
     id="title3004">Paper Icon Theme Template</title>
  <sodipodi:namedview
     stroke="#ef2929"
     fill="#f57900"
     id="base"
     pagecolor="#272727"
     bordercolor="#000000"
     borderopacity="0.25490196"
     inkscape:pageopacity="0"
     inkscape:pageshadow="2"
     inkscape:zoom="1"
     inkscape:cx="197.76635"
     inkscape:cy="735.45621"
     inkscape:current-layer="g4217"
     showgrid="false"
     inkscape:grid-bbox="true"
     inkscape:document-units="px"
     inkscape:showpageshadow="false"
     inkscape:window-width="1920"
     inkscape:window-height="1019"
     inkscape:window-x="0"
     inkscape:window-y="27"
     width="400px"
     height="300px"
     inkscape:snap-nodes="true"
     inkscape:snap-bbox="true"
     gridtolerance="10000"
     inkscape:object-nodes="true"
     inkscape:snap-grids="true"
     showguides="true"
     inkscape:guide-bbox="true"
     inkscape:window-maximized="1"
     inkscape:bbox-paths="true"
     inkscape:snap-bbox-midpoints="true"
     inkscape:snap-global="true"
     inkscape:object-paths="true"
     inkscape:snap-intersection-paths="true"
     inkscape:snap-smooth-nodes="true">
    <inkscape:grid
       spacingy="1px"
       spacingx="1px"
       id="grid5883"
       type="xygrid"
       enabled="true"
       visible="true"
       empspacing="4"
       snapvisiblegridlinesonly="true" />
    <inkscape:grid
       type="xygrid"
       id="grid11592"
       empspacing="2"
       visible="true"
       enabled="false"
       spacingx="0.5px"
       spacingy="0.5px"
       color="#ff0000"
       opacity="0.1254902"
       empcolor="#ff0000"
       empopacity="0.25098039"
       snapvisiblegridlinesonly="true" />
  </sodipodi:namedview>
  <defs
     id="defs3">
    <filter
       inkscape:collect="always"
       style="color-interpolation-filters:sRGB"
       id="filter4486"
       x="-0.022714332"
       width="1.0454288"
       y="-0.025439942"
       height="1.05088">
      <feGaussianBlur
         inkscape:collect="always"
         stdDeviation="4.2399902"
         id="feGaussianBlur4488" />
    </filter>
    <filter
       inkscape:collect="always"
       style="color-interpolation-filters:sRGB"
       id="filter4297"
       x="-0.0215"
       width="1.043"
       y="-0.027157895"
       height="1.0543158">
      <feGaussianBlur
         inkscape:collect="always"
         stdDeviation="3.44"
         id="feGaussianBlur4299" />
    </filter>
    <filter
       inkscape:collect="always"
       style="color-interpolation-filters:sRGB"
       id="filter4360-0"
       x="-0.059999999"
       width="1.12"
       y="-0.059999999"
       height="1.12">
      <feGaussianBlur
         inkscape:collect="always"
         stdDeviation="0.6"
         id="feGaussianBlur4362-0" />
    </filter>
    <filter
       inkscape:collect="always"
       style="color-interpolation-filters:sRGB"
       id="filter4253-6"
       x="-0.059999999"
       width="1.12"
       y="-0.059999999"
       height="1.12">
      <feGaussianBlur
         inkscape:collect="always"
         stdDeviation="6"
         id="feGaussianBlur4255-2" />
    </filter>
  </defs>
  <metadata
     id="metadata4">
    <rdf:RDF>
      <cc:Work
         rdf:about="">
        <dc:format>image/svg+xml</dc:format>
        <dc:type
           rdf:resource="http://purl.org/dc/dcmitype/StillImage" />
        <dc:creator>
          <cc:Agent>
            <dc:title>Sam Hewitt</dc:title>
          </cc:Agent>
        </dc:creator>
        <dc:source />
        <cc:license
           rdf:resource="http://creativecommons.org/licenses/by-sa/3.0/" />
        <dc:title>Paper Icon Theme Template</dc:title>
        <dc:subject>
          <rdf:Bag />
        </dc:subject>
        <dc:date />
        <dc:rights>
          <cc:Agent>
            <dc:title />
          </cc:Agent>
        </dc:rights>
        <dc:publisher>
          <cc:Agent>
            <dc:title />
          </cc:Agent>
        </dc:publisher>
        <dc:identifier />
        <dc:relation />
        <dc:language />
        <dc:coverage />
        <dc:description />
        <dc:contributor>
          <cc:Agent>
            <dc:title />
          </cc:Agent>
        </dc:contributor>
      </cc:Work>
      <cc:Work
         rdf:about="">
        <dc:format>image/svg+xml</dc:format>
        <dc:type
           rdf:resource="http://purl.org/dc/dcmitype/StillImage" />
      </cc:Work>
      <cc:License
         rdf:about="http://creativecommons.org/licenses/by-sa/3.0/">
        <cc:permits
           rdf:resource="http://creativecommons.org/ns#Reproduction" />
        <cc:permits
           rdf:resource="http://creativecommons.org/ns#Distribution" />
        <cc:requires
           rdf:resource="http://creativecommons.org/ns#Notice" />
        <cc:requires
           rdf:resource="http://creativecommons.org/ns#Attribution" />
        <cc:permits
           rdf:resource="http://creativecommons.org/ns#DerivativeWorks" />
        <cc:requires
           rdf:resource="http://creativecommons.org/ns#ShareAlike" />
      </cc:License>
    </rdf:RDF>
  </metadata>
  <g
     style="display:inline"
     inkscape:groupmode="layer"
     inkscape:label="guake"
     id="layer1"
     transform="translate(0,244)">
    <g
       style="display:none"
       inkscape:label="Baseplate"
       id="layer7"
       inkscape:groupmode="layer">
      <text
         y="337.74512"
         xml:space="preserve"
         x="15.006836"
         style="font-style:normal;font-variant:normal;font-weight:normal;font-stretch:normal;font-size:18px;font-family:'DejaVu Sans';-inkscape-font-specification:'DejaVu Sans';display:inline;fill:#000000;fill-opacity:1;stroke:none;enable-background:new"
         inkscape:label="context"
         id="context"><tspan
           style="font-style:normal;font-variant:normal;font-weight:normal;font-stretch:normal;font-family:'DejaVu Sans';-inkscape-font-specification:'DejaVu Sans'"
           y="337.74512"
           x="15.006836"
           sodipodi:role="line"
           id="tspan3933">apps</tspan></text>
      <text
         y="337.74512"
         xml:space="preserve"
         x="142.48828"
         style="font-style:normal;font-variant:normal;font-weight:bold;font-stretch:normal;font-size:18px;line-height:125%;font-family:'DejaVu Sans';-inkscape-font-specification:'DejaVu Sans Bold';text-align:start;writing-mode:lr-tb;text-anchor:start;display:inline;fill:#000000;fill-opacity:1;stroke:none;enable-background:new"
         sodipodi:linespacing="125%"
         inkscape:label="icon-name"
         id="icon-name"><tspan
           style="font-style:normal;font-variant:normal;font-weight:bold;font-stretch:normal;font-size:18px;font-family:'DejaVu Sans';-inkscape-font-specification:'DejaVu Sans Bold'"
           y="337.74512"
           x="142.48828"
           sodipodi:role="line"
           id="tspan3937">guake</tspan></text>
      <rect
         style="display:inline;overflow:visible;visibility:visible;fill:#d3d7cf;fill-opacity:1;fill-rule:nonzero;stroke:none;stroke-width:2;marker:none;enable-background:accumulate"
         id="rect16x16"
         width="16"
         height="16"
         x="-32"
         y="268"
         inkscape:label="16x16"
         transform="scale(-1,1)" />
      <rect
         style="display:inline;overflow:visible;visibility:visible;fill:#d3d7cf;fill-opacity:1;fill-rule:nonzero;stroke:none;stroke-width:2;marker:none;enable-background:accumulate"
         id="rect24x24"
         width="24"
         height="24"
         x="-76"
         y="260"
         inkscape:label="24x24"
         transform="scale(-1,1)" />
      <rect
         style="display:inline;overflow:visible;visibility:visible;fill:#d3d7cf;fill-opacity:1;fill-rule:nonzero;stroke:none;stroke-width:2;marker:none;enable-background:accumulate"
         id="rect32x32"
         width="32"
         height="32"
         x="-128"
         y="252"
         inkscape:label="32x32"
         transform="scale(-1,1)" />
      <rect
         inkscape:label="48x48"
         y="236"
         x="-192"
         height="48"
         width="48"
         id="rect48x48"
         style="display:inline;overflow:visible;visibility:visible;fill:#d3d7cf;fill-opacity:1;fill-rule:nonzero;stroke:none;stroke-width:2;marker:none;enable-background:accumulate"
         transform="scale(-1,1)" />
      <rect
         style="display:inline;overflow:visible;visibility:visible;fill:#d3d7cf;fill-opacity:1;fill-rule:nonzero;stroke:none;stroke-width:2;marker:none;enable-background:accumulate"
         id="rect3951"
         width="512"
         height="512"
         x="-720"
         y="-228"
         inkscape:label="48x48"
         transform="scale(-1,1)" />
    </g>
    <g
       inkscape:groupmode="layer"
       id="layer6"
       inkscape:label="Symbols"
       style="display:inline">
      <g
         id="g4308">
        <path
           style="opacity:0.1;fill:#000000;fill-opacity:1;stroke:none;filter:url(#filter4486)"
           d="m 264.00195,-160 c -13.296,0 -24,10.704 -24,24 l 0,24 0,328 c 0,13.296 10.704,24 24,24 L 664,240 c 13.296,0 24,-10.704 24,-24 l 0,-328 0,-24 c 0,-13.296 -10.704,-24 -24,-24 l -399.99805,0 z"
           id="path4490"
           inkscape:connector-curvature="0" />
        <path
           inkscape:connector-curvature="0"
           id="path4484"
           d="m 264.00195,-160 c -13.296,0 -24,10.704 -24,24 l 0,24 0,328 c 0,13.296 10.704,24 24,24 L 664,240 c 13.296,0 24,-10.704 24,-24 l 0,-328 0,-24 c 0,-13.296 -10.704,-24 -24,-24 l -399.99805,0 z"
           style="opacity:0.2;fill:#000000;fill-opacity:1;stroke:none;filter:url(#filter4486)" />
        <path
           style="opacity:0.2;fill:#000000;fill-opacity:1;stroke:none"
           d="m 264.00195,-162 c -13.296,0 -24,10.704 -24,24 l 0,24 0,328 c 0,13.296 10.704,24 24,24 L 664,238 c 13.296,0 24,-10.704 24,-24 l 0,-328 0,-24 c 0,-13.296 -10.704,-24 -24,-24 l -399.99805,0 z"
           id="path4479"
           inkscape:connector-curvature="0" />
        <path
           inkscape:connector-curvature="0"
           id="rect4227"
           d="m 53,280.5 0,1 c 0,0.831 0.669,1.5 1.5,1.5 l 19,0 c 0.831,0 1.5,-0.669 1.5,-1.5 l 0,-1 c 0,0.831 -0.669,1.5 -1.5,1.5 l -19,0 c -0.831,0 -1.5,-0.669 -1.5,-1.5 z"
           style="opacity:0.1;fill:#000000;fill-opacity:1;stroke:none" />
        <path
           inkscape:connector-curvature="0"
           id="rect4378"
           d="m 97,279.5 0,1 c 0,0.831 0.669,1.5 1.5,1.5 l 27,0 c 0.831,0 1.5,-0.669 1.5,-1.5 l 0,-1 c 0,0.831 -0.669,1.5 -1.5,1.5 l -27,0 c -0.831,0 -1.5,-0.669 -1.5,-1.5 z"
           style="opacity:0.1;fill:#000000;fill-opacity:1;stroke:none"
           sodipodi:nodetypes="csssscssc" />
        <path
           inkscape:connector-curvature="0"
           id="rect4817"
           d="m 148,276 0,1 c 0,1.108 0.892,2 2,2 l 36,0 c 1.108,0 2,-0.892 2,-2 l 0,-1 c 0,1.108 -0.892,2 -2,2 l -36,0 c -1.108,0 -2,-0.892 -2,-2 z"
           style="opacity:0.1;fill:#000000;fill-opacity:1;stroke:none" />
        <path
           sodipodi:nodetypes="csssscc"
           inkscape:connector-curvature="0"
           id="rect4243"
           d="m 53,265 0,15.5 c 0,0.831 0.669,1.5 1.5,1.5 l 19,0 c 0.831,0 1.621782,-0.67797 1.5,-1.5 L 75,265 Z"
           style="fill:#558b2f;fill-opacity:1;stroke:none" />
        <path
           inkscape:connector-curvature="0"
           id="rect4265"
           d="m 16,271 0,11 c 0,0.554 0.446,1 1,1 l 14,0 c 0.554,0 1,-0.446 1,-1 l 0,-11 -16,0 z"
           style="display:inline;fill:#558b2f;fill-opacity:1;stroke:none;enable-background:new" />
        <path
           sodipodi:nodetypes="csssscc"
           inkscape:connector-curvature="0"
           id="rect4363"
           d="m 97,259 0,20.5 c 0,0.831 0.669,1.5 1.5,1.5 l 27,0 c 0.831,0 1.58069,-0.67293 1.5,-1.5 l 0,-20.5 z"
           style="fill:#558b2f;fill-opacity:1;stroke:none" />
        <path
           sodipodi:nodetypes="ssccsss"
           inkscape:connector-curvature="0"
           id="rect4509"
           d="m 98.5,255 c -0.831,0 -1.5,0.669 -1.5,1.5 l 0,3.5 30,0 0,-3.5 c 0,-0.831 -0.669,-1.5 -1.5,-1.5 z"
           style="fill:#4d4d4d;fill-opacity:1;stroke:none" />
        <path
           sodipodi:nodetypes="ssccsss"
           inkscape:connector-curvature="0"
           id="rect4517"
           d="m 54.5,262 c -0.831,0 -1.5,0.669 -1.5,1.5 l 0,2.5 22,0 0,-2.5 c 0,-0.831 -0.669,-1.5 -1.5,-1.5 z"
           style="fill:#4d4d4d;fill-opacity:1;stroke:none" />
        <path
           sodipodi:nodetypes="ssccsss"
           inkscape:connector-curvature="0"
           id="rect4525"
           d="m 17,269 c -0.554,0 -1,0.446 -1,1 l 0,2 16,0 0,-2 c 0,-0.554 -0.446,-1 -1,-1 z"
           style="display:inline;fill:#4d4d4d;fill-opacity:1;stroke:none;enable-background:new" />
        <path
           sodipodi:nodetypes="csssscc"
           style="fill:#558b2f;fill-opacity:1;stroke:none"
           d="m 240.00195,-116 0,328 c 0,13.296 10.704,24 24,24 L 664,236 c 13.296,0 24,-10.704 24,-24 l 0,-328 z"
           id="rect4439"
           inkscape:connector-curvature="0" />
        <path
           sodipodi:nodetypes="ccsssscc"
           inkscape:connector-curvature="0"
           id="path4501"
           d="m 148,248 0,14 0,14 c 0,1.108 0.892,2 2,2 l 36,0 c 1.108,0 2,-0.892 2,-2 l 0,-28 z"
           style="fill:#558b2f;fill-opacity:1;stroke:none" />
        <path
           sodipodi:nodetypes="csccsscc"
           inkscape:connector-curvature="0"
           id="rect4801"
           d="m 150,242 c 0,0 -2,0 -2,2 l 0,4 40,0 0,-4 c 0,0 0,-2 -2,-2 l -18,0 z"
           style="fill:#4d4d4d;fill-opacity:1;stroke:none" />
        <path
           style="opacity:1;fill:#aed581;fill-opacity:1;stroke:none;stroke-width:8;stroke-linecap:square;stroke-linejoin:miter;stroke-miterlimit:4;stroke-dasharray:none;stroke-opacity:1"
           d="m 99,260 26,0 0,18 c 0,0 0,1 -1,1 l -24,0 c 0,0 -1,0 -1,-1 z"
           id="path4283"
           inkscape:connector-curvature="0"
           sodipodi:nodetypes="ccccccc" />
        <g
           style="display:inline;fill:#33691e;fill-opacity:1;enable-background:new"
           transform="translate(-42.951757,22)"
           id="g4043">
          <path
             sodipodi:nodetypes="ccccc"
             style="color:#bebebe;display:inline;overflow:visible;visibility:visible;opacity:0.8;fill:#33691e;fill-opacity:1;fill-rule:nonzero;stroke:none;stroke-width:2;marker:none;enable-background:accumulate"
             d="m 150,252 4,0 0,1 -4,0 z"
             id="path4045"
             inkscape:connector-curvature="0" />
          <g
             transform="matrix(0.5,0,0,0.5,-4.0303302,132)"
             id="g4047"
             style="font-style:normal;font-variant:normal;font-weight:normal;font-stretch:normal;font-size:17.2705555px;line-height:125%;font-family:Roboto;-inkscape-font-specification:Roboto;text-align:center;letter-spacing:0px;word-spacing:0px;text-anchor:middle;display:inline;fill:#33691e;fill-opacity:1;stroke:none;enable-background:new">
            <path
               sodipodi:nodetypes="ccccccccccccccccsccccscccccccccscccccccccccccsccc"
               inkscape:connector-curvature="0"
               id="path4049"
               style="font-weight:bold;font-family:Inconsolata;-inkscape-font-specification:'Inconsolata Bold';opacity:0.8;fill:#33691e;fill-opacity:1"
               d="m 300.20309,229 1.72875,0 0,0.97826 c 0.47785,0.0956 0.91918,0.2811 1.32396,0.55657 0.41039,0.26986 0.78144,0.60436 1.11314,1.00351 l -1.02038,1.29023 c 0,0 -0.30568,-0.38639 -0.44695,-0.56497 -0.11245,-0.1293 -0.26424,-0.25579 -0.45538,-0.37948 -0.18553,-0.12367 -0.3851,-0.21081 -0.59873,-0.26142 l 0,2.5383 c 0.45537,0.14618 0.85734,0.30921 1.2059,0.48911 0.34855,0.17991 0.63808,0.38792 0.86859,0.62403 0.23611,0.23613 0.4132,0.50317 0.53127,0.80113 0.11805,0.29234 0.17708,0.62684 0.17709,1.00351 -1e-5,0.35418 -0.0618,0.69431 -0.18552,1.02038 -0.12369,0.32045 -0.30359,0.61279 -0.53971,0.87702 -0.2305,0.26423 -0.5116,0.49192 -0.84329,0.68306 -0.3317,0.19115 -0.70836,0.32889 -1.13,0.41322 l 0,0.92761 -1.72875,0 0,-0.87702 c -0.52846,-0.09 -1.03724,-0.26704 -1.52635,-0.53127 -0.48911,-0.26423 -0.92481,-0.60717 -1.3071,-1.02881 l 1.05412,-1.48419 0.48914,0.60717 c 0.19115,0.20801 0.39353,0.3851 0.60717,0.53127 0.21925,0.14617 0.47505,0.25018 0.76739,0.31202 l 0,-3.08644 c -0.4104,-0.15179 -0.77864,-0.32045 -1.1047,-0.50597 -0.32046,-0.18552 -0.59312,-0.39072 -0.818,-0.6156 -0.21925,-0.2305 -0.38791,-0.48348 -0.50597,-0.75896 -0.11806,-0.28109 -0.17709,-0.58749 -0.17709,-0.91919 0,-0.31482 0.059,-0.61559 0.17709,-0.90232 0.11806,-0.28671 0.28672,-0.54532 0.50597,-0.77582 0.21926,-0.23049 0.48349,-0.42726 0.7927,-0.59031 0.31482,-0.16864 0.66338,-0.29233 1.04567,-0.37104 l 0,-1.00352 m 1.64442,9.42797 c 0.30358,-0.10681 0.54813,-0.2586 0.73366,-0.45537 0.19114,-0.19677 0.28671,-0.45819 0.28672,-0.78426 -1e-5,-0.26985 -0.0843,-0.50597 -0.25299,-0.70837 -0.16304,-0.20238 -0.41884,-0.36542 -0.76739,-0.4891 l 0,2.4371 m -1.56009,-6.8222 c -0.23612,0.0618 -0.42727,0.17147 -0.57343,0.32888 -0.14618,0.15742 -0.21926,0.35981 -0.21926,0.60717 0,0.17991 0.059,0.36543 0.17709,0.55657 0.11806,0.19115 0.32326,0.33732 0.6156,0.43851 l 0,-1.93113" />
          </g>
        </g>
        <path
           sodipodi:nodetypes="ccccccc"
           inkscape:connector-curvature="0"
           id="path4305"
           d="m 54,266 20,0 0,14 c 0,0 0,1 -1,1 l -18,0 c 0,0 -1,0 -1,-1 z"
           style="opacity:1;fill:#aed581;fill-opacity:1;stroke:none;stroke-width:8;stroke-linecap:square;stroke-linejoin:miter;stroke-miterlimit:4;stroke-dasharray:none;stroke-opacity:1" />
        <g
           style="display:inline;fill:#33691e;fill-opacity:1;enable-background:new"
           transform="translate(3,5)"
           id="g4062">
          <path
             inkscape:connector-curvature="0"
             id="path4053"
             d="m 57,272 3,0 0,1 -3,0 z"
             style="color:#bebebe;display:inline;overflow:visible;visibility:visible;opacity:0.8;fill:#33691e;fill-opacity:1;fill-rule:nonzero;stroke:none;stroke-width:2;marker:none;enable-background:accumulate"
             sodipodi:nodetypes="ccccc" />
          <g
             style="font-style:normal;font-variant:normal;font-weight:normal;font-stretch:normal;font-size:17.2705555px;line-height:125%;font-family:Roboto;-inkscape-font-specification:Roboto;text-align:center;letter-spacing:0px;word-spacing:0px;text-anchor:middle;display:inline;fill:#33691e;fill-opacity:1;stroke:none;enable-background:new"
             id="g4055"
             transform="matrix(0.41666424,0,0,0.41666424,-71.248805,172.08392)">
            <path
               d="m 300.20309,229 1.72875,0 0,0.97826 c 0.47785,0.0956 0.91918,0.2811 1.32396,0.55657 0.41039,0.26986 0.78144,0.60436 1.11314,1.00351 l -1.02038,1.29023 c 0,0 -0.30568,-0.38639 -0.44695,-0.56497 -0.11245,-0.1293 -0.26424,-0.25579 -0.45538,-0.37948 -0.18553,-0.12367 -0.3851,-0.21081 -0.59873,-0.26142 l 0,2.5383 c 0.45537,0.14618 0.85734,0.30921 1.2059,0.48911 0.34855,0.17991 0.63808,0.38792 0.86859,0.62403 0.23611,0.23613 0.4132,0.50317 0.53127,0.80113 0.11805,0.29234 0.17708,0.62684 0.17709,1.00351 -1e-5,0.35418 -0.0618,0.69431 -0.18552,1.02038 -0.12369,0.32045 -0.30359,0.61279 -0.53971,0.87702 -0.2305,0.26423 -0.5116,0.49192 -0.84329,0.68306 -0.3317,0.19115 -0.70836,0.32889 -1.13,0.41322 l 0,0.92761 -1.72875,0 0,-0.87702 c -0.52846,-0.09 -1.03724,-0.26704 -1.52635,-0.53127 -0.48911,-0.26423 -0.92481,-0.60717 -1.3071,-1.02881 l 1.05412,-1.48419 0.48914,0.60717 c 0.19115,0.20801 0.39353,0.3851 0.60717,0.53127 0.21925,0.14617 0.47505,0.25018 0.76739,0.31202 l 0,-3.08644 c -0.4104,-0.15179 -0.77864,-0.32045 -1.1047,-0.50597 -0.32046,-0.18552 -0.59312,-0.39072 -0.818,-0.6156 -0.21925,-0.2305 -0.38791,-0.48348 -0.50597,-0.75896 -0.11806,-0.28109 -0.17709,-0.58749 -0.17709,-0.91919 0,-0.31482 0.059,-0.61559 0.17709,-0.90232 0.11806,-0.28671 0.28672,-0.54532 0.50597,-0.77582 0.21926,-0.23049 0.48349,-0.42726 0.7927,-0.59031 0.31482,-0.16864 0.66338,-0.29233 1.04567,-0.37104 l 0,-1.00352 m 1.64442,9.42797 c 0.30358,-0.10681 0.54813,-0.2586 0.73366,-0.45537 0.19114,-0.19677 0.28671,-0.45819 0.28672,-0.78426 -1e-5,-0.26985 -0.0843,-0.50597 -0.25299,-0.70837 -0.16304,-0.20238 -0.41884,-0.36542 -0.76739,-0.4891 l 0,2.4371 m -1.56009,-6.8222 c -0.23612,0.0618 -0.42727,0.17147 -0.57343,0.32888 -0.14618,0.15742 -0.21926,0.35981 -0.21926,0.60717 0,0.17991 0.059,0.36543 0.17709,0.55657 0.11806,0.19115 0.32326,0.33732 0.6156,0.43851 l 0,-1.93113"
               style="font-weight:bold;font-family:Inconsolata;-inkscape-font-specification:'Inconsolata Bold';opacity:0.8;fill:#33691e;fill-opacity:1"
               id="path4057"
               inkscape:connector-curvature="0"
               sodipodi:nodetypes="ccccccccccccccccsccccscccccccccscccccccccccccsccc" />
          </g>
        </g>
        <rect
           y="272"
           x="17"
           height="10"
           width="14"
           id="rect4307"
           style="opacity:1;fill:#aed581;fill-opacity:1;stroke:none;stroke-width:8;stroke-linecap:square;stroke-linejoin:miter;stroke-miterlimit:4;stroke-dasharray:none;stroke-opacity:1" />
        <g
           style="display:inline;fill:#33691e;fill-opacity:1;enable-background:new"
           id="g4067"
           transform="translate(-34,7)">
          <path
             sodipodi:nodetypes="ccccc"
             style="color:#bebebe;display:inline;overflow:visible;visibility:visible;opacity:0.8;fill:#33691e;fill-opacity:1;fill-rule:nonzero;stroke:none;stroke-width:2;marker:none;enable-background:accumulate"
             d="m 57,272 3,0 0,1 -3,0 z"
             id="path4069"
             inkscape:connector-curvature="0" />
          <g
             transform="matrix(0.41666424,0,0,0.41666424,-71.248805,172.08392)"
             id="g4071"
             style="font-style:normal;font-variant:normal;font-weight:normal;font-stretch:normal;font-size:17.2705555px;line-height:125%;font-family:Roboto;-inkscape-font-specification:Roboto;text-align:center;letter-spacing:0px;word-spacing:0px;text-anchor:middle;display:inline;fill:#33691e;fill-opacity:1;stroke:none;enable-background:new">
            <path
               sodipodi:nodetypes="ccccccccccccccccsccccscccccccccscccccccccccccsccc"
               inkscape:connector-curvature="0"
               id="path4073"
               style="font-weight:bold;font-family:Inconsolata;-inkscape-font-specification:'Inconsolata Bold';opacity:0.8;fill:#33691e;fill-opacity:1"
               d="m 300.20309,229 1.72875,0 0,0.97826 c 0.47785,0.0956 0.91918,0.2811 1.32396,0.55657 0.41039,0.26986 0.78144,0.60436 1.11314,1.00351 l -1.02038,1.29023 c 0,0 -0.30568,-0.38639 -0.44695,-0.56497 -0.11245,-0.1293 -0.26424,-0.25579 -0.45538,-0.37948 -0.18553,-0.12367 -0.3851,-0.21081 -0.59873,-0.26142 l 0,2.5383 c 0.45537,0.14618 0.85734,0.30921 1.2059,0.48911 0.34855,0.17991 0.63808,0.38792 0.86859,0.62403 0.23611,0.23613 0.4132,0.50317 0.53127,0.80113 0.11805,0.29234 0.17708,0.62684 0.17709,1.00351 -1e-5,0.35418 -0.0618,0.69431 -0.18552,1.02038 -0.12369,0.32045 -0.30359,0.61279 -0.53971,0.87702 -0.2305,0.26423 -0.5116,0.49192 -0.84329,0.68306 -0.3317,0.19115 -0.70836,0.32889 -1.13,0.41322 l 0,0.92761 -1.72875,0 0,-0.87702 c -0.52846,-0.09 -1.03724,-0.26704 -1.52635,-0.53127 -0.48911,-0.26423 -0.92481,-0.60717 -1.3071,-1.02881 l 1.05412,-1.48419 0.48914,0.60717 c 0.19115,0.20801 0.39353,0.3851 0.60717,0.53127 0.21925,0.14617 0.47505,0.25018 0.76739,0.31202 l 0,-3.08644 c -0.4104,-0.15179 -0.77864,-0.32045 -1.1047,-0.50597 -0.32046,-0.18552 -0.59312,-0.39072 -0.818,-0.6156 -0.21925,-0.2305 -0.38791,-0.48348 -0.50597,-0.75896 -0.11806,-0.28109 -0.17709,-0.58749 -0.17709,-0.91919 0,-0.31482 0.059,-0.61559 0.17709,-0.90232 0.11806,-0.28671 0.28672,-0.54532 0.50597,-0.77582 0.21926,-0.23049 0.48349,-0.42726 0.7927,-0.59031 0.31482,-0.16864 0.66338,-0.29233 1.04567,-0.37104 l 0,-1.00352 m 1.64442,9.42797 c 0.30358,-0.10681 0.54813,-0.2586 0.73366,-0.45537 0.19114,-0.19677 0.28671,-0.45819 0.28672,-0.78426 -1e-5,-0.26985 -0.0843,-0.50597 -0.25299,-0.70837 -0.16304,-0.20238 -0.41884,-0.36542 -0.76739,-0.4891 l 0,2.4371 m -1.56009,-6.8222 c -0.23612,0.0618 -0.42727,0.17147 -0.57343,0.32888 -0.14618,0.15742 -0.21926,0.35981 -0.21926,0.60717 0,0.17991 0.059,0.36543 0.17709,0.55657 0.11806,0.19115 0.32326,0.33732 0.6156,0.43851 l 0,-1.93113" />
          </g>
        </g>
        <path
           sodipodi:nodetypes="ccccccc"
           inkscape:connector-curvature="0"
           id="rect4263"
           d="m 151,248 34,0 0,26 c 0,0 0,1 -1,1 l -32,0 c 0,0 -1,0 -1,-1 z"
           style="opacity:1;fill:#aed581;fill-opacity:1;stroke:none;stroke-width:8;stroke-linecap:square;stroke-linejoin:miter;stroke-miterlimit:4;stroke-dasharray:none;stroke-opacity:1" />
        <g
           transform="translate(10,18)"
           style="display:inline;fill:#33691e;fill-opacity:1;enable-background:new"
           id="g4048">
          <path
             inkscape:connector-curvature="0"
             id="rect4100"
             d="m 150,252 4,0 0,1 -4,0 z"
             style="color:#bebebe;display:inline;overflow:visible;visibility:visible;opacity:0.8;fill:#33691e;fill-opacity:1;fill-rule:nonzero;stroke:none;stroke-width:2;marker:none;enable-background:accumulate"
             sodipodi:nodetypes="ccccc" />
          <g
             style="font-style:normal;font-variant:normal;font-weight:normal;font-stretch:normal;font-size:17.2705555px;line-height:125%;font-family:Roboto;-inkscape-font-specification:Roboto;text-align:center;letter-spacing:0px;word-spacing:0px;text-anchor:middle;display:inline;fill:#33691e;fill-opacity:1;stroke:none;enable-background:new"
             id="text3894"
             transform="matrix(0.5,0,0,0.5,-4.0303302,132)">
            <path
               d="m 300.20309,229 1.72875,0 0,0.97826 c 0.47785,0.0956 0.91918,0.2811 1.32396,0.55657 0.41039,0.26986 0.78144,0.60436 1.11314,1.00351 l -1.02038,1.29023 c 0,0 -0.30568,-0.38639 -0.44695,-0.56497 -0.11245,-0.1293 -0.26424,-0.25579 -0.45538,-0.37948 -0.18553,-0.12367 -0.3851,-0.21081 -0.59873,-0.26142 l 0,2.5383 c 0.45537,0.14618 0.85734,0.30921 1.2059,0.48911 0.34855,0.17991 0.63808,0.38792 0.86859,0.62403 0.23611,0.23613 0.4132,0.50317 0.53127,0.80113 0.11805,0.29234 0.17708,0.62684 0.17709,1.00351 -1e-5,0.35418 -0.0618,0.69431 -0.18552,1.02038 -0.12369,0.32045 -0.30359,0.61279 -0.53971,0.87702 -0.2305,0.26423 -0.5116,0.49192 -0.84329,0.68306 -0.3317,0.19115 -0.70836,0.32889 -1.13,0.41322 l 0,0.92761 -1.72875,0 0,-0.87702 c -0.52846,-0.09 -1.03724,-0.26704 -1.52635,-0.53127 -0.48911,-0.26423 -0.92481,-0.60717 -1.3071,-1.02881 l 1.05412,-1.48419 0.48914,0.60717 c 0.19115,0.20801 0.39353,0.3851 0.60717,0.53127 0.21925,0.14617 0.47505,0.25018 0.76739,0.31202 l 0,-3.08644 c -0.4104,-0.15179 -0.77864,-0.32045 -1.1047,-0.50597 -0.32046,-0.18552 -0.59312,-0.39072 -0.818,-0.6156 -0.21925,-0.2305 -0.38791,-0.48348 -0.50597,-0.75896 -0.11806,-0.28109 -0.17709,-0.58749 -0.17709,-0.91919 0,-0.31482 0.059,-0.61559 0.17709,-0.90232 0.11806,-0.28671 0.28672,-0.54532 0.50597,-0.77582 0.21926,-0.23049 0.48349,-0.42726 0.7927,-0.59031 0.31482,-0.16864 0.66338,-0.29233 1.04567,-0.37104 l 0,-1.00352 m 1.64442,9.42797 c 0.30358,-0.10681 0.54813,-0.2586 0.73366,-0.45537 0.19114,-0.19677 0.28671,-0.45819 0.28672,-0.78426 -1e-5,-0.26985 -0.0843,-0.50597 -0.25299,-0.70837 -0.16304,-0.20238 -0.41884,-0.36542 -0.76739,-0.4891 l 0,2.4371 m -1.56009,-6.8222 c -0.23612,0.0618 -0.42727,0.17147 -0.57343,0.32888 -0.14618,0.15742 -0.21926,0.35981 -0.21926,0.60717 0,0.17991 0.059,0.36543 0.17709,0.55657 0.11806,0.19115 0.32326,0.33732 0.6156,0.43851 l 0,-1.93113"
               style="font-weight:bold;font-family:Inconsolata;-inkscape-font-specification:'Inconsolata Bold';opacity:0.8;fill:#33691e;fill-opacity:1"
               id="path3930"
               inkscape:connector-curvature="0"
               sodipodi:nodetypes="ccccccccccccccccsccccscccccccccscccccccccccccsccc" />
          </g>
        </g>
        <path
           style="opacity:0.2;fill:#000000;fill-opacity:1;stroke:none;stroke-width:8;stroke-linecap:square;stroke-linejoin:miter;stroke-miterlimit:4;stroke-dasharray:none;stroke-opacity:1"
           d="m 272,-98 384,0 0,296 c 0,0 0,8 -8,8 l -368,0 c 0,0 -8,0 -8,-8 z"
           id="path4293"
           inkscape:connector-curvature="0"
           sodipodi:nodetypes="ccccccc" />
        <path
           sodipodi:nodetypes="ccccccc"
           inkscape:connector-curvature="0"
           id="path4295"
           d="m 272,-98 384,0 0,296 c 0,0 0,8 -8,8 l -368,0 c 0,0 -8,0 -8,-8 z"
           style="opacity:0.2;fill:#000000;fill-opacity:1;stroke:none;stroke-width:8;stroke-linecap:square;stroke-linejoin:miter;stroke-miterlimit:4;stroke-dasharray:none;stroke-opacity:1;filter:url(#filter4297)" />
        <path
           sodipodi:nodetypes="ccccccc"
           inkscape:connector-curvature="0"
           id="path4287"
           d="m 272,-100 384,0 0,296 c 0,0 0,8 -8,8 l -368,0 c 0,0 -8,0 -8,-8 z"
           style="opacity:1;fill:#aed581;fill-opacity:1;stroke:none;stroke-width:8;stroke-linecap:square;stroke-linejoin:miter;stroke-miterlimit:4;stroke-dasharray:none;stroke-opacity:1" />
        <path
           sodipodi:nodetypes="ssccsss"
           style="fill:#4d4d4d;fill-opacity:1;stroke:none"
           d="m 264.00195,-164 c -13.296,0 -24,10.704 -24,24 l 0,40 447.99805,0 0,-40 c 0,-13.296 -10.704,-24 -24,-24 z"
           id="rect4229"
           inkscape:connector-curvature="0" />
        <path
           style="opacity:0.1;fill:#ffffff;fill-opacity:1;stroke:none"
           d="m 264.00195,-164 c -13.296,0 -24,10.704 -24,24 l 0,2 c 0,-13.296 10.704,-24 24,-24 L 664,-162 c 13.296,0 24,10.704 24,24 l 0,-2 c 0,-13.296 -10.704,-24 -24,-24 l -399.99805,0 z"
           id="path4492"
           inkscape:connector-curvature="0" />
      </g>
      <g
         id="g3251"
         transform="matrix(8,0,0,8,-856,-1852)"
         style="display:inline;enable-background:new;fill:#33691e;fill-opacity:1">
        <path
           inkscape:connector-curvature="0"
           id="path3253"
           d="m 150,252 4,0 0,1 -4,0 z"
           style="color:#bebebe;display:inline;overflow:visible;visibility:visible;opacity:0.8;fill:#33691e;fill-opacity:1;fill-rule:nonzero;stroke:none;stroke-width:2;marker:none;enable-background:accumulate"
           sodipodi:nodetypes="ccccc" />
        <g
           style="font-style:normal;font-variant:normal;font-weight:normal;font-stretch:normal;font-size:17.2705555px;line-height:125%;font-family:Roboto;-inkscape-font-specification:Roboto;text-align:center;letter-spacing:0px;word-spacing:0px;text-anchor:middle;display:inline;fill:#33691e;fill-opacity:1;stroke:none;enable-background:new"
           id="g3255"
           transform="matrix(0.5,0,0,0.5,-4.0303302,132)">
          <path
             d="m 300.20309,229 1.72875,0 0,0.97826 c 0.47785,0.0956 0.91918,0.2811 1.32396,0.55657 0.41039,0.26986 0.78144,0.60436 1.11314,1.00351 l -1.02038,1.29023 c 0,0 -0.30568,-0.38639 -0.44695,-0.56497 -0.11245,-0.1293 -0.26424,-0.25579 -0.45538,-0.37948 -0.18553,-0.12367 -0.3851,-0.21081 -0.59873,-0.26142 l 0,2.5383 c 0.45537,0.14618 0.85734,0.30921 1.2059,0.48911 0.34855,0.17991 0.63808,0.38792 0.86859,0.62403 0.23611,0.23613 0.4132,0.50317 0.53127,0.80113 0.11805,0.29234 0.17708,0.62684 0.17709,1.00351 -1e-5,0.35418 -0.0618,0.69431 -0.18552,1.02038 -0.12369,0.32045 -0.30359,0.61279 -0.53971,0.87702 -0.2305,0.26423 -0.5116,0.49192 -0.84329,0.68306 -0.3317,0.19115 -0.70836,0.32889 -1.13,0.41322 l 0,0.92761 -1.72875,0 0,-0.87702 c -0.52846,-0.09 -1.03724,-0.26704 -1.52635,-0.53127 -0.48911,-0.26423 -0.92481,-0.60717 -1.3071,-1.02881 l 1.05412,-1.48419 0.48914,0.60717 c 0.19115,0.20801 0.39353,0.3851 0.60717,0.53127 0.21925,0.14617 0.47505,0.25018 0.76739,0.31202 l 0,-3.08644 c -0.4104,-0.15179 -0.77864,-0.32045 -1.1047,-0.50597 -0.32046,-0.18552 -0.59312,-0.39072 -0.818,-0.6156 -0.21925,-0.2305 -0.38791,-0.48348 -0.50597,-0.75896 -0.11806,-0.28109 -0.17709,-0.58749 -0.17709,-0.91919 0,-0.31482 0.059,-0.61559 0.17709,-0.90232 0.11806,-0.28671 0.28672,-0.54532 0.50597,-0.77582 0.21926,-0.23049 0.48349,-0.42726 0.7927,-0.59031 0.31482,-0.16864 0.66338,-0.29233 1.04567,-0.37104 l 0,-1.00352 m 1.64442,9.42797 c 0.30358,-0.10681 0.54813,-0.2586 0.73366,-0.45537 0.19114,-0.19677 0.28671,-0.45819 0.28672,-0.78426 -1e-5,-0.26985 -0.0843,-0.50597 -0.25299,-0.70837 -0.16304,-0.20238 -0.41884,-0.36542 -0.76739,-0.4891 l 0,2.4371 m -1.56009,-6.8222 c -0.23612,0.0618 -0.42727,0.17147 -0.57343,0.32888 -0.14618,0.15742 -0.21926,0.35981 -0.21926,0.60717 0,0.17991 0.059,0.36543 0.17709,0.55657 0.11806,0.19115 0.32326,0.33732 0.6156,0.43851 l 0,-1.93113"
             style="font-weight:bold;font-family:Inconsolata;-inkscape-font-specification:'Inconsolata Bold';opacity:0.8;fill:#33691e;fill-opacity:1"
             id="path3257"
             inkscape:connector-curvature="0"
             sodipodi:nodetypes="ccccccccccccccccsccccscccccccccscccccccccccccsccc" />
        </g>
      </g>
    </g>
  </g>
  <g
     transform="translate(0,244)"
     id="g4195"
     inkscape:label="guake-prefs"
     inkscape:groupmode="layer"
     style="display:inline">
    <g
       inkscape:groupmode="layer"
       id="g4197"
       inkscape:label="Baseplate"
       style="display:none">
      <text
         id="text4199"
         inkscape:label="context"
         style="font-style:normal;font-variant:normal;font-weight:normal;font-stretch:normal;font-size:18px;font-family:'DejaVu Sans';-inkscape-font-specification:'DejaVu Sans';display:inline;fill:#000000;fill-opacity:1;stroke:none;enable-background:new"
         x="15.006836"
         xml:space="preserve"
         y="-302.25488"><tspan
           id="tspan4201"
           sodipodi:role="line"
           x="15.006836"
           y="-302.25488"
           style="font-style:normal;font-variant:normal;font-weight:normal;font-stretch:normal;font-family:'DejaVu Sans';-inkscape-font-specification:'DejaVu Sans'">apps</tspan></text>
      <text
         id="text4203"
         inkscape:label="icon-name"
         sodipodi:linespacing="125%"
         style="font-style:normal;font-variant:normal;font-weight:bold;font-stretch:normal;font-size:18px;line-height:125%;font-family:'DejaVu Sans';-inkscape-font-specification:'DejaVu Sans Bold';text-align:start;writing-mode:lr-tb;text-anchor:start;display:inline;fill:#000000;fill-opacity:1;stroke:none;enable-background:new"
         x="142.48828"
         xml:space="preserve"
         y="-302.25488"><tspan
           id="tspan4205"
           sodipodi:role="line"
           x="142.48828"
           y="-302.25488"
           style="font-style:normal;font-variant:normal;font-weight:bold;font-stretch:normal;font-size:18px;font-family:'DejaVu Sans';-inkscape-font-specification:'DejaVu Sans Bold'">guake-prefs</tspan></text>
      <rect
         transform="scale(-1,1)"
         inkscape:label="16x16"
         y="-372"
         x="-32"
         height="16"
         width="16"
         id="rect4207"
         style="display:inline;overflow:visible;visibility:visible;fill:#d3d7cf;fill-opacity:1;fill-rule:nonzero;stroke:none;stroke-width:2;marker:none;enable-background:accumulate" />
      <rect
         transform="scale(-1,1)"
         inkscape:label="24x24"
         y="-380"
         x="-76"
         height="24"
         width="24"
         id="rect4209"
         style="display:inline;overflow:visible;visibility:visible;fill:#d3d7cf;fill-opacity:1;fill-rule:nonzero;stroke:none;stroke-width:2;marker:none;enable-background:accumulate" />
      <rect
         transform="scale(-1,1)"
         inkscape:label="32x32"
         y="-388"
         x="-128"
         height="32"
         width="32"
         id="rect4211"
         style="display:inline;overflow:visible;visibility:visible;fill:#d3d7cf;fill-opacity:1;fill-rule:nonzero;stroke:none;stroke-width:2;marker:none;enable-background:accumulate" />
      <rect
         transform="scale(-1,1)"
         style="display:inline;overflow:visible;visibility:visible;fill:#d3d7cf;fill-opacity:1;fill-rule:nonzero;stroke:none;stroke-width:2;marker:none;enable-background:accumulate"
         id="rect4213"
         width="48"
         height="48"
         x="-192"
         y="-404"
         inkscape:label="48x48" />
      <rect
         transform="scale(-1,1)"
         inkscape:label="48x48"
         y="-868"
         x="-720"
         height="512"
         width="512"
         id="rect4215"
         style="display:inline;overflow:visible;visibility:visible;fill:#d3d7cf;fill-opacity:1;fill-rule:nonzero;stroke:none;stroke-width:2;marker:none;enable-background:accumulate" />
    </g>
    <g
       style="display:inline"
       inkscape:label="Symbols"
       id="g4217"
       inkscape:groupmode="layer">
      <use
         style="display:inline;enable-background:new"
         x="0"
         y="0"
         xlink:href="#g4308"
         id="use4350"
         transform="translate(0,-640)"
         width="100%"
         height="100%" />
      <g
         id="g4414">
        <circle
           transform="matrix(0.83333333,0,0,0.83333333,40,-593.83326)"
           r="12"
           cy="271"
           cx="168"
           style="display:inline;opacity:0.5;fill:#000000;fill-opacity:1;stroke:none;filter:url(#filter4360-0);enable-background:new"
           id="circle4335-1" />
        <circle
           r="12"
           cy="-367.99994"
           cx="-180"
           style="display:inline;opacity:0.2;fill:#000000;fill-opacity:1;stroke:none;enable-background:new"
           id="circle4300-8"
           transform="scale(-1,1)" />
        <circle
           transform="scale(-1,1)"
           id="path4058-0"
           style="display:inline;fill:#8561c5;fill-opacity:1;stroke:none;enable-background:new"
           cx="-180"
           cy="-368.99994"
           r="12" />
        <circle
           r="8"
           cy="-363.99994"
           cx="120"
           style="display:inline;opacity:0.2;fill:#000000;fill-opacity:1;fill-rule:evenodd;stroke:none;enable-background:new"
           id="circle4345-3" />
        <circle
           id="circle4426-9"
           style="display:inline;fill:#8561c5;fill-opacity:1;fill-rule:evenodd;stroke:none;enable-background:new"
           cx="120"
           cy="-364.99994"
           r="8" />
        <circle
           r="6"
           id="circle4343-5"
           style="display:inline;opacity:0.2;fill:#000000;fill-opacity:1;stroke:none;stroke-width:2;enable-background:new"
           cx="70"
           cy="-361.99994" />
        <circle
           cy="-362.99994"
           cx="70"
           style="display:inline;fill:#8561c5;fill-opacity:1;stroke:none;stroke-width:2;enable-background:new"
           id="circle7479-1"
           r="6" />
        <circle
           r="120"
           cy="-484"
           cx="584"
           style="display:inline;opacity:0.5;fill:#000000;fill-opacity:1;stroke:none;filter:url(#filter4253-6);enable-background:new"
           id="circle4339-5" />
        <circle
           id="circle3609-4"
           style="display:inline;fill:#8561c5;fill-opacity:1;stroke:none;enable-background:new"
           cx="584"
           cy="-491.99994"
           r="120" />
        <path
           inkscape:connector-curvature="0"
           style="display:inline;opacity:1;fill:#ffffff;fill-opacity:1;stroke:none;stroke-opacity:1;enable-background:new"
           d="m 178.25001,-375.99994 -0.15419,1.8438 a 5.5,5.5 0 0 0 -1.60759,0.92969 l -1.67575,-0.78917 -1.75,3.03136 1.52157,1.05653 a 5.5,5.5 0 0 0 -0.0841,0.92779 5.5,5.5 0 0 0 0.0801,0.93159 l -1.51758,1.05273 1.75,3.03136 1.67196,-0.78708 a 5.5,5.5 0 0 0 1.61119,0.9238 l 0.15438,1.8476 3.5,0 0.15419,-1.8438 a 5.5,5.5 0 0 0 1.60758,-0.92969 l 1.67575,0.78917 1.75,-3.03136 -1.52156,-1.05653 a 5.5,5.5 0 0 0 0.0841,-0.92779 5.5,5.5 0 0 0 -0.0801,-0.93159 l 1.51757,-1.05273 -1.75,-3.03136 -1.67195,0.78708 a 5.5,5.5 0 0 0 -1.61119,-0.9238 l -0.15438,-1.8476 -3.5,0 z m 1.75,4.66667 a 2.3333333,2.3333333 0 0 1 2.33333,2.33333 2.3333333,2.3333333 0 0 1 -2.33333,2.33333 2.3333333,2.3333333 0 0 1 -2.33334,-2.33333 2.3333333,2.3333333 0 0 1 2.33334,-2.33333 z"
           id="path4323" />
        <path
           inkscape:connector-curvature="0"
           style="display:inline;opacity:1;fill:#ffffff;fill-opacity:1;stroke:none;stroke-opacity:1;enable-background:new"
           d="m 69,-366.99994 -0.0881,1.0536 a 3.142857,3.142857 0 0 0 -0.91861,0.53126 l -0.95758,-0.45096 -1,1.73219 0.86947,0.60374 a 3.142857,3.142857 0 0 0 -0.0481,0.53017 3.142857,3.142857 0 0 0 0.0458,0.53233 l -0.86718,0.60157 1,1.73219 0.95541,-0.44976 a 3.142857,3.142857 0 0 0 0.92068,0.52789 l 0.0882,1.05578 2,0 0.0881,-1.0536 a 3.142857,3.142857 0 0 0 0.9186,-0.53127 l 0.95758,0.45096 1,-1.73219 -0.86946,-0.60373 a 3.142857,3.142857 0 0 0 0.0481,-0.53017 3.142857,3.142857 0 0 0 -0.0458,-0.53234 l 0.86718,-0.60157 -1,-1.73219 -0.95539,0.44976 a 3.142857,3.142857 0 0 0 -0.92068,-0.52789 l -0.0882,-1.05577 -2,0 z m 1,2.66665 a 1.3333335,1.3333335 0 0 1 1.33333,1.33335 A 1.3333335,1.3333335 0 0 1 70,-361.6666 1.3333335,1.3333335 0 0 1 68.66667,-362.99994 1.3333335,1.3333335 0 0 1 70,-364.33329 Z"
           id="path4327" />
        <path
           id="path4325"
           d="m 118.75001,-369.99994 -0.11013,1.317 a 3.9285714,3.9285714 0 0 0 -1.14827,0.66407 l -1.19697,-0.5637 -1.25,2.16525 1.08684,0.75467 a 3.9285714,3.9285714 0 0 0 -0.0601,0.66271 3.9285714,3.9285714 0 0 0 0.0572,0.66543 l -1.08398,0.75194 1.25,2.16525 1.19426,-0.5622 a 3.9285714,3.9285714 0 0 0 1.15085,0.65986 l 0.11027,1.31972 2.5,0 0.11014,-1.317 a 3.9285714,3.9285714 0 0 0 1.14825,-0.66407 l 1.19698,0.56369 1.25,-2.16525 -1.08683,-0.75466 a 3.9285714,3.9285714 0 0 0 0.0601,-0.66271 3.9285714,3.9285714 0 0 0 -0.0572,-0.66543 l 1.08398,-0.75195 -1.25,-2.16525 -1.19424,0.5622 a 3.9285714,3.9285714 0 0 0 -1.15086,-0.65985 l -0.11021,-1.31972 -2.5,0 z m 1.25,3.33333 a 1.6666667,1.6666667 0 0 1 1.66667,1.66667 1.6666667,1.6666667 0 0 1 -1.66667,1.66667 1.6666667,1.6666667 0 0 1 -1.66666,-1.66667 1.6666667,1.6666667 0 0 1 1.66666,-1.66667 z"
           style="display:inline;opacity:1;fill:#ffffff;fill-opacity:1;stroke:none;stroke-opacity:1;enable-background:new"
           inkscape:connector-curvature="0" />
        <circle
           r="4.5"
           id="circle4308-6"
           style="display:inline;fill:#8561c5;fill-opacity:1;stroke:none;stroke-width:2;enable-background:new"
           cx="27.5"
           cy="-360.49994" />
        <path
           id="path10500"
           d="m 566,-563.99994 -1.5859,18.96484 a 56.571429,56.571429 0 0 0 -16.5352,9.5625 l -17.2363,-8.11718 -18,31.17968 15.6504,10.86719 a 56.571429,56.571429 0 0 0 -0.8653,9.54297 56.571429,56.571429 0 0 0 0.8242,9.58203 l -15.6093,10.82813 18,31.17968 17.1972,-8.0957 a 56.571429,56.571429 0 0 0 16.5723,9.50195 l 1.5879,19.00391 36,0 1.5859,-18.96484 a 56.571429,56.571429 0 0 0 16.5352,-9.5625 l 17.2363,8.11718 18,-31.17968 -15.6504,-10.86719 a 56.571429,56.571429 0 0 0 0.8653,-9.54297 56.571429,56.571429 0 0 0 -0.8242,-9.58203 l 15.6093,-10.82813 -18,-31.17968 -17.1972,8.0957 a 56.571429,56.571429 0 0 0 -16.5723,-9.50195 L 602,-563.99994 l -36,0 z m 18,48 a 24,24 0 0 1 24,24 24,24 0 0 1 -24,24 24,24 0 0 1 -24,-24 24,24 0 0 1 24,-24 z"
           style="display:inline;opacity:1;fill:#ffffff;fill-opacity:1;stroke:none;stroke-opacity:1;enable-background:new"
           inkscape:connector-curvature="0" />
        <path
           id="path4329"
           d="m 26.875,-362.99994 -0.0551,0.6585 a 1.9642856,1.9642856 0 0 0 -0.57413,0.33204 l -0.59849,-0.28185 -0.625,1.08262 0.54342,0.37733 a 1.9642856,1.9642856 0 0 0 -0.0301,0.33136 1.9642856,1.9642856 0 0 0 0.0286,0.33271 l -0.54199,0.37598 0.625,1.08262 0.59714,-0.2811 a 1.9642856,1.9642856 0 0 0 0.57542,0.32993 l 0.0551,0.65986 1.25,0 0.0551,-0.6585 a 1.9642856,1.9642856 0 0 0 0.57412,-0.33204 l 0.59849,0.28185 0.625,-1.08262 -0.54341,-0.37733 a 1.9642856,1.9642856 0 0 0 0.0301,-0.33136 1.9642856,1.9642856 0 0 0 -0.0286,-0.33271 l 0.54199,-0.37598 -0.625,-1.08262 -0.59712,0.2811 a 1.9642856,1.9642856 0 0 0 -0.57543,-0.32993 l -0.0551,-0.65986 -1.25,0 z m 0.625,1.66666 a 0.83333343,0.83333343 0 0 1 0.83333,0.83334 0.83333343,0.83333343 0 0 1 -0.83333,0.83334 0.83333343,0.83333343 0 0 1 -0.83333,-0.83334 0.83333343,0.83333343 0 0 1 0.83333,-0.83334 z"
           style="display:inline;opacity:1;fill:#ffffff;fill-opacity:1;stroke:none;stroke-opacity:1;enable-background:new"
           inkscape:connector-curvature="0" />
      </g>
      <g
         style="display:inline;enable-background:new;fill:#33691e;fill-opacity:1"
         transform="matrix(8,0,0,8,-856,-2492)"
         id="g4435">
        <path
           sodipodi:nodetypes="ccccc"
           style="color:#bebebe;display:inline;overflow:visible;visibility:visible;opacity:0.8;fill:#33691e;fill-opacity:1;fill-rule:nonzero;stroke:none;stroke-width:2;marker:none;enable-background:accumulate"
           d="m 150,252 4,0 0,1 -4,0 z"
           id="path4437"
           inkscape:connector-curvature="0" />
        <g
           transform="matrix(0.5,0,0,0.5,-4.0303302,132)"
           id="g4439"
           style="font-style:normal;font-variant:normal;font-weight:normal;font-stretch:normal;font-size:17.2705555px;line-height:125%;font-family:Roboto;-inkscape-font-specification:Roboto;text-align:center;letter-spacing:0px;word-spacing:0px;text-anchor:middle;display:inline;fill:#33691e;fill-opacity:1;stroke:none;enable-background:new">
          <path
             sodipodi:nodetypes="ccccccccccccccccsccccscccccccccscccccccccccccsccc"
             inkscape:connector-curvature="0"
             id="path4441"
             style="font-weight:bold;font-family:Inconsolata;-inkscape-font-specification:'Inconsolata Bold';opacity:0.8;fill:#33691e;fill-opacity:1"
             d="m 300.20309,229 1.72875,0 0,0.97826 c 0.47785,0.0956 0.91918,0.2811 1.32396,0.55657 0.41039,0.26986 0.78144,0.60436 1.11314,1.00351 l -1.02038,1.29023 c 0,0 -0.30568,-0.38639 -0.44695,-0.56497 -0.11245,-0.1293 -0.26424,-0.25579 -0.45538,-0.37948 -0.18553,-0.12367 -0.3851,-0.21081 -0.59873,-0.26142 l 0,2.5383 c 0.45537,0.14618 0.85734,0.30921 1.2059,0.48911 0.34855,0.17991 0.63808,0.38792 0.86859,0.62403 0.23611,0.23613 0.4132,0.50317 0.53127,0.80113 0.11805,0.29234 0.17708,0.62684 0.17709,1.00351 -1e-5,0.35418 -0.0618,0.69431 -0.18552,1.02038 -0.12369,0.32045 -0.30359,0.61279 -0.53971,0.87702 -0.2305,0.26423 -0.5116,0.49192 -0.84329,0.68306 -0.3317,0.19115 -0.70836,0.32889 -1.13,0.41322 l 0,0.92761 -1.72875,0 0,-0.87702 c -0.52846,-0.09 -1.03724,-0.26704 -1.52635,-0.53127 -0.48911,-0.26423 -0.92481,-0.60717 -1.3071,-1.02881 l 1.05412,-1.48419 0.48914,0.60717 c 0.19115,0.20801 0.39353,0.3851 0.60717,0.53127 0.21925,0.14617 0.47505,0.25018 0.76739,0.31202 l 0,-3.08644 c -0.4104,-0.15179 -0.77864,-0.32045 -1.1047,-0.50597 -0.32046,-0.18552 -0.59312,-0.39072 -0.818,-0.6156 -0.21925,-0.2305 -0.38791,-0.48348 -0.50597,-0.75896 -0.11806,-0.28109 -0.17709,-0.58749 -0.17709,-0.91919 0,-0.31482 0.059,-0.61559 0.17709,-0.90232 0.11806,-0.28671 0.28672,-0.54532 0.50597,-0.77582 0.21926,-0.23049 0.48349,-0.42726 0.7927,-0.59031 0.31482,-0.16864 0.66338,-0.29233 1.04567,-0.37104 l 0,-1.00352 m 1.64442,9.42797 c 0.30358,-0.10681 0.54813,-0.2586 0.73366,-0.45537 0.19114,-0.19677 0.28671,-0.45819 0.28672,-0.78426 -1e-5,-0.26985 -0.0843,-0.50597 -0.25299,-0.70837 -0.16304,-0.20238 -0.41884,-0.36542 -0.76739,-0.4891 l 0,2.4371 m -1.56009,-6.8222 c -0.23612,0.0618 -0.42727,0.17147 -0.57343,0.32888 -0.14618,0.15742 -0.21926,0.35981 -0.21926,0.60717 0,0.17991 0.059,0.36543 0.17709,0.55657 0.11806,0.19115 0.32326,0.33732 0.6156,0.43851 l 0,-1.93113" />
        </g>
      </g>
    </g>
  </g>
</svg>
