<?xml version="1.0" encoding="UTF-8" standalone="no"?>
<!-- Created with Inkscape (http://www.inkscape.org/) -->

<svg
   xmlns:dc="http://purl.org/dc/elements/1.1/"
   xmlns:cc="http://creativecommons.org/ns#"
   xmlns:rdf="http://www.w3.org/1999/02/22-rdf-syntax-ns#"
   xmlns:svg="http://www.w3.org/2000/svg"
   xmlns="http://www.w3.org/2000/svg"
   xmlns:sodipodi="http://sodipodi.sourceforge.net/DTD/sodipodi-0.dtd"
   xmlns:inkscape="http://www.inkscape.org/namespaces/inkscape"
   inkscape:export-ydpi="90.000000"
   inkscape:export-xdpi="90.000000"
   width="600"
   height="224"
   id="svg11300"
   sodipodi:version="0.32"
   inkscape:version="0.91 r13725"
   sodipodi:docname="internet-mail.svg"
   inkscape:output_extension="org.inkscape.output.svg.inkscape"
   version="1.0"
   style="display:inline;enable-background:new"
   inkscape:export-filename="/home/sam/paper-template.png">
  <title
     id="title3004">Paper Icon Theme Template</title>
  <sodipodi:namedview
     stroke="#ef2929"
     fill="#f57900"
     id="base"
     pagecolor="#474747"
     bordercolor="#666666"
     borderopacity="0.25490196"
     inkscape:pageopacity="0"
     inkscape:pageshadow="2"
     inkscape:zoom="1"
     inkscape:cx="185.19589"
     inkscape:cy="28.641823"
     inkscape:current-layer="layer6"
     showgrid="false"
     inkscape:grid-bbox="true"
     inkscape:document-units="px"
     inkscape:showpageshadow="false"
     inkscape:window-width="1366"
     inkscape:window-height="711"
     inkscape:window-x="0"
     inkscape:window-y="27"
     width="400px"
     height="300px"
     inkscape:snap-nodes="true"
     inkscape:snap-bbox="true"
     gridtolerance="10000"
     inkscape:object-nodes="true"
     inkscape:snap-grids="true"
     showguides="true"
     inkscape:guide-bbox="true"
     inkscape:window-maximized="1"
     inkscape:snap-smooth-nodes="true"
     inkscape:object-paths="true"
     inkscape:snap-intersection-paths="true">
    <inkscape:grid
       spacingy="1px"
       spacingx="1px"
       id="grid5883"
       type="xygrid"
       enabled="true"
       visible="true"
       empspacing="4"
       snapvisiblegridlinesonly="true" />
    <inkscape:grid
       type="xygrid"
       id="grid11592"
       empspacing="2"
       visible="true"
       enabled="false"
       spacingx="0.5px"
       spacingy="0.5px"
       color="#ff0000"
       opacity="0.1254902"
       empcolor="#ff0000"
       empopacity="0.25098039"
       snapvisiblegridlinesonly="true" />
    <sodipodi:guide
       orientation="0,1"
       position="0,224"
       id="guide4275" />
  </sodipodi:namedview>
  <defs
     id="defs3">
    <filter
       inkscape:collect="always"
       style="color-interpolation-filters:sRGB"
       id="filter4434"
       x="-0.0615"
       width="1.123"
       y="-0.058571429"
       height="1.1171429">
      <feGaussianBlur
         inkscape:collect="always"
         stdDeviation="1.025"
         id="feGaussianBlur4436" />
    </filter>
    <clipPath
       clipPathUnits="userSpaceOnUse"
       id="clipPath4446">
      <path
         id="path4448"
         d="m 160,238 -19.08984,14.32422 c -0.0411,0.0267 -0.0783,0.0583 -0.11719,0.0879 l -0.0234,0.0176 0,0.002 C 140.30396,252.7972 140,253.35949 140,254 l 0,24 c 0,1.108 0.892,2 2,2 l 36,0 c 1.108,0 2,-0.892 2,-2 l 0,-24 c 0,-0.65501 -0.31697,-1.22937 -0.80078,-1.59375 l 0.008,-0.0117 L 160,238 Z"
         style="fill:#fe9700;fill-opacity:1;stroke:none"
         inkscape:connector-curvature="0" />
    </clipPath>
    <filter
       inkscape:collect="always"
       style="color-interpolation-filters:sRGB"
       id="filter4456"
       x="-0.10285306"
       width="1.2057061"
       y="-0.144008"
       height="1.288016">
      <feGaussianBlur
         inkscape:collect="always"
         stdDeviation="1.8005944"
         id="feGaussianBlur4458" />
    </filter>
    <filter
       inkscape:collect="always"
       style="color-interpolation-filters:sRGB"
       id="filter4507"
       x="-0.10875"
       width="1.2175"
       y="-0.13384615"
       height="1.2676923">
      <feGaussianBlur
         inkscape:collect="always"
         stdDeviation="1.45"
         id="feGaussianBlur4509" />
    </filter>
    <filter
       inkscape:collect="always"
       style="color-interpolation-filters:sRGB"
       id="filter4524"
       x="-0.051426531"
       width="1.1028531"
       y="-0.072004"
       height="1.144008">
      <feGaussianBlur
         inkscape:collect="always"
         stdDeviation="0.90029722"
         id="feGaussianBlur4526" />
    </filter>
  </defs>
  <metadata
     id="metadata4">
    <rdf:RDF>
      <cc:Work
         rdf:about="">
        <dc:format>image/svg+xml</dc:format>
        <dc:type
           rdf:resource="http://purl.org/dc/dcmitype/StillImage" />
        <dc:creator>
          <cc:Agent>
            <dc:title>Sam Hewitt</dc:title>
          </cc:Agent>
        </dc:creator>
        <dc:source />
        <cc:license
           rdf:resource="" />
        <dc:title>Paper Icon Theme Template</dc:title>
        <dc:subject>
          <rdf:Bag />
        </dc:subject>
        <dc:date />
        <dc:rights>
          <cc:Agent>
            <dc:title />
          </cc:Agent>
        </dc:rights>
        <dc:publisher>
          <cc:Agent>
            <dc:title />
          </cc:Agent>
        </dc:publisher>
        <dc:identifier />
        <dc:relation />
        <dc:language />
        <dc:coverage />
        <dc:description />
        <dc:contributor>
          <cc:Agent>
            <dc:title />
          </cc:Agent>
        </dc:contributor>
      </cc:Work>
      <cc:Work
         rdf:about="">
        <dc:format>image/svg+xml</dc:format>
        <dc:type
           rdf:resource="http://purl.org/dc/dcmitype/StillImage" />
      </cc:Work>
    </rdf:RDF>
  </metadata>
  <g
     style="display:inline"
     inkscape:groupmode="layer"
     inkscape:label="Icon"
     id="layer1"
     transform="translate(0,-76)">
    <g
       style="display:none"
       inkscape:label="Baseplate"
       id="layer7"
       inkscape:groupmode="layer">
      <text
         y="59.745117"
         xml:space="preserve"
         x="15.006836"
         style="font-style:normal;font-variant:normal;font-weight:normal;font-stretch:normal;font-size:18px;font-family:'DejaVu Sans';-inkscape-font-specification:'DejaVu Sans';display:inline;fill:#000000;fill-opacity:1;stroke:none;enable-background:new"
         inkscape:label="context"
         id="context"><tspan
           style="font-style:normal;font-variant:normal;font-weight:normal;font-stretch:normal;font-family:'DejaVu Sans';-inkscape-font-specification:'DejaVu Sans'"
           y="59.745117"
           x="15.006836"
           sodipodi:role="line"
           id="tspan3933">apps</tspan></text>
      <text
         y="59.745117"
         xml:space="preserve"
         x="142.48828"
         style="font-style:normal;font-variant:normal;font-weight:bold;font-stretch:normal;font-size:18px;line-height:125%;font-family:'DejaVu Sans';-inkscape-font-specification:'DejaVu Sans Bold';text-align:start;writing-mode:lr-tb;text-anchor:start;display:inline;fill:#000000;fill-opacity:1;stroke:none;enable-background:new"
         sodipodi:linespacing="125%"
         inkscape:label="icon-name"
         id="icon-name"><tspan
           style="font-style:normal;font-variant:normal;font-weight:bold;font-stretch:normal;font-size:18px;font-family:'DejaVu Sans';-inkscape-font-specification:'DejaVu Sans Bold'"
           y="59.745117"
           x="142.48828"
           sodipodi:role="line"
           id="tspan3937">internet-mail</tspan></text>
      <rect
         style="display:inline;overflow:visible;visibility:visible;fill:#e9e9e9;fill-opacity:1;fill-rule:nonzero;stroke:none;stroke-width:2;marker:none;enable-background:accumulate"
         id="rect16x16"
         width="16"
         height="16"
         x="-32"
         y="268"
         inkscape:label="16x16"
         transform="scale(-1,1)" />
      <rect
         style="display:inline;overflow:visible;visibility:visible;fill:#e9e9e9;fill-opacity:1;fill-rule:nonzero;stroke:none;stroke-width:2;marker:none;enable-background:accumulate"
         id="rect24x24"
         width="24"
         height="24"
         x="-72"
         y="260"
         inkscape:label="24x24"
         transform="scale(-1,1)" />
      <rect
         style="display:inline;overflow:visible;visibility:visible;fill:#e9e9e9;fill-opacity:1;fill-rule:nonzero;stroke:none;stroke-width:2;marker:none;enable-background:accumulate"
         id="rect32x32"
         width="32"
         height="32"
         x="-120"
         y="252"
         inkscape:label="32x32"
         transform="scale(-1,1)" />
      <rect
         inkscape:label="48x48"
         y="236"
         x="-184"
         height="48"
         width="48"
         id="rect48x48"
         style="display:inline;overflow:visible;visibility:visible;fill:#e9e9e9;fill-opacity:1;fill-rule:nonzero;stroke:none;stroke-width:2;marker:none;enable-background:accumulate"
         transform="scale(-1,1)" />
      <rect
         style="display:inline;overflow:visible;visibility:visible;fill:#e9e9e9;fill-opacity:1;fill-rule:nonzero;stroke:none;stroke-width:2;marker:none;enable-background:accumulate"
         id="rect256x256"
         width="192"
         height="192"
         x="-584"
         y="92"
         inkscape:label="256x256"
         transform="scale(-1,1)" />
      <rect
         inkscape:label="256x256"
         y="188"
         x="-376"
         height="96"
         width="96"
         id="rect3949"
         style="display:inline;overflow:visible;visibility:visible;fill:#e9e9e9;fill-opacity:1;fill-rule:nonzero;stroke:none;stroke-width:2;marker:none;enable-background:accumulate"
         transform="scale(-1,1)" />
      <rect
         style="display:inline;overflow:visible;visibility:visible;fill:#e9e9e9;fill-opacity:1;fill-rule:nonzero;stroke:none;stroke-width:2;marker:none;enable-background:accumulate"
         id="rect3951"
         width="64"
         height="64"
         x="-264"
         y="220"
         inkscape:label="48x48"
         transform="scale(-1,1)" />
    </g>
    <g
       inkscape:groupmode="layer"
       id="layer6"
       inkscape:label="Symbols"
       style="display:inline">
      <rect
         ry="3"
         rx="3"
         y="-260"
         x="-280"
         height="56"
         width="56"
         id="rect4229"
         style="fill:#fec006;fill-opacity:1;stroke:none"
         transform="matrix(0,-1,-1,0,0,0)" />
      <path
         d="m 42,8 a 2,2 0 0 1 -2,2 2,2 0 0 1 -2,-2 2,2 0 0 1 2,-2 2,2 0 0 1 2,2 z"
         sodipodi:ry="2"
         sodipodi:rx="2"
         sodipodi:cy="8"
         sodipodi:cx="40"
         id="path4231"
         style="opacity:0.2;fill:#000000;fill-opacity:1;stroke:none"
         sodipodi:type="arc"
         transform="matrix(1.5,0,0,1.5,197,215)" />
      <path
         transform="matrix(1.5,0,0,1.5,147,215)"
         sodipodi:type="arc"
         style="opacity:0.2;fill:#000000;fill-opacity:1;stroke:none"
         id="path4233"
         sodipodi:cx="40"
         sodipodi:cy="8"
         sodipodi:rx="2"
         sodipodi:ry="2"
         d="m 42,8 a 2,2 0 0 1 -2,2 2,2 0 0 1 -2,-2 2,2 0 0 1 2,-2 2,2 0 0 1 2,2 z" />
      <path
         d="m 42,8 a 2,2 0 0 1 -2,2 2,2 0 0 1 -2,-2 2,2 0 0 1 2,-2 2,2 0 0 1 2,2 z"
         sodipodi:ry="2"
         sodipodi:rx="2"
         sodipodi:cy="8"
         sodipodi:cx="40"
         id="path4235"
         style="opacity:0.2;fill:#000000;fill-opacity:1;stroke:none"
         sodipodi:type="arc"
         transform="matrix(1.5,0,0,1.5,147,265)" />
      <path
         transform="matrix(1.5,0,0,1.5,197,265)"
         sodipodi:type="arc"
         style="opacity:0.2;fill:#000000;fill-opacity:1;stroke:none"
         id="path4237"
         sodipodi:cx="40"
         sodipodi:cy="8"
         sodipodi:rx="2"
         sodipodi:ry="2"
         d="m 42,8 a 2,2 0 0 1 -2,2 2,2 0 0 1 -2,-2 2,2 0 0 1 2,-2 2,2 0 0 1 2,2 z" />
      <rect
         transform="matrix(0,-1,-1,0,0,0)"
         style="fill:#fec006;fill-opacity:1;stroke:none"
         id="rect4255"
         width="28"
         height="28"
         x="-282"
         y="-118"
         rx="1.5"
         ry="1.5" />
      <path
         transform="matrix(0.75,0,0,0.75,86.5,249.5)"
         sodipodi:type="arc"
         style="opacity:0.2;fill:#000000;fill-opacity:1;stroke:none"
         id="path4257"
         sodipodi:cx="40"
         sodipodi:cy="8"
         sodipodi:rx="2"
         sodipodi:ry="2"
         d="m 42,8 a 2,2 0 0 1 -2,2 2,2 0 0 1 -2,-2 2,2 0 0 1 2,-2 2,2 0 0 1 2,2 z" />
      <path
         d="m 42,8 a 2,2 0 0 1 -2,2 2,2 0 0 1 -2,-2 2,2 0 0 1 2,-2 2,2 0 0 1 2,2 z"
         sodipodi:ry="2"
         sodipodi:rx="2"
         sodipodi:cy="8"
         sodipodi:cx="40"
         id="path4259"
         style="opacity:0.2;fill:#000000;fill-opacity:1;stroke:none"
         sodipodi:type="arc"
         transform="matrix(0.75,0,0,0.75,61.5,249.5)" />
      <path
         transform="matrix(0.75,0,0,0.75,61.5,274.5)"
         sodipodi:type="arc"
         style="opacity:0.2;fill:#000000;fill-opacity:1;stroke:none"
         id="path4261"
         sodipodi:cx="40"
         sodipodi:cy="8"
         sodipodi:rx="2"
         sodipodi:ry="2"
         d="m 42,8 a 2,2 0 0 1 -2,2 2,2 0 0 1 -2,-2 2,2 0 0 1 2,-2 2,2 0 0 1 2,2 z" />
      <path
         d="m 42,8 a 2,2 0 0 1 -2,2 2,2 0 0 1 -2,-2 2,2 0 0 1 2,-2 2,2 0 0 1 2,2 z"
         sodipodi:ry="2"
         sodipodi:rx="2"
         sodipodi:cy="8"
         sodipodi:cx="40"
         id="path4263"
         style="opacity:0.2;fill:#000000;fill-opacity:1;stroke:none"
         sodipodi:type="arc"
         transform="matrix(0.75,0,0,0.75,86.5,274.5)" />
      <rect
         transform="matrix(0,-1,-1,0,0,0)"
         style="display:inline;enable-background:new;fill:#fec006;fill-opacity:1;stroke:none"
         id="rect4265"
         width="16"
         height="16"
         x="-284"
         y="-32"
         rx="1"
         ry="1" />
      <path
         transform="matrix(0.5,0,0,0.5,11,265)"
         sodipodi:type="arc"
         style="display:inline;enable-background:new;opacity:0.20000000000000001;fill:#000000;fill-opacity:1;stroke:none"
         id="path4267"
         sodipodi:cx="40"
         sodipodi:cy="8"
         sodipodi:rx="2"
         sodipodi:ry="2"
         d="m 42,8 a 2,2 0 0 1 -2,2 2,2 0 0 1 -2,-2 2,2 0 0 1 2,-2 2,2 0 0 1 2,2 z" />
      <path
         d="m 42,8 a 2,2 0 0 1 -2,2 2,2 0 0 1 -2,-2 2,2 0 0 1 2,-2 2,2 0 0 1 2,2 z"
         sodipodi:ry="2"
         sodipodi:rx="2"
         sodipodi:cy="8"
         sodipodi:cx="40"
         id="path4269"
         style="display:inline;enable-background:new;opacity:0.20000000000000001;fill:#000000;fill-opacity:1;stroke:none"
         sodipodi:type="arc"
         transform="matrix(0.5,0,0,0.5,-3,265)" />
      <path
         transform="matrix(0.5,0,0,0.5,-3,279)"
         sodipodi:type="arc"
         style="display:inline;enable-background:new;opacity:0.20000000000000001;fill:#000000;fill-opacity:1;stroke:none"
         id="path4271"
         sodipodi:cx="40"
         sodipodi:cy="8"
         sodipodi:rx="2"
         sodipodi:ry="2"
         d="m 42,8 a 2,2 0 0 1 -2,2 2,2 0 0 1 -2,-2 2,2 0 0 1 2,-2 2,2 0 0 1 2,2 z" />
      <path
         d="m 42,8 a 2,2 0 0 1 -2,2 2,2 0 0 1 -2,-2 2,2 0 0 1 2,-2 2,2 0 0 1 2,2 z"
         sodipodi:ry="2"
         sodipodi:rx="2"
         sodipodi:cy="8"
         sodipodi:cx="40"
         id="path4273"
         style="display:inline;enable-background:new;opacity:0.20000000000000001;fill:#000000;fill-opacity:1;stroke:none"
         sodipodi:type="arc"
         transform="matrix(0.5,0,0,0.5,11,279)" />
      <path
         inkscape:connector-curvature="0"
         style="opacity:0.5;fill:#000000;fill-opacity:1;stroke:none;filter:url(#filter4434)"
         d="m 160,239 -19.08984,14.32422 c -0.0411,0.0267 -0.0783,0.0583 -0.11719,0.0879 l -0.0234,0.0176 0,0.002 C 140.30396,253.7972 140,254.35949 140,255 l 0,24 c 0,1.108 0.892,2 2,2 l 36,0 c 1.108,0 2,-0.892 2,-2 l 0,-24 c 0,-0.65501 -0.31697,-1.22937 -0.80078,-1.59375 l 0.008,-0.0117 L 160,239 Z"
         id="path4553"
         transform="matrix(2,0,0,2,8,-284)" />
      <path
         inkscape:connector-curvature="0"
         id="path4555"
         d="m 328,192 -38.17968,28.64844 c -0.0822,0.0534 -0.1566,0.1166 -0.23438,0.1758 l -0.0468,0.0352 0,0.004 C 288.60792,221.5944 288,222.71898 288,224 l 0,48 c 0,2.216 1.784,4 4,4 l 72,0 c 2.216,0 4,-1.784 4,-4 l 0,-48 c 0,-1.31002 -0.63394,-2.45874 -1.60156,-3.1875 l 0.016,-0.0234 L 328,192 Z"
         style="fill:#fe9700;fill-opacity:1;stroke:none" />
      <rect
         style="opacity:0.2;fill:#000000;fill-opacity:1;stroke:none;stroke-width:2;stroke-linecap:round;stroke-linejoin:miter;stroke-miterlimit:4;stroke-dasharray:none;stroke-opacity:1;filter:url(#filter4507)"
         id="rect4557"
         width="32"
         height="26"
         x="144"
         y="243"
         rx="2"
         ry="2"
         transform="matrix(2,0,0,2,8,-284)" />
      <path
         style="opacity:0.1;fill:#ffffff;fill-opacity:1;stroke:none"
         d="M 328 116 L 289.82031 144.64844 C 289.73811 144.70184 289.66372 144.76502 289.58594 144.82422 L 289.53906 144.85938 L 289.53906 144.86328 C 288.60784 145.59424 288 146.71898 288 148 L 288 149 C 288 147.71898 288.60784 146.59424 289.53906 145.86328 L 289.53906 145.85938 L 289.58594 145.82422 C 289.66372 145.76502 289.73811 145.70184 289.82031 145.64844 L 328 117 L 366.41406 145.78906 L 366.39844 145.8125 C 367.36606 146.54126 368 147.68998 368 149 L 368 148 C 368 146.68998 367.36606 145.54126 366.39844 144.8125 L 366.41406 144.78906 L 328 116 z "
         transform="translate(0,76)"
         id="path4559" />
      <rect
         ry="4"
         rx="4"
         y="200"
         x="296"
         height="52"
         width="64"
         id="rect4561"
         style="opacity:1;fill:#ebebeb;fill-opacity:1;stroke:none;stroke-width:2;stroke-linecap:round;stroke-linejoin:miter;stroke-miterlimit:4;stroke-dasharray:none;stroke-opacity:1" />
      <path
         sodipodi:nodetypes="ssssccs"
         inkscape:connector-curvature="0"
         style="display:inline;opacity:0.1;fill:#ffffff;fill-opacity:1;stroke:none;enable-background:new"
         d="m 296,248 c 0,2.216 1.784,4 4,4 l 56,0 c 2.216,0 4,-1.784 4,-4 l 0,-23.94454 -64,0 z"
         id="path4563" />
      <path
         clip-path="url(#clipPath4446)"
         style="opacity:0.2;fill:#000000;fill-opacity:1;stroke:none;filter:url(#filter4456)"
         d="m 140,254 38,26 -40,4 c -1.1025,0.11025 -2.15669,-0.90314 -2,-2 z"
         id="path4565"
         inkscape:connector-curvature="0"
         sodipodi:nodetypes="ccssc"
         transform="matrix(2,0,0,2,8,-284)" />
      <path
         sodipodi:nodetypes="ccssc"
         inkscape:connector-curvature="0"
         id="path4567"
         d="m 288,224 76,52 -72,0 c -2.216,0 -4,-1.784 -4,-4 z"
         style="fill:#fec006;fill-opacity:1;stroke:none" />
      <path
         transform="matrix(-2,0,0,2,648,-284)"
         sodipodi:nodetypes="ccssc"
         inkscape:connector-curvature="0"
         id="path4569"
         d="m 140,254 38,26 -40,4 c -1.1025,0.11025 -2.15669,-0.90314 -2,-2 z"
         style="opacity:0.1;fill:#000000;fill-opacity:1;stroke:none;filter:url(#filter4524)"
         clip-path="url(#clipPath4446)" />
      <path
         sodipodi:nodetypes="sscccs"
         inkscape:connector-curvature="0"
         id="path4571"
         d="m 364,276 c 2.216,0 4,-1.784 4,-4 l 0,-48 0,0 -76,52 z"
         style="fill:#fecd38;fill-opacity:1;stroke:none" />
      <path
         style="opacity:0.1;fill:#ffffff;fill-opacity:1;stroke:none;stroke-width:2;stroke-linecap:round;stroke-linejoin:miter;stroke-miterlimit:4;stroke-dasharray:none;stroke-opacity:1"
         d="M 300 124 C 297.784 124 296 125.784 296 128 L 296 129 C 296 126.784 297.784 125 300 125 L 356 125 C 358.216 125 360 126.784 360 129 L 360 128 C 360 125.784 358.216 124 356 124 L 300 124 z "
         transform="translate(0,76)"
         id="path4573" />
      <path
         id="path4575"
         d="m 296,205 c 0,-2.216 1.784,-4 4,-4 l 56,0 c 2.216,0 4,1.784 4,4 l 0,19 -64,0 z"
         style="display:inline;opacity:0.1;fill:#000000;fill-opacity:1;stroke:none;enable-background:new"
         inkscape:connector-curvature="0"
         sodipodi:nodetypes="ssssccs" />
      <path
         style="opacity:0.1;fill:#ffffff;fill-opacity:1;stroke:none"
         d="M 368 148 L 292 200 L 293.46094 200 L 368 149 L 368 148 z "
         transform="translate(0,76)"
         id="path4577" />
      <path
         style="opacity:0.1;fill:#ffffff;fill-opacity:1;stroke:none"
         d="M 288 148 L 288 149 L 327.26953 175.86719 L 328 175.36719 L 288 148 z "
         transform="translate(0,76)"
         id="path4579" />
      <path
         sodipodi:nodetypes="ssscccsssssssssssccssssssss"
         inkscape:connector-curvature="0"
         id="path4581"
         d="m 328,208 c -8.83656,0 -16,7.16344 -16,16 0,8.83656 7.16344,16 16,16 l 10,0 c 0,0 1.875,0 2,-2 0,-2 -2,-2 -2,-2 l -10,0 c -6.62742,0 -12,-5.37258 -12,-12 0,-6.62742 5.37258,-12 12,-12 6.62742,0 12,5.37258 12,12 l 0,2 c 0,1.10456 -0.89544,2 -2,2 -1.10456,0 -2,-0.89544 -2,-2 l 0,-2 c 0,-4.41828 -3.58172,-8 -8,-8 -4.41828,0 -8,3.58172 -8,8 0,4.41828 3.58172,8 8,8 2.09232,0 3.98068,-0.8218 5.40624,-2.13672 1.1407,1.3555 2.82214,2.1376 4.59376,2.13672 3.3137,0 6,-2.6863 6,-6 l 0,-2 c 0,-8.83656 -7.16344,-16 -16,-16 z m 0,12 c 2.20914,0 4,1.79086 4,4 0,2.20914 -1.79086,4 -4,4 -2.20914,0 -4,-1.79086 -4,-4 0,-2.20914 1.79086,-4 4,-4 z"
         style="opacity:0.4;fill:#000000;fill-opacity:1;stroke:none;stroke-width:2;stroke-linecap:round;stroke-linejoin:miter;stroke-miterlimit:4;stroke-dasharray:none;stroke-opacity:1" />
      <path
         id="path4591"
         d="m 160,239 -19.08984,14.32422 c -0.0411,0.0267 -0.0783,0.0583 -0.11719,0.0879 l -0.0234,0.0176 0,0.002 C 140.30396,253.7972 140,254.35949 140,255 l 0,24 c 0,1.108 0.892,2 2,2 l 36,0 c 1.108,0 2,-0.892 2,-2 l 0,-24 c 0,-0.65501 -0.31697,-1.22937 -0.80078,-1.59375 l 0.008,-0.0117 L 160,239 Z"
         style="opacity:0.5;fill:#000000;fill-opacity:1;stroke:none;filter:url(#filter4434)"
         inkscape:connector-curvature="0"
         transform="matrix(4,0,0,4,-152,-852)" />
      <path
         style="fill:#fe9700;fill-opacity:1;stroke:none"
         d="m 488,100 -76.35936,57.29688 c -0.1644,0.1068 -0.3132,0.2332 -0.46876,0.3516 l -0.0936,0.0704 0,0.008 C 409.21584,159.1888 408,161.43796 408,164 l 0,96 c 0,4.432 3.568,8 8,8 l 144,0 c 4.432,0 8,-3.568 8,-8 l 0,-96 c 0,-2.62004 -1.26788,-4.91748 -3.20312,-6.375 l 0.032,-0.0468 L 488,100 Z"
         id="path4593"
         inkscape:connector-curvature="0" />
      <rect
         ry="2"
         rx="2"
         y="243"
         x="144"
         height="26"
         width="32"
         id="rect4595"
         style="opacity:0.2;fill:#000000;fill-opacity:1;stroke:none;stroke-width:2;stroke-linecap:round;stroke-linejoin:miter;stroke-miterlimit:4;stroke-dasharray:none;stroke-opacity:1;filter:url(#filter4507)"
         transform="matrix(4,0,0,4,-152,-852)" />
      <path
         style="opacity:0.1;fill:#ffffff;fill-opacity:1;stroke:none"
         d="M 488 24 L 411.64062 81.296875 C 411.47622 81.403675 411.32743 81.530038 411.17188 81.648438 L 411.07812 81.71875 L 411.07812 81.726562 C 409.21568 83.188482 408 85.43796 408 88 L 408 89 C 408 86.43796 409.21568 84.188482 411.07812 82.726562 L 411.07812 82.71875 L 411.17188 82.648438 C 411.32743 82.530038 411.47622 82.403675 411.64062 82.296875 L 488 25 L 564.82812 82.578125 L 564.79688 82.625 C 566.73211 84.08252 568 86.37996 568 89 L 568 88 C 568 85.37996 566.73211 83.08252 564.79688 81.625 L 564.82812 81.578125 L 488 24 z "
         transform="translate(0,76)"
         id="path4597" />
      <rect
         style="opacity:1;fill:#ebebeb;fill-opacity:1;stroke:none;stroke-width:2;stroke-linecap:round;stroke-linejoin:miter;stroke-miterlimit:4;stroke-dasharray:none;stroke-opacity:1"
         id="rect4599"
         width="128"
         height="104"
         x="424"
         y="116"
         rx="8"
         ry="8" />
      <path
         id="path4601"
         d="m 424,212 c 0,4.432 3.568,8 8,8 l 112,0 c 4.432,0 8,-3.568 8,-8 l 0,-47.88908 -128,0 z"
         style="display:inline;opacity:0.1;fill:#ffffff;fill-opacity:1;stroke:none;enable-background:new"
         inkscape:connector-curvature="0"
         sodipodi:nodetypes="ssssccs" />
      <path
         sodipodi:nodetypes="ccssc"
         inkscape:connector-curvature="0"
         id="path4603"
         d="m 140,254 38,26 -40,4 c -1.1025,0.11025 -2.15669,-0.90314 -2,-2 z"
         style="opacity:0.2;fill:#000000;fill-opacity:1;stroke:none;filter:url(#filter4456)"
         clip-path="url(#clipPath4446)"
         transform="matrix(4,0,0,4,-152,-852)" />
      <path
         style="fill:#fec006;fill-opacity:1;stroke:none"
         d="m 408,164 152,104 -144,0 c -4.432,0 -8,-3.568 -8,-8 z"
         id="path4605"
         inkscape:connector-curvature="0"
         sodipodi:nodetypes="ccssc" />
      <path
         clip-path="url(#clipPath4446)"
         style="opacity:0.1;fill:#000000;fill-opacity:1;stroke:none;filter:url(#filter4524)"
         d="m 140,254 38,26 -40,4 c -1.1025,0.11025 -2.15669,-0.90314 -2,-2 z"
         id="path4607"
         inkscape:connector-curvature="0"
         sodipodi:nodetypes="ccssc"
         transform="matrix(-4,0,0,4,1128,-852)" />
      <path
         style="fill:#fecd38;fill-opacity:1;stroke:none"
         d="m 560,268 c 4.432,0 8,-3.568 8,-8 l 0,-96 0,0 -152,104 z"
         id="path4609"
         inkscape:connector-curvature="0"
         sodipodi:nodetypes="sscccs" />
      <path
         sodipodi:nodetypes="ssssccs"
         inkscape:connector-curvature="0"
         style="display:inline;opacity:0.1;fill:#000000;fill-opacity:1;stroke:none;enable-background:new"
         d="m 424,125 c 0,-4.432 3.568,-8 8,-8 l 112,0 c 4.432,0 8,3.568 8,8 l 0,39 -128,0 z"
         id="path4613" />
      <path
         style="opacity:0.1;fill:#ffffff;fill-opacity:1;stroke:none"
         d="M 568 88 L 416 192 L 417.46094 192 L 568 89 L 568 88 z "
         transform="translate(0,76)"
         id="path4615" />
      <path
         style="opacity:0.1;fill:#ffffff;fill-opacity:1;stroke:none"
         d="M 408 88 L 408 89 L 487.26953 143.23438 L 488 142.73438 L 408 88 z "
         transform="translate(0,76)"
         id="path4617" />
      <path
         style="opacity:0.4;fill:#000000;fill-opacity:1;stroke:none;stroke-width:2;stroke-linecap:round;stroke-linejoin:miter;stroke-miterlimit:4;stroke-dasharray:none;stroke-opacity:1"
         d="m 488,132 c -17.67312,0 -32,14.32688 -32,32 0,17.67312 14.32688,32 32,32 l 20,0 c 0,0 3.75,0 4,-4 0,-4 -4,-4 -4,-4 l -20,0 c -13.25484,0 -24,-10.74516 -24,-24 0,-13.25484 10.74516,-24 24,-24 13.25484,0 24,10.74516 24,24 l 0,4 c 0,2.20912 -1.79088,4 -4,4 -2.20912,0 -4,-1.79088 -4,-4 l 0,-4 c 0,-8.83656 -7.16344,-16 -16,-16 -8.83656,0 -16,7.16344 -16,16 0,8.83656 7.16344,16 16,16 4.18464,0 7.96136,-1.6436 10.81248,-4.27344 2.2814,2.711 5.64428,4.2752 9.18752,4.27344 6.6274,0 12,-5.3726 12,-12 l 0,-4 c 0,-17.67312 -14.32688,-32 -32,-32 z m 0,24 c 4.41828,0 8,3.58172 8,8 0,4.41828 -3.58172,8 -8,8 -4.41828,0 -8,-3.58172 -8,-8 0,-4.41828 3.58172,-8 8,-8 z"
         id="path4619"
         inkscape:connector-curvature="0"
         sodipodi:nodetypes="ssscccsssssssssssccssssssss" />
      <path
         style="opacity:0.1;fill:#ffffff;fill-opacity:1;stroke:none;stroke-width:2;stroke-linecap:round;stroke-linejoin:miter;stroke-miterlimit:4;stroke-dasharray:none;stroke-opacity:1"
         d="M 432 40 C 427.568 40 424 43.568 424 48 L 424 49 C 424 44.568 427.568 41 432 41 L 544 41 C 548.432 41 552 44.568 552 49 L 552 48 C 552 43.568 548.432 40 544 40 L 432 40 z "
         transform="translate(0,76)"
         id="path4611" />
      <path
         id="path4432"
         d="m 160,239 -19.08984,14.32422 c -0.0411,0.0267 -0.0783,0.0583 -0.11719,0.0879 l -0.0234,0.0176 0,0.002 C 140.30396,253.7972 140,254.35949 140,255 l 0,24 c 0,1.108 0.892,2 2,2 l 36,0 c 1.108,0 2,-0.892 2,-2 l 0,-24 c 0,-0.65501 -0.31697,-1.22937 -0.80078,-1.59375 l 0.008,-0.0117 L 160,239 Z"
         style="opacity:0.5;fill:#000000;fill-opacity:1;stroke:none;filter:url(#filter4434)"
         inkscape:connector-curvature="0" />
      <path
         inkscape:connector-curvature="0"
         style="fill:#fe9700;fill-opacity:1;stroke:none"
         d="m 160,238 -19.08984,14.32422 c -0.0411,0.0267 -0.0783,0.0583 -0.11719,0.0879 l -0.0234,0.0176 0,0.002 C 140.30396,252.7972 140,253.35949 140,254 l 0,24 c 0,1.108 0.892,2 2,2 l 36,0 c 1.108,0 2,-0.892 2,-2 l 0,-24 c 0,-0.65501 -0.31697,-1.22937 -0.80078,-1.59375 l 0.008,-0.0117 L 160,238 Z"
         id="rect4388" />
      <rect
         ry="2"
         rx="2"
         y="243"
         x="144"
         height="26"
         width="32"
         id="rect4505"
         style="opacity:0.2;fill:#000000;fill-opacity:1;stroke:none;stroke-width:2;stroke-linecap:round;stroke-linejoin:miter;stroke-miterlimit:4;stroke-dasharray:none;stroke-opacity:1;filter:url(#filter4507)" />
      <path
         inkscape:connector-curvature="0"
         style="opacity:0.1;fill:#ffffff;fill-opacity:1;stroke:none"
         d="m 160,238 -19.08984,14.32422 c -0.0411,0.0267 -0.0783,0.0583 -0.11719,0.0879 l -0.0234,0.0176 0,0.002 C 140.30396,252.7972 140,253.35949 140,254 l 0,1 c 0,-0.64051 0.30392,-1.20288 0.76953,-1.56836 l 0,-0.002 0.0234,-0.0176 c 0.0389,-0.0296 0.0761,-0.0612 0.11719,-0.0879 L 160,239 l 19.20703,14.39453 -0.008,0.0117 C 179.68303,253.77063 180,254.34499 180,255 l 0,-1 c 0,-0.65501 -0.31697,-1.22937 -0.80078,-1.59375 l 0.008,-0.0117 L 160,238 Z"
         id="path4417" />
      <rect
         style="opacity:1;fill:#ebebeb;fill-opacity:1;stroke:none;stroke-width:2;stroke-linecap:round;stroke-linejoin:miter;stroke-miterlimit:4;stroke-dasharray:none;stroke-opacity:1"
         id="rect4386"
         width="32"
         height="26"
         x="144"
         y="242"
         rx="2"
         ry="2" />
      <path
         id="path4294"
         d="m 144,266 c 0,1.108 0.892,2 2,2 l 28,0 c 1.108,0 2,-0.892 2,-2 l 0,-11.97227 -32,0 z"
         style="display:inline;opacity:0.1;fill:#ffffff;fill-opacity:1;stroke:none;enable-background:new"
         inkscape:connector-curvature="0"
         sodipodi:nodetypes="ssssccs" />
      <path
         sodipodi:nodetypes="ccssc"
         inkscape:connector-curvature="0"
         id="path4440"
         d="m 140,254 38,26 -40,4 c -1.1025,0.11025 -2.15669,-0.90314 -2,-2 z"
         style="opacity:0.2;fill:#000000;fill-opacity:1;stroke:none;filter:url(#filter4456)"
         clip-path="url(#clipPath4446)" />
      <path
         style="fill:#fec006;fill-opacity:1;stroke:none"
         d="m 140,254 38,26 -36,0 c -1.108,0 -2,-0.892 -2,-2 z"
         id="rect4203"
         inkscape:connector-curvature="0"
         sodipodi:nodetypes="ccssc" />
      <path
         clip-path="url(#clipPath4446)"
         style="opacity:0.1;fill:#000000;fill-opacity:1;stroke:none;filter:url(#filter4524)"
         d="m 140,254 38,26 -40,4 c -1.1025,0.11025 -2.15669,-0.90314 -2,-2 z"
         id="path4450"
         inkscape:connector-curvature="0"
         sodipodi:nodetypes="ccssc"
         transform="matrix(-1,0,0,1,320,0)" />
      <path
         style="fill:#fecd38;fill-opacity:1;stroke:none"
         d="m 178,280 c 1.108,0 2,-0.892 2,-2 l 0,-24 0,0 -38,26 z"
         id="rect4378"
         inkscape:connector-curvature="0"
         sodipodi:nodetypes="sscccs" />
      <path
         style="opacity:0.1;fill:#ffffff;fill-opacity:1;stroke:none;stroke-width:2;stroke-linecap:round;stroke-linejoin:miter;stroke-miterlimit:4;stroke-dasharray:none;stroke-opacity:1"
         d="m 146,242 c -1.108,0 -2,0.892 -2,2 l 0,1 c 0,-1.108 0.892,-2 2,-2 l 28,0 c 1.108,0 2,0.892 2,2 l 0,-1 c 0,-1.108 -0.892,-2 -2,-2 z"
         id="rect4396"
         inkscape:connector-curvature="0"
         sodipodi:nodetypes="sscsscsss" />
      <path
         sodipodi:nodetypes="ssssccs"
         inkscape:connector-curvature="0"
         style="display:inline;opacity:0.1;fill:#000000;fill-opacity:1;stroke:none;enable-background:new"
         d="m 144,245 c 0,-1.108 0.892,-2 2,-2 l 28,0 c 1.108,0 2,0.892 2,2 l 0,9 -32,0 z"
         id="path4412" />
      <path
         inkscape:connector-curvature="0"
         style="opacity:0.1;fill:#ffffff;fill-opacity:1;stroke:none"
         d="m 180,254 -38,26 1.46094,0 L 180,255 l 0,-1 z"
         id="path4422" />
      <path
         style="opacity:0.1;fill:#ffffff;fill-opacity:1;stroke:none"
         d="m 140,254 0,1 19.26953,13.18359 0.73047,-0.5 z"
         id="path4427"
         inkscape:connector-curvature="0"
         sodipodi:nodetypes="ccccc" />
      <path
         style="opacity:0.4;fill:#000000;fill-opacity:1;stroke:none;stroke-width:2;stroke-linecap:round;stroke-linejoin:miter;stroke-miterlimit:4;stroke-dasharray:none;stroke-opacity:1"
         d="m 160,246 c -4.41828,0 -8,3.58172 -8,8 0,4.41828 3.58172,8 8,8 l 5,0 c 0,0 0.9375,0 1,-1 0,-1 -1,-1 -1,-1 l -5,0 c -3.31371,0 -6,-2.68629 -6,-6 0,-3.31371 2.68629,-6 6,-6 3.31371,0 6,2.68629 6,6 l 0,1 c 0,0.55228 -0.44772,1 -1,1 -0.55228,0 -1,-0.44772 -1,-1 l 0,-1 c 0,-2.20914 -1.79086,-4 -4,-4 -2.20914,0 -4,1.79086 -4,4 0,2.20914 1.79086,4 4,4 1.04616,0 1.99034,-0.4109 2.70312,-1.06836 0.57035,0.67775 1.41107,1.0688 2.29688,1.06836 1.65685,0 3,-1.34315 3,-3 l 0,-1 c 0,-4.41828 -3.58172,-8 -8,-8 z m 0,6 c 1.10457,0 2,0.89543 2,2 0,1.10457 -0.89543,2 -2,2 -1.10457,0 -2,-0.89543 -2,-2 0,-1.10457 0.89543,-2 2,-2 z"
         id="path4469"
         inkscape:connector-curvature="0"
         sodipodi:nodetypes="ssscccsssssssssssccssssssss" />
      <path
         inkscape:connector-curvature="0"
         style="opacity:0.5;fill:#000000;fill-opacity:1;stroke:none;filter:url(#filter4434)"
         d="m 160,239 -19.08984,14.32422 c -0.0411,0.0267 -0.0783,0.0583 -0.11719,0.0879 l -0.0234,0.0176 0,0.002 C 140.30396,253.7972 140,254.35949 140,255 l 0,24 c 0,1.108 0.892,2 2,2 l 36,0 c 1.108,0 2,-0.892 2,-2 l 0,-24 c 0,-0.65501 -0.31697,-1.22937 -0.80078,-1.59375 l 0.008,-0.0117 L 160,239 Z"
         id="path4742"
         transform="matrix(0.5,0,0,0.5,-20,142)" />
      <path
         id="path4744"
         d="m 60,261 -9.54492,7.16211 c -0.02055,0.0134 -0.03915,0.0292 -0.0586,0.0439 l -0.0117,0.009 0,0.001 C 50.15198,268.3986 50,268.67975 50,269 l 0,12 c 0,0.554 0.446,1 1,1 l 18,0 c 0.554,0 1,-0.446 1,-1 l 0,-12 c 0,-0.3275 -0.158485,-0.61469 -0.40039,-0.79688 l 0.004,-0.006 L 60,261 Z"
         style="fill:#fe9700;fill-opacity:1;stroke:none"
         inkscape:connector-curvature="0" />
      <rect
         style="opacity:0.2;fill:#000000;fill-opacity:1;stroke:none;stroke-width:2;stroke-linecap:round;stroke-linejoin:miter;stroke-miterlimit:4;stroke-dasharray:none;stroke-opacity:1;filter:url(#filter4507)"
         id="rect4746"
         width="32"
         height="26"
         x="144"
         y="243"
         rx="2"
         ry="2"
         transform="matrix(0.5,0,0,0.5,-20,142)" />
      <path
         style="opacity:0.1;fill:#ffffff;fill-opacity:1;stroke:none"
         d="M 60 185 L 50.455078 192.16211 C 50.434528 192.17551 50.415934 192.19038 50.396484 192.20508 L 50.384766 192.21484 L 50.384766 192.2168 C 50.151966 192.39939 50 192.67975 50 193 L 50 193.5 L 50 194 C 50 193.67975 50.151961 193.39758 50.384766 193.21484 L 50.396484 193.20508 C 50.415934 193.19028 50.434528 193.17541 50.455078 193.16211 L 60 186 L 69.603516 193.19727 L 69.599609 193.20312 C 69.841609 193.38517 70 193.6725 70 194 L 70 193.5 L 70 193 C 70 192.6725 69.841514 192.38531 69.599609 192.20312 L 69.603516 192.19727 L 60 185 z "
         transform="translate(0,76)"
         id="path4748" />
      <rect
         ry="1"
         rx="1"
         y="263"
         x="52"
         height="13"
         width="16"
         id="rect4750"
         style="opacity:1;fill:#ebebeb;fill-opacity:1;stroke:none;stroke-width:2;stroke-linecap:round;stroke-linejoin:miter;stroke-miterlimit:4;stroke-dasharray:none;stroke-opacity:1" />
      <path
         sodipodi:nodetypes="ssssccs"
         inkscape:connector-curvature="0"
         style="display:inline;opacity:0.1;fill:#ffffff;fill-opacity:1;stroke:none;enable-background:new"
         d="m 52,275 c 0,0.554 0.446,1 1,1 l 14,0 c 0.554,0 1,-0.446 1,-1 l 0,-5.98614 -16,0 z"
         id="path4752" />
      <path
         clip-path="url(#clipPath4446)"
         style="opacity:0.2;fill:#000000;fill-opacity:1;stroke:none;filter:url(#filter4456)"
         d="m 140,254 38,26 -40,4 c -1.1025,0.11025 -2.15669,-0.90314 -2,-2 z"
         id="path4754"
         inkscape:connector-curvature="0"
         sodipodi:nodetypes="ccssc"
         transform="matrix(0.5,0,0,0.5,-20,142)" />
      <path
         sodipodi:nodetypes="ccssc"
         inkscape:connector-curvature="0"
         id="path4756"
         d="m 50,269 19,13 -18,0 c -0.554,0 -1,-0.446 -1,-1 z"
         style="fill:#fec006;fill-opacity:1;stroke:none" />
      <path
         style="opacity:0.1;fill:#ffffff;fill-opacity:1;stroke:none"
         d="M 50 193 L 50 193.5 L 50 194 L 59.634766 200.5918 L 60 200.3418 L 59.634766 200.0918 L 60 199.8418 L 50 193 z "
         transform="translate(0,76)"
         id="path4768" />
      <path
         transform="matrix(-0.5,0,0,0.5,140,142)"
         sodipodi:nodetypes="ccssc"
         inkscape:connector-curvature="0"
         id="path4758"
         d="m 140,254 38,26 -40,4 c -1.1025,0.11025 -2.15669,-0.90314 -2,-2 z"
         style="opacity:0.1;fill:#000000;fill-opacity:1;stroke:none;filter:url(#filter4524)"
         clip-path="url(#clipPath4446)" />
      <path
         sodipodi:nodetypes="sscccs"
         inkscape:connector-curvature="0"
         id="path4760"
         d="m 69,282 c 0.554,0 1,-0.446 1,-1 l 0,-12 0,0 -19,13 z"
         style="fill:#fecd38;fill-opacity:1;stroke:none" />
      <path
         style="opacity:0.1;fill:#ffffff;fill-opacity:1;stroke:none;stroke-width:2;stroke-linecap:round;stroke-linejoin:miter;stroke-miterlimit:4;stroke-dasharray:none;stroke-opacity:1"
         d="M 53 187 C 52.446 187 52 187.446 52 188 L 52 188.5 L 52 189 C 52 188.446 52.446 188 53 188 L 67 188 C 67.554 188 68 188.446 68 189 L 68 188.5 L 68 188 C 68 187.446 67.554 187 67 187 L 53 187 z "
         transform="translate(0,76)"
         id="path4762" />
      <path
         id="path4764"
         d="m 52,265 c 0,-0.554 0.446,-1 1,-1 l 14,0 c 0.554,0 1,0.446 1,1 l 0,4 -16,0 z"
         style="display:inline;opacity:0.1;fill:#000000;fill-opacity:1;stroke:none;enable-background:new"
         inkscape:connector-curvature="0"
         sodipodi:nodetypes="ssssccs" />
      <path
         style="opacity:0.1;fill:#ffffff;fill-opacity:1;stroke:none"
         d="M 70 193 L 51 206 L 51.730469 206 L 52.460938 206 L 70 194 L 70 193.5 L 70 193 z "
         transform="translate(0,76)"
         id="path4766" />
      <path
         sodipodi:nodetypes="ssscccsssssssssssccssssssss"
         inkscape:connector-curvature="0"
         id="path4770"
         d="m 60,265 c -2.20914,0 -4,1.79086 -4,4 0,2.20914 1.79086,4 4,4 l 2.5,0 c 0,0 0.46875,0 0.5,-0.5 0,-0.5 -0.5,-0.5 -0.5,-0.5 l -2.5,0 c -1.656855,0 -3,-1.34315 -3,-3 0,-1.65686 1.343145,-3 3,-3 1.656855,0 3,1.34314 3,3 l 0,0.5 c 0,0.27614 -0.22386,0.5 -0.5,0.5 -0.27614,0 -0.5,-0.22386 -0.5,-0.5 l 0,-0.5 c 0,-1.10457 -0.89543,-2 -2,-2 -1.10457,0 -2,0.89543 -2,2 0,1.10457 0.89543,2 2,2 0.52308,0 0.99517,-0.20545 1.35156,-0.53418 0.285175,0.33888 0.705535,0.5344 1.14844,0.53418 0.828425,0 1.5,-0.67157 1.5,-1.5 l 0,-0.5 c 0,-2.20914 -1.79086,-4 -4,-4 z m 0,3 c 0.552285,0 1,0.44772 1,1 0,0.55228 -0.447715,1 -1,1 -0.552285,0 -1,-0.44772 -1,-1 0,-0.55228 0.447715,-1 1,-1 z"
         style="opacity:0.4;fill:#000000;fill-opacity:1;stroke:none;stroke-width:2;stroke-linecap:round;stroke-linejoin:miter;stroke-miterlimit:4;stroke-dasharray:none;stroke-opacity:1" />
    </g>
  </g>
</svg>
