<?xml version="1.0" encoding="UTF-8" standalone="no"?>
<!-- Created with Inkscape (http://www.inkscape.org/) -->

<svg
   xmlns:dc="http://purl.org/dc/elements/1.1/"
   xmlns:cc="http://creativecommons.org/ns#"
   xmlns:rdf="http://www.w3.org/1999/02/22-rdf-syntax-ns#"
   xmlns:svg="http://www.w3.org/2000/svg"
   xmlns="http://www.w3.org/2000/svg"
   xmlns:sodipodi="http://sodipodi.sourceforge.net/DTD/sodipodi-0.dtd"
   xmlns:inkscape="http://www.inkscape.org/namespaces/inkscape"
   inkscape:export-ydpi="90.000000"
   inkscape:export-xdpi="90.000000"
   width="736"
   height="544"
   id="svg11300"
   sodipodi:version="0.32"
   inkscape:version="0.91 r13725"
   sodipodi:docname="intellij-idea.svg"
   inkscape:output_extension="org.inkscape.output.svg.inkscape"
   version="1.0"
   style="display:inline;enable-background:new"
   inkscape:export-filename="/home/sam/paper-template.png">
  <title
     id="title3004">Paper Icon Theme Template</title>
  <sodipodi:namedview
     stroke="#ef2929"
     fill="#f57900"
     id="base"
     pagecolor="#6b6b6b"
     bordercolor="#000000"
     borderopacity="0.25490196"
     inkscape:pageopacity="0"
     inkscape:pageshadow="2"
     inkscape:zoom="1"
     inkscape:cx="159.1308"
     inkscape:cy="13.727792"
     inkscape:current-layer="layer6"
     showgrid="false"
     inkscape:grid-bbox="true"
     inkscape:document-units="px"
     inkscape:showpageshadow="false"
     inkscape:window-width="1920"
     inkscape:window-height="1023"
     inkscape:window-x="0"
     inkscape:window-y="27"
     width="400px"
     height="300px"
     inkscape:snap-nodes="true"
     inkscape:snap-bbox="true"
     gridtolerance="10000"
     inkscape:object-nodes="true"
     inkscape:snap-grids="true"
     showguides="true"
     inkscape:guide-bbox="true"
     inkscape:window-maximized="1"
     inkscape:bbox-paths="true"
     inkscape:snap-bbox-midpoints="true"
     inkscape:snap-global="true"
     inkscape:object-paths="true"
     inkscape:snap-intersection-paths="true"
     inkscape:snap-smooth-nodes="true">
    <inkscape:grid
       spacingy="1px"
       spacingx="1px"
       id="grid5883"
       type="xygrid"
       enabled="true"
       visible="true"
       empspacing="4"
       snapvisiblegridlinesonly="true" />
    <inkscape:grid
       type="xygrid"
       id="grid11592"
       empspacing="2"
       visible="true"
       enabled="false"
       spacingx="0.5px"
       spacingy="0.5px"
       color="#ff0000"
       opacity="0.1254902"
       empcolor="#ff0000"
       empopacity="0.25098039"
       snapvisiblegridlinesonly="true" />
  </sodipodi:namedview>
  <defs
     id="defs3">
    <filter
       inkscape:collect="always"
       style="color-interpolation-filters:sRGB"
       id="filter4312"
       x="-0.025019372"
       width="1.0500387"
       y="-0.023060442"
       height="1.0461209">
      <feGaussianBlur
         inkscape:collect="always"
         stdDeviation="4.0102762"
         id="feGaussianBlur4314" />
    </filter>
    <filter
       inkscape:collect="always"
       style="color-interpolation-filters:sRGB"
       id="filter4318"
       x="-0.025019372"
       width="1.0500387"
       y="-0.023060442"
       height="1.0461209">
      <feGaussianBlur
         inkscape:collect="always"
         stdDeviation="4.0102762"
         id="feGaussianBlur4320" />
    </filter>
  </defs>
  <metadata
     id="metadata4">
    <rdf:RDF>
      <cc:Work
         rdf:about="">
        <dc:format>image/svg+xml</dc:format>
        <dc:type
           rdf:resource="http://purl.org/dc/dcmitype/StillImage" />
        <dc:creator>
          <cc:Agent>
            <dc:title>Sam Hewitt</dc:title>
          </cc:Agent>
        </dc:creator>
        <dc:source />
        <cc:license
           rdf:resource="http://creativecommons.org/licenses/by-sa/3.0/" />
        <dc:title>Paper Icon Theme Template</dc:title>
        <dc:subject>
          <rdf:Bag />
        </dc:subject>
        <dc:date />
        <dc:rights>
          <cc:Agent>
            <dc:title />
          </cc:Agent>
        </dc:rights>
        <dc:publisher>
          <cc:Agent>
            <dc:title />
          </cc:Agent>
        </dc:publisher>
        <dc:identifier />
        <dc:relation />
        <dc:language />
        <dc:coverage />
        <dc:description />
        <dc:contributor>
          <cc:Agent>
            <dc:title />
          </cc:Agent>
        </dc:contributor>
      </cc:Work>
      <cc:Work
         rdf:about="">
        <dc:format>image/svg+xml</dc:format>
        <dc:type
           rdf:resource="http://purl.org/dc/dcmitype/StillImage" />
      </cc:Work>
      <cc:License
         rdf:about="http://creativecommons.org/licenses/by-sa/3.0/">
        <cc:permits
           rdf:resource="http://creativecommons.org/ns#Reproduction" />
        <cc:permits
           rdf:resource="http://creativecommons.org/ns#Distribution" />
        <cc:requires
           rdf:resource="http://creativecommons.org/ns#Notice" />
        <cc:requires
           rdf:resource="http://creativecommons.org/ns#Attribution" />
        <cc:permits
           rdf:resource="http://creativecommons.org/ns#DerivativeWorks" />
        <cc:requires
           rdf:resource="http://creativecommons.org/ns#ShareAlike" />
      </cc:License>
    </rdf:RDF>
  </metadata>
  <g
     style="display:inline"
     inkscape:groupmode="layer"
     inkscape:label="Icon"
     id="layer1"
     transform="translate(0,244)">
    <g
       style="display:none"
       inkscape:label="Baseplate"
       id="layer7"
       inkscape:groupmode="layer">
      <text
         y="337.74512"
         xml:space="preserve"
         x="15.006836"
         style="font-style:normal;font-variant:normal;font-weight:normal;font-stretch:normal;font-size:18px;font-family:'DejaVu Sans';-inkscape-font-specification:'DejaVu Sans';display:inline;fill:#000000;fill-opacity:1;stroke:none;enable-background:new"
         inkscape:label="context"
         id="context"><tspan
           style="font-style:normal;font-variant:normal;font-weight:normal;font-stretch:normal;font-family:'DejaVu Sans';-inkscape-font-specification:'DejaVu Sans'"
           y="337.74512"
           x="15.006836"
           sodipodi:role="line"
           id="tspan3933">apps</tspan></text>
      <text
         y="337.74512"
         xml:space="preserve"
         x="142.48828"
         style="font-style:normal;font-variant:normal;font-weight:bold;font-stretch:normal;font-size:18px;line-height:125%;font-family:'DejaVu Sans';-inkscape-font-specification:'DejaVu Sans Bold';text-align:start;writing-mode:lr-tb;text-anchor:start;display:inline;fill:#000000;fill-opacity:1;stroke:none;enable-background:new"
         sodipodi:linespacing="125%"
         inkscape:label="icon-name"
         id="icon-name"><tspan
           style="font-style:normal;font-variant:normal;font-weight:bold;font-stretch:normal;font-size:18px;font-family:'DejaVu Sans';-inkscape-font-specification:'DejaVu Sans Bold'"
           y="337.74512"
           x="142.48828"
           sodipodi:role="line"
           id="tspan3937">intellij-idea</tspan></text>
      <rect
         style="display:inline;overflow:visible;visibility:visible;fill:#d3d7cf;fill-opacity:1;fill-rule:nonzero;stroke:none;stroke-width:2;marker:none;enable-background:accumulate"
         id="rect16x16"
         width="16"
         height="16"
         x="-32"
         y="268"
         inkscape:label="16x16"
         transform="scale(-1,1)" />
      <rect
         style="display:inline;overflow:visible;visibility:visible;fill:#d3d7cf;fill-opacity:1;fill-rule:nonzero;stroke:none;stroke-width:2;marker:none;enable-background:accumulate"
         id="rect24x24"
         width="24"
         height="24"
         x="-76"
         y="260"
         inkscape:label="24x24"
         transform="scale(-1,1)" />
      <rect
         style="display:inline;overflow:visible;visibility:visible;fill:#d3d7cf;fill-opacity:1;fill-rule:nonzero;stroke:none;stroke-width:2;marker:none;enable-background:accumulate"
         id="rect32x32"
         width="32"
         height="32"
         x="-128"
         y="252"
         inkscape:label="32x32"
         transform="scale(-1,1)" />
      <rect
         inkscape:label="48x48"
         y="236"
         x="-192"
         height="48"
         width="48"
         id="rect48x48"
         style="display:inline;overflow:visible;visibility:visible;fill:#d3d7cf;fill-opacity:1;fill-rule:nonzero;stroke:none;stroke-width:2;marker:none;enable-background:accumulate"
         transform="scale(-1,1)" />
      <rect
         style="display:inline;overflow:visible;visibility:visible;fill:#d3d7cf;fill-opacity:1;fill-rule:nonzero;stroke:none;stroke-width:2;marker:none;enable-background:accumulate"
         id="rect3951"
         width="512"
         height="512"
         x="-720"
         y="-228"
         inkscape:label="48x48"
         transform="scale(-1,1)" />
    </g>
    <g
       inkscape:groupmode="layer"
       id="layer6"
       inkscape:label="Symbols"
       style="display:inline">
      <path
         inkscape:connector-curvature="0"
         style="color:#000000;font-style:normal;font-variant:normal;font-weight:normal;font-stretch:normal;font-size:medium;line-height:normal;font-family:sans-serif;text-indent:0;text-align:start;text-decoration:none;text-decoration-line:none;text-decoration-style:solid;text-decoration-color:#000000;letter-spacing:normal;word-spacing:normal;text-transform:none;direction:ltr;block-progression:tb;writing-mode:lr-tb;baseline-shift:baseline;text-anchor:start;white-space:normal;clip-rule:nonzero;display:inline;overflow:visible;visibility:visible;opacity:0.2;isolation:auto;mix-blend-mode:normal;color-interpolation:sRGB;color-interpolation-filters:linearRGB;solid-color:#000000;solid-opacity:1;fill:#000000;fill-opacity:1;fill-rule:nonzero;stroke:none;stroke-width:6;stroke-linecap:round;stroke-linejoin:miter;stroke-miterlimit:4;stroke-dasharray:none;stroke-dashoffset:0;stroke-opacity:1;color-rendering:auto;image-rendering:auto;shape-rendering:auto;text-rendering:auto;enable-background:new"
         d="M 120.95508,255.95703 A 3.0003,3.0003 0 0 0 118,259 l 0,20 a 3.0003,3.0003 0 1 0 6,0 l 0,-20 a 3.0003,3.0003 0 0 0 -3.04492,-3.04297 z M 103,256 a 3.0003,3.0003 0 1 0 0,6 l 7,0 0,8 c 0,4.04887 -1.41385,4.82321 -3.10352,5.49219 -1.68966,0.66897 -3.57421,0.52539 -3.57421,0.52539 a 3.0003,3.0003 0 1 0 -0.64454,5.96484 c 0,0 3.11545,0.39853 6.42579,-0.91211 C 112.41385,279.75968 116,276.03269 116,270 l 0,-14 -13,0 z m 0.5,9 a 3.5,3.5 0 0 0 -3.5,3.5 3.5,3.5 0 0 0 3.5,3.5 3.5,3.5 0 0 0 3.5,-3.5 3.5,3.5 0 0 0 -3.5,-3.5 z"
         id="path4357" />
      <path
         inkscape:connector-curvature="0"
         style="color:#000000;font-style:normal;font-variant:normal;font-weight:normal;font-stretch:normal;font-size:medium;line-height:normal;font-family:sans-serif;text-indent:0;text-align:start;text-decoration:none;text-decoration-line:none;text-decoration-style:solid;text-decoration-color:#000000;letter-spacing:normal;word-spacing:normal;text-transform:none;direction:ltr;block-progression:tb;writing-mode:lr-tb;baseline-shift:baseline;text-anchor:start;white-space:normal;clip-rule:nonzero;display:inline;overflow:visible;visibility:visible;opacity:0.2;isolation:auto;mix-blend-mode:normal;color-interpolation:sRGB;color-interpolation-filters:linearRGB;solid-color:#000000;solid-opacity:1;fill:#000000;fill-opacity:1;fill-rule:nonzero;stroke:none;stroke-width:4;stroke-linecap:round;stroke-linejoin:miter;stroke-miterlimit:4;stroke-dasharray:none;stroke-dashoffset:0;stroke-opacity:1;color-rendering:auto;image-rendering:auto;shape-rendering:auto;text-rendering:auto;enable-background:new"
         d="M 70.970703,262.97266 A 2.0002,2.0002 0 0 0 69,265 l 0,16 a 2.0002,2.0002 0 1 0 4,0 l 0,-16 a 2.0002,2.0002 0 0 0 -2.029297,-2.02734 z M 57,263 a 2.0002,2.0002 0 1 0 0,4 l 5,0 0,7 c 0,2.83333 -1.121559,3.69945 -2.394531,4.33594 C 58.332497,278.97242 57,279 57,279 a 2.0002,2.0002 0 1 0 0,4 c 0,0 2.167503,0.0276 4.394531,-1.08594 C 63.621559,280.80055 66,278.16667 66,274 l 0,-11 -9,0 z m 0.5,7 a 2.5,2.5 0 0 0 -2.5,2.5 2.5,2.5 0 0 0 2.5,2.5 2.5,2.5 0 0 0 2.5,-2.5 2.5,2.5 0 0 0 -2.5,-2.5 z"
         id="path4359" />
      <path
         style="color:#000000;font-style:normal;font-variant:normal;font-weight:normal;font-stretch:normal;font-size:medium;line-height:normal;font-family:sans-serif;text-indent:0;text-align:start;text-decoration:none;text-decoration-line:none;text-decoration-style:solid;text-decoration-color:#000000;letter-spacing:normal;word-spacing:normal;text-transform:none;direction:ltr;block-progression:tb;writing-mode:lr-tb;baseline-shift:baseline;text-anchor:start;white-space:normal;clip-rule:nonzero;display:inline;overflow:visible;visibility:visible;opacity:0.2;isolation:auto;mix-blend-mode:normal;color-interpolation:sRGB;color-interpolation-filters:linearRGB;solid-color:#000000;solid-opacity:1;fill:#000000;fill-opacity:1;fill-rule:nonzero;stroke:none;stroke-width:9;stroke-linecap:round;stroke-linejoin:miter;stroke-miterlimit:4;stroke-dasharray:none;stroke-dashoffset:0;stroke-opacity:1;color-rendering:auto;image-rendering:auto;shape-rendering:auto;text-rendering:auto;enable-background:new"
         d="M 181.46484,240.93555 A 4.50045,4.50045 0 0 0 177.03125,245.5 l 0,31 a 4.50045,4.50045 0 1 0 9,0 l 0,-31 a 4.50045,4.50045 0 0 0 -4.56641,-4.56445 z M 154.53125,241 a 4.50045,4.50045 0 1 0 0,9 l 10.5,0 0,13 c 0,6.07331 -2.12176,7.23287 -4.65625,8.23633 -2.53449,1.00346 -5.35938,0.78906 -5.35938,0.78906 a 4.500645,4.500645 0 1 0 -0.96679,8.94922 c 0,0 4.67316,0.59681 9.63867,-1.36914 4.96551,-1.96595 10.34375,-7.55644 10.34375,-16.60547 l 0,-22 -19.5,0 z m 1,14 a 5.5,5.5 0 0 0 -5.5,5.5 5.5,5.5 0 0 0 5.5,5.5 5.5,5.5 0 0 0 5.5,-5.5 5.5,5.5 0 0 0 -5.5,-5.5 z"
         id="path4335"
         inkscape:connector-curvature="0" />
      <path
         inkscape:connector-curvature="0"
         id="path4316"
         d="M 607.27734,-176.67773 A 48.0048,48.0048 0 0 0 560,-128 l 0,320 a 48.0048,48.0048 0 1 0 96,0 l 0,-320 a 48.0048,48.0048 0 0 0 -48.72266,-48.67773 z M 320,-176 a 48.0048,48.0048 0 1 0 0,96 l 112,0 0,96 c 0,73.45455 -26.97265,96.45332 -55.13281,111.94141 C 348.70703,143.42949 320,144 320,144 a 48.0048,48.0048 0 1 0 0,96 c 0,0 51.29296,0.57051 103.13281,-27.94141 C 474.97266,183.54668 528,118.54546 528,16 l 0,-192 -208,0 z m 8.33984,144 a 56,56 0 0 0 -56,56 56,56 0 0 0 56,56 56,56 0 0 0 56,-56 56,56 0 0 0 -56,-56 z"
         style="color:#000000;font-style:normal;font-variant:normal;font-weight:normal;font-stretch:normal;font-size:medium;line-height:normal;font-family:sans-serif;text-indent:0;text-align:start;text-decoration:none;text-decoration-line:none;text-decoration-style:solid;text-decoration-color:#000000;letter-spacing:normal;word-spacing:normal;text-transform:none;direction:ltr;block-progression:tb;writing-mode:lr-tb;baseline-shift:baseline;text-anchor:start;white-space:normal;clip-rule:nonzero;display:inline;overflow:visible;visibility:visible;opacity:0.1;isolation:auto;mix-blend-mode:normal;color-interpolation:sRGB;color-interpolation-filters:linearRGB;solid-color:#000000;solid-opacity:1;fill:#000000;fill-opacity:1;fill-rule:nonzero;stroke:none;stroke-width:96;stroke-linecap:round;stroke-linejoin:miter;stroke-miterlimit:4;stroke-dasharray:none;stroke-dashoffset:0;stroke-opacity:1;filter:url(#filter4318);color-rendering:auto;image-rendering:auto;shape-rendering:auto;text-rendering:auto;enable-background:new" />
      <path
         style="color:#000000;font-style:normal;font-variant:normal;font-weight:normal;font-stretch:normal;font-size:medium;line-height:normal;font-family:sans-serif;text-indent:0;text-align:start;text-decoration:none;text-decoration-line:none;text-decoration-style:solid;text-decoration-color:#000000;letter-spacing:normal;word-spacing:normal;text-transform:none;direction:ltr;block-progression:tb;writing-mode:lr-tb;baseline-shift:baseline;text-anchor:start;white-space:normal;clip-rule:nonzero;display:inline;overflow:visible;visibility:visible;opacity:0.2;isolation:auto;mix-blend-mode:normal;color-interpolation:sRGB;color-interpolation-filters:linearRGB;solid-color:#000000;solid-opacity:1;fill:#000000;fill-opacity:1;fill-rule:nonzero;stroke:none;stroke-width:96;stroke-linecap:round;stroke-linejoin:miter;stroke-miterlimit:4;stroke-dasharray:none;stroke-dashoffset:0;stroke-opacity:1;color-rendering:auto;image-rendering:auto;shape-rendering:auto;text-rendering:auto;enable-background:new"
         d="M 607.27734,-178.67773 A 48.0048,48.0048 0 0 0 560,-130 l 0,320 a 48.0048,48.0048 0 1 0 96,0 l 0,-320 a 48.0048,48.0048 0 0 0 -48.72266,-48.67773 z M 320,-178 a 48.0048,48.0048 0 1 0 0,96 l 112,0 0,96 c 0,73.45455 -26.97265,96.45332 -55.13281,111.94141 C 348.70703,141.42949 320,142 320,142 a 48.0048,48.0048 0 1 0 0,96 c 0,0 51.29296,0.57051 103.13281,-27.94141 C 474.97266,181.54668 528,116.54546 528,14 l 0,-192 -208,0 z m 8.33984,144 a 56,56 0 0 0 -56,56 56,56 0 0 0 56,56 56,56 0 0 0 56,-56 56,56 0 0 0 -56,-56 z"
         id="path4300"
         inkscape:connector-curvature="0" />
      <path
         inkscape:connector-curvature="0"
         id="path4309"
         d="M 607.27734,-176.67773 A 48.0048,48.0048 0 0 0 560,-128 l 0,320 a 48.0048,48.0048 0 1 0 96,0 l 0,-320 a 48.0048,48.0048 0 0 0 -48.72266,-48.67773 z M 320,-176 a 48.0048,48.0048 0 1 0 0,96 l 112,0 0,96 c 0,73.45455 -26.97265,96.45332 -55.13281,111.94141 C 348.70703,143.42949 320,144 320,144 a 48.0048,48.0048 0 1 0 0,96 c 0,0 51.29296,0.57051 103.13281,-27.94141 C 474.97266,183.54668 528,118.54546 528,16 l 0,-192 -208,0 z m 8.33984,144 a 56,56 0 0 0 -56,56 56,56 0 0 0 56,56 56,56 0 0 0 56,-56 56,56 0 0 0 -56,-56 z"
         style="color:#000000;font-style:normal;font-variant:normal;font-weight:normal;font-stretch:normal;font-size:medium;line-height:normal;font-family:sans-serif;text-indent:0;text-align:start;text-decoration:none;text-decoration-line:none;text-decoration-style:solid;text-decoration-color:#000000;letter-spacing:normal;word-spacing:normal;text-transform:none;direction:ltr;block-progression:tb;writing-mode:lr-tb;baseline-shift:baseline;text-anchor:start;white-space:normal;clip-rule:nonzero;display:inline;overflow:visible;visibility:visible;opacity:0.2;isolation:auto;mix-blend-mode:normal;color-interpolation:sRGB;color-interpolation-filters:linearRGB;solid-color:#000000;solid-opacity:1;fill:#000000;fill-opacity:1;fill-rule:nonzero;stroke:none;stroke-width:96;stroke-linecap:round;stroke-linejoin:miter;stroke-miterlimit:4;stroke-dasharray:none;stroke-dashoffset:0;stroke-opacity:1;color-rendering:auto;image-rendering:auto;shape-rendering:auto;text-rendering:auto;enable-background:new;filter:url(#filter4312)" />
      <path
         style="color:#000000;font-style:normal;font-variant:normal;font-weight:normal;font-stretch:normal;font-size:medium;line-height:normal;font-family:sans-serif;text-indent:0;text-align:start;text-decoration:none;text-decoration-line:none;text-decoration-style:solid;text-decoration-color:#000000;letter-spacing:normal;word-spacing:normal;text-transform:none;direction:ltr;block-progression:tb;writing-mode:lr-tb;baseline-shift:baseline;text-anchor:start;white-space:normal;clip-rule:nonzero;display:inline;overflow:visible;visibility:visible;opacity:1;isolation:auto;mix-blend-mode:normal;color-interpolation:sRGB;color-interpolation-filters:linearRGB;solid-color:#000000;solid-opacity:1;fill:#3f51b5;fill-opacity:1;fill-rule:nonzero;stroke:none;stroke-width:96;stroke-linecap:round;stroke-linejoin:miter;stroke-miterlimit:4;stroke-dasharray:none;stroke-dashoffset:0;stroke-opacity:1;color-rendering:auto;image-rendering:auto;shape-rendering:auto;text-rendering:auto;enable-background:new"
         d="M 607.27734 63.322266 A 48.0048 48.0048 0 0 0 560 112 L 560 432 A 48.0048 48.0048 0 1 0 656 432 L 656 112 A 48.0048 48.0048 0 0 0 607.27734 63.322266 z M 320 64 A 48.0048 48.0048 0 1 0 320 160 L 432 160 L 432 256 C 432 329.45455 405.02735 352.45332 376.86719 367.94141 C 348.70703 383.42949 320 384 320 384 A 48.0048 48.0048 0 1 0 320 480 C 320 480 371.29296 480.57051 423.13281 452.05859 C 474.97266 423.54668 528 358.54546 528 256 L 528 64 L 320 64 z "
         id="path3854"
         transform="translate(0,-244)" />
      <circle
         r="56"
         cy="20.000061"
         cx="328.33942"
         style="color:#000000;display:inline;overflow:visible;visibility:visible;fill:#ff9800;fill-opacity:1;fill-rule:nonzero;stroke:none;stroke-width:4;marker:none;enable-background:new"
         id="path3858" />
      <path
         style="color:#000000;font-style:normal;font-variant:normal;font-weight:normal;font-stretch:normal;font-size:medium;line-height:normal;font-family:sans-serif;text-indent:0;text-align:start;text-decoration:none;text-decoration-line:none;text-decoration-style:solid;text-decoration-color:#000000;letter-spacing:normal;word-spacing:normal;text-transform:none;direction:ltr;block-progression:tb;writing-mode:lr-tb;baseline-shift:baseline;text-anchor:start;white-space:normal;clip-rule:nonzero;display:inline;overflow:visible;visibility:visible;opacity:1;isolation:auto;mix-blend-mode:normal;color-interpolation:sRGB;color-interpolation-filters:linearRGB;solid-color:#000000;solid-opacity:1;fill:#3f51b5;fill-opacity:1;fill-rule:nonzero;stroke:none;stroke-width:6;stroke-linecap:round;stroke-linejoin:miter;stroke-miterlimit:4;stroke-dasharray:none;stroke-dashoffset:0;stroke-opacity:1;color-rendering:auto;image-rendering:auto;shape-rendering:auto;text-rendering:auto;enable-background:new"
         d="M 120.95508 498.95703 A 3.0003 3.0003 0 0 0 118 502 L 118 522 A 3.0003 3.0003 0 1 0 124 522 L 124 502 A 3.0003 3.0003 0 0 0 120.95508 498.95703 z M 103 499 A 3.0003 3.0003 0 1 0 103 505 L 110 505 L 110 513 C 110 517.04887 108.58615 517.82321 106.89648 518.49219 C 105.20682 519.16116 103.32227 519.01758 103.32227 519.01758 A 3.0003 3.0003 0 1 0 102.67773 524.98242 C 102.67773 524.98242 105.79318 525.38095 109.10352 524.07031 C 112.41385 522.75968 116 519.03269 116 513 L 116 499 L 103 499 z "
         transform="translate(0,-244)"
         id="path4164" />
      <circle
         id="circle4168"
         style="color:#000000;display:inline;overflow:visible;visibility:visible;fill:#ff9800;fill-opacity:1;fill-rule:nonzero;stroke:none;stroke-width:4;marker:none;enable-background:new"
         cx="103.5"
         cy="267.5"
         r="3.5" />
      <path
         style="color:#000000;font-style:normal;font-variant:normal;font-weight:normal;font-stretch:normal;font-size:medium;line-height:normal;font-family:sans-serif;text-indent:0;text-align:start;text-decoration:none;text-decoration-line:none;text-decoration-style:solid;text-decoration-color:#000000;letter-spacing:normal;word-spacing:normal;text-transform:none;direction:ltr;block-progression:tb;writing-mode:lr-tb;baseline-shift:baseline;text-anchor:start;white-space:normal;clip-rule:nonzero;display:inline;overflow:visible;visibility:visible;opacity:1;isolation:auto;mix-blend-mode:normal;color-interpolation:sRGB;color-interpolation-filters:linearRGB;solid-color:#000000;solid-opacity:1;fill:#3f51b5;fill-opacity:1;fill-rule:nonzero;stroke:none;stroke-width:9;stroke-linecap:round;stroke-linejoin:miter;stroke-miterlimit:4;stroke-dasharray:none;stroke-dashoffset:0;stroke-opacity:1;color-rendering:auto;image-rendering:auto;shape-rendering:auto;text-rendering:auto;enable-background:new"
         d="M 181.46484 483.93555 A 4.50045 4.50045 0 0 0 177.03125 488.5 L 177.03125 519.5 A 4.50045 4.50045 0 1 0 186.03125 519.5 L 186.03125 488.5 A 4.50045 4.50045 0 0 0 181.46484 483.93555 z M 154.53125 484 A 4.50045 4.50045 0 1 0 154.53125 493 L 165.03125 493 L 165.03125 506 C 165.03125 512.07331 162.90949 513.23287 160.375 514.23633 C 157.84051 515.23979 155.01562 515.02539 155.01562 515.02539 A 4.500645 4.500645 0 1 0 154.04883 523.97461 C 154.04883 523.97461 158.72199 524.57142 163.6875 522.60547 C 168.65301 520.63952 174.03125 515.04903 174.03125 506 L 174.03125 484 L 154.53125 484 z "
         transform="translate(0,-244)"
         id="path4180" />
      <circle
         r="5.5"
         cy="259.49994"
         cx="155.5318"
         style="color:#000000;display:inline;overflow:visible;visibility:visible;fill:#ff9800;fill-opacity:1;fill-rule:nonzero;stroke:none;stroke-width:4;marker:none;enable-background:new"
         id="circle4184" />
      <path
         style="color:#000000;font-style:normal;font-variant:normal;font-weight:normal;font-stretch:normal;font-size:medium;line-height:normal;font-family:sans-serif;text-indent:0;text-align:start;text-decoration:none;text-decoration-line:none;text-decoration-style:solid;text-decoration-color:#000000;letter-spacing:normal;word-spacing:normal;text-transform:none;direction:ltr;block-progression:tb;writing-mode:lr-tb;baseline-shift:baseline;text-anchor:start;white-space:normal;clip-rule:nonzero;display:inline;overflow:visible;visibility:visible;opacity:1;isolation:auto;mix-blend-mode:normal;color-interpolation:sRGB;color-interpolation-filters:linearRGB;solid-color:#000000;solid-opacity:1;fill:#3f51b5;fill-opacity:1;fill-rule:nonzero;stroke:none;stroke-width:4;stroke-linecap:round;stroke-linejoin:miter;stroke-miterlimit:4;stroke-dasharray:none;stroke-dashoffset:0;stroke-opacity:1;color-rendering:auto;image-rendering:auto;shape-rendering:auto;text-rendering:auto;enable-background:new"
         d="M 70.970703 505.97266 A 2.0002 2.0002 0 0 0 69 508 L 69 524 A 2.0002 2.0002 0 1 0 73 524 L 73 508 A 2.0002 2.0002 0 0 0 70.970703 505.97266 z M 57 506 A 2.0002 2.0002 0 1 0 57 510 L 62 510 L 62 517 C 62 519.83333 60.878441 520.69945 59.605469 521.33594 C 58.332497 521.97242 57 522 57 522 A 2.0002 2.0002 0 1 0 57 526 C 57 526 59.167503 526.0276 61.394531 524.91406 C 63.621559 523.80055 66 521.16667 66 517 L 66 506 L 57 506 z "
         transform="translate(0,-244)"
         id="path4196" />
      <circle
         id="circle4200"
         style="color:#000000;display:inline;overflow:visible;visibility:visible;fill:#ff9800;fill-opacity:1;fill-rule:nonzero;stroke:none;stroke-width:4;marker:none;enable-background:new"
         cx="57.499763"
         cy="271.5"
         r="2.5" />
      <path
         style="color:#000000;font-style:normal;font-variant:normal;font-weight:normal;font-stretch:normal;font-size:medium;line-height:normal;font-family:sans-serif;text-indent:0;text-align:start;text-decoration:none;text-decoration-line:none;text-decoration-style:solid;text-decoration-color:#000000;letter-spacing:normal;word-spacing:normal;text-transform:none;direction:ltr;block-progression:tb;writing-mode:lr-tb;baseline-shift:baseline;text-anchor:start;white-space:normal;clip-rule:nonzero;display:inline;overflow:visible;visibility:visible;opacity:1;isolation:auto;mix-blend-mode:normal;color-interpolation:sRGB;color-interpolation-filters:linearRGB;solid-color:#000000;solid-opacity:1;fill:#3f51b5;fill-opacity:1;fill-rule:nonzero;stroke:none;stroke-width:3;stroke-linecap:round;stroke-linejoin:miter;stroke-miterlimit:4;stroke-dasharray:none;stroke-dashoffset:0;stroke-opacity:1;color-rendering:auto;image-rendering:auto;shape-rendering:auto;text-rendering:auto;enable-background:new"
         d="m 28.455078,269 a 1.50015,1.50015 0 0 0 -1.476562,1.52148 l 0,10 a 1.50015,1.50015 0 1 0 3,0 l 0,-10 A 1.50015,1.50015 0 0 0 28.455078,269 Z"
         id="path4220"
         inkscape:connector-curvature="0" />
      <path
         style="color:#000000;font-style:normal;font-variant:normal;font-weight:normal;font-stretch:normal;font-size:medium;line-height:normal;font-family:sans-serif;text-indent:0;text-align:start;text-decoration:none;text-decoration-line:none;text-decoration-style:solid;text-decoration-color:#000000;letter-spacing:normal;word-spacing:normal;text-transform:none;direction:ltr;block-progression:tb;writing-mode:lr-tb;baseline-shift:baseline;text-anchor:start;white-space:normal;clip-rule:nonzero;display:inline;overflow:visible;visibility:visible;opacity:1;isolation:auto;mix-blend-mode:normal;color-interpolation:sRGB;color-interpolation-filters:linearRGB;solid-color:#000000;solid-opacity:1;fill:#3f51b5;fill-opacity:1;fill-rule:nonzero;stroke:none;stroke-width:3;stroke-linecap:round;stroke-linejoin:miter;stroke-miterlimit:4;stroke-dasharray:none;stroke-dashoffset:0;stroke-opacity:1;color-rendering:auto;image-rendering:auto;shape-rendering:auto;text-rendering:auto;enable-background:new"
         d="m 19.478516,269.02148 a 1.50015,1.50015 0 1 0 0,3 l 3.5,0 0,4 c 0,2.02444 -0.707904,2.41161 -1.552735,2.7461 -0.844831,0.33449 -1.785156,0.26172 -1.785156,0.26172 a 1.50015,1.50015 0 1 0 -0.324219,2.98242 c 0,0 1.559675,0.20024 3.214844,-0.45508 1.655169,-0.65532 3.447266,-2.51881 3.447266,-5.53516 l 0,-7 -6.5,0 z"
         id="path4222"
         inkscape:connector-curvature="0" />
      <circle
         r="1.5"
         cy="275.52136"
         cx="19.478636"
         style="color:#000000;display:inline;overflow:visible;visibility:visible;fill:#ff9800;fill-opacity:1;fill-rule:nonzero;stroke:none;stroke-width:4;marker:none;enable-background:new"
         id="circle4224" />
      <path
         style="color:#000000;font-style:normal;font-variant:normal;font-weight:normal;font-stretch:normal;font-size:medium;line-height:normal;font-family:sans-serif;text-indent:0;text-align:start;text-decoration:none;text-decoration-line:none;text-decoration-style:solid;text-decoration-color:#000000;letter-spacing:normal;word-spacing:normal;text-transform:none;direction:ltr;block-progression:tb;writing-mode:lr-tb;baseline-shift:baseline;text-anchor:start;white-space:normal;clip-rule:nonzero;display:inline;overflow:visible;visibility:visible;opacity:0.2;isolation:auto;mix-blend-mode:normal;color-interpolation:sRGB;color-interpolation-filters:linearRGB;solid-color:#000000;solid-opacity:1;fill:#ffffff;fill-opacity:1;fill-rule:nonzero;stroke:none;stroke-width:96;stroke-linecap:round;stroke-linejoin:miter;stroke-miterlimit:4;stroke-dasharray:none;stroke-dashoffset:0;stroke-opacity:1;color-rendering:auto;image-rendering:auto;shape-rendering:auto;text-rendering:auto;enable-background:new"
         d="M 607.27734 63.322266 A 48.0048 48.0048 0 0 0 560 112 L 560 114 A 48.0048 48.0048 0 0 1 607.27734 65.322266 A 48.0048 48.0048 0 0 1 656 114 L 656 112 A 48.0048 48.0048 0 0 0 607.27734 63.322266 z M 320 64 A 48.0048 48.0048 0 0 0 271.36719 113.42383 A 48.0048 48.0048 0 0 1 320 66 L 528 66 L 528 64 L 320 64 z M 328.33984 208 A 56 56 0 0 0 272.33984 264 A 56 56 0 0 0 272.38086 264.83008 A 56 56 0 0 1 328.33984 210 A 56 56 0 0 1 384.29883 265.16992 A 56 56 0 0 0 384.33984 264 A 56 56 0 0 0 328.33984 208 z M 432 256 C 432 329.45455 405.02735 352.45332 376.86719 367.94141 C 348.70703 383.42949 320 384 320 384 A 48.0048 48.0048 0 0 0 271.36719 433.42383 A 48.0048 48.0048 0 0 1 320 386 C 320 386 348.70703 385.42949 376.86719 369.94141 C 405.02735 354.45332 432 331.45455 432 258 L 432 256 z "
         transform="translate(0,-244)"
         id="path4305" />
      <path
         style="color:#000000;font-style:normal;font-variant:normal;font-weight:normal;font-stretch:normal;font-size:medium;line-height:normal;font-family:sans-serif;text-indent:0;text-align:start;text-decoration:none;text-decoration-line:none;text-decoration-style:solid;text-decoration-color:#000000;letter-spacing:normal;word-spacing:normal;text-transform:none;direction:ltr;block-progression:tb;writing-mode:lr-tb;baseline-shift:baseline;text-anchor:start;white-space:normal;clip-rule:nonzero;display:inline;overflow:visible;visibility:visible;opacity:0.2;isolation:auto;mix-blend-mode:normal;color-interpolation:sRGB;color-interpolation-filters:linearRGB;solid-color:#000000;solid-opacity:1;fill:#ffffff;fill-opacity:1;fill-rule:nonzero;stroke:none;stroke-width:9;stroke-linecap:round;stroke-linejoin:miter;stroke-miterlimit:4;stroke-dasharray:none;stroke-dashoffset:0;stroke-opacity:1;color-rendering:auto;image-rendering:auto;shape-rendering:auto;text-rendering:auto;enable-background:new"
         d="M 181.46484 483.93555 A 4.50045 4.50045 0 0 0 177.03125 488.5 L 177.03125 488.95117 A 4.50045 4.50045 0 0 1 181.43359 484.93555 A 4.50045 4.50045 0 0 1 186 489.5 L 186 520.04688 A 4.50045 4.50045 0 0 0 186.03125 519.5 L 186.03125 488.5 A 4.50045 4.50045 0 0 0 181.46484 483.93555 z M 154.53125 484 A 4.50045 4.50045 0 0 0 149.98633 488.86133 A 4.50045 4.50045 0 0 1 154.5 485 L 174 485 L 174 506.82812 C 174.01033 506.5521 174.03125 506.28278 174.03125 506 L 174.03125 484 L 154.53125 484 z M 155.53125 498 A 5.5 5.5 0 0 0 150.03125 503.5 A 5.5 5.5 0 0 0 150.04688 503.83008 A 5.5 5.5 0 0 1 155.5 499 A 5.5 5.5 0 0 1 160.98438 504.16992 A 5.5 5.5 0 0 0 161.03125 503.5 A 5.5 5.5 0 0 0 155.53125 498 z M 164.99414 507.24219 C 164.7162 512.23378 162.72505 513.30589 160.375 514.23633 C 157.84051 515.23979 155.01562 515.02539 155.01562 515.02539 A 4.500645 4.500645 0 0 0 150.05078 519.85938 A 4.500645 4.500645 0 0 1 154.98438 516.02539 C 154.98438 516.02539 157.80926 516.23979 160.34375 515.23633 C 162.84278 514.24691 164.93594 513.0959 164.99414 507.24219 z "
         transform="translate(0,-244)"
         id="path4323" />
      <path
         style="color:#000000;font-style:normal;font-variant:normal;font-weight:normal;font-stretch:normal;font-size:medium;line-height:normal;font-family:sans-serif;text-indent:0;text-align:start;text-decoration:none;text-decoration-line:none;text-decoration-style:solid;text-decoration-color:#000000;letter-spacing:normal;word-spacing:normal;text-transform:none;direction:ltr;block-progression:tb;writing-mode:lr-tb;baseline-shift:baseline;text-anchor:start;white-space:normal;clip-rule:nonzero;display:inline;overflow:visible;visibility:visible;opacity:0.2;isolation:auto;mix-blend-mode:normal;color-interpolation:sRGB;color-interpolation-filters:linearRGB;solid-color:#000000;solid-opacity:1;fill:#ffffff;fill-opacity:1;fill-rule:nonzero;stroke:none;stroke-width:6;stroke-linecap:round;stroke-linejoin:miter;stroke-miterlimit:4;stroke-dasharray:none;stroke-dashoffset:0;stroke-opacity:1;color-rendering:auto;image-rendering:auto;shape-rendering:auto;text-rendering:auto;enable-background:new"
         d="M 120.95508 498.95703 A 3.0003 3.0003 0 0 0 118 502 L 118 503 A 3.0003 3.0003 0 0 1 120.95508 499.95703 A 3.0003 3.0003 0 0 1 124 503 L 124 502 A 3.0003 3.0003 0 0 0 120.95508 498.95703 z M 103 499 A 3.0003 3.0003 0 0 0 100.00195 502.49219 A 3.0003 3.0003 0 0 1 103 500 L 116 500 L 116 499 L 103 499 z M 103.5 508 A 3.5 3.5 0 0 0 100 511.5 A 3.5 3.5 0 0 0 100.03906 511.99414 A 3.5 3.5 0 0 1 103.5 509 A 3.5 3.5 0 0 1 106.96094 512.00586 A 3.5 3.5 0 0 0 107 511.5 A 3.5 3.5 0 0 0 103.5 508 z M 110 513 C 110 517.04887 108.58615 517.82321 106.89648 518.49219 C 105.20682 519.16116 103.32227 519.01758 103.32227 519.01758 A 3.0003 3.0003 0 0 0 99.990234 522.49219 A 3.0003 3.0003 0 0 1 103.32227 520.01758 C 103.32227 520.01758 105.20682 520.16116 106.89648 519.49219 C 108.58615 518.82321 110 518.04887 110 514 L 110 513 z "
         transform="translate(0,-244)"
         id="path4342" />
      <path
         style="color:#000000;font-style:normal;font-variant:normal;font-weight:normal;font-stretch:normal;font-size:medium;line-height:normal;font-family:sans-serif;text-indent:0;text-align:start;text-decoration:none;text-decoration-line:none;text-decoration-style:solid;text-decoration-color:#000000;letter-spacing:normal;word-spacing:normal;text-transform:none;direction:ltr;block-progression:tb;writing-mode:lr-tb;baseline-shift:baseline;text-anchor:start;white-space:normal;clip-rule:nonzero;display:inline;overflow:visible;visibility:visible;opacity:0.2;isolation:auto;mix-blend-mode:normal;color-interpolation:sRGB;color-interpolation-filters:linearRGB;solid-color:#000000;solid-opacity:1;fill:#ffffff;fill-opacity:1;fill-rule:nonzero;stroke:none;stroke-width:4;stroke-linecap:round;stroke-linejoin:miter;stroke-miterlimit:4;stroke-dasharray:none;stroke-dashoffset:0;stroke-opacity:1;color-rendering:auto;image-rendering:auto;shape-rendering:auto;text-rendering:auto;enable-background:new"
         d="M 70.970703 505.97266 A 2.0002 2.0002 0 0 0 69 508 L 69 509 A 2.0002 2.0002 0 0 1 70.970703 506.97266 A 2.0002 2.0002 0 0 1 73 509 L 73 508 A 2.0002 2.0002 0 0 0 70.970703 505.97266 z M 57 506 A 2.0002 2.0002 0 0 0 55.037109 508.5 A 2.0002 2.0002 0 0 1 57 507 L 66 507 L 66 506 L 57 506 z M 57.5 513 A 2.5 2.5 0 0 0 55 515.5 A 2.5 2.5 0 0 0 55.052734 516.00391 A 2.5 2.5 0 0 1 57.5 514 A 2.5 2.5 0 0 1 59.947266 515.99609 A 2.5 2.5 0 0 0 60 515.5 A 2.5 2.5 0 0 0 57.5 513 z M 62 517 C 62 519.83333 60.878441 520.69945 59.605469 521.33594 C 58.332497 521.97242 57 522 57 522 A 2.0002 2.0002 0 0 0 55.037109 524.5 A 2.0002 2.0002 0 0 1 57 523 C 57 523 58.332497 522.97242 59.605469 522.33594 C 60.878441 521.69945 62 520.83333 62 518 L 62 517 z "
         transform="translate(0,-244)"
         id="path4344" />
    </g>
  </g>
</svg>
