<?xml version="1.0" encoding="UTF-8" standalone="no"?>
<!-- Created with Inkscape (http://www.inkscape.org/) -->

<svg
   xmlns:dc="http://purl.org/dc/elements/1.1/"
   xmlns:cc="http://creativecommons.org/ns#"
   xmlns:rdf="http://www.w3.org/1999/02/22-rdf-syntax-ns#"
   xmlns:svg="http://www.w3.org/2000/svg"
   xmlns="http://www.w3.org/2000/svg"
   xmlns:sodipodi="http://sodipodi.sourceforge.net/DTD/sodipodi-0.dtd"
   xmlns:inkscape="http://www.inkscape.org/namespaces/inkscape"
   inkscape:export-ydpi="90.000000"
   inkscape:export-xdpi="90.000000"
   width="736"
   height="544"
   id="svg11300"
   sodipodi:version="0.32"
   inkscape:version="0.91 r13725"
   sodipodi:docname="mathematica.svg"
   inkscape:output_extension="org.inkscape.output.svg.inkscape"
   version="1.0"
   style="display:inline;enable-background:new"
   inkscape:export-filename="/home/sam/paper-template.png">
  <title
     id="title3004">Paper Icon Theme Template</title>
  <sodipodi:namedview
     stroke="#ef2929"
     fill="#f57900"
     id="base"
     pagecolor="#6b6b6b"
     bordercolor="#000000"
     borderopacity="0.25490196"
     inkscape:pageopacity="0"
     inkscape:pageshadow="2"
     inkscape:zoom="1"
     inkscape:cx="101.76033"
     inkscape:cy="13.250496"
     inkscape:current-layer="layer6"
     showgrid="false"
     inkscape:grid-bbox="true"
     inkscape:document-units="px"
     inkscape:showpageshadow="false"
     inkscape:window-width="1366"
     inkscape:window-height="704"
     inkscape:window-x="0"
     inkscape:window-y="27"
     width="400px"
     height="300px"
     inkscape:snap-nodes="true"
     inkscape:snap-bbox="true"
     gridtolerance="10000"
     inkscape:object-nodes="true"
     inkscape:snap-grids="true"
     showguides="true"
     inkscape:guide-bbox="true"
     inkscape:window-maximized="1"
     inkscape:bbox-paths="true"
     inkscape:snap-bbox-midpoints="true"
     inkscape:snap-global="true"
     inkscape:object-paths="true"
     inkscape:snap-intersection-paths="true"
     inkscape:snap-smooth-nodes="true">
    <inkscape:grid
       spacingy="1px"
       spacingx="1px"
       id="grid5883"
       type="xygrid"
       enabled="true"
       visible="true"
       empspacing="4"
       snapvisiblegridlinesonly="true" />
    <inkscape:grid
       type="xygrid"
       id="grid11592"
       empspacing="2"
       visible="true"
       enabled="false"
       spacingx="0.5px"
       spacingy="0.5px"
       color="#ff0000"
       opacity="0.1254902"
       empcolor="#ff0000"
       empopacity="0.25098039"
       snapvisiblegridlinesonly="true" />
  </sodipodi:namedview>
  <defs
     id="defs3">
    <filter
       inkscape:collect="always"
       style="color-interpolation-filters:sRGB"
       id="filter4630"
       x="-0.024680822"
       width="1.0493616"
       y="-0.023355731"
       height="1.0467115">
      <feGaussianBlur
         inkscape:collect="always"
         stdDeviation="3.4146151"
         id="feGaussianBlur4632" />
    </filter>
    <filter
       inkscape:collect="always"
       style="color-interpolation-filters:sRGB"
       id="filter4636"
       x="-0.02348366"
       width="1.0469673"
       y="-0.024539556"
       height="1.0490791">
      <feGaussianBlur
         inkscape:collect="always"
         stdDeviation="4.4767212"
         id="feGaussianBlur4638" />
    </filter>
    <filter
       inkscape:collect="always"
       style="color-interpolation-filters:sRGB"
       id="filter4642"
       x="-0.023470989"
       width="1.046942"
       y="-0.024553408"
       height="1.0491068">
      <feGaussianBlur
         inkscape:collect="always"
         stdDeviation="4.4825642"
         id="feGaussianBlur4644" />
    </filter>
  </defs>
  <metadata
     id="metadata4">
    <rdf:RDF>
      <cc:Work
         rdf:about="">
        <dc:format>image/svg+xml</dc:format>
        <dc:type
           rdf:resource="http://purl.org/dc/dcmitype/StillImage" />
        <dc:creator>
          <cc:Agent>
            <dc:title>Sam Hewitt</dc:title>
          </cc:Agent>
        </dc:creator>
        <dc:source />
        <cc:license
           rdf:resource="http://creativecommons.org/licenses/by-sa/3.0/" />
        <dc:title>Paper Icon Theme Template</dc:title>
        <dc:subject>
          <rdf:Bag />
        </dc:subject>
        <dc:date />
        <dc:rights>
          <cc:Agent>
            <dc:title />
          </cc:Agent>
        </dc:rights>
        <dc:publisher>
          <cc:Agent>
            <dc:title />
          </cc:Agent>
        </dc:publisher>
        <dc:identifier />
        <dc:relation />
        <dc:language />
        <dc:coverage />
        <dc:description />
        <dc:contributor>
          <cc:Agent>
            <dc:title />
          </cc:Agent>
        </dc:contributor>
      </cc:Work>
      <cc:Work
         rdf:about="">
        <dc:format>image/svg+xml</dc:format>
        <dc:type
           rdf:resource="http://purl.org/dc/dcmitype/StillImage" />
      </cc:Work>
      <cc:License
         rdf:about="http://creativecommons.org/licenses/by-sa/3.0/">
        <cc:permits
           rdf:resource="http://creativecommons.org/ns#Reproduction" />
        <cc:permits
           rdf:resource="http://creativecommons.org/ns#Distribution" />
        <cc:requires
           rdf:resource="http://creativecommons.org/ns#Notice" />
        <cc:requires
           rdf:resource="http://creativecommons.org/ns#Attribution" />
        <cc:permits
           rdf:resource="http://creativecommons.org/ns#DerivativeWorks" />
        <cc:requires
           rdf:resource="http://creativecommons.org/ns#ShareAlike" />
      </cc:License>
    </rdf:RDF>
  </metadata>
  <g
     style="display:inline"
     inkscape:groupmode="layer"
     inkscape:label="Icon"
     id="layer1"
     transform="translate(0,244)">
    <g
       style="display:none"
       inkscape:label="Baseplate"
       id="layer7"
       inkscape:groupmode="layer">
      <text
         y="337.74512"
         xml:space="preserve"
         x="15.006836"
         style="font-style:normal;font-variant:normal;font-weight:normal;font-stretch:normal;font-size:18px;font-family:'DejaVu Sans';-inkscape-font-specification:'DejaVu Sans';display:inline;fill:#000000;fill-opacity:1;stroke:none;enable-background:new"
         inkscape:label="context"
         id="context"><tspan
           style="font-style:normal;font-variant:normal;font-weight:normal;font-stretch:normal;font-family:'DejaVu Sans';-inkscape-font-specification:'DejaVu Sans'"
           y="337.74512"
           x="15.006836"
           sodipodi:role="line"
           id="tspan3933">apps</tspan></text>
      <text
         y="337.74512"
         xml:space="preserve"
         x="142.48828"
         style="font-style:normal;font-variant:normal;font-weight:bold;font-stretch:normal;font-size:18px;line-height:125%;font-family:'DejaVu Sans';-inkscape-font-specification:'DejaVu Sans Bold';text-align:start;writing-mode:lr-tb;text-anchor:start;display:inline;fill:#000000;fill-opacity:1;stroke:none;enable-background:new"
         sodipodi:linespacing="125%"
         inkscape:label="icon-name"
         id="icon-name"><tspan
           style="font-style:normal;font-variant:normal;font-weight:bold;font-stretch:normal;font-size:18px;font-family:'DejaVu Sans';-inkscape-font-specification:'DejaVu Sans Bold'"
           y="337.74512"
           x="142.48828"
           sodipodi:role="line"
           id="tspan3937">mathematica</tspan></text>
      <rect
         style="display:inline;overflow:visible;visibility:visible;fill:#d3d7cf;fill-opacity:1;fill-rule:nonzero;stroke:none;stroke-width:2;marker:none;enable-background:accumulate"
         id="rect16x16"
         width="16"
         height="16"
         x="-32"
         y="268"
         inkscape:label="16x16"
         transform="scale(-1,1)" />
      <rect
         style="display:inline;overflow:visible;visibility:visible;fill:#d3d7cf;fill-opacity:1;fill-rule:nonzero;stroke:none;stroke-width:2;marker:none;enable-background:accumulate"
         id="rect24x24"
         width="24"
         height="24"
         x="-76"
         y="260"
         inkscape:label="24x24"
         transform="scale(-1,1)" />
      <rect
         style="display:inline;overflow:visible;visibility:visible;fill:#d3d7cf;fill-opacity:1;fill-rule:nonzero;stroke:none;stroke-width:2;marker:none;enable-background:accumulate"
         id="rect32x32"
         width="32"
         height="32"
         x="-128"
         y="252"
         inkscape:label="32x32"
         transform="scale(-1,1)" />
      <rect
         inkscape:label="48x48"
         y="236"
         x="-192"
         height="48"
         width="48"
         id="rect48x48"
         style="display:inline;overflow:visible;visibility:visible;fill:#d3d7cf;fill-opacity:1;fill-rule:nonzero;stroke:none;stroke-width:2;marker:none;enable-background:accumulate"
         transform="scale(-1,1)" />
      <rect
         style="display:inline;overflow:visible;visibility:visible;fill:#d3d7cf;fill-opacity:1;fill-rule:nonzero;stroke:none;stroke-width:2;marker:none;enable-background:accumulate"
         id="rect3951"
         width="512"
         height="512"
         x="-720"
         y="-228"
         inkscape:label="48x48"
         transform="scale(-1,1)" />
    </g>
    <g
       inkscape:groupmode="layer"
       id="layer6"
       inkscape:label="Symbols"
       style="display:inline">
      <path
         inkscape:connector-curvature="0"
         id="path4648"
         d="m 112.03519,254 a 16.63297,16.63297 0 0 1 -5.67156,7.34731 16.63297,16.63297 0 0 1 -8.687368,3.13493 16.63297,16.63297 0 0 1 5.191038,7.6275 16.63297,16.63297 0 0 1 0.3032,9.17737 16.63297,16.63297 0 0 1 8.7943,-2.52716 16.63297,16.63297 0 0 1 8.93373,2.62462 16.63297,16.63297 0 0 1 0.27478,-9.26807 16.63297,16.63297 0 0 1 5.15043,-7.60991 16.63297,16.63297 0 0 1 -8.57637,-3.10919 A 16.63297,16.63297 0 0 1 112.0352,254 Z"
         style="display:inline;opacity:0.2;fill:#000000;fill-opacity:1;stroke:none;stroke-width:1;stroke-linecap:round;stroke-linejoin:round;stroke-miterlimit:4;stroke-dasharray:none;stroke-opacity:1;enable-background:new" />
      <path
         style="display:inline;opacity:1;fill:#ba121f;fill-opacity:1;stroke:none;stroke-width:1;stroke-linecap:round;stroke-linejoin:round;stroke-miterlimit:4;stroke-dasharray:none;stroke-opacity:1;enable-background:new"
         d="m 112.03519,253 a 16.63297,16.63297 0 0 1 -5.67156,7.34731 16.63297,16.63297 0 0 1 -8.687368,3.13493 16.63297,16.63297 0 0 1 5.191038,7.6275 16.63297,16.63297 0 0 1 0.3032,9.17737 16.63297,16.63297 0 0 1 8.7943,-2.52716 16.63297,16.63297 0 0 1 8.93373,2.62462 16.63297,16.63297 0 0 1 0.27478,-9.26807 16.63297,16.63297 0 0 1 5.15043,-7.60991 16.63297,16.63297 0 0 1 -8.57637,-3.10919 A 16.63297,16.63297 0 0 1 112.0352,253 Z"
         id="path4569"
         inkscape:connector-curvature="0" />
      <path
         style="display:inline;opacity:0.2;fill:#000000;fill-opacity:1;stroke:none;stroke-width:1;stroke-linecap:round;stroke-linejoin:round;stroke-miterlimit:4;stroke-dasharray:none;stroke-opacity:1;enable-background:new"
         d="m 120.91329,256.63568 a 16.63297,16.63297 0 0 1 -8.90703,2.61044 16.63297,16.63297 0 0 1 -8.87089,-2.5701 16.63297,16.63297 0 0 1 -0.2837,9.222 16.63297,16.63297 0 0 1 -5.149019,7.60286 16.63297,16.63297 0 0 1 8.600169,3.12465 16.63297,16.63297 0 0 1 5.68481,7.37447 16.63297,16.63297 0 0 1 5.66993,-7.33651 16.63297,16.63297 0 0 1 8.63979,-3.1292 16.63297,16.63297 0 0 1 -5.11089,-7.55646 16.63297,16.63297 0 0 1 -0.27317,-9.34215 z"
         id="path4650"
         inkscape:connector-curvature="0" />
      <path
         style="display:inline;opacity:0.2;fill:#000000;fill-opacity:1;stroke:none;stroke-width:1;stroke-linecap:round;stroke-linejoin:round;stroke-miterlimit:4;stroke-dasharray:none;stroke-opacity:1;enable-background:new"
         d="m 64.025805,262 a 12.197513,12.197513 0 0 1 -4.159144,5.38803 12.197513,12.197513 0 0 1 -6.370738,2.29895 12.197513,12.197513 0 0 1 3.806763,5.5935 12.197513,12.197513 0 0 1 0.222346,6.73007 12.197513,12.197513 0 0 1 6.449158,-1.85325 12.197513,12.197513 0 0 1 6.551397,1.92472 12.197513,12.197513 0 0 1 0.201508,-6.79658 12.197513,12.197513 0 0 1 3.776981,-5.5806 12.197513,12.197513 0 0 1 -6.289341,-2.28008 A 12.197513,12.197513 0 0 1 64.02581,262 Z"
         id="path4654"
         inkscape:connector-curvature="0" />
      <path
         inkscape:connector-curvature="0"
         id="path4646"
         d="M 464.56302,-208 A 266.12753,266.12753 0 0 1 373.81807,-90.442977 266.12753,266.12753 0 0 1 234.82018,-40.284026 266.12753,266.12753 0 0 1 317.8768,81.755977 266.12753,266.12753 0 0 1 322.72799,228.59378 266.12753,266.12753 0 0 1 463.43687,188.15926 266.12753,266.12753 0 0 1 606.37644,230.15319 266.12753,266.12753 0 0 1 610.77298,81.864128 266.12753,266.12753 0 0 1 693.17983,-39.89442 266.12753,266.12753 0 0 1 555.95786,-89.641612 266.12753,266.12753 0 0 1 464.56313,-208 Z"
         style="display:inline;opacity:0.1;fill:#000000;fill-opacity:1;stroke:none;stroke-width:1;stroke-linecap:round;stroke-linejoin:round;stroke-miterlimit:4;stroke-dasharray:none;stroke-opacity:1;enable-background:new;filter:url(#filter4642)" />
      <path
         style="display:inline;opacity:0.2;fill:#000000;fill-opacity:1;stroke:none;stroke-width:1;stroke-linecap:round;stroke-linejoin:round;stroke-miterlimit:4;stroke-dasharray:none;stroke-opacity:1;enable-background:new;filter:url(#filter4642)"
         d="M 464.56302,-208 A 266.12753,266.12753 0 0 1 373.81807,-90.442977 266.12753,266.12753 0 0 1 234.82018,-40.284026 266.12753,266.12753 0 0 1 317.8768,81.755977 266.12753,266.12753 0 0 1 322.72799,228.59378 266.12753,266.12753 0 0 1 463.43687,188.15926 266.12753,266.12753 0 0 1 606.37644,230.15319 266.12753,266.12753 0 0 1 610.77298,81.864128 266.12753,266.12753 0 0 1 693.17983,-39.89442 266.12753,266.12753 0 0 1 555.95786,-89.641612 266.12753,266.12753 0 0 1 464.56313,-208 Z"
         id="path4640"
         inkscape:connector-curvature="0" />
      <path
         inkscape:connector-curvature="0"
         id="path4480"
         d="m 168.05159,239.00853 a 24.385559,24.385559 0 0 1 -8.31506,10.77188 24.385559,24.385559 0 0 1 -12.73653,4.59612 24.385559,24.385559 0 0 1 7.61057,11.18266 24.385559,24.385559 0 0 1 0.44452,13.45491 24.385559,24.385559 0 0 1 12.89331,-3.70506 24.385559,24.385559 0 0 1 13.09771,3.84795 24.385559,24.385559 0 0 1 0.40286,-13.58789 24.385559,24.385559 0 0 1 7.55103,-11.15687 24.385559,24.385559 0 0 1 -12.5738,-4.55839 24.385559,24.385559 0 0 1 -8.3746,-10.84531 z"
         style="display:inline;opacity:0.2;fill:#000000;fill-opacity:1;stroke:none;stroke-width:1;stroke-linecap:round;stroke-linejoin:round;stroke-miterlimit:4;stroke-dasharray:none;stroke-opacity:1;enable-background:new" />
      <path
         style="display:inline;opacity:1;fill:#ba121f;fill-opacity:1;stroke:none;stroke-width:1;stroke-linecap:round;stroke-linejoin:round;stroke-miterlimit:4;stroke-dasharray:none;stroke-opacity:1;enable-background:new"
         d="m 168.05159,238.00853 a 24.385559,24.385559 0 0 1 -8.31506,10.77188 24.385559,24.385559 0 0 1 -12.73653,4.59612 24.385559,24.385559 0 0 1 7.61057,11.18266 24.385559,24.385559 0 0 1 0.44452,13.45491 24.385559,24.385559 0 0 1 12.89331,-3.70506 24.385559,24.385559 0 0 1 13.09771,3.84795 24.385559,24.385559 0 0 1 0.40286,-13.58789 24.385559,24.385559 0 0 1 7.55103,-11.15687 24.385559,24.385559 0 0 1 -12.5738,-4.55839 24.385559,24.385559 0 0 1 -8.3746,-10.84531 z"
         id="path4372"
         inkscape:connector-curvature="0" />
      <path
         style="display:inline;opacity:0.2;fill:#000000;fill-opacity:1;stroke:none;stroke-width:1;stroke-linecap:round;stroke-linejoin:round;stroke-miterlimit:4;stroke-dasharray:none;stroke-opacity:1;enable-background:new"
         d="m 181.06776,242.8727 a 24.385559,24.385559 0 0 1 -13.05859,3.82716 24.385559,24.385559 0 0 1 -13.00559,-3.76802 24.385559,24.385559 0 0 1 -0.41593,13.52035 24.385559,24.385559 0 0 1 -7.54896,11.14654 24.385559,24.385559 0 0 1 12.60868,4.58104 24.385559,24.385559 0 0 1 8.33449,10.81169 24.385559,24.385559 0 0 1 8.31268,-10.75603 24.385559,24.385559 0 0 1 12.66677,-4.58772 24.385559,24.385559 0 0 1 -7.49307,-11.07851 24.385559,24.385559 0 0 1 -0.40048,-13.6965 z"
         id="path4482"
         inkscape:connector-curvature="0" />
      <path
         inkscape:connector-curvature="0"
         style="display:inline;opacity:0.2;fill:#ffffff;fill-opacity:1;stroke:none;stroke-width:1;stroke-linecap:round;stroke-linejoin:round;stroke-miterlimit:4;stroke-dasharray:none;stroke-opacity:1;enable-background:new"
         d="m 168.05078,238.00781 a 24.385559,24.385559 0 0 1 -8.31445,10.77344 24.385559,24.385559 0 0 1 -12.73633,4.5957 24.385559,24.385559 0 0 1 0.98828,0.9043 24.385559,24.385559 0 0 0 11.74805,-4.5 24.385559,24.385559 0 0 0 8.31445,-10.77344 24.385559,24.385559 0 0 0 8.375,10.84571 24.385559,24.385559 0 0 0 11.58203,4.43945 24.385559,24.385559 0 0 1 0.99219,-0.88086 24.385559,24.385559 0 0 1 -12.57422,-4.55859 24.385559,24.385559 0 0 1 -8.375,-10.84571 z m 12.25,33.87696 a 24.385559,24.385559 0 0 0 0.51172,6.13281 24.385559,24.385559 0 0 1 0.23438,0.13867 24.385559,24.385559 0 0 1 -0.7461,-6.27148 z m -24.5332,0.49218 a 24.385559,24.385559 0 0 1 -0.71289,5.63672 24.385559,24.385559 0 0 1 0.25195,-0.14062 24.385559,24.385559 0 0 0 0.46094,-5.4961 z"
         id="path4497" />
      <path
         inkscape:connector-curvature="0"
         id="path4446"
         d="m 181.06776,241.8727 a 24.385559,24.385559 0 0 1 -13.05859,3.82716 24.385559,24.385559 0 0 1 -13.00559,-3.76802 24.385559,24.385559 0 0 1 -0.41593,13.52035 24.385559,24.385559 0 0 1 -7.54896,11.14654 24.385559,24.385559 0 0 1 12.60868,4.58104 24.385559,24.385559 0 0 1 8.33449,10.81169 24.385559,24.385559 0 0 1 8.31268,-10.75603 24.385559,24.385559 0 0 1 12.66677,-4.58772 24.385559,24.385559 0 0 1 -7.49307,-11.07851 24.385559,24.385559 0 0 1 -0.40048,-13.6965 z"
         style="display:inline;opacity:1;fill:#e91627;fill-opacity:1;stroke:none;stroke-width:1;stroke-linecap:round;stroke-linejoin:round;stroke-miterlimit:4;stroke-dasharray:none;stroke-opacity:1;enable-background:new" />
      <path
         inkscape:connector-curvature="0"
         style="display:inline;opacity:0.2;fill:#ffffff;fill-opacity:1;stroke:none;stroke-width:1;stroke-linecap:round;stroke-linejoin:round;stroke-miterlimit:4;stroke-dasharray:none;stroke-opacity:1;enable-background:new"
         d="m 181.06836,241.87305 a 24.385559,24.385559 0 0 1 -13.05859,3.82617 24.385559,24.385559 0 0 1 -13.00586,-3.76758 24.385559,24.385559 0 0 1 0.23047,1.13477 24.385559,24.385559 0 0 0 12.77539,3.63281 24.385559,24.385559 0 0 0 12.80078,-3.67969 24.385559,24.385559 0 0 1 0.25781,-1.14648 z m -0.76758,6.86523 a 24.385559,24.385559 0 0 0 1.16797,7.83008 24.385559,24.385559 0 0 0 6.51953,10.17383 24.385559,24.385559 0 0 1 0.97266,-0.0937 24.385559,24.385559 0 0 1 -7.49219,-11.08008 24.385559,24.385559 0 0 1 -1.16797,-6.83008 z m -24.56836,0.44531 a 24.385559,24.385559 0 0 1 -1.14453,6.26953 24.385559,24.385559 0 0 1 -7.54883,11.14649 24.385559,24.385559 0 0 1 0.99219,0.11914 24.385559,24.385559 0 0 0 6.55664,-10.26758 24.385559,24.385559 0 0 0 1.14453,-7.26758 z"
         id="path4493" />
      <path
         style="display:inline;opacity:0.2;fill:#000000;fill-opacity:1;stroke:none;stroke-width:1;stroke-linecap:round;stroke-linejoin:round;stroke-miterlimit:4;stroke-dasharray:none;stroke-opacity:1;enable-background:new"
         d="m 172.86435,244.78036 a 18.579473,18.579473 0 0 1 -8.56135,5.84774 18.579473,18.579473 0 0 1 -10.3112,0.3317 18.579473,18.579473 0 0 1 2.88187,9.89496 18.579473,18.579473 0 0 1 -2.84574,9.85429 18.579473,18.579473 0 0 1 10.215,0.35088 18.579473,18.579473 0 0 1 8.58482,5.87202 18.579473,18.579473 0 0 1 3.49108,-9.75112 18.579473,18.579473 0 0 1 8.09837,-6.30659 18.579473,18.579473 0 0 1 -8.03793,-6.26348 18.579473,18.579473 0 0 1 -3.51491,-9.8304 z"
         id="path4484"
         inkscape:connector-curvature="0" />
      <path
         inkscape:connector-curvature="0"
         id="path4456"
         d="m 172.86435,243.78036 a 18.579473,18.579473 0 0 1 -8.56135,5.84774 18.579473,18.579473 0 0 1 -10.3112,0.3317 18.579473,18.579473 0 0 1 2.88187,9.89496 18.579473,18.579473 0 0 1 -2.84574,9.85429 18.579473,18.579473 0 0 1 10.215,0.35088 18.579473,18.579473 0 0 1 8.58482,5.87202 18.579473,18.579473 0 0 1 3.49108,-9.75112 18.579473,18.579473 0 0 1 8.09837,-6.30659 18.579473,18.579473 0 0 1 -8.03793,-6.26348 18.579473,18.579473 0 0 1 -3.51491,-9.8304 z"
         style="display:inline;opacity:1;fill:#ff9d93;fill-opacity:1;stroke:none;stroke-width:1;stroke-linecap:round;stroke-linejoin:round;stroke-miterlimit:4;stroke-dasharray:none;stroke-opacity:1;enable-background:new" />
      <path
         inkscape:connector-curvature="0"
         style="display:inline;opacity:0.2;fill:#ffffff;fill-opacity:1;stroke:none;stroke-width:1;stroke-linecap:round;stroke-linejoin:round;stroke-miterlimit:4;stroke-dasharray:none;stroke-opacity:1;enable-background:new"
         d="m 172.86523,243.78125 a 18.579473,18.579473 0 0 1 -8.5625,5.84766 18.579473,18.579473 0 0 1 -10.31054,0.33007 18.579473,18.579473 0 0 1 0.64648,1.14258 18.579473,18.579473 0 0 0 9.66406,-0.47265 18.579473,18.579473 0 0 0 8.5625,-5.84766 18.579473,18.579473 0 0 0 3.51368,9.83008 18.579473,18.579473 0 0 0 6.93554,5.75195 18.579473,18.579473 0 0 1 1.10352,-0.48828 18.579473,18.579473 0 0 1 -8.03906,-6.26367 18.579473,18.579473 0 0 1 -3.51368,-9.83008 z m -16.01171,16.45898 a 18.579473,18.579473 0 0 1 -2.82618,9.46875 18.579473,18.579473 0 0 1 0.64454,-0.12695 18.579473,18.579473 0 0 0 2.20117,-8.72656 18.579473,18.579473 0 0 0 -0.0195,-0.61524 z"
         id="path4488" />
      <path
         inkscape:connector-curvature="0"
         id="path4537"
         d="M 464.56302,-212 A 266.12753,266.12753 0 0 1 373.81807,-94.442977 266.12753,266.12753 0 0 1 234.82018,-44.284026 266.12753,266.12753 0 0 1 317.8768,77.755977 266.12753,266.12753 0 0 1 322.72799,224.59378 266.12753,266.12753 0 0 1 463.43687,184.15926 266.12753,266.12753 0 0 1 606.37644,226.15319 266.12753,266.12753 0 0 1 610.77298,77.864128 266.12753,266.12753 0 0 1 693.17983,-43.89442 266.12753,266.12753 0 0 1 555.95786,-93.641612 266.12753,266.12753 0 0 1 464.56313,-212 Z"
         style="display:inline;opacity:1;fill:#ba121f;fill-opacity:1;stroke:none;stroke-width:1;stroke-linecap:round;stroke-linejoin:round;stroke-miterlimit:4;stroke-dasharray:none;stroke-opacity:1;enable-background:new" />
      <path
         style="display:inline;opacity:0.2;fill:#ffffff;fill-opacity:1;stroke:none;stroke-width:1;stroke-linecap:round;stroke-linejoin:round;stroke-miterlimit:4;stroke-dasharray:none;stroke-opacity:1;enable-background:new"
         d="M 464.5625 32 A 266.12753 266.12753 0 0 1 373.81836 149.55664 A 266.12753 266.12753 0 0 1 234.82031 199.7168 A 266.12753 266.12753 0 0 1 236.79297 201.52539 A 266.12753 266.12753 0 0 0 373.81836 151.55664 A 266.12753 266.12753 0 0 0 464.5625 34 A 266.12753 266.12753 0 0 0 555.95703 152.35742 A 266.12753 266.12753 0 0 0 691.19531 201.86719 A 266.12753 266.12753 0 0 1 693.17969 200.10547 A 266.12753 266.12753 0 0 1 555.95703 150.35742 A 266.12753 266.12753 0 0 1 464.5625 32 z M 598.2168 392.97656 A 266.12753 266.12753 0 0 0 605.9082 469.875 A 266.12753 266.12753 0 0 1 606.37695 470.15234 A 266.12753 266.12753 0 0 1 598.2168 392.97656 z M 330.71289 401.49805 A 266.12753 266.12753 0 0 1 322.72852 468.59375 A 266.12753 266.12753 0 0 1 323.23047 468.31445 A 266.12753 266.12753 0 0 0 330.71289 401.49805 z "
         transform="translate(0,-244)"
         id="path4623" />
      <path
         inkscape:connector-curvature="0"
         id="path4634"
         d="M 606.61271,-165.82906 A 266.12753,266.12753 0 0 1 464.10008,-124.06202 266.12753,266.12753 0 0 1 322.16585,-165.18365 266.12753,266.12753 0 0 1 317.62667,-17.631674 266.12753,266.12753 0 0 1 235.24241,104.01414 266.12753,266.12753 0 0 1 372.84503,154.00852 266.12753,266.12753 0 0 1 463.80203,272 266.12753,266.12753 0 0 1 554.52101,154.61595 266.12753,266.12753 0 0 1 692.75759,104.54867 266.12753,266.12753 0 0 1 610.98328,-16.354706 266.12753,266.12753 0 0 1 606.61271,-165.82906 Z"
         style="display:inline;opacity:0.2;fill:#000000;fill-opacity:1;stroke:none;stroke-width:1;stroke-linecap:round;stroke-linejoin:round;stroke-miterlimit:4;stroke-dasharray:none;stroke-opacity:1;enable-background:new;filter:url(#filter4636)" />
      <path
         style="display:inline;opacity:1;fill:#e91627;fill-opacity:1;stroke:none;stroke-width:1;stroke-linecap:round;stroke-linejoin:round;stroke-miterlimit:4;stroke-dasharray:none;stroke-opacity:1;enable-background:new"
         d="M 606.61271,-169.82906 A 266.12753,266.12753 0 0 1 464.10008,-128.06202 266.12753,266.12753 0 0 1 322.16585,-169.18365 266.12753,266.12753 0 0 1 317.62667,-21.631674 266.12753,266.12753 0 0 1 235.24241,100.01414 266.12753,266.12753 0 0 1 372.84503,150.00852 266.12753,266.12753 0 0 1 463.80203,268 266.12753,266.12753 0 0 1 554.52101,150.61595 266.12753,266.12753 0 0 1 692.75759,100.54867 266.12753,266.12753 0 0 1 610.98328,-20.354706 266.12753,266.12753 0 0 1 606.61271,-169.82906 Z"
         id="path4543"
         inkscape:connector-curvature="0" />
      <path
         style="display:inline;opacity:0.2;fill:#ffffff;fill-opacity:1;stroke:none;stroke-width:1;stroke-linecap:round;stroke-linejoin:round;stroke-miterlimit:4;stroke-dasharray:none;stroke-opacity:1;enable-background:new"
         d="M 606.61328 74.171875 A 266.12753 266.12753 0 0 1 464.09961 115.9375 A 266.12753 266.12753 0 0 1 322.16602 74.816406 A 266.12753 266.12753 0 0 1 322.62695 77.087891 A 266.12753 266.12753 0 0 0 464.09961 117.9375 A 266.12753 266.12753 0 0 0 606.09766 76.464844 A 266.12753 266.12753 0 0 1 606.61328 74.171875 z M 598.04297 145.89258 A 266.12753 266.12753 0 0 0 610.98242 225.64453 A 266.12753 266.12753 0 0 0 690.80859 344.74023 A 266.12753 266.12753 0 0 1 692.75781 344.54883 A 266.12753 266.12753 0 0 1 610.98242 223.64453 A 266.12753 266.12753 0 0 1 598.04297 145.89258 z M 330.12891 153.96094 A 266.12753 266.12753 0 0 1 317.62695 222.36914 A 266.12753 266.12753 0 0 1 235.24219 344.01367 A 266.12753 266.12753 0 0 1 237.22852 344.25195 A 266.12753 266.12753 0 0 0 317.62695 224.36914 A 266.12753 266.12753 0 0 0 330.12891 153.96094 z "
         transform="translate(0,-244)"
         id="path4617" />
      <path
         inkscape:connector-curvature="0"
         id="path4628"
         d="m 517.08623,-145.01015 a 202.76383,202.76383 0 0 1 -93.43279,63.818289 202.76383,202.76383 0 0 1 -112.52948,3.61995 202.76383,202.76383 0 0 1 31.45079,107.986914 202.76383,202.76383 0 0 1 -31.05649,107.543067 202.76383,202.76383 0 0 1 111.47961,3.82927 202.76383,202.76383 0 0 1 93.68894,64.08326 A 202.76383,202.76383 0 0 1 554.7861,99.453461 202.76383,202.76383 0 0 1 643.16624,30.627595 202.76383,202.76383 0 0 1 555.4457,-37.727798 202.76383,202.76383 0 0 1 517.08634,-145.01015 Z"
         style="display:inline;opacity:0.2;fill:#000000;fill-opacity:1;stroke:none;stroke-width:1;stroke-linecap:round;stroke-linejoin:round;stroke-miterlimit:4;stroke-dasharray:none;stroke-opacity:1;enable-background:new;filter:url(#filter4630)" />
      <path
         style="display:inline;opacity:1;fill:#ff9d93;fill-opacity:1;stroke:none;stroke-width:1;stroke-linecap:round;stroke-linejoin:round;stroke-miterlimit:4;stroke-dasharray:none;stroke-opacity:1;enable-background:new"
         d="m 517.08623,-149.01015 a 202.76383,202.76383 0 0 1 -93.43279,63.818289 202.76383,202.76383 0 0 1 -112.52948,3.61995 202.76383,202.76383 0 0 1 31.45079,107.986914 202.76383,202.76383 0 0 1 -31.05649,107.543067 202.76383,202.76383 0 0 1 111.47961,3.82927 202.76383,202.76383 0 0 1 93.68894,64.08326 A 202.76383,202.76383 0 0 1 554.7861,95.453461 202.76383,202.76383 0 0 1 643.16624,26.627595 202.76383,202.76383 0 0 1 555.4457,-41.727798 202.76383,202.76383 0 0 1 517.08634,-149.01015 Z"
         id="path4549"
         inkscape:connector-curvature="0" />
      <path
         inkscape:connector-curvature="0"
         id="path4571"
         d="m 120.91329,255.63568 a 16.63297,16.63297 0 0 1 -8.90703,2.61044 16.63297,16.63297 0 0 1 -8.87089,-2.5701 16.63297,16.63297 0 0 1 -0.2837,9.222 16.63297,16.63297 0 0 1 -5.149019,7.60286 16.63297,16.63297 0 0 1 8.600169,3.12465 16.63297,16.63297 0 0 1 5.68481,7.37447 16.63297,16.63297 0 0 1 5.66993,-7.33651 16.63297,16.63297 0 0 1 8.63979,-3.1292 16.63297,16.63297 0 0 1 -5.11089,-7.55646 16.63297,16.63297 0 0 1 -0.27317,-9.34215 z"
         style="display:inline;opacity:1;fill:#e91627;fill-opacity:1;stroke:none;stroke-width:1;stroke-linecap:round;stroke-linejoin:round;stroke-miterlimit:4;stroke-dasharray:none;stroke-opacity:1;enable-background:new" />
      <path
         style="display:inline;opacity:0.2;fill:#000000;fill-opacity:1;stroke:none;stroke-width:1;stroke-linecap:round;stroke-linejoin:round;stroke-miterlimit:4;stroke-dasharray:none;stroke-opacity:1;enable-background:new"
         d="m 115.31789,257.93686 a 12.672739,12.672739 0 0 1 -5.83955,3.98864 12.672739,12.672739 0 0 1 -7.03309,0.22625 12.672739,12.672739 0 0 1 1.96567,6.74918 12.672739,12.672739 0 0 1 -1.94103,6.72145 12.672739,12.672739 0 0 1 6.96748,0.23932 12.672739,12.672739 0 0 1 5.85556,4.00521 12.672739,12.672739 0 0 1 2.3812,-6.65107 12.672739,12.672739 0 0 1 5.52376,-4.30162 12.672739,12.672739 0 0 1 -5.48253,-4.27221 12.672739,12.672739 0 0 1 -2.39746,-6.70515 z"
         id="path4652"
         inkscape:connector-curvature="0" />
      <path
         inkscape:connector-curvature="0"
         id="path4573"
         d="m 115.31789,256.93686 a 12.672739,12.672739 0 0 1 -5.83955,3.98864 12.672739,12.672739 0 0 1 -7.03309,0.22625 12.672739,12.672739 0 0 1 1.96567,6.74918 12.672739,12.672739 0 0 1 -1.94103,6.72145 12.672739,12.672739 0 0 1 6.96748,0.23932 12.672739,12.672739 0 0 1 5.85556,4.00521 12.672739,12.672739 0 0 1 2.3812,-6.65107 12.672739,12.672739 0 0 1 5.52376,-4.30162 12.672739,12.672739 0 0 1 -5.48253,-4.27221 12.672739,12.672739 0 0 1 -2.39746,-6.70515 z"
         style="display:inline;opacity:1;fill:#ff9d93;fill-opacity:1;stroke:none;stroke-width:1;stroke-linecap:round;stroke-linejoin:round;stroke-miterlimit:4;stroke-dasharray:none;stroke-opacity:1;enable-background:new" />
      <path
         inkscape:connector-curvature="0"
         id="path4577"
         d="m 64.025805,261 a 12.197513,12.197513 0 0 1 -4.159144,5.38803 12.197513,12.197513 0 0 1 -6.370738,2.29895 12.197513,12.197513 0 0 1 3.806763,5.5935 12.197513,12.197513 0 0 1 0.222346,6.73007 12.197513,12.197513 0 0 1 6.449158,-1.85325 12.197513,12.197513 0 0 1 6.551397,1.92472 12.197513,12.197513 0 0 1 0.201508,-6.79658 12.197513,12.197513 0 0 1 3.776981,-5.5806 12.197513,12.197513 0 0 1 -6.289341,-2.28008 A 12.197513,12.197513 0 0 1 64.02581,261 Z"
         style="display:inline;opacity:1;fill:#ba121f;fill-opacity:1;stroke:none;stroke-width:1;stroke-linecap:round;stroke-linejoin:round;stroke-miterlimit:4;stroke-dasharray:none;stroke-opacity:1;enable-background:new" />
      <path
         inkscape:connector-curvature="0"
         id="path4656"
         d="m 70.536416,263.93284 a 12.197513,12.197513 0 0 1 -6.53183,1.91432 12.197513,12.197513 0 0 1 -6.505319,-1.88474 12.197513,12.197513 0 0 1 -0.208046,6.7628 12.197513,12.197513 0 0 1 -3.775945,5.57543 12.197513,12.197513 0 0 1 6.306787,2.29141 12.197513,12.197513 0 0 1 4.168863,5.40794 12.197513,12.197513 0 0 1 4.157954,-5.3801 12.197513,12.197513 0 0 1 6.335843,-2.29475 12.197513,12.197513 0 0 1 -3.747989,-5.54141 12.197513,12.197513 0 0 1 -0.200318,-6.8509 z"
         style="display:inline;opacity:0.2;fill:#000000;fill-opacity:1;stroke:none;stroke-width:1;stroke-linecap:round;stroke-linejoin:round;stroke-miterlimit:4;stroke-dasharray:none;stroke-opacity:1;enable-background:new" />
      <path
         style="display:inline;opacity:1;fill:#e91627;fill-opacity:1;stroke:none;stroke-width:1;stroke-linecap:round;stroke-linejoin:round;stroke-miterlimit:4;stroke-dasharray:none;stroke-opacity:1;enable-background:new"
         d="m 70.536416,262.93284 a 12.197513,12.197513 0 0 1 -6.53183,1.91432 12.197513,12.197513 0 0 1 -6.505319,-1.88474 12.197513,12.197513 0 0 1 -0.208046,6.7628 12.197513,12.197513 0 0 1 -3.775945,5.57543 12.197513,12.197513 0 0 1 6.306787,2.29141 12.197513,12.197513 0 0 1 4.168863,5.40794 12.197513,12.197513 0 0 1 4.157954,-5.3801 12.197513,12.197513 0 0 1 6.335843,-2.29475 12.197513,12.197513 0 0 1 -3.747989,-5.54141 12.197513,12.197513 0 0 1 -0.200318,-6.8509 z"
         id="path4579"
         inkscape:connector-curvature="0" />
      <path
         inkscape:connector-curvature="0"
         id="path4658"
         d="m 66.433119,264.88704 a 9.2933428,9.2933428 0 0 1 -4.282337,2.925 9.2933428,9.2933428 0 0 1 -5.157601,0.16592 9.2933428,9.2933428 0 0 1 1.441494,4.9494 9.2933428,9.2933428 0 0 1 -1.423422,4.92905 9.2933428,9.2933428 0 0 1 5.109482,0.17551 9.2933428,9.2933428 0 0 1 4.294077,2.93715 9.2933428,9.2933428 0 0 1 1.746217,-4.87745 9.2933428,9.2933428 0 0 1 4.050757,-3.15452 9.2933428,9.2933428 0 0 1 -4.020525,-3.13296 9.2933428,9.2933428 0 0 1 -1.758137,-4.9171 z"
         style="display:inline;opacity:0.2;fill:#000000;fill-opacity:1;stroke:none;stroke-width:1;stroke-linecap:round;stroke-linejoin:round;stroke-miterlimit:4;stroke-dasharray:none;stroke-opacity:1;enable-background:new" />
      <path
         style="display:inline;opacity:1;fill:#ff9d93;fill-opacity:1;stroke:none;stroke-width:1;stroke-linecap:round;stroke-linejoin:round;stroke-miterlimit:4;stroke-dasharray:none;stroke-opacity:1;enable-background:new"
         d="m 66.433119,263.88704 a 9.2933428,9.2933428 0 0 1 -4.282337,2.925 9.2933428,9.2933428 0 0 1 -5.157601,0.16592 9.2933428,9.2933428 0 0 1 1.441494,4.9494 9.2933428,9.2933428 0 0 1 -1.423422,4.92905 9.2933428,9.2933428 0 0 1 5.109482,0.17551 9.2933428,9.2933428 0 0 1 4.294077,2.93715 9.2933428,9.2933428 0 0 1 1.746217,-4.87745 9.2933428,9.2933428 0 0 1 4.050757,-3.15452 9.2933428,9.2933428 0 0 1 -4.020525,-3.13296 9.2933428,9.2933428 0 0 1 -1.758137,-4.9171 z"
         id="path4581"
         inkscape:connector-curvature="0" />
      <path
         style="display:inline;opacity:1;fill:#ba121f;fill-opacity:1;stroke:none;stroke-width:1;stroke-linecap:round;stroke-linejoin:round;stroke-miterlimit:4;stroke-dasharray:none;stroke-opacity:1;enable-background:new"
         d="m 24.018767,268 a 8.8709177,8.8709177 0 0 1 -3.024831,3.91857 8.8709177,8.8709177 0 0 1 -4.633263,1.67196 8.8709177,8.8709177 0 0 1 2.768554,4.068 8.8709177,8.8709177 0 0 1 0.161706,4.89459 8.8709177,8.8709177 0 0 1 4.690296,-1.34781 8.8709177,8.8709177 0 0 1 4.764652,1.39979 8.8709177,8.8709177 0 0 1 0.146552,-4.94296 8.8709177,8.8709177 0 0 1 2.746895,-4.05862 8.8709177,8.8709177 0 0 1 -4.574066,-1.65824 A 8.8709177,8.8709177 0 0 1 24.018771,268 Z"
         id="path4585"
         inkscape:connector-curvature="0" />
      <path
         inkscape:connector-curvature="0"
         id="path4587"
         d="m 28.753757,269.4057 a 8.8709177,8.8709177 0 0 1 -4.750421,1.39223 8.8709177,8.8709177 0 0 1 -4.731141,-1.37072 8.8709177,8.8709177 0 0 1 -0.151306,4.9184 8.8709177,8.8709177 0 0 1 -2.746142,4.05486 8.8709177,8.8709177 0 0 1 4.586754,1.66648 8.8709177,8.8709177 0 0 1 3.0319,3.93305 8.8709177,8.8709177 0 0 1 3.023966,-3.9128 8.8709177,8.8709177 0 0 1 4.607886,-1.66891 8.8709177,8.8709177 0 0 1 -2.72581,-4.03012 8.8709177,8.8709177 0 0 1 -0.145686,-4.98247 z"
         style="display:inline;opacity:1;fill:#e91627;fill-opacity:1;stroke:none;stroke-width:1;stroke-linecap:round;stroke-linejoin:round;stroke-miterlimit:4;stroke-dasharray:none;stroke-opacity:1;enable-background:new" />
      <path
         inkscape:connector-curvature="0"
         id="path4589"
         d="m 25.769541,270.09966 a 6.7587942,6.7587942 0 0 1 -3.114426,2.12728 6.7587942,6.7587942 0 0 1 -3.750983,0.12066 6.7587942,6.7587942 0 0 1 1.04836,3.59957 6.7587942,6.7587942 0 0 1 -1.035217,3.58476 6.7587942,6.7587942 0 0 1 3.715988,0.12765 6.7587942,6.7587942 0 0 1 3.122964,2.13611 6.7587942,6.7587942 0 0 1 1.269976,-3.54724 6.7587942,6.7587942 0 0 1 2.946005,-2.2942 6.7587942,6.7587942 0 0 1 -2.924018,-2.27851 6.7587942,6.7587942 0 0 1 -1.278645,-3.57608 z"
         style="display:inline;opacity:1;fill:#ff9d93;fill-opacity:1;stroke:none;stroke-width:1;stroke-linecap:round;stroke-linejoin:round;stroke-miterlimit:4;stroke-dasharray:none;stroke-opacity:1;enable-background:new" />
      <path
         style="display:inline;opacity:0.2;fill:#ffffff;fill-opacity:1;stroke:none;stroke-width:1;stroke-linecap:round;stroke-linejoin:round;stroke-miterlimit:4;stroke-dasharray:none;stroke-opacity:1;enable-background:new"
         d="M 517.08594 94.990234 A 202.76383 202.76383 0 0 1 423.6543 158.80859 A 202.76383 202.76383 0 0 1 311.12305 162.42773 A 202.76383 202.76383 0 0 1 312.41602 164.71289 A 202.76383 202.76383 0 0 0 423.6543 160.80859 A 202.76383 202.76383 0 0 0 517.08594 96.990234 A 202.76383 202.76383 0 0 0 555.44531 204.27148 A 202.76383 202.76383 0 0 0 640.94531 271.59766 A 202.76383 202.76383 0 0 1 643.16602 270.62695 A 202.76383 202.76383 0 0 1 555.44531 202.27148 A 202.76383 202.76383 0 0 1 517.08594 94.990234 z M 342.5332 271.20117 A 202.76383 202.76383 0 0 1 311.51758 377.95898 A 202.76383 202.76383 0 0 1 312.8457 377.69727 A 202.76383 202.76383 0 0 0 342.57422 272.41406 A 202.76383 202.76383 0 0 0 342.5332 271.20117 z "
         transform="translate(0,-244)"
         id="path4612" />
    </g>
  </g>
</svg>
