<?xml version="1.0" encoding="UTF-8" standalone="no"?>
<!-- Created with Inkscape (http://www.inkscape.org/) -->

<svg
   xmlns:osb="http://www.openswatchbook.org/uri/2009/osb"
   xmlns:dc="http://purl.org/dc/elements/1.1/"
   xmlns:cc="http://creativecommons.org/ns#"
   xmlns:rdf="http://www.w3.org/1999/02/22-rdf-syntax-ns#"
   xmlns:svg="http://www.w3.org/2000/svg"
   xmlns="http://www.w3.org/2000/svg"
   xmlns:sodipodi="http://sodipodi.sourceforge.net/DTD/sodipodi-0.dtd"
   xmlns:inkscape="http://www.inkscape.org/namespaces/inkscape"
   inkscape:export-ydpi="90.000000"
   inkscape:export-xdpi="90.000000"
   width="736"
   height="544"
   id="svg11300"
   sodipodi:version="0.32"
   inkscape:version="0.91 r"
   sodipodi:docname="monodoc.svg"
   inkscape:output_extension="org.inkscape.output.svg.inkscape"
   version="1.0"
   style="display:inline;enable-background:new"
   inkscape:export-filename="/home/sam/paper-template.png">
  <title
     id="title3004">Paper Icon Theme</title>
  <sodipodi:namedview
     stroke="#ef2929"
     fill="#f57900"
     id="base"
     pagecolor="#484848"
     bordercolor="#666666"
     borderopacity="0.25490196"
     inkscape:pageopacity="0"
     inkscape:pageshadow="2"
     inkscape:zoom="1"
     inkscape:cx="75.668189"
     inkscape:cy="35.618425"
     inkscape:current-layer="layer6"
     showgrid="false"
     inkscape:grid-bbox="true"
     inkscape:document-units="px"
     inkscape:showpageshadow="false"
     inkscape:window-width="1920"
     inkscape:window-height="1024"
     inkscape:window-x="0"
     inkscape:window-y="30"
     width="400px"
     height="300px"
     inkscape:snap-nodes="true"
     inkscape:snap-bbox="true"
     gridtolerance="10000"
     inkscape:object-nodes="true"
     inkscape:snap-grids="true"
     showguides="true"
     inkscape:guide-bbox="true"
     inkscape:window-maximized="1"
     inkscape:snap-global="true"
     inkscape:snap-intersection-paths="false"
     inkscape:object-paths="false"
     inkscape:snap-smooth-nodes="false">
    <inkscape:grid
       spacingy="1px"
       spacingx="1px"
       id="grid5883"
       type="xygrid"
       enabled="true"
       visible="true"
       empspacing="4"
       snapvisiblegridlinesonly="true" />
    <inkscape:grid
       type="xygrid"
       id="grid11592"
       empspacing="2"
       visible="true"
       enabled="false"
       spacingx="0.5px"
       spacingy="0.5px"
       color="#ff0000"
       opacity="0.1254902"
       empcolor="#ff0000"
       empopacity="0.25098039"
       snapvisiblegridlinesonly="true" />
  </sodipodi:namedview>
  <defs
     id="defs3">
    <linearGradient
       osb:paint="solid"
       id="linearGradient5606">
      <stop
         style="stop-color:#000000;stop-opacity:1;"
         offset="0"
         id="stop5608" />
    </linearGradient>
    <clipPath
       clipPathUnits="userSpaceOnUse"
       id="clipPath4260">
      <path
         id="path4262"
         d="m 232,148 0,56 19,0 c 1.662,0 3,-1.338 3,-3 l 0,-50 c 0,-1.662 -1.338,-3 -3,-3 l -19,0 z"
         style="fill:#d8d8d8;fill-opacity:1;stroke:none"
         inkscape:connector-curvature="0" />
    </clipPath>
    <filter
       inkscape:collect="always"
       style="color-interpolation-filters:sRGB"
       id="filter4332"
       x="-0.027272727"
       width="1.0545455"
       y="-0.02142857"
       height="1.0428571">
      <feGaussianBlur
         inkscape:collect="always"
         stdDeviation="4"
         id="feGaussianBlur4334" />
    </filter>
    <clipPath
       clipPathUnits="userSpaceOnUse"
       id="clipPath4419">
      <path
         inkscape:connector-curvature="0"
         id="path4421"
         d="m 168,240 0,40 14.02148,0 c 1.108,0 2,-0.892 2,-2 l 0,-36 c 0,-1.108 -0.892,-2 -2,-2 L 168,240 Z"
         style="fill:#d8d8d8;fill-opacity:1;stroke:none" />
    </clipPath>
  </defs>
  <metadata
     id="metadata4">
    <rdf:RDF>
      <cc:Work
         rdf:about="">
        <dc:format>image/svg+xml</dc:format>
        <dc:type
           rdf:resource="http://purl.org/dc/dcmitype/StillImage" />
        <dc:creator>
          <cc:Agent>
            <dc:title>Sam Hewitt</dc:title>
          </cc:Agent>
        </dc:creator>
        <dc:source />
        <cc:license
           rdf:resource="http://creativecommons.org/licenses/by-sa/3.0/" />
        <dc:title>Paper Icon Theme</dc:title>
        <dc:subject>
          <rdf:Bag />
        </dc:subject>
        <dc:date />
        <dc:rights>
          <cc:Agent>
            <dc:title />
          </cc:Agent>
        </dc:rights>
        <dc:publisher>
          <cc:Agent>
            <dc:title />
          </cc:Agent>
        </dc:publisher>
        <dc:identifier />
        <dc:relation />
        <dc:language />
        <dc:coverage />
        <dc:description />
        <dc:contributor>
          <cc:Agent>
            <dc:title />
          </cc:Agent>
        </dc:contributor>
      </cc:Work>
      <cc:Work
         rdf:about="">
        <dc:format>image/svg+xml</dc:format>
        <dc:type
           rdf:resource="http://purl.org/dc/dcmitype/StillImage" />
      </cc:Work>
    </rdf:RDF>
  </metadata>
  <g
     style="display:inline"
     inkscape:groupmode="layer"
     inkscape:label="Icon"
     id="layer1"
     transform="translate(0,244)">
    <g
       style="display:none"
       inkscape:label="Baseplate"
       id="layer7"
       inkscape:groupmode="layer">
      <text
         y="332.48523"
         xml:space="preserve"
         x="15.006836"
         style="font-style:normal;font-variant:normal;font-weight:normal;font-stretch:normal;font-size:18px;font-family:'DejaVu Sans';-inkscape-font-specification:'DejaVu Sans';display:inline;fill:#000000;fill-opacity:1;stroke:none;enable-background:new"
         inkscape:label="context"
         id="context"><tspan
           style="font-style:normal;font-variant:normal;font-weight:normal;font-stretch:normal;font-family:'DejaVu Sans';-inkscape-font-specification:'DejaVu Sans'"
           y="332.48523"
           x="15.006836"
           sodipodi:role="line"
           id="tspan3933">apps</tspan></text>
      <text
         y="332.48523"
         xml:space="preserve"
         x="142.48828"
         style="font-style:normal;font-variant:normal;font-weight:bold;font-stretch:normal;font-size:18px;line-height:125%;font-family:'DejaVu Sans';-inkscape-font-specification:'DejaVu Sans Bold';text-align:start;writing-mode:lr-tb;text-anchor:start;display:inline;fill:#000000;fill-opacity:1;stroke:none;enable-background:new"
         sodipodi:linespacing="125%"
         inkscape:label="icon-name"
         id="icon-name"><tspan
           style="font-style:normal;font-variant:normal;font-weight:bold;font-stretch:normal;font-size:18px;font-family:'DejaVu Sans';-inkscape-font-specification:'DejaVu Sans Bold'"
           y="332.48523"
           x="142.48828"
           sodipodi:role="line"
           id="tspan3937">monodoc</tspan></text>
      <rect
         style="display:inline;overflow:visible;visibility:visible;fill:#e9e9e9;fill-opacity:1;fill-rule:nonzero;stroke:none;stroke-width:2;marker:none;enable-background:accumulate"
         id="rect16x16"
         width="16"
         height="16"
         x="-32"
         y="268"
         inkscape:label="16x16"
         transform="scale(-1,1)" />
      <rect
         style="display:inline;overflow:visible;visibility:visible;fill:#e9e9e9;fill-opacity:1;fill-rule:nonzero;stroke:none;stroke-width:2;marker:none;enable-background:accumulate"
         id="rect24x24"
         width="24"
         height="24"
         x="-76"
         y="260"
         inkscape:label="24x24"
         transform="scale(-1,1)" />
      <rect
         style="display:inline;overflow:visible;visibility:visible;fill:#e9e9e9;fill-opacity:1;fill-rule:nonzero;stroke:none;stroke-width:2;marker:none;enable-background:accumulate"
         id="rect32x32"
         width="32"
         height="32"
         x="-128"
         y="252"
         inkscape:label="32x32"
         transform="scale(-1,1)" />
      <rect
         inkscape:label="48x48"
         y="236"
         x="-192"
         height="48"
         width="48"
         id="rect48x48"
         style="display:inline;overflow:visible;visibility:visible;fill:#e9e9e9;fill-opacity:1;fill-rule:nonzero;stroke:none;stroke-width:2;marker:none;enable-background:accumulate"
         transform="scale(-1,1)" />
      <rect
         style="display:inline;overflow:visible;visibility:visible;fill:#e9e9e9;fill-opacity:1;fill-rule:nonzero;stroke:none;stroke-width:2;marker:none;enable-background:accumulate"
         id="rect3951"
         width="512"
         height="512"
         x="-720"
         y="-228"
         inkscape:label="48x48"
         transform="scale(-1,1)" />
    </g>
    <g
       inkscape:groupmode="layer"
       id="layer6"
       inkscape:label="Symbols"
       style="display:inline">
      <rect
         style="opacity:0.2;fill:#000000;fill-opacity:1;stroke:none;stroke-width:8;stroke-linecap:round;stroke-linejoin:miter;stroke-miterlimit:4;stroke-dasharray:none;stroke-opacity:1"
         id="rect4489"
         width="18"
         height="22"
         x="55"
         y="262"
         rx="1"
         ry="1" />
      <rect
         style="opacity:1;fill:#7986cb;fill-opacity:1;stroke:none;stroke-width:8;stroke-linecap:round;stroke-linejoin:miter;stroke-miterlimit:4;stroke-dasharray:none;stroke-opacity:1"
         id="rect4480"
         width="18"
         height="22"
         x="-73"
         y="261"
         rx="1"
         ry="1"
         transform="scale(-1,1)" />
      <rect
         transform="matrix(0,-1,-1,0,0,0)"
         style="fill:#000000;fill-opacity:1;stroke:none;opacity:0.2"
         id="rect4460"
         width="28"
         height="22"
         x="-283"
         y="-123"
         rx="1.5"
         ry="1.5" />
      <path
         style="fill:#7986cb;fill-opacity:1;stroke:none"
         d="M 102.5 498 C 101.669 498 101 498.669 101 499.5 L 101 524.5 C 101 525.331 101.669 526 102.5 526 L 112 526 L 121.5 526 C 122.331 526 123 525.331 123 524.5 L 123 499.5 C 123 498.669 122.331 498 121.5 498 L 112 498 L 102.5 498 z "
         transform="translate(0,-244)"
         id="rect4255" />
      <path
         style="opacity:0.2;fill:#000000;fill-opacity:1;stroke:none"
         d="m 154.02148,241 c -1.108,0 -2,0.892 -2,2 l 0,36 c 0,1.108 0.892,2 2,2 L 168,281 l 14.02148,0 c 1.108,0 2,-0.892 2,-2 l 0,-36 c 0,-1.108 -0.892,-2 -2,-2 L 168,241 l -13.97852,0 z"
         id="path4410"
         inkscape:connector-curvature="0" />
      <path
         inkscape:connector-curvature="0"
         id="path4336"
         d="m 312,-192 c -13.296,0 -24,10.704 -24,24 l 0,400 c 0,13.296 10.704,24 24,24 l 152,0 152,0 c 13.296,0 24,-10.704 24,-24 l 0,-400 c 0,-13.296 -10.704,-24 -24,-24 l -152,0 -152,0 z"
         style="opacity:0.1;fill:#000000;fill-opacity:1;stroke:#000000;stroke-width:8;stroke-miterlimit:4;stroke-dasharray:none;stroke-opacity:1;filter:url(#filter4332)"
         transform="matrix(-1,0,0,1,928.00002,0)" />
      <path
         style="display:inline;fill:#7986cb;fill-opacity:1;stroke:none;enable-background:new"
         d="m 18,268 c -0.554,0 -1,0.446 -1,1 l 0,14 c 0,0.554 0.446,1 1,1 l 7,0 5,0 c 0.554,0 1,-0.446 1,-1 l 0,-14 c 0,-0.554 -0.446,-1 -1,-1 l -5,0 z"
         id="rect4265"
         inkscape:connector-curvature="0"
         sodipodi:nodetypes="sssscsssscs" />
      <path
         style="opacity:1;fill:#7986cb;fill-opacity:1;stroke:none"
         d="M 154.02148 484 C 152.91348 484 152.02148 484.892 152.02148 486 L 152.02148 522 C 152.02148 523.108 152.91348 524 154.02148 524 L 168 524 L 182.02148 524 C 183.12948 524 184.02148 523.108 184.02148 522 L 184.02148 486 C 184.02148 484.892 183.12948 484 182.02148 484 L 168 484 L 154.02148 484 z "
         transform="translate(0,-244)"
         id="path8375" />
      <path
         style="opacity:0.3;fill:#000000;fill-opacity:1;stroke:none"
         d="m 154.02148,484 c -1.108,0 -2,0.892 -2,2 l 0,36 c 0,1.108 0.892,2 2,2 l 2.97852,0 0,-40 z"
         transform="translate(0,-244)"
         id="path4229"
         inkscape:connector-curvature="0"
         sodipodi:nodetypes="ssssccs" />
      <path
         style="opacity:0.2;fill:#000000;fill-opacity:1;stroke:none;filter:url(#filter4332)"
         d="m 312,-192 c -13.296,0 -24,10.704 -24,24 l 0,400 c 0,13.296 10.704,24 24,24 l 152,0 152,0 c 13.296,0 24,-10.704 24,-24 l 0,-400 c 0,-13.296 -10.704,-24 -24,-24 l -152,0 -152,0 z"
         id="path4281"
         inkscape:connector-curvature="0" />
      <path
         style="fill:#7986cb;fill-opacity:1;stroke:none"
         d="M 312 48 C 298.704 48 288 58.704 288 72 L 288 472 C 288 485.296 298.704 496 312 496 L 464 496 L 616 496 C 629.296 496 640 485.296 640 472 L 640 72 C 640 58.704 629.296 48 616 48 L 464 48 L 312 48 z "
         id="rect4239"
         transform="translate(0,-244)" />
      <path
         style="display:inline;fill:#000000;fill-opacity:1;stroke:none;enable-background:new;opacity:0.3"
         d="M 18 512 C 17.446 512 17 512.446 17 513 L 17 527 C 17 527.554 17.446 528 18 528 L 19 528 L 19 512 L 18 512 z "
         transform="translate(0,-244)"
         id="path4242" />
      <path
         style="opacity:0.3;fill:#000000;fill-opacity:1;stroke:none"
         d="m 102.5,498 c -0.831,0 -1.5,0.669 -1.5,1.5 l 0,25 c 0,0.831 0.669,1.5 1.5,1.5 l 1.5,0 0,-28 z"
         transform="translate(0,-244)"
         id="path4234"
         inkscape:connector-curvature="0"
         sodipodi:nodetypes="ssssccs" />
      <rect
         ry="1"
         rx="1"
         y="261"
         x="55"
         height="22"
         width="18"
         id="rect4482"
         style="opacity:1;fill:#7986cb;fill-opacity:1;stroke:none;stroke-width:8;stroke-linecap:round;stroke-linejoin:miter;stroke-miterlimit:4;stroke-dasharray:none;stroke-opacity:1" />
      <path
         style="opacity:0.3;fill:#000000;fill-opacity:1;stroke:none"
         d="m 312,48 c -13.296,0 -24,10.704 -24,24 l 0,400 c 0,13.296 10.704,24 24,24 l 26,0 0,-448 z"
         transform="translate(0,-244)"
         id="path4224"
         inkscape:connector-curvature="0"
         sodipodi:nodetypes="ssssccs" />
      <path
         style="opacity:0.3;fill:#000000;fill-opacity:1;stroke:none;stroke-width:8;stroke-linecap:round;stroke-linejoin:miter;stroke-miterlimit:4;stroke-dasharray:none;stroke-opacity:1"
         d="m 56,505 c -0.554,0 -1,0.446 -1,1 l 0,20 c 0,0.554 0.446,1 1,1 l 1,0 0,-22 z"
         transform="translate(0,-244)"
         id="rect4245"
         inkscape:connector-curvature="0"
         sodipodi:nodetypes="ssssccs" />
      <path
         style="opacity:0.2;fill:#ffffff;fill-opacity:1;stroke:none"
         d="M 154.02148 484 C 152.91348 484 152.02148 484.892 152.02148 486 L 152.02148 487 C 152.02148 485.892 152.91348 485 154.02148 485 L 168 485 L 182.02148 485 C 183.12948 485 184.02148 485.892 184.02148 487 L 184.02148 486 C 184.02148 484.892 183.12948 484 182.02148 484 L 168 484 L 154.02148 484 z "
         transform="translate(0,-244)"
         id="path4374" />
      <path
         style="opacity:0.2;fill:#ffffff;fill-opacity:1;stroke:none"
         d="m 312,-272 c -13.296,0 -24,10.704 -24,24 l 0,2 c 0,-13.296 10.704,-24 24,-24 l 152,0 152,0 c 13.296,0 24,10.704 24,24 l 0,-2 c 0,-13.296 -10.704,-24 -24,-24 l -152,0 -152,0 z"
         transform="translate(0,76)"
         id="path4286"
         inkscape:connector-curvature="0" />
      <path
         d="m 160,269.74795 c 0,0 7.0172,-8.27406 7.12246,-8.25129 0.0602,0.013 2.28952,0.95998 4.95424,2.10439 4.55101,1.95449 4.85288,2.07008 4.97595,1.90522 0.1861,-0.24935 0.82712,-1.58988 1.16617,-2.43887 l 0.28764,-0.72026 -0.48461,-0.26496 c -0.68676,-0.37549 -1.69404,-1.21172 -2.32478,-1.93003 -0.57558,-0.65547 -1.61376,-2.23704 -1.61376,-2.4584 0,-0.0733 0.32989,0.25988 0.73308,0.74034 1.13253,1.34956 3.74227,3.46131 3.90616,3.16077 0.1945,-0.35662 0.3202,-1.40944 0.31399,-2.62936 -0.008,-1.48929 -0.008,-2.72489 -0.71561,-4.24904 l -0.28731,-0.89674 -1.4205,-0.44645 -1.74045,-0.54701 c -0.61373,-0.19289 -0.22976,-0.1825 0.66871,0.0182 1.07429,0.23984 2.16552,0.44242 2.84123,0.52745 0.59494,0.0749 0.72585,-0.0418 0.78947,-0.70383 0.0811,-0.84403 -0.46365,-3.17503 -1.01326,-4.33562 -0.21937,-0.4632 -0.31839,-0.56308 -0.75755,-0.7641 -1.46193,-0.66917 -6.03785,-1.29591 -7.98103,-1.09311 -0.83999,0.0876 -1.70286,0.29174 -1.97177,0.46635 -0.0758,0.0492 0.46597,0.18876 1.39869,0.36025 0.83732,0.15395 1.44751,0.29454 1.35595,0.31242 -0.0915,0.0179 -1.4073,-0.12668 -2.92386,-0.32124 -2.66248,-0.34157 -2.76405,-0.34777 -2.94949,-0.17998 -0.38664,0.34984 -0.94293,1.3061 -1.05747,1.81777 -0.11089,0.49539 -0.10308,0.5528 0.14362,1.05693 0.42049,0.85928 1.20237,1.48453 2.98159,2.38426 0.84135,0.42545 1.50929,0.79394 1.48438,0.81887 -0.0249,0.0249 -0.77513,-0.17356 -1.59554,-0.5956 l -1.55019,-0.64097 -4.73615,1.2729 0,-8.26542 c 0,0 0,-0.96179 1,-0.96179 l 19,0 c 0,0 1,0 1,1 l 0,25 c 0,1 -1,1 -1,1 l -20,0 z"
         style="display:inline;fill:#000000;fill-opacity:1;enable-background:new;opacity:0.2"
         id="path4252"
         inkscape:connector-curvature="0"
         sodipodi:nodetypes="ccssscssssssscsssssssssssssssssscccccccccc" />
      <path
         inkscape:connector-curvature="0"
         id="path4271"
         d="m 312,252 c -13.296,0 -24,-10.704 -24,-24 l 0,-2 c 0,13.296 10.704,24 24,24 l 152,0 152,0 c 13.296,0 24,-10.704 24,-24 l 0,2 c 0,13.296 -10.704,24 -24,24 l -152,0 -152,0 z"
         style="opacity:0.2;fill:#000000;fill-opacity:1;stroke:none" />
      <path
         sodipodi:nodetypes="ccccccsccsscsccsccsccccccccscscccsccccccccc"
         inkscape:connector-curvature="0"
         id="path4254"
         d="m 376,-161 c -8,0 -8,8 -8,8 l 0,103.8457 39.33008,-10.57031 18.11133,7.48828 c 9.96054,4.11844 18.34747,7.25019 18.63867,6.95899 0.29109,-0.29131 -7.51278,-4.59606 -17.3418,-9.56641 -20.78581,-10.51115 -29.9196,-17.81696 -34.83203,-27.85547 -2.88202,-5.8896 -2.97319,-6.56024 -1.67773,-12.34766 1.33814,-5.9776 7.83661,-17.14928 12.35351,-21.23632 2.1664,-1.96021 3.35445,-1.88689 34.45899,2.10351 17.71733,2.27307 33.08876,3.96103 34.1582,3.75196 1.06955,-0.20885 -6.05982,-1.84993 -15.8418,-3.64844 -10.89653,-2.00352 -17.22518,-3.63406 -16.33984,-4.20899 3.14154,-2.03989 13.22193,-4.42521 23.03515,-5.44922 22.70123,-2.36917 76.15925,4.95389 93.23829,12.77149 5.13056,2.34838 6.28683,3.51436 8.8496,8.92578 6.42092,13.55861 12.7851,40.79186 11.8379,50.65234 -0.74325,7.73397 -2.27215,9.09732 -9.22266,8.22266 -7.89397,-0.99339 -20.64285,-3.36008 -33.19336,-6.16211 -10.49642,-2.34432 -14.98242,-2.46633 -7.8125,-0.21289 2.05578,0.64619 11.20677,3.52203 20.33398,6.39063 l 16.59375,5.21484 3.35743,10.47656 c 11.95527,15.57241 8.26337,32.24191 8.35937,49.64063 0.0726,14.25184 -1.39575,26.5505 -3.66797,30.71679 -1.91466,3.51104 -32.40187,-21.15949 -45.63281,-36.92578 -4.71018,-5.61302 -8.56445,-9.50496 -8.56445,-8.64844 0,2.58613 12.1273,21.06115 18.85156,28.71876 7.36864,8.39167 20.13508,16.69548 27.16016,22.54882 l 5.6621,3.09571 -3.36132,8.41406 c 1.66244,10.54973 -11.44886,25.57923 -13.62305,28.49219 -1.43776,1.92597 -4.96545,0.57567 -58.13281,-22.25782 C 461.95527,62.97024 435.91191,51.90839 435.20898,51.75586 434.32118,51.56387 391.82893,101.33281 368,129.33398 L 368,135 c 0,0 0,8 8,8 l 224,0 c 8,0 8,-8 8,-8 l 0,-288 c 0,-8 -8,-8 -8,-8 z"
         style="display:inline;opacity:0.2;fill:#000000;fill-opacity:1;enable-background:new" />
      <path
         sodipodi:nodetypes="ccssscssssssscsssssssssssssssssscccccccccc"
         inkscape:connector-curvature="0"
         id="path4190"
         style="display:inline;fill:#e8eaf6;fill-opacity:1;enable-background:new"
         d="m 160,268.74795 c 0,0 7.0172,-8.27406 7.12246,-8.25129 0.0602,0.013 2.28952,0.95998 4.95424,2.10439 4.55101,1.95449 4.85288,2.07008 4.97595,1.90522 0.1861,-0.24935 0.82712,-1.58988 1.16617,-2.43887 l 0.28764,-0.72026 -0.48461,-0.26496 c -0.68676,-0.37549 -1.69404,-1.21172 -2.32478,-1.93003 -0.57558,-0.65547 -1.61376,-2.23704 -1.61376,-2.4584 0,-0.0733 0.32989,0.25988 0.73308,0.74034 1.13253,1.34956 3.74227,3.46131 3.90616,3.16077 0.1945,-0.35662 0.3202,-1.40944 0.31399,-2.62936 -0.008,-1.48929 -0.008,-2.72489 -0.71561,-4.24904 l -0.28731,-0.89674 -1.4205,-0.44645 -1.74045,-0.54701 c -0.61373,-0.19289 -0.22976,-0.1825 0.66871,0.0182 1.07429,0.23984 2.16552,0.44242 2.84123,0.52745 0.59494,0.0749 0.72585,-0.0418 0.78947,-0.70383 0.0811,-0.84403 -0.46365,-3.17503 -1.01326,-4.33562 -0.21937,-0.4632 -0.31839,-0.56308 -0.75755,-0.7641 -1.46193,-0.66917 -6.03785,-1.29591 -7.98103,-1.09311 -0.83999,0.0876 -1.70286,0.29174 -1.97177,0.46635 -0.0758,0.0492 0.46597,0.18876 1.39869,0.36025 0.83732,0.15395 1.44751,0.29454 1.35595,0.31242 -0.0915,0.0179 -1.4073,-0.12668 -2.92386,-0.32124 -2.66248,-0.34157 -2.76405,-0.34777 -2.94949,-0.17998 -0.38664,0.34984 -0.94293,1.3061 -1.05747,1.81777 -0.11089,0.49539 -0.10308,0.5528 0.14362,1.05693 0.42049,0.85928 1.20237,1.48453 2.98159,2.38426 0.84135,0.42545 1.50929,0.79394 1.48438,0.81887 -0.0249,0.0249 -0.77513,-0.17356 -1.59554,-0.5956 l -1.55019,-0.64097 -4.73615,1.2729 0,-8.26542 c 0,0 0,-0.96179 1,-0.96179 l 19,0 c 0,0 1,0 1,1 l 0,25 c 0,1 -1,1 -1,1 l -20,0 z" />
      <path
         sodipodi:nodetypes="ccssscssssssscssssssssssssssssssccccccc"
         inkscape:connector-curvature="0"
         id="path4256"
         style="display:inline;fill:#000000;fill-opacity:1;enable-background:new;opacity:0.2"
         d="m 105.99999,275.30975 c 0,0 4.80344,-5.6638 4.8755,-5.64821 0.0411,0.01 1.56723,0.65714 3.39129,1.44051 3.11527,1.3379 3.32191,1.41701 3.40616,1.30417 0.12739,-0.17068 0.56619,-1.08832 0.79827,-1.66947 l 0.1969,-0.49304 -0.33172,-0.18136 c -0.47011,-0.25704 -1.15963,-0.82945 -1.59138,-1.32115 -0.39401,-0.4487 -1.10465,-1.53132 -1.10465,-1.68284 0,-0.0501 0.22582,0.17789 0.5018,0.50678 0.77524,0.92381 2.56168,2.36934 2.67388,2.16362 0.13311,-0.24411 0.21917,-0.96479 0.21491,-1.79986 -0.005,-1.01945 -0.19501,-1.79666 -0.48984,-2.90858 l -0.19669,-0.61382 -0.97236,-0.30561 -1.19137,-0.37444 c -0.42011,-0.13204 -0.15728,-0.12492 0.45774,0.0123 0.73539,0.16418 1.48236,0.30285 1.94489,0.36106 0.40726,0.0513 0.49687,-0.0287 0.54042,-0.48179 0.0555,-0.57777 -0.31738,-2.17339 -0.6936,-2.96784 -0.15016,-0.31708 -0.21794,-0.38544 -0.51856,-0.52305 -1.00073,-0.45807 -4.13306,-0.88708 -5.46319,-0.74826 -0.57502,0.06 -1.16565,0.19971 -1.34974,0.31923 -0.052,0.0336 0.31897,0.12922 0.95743,0.2466 0.57317,0.10543 0.99086,0.20162 0.92818,0.21386 -0.0626,0.0123 -0.96332,-0.0867 -2.00145,-0.2199 -1.82252,-0.23382 -1.89205,-0.23805 -2.019,-0.1232 -0.26465,0.23948 -0.64545,0.89406 -0.72385,1.24431 -0.076,0.33911 -0.0706,0.37839 0.0983,0.7235 0.28784,0.58819 0.82307,1.01619 2.04098,1.63208 0.57592,0.29123 1.03316,0.54347 1.01609,0.56054 -0.017,0.017 -0.50854,-0.16641 -1.09217,-0.40771 L 109.242,263.12944 106,264.00075 106,257 l 15,0 0,20 -15,0 z" />
      <path
         style="display:inline;opacity:1;fill:#ffffff;fill-opacity:1;enable-background:new"
         d="m 376,-162 c -8,0 -8,8 -8,8 l 0,103.8457 39.33008,-10.57031 18.11133,7.48828 c 9.96054,4.11844 18.34747,7.25019 18.63867,6.95899 0.29109,-0.29131 -7.51278,-4.59606 -17.3418,-9.56641 -20.78581,-10.51115 -29.9196,-17.81696 -34.83203,-27.85547 -2.88202,-5.8896 -2.97319,-6.56024 -1.67773,-12.34766 1.33814,-5.9776 7.83661,-17.14928 12.35351,-21.23632 2.1664,-1.96021 3.35445,-1.88689 34.45899,2.10351 17.71733,2.27307 33.08876,3.96103 34.1582,3.75196 1.06955,-0.20885 -6.05982,-1.84993 -15.8418,-3.64844 -10.89653,-2.00352 -17.22518,-3.63406 -16.33984,-4.20899 3.14154,-2.03989 13.22193,-4.42521 23.03515,-5.44922 22.70123,-2.36917 76.15925,4.95389 93.23829,12.77149 5.13056,2.34838 6.28683,3.51436 8.8496,8.92578 6.42092,13.55861 12.7851,40.79186 11.8379,50.65234 -0.74325,7.73397 -2.27215,9.09732 -9.22266,8.22266 -7.89397,-0.99339 -20.64285,-3.36008 -33.19336,-6.16211 -10.49642,-2.34432 -14.98242,-2.46633 -7.8125,-0.21289 2.05578,0.64619 11.20677,3.52203 20.33398,6.39063 l 16.59375,5.21484 3.35743,10.47656 c 11.95527,15.57241 8.26337,32.24191 8.35937,49.64063 0.0726,14.25184 -1.39575,26.5505 -3.66797,30.71679 -1.91466,3.51104 -32.40187,-21.15949 -45.63281,-36.92578 -4.71018,-5.61302 -8.56445,-9.50496 -8.56445,-8.64844 0,2.58613 12.1273,21.06115 18.85156,28.71876 7.36864,8.39167 20.13508,16.69548 27.16016,22.54882 l 5.6621,3.09571 -3.36132,8.41406 C 566.50424,79.6552 553.39294,94.6847 551.21875,97.59766 549.78099,99.52363 546.2533,98.17333 493.08594,75.33984 461.95527,61.97024 435.91191,50.90839 435.20898,50.75586 434.32118,50.56387 391.82893,100.33281 368,128.33398 L 368,134 c 0,0 0,8 8,8 l 224,0 c 8,0 8,-8 8,-8 l 0,-288 c 0,-8 -8,-8 -8,-8 z"
         id="path4192"
         inkscape:connector-curvature="0"
         sodipodi:nodetypes="ccccccsccsscsccsccsccccccccscscccsccccccccc" />
      <path
         d="m 59.00003,278.64768 c 0,0 3.84276,-4.53103 3.9004,-4.51856 0.0329,0.008 1.25378,0.52571 2.71304,1.15241 2.49221,1.07031 2.65752,1.1336 2.72492,1.04333 0.10192,-0.13654 0.45295,-0.87065 0.63862,-1.33557 l 0.15752,-0.39444 -0.26538,-0.14508 c -0.37609,-0.20563 -0.9277,-0.66356 -1.2731,-1.05692 -0.31521,-0.35896 -0.88372,-1.22506 -0.88372,-1.34627 0,-0.0401 0.18065,0.14231 0.40144,0.40542 0.62019,0.73904 2.04934,1.89547 2.1391,1.73089 0.10649,-0.19529 0.17534,-0.77183 0.17193,-1.43988 -0.004,-0.81557 -0.15601,-1.43733 -0.39187,-2.32686 l -0.15735,-0.49106 -0.77789,-0.24449 -0.9531,-0.29956 c -0.33609,-0.10562 -0.12582,-0.0999 0.3662,0.01 0.5883,0.13135 1.18588,0.24228 1.55591,0.28885 0.32581,0.0411 0.39749,-0.023 0.43233,-0.38543 0.0444,-0.46222 -0.2539,-1.73872 -0.55488,-2.37427 -0.12013,-0.25366 -0.17435,-0.30836 -0.41485,-0.41844 -0.80058,-0.36646 -3.30644,-0.70966 -4.37055,-0.59861 -0.46001,0.048 -0.93252,0.15977 -1.07979,0.25538 -0.0416,0.0269 0.25517,0.10337 0.76595,0.19728 0.45853,0.0844 0.79268,0.1613 0.74254,0.17109 -0.0501,0.01 -0.77066,-0.0693 -1.60116,-0.17592 -1.45802,-0.18706 -1.51364,-0.19044 -1.6152,-0.0986 -0.21172,0.19158 -0.51636,0.71525 -0.57908,0.99545 -0.0608,0.27128 -0.0565,0.30271 0.0786,0.5788 0.23027,0.47055 0.65845,0.81295 1.63278,1.30566 0.46074,0.23299 0.82653,0.43478 0.81287,0.44843 -0.0136,0.0136 -0.40683,-0.13312 -0.87373,-0.32617 L 61.5936,268.90355 59,269.60061 59,264 l 12,0 0,16 -12,0 z"
         style="display:inline;fill:#000000;fill-opacity:1;enable-background:new;opacity:0.2"
         id="path4258"
         inkscape:connector-curvature="0"
         sodipodi:nodetypes="ccssscssssssscssssssssssssssssssccccccc" />
      <path
         d="m 105.99999,274.30975 c 0,0 4.80344,-5.6638 4.8755,-5.64821 0.0411,0.01 1.56723,0.65714 3.39129,1.44051 3.11527,1.3379 3.32191,1.41701 3.40616,1.30417 0.12739,-0.17068 0.56619,-1.08832 0.79827,-1.66947 l 0.1969,-0.49304 -0.33172,-0.18136 c -0.47011,-0.25704 -1.15963,-0.82945 -1.59138,-1.32115 -0.39401,-0.4487 -1.10465,-1.53132 -1.10465,-1.68284 0,-0.0501 0.22582,0.17789 0.5018,0.50678 0.77524,0.92381 2.56168,2.36934 2.67388,2.16362 0.13311,-0.24411 0.21917,-0.96479 0.21491,-1.79986 -0.005,-1.01945 -0.19501,-1.79666 -0.48984,-2.90858 l -0.19669,-0.61382 -0.97236,-0.30561 -1.19137,-0.37444 c -0.42011,-0.13204 -0.15728,-0.12492 0.45774,0.0123 0.73539,0.16418 1.48236,0.30285 1.94489,0.36106 0.40726,0.0513 0.49687,-0.0287 0.54042,-0.48179 0.0555,-0.57777 -0.31738,-2.17339 -0.6936,-2.96784 -0.15016,-0.31708 -0.21794,-0.38544 -0.51856,-0.52305 -1.00073,-0.45807 -4.13306,-0.88708 -5.46319,-0.74826 -0.57502,0.06 -1.16565,0.19971 -1.34974,0.31923 -0.052,0.0336 0.31897,0.12922 0.95743,0.2466 0.57317,0.10543 0.99086,0.20162 0.92818,0.21386 -0.0626,0.0123 -0.96332,-0.0867 -2.00145,-0.2199 -1.82252,-0.23382 -1.89205,-0.23805 -2.019,-0.1232 -0.26465,0.23948 -0.64545,0.89406 -0.72385,1.24431 -0.076,0.33911 -0.0706,0.37839 0.0983,0.7235 0.28784,0.58819 0.82307,1.01619 2.04098,1.63208 0.57592,0.29123 1.03316,0.54347 1.01609,0.56054 -0.017,0.017 -0.50854,-0.16641 -1.09217,-0.40771 L 109.242,262.12944 106,263.00075 106,256 l 15,0 0,20 -15,0 z"
         style="display:inline;fill:#e8eaf6;fill-opacity:1;enable-background:new"
         id="path4194"
         inkscape:connector-curvature="0"
         sodipodi:nodetypes="ccssscssssssscssssssssssssssssssccccccc" />
      <path
         sodipodi:nodetypes="ccssscssssssscssssssssssssssssssccccccc"
         inkscape:connector-curvature="0"
         id="path4196"
         style="display:inline;fill:#e8eaf6;fill-opacity:1;enable-background:new"
         d="m 59.00003,277.64768 c 0,0 3.84276,-4.53103 3.9004,-4.51856 0.0329,0.008 1.25378,0.52571 2.71304,1.15241 2.49221,1.07031 2.65752,1.1336 2.72492,1.04333 0.10192,-0.13654 0.45295,-0.87065 0.63862,-1.33557 l 0.15752,-0.39444 -0.26538,-0.14508 c -0.37609,-0.20563 -0.9277,-0.66356 -1.2731,-1.05692 -0.31521,-0.35896 -0.88372,-1.22506 -0.88372,-1.34627 0,-0.0401 0.18065,0.14231 0.40144,0.40542 0.62019,0.73904 2.04934,1.89547 2.1391,1.73089 0.10649,-0.19529 0.17534,-0.77183 0.17193,-1.43988 -0.004,-0.81557 -0.15601,-1.43733 -0.39187,-2.32686 l -0.15735,-0.49106 -0.77789,-0.24449 -0.9531,-0.29956 c -0.33609,-0.10562 -0.12582,-0.0999 0.3662,0.01 0.5883,0.13135 1.18588,0.24228 1.55591,0.28885 0.32581,0.0411 0.39749,-0.023 0.43233,-0.38543 0.0444,-0.46222 -0.2539,-1.73872 -0.55488,-2.37427 -0.12013,-0.25366 -0.17435,-0.30836 -0.41485,-0.41844 -0.80058,-0.36646 -3.30644,-0.70966 -4.37055,-0.59861 -0.46001,0.048 -0.93252,0.15977 -1.07979,0.25538 -0.0416,0.0269 0.25517,0.10337 0.76595,0.19728 0.45853,0.0844 0.79268,0.1613 0.74254,0.17109 -0.0501,0.01 -0.77066,-0.0693 -1.60116,-0.17592 -1.45802,-0.18706 -1.51364,-0.19044 -1.6152,-0.0986 -0.21172,0.19158 -0.51636,0.71525 -0.57908,0.99545 -0.0608,0.27128 -0.0565,0.30271 0.0786,0.5788 0.23027,0.47055 0.65845,0.81295 1.63278,1.30566 0.46074,0.23299 0.82653,0.43478 0.81287,0.44843 -0.0136,0.0136 -0.40683,-0.13312 -0.87373,-0.32617 L 61.5936,267.90355 59,268.60061 59,263 l 12,0 0,16 -12,0 z" />
      <path
         d="m 21.000016,279.23178 c 0,0 2.56184,-3.02068 2.600272,-3.01237 0.02192,0.006 0.835848,0.35047 1.808688,0.76827 1.66148,0.71354 1.77168,0.75574 1.816616,0.69555 0.06792,-0.091 0.301968,-0.58043 0.425744,-0.89037 l 0.105016,-0.26296 -0.17692,-0.0967 c -0.250728,-0.13709 -0.618464,-0.44238 -0.848736,-0.70462 -0.210136,-0.2393 -0.589144,-0.8167 -0.589144,-0.89751 0,-0.0267 0.120432,0.0949 0.267624,0.27028 0.413464,0.49269 1.366232,1.26365 1.426072,1.15393 0.07096,-0.1302 0.116888,-0.51456 0.114616,-0.95992 -0.0024,-0.54372 -0.104008,-0.95823 -0.261248,-1.55124 l -0.104896,-0.32738 -0.518592,-0.16299 -0.6354,-0.19971 c -0.224064,-0.0704 -0.08388,-0.0666 0.244128,0.006 0.3922,0.0876 0.790592,0.16152 1.03728,0.19257 0.2172,0.0274 0.264992,-0.0154 0.288216,-0.25695 0.0296,-0.30815 -0.169264,-1.15915 -0.36992,-1.58285 -0.08009,-0.16911 -0.116232,-0.20557 -0.276568,-0.27896 -0.53372,-0.24431 -2.204288,-0.47311 -2.913696,-0.39907 -0.306672,0.032 -0.62168,0.10651 -0.719864,0.17025 -0.02776,0.0179 0.170112,0.0689 0.510632,0.13152 0.305688,0.0562 0.528456,0.10753 0.495032,0.11406 -0.03336,0.006 -0.513776,-0.0462 -1.06744,-0.11728 -0.972016,-0.12471 -1.009096,-0.12696 -1.0768,-0.0658 -0.141152,0.12772 -0.34424,0.47683 -0.386056,0.66363 -0.04056,0.18086 -0.03768,0.20181 0.0524,0.38588 0.153512,0.31369 0.438968,0.54196 1.08852,0.87044 0.30716,0.15532 0.551024,0.28984 0.541912,0.29895 -0.009,0.009 -0.271216,-0.0888 -0.582488,-0.21745 L 22.729064,272.7357 21,273.2004 21,270 l 8,0 0,9.6 -8,0 z"
         style="display:inline;fill:#e8eaf6;fill-opacity:1;enable-background:new"
         id="path4198"
         inkscape:connector-curvature="0"
         sodipodi:nodetypes="ccssscssssssscssssssssssssssssssccccccc" />
      <path
         style="opacity:0.2;fill:#ffffff;fill-opacity:1;stroke:none;stroke-width:8;stroke-linecap:round;stroke-linejoin:miter;stroke-miterlimit:4;stroke-dasharray:none;stroke-opacity:1"
         d="M 56 505 C 55.446 505 55 505.446 55 506 L 55 507 C 55 506.446 55.446 506 56 506 L 72 506 C 72.554 506 73 506.446 73 507 L 73 506 C 73 505.446 72.554 505 72 505 L 56 505 z "
         transform="translate(0,-244)"
         id="rect4491" />
      <path
         style="fill:#ffffff;fill-opacity:1;stroke:none;opacity:0.2"
         d="M 102.5 498 C 101.669 498 101 498.669 101 499.5 L 101 500.5 C 101 499.669 101.669 499 102.5 499 L 121.5 499 C 122.331 499 123 499.669 123 500.5 L 123 499.5 C 123 498.669 122.331 498 121.5 498 L 102.5 498 z "
         transform="translate(0,-244)"
         id="rect4448" />
    </g>
  </g>
</svg>
