<?xml version="1.0" encoding="UTF-8" standalone="no"?>
<!-- Created with Inkscape (http://www.inkscape.org/) -->

<svg
   xmlns:dc="http://purl.org/dc/elements/1.1/"
   xmlns:cc="http://creativecommons.org/ns#"
   xmlns:rdf="http://www.w3.org/1999/02/22-rdf-syntax-ns#"
   xmlns:svg="http://www.w3.org/2000/svg"
   xmlns="http://www.w3.org/2000/svg"
   xmlns:sodipodi="http://sodipodi.sourceforge.net/DTD/sodipodi-0.dtd"
   xmlns:inkscape="http://www.inkscape.org/namespaces/inkscape"
   inkscape:export-ydpi="90.000000"
   inkscape:export-xdpi="90.000000"
   width="600"
   height="224"
   id="svg11300"
   sodipodi:version="0.32"
   inkscape:version="0.91 r13725"
   sodipodi:docname="multimedia-video-player.svg"
   inkscape:output_extension="org.inkscape.output.svg.inkscape"
   version="1.0"
   style="display:inline;enable-background:new"
   inkscape:export-filename="/home/sam/paper-template.png">
  <title
     id="title3004">Paper Icon Theme Template</title>
  <sodipodi:namedview
     stroke="#ef2929"
     fill="#f57900"
     id="base"
     pagecolor="#474747"
     bordercolor="#666666"
     borderopacity="0.25490196"
     inkscape:pageopacity="0"
     inkscape:pageshadow="2"
     inkscape:zoom="1"
     inkscape:cx="446.25013"
     inkscape:cy="190.96828"
     inkscape:current-layer="layer7"
     showgrid="false"
     inkscape:grid-bbox="true"
     inkscape:document-units="px"
     inkscape:showpageshadow="false"
     inkscape:window-width="1366"
     inkscape:window-height="699"
     inkscape:window-x="0"
     inkscape:window-y="27"
     width="400px"
     height="300px"
     inkscape:snap-nodes="true"
     inkscape:snap-bbox="true"
     gridtolerance="10000"
     inkscape:object-nodes="true"
     inkscape:snap-grids="true"
     showguides="true"
     inkscape:guide-bbox="true"
     inkscape:window-maximized="1">
    <inkscape:grid
       spacingy="1px"
       spacingx="1px"
       id="grid5883"
       type="xygrid"
       enabled="true"
       visible="true"
       empspacing="4"
       snapvisiblegridlinesonly="true" />
    <inkscape:grid
       type="xygrid"
       id="grid11592"
       empspacing="2"
       visible="true"
       enabled="false"
       spacingx="0.5px"
       spacingy="0.5px"
       color="#ff0000"
       opacity="0.1254902"
       empcolor="#ff0000"
       empopacity="0.25098039"
       snapvisiblegridlinesonly="true" />
    <sodipodi:guide
       orientation="0,1"
       position="0,224"
       id="guide4275" />
  </sodipodi:namedview>
  <defs
     id="defs3">
    <filter
       inkscape:collect="always"
       id="filter4020">
      <feGaussianBlur
         inkscape:collect="always"
         stdDeviation="0.95"
         id="feGaussianBlur4022" />
    </filter>
    <filter
       inkscape:collect="always"
       style="color-interpolation-filters:sRGB"
       id="filter4413"
       x="-0.045599991"
       width="1.0912"
       y="-0.050666678"
       height="1.1013334">
      <feGaussianBlur
         inkscape:collect="always"
         stdDeviation="1.5199997"
         id="feGaussianBlur4415" />
    </filter>
    <filter
       inkscape:collect="always"
       style="color-interpolation-filters:sRGB"
       id="filter4421"
       x="-0.057"
       width="1.114"
       y="-0.063333333"
       height="1.1266667">
      <feGaussianBlur
         inkscape:collect="always"
         stdDeviation="3.8"
         id="feGaussianBlur4423" />
    </filter>
    <filter
       inkscape:collect="always"
       style="color-interpolation-filters:sRGB"
       id="filter4516"
       x="-0.055714286"
       width="1.1114286"
       y="-0.065"
       height="1.13">
      <feGaussianBlur
         inkscape:collect="always"
         stdDeviation="1.3"
         id="feGaussianBlur4518" />
    </filter>
  </defs>
  <metadata
     id="metadata4">
    <rdf:RDF>
      <cc:Work
         rdf:about="">
        <dc:format>image/svg+xml</dc:format>
        <dc:type
           rdf:resource="http://purl.org/dc/dcmitype/StillImage" />
        <dc:creator>
          <cc:Agent>
            <dc:title>Sam Hewitt</dc:title>
          </cc:Agent>
        </dc:creator>
        <dc:source />
        <cc:license
           rdf:resource="" />
        <dc:title>Paper Icon Theme Template</dc:title>
        <dc:subject>
          <rdf:Bag />
        </dc:subject>
        <dc:date />
        <dc:rights>
          <cc:Agent>
            <dc:title />
          </cc:Agent>
        </dc:rights>
        <dc:publisher>
          <cc:Agent>
            <dc:title />
          </cc:Agent>
        </dc:publisher>
        <dc:identifier />
        <dc:relation />
        <dc:language />
        <dc:coverage />
        <dc:description />
        <dc:contributor>
          <cc:Agent>
            <dc:title />
          </cc:Agent>
        </dc:contributor>
      </cc:Work>
      <cc:Work
         rdf:about="">
        <dc:format>image/svg+xml</dc:format>
        <dc:type
           rdf:resource="http://purl.org/dc/dcmitype/StillImage" />
      </cc:Work>
    </rdf:RDF>
  </metadata>
  <g
     style="display:inline"
     inkscape:groupmode="layer"
     inkscape:label="Icon"
     id="layer1"
     transform="translate(0,-76)">
    <g
       style="display:none"
       inkscape:label="Baseplate"
       id="layer7"
       inkscape:groupmode="layer">
      <text
         y="59.745117"
         xml:space="preserve"
         x="15.006836"
         style="font-style:normal;font-variant:normal;font-weight:normal;font-stretch:normal;font-size:18px;font-family:'DejaVu Sans';-inkscape-font-specification:'DejaVu Sans';display:inline;fill:#000000;fill-opacity:1;stroke:none;enable-background:new"
         inkscape:label="context"
         id="context"><tspan
           style="font-style:normal;font-variant:normal;font-weight:normal;font-stretch:normal;font-family:'DejaVu Sans';-inkscape-font-specification:'DejaVu Sans'"
           y="59.745117"
           x="15.006836"
           sodipodi:role="line"
           id="tspan3933">apps</tspan></text>
      <text
         y="59.745117"
         xml:space="preserve"
         x="142.48828"
         style="font-style:normal;font-variant:normal;font-weight:bold;font-stretch:normal;font-size:18px;line-height:125%;font-family:'DejaVu Sans';-inkscape-font-specification:'DejaVu Sans Bold';text-align:start;writing-mode:lr-tb;text-anchor:start;display:inline;fill:#000000;fill-opacity:1;stroke:none;enable-background:new"
         sodipodi:linespacing="125%"
         inkscape:label="icon-name"
         id="icon-name"><tspan
           style="font-style:normal;font-variant:normal;font-weight:bold;font-stretch:normal;font-size:18px;font-family:'DejaVu Sans';-inkscape-font-specification:'DejaVu Sans Bold'"
           y="59.745117"
           x="142.48828"
           sodipodi:role="line"
           id="tspan3937">multimedia-video-player</tspan></text>
      <rect
         style="display:inline;overflow:visible;visibility:visible;fill:#e9e9e9;fill-opacity:1;fill-rule:nonzero;stroke:none;stroke-width:2;marker:none;enable-background:accumulate"
         id="rect16x16"
         width="16"
         height="16"
         x="-32"
         y="268"
         inkscape:label="16x16"
         transform="scale(-1,1)" />
      <rect
         style="display:inline;overflow:visible;visibility:visible;fill:#e9e9e9;fill-opacity:1;fill-rule:nonzero;stroke:none;stroke-width:2;marker:none;enable-background:accumulate"
         id="rect24x24"
         width="24"
         height="24"
         x="-72"
         y="260"
         inkscape:label="24x24"
         transform="scale(-1,1)" />
      <rect
         style="display:inline;overflow:visible;visibility:visible;fill:#e9e9e9;fill-opacity:1;fill-rule:nonzero;stroke:none;stroke-width:2;marker:none;enable-background:accumulate"
         id="rect32x32"
         width="32"
         height="32"
         x="-120"
         y="252"
         inkscape:label="32x32"
         transform="scale(-1,1)" />
      <rect
         inkscape:label="48x48"
         y="236"
         x="-184"
         height="48"
         width="48"
         id="rect48x48"
         style="display:inline;overflow:visible;visibility:visible;fill:#e9e9e9;fill-opacity:1;fill-rule:nonzero;stroke:none;stroke-width:2;marker:none;enable-background:accumulate"
         transform="scale(-1,1)" />
      <rect
         style="display:inline;overflow:visible;visibility:visible;fill:#e9e9e9;fill-opacity:1;fill-rule:nonzero;stroke:none;stroke-width:2;marker:none;enable-background:accumulate"
         id="rect256x256"
         width="192"
         height="192"
         x="-584"
         y="92"
         inkscape:label="256x256"
         transform="scale(-1,1)" />
      <rect
         inkscape:label="256x256"
         y="188"
         x="-376"
         height="96"
         width="96"
         id="rect3949"
         style="display:inline;overflow:visible;visibility:visible;fill:#e9e9e9;fill-opacity:1;fill-rule:nonzero;stroke:none;stroke-width:2;marker:none;enable-background:accumulate"
         transform="scale(-1,1)" />
      <rect
         style="display:inline;overflow:visible;visibility:visible;fill:#e9e9e9;fill-opacity:1;fill-rule:nonzero;stroke:none;stroke-width:2;marker:none;enable-background:accumulate"
         id="rect3951"
         width="64"
         height="64"
         x="-264"
         y="220"
         inkscape:label="48x48"
         transform="scale(-1,1)" />
    </g>
    <g
       inkscape:groupmode="layer"
       id="layer6"
       inkscape:label="Symbols"
       style="display:inline">
      <rect
         ry="1"
         rx="1"
         y="-70"
         x="-282"
         height="20"
         width="18"
         id="rect4514"
         style="opacity:0.1;fill:#000000;fill-opacity:1;stroke:#000000;stroke-opacity:1;stroke-width:2;stroke-miterlimit:4;stroke-dasharray:none"
         transform="matrix(0,-1,-1,0,0,0)" />
      <rect
         transform="matrix(0,-1,-1,0,0,0)"
         style="opacity:0.4;fill:#000000;fill-opacity:1;stroke:none"
         id="rect4512"
         width="18"
         height="20"
         x="-282"
         y="-70"
         rx="1"
         ry="1" />
      <rect
         transform="matrix(0,1,-1,0,0,0)"
         style="opacity:0.1;fill:#000000;fill-opacity:1;stroke:#000000;stroke-width:2;stroke-miterlimit:4;stroke-dasharray:none;stroke-opacity:1"
         id="rect4500"
         width="24.000015"
         height="28"
         x="257"
         y="-118"
         rx="1.5"
         ry="1.5" />
      <rect
         ry="1.5"
         rx="1.5"
         y="-118"
         x="-280"
         height="28"
         width="24.000015"
         id="rect3235"
         style="opacity:0.4;fill:#000000;fill-opacity:1;stroke:none"
         transform="matrix(0,-1,-1,0,0,1)" />
      <rect
         transform="matrix(0,-1,-1,0,0,1)"
         style="opacity:0.5;fill:#000000;fill-opacity:1;stroke:none;filter:url(#filter4516)"
         id="rect4022"
         width="48"
         height="56"
         x="-276"
         y="-260"
         rx="3"
         ry="3" />
      <rect
         ry="4"
         rx="4"
         y="-368"
         x="-272"
         height="80"
         width="71.999969"
         id="rect4020"
         style="opacity:0.5;fill:#000000;fill-opacity:1;stroke:none;filter:url(#filter4413)"
         transform="matrix(0,-1,-1,0,0,0.50000031)" />
      <rect
         transform="matrix(0,-1,-1,0,0,0)"
         style="opacity:0.5;fill:#000000;fill-opacity:1;stroke:none;filter:url(#filter4421)"
         id="rect4018"
         width="144"
         height="160"
         x="-262"
         y="-568"
         rx="8"
         ry="8" />
      <path
         transform="matrix(0,-1,-1,0,0,3)"
         style="opacity:0.50000000000000000;fill:#000000;fill-opacity:1;stroke:none;filter:url(#filter4020)"
         d="m -274,-180 32,0 c 1.108,0 2,0.892 2,2 l 0,36 c 0,1.108 -0.892,2 -2,2 l -32,0 c -1.108,0 -2,-0.892 -2,-2 l 0,-36 c 0,-1.108 0.892,-2 2,-2 z"
         id="rect4079"
         inkscape:connector-curvature="0"
         sodipodi:nodetypes="sssssssss" />
      <rect
         ry="8"
         rx="8"
         y="-568"
         x="-260"
         height="160"
         width="144"
         id="rect4189"
         style="opacity:1;fill:#311535;fill-opacity:1;stroke:none"
         transform="matrix(0,-1,-1,0,0,0)" />
      <path
         style="opacity:1;fill:#311535;fill-opacity:1;stroke:none"
         d="m 180,276 0,-32 c 0,-1.108 -0.892,-2 -2,-2 l -36,0 c -1.108,0 -2,0.892 -2,2 l 0,32 c 0,1.108 0.892,2 2,2 l 36,0 c 1.108,0 2,-0.892 2,-2 z"
         id="rect4203"
         inkscape:connector-curvature="0"
         sodipodi:nodetypes="sssssssss" />
      <rect
         transform="matrix(0,-1,-1,0,0,0)"
         style="fill:#311535;fill-opacity:1;stroke:none;opacity:1"
         id="rect4217"
         width="71.999969"
         height="80"
         x="-272"
         y="-368"
         rx="4"
         ry="4" />
      <rect
         ry="3"
         rx="3"
         y="-260"
         x="228"
         height="56"
         width="48"
         id="rect4229"
         style="opacity:1;fill:#311535;fill-opacity:1;stroke:none"
         transform="matrix(0,1,-1,0,0,0)" />
      <rect
         ry="1"
         rx="1"
         y="-70"
         x="-281"
         height="20"
         width="18"
         id="rect4243"
         style="fill:#311535;fill-opacity:1;stroke:none;opacity:1"
         transform="matrix(0,-1,-1,0,0,0)" />
      <rect
         transform="matrix(0,-1,-1,0,0,0)"
         style="fill:#311535;fill-opacity:1;stroke:none;opacity:1"
         id="rect4255"
         width="24.000015"
         height="28"
         x="-280"
         y="-118"
         rx="1.5"
         ry="1.5" />
      <rect
         transform="matrix(0,-1,-1,0,0,0)"
         style="fill:#311535;fill-opacity:1;stroke:none;display:inline;enable-background:new;opacity:1"
         id="rect4265"
         width="14"
         height="16"
         x="-283"
         y="-32"
         rx="1"
         ry="1" />
      <path
         style="opacity:0.2;fill:#ffffff;fill-opacity:1;stroke:none"
         d="m 142,242 c -1.108,0 -2,0.892 -2,2 l 0,1 c 0,-1.108 0.892,-2 2,-2 l 36,0 c 1.108,0 2,0.892 2,2 l 0,-1 c 0,-1.108 -0.892,-2 -2,-2 z"
         id="rect4085"
         inkscape:connector-curvature="0"
         sodipodi:nodetypes="sscsscsss" />
      <path
         style="opacity:0.3;fill:#ffffff;fill-opacity:1;stroke:none"
         d="m 416,116 c -4.432,0 -8,3.568 -8,8 l 0,1 c 0,-4.432 3.568,-8 8,-8 l 144,0 c 4.432,0 8,3.568 8,8 l 0,-1 c 0,-4.432 -3.568,-8 -8,-8 l -144,0 z"
         id="rect3229"
         inkscape:connector-curvature="0" />
      <path
         style="fill:#ffffff;fill-opacity:1;stroke:none;opacity:0.2"
         d="M 292 124 C 289.784 124 288 125.784 288 128 L 288 129 C 288 126.784 289.784 125 292 125 L 364 125 C 366.216 125 368 126.784 368 129 L 368 128 C 368 125.784 366.216 124 364 124 L 292 124 z "
         id="rect3231"
         transform="translate(0,76)" />
      <path
         style="fill:#ffffff;fill-opacity:1;stroke:none;opacity:0.2"
         d="M 207 152 C 205.338 152 204 153.338 204 155 L 204 156 C 204 154.338 205.338 153 207 153 L 257 153 C 258.662 153 260 154.338 260 156 L 260 155 C 260 153.338 258.662 152 257 152 L 207 152 z "
         transform="translate(0,76)"
         id="rect3233" />
      <path
         style="fill:#ffffff;fill-opacity:1;stroke:none;opacity:0.2"
         d="M 51 187 C 50.446 187 50 187.446 50 188 L 50 189 C 50 188.446 50.446 188 51 188 L 69 188 C 69.554 188 70 188.446 70 189 L 70 188 C 70 187.446 69.554 187 69 187 L 51 187 z "
         transform="translate(0,76)"
         id="rect4089" />
      <path
         style="fill:#ffffff;fill-opacity:1;stroke:none;opacity:0.2"
         d="M 91.5 180 C 90.669 180 90 180.669 90 181.5 L 90 182.5 C 90 181.669 90.669 181 91.5 181 L 116.5 181 C 117.331 181 118 181.669 118 182.5 L 118 181.5 C 118 180.669 117.331 180 116.5 180 L 91.5 180 z "
         transform="translate(0,76)"
         id="rect4091" />
      <path
         style="fill:#ffffff;fill-opacity:1;stroke:none;display:inline;enable-background:new;opacity:0.2"
         d="M 17 193 C 16.446 193 16 193.446 16 194 L 16 195 C 16 194.446 16.446 194 17 194 L 31 194 C 31.554 194 32 194.446 32 195 L 32 194 C 32 193.446 31.554 193 31 193 L 17 193 z "
         transform="translate(0,76)"
         id="rect4093" />
      <path
         sodipodi:nodetypes="ccccccccccccc"
         inkscape:connector-curvature="0"
         style="color:#000000;font-style:normal;font-variant:normal;font-weight:normal;font-stretch:normal;font-size:medium;line-height:normal;font-family:Sans;-inkscape-font-specification:Sans;text-indent:0;text-align:start;text-decoration:none;text-decoration-line:none;letter-spacing:normal;word-spacing:normal;text-transform:none;direction:ltr;block-progression:tb;writing-mode:lr-tb;baseline-shift:baseline;text-anchor:start;display:inline;overflow:visible;visibility:visible;opacity:0.8;fill:#ffffff;fill-opacity:1;stroke:none;stroke-width:2;marker:none;enable-background:accumulate"
         d="M 151.00303,254 165,254 c 1,0 1,1 1,1 l 0,12 c 0,1 -1,1 -1,1 l -13.99697,0 c 0,0 -1,0 -1,-1 l 0,-12 c 0,0 0,-1 1,-1 z m 20.99694,1.5 0,11.5 L 166,261 Z"
         id="path5243-2" />
      <path
         id="path4127"
         d="m 310.00306,222.00002 25.99394,0 c 2,0 2,2 2,2 l 0,24 c 0,2 -2,2 -2,2 l -25.99394,0 c 0,0 -2,0 -2,-2 l 0,-24 c 0,0 0,-2 2,-2 z m 39.99388,3 0,23 -11.99994,-12 z"
         style="font-size:medium;font-style:normal;font-variant:normal;font-weight:normal;font-stretch:normal;text-indent:0;text-align:start;text-decoration:none;line-height:normal;letter-spacing:normal;word-spacing:normal;text-transform:none;direction:ltr;block-progression:tb;writing-mode:lr-tb;text-anchor:start;baseline-shift:baseline;color:#000000;fill:#ffffff;fill-opacity:1;stroke:none;stroke-width:2;marker:none;visibility:visible;display:inline;overflow:visible;enable-background:accumulate;font-family:Sans;-inkscape-font-specification:Sans;opacity:0.8"
         inkscape:connector-curvature="0"
         sodipodi:nodetypes="ccccccccccccc" />
      <path
         style="opacity:0.8;fill:#ffffff;fill-opacity:1;stroke:none"
         d="m 220,244 c -1.108,0 -2,0.892 -2,2 l 0,14 c 0,1.108 0.892,2 2,2 l 16,0 c 1.108,0 1.84331,-0.90314 2,-2 l 0,-7 0,-7 c 0,-1.108 -0.892,-2 -2,-2 z m 18,9 8,7 0,-14 z"
         id="rect4159"
         inkscape:connector-curvature="0"
         sodipodi:nodetypes="sssssscssscccc" />
      <path
         sodipodi:nodetypes="ccccccccccccc"
         inkscape:connector-curvature="0"
         style="color:#000000;font-style:normal;font-variant:normal;font-weight:normal;font-stretch:normal;font-size:medium;line-height:normal;font-family:Sans;-inkscape-font-specification:Sans;text-indent:0;text-align:start;text-decoration:none;text-decoration-line:none;letter-spacing:normal;word-spacing:normal;text-transform:none;direction:ltr;block-progression:tb;writing-mode:lr-tb;baseline-shift:baseline;text-anchor:start;display:inline;overflow:visible;visibility:visible;opacity:0.8;fill:#ffffff;fill-opacity:1;stroke:none;stroke-width:2;marker:none;enable-background:accumulate"
         d="m 452,160 51.98788,0 c 4,0 4,4 4,4 l 0,48 c 0,4 -4,4 -4,4 L 452,216 c 0,0 -4,0 -4,-4 l 0,-48 c 0,0 0,-4 4,-4 z m 79.98776,6 0,46 -23.99988,-24 z"
         id="path4168" />
      <path
         id="path3549"
         d="m 55,268 6,0 c 1,0 1,1 1,1 l 0,6 c 0,1 -1,1 -1,1 l -6,0 c 0,0 -1,0 -1,-1 l 0,-6 c 0,0 0,-1 1,-1 z m 11,1 0,6 -4,-3 z"
         style="color:#000000;font-style:normal;font-variant:normal;font-weight:normal;font-stretch:normal;font-size:medium;line-height:normal;font-family:Sans;-inkscape-font-specification:Sans;text-indent:0;text-align:start;text-decoration:none;text-decoration-line:none;letter-spacing:normal;word-spacing:normal;text-transform:none;direction:ltr;block-progression:tb;writing-mode:lr-tb;baseline-shift:baseline;text-anchor:start;display:inline;overflow:visible;visibility:visible;opacity:0.8;fill:#ffffff;fill-opacity:1;stroke:none;stroke-width:2;marker:none;enable-background:accumulate"
         inkscape:connector-curvature="0"
         sodipodi:nodetypes="ccccccccccccc" />
      <path
         id="path3551"
         d="m 98,263 c -0.554,0 -1,0.446 -1,1 l 0,8 c 0,0.554 0.446,1 1,1 l 9,0 c 0.554,0 1,-0.446 1,-1 l 0,-4 0,-4 c 0,-0.554 -0.446,-1 -1,-1 z m 10,5 4,3 0,-6 z"
         style="opacity:0.8;fill:#ffffff;fill-opacity:1;stroke:none;display:inline;enable-background:new"
         inkscape:connector-curvature="0"
         sodipodi:nodetypes="sssssscssscccc" />
      <path
         sodipodi:nodetypes="sssssscssscccc"
         inkscape:connector-curvature="0"
         style="display:inline;opacity:0.8;fill:#ffffff;fill-opacity:1;stroke:none;enable-background:new"
         d="m 20.5,273 c -0.277,0 -0.5,0.223 -0.5,0.5 l 0,5 c 0,0.277 0.223,0.5 0.5,0.5 l 5,0 c 0.277,0 0.513833,-0.22335 0.5,-0.5 l 0,-2.5 0,-2.5 c 0,-0.277 -0.223,-0.5 -0.5,-0.5 z m 5.5,3 3,2 0,-4 z"
         id="path3553" />
      <path
         style="display:inline;opacity:0.05;fill:#000000;fill-opacity:1;stroke:none;enable-background:new"
         d="M 292 125 C 289.784 125 288 126.784 288 129 L 288 160 L 368 160 L 368 129 C 368 126.784 366.216 125 364 125 L 292 125 z "
         transform="translate(0,76)"
         id="path4402" />
      <path
         style="display:inline;opacity:0.05;fill:#000000;fill-opacity:1;stroke:none;enable-background:new"
         d="m 142,167 c -1.108,0 -2,0.892 -2,2 l 0,16 40,0 0,-16 c 0,-1.108 -0.892,-2 -2,-2 z"
         transform="translate(0,76)"
         id="path4294"
         inkscape:connector-curvature="0"
         sodipodi:nodetypes="ssccsss" />
      <path
         id="path4426"
         d="m 206.8,228.95 c -1.5512,0 -2.8,1.2488 -2.8,2.8 l 0,21.25 56,0 0,-21.25 c 0,-1.5512 -1.2488,-2.8 -2.8,-2.8 z"
         style="display:inline;opacity:0.05;fill:#000000;fill-opacity:1;stroke:none;enable-background:new"
         inkscape:connector-curvature="0"
         sodipodi:nodetypes="ssccsss" />
      <path
         style="display:inline;opacity:0.05;fill:#000000;fill-opacity:1;stroke:none;enable-background:new"
         d="M 91.5 181 C 90.669 181 90 181.669 90 182.5 L 90 192 L 118 192 L 118 182.5 C 118 181.669 117.331 181 116.5 181 L 91.5 181 z "
         transform="translate(0,76)"
         id="path4430" />
      <path
         style="display:inline;opacity:0.05;fill:#ffffff;fill-opacity:1;stroke:none;enable-background:new"
         d="m 288,160 0,32 c 0,2.216 1.784,4 4,4 l 72,0 c 2.216,0 4,-1.784 4,-4 l 0,-32 z"
         transform="translate(0,76)"
         id="path4437"
         inkscape:connector-curvature="0"
         sodipodi:nodetypes="csssscc" />
      <path
         id="path4439"
         d="m 178,278 c 1.108,0 2,-0.892 2,-2 l 0,-15 -40,0 0,15 c 0,1.108 0.892,2 2,2 z"
         style="display:inline;opacity:0.05;fill:#ffffff;fill-opacity:1;stroke:none;enable-background:new"
         inkscape:connector-curvature="0"
         sodipodi:nodetypes="ssccsss" />
      <path
         sodipodi:nodetypes="ssccsss"
         inkscape:connector-curvature="0"
         style="display:inline;opacity:0.05;fill:#ffffff;fill-opacity:1;stroke:none;enable-background:new"
         d="m 257.2,276.05 c 1.5512,0 2.8,-1.2488 2.8,-2.8 l 0,-20.25 -56,0 0,20.25 c 0,1.5512 1.2488,2.8 2.8,2.8 z"
         id="path4441" />
      <path
         id="path4480"
         d="m 91.5,280 c -0.831,0 -1.5,-0.669 -1.5,-1.5 l 0,-10.5 28,0 0,10.5 c 0,0.831 -0.669,1.5 -1.5,1.5 z"
         style="display:inline;opacity:0.05;fill:#ffffff;fill-opacity:1;stroke:none;enable-background:new"
         inkscape:connector-curvature="0"
         sodipodi:nodetypes="ssccsss" />
      <path
         inkscape:connector-curvature="0"
         id="path4486"
         d="m 416,117 c -4.432,0 -8,3.568 -8,8 l 0,61 160,0 0,-61 c 0,-4.432 -3.568,-8 -8,-8 z"
         style="display:inline;opacity:0.05;fill:#000000;fill-opacity:1;stroke:none;enable-background:new"
         sodipodi:nodetypes="ssccsss" />
      <path
         sodipodi:nodetypes="csssscc"
         inkscape:connector-curvature="0"
         id="path4488"
         d="m 408,186 0,65 c 0,4.432 3.568,8 8,8 l 144,0 c 4.432,0 8,-3.568 8,-8 l 0,-65 z"
         style="display:inline;opacity:0.05;fill:#ffffff;fill-opacity:1;stroke:none;enable-background:new" />
      <path
         sodipodi:nodetypes="ssccsss"
         inkscape:connector-curvature="0"
         style="display:inline;opacity:0.05;fill:#ffffff;fill-opacity:1;stroke:none;enable-background:new"
         d="m 69,281 c 0.554,0 1,-0.446 1,-1 l 0,-8 -20,0 0,8 c 0,0.554 0.446,1 1,1 z"
         id="path4504" />
      <path
         id="path4508"
         d="m 69,264 c 0.554,0 1,0.446 1,1 l 0,7 -20,0 0,-7 c 0,-0.554 0.446,-1 1,-1 z"
         style="display:inline;opacity:0.05;fill:#000000;fill-opacity:1;stroke:none;enable-background:new"
         inkscape:connector-curvature="0"
         sodipodi:nodetypes="ssccsss" />
    </g>
  </g>
</svg>
