<?xml version="1.0" encoding="UTF-8" standalone="no"?>
<!-- Created with Inkscape (http://www.inkscape.org/) -->

<svg
   xmlns:dc="http://purl.org/dc/elements/1.1/"
   xmlns:cc="http://creativecommons.org/ns#"
   xmlns:rdf="http://www.w3.org/1999/02/22-rdf-syntax-ns#"
   xmlns:svg="http://www.w3.org/2000/svg"
   xmlns="http://www.w3.org/2000/svg"
   xmlns:sodipodi="http://sodipodi.sourceforge.net/DTD/sodipodi-0.dtd"
   xmlns:inkscape="http://www.inkscape.org/namespaces/inkscape"
   inkscape:export-ydpi="90.000000"
   inkscape:export-xdpi="90.000000"
   width="600"
   height="224"
   id="svg11300"
   sodipodi:version="0.32"
   inkscape:version="0.91 r13725"
   sodipodi:docname="multitasking-view.svg"
   inkscape:output_extension="org.inkscape.output.svg.inkscape"
   version="1.0"
   style="display:inline;enable-background:new"
   inkscape:export-filename="/home/sam/paper-template.png">
  <title
     id="title3004">Paper Icon Theme Template</title>
  <sodipodi:namedview
     stroke="#ef2929"
     fill="#f57900"
     id="base"
     pagecolor="#4c4c4c"
     bordercolor="#666666"
     borderopacity="0.25490196"
     inkscape:pageopacity="0"
     inkscape:pageshadow="2"
     inkscape:zoom="1"
     inkscape:cx="439.27173"
     inkscape:cy="39.731199"
     inkscape:current-layer="layer6"
     showgrid="false"
     inkscape:grid-bbox="true"
     inkscape:document-units="px"
     inkscape:showpageshadow="false"
     inkscape:window-width="1366"
     inkscape:window-height="711"
     inkscape:window-x="0"
     inkscape:window-y="27"
     width="400px"
     height="300px"
     inkscape:snap-nodes="true"
     inkscape:snap-bbox="true"
     gridtolerance="10000"
     inkscape:object-nodes="true"
     inkscape:snap-grids="true"
     showguides="true"
     inkscape:guide-bbox="true"
     inkscape:window-maximized="1">
    <inkscape:grid
       spacingy="1px"
       spacingx="1px"
       id="grid5883"
       type="xygrid"
       enabled="true"
       visible="true"
       empspacing="4"
       snapvisiblegridlinesonly="true" />
    <inkscape:grid
       type="xygrid"
       id="grid11592"
       empspacing="2"
       visible="true"
       enabled="false"
       spacingx="0.5px"
       spacingy="0.5px"
       color="#ff0000"
       opacity="0.1254902"
       empcolor="#ff0000"
       empopacity="0.25098039"
       snapvisiblegridlinesonly="true" />
    <sodipodi:guide
       orientation="0,1"
       position="0,224"
       id="guide4275" />
  </sodipodi:namedview>
  <defs
     id="defs3">
    <clipPath
       clipPathUnits="userSpaceOnUse"
       id="clipPath4016">
      <path
         inkscape:connector-curvature="0"
         style="fill:#000000;fill-opacity:1;stroke:none;display:inline;enable-background:new"
         d="m 17,269 c -0.554,0 -1,0.446 -1,1 l 0,1 0,11 c 0,0.554 0.446,1 1,1 l 14,0 c 0.554,0 1,-0.446 1,-1 l 0,-11 0,-1 c 0,-0.554 -0.446,-1 -1,-1 z"
         id="path4018"
         sodipodi:nodetypes="sscsssscsss" />
    </clipPath>
    <filter
       inkscape:collect="always"
       id="filter4182">
      <feGaussianBlur
         inkscape:collect="always"
         stdDeviation="1.9"
         id="feGaussianBlur4184" />
    </filter>
    <filter
       inkscape:collect="always"
       id="filter4190">
      <feGaussianBlur
         inkscape:collect="always"
         stdDeviation="1.52"
         id="feGaussianBlur4192" />
    </filter>
    <filter
       inkscape:collect="always"
       id="filter3903">
      <feGaussianBlur
         inkscape:collect="always"
         stdDeviation="0.4375"
         id="feGaussianBlur3905" />
    </filter>
    <filter
       inkscape:collect="always"
       id="filter3907">
      <feGaussianBlur
         inkscape:collect="always"
         stdDeviation="0.4375"
         id="feGaussianBlur3909" />
    </filter>
    <filter
       inkscape:collect="always"
       id="filter3911">
      <feGaussianBlur
         inkscape:collect="always"
         stdDeviation="0.4375"
         id="feGaussianBlur3913" />
    </filter>
    <filter
       inkscape:collect="always"
       id="filter3917">
      <feGaussianBlur
         inkscape:collect="always"
         stdDeviation="0.95"
         id="feGaussianBlur3919" />
    </filter>
    <filter
       inkscape:collect="always"
       id="filter3959"
       x="-0.105"
       width="1.21"
       y="-0.14"
       height="1.28">
      <feGaussianBlur
         inkscape:collect="always"
         stdDeviation="1.75"
         id="feGaussianBlur3961" />
    </filter>
    <filter
       inkscape:collect="always"
       id="filter3963"
       x="-0.105"
       width="1.21"
       y="-0.14"
       height="1.28">
      <feGaussianBlur
         inkscape:collect="always"
         stdDeviation="1.75"
         id="feGaussianBlur3965" />
    </filter>
    <filter
       inkscape:collect="always"
       id="filter3967"
       x="-0.105"
       width="1.21"
       y="-0.14"
       height="1.28">
      <feGaussianBlur
         inkscape:collect="always"
         stdDeviation="1.75"
         id="feGaussianBlur3969" />
    </filter>
    <filter
       inkscape:collect="always"
       id="filter3853">
      <feGaussianBlur
         inkscape:collect="always"
         stdDeviation="0.65"
         id="feGaussianBlur3855" />
    </filter>
    <filter
       inkscape:collect="always"
       id="filter3859">
      <feGaussianBlur
         inkscape:collect="always"
         stdDeviation="1.325"
         id="feGaussianBlur3861" />
    </filter>
    <filter
       inkscape:collect="always"
       style="color-interpolation-filters:sRGB"
       id="filter4244"
       x="-0.0525"
       width="1.105"
       y="-0.07"
       height="1.14">
      <feGaussianBlur
         inkscape:collect="always"
         stdDeviation="1.75"
         id="feGaussianBlur4246" />
    </filter>
    <filter
       inkscape:collect="always"
       style="color-interpolation-filters:sRGB"
       id="filter4248"
       x="-0.0525"
       width="1.105"
       y="-0.07"
       height="1.14">
      <feGaussianBlur
         inkscape:collect="always"
         stdDeviation="1.75"
         id="feGaussianBlur4250" />
    </filter>
    <filter
       inkscape:collect="always"
       style="color-interpolation-filters:sRGB"
       id="filter4252"
       x="-0.0525"
       width="1.105"
       y="-0.07"
       height="1.14">
      <feGaussianBlur
         inkscape:collect="always"
         stdDeviation="1.75"
         id="feGaussianBlur4254" />
    </filter>
  </defs>
  <metadata
     id="metadata4">
    <rdf:RDF>
      <cc:Work
         rdf:about="">
        <dc:format>image/svg+xml</dc:format>
        <dc:type
           rdf:resource="http://purl.org/dc/dcmitype/StillImage" />
        <dc:creator>
          <cc:Agent>
            <dc:title>Sam Hewitt</dc:title>
          </cc:Agent>
        </dc:creator>
        <dc:source />
        <cc:license
           rdf:resource="" />
        <dc:title>Paper Icon Theme Template</dc:title>
        <dc:subject>
          <rdf:Bag />
        </dc:subject>
        <dc:date />
        <dc:rights>
          <cc:Agent>
            <dc:title />
          </cc:Agent>
        </dc:rights>
        <dc:publisher>
          <cc:Agent>
            <dc:title />
          </cc:Agent>
        </dc:publisher>
        <dc:identifier />
        <dc:relation />
        <dc:language />
        <dc:coverage />
        <dc:description />
        <dc:contributor>
          <cc:Agent>
            <dc:title />
          </cc:Agent>
        </dc:contributor>
      </cc:Work>
      <cc:Work
         rdf:about="">
        <dc:format>image/svg+xml</dc:format>
        <dc:type
           rdf:resource="http://purl.org/dc/dcmitype/StillImage" />
      </cc:Work>
    </rdf:RDF>
  </metadata>
  <g
     style="display:inline"
     inkscape:groupmode="layer"
     inkscape:label="Icon"
     id="layer1"
     transform="translate(0,-76)">
    <g
       style="display:none"
       inkscape:label="Baseplate"
       id="layer7"
       inkscape:groupmode="layer">
      <text
         y="59.745117"
         xml:space="preserve"
         x="15.006836"
         style="font-size:18px;font-style:normal;font-variant:normal;font-weight:normal;font-stretch:normal;fill:#000000;fill-opacity:1;stroke:none;display:inline;enable-background:new;font-family:DejaVu Sans;-inkscape-font-specification:DejaVu Sans"
         inkscape:label="context"
         id="context"><tspan
           style="font-style:normal;font-variant:normal;font-weight:normal;font-stretch:normal;font-family:DejaVu Sans;-inkscape-font-specification:DejaVu Sans"
           y="59.745117"
           x="15.006836"
           sodipodi:role="line"
           id="tspan3933">apps</tspan></text>
      <text
         y="59.745117"
         xml:space="preserve"
         x="142.48828"
         style="font-size:18px;font-style:normal;font-variant:normal;font-weight:bold;font-stretch:normal;text-align:start;line-height:125%;writing-mode:lr-tb;text-anchor:start;fill:#000000;fill-opacity:1;stroke:none;display:inline;enable-background:new;font-family:DejaVu Sans;-inkscape-font-specification:DejaVu Sans Bold"
         sodipodi:linespacing="125%"
         inkscape:label="icon-name"
         id="icon-name"><tspan
           style="font-size:18px;font-style:normal;font-variant:normal;font-weight:bold;font-stretch:normal;font-family:DejaVu Sans;-inkscape-font-specification:DejaVu Sans Bold"
           y="59.745117"
           x="142.48828"
           sodipodi:role="line"
           id="tspan3341">multitasking-view</tspan></text>
      <rect
         style="fill:#e9e9e9;fill-opacity:1;fill-rule:nonzero;stroke:none;stroke-width:2;marker:none;visibility:visible;display:inline;overflow:visible;enable-background:accumulate"
         id="rect16x16"
         width="16"
         height="16"
         x="-32"
         y="268"
         inkscape:label="16x16"
         transform="scale(-1,1)" />
      <rect
         style="fill:#e9e9e9;fill-opacity:1;fill-rule:nonzero;stroke:none;stroke-width:2;marker:none;visibility:visible;display:inline;overflow:visible;enable-background:accumulate"
         id="rect24x24"
         width="24"
         height="24"
         x="-72"
         y="260"
         inkscape:label="24x24"
         transform="scale(-1,1)" />
      <rect
         style="fill:#e9e9e9;fill-opacity:1;fill-rule:nonzero;stroke:none;stroke-width:2;marker:none;visibility:visible;display:inline;overflow:visible;enable-background:accumulate"
         id="rect32x32"
         width="32"
         height="32"
         x="-120"
         y="252"
         inkscape:label="32x32"
         transform="scale(-1,1)" />
      <rect
         inkscape:label="48x48"
         y="236"
         x="-184"
         height="48"
         width="48"
         id="rect48x48"
         style="fill:#e9e9e9;fill-opacity:1;fill-rule:nonzero;stroke:none;stroke-width:2;marker:none;visibility:visible;display:inline;overflow:visible;enable-background:accumulate"
         transform="scale(-1,1)" />
      <rect
         style="fill:#e9e9e9;fill-opacity:1;fill-rule:nonzero;stroke:none;stroke-width:2;marker:none;visibility:visible;display:inline;overflow:visible;enable-background:accumulate"
         id="rect256x256"
         width="192"
         height="192"
         x="-584"
         y="92"
         inkscape:label="256x256"
         transform="scale(-1,1)" />
      <rect
         inkscape:label="256x256"
         y="188"
         x="-376"
         height="96"
         width="96"
         id="rect3949"
         style="fill:#e9e9e9;fill-opacity:1;fill-rule:nonzero;stroke:none;stroke-width:2;marker:none;visibility:visible;display:inline;overflow:visible;enable-background:accumulate"
         transform="scale(-1,1)" />
      <rect
         style="fill:#e9e9e9;fill-opacity:1;fill-rule:nonzero;stroke:none;stroke-width:2;marker:none;visibility:visible;display:inline;overflow:visible;enable-background:accumulate"
         id="rect3951"
         width="64"
         height="64"
         x="-264"
         y="220"
         inkscape:label="48x48"
         transform="scale(-1,1)" />
    </g>
    <g
       inkscape:groupmode="layer"
       id="layer6"
       inkscape:label="Symbols"
       style="display:inline">
      <rect
         ry="1"
         rx="1"
         y="-70"
         x="-282"
         height="20"
         width="18"
         id="rect4242"
         style="fill:#000000;fill-opacity:1;stroke:#000000;opacity:0.2;stroke-opacity:1;stroke-width:2;stroke-miterlimit:4;stroke-dasharray:none"
         transform="matrix(0,-1,-1,0,0,0)" />
      <path
         id="path3853"
         d="m 17,270 c -0.554,0 -1,0.446 -1,1 l 0,1 0,11 c 0,0.554 0.446,1 1,1 l 14,0 c 0.554,0 1,-0.446 1,-1 l 0,-11 0,-1 c 0,-0.554 -0.446,-1 -1,-1 l -14,0 z"
         style="fill:#000000;fill-opacity:1;stroke:none;display:inline;enable-background:new;opacity:0.2"
         inkscape:connector-curvature="0" />
      <rect
         transform="matrix(0,-1,-1,0,0,0)"
         style="fill:#000000;fill-opacity:1;stroke:none;opacity:0.2"
         id="rect3083"
         width="18"
         height="20"
         x="-282"
         y="-70"
         rx="1"
         ry="1" />
      <path
         id="path3857"
         d="m 207,228 c -1.662,0 -3,1.338 -3,3 l 0,3 0,41 c 0,1.662 1.338,3 3,3 l 50,0 c 1.662,0 3,-1.338 3,-3 l 0,-41 0,-3 c 0,-1.662 -1.338,-3 -3,-3 l -50,0 z"
         style="opacity:0.5;fill:#000000;fill-opacity:1;stroke:none;filter:url(#filter3859)"
         inkscape:connector-curvature="0" />
      <rect
         ry="1.5"
         rx="1.2857143"
         y="-118"
         x="-280"
         height="28"
         width="24"
         id="rect3847"
         style="opacity:0.50000000000000000;fill:#000000;fill-opacity:1;stroke:none;filter:url(#filter3853)"
         transform="matrix(0,-1,-1,0,0,1)" />
      <path
         id="path3915"
         d="m 142,244 c -1.108,0 -2,0.892 -2,2 l 0,2 0,30 c 0,1.108 0.892,2 2,2 l 36,0 c 1.108,0 2,-0.892 2,-2 l 0,-30 0,-2 c 0,-1.108 -0.892,-2 -2,-2 l -36,0 z"
         style="opacity:0.5;fill:#000000;fill-opacity:1;stroke:none;filter:url(#filter3917)"
         inkscape:connector-curvature="0" />
      <path
         style="fill:#4ab3e4;fill-opacity:1;stroke:none"
         d="M 207 151 C 205.338 151 204 152.338 204 154 L 204 157 L 204 198 C 204 199.662 205.338 201 207 201 L 257 201 C 258.662 201 260 199.662 260 198 L 260 157 L 260 154 C 260 152.338 258.662 151 257 151 L 207 151 z "
         transform="translate(0,76)"
         id="rect4229" />
      <rect
         ry="1"
         rx="1"
         y="-70"
         x="-281"
         height="20"
         width="18"
         id="rect4243"
         style="fill:#4ab3e4;fill-opacity:1;stroke:none"
         transform="matrix(0,-1,-1,0,0,0)" />
      <rect
         transform="matrix(0,-1,-1,0,0,0)"
         style="fill:#4ab3e4;fill-opacity:1;stroke:none"
         id="rect4255"
         width="24"
         height="28"
         x="-280"
         y="-118"
         rx="1.2857143"
         ry="1.5" />
      <path
         style="fill:#4ab3e4;fill-opacity:1;stroke:none;display:inline;enable-background:new"
         d="M 17 193 C 16.446 193 16 193.446 16 194 L 16 195 L 16 206 C 16 206.554 16.446 207 17 207 L 31 207 C 31.554 207 32 206.554 32 206 L 32 195 L 32 194 C 32 193.446 31.554 193 31 193 L 17 193 z "
         transform="translate(0,76)"
         id="rect4265" />
      <path
         style="fill:#4ab3e4;fill-opacity:1;stroke:none"
         d="M 142 167 C 140.892 167 140 167.892 140 169 L 140 171 L 140 201 C 140 202.108 140.892 203 142 203 L 178 203 C 179.108 203 180 202.108 180 201 L 180 171 L 180 169 C 180 167.892 179.108 167 178 167 L 142 167 z "
         transform="translate(0,76)"
         id="rect4203" />
      <path
         style="opacity:0.2;fill:#ffffff;fill-opacity:1;stroke:none"
         d="m 142,243 c -1.108,0 -2,0.892 -2,2 l 0,2 c 0,-1.108 0.892,-3 2,-3 l 36,0 c 1.108,0 2,1.892 2,3 l 0,-2 c 0,-1.108 -0.892,-2 -2,-2 z"
         id="path3345"
         inkscape:connector-curvature="0"
         sodipodi:nodetypes="sscsscsss" />
      <path
         style="fill:#ffffff;fill-opacity:1;stroke:none;opacity:0.2"
         d="M 207 151 C 205.338 151 204 152.338 204 154 L 204 155 C 204 153.338 205.338 152 207 152 L 257 152 C 258.662 152 260 153.338 260 155 L 260 154 C 260 152.338 258.662 151 257 151 L 207 151 z "
         transform="translate(0,76)"
         id="path4048" />
      <path
         style="opacity:0.50000000000000000;fill:#000000;fill-opacity:1;stroke:none;filter:url(#filter4182)"
         d="m 292,201 c -2.216,0 -4,1.784 -4,4 l 0,4 0,60 c 0,2.216 1.784,4 4,4 l 72,0 c 2.216,0 4,-1.784 4,-4 l 0,-60 0,-4 c 0,-2.216 -1.784,-4 -4,-4 l -72,0 z"
         id="path4114"
         inkscape:connector-curvature="0" />
      <path
         style="fill:#4ab3e4;fill-opacity:1;stroke:none"
         d="M 292 124 C 289.784 124 288 125.784 288 128 L 288 132 L 288 192 C 288 194.216 289.784 196 292 196 L 364 196 C 366.216 196 368 194.216 368 192 L 368 132 L 368 128 C 368 125.784 366.216 124 364 124 L 292 124 z "
         transform="translate(0,76)"
         id="path4083" />
      <path
         inkscape:connector-curvature="0"
         style="opacity:0.2;fill:#ffffff;fill-opacity:1;stroke:none"
         d="m 292,200 c -2.216,0 -4,1.784 -4,4 l 0,1 c 0,-2.216 1.784,-4 4,-4 l 72,0 c 2.216,0 4,1.784 4,4 l 0,-1 c 0,-2.216 -1.784,-4 -4,-4 l -72,0 z"
         id="path4087" />
      <path
         inkscape:connector-curvature="0"
         id="path4136"
         d="m 416,118 c -4.432,0 -8,3.568 -8,8 l 0,8 0,120 c 0,4.432 3.568,8 8,8 l 144,0 c 4.432,0 8,-3.568 8,-8 l 0,-120 0,-8 c 0,-4.432 -3.568,-8 -8,-8 l -144,0 z"
         style="opacity:0.50000000000000000;fill:#000000;fill-opacity:1;stroke:none;filter:url(#filter4190)" />
      <path
         style="fill:#4ab3e4;fill-opacity:1;stroke:none"
         d="M 416 40 C 411.568 40 408 43.568 408 48 L 408 56 L 408 176 C 408 180.432 411.568 184 416 184 L 560 184 C 564.432 184 568 180.432 568 176 L 568 56 L 568 48 C 568 43.568 564.432 40 560 40 L 416 40 z "
         transform="translate(0,76)"
         id="path4138" />
      <path
         style="opacity:0.2;fill:#ffffff;fill-opacity:1;stroke:none"
         d="m 416,116 c -4.432,0 -8,3.568 -8,8 l 0,1 c 0,-4.432 3.568,-8 8,-8 l 144,0 c 4.432,0 8,3.568 8,8 l 0,-1 c 0,-4.432 -3.568,-8 -8,-8 l -144,0 z"
         id="path4142"
         inkscape:connector-curvature="0" />
      <path
         style="display:inline;opacity:0.2;fill:#000000;fill-opacity:1;stroke:none;filter:url(#filter3911);enable-background:new"
         d="m 163,248 18,0 c 0.554,0 1,0.446 1,1 l 0,13 c 0,0.554 -0.446,1 -1,1 l -18,0 c -0.554,0 -1,-0.446 -1,-1 l 0,-13 c 0,-0.554 0.446,-1 1,-1 z"
         id="rect3848"
         inkscape:connector-curvature="0"
         sodipodi:nodetypes="sssssssss" />
      <path
         style="display:inline;fill:#f5f5f5;fill-opacity:1;stroke:none;enable-background:new"
         d="m 163,247 18,0 c 0.554,0 1,0.446 1,1 l 0,13 c 0,0.554 -0.446,1 -1,1 l -18,0 c -0.554,0 -1,-0.446 -1,-1 l 0,-13 c 0,-0.554 0.446,-1 1,-1 z"
         id="rect3842"
         inkscape:connector-curvature="0"
         sodipodi:nodetypes="sssssssss" />
      <path
         style="display:inline;opacity:0.2;fill:#000000;fill-opacity:1;stroke:none;filter:url(#filter3903);enable-background:new"
         d="m 139,248 18,0 c 0.554,0 1,0.446 1,1 l 0,13 c 0,0.554 -0.446,1 -1,1 l -18,0 c -0.554,0 -1,-0.446 -1,-1 l 0,-13 c 0,-0.554 0.446,-1 1,-1 z"
         id="rect3850"
         inkscape:connector-curvature="0"
         sodipodi:nodetypes="sssssssss" />
      <path
         style="display:inline;fill:#f5f5f5;fill-opacity:1;stroke:none;enable-background:new"
         d="m 139,247 18,0 c 0.554,0 1,0.446 1,1 l 0,13 c 0,0.554 -0.446,1 -1,1 l -18,0 c -0.554,0 -1,-0.446 -1,-1 l 0,-13 c 0,-0.554 0.446,-1 1,-1 z"
         id="rect3844"
         inkscape:connector-curvature="0"
         sodipodi:nodetypes="sssssssss" />
      <path
         style="display:inline;opacity:0.2;fill:#000000;fill-opacity:1;stroke:none;filter:url(#filter3907);enable-background:new"
         d="m 151,267 18,0 c 0.554,0 1,0.446 1,1 l 0,13 c 0,0.554 -0.446,1 -1,1 l -18,0 c -0.554,0 -1,-0.446 -1,-1 l 0,-13 c 0,-0.554 0.446,-1 1,-1 z"
         id="rect3852"
         inkscape:connector-curvature="0"
         sodipodi:nodetypes="sssssssss" />
      <path
         style="display:inline;fill:#f5f5f5;fill-opacity:1;stroke:none;enable-background:new"
         d="m 151,266 18,0 c 0.554,0 1,0.446 1,1 l 0,13 c 0,0.554 -0.446,1 -1,1 l -18,0 c -0.554,0 -1,-0.446 -1,-1 l 0,-13 c 0,-0.554 0.446,-1 1,-1 z"
         id="rect3846"
         inkscape:connector-curvature="0"
         sodipodi:nodetypes="sssssssss" />
      <path
         sodipodi:nodetypes="sssssssss"
         inkscape:connector-curvature="0"
         id="path3921"
         d="m 334,209 36,0 c 1.108,0 2,0.892 2,2 l 0,26 c 0,1.108 -0.892,2 -2,2 l -36,0 c -1.108,0 -2,-0.892 -2,-2 l 0,-26 c 0,-1.108 0.892,-2 2,-2 z"
         style="display:inline;opacity:0.2;fill:#000000;fill-opacity:1;stroke:none;filter:url(#filter3963);enable-background:new" />
      <path
         sodipodi:nodetypes="sssssssss"
         inkscape:connector-curvature="0"
         id="path3923"
         d="m 334,208 36,0 c 1.108,0 2,0.892 2,2 l 0,26 c 0,1.108 -0.892,2 -2,2 l -36,0 c -1.108,0 -2,-0.892 -2,-2 l 0,-26 c 0,-1.108 0.892,-2 2,-2 z"
         style="display:inline;fill:#f5f5f5;fill-opacity:1;stroke:none;enable-background:new" />
      <path
         sodipodi:nodetypes="sssssssss"
         inkscape:connector-curvature="0"
         id="path3925"
         d="m 286,209 36,0 c 1.108,0 2,0.892 2,2 l 0,26 c 0,1.108 -0.892,2 -2,2 l -36,0 c -1.108,0 -2,-0.892 -2,-2 l 0,-26 c 0,-1.108 0.892,-2 2,-2 z"
         style="display:inline;opacity:0.2;fill:#000000;fill-opacity:1;stroke:none;filter:url(#filter3967);enable-background:new" />
      <path
         sodipodi:nodetypes="sssssssss"
         inkscape:connector-curvature="0"
         id="path3927"
         d="m 286,208 36,0 c 1.108,0 2,0.892 2,2 l 0,26 c 0,1.108 -0.892,2 -2,2 l -36,0 c -1.108,0 -2,-0.892 -2,-2 l 0,-26 c 0,-1.108 0.892,-2 2,-2 z"
         style="display:inline;fill:#f5f5f5;fill-opacity:1;stroke:none;enable-background:new" />
      <path
         sodipodi:nodetypes="sssssssss"
         inkscape:connector-curvature="0"
         id="path3929"
         d="m 310,247 36,0 c 1.108,0 2,0.892 2,2 l 0,26 c 0,1.108 -0.892,2 -2,2 l -36,0 c -1.108,0 -2,-0.892 -2,-2 l 0,-26 c 0,-1.108 0.892,-2 2,-2 z"
         style="display:inline;opacity:0.2;fill:#000000;fill-opacity:1;stroke:none;filter:url(#filter3959);enable-background:new" />
      <path
         sodipodi:nodetypes="sssssssss"
         inkscape:connector-curvature="0"
         id="path3931"
         d="m 310,246 36,0 c 1.108,0 2,0.892 2,2 l 0,26 c 0,1.108 -0.892,2 -2,2 l -36,0 c -1.108,0 -2,-0.892 -2,-2 l 0,-26 c 0,-1.108 0.892,-2 2,-2 z"
         style="display:inline;fill:#f5f5f5;fill-opacity:1;stroke:none;enable-background:new" />
      <rect
         ry="0"
         y="271"
         x="17"
         height="5"
         width="6"
         id="rect4000"
         style="opacity:0.2;fill:#000000;fill-opacity:1;stroke:none" />
      <rect
         style="opacity:0.2;fill:#000000;fill-opacity:1;stroke:none"
         id="rect4002"
         width="6"
         height="5"
         x="25"
         y="271"
         ry="0" />
      <rect
         ry="0"
         y="278"
         x="21"
         height="5"
         width="6"
         id="rect4004"
         style="opacity:0.2;fill:#000000;fill-opacity:1;stroke:none" />
      <rect
         style="fill:#f5f5f5;fill-opacity:1;stroke:none"
         id="rect3987"
         width="6"
         height="5"
         x="17"
         y="270"
         ry="0" />
      <rect
         ry="0"
         y="270"
         x="25"
         height="5"
         width="6"
         id="rect3989"
         style="fill:#f5f5f5;fill-opacity:1;stroke:none" />
      <rect
         style="fill:#f5f5f5;fill-opacity:1;stroke:none"
         id="rect3991"
         width="6"
         height="5"
         x="21"
         y="277"
         ry="0" />
      <path
         style="display:inline;opacity:0.5;fill:#000000;fill-opacity:1;stroke:none;filter:url(#filter4252);enable-background:new"
         d="m 500,130 72,0 c 2.216,0 4,1.784 4,4 l 0,52 c 0,2.216 -1.784,4 -4,4 l -72,0 c -2.216,0 -4,-1.784 -4,-4 l 0,-52 c 0,-2.216 1.784,-4 4,-4 z"
         id="path4034"
         inkscape:connector-curvature="0"
         sodipodi:nodetypes="sssssssss" />
      <path
         style="display:inline;fill:#f5f5f5;fill-opacity:1;stroke:none;enable-background:new"
         d="m 500,128 72,0 c 2.216,0 4,1.784 4,4 l 0,52 c 0,2.216 -1.784,4 -4,4 l -72,0 c -2.216,0 -4,-1.784 -4,-4 l 0,-52 c 0,-2.216 1.784,-4 4,-4 z"
         id="path4036"
         inkscape:connector-curvature="0"
         sodipodi:nodetypes="sssssssss" />
      <path
         style="display:inline;opacity:0.5;fill:#000000;fill-opacity:1;stroke:none;filter:url(#filter4248);enable-background:new"
         d="m 404,130 72,0 c 2.216,0 4,1.784 4,4 l 0,52 c 0,2.216 -1.784,4 -4,4 l -72,0 c -2.216,0 -4,-1.784 -4,-4 l 0,-52 c 0,-2.216 1.784,-4 4,-4 z"
         id="path4038"
         inkscape:connector-curvature="0"
         sodipodi:nodetypes="sssssssss" />
      <path
         style="display:inline;fill:#f5f5f5;fill-opacity:1;stroke:none;enable-background:new"
         d="m 404,128 72,0 c 2.216,0 4,1.784 4,4 l 0,52 c 0,2.216 -1.784,4 -4,4 l -72,0 c -2.216,0 -4,-1.784 -4,-4 l 0,-52 c 0,-2.216 1.784,-4 4,-4 z"
         id="path4040"
         inkscape:connector-curvature="0"
         sodipodi:nodetypes="sssssssss" />
      <path
         style="display:inline;opacity:0.5;fill:#000000;fill-opacity:1;stroke:none;filter:url(#filter4244);enable-background:new"
         d="m 452,208 72,0 c 2.216,0 4,1.784 4,4 l 0,52 c 0,2.216 -1.784,4 -4,4 l -72,0 c -2.216,0 -4,-1.784 -4,-4 l 0,-52 c 0,-2.216 1.784,-4 4,-4 z"
         id="path4042"
         inkscape:connector-curvature="0"
         sodipodi:nodetypes="sssssssss" />
      <path
         style="display:inline;fill:#f5f5f5;fill-opacity:1;stroke:none;enable-background:new"
         d="m 452,206 72,0 c 2.216,0 4,1.784 4,4 l 0,52 c 0,2.216 -1.784,4 -4,4 l -72,0 c -2.216,0 -4,-1.784 -4,-4 l 0,-52 c 0,-2.216 1.784,-4 4,-4 z"
         id="path4044"
         inkscape:connector-curvature="0"
         sodipodi:nodetypes="sssssssss" />
      <path
         style="fill:#ffffff;fill-opacity:1;stroke:none;opacity:0.2"
         d="M 91.5 180 C 90.669 180 90 180.56896 90 181.28125 L 90 182.28125 C 90 181.56896 90.669 181 91.5 181 L 116.5 181 C 117.331 181 118 181.56896 118 182.28125 L 118 181.28125 C 118 180.56896 117.331 180 116.5 180 L 91.5 180 z "
         transform="translate(0,76)"
         id="rect4108" />
      <path
         style="fill:#ffffff;fill-opacity:1;stroke:none;opacity:0.2"
         d="M 51 187 C 50.446 187 50 187.446 50 188 L 50 189 C 50 188.446 50.446 188 51 188 L 69 188 C 69.554 188 70 188.446 70 189 L 70 188 C 70 187.446 69.554 187 69 187 L 51 187 z "
         transform="translate(0,76)"
         id="rect4115" />
      <path
         sodipodi:nodetypes="sssssssss"
         inkscape:connector-curvature="0"
         id="path4236"
         d="m 61.5,266 9,0 c 0.277,0 0.5,0.223 0.5,0.5 l 0,6 c 0,0.277 -0.223,0.5 -0.5,0.5 l -9,0 c -0.277,0 -0.5,-0.223 -0.5,-0.5 l 0,-6 c 0,-0.277 0.223,-0.5 0.5,-0.5 z"
         style="fill:#000000;fill-opacity:1;stroke:#000000;display:inline;enable-background:new;opacity:0.1;stroke-opacity:1;stroke-width:2;stroke-miterlimit:4;stroke-dasharray:none" />
      <path
         style="fill:#000000;fill-opacity:1;stroke:none;display:inline;enable-background:new;opacity:0.2"
         d="m 61.5,266 9,0 c 0.277,0 0.5,0.223 0.5,0.5 l 0,6 c 0,0.277 -0.223,0.5 -0.5,0.5 l -9,0 c -0.277,0 -0.5,-0.223 -0.5,-0.5 l 0,-6 c 0,-0.277 0.223,-0.5 0.5,-0.5 z"
         id="path4137"
         inkscape:connector-curvature="0"
         sodipodi:nodetypes="sssssssss" />
      <path
         sodipodi:nodetypes="sssssssss"
         inkscape:connector-curvature="0"
         id="path4238"
         d="m 49.5,266 9,0 c 0.277,0 0.5,0.223 0.5,0.5 l 0,6 c 0,0.277 -0.223,0.5 -0.5,0.5 l -9,0 c -0.277,0 -0.5,-0.223 -0.5,-0.5 l 0,-6 c 0,-0.277 0.223,-0.5 0.5,-0.5 z"
         style="fill:#000000;fill-opacity:1;stroke:#000000;display:inline;enable-background:new;opacity:0.1;stroke-opacity:1;stroke-width:2;stroke-miterlimit:4;stroke-dasharray:none" />
      <path
         style="fill:#000000;fill-opacity:1;stroke:none;display:inline;enable-background:new;opacity:0.2"
         d="m 49.5,266 9,0 c 0.277,0 0.5,0.223 0.5,0.5 l 0,6 c 0,0.277 -0.223,0.5 -0.5,0.5 l -9,0 c -0.277,0 -0.5,-0.223 -0.5,-0.5 l 0,-6 c 0,-0.277 0.223,-0.5 0.5,-0.5 z"
         id="path4139"
         inkscape:connector-curvature="0"
         sodipodi:nodetypes="sssssssss" />
      <path
         sodipodi:nodetypes="sssssssss"
         inkscape:connector-curvature="0"
         id="path4122"
         d="m 61.5,265 9,0 c 0.277,0 0.5,0.223 0.5,0.5 l 0,6 c 0,0.277 -0.223,0.5 -0.5,0.5 l -9,0 c -0.277,0 -0.5,-0.223 -0.5,-0.5 l 0,-6 c 0,-0.277 0.223,-0.5 0.5,-0.5 z"
         style="fill:#f5f5f5;fill-opacity:1;stroke:none;display:inline;enable-background:new" />
      <path
         style="display:inline;opacity:0.2;fill:#000000;fill-opacity:1;stroke:none;enable-background:new"
         d="m 55.5,276 9,0 c 0.277,0 0.5,0.223 0.5,0.5 l 0,6 c 0,0.277 -0.223,0.5 -0.5,0.5 l -9,0 c -0.277,0 -0.5,-0.223 -0.5,-0.5 l 0,-6 c 0,-0.277 0.223,-0.5 0.5,-0.5 z"
         id="path4141"
         inkscape:connector-curvature="0"
         sodipodi:nodetypes="sssssssss" />
      <path
         sodipodi:nodetypes="sssssssss"
         inkscape:connector-curvature="0"
         id="path4124"
         d="m 49.5,265 9,0 c 0.277,0 0.5,0.223 0.5,0.5 l 0,6 c 0,0.277 -0.223,0.5 -0.5,0.5 l -9,0 c -0.277,0 -0.5,-0.223 -0.5,-0.5 l 0,-6 c 0,-0.277 0.223,-0.5 0.5,-0.5 z"
         style="fill:#f5f5f5;fill-opacity:1;stroke:none;display:inline;enable-background:new" />
      <path
         sodipodi:nodetypes="sssssssss"
         inkscape:connector-curvature="0"
         id="path4240"
         d="m 55.5,276 9,0 c 0.277,0 0.5,0.223 0.5,0.5 l 0,6 c 0,0.277 -0.223,0.5 -0.5,0.5 l -9,0 c -0.277,0 -0.5,-0.223 -0.5,-0.5 l 0,-6 c 0,-0.277 0.223,-0.5 0.5,-0.5 z"
         style="display:inline;opacity:0.1;fill:#000000;fill-opacity:1;stroke:#000000;enable-background:new;stroke-opacity:1;stroke-width:2;stroke-miterlimit:4;stroke-dasharray:none" />
      <path
         sodipodi:nodetypes="sssssssss"
         inkscape:connector-curvature="0"
         id="path4126"
         d="m 55.5,275 9,0 c 0.277,0 0.5,0.223 0.5,0.5 l 0,6 c 0,0.277 -0.223,0.5 -0.5,0.5 l -9,0 c -0.277,0 -0.5,-0.223 -0.5,-0.5 l 0,-6 c 0,-0.277 0.223,-0.5 0.5,-0.5 z"
         style="display:inline;fill:#f5f5f5;fill-opacity:1;stroke:none;enable-background:new" />
    </g>
  </g>
</svg>
