<?xml version="1.0" encoding="UTF-8" standalone="no"?>
<!-- Created with Inkscape (http://www.inkscape.org/) -->

<svg
   xmlns:dc="http://purl.org/dc/elements/1.1/"
   xmlns:cc="http://creativecommons.org/ns#"
   xmlns:rdf="http://www.w3.org/1999/02/22-rdf-syntax-ns#"
   xmlns:svg="http://www.w3.org/2000/svg"
   xmlns="http://www.w3.org/2000/svg"
   xmlns:xlink="http://www.w3.org/1999/xlink"
   xmlns:sodipodi="http://sodipodi.sourceforge.net/DTD/sodipodi-0.dtd"
   xmlns:inkscape="http://www.inkscape.org/namespaces/inkscape"
   inkscape:export-ydpi="90.000000"
   inkscape:export-xdpi="90.000000"
   width="600"
   height="224"
   id="svg11300"
   sodipodi:version="0.32"
   inkscape:version="0.48.4 r9939"
   sodipodi:docname="multimedia-audio-player.svg"
   inkscape:output_extension="org.inkscape.output.svg.inkscape"
   version="1.0"
   style="display:inline;enable-background:new"
   inkscape:export-filename="/home/sam/paper-template.png">
  <title
     id="title3004">Paper Icon Theme Template</title>
  <sodipodi:namedview
     stroke="#ef2929"
     fill="#f57900"
     id="base"
     pagecolor="#474747"
     bordercolor="#666666"
     borderopacity="0.25490196"
     inkscape:pageopacity="0"
     inkscape:pageshadow="2"
     inkscape:zoom="1"
     inkscape:cx="356.26882"
     inkscape:cy="18.853905"
     inkscape:current-layer="layer6"
     showgrid="false"
     inkscape:grid-bbox="true"
     inkscape:document-units="px"
     inkscape:showpageshadow="false"
     inkscape:window-width="1364"
     inkscape:window-height="701"
     inkscape:window-x="0"
     inkscape:window-y="28"
     width="400px"
     height="300px"
     inkscape:snap-nodes="true"
     inkscape:snap-bbox="true"
     gridtolerance="10000"
     inkscape:object-nodes="true"
     inkscape:snap-grids="true"
     showguides="true"
     inkscape:guide-bbox="true"
     inkscape:window-maximized="1">
    <inkscape:grid
       spacingy="1px"
       spacingx="1px"
       id="grid5883"
       type="xygrid"
       enabled="true"
       visible="true"
       empspacing="4"
       snapvisiblegridlinesonly="true" />
    <inkscape:grid
       type="xygrid"
       id="grid11592"
       empspacing="2"
       visible="true"
       enabled="false"
       spacingx="0.5px"
       spacingy="0.5px"
       color="#ff0000"
       opacity="0.1254902"
       empcolor="#ff0000"
       empopacity="0.25098039"
       snapvisiblegridlinesonly="true" />
    <sodipodi:guide
       orientation="0,1"
       position="0,224"
       id="guide4275" />
  </sodipodi:namedview>
  <defs
     id="defs3">
    <linearGradient
       inkscape:collect="always"
       id="linearGradient4155">
      <stop
         style="stop-color:#ffffff;stop-opacity:1;"
         offset="0"
         id="stop4157" />
      <stop
         style="stop-color:#ffffff;stop-opacity:0;"
         offset="1"
         id="stop4159" />
    </linearGradient>
    <linearGradient
       inkscape:collect="always"
       id="linearGradient4219">
      <stop
         style="stop-color:#ffffff;stop-opacity:1;"
         offset="0"
         id="stop4221" />
      <stop
         style="stop-color:#ffffff;stop-opacity:0;"
         offset="1"
         id="stop4223" />
    </linearGradient>
    <linearGradient
       inkscape:collect="always"
       id="linearGradient4137">
      <stop
         style="stop-color:#000000;stop-opacity:1;"
         offset="0"
         id="stop4139" />
      <stop
         style="stop-color:#000000;stop-opacity:0;"
         offset="1"
         id="stop4141" />
    </linearGradient>
    <linearGradient
       inkscape:collect="always"
       xlink:href="#linearGradient4137"
       id="linearGradient4303"
       gradientUnits="userSpaceOnUse"
       gradientTransform="matrix(0,1,1,0,12.000005,96.000005)"
       x1="153"
       y1="164"
       x2="158"
       y2="169" />
    <radialGradient
       inkscape:collect="always"
       xlink:href="#linearGradient4137"
       id="radialGradient4305"
       gradientUnits="userSpaceOnUse"
       gradientTransform="matrix(0,2,-1.5,0,399,-148)"
       cx="156"
       cy="162"
       fx="156"
       fy="162"
       r="8" />
    <linearGradient
       inkscape:collect="always"
       xlink:href="#linearGradient4219"
       id="linearGradient4307"
       gradientUnits="userSpaceOnUse"
       gradientTransform="translate(0,76)"
       x1="160"
       y1="156"
       x2="160"
       y2="212" />
    <filter
       inkscape:collect="always"
       id="filter3823">
      <feGaussianBlur
         inkscape:collect="always"
         stdDeviation="1.025"
         id="feGaussianBlur3825" />
    </filter>
    <linearGradient
       inkscape:collect="always"
       id="linearGradient4137-5">
      <stop
         style="stop-color:#000000;stop-opacity:1;"
         offset="0"
         id="stop4139-2" />
      <stop
         style="stop-color:#000000;stop-opacity:0;"
         offset="1"
         id="stop4141-4" />
    </linearGradient>
    <radialGradient
       r="8"
       fy="162"
       fx="156"
       cy="162"
       cx="156"
       gradientTransform="matrix(0,2,-1.5,0,399,-74)"
       gradientUnits="userSpaceOnUse"
       id="radialGradient3951"
       xlink:href="#linearGradient4137-5"
       inkscape:collect="always" />
    <radialGradient
       inkscape:collect="always"
       xlink:href="#linearGradient4137-5"
       id="radialGradient4038"
       gradientUnits="userSpaceOnUse"
       gradientTransform="matrix(0,4,-3,0,806.0001,-430.03125)"
       cx="156"
       cy="162"
       fx="156"
       fy="162"
       r="8" />
    <filter
       inkscape:collect="always"
       id="filter4063"
       x="-0.21"
       width="1.42"
       y="-0.21"
       height="1.42">
      <feGaussianBlur
         inkscape:collect="always"
         stdDeviation="1.4"
         id="feGaussianBlur4065" />
    </filter>
    <filter
       inkscape:collect="always"
       id="filter4067"
       x="-0.21"
       width="1.42"
       y="-0.21"
       height="1.42">
      <feGaussianBlur
         inkscape:collect="always"
         stdDeviation="1.4"
         id="feGaussianBlur4069" />
    </filter>
    <filter
       inkscape:collect="always"
       id="filter4075"
       x="-0.93"
       width="2.86"
       y="-0.10941176"
       height="1.2188235">
      <feGaussianBlur
         inkscape:collect="always"
         stdDeviation="1.55"
         id="feGaussianBlur4077" />
    </filter>
    <filter
       inkscape:collect="always"
       id="filter4079"
       x="-0.93"
       width="2.86"
       y="-0.10941176"
       height="1.2188235">
      <feGaussianBlur
         inkscape:collect="always"
         stdDeviation="1.55"
         id="feGaussianBlur4081" />
    </filter>
    <linearGradient
       inkscape:collect="always"
       xlink:href="#linearGradient4137-5"
       id="linearGradient4101"
       x1="153"
       y1="273"
       x2="156"
       y2="276"
       gradientUnits="userSpaceOnUse"
       gradientTransform="translate(0,-2)" />
    <linearGradient
       inkscape:collect="always"
       xlink:href="#linearGradient4137-5"
       id="linearGradient4105"
       gradientUnits="userSpaceOnUse"
       x1="153"
       y1="273"
       x2="156"
       y2="276"
       gradientTransform="translate(24,-2)" />
    <filter
       inkscape:collect="always"
       id="filter4116"
       x="-0.21"
       width="1.42"
       y="-0.21"
       height="1.42">
      <feGaussianBlur
         inkscape:collect="always"
         stdDeviation="1.4"
         id="feGaussianBlur4118" />
    </filter>
    <filter
       inkscape:collect="always"
       id="filter4120"
       x="-0.21"
       width="1.42"
       y="-0.21"
       height="1.42">
      <feGaussianBlur
         inkscape:collect="always"
         stdDeviation="1.4"
         id="feGaussianBlur4122" />
    </filter>
    <filter
       inkscape:collect="always"
       id="filter4128"
       x="-0.93"
       width="2.86"
       y="-0.10941176"
       height="1.2188235">
      <feGaussianBlur
         inkscape:collect="always"
         stdDeviation="3.1"
         id="feGaussianBlur4130" />
    </filter>
    <filter
       inkscape:collect="always"
       id="filter4132"
       x="-0.93"
       width="2.86"
       y="-0.10941176"
       height="1.2188235">
      <feGaussianBlur
         inkscape:collect="always"
         stdDeviation="3.1"
         id="feGaussianBlur4134" />
    </filter>
    <linearGradient
       inkscape:collect="always"
       xlink:href="#linearGradient4137-5"
       id="linearGradient4138"
       gradientUnits="userSpaceOnUse"
       x1="153"
       y1="273"
       x2="156"
       y2="276"
       gradientTransform="matrix(2,0,0,2,8.0001,-286.03125)" />
    <linearGradient
       inkscape:collect="always"
       xlink:href="#linearGradient4137-5"
       id="linearGradient4142"
       gradientUnits="userSpaceOnUse"
       gradientTransform="matrix(2,0,0,2,56.0001,-286.03125)"
       x1="153"
       y1="273"
       x2="156"
       y2="276" />
    <linearGradient
       inkscape:collect="always"
       xlink:href="#linearGradient4155"
       id="linearGradient4161"
       x1="160"
       y1="162"
       x2="160"
       y2="210"
       gradientUnits="userSpaceOnUse"
       gradientTransform="translate(0,74)" />
    <linearGradient
       inkscape:collect="always"
       xlink:href="#linearGradient4155"
       id="linearGradient4180"
       x1="332"
       y1="112"
       x2="332"
       y2="208"
       gradientUnits="userSpaceOnUse" />
    <filter
       inkscape:collect="always"
       id="filter4182">
      <feGaussianBlur
         inkscape:collect="always"
         stdDeviation="0.82"
         id="feGaussianBlur4184" />
    </filter>
  </defs>
  <metadata
     id="metadata4">
    <rdf:RDF>
      <cc:Work
         rdf:about="">
        <dc:format>image/svg+xml</dc:format>
        <dc:type
           rdf:resource="http://purl.org/dc/dcmitype/StillImage" />
        <dc:creator>
          <cc:Agent>
            <dc:title>Sam Hewitt</dc:title>
          </cc:Agent>
        </dc:creator>
        <dc:source />
        <cc:license
           rdf:resource="" />
        <dc:title>Paper Icon Theme Template</dc:title>
        <dc:subject>
          <rdf:Bag />
        </dc:subject>
        <dc:date />
        <dc:rights>
          <cc:Agent>
            <dc:title />
          </cc:Agent>
        </dc:rights>
        <dc:publisher>
          <cc:Agent>
            <dc:title />
          </cc:Agent>
        </dc:publisher>
        <dc:identifier />
        <dc:relation />
        <dc:language />
        <dc:coverage />
        <dc:description />
        <dc:contributor>
          <cc:Agent>
            <dc:title />
          </cc:Agent>
        </dc:contributor>
      </cc:Work>
      <cc:Work
         rdf:about="">
        <dc:format>image/svg+xml</dc:format>
        <dc:type
           rdf:resource="http://purl.org/dc/dcmitype/StillImage" />
      </cc:Work>
    </rdf:RDF>
  </metadata>
  <g
     style="display:inline"
     inkscape:groupmode="layer"
     inkscape:label="Icon"
     id="layer1"
     transform="translate(0,-76)">
    <g
       style="display:none"
       inkscape:label="Baseplate"
       id="layer7"
       inkscape:groupmode="layer"
       sodipodi:insensitive="true">
      <text
         y="59.745117"
         xml:space="preserve"
         x="15.006836"
         style="font-size:18px;font-style:normal;font-variant:normal;font-weight:normal;font-stretch:normal;fill:#000000;fill-opacity:1;stroke:none;display:inline;enable-background:new;font-family:DejaVu Sans;-inkscape-font-specification:DejaVu Sans"
         inkscape:label="context"
         id="context"><tspan
           style="font-style:normal;font-variant:normal;font-weight:normal;font-stretch:normal;font-family:DejaVu Sans;-inkscape-font-specification:DejaVu Sans"
           y="59.745117"
           x="15.006836"
           sodipodi:role="line"
           id="tspan3933">apps</tspan></text>
      <text
         y="59.745117"
         xml:space="preserve"
         x="142.48828"
         style="font-size:18px;font-style:normal;font-variant:normal;font-weight:bold;font-stretch:normal;text-align:start;line-height:125%;writing-mode:lr-tb;text-anchor:start;fill:#000000;fill-opacity:1;stroke:none;display:inline;enable-background:new;font-family:DejaVu Sans;-inkscape-font-specification:DejaVu Sans Bold"
         sodipodi:linespacing="125%"
         inkscape:label="icon-name"
         id="icon-name"><tspan
           style="font-size:18px;font-style:normal;font-variant:normal;font-weight:bold;font-stretch:normal;font-family:DejaVu Sans;-inkscape-font-specification:DejaVu Sans Bold"
           y="59.745117"
           x="142.48828"
           sodipodi:role="line"
           id="tspan3937">multimedia-audio-player</tspan></text>
      <rect
         style="fill:#e9e9e9;fill-opacity:1;fill-rule:nonzero;stroke:none;stroke-width:2;marker:none;visibility:visible;display:inline;overflow:visible;enable-background:accumulate"
         id="rect16x16"
         width="16"
         height="16"
         x="-32"
         y="268"
         inkscape:label="16x16"
         transform="scale(-1,1)" />
      <rect
         style="fill:#e9e9e9;fill-opacity:1;fill-rule:nonzero;stroke:none;stroke-width:2;marker:none;visibility:visible;display:inline;overflow:visible;enable-background:accumulate"
         id="rect24x24"
         width="24"
         height="24"
         x="-72"
         y="260"
         inkscape:label="24x24"
         transform="scale(-1,1)" />
      <rect
         style="fill:#e9e9e9;fill-opacity:1;fill-rule:nonzero;stroke:none;stroke-width:2;marker:none;visibility:visible;display:inline;overflow:visible;enable-background:accumulate"
         id="rect32x32"
         width="32"
         height="32"
         x="-120"
         y="252"
         inkscape:label="32x32"
         transform="scale(-1,1)" />
      <rect
         inkscape:label="48x48"
         y="236"
         x="-184"
         height="48"
         width="48"
         id="rect48x48"
         style="fill:#e9e9e9;fill-opacity:1;fill-rule:nonzero;stroke:none;stroke-width:2;marker:none;visibility:visible;display:inline;overflow:visible;enable-background:accumulate"
         transform="scale(-1,1)" />
      <rect
         style="fill:#e9e9e9;fill-opacity:1;fill-rule:nonzero;stroke:none;stroke-width:2;marker:none;visibility:visible;display:inline;overflow:visible;enable-background:accumulate"
         id="rect256x256"
         width="192"
         height="192"
         x="-584"
         y="92"
         inkscape:label="256x256"
         transform="scale(-1,1)" />
      <rect
         inkscape:label="256x256"
         y="188"
         x="-376"
         height="96"
         width="96"
         id="rect3949"
         style="fill:#e9e9e9;fill-opacity:1;fill-rule:nonzero;stroke:none;stroke-width:2;marker:none;visibility:visible;display:inline;overflow:visible;enable-background:accumulate"
         transform="scale(-1,1)" />
      <rect
         style="fill:#e9e9e9;fill-opacity:1;fill-rule:nonzero;stroke:none;stroke-width:2;marker:none;visibility:visible;display:inline;overflow:visible;enable-background:accumulate"
         id="rect3951"
         width="64"
         height="64"
         x="-264"
         y="220"
         inkscape:label="48x48"
         transform="scale(-1,1)" />
    </g>
    <g
       inkscape:groupmode="layer"
       id="layer6"
       inkscape:label="Symbols"
       style="display:inline">
      <path
         transform="translate(0,75)"
         d="m 156,198 a 8,8 0 1 1 -16,0 8,8 0 1 1 16,0 z"
         sodipodi:ry="8"
         sodipodi:rx="8"
         sodipodi:cy="198"
         sodipodi:cx="148"
         id="path4051"
         style="opacity:0.2;fill:#000000;fill-opacity:1;filter:url(#filter4063)"
         sodipodi:type="arc" />
      <path
         style="opacity:0.5;fill:#000000;fill-opacity:1;stroke:none;display:inline;filter:url(#filter3823);enable-background:new"
         d="m 152,239 0,12 0,15.09375 C 150.82104,265.40948 149.46129,265 148,265 c -4.41828,0 -8,3.58172 -8,8 0,4.41828 3.58172,8 8,8 4.41828,0 8,-3.58172 8,-8 l 0,-22 20,0 0,15.09375 C 174.82104,265.40948 173.46129,265 172,265 c -4.41828,0 -8,3.58172 -8,8 0,4.41828 3.58172,8 8,8 4.41828,0 8,-3.58172 8,-8 l 0,-34 -24,0 z"
         id="path4261"
         inkscape:connector-curvature="0"
         sodipodi:nodetypes="cccsssscccssssccc" />
      <path
         sodipodi:type="arc"
         style="fill:#f56e2c;fill-opacity:1"
         id="path3833"
         sodipodi:cx="148"
         sodipodi:cy="198"
         sodipodi:rx="8"
         sodipodi:ry="8"
         d="m 156,198 a 8,8 0 1 1 -16,0 8,8 0 1 1 16,0 z"
         transform="translate(0,74)" />
      <path
         id="path4341"
         d="m 152,238 0,1 4,0 0,-1 z"
         style="opacity:0.4;fill:#ffffff;fill-opacity:1;stroke:none;display:inline;enable-background:new"
         inkscape:connector-curvature="0"
         sodipodi:nodetypes="ccccc" />
      <path
         style="fill:#f56e2c;fill-opacity:1;stroke:none;display:inline;enable-background:new"
         d="m 152,238 c 0,4 0,8 0,12 9.33333,0 18.66667,0 28,0 0,-4 0,-8 0,-12 -9.33333,0 -18.66667,0 -28,0 z"
         id="rect4125"
         inkscape:connector-curvature="0" />
      <path
         sodipodi:nodetypes="ccccc"
         inkscape:connector-curvature="0"
         id="path4071"
         d="m 152,240.25 4,0 0,34 -4,0 z"
         style="opacity:0.2;fill:#000000;fill-opacity:1;filter:url(#filter4075)" />
      <path
         sodipodi:type="arc"
         style="opacity:0.2;fill:#000000;fill-opacity:1;filter:url(#filter4067)"
         id="path4053"
         sodipodi:cx="148"
         sodipodi:cy="198"
         sodipodi:rx="8"
         sodipodi:ry="8"
         d="m 156,198 a 8,8 0 1 1 -16,0 8,8 0 1 1 16,0 z"
         transform="translate(24,75)" />
      <path
         sodipodi:type="arc"
         style="opacity:0.2;fill:#000000;fill-opacity:1;filter:url(#filter4116)"
         id="path4112"
         sodipodi:cx="148"
         sodipodi:cy="198"
         sodipodi:rx="8"
         sodipodi:ry="8"
         d="m 156,198 a 8,8 0 1 1 -16,0 8,8 0 1 1 16,0 z"
         transform="matrix(2,0,0,2,8.0001,-135.031)" />
      <path
         transform="matrix(2,0,0,2,56.0001,-133.031)"
         d="m 156,198 a 8,8 0 1 1 -16,0 8,8 0 1 1 16,0 z"
         sodipodi:ry="8"
         sodipodi:rx="8"
         sodipodi:cy="198"
         sodipodi:cx="148"
         id="path4114"
         style="opacity:0.2;fill:#000000;fill-opacity:1;filter:url(#filter4120)"
         sodipodi:type="arc" />
      <path
         style="opacity:0.50000000000000000;fill:#000000;fill-opacity:1;filter:url(#filter4182)"
         d="m 312,195 0,24 0,30.15625 C 309.64437,247.79134 306.91839,247 304,247 c -8.83656,0 -16,7.16344 -16,16 0,8.83656 7.16344,16 16,16 8.83656,0 16,-7.16344 16,-16 l 0,-44 40,0 0,30.15625 C 357.64437,247.79134 354.91839,247 352,247 c -8.83656,0 -16,7.16344 -16,16 0,8.83656 7.16344,16 16,16 8.83656,0 16,-7.16344 16,-16 l 0,-54 0,-14 -56,0 z"
         id="rect3919"
         inkscape:connector-curvature="0" />
      <path
         style="opacity:0.2;fill:url(#radialGradient3951);fill-opacity:1;stroke:none;display:inline;enable-background:new"
         d="m 152,238 0,12 4,0 12,0 0,0 -12,-12 z"
         id="path4135"
         inkscape:connector-curvature="0"
         sodipodi:nodetypes="ccccccc" />
      <path
         style="opacity:0.2;fill:#ffffff;fill-opacity:1"
         d="m 148,264 c -4.41828,0 -8,3.58172 -8,8 0,0.17009 0.0208,0.33255 0.0312,0.5 0.26124,-4.18235 3.72056,-7.5 7.96875,-7.5 4.24819,0 7.70751,3.31765 7.96875,7.5 0.0105,-0.16745 0.0312,-0.32991 0.0312,-0.5 0,-4.41828 -3.58172,-8 -8,-8 z"
         id="path4083"
         inkscape:connector-curvature="0" />
      <path
         style="fill:#f78b56;fill-opacity:1"
         d="m 152,238 4,0 0,34 -4,0 z"
         id="rect3837"
         inkscape:connector-curvature="0"
         sodipodi:nodetypes="ccccc" />
      <path
         transform="translate(24,74)"
         d="m 156,198 a 8,8 0 1 1 -16,0 8,8 0 1 1 16,0 z"
         sodipodi:ry="8"
         sodipodi:rx="8"
         sodipodi:cy="198"
         sodipodi:cx="148"
         id="path3835"
         style="fill:#f56e2c;fill-opacity:1"
         sodipodi:type="arc" />
      <rect
         ry="8"
         rx="8"
         y="-568"
         x="-268"
         height="160"
         width="160"
         id="rect4189"
         style="fill:#f56e2c;fill-opacity:1;stroke:none"
         transform="matrix(0,-1,-1,0,0,0)" />
      <rect
         ry="3"
         rx="3"
         y="-260"
         x="-280"
         height="56"
         width="56"
         id="rect4229"
         style="fill:#f56e2c;fill-opacity:1;stroke:none"
         transform="matrix(0,-1,-1,0,0,0)" />
      <rect
         ry="1"
         rx="1"
         y="-70"
         x="-282"
         height="20"
         width="20"
         id="rect4243"
         style="fill:#f56e2c;fill-opacity:1;stroke:none"
         transform="matrix(0,-1,-1,0,0,0)" />
      <rect
         transform="matrix(0,-1,-1,0,0,0)"
         style="fill:#f56e2c;fill-opacity:1;stroke:none"
         id="rect4255"
         width="28"
         height="28"
         x="-282"
         y="-118"
         rx="1.5"
         ry="1.5" />
      <rect
         transform="matrix(0,-1,-1,0,0,0)"
         style="display:inline;enable-background:new;fill:#f56e2c;fill-opacity:1;stroke:none"
         id="rect4265"
         width="16"
         height="16"
         x="-284"
         y="-32"
         rx="1"
         ry="1" />
      <path
         style="fill:#f56e2c;fill-opacity:1;stroke:none;display:inline;enable-background:new"
         d="m 312,193.96875 0,24 56,0 0,-24 z"
         id="path4000"
         inkscape:connector-curvature="0"
         sodipodi:nodetypes="ccccc" />
      <path
         sodipodi:nodetypes="ccccccc"
         inkscape:connector-curvature="0"
         id="path4002"
         d="m 312.0001,193.96875 0,24 8,0 24,0 0,0 -24,-24 z"
         style="opacity:0.2;fill:url(#radialGradient4038);fill-opacity:1;stroke:none;display:inline;enable-background:new" />
      <path
         transform="matrix(2,0,0,2,8.0001,-134.03125)"
         d="m 156,198 a 8,8 0 1 1 -16,0 8,8 0 1 1 16,0 z"
         sodipodi:ry="8"
         sodipodi:rx="8"
         sodipodi:cy="198"
         sodipodi:cx="148"
         id="path4006"
         style="fill:#f56e2c;fill-opacity:1"
         sodipodi:type="arc" />
      <path
         sodipodi:type="arc"
         style="fill:#f56e2c;fill-opacity:1"
         id="path4008"
         sodipodi:cx="148"
         sodipodi:cy="198"
         sodipodi:rx="8"
         sodipodi:ry="8"
         d="m 156,198 a 8,8 0 1 1 -16,0 8,8 0 1 1 16,0 z"
         transform="matrix(2,0,0,2,56.0001,-134.03125)" />
      <path
         style="opacity:0.2;fill:#ffffff;fill-opacity:1"
         d="m 304,245.96875 c -8.83656,0 -16,7.16344 -16,16 0,0.17009 0.0183,0.33438 0.0312,0.5 C 288.31578,253.88198 295.34401,247 304,247 c 2.92258,0 5.64218,0.81896 8,2.1875 l 0,-1.03125 c -2.35782,-1.36854 -5.07742,-2.1875 -8,-2.1875 z m 15.8125,16 c 0.041,0.32894 0.104,0.66522 0.125,1 0.021,-0.3349 0.0625,-0.65982 0.0625,-1 l -0.1875,0 z"
         id="path4010"
         inkscape:connector-curvature="0" />
      <path
         style="opacity:0.2;fill:#ffffff;fill-opacity:1"
         d="m 352,245.96875 c -8.83656,0 -16,7.16344 -16,16 0,0.1595 0.0194,0.31336 0.0312,0.46875 0.28453,-8.58677 7.31276,-15.46875 15.96875,-15.46875 2.92258,0 5.64218,0.81896 8,2.1875 l 0,-1 c -2.35782,-1.36854 -5.07742,-2.1875 -8,-2.1875 z m 15.8125,16 c 0.041,0.32894 0.104,0.66522 0.125,1 0.021,-0.3349 0.0625,-0.65982 0.0625,-1 l -0.1875,0 z"
         id="path4012"
         inkscape:connector-curvature="0" />
      <path
         style="fill:#000000;fill-opacity:1;filter:url(#filter4079);opacity:0.2"
         d="m 176,240 4,0 0,34 -4,0 z"
         id="path4073"
         inkscape:connector-curvature="0"
         sodipodi:nodetypes="ccccc" />
      <path
         style="opacity:0.2;fill:#ffffff;fill-opacity:1"
         d="m 172,264 c -4.41828,0 -8,3.58172 -8,8 0,0.17009 0.0208,0.33255 0.0312,0.5 0.26124,-4.18235 3.72056,-7.5 7.96875,-7.5 4.24819,0 7.70751,3.31765 7.96875,7.5 0.0105,-0.16745 0.0312,-0.32991 0.0312,-0.5 0,-4.41828 -3.58172,-8 -8,-8 z"
         id="path4085"
         inkscape:connector-curvature="0" />
      <path
         sodipodi:nodetypes="ccccc"
         inkscape:connector-curvature="0"
         id="path4048"
         d="m 176,238 4,0 0,34 -4,0 z"
         style="fill:#f78b56;fill-opacity:1" />
      <path
         style="opacity:0.2;fill:#ffffff;fill-opacity:1;stroke:none;display:inline;enable-background:new"
         d="m 152,238 0,1 28,0 0,-1 -28,0 z"
         id="rect3059"
         inkscape:connector-curvature="0" />
      <path
         sodipodi:nodetypes="ccccccc"
         inkscape:connector-curvature="0"
         id="path4097"
         d="m 152,272 0,0 4,4 0,0 0,-4 0,0 z"
         style="opacity:0.2;fill:url(#linearGradient4101);fill-opacity:1;stroke:none;display:inline;enable-background:new" />
      <path
         style="opacity:0.2;fill:url(#linearGradient4105);fill-opacity:1;stroke:none;display:inline;enable-background:new"
         d="m 176,272 0,0 4,4 0,0 0,-4 0,0 z"
         id="path4103"
         inkscape:connector-curvature="0"
         sodipodi:nodetypes="ccccccc" />
      <path
         style="opacity:0.2;fill:#000000;fill-opacity:1;filter:url(#filter4128)"
         d="m 312.0001,194.969 8,0 0,68 -8,0 z"
         id="path4124"
         inkscape:connector-curvature="0"
         sodipodi:nodetypes="ccccc" />
      <path
         sodipodi:nodetypes="ccccc"
         inkscape:connector-curvature="0"
         id="path4004"
         d="m 312.0001,193.96875 8,0 0,68 -8,0 z"
         style="fill:#f78b56;fill-opacity:1" />
      <path
         sodipodi:nodetypes="ccccc"
         inkscape:connector-curvature="0"
         id="path4126"
         d="m 360.0001,194.969 8,0 0,68 -8,0 z"
         style="opacity:0.2;fill:#000000;fill-opacity:1;filter:url(#filter4132)" />
      <path
         style="fill:#f78b56;fill-opacity:1"
         d="m 360.0001,193.96875 8,0 0,68 -8,0 z"
         id="path4107"
         inkscape:connector-curvature="0"
         sodipodi:nodetypes="ccccc" />
      <path
         inkscape:connector-curvature="0"
         id="path4014"
         d="m 312.0001,193.96875 0,1 56,0 0,-1 -56,0 z"
         style="opacity:0.2;fill:#ffffff;fill-opacity:1;stroke:none;display:inline;enable-background:new" />
      <path
         style="opacity:0.2;fill:url(#linearGradient4138);fill-opacity:1;stroke:none;display:inline;enable-background:new"
         d="m 312.0001,261.96875 0,0 8,10 0,-10 0,0 z"
         id="path4136"
         inkscape:connector-curvature="0"
         sodipodi:nodetypes="cccccc" />
      <path
         sodipodi:nodetypes="cccccc"
         inkscape:connector-curvature="0"
         id="path4140"
         d="m 360.0001,261.96875 0,0 8,10 0,-10 0,0 z"
         style="opacity:0.2;fill:url(#linearGradient4142);fill-opacity:1;stroke:none;display:inline;enable-background:new" />
      <path
         style="fill:url(#linearGradient4161);fill-opacity:1;opacity:0.2"
         d="m 152,238 0,12 0,15.09375 C 150.82104,264.40948 149.46129,264 148,264 c -4.41828,0 -8,3.58172 -8,8 0,4.41828 3.58172,8 8,8 4.41828,0 8,-3.58172 8,-8 l 0,-22 20,0 0,15.09375 C 174.82104,264.40948 173.46129,264 172,264 c -4.41828,0 -8,3.58172 -8,8 0,4.41828 3.58172,8 8,8 4.41828,0 8,-3.58172 8,-8 l 0,-22 0,-12 -4,0 -24,0 z"
         id="path4144"
         inkscape:connector-curvature="0" />
      <path
         style="fill:url(#linearGradient4180);fill-opacity:1;stroke:none;display:inline;enable-background:new;opacity:0.2"
         d="M 312 117.96875 L 312 141.96875 L 312 172.125 C 309.64437 170.76009 306.91839 169.96875 304 169.96875 C 295.16344 169.96875 288 177.13219 288 185.96875 C 288 194.80531 295.16344 201.96875 304 201.96875 C 312.83656 201.96875 320 194.80531 320 185.96875 L 320 141.96875 L 360 141.96875 L 360 172.125 C 357.64437 170.76009 354.91839 169.96875 352 169.96875 C 343.16344 169.96875 336 177.13219 336 185.96875 C 336 194.80531 343.16344 201.96875 352 201.96875 C 360.83656 201.96875 368 194.80531 368 185.96875 L 368 141.96875 L 368 117.96875 L 360 117.96875 L 312 117.96875 z "
         transform="translate(0,76)"
         id="path4163" />
    </g>
  </g>
</svg>
