<?xml version="1.0" encoding="UTF-8" standalone="no"?>
<!-- Created with Inkscape (http://www.inkscape.org/) -->

<svg
   xmlns:dc="http://purl.org/dc/elements/1.1/"
   xmlns:cc="http://creativecommons.org/ns#"
   xmlns:rdf="http://www.w3.org/1999/02/22-rdf-syntax-ns#"
   xmlns:svg="http://www.w3.org/2000/svg"
   xmlns="http://www.w3.org/2000/svg"
   xmlns:xlink="http://www.w3.org/1999/xlink"
   xmlns:sodipodi="http://sodipodi.sourceforge.net/DTD/sodipodi-0.dtd"
   xmlns:inkscape="http://www.inkscape.org/namespaces/inkscape"
   inkscape:export-ydpi="90.000000"
   inkscape:export-xdpi="90.000000"
   width="736"
   height="544"
   id="svg11300"
   sodipodi:version="0.32"
   inkscape:version="0.91 r13725"
   sodipodi:docname="multimedia-audio-player.svg"
   inkscape:output_extension="org.inkscape.output.svg.inkscape"
   version="1.0"
   style="display:inline;enable-background:new"
   inkscape:export-filename="/home/sam/paper-template.png">
  <title
     id="title3004">Paper Icon Theme</title>
  <sodipodi:namedview
     stroke="#ef2929"
     fill="#f57900"
     id="base"
     pagecolor="#474747"
     bordercolor="#666666"
     borderopacity="0.25490196"
     inkscape:pageopacity="0"
     inkscape:pageshadow="2"
     inkscape:zoom="1"
     inkscape:cx="302.84522"
     inkscape:cy="137.2608"
     inkscape:current-layer="layer6"
     showgrid="false"
     inkscape:grid-bbox="true"
     inkscape:document-units="px"
     inkscape:showpageshadow="false"
     inkscape:window-width="1366"
     inkscape:window-height="704"
     inkscape:window-x="0"
     inkscape:window-y="27"
     width="400px"
     height="300px"
     inkscape:snap-nodes="true"
     inkscape:snap-bbox="true"
     gridtolerance="10000"
     inkscape:object-nodes="true"
     inkscape:snap-grids="true"
     showguides="true"
     inkscape:guide-bbox="true"
     inkscape:window-maximized="1">
    <inkscape:grid
       spacingy="1px"
       spacingx="1px"
       id="grid5883"
       type="xygrid"
       enabled="true"
       visible="true"
       empspacing="4"
       snapvisiblegridlinesonly="true" />
    <inkscape:grid
       type="xygrid"
       id="grid11592"
       empspacing="2"
       visible="true"
       enabled="false"
       spacingx="0.5px"
       spacingy="0.5px"
       color="#ff0000"
       opacity="0.1254902"
       empcolor="#ff0000"
       empopacity="0.25098039"
       snapvisiblegridlinesonly="true" />
  </sodipodi:namedview>
  <defs
     id="defs3">
    <linearGradient
       inkscape:collect="always"
       id="linearGradient4219">
      <stop
         style="stop-color:#ffffff;stop-opacity:1;"
         offset="0"
         id="stop4221" />
      <stop
         style="stop-color:#ffffff;stop-opacity:0;"
         offset="1"
         id="stop4223" />
    </linearGradient>
    <linearGradient
       inkscape:collect="always"
       id="linearGradient4137">
      <stop
         style="stop-color:#000000;stop-opacity:1;"
         offset="0"
         id="stop4139" />
      <stop
         style="stop-color:#000000;stop-opacity:0;"
         offset="1"
         id="stop4141" />
    </linearGradient>
    <linearGradient
       inkscape:collect="always"
       xlink:href="#linearGradient4137"
       id="linearGradient4303"
       gradientUnits="userSpaceOnUse"
       gradientTransform="matrix(0,1,1,0,12.000005,96.000005)"
       x1="153"
       y1="164"
       x2="158"
       y2="169" />
    <radialGradient
       inkscape:collect="always"
       xlink:href="#linearGradient4137"
       id="radialGradient4305"
       gradientUnits="userSpaceOnUse"
       gradientTransform="matrix(0,2,-1.5,0,399,-148)"
       cx="156"
       cy="162"
       fx="156"
       fy="162"
       r="8" />
    <linearGradient
       inkscape:collect="always"
       xlink:href="#linearGradient4219"
       id="linearGradient4307"
       gradientUnits="userSpaceOnUse"
       gradientTransform="translate(0,76)"
       x1="160"
       y1="156"
       x2="160"
       y2="212" />
    <clipPath
       clipPathUnits="userSpaceOnUse"
       id="clipPath4223">
      <path
         sodipodi:nodetypes="sscscssscsss"
         inkscape:connector-curvature="0"
         id="path4225"
         d="m 232,222 c -15.46397,0 -28,12.53603 -28,28 l 0,15.96094 0,0.0391 c 0,7.13929 5.08382,9.082 8,9.61328 L 212,250 c 0,-11.08 8.92,-20 20,-20 11.08,0 20,8.92 20,20 l 0,25.62305 c 2.91618,-0.53471 8,-2.48376 8,-9.62305 l 0,-16 c 0,-15.46397 -12.53603,-28 -28,-28 z"
         style="fill:#f56e2c;fill-opacity:1;stroke:none" />
    </clipPath>
    <clipPath
       clipPathUnits="userSpaceOnUse"
       id="clipPath4240">
      <path
         style="opacity:1;fill:#f56e2c;fill-opacity:1;stroke:none;stroke-opacity:1"
         d="m 327.99995,198 c -19.944,0 -36,16.056 -36,36 l 0,24 c 0,0 0,12 12,12 l 0.004,0 0,-30 -0.004,0 0,-6 c 0,-13.296 10.704,-24 24,-24 13.296,0 24,10.704 24,24 l 0,3.98046 0.004,0 0,32.01954 c 0.0226,-2e-5 11.9961,-0.012 11.9961,-12 l 0,-6 0,-3 0,-15 c 0,-19.944 -16.056,-36 -36,-36 z"
         id="path4242"
         inkscape:connector-curvature="0" />
    </clipPath>
    <clipPath
       clipPathUnits="userSpaceOnUse"
       id="clipPath4255">
      <path
         inkscape:connector-curvature="0"
         id="path4257"
         d="M 487.9999,112.0001 C 448.11196,112.0001 416,144.11206 416,184 l 0,47.99993 c 0,0 0,23.99997 23.99997,23.99997 l 0.008,0 0,-59.99992 -0.008,0 0,-11.99998 c 0,-26.59196 21.40797,-47.99993 47.99993,-47.99993 26.59197,0 47.99994,21.40797 47.99994,47.99993 l 0,7.96091 0.008,0 0,64.03899 C 536.05304,255.99986 560,255.9759 560,231.99993 l 0,-11.99998 0,-5.99999 L 560,184 c 0,-39.88794 -32.11195,-71.9999 -71.9999,-71.9999 z"
         style="opacity:1;fill:#f56e2c;fill-opacity:1;stroke:none;stroke-opacity:1" />
    </clipPath>
    <clipPath
       clipPathUnits="userSpaceOnUse"
       id="clipPath4270">
      <path
         inkscape:connector-curvature="0"
         id="path4272"
         d="m 159.99805,240.00977 c -9.972,0 -18,8.028 -18,18 l 0,12 c 0,0 0,6 6,6 l 0.002,0 0,-15 -0.002,0 0,-3 c 0,-6.648 5.352,-12 12,-12 6.648,0 12,5.352 12,12 l 0,1.99023 0.002,0 0,16.00977 c 0.0113,-10e-6 5.99805,-0.006 5.99805,-6 l 0,-3 0,-1.5 0,-7.5 c 0,-9.972 -8.028,-18 -18,-18 z"
         style="opacity:1;fill:#f56e2c;fill-opacity:1;stroke:none;stroke-opacity:1" />
    </clipPath>
    <filter
       inkscape:collect="always"
       style="color-interpolation-filters:sRGB"
       id="filter4227"
       x="-0.02442858"
       width="1.0488572"
       y="-0.023586199"
       height="1.0471724">
      <feGaussianBlur
         inkscape:collect="always"
         stdDeviation="4.5600016"
         id="feGaussianBlur4229" />
    </filter>
    <filter
       inkscape:collect="always"
       style="color-interpolation-filters:sRGB"
       id="filter4240"
       x="-0.050999999"
       width="1.102"
       y="-0.072857141"
       height="1.1457143">
      <feGaussianBlur
         inkscape:collect="always"
         stdDeviation="6.8"
         id="feGaussianBlur4242" />
    </filter>
    <clipPath
       clipPathUnits="userSpaceOnUse"
       id="clipPath4246">
      <path
         sodipodi:nodetypes="sscscssscsss"
         inkscape:connector-curvature="0"
         id="path4248"
         d="m 456,-212 c -123.71176,0 -224,100.28824 -224,224 l 0,127.68752 0,0.3128 c 0,57.11432 40.67056,72.656 64,76.90624 L 296,12 c 0,-88.64 71.36,-160 160,-160 88.64,0 160,71.36 160,160 l 0,204.9844 C 639.32944,212.70672 680,197.11432 680,140 l 0,-128 c 0,-123.71176 -100.28824,-224 -224,-224 z"
         style="fill:#f56e2c;fill-opacity:1;stroke:none" />
    </clipPath>
  </defs>
  <metadata
     id="metadata4">
    <rdf:RDF>
      <cc:Work
         rdf:about="">
        <dc:format>image/svg+xml</dc:format>
        <dc:type
           rdf:resource="http://purl.org/dc/dcmitype/StillImage" />
        <dc:creator>
          <cc:Agent>
            <dc:title>Sam Hewitt</dc:title>
          </cc:Agent>
        </dc:creator>
        <dc:source />
        <cc:license
           rdf:resource="http://creativecommons.org/licenses/by-sa/3.0/" />
        <dc:title>Paper Icon Theme</dc:title>
        <dc:subject>
          <rdf:Bag />
        </dc:subject>
        <dc:date />
        <dc:rights>
          <cc:Agent>
            <dc:title />
          </cc:Agent>
        </dc:rights>
        <dc:publisher>
          <cc:Agent>
            <dc:title />
          </cc:Agent>
        </dc:publisher>
        <dc:identifier />
        <dc:relation />
        <dc:language />
        <dc:coverage />
        <dc:description />
        <dc:contributor>
          <cc:Agent>
            <dc:title />
          </cc:Agent>
        </dc:contributor>
      </cc:Work>
      <cc:Work
         rdf:about="">
        <dc:format>image/svg+xml</dc:format>
        <dc:type
           rdf:resource="http://purl.org/dc/dcmitype/StillImage" />
      </cc:Work>
    </rdf:RDF>
  </metadata>
  <g
     style="display:inline"
     inkscape:groupmode="layer"
     inkscape:label="Icon"
     id="layer1"
     transform="translate(0,244)">
    <g
       style="display:none"
       inkscape:label="Baseplate"
       id="layer7"
       inkscape:groupmode="layer">
      <text
         y="332.48523"
         xml:space="preserve"
         x="15.006836"
         style="font-style:normal;font-variant:normal;font-weight:normal;font-stretch:normal;font-size:18px;font-family:'DejaVu Sans';-inkscape-font-specification:'DejaVu Sans';display:inline;fill:#000000;fill-opacity:1;stroke:none;enable-background:new"
         inkscape:label="context"
         id="context"><tspan
           style="font-style:normal;font-variant:normal;font-weight:normal;font-stretch:normal;font-family:'DejaVu Sans';-inkscape-font-specification:'DejaVu Sans'"
           y="332.48523"
           x="15.006836"
           sodipodi:role="line"
           id="tspan3933">apps</tspan></text>
      <text
         y="332.48523"
         xml:space="preserve"
         x="142.48828"
         style="font-style:normal;font-variant:normal;font-weight:bold;font-stretch:normal;font-size:18px;line-height:125%;font-family:'DejaVu Sans';-inkscape-font-specification:'DejaVu Sans Bold';text-align:start;writing-mode:lr-tb;text-anchor:start;display:inline;fill:#000000;fill-opacity:1;stroke:none;enable-background:new"
         sodipodi:linespacing="125%"
         inkscape:label="icon-name"
         id="icon-name"><tspan
           style="font-style:normal;font-variant:normal;font-weight:bold;font-stretch:normal;font-size:18px;font-family:'DejaVu Sans';-inkscape-font-specification:'DejaVu Sans Bold'"
           y="332.48523"
           x="142.48828"
           sodipodi:role="line"
           id="tspan3937">multimedia-audio-player</tspan></text>
      <rect
         style="display:inline;overflow:visible;visibility:visible;fill:#e9e9e9;fill-opacity:1;fill-rule:nonzero;stroke:none;stroke-width:2;marker:none;enable-background:accumulate"
         id="rect16x16"
         width="16"
         height="16"
         x="-32"
         y="268"
         inkscape:label="16x16"
         transform="scale(-1,1)" />
      <rect
         style="display:inline;overflow:visible;visibility:visible;fill:#e9e9e9;fill-opacity:1;fill-rule:nonzero;stroke:none;stroke-width:2;marker:none;enable-background:accumulate"
         id="rect24x24"
         width="24"
         height="24"
         x="-72"
         y="260"
         inkscape:label="24x24"
         transform="scale(-1,1)" />
      <rect
         style="display:inline;overflow:visible;visibility:visible;fill:#e9e9e9;fill-opacity:1;fill-rule:nonzero;stroke:none;stroke-width:2;marker:none;enable-background:accumulate"
         id="rect32x32"
         width="32"
         height="32"
         x="-120"
         y="252"
         inkscape:label="32x32"
         transform="scale(-1,1)" />
      <rect
         inkscape:label="48x48"
         y="236"
         x="-184"
         height="48"
         width="48"
         id="rect48x48"
         style="display:inline;overflow:visible;visibility:visible;fill:#e9e9e9;fill-opacity:1;fill-rule:nonzero;stroke:none;stroke-width:2;marker:none;enable-background:accumulate"
         transform="scale(-1,1)" />
      <rect
         style="display:inline;overflow:visible;visibility:visible;fill:#e9e9e9;fill-opacity:1;fill-rule:nonzero;stroke:none;stroke-width:2;marker:none;enable-background:accumulate"
         id="rect3951"
         width="512"
         height="512"
         x="-712"
         y="-228"
         inkscape:label="48x48"
         transform="scale(-1,1)" />
    </g>
    <g
       inkscape:groupmode="layer"
       id="layer6"
       inkscape:label="Symbols"
       style="display:inline">
      <path
         style="opacity:0.2;fill:#000000;fill-opacity:1;stroke:none;stroke-opacity:1"
         d="m 59.998047,265.00391 c -3.324,0 -6,2.676 -6,6 l 0,1 c 0,-3.324 2.676,-6 6,-6 3.32268,0 5.997876,2.67392 6,5.99609 l 0,-0.99609 c 0,-3.324 -2.676,-6 -6,-6 z m 6,6.99609 c 10e-7,10e-4 0,0.003 0,0.004 l 0,0.99609 0.002,0 0,-1 -0.002,0 z m -15,5.00391 0,1 c 0,0 0,3 3,3 l 0.002,0 0,-1 -0.002,0 c -3,0 -3,-3 -3,-3 z m 18,0 c 0,2.997 -2.992347,3 -2.998047,3 l 0,1 c 0.0057,0 2.998047,-0.003 2.998047,-3 l 0,-1 z"
         id="path4237"
         inkscape:connector-curvature="0" />
      <path
         style="opacity:0.2;fill:#000000;fill-opacity:1;stroke:none"
         d="m 24,270 c -2.77,0 -5,2.23 -5,5 l 0,1 c 0,-2.77 2.23,-5 5,-5 2.770003,0 5,2.23 5,5 l 0,-1 c 0,-2.77 -2.229997,-5 -5,-5 z m -7,9.5 0,0.99023 0,0.01 c 0,1.78483 1.270955,2.27148 2,2.4043 l 0,-1 c -0.729045,-0.13282 -2,-0.61947 -2,-2.4043 z m 14,0 c 0,1.78482 -1.27096,2.27261 -2,2.40625 l 0,1 c 0.72904,-0.13364 2,-0.62143 2,-2.40625 l 0,-1 z"
         id="path4239"
         inkscape:connector-curvature="0" />
      <path
         sodipodi:nodetypes="cccccccccc"
         inkscape:connector-curvature="0"
         id="path4278"
         d="m 54,282 0,1 3,0 0,-1 z m 9,0 0,1 3,0 0,-1 z"
         style="opacity:0.2;fill:#000000;fill-opacity:1;stroke:none;stroke-width:4;stroke-linecap:square;stroke-linejoin:round;stroke-miterlimit:4;stroke-dasharray:none;stroke-opacity:1" />
      <path
         style="opacity:0.2;fill:#000000;fill-opacity:1;stroke:none"
         d="m 19,283 0,1 2,0 0,-1 -2,0 z m 8,0 0,1 2,0 0,-1 -2,0 z"
         id="path4282"
         inkscape:connector-curvature="0" />
      <path
         inkscape:connector-curvature="0"
         id="path4231"
         d="m 456,-208 c -123.71176,0 -224,100.28824 -224,224 l 0,127.68752 0,0.3128 c 0,57.11432 40.67056,72.656 64,76.90624 l 0,35.09376 80,0 0,-224 -80,0 0,-16 c 0,-88.64 71.36,-160 160,-160 88.64,0 160,71.36 160,160 l 0,16 -80,0 0,224 80,0 0,-35.0156 c 23.32944,-4.27768 64,-19.87008 64,-76.9844 l 0,-128 c 0,-123.71176 -100.28824,-224 -224,-224 z"
         style="opacity:0.1;fill:#000000;fill-opacity:1;stroke:#000000;stroke-width:8;stroke-miterlimit:4;stroke-dasharray:none;stroke-opacity:1;filter:url(#filter4227)" />
      <g
         style="opacity:0.2;fill:#000000;fill-opacity:1;stroke:#000000;stroke-width:4;stroke-miterlimit:4;stroke-dasharray:none;stroke-opacity:1"
         id="g4334"
         transform="matrix(0.5,0,0,0.5,-20.000975,142)" />
      <g
         transform="matrix(0.5,0,0,0.5,-20.000975,142)"
         id="g4328"
         style="opacity:0.2;fill:#000000;fill-opacity:1" />
      <path
         style="opacity:1;fill:#f56e2c;fill-opacity:1;stroke:none;stroke-opacity:1"
         d="m 159.99805,240.00977 c -9.972,0 -18,8.028 -18,18 l 0,12 c 0,0 0,6 6,6 l 0.002,0 0,-15 -0.002,0 0,-3 c 0,-6.648 5.352,-12 12,-12 6.648,0 12,5.352 12,12 l 0,1.99023 0.002,0 0,16.00977 c 0.0113,-10e-6 5.99805,-0.006 5.99805,-6 l 0,-3 0,-1.5 0,-7.5 c 0,-9.972 -8.028,-18 -18,-18 z"
         id="rect10440"
         inkscape:connector-curvature="0" />
      <path
         style="opacity:0.1;fill:#ffffff;fill-opacity:1;stroke:none;stroke-opacity:1"
         d="m 159.99805,240.00977 c -9.972,0 -18,8.028 -18,18 l 0,0.99023 c 0,-9.972 8.028,-18 18,-18 9.972,0 18,8.028 18,18 l 0,-0.99023 c 0,-9.972 -8.028,-18 -18,-18 z m -12,21 0,0.99023 0.002,0 0,-0.99023 -0.002,0 z"
         id="path4286"
         inkscape:connector-curvature="0" />
      <path
         style="opacity:1;fill:#f78b56;fill-opacity:1;stroke:none;stroke-width:4;stroke-linecap:square;stroke-linejoin:round;stroke-miterlimit:4;stroke-dasharray:none;stroke-opacity:1"
         d="m 149,262 c -1,0 -1,1 -1,1 l 0,16 c 0,0 0,1 1,1 l 4,0 c 0,0 1,0 1,-1 l 0,-16 c 0,-0.875 -0.9375,-1 -0.9375,-1 z m 17,1 0,16 c 0,1 1,1 1,1 l 4,0 c 1,0 1,-1 1,-1 l 0,-16 c 0,-1 -1,-1 -1,-1 l -3.875,0 c 0,0 -1.125,0 -1.125,1 z"
         id="path4267"
         inkscape:connector-curvature="0"
         sodipodi:nodetypes="cccccccccccccccccc" />
      <path
         style="opacity:0.2;fill:#000000;fill-opacity:1;stroke:#000000;stroke-width:0;stroke-miterlimit:4;stroke-dasharray:none;stroke-opacity:1;filter:url(#filter4227)"
         d="m 456,-208 c -123.71176,0 -224,100.28824 -224,224 l 0,127.68752 0,0.3128 c 0,57.11432 40.67056,72.656 64,76.90624 l 0,35.09376 80,0 0,-224 -80,0 0,-16 c 0,-88.64 71.36,-160 160,-160 88.64,0 160,71.36 160,160 l 0,16 -80,0 0,224 80,0 0,-35.0156 c 23.32944,-4.27768 64,-19.87008 64,-76.9844 l 0,-128 c 0,-123.71176 -100.28824,-224 -224,-224 z"
         id="path4207"
         inkscape:connector-curvature="0" />
      <path
         style="fill:#f56e2c;fill-opacity:1;stroke:none"
         d="m 456,-212 c -123.71176,0 -224,100.28824 -224,224 l 0,127.68752 0,0.3128 c 0,57.11432 40.67056,72.656 64,76.90624 L 296,12 c 0,-88.64 71.36,-160 160,-160 88.64,0 160,71.36 160,160 l 0,204.9844 C 639.32944,212.70672 680,197.11432 680,140 l 0,-128 c 0,-123.71176 -100.28824,-224 -224,-224 z"
         id="rect4203"
         inkscape:connector-curvature="0"
         sodipodi:nodetypes="sscscssscsss" />
      <path
         style="fill:#f78b56;fill-opacity:1;stroke:none"
         d="m 296,28 0,224 80,0 0,-224 z m 240,0 0,224 80,0 0,-224 z"
         id="rect4231"
         inkscape:connector-curvature="0"
         sodipodi:nodetypes="cccccccccc" />
      <path
         style="opacity:0.2;fill:#ffffff;fill-opacity:1;stroke:none"
         d="m 456,-288 c -123.71176,0 -224,100.28824 -224,224 l 0,2 c 0,-123.71176 100.28824,-224 224,-224 123.71176,0 224,100.28824 224,224 l 0,-2 c 0,-123.71176 -100.28824,-224 -224,-224 z m -160,240 0,2 80,0 0,-2 -80,0 z m 240,0 0,2 80,0 0,-2 -80,0 z"
         transform="translate(0,76)"
         id="path4264"
         inkscape:connector-curvature="0" />
      <path
         inkscape:connector-curvature="0"
         id="path4291"
         d="m 104,252 c -7.731985,0 -14,6.26801 -14,14 l 0,8.98047 0,0.0195 c 0,3.56964 2.54191,4.541 4,4.80664 L 94,266 c 0,-5.54 4.46,-10 10,-10 5.54,0 10,4.46 10,10 l 0,13.81153 c 1.45809,-0.26736 4,-1.24188 4,-4.81153 l 0,-9 c 0,-7.73199 -6.26802,-14 -14,-14 z"
         style="fill:#f56e2c;fill-opacity:1;stroke:none"
         sodipodi:nodetypes="sscscssscsss" />
      <path
         sodipodi:nodetypes="cccccccccc"
         inkscape:connector-curvature="0"
         id="path4293"
         d="m 94,268 0,14 5,0 0,-14 z m 15,0 0,14 5,0 0,-14 z"
         style="fill:#f78b56;fill-opacity:1;stroke:none" />
      <path
         style="opacity:0.1;fill:#ffffff;fill-opacity:1;stroke:none"
         d="m 104,252 c -7.731985,0 -14,6.26801 -14,14 l 0,1 c 0,-7.73199 6.268015,-14 14,-14 7.73198,0 14,6.26801 14,14 l 0,-1 c 0,-7.73199 -6.26802,-14 -14,-14 z"
         id="path4309"
         inkscape:connector-curvature="0"
         sodipodi:nodetypes="sscscss" />
      <path
         style="opacity:0.1;fill:#ffffff;fill-opacity:1;stroke:none"
         d="m 94,268 0,1 5,0 0,-1 z m 15,0 0,1 5,0 0,-1 z"
         id="path4312"
         inkscape:connector-curvature="0"
         sodipodi:nodetypes="cccccccccc" />
      <path
         inkscape:connector-curvature="0"
         id="path4320"
         d="m 59.99805,262.00488 c -4.986,0 -9,4.014 -9,9 l 0,6 c 0,0 0,3 3,3 l 10e-4,0 0,-7.5 -10e-4,0 0,-1.5 c 0,-3.324 2.676,-6 6,-6 3.324,0 6,2.676 6,6 l 0,0.99512 10e-4,0 0,8.00488 c 0.0057,0 2.999025,-0.003 2.999025,-3 l 0,-1.5 0,-0.75 0,-3.75 c 0,-4.986 -4.014,-9 -9,-9 z"
         style="opacity:1;fill:#f56e2c;fill-opacity:1;stroke:none;stroke-opacity:1"
         sodipodi:nodetypes="sscscccssscccsccsss" />
      <path
         sodipodi:nodetypes="cccccccccccc"
         inkscape:connector-curvature="0"
         id="path4322"
         d="m 54,272 0,9 0,1 3,0 0,-10 z m 9,0 0,10 3,0 0,-1 0,-9 z"
         style="opacity:1;fill:#f78b56;fill-opacity:1;stroke:none;stroke-width:4;stroke-linecap:square;stroke-linejoin:round;stroke-miterlimit:4;stroke-dasharray:none;stroke-opacity:1" />
      <path
         style="opacity:0.1;fill:#ffffff;fill-opacity:1;stroke:none;stroke-opacity:1"
         d="m 59.998047,186.00391 c -4.986,0 -9,4.014 -9,9 l 0,1 c 0,-4.986 4.014,-9 9,-9 4.986,0 9,4.014 9,9 l 0,-1 c 0,-4.986 -4.014,-9 -9,-9 z m -6,10.5 0,-1 0.002,0 0,1 z"
         transform="translate(0,76)"
         id="path4342"
         inkscape:connector-curvature="0"
         sodipodi:nodetypes="sscscssccccc" />
      <path
         style="opacity:0.1;fill:#ffffff;fill-opacity:1;stroke:none;stroke-width:4;stroke-linecap:square;stroke-linejoin:round;stroke-miterlimit:4;stroke-dasharray:none;stroke-opacity:1"
         d="m 54,196 0,1 3,0 0,-1 z m 9,0 0,1 3,0 0,-1 z"
         transform="translate(0,76)"
         id="path4344"
         inkscape:connector-curvature="0"
         sodipodi:nodetypes="cccccccccc" />
      <path
         style="fill:#f56e2c;fill-opacity:1;stroke:none"
         d="m 24,268 c -3.865993,0 -7,3.134 -7,7 l 0,4.49024 0,0.01 c 0,1.78483 1.270955,2.27051 2,2.40333 l 0,-6.90331 c 0,-2.77 2.23,-5 5,-5 2.770003,0 5,2.23 5,5 l 0,6.90577 c 0.72904,-0.13364 2,-0.62091 2,-2.40573 l 0,-4.5 c 0,-3.866 -3.13401,-7 -7,-7 z"
         id="path4352"
         inkscape:connector-curvature="0" />
      <path
         style="fill:#f78b56;fill-opacity:1;stroke:none"
         d="m 19,276 0,7 2,0 0,-7 z m 8,0 0,7 2,0 0,-7 z"
         id="path4354"
         inkscape:connector-curvature="0"
         sodipodi:nodetypes="cccccccccc" />
      <path
         style="opacity:0.1;fill:#ffffff;fill-opacity:1;stroke:none;stroke-width:4;stroke-linecap:square;stroke-linejoin:round;stroke-miterlimit:4;stroke-dasharray:none;stroke-opacity:1"
         d="m 149,262 c -1,0 -1,1 -1,1 l 0,1 c 0,0 0,-1 1,-1 l 4.0625,0 c 0,0 0.9375,0.125 0.9375,1 l 0,-1 c 0,-0.875 -0.9375,-1 -0.9375,-1 L 149,262 Z m 18.125,0 c 0,0 -1.125,0 -1.125,1 l 0,1 c 0,-1 1.125,-1 1.125,-1 l 3.875,0 c 0,0 1,0 1,1 l 0,-1 c 0,-1 -1,-1 -1,-1 l -3.875,0 z"
         id="path4283"
         inkscape:connector-curvature="0" />
      <path
         style="opacity:0.2;fill:#000000;fill-opacity:1;stroke:none;stroke-opacity:1"
         d="m 159.99805,246.00977 c -6.648,0 -12,5.352 -12,12 l 0,1 c 0,-6.648 5.352,-12 12,-12 6.648,0 12,5.352 12,12 l 0,-1 c 0,-6.648 -5.352,-12 -12,-12 z m 12,13.99023 0,1 0.002,0 0,-1 -0.002,0 z m -30,10.00977 0,1 c 0,0 0,6 6,6 l 0.002,0 0,-1 -0.002,0 c -6,0 -6,-6 -6,-6 z m 36,0 c 0,5.994 -5.98675,5.99999 -5.99805,6 l 0,1 c 0.0113,-10e-6 5.99805,-0.006 5.99805,-6 l 0,-1 z"
         id="path4227"
         inkscape:connector-curvature="0" />
      <path
         style="opacity:0.2;fill:#000000;fill-opacity:1;stroke:none"
         d="m 104,256 c -5.54,0 -10,4.46 -10,10 l 0,1 c 0,-5.54 4.46,-10 10,-10 5.54,0 10,4.46 10,10 l 0,-1 c 0,-5.54 -4.46,-10 -10,-10 z m -14,19 0,0.98047 0,0.0195 c 0,3.56964 2.54191,4.541 4,4.80664 l 0,-1 C 92.54191,279.541 90,278.56964 90,275 Z m 28,0 c 0,3.56965 -2.54191,4.54319 -4,4.81055 l 0,1.00195 c 1.45809,-0.26736 4,-1.24285 4,-4.8125 l 0,-1 z"
         id="path4235"
         inkscape:connector-curvature="0" />
      <path
         style="opacity:0.2;fill:#000000;fill-opacity:1;stroke:none;stroke-width:4;stroke-linecap:square;stroke-linejoin:round;stroke-miterlimit:4;stroke-dasharray:none;stroke-opacity:1"
         d="m 148,279 0,1 c 0,0 0,1 1,1 l 4,0 c 0,0 1,0 1,-1 l 0,-1 c 0,0.875 -0.9375,1 -0.9375,1 L 149,280 c -1,0 -1,-1 -1,-1 z m 18,0 0,1 c 0,1 1,1 1,1 l 4,0 c 1,0 1,-1 1,-1 l 0,-1 c 0,1 -1,1 -1,1 l -3.875,0 c 0,0 -1.125,0 -1.125,-1 z"
         id="path4262"
         inkscape:connector-curvature="0" />
      <path
         sodipodi:nodetypes="cccccccccc"
         inkscape:connector-curvature="0"
         id="path4238"
         d="m 296,28 0,224 80,0 0,-224 z m 240,0 0,224 80,0 0,-224 z"
         style="opacity:0.2;fill:#000000;fill-opacity:1;stroke:none;filter:url(#filter4240)"
         clip-path="url(#clipPath4246)" />
      <path
         sodipodi:nodetypes="cccccccccc"
         inkscape:connector-curvature="0"
         id="path4250"
         d="m 94,282 0,1 5,0 0,-1 z m 15,0 0,1 5,0 0,-1 z"
         style="opacity:0.2;fill:#000000;fill-opacity:1;stroke:none" />
    </g>
  </g>
</svg>
