<?xml version="1.0" encoding="UTF-8" standalone="no"?>
<!-- Created with Inkscape (http://www.inkscape.org/) -->

<svg
   xmlns:dc="http://purl.org/dc/elements/1.1/"
   xmlns:cc="http://creativecommons.org/ns#"
   xmlns:rdf="http://www.w3.org/1999/02/22-rdf-syntax-ns#"
   xmlns:svg="http://www.w3.org/2000/svg"
   xmlns="http://www.w3.org/2000/svg"
   xmlns:xlink="http://www.w3.org/1999/xlink"
   xmlns:sodipodi="http://sodipodi.sourceforge.net/DTD/sodipodi-0.dtd"
   xmlns:inkscape="http://www.inkscape.org/namespaces/inkscape"
   inkscape:export-ydpi="90.000000"
   inkscape:export-xdpi="90.000000"
   width="736"
   height="544"
   id="svg11300"
   sodipodi:version="0.32"
   inkscape:version="0.91 r13725"
   sodipodi:docname="nvidia.svg"
   inkscape:output_extension="org.inkscape.output.svg.inkscape"
   version="1.0"
   style="display:inline;enable-background:new"
   inkscape:export-filename="/home/sam/paper-template.png">
  <title
     id="title3004">Paper Icon Theme</title>
  <sodipodi:namedview
     stroke="#ef2929"
     fill="#f57900"
     id="base"
     pagecolor="#000000"
     bordercolor="#666666"
     borderopacity="0.25490196"
     inkscape:pageopacity="0"
     inkscape:pageshadow="2"
     inkscape:zoom="1"
     inkscape:cx="115.10088"
     inkscape:cy="33.55923"
     inkscape:current-layer="layer6"
     showgrid="false"
     inkscape:grid-bbox="true"
     inkscape:document-units="px"
     inkscape:showpageshadow="false"
     inkscape:window-width="1364"
     inkscape:window-height="704"
     inkscape:window-x="0"
     inkscape:window-y="27"
     width="400px"
     height="300px"
     inkscape:snap-nodes="true"
     inkscape:snap-bbox="true"
     gridtolerance="10000"
     inkscape:object-nodes="true"
     inkscape:snap-grids="true"
     showguides="true"
     inkscape:guide-bbox="true"
     inkscape:window-maximized="0"
     inkscape:bbox-nodes="true"
     inkscape:snap-bbox-edge-midpoints="true"
     inkscape:snap-bbox-midpoints="true">
    <inkscape:grid
       spacingy="1px"
       spacingx="1px"
       id="grid5883"
       type="xygrid"
       enabled="true"
       visible="true"
       empspacing="4"
       snapvisiblegridlinesonly="true" />
    <inkscape:grid
       type="xygrid"
       id="grid11592"
       empspacing="2"
       visible="true"
       enabled="false"
       spacingx="0.5px"
       spacingy="0.5px"
       color="#ff0000"
       opacity="0.1254902"
       empcolor="#ff0000"
       empopacity="0.25098039"
       snapvisiblegridlinesonly="true" />
  </sodipodi:namedview>
  <defs
     id="defs3">
    <linearGradient
       id="linearGradient3864">
      <stop
         id="stop3866"
         offset="0"
         style="stop-color:#a248af;stop-opacity:1;" />
      <stop
         id="stop3868"
         offset="1"
         style="stop-color:#a86ab1;stop-opacity:1;" />
    </linearGradient>
    <inkscape:perspective
       id="perspective2865"
       inkscape:persp3d-origin="372.04724 : 350.78739 : 1"
       inkscape:vp_z="744.09448 : 526.18109 : 1"
       inkscape:vp_y="0 : 1000 : 0"
       inkscape:vp_x="0 : 526.18109 : 1"
       sodipodi:type="inkscape:persp3d" />
    <inkscape:perspective
       sodipodi:type="inkscape:persp3d"
       inkscape:vp_x="0 : 0.5 : 1"
       inkscape:vp_y="0 : 1000 : 0"
       inkscape:vp_z="1 : 0.5 : 1"
       inkscape:persp3d-origin="0.5 : 0.33333333 : 1"
       id="perspective2843" />
    <clipPath
       id="clipPath3860"
       clipPathUnits="userSpaceOnUse">
      <rect
         ry="10.5"
         y="0"
         x="0"
         height="21"
         width="72"
         id="rect3862"
         style="color:#000000;display:inline;overflow:visible;visibility:visible;opacity:0.7;fill:#000000;fill-opacity:1;fill-rule:nonzero;stroke:none;stroke-width:2;marker:none;enable-background:new" />
    </clipPath>
    <linearGradient
       gradientTransform="translate(-444.64286,-782.36221)"
       gradientUnits="userSpaceOnUse"
       y2="803.36218"
       x2="464.64285"
       y1="783.36218"
       x1="464.64285"
       id="linearGradient3870"
       xlink:href="#linearGradient3864"
       inkscape:collect="always" />
    <clipPath
       id="clipPath4169"
       clipPathUnits="userSpaceOnUse">
      <path
         style="color:#000000;font-style:normal;font-variant:normal;font-weight:normal;font-stretch:normal;font-size:medium;line-height:normal;font-family:sans-serif;text-indent:0;text-align:start;text-decoration:none;text-decoration-line:none;text-decoration-style:solid;text-decoration-color:#000000;letter-spacing:normal;word-spacing:normal;text-transform:none;direction:ltr;block-progression:tb;writing-mode:lr-tb;baseline-shift:baseline;text-anchor:start;white-space:normal;clip-rule:nonzero;display:inline;overflow:visible;visibility:visible;opacity:1;isolation:auto;mix-blend-mode:normal;color-interpolation:sRGB;color-interpolation-filters:linearRGB;solid-color:#000000;solid-opacity:1;fill:#5f7c8a;fill-opacity:1;fill-rule:nonzero;stroke:none;stroke-width:12;stroke-linecap:square;stroke-linejoin:miter;stroke-miterlimit:4;stroke-dasharray:none;stroke-dashoffset:0;stroke-opacity:1;color-rendering:auto;image-rendering:auto;shape-rendering:auto;text-rendering:auto;enable-background:accumulate"
         d="m 455.14258,782.36133 c -5.71322,0 -10.5,4.78678 -10.5,10.5 0,5.71321 4.78678,10.5 10.5,10.5 l 46,0 c 5.71321,0 10.5,-4.78679 10.5,-10.5 0,-5.71322 -4.78679,-10.5 -10.5,-10.5 z"
         id="path4171"
         inkscape:connector-curvature="0"
         sodipodi:nodetypes="sssssss" />
    </clipPath>
    <clipPath
       id="clipPath4152"
       clipPathUnits="userSpaceOnUse">
      <path
         style="color:#000000;font-style:normal;font-variant:normal;font-weight:normal;font-stretch:normal;font-size:medium;line-height:normal;font-family:sans-serif;text-indent:0;text-align:start;text-decoration:none;text-decoration-line:none;text-decoration-style:solid;text-decoration-color:#000000;letter-spacing:normal;word-spacing:normal;text-transform:none;direction:ltr;block-progression:tb;writing-mode:lr-tb;baseline-shift:baseline;text-anchor:start;white-space:normal;clip-rule:nonzero;display:inline;overflow:visible;visibility:visible;opacity:1;isolation:auto;mix-blend-mode:normal;color-interpolation:sRGB;color-interpolation-filters:linearRGB;solid-color:#000000;solid-opacity:1;fill:#9fb0b9;fill-opacity:1;fill-rule:nonzero;stroke:none;stroke-width:12;stroke-linecap:square;stroke-linejoin:miter;stroke-miterlimit:4;stroke-dasharray:none;stroke-dashoffset:0;stroke-opacity:1;color-rendering:auto;image-rendering:auto;shape-rendering:auto;text-rendering:auto;enable-background:accumulate"
         d="m 455.14258,782.36133 c -5.71322,0 -10.5,4.78678 -10.5,10.5 0,5.71321 4.78678,10.5 10.5,10.5 l 46,0 c 5.71321,0 10.5,-4.78679 10.5,-10.5 0,-5.71322 -4.78679,-10.5 -10.5,-10.5 z"
         id="path4154"
         inkscape:connector-curvature="0"
         sodipodi:nodetypes="sssssss" />
    </clipPath>
    <inkscape:perspective
       id="perspective2865-4"
       inkscape:persp3d-origin="372.04724 : 350.78739 : 1"
       inkscape:vp_z="744.09448 : 526.18109 : 1"
       inkscape:vp_y="0 : 1000 : 0"
       inkscape:vp_x="0 : 526.18109 : 1"
       sodipodi:type="inkscape:persp3d" />
    <inkscape:perspective
       sodipodi:type="inkscape:persp3d"
       inkscape:vp_x="0 : 0.5 : 1"
       inkscape:vp_y="0 : 1000 : 0"
       inkscape:vp_z="1 : 0.5 : 1"
       inkscape:persp3d-origin="0.5 : 0.33333333 : 1"
       id="perspective2843-9" />
    <clipPath
       id="clipPath3860-3"
       clipPathUnits="userSpaceOnUse">
      <rect
         ry="10.5"
         y="0"
         x="0"
         height="21"
         width="72"
         id="rect3862-1"
         style="color:#000000;display:inline;overflow:visible;visibility:visible;opacity:0.7;fill:#000000;fill-opacity:1;fill-rule:nonzero;stroke:none;stroke-width:2;marker:none;enable-background:new" />
    </clipPath>
    <linearGradient
       gradientTransform="translate(-444.64286,-782.36221)"
       gradientUnits="userSpaceOnUse"
       y2="803.36218"
       x2="464.64285"
       y1="783.36218"
       x1="464.64285"
       id="linearGradient4369"
       xlink:href="#linearGradient3864"
       inkscape:collect="always" />
    <linearGradient
       y2="803.36218"
       x2="464.64285"
       y1="783.36218"
       x1="464.64285"
       gradientTransform="translate(-444.64286,-782.36221)"
       gradientUnits="userSpaceOnUse"
       id="linearGradient3789"
       xlink:href="#linearGradient3864"
       inkscape:collect="always" />
    <linearGradient
       y2="803.36218"
       x2="464.64285"
       y1="783.36218"
       x1="464.64285"
       gradientTransform="translate(-444.64286,-782.36221)"
       gradientUnits="userSpaceOnUse"
       id="linearGradient3808"
       xlink:href="#linearGradient3864"
       inkscape:collect="always" />
    <filter
       inkscape:collect="always"
       style="color-interpolation-filters:sRGB"
       id="filter4494"
       x="-0.024"
       width="1.048"
       y="-0.024"
       height="1.048">
      <feGaussianBlur
         inkscape:collect="always"
         stdDeviation="4.48"
         id="feGaussianBlur4496" />
    </filter>
    <clipPath
       clipPathUnits="userSpaceOnUse"
       id="clipPath5865">
      <path
         id="path5867"
         d="M 84,46.5 C 56.568735,46.5 34.5,68.568732 34.5,96 l 0,120 c 0,27.43127 22.068735,49.5 49.5,49.5 l 120,0 c 27.43127,0 49.5,-22.06873 49.5,-49.5 l 0,-120 C 253.5,68.568732 231.43127,46.5 204,46.5 l -120,0 z"
         style="color:#bebebe;display:inline;overflow:visible;visibility:visible;opacity:0.5;fill:#ac4444;fill-opacity:1;fill-rule:nonzero;stroke:none;stroke-width:2;marker:none;enable-background:accumulate"
         inkscape:connector-curvature="0" />
    </clipPath>
    <filter
       inkscape:collect="always"
       style="color-interpolation-filters:sRGB"
       id="filter4322"
       x="-0.018692973"
       width="1.0373859"
       y="-0.033515104"
       height="1.0670302">
      <feGaussianBlur
         inkscape:collect="always"
         stdDeviation="2.5348389"
         id="feGaussianBlur4324" />
    </filter>
  </defs>
  <metadata
     id="metadata4">
    <rdf:RDF>
      <cc:Work
         rdf:about="">
        <dc:format>image/svg+xml</dc:format>
        <dc:type
           rdf:resource="http://purl.org/dc/dcmitype/StillImage" />
        <dc:creator>
          <cc:Agent>
            <dc:title>Sam Hewitt</dc:title>
          </cc:Agent>
        </dc:creator>
        <dc:source />
        <cc:license
           rdf:resource="http://creativecommons.org/licenses/by-sa/3.0/" />
        <dc:title>Paper Icon Theme</dc:title>
        <dc:subject>
          <rdf:Bag />
        </dc:subject>
        <dc:date />
        <dc:rights>
          <cc:Agent>
            <dc:title />
          </cc:Agent>
        </dc:rights>
        <dc:publisher>
          <cc:Agent>
            <dc:title />
          </cc:Agent>
        </dc:publisher>
        <dc:identifier />
        <dc:relation />
        <dc:language />
        <dc:coverage />
        <dc:description />
        <dc:contributor>
          <cc:Agent>
            <dc:title />
          </cc:Agent>
        </dc:contributor>
      </cc:Work>
      <cc:Work
         rdf:about="">
        <dc:format>image/svg+xml</dc:format>
        <dc:type
           rdf:resource="http://purl.org/dc/dcmitype/StillImage" />
      </cc:Work>
      <cc:License
         rdf:about="http://creativecommons.org/licenses/by-sa/3.0/">
        <cc:permits
           rdf:resource="http://creativecommons.org/ns#Reproduction" />
        <cc:permits
           rdf:resource="http://creativecommons.org/ns#Distribution" />
        <cc:requires
           rdf:resource="http://creativecommons.org/ns#Notice" />
        <cc:requires
           rdf:resource="http://creativecommons.org/ns#Attribution" />
        <cc:permits
           rdf:resource="http://creativecommons.org/ns#DerivativeWorks" />
        <cc:requires
           rdf:resource="http://creativecommons.org/ns#ShareAlike" />
      </cc:License>
    </rdf:RDF>
  </metadata>
  <g
     style="display:inline"
     inkscape:groupmode="layer"
     inkscape:label="Icon"
     id="layer1"
     transform="translate(0,244)">
    <g
       style="display:none"
       inkscape:label="Baseplate"
       id="layer7"
       inkscape:groupmode="layer">
      <rect
         transform="scale(-1,1)"
         inkscape:label="48x48"
         y="-228"
         x="-720"
         height="512"
         width="512"
         id="rect4319"
         style="display:inline;overflow:visible;visibility:visible;fill:#e9e9e9;fill-opacity:1;fill-rule:nonzero;stroke:none;stroke-width:2;marker:none;enable-background:accumulate" />
      <text
         y="325.74512"
         xml:space="preserve"
         x="15.006836"
         style="font-style:normal;font-variant:normal;font-weight:normal;font-stretch:normal;font-size:18px;font-family:'DejaVu Sans';-inkscape-font-specification:'DejaVu Sans';display:inline;fill:#000000;fill-opacity:1;stroke:none;enable-background:new"
         inkscape:label="context"
         id="context"><tspan
           style="font-style:normal;font-variant:normal;font-weight:normal;font-stretch:normal;font-family:'DejaVu Sans';-inkscape-font-specification:'DejaVu Sans'"
           y="325.74512"
           x="15.006836"
           sodipodi:role="line"
           id="tspan3933">apps</tspan></text>
      <text
         y="325.74512"
         xml:space="preserve"
         x="142.48828"
         style="font-style:normal;font-variant:normal;font-weight:bold;font-stretch:normal;font-size:18px;line-height:125%;font-family:'DejaVu Sans';-inkscape-font-specification:'DejaVu Sans Bold';text-align:start;writing-mode:lr-tb;text-anchor:start;display:inline;fill:#000000;fill-opacity:1;stroke:none;enable-background:new"
         sodipodi:linespacing="125%"
         inkscape:label="icon-name"
         id="icon-name"><tspan
           style="font-style:normal;font-variant:normal;font-weight:bold;font-stretch:normal;font-size:18px;font-family:'DejaVu Sans';-inkscape-font-specification:'DejaVu Sans Bold'"
           y="325.74512"
           x="142.48828"
           sodipodi:role="line"
           id="tspan3937">nvidia-settings</tspan></text>
      <rect
         style="display:inline;overflow:visible;visibility:visible;fill:#e9e9e9;fill-opacity:1;fill-rule:nonzero;stroke:none;stroke-width:2;marker:none;enable-background:accumulate"
         id="rect16x16"
         width="16"
         height="16"
         x="-32"
         y="268"
         inkscape:label="16x16"
         transform="scale(-1,1)" />
      <rect
         style="display:inline;overflow:visible;visibility:visible;fill:#e9e9e9;fill-opacity:1;fill-rule:nonzero;stroke:none;stroke-width:2;marker:none;enable-background:accumulate"
         id="rect24x24"
         width="24"
         height="24"
         x="-76"
         y="260"
         inkscape:label="24x24"
         transform="scale(-1,1)" />
      <rect
         style="display:inline;overflow:visible;visibility:visible;fill:#e9e9e9;fill-opacity:1;fill-rule:nonzero;stroke:none;stroke-width:2;marker:none;enable-background:accumulate"
         id="rect32x32"
         width="32"
         height="32"
         x="-128"
         y="252"
         inkscape:label="32x32"
         transform="scale(-1,1)" />
      <rect
         inkscape:label="48x48"
         y="236"
         x="-192"
         height="48"
         width="48"
         id="rect48x48"
         style="display:inline;overflow:visible;visibility:visible;fill:#e9e9e9;fill-opacity:1;fill-rule:nonzero;stroke:none;stroke-width:2;marker:none;enable-background:accumulate"
         transform="scale(-1,1)" />
    </g>
    <g
       inkscape:groupmode="layer"
       id="layer6"
       inkscape:label="Symbols"
       style="display:inline">
      <rect
         ry="24"
         rx="24"
         y="-688"
         x="-254"
         height="448"
         width="448"
         id="rect4498"
         style="opacity:0.1;fill:#000000;fill-opacity:1;stroke:#000000;filter:url(#filter4494);stroke-opacity:1;stroke-width:8;stroke-miterlimit:4;stroke-dasharray:none"
         transform="matrix(0,-1,-1,0,0,4)" />
      <rect
         transform="matrix(0,-1,-1,0,0,4)"
         style="opacity:0.2;fill:#000000;fill-opacity:1;stroke:none;filter:url(#filter4494)"
         id="rect4356"
         width="448"
         height="448"
         x="-254"
         y="-688"
         rx="24"
         ry="24" />
      <rect
         transform="matrix(0,-1,-1,0,0,0)"
         style="opacity:0.2;fill:#000000;fill-opacity:1;stroke:none"
         id="rect4641"
         width="20"
         height="20"
         x="-283"
         y="-74"
         rx="1.5"
         ry="1.5" />
      <rect
         ry="2"
         rx="2"
         y="-118"
         x="-283"
         height="28"
         width="28"
         id="rect4635"
         style="opacity:0.2;fill:#000000;fill-opacity:1;stroke:none"
         transform="matrix(0,-1,-1,0,8,0)" />
      <rect
         ry="2"
         rx="2"
         y="-180"
         x="-281"
         height="40"
         width="40"
         id="rect4475"
         style="opacity:0.2;fill:#000000;fill-opacity:1;stroke:none"
         transform="matrix(0,-1,-1,0,8,0)" />
      <rect
         transform="matrix(0,-1,-1,0,0,0)"
         style="fill:#3f3f3f;fill-opacity:1;stroke:none"
         id="rect4203"
         width="40"
         height="40"
         x="-280"
         y="-188"
         rx="2"
         ry="2" />
      <rect
         ry="1.5"
         rx="1.5"
         y="-74"
         x="-282"
         height="20"
         width="20"
         id="rect4243"
         style="fill:#3f3f3f;fill-opacity:1;stroke:none"
         transform="matrix(0,-1,-1,0,0,0)" />
      <rect
         transform="matrix(0,-1,-1,0,0,0)"
         style="fill:#3f3f3f;fill-opacity:1;stroke:none"
         id="rect4255"
         width="28"
         height="28"
         x="-282"
         y="-126"
         rx="2"
         ry="2" />
      <rect
         transform="matrix(0,-1,-1,0,0,0)"
         style="display:inline;fill:#3f3f3f;fill-opacity:1;stroke:none;enable-background:new"
         id="rect4265"
         width="16"
         height="16"
         x="-284"
         y="-32"
         rx="1"
         ry="1" />
      <path
         style="color:#bebebe;display:inline;overflow:visible;visibility:visible;fill:#76b900;fill-opacity:1;fill-rule:nonzero;stroke:none;stroke-width:0;marker:none;enable-background:accumulate"
         d="m 165.00041,240.00014 0,11.98364 c 0.10726,-0.003 0.21301,-0.008 0.31926,-0.009 6.96815,-0.0461 11.48872,6.01563 11.48872,6.01563 0,0 -5.35764,6.66014 -10.93768,6.66014 -0.30202,0 -0.59061,-0.0143 -0.87031,-0.0448 l 0,1.75456 c 0.20504,0.0137 0.41558,0.0179 0.62977,0.0179 5.1926,0 8.95031,-2.70937 12.58641,-5.92163 0.60287,0.49415 3.07004,1.6938 3.57739,2.22006 -3.45727,2.96239 -11.5171,5.3487 -16.08508,5.3487 -0.24158,0 -0.47627,-0.009 -0.70849,-0.0224 l 0,11.99706 20.9996,0 c 0,0 2,0 2,-2 l 0,-36 c 0,-2 -2,-2 -2,-2 z m 0,28.00293 0,-1.64267 c -0.19321,-0.0129 -0.33107,-0.0339 -0.51764,-0.0582 -6.35454,-0.81817 -8.52797,-7.98502 -8.52797,-7.98502 0,0 2.84434,-4.29977 8.52797,-4.74446 0.18291,-0.0131 0.32942,-0.0252 0.51764,-0.0313 0.004,-1.5e-4 -0.004,1.3e-4 0,0 l 0,-1.55762 0,0 c -0.18581,0.007 -0.33283,0.0168 -0.51764,0.0313 -6.29534,0.51744 -11.74674,5.97534 -11.74674,5.97534 0,0 3.08752,9.13589 11.74674,9.97233 0.18761,0.0185 0.32662,0.0294 0.51764,0.0402 z m 1e-5,-14.46167 -1e-5,1.91121 c 0.1536,-0.009 0.35943,-0.018 0.51884,-0.0179 3.29674,0 5.25236,2.62735 5.25236,2.62735 l -2.68085,2.31405 c -1.0804,-1.84331 -1.56672,-2.7616 -3.09035,-3.11077 l 0,5.89477 c 0,0.30464 0.6655,0.0985 1.00428,0.0985 3.91035,0 7.5571,-5.18759 7.5571,-5.18759 0,0 -3.42216,-4.68658 -8.56137,-4.52961 z m -1e-5,9.61873 c -0.19728,-0.0406 -0.33691,-0.09 -0.51764,-0.15218 -2.70754,-0.93107 -3.58612,-4.16707 -3.58612,-4.16707 0,0 1.56731,-1.92534 3.57739,-1.67847 l 0.009,0 c 0.20653,0.0256 0.34251,0.0627 0.51763,0.10294 l 0,-1.81274 c -0.19169,0.0117 -0.33071,0.0287 -0.51763,0.0493 -3.82979,0.42398 -6.13578,3.03915 -6.13578,3.03915 0,0 1.33314,5.10799 6.13578,5.98429 0.18411,0.0334 0.3237,0.0594 0.51762,0.0806 z"
         id="rect4040-0-2"
         inkscape:connector-curvature="0"
         clip-path="none"
         sodipodi:nodetypes="ccccsccsccscccccccccccccccccccccccccccscccccccccccccccc" />
      <path
         style="opacity:0.2;fill:#ffffff;fill-opacity:1;stroke:none"
         d="m 150,240 c -1.108,0 -2,0.892 -2,2 l 0,1 c 0,-1.108 0.892,-2 2,-2 l 36,0 c 1.108,0 2,0.892 2,2 l 0,-1 c 0,-1.108 -0.892,-2 -2,-2 z"
         id="rect4481"
         inkscape:connector-curvature="0"
         sodipodi:nodetypes="sscsscsss" />
      <rect
         transform="matrix(0,-1,-1,0,0,0)"
         style="fill:#3f3f3f;fill-opacity:1;stroke:none"
         id="rect4321"
         width="448"
         height="399.99979"
         x="-252"
         y="-640"
         rx="24"
         ry="24" />
      <path
         style="fill:#ffffff;fill-opacity:1;stroke:none;opacity:0.2"
         d="M 264 48 C 250.704 48 240 58.704 240 72 L 240 74 C 240 60.704 250.704 50 264 50 L 664 50 C 677.296 50 688 60.704 688 74 L 688 72 C 688 58.704 677.296 48 664 48 L 264 48 z "
         transform="translate(0,-244)"
         id="rect4377" />
      <path
         id="path4382"
         d="m 264,252 c -13.296,0 -24,-10.704 -24,-24 l 0,-2 c 0,13.296 10.704,24 24,24 l 400,0 c 13.296,0 24,-10.704 24,-24 l 0,2 c 0,13.296 -10.704,24 -24,24 l -400,0 z"
         style="fill:#000000;fill-opacity:1;stroke:none;opacity:0.1"
         inkscape:connector-curvature="0" />
      <path
         sodipodi:nodetypes="ccccsccsccscccccccccccccccccccccccccccscccccccccccccccc"
         clip-path="none"
         inkscape:connector-curvature="0"
         id="path4260"
         d="m 110,254 0,8.96307 c 0.0751,-0.002 0.1491,-0.006 0.22348,-0.006 4.8777,-0.0323 8.0421,4.21094 8.0421,4.21094 0,0 -3.75035,4.66209 -7.65637,4.66209 -0.21142,0 -0.41343,-0.01 -0.60922,-0.0314 l 0,1.2282 c 0.14353,0.01 0.29091,0.0125 0.44084,0.0125 3.63482,0 6.26521,-1.89657 8.81049,-4.14515 0.422,0.3459 2.14902,1.18566 2.50417,1.55404 -2.42009,2.07367 -8.06197,3.74409 -11.25956,3.74409 -0.1691,0 -0.33339,-0.006 -0.49594,-0.0157 l 0,7.82342 14,0 c 0,0 2.00001,-10e-5 2.00001,-2.0001 l 0,-24 c 0,-2 -2.00001,-1.9999 -2.00001,-1.9999 z m 0,20.17657 0,-1.14987 c -0.13525,-0.009 -0.23175,-0.0237 -0.36235,-0.0407 -4.44818,-0.57272 -5.96958,-5.58951 -5.96958,-5.58951 0,0 1.99104,-3.00984 5.96958,-3.32113 0.12803,-0.009 0.23059,-0.0176 0.36235,-0.0219 0.003,-9e-5 -0.003,9e-5 0,0 l 0,-1.09033 0,0 c -0.13007,0.005 -0.23299,0.0118 -0.36235,0.0219 -4.40674,0.36221 -8.22272,4.18274 -8.22272,4.18274 0,0 2.16126,6.39512 8.22272,6.98063 0.13132,0.0129 0.22863,0.0206 0.36235,0.0281 z m 0,-10.12317 0,1.33785 c 0.10752,-0.006 0.2516,-0.0126 0.36318,-0.0125 2.30772,0 3.67666,1.83914 3.67666,1.83914 l -1.8766,1.61984 c -0.75628,-1.29032 -1.0967,-1.93312 -2.16324,-2.17754 l 0,4.12634 c 0,0.21324 0.46585,0.0689 0.70299,0.0689 2.73725,0 5.28997,-3.63132 5.28997,-3.63132 0,0 -2.39551,-3.2806 -5.99296,-3.17073 z m 0,6.73311 c -0.1381,-0.0284 -0.23584,-0.063 -0.36235,-0.10653 -1.89528,-0.65175 -2.51029,-2.91695 -2.51029,-2.91695 0,0 1.09712,-1.34773 2.50418,-1.17493 l 0.006,0 c 0.14457,0.0179 0.23975,0.0439 0.36234,0.072 l 0,-1.26891 c -0.13419,0.008 -0.2315,0.0201 -0.36234,0.0345 -2.68086,0.29678 -4.29505,2.1274 -4.29505,2.1274 0,0 0.9332,3.57559 4.29505,4.189 0.12887,0.0234 0.22659,0.0416 0.36233,0.0564 z"
         style="color:#bebebe;display:inline;overflow:visible;visibility:visible;fill:#76b900;fill-opacity:1;fill-rule:nonzero;stroke:none;stroke-width:0;marker:none;enable-background:accumulate" />
      <path
         sodipodi:nodetypes="ccccsccsccscccccccccccccccccccccccccccscccccccccccccccc"
         clip-path="none"
         inkscape:connector-curvature="0"
         id="path4262"
         d="m 63,262 0,5.99182 c 0.0536,-0.002 0.10651,-0.004 0.15963,-0.005 3.48407,-0.0231 5.74436,3.00781 5.74436,3.00781 0,0 -2.67882,3.33008 -5.46884,3.33008 -0.15101,0 -0.2953,-0.007 -0.43516,-0.0224 l 0,0.87729 c 0.10253,0.007 0.2078,0.009 0.31489,0.009 2.5963,0 4.47516,-1.35469 6.2932,-2.96082 0.30144,0.24707 1.53503,0.8469 1.7887,1.11003 -1.72863,1.4812 -5.75855,2.67435 -8.04254,2.67435 -0.12079,0 -0.23813,-0.005 -0.35425,-0.0112 l 0,5.99853 9.50001,0 c 0,0 1.5,5.1e-4 1.49999,-1.49949 l 0,-17 C 74,262 72.5,261.99949 72.5,261.99949 Z m 0,14.00146 0,-0.82133 c -0.0966,-0.006 -0.16553,-0.017 -0.25882,-0.0291 -3.17727,-0.40909 -4.26399,-3.99251 -4.26399,-3.99251 0,0 1.42217,-2.14989 4.26399,-2.37223 0.0914,-0.007 0.16471,-0.0126 0.25882,-0.0156 0.002,-8e-5 -0.002,6e-5 0,0 l 0,-0.77881 0,0 c -0.0929,0.004 -0.16641,0.008 -0.25882,0.0156 -3.14767,0.25872 -5.87337,2.98767 -5.87337,2.98767 0,0 1.54376,4.56795 5.87337,4.98616 0.0938,0.009 0.16331,0.0147 0.25882,0.0201 z m 0,-7.23083 0,0.95561 c 0.0768,-0.005 0.17971,-0.009 0.25942,-0.009 1.64837,0 2.62618,1.31368 2.62618,1.31368 l -1.34042,1.15702 C 64.00498,271.26629 63.76181,270.80714 63,270.63256 l 0,2.94739 c 0,0.15231 0.33275,0.0492 0.50214,0.0492 1.95518,0 3.77855,-2.59379 3.77855,-2.59379 0,0 -1.71108,-2.34329 -4.28069,-2.2648 z m 0,4.80936 c -0.0986,-0.0203 -0.16846,-0.045 -0.25882,-0.0761 -1.35377,-0.46553 -1.79306,-2.08353 -1.79306,-2.08353 0,0 0.78366,-0.96267 1.7887,-0.83924 l 0.004,0 c 0.10327,0.0128 0.17126,0.0313 0.25882,0.0515 l 0,-0.90637 c -0.0959,0.006 -0.16536,0.0144 -0.25882,0.0247 -1.91489,0.21199 -3.06789,1.51958 -3.06789,1.51958 0,0 0.66657,2.55399 3.06789,2.99214 0.0921,0.0167 0.16185,0.0297 0.25882,0.0403 z"
         style="color:#bebebe;display:inline;overflow:visible;visibility:visible;fill:#76b900;fill-opacity:1;fill-rule:nonzero;stroke:none;stroke-width:0;marker:none;enable-background:accumulate" />
      <path
         style="color:#bebebe;display:inline;overflow:visible;visibility:visible;fill:#76b900;fill-opacity:1;fill-rule:nonzero;stroke:none;stroke-width:0;marker:none;enable-background:accumulate"
         d="m 23,268 0,5.01184 c 0.0429,-0.001 0.0852,-0.003 0.1277,-0.003 2.78725,-0.0185 4.59547,2.40624 4.59547,2.40624 0,0 -2.14305,2.66405 -4.37505,2.66405 -0.12082,0 -0.23625,-0.006 -0.34813,-0.018 l 0,0.70183 c 0.082,0.006 0.16623,0.007 0.25191,0.007 2.07703,0 3.58011,-1.08375 5.03455,-2.36865 0.24114,0.19766 1.228,0.67752 1.43095,0.88802 -1.38291,1.18495 -4.60683,2.13948 -6.43402,2.13948 -0.0966,0 -0.1905,-0.003 -0.28339,-0.009 l 0,4.58041 7.99997,0 c 0,0 1.00004,0.14263 1.00004,-1.00022 l 0,-14 c 0,-1 -1,-1 -1,-1 z m 0,11.41953 0,-0.65706 c -0.0773,-0.005 -0.13243,-0.0136 -0.20706,-0.0233 -2.54181,-0.32727 -3.41118,-3.194 -3.41118,-3.194 0,0 1.13774,-1.7199 3.41118,-1.89778 0.0732,-0.005 0.13177,-0.0101 0.20706,-0.0125 0.002,-5e-5 -0.002,5e-5 0,0 l 0,-0.62305 0,0 c -0.0743,0.003 -0.13314,0.007 -0.20706,0.0125 -2.51813,0.20697 -4.69868,2.39013 -4.69868,2.39013 0,0 1.235,3.65434 4.69868,3.98891 0.075,0.007 0.13065,0.0118 0.20706,0.0161 z m 0,-5.78465 0,0.76449 c 0.0614,-0.003 0.14377,-0.007 0.20753,-0.007 1.31869,0 2.10094,1.05094 2.10094,1.05094 l -1.07234,0.92562 C 23.80397,275.6316 23.60945,275.26429 23,275.12462 l 0,2.3579 c 0,0.12185 0.2662,0.0394 0.4017,0.0394 1.56414,0 3.02283,-2.07503 3.02283,-2.07503 0,0 -1.36885,-1.87462 -3.42453,-1.81184 z m 0,3.84748 c -0.0789,-0.0162 -0.13477,-0.036 -0.20706,-0.0609 -1.08301,-0.37243 -1.43445,-1.66683 -1.43445,-1.66683 0,0 0.62693,-0.77012 1.43096,-0.67138 l 0.003,0 c 0.0826,0.0102 0.137,0.0251 0.20705,0.0411 l 0,-0.72509 c -0.0767,0.005 -0.13229,0.0115 -0.20705,0.0197 -1.53192,0.16958 -2.45431,1.21565 -2.45431,1.21565 0,0 0.53326,2.04319 2.45431,2.3937 0.0736,0.0134 0.12948,0.0238 0.20704,0.0322 z"
         id="path4264"
         inkscape:connector-curvature="0"
         clip-path="none"
         sodipodi:nodetypes="ccccsccsccscccccccccccccccccccccccccccscccccccccccccccc" />
      <path
         style="fill:#ffffff;fill-opacity:1;stroke:none;opacity:0.2"
         d="M 55.5 506 C 54.669 506 54 506.669 54 507.5 L 54 508.5 C 54 507.669 54.669 507 55.5 507 L 72.5 507 C 73.331 507 74 507.669 74 508.5 L 74 507.5 C 74 506.669 73.331 506 72.5 506 L 55.5 506 z "
         transform="translate(0,-244)"
         id="rect4278" />
      <path
         style="fill:#ffffff;fill-opacity:1;stroke:none;opacity:0.2"
         d="M 100 498 C 98.892 498 98 498.892 98 500 L 98 501 C 98 499.892 98.892 499 100 499 L 124 499 C 125.108 499 126 499.892 126 501 L 126 500 C 126 498.892 125.108 498 124 498 L 100 498 z "
         transform="translate(0,-244)"
         id="rect4283" />
      <path
         style="color:#bebebe;display:inline;overflow:visible;visibility:visible;opacity:0.2;fill:#ffffff;fill-opacity:1;fill-rule:nonzero;stroke:none;stroke-width:0;marker:none;enable-background:accumulate"
         clip-path="none"
         d="m 165.0004,495.98438 c -0.18581,0.007 -0.33277,0.0168 -0.51758,0.0312 -6.29534,0.51744 -11.74609,5.97461 -11.74609,5.97461 0,0 0.11974,0.30978 0.29883,0.72852 0.76462,-0.73249 5.64766,-5.22643 11.44726,-5.70313 0.18481,-0.0145 0.33177,-0.0242 0.51758,-0.0312 z m 0,1.55664 0,1 c 4.29201,-0.1311 7.25266,2.97467 8.15625,4.04882 0.17334,-0.22369 0.4043,-0.51953 0.4043,-0.51953 0,0 -3.42134,-4.68626 -8.56055,-4.52929 z m 0,1.9121 c -0.19169,0.0117 -0.33066,0.0282 -0.51758,0.0488 -3.82979,0.42398 -6.13476,3.03907 -6.13476,3.03907 0,0 0.0943,0.32055 0.25976,0.74414 0.5858,-0.58551 2.63579,-2.42461 5.875,-2.78321 0.18692,-0.0206 0.32589,-0.0371 0.51758,-0.0488 z m 0,1.8125 0,1 c 1.52363,0.34917 2.00944,1.26607 3.08984,3.10938 l 2.68164,-2.3125 c 0,0 -0.18897,-0.2377 -0.51171,-0.55859 l -2.16993,1.87304 c -1.0804,-1.84331 -1.56621,-2.76216 -3.08984,-3.11133 z m 11.37109,1.2168 c -1.05339,1.22406 -5.57937,6.16797 -10.5,6.16797 -0.30202,0 -0.59139,-0.0144 -0.87109,-0.0449 l 0,1 c 0.2797,0.0305 0.56907,0.0449 0.87109,0.0449 5.58004,0 10.9375,-6.66016 10.9375,-6.66016 0,0 -0.28014,-0.3194 -0.4375,-0.50781 z m -20.16211,0.51172 c -0.0805,0.10794 -0.2539,0.32227 -0.2539,0.32227 0,0 2.1728,7.16815 8.52734,7.98632 0.18657,0.0243 0.32437,0.0437 0.51758,0.0566 l 0,-0.99805 c -0.19321,-0.0129 -0.33101,-0.0343 -0.51758,-0.0586 -5.20546,-0.67022 -7.57576,-5.54737 -8.27344,-7.30859 z m 4.95118,0.56055 c -0.16472,0.1649 -0.26368,0.28515 -0.26368,0.28515 0,0 0.8784,3.2369 3.58594,4.16797 0.18073,0.0622 0.3203,0.11175 0.51758,0.15235 l 0,-1 c -0.19728,-0.0406 -0.33685,-0.0902 -0.51758,-0.15235 -1.91227,-0.65759 -2.89983,-2.44813 -3.32226,-3.45312 z m 19.9707,3.64062 c -3.7385,2.71698 -11.12421,4.83008 -15.42188,4.83008 -0.24158,0 -0.47676,-0.008 -0.70898,-0.0215 l 0,0.99804 c 0,0.23261 0.4674,0.0234 0.70898,0.0234 4.56798,0 12.62672,-2.38722 16.08399,-5.34961 -0.12223,-0.12678 -0.36587,-0.2948 -0.66211,-0.48047 z"
         transform="translate(0,-244)"
         id="path4288"
         inkscape:connector-curvature="0"
         sodipodi:nodetypes="cccccccccccccccccccccccccccsccsccccccccccccccccccccscccc" />
      <path
         style="color:#bebebe;display:inline;overflow:visible;visibility:visible;opacity:0.2;fill:#ffffff;fill-opacity:1;fill-rule:nonzero;stroke:none;stroke-width:0;marker:none;enable-background:accumulate"
         clip-path="none"
         d="m 110,506.96319 c -0.13007,0.005 -0.23392,0.0114 -0.36328,0.0215 -4.40674,0.36221 -8.22266,4.18359 -8.22266,4.18359 0,0 0.11714,0.30362 0.30664,0.72266 0.73903,-0.6925 4.01608,-3.5857 7.91602,-3.90625 0.12936,-0.0101 0.23321,-0.0165 0.36328,-0.0215 z m 0,1.08985 0,1 c 2.75227,-0.0841 4.77715,1.79379 5.58789,2.6914 0.23966,-0.29405 0.4043,-0.51953 0.4043,-0.51953 0,0 -2.39474,-3.28174 -5.99219,-3.17187 z m 0,1.33789 c -0.13419,0.008 -0.23244,0.0207 -0.36328,0.0351 -2.68086,0.29678 -4.29492,2.12696 -4.29492,2.12696 0,0 0.0886,0.30343 0.27343,0.73046 0.55207,-0.51295 1.9617,-1.62939 4.02149,-1.85742 0.13084,-0.0144 0.22909,-0.0272 0.36328,-0.0351 z m 0,1.26953 0,1 c 1.06654,0.24442 1.40778,0.88741 2.16406,2.17773 l 1.875,-1.62109 c 0,0 -0.18463,-0.24233 -0.52148,-0.54883 l -1.35352,1.16992 c -0.75628,-1.29032 -1.09752,-1.93331 -2.16406,-2.17773 z m 7.82812,1 c -0.85726,0.9636 -3.28314,3.44813 -6.11132,4.03906 -0.007,0.002 -0.0143,0.004 -0.0215,0.006 -0.32494,0.0954 -0.65739,0.15039 -0.99219,0.15039 -0.22993,0 -0.66653,0.1295 -0.69335,-0.0566 -0.003,-3.4e-4 -0.007,3.4e-4 -0.01,0 l 0,1 c 0.19579,0.0214 0.39795,0.0312 0.60938,0.0312 3.90602,0 7.65624,-4.66211 7.65624,-4.66211 0,0 -0.21501,-0.25582 -0.4375,-0.50781 z m -13.90039,0.40625 c -0.12047,0.1521 -0.25976,0.33008 -0.25976,0.33008 0,0 1.52057,5.01712 5.96875,5.58984 0.1306,0.017 0.22803,0.032 0.36328,0.041 l 0,-1 c -0.13525,-0.009 -0.23268,-0.024 -0.36328,-0.041 -3.50836,-0.45172 -5.15245,-3.58101 -5.70899,-4.91992 z m 3.49415,0.40234 c -0.1741,0.16352 -0.29493,0.29492 -0.29493,0.29492 0,0 0.61449,2.26427 2.50977,2.91602 0.12651,0.0435 0.22518,0.079 0.36328,0.10742 l 0,-1 c -0.1381,-0.0284 -0.23677,-0.0639 -0.36328,-0.10742 -1.23088,-0.42328 -1.88172,-1.48907 -2.21484,-2.21094 z m 13.62109,2.49414 c -2.67806,1.82633 -7.62106,3.22852 -10.54688,3.22852 -0.1691,0 -0.33354,-0.006 -0.49609,-0.0156 l 0,1 c 0,0.16286 0.32699,0.0156 0.49609,0.0156 3.19759,0 8.83968,-1.67047 11.25977,-3.74414 -0.11628,-0.12061 -0.39644,-0.29658 -0.71289,-0.48438 z"
         transform="translate(0,-244)"
         id="path4293"
         inkscape:connector-curvature="0"
         sodipodi:nodetypes="cccccccccccccccccccccccccccccscccsccccccccccccccccccccsccc" />
      <path
         style="color:#bebebe;display:inline;overflow:visible;visibility:visible;opacity:0.2;fill:#000000;fill-opacity:1;fill-rule:nonzero;stroke:none;stroke-width:0;marker:none;enable-background:accumulate"
         clip-path="none"
         d="m 110.22266,262.95733 c -0.0744,0 -0.14756,0.004 -0.22266,0.006 l 0,1 c 0.0751,-0.002 0.14828,-0.006 0.22266,-0.006 3.94236,-0.0261 6.66771,2.64101 7.60546,3.70313 0.19694,-0.22136 0.4375,-0.49219 0.4375,-0.49219 0,0 -3.16526,-4.24324 -8.04296,-4.21094 z M 110,264.05304 c -0.13176,0.004 -0.23525,0.0125 -0.36328,0.0215 -3.97854,0.31129 -5.96875,3.32227 -5.96875,3.32227 0,0 0.11068,0.31125 0.25976,0.66992 0.57211,-0.7223 2.42252,-2.73505 5.70899,-2.99219 0.12803,-0.009 0.23152,-0.0172 0.36328,-0.0215 z m 0.36328,1.32617 c -0.11158,-10e-5 -0.25576,0.006 -0.36328,0.0117 l 0,1 c 0.10752,-0.006 0.2517,-0.0118 0.36328,-0.0117 1.47427,0 2.55845,0.7469 3.1543,1.28906 l 0.52148,-0.45117 c 0,0 -1.36806,-1.83789 -3.67578,-1.83789 z m -1.24414,1.20898 c -1.15262,0.1422 -1.99219,1.17578 -1.99219,1.17578 0,0 0.11511,0.31544 0.29493,0.70508 0.40999,-0.38508 1.22132,-1.00215 2.20898,-0.88086 l 0.006,0 c 0.14457,0.0179 0.24069,0.0442 0.36328,0.0723 l 0,-1 c -0.12259,-0.0281 -0.21871,-0.0544 -0.36328,-0.0723 l -0.006,0 c -0.17588,-0.0216 -0.34706,-0.0203 -0.51172,0 z m 6.46875,1.15625 c -0.80604,0.98897 -2.77486,3.11133 -4.88477,3.11133 -0.23713,0 -0.70312,0.14488 -0.70312,-0.0684 l 0,1 c 0,0.006 0.009,0.006 0.01,0.0117 0.19285,0.0207 0.39156,0.0312 0.59961,0.0312 0.36447,0 0.72709,-0.0514 1.08593,-0.125 0.007,-0.002 0.0143,-0.004 0.0215,-0.006 2.32235,-0.69506 4.27539,-3.47461 4.27539,-3.47461 0,0 -0.15533,-0.20483 -0.4043,-0.48047 z m -13.86719,0.14649 c -0.096,0.09 -0.30664,0.27734 -0.30664,0.27734 0,0 2.1612,6.39496 8.22266,6.98047 0.13132,0.0129 0.22956,0.0198 0.36328,0.0273 l 0,-1 c -0.13372,-0.007 -0.23196,-0.0144 -0.36328,-0.0273 -4.84078,-0.4676 -7.16451,-4.59607 -7.91602,-6.25781 z m 3.89453,0.39257 c -0.16645,0.15467 -0.27343,0.26954 -0.27343,0.26954 0,0 0.93307,3.57604 4.29492,4.18945 0.12887,0.0234 0.22754,0.0418 0.36328,0.0566 l 0,-1 c -0.13574,-0.0148 -0.23441,-0.0332 -0.36328,-0.0566 -2.40708,-0.4392 -3.5556,-2.38239 -4.02149,-3.45899 z m 13.63672,0.61133 c -2.54528,2.24858 -5.17572,4.14453 -8.81054,4.14453 -0.14993,0 -0.29788,-0.002 -0.44141,-0.0117 l 0,1 c 0.14353,0.01 0.29148,0.0117 0.44141,0.0117 3.63482,0 6.26526,-1.89595 8.81054,-4.14453 0.28384,0.23265 1.14095,0.68258 1.79102,1.06836 0.24876,-0.16964 0.5072,-0.33938 0.71289,-0.51562 -0.35515,-0.36838 -2.08191,-1.20684 -2.50391,-1.55274 z"
         id="path4300"
         inkscape:connector-curvature="0"
         sodipodi:nodetypes="ccccccccccccccccccccccccccccccccscscsccccccccccccccccccccsccscccc" />
      <path
         style="display:inline;opacity:0.2;fill:#ffffff;fill-opacity:1;stroke:none;enable-background:new"
         d="m 17,512 c -0.554,0 -1,0.446 -1,1 l 0,1 c 0,-0.554 0.446,-1 1,-1 l 14,0 c 0.554,0 1,0.446 1,1 l 0,-1 c 0,-0.554 -0.446,-1 -1,-1 z"
         transform="translate(0,-244)"
         id="rect4305"
         inkscape:connector-curvature="0"
         sodipodi:nodetypes="sscsscsss" />
      <path
         sodipodi:nodetypes="cccccccccccccccccccccsccccccccscccccccccscccscccccccccccsccscccc"
         inkscape:connector-curvature="0"
         id="path4326"
         d="m 435.57617,-61.88477 c -1.19,0.0112 -2.37486,0.06797 -3.57617,0.10157 l 0,2 c 1.20131,-0.0336 2.38617,-0.09037 3.57617,-0.10157 72.56385,-0.48006 121.36714,58.10838 127.8711,66.34766 0.50686,-0.60771 0.80273,-0.97266 0.80273,-0.97266 0,0 -50.63055,-67.89132 -128.67383,-67.375 z M 432,-44.33789 c -2.10807,0.06832 -3.74829,0.20484 -5.79688,0.35156 -63.65666,4.98053 -95.51367,53.13672 -95.51367,53.13672 0,0 0.17721,0.54811 0.44922,1.35547 3.96734,-5.61826 35.65526,-47.84398 95.06445,-52.49219 2.04859,-0.14672 3.68881,-0.28324 5.79688,-0.35156 z m 5.81055,21.20508 c -1.78479,-0.0011 -4.08846,0.1004 -5.8086,0.20117 l 0,2 c 1.72014,-0.10077 4.02381,-0.20229 5.8086,-0.20117 32.60114,0 53.43445,22.87133 57.8789,28.24219 l 0.94727,-0.81641 c 0,0 -21.90268,-29.42578 -58.82617,-29.42578 z m -15.86524,19.10547 c -20.47857,0.09082 -35.9082,19.04296 -35.9082,19.04296 0,0 0.16599,0.58369 0.45312,1.47852 2.25325,-2.62596 18.69804,-20.84631 39.61524,-18.27734 l 0.0996,0 c 2.31236,0.28662 3.83452,0.70378 5.79492,1.15429 l 0,-2 c -1.9604,-0.45051 -3.48256,-0.86767 -5.79492,-1.15429 l -0.0996,0 c -1.40706,-0.17281 -2.79492,-0.2502 -4.16016,-0.24414 z M 295.17969,6.97461 c -0.0725,0.07169 -0.54102,0.51758 -0.54102,0.51758 0,0 34.58118,102.32133 131.56445,111.68945 2.10123,0.2072 3.65745,0.32826 5.79688,0.44922 l 0,-1.99805 0,-0.002 c -2.13943,-0.12096 -3.69565,-0.24202 -5.79688,-0.44922 C 335.89819,108.45862 299.73702,19.23396 295.17969,6.97461 Z M 527.12891,7.42383 C 523.23228,12.81 484.7874,64.49414 443.24805,64.49414 439.45372,64.49414 432,66.80455 432,63.39258 l 0,2 0,0.002 c 0.003,3.40888 7.45451,1.09961 11.24805,1.09961 43.79592,0 84.63867,-58.09961 84.63867,-58.09961 0,0 -0.53823,-0.68259 -0.75781,-0.9707 z m -169.19336,5.7539 c -0.11475,0.12549 -0.45117,0.48047 -0.45117,0.48047 0,0 14.93113,57.20888 68.7207,67.02344 2.06136,0.37396 3.62412,0.6669 5.79492,0.9043 l 0,-2 c -2.1708,-0.2374 -3.73356,-0.53034 -5.79492,-0.9043 -48.8221,-8.90818 -65.58121,-56.72286 -68.26953,-65.50391 z m 222.08593,19.9336 c -40.72432,35.97731 -82.81163,66.32226 -140.96875,66.32226 -2.39893,0 -4.75628,-0.04578 -7.05273,-0.19921 l 0,2 c 2.29645,0.15343 4.6538,0.19921 7.05273,0.19921 58.15712,0 100.24443,-30.34495 140.96875,-66.32226 6.38025,5.22965 31.3925,17.51202 38.92383,23.82226 0.38287,-0.3187 0.76922,-0.63711 1.14258,-0.95703 -5.68232,-5.89411 -33.31427,-19.33075 -40.06641,-24.86523 z"
         clip-path="none"
         style="color:#bebebe;display:inline;overflow:visible;visibility:visible;opacity:0.1;fill:#000000;fill-opacity:1;fill-rule:nonzero;stroke:#000000;stroke-width:8;marker:none;enable-background:accumulate;filter:url(#filter4322);stroke-opacity:1;stroke-miterlimit:4;stroke-dasharray:none" />
      <path
         sodipodi:nodetypes="ccccsccsccscccccccccccccccccccccccccccscccccccccccccccc"
         clip-path="none"
         inkscape:connector-curvature="0"
         id="path4310"
         d="m 432,-196 0,134.216766 c 1.20131,-0.0336 2.38571,-0.0896 3.57571,-0.1008 78.04328,-0.51632 128.67366,67.375056 128.67366,67.375056 0,0 -60.00557,74.593568 -122.50201,74.593568 -3.38263,0 -6.61484,-0.16016 -9.74748,-0.50176 l 0,19.65107 c 2.29645,0.15344 4.6545,0.20048 7.05343,0.20048 58.15712,0 100.24347,-30.344942 140.96779,-66.322254 6.75214,5.53448 34.38445,18.97056 40.06677,24.864672 -38.72143,33.178772 -128.99152,59.905442 -180.1529,59.905442 -2.70569,0 -5.33422,-0.1008 -7.93509,-0.25088 l 0,134.36707 L 664,252 c 0,0 24,0 24,-24 l 0,-400 c 0,-24 -24,-24 -24,-24 z m 0,313.63281 0,-18.3979 c -2.16396,-0.14448 -3.70799,-0.37968 -5.79757,-0.65184 -71.17085,-9.1635 -95.51327,-89.432224 -95.51327,-89.432224 0,0 31.85661,-48.157424 95.51327,-53.137952 2.04859,-0.14672 3.6895,-0.28224 5.79757,-0.35056 0.0448,-0.0017 -0.0448,0.0015 0,0 l 0,-17.445344 0,0 c -2.08108,0.0784 -3.7277,0.18816 -5.79757,0.35056 -70.50781,5.795328 -131.56349,66.923808 -131.56349,66.923808 0,0 34.58022,102.321972 131.56349,111.690092 2.10123,0.2072 3.65814,0.32928 5.79757,0.45024 z m 1.1e-4,-161.9707 L 432,-22.932338 c 1.72032,-0.1008 4.02561,-0.2016 5.811,-0.20048 36.92349,0 58.82644,29.42632 58.82644,29.42632 l -30.02552,25.91736 C 454.51144,11.56579 449.06465,1.280942 432,-2.629762 l 0,66.021424 c 0,3.411968 7.4536,1.1032 11.24793,1.1032 43.79592,0 84.63952,-58.101008 84.63952,-58.101008 0,0 -38.32819,-52.489696 -95.88734,-50.731632 z M 432,63.391886 c -2.20954,-0.45472 -3.7734,-1.008 -5.79757,-1.704416 -30.32445,-10.427984 -40.16455,-46.671184 -40.16455,-46.671184 0,0 17.55388,-21.563808 40.06677,-18.798864 l 0.1008,0 c 2.31314,0.28672 3.83611,0.70224 5.79746,1.152928 l 0,-20.302688 c -2.14693,0.13104 -3.70395,0.32144 -5.79746,0.55216 -42.89365,4.748576 -68.72073,34.03848 -68.72073,34.03848 0,0 14.93116,57.209488 68.72073,67.024048 2.06203,0.37408 3.62544,0.66528 5.79735,0.90272 z"
         style="color:#bebebe;display:inline;overflow:visible;visibility:visible;fill:#76b900;fill-opacity:1;fill-rule:nonzero;stroke:none;stroke-width:0;marker:none;enable-background:accumulate" />
      <path
         style="color:#bebebe;display:inline;overflow:visible;visibility:visible;opacity:0.2;fill:#ffffff;fill-opacity:1;fill-rule:nonzero;stroke:none;stroke-width:0;marker:none;enable-background:accumulate"
         clip-path="none"
         d="m 432,182.2168 c -2.08108,0.0784 -3.727,0.18916 -5.79688,0.35156 -70.50781,5.79533 -131.56445,66.92383 -131.56445,66.92383 0,0 0.20399,0.5758 0.54102,1.48242 2.88848,-2.85398 62.24323,-60.75292 131.02343,-66.40625 2.06988,-0.1624 3.7158,-0.27316 5.79688,-0.35156 z m 2.68359,17.40234 c -0.8899,0.001 -1.78423,0.0155 -2.68359,0.043 l 0,2 c 54.45763,-1.66333 91.27338,44.70302 95.12891,49.76172 0.21167,-0.2926 0.75781,-1.0293 0.75781,-1.0293 0,0 -37.1395,-50.86288 -93.20313,-50.77539 z M 432,221.06836 c -2.14582,0.13104 -3.70211,0.32014 -5.79492,0.55078 -42.89365,4.74858 -68.7207,34.03906 -68.7207,34.03906 0,0 0.17764,0.62609 0.45117,1.51953 2.31007,-2.52614 27.40575,-29.03473 68.26953,-33.55859 2.09281,-0.23064 3.6491,-0.41974 5.79492,-0.55078 z m 0.002,20.30273 0,2 c 17.06317,3.91103 22.50934,14.19553 34.60938,34.83985 l 30.02539,-25.91797 c 0,0 -0.35801,-0.47151 -0.94727,-1.18359 l -29.07812,25.10156 c -12.10004,-20.64432 -17.54621,-30.92882 -34.60938,-34.83985 z m 131.44532,9.0918 c -7.16805,8.59421 -63.33017,73.62109 -121.69922,73.62109 -3.38194,0 -6.61406,-0.16049 -9.7461,-0.50195 l 0,2 c 3.13204,0.34146 6.36416,0.50195 9.7461,0.50195 62.49644,0 122.50195,-74.59375 122.50195,-74.59375 0,0 -0.31161,-0.40518 -0.80273,-1.02734 z m -232.3086,4.04297 c -0.28364,0.40168 -0.44922,0.64453 -0.44922,0.64453 0,0 24.34282,80.27009 95.51367,89.43359 2.08959,0.27216 3.63292,0.50592 5.79688,0.6504 l 0,-2 c -2.16396,-0.14448 -3.70729,-0.37824 -5.79688,-0.6504 -65.93911,-8.48989 -91.63615,-77.90242 -95.06445,-88.07812 z m 55.35156,5.98828 c -0.17189,0.20033 -0.45312,0.52148 -0.45312,0.52148 0,0 9.84156,36.2439 40.16601,46.67188 2.02418,0.69642 3.58734,1.25036 5.79688,1.70508 l 0,-2 c -2.20954,-0.45472 -3.7727,-1.00866 -5.79688,-1.70508 -26.77237,-9.20649 -37.54872,-38.44893 -39.71289,-45.19336 z m 232.45508,42.43945 c -39.32422,32.73376 -128.34169,58.94922 -179.00976,58.94922 -2.70569,0 -5.33468,-0.10187 -7.93555,-0.25195 l 0,0.002 0,1.99805 c 2.60087,0.15008 5.22986,0.25195 7.93555,0.25195 51.16138,0 141.43091,-26.72748 180.15234,-59.90625 -0.31297,-0.32463 -0.70359,-0.67515 -1.14258,-1.04297 z"
         transform="translate(0,-244)"
         id="path4312"
         inkscape:connector-curvature="0"
         sodipodi:nodetypes="cccccccsccccscccccccccccccccsccscccccccccccccccccscccscc" />
      <path
         style="color:#bebebe;display:inline;overflow:visible;visibility:visible;opacity:0.2;fill:#000000;fill-opacity:1;fill-rule:nonzero;stroke:none;stroke-width:0;marker:none;enable-background:accumulate;filter:url(#filter4322)"
         clip-path="none"
         d="m 435.57617,-61.88477 c -1.19,0.0112 -2.37486,0.06797 -3.57617,0.10157 l 0,2 c 1.20131,-0.0336 2.38617,-0.09037 3.57617,-0.10157 72.56385,-0.48006 121.36714,58.10838 127.8711,66.34766 0.50686,-0.60771 0.80273,-0.97266 0.80273,-0.97266 0,0 -50.63055,-67.89132 -128.67383,-67.375 z M 432,-44.33789 c -2.10807,0.06832 -3.74829,0.20484 -5.79688,0.35156 -63.65666,4.98053 -95.51367,53.13672 -95.51367,53.13672 0,0 0.17721,0.54811 0.44922,1.35547 3.96734,-5.61826 35.65526,-47.84398 95.06445,-52.49219 2.04859,-0.14672 3.68881,-0.28324 5.79688,-0.35156 z m 5.81055,21.20508 c -1.78479,-0.0011 -4.08846,0.1004 -5.8086,0.20117 l 0,2 c 1.72014,-0.10077 4.02381,-0.20229 5.8086,-0.20117 32.60114,0 53.43445,22.87133 57.8789,28.24219 l 0.94727,-0.81641 c 0,0 -21.90268,-29.42578 -58.82617,-29.42578 z m -15.86524,19.10547 c -20.47857,0.09082 -35.9082,19.04296 -35.9082,19.04296 0,0 0.16599,0.58369 0.45312,1.47852 2.25325,-2.62596 18.69804,-20.84631 39.61524,-18.27734 l 0.0996,0 c 2.31236,0.28662 3.83452,0.70378 5.79492,1.15429 l 0,-2 c -1.9604,-0.45051 -3.48256,-0.86767 -5.79492,-1.15429 l -0.0996,0 c -1.40706,-0.17281 -2.79492,-0.2502 -4.16016,-0.24414 z M 295.17969,6.97461 c -0.0725,0.07169 -0.54102,0.51758 -0.54102,0.51758 0,0 34.58118,102.32133 131.56445,111.68945 2.10123,0.2072 3.65745,0.32826 5.79688,0.44922 l 0,-1.99805 0,-0.002 c -2.13943,-0.12096 -3.69565,-0.24202 -5.79688,-0.44922 C 335.89819,108.45862 299.73702,19.23396 295.17969,6.97461 Z M 527.12891,7.42383 C 523.23228,12.81 484.7874,64.49414 443.24805,64.49414 439.45372,64.49414 432,66.80455 432,63.39258 l 0,2 0,0.002 c 0.003,3.40888 7.45451,1.09961 11.24805,1.09961 43.79592,0 84.63867,-58.09961 84.63867,-58.09961 0,0 -0.53823,-0.68259 -0.75781,-0.9707 z m -169.19336,5.7539 c -0.11475,0.12549 -0.45117,0.48047 -0.45117,0.48047 0,0 14.93113,57.20888 68.7207,67.02344 2.06136,0.37396 3.62412,0.6669 5.79492,0.9043 l 0,-2 c -2.1708,-0.2374 -3.73356,-0.53034 -5.79492,-0.9043 -48.8221,-8.90818 -65.58121,-56.72286 -68.26953,-65.50391 z m 222.08593,19.9336 c -40.72432,35.97731 -82.81163,66.32226 -140.96875,66.32226 -2.39893,0 -4.75628,-0.04578 -7.05273,-0.19921 l 0,2 c 2.29645,0.15343 4.6538,0.19921 7.05273,0.19921 58.15712,0 100.24443,-30.34495 140.96875,-66.32226 6.38025,5.22965 31.3925,17.51202 38.92383,23.82226 0.38287,-0.3187 0.76922,-0.63711 1.14258,-0.95703 -5.68232,-5.89411 -33.31427,-19.33075 -40.06641,-24.86523 z"
         id="path4317"
         inkscape:connector-curvature="0"
         sodipodi:nodetypes="cccccccccccccccccccccsccccccccscccccccccscccscccccccccccsccscccc" />
    </g>
  </g>
</svg>
