<?xml version="1.0" encoding="UTF-8" standalone="no"?>
<!-- Created with Inkscape (http://www.inkscape.org/) -->

<svg
   xmlns:dc="http://purl.org/dc/elements/1.1/"
   xmlns:cc="http://creativecommons.org/ns#"
   xmlns:rdf="http://www.w3.org/1999/02/22-rdf-syntax-ns#"
   xmlns:svg="http://www.w3.org/2000/svg"
   xmlns="http://www.w3.org/2000/svg"
   xmlns:sodipodi="http://sodipodi.sourceforge.net/DTD/sodipodi-0.dtd"
   xmlns:inkscape="http://www.inkscape.org/namespaces/inkscape"
   inkscape:export-ydpi="90.000000"
   inkscape:export-xdpi="90.000000"
   width="736"
   height="544"
   id="svg11300"
   sodipodi:version="0.32"
   inkscape:version="0.91 r13725"
   sodipodi:docname="pgadmin.svg"
   inkscape:output_extension="org.inkscape.output.svg.inkscape"
   version="1.0"
   style="display:inline;enable-background:new"
   inkscape:export-filename="/home/sam/paper-template.png">
  <title
     id="title3004">Paper Icon Theme Template</title>
  <sodipodi:namedview
     stroke="#ef2929"
     fill="#f57900"
     id="base"
     pagecolor="#6b6b6b"
     bordercolor="#000000"
     borderopacity="0.25490196"
     inkscape:pageopacity="0"
     inkscape:pageshadow="2"
     inkscape:zoom="1"
     inkscape:cx="462.83298"
     inkscape:cy="228.39258"
     inkscape:current-layer="layer6"
     showgrid="false"
     inkscape:grid-bbox="true"
     inkscape:document-units="px"
     inkscape:showpageshadow="false"
     inkscape:window-width="1920"
     inkscape:window-height="1023"
     inkscape:window-x="0"
     inkscape:window-y="27"
     width="400px"
     height="300px"
     inkscape:snap-nodes="true"
     inkscape:snap-bbox="true"
     gridtolerance="10000"
     inkscape:object-nodes="true"
     inkscape:snap-grids="true"
     showguides="true"
     inkscape:guide-bbox="true"
     inkscape:window-maximized="1"
     inkscape:bbox-paths="true"
     inkscape:snap-bbox-midpoints="true"
     inkscape:snap-global="true"
     inkscape:object-paths="false"
     inkscape:snap-intersection-paths="false"
     inkscape:snap-smooth-nodes="false">
    <inkscape:grid
       spacingy="1px"
       spacingx="1px"
       id="grid5883"
       type="xygrid"
       enabled="true"
       visible="true"
       empspacing="4"
       snapvisiblegridlinesonly="true" />
    <inkscape:grid
       type="xygrid"
       id="grid11592"
       empspacing="2"
       visible="true"
       enabled="false"
       spacingx="0.5px"
       spacingy="0.5px"
       color="#ff0000"
       opacity="0.1254902"
       empcolor="#ff0000"
       empopacity="0.25098039"
       snapvisiblegridlinesonly="true" />
  </sodipodi:namedview>
  <defs
     id="defs3">
    <filter
       inkscape:collect="always"
       style="color-interpolation-filters:sRGB"
       id="filter4647"
       x="-0.24"
       width="1.48"
       y="-0.24"
       height="1.48">
      <feGaussianBlur
         inkscape:collect="always"
         stdDeviation="4.8"
         id="feGaussianBlur4649" />
    </filter>
    <filter
       inkscape:collect="always"
       style="color-interpolation-filters:sRGB"
       id="filter4664"
       x="-0.024"
       width="1.048"
       y="-0.024"
       height="1.048">
      <feGaussianBlur
         inkscape:collect="always"
         stdDeviation="4.48"
         id="feGaussianBlur4666" />
    </filter>
  </defs>
  <metadata
     id="metadata4">
    <rdf:RDF>
      <cc:Work
         rdf:about="">
        <dc:format>image/svg+xml</dc:format>
        <dc:type
           rdf:resource="http://purl.org/dc/dcmitype/StillImage" />
        <dc:creator>
          <cc:Agent>
            <dc:title>Sam Hewitt</dc:title>
          </cc:Agent>
        </dc:creator>
        <dc:source />
        <cc:license
           rdf:resource="http://creativecommons.org/licenses/by-sa/3.0/" />
        <dc:title>Paper Icon Theme Template</dc:title>
        <dc:subject>
          <rdf:Bag />
        </dc:subject>
        <dc:date />
        <dc:rights>
          <cc:Agent>
            <dc:title />
          </cc:Agent>
        </dc:rights>
        <dc:publisher>
          <cc:Agent>
            <dc:title />
          </cc:Agent>
        </dc:publisher>
        <dc:identifier />
        <dc:relation />
        <dc:language />
        <dc:coverage />
        <dc:description />
        <dc:contributor>
          <cc:Agent>
            <dc:title />
          </cc:Agent>
        </dc:contributor>
      </cc:Work>
      <cc:Work
         rdf:about="">
        <dc:format>image/svg+xml</dc:format>
        <dc:type
           rdf:resource="http://purl.org/dc/dcmitype/StillImage" />
      </cc:Work>
      <cc:License
         rdf:about="http://creativecommons.org/licenses/by-sa/3.0/">
        <cc:permits
           rdf:resource="http://creativecommons.org/ns#Reproduction" />
        <cc:permits
           rdf:resource="http://creativecommons.org/ns#Distribution" />
        <cc:requires
           rdf:resource="http://creativecommons.org/ns#Notice" />
        <cc:requires
           rdf:resource="http://creativecommons.org/ns#Attribution" />
        <cc:permits
           rdf:resource="http://creativecommons.org/ns#DerivativeWorks" />
        <cc:requires
           rdf:resource="http://creativecommons.org/ns#ShareAlike" />
      </cc:License>
    </rdf:RDF>
  </metadata>
  <g
     style="display:inline"
     inkscape:groupmode="layer"
     inkscape:label="Icon"
     id="layer1"
     transform="translate(0,244)">
    <g
       style="display:none"
       inkscape:label="Baseplate"
       id="layer7"
       inkscape:groupmode="layer">
      <text
         y="337.74512"
         xml:space="preserve"
         x="15.006836"
         style="font-style:normal;font-variant:normal;font-weight:normal;font-stretch:normal;font-size:18px;font-family:'DejaVu Sans';-inkscape-font-specification:'DejaVu Sans';display:inline;fill:#000000;fill-opacity:1;stroke:none;enable-background:new"
         inkscape:label="context"
         id="context"><tspan
           style="font-style:normal;font-variant:normal;font-weight:normal;font-stretch:normal;font-family:'DejaVu Sans';-inkscape-font-specification:'DejaVu Sans'"
           y="337.74512"
           x="15.006836"
           sodipodi:role="line"
           id="tspan3933">apps</tspan></text>
      <text
         y="337.74512"
         xml:space="preserve"
         x="142.48828"
         style="font-style:normal;font-variant:normal;font-weight:bold;font-stretch:normal;font-size:18px;line-height:125%;font-family:'DejaVu Sans';-inkscape-font-specification:'DejaVu Sans Bold';text-align:start;writing-mode:lr-tb;text-anchor:start;display:inline;fill:#000000;fill-opacity:1;stroke:none;enable-background:new"
         sodipodi:linespacing="125%"
         inkscape:label="icon-name"
         id="icon-name"><tspan
           style="font-style:normal;font-variant:normal;font-weight:bold;font-stretch:normal;font-size:18px;font-family:'DejaVu Sans';-inkscape-font-specification:'DejaVu Sans Bold'"
           y="337.74512"
           x="142.48828"
           sodipodi:role="line"
           id="tspan3937">pgadmin</tspan></text>
      <rect
         style="display:inline;overflow:visible;visibility:visible;fill:#d3d7cf;fill-opacity:1;fill-rule:nonzero;stroke:none;stroke-width:2;marker:none;enable-background:accumulate"
         id="rect16x16"
         width="16"
         height="16"
         x="-32"
         y="268"
         inkscape:label="16x16"
         transform="scale(-1,1)" />
      <rect
         style="display:inline;overflow:visible;visibility:visible;fill:#d3d7cf;fill-opacity:1;fill-rule:nonzero;stroke:none;stroke-width:2;marker:none;enable-background:accumulate"
         id="rect24x24"
         width="24"
         height="24"
         x="-76"
         y="260"
         inkscape:label="24x24"
         transform="scale(-1,1)" />
      <rect
         style="display:inline;overflow:visible;visibility:visible;fill:#d3d7cf;fill-opacity:1;fill-rule:nonzero;stroke:none;stroke-width:2;marker:none;enable-background:accumulate"
         id="rect32x32"
         width="32"
         height="32"
         x="-128"
         y="252"
         inkscape:label="32x32"
         transform="scale(-1,1)" />
      <rect
         inkscape:label="48x48"
         y="236"
         x="-192"
         height="48"
         width="48"
         id="rect48x48"
         style="display:inline;overflow:visible;visibility:visible;fill:#d3d7cf;fill-opacity:1;fill-rule:nonzero;stroke:none;stroke-width:2;marker:none;enable-background:accumulate"
         transform="scale(-1,1)" />
      <rect
         style="display:inline;overflow:visible;visibility:visible;fill:#d3d7cf;fill-opacity:1;fill-rule:nonzero;stroke:none;stroke-width:2;marker:none;enable-background:accumulate"
         id="rect3951"
         width="512"
         height="512"
         x="-720"
         y="-228"
         inkscape:label="48x48"
         transform="scale(-1,1)" />
    </g>
    <g
       inkscape:groupmode="layer"
       id="layer6"
       inkscape:label="Symbols"
       style="display:inline">
      <path
         style="opacity:0.1;fill:#000000;fill-opacity:1;stroke:none;stroke-width:4;stroke-linecap:square;stroke-linejoin:miter;stroke-miterlimit:4;stroke-dasharray:none;stroke-opacity:1;filter:url(#filter4664)"
         d="m 464,-192 c -106.03867,-1e-5 -192.00001,85.96133 -192,192 l 0,64 c -10e-6,22.51761 3.88999,44.12323 11.01172,64.19922 L 240,150.92383 c 17.84265,11.16651 39.04702,15.69489 59.89453,12.79101 C 333.58857,219.04803 394.47803,256 464,256 l 48,0 c 26.50967,0 48,-21.49033 48,-48 0,-26.50967 -21.49033,-48 -48,-48 -20.31902,0.026 -38.42037,12.84302 -45.19336,32 L 464,192 c -35.34622,0 -64,-28.65378 -64,-64 0.0226,-31.54465 22.42702,-59.16935 53.59961,-64 L 560,64 560.59961,63.9785 C 628.50247,63.57594 684.27408,10.21897 687.67969,-57.59963 l 0.32031,0 0,-6.40037 0,-38.40039 0,-44.79883 0,-44.80078 -44.80078,0 -83.19922,0 -51.19922,0 c -24.37114,0 -44.06402,19.27009 -44.76758,43.46484 l -0.0332,0.0371 z"
         id="path4668"
         inkscape:connector-curvature="0"
         sodipodi:nodetypes="csscccsssccsccccccccccccsccc" />
      <path
         sodipodi:nodetypes="csscccsssccsccccccccccccsccc"
         inkscape:connector-curvature="0"
         id="path4662"
         d="m 464,-192 c -106.03867,-1e-5 -192.00001,85.96133 -192,192 l 0,64 c -10e-6,22.51761 3.88999,44.12323 11.01172,64.19922 L 240,150.92383 c 17.84265,11.16651 39.04702,15.69489 59.89453,12.79101 C 333.58857,219.04803 394.47803,256 464,256 l 48,0 c 26.50967,0 48,-21.49033 48,-48 0,-26.50967 -21.49033,-48 -48,-48 -20.31902,0.026 -38.42037,12.84302 -45.19336,32 L 464,192 c -35.34622,0 -64,-28.65378 -64,-64 0.0226,-31.54465 22.42702,-59.16935 53.59961,-64 L 560,64 560.59961,63.9785 C 628.50247,63.57594 684.27408,10.21897 687.67969,-57.59963 l 0.32031,0 0,-6.40037 0,-38.40039 0,-44.79883 0,-44.80078 -44.80078,0 -83.19922,0 -51.19922,0 c -24.37114,0 -44.06402,19.27009 -44.76758,43.46484 l -0.0332,0.0371 z"
         style="opacity:0.2;fill:#000000;fill-opacity:1;stroke:none;stroke-width:4;stroke-linecap:square;stroke-linejoin:miter;stroke-miterlimit:4;stroke-dasharray:none;stroke-opacity:1;filter:url(#filter4664)" />
      <path
         style="opacity:0.2;fill:#000000;fill-opacity:1;stroke:none;stroke-width:4;stroke-linecap:square;stroke-linejoin:miter;stroke-miterlimit:4;stroke-dasharray:none;stroke-opacity:1"
         d="m 464,-194 c -106.03867,-1e-5 -192.00001,85.96133 -192,192 l 0,64 c -10e-6,22.51761 3.88999,44.12323 11.01172,64.19922 L 240,148.92383 c 17.84265,11.16651 39.04702,15.69489 59.89453,12.79101 C 333.58857,217.04803 394.47803,254 464,254 l 48,0 c 26.50967,0 48,-21.49033 48,-48 0,-26.50967 -21.49033,-48 -48,-48 -20.31902,0.026 -38.42037,12.84302 -45.19336,32 L 464,190 c -35.34622,0 -64,-28.65378 -64,-64 0.0226,-31.54465 22.42702,-59.16935 53.59961,-64 L 560,62 560.59961,61.9785 C 628.50247,61.57594 684.27408,8.21897 687.67969,-59.59963 l 0.32031,0 0,-6.40037 0,-38.40039 0,-44.79883 0,-44.80078 -44.80078,0 -83.19922,0 -51.19922,0 c -24.37114,0 -44.06402,19.27009 -44.76758,43.46484 l -0.0332,0.0371 z"
         id="path4655"
         inkscape:connector-curvature="0"
         sodipodi:nodetypes="csscccsssccsccccccccccccsccc" />
      <path
         id="path4603"
         d="m 168,241 a 16,16 0 0 0 -16,16 l 0,4 a 20,20 0 0 0 1.54297,7.69141 L 148,271.61914 a 8,8 0 0 0 7.42578,0.56445 20,20 0 0 0 0.57422,0.77539 l 0,0.041 0.0312,0 A 20,20 0 0 0 172,281 a 4,4 0 0 0 4,-4 4,4 0 0 0 -4,-4 4,4 0 0 0 -3.96289,3.48047 16,16 0 0 1 -1.64453,-0.51563 A 6,6 0 0 1 163.75,271 a 6,6 0 0 1 6,-6 6,6 0 0 1 0.25,0.0117 l 0,-0.0117 6,0 a 12,12 0 0 0 12,-12 l 0,-4 0,-4 0,-4 -4,0 -8,0 -4,0 c -1.84464,0 -3.37373,1.24303 -3.83984,2.93555 A 12,12 0 0 0 168,244.07422 L 168,241 Z"
         style="opacity:0.2;fill:#000000;fill-opacity:1;stroke:none;stroke-width:4;stroke-linecap:square;stroke-linejoin:miter;stroke-miterlimit:4;stroke-dasharray:none;stroke-opacity:1"
         inkscape:connector-curvature="0" />
      <path
         inkscape:connector-curvature="0"
         id="path4593"
         d="m 64,263 a 8,8 0 0 0 -8,8 l 0,2 a 10,10 0 0 0 0.771484,3.84375 L 54,278.30859 A 4,4 0 0 0 57.712891,278.5918 10,10 0 0 0 58,278.98047 l 0,0.0195 0.01563,0 A 10,10 0 0 0 66,283 a 2,2 0 0 0 2,-2 2,2 0 0 0 -2,-2 2,2 0 0 0 -1.980469,1.74023 8,8 0 0 1 -0.822265,-0.25781 A 3,3 0 0 1 61.875,278 a 3,3 0 0 1 3,-3 3,3 0 0 1 0.125,0.006 l 0,-0.006 3,0 a 6,6 0 0 0 6,-6 l 0,-2 0,-2 0,-2 -2,0 -4,0 -2,0 c -0.921948,0 -1.686519,0.62107 -1.919922,1.4668 A 6,6 0 0 0 64,264.53711 L 64,263 Z"
         style="opacity:0.2;fill:#000000;fill-opacity:1;stroke:none;stroke-width:4;stroke-linecap:square;stroke-linejoin:miter;stroke-miterlimit:4;stroke-dasharray:none;stroke-opacity:1" />
      <path
         inkscape:connector-curvature="0"
         id="path4595"
         d="m 112,255 a 12,12 0 0 0 -12,12 l 0,4 c 0,1.40749 0.25403,2.75296 0.69922,4.00781 L 98,276.43359 a 5.6,5.6 0 0 0 3.75781,0.79688 C 103.86437,280.68575 107.65718,283 112,283 l 3,0 a 3,3 0 0 0 3,-3 3,3 0 0 0 -3,-3 3,3 0 0 0 -2.82422,2 L 112,279 a 4,4 0 0 1 -0.39844,-0.0195 c -0.001,-7e-5 -0.003,6e-5 -0.004,0 A 4,4 0 0 1 108,275 a 4,4 0 0 1 3.38281,-3.94922 l 6.6543,0 0,-0.0527 a 8,8 0 0 0 7.94336,-7.59766 l 0.0195,0 0,-0.40039 0,-2.40039 0,-2.79883 0,-2.80078 -2.80078,0 -5.19922,0 -3.19922,0 c -1.51975,0 -2.74179,1.20162 -2.79101,2.70898 a 8,8 0 0 0 -0.01,0.01 L 112,255 Z"
         style="opacity:0.2;fill:#000000;fill-opacity:1;stroke:none;stroke-width:4;stroke-linecap:square;stroke-linejoin:miter;stroke-miterlimit:4;stroke-dasharray:none;stroke-opacity:1" />
      <path
         style="opacity:1;fill:#00bcd4;fill-opacity:1;stroke:none;stroke-width:4;stroke-linecap:square;stroke-linejoin:miter;stroke-miterlimit:4;stroke-dasharray:none;stroke-opacity:1"
         d="M 168 484 A 16 16 0 0 0 152 500 L 152 504 A 20 20 0 0 0 153.54297 511.69141 L 148 514.61914 A 8 8 0 0 0 155.42578 515.18359 A 20 20 0 0 0 156 515.95898 L 156 516 L 156.03125 516 A 20 20 0 0 0 172 524 A 4 4 0 0 0 176 520 A 4 4 0 0 0 172 516 A 4 4 0 0 0 168.03711 519.48047 A 16 16 0 0 1 166.39258 518.96484 A 6 6 0 0 1 163.75 514 A 6 6 0 0 1 169.75 508 A 6 6 0 0 1 170 508.01172 L 170 508 L 176 508 A 12 12 0 0 0 188 496 L 188 492 L 188 488 L 188 484 L 184 484 L 176 484 L 172 484 C 170.15536 484 168.62627 485.24303 168.16016 486.93555 A 12 12 0 0 0 168 487.07422 L 168 484 z "
         id="path4172"
         transform="translate(0,-244)" />
      <circle
         style="opacity:1;fill:#ffffff;fill-opacity:1;stroke:none;stroke-width:4;stroke-linecap:square;stroke-linejoin:miter;stroke-miterlimit:4;stroke-dasharray:none;stroke-opacity:1"
         id="path4244"
         cx="160"
         cy="254"
         r="2" />
      <path
         style="opacity:1;fill:#00bcd4;fill-opacity:1;stroke:none;stroke-width:4;stroke-linecap:square;stroke-linejoin:miter;stroke-miterlimit:4;stroke-dasharray:none;stroke-opacity:1"
         d="M 64 506 A 8 8 0 0 0 56 514 L 56 516 A 10 10 0 0 0 56.771484 519.84375 L 54 521.30859 A 4 4 0 0 0 57.712891 521.5918 A 10 10 0 0 0 58 521.98047 L 58 522 L 58.015625 522 A 10 10 0 0 0 66 526 A 2 2 0 0 0 68 524 A 2 2 0 0 0 66 522 A 2 2 0 0 0 64.019531 523.74023 A 8 8 0 0 1 63.197266 523.48242 A 3 3 0 0 1 61.875 521 A 3 3 0 0 1 64.875 518 A 3 3 0 0 1 65 518.00586 L 65 518 L 68 518 A 6 6 0 0 0 74 512 L 74 510 L 74 508 L 74 506 L 72 506 L 68 506 L 66 506 C 65.078052 506 64.313481 506.62107 64.080078 507.4668 A 6 6 0 0 0 64 507.53711 L 64 506 z "
         transform="translate(0,-244)"
         id="circle4299" />
      <circle
         r="1"
         cy="269"
         cx="60"
         id="circle4321"
         style="opacity:1;fill:#ffffff;fill-opacity:1;stroke:none;stroke-width:4;stroke-linecap:square;stroke-linejoin:miter;stroke-miterlimit:4;stroke-dasharray:none;stroke-opacity:1" />
      <path
         style="opacity:1;fill:#00bcd4;fill-opacity:1;stroke:none;stroke-width:4;stroke-linecap:square;stroke-linejoin:miter;stroke-miterlimit:4;stroke-dasharray:none;stroke-opacity:1"
         d="M 112 498 A 12 12 0 0 0 100 510 L 100 514 C 100 515.40749 100.25403 516.75296 100.69922 518.00781 L 98 519.43359 A 5.6 5.6 0 0 0 101.75781 520.23047 C 103.86437 523.68575 107.65718 526 112 526 L 115 526 A 3 3 0 0 0 118 523 A 3 3 0 0 0 115 520 A 3 3 0 0 0 112.17578 522 L 112 522 A 4 4 0 0 1 111.60156 521.98047 C 111.60026 521.9804 111.59895 521.98053 111.59766 521.98047 A 4 4 0 0 1 108 518 A 4 4 0 0 1 111.38281 514.05078 L 118.03711 514.05078 L 118.03711 513.99805 A 8 8 0 0 0 125.98047 506.40039 L 126 506.40039 L 126 506 L 126 503.59961 L 126 500.80078 L 126 498 L 123.19922 498 L 118 498 L 114.80078 498 C 113.28103 498 112.05899 499.20162 112.00977 500.70898 A 8 8 0 0 0 112 500.71875 L 112 498 z "
         transform="translate(0,-244)"
         id="circle4327" />
      <circle
         r="1.5"
         cy="263.5"
         cx="106.5"
         id="circle4349"
         style="opacity:1;fill:#ffffff;fill-opacity:1;stroke:none;stroke-width:4;stroke-linecap:square;stroke-linejoin:miter;stroke-miterlimit:4;stroke-dasharray:none;stroke-opacity:1" />
      <path
         style="opacity:1;fill:#00bcd4;fill-opacity:1;stroke:none;stroke-width:4;stroke-linecap:square;stroke-linejoin:miter;stroke-miterlimit:4;stroke-dasharray:none;stroke-opacity:1"
         d="m 464,48 c -106.03867,-6e-6 -192.00001,85.96133 -192,192 l 0,64 c -10e-6,22.51761 3.88999,44.12323 11.01172,64.19922 L 240,390.92383 c 17.84265,11.16651 39.04702,15.69489 59.89453,12.79101 C 333.58857,459.04803 394.47803,496 464,496 l 48,0 c 26.50967,0 48,-21.49033 48,-48 0,-26.50967 -21.49033,-48 -48,-48 -20.31902,0.026 -38.42037,12.84302 -45.19336,32 L 464,432 c -35.34622,0 -64,-28.65378 -64,-64 0.0226,-31.54465 22.42702,-59.16935 53.59961,-64 L 560,304 l 0.59961,-0.0215 c 67.90286,-0.40256 123.67447,-53.75953 127.08008,-121.57813 l 0.32031,0 L 688,176 688,137.59961 688,92.800781 688,48 643.19922,48 560,48 508.80078,48 C 484.42964,48 464.73676,67.270094 464.0332,91.464844 L 464,91.501953 Z"
         transform="translate(0,-244)"
         id="circle4394"
         inkscape:connector-curvature="0"
         sodipodi:nodetypes="csscccsssccsccccccccccccsccc" />
      <circle
         r="24"
         cy="-38"
         cx="376"
         id="circle4605"
         style="opacity:0.2;fill:#000000;fill-opacity:1;stroke:none;stroke-width:4;stroke-linecap:square;stroke-linejoin:miter;stroke-miterlimit:4;stroke-dasharray:none;stroke-opacity:1;filter:url(#filter4647)" />
      <circle
         style="opacity:1;fill:#ffffff;fill-opacity:1;stroke:none;stroke-width:4;stroke-linecap:square;stroke-linejoin:miter;stroke-miterlimit:4;stroke-dasharray:none;stroke-opacity:1"
         id="circle4412"
         cx="376"
         cy="-44"
         r="24" />
      <path
         style="opacity:1;fill:#00bcd4;fill-opacity:1;stroke:none;stroke-width:4;stroke-linecap:square;stroke-linejoin:miter;stroke-miterlimit:4;stroke-dasharray:none;stroke-opacity:1"
         d="M 24 513 A 6 6 0 0 0 18 519 L 18 521 C 18 521.7036 18.127102 522.37659 18.349609 523.00391 L 17 523.7168 A 2.8 2.8 0 0 0 18.878906 524.11523 C 19.932156 525.84301 21.828486 527 24 527 L 25.5 527 A 1.5 1.5 0 0 0 27 525.5 A 1.5 1.5 0 0 0 25.5 524 A 1.5 1.5 0 0 0 24.087891 525 L 24 525 C 23.861598 525 23.730484 524.97271 23.595703 524.95898 A 2 2 0 0 1 22 523 A 2 2 0 0 1 23.693359 521.02539 L 27.019531 521.02539 L 27.019531 521 A 4 4 0 0 0 30.990234 517.19922 L 31 517.19922 L 31 517 L 31 515.80078 L 31 514.40039 L 31 513 L 29.599609 513 L 27 513 L 25.400391 513 C 24.640143 513 24.027954 513.60127 24.003906 514.35547 A 4 4 0 0 0 24 514.36133 L 24 513 z "
         transform="translate(0,-244)"
         id="circle4420" />
      <circle
         style="opacity:1;fill:#ffffff;fill-opacity:1;stroke:none;stroke-width:4;stroke-linecap:square;stroke-linejoin:miter;stroke-miterlimit:4;stroke-dasharray:none;stroke-opacity:1"
         id="circle4438"
         cx="21.200001"
         cy="273.89999"
         r="0.69999999" />
      <path
         style="opacity:0.2;fill:#ffffff;fill-opacity:1;stroke:none;stroke-width:4;stroke-linecap:square;stroke-linejoin:miter;stroke-miterlimit:4;stroke-dasharray:none;stroke-opacity:1"
         d="M 168 484 A 16 16 0 0 0 152 500 L 152 501 A 16 16 0 0 1 168 485 L 168 484 z M 172 484 C 170.15536 484 168.62627 485.24303 168.16016 486.93555 A 12 12 0 0 0 168 487.07422 L 168 488.07422 A 12 12 0 0 1 168.16016 487.93555 C 168.62627 486.24303 170.15536 485 172 485 L 176 485 L 184 485 L 188 485 L 188 484 L 184 484 L 176 484 L 172 484 z M 153.23828 511.85156 L 148 514.61914 A 8 8 0 0 0 148.94727 515.11914 L 153.54297 512.69141 A 20 20 0 0 1 153.23828 511.85156 z M 163.77344 514.50391 A 6 6 0 0 0 163.75 515 A 6 6 0 0 0 166.39258 519.96484 A 16 16 0 0 0 168.03711 520.48047 A 4 4 0 0 1 172 517 A 4 4 0 0 1 175.96484 520.49414 A 4 4 0 0 0 176 520 A 4 4 0 0 0 172 516 A 4 4 0 0 0 168.03711 519.48047 A 16 16 0 0 1 166.39258 518.96484 A 6 6 0 0 1 163.77344 514.50391 z "
         transform="translate(0,-244)"
         id="path4573" />
      <path
         style="opacity:0.2;fill:#ffffff;fill-opacity:1;stroke:none;stroke-width:4;stroke-linecap:square;stroke-linejoin:miter;stroke-miterlimit:4;stroke-dasharray:none;stroke-opacity:1"
         d="M 64 506 A 8 8 0 0 0 56 514 L 56 515 A 8 8 0 0 1 64 507 L 64 506 z M 66 506 C 65.078052 506 64.313481 506.62107 64.080078 507.4668 A 6 6 0 0 0 64 507.53711 L 64 508.53711 A 6 6 0 0 1 64.080078 508.4668 C 64.313481 507.62107 65.078052 507 66 507 L 68 507 L 72 507 L 74 507 L 74 506 L 72 506 L 68 506 L 66 506 z M 56.466797 520.00391 L 54 521.30859 A 4 4 0 0 0 55.029297 521.76367 L 56.771484 520.84375 A 10 10 0 0 1 56.466797 520.00391 z M 61.919922 521.50781 A 3 3 0 0 0 61.875 522 A 3 3 0 0 0 63.197266 524.48242 A 8 8 0 0 0 64.019531 524.74023 A 2 2 0 0 1 66 523 A 2 2 0 0 1 67.935547 524.50391 A 2 2 0 0 0 68 524 A 2 2 0 0 0 66 522 A 2 2 0 0 0 64.019531 523.74023 A 8 8 0 0 1 63.197266 523.48242 A 3 3 0 0 1 61.919922 521.50781 z "
         transform="translate(0,-244)"
         id="path4585" />
      <path
         style="opacity:0.2;fill:#ffffff;fill-opacity:1;stroke:none;stroke-width:4;stroke-linecap:square;stroke-linejoin:miter;stroke-miterlimit:4;stroke-dasharray:none;stroke-opacity:1"
         d="M 112 498 A 12 12 0 0 0 100 510 L 100 511 A 12 12 0 0 1 112 499 L 112 498 z M 114.80078 498 C 113.28103 498 112.05899 499.20162 112.00977 500.70898 A 8 8 0 0 0 112 500.71875 L 112 501.71875 A 8 8 0 0 1 112.00977 501.70898 C 112.05899 500.20162 113.28103 499 114.80078 499 L 118 499 L 123.19922 499 L 126 499 L 126 498 L 123.19922 498 L 118 498 L 114.80078 498 z M 100.43359 518.14844 L 98 519.43359 A 5.6 5.6 0 0 0 98.976562 519.91797 L 100.69922 519.00781 C 100.59931 518.7262 100.51354 518.43885 100.43359 518.14844 z M 108.03516 518.49414 A 4 4 0 0 0 108 519 A 4 4 0 0 0 111.59766 522.98047 C 111.59866 522.98053 111.60056 522.9804 111.60156 522.98047 A 4 4 0 0 0 112 523 L 112.17578 523 A 3 3 0 0 1 115 521 A 3 3 0 0 1 117.95703 523.51367 A 3 3 0 0 0 118 523 A 3 3 0 0 0 115 520 A 3 3 0 0 0 112.17578 522 L 112 522 A 4 4 0 0 1 111.60156 521.98047 C 111.60026 521.9804 111.59895 521.98053 111.59766 521.98047 A 4 4 0 0 1 108.03516 518.49414 z "
         transform="translate(0,-244)"
         id="path4587" />
      <path
         style="opacity:0.2;fill:#ffffff;fill-opacity:1;stroke:none;stroke-width:4;stroke-linecap:square;stroke-linejoin:miter;stroke-miterlimit:4;stroke-dasharray:none;stroke-opacity:1"
         d="M 464 48 C 357.96133 47.999994 271.99999 133.96133 272 240 L 272 242 C 271.99999 135.96133 357.96133 49.99999 464 50 L 464 48 z M 508.80078 48 C 484.42964 48 464.73676 67.270094 464.0332 91.464844 L 464 91.501953 L 464 93.501953 L 464.0332 93.464844 C 464.73676 69.270094 484.42964 50 508.80078 50 L 560 50 L 643.19922 50 L 688 50 L 688 48 L 643.19922 48 L 560 48 L 508.80078 48 z M 282.43164 368.50586 L 240 390.92383 C 240.58636 391.29079 241.18581 391.63178 241.7793 391.98438 L 283.01172 370.19922 C 282.81241 369.63738 282.62587 369.07009 282.43164 368.50586 z M 400.02344 368.9375 C 400.01751 369.29208 400.00025 369.64439 400 370 C 400 405.34622 428.65378 434 464 434 L 466.80664 434 C 473.57963 414.84302 491.68098 402.026 512 402 C 538.17437 402 559.44046 422.9536 559.97461 449 C 559.98145 448.66634 560 448.3353 560 448 C 560 421.49033 538.50967 400 512 400 C 491.68098 400.026 473.57963 412.84302 466.80664 432 L 464 432 C 428.96824 432 400.52703 403.84951 400.02344 368.9375 z "
         transform="translate(0,-244)"
         id="path4657" />
    </g>
  </g>
</svg>
