<?xml version="1.0" encoding="UTF-8" standalone="no"?>
<!-- Created with Inkscape (http://www.inkscape.org/) -->

<svg
   xmlns:dc="http://purl.org/dc/elements/1.1/"
   xmlns:cc="http://creativecommons.org/ns#"
   xmlns:rdf="http://www.w3.org/1999/02/22-rdf-syntax-ns#"
   xmlns:svg="http://www.w3.org/2000/svg"
   xmlns="http://www.w3.org/2000/svg"
   xmlns:xlink="http://www.w3.org/1999/xlink"
   xmlns:sodipodi="http://sodipodi.sourceforge.net/DTD/sodipodi-0.dtd"
   xmlns:inkscape="http://www.inkscape.org/namespaces/inkscape"
   inkscape:export-ydpi="90.000000"
   inkscape:export-xdpi="90.000000"
   width="600"
   height="224"
   id="svg11300"
   sodipodi:version="0.32"
   inkscape:version="0.48.4 r9939"
   sodipodi:docname="preferences-desktop-display.svg"
   inkscape:output_extension="org.inkscape.output.svg.inkscape"
   version="1.0"
   style="display:inline;enable-background:new"
   inkscape:export-filename="/home/sam/paper-template.png">
  <title
     id="title3004">Paper Icon Theme Template</title>
  <sodipodi:namedview
     stroke="#ef2929"
     fill="#f57900"
     id="base"
     pagecolor="#474747"
     bordercolor="#666666"
     borderopacity="0.25490196"
     inkscape:pageopacity="0"
     inkscape:pageshadow="2"
     inkscape:zoom="1"
     inkscape:cx="271.2858"
     inkscape:cy="47.429509"
     inkscape:current-layer="layer6"
     showgrid="false"
     inkscape:grid-bbox="true"
     inkscape:document-units="px"
     inkscape:showpageshadow="false"
     inkscape:window-width="1366"
     inkscape:window-height="706"
     inkscape:window-x="0"
     inkscape:window-y="32"
     width="400px"
     height="300px"
     inkscape:snap-nodes="true"
     inkscape:snap-bbox="true"
     gridtolerance="10000"
     inkscape:object-nodes="true"
     inkscape:snap-grids="true"
     showguides="true"
     inkscape:guide-bbox="true"
     inkscape:window-maximized="1">
    <inkscape:grid
       spacingy="1px"
       spacingx="1px"
       id="grid5883"
       type="xygrid"
       enabled="true"
       visible="true"
       empspacing="4"
       snapvisiblegridlinesonly="true" />
    <inkscape:grid
       type="xygrid"
       id="grid11592"
       empspacing="2"
       visible="true"
       enabled="false"
       spacingx="0.5px"
       spacingy="0.5px"
       color="#ff0000"
       opacity="0.1254902"
       empcolor="#ff0000"
       empopacity="0.25098039"
       snapvisiblegridlinesonly="true" />
    <sodipodi:guide
       orientation="0,1"
       position="0,224"
       id="guide4275" />
  </sodipodi:namedview>
  <defs
     id="defs3">
    <linearGradient
       inkscape:collect="always"
       id="linearGradient4269">
      <stop
         style="stop-color:#ffffff;stop-opacity:1;"
         offset="0"
         id="stop4271" />
      <stop
         style="stop-color:#ffffff;stop-opacity:0;"
         offset="1"
         id="stop4273" />
    </linearGradient>
    <linearGradient
       inkscape:collect="always"
       id="linearGradient4118">
      <stop
         style="stop-color:#ffffff;stop-opacity:1;"
         offset="0"
         id="stop4120" />
      <stop
         style="stop-color:#ffffff;stop-opacity:0;"
         offset="1"
         id="stop4122" />
    </linearGradient>
    <linearGradient
       id="linearGradient4069">
      <stop
         id="stop4071"
         offset="0"
         style="stop-color:#000000;stop-opacity:1" />
      <stop
         id="stop4073"
         offset="1"
         style="stop-color:#000000;stop-opacity:0" />
    </linearGradient>
    <filter
       inkscape:collect="always"
       id="filter4079">
      <feGaussianBlur
         inkscape:collect="always"
         stdDeviation="0.89999981"
         id="feGaussianBlur4081" />
    </filter>
    <linearGradient
       inkscape:collect="always"
       xlink:href="#linearGradient4118"
       id="linearGradient4162"
       gradientUnits="userSpaceOnUse"
       gradientTransform="matrix(1,0,0,-1,3e-6,444)"
       x1="160"
       y1="184"
       x2="160"
       y2="168" />
    <linearGradient
       inkscape:collect="always"
       xlink:href="#linearGradient4069"
       id="linearGradient4223"
       x1="163"
       y1="260"
       x2="163"
       y2="244"
       gradientUnits="userSpaceOnUse" />
    <linearGradient
       inkscape:collect="always"
       xlink:href="#linearGradient4269"
       id="linearGradient4275"
       x1="160"
       y1="260"
       x2="160"
       y2="276"
       gradientUnits="userSpaceOnUse" />
    <linearGradient
       inkscape:collect="always"
       xlink:href="#linearGradient4069"
       id="linearGradient4279"
       gradientUnits="userSpaceOnUse"
       x1="160"
       y1="260"
       x2="160"
       y2="276"
       gradientTransform="matrix(1,0,0,-1,0,520)" />
    <linearGradient
       inkscape:collect="always"
       xlink:href="#linearGradient4069"
       id="linearGradient4292"
       x1="160"
       y1="180"
       x2="140"
       y2="180"
       gradientUnits="userSpaceOnUse" />
    <linearGradient
       inkscape:collect="always"
       xlink:href="#linearGradient4269"
       id="linearGradient4296"
       gradientUnits="userSpaceOnUse"
       x1="143.00002"
       y1="203"
       x2="127.00002"
       y2="203"
       gradientTransform="matrix(0,-1,1,0,-28,403.00002)" />
    <filter
       inkscape:collect="always"
       id="filter4298">
      <feGaussianBlur
         inkscape:collect="always"
         stdDeviation="0.6384375"
         id="feGaussianBlur4300" />
    </filter>
    <linearGradient
       inkscape:collect="always"
       xlink:href="#linearGradient4269"
       id="linearGradient3079"
       gradientUnits="userSpaceOnUse"
       gradientTransform="matrix(0,-1,1,0,-28,403.00002)"
       x1="143.00002"
       y1="203"
       x2="127.00002"
       y2="203" />
    <linearGradient
       inkscape:collect="always"
       xlink:href="#linearGradient4269"
       id="linearGradient3091"
       gradientUnits="userSpaceOnUse"
       gradientTransform="matrix(0,-1,1,0,-28,403.00002)"
       x1="143.00002"
       y1="203"
       x2="127.00002"
       y2="203" />
    <linearGradient
       inkscape:collect="always"
       xlink:href="#linearGradient4269"
       id="linearGradient3118"
       gradientUnits="userSpaceOnUse"
       gradientTransform="matrix(0,-0.5,0.5,0,-33.999992,343.5)"
       x1="143.00002"
       y1="203"
       x2="127.00002"
       y2="203" />
    <linearGradient
       inkscape:collect="always"
       xlink:href="#linearGradient4269"
       id="linearGradient3900"
       gradientUnits="userSpaceOnUse"
       gradientTransform="matrix(0,-4,4,0,-264,760.00002)"
       x1="143.00002"
       y1="203"
       x2="127.00002"
       y2="203" />
    <linearGradient
       inkscape:collect="always"
       xlink:href="#linearGradient4269"
       id="linearGradient3906"
       gradientUnits="userSpaceOnUse"
       gradientTransform="matrix(0,-2,2,0,-48,522.00001)"
       x1="143.00002"
       y1="203"
       x2="127.00002"
       y2="203" />
    <linearGradient
       inkscape:collect="always"
       xlink:href="#linearGradient4269"
       id="linearGradient3912"
       gradientUnits="userSpaceOnUse"
       gradientTransform="matrix(0,-1,1,0,-28,403.00002)"
       x1="143.00002"
       y1="203"
       x2="127.00002"
       y2="203" />
    <filter
       color-interpolation-filters="sRGB"
       inkscape:collect="always"
       id="filter4370">
      <feGaussianBlur
         inkscape:collect="always"
         stdDeviation="0.76"
         id="feGaussianBlur4372" />
    </filter>
    <filter
       inkscape:collect="always"
       id="filter3940">
      <feGaussianBlur
         inkscape:collect="always"
         stdDeviation="1.7999996"
         id="feGaussianBlur3942" />
    </filter>
    <filter
       inkscape:collect="always"
       id="filter3946">
      <feGaussianBlur
         inkscape:collect="always"
         stdDeviation="3.5999992"
         id="feGaussianBlur3948" />
    </filter>
  </defs>
  <metadata
     id="metadata4">
    <rdf:RDF>
      <cc:Work
         rdf:about="">
        <dc:format>image/svg+xml</dc:format>
        <dc:type
           rdf:resource="http://purl.org/dc/dcmitype/StillImage" />
        <dc:creator>
          <cc:Agent>
            <dc:title>Sam Hewitt</dc:title>
          </cc:Agent>
        </dc:creator>
        <dc:source />
        <cc:license
           rdf:resource="" />
        <dc:title>Paper Icon Theme Template</dc:title>
        <dc:subject>
          <rdf:Bag />
        </dc:subject>
        <dc:date />
        <dc:rights>
          <cc:Agent>
            <dc:title />
          </cc:Agent>
        </dc:rights>
        <dc:publisher>
          <cc:Agent>
            <dc:title />
          </cc:Agent>
        </dc:publisher>
        <dc:identifier />
        <dc:relation />
        <dc:language />
        <dc:coverage />
        <dc:description />
        <dc:contributor>
          <cc:Agent>
            <dc:title />
          </cc:Agent>
        </dc:contributor>
      </cc:Work>
      <cc:Work
         rdf:about="">
        <dc:format>image/svg+xml</dc:format>
        <dc:type
           rdf:resource="http://purl.org/dc/dcmitype/StillImage" />
      </cc:Work>
    </rdf:RDF>
  </metadata>
  <g
     style="display:inline"
     inkscape:groupmode="layer"
     inkscape:label="Icon"
     id="layer1"
     transform="translate(0,-76)">
    <g
       style="display:none"
       inkscape:label="Baseplate"
       id="layer7"
       inkscape:groupmode="layer">
      <text
         y="59.745117"
         xml:space="preserve"
         x="15.006836"
         style="font-size:18px;font-style:normal;font-variant:normal;font-weight:normal;font-stretch:normal;fill:#000000;fill-opacity:1;stroke:none;display:inline;enable-background:new;font-family:DejaVu Sans;-inkscape-font-specification:DejaVu Sans"
         inkscape:label="context"
         id="context"><tspan
           style="font-style:normal;font-variant:normal;font-weight:normal;font-stretch:normal;font-family:DejaVu Sans;-inkscape-font-specification:DejaVu Sans"
           y="59.745117"
           x="15.006836"
           sodipodi:role="line"
           id="tspan3933">apps</tspan></text>
      <text
         y="59.745117"
         xml:space="preserve"
         x="142.48828"
         style="font-size:18px;font-style:normal;font-variant:normal;font-weight:bold;font-stretch:normal;text-align:start;line-height:125%;writing-mode:lr-tb;text-anchor:start;fill:#000000;fill-opacity:1;stroke:none;display:inline;enable-background:new;font-family:DejaVu Sans;-inkscape-font-specification:DejaVu Sans Bold"
         sodipodi:linespacing="125%"
         inkscape:label="icon-name"
         id="icon-name"><tspan
           style="font-size:18px;font-style:normal;font-variant:normal;font-weight:bold;font-stretch:normal;font-family:DejaVu Sans;-inkscape-font-specification:DejaVu Sans Bold"
           y="59.745117"
           x="142.48828"
           sodipodi:role="line"
           id="tspan3937">preferences-desktop-display</tspan></text>
      <rect
         style="fill:#e9e9e9;fill-opacity:1;fill-rule:nonzero;stroke:none;stroke-width:2;marker:none;visibility:visible;display:inline;overflow:visible;enable-background:accumulate"
         id="rect16x16"
         width="16"
         height="16"
         x="-32"
         y="268"
         inkscape:label="16x16"
         transform="scale(-1,1)" />
      <rect
         style="fill:#e9e9e9;fill-opacity:1;fill-rule:nonzero;stroke:none;stroke-width:2;marker:none;visibility:visible;display:inline;overflow:visible;enable-background:accumulate"
         id="rect24x24"
         width="24"
         height="24"
         x="-72"
         y="260"
         inkscape:label="24x24"
         transform="scale(-1,1)" />
      <rect
         style="fill:#e9e9e9;fill-opacity:1;fill-rule:nonzero;stroke:none;stroke-width:2;marker:none;visibility:visible;display:inline;overflow:visible;enable-background:accumulate"
         id="rect32x32"
         width="32"
         height="32"
         x="-120"
         y="252"
         inkscape:label="32x32"
         transform="scale(-1,1)" />
      <rect
         inkscape:label="48x48"
         y="236"
         x="-184"
         height="48"
         width="48"
         id="rect48x48"
         style="fill:#e9e9e9;fill-opacity:1;fill-rule:nonzero;stroke:none;stroke-width:2;marker:none;visibility:visible;display:inline;overflow:visible;enable-background:accumulate"
         transform="scale(-1,1)" />
      <rect
         style="fill:#e9e9e9;fill-opacity:1;fill-rule:nonzero;stroke:none;stroke-width:2;marker:none;visibility:visible;display:inline;overflow:visible;enable-background:accumulate"
         id="rect256x256"
         width="192"
         height="192"
         x="-584"
         y="92"
         inkscape:label="256x256"
         transform="scale(-1,1)" />
      <rect
         inkscape:label="256x256"
         y="188"
         x="-376"
         height="96"
         width="96"
         id="rect3949"
         style="fill:#e9e9e9;fill-opacity:1;fill-rule:nonzero;stroke:none;stroke-width:2;marker:none;visibility:visible;display:inline;overflow:visible;enable-background:accumulate"
         transform="scale(-1,1)" />
      <rect
         style="fill:#e9e9e9;fill-opacity:1;fill-rule:nonzero;stroke:none;stroke-width:2;marker:none;visibility:visible;display:inline;overflow:visible;enable-background:accumulate"
         id="rect3951"
         width="64"
         height="64"
         x="-264"
         y="220"
         inkscape:label="48x48"
         transform="scale(-1,1)" />
    </g>
    <g
       inkscape:groupmode="layer"
       id="layer6"
       inkscape:label="Symbols"
       style="display:inline">
      <rect
         ry="8"
         rx="8"
         y="-568"
         x="-253.99994"
         height="160"
         width="127.99994"
         id="rect3944"
         style="fill:#000000;fill-opacity:1;stroke:none;filter:url(#filter3946);opacity:0.5"
         transform="matrix(0,-1,-1,0,0,0)" />
      <rect
         transform="matrix(0,-1,-1,0,0,-1)"
         style="opacity:0.5;fill:#000000;fill-opacity:1;stroke:none;filter:url(#filter3940)"
         id="rect3938"
         width="63.999969"
         height="80"
         x="-269.99997"
         y="-368"
         rx="4"
         ry="4" />
      <rect
         transform="matrix(0,-1,-1,0,0,0)"
         style="fill:#5f7c8a;fill-opacity:1;stroke:none"
         id="rect3095"
         width="15.999992"
         height="20"
         x="-280"
         y="-70.000008"
         rx="1"
         ry="1" />
      <rect
         ry="0"
         rx="0"
         y="-68"
         x="-278"
         height="16"
         width="12.000002"
         id="rect3099"
         style="fill:#7f96a1;fill-opacity:1;stroke:none"
         transform="matrix(0,-1,-1,0,0,0)" />
      <path
         id="path3101"
         d="m 50.000008,278.99999 c 0,0.554 0.446,1 1,1 l 18,0 c 0.554,0 1,-0.446 1,-1 l 0,-7 -20,0 z"
         style="opacity:0.1;fill:url(#linearGradient3118);fill-opacity:1;stroke:none"
         inkscape:connector-curvature="0"
         sodipodi:nodetypes="ssssccs" />
      <rect
         transform="matrix(0,-1,-1,0,0,0)"
         style="fill:#5f7c8a;fill-opacity:1;stroke:none"
         id="rect3083"
         width="127.99994"
         height="160"
         x="-251.99994"
         y="-568"
         rx="8"
         ry="8" />
      <rect
         ry="0"
         rx="0"
         y="-556"
         x="-239.99994"
         height="136"
         width="104"
         id="rect3087"
         style="fill:#7f96a1;fill-opacity:1;stroke:none"
         transform="matrix(0,-1,-1,0,0,0)" />
      <path
         id="path3089"
         d="m 408,243.99994 c 0,4.432 3.568,8 8,8 l 144,0 c 4.432,0 8,-3.568 8,-8 l 0,-56 -160,0 z"
         style="opacity:0.1;fill:url(#linearGradient3900);fill-opacity:1;stroke:none"
         inkscape:connector-curvature="0"
         sodipodi:nodetypes="ssssccs" />
      <rect
         ry="4"
         rx="4"
         y="-368"
         x="-267.99997"
         height="80"
         width="63.999969"
         id="rect3071"
         style="fill:#5f7c8a;fill-opacity:1;stroke:none"
         transform="matrix(0,-1,-1,0,0,0)" />
      <path
         style="opacity:0.2;fill:#000000;fill-opacity:1;stroke:none"
         d="m 288,263 0,1 c 0,2.216 1.784,4 4,4 l 72,0 c 2.216,0 4,-1.784 4,-4 l 0,-1 c 0,2.216 -1.784,4 -4,4 l -72,0 c -2.216,0 -4,-1.784 -4,-4 z"
         id="path3073"
         inkscape:connector-curvature="0" />
      <rect
         transform="matrix(0,-1,-1,0,0,0)"
         style="fill:#7f96a1;fill-opacity:1;stroke:none"
         id="rect3075"
         width="52"
         height="68"
         x="-261.99997"
         y="-362"
         rx="0"
         ry="0" />
      <path
         sodipodi:nodetypes="ssssccs"
         inkscape:connector-curvature="0"
         style="opacity:0.1;fill:url(#linearGradient3906);fill-opacity:1;stroke:none"
         d="m 288,263.99997 c 0,2.216 1.784,4 4,4 l 72,0 c 2.216,0 4,-1.784 4,-4 l 0,-28 -80,0 z"
         id="path3077" />
      <rect
         ry="2"
         rx="2"
         y="-180"
         x="-276"
         height="40"
         width="31.999985"
         id="rect4077"
         style="opacity:0.5;fill:#000000;fill-opacity:1;stroke:none;filter:url(#filter4079)"
         transform="matrix(0,-1,-1,0,0,1.0000005)" />
      <rect
         ry="3"
         rx="3"
         y="-259.99988"
         x="-274.00009"
         height="55.999878"
         width="44.000092"
         id="rect4229"
         style="fill:#9fb0b9;fill-opacity:1;stroke:none"
         transform="matrix(0,-1,-1,0,0,0)" />
      <rect
         transform="matrix(0,-1,-1,0,0,0)"
         style="fill:#9fb0b9;fill-opacity:1;stroke:none"
         id="rect4255"
         width="22"
         height="28"
         x="-279"
         y="-118"
         rx="1.5"
         ry="1.5" />
      <rect
         transform="matrix(0,-1,-1,0,0,0)"
         style="fill:#9fb0b9;fill-opacity:1;stroke:none;display:inline;enable-background:new"
         id="rect4265"
         width="12"
         height="16.000017"
         x="-282"
         y="-32"
         rx="1"
         ry="1" />
      <rect
         transform="matrix(0,-1,-1,0,0,0)"
         style="fill:#5f7c8a;fill-opacity:1;stroke:none"
         id="rect4203"
         width="31.999985"
         height="40"
         x="-276"
         y="-180"
         rx="2"
         ry="2" />
      <path
         id="path4262"
         d="m 142,276 c -1.108,0 -2,-0.892 -2,-2 l 0,-1 c 0,1.108 0.892,2 2,2 l 36,0 c 1.108,0 2,-0.892 2,-2 l 0,1 c 0,1.108 -0.892,2 -2,2 l -36,0 z"
         style="opacity:0.2;fill:#000000;fill-opacity:1;stroke:none"
         inkscape:connector-curvature="0" />
      <rect
         ry="0"
         rx="0"
         y="-177"
         x="-273"
         height="34"
         width="26"
         id="rect3282"
         style="fill:#7f96a1;fill-opacity:1;stroke:none"
         transform="matrix(0,-1,-1,0,0,0)" />
      <path
         id="path4294"
         d="m 140,274 c 0,1.108 0.892,2 2,2 l 36,0 c 1.108,0 2,-0.892 2,-2 l 0,-14 -40,0 z"
         style="opacity:0.1;fill:url(#linearGradient3912);fill-opacity:1;stroke:none"
         inkscape:connector-curvature="0"
         sodipodi:nodetypes="ssssccs" />
      <path
         inkscape:connector-curvature="0"
         id="path4242"
         d="m 149,258.85417 0,17.8125 c 0,0.73866 0.59467,1.33333 1.33333,1.33333 l 22.08334,0 z m 4,8.45833 L 161.1875,274 153,274 z"
         style="opacity:0.2;fill:#000000;fill-opacity:1;stroke:none;filter:url(#filter4298)"
         sodipodi:nodetypes="csscccccc" />
      <path
         style="fill:#ebebeb;fill-opacity:1;stroke:none"
         d="m 149,257.85417 0,17.8125 c 0,0.73866 0.59467,1.33333 1.33333,1.33333 l 22.08334,0 z m 4,8.45833 L 161.1875,273 153,273 z"
         id="rect4225"
         inkscape:connector-curvature="0"
         sodipodi:nodetypes="csscccccc" />
      <path
         style="fill:#000000;fill-opacity:1;stroke:none;opacity:0.2"
         d="M 50 202 L 50 203 C 50 203.554 50.446 204 51 204 L 69 204 C 69.554 204 70 203.554 70 203 L 70 202 C 70 202.554 69.554 203 69 203 L 51 203 C 50.446 203 50 202.554 50 202 z "
         transform="translate(0,76)"
         id="rect3122" />
      <path
         id="path3895"
         d="m 50,266 0,-1 c 0,-0.554 0.446,-1 1,-1 l 18,0 c 0.554,0 1,0.446 1,1 l 0,1 c 0,-0.554 -0.446,-1 -1,-1 l -18,0 c -0.554,0 -1,0.446 -1,1 z"
         style="opacity:0.1;fill:#ffffff;fill-opacity:1;stroke:none"
         inkscape:connector-curvature="0" />
      <path
         id="path3897"
         d="m 50,279 0,1 c 0,0.554 0.446,1 1,1 l 18,0 c 0.554,0 1,-0.446 1,-1 l 0,-1 c 0,0.554 -0.446,1 -1,1 l -18,0 c -0.554,0 -1,-0.446 -1,-1 z"
         style="opacity:0.2;fill:#000000;fill-opacity:1;stroke:none"
         inkscape:connector-curvature="0" />
      <path
         style="opacity:0.2;fill:#000000;fill-opacity:1;stroke:none"
         d="M 408 167 L 408 168 C 408 172.432 411.568 176 416 176 L 560 176 C 564.432 176 568 172.432 568 168 L 568 167 C 568 171.432 564.432 175 560 175 L 416 175 C 411.568 175 408 171.432 408 167 z "
         transform="translate(0,76)"
         id="path3085" />
      <path
         id="path3953"
         d="m 408,133 0,-1 c 0,-4.432 3.568,-8 8,-8 l 144,0 c 4.432,0 8,3.568 8,8 l 0,1 c 0,-4.432 -3.568,-8 -8,-8 l -144,0 c -4.432,0 -8,3.568 -8,8 z"
         style="opacity:0.20000000000000001;fill:#ffffff;fill-opacity:1;stroke:none"
         inkscape:connector-curvature="0" />
    </g>
  </g>
</svg>
