<?xml version="1.0" encoding="UTF-8" standalone="no"?>
<!-- Created with Inkscape (http://www.inkscape.org/) -->

<svg
   xmlns:dc="http://purl.org/dc/elements/1.1/"
   xmlns:cc="http://creativecommons.org/ns#"
   xmlns:rdf="http://www.w3.org/1999/02/22-rdf-syntax-ns#"
   xmlns:svg="http://www.w3.org/2000/svg"
   xmlns="http://www.w3.org/2000/svg"
   xmlns:xlink="http://www.w3.org/1999/xlink"
   xmlns:sodipodi="http://sodipodi.sourceforge.net/DTD/sodipodi-0.dtd"
   xmlns:inkscape="http://www.inkscape.org/namespaces/inkscape"
   inkscape:export-ydpi="90.000000"
   inkscape:export-xdpi="90.000000"
   width="600"
   height="224"
   id="svg11300"
   sodipodi:version="0.32"
   inkscape:version="0.48.5 r10040"
   sodipodi:docname="preferences-desktop-wallpaper.svg"
   inkscape:output_extension="org.inkscape.output.svg.inkscape"
   version="1.0"
   style="display:inline;enable-background:new"
   inkscape:export-filename="/home/sam/paper-template.png">
  <title
     id="title3004">Paper Icon Theme Template</title>
  <sodipodi:namedview
     stroke="#ef2929"
     fill="#f57900"
     id="base"
     pagecolor="#474747"
     bordercolor="#666666"
     borderopacity="0.25490196"
     inkscape:pageopacity="0"
     inkscape:pageshadow="2"
     inkscape:zoom="1"
     inkscape:cx="290.33704"
     inkscape:cy="32.510418"
     inkscape:current-layer="layer6"
     showgrid="false"
     inkscape:grid-bbox="true"
     inkscape:document-units="px"
     inkscape:showpageshadow="false"
     inkscape:window-width="1364"
     inkscape:window-height="708"
     inkscape:window-x="0"
     inkscape:window-y="29"
     width="400px"
     height="300px"
     inkscape:snap-nodes="true"
     inkscape:snap-bbox="true"
     gridtolerance="10000"
     inkscape:object-nodes="true"
     inkscape:snap-grids="true"
     showguides="true"
     inkscape:guide-bbox="true"
     inkscape:window-maximized="1">
    <inkscape:grid
       spacingy="1px"
       spacingx="1px"
       id="grid5883"
       type="xygrid"
       enabled="true"
       visible="true"
       empspacing="4"
       snapvisiblegridlinesonly="true" />
    <inkscape:grid
       type="xygrid"
       id="grid11592"
       empspacing="2"
       visible="true"
       enabled="false"
       spacingx="0.5px"
       spacingy="0.5px"
       color="#ff0000"
       opacity="0.1254902"
       empcolor="#ff0000"
       empopacity="0.25098039"
       snapvisiblegridlinesonly="true" />
    <sodipodi:guide
       orientation="0,1"
       position="0,224"
       id="guide4275" />
  </sodipodi:namedview>
  <defs
     id="defs3">
    <linearGradient
       inkscape:collect="always"
       id="linearGradient4337">
      <stop
         style="stop-color:#000000;stop-opacity:1;"
         offset="0"
         id="stop4339" />
      <stop
         style="stop-color:#000000;stop-opacity:0;"
         offset="1"
         id="stop4341" />
    </linearGradient>
    <linearGradient
       inkscape:collect="always"
       id="linearGradient4269">
      <stop
         style="stop-color:#ffffff;stop-opacity:1;"
         offset="0"
         id="stop4271" />
      <stop
         style="stop-color:#ffffff;stop-opacity:0;"
         offset="1"
         id="stop4273" />
    </linearGradient>
    <linearGradient
       id="linearGradient4069">
      <stop
         id="stop4071"
         offset="0"
         style="stop-color:#000000;stop-opacity:1" />
      <stop
         id="stop4073"
         offset="1"
         style="stop-color:#000000;stop-opacity:0" />
    </linearGradient>
    <filter
       inkscape:collect="always"
       id="filter4079">
      <feGaussianBlur
         inkscape:collect="always"
         stdDeviation="0.89999981"
         id="feGaussianBlur4081" />
    </filter>
    <linearGradient
       inkscape:collect="always"
       xlink:href="#linearGradient4269"
       id="linearGradient4296"
       gradientUnits="userSpaceOnUse"
       x1="143.00002"
       y1="203"
       x2="127.00002"
       y2="203"
       gradientTransform="matrix(0,-1,1,0,-28,327.00002)" />
    <linearGradient
       inkscape:collect="always"
       xlink:href="#linearGradient4337"
       id="linearGradient4343"
       x1="144"
       y1="172"
       x2="160"
       y2="188"
       gradientUnits="userSpaceOnUse" />
    <linearGradient
       inkscape:collect="always"
       xlink:href="#linearGradient4337"
       id="linearGradient4393"
       gradientUnits="userSpaceOnUse"
       x1="144"
       y1="172"
       x2="160"
       y2="188" />
    <linearGradient
       inkscape:collect="always"
       xlink:href="#linearGradient4269"
       id="linearGradient4395"
       gradientUnits="userSpaceOnUse"
       gradientTransform="matrix(0,-1,1,0,-28,327.00002)"
       x1="143.00002"
       y1="203"
       x2="127.00002"
       y2="203" />
    <linearGradient
       inkscape:collect="always"
       xlink:href="#linearGradient4269"
       id="linearGradient4399"
       gradientUnits="userSpaceOnUse"
       gradientTransform="matrix(0,-2,2,0,-48,522.00004)"
       x1="143.00002"
       y1="203"
       x2="127.00002"
       y2="203" />
    <linearGradient
       inkscape:collect="always"
       xlink:href="#linearGradient4337"
       id="linearGradient4402"
       gradientUnits="userSpaceOnUse"
       x1="144"
       y1="172"
       x2="160"
       y2="188"
       gradientTransform="matrix(2,0,0,2,8,-132)" />
    <filter
       inkscape:collect="always"
       id="filter4408">
      <feGaussianBlur
         inkscape:collect="always"
         stdDeviation="1.8"
         id="feGaussianBlur4410" />
    </filter>
    <linearGradient
       inkscape:collect="always"
       xlink:href="#linearGradient4269"
       id="linearGradient4416"
       gradientUnits="userSpaceOnUse"
       gradientTransform="matrix(0,-2,2,0,-48,523.00004)"
       x1="143.00002"
       y1="203"
       x2="127.00002"
       y2="203" />
  </defs>
  <metadata
     id="metadata4">
    <rdf:RDF>
      <cc:Work
         rdf:about="">
        <dc:format>image/svg+xml</dc:format>
        <dc:type
           rdf:resource="http://purl.org/dc/dcmitype/StillImage" />
        <dc:creator>
          <cc:Agent>
            <dc:title>Sam Hewitt</dc:title>
          </cc:Agent>
        </dc:creator>
        <dc:source />
        <cc:license
           rdf:resource="" />
        <dc:title>Paper Icon Theme Template</dc:title>
        <dc:subject>
          <rdf:Bag />
        </dc:subject>
        <dc:date />
        <dc:rights>
          <cc:Agent>
            <dc:title />
          </cc:Agent>
        </dc:rights>
        <dc:publisher>
          <cc:Agent>
            <dc:title />
          </cc:Agent>
        </dc:publisher>
        <dc:identifier />
        <dc:relation />
        <dc:language />
        <dc:coverage />
        <dc:description />
        <dc:contributor>
          <cc:Agent>
            <dc:title />
          </cc:Agent>
        </dc:contributor>
      </cc:Work>
      <cc:Work
         rdf:about="">
        <dc:format>image/svg+xml</dc:format>
        <dc:type
           rdf:resource="http://purl.org/dc/dcmitype/StillImage" />
      </cc:Work>
    </rdf:RDF>
  </metadata>
  <g
     style="display:inline"
     inkscape:groupmode="layer"
     inkscape:label="Icon"
     id="layer1"
     transform="translate(0,-76)">
    <g
       style="display:none"
       inkscape:label="Baseplate"
       id="layer7"
       inkscape:groupmode="layer">
      <text
         y="59.745117"
         xml:space="preserve"
         x="15.006836"
         style="font-size:18px;font-style:normal;font-variant:normal;font-weight:normal;font-stretch:normal;fill:#000000;fill-opacity:1;stroke:none;display:inline;enable-background:new;font-family:DejaVu Sans;-inkscape-font-specification:DejaVu Sans"
         inkscape:label="context"
         id="context"><tspan
           style="font-style:normal;font-variant:normal;font-weight:normal;font-stretch:normal;font-family:DejaVu Sans;-inkscape-font-specification:DejaVu Sans"
           y="59.745117"
           x="15.006836"
           sodipodi:role="line"
           id="tspan3933">apps</tspan></text>
      <text
         y="59.745117"
         xml:space="preserve"
         x="142.48828"
         style="font-size:18px;font-style:normal;font-variant:normal;font-weight:bold;font-stretch:normal;text-align:start;line-height:125%;writing-mode:lr-tb;text-anchor:start;fill:#000000;fill-opacity:1;stroke:none;display:inline;enable-background:new;font-family:DejaVu Sans;-inkscape-font-specification:DejaVu Sans Bold"
         sodipodi:linespacing="125%"
         inkscape:label="icon-name"
         id="icon-name"><tspan
           style="font-size:18px;font-style:normal;font-variant:normal;font-weight:bold;font-stretch:normal;font-family:DejaVu Sans;-inkscape-font-specification:DejaVu Sans Bold"
           y="59.745117"
           x="142.48828"
           sodipodi:role="line"
           id="tspan3937">preferences-desktop-wallpaper</tspan></text>
      <rect
         style="fill:#e9e9e9;fill-opacity:1;fill-rule:nonzero;stroke:none;stroke-width:2;marker:none;visibility:visible;display:inline;overflow:visible;enable-background:accumulate"
         id="rect16x16"
         width="16"
         height="16"
         x="-32"
         y="268"
         inkscape:label="16x16"
         transform="scale(-1,1)" />
      <rect
         style="fill:#e9e9e9;fill-opacity:1;fill-rule:nonzero;stroke:none;stroke-width:2;marker:none;visibility:visible;display:inline;overflow:visible;enable-background:accumulate"
         id="rect24x24"
         width="24"
         height="24"
         x="-72"
         y="260"
         inkscape:label="24x24"
         transform="scale(-1,1)" />
      <rect
         style="fill:#e9e9e9;fill-opacity:1;fill-rule:nonzero;stroke:none;stroke-width:2;marker:none;visibility:visible;display:inline;overflow:visible;enable-background:accumulate"
         id="rect32x32"
         width="32"
         height="32"
         x="-120"
         y="252"
         inkscape:label="32x32"
         transform="scale(-1,1)" />
      <rect
         inkscape:label="48x48"
         y="236"
         x="-184"
         height="48"
         width="48"
         id="rect48x48"
         style="fill:#e9e9e9;fill-opacity:1;fill-rule:nonzero;stroke:none;stroke-width:2;marker:none;visibility:visible;display:inline;overflow:visible;enable-background:accumulate"
         transform="scale(-1,1)" />
      <rect
         style="fill:#e9e9e9;fill-opacity:1;fill-rule:nonzero;stroke:none;stroke-width:2;marker:none;visibility:visible;display:inline;overflow:visible;enable-background:accumulate"
         id="rect256x256"
         width="192"
         height="192"
         x="-584"
         y="92"
         inkscape:label="256x256"
         transform="scale(-1,1)" />
      <rect
         inkscape:label="256x256"
         y="188"
         x="-376"
         height="96"
         width="96"
         id="rect3949"
         style="fill:#e9e9e9;fill-opacity:1;fill-rule:nonzero;stroke:none;stroke-width:2;marker:none;visibility:visible;display:inline;overflow:visible;enable-background:accumulate"
         transform="scale(-1,1)" />
      <rect
         style="fill:#e9e9e9;fill-opacity:1;fill-rule:nonzero;stroke:none;stroke-width:2;marker:none;visibility:visible;display:inline;overflow:visible;enable-background:accumulate"
         id="rect3951"
         width="64"
         height="64"
         x="-264"
         y="220"
         inkscape:label="48x48"
         transform="scale(-1,1)" />
    </g>
    <g
       inkscape:groupmode="layer"
       id="layer6"
       inkscape:label="Symbols"
       style="display:inline">
      <rect
         ry="8"
         rx="8"
         y="-568"
         x="-252"
         height="160"
         width="128"
         id="rect4189"
         style="fill:#5f7c8a;fill-opacity:1;stroke:none"
         transform="matrix(0,-1,-1,0,0,0)" />
      <path
         style="opacity:0.5;fill:#000000;fill-opacity:1;stroke:none;filter:url(#filter4079)"
         d="M 152 169 L 140 181 L 140 199 C 140 200.108 140.892 201 142 201 L 178 201 C 179.108 201 180 200.108 180 199 L 180 171 C 180 169.892 179.108 169 178 169 L 152 169 z "
         transform="translate(0,76)"
         id="rect4077" />
      <path
         style="fill:#5f7c8a;fill-opacity:1;stroke:none"
         d="M 152 168 L 152 178 C 152 179.10457 151.10457 180 150 180 L 140 180 L 140 198 C 140 199.108 140.892 200 142 200 L 178 200 C 179.108 200 180 199.108 180 198 L 180 170 C 180 168.892 179.108 168 178 168 L 152 168 z "
         transform="translate(0,76)"
         id="rect4203" />
      <path
         id="path4262"
         d="m 142,276 c -1.108,0 -2,-0.892 -2,-2 l 0,-1 c 0,1.108 0.892,2 2,2 l 36,0 c 1.108,0 2,-0.892 2,-2 l 0,1 c 0,1.108 -0.892,2 -2,2 l -36,0 z"
         style="opacity:0.2;fill:#000000;fill-opacity:1;stroke:none"
         inkscape:connector-curvature="0" />
      <rect
         ry="3"
         rx="3"
         y="-259.99988"
         x="-274.00009"
         height="55.999878"
         width="44.000092"
         id="rect4229"
         style="fill:#5f7c8a;fill-opacity:1;stroke:none"
         transform="matrix(0,-1,-1,0,0,0)" />
      <rect
         ry="1"
         rx="1"
         y="-70"
         x="-280"
         height="19.999992"
         width="16"
         id="rect4243"
         style="fill:#5f7c8a;fill-opacity:1;stroke:none"
         transform="matrix(0,-1,-1,0,0,0)" />
      <rect
         transform="matrix(0,-1,-1,0,0,0)"
         style="fill:#5f7c8a;fill-opacity:1;stroke:none"
         id="rect4255"
         width="22"
         height="28"
         x="-279"
         y="-118"
         rx="1.5"
         ry="1.5" />
      <rect
         transform="matrix(0,-1,-1,0,0,0)"
         style="fill:#5f7c8a;fill-opacity:1;stroke:none;display:inline;enable-background:new"
         id="rect4265"
         width="12"
         height="16.000017"
         x="-282"
         y="-32"
         rx="1"
         ry="1" />
      <path
         style="fill:#7f96a1;fill-opacity:1;stroke:none"
         d="M 152 171 L 152 178 C 152 179.10457 151.10457 180 150 180 L 143 180 L 143 197 L 177 197 L 177 171 L 152 171 z "
         id="rect3282"
         transform="translate(0,76)" />
      <path
         style="opacity:0.2;fill:url(#linearGradient4343);fill-opacity:1;stroke:none"
         d="m 152,168 -3,9 -9,3 14,18 14,-14 z"
         transform="translate(0,76)"
         id="path4335"
         inkscape:connector-curvature="0"
         sodipodi:nodetypes="cccccc" />
      <path
         style="opacity:0.10000000000000001;fill:url(#linearGradient4296);fill-opacity:1;stroke:none"
         d="M 140 184 L 140 197 C 140 198.108 140.892 199 142 199 L 178 199 C 179.108 199 180 198.108 180 197 L 180 184 L 140 184 z "
         transform="translate(0,76)"
         id="path4294" />
      <path
         inkscape:connector-curvature="0"
         id="path4240"
         d="m 152,244 0,10 c 0,1.10457 -0.89543,2 -2,2 l -10,0 12,-12 z"
         style="fill:#bfcbd0;fill-opacity:1;stroke:none;display:inline;enable-background:new" />
      <path
         inkscape:connector-curvature="0"
         id="path4370"
         d="m 312,205 -24,24 0,36 c 0,2.216 1.784,4 4,4 l 72,0 c 2.216,0 4,-1.784 4,-4 l 0,-56 c 0,-2.216 -1.784,-4 -4,-4 l -52,0 z"
         style="opacity:0.50000000000000000;fill:#000000;fill-opacity:1;stroke:none;filter:url(#filter4408)" />
      <path
         inkscape:connector-curvature="0"
         id="path4372"
         d="m 312,204 0,20 c 0,2.20914 -1.79086,4 -4,4 l -20,0 0,36 c 0,2.216 1.784,4 4,4 l 72,0 c 2.216,0 4,-1.784 4,-4 l 0,-56 c 0,-2.216 -1.784,-4 -4,-4 l -52,0 z"
         style="fill:#5f7c8a;fill-opacity:1;stroke:none" />
      <path
         style="opacity:0.2;fill:#000000;fill-opacity:1;stroke:none"
         d="M 288 187 L 288 188 C 288 190.216 289.784 192 292 192 L 364 192 C 366.216 192 368 190.216 368 188 L 368 187 C 368 189.216 366.216 191 364 191 L 292 191 C 289.784 191 288 189.216 288 187 z "
         transform="translate(0,76)"
         id="path4374" />
      <path
         inkscape:connector-curvature="0"
         id="path4376"
         d="m 312,210 0,14 c 0,2.20914 -1.79086,4 -4,4 l -14,0 0,34 68,0 0,-52 -50,0 z"
         style="fill:#7f96a1;fill-opacity:1;stroke:none" />
      <path
         sodipodi:nodetypes="cccccc"
         inkscape:connector-curvature="0"
         id="path4378"
         d="m 312,204 -6,18 -18,6 28,36 28,-28 z"
         style="opacity:0.2;fill:url(#linearGradient4402);fill-opacity:1;stroke:none" />
      <path
         inkscape:connector-curvature="0"
         id="path4380"
         d="m 288,236 0,26.70711 c 0,2.216 1.784,4 4,4 l 72,0 c 2.216,0 4,-1.784 4,-4 L 368,236 z"
         style="opacity:0.1;fill:url(#linearGradient4399);fill-opacity:1;stroke:none"
         sodipodi:nodetypes="csssscc" />
      <path
         style="fill:#bfcbd0;fill-opacity:1;stroke:none;display:inline;enable-background:new"
         d="m 312,204 0,20 c 0,2.20914 -1.79086,4 -4,4 l -20,0 24,-24 z"
         id="path4382"
         inkscape:connector-curvature="0" />
    </g>
  </g>
</svg>
