<?xml version="1.0" encoding="UTF-8" standalone="no"?>
<!-- Created with Inkscape (http://www.inkscape.org/) -->

<svg
   xmlns:osb="http://www.openswatchbook.org/uri/2009/osb"
   xmlns:dc="http://purl.org/dc/elements/1.1/"
   xmlns:cc="http://creativecommons.org/ns#"
   xmlns:rdf="http://www.w3.org/1999/02/22-rdf-syntax-ns#"
   xmlns:svg="http://www.w3.org/2000/svg"
   xmlns="http://www.w3.org/2000/svg"
   xmlns:sodipodi="http://sodipodi.sourceforge.net/DTD/sodipodi-0.dtd"
   xmlns:inkscape="http://www.inkscape.org/namespaces/inkscape"
   inkscape:export-ydpi="90.000000"
   inkscape:export-xdpi="90.000000"
   width="736"
   height="544"
   id="svg11300"
   sodipodi:version="0.32"
   inkscape:version="0.91 r13725"
   sodipodi:docname="qtox.svg"
   inkscape:output_extension="org.inkscape.output.svg.inkscape"
   version="1.0"
   style="display:inline;enable-background:new"
   inkscape:export-filename="/home/sam/paper-template.png">
  <title
     id="title3004">Paper Icon Theme</title>
  <sodipodi:namedview
     stroke="#ef2929"
     fill="#f57900"
     id="base"
     pagecolor="#6b6b6b"
     bordercolor="#666666"
     borderopacity="0.25490196"
     inkscape:pageopacity="0"
     inkscape:pageshadow="2"
     inkscape:zoom="1"
     inkscape:cx="333.80001"
     inkscape:cy="258.3"
     inkscape:current-layer="layer7"
     showgrid="false"
     inkscape:grid-bbox="true"
     inkscape:document-units="px"
     inkscape:showpageshadow="false"
     inkscape:window-width="1920"
     inkscape:window-height="1019"
     inkscape:window-x="0"
     inkscape:window-y="27"
     width="400px"
     height="300px"
     inkscape:snap-nodes="true"
     inkscape:snap-bbox="true"
     gridtolerance="10000"
     inkscape:object-nodes="true"
     inkscape:snap-grids="true"
     showguides="true"
     inkscape:guide-bbox="true"
     inkscape:window-maximized="1"
     inkscape:bbox-nodes="true"
     inkscape:snap-bbox-edge-midpoints="true">
    <inkscape:grid
       spacingy="1px"
       spacingx="1px"
       id="grid5883"
       type="xygrid"
       enabled="true"
       visible="true"
       empspacing="4"
       snapvisiblegridlinesonly="true" />
    <inkscape:grid
       type="xygrid"
       id="grid11592"
       empspacing="2"
       visible="true"
       enabled="false"
       spacingx="0.5px"
       spacingy="0.5px"
       color="#ff0000"
       opacity="0.1254902"
       empcolor="#ff0000"
       empopacity="0.25098039"
       snapvisiblegridlinesonly="true" />
  </sodipodi:namedview>
  <defs
     id="defs3">
    <linearGradient
       osb:paint="solid"
       id="linearGradient5606">
      <stop
         style="stop-color:#000000;stop-opacity:1;"
         offset="0"
         id="stop5608" />
    </linearGradient>
    <filter
       inkscape:collect="always"
       style="color-interpolation-filters:sRGB"
       id="filter4505"
       x="-0.132"
       width="1.264"
       y="-0.11"
       height="1.22">
      <feGaussianBlur
         inkscape:collect="always"
         stdDeviation="0.88"
         id="feGaussianBlur4507" />
    </filter>
    <filter
       inkscape:collect="always"
       style="color-interpolation-filters:sRGB"
       id="filter4513"
       x="-0.027272727"
       width="1.0545455"
       y="-0.021428571"
       height="1.0428571">
      <feGaussianBlur
         inkscape:collect="always"
         stdDeviation="4"
         id="feGaussianBlur4515" />
    </filter>
  </defs>
  <metadata
     id="metadata4">
    <rdf:RDF>
      <cc:Work
         rdf:about="">
        <dc:format>image/svg+xml</dc:format>
        <dc:type
           rdf:resource="http://purl.org/dc/dcmitype/StillImage" />
        <dc:creator>
          <cc:Agent>
            <dc:title>Sam Hewitt</dc:title>
          </cc:Agent>
        </dc:creator>
        <dc:source />
        <cc:license
           rdf:resource="http://creativecommons.org/licenses/by-sa/3.0/" />
        <dc:title>Paper Icon Theme</dc:title>
        <dc:subject>
          <rdf:Bag />
        </dc:subject>
        <dc:date />
        <dc:rights>
          <cc:Agent>
            <dc:title />
          </cc:Agent>
        </dc:rights>
        <dc:publisher>
          <cc:Agent>
            <dc:title />
          </cc:Agent>
        </dc:publisher>
        <dc:identifier />
        <dc:relation />
        <dc:language />
        <dc:coverage />
        <dc:description />
        <dc:contributor>
          <cc:Agent>
            <dc:title />
          </cc:Agent>
        </dc:contributor>
      </cc:Work>
      <cc:Work
         rdf:about="">
        <dc:format>image/svg+xml</dc:format>
        <dc:type
           rdf:resource="http://purl.org/dc/dcmitype/StillImage" />
      </cc:Work>
      <cc:License
         rdf:about="http://creativecommons.org/licenses/by-sa/3.0/">
        <cc:permits
           rdf:resource="http://creativecommons.org/ns#Reproduction" />
        <cc:permits
           rdf:resource="http://creativecommons.org/ns#Distribution" />
        <cc:requires
           rdf:resource="http://creativecommons.org/ns#Notice" />
        <cc:requires
           rdf:resource="http://creativecommons.org/ns#Attribution" />
        <cc:permits
           rdf:resource="http://creativecommons.org/ns#DerivativeWorks" />
        <cc:requires
           rdf:resource="http://creativecommons.org/ns#ShareAlike" />
      </cc:License>
    </rdf:RDF>
  </metadata>
  <g
     style="display:inline"
     inkscape:groupmode="layer"
     inkscape:label="Icon"
     id="layer1"
     transform="translate(0,244)">
    <g
       style="display:none"
       inkscape:label="Baseplate"
       id="layer7"
       inkscape:groupmode="layer">
      <text
         y="332.48523"
         xml:space="preserve"
         x="15.006836"
         style="font-style:normal;font-variant:normal;font-weight:normal;font-stretch:normal;font-size:18px;font-family:'DejaVu Sans';-inkscape-font-specification:'DejaVu Sans';display:inline;fill:#000000;fill-opacity:1;stroke:none;enable-background:new"
         inkscape:label="context"
         id="context"><tspan
           style="font-style:normal;font-variant:normal;font-weight:normal;font-stretch:normal;font-family:'DejaVu Sans';-inkscape-font-specification:'DejaVu Sans'"
           y="332.48523"
           x="15.006836"
           sodipodi:role="line"
           id="tspan3933">apps</tspan></text>
      <text
         y="332.48523"
         xml:space="preserve"
         x="142.48828"
         style="font-style:normal;font-variant:normal;font-weight:bold;font-stretch:normal;font-size:18px;line-height:125%;font-family:'DejaVu Sans';-inkscape-font-specification:'DejaVu Sans Bold';text-align:start;writing-mode:lr-tb;text-anchor:start;display:inline;fill:#000000;fill-opacity:1;stroke:none;enable-background:new"
         sodipodi:linespacing="125%"
         inkscape:label="icon-name"
         id="icon-name"><tspan
           style="font-style:normal;font-variant:normal;font-weight:bold;font-stretch:normal;font-size:18px;font-family:'DejaVu Sans';-inkscape-font-specification:'DejaVu Sans Bold'"
           y="332.48523"
           x="142.48828"
           sodipodi:role="line"
           id="tspan3937">qtox</tspan></text>
      <rect
         style="display:inline;overflow:visible;visibility:visible;fill:#e9e9e9;fill-opacity:1;fill-rule:nonzero;stroke:none;stroke-width:2;marker:none;enable-background:accumulate"
         id="rect16x16"
         width="16"
         height="16"
         x="-32"
         y="268"
         inkscape:label="16x16"
         transform="scale(-1,1)" />
      <rect
         style="display:inline;overflow:visible;visibility:visible;fill:#e9e9e9;fill-opacity:1;fill-rule:nonzero;stroke:none;stroke-width:2;marker:none;enable-background:accumulate"
         id="rect24x24"
         width="24"
         height="24"
         x="-76"
         y="260"
         inkscape:label="24x24"
         transform="scale(-1,1)" />
      <rect
         style="display:inline;overflow:visible;visibility:visible;fill:#e9e9e9;fill-opacity:1;fill-rule:nonzero;stroke:none;stroke-width:2;marker:none;enable-background:accumulate"
         id="rect32x32"
         width="32"
         height="32"
         x="-128"
         y="252"
         inkscape:label="32x32"
         transform="scale(-1,1)" />
      <rect
         inkscape:label="48x48"
         y="236"
         x="-192"
         height="48"
         width="48"
         id="rect48x48"
         style="display:inline;overflow:visible;visibility:visible;fill:#e9e9e9;fill-opacity:1;fill-rule:nonzero;stroke:none;stroke-width:2;marker:none;enable-background:accumulate"
         transform="scale(-1,1)" />
      <rect
         style="display:inline;overflow:visible;visibility:visible;fill:#e9e9e9;fill-opacity:1;fill-rule:nonzero;stroke:none;stroke-width:2;marker:none;enable-background:accumulate"
         id="rect3951"
         width="512"
         height="512"
         x="-720"
         y="-228"
         inkscape:label="48x48"
         transform="scale(-1,1)" />
    </g>
    <g
       inkscape:groupmode="layer"
       id="layer6"
       inkscape:label="Symbols"
       style="display:inline">
      <path
         sodipodi:nodetypes="sscsssssssscss"
         inkscape:connector-curvature="0"
         id="path4517"
         d="m 464,-192 c -70.912,0 -128,57.088 -128,128 l 0,48 -25.59961,0 C 297.99079,-16 288,-6.00921 288,6.40039 l 0,227.19922 C 288,246.00921 297.99079,256 310.40039,256 l 307.19922,0 C 630.00921,256 640,246.00921 640,233.59961 L 640,6.40039 C 640,-6.00921 630.00921,-16 617.59961,-16 L 592,-16 l 0,-48 c 0,-70.912 -57.088,-128 -128,-128 z"
         style="opacity:0.1;fill:#000000;fill-opacity:1;stroke:none;stroke-width:2;stroke-linecap:round;stroke-linejoin:round;stroke-miterlimit:4;stroke-dasharray:none;stroke-opacity:1;filter:url(#filter4513)" />
      <path
         style="opacity:0.2;fill:#000000;fill-opacity:1;stroke:none;stroke-width:2;stroke-linecap:round;stroke-linejoin:round;stroke-miterlimit:4;stroke-dasharray:none;stroke-opacity:1;filter:url(#filter4513)"
         d="m 464,-192 c -70.912,0 -128,57.088 -128,128 l 0,48 -25.59961,0 C 297.99079,-16 288,-6.00921 288,6.40039 l 0,227.19922 C 288,246.00921 297.99079,256 310.40039,256 l 307.19922,0 C 630.00921,256 640,246.00921 640,233.59961 L 640,6.40039 C 640,-6.00921 630.00921,-16 617.59961,-16 L 592,-16 l 0,-48 c 0,-70.912 -57.088,-128 -128,-128 z"
         id="path4511"
         inkscape:connector-curvature="0"
         sodipodi:nodetypes="sscsssssssscss" />
      <path
         sodipodi:nodetypes="sscsssssssscss"
         inkscape:connector-curvature="0"
         id="path4509"
         d="m 464,-194 c -70.912,0 -128,57.088 -128,128 l 0,48 -25.59961,0 C 297.99079,-18 288,-8.00921 288,4.40039 l 0,227.19922 C 288,244.00921 297.99079,254 310.40039,254 l 307.19922,0 C 630.00921,254 640,244.00921 640,231.59961 L 640,4.40039 C 640,-8.00921 630.00921,-18 617.59961,-18 L 592,-18 l 0,-48 c 0,-70.912 -57.088,-128 -128,-128 z"
         style="opacity:0.2;fill:#000000;fill-opacity:1;stroke:none;stroke-width:2;stroke-linecap:round;stroke-linejoin:round;stroke-miterlimit:4;stroke-dasharray:none;stroke-opacity:1" />
      <path
         sodipodi:nodetypes="sscsssssscss"
         inkscape:connector-curvature="0"
         id="path4306"
         d="m 24,269 c -2.77,0 -5,2.23 -5,5 l 0,2 c -0.554,0 -1,0.446 -1,1 l 0,7 c 0,0.554 0.446,1 1,1 l 10,0 c 0.554,0 1,-0.446 1,-1 l 0,-7 c 0,-0.554 -0.446,-1 -1,-1 l 0,-2 c 0,-2.77 -2.23,-5 -5,-5 z"
         style="display:inline;fill:#000000;fill-opacity:1;stroke:none;enable-background:new;opacity:0.2" />
      <path
         sodipodi:nodetypes="sscsssssssscss"
         inkscape:connector-curvature="0"
         id="path4308"
         d="m 168,241 c -6.648,0 -12,5.35195 -12,12 l 0,4 -2,0 c -1.108,0 -2,0.892 -2,2 l 0,20 c 0,1.108 0.892,2 2,2 l 28,0 c 1.108,0 2,-0.892 2,-2 l 0,-20 c 0,-1.108 -0.892,-2 -2,-2 l -2,0 0,-4 c 0,-6.64805 -5.352,-12 -12,-12 z"
         style="fill:#000000;fill-opacity:1;stroke:none;opacity:0.2" />
      <path
         sodipodi:nodetypes="sscsssssssscss"
         inkscape:connector-curvature="0"
         id="path4310"
         d="m 64,263 c -3.324,0 -6,2.67597 -6,6 l 0,2 -1,0 c -0.554,0 -1,0.446 -1,1 l 0,10 c 0,0.554 0.446,1 1,1 l 14,0 c 0.554,0 1,-0.446 1,-1 l 0,-10 c 0,-0.554 -0.446,-1 -1,-1 l -1,0 0,-2 c 0,-3.32403 -2.676,-6 -6,-6 z"
         style="fill:#000000;fill-opacity:1;stroke:none;opacity:0.2" />
      <path
         sodipodi:nodetypes="sscsssssssscss"
         inkscape:connector-curvature="0"
         id="path4312"
         d="m 112,255 c -4.432,0 -8,3.568 -8,8 l 0,3 -1.59961,0 C 101.62479,266 101,266.62479 101,267.40039 l 0,14.19922 c 0,0.7756 0.62479,1.40039 1.40039,1.40039 l 19.19922,0 C 122.37521,283 123,282.37521 123,281.59961 l 0,-14.19922 C 123,266.62479 122.37521,266 121.59961,266 L 120,266 l 0,-3 c 0,-4.432 -3.568,-8 -8,-8 z"
         style="opacity:0.2;fill:#000000;fill-opacity:1;stroke:none;stroke-width:2;stroke-linecap:round;stroke-linejoin:round;stroke-miterlimit:4;stroke-dasharray:none;stroke-opacity:1" />
      <path
         style="display:inline;fill:#ff9800;fill-opacity:1;stroke:none;enable-background:new"
         d="m 24,512 c -2.77,0 -5,2.23 -5,5 l 0,2 c -0.554,0 -1,0.446 -1,1 l 0,7 c 0,0.554 0.446,1 1,1 l 10,0 c 0.554,0 1,-0.446 1,-1 l 0,-7 c 0,-0.554 -0.446,-1 -1,-1 l 0,-2 c 0,-2.77 -2.23,-5 -5,-5 z"
         transform="translate(0,-244)"
         id="rect4395"
         inkscape:connector-curvature="0"
         sodipodi:nodetypes="sscsssssscss" />
      <path
         style="fill:#ff9800;fill-opacity:1;stroke:none"
         d="m 168,484 c -6.648,0 -12,5.35195 -12,12 l 0,4 -2,0 c -1.108,0 -2,0.892 -2,2 l 0,20 c 0,1.108 0.892,2 2,2 l 28,0 c 1.108,0 2,-0.892 2,-2 l 0,-20 c 0,-1.108 -0.892,-2 -2,-2 l -2,0 0,-4 c 0,-6.64805 -5.352,-12 -12,-12 z"
         id="rect4185"
         inkscape:connector-curvature="0"
         sodipodi:nodetypes="sscsssssssscss"
         transform="translate(0,-244)" />
      <path
         style="fill:#ff9800;fill-opacity:1;stroke:none"
         d="m 64,506 c -3.324,0 -6,2.67597 -6,6 l 0,2 -1,0 c -0.554,0 -1,0.446 -1,1 l 0,10 c 0,0.554 0.446,1 1,1 l 14,0 c 0.554,0 1,-0.446 1,-1 l 0,-10 c 0,-0.554 -0.446,-1 -1,-1 l -1,0 0,-2 c 0,-3.32403 -2.676,-6 -6,-6 z"
         transform="translate(0,-244)"
         id="path4295"
         inkscape:connector-curvature="0"
         sodipodi:nodetypes="sscsssssssscss" />
      <g
         id="g4282"
         transform="translate(0,1)"
         style="fill:#000000;opacity:0.2">
        <circle
           style="opacity:1;fill:#000000;fill-opacity:1;stroke:none;stroke-width:16;stroke-linecap:square;stroke-miterlimit:4;stroke-dasharray:none;stroke-opacity:1"
           id="circle4284"
           cx="168"
           cy="252"
           r="8" />
        <path
           style="fill:#000000;fill-opacity:1;fill-rule:evenodd;stroke:none;stroke-width:1px;stroke-linecap:butt;stroke-linejoin:miter;stroke-opacity:1"
           d="m 168,256 0,7 c 5.18248,-1.96563 8,-5.4 8,-11"
           id="path4286"
           inkscape:connector-curvature="0"
           sodipodi:nodetypes="ccc" />
      </g>
      <path
         style="opacity:1;fill:#ff9800;fill-opacity:1;stroke:none;stroke-width:2;stroke-linecap:round;stroke-linejoin:round;stroke-miterlimit:4;stroke-dasharray:none;stroke-opacity:1"
         d="m 112,498 c -4.432,0 -8,3.568 -8,8 l 0,3 -1.59961,0 C 101.62479,509 101,509.62479 101,510.40039 l 0,14.19922 c 0,0.7756 0.62479,1.40039 1.40039,1.40039 l 19.19922,0 C 122.37521,526 123,525.37521 123,524.59961 l 0,-14.19922 C 123,509.62479 122.37521,509 121.59961,509 L 120,509 l 0,-3 c 0,-4.432 -3.568,-8 -8,-8 z"
         transform="translate(0,-244)"
         id="path4367"
         inkscape:connector-curvature="0"
         sodipodi:nodetypes="sscsssssssscss" />
      <path
         style="opacity:1;fill:#ff9800;fill-opacity:1;stroke:none;stroke-width:2;stroke-linecap:round;stroke-linejoin:round;stroke-miterlimit:4;stroke-dasharray:none;stroke-opacity:1"
         d="m 464,48 c -70.912,0 -128,57.088 -128,128 l 0,48 -25.59961,0 C 297.99079,224 288,233.99079 288,246.40039 l 0,227.19922 C 288,486.00921 297.99079,496 310.40039,496 l 307.19922,0 C 630.00921,496 640,486.00921 640,473.59961 l 0,-227.19922 C 640,233.99079 630.00921,224 617.59961,224 L 592,224 592,176 C 592,105.088 534.912,48 464,48 Z"
         transform="translate(0,-244)"
         id="rect4324"
         inkscape:connector-curvature="0"
         sodipodi:nodetypes="sscsssssssscss" />
      <g
         transform="matrix(0.625,0,0,0.625,7,105.5)"
         id="g4288"
         style="fill:#000000;opacity:0.2">
        <circle
           r="8"
           cy="252"
           cx="168"
           id="circle4290"
           style="opacity:1;fill:#000000;fill-opacity:1;stroke:none;stroke-width:16;stroke-linecap:square;stroke-miterlimit:4;stroke-dasharray:none;stroke-opacity:1" />
        <path
           sodipodi:nodetypes="ccc"
           inkscape:connector-curvature="0"
           id="path4292"
           d="m 168,256 0,7 c 5.18248,-1.96563 8,-5.4 8,-11"
           style="fill:#000000;fill-opacity:1;fill-rule:evenodd;stroke:none;stroke-width:1px;stroke-linecap:butt;stroke-linejoin:miter;stroke-opacity:1" />
      </g>
      <g
         id="g4258">
        <circle
           r="8"
           cy="252"
           cx="168"
           id="circle4260"
           style="opacity:1;fill:#ffffff;fill-opacity:1;stroke:none;stroke-width:16;stroke-linecap:square;stroke-miterlimit:4;stroke-dasharray:none;stroke-opacity:1" />
        <path
           sodipodi:nodetypes="ccc"
           inkscape:connector-curvature="0"
           id="path4262"
           d="m 168,256 0,7 c 5.18248,-1.96563 8,-5.4 8,-11"
           style="fill:#ffffff;fill-opacity:1;fill-rule:evenodd;stroke:none;stroke-width:1px;stroke-linecap:butt;stroke-linejoin:miter;stroke-opacity:1" />
      </g>
      <g
         transform="matrix(10,0,0,10,-1216,-2574)"
         id="g4483"
         style="opacity:0.2;fill:#000000;fill-opacity:1;filter:url(#filter4505)">
        <circle
           r="8"
           cy="252"
           cx="168"
           id="circle4485"
           style="opacity:1;fill:#000000;fill-opacity:1;stroke:none;stroke-width:16;stroke-linecap:square;stroke-miterlimit:4;stroke-dasharray:none;stroke-opacity:1" />
        <path
           sodipodi:nodetypes="ccc"
           inkscape:connector-curvature="0"
           id="path4487"
           d="m 168,256 0,7.2 c 5.18248,-1.96563 8,-5.6 8,-11.2"
           style="fill:#000000;fill-opacity:1;fill-rule:evenodd;stroke:none;stroke-width:1px;stroke-linecap:butt;stroke-linejoin:miter;stroke-opacity:1" />
      </g>
      <g
         id="g4252"
         transform="matrix(10,0,0,10,-1216,-2588)">
        <circle
           style="opacity:1;fill:#ffffff;fill-opacity:1;stroke:none;stroke-width:16;stroke-linecap:square;stroke-miterlimit:4;stroke-dasharray:none;stroke-opacity:1"
           id="circle4254"
           cx="168"
           cy="252"
           r="8" />
        <path
           style="fill:#ffffff;fill-opacity:1;fill-rule:evenodd;stroke:none;stroke-width:1px;stroke-linecap:butt;stroke-linejoin:miter;stroke-opacity:1"
           d="m 168,256 0,7.2 c 5.18248,-1.96563 8,-5.6 8,-11.2"
           id="path4256"
           inkscape:connector-curvature="0"
           sodipodi:nodetypes="ccc" />
      </g>
      <g
         id="g4294"
         transform="matrix(0.5,0,0,0.5,-20,143)"
         style="fill:#000000;opacity:0.2">
        <circle
           style="opacity:1;fill:#000000;fill-opacity:1;stroke:none;stroke-width:16;stroke-linecap:square;stroke-miterlimit:4;stroke-dasharray:none;stroke-opacity:1"
           id="circle4296"
           cx="168"
           cy="252"
           r="8" />
        <path
           style="fill:#000000;fill-opacity:1;fill-rule:evenodd;stroke:none;stroke-width:1px;stroke-linecap:butt;stroke-linejoin:miter;stroke-opacity:1"
           d="m 168,256 0,7 c 5.18248,-1.96563 8,-5.4 8,-11"
           id="path4298"
           inkscape:connector-curvature="0"
           sodipodi:nodetypes="ccc" />
      </g>
      <g
         id="g4264"
         transform="matrix(0.625,0,0,0.625,7,104.5)">
        <circle
           style="opacity:1;fill:#ffffff;fill-opacity:1;stroke:none;stroke-width:16;stroke-linecap:square;stroke-miterlimit:4;stroke-dasharray:none;stroke-opacity:1"
           id="circle4266"
           cx="168"
           cy="252"
           r="8" />
        <path
           style="fill:#ffffff;fill-opacity:1;fill-rule:evenodd;stroke:none;stroke-width:1px;stroke-linecap:butt;stroke-linejoin:miter;stroke-opacity:1"
           d="m 168,256 0,7 c 5.18248,-1.96563 8,-5.4 8,-11"
           id="path4268"
           inkscape:connector-curvature="0"
           sodipodi:nodetypes="ccc" />
      </g>
      <g
         transform="matrix(0.375,0,0,0.375,-39,179.5)"
         id="g4300"
         style="fill:#000000;opacity:0.2">
        <circle
           r="8"
           cy="252"
           cx="168"
           id="circle4302"
           style="opacity:1;fill:#000000;fill-opacity:1;stroke:none;stroke-width:16;stroke-linecap:square;stroke-miterlimit:4;stroke-dasharray:none;stroke-opacity:1" />
        <path
           sodipodi:nodetypes="ccc"
           inkscape:connector-curvature="0"
           id="path4304"
           d="m 168,256 0,7 c 5.18248,-1.96563 8,-5.4 8,-11"
           style="fill:#000000;fill-opacity:1;fill-rule:evenodd;stroke:none;stroke-width:1px;stroke-linecap:butt;stroke-linejoin:miter;stroke-opacity:1" />
      </g>
      <g
         transform="matrix(0.5,0,0,0.5,-20,142)"
         id="g4270">
        <circle
           r="8"
           cy="252"
           cx="168"
           id="circle4272"
           style="opacity:1;fill:#ffffff;fill-opacity:1;stroke:none;stroke-width:16;stroke-linecap:square;stroke-miterlimit:4;stroke-dasharray:none;stroke-opacity:1" />
        <path
           sodipodi:nodetypes="ccc"
           inkscape:connector-curvature="0"
           id="path4274"
           d="m 168,256 0,7 c 5.18248,-1.96563 8,-5.4 8,-11"
           style="fill:#ffffff;fill-opacity:1;fill-rule:evenodd;stroke:none;stroke-width:1px;stroke-linecap:butt;stroke-linejoin:miter;stroke-opacity:1" />
      </g>
      <g
         id="g4276"
         transform="matrix(0.375,0,0,0.375,-39,178.5)">
        <circle
           style="opacity:1;fill:#ffffff;fill-opacity:1;stroke:none;stroke-width:16;stroke-linecap:square;stroke-miterlimit:4;stroke-dasharray:none;stroke-opacity:1"
           id="circle4278"
           cx="168"
           cy="252"
           r="8" />
        <path
           style="fill:#ffffff;fill-opacity:1;fill-rule:evenodd;stroke:none;stroke-width:1px;stroke-linecap:butt;stroke-linejoin:miter;stroke-opacity:1"
           d="m 168,256 0,7 c 5.18248,-1.96563 8,-5.4 8,-11"
           id="path4280"
           inkscape:connector-curvature="0"
           sodipodi:nodetypes="ccc" />
      </g>
      <g
         id="layer9"
         inkscape:label="status"
         style="display:inline;opacity:0.4;fill:#000000"
         transform="matrix(0.83333333,0,0,0.83333333,-176.16683,492.66667)">
        <path
           style="color:#000000;font-style:normal;font-variant:normal;font-weight:normal;font-stretch:normal;font-size:medium;line-height:normal;font-family:Sans;-inkscape-font-specification:Sans;text-indent:0;text-align:start;text-decoration:none;text-decoration-line:none;letter-spacing:normal;word-spacing:normal;text-transform:none;direction:ltr;block-progression:tb;writing-mode:lr-tb;baseline-shift:baseline;text-anchor:start;display:inline;overflow:visible;visibility:visible;fill:#000000;fill-opacity:1;stroke:none;stroke-width:2;marker:none;enable-background:accumulate"
           d="m 168,510 c -1.10457,0 -2,0.89543 -2,2 0,1.10457 0.89543,2 2,2 1.10457,0 2,-0.89543 2,-2 0,-1.10457 -0.89543,-2 -2,-2 z m 0,6 c -5.00019,0.003 -5,3.33594 -5,3.33594 l 0,0.66406 10,0 0,-0.66406 c 0,0 -1.9e-4,-3.33844 -5,-3.33594 z"
           transform="matrix(1.2,0,0,1.2,211.4002,-884.00001)"
           id="path6174-8"
           inkscape:connector-curvature="0"
           sodipodi:nodetypes="ssssscccccc" />
      </g>
      <g
         transform="matrix(13.333334,0,0,13.333334,-5036.6695,3686.707)"
         style="display:inline;opacity:0.4;fill:#000000"
         inkscape:label="status"
         id="g4479">
        <path
           style="color:#000000;font-style:normal;font-variant:normal;font-weight:normal;font-stretch:normal;font-size:medium;line-height:normal;font-family:Sans;-inkscape-font-specification:Sans;text-indent:0;text-align:start;text-decoration:none;text-decoration-line:none;letter-spacing:normal;word-spacing:normal;text-transform:none;direction:ltr;block-progression:tb;writing-mode:lr-tb;baseline-shift:baseline;text-anchor:start;display:inline;overflow:visible;visibility:visible;fill:#000000;fill-opacity:1;stroke:none;stroke-width:2;marker:none;enable-background:accumulate"
           d="m 464,312 c -22.09139,0 -40,17.90861 -40,40 0,22.09139 17.90861,40 40,40 22.09139,0 40,-17.90861 40,-40 0,-22.09139 -17.90861,-40 -40,-40 z m 2e-5,95.99998 C 392.00003,407.99998 392,452 392,452 l 0,12 144,0 0,-12 c 0,0 2e-5,-44.00002 -71.99998,-44.00002 z"
           transform="matrix(0.075,0,0,0.075,377.75019,-294.80301)"
           id="path4481"
           inkscape:connector-curvature="0"
           sodipodi:nodetypes="ssssscccccc" />
      </g>
      <path
         style="opacity:0.2;fill:#ffffff;fill-opacity:1;stroke:none;stroke-width:2;stroke-linecap:round;stroke-linejoin:round;stroke-miterlimit:4;stroke-dasharray:none;stroke-opacity:1"
         d="M 464 48 C 393.088 48 336 105.088 336 176 L 336 178 C 336 107.088 393.088 50 464 50 C 534.912 50 592 107.088 592 178 L 592 176 C 592 105.088 534.912 48 464 48 z M 310.40039 224 C 297.99079 224 288 233.99079 288 246.40039 L 288 248.40039 C 288 235.99079 297.99079 226 310.40039 226 L 336 226 L 336 224 L 310.40039 224 z M 592 224 L 592 226 L 617.59961 226 C 630.00921 226 640 235.99079 640 248.40039 L 640 246.40039 C 640 233.99079 630.00921 224 617.59961 224 L 592 224 z "
         transform="translate(0,-244)"
         id="path4519" />
      <path
         style="display:inline;fill:#ffffff;fill-opacity:1;stroke:none;enable-background:new;opacity:0.2"
         d="M 24 512 C 21.23 512 19 514.23 19 517 L 19 518 C 19 515.23 21.23 513 24 513 C 26.77 513 29 515.23 29 518 L 29 517 C 29 514.23 26.77 512 24 512 z M 19 519 C 18.446 519 18 519.446 18 520 L 18 521 C 18 520.446 18.446 520 19 520 L 19 519 z M 29 519 L 29 520 C 29.554 520 30 520.446 30 521 L 30 520 C 30 519.446 29.554 519 29 519 z "
         transform="translate(0,-244)"
         id="path4524" />
      <path
         style="fill:#ffffff;fill-opacity:1;stroke:none;opacity:0.2"
         d="M 168 484 C 161.352 484 156 489.35195 156 496 L 156 497 C 156 490.35195 161.352 485 168 485 C 174.648 485 180 490.35195 180 497 L 180 496 C 180 489.35195 174.648 484 168 484 z M 154 500 C 152.892 500 152 500.892 152 502 L 152 503 C 152 501.892 152.892 501 154 501 L 156 501 L 156 500 L 154 500 z M 180 500 L 180 501 L 182 501 C 183.108 501 184 501.892 184 503 L 184 502 C 184 500.892 183.108 500 182 500 L 180 500 z "
         transform="translate(0,-244)"
         id="path4526" />
      <path
         style="fill:#ffffff;fill-opacity:1;stroke:none;opacity:0.2"
         d="M 64 506 C 60.676 506 58 508.67597 58 512 L 58 513 C 58 509.67597 60.676 507 64 507 C 67.324 507 70 509.67597 70 513 L 70 512 C 70 508.67597 67.324 506 64 506 z M 57 514 C 56.446 514 56 514.446 56 515 L 56 516 C 56 515.446 56.446 515 57 515 L 58 515 L 58 514 L 57 514 z M 70 514 L 70 515 L 71 515 C 71.554 515 72 515.446 72 516 L 72 515 C 72 514.446 71.554 514 71 514 L 70 514 z "
         transform="translate(0,-244)"
         id="path4528" />
      <path
         style="opacity:0.2;fill:#ffffff;fill-opacity:1;stroke:none;stroke-width:2;stroke-linecap:round;stroke-linejoin:round;stroke-miterlimit:4;stroke-dasharray:none;stroke-opacity:1"
         d="M 112 498 C 107.568 498 104 501.568 104 506 L 104 507 C 104 502.568 107.568 499 112 499 C 116.432 499 120 502.568 120 507 L 120 506 C 120 501.568 116.432 498 112 498 z M 102.40039 509 C 101.62479 509 101 509.62479 101 510.40039 L 101 511.40039 C 101 510.62479 101.62479 510 102.40039 510 L 104 510 L 104 509 L 102.40039 509 z M 120 509 L 120 510 L 121.59961 510 C 122.37521 510 123 510.62479 123 511.40039 L 123 510.40039 C 123 509.62479 122.37521 509 121.59961 509 L 120 509 z "
         transform="translate(0,-244)"
         id="path4530" />
      <g
         transform="matrix(0.41666667,0,0,0.41666667,-108.08342,388.33334)"
         style="display:inline;opacity:0.4;fill:#000000"
         inkscape:label="status"
         id="g4547">
        <path
           sodipodi:nodetypes="ssssscccccc"
           inkscape:connector-curvature="0"
           id="path4549"
           transform="matrix(1.2,0,0,1.2,211.4002,-884.00001)"
           d="m 168,510 c -1.10457,0 -2,0.89543 -2,2 0,1.10457 0.89543,2 2,2 1.10457,0 2,-0.89543 2,-2 0,-1.10457 -0.89543,-2 -2,-2 z m 0,6 c -5.00019,0.003 -5,3.33594 -5,3.33594 l 0,0.66406 10,0 0,-0.66406 c 0,0 -1.9e-4,-3.33844 -5,-3.33594 z"
           style="color:#000000;font-style:normal;font-variant:normal;font-weight:normal;font-stretch:normal;font-size:medium;line-height:normal;font-family:Sans;-inkscape-font-specification:Sans;text-indent:0;text-align:start;text-decoration:none;text-decoration-line:none;letter-spacing:normal;word-spacing:normal;text-transform:none;direction:ltr;block-progression:tb;writing-mode:lr-tb;baseline-shift:baseline;text-anchor:start;display:inline;overflow:visible;visibility:visible;fill:#000000;fill-opacity:1;stroke:none;stroke-width:2;marker:none;enable-background:accumulate" />
      </g>
      <g
         id="g4551"
         inkscape:label="status"
         style="display:inline;opacity:0.4;fill:#000000"
         transform="matrix(0.66666667,0,0,0.66666667,-163.33627,453.37363)">
        <path
           style="color:#000000;font-style:normal;font-variant:normal;font-weight:normal;font-stretch:normal;font-size:medium;line-height:normal;font-family:Sans;-inkscape-font-specification:Sans;text-indent:0;text-align:start;text-decoration:none;text-decoration-line:none;letter-spacing:normal;word-spacing:normal;text-transform:none;direction:ltr;block-progression:tb;writing-mode:lr-tb;baseline-shift:baseline;text-anchor:start;display:inline;overflow:visible;visibility:visible;fill:#000000;fill-opacity:1;stroke:none;stroke-width:2;marker:none;enable-background:accumulate"
           d="M 112 515 A 2 2 0 0 0 110 517 A 2 2 0 0 0 112 519 A 2 2 0 0 0 114 517 A 2 2 0 0 0 112 515 z M 112 520.33203 C 107.99985 520.33427 108 523 108 523 L 107.99805 524.04102 L 115.99805 524.04102 L 116 523 C 116 523 115.99985 520.33003 112 520.33203 z "
           transform="matrix(1.5,0,0,1.5,245.0044,-1046.0604)"
           id="path4553" />
      </g>
    </g>
  </g>
</svg>
