<?xml version="1.0" encoding="UTF-8" standalone="no"?>
<!-- Created with Inkscape (http://www.inkscape.org/) -->

<svg
   xmlns:osb="http://www.openswatchbook.org/uri/2009/osb"
   xmlns:dc="http://purl.org/dc/elements/1.1/"
   xmlns:cc="http://creativecommons.org/ns#"
   xmlns:rdf="http://www.w3.org/1999/02/22-rdf-syntax-ns#"
   xmlns:svg="http://www.w3.org/2000/svg"
   xmlns="http://www.w3.org/2000/svg"
   xmlns:sodipodi="http://sodipodi.sourceforge.net/DTD/sodipodi-0.dtd"
   xmlns:inkscape="http://www.inkscape.org/namespaces/inkscape"
   inkscape:export-ydpi="90.000000"
   inkscape:export-xdpi="90.000000"
   width="736"
   height="544"
   id="svg11300"
   sodipodi:version="0.32"
   inkscape:version="0.91 r13725"
   sodipodi:docname="rednotebook.svg"
   inkscape:output_extension="org.inkscape.output.svg.inkscape"
   version="1.0"
   style="display:inline;enable-background:new"
   inkscape:export-filename="/home/sam/paper-template.png">
  <title
     id="title3004">Paper Icon Theme</title>
  <sodipodi:namedview
     stroke="#ef2929"
     fill="#f57900"
     id="base"
     pagecolor="#484848"
     bordercolor="#666666"
     borderopacity="0.25490196"
     inkscape:pageopacity="0"
     inkscape:pageshadow="2"
     inkscape:zoom="1"
     inkscape:cx="110.20796"
     inkscape:cy="28.422352"
     inkscape:current-layer="layer6"
     showgrid="false"
     inkscape:grid-bbox="true"
     inkscape:document-units="px"
     inkscape:showpageshadow="false"
     inkscape:window-width="1920"
     inkscape:window-height="1023"
     inkscape:window-x="0"
     inkscape:window-y="27"
     width="400px"
     height="300px"
     inkscape:snap-nodes="true"
     inkscape:snap-bbox="true"
     gridtolerance="10000"
     inkscape:object-nodes="true"
     inkscape:snap-grids="true"
     showguides="true"
     inkscape:guide-bbox="true"
     inkscape:window-maximized="1"
     inkscape:snap-global="true"
     inkscape:snap-intersection-paths="true"
     inkscape:object-paths="true"
     inkscape:snap-smooth-nodes="true">
    <inkscape:grid
       spacingy="1px"
       spacingx="1px"
       id="grid5883"
       type="xygrid"
       enabled="true"
       visible="true"
       empspacing="4"
       snapvisiblegridlinesonly="true" />
    <inkscape:grid
       type="xygrid"
       id="grid11592"
       empspacing="2"
       visible="true"
       enabled="false"
       spacingx="0.5px"
       spacingy="0.5px"
       color="#ff0000"
       opacity="0.1254902"
       empcolor="#ff0000"
       empopacity="0.25098039"
       snapvisiblegridlinesonly="true" />
  </sodipodi:namedview>
  <defs
     id="defs3">
    <linearGradient
       osb:paint="solid"
       id="linearGradient5606">
      <stop
         style="stop-color:#000000;stop-opacity:1;"
         offset="0"
         id="stop5608" />
    </linearGradient>
    <clipPath
       clipPathUnits="userSpaceOnUse"
       id="clipPath4260">
      <path
         id="path4262"
         d="m 232,148 0,56 19,0 c 1.662,0 3,-1.338 3,-3 l 0,-50 c 0,-1.662 -1.338,-3 -3,-3 l -19,0 z"
         style="fill:#d8d8d8;fill-opacity:1;stroke:none"
         inkscape:connector-curvature="0" />
    </clipPath>
    <filter
       inkscape:collect="always"
       style="color-interpolation-filters:sRGB"
       id="filter4332"
       x="-0.027272727"
       width="1.0545455"
       y="-0.02142857"
       height="1.0428571">
      <feGaussianBlur
         inkscape:collect="always"
         stdDeviation="4"
         id="feGaussianBlur4334" />
    </filter>
    <clipPath
       clipPathUnits="userSpaceOnUse"
       id="clipPath4419">
      <path
         inkscape:connector-curvature="0"
         id="path4421"
         d="m 168,240 0,40 14.02148,0 c 1.108,0 2,-0.892 2,-2 l 0,-36 c 0,-1.108 -0.892,-2 -2,-2 L 168,240 Z"
         style="fill:#d8d8d8;fill-opacity:1;stroke:none" />
    </clipPath>
    <filter
       inkscape:collect="always"
       style="color-interpolation-filters:sRGB"
       id="filter4360-0-3"
       x="-0.059999999"
       width="1.12"
       y="-0.059999999"
       height="1.12">
      <feGaussianBlur
         inkscape:collect="always"
         stdDeviation="0.6"
         id="feGaussianBlur4362-0-9" />
    </filter>
    <filter
       inkscape:collect="always"
       style="color-interpolation-filters:sRGB"
       id="filter4253-6-1"
       x="-0.059999999"
       width="1.12"
       y="-0.059999999"
       height="1.12">
      <feGaussianBlur
         inkscape:collect="always"
         stdDeviation="6"
         id="feGaussianBlur4255-2-9" />
    </filter>
    <filter
       inkscape:collect="always"
       style="color-interpolation-filters:sRGB"
       id="filter4700-0"
       x="-0.024"
       width="1.048"
       y="-0.024"
       height="1.048">
      <feGaussianBlur
         inkscape:collect="always"
         stdDeviation="2.4"
         id="feGaussianBlur4702-3" />
    </filter>
  </defs>
  <metadata
     id="metadata4">
    <rdf:RDF>
      <cc:Work
         rdf:about="">
        <dc:format>image/svg+xml</dc:format>
        <dc:type
           rdf:resource="http://purl.org/dc/dcmitype/StillImage" />
        <dc:creator>
          <cc:Agent>
            <dc:title>Sam Hewitt</dc:title>
          </cc:Agent>
        </dc:creator>
        <dc:source />
        <cc:license
           rdf:resource="http://creativecommons.org/licenses/by-sa/3.0/" />
        <dc:title>Paper Icon Theme</dc:title>
        <dc:subject>
          <rdf:Bag />
        </dc:subject>
        <dc:date />
        <dc:rights>
          <cc:Agent>
            <dc:title />
          </cc:Agent>
        </dc:rights>
        <dc:publisher>
          <cc:Agent>
            <dc:title />
          </cc:Agent>
        </dc:publisher>
        <dc:identifier />
        <dc:relation />
        <dc:language />
        <dc:coverage />
        <dc:description />
        <dc:contributor>
          <cc:Agent>
            <dc:title />
          </cc:Agent>
        </dc:contributor>
      </cc:Work>
      <cc:Work
         rdf:about="">
        <dc:format>image/svg+xml</dc:format>
        <dc:type
           rdf:resource="http://purl.org/dc/dcmitype/StillImage" />
      </cc:Work>
    </rdf:RDF>
  </metadata>
  <g
     style="display:inline"
     inkscape:groupmode="layer"
     inkscape:label="Icon"
     id="layer1"
     transform="translate(0,244)">
    <g
       style="display:none"
       inkscape:label="Baseplate"
       id="layer7"
       inkscape:groupmode="layer">
      <text
         y="332.48523"
         xml:space="preserve"
         x="15.006836"
         style="font-style:normal;font-variant:normal;font-weight:normal;font-stretch:normal;font-size:18px;font-family:'DejaVu Sans';-inkscape-font-specification:'DejaVu Sans';display:inline;fill:#000000;fill-opacity:1;stroke:none;enable-background:new"
         inkscape:label="context"
         id="context"><tspan
           style="font-style:normal;font-variant:normal;font-weight:normal;font-stretch:normal;font-family:'DejaVu Sans';-inkscape-font-specification:'DejaVu Sans'"
           y="332.48523"
           x="15.006836"
           sodipodi:role="line"
           id="tspan3933">apps</tspan></text>
      <text
         y="332.48523"
         xml:space="preserve"
         x="142.48828"
         style="font-style:normal;font-variant:normal;font-weight:bold;font-stretch:normal;font-size:18px;line-height:125%;font-family:'DejaVu Sans';-inkscape-font-specification:'DejaVu Sans Bold';text-align:start;writing-mode:lr-tb;text-anchor:start;display:inline;fill:#000000;fill-opacity:1;stroke:none;enable-background:new"
         sodipodi:linespacing="125%"
         inkscape:label="icon-name"
         id="icon-name"><tspan
           style="font-style:normal;font-variant:normal;font-weight:bold;font-stretch:normal;font-size:18px;font-family:'DejaVu Sans';-inkscape-font-specification:'DejaVu Sans Bold'"
           y="332.48523"
           x="142.48828"
           sodipodi:role="line"
           id="tspan3937">rednotebook</tspan></text>
      <rect
         style="display:inline;overflow:visible;visibility:visible;fill:#e9e9e9;fill-opacity:1;fill-rule:nonzero;stroke:none;stroke-width:2;marker:none;enable-background:accumulate"
         id="rect16x16"
         width="16"
         height="16"
         x="-32"
         y="268"
         inkscape:label="16x16"
         transform="scale(-1,1)" />
      <rect
         style="display:inline;overflow:visible;visibility:visible;fill:#e9e9e9;fill-opacity:1;fill-rule:nonzero;stroke:none;stroke-width:2;marker:none;enable-background:accumulate"
         id="rect24x24"
         width="24"
         height="24"
         x="-76"
         y="260"
         inkscape:label="24x24"
         transform="scale(-1,1)" />
      <rect
         style="display:inline;overflow:visible;visibility:visible;fill:#e9e9e9;fill-opacity:1;fill-rule:nonzero;stroke:none;stroke-width:2;marker:none;enable-background:accumulate"
         id="rect32x32"
         width="32"
         height="32"
         x="-128"
         y="252"
         inkscape:label="32x32"
         transform="scale(-1,1)" />
      <rect
         inkscape:label="48x48"
         y="236"
         x="-192"
         height="48"
         width="48"
         id="rect48x48"
         style="display:inline;overflow:visible;visibility:visible;fill:#e9e9e9;fill-opacity:1;fill-rule:nonzero;stroke:none;stroke-width:2;marker:none;enable-background:accumulate"
         transform="scale(-1,1)" />
      <rect
         style="display:inline;overflow:visible;visibility:visible;fill:#e9e9e9;fill-opacity:1;fill-rule:nonzero;stroke:none;stroke-width:2;marker:none;enable-background:accumulate"
         id="rect3951"
         width="512"
         height="512"
         x="-720"
         y="-228"
         inkscape:label="48x48"
         transform="scale(-1,1)" />
    </g>
    <g
       inkscape:groupmode="layer"
       id="layer6"
       inkscape:label="Symbols"
       style="display:inline">
      <rect
         style="opacity:0.2;fill:#000000;fill-opacity:1;stroke:none;stroke-width:8;stroke-linecap:round;stroke-linejoin:miter;stroke-miterlimit:4;stroke-dasharray:none;stroke-opacity:1"
         id="rect4489"
         width="18"
         height="22"
         x="55"
         y="262"
         rx="1"
         ry="1" />
      <rect
         style="opacity:1;fill:#c2352a;fill-opacity:1;stroke:none;stroke-width:8;stroke-linecap:round;stroke-linejoin:miter;stroke-miterlimit:4;stroke-dasharray:none;stroke-opacity:1"
         id="rect4480"
         width="18"
         height="22"
         x="-73"
         y="261"
         rx="1"
         ry="1"
         transform="scale(-1,1)" />
      <rect
         transform="matrix(0,-1,-1,0,0,0)"
         style="fill:#000000;fill-opacity:1;stroke:none;opacity:0.2"
         id="rect4460"
         width="28"
         height="22"
         x="-283"
         y="-123"
         rx="1.5"
         ry="1.5" />
      <path
         style="fill:#c2352a;fill-opacity:1;stroke:none"
         d="M 102.5 498 C 101.669 498 101 498.669 101 499.5 L 101 524.5 C 101 525.331 101.669 526 102.5 526 L 112 526 L 121.5 526 C 122.331 526 123 525.331 123 524.5 L 123 499.5 C 123 498.669 122.331 498 121.5 498 L 112 498 L 102.5 498 z "
         transform="translate(0,-244)"
         id="rect4255" />
      <path
         style="opacity:0.2;fill:#000000;fill-opacity:1;stroke:none"
         d="m 154.02148,241 c -1.108,0 -2,0.892 -2,2 l 0,36 c 0,1.108 0.892,2 2,2 L 168,281 l 14.02148,0 c 1.108,0 2,-0.892 2,-2 l 0,-36 c 0,-1.108 -0.892,-2 -2,-2 L 168,241 l -13.97852,0 z"
         id="path4410"
         inkscape:connector-curvature="0" />
      <path
         inkscape:connector-curvature="0"
         id="path4336"
         d="m 312,-192 c -13.296,0 -24,10.704 -24,24 l 0,400 c 0,13.296 10.704,24 24,24 l 152,0 152,0 c 13.296,0 24,-10.704 24,-24 l 0,-400 c 0,-13.296 -10.704,-24 -24,-24 l -152,0 -152,0 z"
         style="opacity:0.1;fill:#000000;fill-opacity:1;stroke:#000000;stroke-width:8;stroke-miterlimit:4;stroke-dasharray:none;stroke-opacity:1;filter:url(#filter4332)"
         transform="matrix(-1,0,0,1,928.00002,0)" />
      <path
         style="display:inline;fill:#c2352a;fill-opacity:1;stroke:none;enable-background:new"
         d="m 18,268 c -0.554,0 -1,0.446 -1,1 l 0,14 c 0,0.554 0.446,1 1,1 l 7,0 5,0 c 0.554,0 1,-0.446 1,-1 l 0,-14 c 0,-0.554 -0.446,-1 -1,-1 l -5,0 z"
         id="rect4265"
         inkscape:connector-curvature="0"
         sodipodi:nodetypes="sssscsssscs" />
      <path
         style="opacity:1;fill:#c2352a;fill-opacity:1;stroke:none"
         d="M 154.02148 484 C 152.91348 484 152.02148 484.892 152.02148 486 L 152.02148 522 C 152.02148 523.108 152.91348 524 154.02148 524 L 168 524 L 182.02148 524 C 183.12948 524 184.02148 523.108 184.02148 522 L 184.02148 486 C 184.02148 484.892 183.12948 484 182.02148 484 L 168 484 L 154.02148 484 z "
         transform="translate(0,-244)"
         id="path8375" />
      <path
         style="opacity:0.2;fill:#000000;fill-opacity:1;stroke:none"
         d="M 154.02148 484 C 152.91348 484 152.02148 484.892 152.02148 486 L 152.02148 522 C 152.02148 523.108 152.91348 524 154.02148 524 L 158 524 L 158 484 L 154.02148 484 z "
         transform="translate(0,-244)"
         id="path4229" />
      <path
         style="opacity:0.2;fill:#000000;fill-opacity:1;stroke:none;filter:url(#filter4332)"
         d="m 312,-192 c -13.296,0 -24,10.704 -24,24 l 0,400 c 0,13.296 10.704,24 24,24 l 152,0 152,0 c 13.296,0 24,-10.704 24,-24 l 0,-400 c 0,-13.296 -10.704,-24 -24,-24 l -152,0 -152,0 z"
         id="path4281"
         inkscape:connector-curvature="0" />
      <path
         style="fill:#c2352a;fill-opacity:1;stroke:none"
         d="M 312 48 C 298.704 48 288 58.704 288 72 L 288 472 C 288 485.296 298.704 496 312 496 L 464 496 L 616 496 C 629.296 496 640 485.296 640 472 L 640 72 C 640 58.704 629.296 48 616 48 L 464 48 L 312 48 z "
         id="rect4239"
         transform="translate(0,-244)" />
      <path
         style="display:inline;fill:#000000;fill-opacity:1;stroke:none;enable-background:new;opacity:0.2"
         d="M 18 512 C 17.446 512 17 512.446 17 513 L 17 527 C 17 527.554 17.446 528 18 528 L 19 528 L 19 512 L 18 512 z "
         transform="translate(0,-244)"
         id="path4242" />
      <path
         style="display:inline;opacity:0.2;fill:#ffffff;fill-opacity:1;stroke:none;enable-background:new"
         d="m 18,512 c -0.554,0 -1,0.446 -1,1 l 0,1 c 0,-0.554 0.446,-1 1,-1 l 6,0 6,0 c 0.554,0 1,0.446 1,1 l 0,-1 c 0,-0.554 -0.446,-1 -1,-1 l -6,0 z"
         transform="translate(0,-244)"
         id="path4435"
         inkscape:connector-curvature="0"
         sodipodi:nodetypes="sscscscsscs" />
      <path
         style="opacity:0.2;fill:#000000;fill-opacity:1;stroke:none"
         d="m 102.5,498 c -0.831,0 -1.5,0.669 -1.5,1.5 l 0,25 c 0,0.831 0.669,1.5 1.5,1.5 l 2.5,0 0,-28 z"
         transform="translate(0,-244)"
         id="path4234"
         inkscape:connector-curvature="0"
         sodipodi:nodetypes="ssssccs" />
      <rect
         ry="1"
         rx="1"
         y="261"
         x="55"
         height="22"
         width="18"
         id="rect4482"
         style="opacity:1;fill:#c2352a;fill-opacity:1;stroke:none;stroke-width:8;stroke-linecap:round;stroke-linejoin:miter;stroke-miterlimit:4;stroke-dasharray:none;stroke-opacity:1" />
      <path
         style="opacity:0.2;fill:#ffffff;fill-opacity:1;stroke:none;stroke-width:8;stroke-linecap:round;stroke-linejoin:miter;stroke-miterlimit:4;stroke-dasharray:none;stroke-opacity:1"
         d="M 56 505 C 55.446 505 55 505.446 55 506 L 55 507 C 55 506.446 55.446 506 56 506 L 72 506 C 72.554 506 73 506.446 73 507 L 73 506 C 73 505.446 72.554 505 72 505 L 56 505 z "
         transform="translate(0,-244)"
         id="rect4491" />
      <path
         style="fill:#000000;fill-opacity:1;stroke:none;opacity:0.2"
         d="M 312 48 C 298.704 48 288 58.704 288 72 L 288 472 C 288 485.296 298.704 496 312 496 L 352 496 L 352 48 L 312 48 z "
         transform="translate(0,-244)"
         id="path4224" />
      <path
         style="opacity:0.2;fill:#000000;fill-opacity:1;stroke:none;stroke-width:8;stroke-linecap:round;stroke-linejoin:miter;stroke-miterlimit:4;stroke-dasharray:none;stroke-opacity:1"
         d="M 56 505 C 55.446 505 55 505.446 55 506 L 55 526 C 55 526.554 55.446 527 56 527 L 58 527 L 58 505 L 56 505 z "
         transform="translate(0,-244)"
         id="rect4245" />
      <path
         style="opacity:0.2;fill:#ffffff;fill-opacity:1;stroke:none"
         d="M 154.02148 484 C 152.91348 484 152.02148 484.892 152.02148 486 L 152.02148 487 C 152.02148 485.892 152.91348 485 154.02148 485 L 168 485 L 182.02148 485 C 183.12948 485 184.02148 485.892 184.02148 487 L 184.02148 486 C 184.02148 484.892 183.12948 484 182.02148 484 L 168 484 L 154.02148 484 z "
         transform="translate(0,-244)"
         id="path4374" />
      <path
         style="opacity:0.2;fill:#ffffff;fill-opacity:1;stroke:none"
         d="m 312,-272 c -13.296,0 -24,10.704 -24,24 l 0,2 c 0,-13.296 10.704,-24 24,-24 l 152,0 152,0 c 13.296,0 24,10.704 24,24 l 0,-2 c 0,-13.296 -10.704,-24 -24,-24 l -152,0 -152,0 z"
         transform="translate(0,76)"
         id="path4286"
         inkscape:connector-curvature="0" />
      <path
         style="fill:#ffffff;fill-opacity:1;stroke:none;opacity:0.2"
         d="M 102.5 498 C 101.669 498 101 498.669 101 499.5 L 101 500.5 C 101 499.669 101.669 499 102.5 499 L 121.5 499 C 122.331 499 123 499.669 123 500.5 L 123 499.5 C 123 498.669 122.331 498 121.5 498 L 102.5 498 z "
         transform="translate(0,-244)"
         id="rect4448" />
      <path
         sodipodi:nodetypes="sscscscsscs"
         inkscape:connector-curvature="0"
         id="path4265"
         d="m 18,284 c -0.554,0 -1,-0.446 -1,-1 l 0,-1 c 0,0.554 0.446,1 1,1 l 6,0 6,0 c 0.554,0 1,-0.446 1,-1 l 0,1 c 0,0.554 -0.446,1 -1,1 l -6,0 z"
         style="display:inline;opacity:0.2;fill:#000000;fill-opacity:1;stroke:none;enable-background:new" />
      <path
         inkscape:connector-curvature="0"
         id="path4271"
         d="m 312,252 c -13.296,0 -24,-10.704 -24,-24 l 0,-2 c 0,13.296 10.704,24 24,24 l 152,0 152,0 c 13.296,0 24,-10.704 24,-24 l 0,2 c 0,13.296 -10.704,24 -24,24 l -152,0 -152,0 z"
         style="opacity:0.2;fill:#000000;fill-opacity:1;stroke:none" />
      <circle
         id="circle5079"
         style="display:inline;opacity:0.5;fill:#000000;fill-opacity:1;stroke:none;filter:url(#filter4360-0-3);enable-background:new"
         cx="168"
         cy="271"
         r="12"
         transform="matrix(0.83333333,0,0,0.83333333,36,46.1667)" />
      <circle
         id="circle5081"
         style="display:inline;opacity:0.2;fill:#000000;fill-opacity:1;stroke:none;enable-background:new"
         cx="-176"
         cy="272"
         r="12"
         transform="scale(-1,1)" />
      <circle
         r="12"
         cy="271"
         cx="-176"
         style="display:inline;fill:#fec006;fill-opacity:1;stroke:none;enable-background:new"
         id="circle5083"
         transform="scale(-1,1)" />
      <circle
         id="circle5085"
         style="display:inline;opacity:0.2;fill:#000000;fill-opacity:1;fill-rule:evenodd;stroke:none;enable-background:new"
         cx="118"
         cy="276"
         r="8" />
      <circle
         r="8"
         cy="275"
         cx="118"
         style="display:inline;fill:#fec006;fill-opacity:1;fill-rule:evenodd;stroke:none;enable-background:new"
         id="circle5087" />
      <circle
         cy="279"
         cx="69"
         style="display:inline;opacity:0.2;fill:#000000;fill-opacity:1;stroke:none;stroke-width:2;enable-background:new"
         id="circle5089"
         r="6" />
      <circle
         r="6"
         id="circle5091"
         style="display:inline;fill:#fec006;fill-opacity:1;stroke:none;stroke-width:2;enable-background:new"
         cx="69"
         cy="278" />
      <circle
         id="circle5093"
         style="display:inline;opacity:0.2;fill:#000000;fill-opacity:1;stroke:none;filter:url(#filter4253-6-1);enable-background:new"
         cx="537"
         cy="155"
         r="120" />
      <circle
         r="120"
         cy="151"
         cx="537"
         style="display:inline;opacity:0.2;fill:#000000;fill-opacity:1;stroke:none;filter:url(#filter4700-0);enable-background:new"
         id="circle5095" />
      <circle
         r="120"
         cy="149"
         cx="537"
         style="display:inline;fill:#fec006;fill-opacity:1;stroke:none;enable-background:new"
         id="circle5097" />
      <circle
         cy="279.5"
         cx="27.5"
         style="display:inline;fill:#fec006;fill-opacity:1;stroke:none;stroke-width:2;enable-background:new"
         id="circle5099"
         r="4.5" />
      <path
         inkscape:connector-curvature="0"
         d="m 170,274.3272 0,2.6728 2.67285,0 6.75067,-6.7507 -2.67285,-2.6728 z m 11.78797,-6.4337 c 0.28271,-0.2827 0.28271,-0.7282 0,-1.0109 l -1.67053,-1.6706 c -0.28271,-0.2827 -0.72818,-0.2827 -1.01089,0 l -1.39639,1.405 2.67285,2.6729 z"
         id="path4-0"
         sodipodi:nodetypes="cccccccsscccc"
         style="display:inline;fill:#ffffff;fill-opacity:1;stroke:none;enable-background:new" />
      <path
         inkscape:connector-curvature="0"
         d="m 476.99999,180.4896 0,28.5104 28.5104,0 64.00712,-64.0071 -28.5104,-28.5104 z m 117.73833,-60.6262 c 3.01559,-3.0155 3.01559,-7.7672 0,-10.7828 L 576.91936,91.2617 c -3.0156,-3.0156 -7.76728,-3.0156 -10.7828,0 l -14.89488,14.9862 28.5104,28.5104 z"
         id="path3883"
         sodipodi:nodetypes="cccccccsscccc"
         style="display:inline;fill:#ffffff;fill-opacity:1;stroke:none;enable-background:new" />
      <path
         style="display:inline;fill:#ffffff;fill-opacity:1;stroke:none;enable-background:new"
         sodipodi:nodetypes="cccccccsscccc"
         id="path3903"
         d="m 114,277.2181 0,1.7819 1.7819,0 4.50044,-4.5004 -1.78189,-1.7819 z m 7.85864,-4.2891 c 0.18848,-0.1885 0.18848,-0.4855 0,-0.6739 l -1.11368,-1.1137 c -0.18848,-0.1885 -0.48546,-0.1885 -0.67393,0 l -0.93093,0.9366 1.7819,1.7819 z"
         inkscape:connector-curvature="0" />
      <path
         inkscape:connector-curvature="0"
         d="M 66,279.5818 66,281 67.41818,281 72,276.4182 70.58183,275 Z"
         id="path5196"
         sodipodi:nodetypes="cccccc"
         style="display:inline;fill:#ffffff;fill-opacity:1;stroke:none;enable-background:new" />
      <path
         style="display:inline;fill:#ffffff;fill-opacity:1;stroke:none;enable-background:new"
         sodipodi:nodetypes="cccccc"
         id="path5186"
         d="M 25,280.5818 25,282 26.41818,282 30,278.4182 28.58183,277 Z"
         inkscape:connector-curvature="0" />
    </g>
  </g>
</svg>
