<?xml version="1.0" encoding="UTF-8" standalone="no"?>
<!-- Created with Inkscape (http://www.inkscape.org/) -->

<svg
   xmlns:dc="http://purl.org/dc/elements/1.1/"
   xmlns:cc="http://creativecommons.org/ns#"
   xmlns:rdf="http://www.w3.org/1999/02/22-rdf-syntax-ns#"
   xmlns:svg="http://www.w3.org/2000/svg"
   xmlns="http://www.w3.org/2000/svg"
   xmlns:sodipodi="http://sodipodi.sourceforge.net/DTD/sodipodi-0.dtd"
   xmlns:inkscape="http://www.inkscape.org/namespaces/inkscape"
   inkscape:export-ydpi="90.000000"
   inkscape:export-xdpi="90.000000"
   width="736"
   height="544"
   id="svg11300"
   sodipodi:version="0.32"
   inkscape:version="0.91 r13725"
   sodipodi:docname="redshift.svg"
   inkscape:output_extension="org.inkscape.output.svg.inkscape"
   version="1.0"
   style="display:inline;enable-background:new"
   inkscape:export-filename="/home/sam/paper-template.png">
  <title
     id="title3004">Paper Icon Theme Template</title>
  <sodipodi:namedview
     stroke="#ef2929"
     fill="#f57900"
     id="base"
     pagecolor="#6b6b6b"
     bordercolor="#000000"
     borderopacity="0.25490196"
     inkscape:pageopacity="0"
     inkscape:pageshadow="2"
     inkscape:zoom="1"
     inkscape:cx="180.60555"
     inkscape:cy="34.197147"
     inkscape:current-layer="layer6"
     showgrid="false"
     inkscape:grid-bbox="true"
     inkscape:document-units="px"
     inkscape:showpageshadow="false"
     inkscape:window-width="1920"
     inkscape:window-height="1023"
     inkscape:window-x="0"
     inkscape:window-y="27"
     width="400px"
     height="300px"
     inkscape:snap-nodes="true"
     inkscape:snap-bbox="true"
     gridtolerance="10000"
     inkscape:object-nodes="true"
     inkscape:snap-grids="true"
     showguides="true"
     inkscape:guide-bbox="true"
     inkscape:window-maximized="1"
     inkscape:bbox-paths="true"
     inkscape:snap-bbox-midpoints="true"
     inkscape:snap-global="true"
     inkscape:object-paths="false"
     inkscape:snap-intersection-paths="false"
     inkscape:snap-smooth-nodes="false">
    <inkscape:grid
       spacingy="1px"
       spacingx="1px"
       id="grid5883"
       type="xygrid"
       enabled="true"
       visible="true"
       empspacing="4"
       snapvisiblegridlinesonly="true" />
    <inkscape:grid
       type="xygrid"
       id="grid11592"
       empspacing="2"
       visible="true"
       enabled="false"
       spacingx="0.5px"
       spacingy="0.5px"
       color="#ff0000"
       opacity="0.1254902"
       empcolor="#ff0000"
       empopacity="0.25098039"
       snapvisiblegridlinesonly="true" />
  </sodipodi:namedview>
  <defs
     id="defs3">
    <filter
       inkscape:collect="always"
       style="color-interpolation-filters:sRGB"
       id="filter4444"
       x="-0.027"
       width="1.054"
       y="-0.0216"
       height="1.0432">
      <feGaussianBlur
         inkscape:collect="always"
         stdDeviation="4.32"
         id="feGaussianBlur4446" />
    </filter>
    <filter
       inkscape:collect="always"
       style="color-interpolation-filters:sRGB"
       id="filter4455"
       x="-0.024"
       width="1.048"
       y="-0.024"
       height="1.048">
      <feGaussianBlur
         inkscape:collect="always"
         stdDeviation="3.84"
         id="feGaussianBlur4457" />
    </filter>
    <clipPath
       clipPathUnits="userSpaceOnUse"
       id="clipPath4461">
      <rect
         ry="16"
         rx="0"
         y="-4"
         x="352"
         height="240"
         width="224"
         id="rect4463"
         style="display:inline;opacity:1;fill:#c6c6c6;fill-opacity:1;stroke:none;stroke-width:2;stroke-miterlimit:4;stroke-dasharray:none;stroke-opacity:1;enable-background:new" />
    </clipPath>
  </defs>
  <metadata
     id="metadata4">
    <rdf:RDF>
      <cc:Work
         rdf:about="">
        <dc:format>image/svg+xml</dc:format>
        <dc:type
           rdf:resource="http://purl.org/dc/dcmitype/StillImage" />
        <dc:creator>
          <cc:Agent>
            <dc:title>Sam Hewitt</dc:title>
          </cc:Agent>
        </dc:creator>
        <dc:source />
        <cc:license
           rdf:resource="http://creativecommons.org/licenses/by-sa/3.0/" />
        <dc:title>Paper Icon Theme Template</dc:title>
        <dc:subject>
          <rdf:Bag />
        </dc:subject>
        <dc:date />
        <dc:rights>
          <cc:Agent>
            <dc:title />
          </cc:Agent>
        </dc:rights>
        <dc:publisher>
          <cc:Agent>
            <dc:title />
          </cc:Agent>
        </dc:publisher>
        <dc:identifier />
        <dc:relation />
        <dc:language />
        <dc:coverage />
        <dc:description />
        <dc:contributor>
          <cc:Agent>
            <dc:title />
          </cc:Agent>
        </dc:contributor>
      </cc:Work>
      <cc:Work
         rdf:about="">
        <dc:format>image/svg+xml</dc:format>
        <dc:type
           rdf:resource="http://purl.org/dc/dcmitype/StillImage" />
      </cc:Work>
      <cc:License
         rdf:about="http://creativecommons.org/licenses/by-sa/3.0/">
        <cc:permits
           rdf:resource="http://creativecommons.org/ns#Reproduction" />
        <cc:permits
           rdf:resource="http://creativecommons.org/ns#Distribution" />
        <cc:requires
           rdf:resource="http://creativecommons.org/ns#Notice" />
        <cc:requires
           rdf:resource="http://creativecommons.org/ns#Attribution" />
        <cc:permits
           rdf:resource="http://creativecommons.org/ns#DerivativeWorks" />
        <cc:requires
           rdf:resource="http://creativecommons.org/ns#ShareAlike" />
      </cc:License>
    </rdf:RDF>
  </metadata>
  <g
     style="display:inline"
     inkscape:groupmode="layer"
     inkscape:label="Icon"
     id="layer1"
     transform="translate(0,244)">
    <g
       style="display:none"
       inkscape:label="Baseplate"
       id="layer7"
       inkscape:groupmode="layer">
      <text
         y="337.74512"
         xml:space="preserve"
         x="15.006836"
         style="font-style:normal;font-variant:normal;font-weight:normal;font-stretch:normal;font-size:18px;font-family:'DejaVu Sans';-inkscape-font-specification:'DejaVu Sans';display:inline;fill:#000000;fill-opacity:1;stroke:none;enable-background:new"
         inkscape:label="context"
         id="context"><tspan
           style="font-style:normal;font-variant:normal;font-weight:normal;font-stretch:normal;font-family:'DejaVu Sans';-inkscape-font-specification:'DejaVu Sans'"
           y="337.74512"
           x="15.006836"
           sodipodi:role="line"
           id="tspan3933">apps</tspan></text>
      <text
         y="337.74512"
         xml:space="preserve"
         x="142.48828"
         style="font-style:normal;font-variant:normal;font-weight:bold;font-stretch:normal;font-size:18px;line-height:125%;font-family:'DejaVu Sans';-inkscape-font-specification:'DejaVu Sans Bold';text-align:start;writing-mode:lr-tb;text-anchor:start;display:inline;fill:#000000;fill-opacity:1;stroke:none;enable-background:new"
         sodipodi:linespacing="125%"
         inkscape:label="icon-name"
         id="icon-name"><tspan
           style="font-style:normal;font-variant:normal;font-weight:bold;font-stretch:normal;font-size:18px;font-family:'DejaVu Sans';-inkscape-font-specification:'DejaVu Sans Bold'"
           y="337.74512"
           x="142.48828"
           sodipodi:role="line"
           id="tspan3937">redshift</tspan></text>
      <rect
         style="display:inline;overflow:visible;visibility:visible;fill:#d3d7cf;fill-opacity:1;fill-rule:nonzero;stroke:none;stroke-width:2;marker:none;enable-background:accumulate"
         id="rect16x16"
         width="16"
         height="16"
         x="-32"
         y="268"
         inkscape:label="16x16"
         transform="scale(-1,1)" />
      <rect
         style="display:inline;overflow:visible;visibility:visible;fill:#d3d7cf;fill-opacity:1;fill-rule:nonzero;stroke:none;stroke-width:2;marker:none;enable-background:accumulate"
         id="rect24x24"
         width="24"
         height="24"
         x="-76"
         y="260"
         inkscape:label="24x24"
         transform="scale(-1,1)" />
      <rect
         style="display:inline;overflow:visible;visibility:visible;fill:#d3d7cf;fill-opacity:1;fill-rule:nonzero;stroke:none;stroke-width:2;marker:none;enable-background:accumulate"
         id="rect32x32"
         width="32"
         height="32"
         x="-128"
         y="252"
         inkscape:label="32x32"
         transform="scale(-1,1)" />
      <rect
         inkscape:label="48x48"
         y="236"
         x="-192"
         height="48"
         width="48"
         id="rect48x48"
         style="display:inline;overflow:visible;visibility:visible;fill:#d3d7cf;fill-opacity:1;fill-rule:nonzero;stroke:none;stroke-width:2;marker:none;enable-background:accumulate"
         transform="scale(-1,1)" />
      <rect
         style="display:inline;overflow:visible;visibility:visible;fill:#d3d7cf;fill-opacity:1;fill-rule:nonzero;stroke:none;stroke-width:2;marker:none;enable-background:accumulate"
         id="rect3951"
         width="512"
         height="512"
         x="-720"
         y="-228"
         inkscape:label="48x48"
         transform="scale(-1,1)" />
    </g>
    <g
       inkscape:groupmode="layer"
       id="layer6"
       inkscape:label="Symbols"
       style="display:inline">
      <rect
         y="273"
         x="161"
         height="9"
         width="14"
         id="rect4465"
         style="display:inline;opacity:0.2;fill:#000000;fill-opacity:1;stroke:none;stroke-width:2;stroke-miterlimit:4;stroke-dasharray:none;stroke-opacity:1;enable-background:new" />
      <rect
         style="display:inline;opacity:0.2;fill:#000000;fill-opacity:1;stroke:none;stroke-width:2;stroke-miterlimit:4;stroke-dasharray:none;stroke-opacity:1;enable-background:new"
         id="rect4467"
         width="10"
         height="6"
         x="107"
         y="278" />
      <path
         style="display:inline;opacity:0.1;fill:#000000;fill-opacity:1;stroke:none;stroke-width:2;stroke-miterlimit:4;stroke-dasharray:none;stroke-opacity:1;filter:url(#filter4444);enable-background:new"
         d="M 464,-208 A 192,192 0 0 0 272,-16 192,192 0 0 0 352,139.73633 L 352,224 c 0,8.864 7.136,16 16,16 l 16,0 0,32 160,0 0,-32 16,0 c 8.864,0 16,-7.136 16,-16 l 0,-84.3457 A 192,192 0 0 0 656,-16 192,192 0 0 0 464,-208 Z"
         id="path4448"
         inkscape:connector-curvature="0" />
      <path
         inkscape:connector-curvature="0"
         id="path4438"
         d="M 464,-208 A 192,192 0 0 0 272,-16 192,192 0 0 0 352,139.73633 L 352,224 c 0,8.864 7.136,16 16,16 l 16,0 0,32 160,0 0,-32 16,0 c 8.864,0 16,-7.136 16,-16 l 0,-84.3457 A 192,192 0 0 0 656,-16 192,192 0 0 0 464,-208 Z"
         style="display:inline;opacity:0.2;fill:#000000;fill-opacity:1;stroke:none;stroke-width:2;stroke-miterlimit:4;stroke-dasharray:none;stroke-opacity:1;filter:url(#filter4444);enable-background:new" />
      <path
         style="display:inline;opacity:0.2;fill:#000000;fill-opacity:1;stroke:none;stroke-width:2;stroke-miterlimit:4;stroke-dasharray:none;stroke-opacity:1;enable-background:new"
         d="M 464,-210 A 192,192 0 0 0 272,-18 192,192 0 0 0 352,137.73633 L 352,222 c 0,8.864 7.136,16 16,16 l 16,0 0,32 160,0 0,-32 16,0 c 8.864,0 16,-7.136 16,-16 l 0,-84.3457 A 192,192 0 0 0 656,-18 192,192 0 0 0 464,-210 Z"
         id="rect4431"
         inkscape:connector-curvature="0" />
      <rect
         style="display:inline;opacity:1;fill:#818181;fill-opacity:1;stroke:none;stroke-width:2;stroke-miterlimit:4;stroke-dasharray:none;stroke-opacity:1;enable-background:new"
         id="rect4287"
         width="6"
         height="7"
         x="21"
         y="277" />
      <rect
         style="display:inline;opacity:1;fill:#c6c6c6;fill-opacity:1;stroke:none;stroke-width:2;stroke-miterlimit:4;stroke-dasharray:none;stroke-opacity:1;enable-background:new"
         id="rect4285"
         width="8"
         height="12"
         x="20"
         y="271"
         rx="0"
         ry="0.5" />
      <rect
         style="display:inline;opacity:1;fill:#818181;fill-opacity:1;stroke:none;stroke-width:2;stroke-miterlimit:4;stroke-dasharray:none;stroke-opacity:1;enable-background:new"
         id="rect4151"
         width="14"
         height="9"
         x="161"
         y="272" />
      <rect
         ry="1"
         rx="0"
         y="259"
         x="158"
         height="20"
         width="20"
         id="rect4194"
         style="display:inline;opacity:0.2;fill:#000000;fill-opacity:1;stroke:none;stroke-width:2;stroke-miterlimit:4;stroke-dasharray:none;stroke-opacity:1;enable-background:new" />
      <rect
         style="display:inline;opacity:1;fill:#c6c6c6;fill-opacity:1;stroke:none;stroke-width:2;stroke-miterlimit:4;stroke-dasharray:none;stroke-opacity:1;enable-background:new"
         id="rect4149"
         width="20"
         height="22"
         x="158"
         y="256"
         rx="0"
         ry="1" />
      <path
         style="display:inline;opacity:0.1;fill:#000000;fill-opacity:1;stroke:none;stroke-width:2;stroke-miterlimit:4;stroke-dasharray:none;stroke-opacity:1;enable-background:new"
         d="m 168,256 10,0 0,21 c 0,1 -1,1 -1,1 l -9,0 z"
         id="rect4177"
         inkscape:connector-curvature="0"
         sodipodi:nodetypes="cccccc" />
      <circle
         style="display:inline;opacity:1;fill:#ebebeb;fill-opacity:1;stroke:none;stroke-width:2;stroke-miterlimit:4;stroke-dasharray:none;stroke-opacity:1;enable-background:new"
         id="path4147"
         cx="168"
         cy="255"
         r="17" />
      <circle
         r="13"
         cy="255"
         cx="168"
         id="circle4185"
         style="display:inline;opacity:0.8;fill:#f34235;fill-opacity:1;stroke:none;stroke-width:2;stroke-miterlimit:4;stroke-dasharray:none;stroke-opacity:1;enable-background:new" />
      <path
         style="display:inline;opacity:0.05;fill:#000000;fill-opacity:1;stroke:none;stroke-width:2;stroke-miterlimit:4;stroke-dasharray:none;stroke-opacity:1;enable-background:new"
         d="m 168,238 0,34 a 17.000001,17.000001 0 0 0 17,-17 17.000001,17.000001 0 0 0 -17,-17 z"
         id="circle4153"
         inkscape:connector-curvature="0" />
      <path
         inkscape:connector-curvature="0"
         id="path4218"
         d="m 168,238 0,34 a 17.000001,17.000001 0 0 1 -17,-17 17.000001,17.000001 0 0 1 17,-17 z"
         style="display:inline;opacity:0.1;fill:#f9f9f9;fill-opacity:1;stroke:none;stroke-width:2;stroke-miterlimit:4;stroke-dasharray:none;stroke-opacity:1;enable-background:new" />
      <path
         inkscape:connector-curvature="0"
         id="circle4336"
         d="m 168,238 a 17,17 0 0 0 -17,17 17,17 0 0 0 0.0215,0.58008 A 17,17 0 0 1 168,239 17,17 0 0 1 184.97852,255.41992 17,17 0 0 0 185,255 17,17 0 0 0 168,238 Z"
         style="display:inline;opacity:0.2;fill:#ffffff;fill-opacity:1;stroke:none;stroke-width:2;stroke-miterlimit:4;stroke-dasharray:none;stroke-opacity:1;enable-background:new" />
      <path
         inkscape:connector-curvature="0"
         style="display:inline;opacity:0.2;fill:#000000;fill-opacity:1;stroke:none;stroke-width:2;stroke-miterlimit:4;stroke-dasharray:none;stroke-opacity:1;enable-background:new"
         d="m 168,273 a 17,17 0 0 1 -17,-17 17,17 0 0 1 0.0215,-0.58008 17,17 0 0 0 16.97852,16.58008 17,17 0 0 0 16.97851,-16.41992 17,17 0 0 1 0.0215,0.41992 17,17 0 0 1 -17,17 z"
         id="path4341" />
      <rect
         y="277"
         x="107"
         height="6"
         width="10"
         id="rect4220"
         style="display:inline;opacity:1;fill:#818181;fill-opacity:1;stroke:none;stroke-width:2;stroke-miterlimit:4;stroke-dasharray:none;stroke-opacity:1;enable-background:new" />
      <rect
         style="display:inline;opacity:0.2;fill:#000000;fill-opacity:1;stroke:none;stroke-width:2;stroke-miterlimit:4;stroke-dasharray:none;stroke-opacity:1;enable-background:new"
         id="rect4258"
         width="14"
         height="14"
         x="105"
         y="268"
         rx="0"
         ry="1" />
      <rect
         ry="1"
         rx="0"
         y="266"
         x="105"
         height="15"
         width="14"
         id="rect4222"
         style="display:inline;opacity:1;fill:#c6c6c6;fill-opacity:1;stroke:none;stroke-width:2;stroke-miterlimit:4;stroke-dasharray:none;stroke-opacity:1;enable-background:new" />
      <path
         style="display:inline;opacity:0.1;fill:#000000;fill-opacity:1;stroke:none;stroke-width:2;stroke-miterlimit:4;stroke-dasharray:none;stroke-opacity:1;enable-background:new"
         d="M 112 510 L 112 525 L 118 525 C 118.554 525 119 524.554 119 524 L 119 511 C 119 510.446 118.554 510 118 510 L 112 510 z "
         transform="translate(0,-244)"
         id="rect4343" />
      <circle
         r="12"
         cy="265"
         cx="112"
         id="circle4224"
         style="display:inline;opacity:1;fill:#ebebeb;fill-opacity:1;stroke:none;stroke-width:2;stroke-miterlimit:4;stroke-dasharray:none;stroke-opacity:1;enable-background:new" />
      <circle
         style="display:inline;opacity:0.8;fill:#f34235;fill-opacity:1;stroke:none;stroke-width:2;stroke-miterlimit:4;stroke-dasharray:none;stroke-opacity:1;enable-background:new"
         id="circle4226"
         cx="112"
         cy="265"
         r="9" />
      <path
         inkscape:connector-curvature="0"
         id="path4228"
         d="m 112,253 0,24 a 12.000001,12.000001 0 0 0 12,-12 12.000001,12.000001 0 0 0 -12,-12 z"
         style="display:inline;opacity:0.1;fill:#000000;fill-opacity:1;stroke:none;stroke-width:2;stroke-miterlimit:4;stroke-dasharray:none;stroke-opacity:1;enable-background:new" />
      <path
         style="display:inline;opacity:0.1;fill:#f9f9f9;fill-opacity:1;stroke:none;stroke-width:2;stroke-miterlimit:4;stroke-dasharray:none;stroke-opacity:1;enable-background:new"
         d="m 112,253 0,24 a 12.000001,12.000001 0 0 1 -12,-12 12.000001,12.000001 0 0 1 12,-12 z"
         id="path4232"
         inkscape:connector-curvature="0" />
      <path
         style="display:inline;opacity:0.2;fill:#ffffff;fill-opacity:1;stroke:none;stroke-width:2;stroke-miterlimit:4;stroke-dasharray:none;stroke-opacity:1;enable-background:new"
         d="M 112 497 A 12 12 0 0 0 100 509 A 12 12 0 0 0 100.01953 509.59375 A 12 12 0 0 1 112 498 A 12 12 0 0 1 123.98047 509.40625 A 12 12 0 0 0 124 509 A 12 12 0 0 0 112 497 z "
         transform="translate(0,-244)"
         id="circle4250" />
      <path
         id="path4255"
         d="m 112,278 a 12,12 0 0 1 -12,-12 12,12 0 0 1 0.0195,-0.59375 A 12,12 0 0 0 112,277 12,12 0 0 0 123.98047,265.59375 12,12 0 0 1 124,266 12,12 0 0 1 112,278 Z"
         style="display:inline;opacity:0.2;fill:#000000;fill-opacity:1;stroke:none;stroke-width:2;stroke-miterlimit:4;stroke-dasharray:none;stroke-opacity:1;enable-background:new"
         inkscape:connector-curvature="0" />
      <circle
         style="display:inline;opacity:1;fill:#ebebeb;fill-opacity:1;stroke:none;stroke-width:2;stroke-miterlimit:4;stroke-dasharray:none;stroke-opacity:1;enable-background:new"
         id="circle4268"
         cx="24"
         cy="274"
         r="7" />
      <circle
         r="5"
         cy="274"
         cx="-24"
         id="circle4270"
         style="display:inline;opacity:0.8;fill:#f34235;fill-opacity:1;stroke:none;stroke-width:2;stroke-miterlimit:4;stroke-dasharray:none;stroke-opacity:1;enable-background:new"
         transform="scale(-1,1)" />
      <path
         style="display:inline;opacity:0.1;fill:#000000;fill-opacity:1;stroke:none;stroke-width:2;stroke-miterlimit:4;stroke-dasharray:none;stroke-opacity:1;enable-background:new"
         d="m 24.000001,267.00001 0,14 a 7.0000008,7.0000008 0 0 0 7,-7 7.0000008,7.0000008 0 0 0 -7,-7 z"
         id="path4272"
         inkscape:connector-curvature="0" />
      <path
         inkscape:connector-curvature="0"
         id="path4274"
         d="m 24.000001,267.00001 0,14 a 7.0000008,7.0000008 0 0 1 -7,-7 7.0000008,7.0000008 0 0 1 7,-7 z"
         style="display:inline;opacity:0.1;fill:#f9f9f9;fill-opacity:1;stroke:none;stroke-width:2;stroke-miterlimit:4;stroke-dasharray:none;stroke-opacity:1;enable-background:new" />
      <rect
         y="273"
         x="60"
         height="10"
         width="8"
         id="rect4293"
         style="display:inline;opacity:1;fill:#818181;fill-opacity:1;stroke:none;stroke-width:2;stroke-miterlimit:4;stroke-dasharray:none;stroke-opacity:1;enable-background:new" />
      <rect
         ry="1.1458333"
         rx="0"
         y="266"
         x="58"
         height="15"
         width="12"
         id="rect4295"
         style="display:inline;opacity:1;fill:#c6c6c6;fill-opacity:1;stroke:none;stroke-width:2;stroke-miterlimit:4;stroke-dasharray:none;stroke-opacity:1;enable-background:new" />
      <path
         style="display:inline;opacity:0.1;fill:#000000;fill-opacity:1;stroke:none;stroke-width:2;stroke-miterlimit:4;stroke-dasharray:none;stroke-opacity:1;enable-background:new"
         d="M 64 510 L 64 525 L 68.853516 525 C 69.488307 525 70 524.48831 70 523.85352 L 70 511.14648 C 70 510.51169 69.488307 510 68.853516 510 L 64 510 z "
         transform="translate(0,-244)"
         id="rect4348" />
      <circle
         r="9"
         cy="270"
         cx="64"
         id="circle4297"
         style="display:inline;opacity:1;fill:#ebebeb;fill-opacity:1;stroke:none;stroke-width:2;stroke-miterlimit:4;stroke-dasharray:none;stroke-opacity:1;enable-background:new" />
      <circle
         transform="scale(-1,1)"
         style="display:inline;opacity:0.8;fill:#f34235;fill-opacity:1;stroke:none;stroke-width:2;stroke-miterlimit:4;stroke-dasharray:none;stroke-opacity:1;enable-background:new"
         id="circle4299"
         cx="-64"
         cy="270"
         r="7" />
      <path
         inkscape:connector-curvature="0"
         id="path4301"
         d="m 64,261 0,18 a 9.0000008,9.0000008 0 0 0 9,-9 9.0000008,9.0000008 0 0 0 -9,-9 z"
         style="display:inline;opacity:0.1;fill:#000000;fill-opacity:1;stroke:none;stroke-width:2;stroke-miterlimit:4;stroke-dasharray:none;stroke-opacity:1;enable-background:new" />
      <path
         style="display:inline;opacity:0.1;fill:#f9f9f9;fill-opacity:1;stroke:none;stroke-width:2;stroke-miterlimit:4;stroke-dasharray:none;stroke-opacity:1;enable-background:new"
         d="m 64,261 0,18 a 9.0000008,9.0000008 0 0 1 -9,-9 9.0000008,9.0000008 0 0 1 9,-9 z"
         id="path4303"
         inkscape:connector-curvature="0" />
      <rect
         style="display:inline;opacity:1;fill:#818181;fill-opacity:1;stroke:none;stroke-width:2;stroke-miterlimit:4;stroke-dasharray:none;stroke-opacity:1;enable-background:new"
         id="rect4389"
         width="160"
         height="96"
         x="384"
         y="172" />
      <rect
         style="display:inline;opacity:1;fill:#c6c6c6;fill-opacity:1;stroke:none;stroke-width:2;stroke-miterlimit:4;stroke-dasharray:none;stroke-opacity:1;enable-background:new"
         id="rect4393"
         width="224"
         height="240"
         x="352"
         y="-4"
         rx="0"
         ry="16" />
      <path
         inkscape:connector-curvature="0"
         id="path4395"
         d="m 464,-4 0,240 96,0 c 8.864,0 16,-7.136 16,-16 l 0,-208 c 0,-8.864 -7.136,-16 -16,-16 l -96,0 z"
         style="display:inline;opacity:0.1;fill:#000000;fill-opacity:1;stroke:none;stroke-width:2;stroke-miterlimit:4;stroke-dasharray:none;stroke-opacity:1;enable-background:new" />
      <circle
         r="192"
         cy="-16"
         cx="464"
         id="circle4453"
         style="display:inline;opacity:0.2;fill:#000000;fill-opacity:1;stroke:none;stroke-width:2;stroke-miterlimit:4;stroke-dasharray:none;stroke-opacity:1;filter:url(#filter4455);enable-background:new"
         clip-path="url(#clipPath4461)" />
      <circle
         style="display:inline;opacity:1;fill:#ebebeb;fill-opacity:1;stroke:none;stroke-width:2;stroke-miterlimit:4;stroke-dasharray:none;stroke-opacity:1;enable-background:new"
         id="circle4397"
         cx="464"
         cy="-20"
         r="192" />
      <circle
         r="144"
         cy="-20"
         cx="464"
         id="circle4399"
         style="display:inline;opacity:0.8;fill:#f34235;fill-opacity:1;stroke:none;stroke-width:2;stroke-miterlimit:4;stroke-dasharray:none;stroke-opacity:1;enable-background:new" />
      <path
         style="display:inline;opacity:0.05;fill:#000000;fill-opacity:1;stroke:none;stroke-width:2;stroke-miterlimit:4;stroke-dasharray:none;stroke-opacity:1;enable-background:new"
         d="m 464,-212 0,384 A 192.00002,192.00002 0 0 0 656,-20 192.00002,192.00002 0 0 0 464,-212 Z"
         id="path4401"
         inkscape:connector-curvature="0" />
      <path
         inkscape:connector-curvature="0"
         id="path4403"
         d="m 464,-212 0,384 A 192.00002,192.00002 0 0 1 272,-20 192.00002,192.00002 0 0 1 464,-212 Z"
         style="display:inline;opacity:0.1;fill:#f9f9f9;fill-opacity:1;stroke:none;stroke-width:2;stroke-miterlimit:4;stroke-dasharray:none;stroke-opacity:1;enable-background:new" />
      <path
         style="display:inline;opacity:0.2;fill:#ffffff;fill-opacity:1;stroke:none;stroke-width:2;stroke-miterlimit:4;stroke-dasharray:none;stroke-opacity:1;enable-background:new"
         d="M 464 32 A 192 192 0 0 0 272 224 A 192 192 0 0 0 272.0332 225.03711 A 192 192 0 0 1 464 34 A 192 192 0 0 1 655.95117 225.01953 A 192 192 0 0 0 656 224 A 192 192 0 0 0 464 32 z "
         transform="translate(0,-244)"
         id="path4405" />
    </g>
  </g>
</svg>
