<?xml version="1.0" encoding="UTF-8" standalone="no"?>
<!-- Created with Inkscape (http://www.inkscape.org/) -->

<svg
   xmlns:osb="http://www.openswatchbook.org/uri/2009/osb"
   xmlns:dc="http://purl.org/dc/elements/1.1/"
   xmlns:cc="http://creativecommons.org/ns#"
   xmlns:rdf="http://www.w3.org/1999/02/22-rdf-syntax-ns#"
   xmlns:svg="http://www.w3.org/2000/svg"
   xmlns="http://www.w3.org/2000/svg"
   xmlns:sodipodi="http://sodipodi.sourceforge.net/DTD/sodipodi-0.dtd"
   xmlns:inkscape="http://www.inkscape.org/namespaces/inkscape"
   inkscape:export-ydpi="90.000000"
   inkscape:export-xdpi="90.000000"
   width="736"
   height="544"
   id="svg11300"
   sodipodi:version="0.32"
   inkscape:version="0.91 r13725"
   sodipodi:docname="rstudio.svg"
   inkscape:output_extension="org.inkscape.output.svg.inkscape"
   version="1.0"
   style="display:inline;enable-background:new"
   inkscape:export-filename="/home/sam/paper-template.png">
  <title
     id="title3004">Paper Icon Theme</title>
  <sodipodi:namedview
     stroke="#ef2929"
     fill="#f57900"
     id="base"
     pagecolor="#474747"
     bordercolor="#666666"
     borderopacity="0.25490196"
     inkscape:pageopacity="0"
     inkscape:pageshadow="2"
     inkscape:zoom="1"
     inkscape:cx="365.75999"
     inkscape:cy="267.76"
     inkscape:current-layer="layer6"
     showgrid="false"
     inkscape:grid-bbox="true"
     inkscape:document-units="px"
     inkscape:showpageshadow="false"
     inkscape:window-width="1920"
     inkscape:window-height="1019"
     inkscape:window-x="0"
     inkscape:window-y="27"
     width="400px"
     height="300px"
     inkscape:snap-nodes="true"
     inkscape:snap-bbox="true"
     gridtolerance="10000"
     inkscape:object-nodes="true"
     inkscape:snap-grids="true"
     showguides="false"
     inkscape:guide-bbox="true"
     inkscape:window-maximized="1"
     inkscape:bbox-nodes="true"
     inkscape:snap-bbox-edge-midpoints="true"
     inkscape:snap-bbox-midpoints="true">
    <inkscape:grid
       spacingy="1px"
       spacingx="1px"
       id="grid5883"
       type="xygrid"
       enabled="true"
       visible="true"
       empspacing="4"
       snapvisiblegridlinesonly="true" />
    <inkscape:grid
       type="xygrid"
       id="grid11592"
       empspacing="2"
       visible="true"
       enabled="false"
       spacingx="0.5px"
       spacingy="0.5px"
       color="#ff0000"
       opacity="0.1254902"
       empcolor="#ff0000"
       empopacity="0.25098039"
       snapvisiblegridlinesonly="true" />
  </sodipodi:namedview>
  <defs
     id="defs3">
    <linearGradient
       osb:paint="solid"
       id="linearGradient5606">
      <stop
         style="stop-color:#000000;stop-opacity:1;"
         offset="0"
         id="stop5608" />
    </linearGradient>
    <filter
       inkscape:collect="always"
       style="color-interpolation-filters:sRGB"
       id="filter4564"
       x="-0.024"
       width="1.048"
       y="-0.024"
       height="1.048">
      <feGaussianBlur
         inkscape:collect="always"
         stdDeviation="4.8"
         id="feGaussianBlur4566" />
    </filter>
  </defs>
  <metadata
     id="metadata4">
    <rdf:RDF>
      <cc:Work
         rdf:about="">
        <dc:format>image/svg+xml</dc:format>
        <dc:type
           rdf:resource="http://purl.org/dc/dcmitype/StillImage" />
        <dc:creator>
          <cc:Agent>
            <dc:title>Sam Hewitt</dc:title>
          </cc:Agent>
        </dc:creator>
        <dc:source />
        <cc:license
           rdf:resource="http://creativecommons.org/licenses/by-sa/3.0/" />
        <dc:title>Paper Icon Theme</dc:title>
        <dc:subject>
          <rdf:Bag />
        </dc:subject>
        <dc:date />
        <dc:rights>
          <cc:Agent>
            <dc:title />
          </cc:Agent>
        </dc:rights>
        <dc:publisher>
          <cc:Agent>
            <dc:title />
          </cc:Agent>
        </dc:publisher>
        <dc:identifier />
        <dc:relation />
        <dc:language />
        <dc:coverage />
        <dc:description />
        <dc:contributor>
          <cc:Agent>
            <dc:title />
          </cc:Agent>
        </dc:contributor>
      </cc:Work>
      <cc:Work
         rdf:about="">
        <dc:format>image/svg+xml</dc:format>
        <dc:type
           rdf:resource="http://purl.org/dc/dcmitype/StillImage" />
      </cc:Work>
      <cc:License
         rdf:about="http://creativecommons.org/licenses/by-sa/3.0/">
        <cc:permits
           rdf:resource="http://creativecommons.org/ns#Reproduction" />
        <cc:permits
           rdf:resource="http://creativecommons.org/ns#Distribution" />
        <cc:requires
           rdf:resource="http://creativecommons.org/ns#Notice" />
        <cc:requires
           rdf:resource="http://creativecommons.org/ns#Attribution" />
        <cc:permits
           rdf:resource="http://creativecommons.org/ns#DerivativeWorks" />
        <cc:requires
           rdf:resource="http://creativecommons.org/ns#ShareAlike" />
      </cc:License>
    </rdf:RDF>
  </metadata>
  <g
     style="display:inline"
     inkscape:groupmode="layer"
     inkscape:label="Icon"
     id="layer1"
     transform="translate(0,244)">
    <g
       style="display:none"
       inkscape:label="Baseplate"
       id="layer7"
       inkscape:groupmode="layer">
      <rect
         style="display:inline;overflow:visible;visibility:visible;fill:#e9e9e9;fill-opacity:1;fill-rule:nonzero;stroke:none;stroke-width:2;marker:none;enable-background:accumulate"
         id="rect3951"
         width="512"
         height="512"
         x="-720"
         y="-228"
         inkscape:label="48x48"
         transform="scale(-1,1)" />
      <text
         y="332.48523"
         xml:space="preserve"
         x="15.006836"
         style="font-style:normal;font-variant:normal;font-weight:normal;font-stretch:normal;font-size:18px;font-family:'DejaVu Sans';-inkscape-font-specification:'DejaVu Sans';display:inline;fill:#000000;fill-opacity:1;stroke:none;enable-background:new"
         inkscape:label="context"
         id="context"><tspan
           style="font-style:normal;font-variant:normal;font-weight:normal;font-stretch:normal;font-family:'DejaVu Sans';-inkscape-font-specification:'DejaVu Sans'"
           y="332.48523"
           x="15.006836"
           sodipodi:role="line"
           id="tspan3933">apps</tspan></text>
      <text
         y="332.48523"
         xml:space="preserve"
         x="142.48828"
         style="font-style:normal;font-variant:normal;font-weight:bold;font-stretch:normal;font-size:18px;line-height:125%;font-family:'DejaVu Sans';-inkscape-font-specification:'DejaVu Sans Bold';text-align:start;writing-mode:lr-tb;text-anchor:start;display:inline;fill:#000000;fill-opacity:1;stroke:none;enable-background:new"
         sodipodi:linespacing="125%"
         inkscape:label="icon-name"
         id="icon-name"><tspan
           style="font-style:normal;font-variant:normal;font-weight:bold;font-stretch:normal;font-size:18px;font-family:'DejaVu Sans';-inkscape-font-specification:'DejaVu Sans Bold'"
           y="332.48523"
           x="142.48828"
           sodipodi:role="line"
           id="tspan3937">rstudio</tspan></text>
      <rect
         style="display:inline;overflow:visible;visibility:visible;fill:#e9e9e9;fill-opacity:1;fill-rule:nonzero;stroke:none;stroke-width:2;marker:none;enable-background:accumulate"
         id="rect16x16"
         width="16"
         height="16"
         x="-32"
         y="268"
         inkscape:label="16x16"
         transform="scale(-1,1)" />
      <rect
         style="display:inline;overflow:visible;visibility:visible;fill:#e9e9e9;fill-opacity:1;fill-rule:nonzero;stroke:none;stroke-width:2;marker:none;enable-background:accumulate"
         id="rect24x24"
         width="24"
         height="24"
         x="-76"
         y="260"
         inkscape:label="24x24"
         transform="scale(-1,1)" />
      <rect
         style="display:inline;overflow:visible;visibility:visible;fill:#e9e9e9;fill-opacity:1;fill-rule:nonzero;stroke:none;stroke-width:2;marker:none;enable-background:accumulate"
         id="rect32x32"
         width="32"
         height="32"
         x="-128"
         y="252"
         inkscape:label="32x32"
         transform="scale(-1,1)" />
      <rect
         inkscape:label="48x48"
         y="236"
         x="-192"
         height="48"
         width="48"
         id="rect48x48"
         style="display:inline;overflow:visible;visibility:visible;fill:#e9e9e9;fill-opacity:1;fill-rule:nonzero;stroke:none;stroke-width:2;marker:none;enable-background:accumulate"
         transform="scale(-1,1)" />
    </g>
    <g
       inkscape:groupmode="layer"
       id="layer6"
       inkscape:label="Symbols"
       style="display:inline">
      <circle
         r="240"
         cy="30"
         cx="464"
         id="circle5125"
         style="opacity:0.2;fill:#000000;fill-opacity:1;stroke:none;stroke-width:2;stroke-miterlimit:4;stroke-dasharray:none;stroke-opacity:1" />
      <circle
         style="opacity:0.1;fill:#000000;fill-opacity:1;stroke:none;stroke-width:2;stroke-miterlimit:4;stroke-dasharray:none;stroke-opacity:1;filter:url(#filter4564)"
         id="circle4568"
         cx="464"
         cy="32"
         r="240" />
      <circle
         r="240"
         cy="32"
         cx="464"
         id="circle4554"
         style="opacity:0.2;fill:#000000;fill-opacity:1;stroke:none;stroke-width:2;stroke-miterlimit:4;stroke-dasharray:none;stroke-opacity:1;filter:url(#filter4564)" />
      <circle
         r="11"
         cy="273"
         cx="64"
         id="circle4533"
         style="opacity:0.2;fill:#000000;fill-opacity:1;stroke:none;stroke-width:2;stroke-miterlimit:4;stroke-dasharray:none;stroke-opacity:1" />
      <circle
         r="22"
         cy="261"
         cx="168"
         id="circle4537"
         style="opacity:0.2;fill:#000000;fill-opacity:1;stroke:none;stroke-width:2;stroke-miterlimit:4;stroke-dasharray:none;stroke-opacity:1" />
      <circle
         r="8"
         cy="276"
         cx="24"
         id="circle4526"
         style="opacity:1;fill:#2196f3;fill-opacity:1;stroke:none;stroke-width:2;stroke-miterlimit:4;stroke-dasharray:none;stroke-opacity:1" />
      <circle
         style="opacity:1;fill:#2196f3;fill-opacity:1;stroke:none;stroke-width:2;stroke-miterlimit:4;stroke-dasharray:none;stroke-opacity:1"
         id="path4524"
         cx="64"
         cy="272"
         r="11" />
      <path
         style="opacity:0.2;fill:#ffffff;fill-opacity:1;stroke:none;stroke-width:2;stroke-miterlimit:4;stroke-dasharray:none;stroke-opacity:1"
         d="m 64,505 c -6.075132,0 -11,4.92487 -11,11 0.002,0.19547 0.0091,0.39085 0.02148,0.58594 C 53.243894,510.68141 58.091288,506.00735 64,506 c 5.845176,0.003 10.66716,4.57718 10.978516,10.41406 0.0098,-0.13787 0.01693,-0.27592 0.02148,-0.41406 0,-6.07513 -4.924868,-11 -11,-11 z"
         transform="translate(0,-244)"
         id="circle4545"
         inkscape:connector-curvature="0"
         sodipodi:nodetypes="scccccs" />
      <circle
         style="opacity:1;fill:#2196f3;fill-opacity:1;stroke:none;stroke-width:2;stroke-miterlimit:4;stroke-dasharray:none;stroke-opacity:1"
         id="path4520"
         cx="168"
         cy="260"
         r="22" />
      <path
         style="opacity:0.2;fill:#ffffff;fill-opacity:1;stroke:none;stroke-width:2;stroke-miterlimit:4;stroke-dasharray:none;stroke-opacity:1"
         d="m 168,482 c -12.15026,0 -22,9.84974 -22,22 0.005,0.1954 0.0117,0.39073 0.0215,0.58594 C 146.24699,492.60603 156.01797,483.00958 168,483 c 11.91673,0.007 21.66114,9.50156 21.97852,21.41406 0.008,-0.13795 0.0156,-0.27598 0.0215,-0.41406 0,-12.15026 -9.84974,-22 -22,-22 z"
         transform="translate(0,-244)"
         id="circle4549"
         inkscape:connector-curvature="0"
         sodipodi:nodetypes="scccccs" />
      <circle
         style="opacity:1;fill:#2196f3;fill-opacity:1;stroke:none;stroke-width:2;stroke-miterlimit:4;stroke-dasharray:none;stroke-opacity:1"
         id="path4518"
         cx="464"
         cy="28"
         r="240" />
      <g
         id="layer1-2"
         inkscape:label="places"
         style="display:inline"
         transform="translate(186.5001,-174.5)" />
      <g
         id="layer14"
         inkscape:label="mimetypes"
         style="display:inline"
         transform="translate(-54.5001,442.5)" />
      <g
         id="layer15"
         inkscape:label="emblems"
         style="display:inline"
         transform="translate(-54.5001,442.5)" />
      <g
         id="g71291"
         inkscape:label="emotes"
         style="display:inline"
         transform="translate(-54.5001,442.5)" />
      <g
         id="layer2"
         inkscape:label="categories"
         style="display:inline"
         transform="translate(186.5001,-24.5)" />
      <g
         id="g6058"
         inkscape:label="apps"
         style="display:inline"
         transform="translate(186.5001,-24.5)" />
      <g
         id="layer12"
         inkscape:label="actions"
         style="display:inline"
         transform="translate(-54.5001,442.5)" />
      <path
         style="opacity:0.2;fill:#ffffff;fill-opacity:1;stroke:none;stroke-width:2;stroke-miterlimit:4;stroke-dasharray:none;stroke-opacity:1"
         d="m 464,32 c -132.54834,0 -240,107.45166 -240,240 0.0127,0.39066 0.0264,0.78129 0.041,1.17188 C 224.49721,140.96306 331.7904,34.02181 464,34 596.07603,34.021 703.31408,140.75366 703.95898,272.82812 703.97313,272.5521 703.9868,272.27606 704,272 704,139.45166 596.54834,32 464,32 Z"
         transform="translate(0,-244)"
         id="circle4528"
         inkscape:connector-curvature="0"
         sodipodi:nodetypes="scccccs" />
      <circle
         r="15"
         cy="269"
         cx="112"
         id="circle4535"
         style="display:inline;enable-background:new;opacity:0.2;fill:#000000;fill-opacity:1;stroke:none;stroke-width:2;stroke-miterlimit:4;stroke-dasharray:none;stroke-opacity:1" />
      <circle
         style="display:inline;enable-background:new;opacity:1;fill:#2196f3;fill-opacity:1;stroke:none;stroke-width:2;stroke-miterlimit:4;stroke-dasharray:none;stroke-opacity:1"
         id="path4522"
         cx="112"
         cy="268"
         r="15" />
      <path
         inkscape:connector-curvature="0"
         style="display:inline;opacity:0.2;fill:#ffffff;fill-opacity:1;stroke:none;stroke-width:2;stroke-miterlimit:4;stroke-dasharray:none;stroke-opacity:1;enable-background:new"
         d="m 112,253 c -8.28427,0 -15,6.71573 -15,15 0.0034,0.18138 0.01014,0.36268 0.02014,0.54382 0.213242,-8.12232 6.85475,-14.59821 14.97986,-14.60632 8.06865,0.006 14.68734,6.39283 14.97986,14.45618 0.008,-0.13113 0.0151,-0.26237 0.0201,-0.39368 0,-8.28427 -6.71573,-15 -15,-15 z"
         id="circle4547"
         sodipodi:nodetypes="scccccs" />
      <path
         style="color:#000000;font-style:normal;font-variant:normal;font-weight:normal;font-stretch:normal;font-size:medium;line-height:normal;font-family:sans-serif;text-indent:0;text-align:start;text-decoration:none;text-decoration-line:none;text-decoration-style:solid;text-decoration-color:#000000;letter-spacing:normal;word-spacing:normal;text-transform:none;direction:ltr;block-progression:tb;writing-mode:lr-tb;baseline-shift:baseline;text-anchor:start;white-space:normal;clip-rule:nonzero;display:inline;overflow:visible;visibility:visible;opacity:1;isolation:auto;mix-blend-mode:normal;color-interpolation:sRGB;color-interpolation-filters:linearRGB;solid-color:#000000;solid-opacity:1;fill:#ffffff;fill-opacity:1;fill-rule:nonzero;stroke:none;stroke-width:2;stroke-linecap:butt;stroke-linejoin:miter;stroke-miterlimit:4;stroke-dasharray:none;stroke-dashoffset:0;stroke-opacity:1;marker:none;color-rendering:auto;image-rendering:auto;shape-rendering:auto;text-rendering:auto;enable-background:accumulate"
         d="m 368,-86.265625 0,22.121094 0.80469,0.160156 c 10.43476,2.086944 21.69149,2.661075 31.19531,2.613281 l 0,169.406254 -32,0 0,24 33,0 22,0 33,0 0,-24 -32,0 0,-76.000004 32.45898,0 64,100.000004 14.54102,0 25,0 0,-24 -24.46875,0 -53.24023,-80.875004 C 505.50085,21.823895 517.10587,9.606702 522.69727,-2.4335938 528.37962,-14.669767 528,-26.69684 528,-30.964844 c 0,-6.027032 -1.8942,-19.493037 -10.81055,-31.689453 -8.91634,-12.196416 -24.91498,-22.982576 -52.67578,-23.373047 l -1.01367,-0.01367 0,0.02734 c -1.48612,-0.0059 -2.99024,-5.68e-4 -4.5332,0.05078 l 0.0332,-0.002 c -36.14815,0 -60.03086,7.958178 -89.74219,0.03516 z m 91,22.300781 c 19.81667,0 30.45484,5.409787 36.23047,12.388672 5.77563,6.978885 6.76953,15.706566 6.76953,22.611328 0,6.904762 -1.00182,17.172301 -7.30273,25.6542971 C 488.39635,5.1714496 476.78788,12.035156 455,12.035156 l -31,0 0,-74.498047 c 10.54114,-0.725409 21.80684,-1.501953 35,-1.501953 z"
         id="rect3366"
         inkscape:connector-curvature="0"
         sodipodi:nodetypes="ccccccccccccccccccccssscccccccsssssccs" />
      <path
         sodipodi:nodetypes="ccccccccccccccccccccssscccccccsssssccs"
         inkscape:connector-curvature="0"
         id="path4373"
         d="m 160,250.67359 0,1.84343 0.40034,0.14797 c 0.86956,0.17391 1.80762,0.22175 2.59961,0.21777 L 163,267 l -3,0 0,2 3.08333,0 1.83333,0 3.08334,0 0,-2 -3,0 0,-6 3.70491,0 5.33329,8 1.21175,0 1.75005,0 0,-2 -1.70578,0 -4.43664,-6.40625 c 1.93416,-0.44469 3.33202,-1.79618 3.79798,-2.79953 0.47353,-1.01969 0.44189,-2.02194 0.44189,-2.37761 0,-0.50225 -0.15785,-1.62441 -0.90088,-2.64079 -0.74303,-1.01636 -2.50709,-1.91521 -4.82048,-1.94775 l -0.0845,-8.9e-4 0,0.002 c -0.12384,-4.9e-4 -0.24918,-5e-5 -0.37776,0.004 l 0.003,-1.7e-4 c -3.01235,0 -6.00258,0.66319 -8.47851,0.003 z m 8.91667,1.99307 c 1.65139,0 2.96874,0.45082 3.45005,1.03239 0.4813,0.58158 0.56412,1.30888 0.56412,1.88428 0,0.57539 -0.0835,1.43103 -0.60856,2.13787 -0.52507,0.70682 -1.92329,1.2788 -3.73894,1.2788 L 165,259 l 0,-6.20817 c 0.87843,-0.0605 2.81724,-0.12517 3.91667,-0.12517 z"
         style="color:#000000;font-style:normal;font-variant:normal;font-weight:normal;font-stretch:normal;font-size:medium;line-height:normal;font-family:sans-serif;text-indent:0;text-align:start;text-decoration:none;text-decoration-line:none;text-decoration-style:solid;text-decoration-color:#000000;letter-spacing:normal;word-spacing:normal;text-transform:none;direction:ltr;block-progression:tb;writing-mode:lr-tb;baseline-shift:baseline;text-anchor:start;white-space:normal;clip-rule:nonzero;display:inline;overflow:visible;visibility:visible;opacity:1;isolation:auto;mix-blend-mode:normal;color-interpolation:sRGB;color-interpolation-filters:linearRGB;solid-color:#000000;solid-opacity:1;fill:#ffffff;fill-opacity:1;fill-rule:nonzero;stroke:none;stroke-width:2;stroke-linecap:butt;stroke-linejoin:miter;stroke-miterlimit:4;stroke-dasharray:none;stroke-dashoffset:0;stroke-opacity:1;marker:none;color-rendering:auto;image-rendering:auto;shape-rendering:auto;text-rendering:auto;enable-background:accumulate" />
      <path
         style="color:#000000;font-style:normal;font-variant:normal;font-weight:normal;font-stretch:normal;font-size:medium;line-height:normal;font-family:sans-serif;text-indent:0;text-align:start;text-decoration:none;text-decoration-line:none;text-decoration-style:solid;text-decoration-color:#000000;letter-spacing:normal;word-spacing:normal;text-transform:none;direction:ltr;block-progression:tb;writing-mode:lr-tb;baseline-shift:baseline;text-anchor:start;white-space:normal;clip-rule:nonzero;display:inline;overflow:visible;visibility:visible;opacity:1;isolation:auto;mix-blend-mode:normal;color-interpolation:sRGB;color-interpolation-filters:linearRGB;solid-color:#000000;solid-opacity:1;fill:#ffffff;fill-opacity:1;fill-rule:nonzero;stroke:none;stroke-width:2;stroke-linecap:butt;stroke-linejoin:miter;stroke-miterlimit:4;stroke-dasharray:none;stroke-dashoffset:0;stroke-opacity:1;marker:none;color-rendering:auto;image-rendering:auto;shape-rendering:auto;text-rendering:auto;enable-background:accumulate"
         d="m 60.66667,266.90413 0,0.92172 0.0335,0.007 c 0.43478,0.087 0.90381,0.11088 1.29981,0.10889 l 2e-5,7.05862 -1.33333,0 0,1 1.375,0 0.91666,0 1.375,0 0,-1 -1.33333,0 0,-3 1.35246,0 2.66664,4 0.60588,0 0.87502,0 0,-1 -0.85289,0 -2.21832,-3.20313 c 0.96708,-0.22234 1.66601,-0.89809 1.89899,-1.39976 0.23677,-0.50985 0.22095,-1.01097 0.22095,-1.18881 0,-0.25112 -0.0789,-0.8122 -0.45044,-1.32039 -0.37152,-0.50818 -1.25355,-0.95761 -2.41024,-0.97388 l -0.0423,-4.4e-4 0,10e-4 c -0.0619,-2.5e-4 -0.12459,-3e-5 -0.18888,0.002 l 0.001,-9e-5 c -1.50618,0 -2.50129,0.3316 -3.73926,0.002 z m 3.79167,0.9292 c 0.82569,0 1.48437,0.22541 1.72502,0.51619 0.24065,0.29079 0.28206,0.65444 0.28206,0.94214 0,0.2877 -0.0418,0.71552 -0.30428,1.06894 C 65.89861,270.71401 65.1995,271 64.29167,271 L 63,271 l 0,-3.10409 c 0.43922,-0.0302 0.90862,-0.0626 1.45834,-0.0626 z"
         id="path4375"
         inkscape:connector-curvature="0"
         sodipodi:nodetypes="ccccccccccccccccccccssscccccccsssssccs" />
      <path
         style="color:#000000;font-style:normal;font-variant:normal;font-weight:normal;font-stretch:normal;font-size:medium;line-height:normal;font-family:sans-serif;text-indent:0;text-align:start;text-decoration:none;text-decoration-line:none;text-decoration-style:solid;text-decoration-color:#000000;letter-spacing:normal;word-spacing:normal;text-transform:none;direction:ltr;block-progression:tb;writing-mode:lr-tb;baseline-shift:baseline;text-anchor:start;white-space:normal;clip-rule:nonzero;display:inline;overflow:visible;visibility:visible;opacity:1;isolation:auto;mix-blend-mode:normal;color-interpolation:sRGB;color-interpolation-filters:linearRGB;solid-color:#000000;solid-opacity:1;fill:#ffffff;fill-opacity:1;fill-rule:nonzero;stroke:none;stroke-width:2;stroke-linecap:butt;stroke-linejoin:miter;stroke-miterlimit:4;stroke-dasharray:none;stroke-dashoffset:0;stroke-opacity:1;marker:none;color-rendering:auto;image-rendering:auto;shape-rendering:auto;text-rendering:auto;enable-background:accumulate"
         d="m 20.66667,271.90377 0,0.92172 c 0.429285,0.10871 0.935714,0.0851 1.33331,0.1399 L 22,279.00036 21,279 l 0,1 3,0 0,-1 -1,3.6e-4 0,-2.00036 1,0 2.66664,3.00036 L 28,280 l 0,-1 -0.70535,3.6e-4 -2.21832,-2.20349 c 0.95228,-0.22888 1.908255,-0.93445 2.072949,-1.95307 0.191259,-0.92705 -0.147129,-2.02498 -1.024343,-2.48306 -0.951215,-0.54924 -1.723754,-0.47215 -2.773255,-0.39266 -0.89216,0.0774 -1.809814,0.19575 -2.685011,-0.0643 z m 5.16423,1.44539 c 0.373165,0.48819 0.341577,1.185 0.136058,1.73542 -0.274046,0.65995 -0.70467,0.84024 -1.345081,0.90208 -0.540075,0.0251 -1.081278,0.008 -1.621877,0.013 l 0,-3.10409 c 0.848946,-0.0293 1.377593,-0.17483 2.205028,0.0865 0.228816,0.0785 0.463687,0.18126 0.625872,0.36715 z"
         id="path4377"
         inkscape:connector-curvature="0"
         sodipodi:nodetypes="cccccccccccccccccccccccccccc" />
      <path
         sodipodi:nodetypes="ccccccccccccccccasccccccccc"
         inkscape:connector-curvature="0"
         id="path4380"
         d="m 105.33334,259.82047 0,1.84344 c 0.85857,0.21742 1.87143,0.1702 2.66662,0.2798 L 108,273.00072 106,273 l 0,2 6,0 0,-2 -2,7.2e-4 0,-4.00072 1.56171,0 5.43829,6 3,0 0,-2 -1.90834,0 -3.939,-4.40626 c 1.90456,-0.45776 3.43923,-2.04719 3.69832,-3.79425 0.21774,-1.46811 -0.35353,-3.02669 -2.04869,-3.95319 -1.92765,-1.05358 -2.99993,-1.05619 -5.09893,-0.89721 -1.78432,0.1548 -3.61963,0.3915 -5.37002,-0.1286 z m 10.41409,5.34869 c -0.5481,1.3199 -1.22285,1.68048 -2.50368,1.80416 -1.08015,0.0502 -2.16255,0.016 -3.24375,0.026 l 0,-5.19525 c 1.69789,-0.0586 2.5687,-0.34966 4.22357,0.173 1.66837,0.68237 1.77643,2.02293 1.52386,3.19209 z"
         style="color:#000000;font-style:normal;font-variant:normal;font-weight:normal;font-stretch:normal;font-size:medium;line-height:normal;font-family:sans-serif;text-indent:0;text-align:start;text-decoration:none;text-decoration-line:none;text-decoration-style:solid;text-decoration-color:#000000;letter-spacing:normal;word-spacing:normal;text-transform:none;direction:ltr;block-progression:tb;writing-mode:lr-tb;baseline-shift:baseline;text-anchor:start;white-space:normal;clip-rule:nonzero;display:inline;overflow:visible;visibility:visible;opacity:1;isolation:auto;mix-blend-mode:normal;color-interpolation:sRGB;color-interpolation-filters:linearRGB;solid-color:#000000;solid-opacity:1;fill:#ffffff;fill-opacity:1;fill-rule:nonzero;stroke:none;stroke-width:2;stroke-linecap:butt;stroke-linejoin:miter;stroke-miterlimit:4;stroke-dasharray:none;stroke-dashoffset:0;stroke-opacity:1;marker:none;color-rendering:auto;image-rendering:auto;shape-rendering:auto;text-rendering:auto;enable-background:accumulate" />
    </g>
  </g>
</svg>
