<?xml version="1.0" encoding="UTF-8" standalone="no"?>
<!-- Created with Inkscape (http://www.inkscape.org/) -->

<svg
   xmlns:dc="http://purl.org/dc/elements/1.1/"
   xmlns:cc="http://creativecommons.org/ns#"
   xmlns:rdf="http://www.w3.org/1999/02/22-rdf-syntax-ns#"
   xmlns:svg="http://www.w3.org/2000/svg"
   xmlns="http://www.w3.org/2000/svg"
   xmlns:sodipodi="http://sodipodi.sourceforge.net/DTD/sodipodi-0.dtd"
   xmlns:inkscape="http://www.inkscape.org/namespaces/inkscape"
   inkscape:export-ydpi="90.000000"
   inkscape:export-xdpi="90.000000"
   width="736"
   height="544"
   id="svg11300"
   sodipodi:version="0.32"
   inkscape:version="0.91 r"
   sodipodi:docname="shutter.svg"
   inkscape:output_extension="org.inkscape.output.svg.inkscape"
   version="1.0"
   style="display:inline;enable-background:new"
   inkscape:export-filename="/home/sam/paper-template.png">
  <title
     id="title3004">Paper Icon Theme Template</title>
  <sodipodi:namedview
     stroke="#ef2929"
     fill="#f57900"
     id="base"
     pagecolor="#191919"
     bordercolor="#000000"
     borderopacity="0.25490196"
     inkscape:pageopacity="0"
     inkscape:pageshadow="2"
     inkscape:zoom="1"
     inkscape:cx="466.3006"
     inkscape:cy="303.152"
     inkscape:current-layer="layer7"
     showgrid="false"
     inkscape:grid-bbox="true"
     inkscape:document-units="px"
     inkscape:showpageshadow="false"
     inkscape:window-width="1920"
     inkscape:window-height="1024"
     inkscape:window-x="0"
     inkscape:window-y="30"
     width="400px"
     height="300px"
     inkscape:snap-nodes="true"
     inkscape:snap-bbox="true"
     gridtolerance="10000"
     inkscape:object-nodes="true"
     inkscape:snap-grids="true"
     showguides="true"
     inkscape:guide-bbox="true"
     inkscape:window-maximized="1"
     inkscape:bbox-paths="true"
     inkscape:snap-bbox-midpoints="true"
     inkscape:snap-global="true"
     inkscape:object-paths="true"
     inkscape:snap-intersection-paths="true"
     inkscape:snap-smooth-nodes="true">
    <inkscape:grid
       spacingy="1px"
       spacingx="1px"
       id="grid5883"
       type="xygrid"
       enabled="true"
       visible="true"
       empspacing="4"
       snapvisiblegridlinesonly="true" />
    <inkscape:grid
       type="xygrid"
       id="grid11592"
       empspacing="2"
       visible="true"
       enabled="false"
       spacingx="0.5px"
       spacingy="0.5px"
       color="#ff0000"
       opacity="0.1254902"
       empcolor="#ff0000"
       empopacity="0.25098039"
       snapvisiblegridlinesonly="true" />
  </sodipodi:namedview>
  <defs
     id="defs3">
    <filter
       inkscape:collect="always"
       style="color-interpolation-filters:sRGB"
       id="filter4347"
       x="-0.024"
       width="1.048"
       y="-0.024"
       height="1.048">
      <feGaussianBlur
         inkscape:collect="always"
         stdDeviation="4.8"
         id="feGaussianBlur4349" />
    </filter>
  </defs>
  <metadata
     id="metadata4">
    <rdf:RDF>
      <cc:Work
         rdf:about="">
        <dc:format>image/svg+xml</dc:format>
        <dc:type
           rdf:resource="http://purl.org/dc/dcmitype/StillImage" />
        <dc:creator>
          <cc:Agent>
            <dc:title>Sam Hewitt</dc:title>
          </cc:Agent>
        </dc:creator>
        <dc:source />
        <cc:license
           rdf:resource="http://creativecommons.org/licenses/by-sa/3.0/" />
        <dc:title>Paper Icon Theme Template</dc:title>
        <dc:subject>
          <rdf:Bag />
        </dc:subject>
        <dc:date />
        <dc:rights>
          <cc:Agent>
            <dc:title />
          </cc:Agent>
        </dc:rights>
        <dc:publisher>
          <cc:Agent>
            <dc:title />
          </cc:Agent>
        </dc:publisher>
        <dc:identifier />
        <dc:relation />
        <dc:language />
        <dc:coverage />
        <dc:description />
        <dc:contributor>
          <cc:Agent>
            <dc:title />
          </cc:Agent>
        </dc:contributor>
      </cc:Work>
      <cc:Work
         rdf:about="">
        <dc:format>image/svg+xml</dc:format>
        <dc:type
           rdf:resource="http://purl.org/dc/dcmitype/StillImage" />
      </cc:Work>
      <cc:License
         rdf:about="http://creativecommons.org/licenses/by-sa/3.0/">
        <cc:permits
           rdf:resource="http://creativecommons.org/ns#Reproduction" />
        <cc:permits
           rdf:resource="http://creativecommons.org/ns#Distribution" />
        <cc:requires
           rdf:resource="http://creativecommons.org/ns#Notice" />
        <cc:requires
           rdf:resource="http://creativecommons.org/ns#Attribution" />
        <cc:permits
           rdf:resource="http://creativecommons.org/ns#DerivativeWorks" />
        <cc:requires
           rdf:resource="http://creativecommons.org/ns#ShareAlike" />
      </cc:License>
    </rdf:RDF>
  </metadata>
  <g
     style="display:inline"
     inkscape:groupmode="layer"
     inkscape:label="Icon"
     id="layer1"
     transform="translate(0,244)">
    <g
       style="display:none"
       inkscape:label="Baseplate"
       id="layer7"
       inkscape:groupmode="layer">
      <text
         y="337.74512"
         xml:space="preserve"
         x="15.006836"
         style="font-style:normal;font-variant:normal;font-weight:normal;font-stretch:normal;font-size:18px;font-family:'DejaVu Sans';-inkscape-font-specification:'DejaVu Sans';display:inline;fill:#000000;fill-opacity:1;stroke:none;enable-background:new"
         inkscape:label="context"
         id="context"><tspan
           style="font-style:normal;font-variant:normal;font-weight:normal;font-stretch:normal;font-family:'DejaVu Sans';-inkscape-font-specification:'DejaVu Sans'"
           y="337.74512"
           x="15.006836"
           sodipodi:role="line"
           id="tspan3933">apps</tspan></text>
      <text
         y="337.74512"
         xml:space="preserve"
         x="142.48828"
         style="font-style:normal;font-variant:normal;font-weight:bold;font-stretch:normal;font-size:18px;line-height:125%;font-family:'DejaVu Sans';-inkscape-font-specification:'DejaVu Sans Bold';text-align:start;writing-mode:lr-tb;text-anchor:start;display:inline;fill:#000000;fill-opacity:1;stroke:none;enable-background:new"
         sodipodi:linespacing="125%"
         inkscape:label="icon-name"
         id="icon-name"><tspan
           style="font-style:normal;font-variant:normal;font-weight:bold;font-stretch:normal;font-size:18px;font-family:'DejaVu Sans';-inkscape-font-specification:'DejaVu Sans Bold'"
           y="337.74512"
           x="142.48828"
           sodipodi:role="line"
           id="tspan3937">shutter</tspan></text>
      <rect
         style="display:inline;overflow:visible;visibility:visible;fill:#d3d7cf;fill-opacity:1;fill-rule:nonzero;stroke:none;stroke-width:2;marker:none;enable-background:accumulate"
         id="rect16x16"
         width="16"
         height="16"
         x="-32"
         y="268"
         inkscape:label="16x16"
         transform="scale(-1,1)" />
      <rect
         style="display:inline;overflow:visible;visibility:visible;fill:#d3d7cf;fill-opacity:1;fill-rule:nonzero;stroke:none;stroke-width:2;marker:none;enable-background:accumulate"
         id="rect24x24"
         width="24"
         height="24"
         x="-76"
         y="260"
         inkscape:label="24x24"
         transform="scale(-1,1)" />
      <rect
         style="display:inline;overflow:visible;visibility:visible;fill:#d3d7cf;fill-opacity:1;fill-rule:nonzero;stroke:none;stroke-width:2;marker:none;enable-background:accumulate"
         id="rect32x32"
         width="32"
         height="32"
         x="-128"
         y="252"
         inkscape:label="32x32"
         transform="scale(-1,1)" />
      <rect
         inkscape:label="48x48"
         y="236"
         x="-192"
         height="48"
         width="48"
         id="rect48x48"
         style="display:inline;overflow:visible;visibility:visible;fill:#d3d7cf;fill-opacity:1;fill-rule:nonzero;stroke:none;stroke-width:2;marker:none;enable-background:accumulate"
         transform="scale(-1,1)" />
      <rect
         style="display:inline;overflow:visible;visibility:visible;fill:#d3d7cf;fill-opacity:1;fill-rule:nonzero;stroke:none;stroke-width:2;marker:none;enable-background:accumulate"
         id="rect3951"
         width="512"
         height="512"
         x="-720"
         y="-228"
         inkscape:label="48x48"
         transform="scale(-1,1)" />
    </g>
    <g
       inkscape:groupmode="layer"
       id="layer6"
       inkscape:label="Symbols"
       style="display:inline">
      <path
         inkscape:connector-curvature="0"
         id="path4345"
         d="m 464,-208 c -54.4544,0.016 -107.28418,18.55322 -149.8125,52.5625 L 399.34375,-7.96875 512.03125,-203.125 C 496.22533,-206.36036 480.1336,-207.9936 464,-208 Z m 79.71875,13.90625 L 459.375,-48 690,-48 C 665.78832,-116.28 612.02963,-169.96975 543.71875,-194.09375 Z M 290.1875,-133.0625 C 247.80187,-88.5473 224.11134,-29.4664 224,32 c 0.0976,10.70912 0.912,21.39968 2.4375,32 L 403.96875,64 290.1875,-133.0625 Z M 524.03125,-16 l 119.5,206.96875 C 682.41733,147.13739 703.92512,90.59456 704,32 703.904,15.86848 702.19212,-0.21296 698.875,-16 l -174.84375,0 z m 4.625,71.96875 -120.71875,209.125 C 426.28806,269.59455 445.10576,271.9128 464,272 521.224,271.888 576.52774,251.34778 619.9375,214.0625 L 528.65625,55.96875 Z M 232.71875,96 c 20.23477,72.78944 73.56262,131.80189 143.9375,159.28125 L 468.625,96 232.71875,96 Z"
         style="opacity:0.2;fill:#000000;fill-opacity:1;stroke:none;stroke-width:16;stroke-linecap:round;stroke-miterlimit:4;stroke-dasharray:none;stroke-opacity:1;filter:url(#filter4347)" />
      <path
         style="opacity:0.2;fill:#000000;fill-opacity:1;stroke:none;stroke-width:16;stroke-linecap:round;stroke-miterlimit:4;stroke-dasharray:none;stroke-opacity:1"
         d="m 464,-210 c -54.4544,0.016 -107.28418,18.55322 -149.8125,52.5625 L 399.34375,-9.96875 512.03125,-205.125 C 496.22533,-208.36036 480.1336,-209.9936 464,-210 Z m 79.71875,13.90625 L 459.375,-50 690,-50 C 665.78832,-118.28 612.02963,-171.96975 543.71875,-196.09375 Z M 290.1875,-135.0625 C 247.80187,-90.5473 224.11134,-31.4664 224,30 c 0.0976,10.70912 0.912,21.39968 2.4375,32 L 403.96875,62 290.1875,-135.0625 Z M 524.03125,-18 l 119.5,206.96875 C 682.41733,145.13739 703.92512,88.59456 704,30 703.904,13.86848 702.19212,-2.21296 698.875,-18 l -174.84375,0 z m 4.625,71.96875 -120.71875,209.125 C 426.28806,267.59455 445.10576,269.9128 464,270 521.224,269.888 576.52774,249.34778 619.9375,212.0625 L 528.65625,53.96875 Z M 232.71875,94 c 20.23477,72.78944 73.56262,131.80189 143.9375,159.28125 L 468.625,94 232.71875,94 Z"
         id="path4340"
         inkscape:connector-curvature="0" />
      <path
         style="opacity:0.2;fill:#000000;fill-opacity:1;stroke:none;stroke-width:16;stroke-linecap:round;stroke-miterlimit:4;stroke-dasharray:none;stroke-opacity:1"
         d="m 112,254 c -3.4034,0.001 -6.70526,1.15958 -9.36328,3.28516 l 5.32226,9.21679 7.04297,-12.19726 C 114.01408,254.10248 113.00835,254.0004 112,254 Z m 4.98242,0.86914 -5.27148,9.13086 14.41406,0 c -1.51323,-4.2675 -4.87315,-7.62311 -9.14258,-9.13086 z m -15.8457,3.81445 C 98.487617,261.46579 97.006959,265.15835 97,269 c 0.0061,0.66932 0.057,1.33748 0.152344,2 l 11.095706,0 -7.11133,-12.31641 z M 115.75195,266 l 7.46875,12.93555 c 2.43038,-2.73946 3.77462,-6.27339 3.7793,-9.93555 -0.006,-1.00822 -0.11299,-2.01331 -0.32031,-3 l -10.92774,0 z m 0.28907,4.49805 -7.54493,13.07031 c 1.14691,0.2813 2.32302,0.42619 3.50391,0.43164 3.5765,-0.007 7.03298,-1.29076 9.74609,-3.62109 l -5.70507,-9.88086 z M 97.544922,273 c 1.264673,4.54934 4.597668,8.23762 8.996098,9.95508 L 112.28906,273 97.544922,273 Z"
         id="path4320"
         inkscape:connector-curvature="0" />
      <path
         style="opacity:0.2;fill:#000000;fill-opacity:1"
         d="m 64,263 c -2.4,0 -4.600312,0.85 -6.320312,2.25 l 3.660156,6.34961 0.06055,-0.0996 4.769531,-8.25977 C 65.469922,263.09023 64.75,263 64,263 Z m 3.539062,0.66016 -3.658203,6.33984 9.658203,0 c -0.92,-2.92 -3.15,-5.25984 -6,-6.33984 z M 56.640625,266.25 C 55.010625,268.03 54,270.39 54,273 c 0,0.69 0.06922,1.35 0.199219,2 l 7.490234,0 -1.150391,-2 -3.898437,-6.75 z m 9.669922,4.75 0.289062,0.5 4.759766,8.25 C 72.999375,277.97 74,275.61 74,273 c 0,-0.69 -0.06922,-1.35 -0.199219,-2 l -7.490234,0 z m 0.349609,3.40039 L 65.730469,276 61.830078,282.75977 C 62.530078,282.90977 63.25,283 64,283 c 2.4,0 4.600313,-0.85 6.320312,-2.25 l -3.660156,-6.34961 z M 54.460938,276 c 0.92,2.92 3.149999,5.25984 6,6.33984 L 64.119141,276 l -9.658203,0 z"
         id="path4208"
         inkscape:connector-curvature="0" />
      <path
         style="fill:#000000;fill-opacity:1;opacity:0.2"
         d="m 168,241 c -4.8,0 -9.20063,1.7 -12.64062,4.5 l 7.32031,12.69922 0.12109,-0.19922 9.53906,-16.51953 C 170.93984,241.18047 169.5,241 168,241 Z m 7.08008,1.32031 -7.32031,12.67969 19.32031,0 c -1.84,-5.84 -6.3,-10.51969 -12,-12.67969 z M 153.2793,247.5 c -3.26,3.56 -5.2793,8.28 -5.2793,13.5 0,1.38 0.14039,2.7 0.40039,4 l 14.98047,0 -2.30078,-4 -7.80078,-13.5 z m 19.33984,9.5 0.58008,1 9.52148,16.5 c 3.28,-3.56 5.2793,-8.28 5.2793,-13.5 0,-1.38 -0.14039,-2.7 -0.40039,-4 l -14.98047,0 z m 0.70117,6.80078 -1.85937,3.19922 -7.80078,13.51953 c 1.4,0.3 2.83984,0.48047 4.33984,0.48047 4.8,0 9.20063,-1.7 12.64062,-4.5 l -7.32031,-12.69922 z M 148.91992,267 c 1.84,5.84 6.3,10.51969 12,12.67969 L 168.24023,267 l -19.32031,0 z"
         id="path4186"
         inkscape:connector-curvature="0" />
      <g
         id="g4166">
        <path
           sodipodi:nodetypes="ccscccccsccc"
           style="fill:#cccccc"
           id="path4"
           d="m 61.4,270.5 4.77,-8.26 C 65.47,262.09 64.75,262 64,262 c -2.4,0 -4.6,0.85 -6.32,2.25 l 3.66,6.35 z m -0.86,1.5 -3.9,-6.75 C 55.01,267.03 54,269.39 54,272 c 0,0.69 0.07,1.35 0.2,2 l 7.49,0 z"
           inkscape:connector-curvature="0" />
        <path
           sodipodi:nodetypes="ccccccccscccccccsccc"
           inkscape:connector-curvature="0"
           d="m 73.54,269 c -0.92,-2.92 -3.15,-5.26 -6,-6.34 L 63.88,269 Z m 0.26,1 -7.49,0 0.29,0.5 4.76,8.25 C 73,276.97 74,274.61 74,272 c 0,-0.69 -0.07,-1.35 -0.2,-2 z m -19.34,5 c 0.92,2.92 3.15,5.26 6,6.34 L 64.12,275 Z m 11.27,0 -3.9,6.76 c 0.7,0.15 1.42,0.24 2.17,0.24 2.4,0 4.6,-0.85 6.32,-2.25 l -3.66,-6.35 z"
           id="path4153"
           style="fill:#3f51b5" />
      </g>
      <path
         sodipodi:nodetypes="ccscccccsccc"
         style="fill:#cccccc"
         id="path4172"
         d="m 162.8,257 9.54,-16.52 c -1.4,-0.3 -2.84,-0.48 -4.34,-0.48 -4.8,0 -9.2,1.7 -12.64,4.5 l 7.32,12.7 z m -1.72,3 -7.8,-13.5 c -3.26,3.56 -5.28,8.28 -5.28,13.5 0,1.38 0.14,2.7 0.4,4 l 14.98,0 z"
         inkscape:connector-curvature="0" />
      <path
         sodipodi:nodetypes="ccccccccscccccccsccc"
         inkscape:connector-curvature="0"
         d="m 187.08,254 c -1.84,-5.84 -6.3,-10.52 -12,-12.68 L 167.76,254 Z m 0.52,2 -14.98,0 0.58,1 9.52,16.5 C 186,269.94 188,265.22 188,260 c 0,-1.38 -0.14,-2.7 -0.4,-4 z m -38.68,10 c 1.84,5.84 6.3,10.52 12,12.68 L 168.24,266 Z m 22.54,0 -7.8,13.52 c 1.4,0.3 2.84,0.48 4.34,0.48 4.8,0 9.2,-1.7 12.64,-4.5 l -7.32,-12.7 z"
         id="path4174"
         style="fill:#3f51b5" />
      <path
         style="fill:#ffffff;fill-opacity:1;opacity:0.1"
         d="M 168 484 C 163.2 484 158.79937 485.7 155.35938 488.5 L 155.76172 489.19922 C 159.14097 486.58537 163.38091 485 168 485 C 169.3159 485 170.58329 485.14422 171.82031 485.38086 L 172.33984 484.48047 C 170.93984 484.18047 169.5 484 168 484 z M 175.08008 485.32031 L 167.75977 498 L 168.33789 498 L 175.08008 486.32031 C 180.45092 488.35558 184.71985 492.62778 186.73438 498 L 187.08008 498 C 185.24008 492.16 180.78008 487.48031 175.08008 485.32031 z M 153.2793 490.5 C 150.0193 494.06 148 498.78 148 504 C 148 504.22319 148.00837 504.44189 148.01562 504.66211 C 148.10154 499.57779 150.0905 494.98225 153.2793 491.5 L 161.08008 505 L 162.80469 508 L 163.38086 508 L 161.08008 504 L 153.2793 490.5 z M 172.61914 500 L 173.19922 501 L 187.59961 501 C 187.81793 502.09161 187.94703 503.20026 187.98438 504.34375 C 187.98634 504.22826 188 504.11599 188 504 C 188 502.62 187.85961 501.3 187.59961 500 L 172.61914 500 z M 173.32031 506.80078 L 171.46094 510 L 163.66016 523.51953 C 163.83198 523.55635 164.00663 523.58603 164.17969 523.61914 L 171.46094 511 L 173.32031 507.80078 L 180.23828 519.80078 C 180.37064 519.69841 180.51097 519.60553 180.64062 519.5 L 173.32031 506.80078 z M 148.91992 510 C 149.02617 510.33724 149.14216 510.67076 149.26562 511 L 167.66211 511 L 168.24023 510 L 148.91992 510 z "
         transform="translate(0,-244)"
         id="path4178" />
      <path
         style="fill:#ffffff;fill-opacity:1;opacity:0.1"
         d="M 64 506 C 61.6 506 59.399687 506.85 57.679688 508.25 L 58.082031 508.94922 C 59.737739 507.73329 61.781212 507 64 507 C 64.564616 507 65.10772 507.06501 65.642578 507.1543 L 66.169922 506.24023 C 65.469922 506.09023 64.75 506 64 506 z M 67.539062 506.66016 L 63.880859 513 L 64.457031 513 L 67.539062 507.66016 C 70.05502 508.61357 72.085264 510.55055 73.160156 513 L 73.539062 513 C 72.619062 510.08 70.389062 507.74016 67.539062 506.66016 z M 56.640625 509.25 C 55.010625 511.03 54 513.39 54 516 C 54 516.16721 54.017381 516.32822 54.025391 516.49219 C 54.147818 514.08557 55.117653 511.91312 56.640625 510.25 L 60.539062 517 L 61.113281 518 L 61.689453 518 L 60.539062 516 L 56.640625 509.25 z M 66.310547 514 L 66.599609 514.5 L 66.888672 515 L 73.800781 515 C 73.899278 515.49249 73.949567 515.99514 73.974609 516.50781 C 73.983135 516.33869 74 516.17138 74 516 C 74 515.31 73.930781 514.65 73.800781 514 L 73.539062 514 L 66.310547 514 z M 66.660156 517.40039 L 65.730469 519 L 61.830078 525.75977 C 62.003103 525.79684 62.181809 525.81639 62.357422 525.8457 L 65.730469 520 L 66.660156 518.40039 L 69.917969 524.05078 C 70.053193 523.95147 70.190444 523.85571 70.320312 523.75 L 66.660156 517.40039 z M 54.460938 519 C 54.568769 519.34225 54.697131 519.67479 54.839844 520 L 63.542969 520 L 64.119141 519 L 61.689453 519 L 54.460938 519 z "
         transform="translate(0,-244)"
         id="path4199" />
      <g
         id="g4314">
        <path
           sodipodi:nodetypes="cccccccccc"
           inkscape:connector-curvature="0"
           id="path4219"
           transform="translate(0,-244)"
           d="m 112,497 c -3.4034,10e-4 -6.70526,1.15958 -9.36328,3.28516 l 5.32226,9.21679 7.04297,-12.19726 C 114.01408,497.10248 113.00835,497.0004 112,497 Z m -10.86328,4.68359 C 98.487618,504.46579 97.006959,508.15835 97,512 c 0.0061,0.66932 0.057,1.33748 0.152344,2 l 11.095706,0 z"
           style="opacity:1;fill:#cccccc;fill-opacity:1;stroke:none;stroke-width:16;stroke-linecap:round;stroke-miterlimit:4;stroke-dasharray:none;stroke-opacity:1" />
        <path
           transform="translate(0,-244)"
           style="opacity:1;fill:#3f51b5;fill-opacity:1;stroke:none;stroke-width:16;stroke-linecap:round;stroke-miterlimit:4;stroke-dasharray:none;stroke-opacity:1"
           d="M 116.98242,497.86914 111.71094,507 126.125,507 c -1.51323,-4.2675 -4.87315,-7.62311 -9.14258,-9.13086 z M 115.75195,509 l 7.46875,12.93555 c 2.43038,-2.73946 3.77462,-6.27339 3.7793,-9.93555 -0.006,-1.00822 -0.11299,-2.01331 -0.32031,-3 z m 0.28907,4.49805 -7.54493,13.07031 c 1.14691,0.2813 2.32302,0.42619 3.50391,0.43164 3.5765,-0.007 7.03298,-1.29076 9.74609,-3.62109 z M 97.544922,516 c 1.264673,4.54934 4.597668,8.23762 8.996098,9.95508 L 112.28906,516 Z"
           id="path4312"
           inkscape:connector-curvature="0"
           sodipodi:nodetypes="cccccccccccccccccc" />
      </g>
      <path
         style="opacity:0.1;fill:#ffffff;fill-opacity:1;stroke:none;stroke-width:16;stroke-linecap:round;stroke-miterlimit:4;stroke-dasharray:none;stroke-opacity:1"
         d="M 112 497 C 108.5966 497.001 105.29474 498.15958 102.63672 500.28516 L 103.04297 500.98828 C 105.6288 499.05921 108.76494 498.00095 112 498 C 112.82905 498.00033 113.65367 498.08572 114.4707 498.22266 L 115.00195 497.30469 C 114.01408 497.10248 113.00835 497.0004 112 497 z M 116.98242 497.86914 L 111.71094 507 L 112.28906 507 L 116.98242 498.86914 C 120.90891 500.25578 124.04612 503.21557 125.70508 507 L 126.125 507 C 124.61177 502.7325 121.25185 499.37689 116.98242 497.86914 z M 101.13672 501.68359 C 98.487616 504.46579 97.006959 508.15835 97 512 C 97.001623 512.1781 97.015477 512.35535 97.023438 512.5332 C 97.144864 508.86101 98.595591 505.35239 101.13672 502.68359 L 107.66992 514 L 108.24805 514 L 101.13672 501.68359 z M 115.75195 509 L 116.33008 510 L 126.67969 510 C 126.85545 510.83652 126.94347 511.68735 126.97461 512.54102 C 126.98138 512.36032 126.99977 512.1814 127 512 C 126.994 510.99178 126.88701 509.98669 126.67969 509 L 115.75195 509 z M 116.04102 513.49805 L 108.49609 526.56836 C 108.66626 526.6101 108.83839 526.64201 109.00977 526.67773 L 116.04102 514.49805 L 121.34961 523.69141 C 121.48106 523.58599 121.61789 523.48902 121.74609 523.37891 L 116.04102 513.49805 z M 97.544922 516 C 97.639159 516.33899 97.748444 516.67103 97.865234 517 L 111.71094 517 L 112.28906 516 L 97.544922 516 z "
         transform="translate(0,-244)"
         id="path4329" />
      <path
         sodipodi:nodetypes="cccccccccc"
         inkscape:connector-curvature="0"
         id="path4334"
         d="m 464,-212 c -54.4544,0.016 -107.28416,18.55328 -149.81248,52.56256 L 399.34368,-11.9688 512.0312,-207.12496 C 496.22528,-210.36032 480.1336,-211.9936 464,-212 Z m -173.81248,74.93744 C 247.80189,-92.54736 224.11134,-33.4664 224,28 c 0.0976,10.70912 0.912,21.39968 2.4375,32 l 177.5313,0 z"
         style="opacity:1;fill:#cccccc;fill-opacity:1;stroke:none;stroke-width:16;stroke-linecap:round;stroke-miterlimit:4;stroke-dasharray:none;stroke-opacity:1" />
      <path
         style="opacity:1;fill:#3f51b5;fill-opacity:1;stroke:none;stroke-width:16;stroke-linecap:round;stroke-miterlimit:4;stroke-dasharray:none;stroke-opacity:1"
         d="M 543.71872,-198.09376 459.37504,-52 690,-52 C 665.78832,-120.28 612.0296,-173.96976 543.71872,-198.09376 Z M 524.0312,-20 l 119.5,206.9688 C 682.41728,143.13744 703.92512,86.59456 704,28 703.904,11.86848 702.19216,-4.21296 698.87504,-20 Z m 4.62512,71.9688 -120.71888,209.12496 C 426.288,265.59456 445.10576,267.9128 464,268 521.224,267.888 576.52768,247.34784 619.93744,210.06256 Z M 232.71875,92 c 20.23477,72.78944 73.56269,131.80192 143.93757,159.28128 L 468.62496,92 Z"
         id="path4336"
         inkscape:connector-curvature="0"
         sodipodi:nodetypes="cccccccccccccccccc" />
      <path
         style="opacity:0.2;fill:#ffffff;fill-opacity:1;stroke:none;stroke-width:16;stroke-linecap:round;stroke-miterlimit:4;stroke-dasharray:none;stroke-opacity:1"
         d="M 464 32 C 409.5456 32.016 356.71582 50.55322 314.1875 84.5625 L 314.98242 85.939453 C 357.37395 52.331029 409.88256 34.015901 464 34 C 479.78079 34.00626 495.5198 35.579721 510.99219 38.675781 L 512.03125 36.875 C 496.22533 33.63964 480.1336 32.0064 464 32 z M 543.71875 45.90625 L 459.375 192 L 460.5293 192 L 543.71875 47.90625 C 611.35815 71.793116 664.71234 124.67663 689.25977 192 L 690 192 C 665.78832 123.72 612.02963 70.03025 543.71875 45.90625 z M 290.1875 106.9375 C 247.80187 151.4527 224.11134 210.5336 224 272 C 224.00269 272.29494 224.01185 272.58985 224.01562 272.88477 C 224.40992 211.8197 248.05851 153.18317 290.1875 108.9375 L 402.81445 304 L 403.96875 304 L 290.1875 106.9375 z M 524.03125 224 L 525.18555 226 L 698.875 226 C 702.13587 241.51933 703.83613 257.32346 703.98438 273.17969 C 703.98681 272.78615 703.9995 272.39373 704 272 C 703.904 255.86848 702.19212 239.78704 698.875 224 L 524.03125 224 z M 528.65625 295.96875 L 407.9375 505.09375 C 408.27552 505.17665 408.61479 505.25256 408.95312 505.33398 L 528.65625 297.96875 L 619.16016 454.71484 C 619.41785 454.49539 619.68063 454.28313 619.9375 454.0625 L 528.65625 295.96875 z M 232.71875 336 C 232.90462 336.6686 233.09958 337.33373 233.29102 338 L 467.4707 338 L 468.625 336 L 232.71875 336 z "
         transform="translate(0,-244)"
         id="path4351" />
      <path
         style="opacity:1;fill:#3f51b5;fill-opacity:1;stroke:none;stroke-width:16;stroke-linecap:round;stroke-miterlimit:4;stroke-dasharray:none;stroke-opacity:1"
         d="M 27.103516,512.62695 24,518 l 7.740234,0 c -0.623092,-2.4161 -2.337807,-4.40312 -4.636718,-5.37305 z M 25.732422,519 l 3.871094,6.70508 C 31.135257,524.20182 31.998762,522.14616 32,520 c -0.0032,-0.33452 -0.02729,-0.66851 -0.07227,-1 z m 0,2.00195 -3.869141,6.69922 C 22.55876,527.89681 23.277534,527.99733 24,528 c 1.74546,-0.002 3.442396,-0.57466 4.832031,-1.63086 z M 16.259766,522 c 0.623092,2.4161 2.337807,4.40312 4.636718,5.37305 L 24,522 Z"
         id="path4370"
         inkscape:connector-curvature="0"
         sodipodi:nodetypes="cccccccccccccccccc"
         transform="translate(0,-244)" />
      <path
         transform="translate(0,-244)"
         sodipodi:nodetypes="cccccccccc"
         inkscape:connector-curvature="0"
         id="path4389"
         d="m 24,512 c -1.74546,0.002 -3.442396,0.57466 -4.832031,1.63086 l 3.099609,5.36719 3.869141,-6.69922 C 25.44124,512.10319 24.722466,512.00267 24,512 Z m -5.603516,2.29492 C 16.864743,515.79818 16.001238,517.85384 16,520 c 0.0032,0.33452 0.02729,0.66851 0.07227,1 l 6.195312,0 z"
         style="opacity:1;fill:#cccccc;fill-opacity:1;stroke:none;stroke-width:16;stroke-linecap:round;stroke-miterlimit:4;stroke-dasharray:none;stroke-opacity:1" />
    </g>
  </g>
</svg>
