<?xml version="1.0" encoding="UTF-8" standalone="no"?>
<!-- Created with Inkscape (http://www.inkscape.org/) -->

<svg
   xmlns:osb="http://www.openswatchbook.org/uri/2009/osb"
   xmlns:dc="http://purl.org/dc/elements/1.1/"
   xmlns:cc="http://creativecommons.org/ns#"
   xmlns:rdf="http://www.w3.org/1999/02/22-rdf-syntax-ns#"
   xmlns:svg="http://www.w3.org/2000/svg"
   xmlns="http://www.w3.org/2000/svg"
   xmlns:xlink="http://www.w3.org/1999/xlink"
   xmlns:sodipodi="http://sodipodi.sourceforge.net/DTD/sodipodi-0.dtd"
   xmlns:inkscape="http://www.inkscape.org/namespaces/inkscape"
   inkscape:export-ydpi="90.000000"
   inkscape:export-xdpi="90.000000"
   width="736"
   height="544"
   id="svg11300"
   sodipodi:version="0.32"
   inkscape:version="0.91 r13725"
   sodipodi:docname="vmware-workstation.svg"
   inkscape:output_extension="org.inkscape.output.svg.inkscape"
   version="1.0"
   style="display:inline;enable-background:new"
   inkscape:export-filename="/home/sam/paper-template.png">
  <title
     id="title3004">Paper Icon Theme</title>
  <sodipodi:namedview
     stroke="#ef2929"
     fill="#f57900"
     id="base"
     pagecolor="#474747"
     bordercolor="#666666"
     borderopacity="0.25490196"
     inkscape:pageopacity="0"
     inkscape:pageshadow="2"
     inkscape:zoom="1"
     inkscape:cx="224.53467"
     inkscape:cy="325.51764"
     inkscape:current-layer="layer6"
     showgrid="false"
     inkscape:grid-bbox="true"
     inkscape:document-units="px"
     inkscape:showpageshadow="false"
     inkscape:window-width="1920"
     inkscape:window-height="1018"
     inkscape:window-x="0"
     inkscape:window-y="32"
     width="400px"
     height="300px"
     inkscape:snap-nodes="true"
     inkscape:snap-bbox="true"
     gridtolerance="10000"
     inkscape:object-nodes="true"
     inkscape:snap-grids="true"
     showguides="true"
     inkscape:guide-bbox="true"
     inkscape:window-maximized="1"
     inkscape:bbox-nodes="true"
     inkscape:snap-bbox-edge-midpoints="true"
     inkscape:snap-bbox-midpoints="true">
    <inkscape:grid
       spacingy="1px"
       spacingx="1px"
       id="grid5883"
       type="xygrid"
       enabled="true"
       visible="true"
       empspacing="4"
       snapvisiblegridlinesonly="true" />
    <inkscape:grid
       type="xygrid"
       id="grid11592"
       empspacing="2"
       visible="true"
       enabled="false"
       spacingx="0.5px"
       spacingy="0.5px"
       color="#ff0000"
       opacity="0.1254902"
       empcolor="#ff0000"
       empopacity="0.25098039"
       snapvisiblegridlinesonly="true" />
  </sodipodi:namedview>
  <defs
     id="defs3">
    <linearGradient
       inkscape:collect="always"
       id="linearGradient4585">
      <stop
         style="stop-color:#000000;stop-opacity:1;"
         offset="0"
         id="stop4587" />
      <stop
         style="stop-color:#000000;stop-opacity:0;"
         offset="1"
         id="stop4589" />
    </linearGradient>
    <linearGradient
       osb:paint="solid"
       id="linearGradient5606">
      <stop
         style="stop-color:#000000;stop-opacity:1;"
         offset="0"
         id="stop5608" />
    </linearGradient>
    <filter
       inkscape:collect="always"
       style="color-interpolation-filters:sRGB"
       id="filter4514"
       x="-0.024"
       width="1.048"
       y="-0.024"
       height="1.048">
      <feGaussianBlur
         inkscape:collect="always"
         stdDeviation="4.48"
         id="feGaussianBlur4516" />
    </filter>
    <clipPath
       clipPathUnits="userSpaceOnUse"
       id="clipPath4531">
      <path
         id="path4533"
         d="m 569.6,252 c 21.2736,0 38.4,-17.1264 38.4,-38.4 l 0,-291.2 c 0,-21.2736 -17.1264,-38.4 -38.4,-38.4 l -291.2,0 c -21.2736,0 -38.4,17.1264 -38.4,38.4 l 0,291.2 c 0,21.2736 17.1264,38.4 38.4,38.4 z m -41.6,-80 -208,0 0,-208 208,0 z"
         style="fill:#ff8f15;fill-opacity:1;stroke:none"
         inkscape:connector-curvature="0"
         sodipodi:nodetypes="sssssssssccccc" />
    </clipPath>
    <clipPath
       clipPathUnits="userSpaceOnUse"
       id="clipPath4561">
      <path
         style="fill:#7fb5f3;fill-opacity:1;stroke:none"
         d="m 649.6,416 c 21.2736,0 38.4,-17.1264 38.4,-38.4 L 688,86.4 C 688,65.1264 670.8736,48 649.6,48 L 358.4,48 C 337.1264,48 320,65.1264 320,86.4 l 0,41.6 288,0 0,208 -208,0 0,-128 -80,0 0,169.6 c 0,21.2736 17.1264,38.4 38.4,38.4 z"
         id="path4563"
         inkscape:connector-curvature="0"
         sodipodi:nodetypes="ssssssccccccsss" />
    </clipPath>
    <linearGradient
       inkscape:collect="always"
       xlink:href="#linearGradient4585"
       id="linearGradient4591"
       x1="488"
       y1="224"
       x2="488"
       y2="328"
       gradientUnits="userSpaceOnUse" />
    <linearGradient
       inkscape:collect="always"
       xlink:href="#linearGradient4585"
       id="linearGradient4599"
       x1="544"
       y1="164"
       x2="544"
       y2="36"
       gradientUnits="userSpaceOnUse" />
    <filter
       inkscape:collect="always"
       style="color-interpolation-filters:sRGB"
       id="filter4607"
       x="-0.045815217"
       width="1.0916304"
       y="-0.086907216"
       height="1.1738144">
      <feGaussianBlur
         inkscape:collect="always"
         stdDeviation="7.025"
         id="feGaussianBlur4609" />
    </filter>
    <filter
       inkscape:collect="always"
       style="color-interpolation-filters:sRGB"
       id="filter4611"
       x="-0.044021739"
       width="1.0880435"
       y="-0.094186047"
       height="1.1883721">
      <feGaussianBlur
         inkscape:collect="always"
         stdDeviation="6.75"
         id="feGaussianBlur4613" />
    </filter>
  </defs>
  <metadata
     id="metadata4">
    <rdf:RDF>
      <cc:Work
         rdf:about="">
        <dc:format>image/svg+xml</dc:format>
        <dc:type
           rdf:resource="http://purl.org/dc/dcmitype/StillImage" />
        <dc:creator>
          <cc:Agent>
            <dc:title>Sam Hewitt</dc:title>
          </cc:Agent>
        </dc:creator>
        <dc:source />
        <cc:license
           rdf:resource="http://creativecommons.org/licenses/by-sa/3.0/" />
        <dc:title>Paper Icon Theme</dc:title>
        <dc:subject>
          <rdf:Bag />
        </dc:subject>
        <dc:date />
        <dc:rights>
          <cc:Agent>
            <dc:title />
          </cc:Agent>
        </dc:rights>
        <dc:publisher>
          <cc:Agent>
            <dc:title />
          </cc:Agent>
        </dc:publisher>
        <dc:identifier />
        <dc:relation />
        <dc:language />
        <dc:coverage />
        <dc:description />
        <dc:contributor>
          <cc:Agent>
            <dc:title />
          </cc:Agent>
        </dc:contributor>
      </cc:Work>
      <cc:Work
         rdf:about="">
        <dc:format>image/svg+xml</dc:format>
        <dc:type
           rdf:resource="http://purl.org/dc/dcmitype/StillImage" />
      </cc:Work>
      <cc:License
         rdf:about="http://creativecommons.org/licenses/by-sa/3.0/">
        <cc:permits
           rdf:resource="http://creativecommons.org/ns#Reproduction" />
        <cc:permits
           rdf:resource="http://creativecommons.org/ns#Distribution" />
        <cc:requires
           rdf:resource="http://creativecommons.org/ns#Notice" />
        <cc:requires
           rdf:resource="http://creativecommons.org/ns#Attribution" />
        <cc:permits
           rdf:resource="http://creativecommons.org/ns#DerivativeWorks" />
        <cc:requires
           rdf:resource="http://creativecommons.org/ns#ShareAlike" />
      </cc:License>
    </rdf:RDF>
  </metadata>
  <g
     style="display:inline"
     inkscape:groupmode="layer"
     inkscape:label="Icon"
     id="layer1"
     transform="translate(0,244)">
    <g
       style="display:none"
       inkscape:label="Baseplate"
       id="layer7"
       inkscape:groupmode="layer">
      <rect
         style="display:inline;overflow:visible;visibility:visible;fill:#e9e9e9;fill-opacity:1;fill-rule:nonzero;stroke:none;stroke-width:2;marker:none;enable-background:accumulate"
         id="rect3951"
         width="512"
         height="512"
         x="-720"
         y="-228"
         inkscape:label="48x48"
         transform="scale(-1,1)" />
      <text
         y="332.48523"
         xml:space="preserve"
         x="15.006836"
         style="font-style:normal;font-variant:normal;font-weight:normal;font-stretch:normal;font-size:18px;font-family:'DejaVu Sans';-inkscape-font-specification:'DejaVu Sans';display:inline;fill:#000000;fill-opacity:1;stroke:none;enable-background:new"
         inkscape:label="context"
         id="context"><tspan
           style="font-style:normal;font-variant:normal;font-weight:normal;font-stretch:normal;font-family:'DejaVu Sans';-inkscape-font-specification:'DejaVu Sans'"
           y="332.48523"
           x="15.006836"
           sodipodi:role="line"
           id="tspan3933">apps</tspan></text>
      <text
         y="332.48523"
         xml:space="preserve"
         x="142.48828"
         style="font-style:normal;font-variant:normal;font-weight:bold;font-stretch:normal;font-size:18px;line-height:125%;font-family:'DejaVu Sans';-inkscape-font-specification:'DejaVu Sans Bold';text-align:start;writing-mode:lr-tb;text-anchor:start;display:inline;fill:#000000;fill-opacity:1;stroke:none;enable-background:new"
         sodipodi:linespacing="125%"
         inkscape:label="icon-name"
         id="icon-name"><tspan
           style="font-style:normal;font-variant:normal;font-weight:bold;font-stretch:normal;font-size:18px;font-family:'DejaVu Sans';-inkscape-font-specification:'DejaVu Sans Bold'"
           y="332.48523"
           x="142.48828"
           sodipodi:role="line"
           id="tspan3937">vmware-workstation</tspan></text>
      <rect
         style="display:inline;overflow:visible;visibility:visible;fill:#e9e9e9;fill-opacity:1;fill-rule:nonzero;stroke:none;stroke-width:2;marker:none;enable-background:accumulate"
         id="rect16x16"
         width="16"
         height="16"
         x="-32"
         y="268"
         inkscape:label="16x16"
         transform="scale(-1,1)" />
      <rect
         style="display:inline;overflow:visible;visibility:visible;fill:#e9e9e9;fill-opacity:1;fill-rule:nonzero;stroke:none;stroke-width:2;marker:none;enable-background:accumulate"
         id="rect24x24"
         width="24"
         height="24"
         x="-76"
         y="260"
         inkscape:label="24x24"
         transform="scale(-1,1)" />
      <rect
         style="display:inline;overflow:visible;visibility:visible;fill:#e9e9e9;fill-opacity:1;fill-rule:nonzero;stroke:none;stroke-width:2;marker:none;enable-background:accumulate"
         id="rect32x32"
         width="32"
         height="32"
         x="-128"
         y="252"
         inkscape:label="32x32"
         transform="scale(-1,1)" />
      <rect
         inkscape:label="48x48"
         y="236"
         x="-192"
         height="48"
         width="48"
         id="rect48x48"
         style="display:inline;overflow:visible;visibility:visible;fill:#e9e9e9;fill-opacity:1;fill-rule:nonzero;stroke:none;stroke-width:2;marker:none;enable-background:accumulate"
         transform="scale(-1,1)" />
    </g>
    <g
       inkscape:groupmode="layer"
       id="layer6"
       inkscape:label="Symbols"
       style="display:inline">
      <path
         inkscape:connector-curvature="0"
         id="path4601"
         d="M 358.40039,-194 C 337.12679,-194 320,-176.87321 320,-155.59961 l 0,41.59961 -41.59961,0 C 257.12679,-114 240,-96.87321 240,-75.59961 l 0,291.19922 C 240,236.87321 257.12679,254 278.40039,254 l 291.19922,0 C 590.87321,254 608,236.87321 608,215.59961 L 608,174 l 41.59961,0 C 670.87321,174 688,156.87321 688,135.59961 l 0,-291.19922 C 688,-176.87321 670.87321,-194 649.59961,-194 l -291.19922,0 z m 211.19922,80 38.40039,0 0,38.40039 C 608,-96.87321 590.87321,-114 569.59961,-114 Z M 400,-34 l 128,0 0,128 -128,0 0,-128 z M 320,135.59961 C 320,156.87321 337.12679,174 358.40039,174 L 320,174 l 0,-38.40039 z"
         style="opacity:0.2;fill:#000000;fill-opacity:1;stroke:none" />
      <path
         inkscape:connector-curvature="0"
         id="path4518"
         d="M 358.40039,-192 C 337.12679,-192 320,-174.87321 320,-153.59961 l 0,41.59961 -41.59961,0 C 257.12679,-112 240,-94.87321 240,-73.59961 l 0,291.19922 C 240,238.87321 257.12679,256 278.40039,256 l 291.19922,0 C 590.87321,256 608,238.87321 608,217.59961 L 608,176 l 41.59961,0 C 670.87321,176 688,158.87321 688,137.59961 l 0,-291.19922 C 688,-174.87321 670.87321,-192 649.59961,-192 l -291.19922,0 z m 211.19922,80 38.40039,0 0,38.40039 C 608,-94.87321 590.87321,-112 569.59961,-112 Z M 400,-32 l 128,0 0,128 -128,0 0,-128 z M 320,137.59961 C 320,158.87321 337.12679,176 358.40039,176 L 320,176 l 0,-38.40039 z"
         style="fill:#000000;fill-opacity:1;stroke:none;opacity:0.1;filter:url(#filter4514)" />
      <path
         style="fill:#000000;fill-opacity:1;stroke:none;opacity:0.2;filter:url(#filter4514)"
         d="M 358.40039,-192 C 337.12679,-192 320,-174.87321 320,-153.59961 l 0,41.59961 -41.59961,0 C 257.12679,-112 240,-94.87321 240,-73.59961 l 0,291.19922 C 240,238.87321 257.12679,256 278.40039,256 l 291.19922,0 C 590.87321,256 608,238.87321 608,217.59961 L 608,176 l 41.59961,0 C 670.87321,176 688,158.87321 688,137.59961 l 0,-291.19922 C 688,-174.87321 670.87321,-192 649.59961,-192 l -291.19922,0 z m 211.19922,80 38.40039,0 0,38.40039 C 608,-94.87321 590.87321,-112 569.59961,-112 Z M 400,-32 l 128,0 0,128 -128,0 0,-128 z M 320,137.59961 C 320,158.87321 337.12679,176 358.40039,176 L 320,176 l 0,-38.40039 z"
         id="path4509"
         inkscape:connector-curvature="0" />
      <path
         style="fill:#ff8f15;fill-opacity:1;stroke:none"
         d="m 240,312 0,145.59961 C 240,478.87321 257.12679,496 278.40039,496 l 291.19922,0 C 590.87321,496 608,478.87321 608,457.59961 L 608,252 l -80,0 0,164 -208,0 0,-104 z"
         transform="translate(0,-244)"
         id="path4425"
         inkscape:connector-curvature="0"
         sodipodi:nodetypes="csssscccccc" />
      <path
         style="fill:#7fb5f3;fill-opacity:1;stroke:none"
         d="M 358.40039 48 C 337.12679 48 320 65.126791 320 86.400391 L 320 128 L 608 128 L 608 232 L 688 232 L 688 86.400391 C 688 65.126791 670.87321 48 649.59961 48 L 358.40039 48 z M 320 208 L 320 232 L 400 232 L 400 208 L 320 208 z "
         transform="translate(0,-244)"
         id="path4427" />
      <path
         style="opacity:0.2;fill:#000000;fill-opacity:1;stroke:none"
         d="m 58,510 0,1 4,0 8,0 0,-1 -8,0 z"
         transform="translate(0,-244)"
         id="path4475"
         inkscape:connector-curvature="0"
         sodipodi:nodetypes="ccccccc" />
      <path
         style="opacity:0.2;fill:#000000;fill-opacity:1;stroke:none"
         d="m 103,503 0,1 18,0 0,-1 z"
         transform="translate(0,-244)"
         id="path4437"
         inkscape:connector-curvature="0"
         sodipodi:nodetypes="ccccc" />
      <path
         id="path4407"
         d="m 68.5,282 c 0.831,0 1.5,-0.669 1.5,-1.5 l 0,-13 c 0,-0.831 -0.669,-1.5 -1.5,-1.5 l -13,0 c -0.831,0 -1.5,0.669 -1.5,1.5 l 0,13 c 0,0.831 0.669,1.5 1.5,1.5 z m -2.5,-4 -8,0 0,-8 8,0 z"
         style="fill:#ff8f15;fill-opacity:1;stroke:none"
         inkscape:connector-curvature="0"
         sodipodi:nodetypes="sssssssssccccc" />
      <path
         style="fill:#7fb5f3;fill-opacity:1;stroke:none"
         d="m 72.5,278 c 0.831,0 1.5,-0.669 1.5,-1.5 l 0,-13 c 0,-0.831 -0.669,-1.5 -1.5,-1.5 l -13,0 c -0.831,0 -1.5,0.669 -1.5,1.5 l 0,2.5 4,0 8,0 0,8 -8,0 0,-4 -4,0 0,6.5 c 0,0.831 0.669,1.5 1.5,1.5 z"
         id="path4409"
         inkscape:connector-curvature="0"
         sodipodi:nodetypes="sssssscccccccsss" />
      <path
         style="fill:#000000;fill-opacity:1;stroke:none;opacity:0.2"
         d="M 58 514 L 58 515 L 66 515 L 66 514 L 58 514 z M 54 524.5 L 54 525.5 C 54 526.331 54.669 527 55.5 527 L 68.5 527 C 69.331 527 70 526.331 70 525.5 L 70 524.5 C 70 525.331 69.331 526 68.5 526 L 55.5 526 C 54.669 526 54 525.331 54 524.5 z "
         transform="translate(0,-244)"
         id="path4473" />
      <rect
         style="opacity:0.2;fill:#000000;fill-opacity:1;stroke:none;stroke-width:2;stroke-linecap:round;stroke-linejoin:round;stroke-miterlimit:4;stroke-dasharray:none;stroke-opacity:1"
         id="rect4389"
         width="16"
         height="1"
         x="164"
         y="248" />
      <path
         id="path4365"
         d="m 177,280 c 1.662,0 3,-1.338 3,-3 l 0,-26 c 0,-1.662 -1.338,-3 -3,-3 l -26,0 c -1.662,0 -3,1.338 -3,3 l 0,26 c 0,1.662 1.338,3 3,3 z m -5,-8 -16,0 0,-16 16,0 z"
         style="fill:#ff8f15;fill-opacity:1;stroke:none"
         inkscape:connector-curvature="0"
         sodipodi:nodetypes="sssssssssccccc" />
      <rect
         style="opacity:0.2;fill:#ffffff;fill-opacity:1;stroke:none;stroke-width:2;stroke-linecap:round;stroke-linejoin:round;stroke-miterlimit:4;stroke-dasharray:none;stroke-opacity:1"
         id="rect4391"
         width="16"
         height="1"
         x="156"
         y="272" />
      <path
         style="opacity:0.2;fill:#000000;fill-opacity:1;stroke:none"
         d="m 156,513 0,1 c 0,1.662 1.338,3 3,3 l 26,0 c 1.662,0 3,-1.338 3,-3 l 0,-1 c 0,1.662 -1.338,3 -3,3 l -26,0 c -1.662,0 -3,-1.338 -3,-3 z"
         transform="translate(0,-244)"
         id="path4377"
         inkscape:connector-curvature="0"
         sodipodi:nodetypes="csssscssc" />
      <g
         id="layer1-2"
         inkscape:label="places"
         style="display:inline"
         transform="translate(186.5001,-174.5)" />
      <g
         id="layer14"
         inkscape:label="mimetypes"
         style="display:inline"
         transform="translate(-54.5001,442.5)" />
      <g
         id="layer15"
         inkscape:label="emblems"
         style="display:inline"
         transform="translate(-54.5001,442.5)" />
      <g
         id="g71291"
         inkscape:label="emotes"
         style="display:inline"
         transform="translate(-54.5001,442.5)" />
      <g
         id="layer2"
         inkscape:label="categories"
         style="display:inline"
         transform="translate(186.5001,-24.5)" />
      <g
         id="g6058"
         inkscape:label="apps"
         style="display:inline"
         transform="translate(186.5001,-24.5)" />
      <g
         id="layer12"
         inkscape:label="actions"
         style="display:inline"
         transform="translate(-54.5001,442.5)" />
      <path
         style="opacity:0.2;fill:#ffffff;fill-opacity:1;stroke:none"
         d="m 151,492 c -1.662,0 -3,1.338 -3,3 l 0,1 c 0,-1.662 1.338,-3 3,-3 l 26,0 c 1.662,0 3,1.338 3,3 l 0,-1 c 0,-1.662 -1.338,-3 -3,-3 z"
         transform="translate(0,-244)"
         id="path4370"
         inkscape:connector-curvature="0"
         sodipodi:nodetypes="sscsscsss" />
      <path
         style="fill:#7fb5f3;fill-opacity:1;stroke:none"
         d="m 185,272 c 1.662,0 3,-1.338 3,-3 l 0,-26 c 0,-1.662 -1.338,-3 -3,-3 l -26,0 c -1.662,0 -3,1.338 -3,3 l 0,5 8,0 16,0 0,16 -16,0 0,-8 -8,0 0,13 c 0,1.662 1.338,3 3,3 z"
         id="rect4203"
         inkscape:connector-curvature="0"
         sodipodi:nodetypes="sssssscccccccsss" />
      <path
         style="fill:#000000;fill-opacity:1;stroke:none;opacity:0.2"
         d="M 156 500 L 156 501 L 172 501 L 172 500 L 156 500 z M 148 521 L 148 522 C 148 523.662 149.338 525 151 525 L 177 525 C 178.662 525 180 523.662 180 522 L 180 521 C 180 522.662 178.662 524 177 524 L 151 524 C 149.338 524 148 522.662 148 521 z "
         transform="translate(0,-244)"
         id="path4379" />
      <path
         id="path4375"
         d="m 159,240 c -1.662,0 -3,1.338 -3,3 l 0,1 c 0,-1.662 1.338,-3 3,-3 l 26,0 c 1.662,0 3,1.338 3,3 l 0,-1 c 0,-1.662 -1.338,-3 -3,-3 l -26,0 z m 5,24 0,1 16,0 0,-1 -16,0 z"
         style="opacity:0.2;fill:#ffffff;fill-opacity:1;stroke:none"
         inkscape:connector-curvature="0" />
      <path
         sodipodi:nodetypes="sssssssssccccc"
         inkscape:connector-curvature="0"
         style="fill:#ff8f15;fill-opacity:1;stroke:none"
         d="m 27.8,284 c 0.6648,0 1.2,-0.5352 1.2,-1.2 l 0,-10.6 c 0,-0.6648 -0.5352,-1.2 -1.2,-1.2 l -10.6,0 c -0.6648,0 -1.2,0.5352 -1.2,1.2 l 0,10.6 c 0,0.6648 0.5352,1.2 1.2,1.2 z m -1.8,-3 -7,0 0,-7 7,0 z"
         id="path4413" />
      <path
         sodipodi:nodetypes="sssssscccccccsss"
         inkscape:connector-curvature="0"
         id="path4415"
         d="m 30.8,281 c 0.6648,0 1.2,-0.5352 1.2,-1.2 l 0,-10.6 c 0,-0.6648 -0.5352,-1.2 -1.2,-1.2 l -10.6,0 c -0.6648,0 -1.2,0.5352 -1.2,1.2 l 0,1.8 3,0 7,0 0,7 -7,0 0,-4 -3,0 0,5.8 c 0,0.6648 0.5352,1.2 1.2,1.2 z"
         style="fill:#7fb5f3;fill-opacity:1;stroke:none" />
      <path
         id="path4419"
         d="m 118.6,282 c 1.3296,0 2.4,-1.0704 2.4,-2.4 l 0,-18.2 c 0,-1.3296 -1.0704,-2.4 -2.4,-2.4 l -18.2,0 c -1.3296,0 -2.4,1.0704 -2.4,2.4 l 0,18.2 c 0,1.3296 1.0704,2.4 2.4,2.4 z m -2.6,-5 -13,0 0,-13 13,0 z"
         style="fill:#ff8f15;fill-opacity:1;stroke:none"
         inkscape:connector-curvature="0"
         sodipodi:nodetypes="sssssssssccccc" />
      <path
         style="fill:#ffffff;fill-opacity:1;stroke:none;opacity:0.2"
         d="M 100.40039 503 C 99.070791 503 98 504.07079 98 505.40039 L 98 506.40039 C 98 505.07079 99.070791 504 100.40039 504 L 118.59961 504 C 119.92921 504 121 505.07079 121 506.40039 L 121 505.40039 C 121 504.07079 119.92921 503 118.59961 503 L 100.40039 503 z M 103 521 L 103 522 L 116 522 L 116 521 L 103 521 z "
         transform="translate(0,-244)"
         id="path4449" />
      <path
         style="fill:#7fb5f3;fill-opacity:1;stroke:none"
         d="m 123.6,277 c 1.3296,0 2.4,-1.0704 2.4,-2.4 l 0,-18.2 c 0,-1.3296 -1.0704,-2.4 -2.4,-2.4 l -18.2,0 c -1.3296,0 -2.4,1.0704 -2.4,2.4 l 0,2.6 18,0 0,13 -13,0 0,-8 -5,0 0,10.6 c 0,1.3296 1.0704,2.4 2.4,2.4 z"
         id="path4421"
         inkscape:connector-curvature="0"
         sodipodi:nodetypes="ssssssccccccsss" />
      <path
         id="path4442"
         transform="translate(0,-244)"
         d="m 103,518.59961 0,1 c 0,1.3296 1.07079,2.40039 2.40039,2.40039 l 18.19922,0 C 124.92921,522 126,520.92921 126,519.59961 l 0,-1 C 126,519.92921 124.92921,521 123.59961,521 l -18.19922,0 C 104.07079,521 103,519.92921 103,518.59961 Z"
         style="opacity:0.2;fill:#000000;fill-opacity:1;stroke:none"
         inkscape:connector-curvature="0"
         sodipodi:nodetypes="csssscssc" />
      <path
         style="fill:#000000;fill-opacity:1;stroke:none;opacity:0.2"
         d="M 103 508 L 103 509 L 116 509 L 116 508 L 103 508 z M 98 523.59961 L 98 524.59961 C 98 525.92921 99.070791 527 100.40039 527 L 118.59961 527 C 119.92921 527 121 525.92921 121 524.59961 L 121 523.59961 C 121 524.92921 119.92921 526 118.59961 526 L 100.40039 526 C 99.070791 526 98 524.92921 98 523.59961 z "
         transform="translate(0,-244)"
         id="path4444" />
      <path
         style="opacity:0.2;fill:#ffffff;fill-opacity:1;stroke:none"
         d="M 105.40039,498 C 104.07079,498 103,499.07079 103,500.40039 l 0,1 C 103,500.07079 104.07079,499 105.40039,499 l 18.19922,0 c 1.3296,0 2.40039,1.07079 2.40039,2.40039 l 0,-1 C 126,499.07079 124.92921,498 123.59961,498 Z M 108,516 l 0,1 13,0 0,-1 z"
         transform="translate(0,-244)"
         id="path4454"
         inkscape:connector-curvature="0"
         sodipodi:nodetypes="sscsscsssccccc" />
      <path
         style="opacity:0.2;fill:#ffffff;fill-opacity:1;stroke:none"
         d="m 55.5,510 c -0.831,0 -1.5,0.669 -1.5,1.5 l 0,1 c 0,-0.831 0.669,-1.5 1.5,-1.5 l 13,0 c 0.831,0 1.5,0.669 1.5,1.5 l 0,-1 c 0,-0.831 -0.669,-1.5 -1.5,-1.5 z m 2.5,12 0,1 8,0 0,-1 z"
         transform="translate(0,-244)"
         id="path4459"
         inkscape:connector-curvature="0"
         sodipodi:nodetypes="sscsscsssccccc" />
      <path
         style="opacity:0.2;fill:#ffffff;fill-opacity:1;stroke:none"
         d="m 59.5,506 c -0.831,0 -1.5,0.669 -1.5,1.5 l 0,1 c 0,-0.831 0.669,-1.5 1.5,-1.5 l 13,0 c 0.831,0 1.5,0.669 1.5,1.5 l 0,-1 c 0,-0.831 -0.669,-1.5 -1.5,-1.5 z m 2.5,12 0,1 8,0 0,-1 z"
         transform="translate(0,-244)"
         id="path4461"
         inkscape:connector-curvature="0"
         sodipodi:nodetypes="sscsscsssccccc" />
      <path
         id="path4479"
         d="m 58,520.5 0,1 c 0,0.831 0.669,1.5 1.5,1.5 l 13,0 c 0.831,0 1.5,-0.669 1.5,-1.5 l 0,-1 c 0,0.831 -0.669,1.5 -1.5,1.5 l -13,0 c -0.831,0 -1.5,-0.669 -1.5,-1.5 z"
         style="opacity:0.2;fill:#000000;fill-opacity:1;stroke:none"
         inkscape:connector-curvature="0"
         sodipodi:nodetypes="csssscssc"
         transform="translate(0,-244)" />
      <path
         style="opacity:0.3;fill:url(#linearGradient4599);fill-opacity:1;stroke:none;filter:url(#filter4611)"
         d="m 320,50 0,93.59961 C 320,164.87321 337.12679,182 358.40039,182 l 291.19922,0 C 670.87321,182 688,164.87321 688,143.59961 L 688,10 l -80,0 0,92 -208,0 0,-52 z"
         id="path4520"
         inkscape:connector-curvature="0"
         clip-path="url(#clipPath4531)"
         sodipodi:nodetypes="csssscccccc" />
      <path
         style="fill:#7fb5f3;fill-opacity:1;stroke:none"
         d="M 320 232 L 320 377.59961 C 320 398.87321 337.12679 416 358.40039 416 L 649.59961 416 C 670.87321 416 688 398.87321 688 377.59961 L 688 232 L 608 232 L 608 336 L 400 336 L 400 232 L 320 232 z "
         id="path4569"
         transform="translate(0,-244)" />
      <path
         style="opacity:0.3;fill:url(#linearGradient4591);fill-opacity:1;stroke:none;filter:url(#filter4607)"
         d="M 278.40039,138 C 257.12679,138 240,155.12679 240,176.40039 L 240,296 l 80,0 0,-78 208,0 0,114 80,0 0,-155.59961 C 608,155.12679 590.87321,138 569.59961,138 Z"
         transform="translate(0,-244)"
         id="path4539"
         clip-path="url(#clipPath4561)"
         inkscape:connector-curvature="0"
         sodipodi:nodetypes="ssccccccsss" />
      <path
         style="fill:#ff8f15;fill-opacity:1;stroke:none"
         d="M 569.59961,-116 C 590.87321,-116 608,-98.87321 608,-77.59961 L 608,8 l -80,0 0,-44 -208,0 0,104 -80,0 0,-145.59961 C 240,-98.87321 257.12679,-116 278.40039,-116 Z"
         id="path4577"
         inkscape:connector-curvature="0"
         sodipodi:nodetypes="ssccccccsss" />
      <path
         style="opacity:0.2;fill:#ffffff;fill-opacity:1;stroke:none"
         d="M 358.40039,48 C 337.12679,48 320,65.126791 320,86.400391 l 0,2 C 320,67.126791 337.12679,50 358.40039,50 l 291.19922,0 C 670.87321,50 688,67.126791 688,88.400391 l 0,-2 C 688,65.126791 670.87321,48 649.59961,48 Z M 400,336 l 0,2 208,0 0,-2 z"
         transform="translate(0,-244)"
         id="path4483"
         inkscape:connector-curvature="0"
         sodipodi:nodetypes="sscsscsssccccc" />
      <path
         style="opacity:0.2;fill:#ffffff;fill-opacity:1;stroke:none"
         d="M 278.40039,128 C 257.12679,128 240,145.12679 240,166.40039 l 0,2 C 240,147.12679 257.12679,130 278.40039,130 l 291.19922,0 C 590.87321,130 608,147.12679 608,168.40039 l 0,-2 C 608,145.12679 590.87321,128 569.59961,128 Z M 320,416 l 0,2 28,0 0,-2 z"
         transform="translate(0,-244)"
         id="path4481"
         inkscape:connector-curvature="0"
         sodipodi:nodetypes="sscsscsssccccc" />
    </g>
    <g
       inkscape:groupmode="layer"
       id="layer3"
       inkscape:label="Pictogram" />
  </g>
</svg>
