<?xml version="1.0" encoding="UTF-8" standalone="no"?>
<!-- Created with Inkscape (http://www.inkscape.org/) -->

<svg
   xmlns:dc="http://purl.org/dc/elements/1.1/"
   xmlns:cc="http://creativecommons.org/ns#"
   xmlns:rdf="http://www.w3.org/1999/02/22-rdf-syntax-ns#"
   xmlns:svg="http://www.w3.org/2000/svg"
   xmlns="http://www.w3.org/2000/svg"
   xmlns:sodipodi="http://sodipodi.sourceforge.net/DTD/sodipodi-0.dtd"
   xmlns:inkscape="http://www.inkscape.org/namespaces/inkscape"
   inkscape:export-ydpi="90.000000"
   inkscape:export-xdpi="90.000000"
   width="736"
   height="544"
   id="svg11300"
   sodipodi:version="0.32"
   inkscape:version="0.91 r"
   sodipodi:docname="vmware-player.svg"
   inkscape:output_extension="org.inkscape.output.svg.inkscape"
   version="1.0"
   style="display:inline;enable-background:new"
   inkscape:export-filename="/home/sam/paper-template.png">
  <title
     id="title3004">Paper Icon Theme Template</title>
  <sodipodi:namedview
     stroke="#ef2929"
     fill="#f57900"
     id="base"
     pagecolor="#6b6b6b"
     bordercolor="#000000"
     borderopacity="0.25490196"
     inkscape:pageopacity="0"
     inkscape:pageshadow="2"
     inkscape:zoom="1"
     inkscape:cx="357.876"
     inkscape:cy="74.385976"
     inkscape:current-layer="layer6"
     showgrid="false"
     inkscape:grid-bbox="true"
     inkscape:document-units="px"
     inkscape:showpageshadow="false"
     inkscape:window-width="1920"
     inkscape:window-height="1023"
     inkscape:window-x="0"
     inkscape:window-y="27"
     width="400px"
     height="300px"
     inkscape:snap-nodes="true"
     inkscape:snap-bbox="true"
     gridtolerance="10000"
     inkscape:object-nodes="true"
     inkscape:snap-grids="true"
     showguides="true"
     inkscape:guide-bbox="true"
     inkscape:window-maximized="1"
     inkscape:bbox-paths="true"
     inkscape:snap-bbox-midpoints="true"
     inkscape:snap-global="true"
     inkscape:object-paths="true"
     inkscape:snap-intersection-paths="true"
     inkscape:snap-smooth-nodes="true">
    <inkscape:grid
       spacingy="1px"
       spacingx="1px"
       id="grid5883"
       type="xygrid"
       enabled="true"
       visible="true"
       empspacing="4"
       snapvisiblegridlinesonly="true" />
    <inkscape:grid
       type="xygrid"
       id="grid11592"
       empspacing="2"
       visible="true"
       enabled="false"
       spacingx="0.5px"
       spacingy="0.5px"
       color="#ff0000"
       opacity="0.1254902"
       empcolor="#ff0000"
       empopacity="0.25098039"
       snapvisiblegridlinesonly="true" />
  </sodipodi:namedview>
  <defs
     id="defs3">
    <filter
       inkscape:collect="always"
       style="color-interpolation-filters:sRGB"
       id="filter4220"
       x="-0.024"
       width="1.048"
       y="-0.024"
       height="1.048">
      <feGaussianBlur
         inkscape:collect="always"
         stdDeviation="4.48"
         id="feGaussianBlur4222" />
    </filter>
  </defs>
  <metadata
     id="metadata4">
    <rdf:RDF>
      <cc:Work
         rdf:about="">
        <dc:format>image/svg+xml</dc:format>
        <dc:type
           rdf:resource="http://purl.org/dc/dcmitype/StillImage" />
        <dc:creator>
          <cc:Agent>
            <dc:title>Sam Hewitt</dc:title>
          </cc:Agent>
        </dc:creator>
        <dc:source />
        <cc:license
           rdf:resource="http://creativecommons.org/licenses/by-sa/3.0/" />
        <dc:title>Paper Icon Theme Template</dc:title>
        <dc:subject>
          <rdf:Bag />
        </dc:subject>
        <dc:date />
        <dc:rights>
          <cc:Agent>
            <dc:title />
          </cc:Agent>
        </dc:rights>
        <dc:publisher>
          <cc:Agent>
            <dc:title />
          </cc:Agent>
        </dc:publisher>
        <dc:identifier />
        <dc:relation />
        <dc:language />
        <dc:coverage />
        <dc:description />
        <dc:contributor>
          <cc:Agent>
            <dc:title />
          </cc:Agent>
        </dc:contributor>
      </cc:Work>
      <cc:Work
         rdf:about="">
        <dc:format>image/svg+xml</dc:format>
        <dc:type
           rdf:resource="http://purl.org/dc/dcmitype/StillImage" />
      </cc:Work>
      <cc:License
         rdf:about="http://creativecommons.org/licenses/by-sa/3.0/">
        <cc:permits
           rdf:resource="http://creativecommons.org/ns#Reproduction" />
        <cc:permits
           rdf:resource="http://creativecommons.org/ns#Distribution" />
        <cc:requires
           rdf:resource="http://creativecommons.org/ns#Notice" />
        <cc:requires
           rdf:resource="http://creativecommons.org/ns#Attribution" />
        <cc:permits
           rdf:resource="http://creativecommons.org/ns#DerivativeWorks" />
        <cc:requires
           rdf:resource="http://creativecommons.org/ns#ShareAlike" />
      </cc:License>
    </rdf:RDF>
  </metadata>
  <g
     style="display:inline"
     inkscape:groupmode="layer"
     inkscape:label="Icon"
     id="layer1"
     transform="translate(0,244)">
    <g
       style="display:none"
       inkscape:label="Baseplate"
       id="layer7"
       inkscape:groupmode="layer">
      <text
         y="337.74512"
         xml:space="preserve"
         x="15.006836"
         style="font-style:normal;font-variant:normal;font-weight:normal;font-stretch:normal;font-size:18px;font-family:'DejaVu Sans';-inkscape-font-specification:'DejaVu Sans';display:inline;fill:#000000;fill-opacity:1;stroke:none;enable-background:new"
         inkscape:label="context"
         id="context"><tspan
           style="font-style:normal;font-variant:normal;font-weight:normal;font-stretch:normal;font-family:'DejaVu Sans';-inkscape-font-specification:'DejaVu Sans'"
           y="337.74512"
           x="15.006836"
           sodipodi:role="line"
           id="tspan3933">apps</tspan></text>
      <text
         y="337.74512"
         xml:space="preserve"
         x="142.48828"
         style="font-style:normal;font-variant:normal;font-weight:bold;font-stretch:normal;font-size:18px;line-height:125%;font-family:'DejaVu Sans';-inkscape-font-specification:'DejaVu Sans Bold';text-align:start;writing-mode:lr-tb;text-anchor:start;display:inline;fill:#000000;fill-opacity:1;stroke:none;enable-background:new"
         sodipodi:linespacing="125%"
         inkscape:label="icon-name"
         id="icon-name"><tspan
           style="font-style:normal;font-variant:normal;font-weight:bold;font-stretch:normal;font-size:18px;font-family:'DejaVu Sans';-inkscape-font-specification:'DejaVu Sans Bold'"
           y="337.74512"
           x="142.48828"
           sodipodi:role="line"
           id="tspan3937">vmware-player</tspan></text>
      <rect
         style="display:inline;overflow:visible;visibility:visible;fill:#d3d7cf;fill-opacity:1;fill-rule:nonzero;stroke:none;stroke-width:2;marker:none;enable-background:accumulate"
         id="rect16x16"
         width="16"
         height="16"
         x="-32"
         y="268"
         inkscape:label="16x16"
         transform="scale(-1,1)" />
      <rect
         style="display:inline;overflow:visible;visibility:visible;fill:#d3d7cf;fill-opacity:1;fill-rule:nonzero;stroke:none;stroke-width:2;marker:none;enable-background:accumulate"
         id="rect24x24"
         width="24"
         height="24"
         x="-76"
         y="260"
         inkscape:label="24x24"
         transform="scale(-1,1)" />
      <rect
         style="display:inline;overflow:visible;visibility:visible;fill:#d3d7cf;fill-opacity:1;fill-rule:nonzero;stroke:none;stroke-width:2;marker:none;enable-background:accumulate"
         id="rect32x32"
         width="32"
         height="32"
         x="-128"
         y="252"
         inkscape:label="32x32"
         transform="scale(-1,1)" />
      <rect
         inkscape:label="48x48"
         y="236"
         x="-192"
         height="48"
         width="48"
         id="rect48x48"
         style="display:inline;overflow:visible;visibility:visible;fill:#d3d7cf;fill-opacity:1;fill-rule:nonzero;stroke:none;stroke-width:2;marker:none;enable-background:accumulate"
         transform="scale(-1,1)" />
      <rect
         style="display:inline;overflow:visible;visibility:visible;fill:#d3d7cf;fill-opacity:1;fill-rule:nonzero;stroke:none;stroke-width:2;marker:none;enable-background:accumulate"
         id="rect3951"
         width="512"
         height="512"
         x="-720"
         y="-228"
         inkscape:label="48x48"
         transform="scale(-1,1)" />
    </g>
    <g
       inkscape:groupmode="layer"
       id="layer6"
       inkscape:label="Symbols"
       style="display:inline">
      <path
         inkscape:connector-curvature="0"
         style="color:#000000;display:inline;overflow:visible;visibility:visible;opacity:0.1;fill:#000000;fill-opacity:1;fill-rule:nonzero;stroke:none;stroke-width:2;marker:none;enable-background:new;filter:url(#filter4220)"
         d="m 272,-192 c -17.728,0 -32,14.272 -32,32 l 0,144 c 0,17.728 14.272,32 32,32 17.728,0 32,-14.272 32,-32 l 0,-67 48,48 0,51 64,0 0,-16 c 0,-8.864 7.136,-16 16,-16 l 16,0 0,-64 -51,0 -48,-48 67,0 c 17.728,0 32,-14.272 32,-32 0,-17.728 -14.272,-32 -32,-32 l -144,0 z m 240,0 c -17.728,0 -32,14.272 -32,32 0,17.728 14.272,32 32,32 l 67,0 -48,48 -51,0 0,64 16,0 c 8.864,0 16,7.136 16,16 l 0,16 64,0 0,-51 48,-48 0,67 c 0,17.728 14.272,32 32,32 17.728,0 32,-14.272 32,-32 l 0,-144 c 0,-17.728 -14.272,-32 -32,-32 l -144,0 z m -160,240 0,64 c 0,17.728 14.272,32 32,32 l 64,0 0,-64 -16,0 c -8.864,0 -16,-7.136 -16,-16 l 0,-16 -64,0 z m 160,0 0,16 c 0,8.864 -7.136,16 -16,16 l -16,0 0,64 51,0 48,48 -67,0 c -17.728,0 -32,14.272 -32,32 0,17.728 14.272,32 32,32 l 144,0 c 17.728,0 32,-14.272 32,-32 l 0,-144 c 0,-17.728 -14.272,-32 -32,-32 -17.728,0 -32,14.272 -32,32 l 0,67 -48,-48 0,-51 -64,0 z"
         id="path4224" />
      <path
         id="path4218"
         d="m 272,-192 c -17.728,0 -32,14.272 -32,32 l 0,144 c 0,17.728 14.272,32 32,32 17.728,0 32,-14.272 32,-32 l 0,-67 48,48 0,51 64,0 0,-16 c 0,-8.864 7.136,-16 16,-16 l 16,0 0,-64 -51,0 -48,-48 67,0 c 17.728,0 32,-14.272 32,-32 0,-17.728 -14.272,-32 -32,-32 l -144,0 z m 240,0 c -17.728,0 -32,14.272 -32,32 0,17.728 14.272,32 32,32 l 67,0 -48,48 -51,0 0,64 16,0 c 8.864,0 16,7.136 16,16 l 0,16 64,0 0,-51 48,-48 0,67 c 0,17.728 14.272,32 32,32 17.728,0 32,-14.272 32,-32 l 0,-144 c 0,-17.728 -14.272,-32 -32,-32 l -144,0 z m -160,240 0,64 c 0,17.728 14.272,32 32,32 l 64,0 0,-64 -16,0 c -8.864,0 -16,-7.136 -16,-16 l 0,-16 -64,0 z m 160,0 0,16 c 0,8.864 -7.136,16 -16,16 l -16,0 0,64 51,0 48,48 -67,0 c -17.728,0 -32,14.272 -32,32 0,17.728 14.272,32 32,32 l 144,0 c 17.728,0 32,-14.272 32,-32 l 0,-144 c 0,-17.728 -14.272,-32 -32,-32 -17.728,0 -32,14.272 -32,32 l 0,67 -48,-48 0,-51 -64,0 z"
         style="color:#000000;display:inline;overflow:visible;visibility:visible;opacity:0.2;fill:#000000;fill-opacity:1;fill-rule:nonzero;stroke:none;stroke-width:2;marker:none;enable-background:new;filter:url(#filter4220)"
         inkscape:connector-curvature="0" />
      <path
         inkscape:connector-curvature="0"
         style="color:#000000;display:inline;overflow:visible;visibility:visible;fill:#000000;fill-opacity:1;fill-rule:nonzero;stroke:none;stroke-width:2;marker:none;enable-background:new;opacity:0.2"
         d="m 272,-194 c -17.728,0 -32,14.272 -32,32 l 0,144 c 0,17.728 14.272,32 32,32 17.728,0 32,-14.272 32,-32 l 0,-67 48,48 0,51 64,0 0,-16 c 0,-8.864 7.136,-16 16,-16 l 16,0 0,-64 -51,0 -48,-48 67,0 c 17.728,0 32,-14.272 32,-32 0,-17.728 -14.272,-32 -32,-32 l -144,0 z m 240,0 c -17.728,0 -32,14.272 -32,32 0,17.728 14.272,32 32,32 l 67,0 -48,48 -51,0 0,64 16,0 c 8.864,0 16,7.136 16,16 l 0,16 64,0 0,-51 48,-48 0,67 c 0,17.728 14.272,32 32,32 17.728,0 32,-14.272 32,-32 l 0,-144 c 0,-17.728 -14.272,-32 -32,-32 l -144,0 z m -160,240 0,64 c 0,17.728 14.272,32 32,32 l 64,0 0,-64 -16,0 c -8.864,0 -16,-7.136 -16,-16 l 0,-16 -64,0 z m 160,0 0,16 c 0,8.864 -7.136,16 -16,16 l -16,0 0,64 51,0 48,48 -67,0 c -17.728,0 -32,14.272 -32,32 0,17.728 14.272,32 32,32 l 144,0 c 17.728,0 32,-14.272 32,-32 l 0,-144 c 0,-17.728 -14.272,-32 -32,-32 -17.728,0 -32,14.272 -32,32 l 0,67 -48,-48 0,-51 -64,0 z"
         id="path4216" />
      <path
         id="path4200"
         d="m 100,255 c -1.108,0 -2,0.892 -2,2 l 0,9 c 0,1.108 0.892,2 2,2 1.108,0 2,-0.892 2,-2 l 0,-4.1875 3,3 0,3.1875 4,0 0,-1 c 0,-0.554 0.446,-1 1,-1 l 1,0 0,-4 -3.1875,0 -3,-3 4.1875,0 c 1.108,0 2,-0.892 2,-2 0,-1.108 -0.892,-2 -2,-2 l -9,0 z m 15,0 c -1.108,0 -2,0.892 -2,2 0,1.108 0.892,2 2,2 l 4.1875,0 -3,3 -3.1875,0 0,4 1,0 c 0.554,0 1,0.446 1,1 l 0,1 4,0 0,-3.1875 3,-3 0,4.1875 c 0,1.108 0.892,2 2,2 1.108,0 2,-0.892 2,-2 l 0,-9 c 0,-1.108 -0.892,-2 -2,-2 l -9,0 z m -10,15 0,4 c 0,1.108 0.892,2 2,2 l 4,0 0,-4 -1,0 c -0.554,0 -1,-0.446 -1,-1 l 0,-1 -4,0 z m 10,0 0,1 c 0,0.554 -0.446,1 -1,1 l -1,0 0,4 3.1875,0 3,3 -4.1875,0 c -1.108,0 -2,0.892 -2,2 0,1.108 0.892,2 2,2 l 9,0 c 1.108,0 2,-0.892 2,-2 l 0,-9 c 0,-1.108 -0.892,-2 -2,-2 -1.108,0 -2,0.892 -2,2 l 0,4.1875 -3,-3 0,-3.1875 -4,0 z"
         style="color:#000000;display:inline;overflow:visible;visibility:visible;opacity:0.2;fill:#000000;fill-opacity:1;fill-rule:nonzero;stroke:none;stroke-width:2;marker:none;enable-background:new"
         inkscape:connector-curvature="0" />
      <path
         sodipodi:nodetypes="sssssccccssccccsssssssccccssccccsssssscssccsscccssccccsssssssscccc"
         inkscape:connector-curvature="0"
         style="color:#000000;display:inline;overflow:visible;visibility:visible;opacity:0.2;fill:#000000;fill-opacity:1;fill-rule:nonzero;stroke:none;stroke-width:2;marker:none;enable-background:new"
         d="m 150,240 c -1.662,0 -3,1.338 -3,3 l 0,13.5 c 0,1.662 1.338,3 3,3 1.662,0 3,-1.338 3,-3 l 0,-6.28125 4,4 0,4.78125 6,0 0,-1.5 c 0,-0.831 0.67165,-1.56627 1.5,-1.5 l 1.5,0 0,-6 -4.78125,0 -4,-4 6.28125,0 c 1.662,0 3,-1.338 3,-3 0,-1.662 -1.338,-3 -3,-3 z m 22.5,0 c -1.662,0 -3,1.338 -3,3 0,1.662 1.338,3 3,3 l 6.28125,0 -4,4 -4.78125,0 0,6 1.5,0 c 0.831,0 1.61228,0.67662 1.5,1.5 l 0,1.5 6,0 0,-4.78125 4,-4 0,6.28125 c 0,1.662 1.338,3 3,3 1.662,0 3,-1.338 3,-3 l 0,-13.5 c 0,-1.662 -1.338,-3 -3,-3 z m -15.5,23 0,6 c 0,1.662 1.338,3 3,3 l 6,0 0,-6 -1.5,0 c -0.831,0 -1.5,-0.669 -1.5,-1.5 l 0,-1.5 z m 16,0 0,1.5 c 0,0.831 -0.669,1.5 -1.5,1.5 l -1.5,0 0,6 4.78125,0 4,4 -6.28125,0 c -1.662,0 -3,1.338 -3,3 0,1.662 1.338,3 3,3 l 13.5,0 c 1.662,0 3,-1.338 3,-3 l 0,-13.5 c 0,-1.662 -1.338,-3 -3,-3 -1.662,0 -3,1.338 -3,3 l 0,6.28125 -4,-4 L 179,263 Z"
         id="path4202" />
      <path
         inkscape:connector-curvature="0"
         id="path4204"
         d="m 55.5,263 c -0.831,0 -1.5,0.669 -1.5,1.5 l 0,6.25 c 0,0.831 0.669,1.5 1.5,1.5 0.831,0 1.794301,-0.72286 1.5,-1.5 l 0,-2.64062 2,2 0,1.89062 3,0 0,-0.25 0,-0.75 0.75,0 0.25,0 0,-3 -1.890625,0 -2,-2 2.640625,0 c 0.831,0 1.5,-0.669 1.5,-1.5 0,-0.831 -0.669,-1.5 -1.5,-1.5 l -6.25,0 z m 10.75,0 c -0.831,0 -1.5,0.669 -1.5,1.5 0,0.831 0.669,1.5 1.5,1.5 l 2.640625,0 -2,2 L 65,268 l 0,3 0.25,0 0.75,0 0,0.75 0,0.25 3,0 0,-1.89062 2,-2 0,2.64062 c 0,0.831 0.669,1.5 1.5,1.5 0.831,0 1.5,-0.669 1.5,-1.5 l 0,-6.25 c 0,-0.831 -0.669,-1.5 -1.5,-1.5 l -6.25,0 z m 6.25,10.75 c -0.831,0 -1.5,0.669 -1.5,1.5 l 0,2.64062 -2,-2 0,-1.89062 -3,0 0,0.25 0,0.75 -0.75,0 -0.25,0 0,3 1.890625,0 2,2 -2.640625,0 c -0.831,0 -1.5,0.669 -1.5,1.5 0,0.831 0.669,1.5 1.5,1.5 l 6.25,0 c 0.831,0 1.5,-0.669 1.5,-1.5 l 0,-6.25 c 0,-0.831 -0.669,-1.5 -1.5,-1.5 z M 59,274 l 0,2.5 c 0,0.831 0.669,1.5 1.5,1.5 l 2.5,0 0,-3 -0.25,0 -0.75,0 0,-0.75 0,-0.25 -3,0 z"
         style="color:#000000;display:inline;overflow:visible;visibility:visible;opacity:0.2;fill:#000000;fill-opacity:1;fill-rule:nonzero;stroke:none;stroke-width:2;marker:none;enable-background:new" />
      <path
         inkscape:connector-curvature="0"
         style="color:#000000;display:inline;overflow:visible;visibility:visible;fill:#ffeb3b;fill-opacity:1;fill-rule:nonzero;stroke:none;stroke-width:2;marker:none;enable-background:new"
         d="m 100,254 c -1.108,0 -2,0.892 -2,2 l 0,9 c 0,1.108 0.892,2 2,2 1.108,0 2,-0.892 2,-2 l 0,-4.1875 3,3 0,3.1875 4,0 0,-1 c 0,-0.554 0.446,-1 1,-1 l 1,0 0,-4 -3.1875,0 -3,-3 4.1875,0 c 1.108,0 2,-0.892 2,-2 0,-1.108 -0.892,-2 -2,-2 l -9,0 z m 15,0 c -1.108,0 -2,0.892 -2,2 0,1.108 0.892,2 2,2 l 4.1875,0 -3,3 -3.1875,0 0,4 1,0 c 0.554,0 1,0.446 1,1 l 0,1 4,0 0,-3.1875 3,-3 0,4.1875 c 0,1.108 0.892,2 2,2 1.108,0 2,-0.892 2,-2 l 0,-9 c 0,-1.108 -0.892,-2 -2,-2 l -9,0 z m -10,15 0,4 c 0,1.108 0.892,2 2,2 l 4,0 0,-4 -1,0 c -0.554,0 -1,-0.446 -1,-1 l 0,-1 -4,0 z m 10,0 0,1 c 0,0.554 -0.446,1 -1,1 l -1,0 0,4 3.1875,0 3,3 -4.1875,0 c -1.108,0 -2,0.892 -2,2 0,1.108 0.892,2 2,2 l 9,0 c 1.108,0 2,-0.892 2,-2 l 0,-9 c 0,-1.108 -0.892,-2 -2,-2 -1.108,0 -2,0.892 -2,2 l 0,4.1875 -3,-3 0,-3.1875 -4,0 z"
         id="rect3863" />
      <path
         inkscape:connector-curvature="0"
         style="color:#000000;display:inline;overflow:visible;visibility:visible;fill:#ffeb3b;fill-opacity:1;fill-rule:nonzero;stroke:none;stroke-width:2;marker:none;enable-background:new"
         d="m 18,269 c -0.554,0 -1,0.446 -1,1 l 0,4 c 0,0.554 0.446,1 1,1 0.554,0 1,-0.446 1,-1 l 0,-1.59375 1,1 0,1.59375 2,0 0,-0.5 c 0,-0.277 0.22437,-0.47244 0.5,-0.5 l 0.5,0 0,-2 -1.59375,0 -1,-1 L 22,271 c 0.554,0 1,-0.446 1,-1 0,-0.554 -0.446,-1 -1,-1 z m 8,0 c -0.554,0 -1,0.446 -1,1 0,0.554 0.446,1 1,1 l 1.59375,0 -1,1 -1.59375,0 0,2 0.5,0 c 0.277,0 0.5876,0.23721 0.5,0.5 l 0,0.5 2,0 0,-1.59375 1,-1 L 29,274 c 0,0.554 0.446,1 1,1 0.554,0 1,-0.446 1,-1 l 0,-4 c 0,-0.554 -0.446,-1 -1,-1 z m -6,8 0,2 c 0,0.554 0.446,1 1,1 l 2,0 0,-2 -0.5,0 c -0.277,0 -0.5,-0.223 -0.5,-0.5 l 0,-0.5 z m 6,0 0,0.5 c 0,0.277 -0.223,0.5 -0.5,0.5 l -0.5,0 0,2 1.59375,0 1,1 L 26,281 c -0.554,0 -1,0.446 -1,1 0,0.554 0.446,1 1,1 l 4,0 c 0.554,0 1,-0.446 1,-1 l 0,-4 c 0,-0.554 -0.446,-1 -1,-1 -0.554,0 -1,0.446 -1,1 l 0,1.59375 -1,-1 L 28,277 Z"
         id="path3926"
         sodipodi:nodetypes="sssssccccssccccsssssssccccssccccsssssscssccsscccssccccsssssssscccc" />
      <path
         id="path3949"
         d="m 150,239 c -1.662,0 -3,1.338 -3,3 l 0,13.5 c 0,1.662 1.338,3 3,3 1.662,0 3,-1.338 3,-3 l 0,-6.28125 4,4 0,4.78125 6,0 0,-1.5 c 0,-0.831 0.67165,-1.56627 1.5,-1.5 l 1.5,0 0,-6 -4.78125,0 -4,-4 6.28125,0 c 1.662,0 3,-1.338 3,-3 0,-1.662 -1.338,-3 -3,-3 z m 22.5,0 c -1.662,0 -3,1.338 -3,3 0,1.662 1.338,3 3,3 l 6.28125,0 -4,4 -4.78125,0 0,6 1.5,0 c 0.831,0 1.61228,0.67662 1.5,1.5 l 0,1.5 6,0 0,-4.78125 4,-4 0,6.28125 c 0,1.662 1.338,3 3,3 1.662,0 3,-1.338 3,-3 l 0,-13.5 c 0,-1.662 -1.338,-3 -3,-3 z m -15.5,23 0,6 c 0,1.662 1.338,3 3,3 l 6,0 0,-6 -1.5,0 c -0.831,0 -1.5,-0.669 -1.5,-1.5 l 0,-1.5 z m 16,0 0,1.5 c 0,0.831 -0.669,1.5 -1.5,1.5 l -1.5,0 0,6 4.78125,0 4,4 -6.28125,0 c -1.662,0 -3,1.338 -3,3 0,1.662 1.338,3 3,3 l 13.5,0 c 1.662,0 3,-1.338 3,-3 l 0,-13.5 c 0,-1.662 -1.338,-3 -3,-3 -1.662,0 -3,1.338 -3,3 l 0,6.28125 -4,-4 L 179,262 Z"
         style="color:#000000;display:inline;overflow:visible;visibility:visible;fill:#ffeb3b;fill-opacity:1;fill-rule:nonzero;stroke:none;stroke-width:2;marker:none;enable-background:new"
         inkscape:connector-curvature="0"
         sodipodi:nodetypes="sssssccccssccccsssssssccccssccccsssssscssccsscccssccccsssssssscccc" />
      <path
         style="color:#000000;display:inline;overflow:visible;visibility:visible;fill:#ffeb3b;fill-opacity:1;fill-rule:nonzero;stroke:none;stroke-width:2;marker:none;enable-background:new"
         d="M 55.5 506 C 54.669 506 54 506.669 54 507.5 L 54 513.75 C 54 514.581 54.669 515.25 55.5 515.25 C 56.331 515.25 57.294301 514.52714 57 513.75 L 57 511.10938 L 59 513.10938 L 59 515 L 62 515 L 62 514.75 L 62 514 L 62.75 514 L 63 514 L 63 511 L 61.109375 511 L 59.109375 509 L 61.75 509 C 62.581 509 63.25 508.331 63.25 507.5 C 63.25 506.669 62.581 506 61.75 506 L 55.5 506 z M 66.25 506 C 65.419 506 64.75 506.669 64.75 507.5 C 64.75 508.331 65.419 509 66.25 509 L 68.890625 509 L 66.890625 511 L 65 511 L 65 514 L 65.25 514 L 66 514 L 66 514.75 L 66 515 L 69 515 L 69 513.10938 L 71 511.10938 L 71 513.75 C 71 514.581 71.669 515.25 72.5 515.25 C 73.331 515.25 74 514.581 74 513.75 L 74 507.5 C 74 506.669 73.331 506 72.5 506 L 66.25 506 z M 72.5 516.75 C 71.669 516.75 71 517.419 71 518.25 L 71 520.89062 L 69 518.89062 L 69 517 L 66 517 L 66 517.25 L 66 518 L 65.25 518 L 65 518 L 65 521 L 66.890625 521 L 68.890625 523 L 66.25 523 C 65.419 523 64.75 523.669 64.75 524.5 C 64.75 525.331 65.419 526 66.25 526 L 72.5 526 C 73.331 526 74 525.331 74 524.5 L 74 518.25 C 74 517.419 73.331 516.75 72.5 516.75 z M 59 517 L 59 519.5 C 59 520.331 59.669 521 60.5 521 L 63 521 L 63 518 L 62.75 518 L 62 518 L 62 517.25 L 62 517 L 59 517 z "
         transform="translate(0,-244)"
         id="path4171" />
      <path
         id="path4169"
         d="m 272,-196 c -17.728,0 -32,14.272 -32,32 l 0,144 c 0,17.728 14.272,32 32,32 17.728,0 32,-14.272 32,-32 l 0,-67 48,48 0,51 64,0 0,-16 c 0,-8.864 7.136,-16 16,-16 l 16,0 0,-64 -51,0 -48,-48 67,0 c 17.728,0 32,-14.272 32,-32 0,-17.728 -14.272,-32 -32,-32 l -144,0 z m 240,0 c -17.728,0 -32,14.272 -32,32 0,17.728 14.272,32 32,32 l 67,0 -48,48 -51,0 0,64 16,0 c 8.864,0 16,7.136 16,16 l 0,16 64,0 0,-51 48,-48 0,67 c 0,17.728 14.272,32 32,32 17.728,0 32,-14.272 32,-32 l 0,-144 c 0,-17.728 -14.272,-32 -32,-32 l -144,0 z m -160,240 0,64 c 0,17.728 14.272,32 32,32 l 64,0 0,-64 -16,0 c -8.864,0 -16,-7.136 -16,-16 l 0,-16 -64,0 z m 160,0 0,16 c 0,8.864 -7.136,16 -16,16 l -16,0 0,64 51,0 48,48 -67,0 c -17.728,0 -32,14.272 -32,32 0,17.728 14.272,32 32,32 l 144,0 c 17.728,0 32,-14.272 32,-32 l 0,-144 c 0,-17.728 -14.272,-32 -32,-32 -17.728,0 -32,14.272 -32,32 l 0,67 -48,-48 0,-51 -64,0 z"
         style="color:#000000;display:inline;overflow:visible;visibility:visible;fill:#ffeb3b;fill-opacity:1;fill-rule:nonzero;stroke:none;stroke-width:2;marker:none;enable-background:new"
         inkscape:connector-curvature="0" />
      <path
         style="color:#000000;display:inline;overflow:visible;visibility:visible;fill:#ffffff;fill-opacity:1;fill-rule:nonzero;stroke:none;stroke-width:2;marker:none;enable-background:new;opacity:0.4"
         d="M 100 498 C 98.892 498 98 498.892 98 500 L 98 501 C 98 499.892 98.892 499 100 499 L 109 499 C 109.93417 499 110.70774 499.63701 110.92969 500.5 C 110.97099 500.33941 111 500.17383 111 500 C 111 498.892 110.108 498 109 498 L 100 498 z M 115 498 C 113.892 498 113 498.892 113 500 C 113 500.17383 113.02901 500.33941 113.07031 500.5 C 113.29226 499.63701 114.06583 499 115 499 L 124 499 C 125.108 499 126 499.892 126 501 L 126 500 C 126 498.892 125.108 498 124 498 L 115 498 z M 104.8125 503 L 107.8125 506 L 111 506 L 111 505 L 107.8125 505 L 105.8125 503 L 104.8125 503 z M 118.1875 503 L 116.1875 505 L 113 505 L 113 506 L 116.1875 506 L 119.1875 503 L 118.1875 503 z M 105 513 L 105 514 L 109 514 L 109 513 L 105 513 z M 109 514 L 109 515 C 109 515.554 109.446 516 110 516 L 111 516 L 111 515 L 110 515 C 109.446 515 109 514.554 109 514 z M 115 513 L 115 514 L 119 514 L 119 513 L 115 513 z M 115 514 C 115 514.554 114.554 515 114 515 L 113 515 L 113 516 L 114 516 C 114.554 516 115 515.554 115 515 L 115 514 z M 124 513 C 122.892 513 122 513.892 122 515 L 122 516 C 122 514.892 122.892 514 124 514 C 125.108 514 126 514.892 126 516 L 126 515 C 126 513.892 125.108 513 124 513 z M 119 516.1875 L 119 517.1875 L 122 520.1875 L 122 519.1875 L 119 516.1875 z M 115 522 C 113.892 522 113 522.892 113 524 C 113 524.17383 113.02901 524.33941 113.07031 524.5 C 113.29226 523.63701 114.06583 523 115 523 L 119.1875 523 L 118.1875 522 L 115 522 z "
         transform="translate(0,-244)"
         id="path4182" />
      <path
         style="color:#000000;display:inline;overflow:visible;visibility:visible;fill:#ffffff;fill-opacity:1;fill-rule:nonzero;stroke:none;stroke-width:2;marker:none;enable-background:new;opacity:0.4"
         d="M 150 483 C 148.338 483 147 484.338 147 486 L 147 487 C 147 485.338 148.338 484 150 484 L 163.5 484 C 164.99041 484 166.21116 485.07927 166.44922 486.5 C 166.47663 486.33643 166.5 486.17159 166.5 486 C 166.5 484.338 165.162 483 163.5 483 L 150 483 z M 172.5 483 C 170.838 483 169.5 484.338 169.5 486 C 169.5 486.17159 169.52337 486.33643 169.55078 486.5 C 169.78884 485.07927 171.00959 484 172.5 484 L 186 484 C 187.662 484 189 485.338 189 487 L 189 486 C 189 484.338 187.662 483 186 483 L 172.5 483 z M 157.21875 490 L 161.21875 494 L 166 494 L 166 493 L 161.21875 493 L 158.21875 490 L 157.21875 490 z M 177.78125 490 L 174.78125 493 L 170 493 L 170 494 L 174.78125 494 L 178.78125 490 L 177.78125 490 z M 173 501.19141 L 173 501.5 C 173.01442 501.39422 173.01328 501.29122 173 501.19141 z M 186 505.5 C 184.338 505.5 183 506.838 183 508.5 L 183 509.5 C 183 507.838 184.338 506.5 186 506.5 C 187.662 506.5 189 507.838 189 509.5 L 189 508.5 C 189 506.838 187.662 505.5 186 505.5 z M 157 506 L 157 507 L 163 507 L 163 506 L 157 506 z M 173 506 L 173 507 L 179 507 L 179 506 L 173 506 z M 163 507.5 L 163 508.5 C 163 509.331 163.669 510 164.5 510 L 166 510 L 166 509 L 164.5 509 C 163.669 509 163 508.331 163 507.5 z M 173 507.5 C 173 508.331 172.331 509 171.5 509 L 170 509 L 170 510 L 171.5 510 C 172.331 510 173 509.331 173 508.5 L 173 507.5 z M 179 510.78125 L 179 511.78125 L 183 515.78125 L 183 514.78125 L 179 510.78125 z M 172.5 519 C 170.838 519 169.5 520.338 169.5 522 C 169.5 522.17159 169.52337 522.33643 169.55078 522.5 C 169.78884 521.07927 171.00959 520 172.5 520 L 178.78125 520 L 177.78125 519 L 172.5 519 z "
         transform="translate(0,-244)"
         id="path4184" />
      <path
         style="color:#000000;display:inline;overflow:visible;visibility:visible;fill:#ffffff;fill-opacity:1;fill-rule:nonzero;stroke:none;stroke-width:2;marker:none;enable-background:new;opacity:0.4"
         d="M 55.5 506 C 54.669 506 54 506.669 54 507.5 L 54 508.5 C 54 507.669 54.669 507 55.5 507 L 61.75 507 C 62.40424 507 62.952197 507.41808 63.158203 508 C 63.213861 507.84278 63.25 507.67676 63.25 507.5 C 63.25 506.669 62.581 506 61.75 506 L 55.5 506 z M 66.25 506 C 65.419 506 64.75 506.669 64.75 507.5 C 64.75 507.67676 64.786139 507.84278 64.841797 508 C 65.047803 507.41808 65.59576 507 66.25 507 L 72.5 507 C 73.331 507 74 507.669 74 508.5 L 74 507.5 C 74 506.669 73.331 506 72.5 506 L 66.25 506 z M 59.109375 510 L 61.109375 512 L 63 512 L 63 511 L 61.109375 511 L 60.109375 510 L 59.109375 510 z M 67.890625 510 L 66.890625 511 L 65 511 L 65 512 L 66.890625 512 L 68.890625 510 L 67.890625 510 z M 57 513.75 L 57 514.32422 C 57.065971 514.14377 57.075257 513.94873 57 513.75 z M 72.5 516.75 C 71.669 516.75 71 517.419 71 518.25 L 71 519.25 C 71 518.419 71.669 517.75 72.5 517.75 C 73.331 517.75 74 518.419 74 519.25 L 74 518.25 C 74 517.419 73.331 516.75 72.5 516.75 z M 59 517 L 59 518 L 62 518 L 62 517.25 L 62 517 L 59 517 z M 62 518 L 62 518.25 L 62 519 L 62.75 519 L 63 519 L 63 518 L 62.75 518 L 62 518 z M 66 517 L 66 517.25 L 66 518 L 69 518 L 69 517 L 66 517 z M 66 518 L 65.25 518 L 65 518 L 65 519 L 65.25 519 L 66 519 L 66 518.25 L 66 518 z M 69 518.89062 L 69 519.89062 L 71 521.89062 L 71 520.89062 L 69 518.89062 z M 66.25 523 C 65.419 523 64.75 523.669 64.75 524.5 C 64.75 524.67676 64.786139 524.84278 64.841797 525 C 65.047803 524.41808 65.59576 524 66.25 524 L 68.890625 524 L 67.890625 523 L 66.25 523 z "
         transform="translate(0,-244)"
         id="path4186" />
      <path
         style="color:#000000;display:inline;overflow:visible;visibility:visible;fill:#ffffff;fill-opacity:1;fill-rule:nonzero;stroke:none;stroke-width:2;marker:none;enable-background:new;opacity:0.4"
         d="M 272 48 C 254.272 48 240 62.272 240 80 L 240 82 C 240 64.272 254.272 50 272 50 L 416 50 C 433.39271 50 447.44877 63.739335 447.97461 81 C 447.98475 80.66726 448 80.335286 448 80 C 448 62.272 433.728 48 416 48 L 272 48 z M 512 48 C 494.272 48 480 62.272 480 80 C 480 80.335286 480.01525 80.66726 480.02539 81 C 480.55123 63.739335 494.60729 50 512 50 L 656 50 C 673.728 50 688 64.272 688 82 L 688 80 C 688 62.272 673.728 48 656 48 L 512 48 z M 349 114 L 397 162 L 448 162 L 448 160 L 397 160 L 351 114 L 349 114 z M 577 114 L 531 160 L 480 160 L 480 162 L 531 162 L 579 114 L 577 114 z M 352 288 L 352 290 L 416 290 L 416 288 L 352 288 z M 512 288 L 512 290 L 576 290 L 576 288 L 512 288 z M 656 288 C 638.272 288 624 302.272 624 320 L 624 322 C 624 304.272 638.272 290 656 290 C 673.728 290 688 304.272 688 322 L 688 320 C 688 302.272 673.728 288 656 288 z M 416 304 L 416 306 C 416 314.864 423.136 322 432 322 L 448 322 L 448 320 L 432 320 C 423.136 320 416 312.864 416 304 z M 512 304 C 512 312.864 504.864 320 496 320 L 480 320 L 480 322 L 496 322 C 504.864 322 512 314.864 512 306 L 512 304 z M 576 339 L 576 341 L 624 389 L 624 387 L 576 339 z M 512 432 C 494.272 432 480 446.272 480 464 C 480 464.33529 480.01525 464.66726 480.02539 465 C 480.55123 447.73933 494.60729 434 512 434 L 579 434 L 577 432 L 512 432 z "
         transform="translate(0,-244)"
         id="path4211" />
    </g>
  </g>
</svg>
