<?xml version='1.0' encoding='UTF-8' standalone='no'?>
<svg height="16" xmlns:inkscape="http://www.inkscape.org/namespaces/inkscape" xmlns:sodipodi="http://sodipodi.sourceforge.net/DTD/sodipodi-0.dtd" version="1.1" width="16" xmlns="http://www.w3.org/2000/svg" enable-background="new">
 <metadata id="metadata90"/>
 <defs id="defs7386">
  <linearGradient id="linearGradient5606" osb:paint="solid">
   <stop id="stop5608"/>
  </linearGradient>
  <filter inkscape:collect="always" color-interpolation-filters="sRGB" id="filter7554">
   <feBlend inkscape:collect="always" id="feBlend7556" in2="BackgroundImage" mode="darken"/>
  </filter>
 </defs>
 <g inkscape:groupmode="layer" id="layer12" inkscape:label="actions" transform="translate(-320.99821,-47.999152)">
  <path inkscape:connector-curvature="0" d="m 324.0002,48 c -0.554,0 -1,0.446 -1,1 l 0,2 c 0,0.554 0.446,1 1,1 l 3,0 0,3 -2.34375,0 4.34375,6.28125 4.375,-6.28125 -2.375,0 0,-3 3,0 c 0.554,0 1,-0.446 1,-1 l 0,-2 c 0,-0.554 -0.446,-1 -1,-1 l -10,0 z m 0,1 10,0 0,2 -3,0 -4,0 -3,0 0,-2 z" id="path5981" fill="#bebebe"/>
  <path inkscape:connector-curvature="0" d="m 321.9932,62.03055 0,1.96856 14.005,0 -0.005,-1.96856 z" id="path5989" sodipodi:nodetypes="ccccc" fill="#bebebe"/>
 </g>
</svg>
