<?xml version="1.0" encoding="UTF-8" standalone="no"?>
<svg xmlns="http://www.w3.org/2000/svg" xmlns:sodipodi="http://sodipodi.sourceforge.net/DTD/sodipodi-0.dtd" xmlns:inkscape="http://www.inkscape.org/namespaces/inkscape" height="16" version="1.1" width="15.982" enable-background="new">
 <metadata id="metadata90"/>
 <defs id="defs7386">
  <linearGradient id="linearGradient5606" osb:paint="solid">
   <stop id="stop5608"/>
  </linearGradient>
  <filter inkscape:collect="always" color-interpolation-filters="sRGB" id="filter7554">
   <feBlend inkscape:collect="always" id="feBlend7556" in2="BackgroundImage" mode="darken"/>
  </filter>
 </defs>
 <g inkscape:groupmode="layer" id="layer12" inkscape:label="actions" transform="translate(-363.0004,-69.000021)">
  <path inkscape:connector-curvature="0" d="m 367.8752,71 c -0.25613,0.0339 -0.497,0.17155 -0.65625,0.375 l -4,5 c -0.28127,0.35137 -0.28127,0.89863 0,1.25 l 4,5 c 0.20539,0.2592 0.54566,0.40503 0.875,0.375 0.01,7.7e-4 0.0212,-5.1e-4 0.0312,0 0.0201,0.001 0.0421,0 0.0625,0 l 8.625,0 c 0.6627,0 1.1875,-0.54894 1.1875,-1.21875 l 0,-9.5625 C 378.00025,71.54899 377.4754,71 376.8127,71 l -8.625,0 c -0.0416,-0.003 -0.0834,-0.003 -0.125,0 -0.0623,-0.006 -0.12518,-0.006 -0.1875,0 z m 1.125,3 1,0 c 0.27614,0 0.53779,0.10029 0.71875,0.28125 l 1.28125,1.28125 1.28125,-1.28125 C 373.46241,74.10029 373.72437,74.01313 374.0002,74 l 1,0 0,1 c 0,0.27614 -0.12201,0.51841 -0.28125,0.71875 L 373.4377,77 l 1.28125,1.28125 c 0.18096,0.18096 0.19393,0.45678 0.28125,0.71875 l 0,1 -1,0 c -0.27549,0.019 -0.56909,-0.0737 -0.71875,-0.28125 l -1.28125,-1.28125 -1.28125,1.28125 C 370.53799,79.89971 370.27634,80 370.0002,80 l -1,0 0,-1 c 0,-0.27614 0.0856,-0.55379 0.28125,-0.71875 L 370.5627,77 369.28145,75.71875 C 369.10049,75.53779 368.92228,75.26492 369.0002,75 z" id="path7274" sodipodi:nodetypes="cccccccssscsccccsscsscsscssccscsscsscssc" fill="#bebebe" color="#bebebe"/>
 </g>
</svg>
