<?xml version='1.0' encoding='UTF-8' standalone='no'?>
<svg height="16" xmlns:inkscape="http://www.inkscape.org/namespaces/inkscape" xmlns:sodipodi="http://sodipodi.sourceforge.net/DTD/sodipodi-0.dtd" version="1.1" width="16" xmlns="http://www.w3.org/2000/svg" enable-background="new">
 <metadata id="metadata90"/>
 <defs id="defs7386">
  <linearGradient id="linearGradient5606" osb:paint="solid">
   <stop id="stop5608"/>
  </linearGradient>
  <filter inkscape:collect="always" color-interpolation-filters="sRGB" id="filter7554">
   <feBlend inkscape:collect="always" id="feBlend7556" in2="BackgroundImage" mode="darken"/>
  </filter>
 </defs>
 <g inkscape:groupmode="layer" id="layer12" inkscape:label="actions" transform="translate(-361.0002,-49)">
  <path inkscape:connector-curvature="0" d="m 370.51086,49.99716 c -3.02885,0 -5.53125,2.47458 -5.53125,5.5 0,1.14986 0.38921,2.20784 1,3.09375 l -3.6875,3.6875 a 1.0054782,1.0054782 0 1 0 1.40625,1.4375 l 3.6875,-3.6875 c 0.88729,0.61091 1.973,0.96875 3.125,0.96875 3.02886,0 5.5,-2.47459 5.5,-5.5 0,-3.02542 -2.47114,-5.5 -5.5,-5.5 z m 0,2 c 1.94736,0 3.5,1.55485 3.5,3.5 0,1.94514 -1.55264,3.5 -3.5,3.5 -1.94735,0 -3.5,-1.55486 -3.5,-3.5 0,-1.94515 1.55265,-3.5 3.5,-3.5 z" id="path27918-2" color="#000000" stroke-width="1.555" fill="#bebebe"/>
 </g>
</svg>
