<?xml version='1.0' encoding='UTF-8' standalone='no'?>
<svg height="16" xmlns:inkscape="http://www.inkscape.org/namespaces/inkscape" xmlns:sodipodi="http://sodipodi.sourceforge.net/DTD/sodipodi-0.dtd" version="1.1" width="16" xmlns="http://www.w3.org/2000/svg" enable-background="new">
 <metadata id="metadata90"/>
 <defs id="defs7386">
  <linearGradient id="linearGradient5606" osb:paint="solid">
   <stop id="stop5608"/>
  </linearGradient>
  <filter inkscape:collect="always" color-interpolation-filters="sRGB" id="filter7554">
   <feBlend inkscape:collect="always" id="feBlend7556" in2="BackgroundImage" mode="darken"/>
  </filter>
 </defs>
 <g inkscape:groupmode="layer" id="layer12" inkscape:label="actions" transform="translate(-501.00021,-109)">
  <path inkscape:connector-curvature="0" d="m 505.00021,112 0,2 4.15625,0 2,-2 c -0.0513,-0.003 -0.10426,0 -0.15625,0 l -6,0 z m 9,2.84375 -3.15625,3.15625 1.15625,0 0,2 -3.15625,0 -2,2 c 0.0528,0.003 0.10267,0 0.15625,0 l 6,0 c 0.9998,-2e-5 1,-1 1,-1 l 0,-6 c 0,-0.0532 0.003,-0.10368 0,-0.15625 z m -7,1.15625 c -0.91927,0 -1.73559,0.38396 -2.25,0.96875 -0.5144,0.58479 -0.75639,1.31063 -0.75,2.03125 3.6e-4,0.043 0.0291,0.0819 0.0312,0.125 l 3.12505,-3.125 -0.15625,0 z" id="path11643-3-2-96" color="#000000" stroke-width="2" fill="#bebebe"/>
  <path inkscape:connector-curvature="0" d="m 514.65646,109.9375 -12.71875,12.71875 1.40625,1.40625 12.71875,-12.71875 z" id="path2986-2-7" sodipodi:nodetypes="ccccc" fill="#bebebe" color="#000000"/>
 </g>
</svg>
