<?xml version='1.0' encoding='UTF-8' standalone='no'?>
<svg height="16" xmlns:inkscape="http://www.inkscape.org/namespaces/inkscape" xmlns:sodipodi="http://sodipodi.sourceforge.net/DTD/sodipodi-0.dtd" version="1.1" width="16" xmlns="http://www.w3.org/2000/svg" enable-background="new">
 <metadata id="metadata90"/>
 <defs id="defs7386">
  <linearGradient id="linearGradient5606" osb:paint="solid">
   <stop id="stop5608"/>
  </linearGradient>
  <filter inkscape:collect="always" color-interpolation-filters="sRGB" id="filter7554">
   <feBlend inkscape:collect="always" id="feBlend7556" in2="BackgroundImage" mode="darken"/>
  </filter>
 </defs>
 <g inkscape:groupmode="layer" id="layer12" inkscape:label="actions" transform="translate(-261.00021,-169)">
  <path inkscape:connector-curvature="0" d="m 266.0002,171 c -2.1987,0 -4,1.8013 -4,4 0,2.1987 1.8013,4 4,4 l 1.03125,0 c -0.71432,-0.53547 -1.27625,-1.26092 -1.625,-2.09375 -0.82012,-0.24868 -1.40625,-0.99194 -1.40625,-1.90625 0,-1.1253 0.8747,-2 2,-2 l 2,0 c 1.1253,0 2,0.8747 2,2 0,0.37181 -0.11277,0.70542 -0.28125,1 l 2.125,0 c 0.083,-0.31943 0.15625,-0.65568 0.15625,-1 0,-2.1987 -1.8013,-4 -4,-4 l -2,0 z m 4.96875,0 c 0.71432,0.53547 1.27625,1.26092 1.625,2.09375 0.82012,0.24868 1.40625,0.99194 1.40625,1.90625 0,1.1253 -0.8747,2 -2,2 l -2,0 c -1.1253,0 -2,-0.8747 -2,-2 0,-0.37181 0.11277,-0.70542 0.28125,-1 l -2.125,0 c -0.083,0.31943 -0.15625,0.65568 -0.15625,1 0,2.1987 1.8013,4 4,4 l 2,0 c 2.1987,0 4,-1.8013 4,-4 0,-2.1987 -1.8013,-4 -4,-4 l -1.03125,0 z" id="path8655" color="#000000" stroke-width="2" fill="#bebebe"/>
  <path inkscape:connector-curvature="0" d="m 266.0002,181.00002 3.00024,3.99995 2.99976,-3.99995 z" id="path7325-0" sodipodi:nodetypes="cccc" fill="#bebebe"/>
 </g>
</svg>
