<?xml version='1.0' encoding='UTF-8' standalone='no'?>
<svg height="16" xmlns:inkscape="http://www.inkscape.org/namespaces/inkscape" xmlns:sodipodi="http://sodipodi.sourceforge.net/DTD/sodipodi-0.dtd" version="1.1" width="16" xmlns="http://www.w3.org/2000/svg" enable-background="new">
 <metadata id="metadata90"/>
 <defs id="defs7386">
  <linearGradient id="linearGradient5606" osb:paint="solid">
   <stop id="stop5608"/>
  </linearGradient>
  <filter inkscape:collect="always" color-interpolation-filters="sRGB" id="filter7554">
   <feBlend inkscape:collect="always" id="feBlend7556" in2="BackgroundImage" mode="darken"/>
  </filter>
 </defs>
 <g inkscape:groupmode="layer" id="layer12" inkscape:label="actions" transform="translate(-341.0002,-169)">
  <path inkscape:connector-curvature="0" d="m 343.0002,171 c 0,0 -2,0 -2,2 l 0,6 c 0,2 2,2 2,2 l 1,0 2,0 2,0 4,0 c 1.108,0 1.94467,-0.89338 2,-2 l 0,-1 0,-1 3,-3 -3,0 0,-1 c 0,-2 -1.96875,-2 -1.96875,-2 z m 0,5 7,0 0,1 -7,0 z m 0,2 5,0 0,1 -5,0 z" id="path5960" sodipodi:nodetypes="cssccccscccccscccccccccccc" fill="#bebebe"/>
 </g>
</svg>
