<?xml version='1.0' encoding='UTF-8' standalone='no'?>
<svg height="16" xmlns:inkscape="http://www.inkscape.org/namespaces/inkscape" xmlns:sodipodi="http://sodipodi.sourceforge.net/DTD/sodipodi-0.dtd" version="1.1" width="16" xmlns="http://www.w3.org/2000/svg" enable-background="new">
 <metadata id="metadata90"/>
 <defs id="defs7386">
  <linearGradient id="linearGradient5606" osb:paint="solid">
   <stop id="stop5608"/>
  </linearGradient>
  <filter inkscape:collect="always" color-interpolation-filters="sRGB" id="filter7554">
   <feBlend inkscape:collect="always" id="feBlend7556" in2="BackgroundImage" mode="darken"/>
  </filter>
 </defs>
 <g inkscape:groupmode="layer" id="layer12" inkscape:label="actions" transform="translate(-380.00021,-129)">
  <path inkscape:connector-curvature="0" d="m 387.0002,130 0,2 2,0 0,-2 -2,0 z m 0,6 0,8 2,0 0,-8 -2,0 z" id="rect6016" fill="#bebebe" color="#bebebe" stroke-width="0.2"/>
  <path inkscape:connector-curvature="0" d="m 392.0002,130 0,9 2,0 0,-9 -2,0 z m 0,13 0,1 2,0 0,-1 -2,0 z" id="rect6018" fill="#bebebe" color="#bebebe" stroke-width="0.2"/>
  <path inkscape:connector-curvature="0" d="m 382.0002,130 0,7 2,0 0,-7 -2,0 z m 0,11 0,3 2,0 0,-3 -2,0 z" id="rect6020" fill="#bebebe" color="#bebebe" stroke-width="0.2"/>
  <rect height="2" id="rect6022" width="4" x="381" y="138" fill="#bebebe" color="#bebebe" stroke-width="0.2" rx="0.5"/>
  <rect height="2" id="rect6024" width="4" x="386" y="133" fill="#bebebe" color="#bebebe" stroke-width="0.2" rx="0.5"/>
  <rect height="2" id="rect6026" width="4" x="391" y="140" fill="#bebebe" color="#bebebe" stroke-width="0.2" rx="0.5"/>
 </g>
</svg>
