<?xml version='1.0' encoding='UTF-8' standalone='no'?>
<svg height="16" xmlns:inkscape="http://www.inkscape.org/namespaces/inkscape" xmlns:sodipodi="http://sodipodi.sourceforge.net/DTD/sodipodi-0.dtd" version="1.1" width="16" xmlns="http://www.w3.org/2000/svg" enable-background="new">
 <metadata id="metadata90"/>
 <defs id="defs7386">
  <linearGradient id="linearGradient5606" osb:paint="solid">
   <stop id="stop5608"/>
  </linearGradient>
  <filter inkscape:collect="always" color-interpolation-filters="sRGB" id="filter7554">
   <feBlend inkscape:collect="always" id="feBlend7556" in2="BackgroundImage" mode="darken"/>
  </filter>
 </defs>
 <g inkscape:groupmode="layer" id="layer12" inkscape:label="actions" transform="translate(-429.0002,-170)">
  <path inkscape:connector-curvature="0" d="m 437.0002,171 c 3.86599,0 7,3.13401 7,7 0,3.86599 -3.13401,7 -7,7 -2.76638,0 -5.14457,-1.60814 -6.28125,-3.9375 l 1.875,-0.78125 c 0.83392,1.59974 2.47736,2.71875 4.40625,2.71875 2.76142,0 5,-2.23858 5,-5 0,-2.76142 -2.23858,-5 -5,-5 -1.63862,0 -3.0664,0.80776 -3.96875,2.03125 L 435.0002,177 l -5,0 0,-5 1.59375,1.59375 C 432.87549,172.02108 434.80971,171 437.0002,171 z m 0,5.5 c 0.82843,0 1.5,0.67157 1.5,1.5 0,0.82843 -0.67157,1.5 -1.5,1.5 -0.82843,0 -1.5,-0.67157 -1.5,-1.5 0,-0.82843 0.67157,-1.5 1.5,-1.5 z" id="path5085" inkscape:transform-center-y="-5" fill="#bebebe" color="#bebebe"/>
 </g>
</svg>
