<?xml version='1.0' encoding='UTF-8' standalone='no'?>
<svg height="16" xmlns:inkscape="http://www.inkscape.org/namespaces/inkscape" xmlns:sodipodi="http://sodipodi.sourceforge.net/DTD/sodipodi-0.dtd" version="1.1" width="16" xmlns="http://www.w3.org/2000/svg" enable-background="new">
 <metadata id="metadata90"/>
 <defs id="defs7386">
  <linearGradient id="linearGradient5606" osb:paint="solid">
   <stop id="stop5608"/>
  </linearGradient>
  <filter inkscape:collect="always" color-interpolation-filters="sRGB" id="filter7554">
   <feBlend inkscape:collect="always" id="feBlend7556" in2="BackgroundImage" mode="darken"/>
  </filter>
 </defs>
 <g inkscape:groupmode="layer" id="layer12" inkscape:label="actions" transform="translate(-521.00019,-49)">
  <path inkscape:connector-curvature="0" d="m 532.3635,51.1543 -5.55859,3.51953 C 526.28947,54.26292 525.65994,53.99996 524.99827,54 c -1.57091,9e-5 -2.99805,1.42933 -2.99805,3 0,1.57067 1.42714,2.99991 2.99805,3 0.66167,4e-5 1.2912,-0.26292 1.80664,-0.67383 l 5.55859,3.51953 1.07031,-1.6914 -5.52343,-3.4961 c 0.0545,-0.21463 0.0898,-0.43406 0.0898,-0.6582 0,-0.22414 -0.0353,-0.44357 -0.0898,-0.6582 l 5.52344,-3.4961 -1.07031,-1.6914 z" id="path6545-7" fill="#bebebe" color="#000000"/>
  <path inkscape:connector-curvature="0" d="m 533.50022,55.5 -3.5,-5.5 6,0 z" id="path6549-4" sodipodi:nodetypes="cccc" fill="#bebebe" color="#000000"/>
  <path inkscape:connector-curvature="0" d="m 533.50022,58.5 -3.5,5.5 6,0 z" id="path6717" sodipodi:nodetypes="cccc" fill="#bebebe" color="#000000"/>
 </g>
</svg>
