<?xml version='1.0' encoding='UTF-8' standalone='no'?>
<svg height="16" xmlns:inkscape="http://www.inkscape.org/namespaces/inkscape" xmlns:sodipodi="http://sodipodi.sourceforge.net/DTD/sodipodi-0.dtd" version="1.1" width="15.982" xmlns="http://www.w3.org/2000/svg" enable-background="new">
 <metadata id="metadata90"/>
 <defs id="defs7386">
  <linearGradient id="linearGradient5606" osb:paint="solid">
   <stop id="stop5608"/>
  </linearGradient>
  <filter inkscape:collect="always" color-interpolation-filters="sRGB" id="filter7554">
   <feBlend inkscape:collect="always" id="feBlend7556" in2="BackgroundImage" mode="darken"/>
  </filter>
 </defs>
 <g inkscape:groupmode="layer" id="layer12" inkscape:label="actions" transform="translate(-381.00038,-69.000019)">
  <path inkscape:connector-curvature="0" d="m 384.1877,71 c -0.6627,0 -1.1875,0.54894 -1.1875,1.21875 l 0,9.5625 c 0,0.66976 0.5248,1.21875 1.1875,1.21875 l 9.625,0 c 0.6627,0 1.1875,-0.54894 1.1875,-1.21875 l 0,-9.5625 C 395.0002,71.54899 394.4754,71 393.8127,71 l -9.625,0 z m 0.8125,2 3,0 0,2 -1,0 0,1 -2,0 0,-3 z m 5,0 3,0 0,3 -2,0 0,-1 -1,0 0,-2 z m -5,5 2,0 0,1 1,0 0,2 -3,0 0,-3 z m 6,0 2,0 0,3 -3,0 0,-2 1,0 0,-1 z" id="path5311" fill="#bebebe" color="#bebebe"/>
 </g>
</svg>
