<?xml version="1.0" encoding="UTF-8" standalone="no"?>
<!-- Created with Inkscape (http://www.inkscape.org/) -->

<svg
   xmlns:dc="http://purl.org/dc/elements/1.1/"
   xmlns:cc="http://creativecommons.org/ns#"
   xmlns:rdf="http://www.w3.org/1999/02/22-rdf-syntax-ns#"
   xmlns:svg="http://www.w3.org/2000/svg"
   xmlns="http://www.w3.org/2000/svg"
   xmlns:sodipodi="http://sodipodi.sourceforge.net/DTD/sodipodi-0.dtd"
   xmlns:inkscape="http://www.inkscape.org/namespaces/inkscape"
   inkscape:export-ydpi="90.000000"
   inkscape:export-xdpi="90.000000"
   width="736"
   height="544"
   id="svg11300"
   sodipodi:version="0.32"
   inkscape:version="0.91 r"
   sodipodi:docname="audio-card.svg"
   inkscape:output_extension="org.inkscape.output.svg.inkscape"
   version="1.0"
   style="display:inline;enable-background:new"
   inkscape:export-filename="/home/sam/paper-template.png">
  <title
     id="title3004">Paper Icon Theme Template</title>
  <sodipodi:namedview
     stroke="#ef2929"
     fill="#f57900"
     id="base"
     pagecolor="#4a4a4a"
     bordercolor="#000000"
     borderopacity="0.25490196"
     inkscape:pageopacity="0"
     inkscape:pageshadow="2"
     inkscape:zoom="1"
     inkscape:cx="309.74748"
     inkscape:cy="133.13554"
     inkscape:current-layer="layer6"
     showgrid="false"
     inkscape:grid-bbox="true"
     inkscape:document-units="px"
     inkscape:showpageshadow="false"
     inkscape:window-width="1920"
     inkscape:window-height="1023"
     inkscape:window-x="0"
     inkscape:window-y="27"
     width="400px"
     height="300px"
     inkscape:snap-nodes="true"
     inkscape:snap-bbox="true"
     gridtolerance="10000"
     inkscape:object-nodes="true"
     inkscape:snap-grids="true"
     showguides="true"
     inkscape:guide-bbox="true"
     inkscape:window-maximized="1"
     inkscape:bbox-paths="true"
     inkscape:snap-bbox-midpoints="true"
     inkscape:snap-global="true"
     inkscape:object-paths="true"
     inkscape:snap-intersection-paths="true"
     inkscape:snap-smooth-nodes="true"
     showborder="false">
    <inkscape:grid
       spacingy="1px"
       spacingx="1px"
       id="grid5883"
       type="xygrid"
       enabled="true"
       visible="true"
       empspacing="4"
       snapvisiblegridlinesonly="true" />
    <inkscape:grid
       type="xygrid"
       id="grid11592"
       empspacing="2"
       visible="true"
       enabled="false"
       spacingx="0.5px"
       spacingy="0.5px"
       color="#ff0000"
       opacity="0.1254902"
       empcolor="#ff0000"
       empopacity="0.25098039"
       snapvisiblegridlinesonly="true" />
  </sodipodi:namedview>
  <defs
     id="defs3">
    <filter
       inkscape:collect="always"
       style="color-interpolation-filters:sRGB"
       id="filter4324"
       x="-0.024"
       width="1.048"
       y="-0.024"
       height="1.048">
      <feGaussianBlur
         inkscape:collect="always"
         stdDeviation="4.48"
         id="feGaussianBlur4326" />
    </filter>
  </defs>
  <metadata
     id="metadata4">
    <rdf:RDF>
      <cc:Work
         rdf:about="">
        <dc:format>image/svg+xml</dc:format>
        <dc:type
           rdf:resource="http://purl.org/dc/dcmitype/StillImage" />
        <dc:creator>
          <cc:Agent>
            <dc:title>Sam Hewitt</dc:title>
          </cc:Agent>
        </dc:creator>
        <dc:source />
        <cc:license
           rdf:resource="http://creativecommons.org/licenses/by-sa/3.0/" />
        <dc:title>Paper Icon Theme Template</dc:title>
        <dc:subject>
          <rdf:Bag />
        </dc:subject>
        <dc:date />
        <dc:rights>
          <cc:Agent>
            <dc:title />
          </cc:Agent>
        </dc:rights>
        <dc:publisher>
          <cc:Agent>
            <dc:title />
          </cc:Agent>
        </dc:publisher>
        <dc:identifier />
        <dc:relation />
        <dc:language />
        <dc:coverage />
        <dc:description />
        <dc:contributor>
          <cc:Agent>
            <dc:title />
          </cc:Agent>
        </dc:contributor>
      </cc:Work>
      <cc:Work
         rdf:about="">
        <dc:format>image/svg+xml</dc:format>
        <dc:type
           rdf:resource="http://purl.org/dc/dcmitype/StillImage" />
      </cc:Work>
      <cc:License
         rdf:about="http://creativecommons.org/licenses/by-sa/3.0/">
        <cc:permits
           rdf:resource="http://creativecommons.org/ns#Reproduction" />
        <cc:permits
           rdf:resource="http://creativecommons.org/ns#Distribution" />
        <cc:requires
           rdf:resource="http://creativecommons.org/ns#Notice" />
        <cc:requires
           rdf:resource="http://creativecommons.org/ns#Attribution" />
        <cc:permits
           rdf:resource="http://creativecommons.org/ns#DerivativeWorks" />
        <cc:requires
           rdf:resource="http://creativecommons.org/ns#ShareAlike" />
      </cc:License>
    </rdf:RDF>
  </metadata>
  <g
     style="display:inline"
     inkscape:groupmode="layer"
     inkscape:label="Icon"
     id="layer1"
     transform="translate(0,244)">
    <g
       style="display:none"
       inkscape:label="Baseplate"
       id="layer7"
       inkscape:groupmode="layer">
      <text
         y="337.74512"
         xml:space="preserve"
         x="15.006836"
         style="font-style:normal;font-variant:normal;font-weight:normal;font-stretch:normal;font-size:18px;font-family:'DejaVu Sans';-inkscape-font-specification:'DejaVu Sans';display:inline;fill:#000000;fill-opacity:1;stroke:none;enable-background:new"
         inkscape:label="context"
         id="context"><tspan
           style="font-style:normal;font-variant:normal;font-weight:normal;font-stretch:normal;font-family:'DejaVu Sans';-inkscape-font-specification:'DejaVu Sans'"
           y="337.74512"
           x="15.006836"
           sodipodi:role="line"
           id="tspan3933">devices</tspan></text>
      <text
         y="337.74512"
         xml:space="preserve"
         x="142.48828"
         style="font-style:normal;font-variant:normal;font-weight:bold;font-stretch:normal;font-size:18px;line-height:125%;font-family:'DejaVu Sans';-inkscape-font-specification:'DejaVu Sans Bold';text-align:start;writing-mode:lr-tb;text-anchor:start;display:inline;fill:#000000;fill-opacity:1;stroke:none;enable-background:new"
         sodipodi:linespacing="125%"
         inkscape:label="icon-name"
         id="icon-name"><tspan
           style="font-style:normal;font-variant:normal;font-weight:bold;font-stretch:normal;font-size:18px;font-family:'DejaVu Sans';-inkscape-font-specification:'DejaVu Sans Bold'"
           y="337.74512"
           x="142.48828"
           sodipodi:role="line"
           id="tspan3937">audio-card</tspan></text>
      <rect
         style="display:inline;overflow:visible;visibility:visible;fill:#d3d7cf;fill-opacity:1;fill-rule:nonzero;stroke:none;stroke-width:2;marker:none;enable-background:accumulate"
         id="rect16x16"
         width="16"
         height="16"
         x="-32"
         y="268"
         inkscape:label="16x16"
         transform="scale(-1,1)" />
      <rect
         style="display:inline;overflow:visible;visibility:visible;fill:#d3d7cf;fill-opacity:1;fill-rule:nonzero;stroke:none;stroke-width:2;marker:none;enable-background:accumulate"
         id="rect24x24"
         width="24"
         height="24"
         x="-76"
         y="260"
         inkscape:label="24x24"
         transform="scale(-1,1)" />
      <rect
         style="display:inline;overflow:visible;visibility:visible;fill:#d3d7cf;fill-opacity:1;fill-rule:nonzero;stroke:none;stroke-width:2;marker:none;enable-background:accumulate"
         id="rect32x32"
         width="32"
         height="32"
         x="-128"
         y="252"
         inkscape:label="32x32"
         transform="scale(-1,1)" />
      <rect
         inkscape:label="48x48"
         y="236"
         x="-192"
         height="48"
         width="48"
         id="rect48x48"
         style="display:inline;overflow:visible;visibility:visible;fill:#d3d7cf;fill-opacity:1;fill-rule:nonzero;stroke:none;stroke-width:2;marker:none;enable-background:accumulate"
         transform="scale(-1,1)" />
      <rect
         style="display:inline;overflow:visible;visibility:visible;fill:#d3d7cf;fill-opacity:1;fill-rule:nonzero;stroke:none;stroke-width:2;marker:none;enable-background:accumulate"
         id="rect3951"
         width="512"
         height="512"
         x="-720"
         y="-228"
         inkscape:label="48x48"
         transform="scale(-1,1)" />
    </g>
    <g
       inkscape:groupmode="layer"
       id="layer6"
       inkscape:label="Symbols"
       style="display:inline">
      <path
         style="display:inline;opacity:0.2;fill:#000000;fill-opacity:1;stroke:none;stroke-width:2;stroke-linecap:round;stroke-linejoin:round;stroke-miterlimit:4;stroke-dasharray:none;stroke-opacity:1;enable-background:new"
         d="m 56,263 c -1.108,0 -2,0.892 -2,2 l 0,14 c 0,1.108 0.892,2 2,2 l 0,2 16,0 0,-2 c 1.108,0 2,-0.892 2,-2 l 0,-14 c 0,-1.108 -0.892,-2 -2,-2 z"
         id="rect4418"
         inkscape:connector-curvature="0"
         sodipodi:nodetypes="sssccccssss" />
      <path
         style="display:inline;opacity:0.2;fill:#000000;fill-opacity:1;stroke:none;stroke-width:2;stroke-linecap:round;stroke-linejoin:round;stroke-miterlimit:4;stroke-dasharray:none;stroke-opacity:1;enable-background:new"
         d="m 100,255 c -1.108,0 -2,0.892 -2,2 l 0,21 c 0,1.108 0.892,2 2,2 l 1,0 0,3 22,0 0,-3 1,0 c 1.108,0 2,-0.892 2,-2 l 0,-21 c 0,-1.108 -0.892,-2 -2,-2 z"
         id="rect4413"
         inkscape:connector-curvature="0"
         sodipodi:nodetypes="ssssccccsssss" />
      <path
         inkscape:connector-curvature="0"
         id="path4338"
         d="m 264,-194 c -13.296,0 -24,10.704 -24,24 l 0,352 c 0,13.296 10.704,24 24,24 l 24,0 0,48 352,0 0,-48 24,0 c 13.296,0 24,-10.704 24,-24 l 0,-352 c 0,-13.296 -10.704,-24 -24,-24 z"
         style="display:inline;opacity:0.2;fill:#000000;fill-opacity:1;stroke:none;stroke-width:2;stroke-linecap:round;stroke-linejoin:round;stroke-miterlimit:4;stroke-dasharray:none;stroke-opacity:1;enable-background:new"
         sodipodi:nodetypes="ssssccccsssss" />
      <path
         inkscape:connector-curvature="0"
         id="path4328"
         d="m 264,-192 c -13.296,0 -24,10.704 -24,24 l 0,352 c 0,13.296 10.704,24 24,24 l 24,0 0,48 352,0 0,-48 24,0 c 13.296,0 24,-10.704 24,-24 l 0,-352 c 0,-13.296 -10.704,-24 -24,-24 z"
         style="display:inline;opacity:0.1;fill:#000000;fill-opacity:1;stroke:none;stroke-width:2;stroke-linecap:round;stroke-linejoin:round;stroke-miterlimit:4;stroke-dasharray:none;stroke-opacity:1;filter:url(#filter4324);enable-background:new"
         sodipodi:nodetypes="ssssccccsssss" />
      <path
         style="display:inline;opacity:0.2;fill:#000000;fill-opacity:1;stroke:none;stroke-width:2;stroke-linecap:round;stroke-linejoin:round;stroke-miterlimit:4;stroke-dasharray:none;stroke-opacity:1;filter:url(#filter4324);enable-background:new"
         d="m 264,-192 c -13.296,0 -24,10.704 -24,24 l 0,352 c 0,13.296 10.704,24 24,24 l 24,0 0,48 352,0 0,-48 24,0 c 13.296,0 24,-10.704 24,-24 l 0,-352 c 0,-13.296 -10.704,-24 -24,-24 z"
         id="rect4319"
         inkscape:connector-curvature="0"
         sodipodi:nodetypes="ssssccccsssss" />
      <path
         style="display:inline;opacity:0.2;fill:#000000;fill-opacity:1;stroke:none;stroke-width:2;stroke-linecap:round;stroke-linejoin:round;stroke-miterlimit:4;stroke-dasharray:none;stroke-opacity:1;enable-background:new"
         d="m 150,489 c -1.108,0 -2,0.892 -2,2 l 0,28 c 0,1.108 0.892,2 2,2 l 2,0 0,4 32,0 0,-4 2,0 c 1.108,0 2,-0.892 2,-2 l 0,-28 c 0,-1.108 -0.892,-2 -2,-2 z"
         id="rect4272"
         transform="translate(0,-244)"
         inkscape:connector-curvature="0"
         sodipodi:nodetypes="ssssccccsssss" />
      <rect
         style="display:inline;opacity:1;fill:#4bae4f;fill-opacity:1;stroke:none;stroke-width:2;stroke-linecap:round;stroke-linejoin:round;stroke-miterlimit:4;stroke-dasharray:none;stroke-opacity:1;enable-background:new"
         id="rect4193"
         width="40"
         height="36"
         x="148"
         y="240"
         ry="2" />
      <path
         style="display:inline;opacity:0.2;fill:#ffffff;fill-opacity:1;stroke:none;stroke-width:2;stroke-linecap:round;stroke-linejoin:round;stroke-miterlimit:4;stroke-dasharray:none;stroke-opacity:1;enable-background:new"
         d="m 150,240 c -1.108,0 -2,0.892 -2,2 l 0,1 c 0,-1.108 0.892,-2 2,-2 l 36,0 c 1.108,0 2,0.892 2,2 l 0,-1 c 0,-1.108 -0.892,-2 -2,-2 z"
         id="rect4261"
         inkscape:connector-curvature="0"
         sodipodi:nodetypes="sscsscsss" />
      <path
         inkscape:connector-curvature="0"
         id="path4278"
         d="m 150,276 c -1.108,0 -2,-0.892 -2,-2 l 0,-1 c 0,1.108 0.892,2 2,2 l 36,0 c 1.108,0 2,-0.892 2,-2 l 0,1 c 0,1.108 -0.892,2 -2,2 z"
         style="display:inline;opacity:0.2;fill:#000000;fill-opacity:1;stroke:none;stroke-width:2;stroke-linecap:round;stroke-linejoin:round;stroke-miterlimit:4;stroke-dasharray:none;stroke-opacity:1;enable-background:new"
         sodipodi:nodetypes="sscsscsss" />
      <rect
         style="display:inline;opacity:1;fill:#feea3a;fill-opacity:1;stroke:none;stroke-width:2;stroke-linecap:round;stroke-linejoin:round;stroke-miterlimit:4;stroke-dasharray:none;stroke-opacity:1;enable-background:new"
         id="rect4281"
         width="32"
         height="5"
         x="152"
         y="275"
         ry="0" />
      <rect
         ry="24"
         y="-196"
         x="240"
         height="400"
         width="448"
         id="rect4293"
         style="display:inline;opacity:1;fill:#4bae4f;fill-opacity:1;stroke:none;stroke-width:2;stroke-linecap:round;stroke-linejoin:round;stroke-miterlimit:4;stroke-dasharray:none;stroke-opacity:1;enable-background:new" />
      <path
         style="display:inline;opacity:0.2;fill:#ffffff;fill-opacity:1;stroke:none;stroke-width:2;stroke-linecap:round;stroke-linejoin:round;stroke-miterlimit:4;stroke-dasharray:none;stroke-opacity:1;enable-background:new"
         d="m 264,48 c -13.296,0 -24,10.704 -24,24 l 0,2 c 0,-13.296 10.704,-24 24,-24 l 400,0 c 13.296,0 24,10.704 24,24 l 0,-2 C 688,58.704 677.296,48 664,48 Z"
         transform="translate(0,-244)"
         id="rect4307"
         inkscape:connector-curvature="0"
         sodipodi:nodetypes="sscsscsss" />
      <path
         style="display:inline;opacity:0.2;fill:#000000;fill-opacity:1;stroke:none;stroke-width:2;stroke-linecap:round;stroke-linejoin:round;stroke-miterlimit:4;stroke-dasharray:none;stroke-opacity:1;enable-background:new"
         d="m 240,420 0,4 c 0,13.296 10.704,24 24,24 l 400,0 c 13.296,0 24,-10.704 24,-24 l 0,-4 c 0,13.296 -10.704,24 -24,24 l -400,0 c -13.296,0 -24,-10.704 -24,-24 z"
         transform="translate(0,-244)"
         id="rect4312"
         inkscape:connector-curvature="0"
         sodipodi:nodetypes="csssscssc" />
      <rect
         ry="0"
         y="200"
         x="288"
         height="52"
         width="352"
         id="rect4295"
         style="display:inline;opacity:1;fill:#feea3a;fill-opacity:1;stroke:none;stroke-width:2;stroke-linecap:round;stroke-linejoin:round;stroke-miterlimit:4;stroke-dasharray:none;stroke-opacity:1;enable-background:new" />
      <rect
         style="display:inline;opacity:0.2;fill:#000000;fill-opacity:1;stroke:none;stroke-width:2;stroke-linecap:round;stroke-linejoin:round;stroke-miterlimit:4;stroke-dasharray:none;stroke-opacity:1;enable-background:new"
         id="rect4317"
         width="352"
         height="4"
         x="288"
         y="248"
         ry="0" />
      <path
         style="display:inline;opacity:0.2;fill:#ffffff;fill-opacity:1;stroke:none;stroke-width:2;stroke-linecap:round;stroke-linejoin:round;stroke-miterlimit:4;stroke-dasharray:none;stroke-opacity:1;enable-background:new"
         d="m 288,444 0,2 352,0 0,-2 z"
         transform="translate(0,-244)"
         id="rect4333"
         inkscape:connector-curvature="0"
         sodipodi:nodetypes="ccccc" />
      <rect
         ry="2"
         y="262"
         x="54"
         height="18"
         width="20"
         id="rect4340"
         style="display:inline;opacity:1;fill:#4bae4f;fill-opacity:1;stroke:none;stroke-width:2;stroke-linecap:round;stroke-linejoin:round;stroke-miterlimit:4;stroke-dasharray:none;stroke-opacity:1;enable-background:new" />
      <rect
         ry="0"
         y="279"
         x="56"
         height="3"
         width="16"
         id="rect4342"
         style="display:inline;opacity:1;fill:#feea3a;fill-opacity:1;stroke:none;stroke-width:2;stroke-linecap:round;stroke-linejoin:round;stroke-miterlimit:4;stroke-dasharray:none;stroke-opacity:1;enable-background:new" />
      <rect
         style="display:inline;opacity:1;fill:#4bae4f;fill-opacity:1;stroke:none;stroke-width:2;stroke-linecap:round;stroke-linejoin:round;stroke-miterlimit:4;stroke-dasharray:none;stroke-opacity:1;enable-background:new"
         id="rect4353"
         width="28"
         height="25"
         x="98"
         y="254"
         ry="2" />
      <rect
         ry="1.5"
         y="268"
         x="16"
         height="14"
         width="16"
         id="rect4361"
         style="display:inline;opacity:1;fill:#4bae4f;fill-opacity:1;stroke:none;stroke-width:2;stroke-linecap:round;stroke-linejoin:round;stroke-miterlimit:4;stroke-dasharray:none;stroke-opacity:1;enable-background:new" />
      <path
         style="display:inline;opacity:0.2;fill:#000000;fill-opacity:1;stroke:none;stroke-width:2;stroke-linecap:round;stroke-linejoin:round;stroke-miterlimit:4;stroke-dasharray:none;stroke-opacity:1;enable-background:new"
         d="m 16,523.5 0,1 c 0,0.831 0.669,1.5 1.5,1.5 l 13,0 c 0.831,0 1.5,-0.669 1.5,-1.5 l 0,-1 c 0,0.831 -0.669,1.5 -1.5,1.5 l -13,0 c -0.831,0 -1.5,-0.669 -1.5,-1.5 z"
         transform="translate(0,-244)"
         id="rect4370"
         inkscape:connector-curvature="0"
         sodipodi:nodetypes="csssscssc" />
      <rect
         ry="0"
         y="281"
         x="18"
         height="3"
         width="12"
         id="rect4363"
         style="display:inline;opacity:1;fill:#feea3a;fill-opacity:1;stroke:none;stroke-width:2;stroke-linecap:round;stroke-linejoin:round;stroke-miterlimit:4;stroke-dasharray:none;stroke-opacity:1;enable-background:new" />
      <rect
         style="display:inline;opacity:0.2;fill:#000000;fill-opacity:1;stroke:none;stroke-width:2;stroke-linecap:round;stroke-linejoin:round;stroke-miterlimit:4;stroke-dasharray:none;stroke-opacity:1;enable-background:new"
         id="rect4375"
         width="12"
         height="1"
         x="18"
         y="283"
         ry="0" />
      <path
         style="display:inline;opacity:0.2;fill:#000000;fill-opacity:1;stroke:none;stroke-width:2;stroke-linecap:round;stroke-linejoin:round;stroke-miterlimit:4;stroke-dasharray:none;stroke-opacity:1;enable-background:new"
         d="m 54,521 0,1 c 0,1.108 0.892,2 2,2 l 16,0 c 1.108,0 2,-0.892 2,-2 l 0,-1 c 0,1.108 -0.892,2 -2,2 l -16,0 c -1.108,0 -2,-0.892 -2,-2 z"
         transform="translate(0,-244)"
         id="rect4383"
         inkscape:connector-curvature="0"
         sodipodi:nodetypes="csssscssc" />
      <rect
         style="display:inline;opacity:1;fill:#feea3a;fill-opacity:1;stroke:none;stroke-width:2;stroke-linecap:round;stroke-linejoin:round;stroke-miterlimit:4;stroke-dasharray:none;stroke-opacity:1;enable-background:new"
         id="rect4385"
         width="16"
         height="3"
         x="56"
         y="279"
         ry="0" />
      <path
         style="display:inline;opacity:0.2;fill:#000000;fill-opacity:1;stroke:none;stroke-width:2;stroke-linecap:round;stroke-linejoin:round;stroke-miterlimit:4;stroke-dasharray:none;stroke-opacity:1;enable-background:new"
         d="m 98,520 0,1 c 0,1.108 0.892,2 2,2 l 24,0 c 1.108,0 2,-0.892 2,-2 l 0,-1 c 0,1.108 -0.892,2 -2,2 l -24,0 c -1.108,0 -2,-0.892 -2,-2 z"
         transform="translate(0,-244)"
         id="rect4398"
         inkscape:connector-curvature="0"
         sodipodi:nodetypes="csssscssc" />
      <rect
         style="display:inline;opacity:1;fill:#feea3a;fill-opacity:1;stroke:none;stroke-width:2;stroke-linecap:round;stroke-linejoin:round;stroke-miterlimit:4;stroke-dasharray:none;stroke-opacity:1;enable-background:new"
         id="rect4355"
         width="22"
         height="4"
         x="101"
         y="278"
         ry="0" />
      <path
         style="display:inline;opacity:0.2;fill:#ffffff;fill-opacity:1;stroke:none;stroke-width:2;stroke-linecap:round;stroke-linejoin:round;stroke-miterlimit:4;stroke-dasharray:none;stroke-opacity:1;enable-background:new"
         d="m 56,506 c -1.108,0 -2,0.892 -2,2 l 0,1 c 0,-1.108 0.892,-2 2,-2 l 16,0 c 1.108,0 2,0.892 2,2 l 0,-1 c 0,-1.108 -0.892,-2 -2,-2 z"
         transform="translate(0,-244)"
         id="rect4403"
         inkscape:connector-curvature="0"
         sodipodi:nodetypes="sscsscsss" />
      <path
         style="display:inline;opacity:0.2;fill:#ffffff;fill-opacity:1;stroke:none;stroke-width:2;stroke-linecap:round;stroke-linejoin:round;stroke-miterlimit:4;stroke-dasharray:none;stroke-opacity:1;enable-background:new"
         d="m 100,498 c -1.108,0 -2,0.892 -2,2 l 0,1 c 0,-1.108 0.892,-2 2,-2 l 24,0 c 1.108,0 2,0.892 2,2 l 0,-1 c 0,-1.108 -0.892,-2 -2,-2 z"
         transform="translate(0,-244)"
         id="rect4405"
         inkscape:connector-curvature="0"
         sodipodi:nodetypes="sscsscsss" />
      <path
         style="color:#000000;display:inline;overflow:visible;visibility:visible;opacity:1;fill:#388e3c;fill-opacity:1;fill-rule:nonzero;stroke:none;stroke-width:2;marker:none;filter:url(#filter14069);enable-background:new"
         d="m 61.99996,266.00025 0,2 0,3.2812 c -0.29454,-0.1707 -0.63504,-0.2812 -1,-0.2812 -1.10457,0 -2,0.8954 -2,2 0,1.1045 0.89543,2 2,2 1.10457,0 2,-0.8955 2,-2 l 0,-4.0003 4,0 0,2.2815 c -0.29454,-0.1707 -0.63504,-0.2812 -1,-0.2812 -1.10457,0 -2,0.8954 -2,2 0,1.1045 0.89543,2 2,2 1.10457,0 1.84379,-0.9066 2,-2 l 0,-7 -1,0 -4,0 z"
         id="path3618"
         inkscape:connector-curvature="0"
         sodipodi:nodetypes="cccsssscccsssscccc" />
      <path
         inkscape:connector-curvature="0"
         id="path8695-9"
         d="m 109.34371,260.00025 -1.34375,0 0,2.6562 0,4.5313 c -0.31647,-0.1135 -0.64447,-0.1875 -1,-0.1875 -1.65685,0 -3,1.3431 -3,3 0,1.6568 1.34315,3 3,3 1.65685,0 3,-1.3432 3,-3 l 0,-7 6,0 0,4.1875 c -0.31647,-0.1135 -0.64447,-0.1875 -1,-0.1875 -1.65685,0 -3,1.3431 -3,3 0,1.6568 1.34315,3 3,3 1.65685,0 3,-1.3432 3,-3 l 0,-7.3438 0,-2.6562 z"
         style="display:inline;opacity:1;fill:#388e3c;fill-opacity:1;stroke:none;filter:url(#filter14069);enable-background:new"
         sodipodi:nodetypes="scccsssscccssssccs" />
      <path
         style="display:inline;opacity:1;fill:#388e3c;fill-opacity:1;stroke:none;filter:url(#filter14069);enable-background:new"
         d="m 163.9999,248.00025 -0.0192,0 c 0.0381,4.1874 -7.3e-4,7.375 0,11.5625 -1.84375,-1.1726 -4.53161,-0.415 -5.51722,1.5308 -1.14691,1.9742 -0.16651,4.7651 1.96024,5.5923 2.07745,0.9505 4.76137,-0.2976 5.37715,-2.4961 0.30759,-1.2006 0.13601,-2.4536 0.18418,-3.6809 0.005,-2.8362 0.01,-4.6724 0.0149,-7.5086 l 9,0 c -0.006,2.5208 -0.0128,4.0416 -0.0192,6.5625 -1.84375,-1.1726 -4.53161,-0.415 -5.51722,1.5308 -1.14691,1.9742 -0.16651,4.7651 1.96024,5.5923 2.24914,1.0177 5.42275,-0.5127 5.59251,-3.083 -0.0756,-2.33 -0.01,-4.6678 -0.0263,-7.001 0.003,-2.8672 0.0105,-5.7344 0.01,-8.6016 l -0.0193,0 -12.98072,0 z"
         id="path8695"
         inkscape:connector-curvature="0"
         sodipodi:nodetypes="scccccccccccccccss" />
      <path
         style="color:#000000;display:inline;overflow:visible;visibility:visible;opacity:1;fill:#388e3c;fill-opacity:1;fill-rule:nonzero;stroke:none;stroke-width:2;marker:none;filter:url(#filter14069);enable-background:new"
         d="m 21.99996,271.00015 0,2 0,3.0938 c -0.15432,-0.054 -0.32741,-0.094 -0.5,-0.094 -0.82843,0 -1.5,0.6715 -1.5,1.5 0,0.8284 0.67157,1.5 1.5,1.5 0.82843,0 1.5,-0.6716 1.5,-1.5 l 0,-4.5 3,0 0,3.0937 c -0.15432,-0.054 -0.32741,-0.094 -0.5,-0.094 -0.82843,0 -1.5,0.6716 -1.5,1.5 0,0.8285 0.67157,1.5 1.5,1.5 0.82843,0 1.5,-0.6715 1.5,-1.5 l 0,-6.5 -1,0 -3,0 -1,0 z"
         id="path6113-7"
         inkscape:connector-curvature="0"
         sodipodi:nodetypes="cccsssscccssssccccc" />
      <path
         sodipodi:nodetypes="scccsssscccssssccs"
         style="display:inline;opacity:1;fill:#388e3c;fill-opacity:1;stroke:none;filter:url(#filter14069);enable-background:new"
         d="m 437.5,-99.99993 -21.49999,0 0,42.499149 1e-5,70.500713 c -5.06352,-1.81598 -10.31146,-2.99991 -15.99994,-2.99991 -26.50966,0 -48.00003,21.489526 -48.00003,47.999925 0,26.50882 21.49037,48.000033 48.00003,48.000033 26.50956,0 47.99993,-21.491213 47.99993,-48.000033 L 448,-52 l 96.00005,0 10e-6,64.999943 c -5.06352,-1.81599 -10.31156,-2.999921 -16.00004,-2.999921 -26.50956,0 -47.99993,21.489526 -47.99993,47.999925 0,26.50882 21.49037,48.000033 47.99993,48.000033 26.50966,0 48.00003,-21.491213 48.00003,-48.000033 l -10e-6,-115.500728 0,-42.499149 z"
         id="path4400"
         inkscape:connector-curvature="0" />
    </g>
  </g>
</svg>
