<?xml version="1.0" encoding="UTF-8" standalone="no"?>
<!-- Created with Inkscape (http://www.inkscape.org/) -->

<svg
   xmlns:osb="http://www.openswatchbook.org/uri/2009/osb"
   xmlns:dc="http://purl.org/dc/elements/1.1/"
   xmlns:cc="http://creativecommons.org/ns#"
   xmlns:rdf="http://www.w3.org/1999/02/22-rdf-syntax-ns#"
   xmlns:svg="http://www.w3.org/2000/svg"
   xmlns="http://www.w3.org/2000/svg"
   xmlns:xlink="http://www.w3.org/1999/xlink"
   xmlns:sodipodi="http://sodipodi.sourceforge.net/DTD/sodipodi-0.dtd"
   xmlns:inkscape="http://www.inkscape.org/namespaces/inkscape"
   inkscape:export-ydpi="90.000000"
   inkscape:export-xdpi="90.000000"
   width="736"
   height="544"
   id="svg11300"
   sodipodi:version="0.32"
   inkscape:version="0.91 r13725"
   sodipodi:docname="computer.svg"
   inkscape:output_extension="org.inkscape.output.svg.inkscape"
   version="1.0"
   style="display:inline;enable-background:new"
   inkscape:export-filename="/home/sam/paper-template.png">
  <title
     id="title3004">Paper Icon Theme</title>
  <sodipodi:namedview
     stroke="#ef2929"
     fill="#f57900"
     id="base"
     pagecolor="#434343"
     bordercolor="#666666"
     borderopacity="0.25490196"
     inkscape:pageopacity="0"
     inkscape:pageshadow="2"
     inkscape:zoom="1"
     inkscape:cx="170.88585"
     inkscape:cy="32.808398"
     inkscape:current-layer="layer6"
     showgrid="false"
     inkscape:grid-bbox="true"
     inkscape:document-units="px"
     inkscape:showpageshadow="false"
     inkscape:window-width="1920"
     inkscape:window-height="1019"
     inkscape:window-x="0"
     inkscape:window-y="27"
     width="400px"
     height="300px"
     inkscape:snap-nodes="true"
     inkscape:snap-bbox="true"
     gridtolerance="10000"
     inkscape:object-nodes="true"
     inkscape:snap-grids="true"
     showguides="false"
     inkscape:guide-bbox="true"
     inkscape:window-maximized="1"
     inkscape:snap-global="true"
     inkscape:snap-bbox-midpoints="true">
    <inkscape:grid
       spacingy="1px"
       spacingx="1px"
       id="grid5883"
       type="xygrid"
       enabled="true"
       visible="true"
       empspacing="4"
       snapvisiblegridlinesonly="true" />
    <inkscape:grid
       type="xygrid"
       id="grid11592"
       empspacing="2"
       visible="true"
       enabled="false"
       spacingx="0.5px"
       spacingy="0.5px"
       color="#ff0000"
       opacity="0.1254902"
       empcolor="#ff0000"
       empopacity="0.25098039"
       snapvisiblegridlinesonly="true" />
  </sodipodi:namedview>
  <defs
     id="defs3">
    <linearGradient
       inkscape:collect="always"
       id="linearGradient5504">
      <stop
         style="stop-color:#000000;stop-opacity:1;"
         offset="0"
         id="stop5506" />
      <stop
         style="stop-color:#000000;stop-opacity:0;"
         offset="1"
         id="stop5508" />
    </linearGradient>
    <linearGradient
       osb:paint="solid"
       id="linearGradient5606">
      <stop
         style="stop-color:#000000;stop-opacity:1;"
         offset="0"
         id="stop5608" />
    </linearGradient>
    <linearGradient
       inkscape:collect="always"
       xlink:href="#linearGradient5504"
       id="linearGradient5510"
       x1="-180"
       y1="-472"
       x2="-228"
       y2="-472"
       gradientUnits="userSpaceOnUse" />
    <filter
       inkscape:collect="always"
       style="color-interpolation-filters:sRGB"
       id="filter5521"
       x="-0.022714286"
       width="1.0454286"
       y="-0.02544"
       height="1.05088">
      <feGaussianBlur
         inkscape:collect="always"
         stdDeviation="4.24"
         id="feGaussianBlur5523" />
    </filter>
    <filter
       inkscape:collect="always"
       style="color-interpolation-filters:sRGB"
       id="filter5602">
      <feGaussianBlur
         inkscape:collect="always"
         stdDeviation="2.4"
         id="feGaussianBlur5604" />
    </filter>
  </defs>
  <metadata
     id="metadata4">
    <rdf:RDF>
      <cc:Work
         rdf:about="">
        <dc:format>image/svg+xml</dc:format>
        <dc:type
           rdf:resource="http://purl.org/dc/dcmitype/StillImage" />
        <dc:creator>
          <cc:Agent>
            <dc:title>Sam Hewitt</dc:title>
          </cc:Agent>
        </dc:creator>
        <dc:source />
        <cc:license
           rdf:resource="http://creativecommons.org/licenses/by-sa/3.0/" />
        <dc:title>Paper Icon Theme</dc:title>
        <dc:subject>
          <rdf:Bag />
        </dc:subject>
        <dc:date />
        <dc:rights>
          <cc:Agent>
            <dc:title />
          </cc:Agent>
        </dc:rights>
        <dc:publisher>
          <cc:Agent>
            <dc:title />
          </cc:Agent>
        </dc:publisher>
        <dc:identifier />
        <dc:relation />
        <dc:language />
        <dc:coverage />
        <dc:description />
        <dc:contributor>
          <cc:Agent>
            <dc:title />
          </cc:Agent>
        </dc:contributor>
      </cc:Work>
      <cc:Work
         rdf:about="">
        <dc:format>image/svg+xml</dc:format>
        <dc:type
           rdf:resource="http://purl.org/dc/dcmitype/StillImage" />
      </cc:Work>
      <cc:License
         rdf:about="http://creativecommons.org/licenses/by-sa/3.0/">
        <cc:permits
           rdf:resource="http://creativecommons.org/ns#Reproduction" />
        <cc:permits
           rdf:resource="http://creativecommons.org/ns#Distribution" />
        <cc:requires
           rdf:resource="http://creativecommons.org/ns#Notice" />
        <cc:requires
           rdf:resource="http://creativecommons.org/ns#Attribution" />
        <cc:permits
           rdf:resource="http://creativecommons.org/ns#DerivativeWorks" />
        <cc:requires
           rdf:resource="http://creativecommons.org/ns#ShareAlike" />
      </cc:License>
    </rdf:RDF>
  </metadata>
  <g
     style="display:inline"
     inkscape:groupmode="layer"
     inkscape:label="Icon"
     id="layer1"
     transform="translate(0,244)">
    <g
       style="display:none"
       inkscape:label="Baseplate"
       id="layer7"
       inkscape:groupmode="layer">
      <rect
         style="display:inline;overflow:visible;visibility:visible;fill:#e9e9e9;fill-opacity:1;fill-rule:nonzero;stroke:none;stroke-width:2;marker:none;enable-background:accumulate"
         id="rect3951"
         width="512"
         height="512"
         x="-720"
         y="-228"
         inkscape:label="48x48"
         transform="scale(-1,1)" />
      <text
         y="332.48523"
         xml:space="preserve"
         x="15.006836"
         style="font-style:normal;font-variant:normal;font-weight:normal;font-stretch:normal;font-size:18px;font-family:'DejaVu Sans';-inkscape-font-specification:'DejaVu Sans';display:inline;fill:#000000;fill-opacity:1;stroke:none;enable-background:new"
         inkscape:label="context"
         id="context"><tspan
           style="font-style:normal;font-variant:normal;font-weight:normal;font-stretch:normal;font-family:'DejaVu Sans';-inkscape-font-specification:'DejaVu Sans'"
           y="332.48523"
           x="15.006836"
           sodipodi:role="line"
           id="tspan3933">devices</tspan></text>
      <text
         y="332.48523"
         xml:space="preserve"
         x="142.48828"
         style="font-style:normal;font-variant:normal;font-weight:bold;font-stretch:normal;font-size:18px;line-height:125%;font-family:'DejaVu Sans';-inkscape-font-specification:'DejaVu Sans Bold';text-align:start;writing-mode:lr-tb;text-anchor:start;display:inline;fill:#000000;fill-opacity:1;stroke:none;enable-background:new"
         sodipodi:linespacing="125%"
         inkscape:label="icon-name"
         id="icon-name"><tspan
           style="font-style:normal;font-variant:normal;font-weight:bold;font-stretch:normal;font-size:18px;font-family:'DejaVu Sans';-inkscape-font-specification:'DejaVu Sans Bold'"
           y="332.48523"
           x="142.48828"
           sodipodi:role="line"
           id="tspan3937">computer</tspan></text>
      <rect
         style="display:inline;overflow:visible;visibility:visible;fill:#e9e9e9;fill-opacity:1;fill-rule:nonzero;stroke:none;stroke-width:2;marker:none;enable-background:accumulate"
         id="rect16x16"
         width="16"
         height="16"
         x="-32"
         y="268"
         inkscape:label="16x16"
         transform="scale(-1,1)" />
      <rect
         style="display:inline;overflow:visible;visibility:visible;fill:#e9e9e9;fill-opacity:1;fill-rule:nonzero;stroke:none;stroke-width:2;marker:none;enable-background:accumulate"
         id="rect24x24"
         width="24"
         height="24"
         x="-76"
         y="260"
         inkscape:label="24x24"
         transform="scale(-1,1)" />
      <rect
         style="display:inline;overflow:visible;visibility:visible;fill:#e9e9e9;fill-opacity:1;fill-rule:nonzero;stroke:none;stroke-width:2;marker:none;enable-background:accumulate"
         id="rect32x32"
         width="32"
         height="32"
         x="-128"
         y="252"
         inkscape:label="32x32"
         transform="scale(-1,1)" />
      <rect
         inkscape:label="48x48"
         y="236"
         x="-192"
         height="48"
         width="48"
         id="rect48x48"
         style="display:inline;overflow:visible;visibility:visible;fill:#e9e9e9;fill-opacity:1;fill-rule:nonzero;stroke:none;stroke-width:2;marker:none;enable-background:accumulate"
         transform="scale(-1,1)" />
    </g>
    <g
       inkscape:groupmode="layer"
       id="layer6"
       inkscape:label="Symbols"
       style="display:inline">
      <path
         style="opacity:0.1;fill:#000000;fill-opacity:1;stroke:none;filter:url(#filter5521)"
         d="m 264,-144 c -13.296,0 -24,10.704 -24,24 l 0,304 c 0,13.296 10.704,24 24,24 l 104,0 0,40 c 0,4.432 3.568,8 8,8 l 176,0 c 4.432,0 8,-3.568 8,-8 l 0,-40 104,0 c 13.296,0 24,-10.704 24,-24 l 0,-304 c 0,-13.296 -10.704,-24 -24,-24 l -400,0 z"
         id="path5525"
         inkscape:connector-curvature="0" />
      <path
         inkscape:connector-curvature="0"
         id="path5519"
         d="m 264,-144 c -13.296,0 -24,10.704 -24,24 l 0,304 c 0,13.296 10.704,24 24,24 l 104,0 0,40 c 0,4.432 3.568,8 8,8 l 176,0 c 4.432,0 8,-3.568 8,-8 l 0,-40 104,0 c 13.296,0 24,-10.704 24,-24 l 0,-304 c 0,-13.296 -10.704,-24 -24,-24 l -400,0 z"
         style="opacity:0.2;fill:#000000;fill-opacity:1;stroke:none;filter:url(#filter5521)" />
      <path
         style="opacity:0.2;fill:#000000;fill-opacity:1;stroke:none"
         d="m 264,-146 c -13.296,0 -24,10.704 -24,24 l 0,304 c 0,13.296 10.704,24 24,24 l 104,0 0,40 c 0,4.432 3.568,8 8,8 l 176,0 c 4.432,0 8,-3.568 8,-8 l 0,-40 104,0 c 13.296,0 24,-10.704 24,-24 l 0,-304 c 0,-13.296 -10.704,-24 -24,-24 l -400,0 z"
         id="rect5512"
         inkscape:connector-curvature="0" />
      <rect
         ry="1"
         y="-118"
         x="-283"
         height="12"
         width="7"
         id="rect5500"
         style="opacity:0.2;fill:#000000;fill-opacity:1;stroke:none"
         transform="matrix(0,-1,-1,0,0,0)" />
      <rect
         transform="matrix(0,-1,-1,0,0,0)"
         style="fill:#b0bec5;fill-opacity:1;stroke:none"
         id="rect5498"
         width="7"
         height="12"
         x="-282"
         y="-118"
         ry="1" />
      <rect
         style="opacity:1;fill:#b0bec5;fill-opacity:1;stroke:none;stroke-width:2;stroke-miterlimit:4;stroke-dasharray:none;stroke-opacity:1"
         id="rect5490"
         width="8"
         height="3"
         x="20"
         y="281" />
      <rect
         transform="matrix(0,-1,-1,0,0,0)"
         style="fill:#b0bec5;fill-opacity:1;stroke:none"
         id="rect5480"
         width="104"
         height="192"
         x="-252"
         y="-560"
         ry="8" />
      <rect
         ry="1"
         rx="1"
         y="279"
         x="59"
         height="5"
         width="10"
         id="rect5470"
         style="opacity:0.2;fill:#000000;fill-opacity:1;stroke:none;stroke-width:2;stroke-miterlimit:4;stroke-dasharray:none;stroke-opacity:1" />
      <rect
         style="opacity:1;fill:#b0bec5;fill-opacity:1;stroke:none;stroke-width:2;stroke-miterlimit:4;stroke-dasharray:none;stroke-opacity:1"
         id="rect5468"
         width="10"
         height="5"
         x="59"
         y="278"
         rx="1"
         ry="1" />
      <rect
         ry="1.5"
         rx="1.5"
         y="269"
         x="160"
         height="9"
         width="16"
         id="rect5466"
         style="opacity:0.2;fill:#000000;fill-opacity:1;stroke:none;stroke-width:2;stroke-miterlimit:4;stroke-dasharray:none;stroke-opacity:1" />
      <rect
         style="opacity:1;fill:#b0bec5;fill-opacity:1;stroke:none;stroke-width:2;stroke-miterlimit:4;stroke-dasharray:none;stroke-opacity:1"
         id="rect5440"
         width="16"
         height="9"
         x="160"
         y="268"
         rx="1.5"
         ry="1.5" />
      <rect
         y="271"
         x="160"
         height="3"
         width="16"
         id="rect5476"
         style="opacity:0.05;fill:#000000;fill-opacity:1;stroke:none;stroke-width:2;stroke-miterlimit:4;stroke-dasharray:none;stroke-opacity:1" />
      <path
         inkscape:connector-curvature="0"
         id="path4487"
         d="m 150,273 c -1.108,0 -2,-0.892 -2,-2 l 0,-14 40,0 0,14 c 0,1.108 -0.892,2 -2,2 l -36,0 z"
         style="opacity:0.2;fill:#000000;fill-opacity:1;stroke:none" />
      <path
         sodipodi:nodetypes="ssssccs"
         inkscape:connector-curvature="0"
         style="opacity:0.2;fill:#000000;fill-opacity:1;stroke:none"
         d="m 54.000008,279.99999 c 0,0.554 0.446,1 1,1 l 18,0 c 0.554,0 1,-0.446 1,-1 l 0,-7 -20,0 z"
         id="path4489" />
      <path
         sodipodi:nodetypes="scscccs"
         inkscape:connector-curvature="0"
         style="opacity:0.2;fill:#000000;fill-opacity:1;stroke:none"
         d="m 98,278.5 c 0,1.50005 1.5,1.5 1.5,1.5 l 25,0 c 1.5,0 1.5,-1.5 1.5,-1.5 l 0,-9.5 -28,0 z"
         id="path4491" />
      <rect
         ry="8"
         y="-560"
         x="-252"
         height="192"
         width="104"
         id="rect5502"
         style="fill:url(#linearGradient5510);fill-opacity:1;stroke:none;opacity:0.2"
         transform="matrix(0,-1,-1,0,0,0)" />
      <rect
         ry="24"
         rx="24"
         y="-688"
         x="-204"
         height="448"
         width="352"
         id="rect4229"
         style="fill:#cfd8dc;fill-opacity:1;stroke:none"
         transform="matrix(0,-1,-1,0,0,0)" />
      <path
         style="opacity:0.2;fill:#ffffff;fill-opacity:1;stroke:none"
         d="m 264,-148 c -13.296,0 -24,10.704 -24,24 l 0,2 c 0,-13.296 10.704,-24 24,-24 l 400,0 c 13.296,0 24,10.704 24,24 l 0,-2 c 0,-13.296 -10.704,-24 -24,-24 z"
         id="rect4431"
         inkscape:connector-curvature="0"
         sodipodi:nodetypes="sscsscsss" />
      <rect
         transform="matrix(0,-1,-1,0,0,0)"
         style="fill:#cfd8dc;fill-opacity:1;stroke:none"
         id="rect4203"
         width="32"
         height="40"
         x="-272"
         y="-188"
         rx="2"
         ry="2" />
      <path
         style="opacity:0.1;fill:#ffffff;fill-opacity:1;stroke:none"
         d="m 150,240 c -1.108,0 -2,0.892 -2,2 l 0,1 c 0,-1.108 0.892,-2 2,-2 l 36,0 c 1.108,0 2,0.892 2,2 l 0,-1 c 0,-1.108 -0.892,-2 -2,-2 z"
         id="rect4135"
         inkscape:connector-curvature="0"
         sodipodi:nodetypes="sscsscsss" />
      <rect
         transform="matrix(0,-1,-1,0,0,0)"
         style="fill:#cfd8dc;fill-opacity:1;stroke:none"
         id="rect3095"
         width="15.999992"
         height="20"
         x="-280"
         y="-74.000008"
         rx="1"
         ry="1" />
      <rect
         transform="matrix(0,-1,-1,0,0,0)"
         style="fill:#cfd8dc;fill-opacity:1;stroke:none"
         id="rect4255"
         width="22"
         height="28"
         x="-279"
         y="-126"
         rx="1.5"
         ry="1.5" />
      <rect
         transform="matrix(0,-1,-1,0,0,0)"
         style="display:inline;fill:#cfd8dc;fill-opacity:1;stroke:none;enable-background:new"
         id="rect4265"
         width="14"
         height="16"
         x="-282"
         y="-32"
         rx="1"
         ry="1" />
      <path
         id="path3895"
         d="m 54,266 0,-1 c 0,-0.554 0.446,-1 1,-1 l 18,0 c 0.554,0 1,0.446 1,1 l 0,1 c 0,-0.554 -0.446,-1 -1,-1 l -18,0 c -0.554,0 -1,0.446 -1,1 z"
         style="opacity:0.1;fill:#ffffff;fill-opacity:1;stroke:none"
         inkscape:connector-curvature="0" />
      <path
         style="opacity:0.1;fill:#ffffff;fill-opacity:1;stroke:none"
         d="m 99.5,257 c -0.831,0 -1.5,0.669 -1.5,1.5 l 0,1 c 0,-0.831 0.669,-1.5 1.5,-1.5 l 25,0 c 0.831,0 1.5,0.669 1.5,1.5 l 0,-1 c 0,-0.831 -0.669,-1.5 -1.5,-1.5 l -25,0 z"
         id="rect4425"
         inkscape:connector-curvature="0" />
      <path
         style="display:inline;opacity:0.1;fill:#ffffff;fill-opacity:1;stroke:none;enable-background:new"
         d="m 17,268 c -0.554,0 -1,0.446 -1,1 l 0,1 c 0,-0.554 0.446,-1 1,-1 l 14,0 c 0.554,0 1,0.446 1,1 l 0,-1 c 0,-0.554 -0.446,-1 -1,-1 l -14,0 z"
         id="rect4444"
         inkscape:connector-curvature="0" />
      <rect
         y="-186"
         x="-266"
         height="36"
         width="24"
         id="rect5474"
         style="fill:#263238;fill-opacity:1;stroke:none;opacity:0.8"
         transform="matrix(0,-1,-1,0,0,0)" />
      <rect
         ry="4"
         y="-672"
         x="-126"
         height="416.00012"
         width="255.99998"
         id="rect5527"
         style="fill:#ffffff;fill-opacity:1;stroke:none;opacity:0.5"
         transform="matrix(0,-1,-1,0,0,0)" />
      <rect
         transform="matrix(0,-1,-1,0,0,0)"
         style="fill:#263238;fill-opacity:1;stroke:none;opacity:0.8"
         id="rect5478"
         width="255.99998"
         height="416.00012"
         x="-124"
         y="-672"
         ry="4" />
      <rect
         y="-31"
         x="-280"
         height="14"
         width="11"
         id="rect5492"
         style="display:inline;fill:#263238;fill-opacity:1;stroke:none;enable-background:new;opacity:0.8"
         transform="matrix(0,-1,-1,0,0,0)" />
      <rect
         y="-73"
         x="-277"
         height="18"
         width="12"
         id="rect5494"
         style="fill:#263238;fill-opacity:1;stroke:none;opacity:0.8"
         transform="matrix(0,-1,-1,0,0,0)" />
      <rect
         y="-125"
         x="-274"
         height="26"
         width="16"
         id="rect5496"
         style="fill:#263238;fill-opacity:1;stroke:none;opacity:0.8"
         transform="matrix(0,-1,-1,0,0,0)" />
      <path
         style="fill:none;fill-rule:evenodd;stroke:#000000;stroke-width:2;stroke-linecap:butt;stroke-linejoin:miter;stroke-miterlimit:4;stroke-dasharray:none;stroke-opacity:1;opacity:0.2;filter:url(#filter5602)"
         d="m 368,205 192,0"
         id="path5596"
         inkscape:connector-curvature="0"
         sodipodi:nodetypes="cc" />
    </g>
  </g>
</svg>
