<?xml version="1.0" encoding="UTF-8" standalone="no"?>
<!-- Created with Inkscape (http://www.inkscape.org/) -->

<svg
   xmlns:dc="http://purl.org/dc/elements/1.1/"
   xmlns:cc="http://creativecommons.org/ns#"
   xmlns:rdf="http://www.w3.org/1999/02/22-rdf-syntax-ns#"
   xmlns:svg="http://www.w3.org/2000/svg"
   xmlns="http://www.w3.org/2000/svg"
   xmlns:sodipodi="http://sodipodi.sourceforge.net/DTD/sodipodi-0.dtd"
   xmlns:inkscape="http://www.inkscape.org/namespaces/inkscape"
   inkscape:export-ydpi="90.000000"
   inkscape:export-xdpi="90.000000"
   width="600"
   height="224"
   id="svg11300"
   sodipodi:version="0.32"
   inkscape:version="0.91 r13725"
   sodipodi:docname="computer.svg"
   inkscape:output_extension="org.inkscape.output.svg.inkscape"
   version="1.0"
   style="display:inline;enable-background:new"
   inkscape:export-filename="/home/sam/paper-template.png">
  <title
     id="title3004">Paper Icon Theme Template</title>
  <sodipodi:namedview
     stroke="#ef2929"
     fill="#f57900"
     id="base"
     pagecolor="#ffffff"
     bordercolor="#666666"
     borderopacity="0.25490196"
     inkscape:pageopacity="0"
     inkscape:pageshadow="2"
     inkscape:zoom="1"
     inkscape:cx="231.99994"
     inkscape:cy="46.999954"
     inkscape:current-layer="layer6"
     showgrid="false"
     inkscape:grid-bbox="true"
     inkscape:document-units="px"
     inkscape:showpageshadow="false"
     inkscape:window-width="1366"
     inkscape:window-height="711"
     inkscape:window-x="0"
     inkscape:window-y="27"
     width="400px"
     height="300px"
     inkscape:snap-nodes="true"
     inkscape:snap-bbox="true"
     gridtolerance="10000"
     inkscape:object-nodes="true"
     inkscape:snap-grids="true"
     showguides="true"
     inkscape:guide-bbox="true"
     inkscape:window-maximized="1"
     inkscape:bbox-nodes="true"
     inkscape:snap-bbox-edge-midpoints="true"
     inkscape:snap-bbox-midpoints="true"
     inkscape:object-paths="true"
     inkscape:snap-intersection-paths="true"
     inkscape:snap-smooth-nodes="true">
    <inkscape:grid
       spacingy="1px"
       spacingx="1px"
       id="grid5883"
       type="xygrid"
       enabled="true"
       visible="true"
       empspacing="4"
       snapvisiblegridlinesonly="true" />
    <inkscape:grid
       type="xygrid"
       id="grid11592"
       empspacing="2"
       visible="true"
       enabled="false"
       spacingx="0.5px"
       spacingy="0.5px"
       color="#ff0000"
       opacity="0.1254902"
       empcolor="#ff0000"
       empopacity="0.25098039"
       snapvisiblegridlinesonly="true" />
    <sodipodi:guide
       orientation="0,1"
       position="0,224"
       id="guide4275" />
  </sodipodi:namedview>
  <defs
     id="defs3">
    <filter
       inkscape:collect="always"
       id="filter3940">
      <feGaussianBlur
         inkscape:collect="always"
         stdDeviation="1.7999996"
         id="feGaussianBlur3942" />
    </filter>
    <filter
       inkscape:collect="always"
       style="color-interpolation-filters:sRGB"
       id="filter4432"
       x="-0.053571429"
       width="1.1071429"
       y="-0.068181818"
       height="1.1363636">
      <feGaussianBlur
         inkscape:collect="always"
         stdDeviation="0.625"
         id="feGaussianBlur4434" />
    </filter>
    <filter
       inkscape:collect="always"
       style="color-interpolation-filters:sRGB"
       id="filter4841"
       x="-0.070000267"
       width="1.1400005"
       y="-0.05249985"
       height="1.1049997">
      <feGaussianBlur
         inkscape:collect="always"
         stdDeviation="2.8000107"
         id="feGaussianBlur4843" />
    </filter>
    <filter
       inkscape:collect="always"
       style="color-interpolation-filters:sRGB"
       id="filter4845"
       x="-0.070000267"
       width="1.1400005"
       y="-0.05249985"
       height="1.1049997">
      <feGaussianBlur
         inkscape:collect="always"
         stdDeviation="0.70000267"
         id="feGaussianBlur4847" />
    </filter>
    <filter
       inkscape:collect="always"
       style="color-interpolation-filters:sRGB"
       id="filter4241"
       x="-0.021599995"
       width="1.0432"
       y="-0.027000007"
       height="1.054">
      <feGaussianBlur
         inkscape:collect="always"
         stdDeviation="1.4399997"
         id="feGaussianBlur4243" />
    </filter>
    <filter
       inkscape:collect="always"
       style="color-interpolation-filters:sRGB"
       id="filter4245"
       x="-0.032399993"
       width="1.0648"
       y="-0.040500011"
       height="1.081">
      <feGaussianBlur
         inkscape:collect="always"
         stdDeviation="0.53999989"
         id="feGaussianBlur4247" />
    </filter>
    <filter
       inkscape:collect="always"
       style="color-interpolation-filters:sRGB"
       id="filter4249"
       x="-0.04200016"
       width="1.0840003"
       y="-0.03149991"
       height="1.0629998">
      <feGaussianBlur
         inkscape:collect="always"
         stdDeviation="0.4200016"
         id="feGaussianBlur4251" />
    </filter>
    <filter
       inkscape:collect="always"
       style="color-interpolation-filters:sRGB"
       id="filter4269"
       x="-0.021428612"
       width="1.0428572"
       y="-0.027272662"
       height="1.0545453">
      <feGaussianBlur
         inkscape:collect="always"
         stdDeviation="0.49999985"
         id="feGaussianBlur4271" />
    </filter>
  </defs>
  <metadata
     id="metadata4">
    <rdf:RDF>
      <cc:Work
         rdf:about="">
        <dc:format>image/svg+xml</dc:format>
        <dc:type
           rdf:resource="http://purl.org/dc/dcmitype/StillImage" />
        <dc:creator>
          <cc:Agent>
            <dc:title>Sam Hewitt</dc:title>
          </cc:Agent>
        </dc:creator>
        <dc:source />
        <cc:license
           rdf:resource="" />
        <dc:title>Paper Icon Theme Template</dc:title>
        <dc:subject>
          <rdf:Bag />
        </dc:subject>
        <dc:date />
        <dc:rights>
          <cc:Agent>
            <dc:title />
          </cc:Agent>
        </dc:rights>
        <dc:publisher>
          <cc:Agent>
            <dc:title />
          </cc:Agent>
        </dc:publisher>
        <dc:identifier />
        <dc:relation />
        <dc:language />
        <dc:coverage />
        <dc:description />
        <dc:contributor>
          <cc:Agent>
            <dc:title />
          </cc:Agent>
        </dc:contributor>
      </cc:Work>
      <cc:Work
         rdf:about="">
        <dc:format>image/svg+xml</dc:format>
        <dc:type
           rdf:resource="http://purl.org/dc/dcmitype/StillImage" />
      </cc:Work>
    </rdf:RDF>
  </metadata>
  <g
     style="display:inline"
     inkscape:groupmode="layer"
     inkscape:label="Icon"
     id="layer1"
     transform="translate(0,-76)">
    <g
       style="display:none"
       inkscape:label="Baseplate"
       id="layer7"
       inkscape:groupmode="layer">
      <text
         y="59.745117"
         xml:space="preserve"
         x="15.006836"
         style="font-style:normal;font-variant:normal;font-weight:normal;font-stretch:normal;font-size:18px;font-family:'DejaVu Sans';-inkscape-font-specification:'DejaVu Sans';display:inline;fill:#000000;fill-opacity:1;stroke:none;enable-background:new"
         inkscape:label="context"
         id="context"><tspan
           style="font-style:normal;font-variant:normal;font-weight:normal;font-stretch:normal;font-family:'DejaVu Sans';-inkscape-font-specification:'DejaVu Sans'"
           y="59.745117"
           x="15.006836"
           sodipodi:role="line"
           id="tspan3933">devices</tspan></text>
      <text
         y="59.745117"
         xml:space="preserve"
         x="142.48828"
         style="font-style:normal;font-variant:normal;font-weight:bold;font-stretch:normal;font-size:18px;line-height:125%;font-family:'DejaVu Sans';-inkscape-font-specification:'DejaVu Sans Bold';text-align:start;writing-mode:lr-tb;text-anchor:start;display:inline;fill:#000000;fill-opacity:1;stroke:none;enable-background:new"
         sodipodi:linespacing="125%"
         inkscape:label="icon-name"
         id="icon-name"><tspan
           style="font-style:normal;font-variant:normal;font-weight:bold;font-stretch:normal;font-size:18px;font-family:'DejaVu Sans';-inkscape-font-specification:'DejaVu Sans Bold'"
           y="59.745117"
           x="142.48828"
           sodipodi:role="line"
           id="tspan3937">computer</tspan></text>
      <rect
         style="display:inline;overflow:visible;visibility:visible;fill:#e9e9e9;fill-opacity:1;fill-rule:nonzero;stroke:none;stroke-width:2;marker:none;enable-background:accumulate"
         id="rect16x16"
         width="16"
         height="16"
         x="-32"
         y="268"
         inkscape:label="16x16"
         transform="scale(-1,1)" />
      <rect
         style="display:inline;overflow:visible;visibility:visible;fill:#e9e9e9;fill-opacity:1;fill-rule:nonzero;stroke:none;stroke-width:2;marker:none;enable-background:accumulate"
         id="rect24x24"
         width="24"
         height="24"
         x="-72"
         y="260"
         inkscape:label="24x24"
         transform="scale(-1,1)" />
      <rect
         style="display:inline;overflow:visible;visibility:visible;fill:#e9e9e9;fill-opacity:1;fill-rule:nonzero;stroke:none;stroke-width:2;marker:none;enable-background:accumulate"
         id="rect32x32"
         width="32"
         height="32"
         x="-120"
         y="252"
         inkscape:label="32x32"
         transform="scale(-1,1)" />
      <rect
         inkscape:label="48x48"
         y="236"
         x="-184"
         height="48"
         width="48"
         id="rect48x48"
         style="display:inline;overflow:visible;visibility:visible;fill:#e9e9e9;fill-opacity:1;fill-rule:nonzero;stroke:none;stroke-width:2;marker:none;enable-background:accumulate"
         transform="scale(-1,1)" />
      <rect
         style="display:inline;overflow:visible;visibility:visible;fill:#e9e9e9;fill-opacity:1;fill-rule:nonzero;stroke:none;stroke-width:2;marker:none;enable-background:accumulate"
         id="rect256x256"
         width="192"
         height="192"
         x="-584"
         y="92"
         inkscape:label="256x256"
         transform="scale(-1,1)" />
      <rect
         inkscape:label="256x256"
         y="188"
         x="-376"
         height="96"
         width="96"
         id="rect3949"
         style="display:inline;overflow:visible;visibility:visible;fill:#e9e9e9;fill-opacity:1;fill-rule:nonzero;stroke:none;stroke-width:2;marker:none;enable-background:accumulate"
         transform="scale(-1,1)" />
      <rect
         style="display:inline;overflow:visible;visibility:visible;fill:#e9e9e9;fill-opacity:1;fill-rule:nonzero;stroke:none;stroke-width:2;marker:none;enable-background:accumulate"
         id="rect3951"
         width="64"
         height="64"
         x="-264"
         y="220"
         inkscape:label="48x48"
         transform="scale(-1,1)" />
    </g>
    <g
       inkscape:groupmode="layer"
       id="layer6"
       inkscape:label="Symbols"
       style="display:inline">
      <rect
         transform="matrix(0,-1,-1,0,0,0)"
         style="fill:#7e7e7e;fill-opacity:1;stroke:none"
         id="rect4235"
         width="12"
         height="10"
         x="-284"
         y="-29"
         rx="0"
         ry="0" />
      <rect
         transform="matrix(0,-1,-1,0,0,-1)"
         style="opacity:0.5;fill:#000000;fill-opacity:1;stroke:none;stroke-opacity:1;filter:url(#filter4249)"
         id="rect4779"
         width="32.000214"
         height="24"
         x="-280"
         y="-172"
         rx="0"
         ry="0" />
      <rect
         ry="0"
         rx="0"
         y="-172"
         x="-278"
         height="24"
         width="32.000214"
         id="rect4777"
         style="fill:#7e7e7e;fill-opacity:1;stroke:none"
         transform="matrix(0,-1,-1,0,0,0)" />
      <rect
         transform="matrix(0,-1,-1,0,0,-8)"
         style="opacity:0.5;fill:#000000;fill-opacity:1;stroke:none;stroke-opacity:1;filter:url(#filter4841)"
         id="rect4835"
         width="128.00085"
         height="96"
         x="-269.00043"
         y="-536"
         rx="0"
         ry="0" />
      <rect
         ry="0"
         rx="0"
         y="-536"
         x="-259.00043"
         height="96"
         width="128.00085"
         id="rect4837"
         style="fill:#7e7e7e;fill-opacity:1;stroke:none"
         transform="matrix(0,-1,-1,0,0,0)" />
      <rect
         ry="0"
         rx="0"
         y="-172"
         x="-280.5"
         height="24"
         width="32.000214"
         id="rect4823"
         style="opacity:0.5;fill:#000000;fill-opacity:1;stroke:none;stroke-opacity:1;filter:url(#filter4845)"
         transform="matrix(0,-2,-2,0,8,-288)" />
      <rect
         transform="matrix(0,-1,-1,0,0,0)"
         style="fill:#7e7e7e;fill-opacity:1;stroke:none"
         id="rect4825"
         width="64.000427"
         height="48"
         x="-272"
         y="-352"
         rx="0"
         ry="0" />
      <rect
         ry="1"
         rx="1"
         y="-32"
         x="-284"
         height="16"
         width="14"
         id="rect4436"
         style="display:inline;fill:#000000;fill-opacity:1;stroke:none;enable-background:new;opacity:0.2"
         transform="matrix(0,-1,-1,0,0,0)" />
      <rect
         ry="1.5"
         rx="1.5"
         y="-118"
         x="-279"
         height="28"
         width="22"
         id="rect4430"
         style="opacity:0.5;fill:#000000;fill-opacity:1;stroke:none;filter:url(#filter4432)"
         transform="matrix(0,-1,-1,0,0,1)" />
      <rect
         transform="matrix(0,-1,-1,0,0,1)"
         style="opacity:0.5;fill:#000000;fill-opacity:1;stroke:none;filter:url(#filter4269)"
         id="rect4291"
         width="44.000092"
         height="55.999878"
         x="-274.00009"
         y="-259.99988"
         rx="3"
         ry="3" />
      <rect
         ry="8"
         rx="8"
         y="-568"
         x="-253.99994"
         height="160"
         width="127.99994"
         id="rect3944"
         style="fill:#000000;fill-opacity:1;stroke:none;opacity:0.5;filter:url(#filter4241)"
         transform="matrix(0,-1,-1,0,0,0)" />
      <rect
         transform="matrix(0,-1,-1,0,0,-1)"
         style="opacity:0.5;fill:#000000;fill-opacity:1;stroke:none;filter:url(#filter3940)"
         id="rect3938"
         width="63.999969"
         height="80"
         x="-269.99997"
         y="-368"
         rx="4"
         ry="4" />
      <rect
         transform="matrix(0,-1,-1,0,0,0)"
         style="fill:#7e7e7e;fill-opacity:1;stroke:none"
         id="rect3095"
         width="15.999992"
         height="20"
         x="-280"
         y="-70.000008"
         rx="1"
         ry="1" />
      <rect
         ry="0"
         rx="0"
         y="-68"
         x="-278"
         height="16"
         width="12.000002"
         id="rect3099"
         style="fill:#ffffff;fill-opacity:1;stroke:none;opacity:0.2"
         transform="matrix(0,-1,-1,0,0,0)" />
      <path
         id="path3101"
         d="m 50.000008,278.99999 c 0,0.554 0.446,1 1,1 l 18,0 c 0.554,0 1,-0.446 1,-1 l 0,-7 -20,0 z"
         style="opacity:0.05;fill:#ffffff;fill-opacity:1;stroke:none"
         inkscape:connector-curvature="0"
         sodipodi:nodetypes="ssssccs" />
      <rect
         transform="matrix(0,-1,-1,0,0,0)"
         style="fill:#7e7e7e;fill-opacity:1;stroke:none"
         id="rect3083"
         width="127.99994"
         height="160"
         x="-251.99994"
         y="-568"
         rx="8"
         ry="8" />
      <rect
         ry="0"
         rx="0"
         y="-556"
         x="-239.99994"
         height="136"
         width="104"
         id="rect3087"
         style="fill:#ffffff;fill-opacity:1;stroke:none;opacity:0.2"
         transform="matrix(0,-1,-1,0,0,0)" />
      <path
         id="path3089"
         d="m 408,243.99994 c 0,4.432 3.568,8 8,8 l 144,0 c 4.432,0 8,-3.568 8,-8 l 0,-56 -160,0 z"
         style="opacity:0.05;fill:#ffffff;fill-opacity:1;stroke:none"
         inkscape:connector-curvature="0"
         sodipodi:nodetypes="ssssccs" />
      <rect
         ry="4"
         rx="4"
         y="-368"
         x="-267.99997"
         height="80"
         width="63.999969"
         id="rect3071"
         style="fill:#7e7e7e;fill-opacity:1;stroke:none"
         transform="matrix(0,-1,-1,0,0,0)" />
      <rect
         transform="matrix(0,-1,-1,0,0,0)"
         style="fill:#ffffff;fill-opacity:1;stroke:none;opacity:0.2"
         id="rect3075"
         width="52"
         height="68"
         x="-261.99997"
         y="-362"
         rx="0"
         ry="0" />
      <path
         sodipodi:nodetypes="ssssccs"
         inkscape:connector-curvature="0"
         style="opacity:0.05;fill:#ffffff;fill-opacity:1;stroke:none"
         d="m 288,263.99997 c 0,2.216 1.784,4 4,4 l 72,0 c 2.216,0 4,-1.784 4,-4 l 0,-28 -80,0 z"
         id="path3077" />
      <rect
         ry="2"
         rx="2"
         y="-180"
         x="-276"
         height="40"
         width="31.999985"
         id="rect4077"
         style="opacity:0.5;fill:#000000;fill-opacity:1;stroke:none;filter:url(#filter4245)"
         transform="matrix(0,-1,-1,0,0,1.0000005)" />
      <rect
         ry="3"
         rx="3"
         y="-259.99988"
         x="-274.00009"
         height="55.999878"
         width="44.000092"
         id="rect4229"
         style="fill:#7e7e7e;fill-opacity:1;stroke:none"
         transform="matrix(0,-1,-1,0,0,0)" />
      <rect
         transform="matrix(0,-1,-1,0,0,0)"
         style="fill:#7e7e7e;fill-opacity:1;stroke:none"
         id="rect4255"
         width="22"
         height="28"
         x="-279"
         y="-118"
         rx="1.5"
         ry="1.5" />
      <rect
         transform="matrix(0,-1,-1,0,0,0)"
         style="display:inline;fill:#7e7e7e;fill-opacity:1;stroke:none;enable-background:new"
         id="rect4265"
         width="14"
         height="16"
         x="-283"
         y="-32"
         rx="1"
         ry="1" />
      <rect
         transform="matrix(0,-1,-1,0,0,0)"
         style="fill:#7e7e7e;fill-opacity:1;stroke:none"
         id="rect4203"
         width="31.999985"
         height="40"
         x="-276"
         y="-180"
         rx="2"
         ry="2" />
      <rect
         ry="0"
         rx="0"
         y="-177"
         x="-273"
         height="34"
         width="26"
         id="rect3282"
         style="fill:#ffffff;fill-opacity:1;stroke:none;opacity:0.2"
         transform="matrix(0,-1,-1,0,0,0)" />
      <path
         id="path4294"
         d="m 140,274 c 0,1.108 0.892,2 2,2 l 36,0 c 1.108,0 2,-0.892 2,-2 l 0,-14 -40,0 z"
         style="opacity:0.05;fill:#ffffff;fill-opacity:1;stroke:none"
         inkscape:connector-curvature="0"
         sodipodi:nodetypes="ssssccs" />
      <path
         id="path3895"
         d="m 50,266 0,-1 c 0,-0.554 0.446,-1 1,-1 l 18,0 c 0.554,0 1,0.446 1,1 l 0,1 c 0,-0.554 -0.446,-1 -1,-1 l -18,0 c -0.554,0 -1,0.446 -1,1 z"
         style="opacity:0.1;fill:#ffffff;fill-opacity:1;stroke:none"
         inkscape:connector-curvature="0" />
      <path
         id="path3897"
         d="m 50,279 0,1 c 0,0.554 0.446,1 1,1 l 18,0 c 0.554,0 1,-0.446 1,-1 l 0,-1 c 0,0.554 -0.446,1 -1,1 l -18,0 c -0.554,0 -1,-0.446 -1,-1 z"
         style="opacity:0.2;fill:#000000;fill-opacity:1;stroke:none"
         inkscape:connector-curvature="0" />
      <path
         id="path3953"
         d="m 408,133 0,-1 c 0,-4.432 3.568,-8 8,-8 l 144,0 c 4.432,0 8,3.568 8,8 l 0,1 c 0,-4.432 -3.568,-8 -8,-8 l -144,0 c -4.432,0 -8,3.568 -8,8 z"
         style="opacity:0.20000000000000001;fill:#ffffff;fill-opacity:1;stroke:none"
         inkscape:connector-curvature="0" />
      <rect
         transform="matrix(0,-1,-1,0,0,0)"
         style="fill:#ffffff;fill-opacity:1;stroke:none;opacity:0.2"
         id="rect4285"
         width="36"
         height="48"
         x="-270"
         y="-256"
         rx="0"
         ry="0" />
      <path
         sodipodi:nodetypes="scscccs"
         inkscape:connector-curvature="0"
         style="opacity:0.05;fill:#ffffff;fill-opacity:1;stroke:none"
         d="m 204,271 c 0,3.00009 3,3 3,3 l 50,0 c 3,0 3,-3 3,-3 l 0,-19 -56,0 z"
         id="path4287" />
      <path
         style="fill:#ffffff;fill-opacity:1;stroke:none;opacity:0.1"
         d="M 207 154 C 205.338 154 204 155.338 204 157 L 204 158 C 204 156.338 205.338 155 207 155 L 257 155 C 258.662 155 260 156.338 260 158 L 260 157 C 260 155.338 258.662 154 257 154 L 207 154 z "
         transform="translate(0,76)"
         id="rect4297" />
      <path
         style="fill:#ffffff;fill-opacity:1;stroke:none;opacity:0.1"
         d="M 292 128 C 289.784 128 288 129.784 288 132 L 288 133 C 288 130.784 289.784 129 292 129 L 364 129 C 366.216 129 368 130.784 368 133 L 368 132 C 368 129.784 366.216 128 364 128 L 292 128 z "
         transform="translate(0,76)"
         id="rect4304" />
      <path
         style="fill:#ffffff;fill-opacity:1;stroke:none;opacity:0.1"
         d="M 142 168 C 140.892 168 140 168.892 140 170 L 140 171 C 140 169.892 140.892 169 142 169 L 178 169 C 179.108 169 180 169.892 180 171 L 180 170 C 180 168.892 179.108 168 178 168 L 142 168 z "
         transform="translate(0,76)"
         id="rect4414" />
      <rect
         ry="0"
         rx="0"
         y="-116"
         x="-277"
         height="24"
         width="18"
         id="rect4419"
         style="fill:#ffffff;fill-opacity:1;stroke:none;opacity:0.2"
         transform="matrix(0,-1,-1,0,0,0)" />
      <path
         id="path4421"
         d="m 90,277.5 c 0,1.50005 1.5,1.5 1.5,1.5 l 25,0 c 1.5,0 1.5,-1.5 1.5,-1.5 l 0,-9.5 -28,0 z"
         style="opacity:0.05;fill:#ffffff;fill-opacity:1;stroke:none"
         inkscape:connector-curvature="0"
         sodipodi:nodetypes="scscccs" />
      <path
         style="fill:#ffffff;fill-opacity:1;stroke:none;opacity:0.1"
         d="M 91.5 181 C 90.669 181 90 181.669 90 182.5 L 90 183.5 C 90 182.669 90.669 182 91.5 182 L 116.5 182 C 117.331 182 118 182.669 118 183.5 L 118 182.5 C 118 181.669 117.331 181 116.5 181 L 91.5 181 z "
         id="rect4425"
         transform="translate(0,76)" />
      <rect
         transform="matrix(0,-1,-1,0,0,0)"
         style="fill:#ffffff;fill-opacity:1;stroke:none;opacity:0.2"
         id="rect4438"
         width="10"
         height="12"
         x="-281"
         y="-30"
         rx="0"
         ry="0" />
      <path
         sodipodi:nodetypes="ssssccs"
         inkscape:connector-curvature="0"
         style="opacity:0.05;fill:#ffffff;fill-opacity:1;stroke:none"
         d="m 16,282 c 0,0.554 0.446,1 1,1 l 14,0 c 0.554,0 0.82481,-0.47443 1,-1 l 0,-6 -16,0 z"
         id="path4440" />
      <path
         style="display:inline;fill:#ffffff;fill-opacity:1;stroke:none;enable-background:new;opacity:0.1"
         d="M 17 193 C 16.446 193 16 193.446 16 194 L 16 195 C 16 194.446 16.446 194 17 194 L 31 194 C 31.554 194 32 194.446 32 195 L 32 194 C 32 193.446 31.554 193 31 193 L 17 193 z "
         transform="translate(0,76)"
         id="rect4444" />
    </g>
  </g>
</svg>
