<?xml version="1.0" encoding="UTF-8" standalone="no"?>
<!-- Created with Inkscape (http://www.inkscape.org/) -->

<svg
   xmlns:osb="http://www.openswatchbook.org/uri/2009/osb"
   xmlns:dc="http://purl.org/dc/elements/1.1/"
   xmlns:cc="http://creativecommons.org/ns#"
   xmlns:rdf="http://www.w3.org/1999/02/22-rdf-syntax-ns#"
   xmlns:svg="http://www.w3.org/2000/svg"
   xmlns="http://www.w3.org/2000/svg"
   xmlns:sodipodi="http://sodipodi.sourceforge.net/DTD/sodipodi-0.dtd"
   xmlns:inkscape="http://www.inkscape.org/namespaces/inkscape"
   inkscape:export-ydpi="90.000000"
   inkscape:export-xdpi="90.000000"
   width="600"
   height="224"
   id="svg11300"
   sodipodi:version="0.32"
   inkscape:version="0.91 r"
   sodipodi:docname="drive-optical.svg"
   inkscape:output_extension="org.inkscape.output.svg.inkscape"
   version="1.0"
   style="display:inline;enable-background:new"
   inkscape:export-filename="/home/sam/paper-template.png">
  <title
     id="title3004">Paper Icon Theme Template</title>
  <sodipodi:namedview
     stroke="#ef2929"
     fill="#f57900"
     id="base"
     pagecolor="#efefef"
     bordercolor="#666666"
     borderopacity="0.25490196"
     inkscape:pageopacity="0"
     inkscape:pageshadow="2"
     inkscape:zoom="1"
     inkscape:cx="60.845686"
     inkscape:cy="29.199888"
     inkscape:current-layer="layer6"
     showgrid="false"
     inkscape:grid-bbox="true"
     inkscape:document-units="px"
     inkscape:showpageshadow="false"
     inkscape:window-width="1366"
     inkscape:window-height="710"
     inkscape:window-x="0"
     inkscape:window-y="28"
     width="400px"
     height="300px"
     inkscape:snap-nodes="true"
     inkscape:snap-bbox="true"
     gridtolerance="10000"
     inkscape:object-nodes="true"
     inkscape:snap-grids="true"
     showguides="true"
     inkscape:guide-bbox="true"
     inkscape:window-maximized="1"
     inkscape:bbox-nodes="true"
     inkscape:snap-bbox-edge-midpoints="true">
    <inkscape:grid
       spacingy="1px"
       spacingx="1px"
       id="grid5883"
       type="xygrid"
       enabled="true"
       visible="true"
       empspacing="4"
       snapvisiblegridlinesonly="true" />
    <inkscape:grid
       type="xygrid"
       id="grid11592"
       empspacing="2"
       visible="true"
       enabled="false"
       spacingx="0.5px"
       spacingy="0.5px"
       color="#ff0000"
       opacity="0.1254902"
       empcolor="#ff0000"
       empopacity="0.25098039"
       snapvisiblegridlinesonly="true" />
    <sodipodi:guide
       orientation="0,1"
       position="0,224"
       id="guide4275" />
  </sodipodi:namedview>
  <defs
     id="defs3">
    <filter
       inkscape:collect="always"
       style="color-interpolation-filters:sRGB"
       id="filter4221"
       x="-0.040500034"
       width="1.0810001"
       y="-0.032399978"
       height="1.0648">
      <feGaussianBlur
         inkscape:collect="always"
         stdDeviation="0.54000046"
         id="feGaussianBlur4223" />
    </filter>
    <filter
       inkscape:collect="always"
       style="color-interpolation-filters:sRGB"
       id="filter4235"
       x="-0.027"
       width="1.054"
       y="-0.0216"
       height="1.0432">
      <feGaussianBlur
         inkscape:collect="always"
         stdDeviation="0.72"
         id="feGaussianBlur4237" />
    </filter>
    <filter
       inkscape:collect="always"
       style="color-interpolation-filters:sRGB"
       id="filter4249"
       x="-0.027272744"
       width="1.0545455"
       y="-0.021428561"
       height="1.0428571">
      <feGaussianBlur
         inkscape:collect="always"
         stdDeviation="0.25000015"
         id="feGaussianBlur4251" />
    </filter>
    <filter
       inkscape:collect="always"
       style="color-interpolation-filters:sRGB"
       id="filter4287"
       x="-0.027272727"
       width="1.0545455"
       y="-0.021428571"
       height="1.0428571">
      <feGaussianBlur
         inkscape:collect="always"
         stdDeviation="0.5"
         id="feGaussianBlur4289" />
    </filter>
    <filter
       inkscape:collect="always"
       style="color-interpolation-filters:sRGB"
       id="filter4314"
       x="-0.027"
       width="1.054"
       y="-0.0216"
       height="1.0432">
      <feGaussianBlur
         inkscape:collect="always"
         stdDeviation="1.44"
         id="feGaussianBlur4316" />
    </filter>
    <linearGradient
       osb:paint="solid"
       id="linearGradient5606">
      <stop
         style="stop-color:#000000;stop-opacity:1;"
         offset="0"
         id="stop5608" />
    </linearGradient>
  </defs>
  <metadata
     id="metadata4">
    <rdf:RDF>
      <cc:Work
         rdf:about="">
        <dc:format>image/svg+xml</dc:format>
        <dc:type
           rdf:resource="http://purl.org/dc/dcmitype/StillImage" />
        <dc:creator>
          <cc:Agent>
            <dc:title>Sam Hewitt</dc:title>
          </cc:Agent>
        </dc:creator>
        <dc:source />
        <cc:license
           rdf:resource="http://creativecommons.org/licenses/by-nc-sa/3.0/" />
        <dc:title>Paper Icon Theme Template</dc:title>
        <dc:subject>
          <rdf:Bag />
        </dc:subject>
        <dc:date />
        <dc:rights>
          <cc:Agent>
            <dc:title />
          </cc:Agent>
        </dc:rights>
        <dc:publisher>
          <cc:Agent>
            <dc:title />
          </cc:Agent>
        </dc:publisher>
        <dc:identifier />
        <dc:relation />
        <dc:language />
        <dc:coverage />
        <dc:description />
        <dc:contributor>
          <cc:Agent>
            <dc:title />
          </cc:Agent>
        </dc:contributor>
      </cc:Work>
      <cc:Work
         rdf:about="">
        <dc:format>image/svg+xml</dc:format>
        <dc:type
           rdf:resource="http://purl.org/dc/dcmitype/StillImage" />
      </cc:Work>
      <cc:License
         rdf:about="http://creativecommons.org/licenses/by-nc-sa/3.0/">
        <cc:permits
           rdf:resource="http://creativecommons.org/ns#Reproduction" />
        <cc:permits
           rdf:resource="http://creativecommons.org/ns#Distribution" />
        <cc:requires
           rdf:resource="http://creativecommons.org/ns#Notice" />
        <cc:requires
           rdf:resource="http://creativecommons.org/ns#Attribution" />
        <cc:prohibits
           rdf:resource="http://creativecommons.org/ns#CommercialUse" />
        <cc:permits
           rdf:resource="http://creativecommons.org/ns#DerivativeWorks" />
        <cc:requires
           rdf:resource="http://creativecommons.org/ns#ShareAlike" />
      </cc:License>
    </rdf:RDF>
  </metadata>
  <g
     style="display:inline"
     inkscape:groupmode="layer"
     inkscape:label="Icon"
     id="layer1"
     transform="translate(0,-76)">
    <g
       style="display:none"
       inkscape:label="Baseplate"
       id="layer7"
       inkscape:groupmode="layer">
      <text
         y="59.745117"
         xml:space="preserve"
         x="15.006836"
         style="font-style:normal;font-variant:normal;font-weight:normal;font-stretch:normal;font-size:18px;font-family:'DejaVu Sans';-inkscape-font-specification:'DejaVu Sans';display:inline;fill:#000000;fill-opacity:1;stroke:none;enable-background:new"
         inkscape:label="context"
         id="context"><tspan
           style="font-style:normal;font-variant:normal;font-weight:normal;font-stretch:normal;font-family:'DejaVu Sans';-inkscape-font-specification:'DejaVu Sans'"
           y="59.745117"
           x="15.006836"
           sodipodi:role="line"
           id="tspan3933">devices</tspan></text>
      <text
         y="59.745117"
         xml:space="preserve"
         x="142.48828"
         style="font-style:normal;font-variant:normal;font-weight:bold;font-stretch:normal;font-size:18px;line-height:125%;font-family:'DejaVu Sans';-inkscape-font-specification:'DejaVu Sans Bold';text-align:start;writing-mode:lr-tb;text-anchor:start;display:inline;fill:#000000;fill-opacity:1;stroke:none;enable-background:new"
         sodipodi:linespacing="125%"
         inkscape:label="icon-name"
         id="icon-name"><tspan
           style="font-style:normal;font-variant:normal;font-weight:bold;font-stretch:normal;font-size:18px;font-family:'DejaVu Sans';-inkscape-font-specification:'DejaVu Sans Bold'"
           y="59.745117"
           x="142.48828"
           sodipodi:role="line"
           id="tspan3937">drive-optical</tspan></text>
      <rect
         style="display:inline;overflow:visible;visibility:visible;fill:#e9e9e9;fill-opacity:1;fill-rule:nonzero;stroke:none;stroke-width:2;marker:none;enable-background:accumulate"
         id="rect16x16"
         width="16"
         height="16"
         x="-32"
         y="268"
         inkscape:label="16x16"
         transform="scale(-1,1)" />
      <rect
         style="display:inline;overflow:visible;visibility:visible;fill:#e9e9e9;fill-opacity:1;fill-rule:nonzero;stroke:none;stroke-width:2;marker:none;enable-background:accumulate"
         id="rect24x24"
         width="24"
         height="24"
         x="-72"
         y="260"
         inkscape:label="24x24"
         transform="scale(-1,1)" />
      <rect
         style="display:inline;overflow:visible;visibility:visible;fill:#e9e9e9;fill-opacity:1;fill-rule:nonzero;stroke:none;stroke-width:2;marker:none;enable-background:accumulate"
         id="rect32x32"
         width="32"
         height="32"
         x="-120"
         y="252"
         inkscape:label="32x32"
         transform="scale(-1,1)" />
      <rect
         inkscape:label="48x48"
         y="236"
         x="-184"
         height="48"
         width="48"
         id="rect48x48"
         style="display:inline;overflow:visible;visibility:visible;fill:#e9e9e9;fill-opacity:1;fill-rule:nonzero;stroke:none;stroke-width:2;marker:none;enable-background:accumulate"
         transform="scale(-1,1)" />
      <rect
         style="display:inline;overflow:visible;visibility:visible;fill:#e9e9e9;fill-opacity:1;fill-rule:nonzero;stroke:none;stroke-width:2;marker:none;enable-background:accumulate"
         id="rect256x256"
         width="192"
         height="192"
         x="-584"
         y="92"
         inkscape:label="256x256"
         transform="scale(-1,1)" />
      <rect
         inkscape:label="256x256"
         y="188"
         x="-376"
         height="96"
         width="96"
         id="rect3949"
         style="display:inline;overflow:visible;visibility:visible;fill:#e9e9e9;fill-opacity:1;fill-rule:nonzero;stroke:none;stroke-width:2;marker:none;enable-background:accumulate"
         transform="scale(-1,1)" />
      <rect
         style="display:inline;overflow:visible;visibility:visible;fill:#e9e9e9;fill-opacity:1;fill-rule:nonzero;stroke:none;stroke-width:2;marker:none;enable-background:accumulate"
         id="rect3951"
         width="64"
         height="64"
         x="-264"
         y="220"
         inkscape:label="48x48"
         transform="scale(-1,1)" />
    </g>
    <g
       inkscape:groupmode="layer"
       id="layer6"
       inkscape:label="Symbols"
       style="display:inline">
      <rect
         transform="matrix(0,1,-1,0,0,0)"
         style="fill:#000000;fill-opacity:1;stroke:none;opacity:0.2"
         id="rect4326"
         width="80"
         height="64"
         x="197"
         y="-360"
         rx="4"
         ry="4" />
      <rect
         ry="3"
         rx="3"
         y="-254"
         x="-281"
         height="44"
         width="56"
         id="rect4324"
         style="fill:#000000;fill-opacity:1;stroke:none;opacity:0.2;"
         transform="matrix(0,-1,-1,0,0,0)" />
      <rect
         ry="1.5"
         rx="1.5"
         y="-68"
         x="-283"
         height="16"
         width="20"
         id="rect4322"
         style="fill:#000000;fill-opacity:1;stroke:#000000;opacity:0.05;stroke-opacity:1;stroke-width:2;stroke-miterlimit:4;stroke-dasharray:none"
         transform="matrix(0,-1,-1,0,0,0)" />
      <rect
         transform="matrix(0,-1,-1,0,0,0)"
         style="fill:#000000;fill-opacity:1;stroke:none;opacity:0.5"
         id="rect4320"
         width="20"
         height="16"
         x="-283"
         y="-68"
         rx="1.5"
         ry="1.5" />
      <rect
         transform="matrix(0,-1,-1,0,0,0)"
         style="fill:#000000;fill-opacity:1;stroke:none;opacity:0.5;filter:url(#filter4314)"
         id="rect4300"
         width="160"
         height="128"
         x="-269"
         y="-552"
         rx="8"
         ry="8" />
      <rect
         transform="matrix(0,-1,-1,0,0,0)"
         style="fill:#000000;fill-opacity:1;stroke:none;opacity:0.5;filter:url(#filter4287)"
         id="rect4269"
         width="56"
         height="44"
         x="-281"
         y="-254"
         rx="3"
         ry="3" />
      <rect
         ry="2"
         rx="2"
         y="-115"
         x="-283"
         height="22"
         width="28.000031"
         id="rect4247"
         style="fill:#000000;fill-opacity:1;stroke:none;opacity:0.5;filter:url(#filter4249)"
         transform="matrix(0,-1,-1,0,0,0)" />
      <rect
         ry="4"
         rx="4"
         y="-360"
         x="197"
         height="64"
         width="80"
         id="rect4225"
         style="fill:#000000;fill-opacity:1;stroke:none;opacity:0.5;filter:url(#filter4235)"
         transform="matrix(0,1,-1,0,0,0)" />
      <rect
         ry="2"
         rx="2"
         y="-176"
         x="-281"
         height="32"
         width="40.000061"
         id="rect4211"
         style="fill:#000000;fill-opacity:1;stroke:none;opacity:0.5;filter:url(#filter4221)"
         transform="matrix(0,-1,-1,0,0,0)" />
      <rect
         transform="matrix(0,-1,-1,0,0,0)"
         style="fill:#858a89;fill-opacity:1;stroke:none"
         id="rect4203"
         width="40.000061"
         height="32"
         x="-280"
         y="-176"
         rx="2"
         ry="2" />
      <rect
         transform="matrix(0,-1,-1,0,0,0)"
         style="fill:#858a89;fill-opacity:1;stroke:none"
         id="rect4217"
         width="80"
         height="64"
         x="-276"
         y="-360"
         rx="4"
         ry="4" />
      <rect
         ry="3"
         rx="3"
         y="-254"
         x="-280"
         height="44"
         width="56"
         id="rect4229"
         style="fill:#858a89;fill-opacity:1;stroke:none"
         transform="matrix(0,-1,-1,0,0,0)" />
      <rect
         ry="1.5"
         rx="1.5"
         y="-68"
         x="-282"
         height="16"
         width="20"
         id="rect4243"
         style="fill:#858a89;fill-opacity:1;stroke:none"
         transform="matrix(0,-1,-1,0,0,0)" />
      <rect
         transform="matrix(0,-1,-1,0,0,0)"
         style="fill:#858a89;fill-opacity:1;stroke:none"
         id="rect4255"
         width="28.000031"
         height="22"
         x="-282"
         y="-115"
         rx="2"
         ry="2" />
      <rect
         transform="matrix(0,-1,-1,0,0,0)"
         style="display:inline;fill:#858a89;fill-opacity:1;stroke:none;enable-background:new"
         id="rect4265"
         width="16"
         height="14"
         x="-284"
         y="-31"
         rx="1"
         ry="1" />
      <g
         transform="matrix(1.4285714,0,0,1.4285714,-401.42885,443.14285)"
         style="display:inline;opacity:0.2;fill:#000000;fill-opacity:1"
         inkscape:label="devices"
         id="g4449">
        <path
           style="color:#bebebe;font-style:normal;font-variant:normal;font-weight:normal;font-stretch:normal;font-size:medium;line-height:normal;font-family:Sans;-inkscape-font-specification:Sans;text-indent:0;text-align:start;text-decoration:none;text-decoration-line:none;letter-spacing:normal;word-spacing:normal;text-transform:none;direction:ltr;block-progression:tb;writing-mode:lr-tb;baseline-shift:baseline;text-anchor:start;display:inline;overflow:visible;visibility:visible;fill:#000000;fill-opacity:1;stroke:none;stroke-width:5.61250019;marker:none;enable-background:accumulate"
           d="M 160 170 C 154.51099 170 150 174.511 150 180 C 150 185.489 154.51099 190 160 190 C 165.489 190 170 185.489 170 180 C 170 174.511 165.489 170 160 170 z M 160 177 A 3 3 0 0 1 163 180 A 3 3 0 0 1 160 183 A 3 3 0 0 1 157 180 A 3 3 0 0 1 160 177 z "
           transform="matrix(0.70000001,0,0,0.70000001,281.0002,-257)"
           id="path4451" />
      </g>
      <g
         id="g4456"
         inkscape:label="devices"
         style="display:inline;opacity:0.2;fill:#000000;fill-opacity:1"
         transform="matrix(2.8571428,0,0,2.8571428,-794.8577,602.2857)">
        <path
           id="path4458"
           transform="matrix(0.70000001,0,0,0.70000001,281.0002,-257)"
           d="m 160,170 c -5.48901,0 -10,4.511 -10,10 0,5.489 4.51099,10 10,10 5.489,0 10,-4.511 10,-10 0,-5.489 -4.511,-10 -10,-10 z m 0,7 a 3,3 0 0 1 3,3 3,3 0 0 1 -3,3 3,3 0 0 1 -3,-3 3,3 0 0 1 3,-3 z"
           style="color:#bebebe;font-style:normal;font-variant:normal;font-weight:normal;font-stretch:normal;font-size:medium;line-height:normal;font-family:Sans;-inkscape-font-specification:Sans;text-indent:0;text-align:start;text-decoration:none;text-decoration-line:none;letter-spacing:normal;word-spacing:normal;text-transform:none;direction:ltr;block-progression:tb;writing-mode:lr-tb;baseline-shift:baseline;text-anchor:start;display:inline;overflow:visible;visibility:visible;fill:#000000;fill-opacity:1;stroke:none;stroke-width:5.61250019;marker:none;enable-background:accumulate"
           inkscape:connector-curvature="0" />
      </g>
      <g
         transform="matrix(0.71428571,0,0,0.71428571,-220.71443,363.57143)"
         style="display:inline;opacity:0.2;fill:#000000;fill-opacity:1"
         inkscape:label="devices"
         id="g4480">
        <path
           style="color:#bebebe;font-style:normal;font-variant:normal;font-weight:normal;font-stretch:normal;font-size:medium;line-height:normal;font-family:Sans;-inkscape-font-specification:Sans;text-indent:0;text-align:start;text-decoration:none;text-decoration-line:none;letter-spacing:normal;word-spacing:normal;text-transform:none;direction:ltr;block-progression:tb;writing-mode:lr-tb;baseline-shift:baseline;text-anchor:start;display:inline;overflow:visible;visibility:visible;fill:#000000;fill-opacity:1;stroke:none;stroke-width:5.61250019;marker:none;enable-background:accumulate"
           d="M 60 189 C 57.255493 189 55 191.2555 55 194 C 55 196.7445 57.255493 199 60 199 C 62.7445 199 65 196.7445 65 194 C 65 191.2555 62.7445 189 60 189 z M 60 192.5 C 60.822505 192.5 61.5 193.1775 61.5 194 C 61.5 194.8225 60.822505 195.5 60 195.5 C 59.177495 195.5 58.5 194.8225 58.5 194 C 58.5 193.1775 59.177495 192.5 60 192.5 z "
           transform="matrix(1.4,0,0,1.4,309.0002,-402.6)"
           id="path4482" />
      </g>
      <path
         style="fill:#ffffff;fill-opacity:1;stroke:none;opacity:0.1"
         d="M 146 164 C 144.892 164 144 164.892 144 166 L 144 167 C 144 165.892 144.892 165 146 165 L 174 165 C 175.108 165 176 165.892 176 167 L 176 166 C 176 164.892 175.108 164 174 164 L 146 164 z "
         transform="translate(0,76)"
         id="rect4196" />
      <path
         style="fill:#ffffff;fill-opacity:1;stroke:none;opacity:0.1"
         d="M 300 120 C 297.784 120 296 121.784 296 124 L 296 125 C 296 122.784 297.784 121 300 121 L 356 121 C 358.216 121 360 122.784 360 125 L 360 124 C 360 121.784 358.216 120 356 120 L 300 120 z "
         transform="translate(0,76)"
         id="rect4198" />
      <path
         style="fill:#ffffff;fill-opacity:1;stroke:none;opacity:0.1"
         d="M 53.5 186 C 52.669 186 52 186.669 52 187.5 L 52 188.5 C 52 187.669 52.669 187 53.5 187 L 66.5 187 C 67.331 187 68 187.669 68 188.5 L 68 187.5 C 68 186.669 67.331 186 66.5 186 L 53.5 186 z "
         transform="translate(0,76)"
         id="rect4200" />
      <path
         style="fill:#ffffff;fill-opacity:1;stroke:none;opacity:0.1"
         d="M 95 178 C 93.892 178 93 178.892 93 180 L 93 181 C 93 179.892 93.892 179 95 179 L 113 179 C 114.108 179 115 179.892 115 181 L 115 180 C 115 178.892 114.108 178 113 178 L 95 178 z "
         transform="translate(0,76)"
         id="rect4241" />
      <path
         style="fill:#ffffff;fill-opacity:1;stroke:none;opacity:0.1"
         d="M 213 148 C 211.338 148 210 149.338 210 151 L 210 152 C 210 150.338 211.338 149 213 149 L 251 149 C 252.662 149 254 150.338 254 152 L 254 151 C 254 149.338 252.662 148 251 148 L 213 148 z "
         transform="translate(0,76)"
         id="rect4263" />
      <rect
         ry="8"
         rx="8"
         y="-552"
         x="-268"
         height="128"
         width="160"
         id="rect4291"
         style="fill:#858a89;fill-opacity:1;stroke:none"
         transform="matrix(0,-1,-1,0,0,0)" />
      <path
         style="fill:#ffffff;fill-opacity:1;stroke:none;opacity:0.1"
         d="M 432 32 C 427.568 32 424 35.568 424 40 L 424 41 C 424 36.568 427.568 33 432 33 L 544 33 C 548.432 33 552 36.568 552 41 L 552 40 C 552 35.568 548.432 32 544 32 L 432 32 z "
         transform="translate(0,76)"
         id="rect4295" />
      <g
         transform="matrix(0.71428571,0,0,0.71428571,-256.71443,368.57143)"
         style="display:inline;opacity:0.2;fill:#000000;fill-opacity:1"
         inkscape:label="devices"
         id="g4473">
        <path
           style="color:#bebebe;font-style:normal;font-variant:normal;font-weight:normal;font-stretch:normal;font-size:medium;line-height:normal;font-family:Sans;-inkscape-font-specification:Sans;text-indent:0;text-align:start;text-decoration:none;text-decoration-line:none;letter-spacing:normal;word-spacing:normal;text-transform:none;direction:ltr;block-progression:tb;writing-mode:lr-tb;baseline-shift:baseline;text-anchor:start;display:inline;overflow:visible;visibility:visible;fill:#000000;fill-opacity:1;stroke:none;stroke-width:5.61250019;marker:none;enable-background:accumulate"
           d="m 24,194 c -2.744507,0 -5,2.2555 -5,5 0,2.7445 2.255493,5 5,5 2.7445,0 5,-2.2555 5,-5 0,-2.7445 -2.2555,-5 -5,-5 z m 0,3.5 c 0.822505,0 1.5,0.6775 1.5,1.5 0,0.8225 -0.677495,1.5 -1.5,1.5 -0.822505,0 -1.5,-0.6775 -1.5,-1.5 0,-0.8225 0.677495,-1.5 1.5,-1.5 z"
           transform="matrix(1.4,0,0,1.4,359.4002,-409.6)"
           id="path4475"
           inkscape:connector-curvature="0"
           sodipodi:nodetypes="ssssssssss" />
      </g>
      <g
         id="layer9"
         inkscape:label="status"
         style="display:inline;opacity:0.2;fill:#000000;fill-opacity:1"
         transform="translate(-289.0002,396)" />
      <g
         id="layer10"
         inkscape:label="devices"
         style="display:inline;opacity:0.2;fill:#000000;fill-opacity:1"
         transform="translate(-289.0002,396)">
        <path
           inkscape:connector-curvature="0"
           d="m 393.0002,-138 c -3.84231,0 -7,3.1577 -7,7 0,3.8423 3.15769,7 7,7 3.8423,0 7,-3.1577 7,-7 0,-3.8423 -3.1577,-7 -7,-7 z m 0,5 c 1.09865,0 2,0.90135 2,2 0,1.09864 -0.90135,2 -2,2 -1.09865,0 -2,-0.90136 -2,-2 0,-1.09865 0.90135,-2 2,-2 z"
           id="path10465"
           style="color:#bebebe;font-style:normal;font-variant:normal;font-weight:normal;font-stretch:normal;font-size:medium;line-height:normal;font-family:Sans;-inkscape-font-specification:Sans;text-indent:0;text-align:start;text-decoration:none;text-decoration-line:none;letter-spacing:normal;word-spacing:normal;text-transform:none;direction:ltr;block-progression:tb;writing-mode:lr-tb;baseline-shift:baseline;text-anchor:start;display:inline;overflow:visible;visibility:visible;fill:#000000;fill-opacity:1;stroke:none;stroke-width:5.61250019;marker:none;enable-background:accumulate" />
      </g>
      <g
         id="layer1-7"
         inkscape:label="places"
         style="display:inline;opacity:0.2;fill:#000000;fill-opacity:1"
         transform="translate(-48,-221)" />
      <g
         id="layer14"
         inkscape:label="mimetypes"
         style="display:inline;opacity:0.2;fill:#000000;fill-opacity:1"
         transform="translate(-289.0002,396)" />
      <g
         id="layer15"
         inkscape:label="emblems"
         style="display:inline;opacity:0.2;fill:#000000;fill-opacity:1"
         transform="translate(-289.0002,396)" />
      <g
         id="g71291"
         inkscape:label="emotes"
         style="display:inline;opacity:0.2;fill:#000000;fill-opacity:1"
         transform="translate(-289.0002,396)" />
      <g
         id="layer2"
         inkscape:label="categories"
         style="display:inline;opacity:0.2;fill:#000000;fill-opacity:1"
         transform="translate(-48,-71)" />
      <g
         id="g6058"
         inkscape:label="apps"
         style="display:inline;opacity:0.2;fill:#000000;fill-opacity:1"
         transform="translate(-48,-71)" />
      <g
         id="layer12"
         inkscape:label="actions"
         style="display:inline;opacity:0.2;fill:#000000;fill-opacity:1"
         transform="translate(-289.0002,396)" />
      <g
         transform="matrix(5.7142856,0,0,5.7142856,-1757.7154,920.5714)"
         style="display:inline;opacity:0.2;fill:#000000;fill-opacity:1"
         inkscape:label="devices"
         id="g4460">
        <path
           inkscape:connector-curvature="0"
           style="color:#bebebe;font-style:normal;font-variant:normal;font-weight:normal;font-stretch:normal;font-size:medium;line-height:normal;font-family:Sans;-inkscape-font-specification:Sans;text-indent:0;text-align:start;text-decoration:none;text-decoration-line:none;letter-spacing:normal;word-spacing:normal;text-transform:none;direction:ltr;block-progression:tb;writing-mode:lr-tb;baseline-shift:baseline;text-anchor:start;display:inline;overflow:visible;visibility:visible;fill:#000000;fill-opacity:1;stroke:none;stroke-width:5.61250019;marker:none;enable-background:accumulate"
           d="m 160,170 c -5.48901,0 -10,4.511 -10,10 0,5.489 4.51099,10 10,10 5.489,0 10,-4.511 10,-10 0,-5.489 -4.511,-10 -10,-10 z m 0,7 a 3,3 0 0 1 3,3 3,3 0 0 1 -3,3 3,3 0 0 1 -3,-3 3,3 0 0 1 3,-3 z"
           transform="matrix(0.70000001,0,0,0.70000001,281.0002,-257)"
           id="path4462" />
      </g>
      <g
         id="g4464"
         inkscape:label="devices"
         style="display:inline;opacity:0.2;fill:#000000;fill-opacity:1"
         transform="matrix(5.7142856,0,0,5.7142856,-1757.7154,920.5714)" />
      <g
         transform="matrix(2,0,0,2,-554.0004,508)"
         style="display:inline;opacity:0.2;fill:#000000;fill-opacity:1"
         inkscape:label="devices"
         id="g4469">
        <path
           style="color:#bebebe;font-style:normal;font-variant:normal;font-weight:normal;font-stretch:normal;font-size:medium;line-height:normal;font-family:Sans;-inkscape-font-specification:Sans;text-indent:0;text-align:start;text-decoration:none;text-decoration-line:none;letter-spacing:normal;word-spacing:normal;text-transform:none;direction:ltr;block-progression:tb;writing-mode:lr-tb;baseline-shift:baseline;text-anchor:start;display:inline;overflow:visible;visibility:visible;fill:#000000;fill-opacity:1;stroke:none;stroke-width:5.61250019;marker:none;enable-background:accumulate"
           id="path4471"
           d="m 393.0002,-138 c -3.84231,0 -7,3.1577 -7,7 0,3.8423 3.15769,7 7,7 3.8423,0 7,-3.1577 7,-7 0,-3.8423 -3.1577,-7 -7,-7 z m 0,5 c 1.09865,0 2,0.90135 2,2 0,1.09864 -0.90135,2 -2,2 -1.09865,0 -2,-0.90136 -2,-2 0,-1.09865 0.90135,-2 2,-2 z"
           inkscape:connector-curvature="0" />
      </g>
    </g>
  </g>
</svg>
