<?xml version="1.0" encoding="UTF-8" standalone="no"?>
<!-- Created with Inkscape (http://www.inkscape.org/) -->

<svg
   xmlns:dc="http://purl.org/dc/elements/1.1/"
   xmlns:cc="http://creativecommons.org/ns#"
   xmlns:rdf="http://www.w3.org/1999/02/22-rdf-syntax-ns#"
   xmlns:svg="http://www.w3.org/2000/svg"
   xmlns="http://www.w3.org/2000/svg"
   xmlns:sodipodi="http://sodipodi.sourceforge.net/DTD/sodipodi-0.dtd"
   xmlns:inkscape="http://www.inkscape.org/namespaces/inkscape"
   inkscape:export-ydpi="90.000000"
   inkscape:export-xdpi="90.000000"
   width="600"
   height="224"
   id="svg11300"
   sodipodi:version="0.32"
   inkscape:version="0.91 r"
   sodipodi:docname="input-gaming.svg"
   inkscape:output_extension="org.inkscape.output.svg.inkscape"
   version="1.0"
   style="display:inline;enable-background:new"
   inkscape:export-filename="/home/sam/paper-template.png">
  <title
     id="title3004">Paper Icon Theme</title>
  <sodipodi:namedview
     stroke="#ef2929"
     fill="#f57900"
     id="base"
     pagecolor="#575757"
     bordercolor="#666666"
     borderopacity="0.25490196"
     inkscape:pageopacity="0"
     inkscape:pageshadow="2"
     inkscape:zoom="1"
     inkscape:cx="243.26428"
     inkscape:cy="79.275133"
     inkscape:current-layer="layer6"
     showgrid="false"
     inkscape:grid-bbox="true"
     inkscape:document-units="px"
     inkscape:showpageshadow="false"
     inkscape:window-width="1366"
     inkscape:window-height="710"
     inkscape:window-x="0"
     inkscape:window-y="28"
     width="400px"
     height="300px"
     inkscape:snap-nodes="true"
     inkscape:snap-bbox="true"
     gridtolerance="10000"
     inkscape:object-nodes="true"
     inkscape:snap-grids="true"
     showguides="true"
     inkscape:guide-bbox="true"
     inkscape:window-maximized="1"
     inkscape:bbox-nodes="true"
     inkscape:snap-bbox-edge-midpoints="true"
     inkscape:snap-intersection-paths="true"
     inkscape:object-paths="true"
     inkscape:snap-smooth-nodes="true"
     inkscape:snap-midpoints="true"
     inkscape:snap-global="true">
    <inkscape:grid
       spacingy="1px"
       spacingx="1px"
       id="grid5883"
       type="xygrid"
       enabled="true"
       visible="true"
       empspacing="4"
       snapvisiblegridlinesonly="true" />
    <inkscape:grid
       type="xygrid"
       id="grid11592"
       empspacing="2"
       visible="true"
       enabled="false"
       spacingx="0.5px"
       spacingy="0.5px"
       color="#ff0000"
       opacity="0.1254902"
       empcolor="#ff0000"
       empopacity="0.25098039"
       snapvisiblegridlinesonly="true" />
    <sodipodi:guide
       orientation="0,1"
       position="0,224"
       id="guide4275" />
  </sodipodi:namedview>
  <defs
     id="defs3">
    <filter
       inkscape:collect="always"
       style="color-interpolation-filters:sRGB"
       id="filter4310"
       x="-0.10934135"
       width="1.2186827"
       y="-0.13296112"
       height="1.2659222">
      <feGaussianBlur
         inkscape:collect="always"
         stdDeviation="1.7801066"
         id="feGaussianBlur4312" />
    </filter>
    <clipPath
       clipPathUnits="userSpaceOnUse"
       id="clipPath4327">
      <path
         sodipodi:nodetypes="ccssccccc"
         inkscape:connector-curvature="0"
         id="path4329"
         d="m 143,255 0.13393,5.9448 c 0.13393,0.94481 0.9155,2.65508 2.10245,4.00442 C 146.88326,266.82147 149.29903,268 152,268 l 16,0 6,8 c 3,4 6.38128,0.70711 6,-2 l -1,-19 z"
         style="fill:#828b8f;fill-opacity:1" />
    </clipPath>
    <filter
       inkscape:collect="always"
       style="color-interpolation-filters:sRGB"
       id="filter4344"
       x="-0.021614922"
       width="1.0432298"
       y="-0.026976721"
       height="1.0539534">
      <feGaussianBlur
         inkscape:collect="always"
         stdDeviation="0.36116903"
         id="feGaussianBlur4346" />
    </filter>
    <filter
       inkscape:collect="always"
       style="color-interpolation-filters:sRGB"
       id="filter4350"
       x="-0.054037305"
       width="1.1080746"
       y="-0.067441801"
       height="1.1348836">
      <feGaussianBlur
         inkscape:collect="always"
         stdDeviation="0.90292256"
         id="feGaussianBlur4352" />
    </filter>
    <filter
       inkscape:collect="always"
       style="color-interpolation-filters:sRGB"
       id="filter4468"
       x="-0.079285714"
       width="1.1585714"
       y="-0.24666667"
       height="1.4933333">
      <feGaussianBlur
         inkscape:collect="always"
         stdDeviation="0.925"
         id="feGaussianBlur4470" />
    </filter>
    <filter
       inkscape:collect="always"
       style="color-interpolation-filters:sRGB"
       id="filter4603"
       x="-0.0216149"
       width="1.0432298"
       y="-0.026976754"
       height="1.0539535">
      <feGaussianBlur
         inkscape:collect="always"
         stdDeviation="0.72050299"
         id="feGaussianBlur4605" />
    </filter>
    <filter
       inkscape:collect="always"
       style="color-interpolation-filters:sRGB"
       id="filter4609"
       x="-0.054037251"
       width="1.1080745"
       y="-0.067441885"
       height="1.1348838">
      <feGaussianBlur
         inkscape:collect="always"
         stdDeviation="1.8012575"
         id="feGaussianBlur4611" />
    </filter>
    <filter
       inkscape:collect="always"
       style="color-interpolation-filters:sRGB"
       id="filter4767"
       x="-0.032422195"
       width="1.0648444"
       y="-0.040465373"
       height="1.0809307">
      <feGaussianBlur
         inkscape:collect="always"
         stdDeviation="2.1614991"
         id="feGaussianBlur4769" />
    </filter>
    <filter
       inkscape:collect="always"
       style="color-interpolation-filters:sRGB"
       id="filter4773"
       x="-0.054036992"
       width="1.108074"
       y="-0.067442289"
       height="1.1348846">
      <feGaussianBlur
         inkscape:collect="always"
         stdDeviation="3.6024986"
         id="feGaussianBlur4775" />
    </filter>
  </defs>
  <metadata
     id="metadata4">
    <rdf:RDF>
      <cc:Work
         rdf:about="">
        <dc:format>image/svg+xml</dc:format>
        <dc:type
           rdf:resource="http://purl.org/dc/dcmitype/StillImage" />
        <dc:creator>
          <cc:Agent>
            <dc:title>Sam Hewitt</dc:title>
          </cc:Agent>
        </dc:creator>
        <dc:source />
        <cc:license
           rdf:resource="http://creativecommons.org/licenses/by-sa/3.0/" />
        <dc:title>Paper Icon Theme</dc:title>
        <dc:subject>
          <rdf:Bag />
        </dc:subject>
        <dc:date />
        <dc:rights>
          <cc:Agent>
            <dc:title />
          </cc:Agent>
        </dc:rights>
        <dc:publisher>
          <cc:Agent>
            <dc:title />
          </cc:Agent>
        </dc:publisher>
        <dc:identifier />
        <dc:relation />
        <dc:language />
        <dc:coverage />
        <dc:description />
        <dc:contributor>
          <cc:Agent>
            <dc:title />
          </cc:Agent>
        </dc:contributor>
      </cc:Work>
      <cc:Work
         rdf:about="">
        <dc:format>image/svg+xml</dc:format>
        <dc:type
           rdf:resource="http://purl.org/dc/dcmitype/StillImage" />
      </cc:Work>
    </rdf:RDF>
  </metadata>
  <g
     style="display:inline"
     inkscape:groupmode="layer"
     inkscape:label="Icon"
     id="layer1"
     transform="translate(0,-76)">
    <g
       style="display:none"
       inkscape:label="Baseplate"
       id="layer7"
       inkscape:groupmode="layer">
      <text
         y="59.745117"
         xml:space="preserve"
         x="15.006836"
         style="font-style:normal;font-variant:normal;font-weight:normal;font-stretch:normal;font-size:18px;font-family:'DejaVu Sans';-inkscape-font-specification:'DejaVu Sans';display:inline;fill:#000000;fill-opacity:1;stroke:none;enable-background:new"
         inkscape:label="context"
         id="context"><tspan
           style="font-style:normal;font-variant:normal;font-weight:normal;font-stretch:normal;font-family:'DejaVu Sans';-inkscape-font-specification:'DejaVu Sans'"
           y="59.745117"
           x="15.006836"
           sodipodi:role="line"
           id="tspan3933">devices</tspan></text>
      <text
         y="59.745117"
         xml:space="preserve"
         x="142.48828"
         style="font-style:normal;font-variant:normal;font-weight:bold;font-stretch:normal;font-size:18px;line-height:125%;font-family:'DejaVu Sans';-inkscape-font-specification:'DejaVu Sans Bold';text-align:start;writing-mode:lr-tb;text-anchor:start;display:inline;fill:#000000;fill-opacity:1;stroke:none;enable-background:new"
         sodipodi:linespacing="125%"
         inkscape:label="icon-name"
         id="icon-name"><tspan
           style="font-style:normal;font-variant:normal;font-weight:bold;font-stretch:normal;font-size:18px;font-family:'DejaVu Sans';-inkscape-font-specification:'DejaVu Sans Bold'"
           y="59.745117"
           x="142.48828"
           sodipodi:role="line"
           id="tspan3937">input-gaming</tspan></text>
      <rect
         style="display:inline;overflow:visible;visibility:visible;fill:#e9e9e9;fill-opacity:1;fill-rule:nonzero;stroke:none;stroke-width:2;marker:none;enable-background:accumulate"
         id="rect16x16"
         width="16"
         height="16"
         x="-32"
         y="268"
         inkscape:label="16x16"
         transform="scale(-1,1)" />
      <rect
         style="display:inline;overflow:visible;visibility:visible;fill:#e9e9e9;fill-opacity:1;fill-rule:nonzero;stroke:none;stroke-width:2;marker:none;enable-background:accumulate"
         id="rect24x24"
         width="24"
         height="24"
         x="-72"
         y="260"
         inkscape:label="24x24"
         transform="scale(-1,1)" />
      <rect
         style="display:inline;overflow:visible;visibility:visible;fill:#e9e9e9;fill-opacity:1;fill-rule:nonzero;stroke:none;stroke-width:2;marker:none;enable-background:accumulate"
         id="rect32x32"
         width="32"
         height="32"
         x="-120"
         y="252"
         inkscape:label="32x32"
         transform="scale(-1,1)" />
      <rect
         inkscape:label="48x48"
         y="236"
         x="-184"
         height="48"
         width="48"
         id="rect48x48"
         style="display:inline;overflow:visible;visibility:visible;fill:#e9e9e9;fill-opacity:1;fill-rule:nonzero;stroke:none;stroke-width:2;marker:none;enable-background:accumulate"
         transform="scale(-1,1)" />
      <rect
         style="display:inline;overflow:visible;visibility:visible;fill:#e9e9e9;fill-opacity:1;fill-rule:nonzero;stroke:none;stroke-width:2;marker:none;enable-background:accumulate"
         id="rect256x256"
         width="192"
         height="192"
         x="-584"
         y="92"
         inkscape:label="256x256"
         transform="scale(-1,1)" />
      <rect
         inkscape:label="256x256"
         y="188"
         x="-376"
         height="96"
         width="96"
         id="rect3949"
         style="display:inline;overflow:visible;visibility:visible;fill:#e9e9e9;fill-opacity:1;fill-rule:nonzero;stroke:none;stroke-width:2;marker:none;enable-background:accumulate"
         transform="scale(-1,1)" />
      <rect
         style="display:inline;overflow:visible;visibility:visible;fill:#e9e9e9;fill-opacity:1;fill-rule:nonzero;stroke:none;stroke-width:2;marker:none;enable-background:accumulate"
         id="rect3951"
         width="64"
         height="64"
         x="-264"
         y="220"
         inkscape:label="48x48"
         transform="scale(-1,1)" />
    </g>
    <g
       inkscape:groupmode="layer"
       id="layer6"
       inkscape:label="Symbols"
       style="display:inline">
      <path
         inkscape:connector-curvature="0"
         id="path4771"
         d="m 448.1875,126 c -19.89318,0 -34.86264,16.04254 -35.9082,35.9082 l -3.99024,75.80664 c -2.5174,14.8228 11.85884,24.18126 23.93946,7.97852 l 21.34765,-32.02148 c 0.8566,0.0606 1.71926,0.10351 2.5918,0.10351 l 63.83594,0 23.93945,31.91797 c 11.96942,15.95924 25.46067,2.82232 23.93945,-7.97852 L 563.89258,161.9082 C 563.89258,142.01502 547.87755,126 527.98438,126 l -79.79688,0 z"
         style="fill:#000000;fill-opacity:1;opacity:0.1;filter:url(#filter4773)" />
      <path
         style="fill:#000000;fill-opacity:1;opacity:0.3;filter:url(#filter4767)"
         d="m 448.1875,126 c -19.89318,0 -34.86264,16.04254 -35.9082,35.9082 l -3.99024,75.80664 c -2.5174,14.8228 11.85884,24.18126 23.93946,7.97852 l 21.34765,-32.02148 c 0.8566,0.0606 1.71926,0.10351 2.5918,0.10351 l 63.83594,0 23.93945,31.91797 c 11.96942,15.95924 25.46067,2.82232 23.93945,-7.97852 L 563.89258,161.9082 C 563.89258,142.01502 547.87755,126 527.98438,126 l -79.79688,0 z"
         id="path4762"
         inkscape:connector-curvature="0" />
      <path
         inkscape:connector-curvature="0"
         id="path4607"
         d="m 308.09375,205 c -9.94659,0 -17.43035,8.02225 -17.95313,17.95508 l -1.99609,37.90234 c -1.2587,7.4114 5.93039,12.09161 11.9707,3.99024 l 10.67383,-16.00977 c 0.42795,0.0303 0.85902,0.0508 1.29492,0.0508 l 31.91797,0 11.96875,15.95899 c 5.98471,7.97962 12.73132,1.41018 11.97071,-3.99024 l -1.9961,-37.90234 C 365.94531,213.00849 357.93878,205 347.99219,205 l -39.89844,0 z"
         style="fill:#000000;fill-opacity:1;opacity:0.1;filter:url(#filter4609)" />
      <path
         style="fill:#000000;fill-opacity:1;opacity:0.3;filter:url(#filter4603)"
         d="m 308.09375,205 c -9.94659,0 -17.43035,8.02225 -17.95313,17.95508 l -1.99609,37.90234 c -1.2587,7.4114 5.93039,12.09161 11.9707,3.99024 l 10.67383,-16.00977 c 0.42795,0.0303 0.85902,0.0508 1.29492,0.0508 l 31.91797,0 11.96875,15.95899 c 5.98471,7.97962 12.73132,1.41018 11.97071,-3.99024 l -1.9961,-37.90234 C 365.94531,213.00849 357.93878,205 347.99219,205 l -39.89844,0 z"
         id="path4598"
         inkscape:connector-curvature="0" />
      <rect
         ry="3"
         rx="3"
         y="-260"
         x="-280"
         height="56"
         width="56"
         id="rect4229"
         style="fill:#b4c5ff;fill-opacity:1;stroke:none"
         transform="matrix(0,-1,-1,0,0,0)" />
      <circle
         r="3"
         cy="227"
         cx="257"
         id="path4231"
         style="opacity:0.2;fill:#000000;fill-opacity:1;stroke:none" />
      <circle
         r="3"
         cy="227"
         cx="207"
         style="opacity:0.2;fill:#000000;fill-opacity:1;stroke:none"
         id="path4233" />
      <circle
         r="3"
         cy="277"
         cx="207"
         id="path4235"
         style="opacity:0.2;fill:#000000;fill-opacity:1;stroke:none" />
      <circle
         r="3"
         cy="277"
         cx="257"
         style="opacity:0.2;fill:#000000;fill-opacity:1;stroke:none"
         id="path4237" />
      <rect
         ry="1.5"
         rx="1.5"
         y="-70"
         x="-282"
         height="20"
         width="20"
         id="rect4243"
         style="fill:#b4c5ff;fill-opacity:1;stroke:none"
         transform="matrix(0,-1,-1,0,0,0)" />
      <rect
         transform="matrix(0,-1,-1,0,0,0)"
         style="fill:#b4c5ff;fill-opacity:1;stroke:none"
         id="rect4255"
         width="28"
         height="28"
         x="-282"
         y="-118"
         rx="2"
         ry="2" />
      <circle
         r="2"
         cy="280"
         cx="92"
         style="opacity:0.2;fill:#000000;fill-opacity:1;stroke:none"
         id="path4261" />
      <rect
         transform="matrix(0,-1,-1,0,0,0)"
         style="display:inline;fill:#b4c5ff;fill-opacity:1;stroke:none;enable-background:new"
         id="rect4265"
         width="16"
         height="16"
         x="-284"
         y="-32"
         rx="1"
         ry="1" />
      <circle
         id="circle8371"
         style="opacity:0.2;fill:#000000;fill-opacity:1;stroke:none"
         cx="31"
         cy="269"
         r="1" />
      <circle
         r="1"
         cy="283"
         cx="31"
         style="opacity:0.2;fill:#000000;fill-opacity:1;stroke:none"
         id="circle8373" />
      <circle
         id="circle8375"
         style="opacity:0.2;fill:#000000;fill-opacity:1;stroke:none"
         cx="17"
         cy="283"
         r="1" />
      <circle
         r="1"
         cy="269"
         cx="17"
         style="opacity:0.2;fill:#000000;fill-opacity:1;stroke:none"
         id="circle8377" />
      <circle
         r="1.5"
         cy="280.5"
         cx="51.5"
         style="opacity:0.2;fill:#000000;fill-opacity:1;stroke:none"
         id="circle4373" />
      <circle
         id="circle4185"
         style="opacity:0.2;fill:#000000;fill-opacity:1;stroke:none"
         cx="92"
         cy="256"
         r="2" />
      <circle
         r="2"
         cy="256"
         cx="116"
         style="opacity:0.2;fill:#000000;fill-opacity:1;stroke:none"
         id="circle4187" />
      <circle
         id="circle4189"
         style="opacity:0.2;fill:#000000;fill-opacity:1;stroke:none"
         cx="116"
         cy="280"
         r="2" />
      <circle
         id="circle4191"
         style="opacity:0.2;fill:#000000;fill-opacity:1;stroke:none"
         cx="51.5"
         cy="263.5"
         r="1.5" />
      <circle
         r="1.5"
         cy="263.5"
         cx="68.5"
         style="opacity:0.2;fill:#000000;fill-opacity:1;stroke:none"
         id="circle4193" />
      <circle
         id="circle4195"
         style="opacity:0.2;fill:#000000;fill-opacity:1;stroke:none"
         cx="68.5"
         cy="280.5"
         r="1.5" />
      <path
         inkscape:connector-curvature="0"
         id="path4348"
         d="m 150,247 c -4.986,0 -8.73794,4.0209 -9,9 l -1,19 c -0.63096,3.71517 2.97213,6.06103 6,2 l 5.35742,-8.03516 C 151.57085,268.97986 151.78263,269 152,269 l 16,0 6,8 c 3,4 6.38128,0.70711 6,-2 l -1,-19 c 0,-4.986 -4.014,-9 -9,-9 l -20,0 z"
         style="opacity:0.1;fill:#000000;fill-opacity:1;filter:url(#filter4350)" />
      <path
         style="opacity:0.3;fill:#000000;fill-opacity:1;filter:url(#filter4344)"
         d="m 150,247 c -4.986,0 -8.73794,4.0209 -9,9 l -1,19 c -0.63096,3.71517 2.97213,6.06103 6,2 l 5.35742,-8.03516 C 151.57085,268.97986 151.78263,269 152,269 l 16,0 6,8 c 3,4 6.38128,0.70711 6,-2 l -1,-19 c 0,-4.986 -4.014,-9 -9,-9 l -20,0 z"
         id="path4331"
         inkscape:connector-curvature="0" />
      <path
         style="fill:#5f7c8a;fill-opacity:1"
         d="m 143,255 0.13393,5.9448 c 0.13393,0.94481 0.9155,2.65508 2.10245,4.00442 C 146.88326,266.82147 149.29903,268 152,268 l 16,0 6,8 c 3,4 6.38128,0.70711 6,-2 l -1,-19 z"
         id="path4206"
         inkscape:connector-curvature="0"
         sodipodi:nodetypes="ccssccccc" />
      <path
         sodipodi:nodetypes="ssssscccss"
         inkscape:connector-curvature="0"
         id="path4308"
         d="m 150,246 20,0 c 4.986,0 9,4.014 9,9 0,2.28503 -0.84305,4.36591 -2.23636,5.94984 C 175.11671,262.82209 172.70097,264 170,264 l -16,0 -8,12 c -3.02787,4.06103 -6.63096,1.71517 -6,-2 l 1,-19 c 0.26206,-4.9791 4.014,-9 9,-9 z"
         style="opacity:0.2;fill:#000000;fill-opacity:1;filter:url(#filter4310)"
         clip-path="url(#clipPath4327)" />
      <path
         style="fill:#7f96a1;fill-opacity:1"
         d="m 150,246 20,0 c 4.986,0 9,4.014 9,9 0,2.28503 -0.84305,4.36591 -2.23636,5.94984 C 175.11671,262.82209 172.70097,264 170,264 l -16,0 -8,12 c -3.02787,4.06103 -6.63096,1.71517 -6,-2 l 1,-19 c 0.26206,-4.9791 4.014,-9 9,-9 z"
         id="rect4196"
         inkscape:connector-curvature="0"
         sodipodi:nodetypes="ssssscccss" />
      <g
         id="g4460"
         style="opacity:0.2;filter:url(#filter4468)">
        <circle
           r="1.5"
           cy="256.5"
           cx="166.5"
           id="circle4360"
           style="display:inline;opacity:1;fill:#000000;fill-opacity:1;enable-background:new" />
        <circle
           style="display:inline;opacity:1;fill:#000000;fill-opacity:1;enable-background:new"
           id="circle4362"
           cx="172.5"
           cy="256.5"
           r="1.5" />
        <circle
           transform="matrix(0,1,-1,0,0,0)"
           style="display:inline;opacity:1;fill:#000000;fill-opacity:1;enable-background:new"
           id="circle4364"
           cx="253.5"
           cy="-169.5"
           r="1.5" />
        <circle
           transform="matrix(0,1,-1,0,0,0)"
           r="1.5"
           cy="-169.5"
           cx="259.5"
           id="circle4366"
           style="display:inline;opacity:1;fill:#000000;fill-opacity:1;enable-background:new" />
        <rect
           style="opacity:1;fill:#000000;fill-opacity:1"
           id="rect4356"
           width="3"
           height="9"
           x="149"
           y="252"
           ry="0" />
        <rect
           ry="0"
           y="-155"
           x="255"
           height="9"
           width="3"
           id="rect4358"
           style="opacity:1;fill:#000000;fill-opacity:1"
           transform="matrix(0,1,-1,0,0,0)" />
      </g>
      <g
         id="g4432"
         style="fill:#dfe5e8;fill-opacity:1">
        <rect
           ry="0"
           y="251"
           x="149"
           height="9"
           width="3"
           id="rect4218"
           style="fill:#dfe5e8;fill-opacity:1" />
        <rect
           transform="matrix(0,1,-1,0,0,0)"
           style="fill:#dfe5e8;fill-opacity:1"
           id="rect4224"
           width="3"
           height="9"
           x="254"
           y="-155"
           ry="0" />
        <circle
           r="1.5"
           cy="255.5"
           cx="166.5"
           id="path4238"
           style="fill:#dfe5e8;fill-opacity:1" />
        <circle
           style="fill:#dfe5e8;fill-opacity:1"
           id="circle4240"
           cx="172.5"
           cy="255.5"
           r="1.5" />
        <circle
           transform="matrix(0,1,-1,0,0,0)"
           style="fill:#dfe5e8;fill-opacity:1"
           id="circle4276"
           cx="252.5"
           cy="-169.5"
           r="1.5" />
        <circle
           transform="matrix(0,1,-1,0,0,0)"
           r="1.5"
           cy="-169.5"
           cx="258.5"
           id="circle4278"
           style="fill:#dfe5e8;fill-opacity:1" />
      </g>
      <path
         inkscape:connector-curvature="0"
         style="opacity:0.1;fill:#ffffff;fill-opacity:1"
         d="m 150,246 c -4.986,0 -8.73794,4.0209 -9,9 l -1,19 c -0.0821,0.48356 -0.0878,0.94113 -0.0371,1.36719 0.0118,-0.1221 0.0158,-0.24178 0.0371,-0.36719 l 1,-19 c 0.26206,-4.9791 4.014,-9 9,-9 l 20,0 c 4.82558,0 8.72962,3.7634 8.97656,8.52539 0.01,-0.17444 0.0234,-0.34836 0.0234,-0.52539 0,-4.986 -4.014,-9 -9,-9 l -20,0 z"
         id="path4472" />
      <g
         id="g4671">
        <path
           style="fill:#5f7c8a;fill-opacity:1"
           d="m 294.12963,221.95413 0.26718,11.8593 c 0.26718,1.88481 1.82634,5.29663 4.19419,7.98843 3.28536,3.73496 8.10459,6.08601 13.49277,6.08601 l 31.91845,0 11.96943,15.95923 c 5.98471,7.97962 12.73003,1.41062 11.96942,-3.9898 l -1.99491,-37.90317 z"
           id="path4541"
           inkscape:connector-curvature="0"
           sodipodi:nodetypes="ccssccccc" />
        <path
           transform="matrix(1.9949036,0,0,1.9949036,8.8584198,-286.74629)"
           sodipodi:nodetypes="ssssscccss"
           inkscape:connector-curvature="0"
           id="path4543"
           d="m 150,246 20,0 c 4.986,0 9,4.014 9,9 0,2.28503 -0.84305,4.36591 -2.23636,5.94984 C 175.11671,262.82209 172.70097,264 170,264 l -16,0 -8,12 c -3.02787,4.06103 -6.63096,1.71517 -6,-2 l 1,-19 c 0.26206,-4.9791 4.014,-9 9,-9 z"
           style="opacity:0.2;fill:#000000;fill-opacity:1;filter:url(#filter4310)"
           clip-path="url(#clipPath4327)" />
        <path
           style="fill:#7f96a1;fill-opacity:1"
           d="m 308.09396,204 39.89807,0 c 9.94659,0 17.95413,8.00754 17.95413,17.95413 0,4.55841 -1.6818,8.70957 -4.46132,11.86936 -3.28547,3.73495 -8.10463,6.08477 -13.49281,6.08477 l -31.91846,0 -15.95922,23.93884 c -6.04031,8.10137 -13.22813,3.4216 -11.96943,-3.9898 l 1.99491,-37.90317 C 290.66261,212.0213 298.14737,204 308.09396,204 Z"
           id="path4545"
           inkscape:connector-curvature="0"
           sodipodi:nodetypes="ssssscccss" />
        <g
           transform="matrix(1.9949036,0,0,1.9949036,8.8584198,-286.74629)"
           id="g4547"
           style="opacity:0.2;filter:url(#filter4468)">
          <circle
             r="1.5"
             cy="256.5"
             cx="166.5"
             id="circle4549"
             style="display:inline;opacity:1;fill:#000000;fill-opacity:1;enable-background:new" />
          <circle
             style="display:inline;opacity:1;fill:#000000;fill-opacity:1;enable-background:new"
             id="circle4551"
             cx="172.5"
             cy="256.5"
             r="1.5" />
          <circle
             transform="matrix(0,1,-1,0,0,0)"
             style="display:inline;opacity:1;fill:#000000;fill-opacity:1;enable-background:new"
             id="circle4553"
             cx="253.5"
             cy="-169.5"
             r="1.5" />
          <circle
             transform="matrix(0,1,-1,0,0,0)"
             r="1.5"
             cy="-169.5"
             cx="259.5"
             id="circle4555"
             style="display:inline;opacity:1;fill:#000000;fill-opacity:1;enable-background:new" />
          <rect
             style="opacity:1;fill:#000000;fill-opacity:1"
             id="rect4557"
             width="3"
             height="9"
             x="149"
             y="252"
             ry="0" />
          <rect
             ry="0"
             y="-155"
             x="255"
             height="9"
             width="3"
             id="rect4559"
             style="opacity:1;fill:#000000;fill-opacity:1"
             transform="matrix(0,1,-1,0,0,0)" />
        </g>
        <g
           transform="matrix(1.9949036,0,0,1.9949036,8.8584198,-286.74629)"
           id="g4561"
           style="fill:#dfe5e8;fill-opacity:1">
          <rect
             ry="0"
             y="251"
             x="149"
             height="9"
             width="3"
             id="rect4563"
             style="fill:#dfe5e8;fill-opacity:1" />
          <rect
             transform="matrix(0,1,-1,0,0,0)"
             style="fill:#dfe5e8;fill-opacity:1"
             id="rect4565"
             width="3"
             height="9"
             x="254"
             y="-155"
             ry="0" />
          <circle
             r="1.5"
             cy="255.5"
             cx="166.5"
             id="circle4567"
             style="fill:#dfe5e8;fill-opacity:1" />
          <circle
             style="fill:#dfe5e8;fill-opacity:1"
             id="circle4569"
             cx="172.5"
             cy="255.5"
             r="1.5" />
          <circle
             transform="matrix(0,1,-1,0,0,0)"
             style="fill:#dfe5e8;fill-opacity:1"
             id="circle4571"
             cx="252.5"
             cy="-169.5"
             r="1.5" />
          <circle
             transform="matrix(0,1,-1,0,0,0)"
             r="1.5"
             cy="-169.5"
             cx="258.5"
             id="circle4573"
             style="fill:#dfe5e8;fill-opacity:1" />
        </g>
        <path
           transform="translate(0,76)"
           id="path4575"
           d="M 308.09375 128 C 298.14716 128 290.66341 136.02225 290.14062 145.95508 L 288.14453 183.85742 C 288.02751 184.54667 288.01111 185.19778 288.03516 185.83008 C 288.05706 185.51127 288.08825 185.18893 288.14453 184.85742 L 290.14062 146.95508 C 290.66341 137.02225 298.14716 129 308.09375 129 L 347.99219 129 C 357.77924 129 365.67066 136.7581 365.92188 146.48242 C 365.93117 146.30675 365.94531 146.13297 365.94531 145.95508 C 365.94531 136.00849 357.93878 128 347.99219 128 L 308.09375 128 z "
           style="opacity:0.1;fill:#ffffff;fill-opacity:1" />
      </g>
      <path
         style="fill:#5f7c8a;fill-opacity:1"
         d="m 420.25926,159.90826 0.53436,23.7186 c 0.53436,3.76962 3.65268,10.59326 8.38838,15.97686 6.57072,7.46992 16.20918,12.17202 26.98554,12.17202 l 63.8369,0 23.93885,31.91845 c 11.96942,15.95924 25.46006,2.82124 23.93884,-7.9796 l -3.98982,-75.80633 z"
         id="path4693"
         inkscape:connector-curvature="0"
         sodipodi:nodetypes="ccssccccc" />
      <path
         transform="matrix(3.989807,0,0,3.989807,-150.28313,-857.49253)"
         sodipodi:nodetypes="ssssscccss"
         inkscape:connector-curvature="0"
         id="path4695"
         d="m 150,246 20,0 c 4.986,0 9,4.014 9,9 0,2.28503 -0.84305,4.36591 -2.23636,5.94984 C 175.11671,262.82209 172.70097,264 170,264 l -16,0 -8,12 c -3.02787,4.06103 -6.63096,1.71517 -6,-2 l 1,-19 c 0.26206,-4.9791 4.014,-9 9,-9 z"
         style="opacity:0.2;fill:#000000;fill-opacity:1;filter:url(#filter4310)"
         clip-path="url(#clipPath4327)" />
      <path
         style="fill:#7f96a1;fill-opacity:1"
         d="m 448.18792,124 79.79614,0 c 19.89317,0 35.90825,16.01508 35.90825,35.90826 0,9.11682 -3.3636,17.41914 -8.92264,23.73872 -6.57094,7.4699 -16.20926,12.16954 -26.98561,12.16954 l -63.83692,0 -31.91844,47.87767 c -12.08062,16.20274 -26.45626,6.8432 -23.93886,-7.9796 l 3.98982,-75.80633 C 413.32522,140.0426 428.29474,124 448.18792,124 Z"
         id="path4697"
         inkscape:connector-curvature="0"
         sodipodi:nodetypes="ssssscccss" />
      <g
         transform="matrix(3.989807,0,0,3.989807,-150.28313,-857.49253)"
         id="g4699"
         style="opacity:0.2;filter:url(#filter4468)">
        <circle
           r="1.5"
           cy="256.5"
           cx="166.5"
           id="circle4701"
           style="display:inline;opacity:1;fill:#000000;fill-opacity:1;enable-background:new" />
        <circle
           style="display:inline;opacity:1;fill:#000000;fill-opacity:1;enable-background:new"
           id="circle4703"
           cx="172.5"
           cy="256.5"
           r="1.5" />
        <circle
           transform="matrix(0,1,-1,0,0,0)"
           style="display:inline;opacity:1;fill:#000000;fill-opacity:1;enable-background:new"
           id="circle4705"
           cx="253.5"
           cy="-169.5"
           r="1.5" />
        <circle
           transform="matrix(0,1,-1,0,0,0)"
           r="1.5"
           cy="-169.5"
           cx="259.5"
           id="circle4707"
           style="display:inline;opacity:1;fill:#000000;fill-opacity:1;enable-background:new" />
        <rect
           style="opacity:1;fill:#000000;fill-opacity:1"
           id="rect4709"
           width="3"
           height="9"
           x="149"
           y="252"
           ry="0" />
        <rect
           ry="0"
           y="-155"
           x="255"
           height="9"
           width="3"
           id="rect4711"
           style="opacity:1;fill:#000000;fill-opacity:1"
           transform="matrix(0,1,-1,0,0,0)" />
      </g>
      <g
         transform="matrix(3.989807,0,0,3.989807,-150.28313,-857.49253)"
         id="g4713"
         style="fill:#dfe5e8;fill-opacity:1">
        <rect
           ry="0"
           y="251"
           x="149"
           height="9"
           width="3"
           id="rect4715"
           style="fill:#dfe5e8;fill-opacity:1" />
        <rect
           transform="matrix(0,1,-1,0,0,0)"
           style="fill:#dfe5e8;fill-opacity:1"
           id="rect4717"
           width="3"
           height="9"
           x="254"
           y="-155"
           ry="0" />
        <circle
           r="1.5"
           cy="255.5"
           cx="166.5"
           id="circle4719"
           style="fill:#dfe5e8;fill-opacity:1" />
        <circle
           style="fill:#dfe5e8;fill-opacity:1"
           id="circle4721"
           cx="172.5"
           cy="255.5"
           r="1.5" />
        <circle
           transform="matrix(0,1,-1,0,0,0)"
           style="fill:#dfe5e8;fill-opacity:1"
           id="circle4723"
           cx="252.5"
           cy="-169.5"
           r="1.5" />
        <circle
           transform="matrix(0,1,-1,0,0,0)"
           r="1.5"
           cy="-169.5"
           cx="258.5"
           id="circle4725"
           style="fill:#dfe5e8;fill-opacity:1" />
      </g>
      <path
         inkscape:connector-curvature="0"
         id="path4727"
         d="m 448.1875,124 c -19.89318,0 -34.86067,16.0445 -35.90625,35.91016 l -3.99219,75.80468 c -0.23404,1.3785 -0.26685,2.68072 -0.21875,3.94532 4e-4,-0.006 0.002,-0.0117 0.002,-0.0176 -0.0109,-1.03975 0.0267,-2.10102 0.21679,-3.2207 l 3.99219,-75.80469 c 1.04558,-19.86566 16.01307,-35.91016 35.90625,-35.91016 l 79.79688,0 c 19.74185,0 35.65346,15.77635 35.89453,35.45899 0.003,-0.0855 0.0117,-0.16955 0.0117,-0.25586 C 563.89062,140.01698 547.87755,124 527.98438,124 l -79.79688,0 z"
         style="opacity:0.1;fill:#ffffff;fill-opacity:1" />
    </g>
  </g>
</svg>
