<?xml version="1.0" encoding="UTF-8" standalone="no"?>
<!-- Created with Inkscape (http://www.inkscape.org/) -->

<svg
   xmlns:dc="http://purl.org/dc/elements/1.1/"
   xmlns:cc="http://creativecommons.org/ns#"
   xmlns:rdf="http://www.w3.org/1999/02/22-rdf-syntax-ns#"
   xmlns:svg="http://www.w3.org/2000/svg"
   xmlns="http://www.w3.org/2000/svg"
   xmlns:sodipodi="http://sodipodi.sourceforge.net/DTD/sodipodi-0.dtd"
   xmlns:inkscape="http://www.inkscape.org/namespaces/inkscape"
   inkscape:export-ydpi="90.000000"
   inkscape:export-xdpi="90.000000"
   width="736"
   height="544"
   id="svg11300"
   sodipodi:version="0.32"
   inkscape:version="0.91 r13725"
   sodipodi:docname="input-gaming.svg"
   inkscape:output_extension="org.inkscape.output.svg.inkscape"
   version="1.0"
   style="display:inline;enable-background:new"
   inkscape:export-filename="/home/sam/paper-template.png">
  <title
     id="title3004">Paper Icon Theme</title>
  <sodipodi:namedview
     stroke="#ef2929"
     fill="#f57900"
     id="base"
     pagecolor="#575757"
     bordercolor="#666666"
     borderopacity="0.25490196"
     inkscape:pageopacity="0"
     inkscape:pageshadow="2"
     inkscape:zoom="1"
     inkscape:cx="57.677063"
     inkscape:cy="32.927649"
     inkscape:current-layer="layer6"
     showgrid="false"
     inkscape:grid-bbox="true"
     inkscape:document-units="px"
     inkscape:showpageshadow="false"
     inkscape:window-width="1366"
     inkscape:window-height="704"
     inkscape:window-x="0"
     inkscape:window-y="27"
     width="400px"
     height="300px"
     inkscape:snap-nodes="true"
     inkscape:snap-bbox="true"
     gridtolerance="10000"
     inkscape:object-nodes="true"
     inkscape:snap-grids="true"
     showguides="true"
     inkscape:guide-bbox="true"
     inkscape:window-maximized="0"
     inkscape:bbox-nodes="true"
     inkscape:snap-bbox-edge-midpoints="true"
     inkscape:snap-intersection-paths="true"
     inkscape:object-paths="true"
     inkscape:snap-smooth-nodes="true"
     inkscape:snap-midpoints="true"
     inkscape:snap-global="true">
    <inkscape:grid
       spacingy="1px"
       spacingx="1px"
       id="grid5883"
       type="xygrid"
       enabled="true"
       visible="true"
       empspacing="4"
       snapvisiblegridlinesonly="true" />
    <inkscape:grid
       type="xygrid"
       id="grid11592"
       empspacing="2"
       visible="true"
       enabled="false"
       spacingx="0.5px"
       spacingy="0.5px"
       color="#ff0000"
       opacity="0.1254902"
       empcolor="#ff0000"
       empopacity="0.25098039"
       snapvisiblegridlinesonly="true" />
  </sodipodi:namedview>
  <defs
     id="defs3">
    <filter
       inkscape:collect="always"
       style="color-interpolation-filters:sRGB"
       id="filter4310"
       x="-0.10934135"
       width="1.2186826"
       y="-0.13296112"
       height="1.2659222">
      <feGaussianBlur
         inkscape:collect="always"
         stdDeviation="1.7801066"
         id="feGaussianBlur4312" />
    </filter>
    <clipPath
       clipPathUnits="userSpaceOnUse"
       id="clipPath4327">
      <path
         sodipodi:nodetypes="ccssccccc"
         inkscape:connector-curvature="0"
         id="path4329"
         d="m 143,255 0.13393,5.9448 c 0.13393,0.94481 0.9155,2.65508 2.10245,4.00442 C 146.88326,266.82147 149.29903,268 152,268 l 16,0 6,8 c 3,4 6.38128,0.70711 6,-2 l -1,-19 z"
         style="fill:#828b8f;fill-opacity:1" />
    </clipPath>
    <filter
       inkscape:collect="always"
       style="color-interpolation-filters:sRGB"
       id="filter4350"
       x="-0.054037306"
       width="1.1080745"
       y="-0.067441799"
       height="1.1348836">
      <feGaussianBlur
         inkscape:collect="always"
         stdDeviation="0.90292256"
         id="feGaussianBlur4352" />
    </filter>
    <filter
       inkscape:collect="always"
       style="color-interpolation-filters:sRGB"
       id="filter4429"
       x="-0.0216149"
       width="1.0432298"
       y="-0.026976757"
       height="1.0539535">
      <feGaussianBlur
         inkscape:collect="always"
         stdDeviation="4.0347814"
         id="feGaussianBlur4431" />
    </filter>
    <filter
       inkscape:collect="always"
       style="color-interpolation-filters:sRGB"
       id="filter4487"
       x="-0.11999998"
       width="1.24"
       y="-0.12000002"
       height="1.24">
      <feGaussianBlur
         inkscape:collect="always"
         stdDeviation="4.8000055"
         id="feGaussianBlur4489" />
    </filter>
    <filter
       inkscape:collect="always"
       style="color-interpolation-filters:sRGB"
       id="filter4491"
       x="-0.11999995"
       width="1.2399999"
       y="-0.12000005"
       height="1.2400001">
      <feGaussianBlur
         inkscape:collect="always"
         stdDeviation="4.8000004"
         id="feGaussianBlur4493" />
    </filter>
  </defs>
  <metadata
     id="metadata4">
    <rdf:RDF>
      <cc:Work
         rdf:about="">
        <dc:format>image/svg+xml</dc:format>
        <dc:type
           rdf:resource="http://purl.org/dc/dcmitype/StillImage" />
        <dc:creator>
          <cc:Agent>
            <dc:title>Sam Hewitt</dc:title>
          </cc:Agent>
        </dc:creator>
        <dc:source />
        <cc:license
           rdf:resource="http://creativecommons.org/licenses/by-sa/3.0/" />
        <dc:title>Paper Icon Theme</dc:title>
        <dc:subject>
          <rdf:Bag />
        </dc:subject>
        <dc:date />
        <dc:rights>
          <cc:Agent>
            <dc:title />
          </cc:Agent>
        </dc:rights>
        <dc:publisher>
          <cc:Agent>
            <dc:title />
          </cc:Agent>
        </dc:publisher>
        <dc:identifier />
        <dc:relation />
        <dc:language />
        <dc:coverage />
        <dc:description />
        <dc:contributor>
          <cc:Agent>
            <dc:title />
          </cc:Agent>
        </dc:contributor>
      </cc:Work>
      <cc:Work
         rdf:about="">
        <dc:format>image/svg+xml</dc:format>
        <dc:type
           rdf:resource="http://purl.org/dc/dcmitype/StillImage" />
      </cc:Work>
      <cc:License
         rdf:about="http://creativecommons.org/licenses/by-sa/3.0/">
        <cc:permits
           rdf:resource="http://creativecommons.org/ns#Reproduction" />
        <cc:permits
           rdf:resource="http://creativecommons.org/ns#Distribution" />
        <cc:requires
           rdf:resource="http://creativecommons.org/ns#Notice" />
        <cc:requires
           rdf:resource="http://creativecommons.org/ns#Attribution" />
        <cc:permits
           rdf:resource="http://creativecommons.org/ns#DerivativeWorks" />
        <cc:requires
           rdf:resource="http://creativecommons.org/ns#ShareAlike" />
      </cc:License>
    </rdf:RDF>
  </metadata>
  <g
     style="display:inline"
     inkscape:groupmode="layer"
     inkscape:label="Icon"
     id="layer1"
     transform="translate(0,244)">
    <g
       style="display:none"
       inkscape:label="Baseplate"
       id="layer7"
       inkscape:groupmode="layer">
      <text
         y="332.48523"
         xml:space="preserve"
         x="15.006836"
         style="font-style:normal;font-variant:normal;font-weight:normal;font-stretch:normal;font-size:18px;font-family:'DejaVu Sans';-inkscape-font-specification:'DejaVu Sans';display:inline;fill:#000000;fill-opacity:1;stroke:none;enable-background:new"
         inkscape:label="context"
         id="context"><tspan
           style="font-style:normal;font-variant:normal;font-weight:normal;font-stretch:normal;font-family:'DejaVu Sans';-inkscape-font-specification:'DejaVu Sans'"
           y="332.48523"
           x="15.006836"
           sodipodi:role="line"
           id="tspan3933">devices</tspan></text>
      <text
         y="332.48523"
         xml:space="preserve"
         x="142.48828"
         style="font-style:normal;font-variant:normal;font-weight:bold;font-stretch:normal;font-size:18px;line-height:125%;font-family:'DejaVu Sans';-inkscape-font-specification:'DejaVu Sans Bold';text-align:start;writing-mode:lr-tb;text-anchor:start;display:inline;fill:#000000;fill-opacity:1;stroke:none;enable-background:new"
         sodipodi:linespacing="125%"
         inkscape:label="icon-name"
         id="icon-name"><tspan
           style="font-style:normal;font-variant:normal;font-weight:bold;font-stretch:normal;font-size:18px;font-family:'DejaVu Sans';-inkscape-font-specification:'DejaVu Sans Bold'"
           y="332.48523"
           x="142.48828"
           sodipodi:role="line"
           id="tspan3937">input-gaming</tspan></text>
      <rect
         style="display:inline;overflow:visible;visibility:visible;fill:#e9e9e9;fill-opacity:1;fill-rule:nonzero;stroke:none;stroke-width:2;marker:none;enable-background:accumulate"
         id="rect16x16"
         width="16"
         height="16"
         x="-32"
         y="268"
         inkscape:label="16x16"
         transform="scale(-1,1)" />
      <rect
         style="display:inline;overflow:visible;visibility:visible;fill:#e9e9e9;fill-opacity:1;fill-rule:nonzero;stroke:none;stroke-width:2;marker:none;enable-background:accumulate"
         id="rect24x24"
         width="24"
         height="24"
         x="-76"
         y="260"
         inkscape:label="24x24"
         transform="scale(-1,1)" />
      <rect
         style="display:inline;overflow:visible;visibility:visible;fill:#e9e9e9;fill-opacity:1;fill-rule:nonzero;stroke:none;stroke-width:2;marker:none;enable-background:accumulate"
         id="rect32x32"
         width="32"
         height="32"
         x="-128"
         y="252"
         inkscape:label="32x32"
         transform="scale(-1,1)" />
      <rect
         inkscape:label="48x48"
         y="236"
         x="-192"
         height="48"
         width="48"
         id="rect48x48"
         style="display:inline;overflow:visible;visibility:visible;fill:#e9e9e9;fill-opacity:1;fill-rule:nonzero;stroke:none;stroke-width:2;marker:none;enable-background:accumulate"
         transform="scale(-1,1)" />
      <rect
         style="display:inline;overflow:visible;visibility:visible;fill:#e9e9e9;fill-opacity:1;fill-rule:nonzero;stroke:none;stroke-width:2;marker:none;enable-background:accumulate"
         id="rect3951"
         width="512"
         height="512"
         x="-720"
         y="-228"
         inkscape:label="48x48"
         transform="scale(-1,1)" />
    </g>
    <g
       inkscape:groupmode="layer"
       id="layer6"
       inkscape:label="Symbols"
       style="display:inline">
      <path
         sodipodi:nodetypes="cccccccsscc"
         inkscape:connector-curvature="0"
         id="path4750"
         d="M 75,271.00391 C 75,271 65,271 65,271 l -8,6 -1,2 13.492188,0 1.623046,2.97852 0.002,0 c 0.17355,0.31817 0.343759,0.7325 0.677734,1.16015 0.333975,0.42765 0.974087,0.86133 1.699219,0.86133 1.371866,0 2.636494,-1.1215 2.496093,-2.5957 z"
         style="color:#000000;font-style:normal;font-variant:normal;font-weight:normal;font-stretch:normal;font-size:medium;line-height:normal;font-family:sans-serif;text-indent:0;text-align:start;text-decoration:none;text-decoration-line:none;text-decoration-style:solid;text-decoration-color:#000000;letter-spacing:normal;word-spacing:normal;text-transform:none;direction:ltr;block-progression:tb;writing-mode:lr-tb;baseline-shift:baseline;text-anchor:start;white-space:normal;clip-rule:nonzero;display:inline;overflow:visible;visibility:visible;opacity:0.1;isolation:auto;mix-blend-mode:normal;color-interpolation:sRGB;color-interpolation-filters:linearRGB;solid-color:#000000;solid-opacity:1;fill:#000000;fill-opacity:1;fill-rule:nonzero;stroke:none;stroke-width:2;stroke-linecap:butt;stroke-linejoin:miter;stroke-miterlimit:4;stroke-dasharray:none;stroke-dashoffset:0;stroke-opacity:1;color-rendering:auto;image-rendering:auto;shape-rendering:auto;text-rendering:auto;enable-background:accumulate" />
      <path
         style="color:#000000;font-style:normal;font-variant:normal;font-weight:normal;font-stretch:normal;font-size:medium;line-height:normal;font-family:sans-serif;text-indent:0;text-align:start;text-decoration:none;text-decoration-line:none;text-decoration-style:solid;text-decoration-color:#000000;letter-spacing:normal;word-spacing:normal;text-transform:none;direction:ltr;block-progression:tb;writing-mode:lr-tb;baseline-shift:baseline;text-anchor:start;white-space:normal;clip-rule:nonzero;display:inline;overflow:visible;visibility:visible;opacity:1;isolation:auto;mix-blend-mode:normal;color-interpolation:sRGB;color-interpolation-filters:linearRGB;solid-color:#000000;solid-opacity:1;fill:#4c636e;fill-opacity:1;fill-rule:nonzero;stroke:none;stroke-width:2;stroke-linecap:butt;stroke-linejoin:miter;stroke-miterlimit:4;stroke-dasharray:none;stroke-dashoffset:0;stroke-opacity:1;color-rendering:auto;image-rendering:auto;shape-rendering:auto;text-rendering:auto;enable-background:accumulate"
         d="M 75,514.00391 C 75,514 65,514 65,514 l -8,6 -1,2 13.492188,0 1.623046,2.97852 0.002,0 c 0.17355,0.31817 0.343759,0.7325 0.677734,1.16015 0.333975,0.42765 0.974087,0.86133 1.699219,0.86133 1.371866,0 2.636494,-1.1215 2.496093,-2.5957 z"
         transform="translate(0,-244)"
         id="path4708"
         inkscape:connector-curvature="0"
         sodipodi:nodetypes="cccccccsscc" />
      <path
         sodipodi:nodetypes="ssssccssss"
         inkscape:connector-curvature="0"
         id="path4748"
         d="m 59,265 c -3.309706,0 -5.693634,2.72847 -5.996094,5.9043 l -1,10.5 C 51.863511,282.8785 53.128133,284 54.5,284 c 0.689808,0 1.325201,-0.31956 1.738281,-0.76562 C 57.211817,281.30752 58.13469,279.67372 59.59375,277 L 69,277 c 3.306703,0 6,-2.6933 6,-6 0,-3.3067 -2.693297,-6 -6,-6 z"
         style="color:#000000;font-style:normal;font-variant:normal;font-weight:normal;font-stretch:normal;font-size:medium;line-height:normal;font-family:sans-serif;text-indent:0;text-align:start;text-decoration:none;text-decoration-line:none;text-decoration-style:solid;text-decoration-color:#000000;letter-spacing:normal;word-spacing:normal;text-transform:none;direction:ltr;block-progression:tb;writing-mode:lr-tb;baseline-shift:baseline;text-anchor:start;white-space:normal;clip-rule:nonzero;display:inline;overflow:visible;visibility:visible;opacity:0.1;isolation:auto;mix-blend-mode:normal;color-interpolation:sRGB;color-interpolation-filters:linearRGB;solid-color:#000000;solid-opacity:1;fill:#000000;fill-opacity:1;fill-rule:nonzero;stroke:none;stroke-width:2;stroke-linecap:butt;stroke-linejoin:miter;stroke-miterlimit:4;stroke-dasharray:none;stroke-dashoffset:0;stroke-opacity:1;color-rendering:auto;image-rendering:auto;shape-rendering:auto;text-rendering:auto;enable-background:accumulate" />
      <path
         style="opacity:0.2;fill:#000000;fill-opacity:1;filter:url(#filter4429)"
         d="m 352.52608,-150.95624 c -55.7004,0 -97.60912,44.92424 -100.53664,100.5476 l -11.178,212.2512 c -7.04864,41.50352 33.20992,67.7124 67.03536,22.34512 l 59.77288,-89.65392 c 2.39648,0.1696 4.81063,0.257488 7.25152,0.2848 l 178.73904,0 67.0244,89.3696 c 33.51408,44.68544 71.2948,7.89696 67.03544,-22.3452 L 676.492,-50.40824 c 0,-55.70056 -44.83616,-100.54768 -100.53664,-100.54768 l -223.42928,0 z"
         id="path4598"
         inkscape:connector-curvature="0"
         sodipodi:nodetypes="cccccsccccscc" />
      <path
         inkscape:connector-curvature="0"
         id="path4433"
         d="m 352.52608,-150.95624 c -55.7004,0 -97.60912,44.92424 -100.53664,100.5476 l -11.178,212.2512 c -7.04864,41.50352 33.20992,67.7124 67.03536,22.34512 l 59.77288,-89.65392 c 2.39648,0.1696 4.81063,0.257488 7.25152,0.2848 l 178.73904,0 67.0244,89.3696 c 33.51408,44.68544 71.2948,7.89696 67.03544,-22.3452 L 676.492,-50.40824 c 0,-55.70056 -44.83616,-100.54768 -100.53664,-100.54768 l -223.42928,0 z"
         style="opacity:0.1;fill:#000000;fill-opacity:1;stroke:#000000;stroke-width:8;stroke-miterlimit:4;stroke-dasharray:none;stroke-opacity:1;filter:url(#filter4429)"
         sodipodi:nodetypes="cccccsccccscc" />
      <path
         style="color:#000000;font-style:normal;font-variant:normal;font-weight:normal;font-stretch:normal;font-size:medium;line-height:normal;font-family:sans-serif;text-indent:0;text-align:start;text-decoration:none;text-decoration-line:none;text-decoration-style:solid;text-decoration-color:#000000;letter-spacing:normal;word-spacing:normal;text-transform:none;direction:ltr;block-progression:tb;writing-mode:lr-tb;baseline-shift:baseline;text-anchor:start;white-space:normal;clip-rule:nonzero;display:inline;overflow:visible;visibility:visible;opacity:1;isolation:auto;mix-blend-mode:normal;color-interpolation:sRGB;color-interpolation-filters:linearRGB;solid-color:#000000;solid-opacity:1;fill:#5f7c8a;fill-opacity:1;fill-rule:nonzero;stroke:none;stroke-width:2;stroke-linecap:butt;stroke-linejoin:miter;stroke-miterlimit:4;stroke-dasharray:none;stroke-dashoffset:0;stroke-opacity:1;color-rendering:auto;image-rendering:auto;shape-rendering:auto;text-rendering:auto;enable-background:accumulate"
         d="m 59,264 c -3.309706,0 -5.693634,2.72847 -5.996094,5.9043 l -1,10.5 C 51.863511,281.8785 53.128133,283 54.5,283 c 0.689808,0 1.325201,-0.31956 1.738281,-0.76562 C 57.211817,280.30752 58.13469,278.67372 59.59375,276 L 69,276 c 3.306703,0 6,-2.6933 6,-6 0,-3.3067 -2.693297,-6 -6,-6 z"
         id="rect4243"
         inkscape:connector-curvature="0"
         sodipodi:nodetypes="ssssccssss" />
      <rect
         transform="matrix(0,-1,-1,0,0,0)"
         style="fill:#5f7c8a;fill-opacity:1;stroke:none"
         id="rect4255"
         width="28"
         height="28"
         x="-282"
         y="-126"
         rx="2"
         ry="2" />
      <circle
         r="2"
         cy="280"
         cx="100"
         style="opacity:0.2;fill:#000000;fill-opacity:1;stroke:none"
         id="path4261" />
      <rect
         transform="matrix(0,-1,-1,0,0,0)"
         style="display:inline;fill:#5f7c8a;fill-opacity:1;stroke:none;enable-background:new"
         id="rect4265"
         width="16"
         height="16"
         x="-284"
         y="-32"
         rx="1"
         ry="1" />
      <circle
         id="circle8371"
         style="opacity:0.2;fill:#000000;fill-opacity:1;stroke:none"
         cx="31"
         cy="269"
         r="1" />
      <circle
         r="1"
         cy="283"
         cx="31"
         style="opacity:0.2;fill:#000000;fill-opacity:1;stroke:none"
         id="circle8373" />
      <circle
         id="circle8375"
         style="opacity:0.2;fill:#000000;fill-opacity:1;stroke:none"
         cx="17"
         cy="283"
         r="1" />
      <circle
         r="1"
         cy="269"
         cx="17"
         style="opacity:0.2;fill:#000000;fill-opacity:1;stroke:none"
         id="circle8377" />
      <circle
         id="circle4185"
         style="opacity:0.2;fill:#000000;fill-opacity:1;stroke:none"
         cx="100"
         cy="256"
         r="2" />
      <circle
         r="2"
         cy="256"
         cx="124"
         style="opacity:0.2;fill:#000000;fill-opacity:1;stroke:none"
         id="circle4187" />
      <circle
         id="circle4189"
         style="opacity:0.2;fill:#000000;fill-opacity:1;stroke:none"
         cx="124"
         cy="280"
         r="2" />
      <path
         inkscape:connector-curvature="0"
         id="path4348"
         d="m 158,247 c -4.986,0 -8.73794,4.0209 -9,9 l -1,19 c -0.63096,3.71517 2.97213,6.06103 6,2 l 5.35742,-8.03516 C 159.57085,268.97986 159.78263,269 160,269 l 16,0 6,8 c 3,4 6.38128,0.70711 6,-2 l -1,-19 c 0,-4.986 -4.014,-9 -9,-9 l -20,0 z"
         style="opacity:0.1;fill:#000000;fill-opacity:1;filter:url(#filter4350)" />
      <path
         style="opacity:0.2;fill:#000000;fill-opacity:1"
         d="m 158,247 c -4.986,0 -8.73794,4.0209 -9,9 l -1,19 c -0.63096,3.71517 2.97213,6.06103 6,2 l 5.35742,-8.03516 C 159.57085,268.97986 159.78263,269 160,269 l 16,0 6,8 c 3,4 6.38128,0.70711 6,-2 l -1,-19 c 0,-4.986 -4.014,-9 -9,-9 l -20,0 z"
         id="path4331"
         inkscape:connector-curvature="0" />
      <path
         style="fill:#4c636e;fill-opacity:1"
         d="m 151,255 0.13393,5.9448 c 0.13393,0.94481 0.9155,2.65508 2.10245,4.00442 C 154.88326,266.82147 157.29903,268 160,268 l 16,0 6,8 c 3,4 6.38128,0.70711 6,-2 l -1,-19 z"
         id="path4206"
         inkscape:connector-curvature="0"
         sodipodi:nodetypes="ccssccccc" />
      <path
         sodipodi:nodetypes="ssssscccss"
         inkscape:connector-curvature="0"
         id="path4308"
         d="m 150,246 20,0 c 4.986,0 9,4.014 9,9 0,2.28503 -0.84305,4.36591 -2.23636,5.94984 C 175.11671,262.82209 172.70097,264 170,264 l -16,0 -8,12 c -3.02787,4.06103 -6.63096,1.71517 -6,-2 l 1,-19 c 0.26206,-4.9791 4.014,-9 9,-9 z"
         style="opacity:0.2;fill:#000000;fill-opacity:1;filter:url(#filter4310)"
         clip-path="url(#clipPath4327)"
         transform="translate(8,0)" />
      <path
         style="fill:#5f7c8a;fill-opacity:1"
         d="m 158,246 20,0 c 4.986,0 9,4.014 9,9 0,2.28503 -0.84305,4.36591 -2.23636,5.94984 C 183.11671,262.82209 180.70097,264 178,264 l -16,0 -8,12 c -3.02787,4.06103 -6.63096,1.71517 -6,-2 l 1,-19 c 0.26206,-4.9791 4.014,-9 9,-9 z"
         id="rect4196"
         inkscape:connector-curvature="0"
         sodipodi:nodetypes="ssssscccss" />
      <g
         id="g4664">
        <circle
           r="1.5"
           cy="256.5"
           cx="174.5"
           id="circle4360"
           style="display:inline;opacity:0.2;fill:#000000;fill-opacity:1;enable-background:new" />
        <circle
           style="display:inline;opacity:0.2;fill:#000000;fill-opacity:1;enable-background:new"
           id="circle4362"
           cx="180.5"
           cy="256.5"
           r="1.5" />
        <circle
           transform="matrix(0,1,-1,0,8,0)"
           style="display:inline;opacity:0.2;fill:#000000;fill-opacity:1;enable-background:new"
           id="circle4364"
           cx="253.5"
           cy="-169.5"
           r="1.5" />
        <circle
           transform="matrix(0,1,-1,0,8,0)"
           r="1.5"
           cy="-169.5"
           cx="259.5"
           id="circle4366"
           style="display:inline;opacity:0.2;fill:#000000;fill-opacity:1;enable-background:new" />
        <rect
           style="opacity:0.2;fill:#000000;fill-opacity:1;"
           id="rect4356"
           width="3"
           height="9"
           x="157"
           y="252"
           ry="0" />
        <rect
           ry="0"
           y="-155"
           x="255"
           height="9"
           width="3"
           id="rect4358"
           style="opacity:0.2;fill:#000000;fill-opacity:1;"
           transform="matrix(0,1,-1,0,8,0)" />
        <rect
           ry="0"
           y="251"
           x="157"
           height="9"
           width="3"
           id="rect4218"
           style="fill:#ebebeb;fill-opacity:1;" />
        <rect
           transform="matrix(0,1,-1,0,0,0)"
           style="fill:#ebebeb;fill-opacity:1;"
           id="rect4224"
           width="3"
           height="9"
           x="254"
           y="-163"
           ry="0" />
        <circle
           r="1.5"
           cy="255.5"
           cx="174.5"
           id="path4238"
           style="fill:#ebebeb;fill-opacity:1;" />
        <circle
           style="fill:#ebebeb;fill-opacity:1;"
           id="circle4240"
           cx="180.5"
           cy="255.5"
           r="1.5" />
        <circle
           transform="matrix(0,1,-1,0,0,0)"
           style="fill:#ebebeb;fill-opacity:1;"
           id="circle4276"
           cx="252.5"
           cy="-177.5"
           r="1.5" />
        <circle
           transform="matrix(0,1,-1,0,0,0)"
           r="1.5"
           cy="-177.5"
           cx="258.5"
           id="circle4278"
           style="fill:#ebebeb;fill-opacity:1;" />
      </g>
      <path
         inkscape:connector-curvature="0"
         style="opacity:0.2;fill:#ffffff;fill-opacity:1"
         d="m 158,246 c -4.986,0 -8.73794,4.0209 -9,9 l -1,19 c -0.0821,0.48356 -0.0878,0.94113 -0.0371,1.36719 0.0118,-0.1221 0.0158,-0.24178 0.0371,-0.36719 l 1,-19 c 0.26206,-4.9791 4.014,-9 9,-9 l 20,0 c 4.82558,0 8.72962,3.7634 8.97656,8.52539 0.01,-0.17444 0.0234,-0.34836 0.0234,-0.52539 0,-4.986 -4.014,-9 -9,-9 l -20,0 z"
         id="path4472" />
      <path
         sodipodi:nodetypes="ccssccccc"
         inkscape:connector-curvature="0"
         id="path4541"
         d="m 274.32768,-53.73584 1.49624,66.41144 c 1.49616,10.55488 10.22736,29.66088 23.4872,44.73488 C 317.70904,78.326 344.69648,92 374.87,92 l 177.13,0 68.64,88.86272 c 33.51408,44.68544 71.28752,7.89936 67.02816,-22.34272 L 676.49672,-53.73584 Z"
         style="fill:#4c636e;fill-opacity:1" />
      <path
         clip-path="url(#clipPath4327)"
         style="opacity:0.2;fill:#000000;fill-opacity:1;filter:url(#filter4310)"
         d="m 150,246 20,0 c 4.986,0 9,4.014 9,9 0,2.28503 -0.84305,4.36591 -2.23636,5.94984 C 175.11671,262.82209 172.70097,264 170,264 l -16,0 -8,12 c -3.02787,4.06103 -6.63096,1.71517 -6,-2 l 1,-19 c 0.26206,-4.9791 4.014,-9 9,-9 z"
         id="path4543"
         inkscape:connector-curvature="0"
         sodipodi:nodetypes="ssssscccss"
         transform="matrix(11.171362,0,0,11.171362,-1323.1771,-2902.4333)" />
      <path
         sodipodi:nodetypes="sscccccss"
         inkscape:connector-curvature="0"
         id="path4545"
         d="M 352.57272,-156 576,-156 c 55.7004,0 100.49672,46.56368 100.49672,102.26416 C 674.6036,4.67304 626.50968,43.33472 575.95448,44 L 397.21272,44 307.84184,180.86272 C 274.0164,226.23 233.76496,200.02352 240.8136,158.52 L 251.98504,-53.73584 C 254.91256,-109.3592 296.87232,-156 352.57272,-156 Z"
         style="fill:#5f7c8a;fill-opacity:1" />
      <g
         id="g4463"
         transform="translate(0,4)"
         style="fill:#000000;opacity:0.2;filter:url(#filter4491)">
        <rect
           ry="0"
           y="-100.00008"
           x="335.99994"
           height="95.999969"
           width="31.999994"
           id="rect4465"
           style="fill:#000000;fill-opacity:1" />
        <rect
           transform="matrix(0,1,-1,0,0,0)"
           style="fill:#000000;fill-opacity:1"
           id="rect4467"
           width="31.999952"
           height="96.000046"
           x="-68.000031"
           y="-399.99988"
           ry="0" />
      </g>
      <g
         id="g4459">
        <rect
           style="fill:#ebebeb;fill-opacity:1"
           id="rect4563"
           width="31.999994"
           height="95.999969"
           x="335.99994"
           y="-100.00008"
           ry="0" />
        <rect
           ry="0"
           y="-399.99988"
           x="-68.000031"
           height="96.000046"
           width="31.999952"
           id="rect4565"
           style="fill:#ebebeb;fill-opacity:1"
           transform="matrix(0,1,-1,0,0,0)" />
      </g>
      <g
         id="g4473"
         transform="translate(0,4)"
         style="fill:#000000;fill-opacity:1;opacity:0.2;filter:url(#filter4487)">
        <circle
           r="16"
           cy="-52.000179"
           cx="543.99988"
           id="circle4475"
           style="fill:#000000;fill-opacity:1" />
        <circle
           style="fill:#000000;fill-opacity:1"
           id="circle4477"
           cx="575.99994"
           cy="-84.000061"
           r="16" />
        <circle
           r="16"
           cy="-52.000179"
           cx="608"
           id="circle4479"
           style="fill:#000000;fill-opacity:1" />
        <circle
           style="fill:#000000;fill-opacity:1"
           id="circle4481"
           cx="575.99994"
           cy="-19.999964"
           r="16" />
      </g>
      <g
         id="g4453">
        <circle
           style="fill:#ebebeb;fill-opacity:1"
           id="circle4567"
           cx="543.99988"
           cy="-52.000179"
           r="16" />
        <circle
           r="16"
           cy="-84.000061"
           cx="575.99994"
           id="circle4382"
           style="fill:#ebebeb;fill-opacity:1" />
        <circle
           style="fill:#ebebeb;fill-opacity:1"
           id="circle4384"
           cx="608"
           cy="-52.000179"
           r="16" />
        <circle
           r="16"
           cy="-19.999964"
           cx="575.99994"
           id="circle4386"
           style="fill:#ebebeb;fill-opacity:1" />
      </g>
      <path
         style="fill:#ffffff;fill-opacity:1;opacity:0.2"
         d="M 352.57227 88 C 296.87187 88 254.9119 134.64031 251.98438 190.26367 L 240.81445 402.51953 C 240.2031 406.1193 239.95429 409.6007 240.01953 412.93359 C 240.07035 410.21469 240.32436 407.40525 240.81445 404.51953 L 251.98438 192.26367 C 254.9119 136.64031 296.87187 90 352.57227 90 L 576 90 C 631.17416 90 675.64111 135.68954 676.47656 190.68945 C 676.48174 190.54706 676.49147 190.4063 676.49609 190.26367 C 676.49609 134.56319 631.7004 88 576 88 L 352.57227 88 z "
         transform="translate(0,-244)"
         id="path4495" />
      <path
         inkscape:connector-curvature="0"
         id="path4744"
         d="m 58,268 0,2 -2,0 0,2 2,0 0,2 2,0 0,-2 2,0 0,-2 -2,0 0,-2 -2,0 z"
         style="opacity:0.2;fill:#000000;fill-opacity:1" />
      <path
         style="fill:#ebebeb;fill-opacity:1"
         d="m 58,267 0,2 -2,0 0,2 2,0 0,2 2,0 0,-2 2,0 0,-2 -2,0 0,-2 -2,0 z"
         id="rect4694"
         inkscape:connector-curvature="0" />
      <path
         inkscape:connector-curvature="0"
         id="path4746"
         d="m 69,268 a 1,1 0 0 0 -1,1 1,1 0 0 0 1,1 1,1 0 0 0 1,-1 1,1 0 0 0 -1,-1 z m -2,2 a 1,1 0 0 0 -1,1 1,1 0 0 0 1,1 1,1 0 0 0 1,-1 1,1 0 0 0 -1,-1 z m 4,0 a 1,1 0 0 0 -1,1 1,1 0 0 0 1,1 1,1 0 0 0 1,-1 1,1 0 0 0 -1,-1 z m -2,2 a 1,1 0 0 0 -1,1 1,1 0 0 0 1,1 1,1 0 0 0 1,-1 1,1 0 0 0 -1,-1 z"
         style="opacity:0.2;fill:#000000;fill-opacity:1;stroke:none;stroke-width:8;stroke-linecap:round;stroke-linejoin:miter;stroke-miterlimit:4;stroke-dasharray:none;stroke-opacity:1" />
      <path
         style="opacity:1;fill:#ffffff;fill-opacity:1;stroke:none;stroke-width:8;stroke-linecap:round;stroke-linejoin:miter;stroke-miterlimit:4;stroke-dasharray:none;stroke-opacity:1"
         d="m 69,267 a 1,1 0 0 0 -1,1 1,1 0 0 0 1,1 1,1 0 0 0 1,-1 1,1 0 0 0 -1,-1 z m -2,2 a 1,1 0 0 0 -1,1 1,1 0 0 0 1,1 1,1 0 0 0 1,-1 1,1 0 0 0 -1,-1 z m 4,0 a 1,1 0 0 0 -1,1 1,1 0 0 0 1,1 1,1 0 0 0 1,-1 1,1 0 0 0 -1,-1 z m -2,2 a 1,1 0 0 0 -1,1 1,1 0 0 0 1,1 1,1 0 0 0 1,-1 1,1 0 0 0 -1,-1 z"
         id="path4728"
         inkscape:connector-curvature="0" />
      <path
         style="color:#000000;font-style:normal;font-variant:normal;font-weight:normal;font-stretch:normal;font-size:medium;line-height:normal;font-family:sans-serif;text-indent:0;text-align:start;text-decoration:none;text-decoration-line:none;text-decoration-style:solid;text-decoration-color:#000000;letter-spacing:normal;word-spacing:normal;text-transform:none;direction:ltr;block-progression:tb;writing-mode:lr-tb;baseline-shift:baseline;text-anchor:start;white-space:normal;clip-rule:nonzero;display:inline;overflow:visible;visibility:visible;opacity:0.1;isolation:auto;mix-blend-mode:normal;color-interpolation:sRGB;color-interpolation-filters:linearRGB;solid-color:#000000;solid-opacity:1;fill:#ffffff;fill-opacity:1;fill-rule:nonzero;stroke:none;stroke-width:2;stroke-linecap:butt;stroke-linejoin:miter;stroke-miterlimit:4;stroke-dasharray:none;stroke-dashoffset:0;stroke-opacity:1;color-rendering:auto;image-rendering:auto;shape-rendering:auto;text-rendering:auto;enable-background:accumulate"
         d="M 59 508 C 55.690294 508 53.306366 510.72847 53.003906 513.9043 L 52.003906 524.4043 C 51.982942 524.62443 52.00169 524.83331 52.039062 525.03516 L 53.003906 514.9043 C 53.306366 511.72847 55.690294 509 59 509 L 69 509 C 72.13821 509 74.719247 511.42624 74.974609 514.5 C 74.98832 514.33497 75 514.16849 75 514 C 75 510.6933 72.306703 508 69 508 L 59 508 z "
         transform="translate(0,-244)"
         id="path4752" />
    </g>
  </g>
</svg>
