<?xml version="1.0" encoding="UTF-8" standalone="no"?>
<!-- Created with Inkscape (http://www.inkscape.org/) -->

<svg
   xmlns:osb="http://www.openswatchbook.org/uri/2009/osb"
   xmlns:dc="http://purl.org/dc/elements/1.1/"
   xmlns:cc="http://creativecommons.org/ns#"
   xmlns:rdf="http://www.w3.org/1999/02/22-rdf-syntax-ns#"
   xmlns:svg="http://www.w3.org/2000/svg"
   xmlns="http://www.w3.org/2000/svg"
   xmlns:sodipodi="http://sodipodi.sourceforge.net/DTD/sodipodi-0.dtd"
   xmlns:inkscape="http://www.inkscape.org/namespaces/inkscape"
   inkscape:export-ydpi="90.000000"
   inkscape:export-xdpi="90.000000"
   width="600"
   height="224"
   id="svg11300"
   sodipodi:version="0.32"
   inkscape:version="0.91 r"
   sodipodi:docname="network-wired.svg"
   inkscape:output_extension="org.inkscape.output.svg.inkscape"
   version="1.0"
   style="display:inline;enable-background:new"
   inkscape:export-filename="/home/sam/paper-template.png">
  <title
     id="title3004">Paper Icon Theme Template</title>
  <sodipodi:namedview
     stroke="#ef2929"
     fill="#f57900"
     id="base"
     pagecolor="#a6a6a6"
     bordercolor="#666666"
     borderopacity="0.25490196"
     inkscape:pageopacity="0"
     inkscape:pageshadow="2"
     inkscape:zoom="1"
     inkscape:cx="192.41188"
     inkscape:cy="39.259321"
     inkscape:current-layer="layer6"
     showgrid="false"
     inkscape:grid-bbox="true"
     inkscape:document-units="px"
     inkscape:showpageshadow="false"
     inkscape:window-width="1366"
     inkscape:window-height="710"
     inkscape:window-x="0"
     inkscape:window-y="28"
     width="400px"
     height="300px"
     inkscape:snap-nodes="true"
     inkscape:snap-bbox="true"
     gridtolerance="10000"
     inkscape:object-nodes="true"
     inkscape:snap-grids="true"
     showguides="true"
     inkscape:guide-bbox="true"
     inkscape:window-maximized="1"
     inkscape:bbox-nodes="true"
     inkscape:snap-bbox-edge-midpoints="true">
    <inkscape:grid
       spacingy="1px"
       spacingx="1px"
       id="grid5883"
       type="xygrid"
       enabled="true"
       visible="true"
       empspacing="4"
       snapvisiblegridlinesonly="true" />
    <inkscape:grid
       type="xygrid"
       id="grid11592"
       empspacing="2"
       visible="true"
       enabled="false"
       spacingx="0.5px"
       spacingy="0.5px"
       color="#ff0000"
       opacity="0.1254902"
       empcolor="#ff0000"
       empopacity="0.25098039"
       snapvisiblegridlinesonly="true" />
    <sodipodi:guide
       orientation="0,1"
       position="0,224"
       id="guide4275" />
  </sodipodi:namedview>
  <defs
     id="defs3">
    <linearGradient
       osb:paint="solid"
       id="linearGradient5606">
      <stop
         style="stop-color:#000000;stop-opacity:1;"
         offset="0"
         id="stop5608" />
    </linearGradient>
    <clipPath
       clipPathUnits="userSpaceOnUse"
       id="clipPath4617">
      <path
         inkscape:connector-curvature="0"
         d="m 212,237 40,0 0,28 -8,0 -4,4 -16,0 -4,-4 -8,0 z"
         id="path4619"
         sodipodi:nodetypes="ccccccccc"
         style="opacity:1;fill:#3f3f3f;fill-opacity:1;stroke:none;stroke-width:2;stroke-linecap:round;stroke-linejoin:round;stroke-miterlimit:4;stroke-dasharray:none;stroke-opacity:1" />
    </clipPath>
    <filter
       inkscape:collect="always"
       style="color-interpolation-filters:sRGB"
       id="filter4627"
       x="-0.055714286"
       width="1.1114286"
       y="-0.065"
       height="1.13">
      <feGaussianBlur
         inkscape:collect="always"
         stdDeviation="0.65"
         id="feGaussianBlur4629" />
    </filter>
    <filter
       inkscape:collect="always"
       style="color-interpolation-filters:sRGB"
       id="filter4633"
       x="-0.055714286"
       width="1.1114286"
       y="-0.065"
       height="1.13">
      <feGaussianBlur
         inkscape:collect="always"
         stdDeviation="1.3"
         id="feGaussianBlur4635" />
    </filter>
  </defs>
  <metadata
     id="metadata4">
    <rdf:RDF>
      <cc:Work
         rdf:about="">
        <dc:format>image/svg+xml</dc:format>
        <dc:type
           rdf:resource="http://purl.org/dc/dcmitype/StillImage" />
        <dc:creator>
          <cc:Agent>
            <dc:title>Sam Hewitt</dc:title>
          </cc:Agent>
        </dc:creator>
        <dc:source />
        <cc:license
           rdf:resource="http://creativecommons.org/licenses/by-nc-sa/3.0/" />
        <dc:title>Paper Icon Theme Template</dc:title>
        <dc:subject>
          <rdf:Bag />
        </dc:subject>
        <dc:date />
        <dc:rights>
          <cc:Agent>
            <dc:title />
          </cc:Agent>
        </dc:rights>
        <dc:publisher>
          <cc:Agent>
            <dc:title />
          </cc:Agent>
        </dc:publisher>
        <dc:identifier />
        <dc:relation />
        <dc:language />
        <dc:coverage />
        <dc:description />
        <dc:contributor>
          <cc:Agent>
            <dc:title />
          </cc:Agent>
        </dc:contributor>
      </cc:Work>
      <cc:Work
         rdf:about="">
        <dc:format>image/svg+xml</dc:format>
        <dc:type
           rdf:resource="http://purl.org/dc/dcmitype/StillImage" />
      </cc:Work>
      <cc:License
         rdf:about="http://creativecommons.org/licenses/by-nc-sa/3.0/">
        <cc:permits
           rdf:resource="http://creativecommons.org/ns#Reproduction" />
        <cc:permits
           rdf:resource="http://creativecommons.org/ns#Distribution" />
        <cc:requires
           rdf:resource="http://creativecommons.org/ns#Notice" />
        <cc:requires
           rdf:resource="http://creativecommons.org/ns#Attribution" />
        <cc:prohibits
           rdf:resource="http://creativecommons.org/ns#CommercialUse" />
        <cc:permits
           rdf:resource="http://creativecommons.org/ns#DerivativeWorks" />
        <cc:requires
           rdf:resource="http://creativecommons.org/ns#ShareAlike" />
      </cc:License>
    </rdf:RDF>
  </metadata>
  <g
     style="display:inline"
     inkscape:groupmode="layer"
     inkscape:label="Icon"
     id="layer1"
     transform="translate(0,-76)">
    <g
       style="display:none"
       inkscape:label="Baseplate"
       id="layer7"
       inkscape:groupmode="layer">
      <text
         y="59.745117"
         xml:space="preserve"
         x="15.006836"
         style="font-style:normal;font-variant:normal;font-weight:normal;font-stretch:normal;font-size:18px;font-family:'DejaVu Sans';-inkscape-font-specification:'DejaVu Sans';display:inline;fill:#000000;fill-opacity:1;stroke:none;enable-background:new"
         inkscape:label="context"
         id="context"><tspan
           style="font-style:normal;font-variant:normal;font-weight:normal;font-stretch:normal;font-family:'DejaVu Sans';-inkscape-font-specification:'DejaVu Sans'"
           y="59.745117"
           x="15.006836"
           sodipodi:role="line"
           id="tspan3933">devices</tspan></text>
      <text
         y="59.745117"
         xml:space="preserve"
         x="142.48828"
         style="font-style:normal;font-variant:normal;font-weight:bold;font-stretch:normal;font-size:18px;line-height:125%;font-family:'DejaVu Sans';-inkscape-font-specification:'DejaVu Sans Bold';text-align:start;writing-mode:lr-tb;text-anchor:start;display:inline;fill:#000000;fill-opacity:1;stroke:none;enable-background:new"
         sodipodi:linespacing="125%"
         inkscape:label="icon-name"
         id="icon-name"><tspan
           style="font-style:normal;font-variant:normal;font-weight:bold;font-stretch:normal;font-size:18px;font-family:'DejaVu Sans';-inkscape-font-specification:'DejaVu Sans Bold'"
           y="59.745117"
           x="142.48828"
           sodipodi:role="line"
           id="tspan4607">network-wired</tspan></text>
      <rect
         style="display:inline;overflow:visible;visibility:visible;fill:#e9e9e9;fill-opacity:1;fill-rule:nonzero;stroke:none;stroke-width:2;marker:none;enable-background:accumulate"
         id="rect16x16"
         width="16"
         height="16"
         x="-32"
         y="268"
         inkscape:label="16x16"
         transform="scale(-1,1)" />
      <rect
         style="display:inline;overflow:visible;visibility:visible;fill:#e9e9e9;fill-opacity:1;fill-rule:nonzero;stroke:none;stroke-width:2;marker:none;enable-background:accumulate"
         id="rect24x24"
         width="24"
         height="24"
         x="-72"
         y="260"
         inkscape:label="24x24"
         transform="scale(-1,1)" />
      <rect
         style="display:inline;overflow:visible;visibility:visible;fill:#e9e9e9;fill-opacity:1;fill-rule:nonzero;stroke:none;stroke-width:2;marker:none;enable-background:accumulate"
         id="rect32x32"
         width="32"
         height="32"
         x="-120"
         y="252"
         inkscape:label="32x32"
         transform="scale(-1,1)" />
      <rect
         inkscape:label="48x48"
         y="236"
         x="-184"
         height="48"
         width="48"
         id="rect48x48"
         style="display:inline;overflow:visible;visibility:visible;fill:#e9e9e9;fill-opacity:1;fill-rule:nonzero;stroke:none;stroke-width:2;marker:none;enable-background:accumulate"
         transform="scale(-1,1)" />
      <rect
         style="display:inline;overflow:visible;visibility:visible;fill:#e9e9e9;fill-opacity:1;fill-rule:nonzero;stroke:none;stroke-width:2;marker:none;enable-background:accumulate"
         id="rect256x256"
         width="192"
         height="192"
         x="-584"
         y="92"
         inkscape:label="256x256"
         transform="scale(-1,1)" />
      <rect
         inkscape:label="256x256"
         y="188"
         x="-376"
         height="96"
         width="96"
         id="rect3949"
         style="display:inline;overflow:visible;visibility:visible;fill:#e9e9e9;fill-opacity:1;fill-rule:nonzero;stroke:none;stroke-width:2;marker:none;enable-background:accumulate"
         transform="scale(-1,1)" />
      <rect
         style="display:inline;overflow:visible;visibility:visible;fill:#e9e9e9;fill-opacity:1;fill-rule:nonzero;stroke:none;stroke-width:2;marker:none;enable-background:accumulate"
         id="rect3951"
         width="64"
         height="64"
         x="-264"
         y="220"
         inkscape:label="48x48"
         transform="scale(-1,1)" />
    </g>
    <g
       inkscape:groupmode="layer"
       id="layer6"
       inkscape:label="Symbols"
       style="display:inline">
      <path
         style="opacity:0.5;fill:#000000;fill-opacity:1;stroke:none;stroke-width:2;stroke-linecap:round;stroke-linejoin:round;stroke-miterlimit:4;stroke-dasharray:none;stroke-opacity:1;filter:url(#filter4633)"
         sodipodi:nodetypes="cssccccccsscc"
         id="path4631"
         d="m 208,230 c 0,0 -4,0 -4,4 l 0,36 c 0,4 4,4 4,4 l 8,0 4,4 24,0 4,-4 8,0 c 0,0 4,0.51976 4,-4 l 0,-36 c 0,-4 -4,-4 -4,-4 z"
         inkscape:connector-curvature="0" />
      <path
         inkscape:connector-curvature="0"
         d="m 92,258 c 0,0 -2,0 -2,2 l 0,18 c 0,2 2,2 2,2 l 4,0 2,2 12,0 2,-2 4,0 c 0,0 2,0.25988 2,-2 l 0,-18 c 0,-2 -2,-2 -2,-2 z"
         id="path4625"
         sodipodi:nodetypes="cssccccccsscc"
         style="opacity:0.5;fill:#000000;fill-opacity:1;stroke:none;stroke-width:2;stroke-linecap:round;stroke-linejoin:round;stroke-miterlimit:4;stroke-dasharray:none;stroke-opacity:1;filter:url(#filter4627)" />
      <path
         style="opacity:1;fill:#ebebeb;fill-opacity:1;stroke:none;stroke-width:2;stroke-linecap:round;stroke-linejoin:round;stroke-miterlimit:4;stroke-dasharray:none;stroke-opacity:1"
         sodipodi:nodetypes="cssccccccsscc"
         id="path4601"
         d="m 92,257 c 0,0 -2,0 -2,2 l 0,18 c 0,2 2,2 2,2 l 4,0 2,2 12,0 2,-2 4,0 c 0,0 2,0.25988 2,-2 l 0,-18 c 0,-2 -2,-2 -2,-2 z"
         inkscape:connector-curvature="0" />
      <rect
         ry="8"
         rx="8"
         y="-568"
         x="-268"
         height="160"
         width="160"
         id="rect4189"
         style="fill:#cccccc;fill-opacity:1;stroke:none"
         transform="matrix(0,-1,-1,0,0,0)" />
      <circle
         id="path4191"
         style="opacity:0.2;fill:#000000;fill-opacity:1;stroke:none"
         cx="560"
         cy="116"
         r="8" />
      <circle
         style="opacity:0.2;fill:#000000;fill-opacity:1;stroke:none"
         id="path4193"
         cx="416"
         cy="260"
         r="8" />
      <circle
         transform="scale(1,-1)"
         style="opacity:0.2;fill:#000000;fill-opacity:1;stroke:none"
         id="path4195"
         cx="560"
         cy="-260"
         r="8" />
      <circle
         id="path4197"
         style="opacity:0.2;fill:#000000;fill-opacity:1;stroke:none"
         transform="scale(1,-1)"
         cx="416"
         cy="-116"
         r="8" />
      <rect
         transform="matrix(0,-1,-1,0,0,0)"
         style="fill:#cccccc;fill-opacity:1;stroke:none"
         id="rect4203"
         width="40"
         height="40"
         x="-280"
         y="-180"
         rx="2"
         ry="2" />
      <circle
         style="opacity:0.2;fill:#000000;fill-opacity:1;stroke:none"
         id="path4205"
         cx="178"
         cy="242"
         r="2" />
      <circle
         id="path4207"
         style="opacity:0.2;fill:#000000;fill-opacity:1;stroke:none"
         cx="142"
         cy="278"
         r="2" />
      <circle
         id="path4209"
         style="opacity:0.2;fill:#000000;fill-opacity:1;stroke:none"
         transform="scale(1,-1)"
         cx="178"
         cy="-278"
         r="2" />
      <circle
         transform="scale(1,-1)"
         style="opacity:0.2;fill:#000000;fill-opacity:1;stroke:none"
         id="path4211"
         cx="142"
         cy="-242"
         r="2" />
      <rect
         transform="matrix(0,-1,-1,0,0,0)"
         style="fill:#cccccc;fill-opacity:1;stroke:none"
         id="rect4217"
         width="80"
         height="80"
         x="-276"
         y="-368"
         rx="4"
         ry="4" />
      <circle
         style="opacity:0.2;fill:#000000;fill-opacity:1;stroke:none"
         id="path4219"
         cx="364"
         cy="200"
         r="4" />
      <circle
         id="path4221"
         style="opacity:0.2;fill:#000000;fill-opacity:1;stroke:none"
         cx="292"
         cy="272"
         r="4" />
      <circle
         id="path4223"
         style="opacity:0.2;fill:#000000;fill-opacity:1;stroke:none"
         transform="scale(1,-1)"
         cx="364"
         cy="-272"
         r="4" />
      <circle
         transform="scale(1,-1)"
         style="opacity:0.2;fill:#000000;fill-opacity:1;stroke:none"
         id="path4225"
         cx="292"
         cy="-200"
         r="4" />
      <path
         inkscape:connector-curvature="0"
         d="m 18,270 c 0,0 -1,0 -1,1 l 0,9 c 0,1 1,1 1,1 l 2,0 1,1 6,0 1,-1 2,0 c 0,0 1,0.12994 1,-1 l 0,-9 c 0,-1 -1,-1 -1,-1 z"
         id="path6542"
         sodipodi:nodetypes="cssccccccsscc"
         style="opacity:1;fill:#ebebeb;fill-opacity:1;stroke:none;stroke-width:2;stroke-linecap:round;stroke-linejoin:round;stroke-miterlimit:4;stroke-dasharray:none;stroke-opacity:1" />
      <path
         inkscape:connector-curvature="0"
         d="m 208,229 c 0,0 -4,0 -4,4 l 0,36 c 0,4 4,4 4,4 l 8,0 4,4 24,0 4,-4 8,0 c 0,0 4,0.51976 4,-4 l 0,-36 c 0,-4 -4,-4 -4,-4 z"
         id="path4603"
         sodipodi:nodetypes="cssccccccsscc"
         style="opacity:1;fill:#ebebeb;fill-opacity:1;stroke:none;stroke-width:2;stroke-linecap:round;stroke-linejoin:round;stroke-miterlimit:4;stroke-dasharray:none;stroke-opacity:1" />
      <path
         style="opacity:1;fill:#ebebeb;fill-opacity:1;stroke:none;stroke-width:2;stroke-linecap:round;stroke-linejoin:round;stroke-miterlimit:4;stroke-dasharray:none;stroke-opacity:1"
         sodipodi:nodetypes="cssccccccssccccccccccc"
         id="path4605"
         d="m 53,264 c 0,0 -2.194097,0 -2.176777,2.14905 l 0.08839,10.96707 C 50.926795,278.99999 53,279 53,279 l 1,0 1,1 10,0 1,-1 1,0 c 0,0 1.985175,0 2,-1.88388 l 0.08839,-11.23224 C 69.103213,264.00001 67,264 67,264 Z m 1,3 12,0 0,9 -2,0 -1,1 -6,0 -1,-1 -2,0 z"
         inkscape:connector-curvature="0" />
      <path
         style="opacity:1;fill:#3f3f3f;fill-opacity:1;stroke:none;stroke-width:2;stroke-linecap:round;stroke-linejoin:round;stroke-miterlimit:4;stroke-dasharray:none;stroke-opacity:1"
         sodipodi:nodetypes="ccccccccc"
         id="path4611"
         d="m 212,237 40,0 0,28 -8,0 -4,4 -16,0 -4,-4 -8,0 z"
         inkscape:connector-curvature="0" />
      <path
         inkscape:connector-curvature="0"
         d="m 94,261 20,0 0,14 -4,0 -2,2 -8,0 -2,-2 -4,0 z"
         id="path4621"
         sodipodi:nodetypes="ccccccccc"
         style="opacity:1;fill:#3f3f3f;fill-opacity:1;stroke:none;stroke-width:2;stroke-linecap:round;stroke-linejoin:round;stroke-miterlimit:4;stroke-dasharray:none;stroke-opacity:1" />
      <path
         style="opacity:1;fill:#3f3f3f;fill-opacity:1;stroke:none;stroke-width:2;stroke-linecap:round;stroke-linejoin:round;stroke-miterlimit:4;stroke-dasharray:none;stroke-opacity:1"
         sodipodi:nodetypes="ccccccccc"
         id="path4623"
         d="m 19,272 10,0 0,7 -2,0 -1,1 -4,0 -1,-1 -2,0 z"
         inkscape:connector-curvature="0" />
      <path
         style="opacity:0.1;fill:#ffffff;fill-opacity:1;stroke:none;stroke-width:2;stroke-linecap:round;stroke-linejoin:round;stroke-miterlimit:4;stroke-dasharray:none;stroke-opacity:1"
         d="M 92 181 C 92 181 90 181 90 183 L 90 184 C 90 182 92 182 92 182 L 116 182 C 116 182 118 182 118 184 L 118 183 C 118 181 116 181 116 181 L 92 181 z "
         transform="translate(0,76)"
         id="path4637" />
      <path
         style="opacity:0.1;fill:#ffffff;fill-opacity:1;stroke:none;stroke-width:2;stroke-linecap:round;stroke-linejoin:round;stroke-miterlimit:4;stroke-dasharray:none;stroke-opacity:1"
         d="M 208 153 C 208 153 204 153 204 157 L 204 158 C 204 154 208 154 208 154 L 256 154 C 256 154 260 154 260 158 L 260 157 C 260 153 256 153 256 153 L 208 153 z "
         transform="translate(0,76)"
         id="path4639" />
    </g>
  </g>
</svg>
