<?xml version="1.0" encoding="UTF-8" standalone="no"?>
<!-- Created with Inkscape (http://www.inkscape.org/) -->

<svg
   xmlns:osb="http://www.openswatchbook.org/uri/2009/osb"
   xmlns:dc="http://purl.org/dc/elements/1.1/"
   xmlns:cc="http://creativecommons.org/ns#"
   xmlns:rdf="http://www.w3.org/1999/02/22-rdf-syntax-ns#"
   xmlns:svg="http://www.w3.org/2000/svg"
   xmlns="http://www.w3.org/2000/svg"
   xmlns:sodipodi="http://sodipodi.sourceforge.net/DTD/sodipodi-0.dtd"
   xmlns:inkscape="http://www.inkscape.org/namespaces/inkscape"
   inkscape:export-ydpi="90.000000"
   inkscape:export-xdpi="90.000000"
   width="600"
   height="224"
   id="svg11300"
   sodipodi:version="0.32"
   inkscape:version="0.91 r"
   sodipodi:docname="network-wireless.svg"
   inkscape:output_extension="org.inkscape.output.svg.inkscape"
   version="1.0"
   style="display:inline;enable-background:new"
   inkscape:export-filename="/home/sam/paper-template.png">
  <title
     id="title3004">Paper Icon Theme Template</title>
  <sodipodi:namedview
     stroke="#ef2929"
     fill="#f57900"
     id="base"
     pagecolor="#474747"
     bordercolor="#666666"
     borderopacity="0.25490196"
     inkscape:pageopacity="0"
     inkscape:pageshadow="2"
     inkscape:zoom="1"
     inkscape:cx="50.291815"
     inkscape:cy="35.961512"
     inkscape:current-layer="layer6"
     showgrid="false"
     inkscape:grid-bbox="true"
     inkscape:document-units="px"
     inkscape:showpageshadow="false"
     inkscape:window-width="1366"
     inkscape:window-height="710"
     inkscape:window-x="0"
     inkscape:window-y="28"
     width="400px"
     height="300px"
     inkscape:snap-nodes="true"
     inkscape:snap-bbox="true"
     gridtolerance="10000"
     inkscape:object-nodes="true"
     inkscape:snap-grids="true"
     showguides="true"
     inkscape:guide-bbox="true"
     inkscape:window-maximized="1"
     inkscape:bbox-nodes="true"
     inkscape:snap-bbox-edge-midpoints="true">
    <inkscape:grid
       spacingy="1px"
       spacingx="1px"
       id="grid5883"
       type="xygrid"
       enabled="true"
       visible="true"
       empspacing="4"
       snapvisiblegridlinesonly="true" />
    <inkscape:grid
       type="xygrid"
       id="grid11592"
       empspacing="2"
       visible="true"
       enabled="false"
       spacingx="0.5px"
       spacingy="0.5px"
       color="#ff0000"
       opacity="0.1254902"
       empcolor="#ff0000"
       empopacity="0.25098039"
       snapvisiblegridlinesonly="true" />
    <sodipodi:guide
       orientation="0,1"
       position="0,224"
       id="guide4275" />
  </sodipodi:namedview>
  <defs
     id="defs3">
    <linearGradient
       osb:paint="solid"
       id="linearGradient5606">
      <stop
         style="stop-color:#000000;stop-opacity:1;"
         offset="0"
         id="stop5608" />
    </linearGradient>
    <filter
       inkscape:collect="always"
       style="color-interpolation-filters:sRGB"
       id="filter5060"
       x="-0.10272255"
       width="1.2054451"
       y="-0.14426464"
       height="1.2885293">
      <feGaussianBlur
         inkscape:collect="always"
         stdDeviation="1.442647"
         id="feGaussianBlur5062" />
    </filter>
    <filter
       inkscape:collect="always"
       style="color-interpolation-filters:sRGB"
       id="filter5064"
       x="-0.13696335"
       width="1.2739267"
       y="-0.19235283"
       height="1.3847057">
      <feGaussianBlur
         inkscape:collect="always"
         stdDeviation="1.442647"
         id="feGaussianBlur5066" />
    </filter>
    <filter
       inkscape:collect="always"
       style="color-interpolation-filters:sRGB"
       id="filter5068"
       x="-0.20544503"
       width="1.4108901"
       y="-0.28852964"
       height="1.5770593">
      <feGaussianBlur
         inkscape:collect="always"
         stdDeviation="1.442647"
         id="feGaussianBlur5070" />
    </filter>
    <clipPath
       clipPathUnits="userSpaceOnUse"
       id="clipPath5078">
      <path
         inkscape:connector-curvature="0"
         d="m 160,246.99997 c -7.91339,0 -15.03704,2.81174 -20.94497,7.17182 L 160,276.99121 180.78197,254.09029 C 174.89688,249.77862 167.85262,246.99997 160,246.99997 Z"
         id="path5080"
         sodipodi:nodetypes="scccs"
         style="color:#000000;display:inline;overflow:visible;visibility:visible;opacity:1;fill:#2095f2;fill-opacity:1;fill-rule:nonzero;stroke:none;stroke-width:1;marker:none;enable-background:accumulate" />
    </clipPath>
    <clipPath
       clipPathUnits="userSpaceOnUse"
       id="clipPath5085">
      <path
         inkscape:connector-curvature="0"
         d="m 160,246.99997 c -7.91339,0 -15.03704,2.81174 -20.94497,7.17182 L 160,276.99121 180.78197,254.09029 C 174.89688,249.77862 167.85262,246.99997 160,246.99997 Z"
         id="path5087"
         sodipodi:nodetypes="scccs"
         style="color:#000000;display:inline;overflow:visible;visibility:visible;opacity:1;fill:#2095f2;fill-opacity:1;fill-rule:nonzero;stroke:none;stroke-width:1;marker:none;enable-background:accumulate" />
    </clipPath>
    <clipPath
       clipPathUnits="userSpaceOnUse"
       id="clipPath5091">
      <path
         inkscape:connector-curvature="0"
         d="m 160,246.99997 c -7.91339,0 -15.03704,2.81174 -20.94497,7.17182 L 160,276.99121 180.78197,254.09029 C 174.89688,249.77862 167.85262,246.99997 160,246.99997 Z"
         id="path5093"
         sodipodi:nodetypes="scccs"
         style="color:#000000;display:inline;overflow:visible;visibility:visible;opacity:1;fill:#2095f2;fill-opacity:1;fill-rule:nonzero;stroke:none;stroke-width:1;marker:none;enable-background:accumulate" />
    </clipPath>
    <filter
       inkscape:collect="always"
       style="color-interpolation-filters:sRGB"
       id="filter5097"
       x="-0.051562501"
       width="1.103125"
       y="-0.071739128"
       height="1.1434783">
      <feGaussianBlur
         inkscape:collect="always"
         stdDeviation="0.89647725"
         id="feGaussianBlur5099" />
    </filter>
    <filter
       inkscape:collect="always"
       style="color-interpolation-filters:sRGB"
       id="filter5128"
       x="-0.051562501"
       width="1.103125"
       y="-0.071739128"
       height="1.1434783">
      <feGaussianBlur
         inkscape:collect="always"
         stdDeviation="0.89647725"
         id="feGaussianBlur5130" />
    </filter>
  </defs>
  <metadata
     id="metadata4">
    <rdf:RDF>
      <cc:Work
         rdf:about="">
        <dc:format>image/svg+xml</dc:format>
        <dc:type
           rdf:resource="http://purl.org/dc/dcmitype/StillImage" />
        <dc:creator>
          <cc:Agent>
            <dc:title>Sam Hewitt</dc:title>
          </cc:Agent>
        </dc:creator>
        <dc:source />
        <cc:license
           rdf:resource="http://creativecommons.org/licenses/by-nc-sa/3.0/" />
        <dc:title>Paper Icon Theme Template</dc:title>
        <dc:subject>
          <rdf:Bag />
        </dc:subject>
        <dc:date />
        <dc:rights>
          <cc:Agent>
            <dc:title />
          </cc:Agent>
        </dc:rights>
        <dc:publisher>
          <cc:Agent>
            <dc:title />
          </cc:Agent>
        </dc:publisher>
        <dc:identifier />
        <dc:relation />
        <dc:language />
        <dc:coverage />
        <dc:description />
        <dc:contributor>
          <cc:Agent>
            <dc:title />
          </cc:Agent>
        </dc:contributor>
      </cc:Work>
      <cc:Work
         rdf:about="">
        <dc:format>image/svg+xml</dc:format>
        <dc:type
           rdf:resource="http://purl.org/dc/dcmitype/StillImage" />
      </cc:Work>
      <cc:License
         rdf:about="http://creativecommons.org/licenses/by-nc-sa/3.0/">
        <cc:permits
           rdf:resource="http://creativecommons.org/ns#Reproduction" />
        <cc:permits
           rdf:resource="http://creativecommons.org/ns#Distribution" />
        <cc:requires
           rdf:resource="http://creativecommons.org/ns#Notice" />
        <cc:requires
           rdf:resource="http://creativecommons.org/ns#Attribution" />
        <cc:prohibits
           rdf:resource="http://creativecommons.org/ns#CommercialUse" />
        <cc:permits
           rdf:resource="http://creativecommons.org/ns#DerivativeWorks" />
        <cc:requires
           rdf:resource="http://creativecommons.org/ns#ShareAlike" />
      </cc:License>
    </rdf:RDF>
  </metadata>
  <g
     style="display:inline"
     inkscape:groupmode="layer"
     inkscape:label="Icon"
     id="layer1"
     transform="translate(0,-76)">
    <g
       style="display:none"
       inkscape:label="Baseplate"
       id="layer7"
       inkscape:groupmode="layer">
      <text
         y="59.745117"
         xml:space="preserve"
         x="15.006836"
         style="font-style:normal;font-variant:normal;font-weight:normal;font-stretch:normal;font-size:18px;font-family:'DejaVu Sans';-inkscape-font-specification:'DejaVu Sans';display:inline;fill:#000000;fill-opacity:1;stroke:none;enable-background:new"
         inkscape:label="context"
         id="context"><tspan
           style="font-style:normal;font-variant:normal;font-weight:normal;font-stretch:normal;font-family:'DejaVu Sans';-inkscape-font-specification:'DejaVu Sans'"
           y="59.745117"
           x="15.006836"
           sodipodi:role="line"
           id="tspan3933">devices</tspan></text>
      <text
         y="59.745117"
         xml:space="preserve"
         x="142.48828"
         style="font-style:normal;font-variant:normal;font-weight:bold;font-stretch:normal;font-size:18px;line-height:125%;font-family:'DejaVu Sans';-inkscape-font-specification:'DejaVu Sans Bold';text-align:start;writing-mode:lr-tb;text-anchor:start;display:inline;fill:#000000;fill-opacity:1;stroke:none;enable-background:new"
         sodipodi:linespacing="125%"
         inkscape:label="icon-name"
         id="icon-name"><tspan
           style="font-style:normal;font-variant:normal;font-weight:bold;font-stretch:normal;font-size:18px;font-family:'DejaVu Sans';-inkscape-font-specification:'DejaVu Sans Bold'"
           y="59.745117"
           x="142.48828"
           sodipodi:role="line"
           id="tspan3937">network-wireless</tspan></text>
      <rect
         style="display:inline;overflow:visible;visibility:visible;fill:#e9e9e9;fill-opacity:1;fill-rule:nonzero;stroke:none;stroke-width:2;marker:none;enable-background:accumulate"
         id="rect16x16"
         width="16"
         height="16"
         x="-32"
         y="268"
         inkscape:label="16x16"
         transform="scale(-1,1)" />
      <rect
         style="display:inline;overflow:visible;visibility:visible;fill:#e9e9e9;fill-opacity:1;fill-rule:nonzero;stroke:none;stroke-width:2;marker:none;enable-background:accumulate"
         id="rect24x24"
         width="24"
         height="24"
         x="-72"
         y="260"
         inkscape:label="24x24"
         transform="scale(-1,1)" />
      <rect
         style="display:inline;overflow:visible;visibility:visible;fill:#e9e9e9;fill-opacity:1;fill-rule:nonzero;stroke:none;stroke-width:2;marker:none;enable-background:accumulate"
         id="rect32x32"
         width="32"
         height="32"
         x="-120"
         y="252"
         inkscape:label="32x32"
         transform="scale(-1,1)" />
      <rect
         inkscape:label="48x48"
         y="236"
         x="-184"
         height="48"
         width="48"
         id="rect48x48"
         style="display:inline;overflow:visible;visibility:visible;fill:#e9e9e9;fill-opacity:1;fill-rule:nonzero;stroke:none;stroke-width:2;marker:none;enable-background:accumulate"
         transform="scale(-1,1)" />
      <rect
         style="display:inline;overflow:visible;visibility:visible;fill:#e9e9e9;fill-opacity:1;fill-rule:nonzero;stroke:none;stroke-width:2;marker:none;enable-background:accumulate"
         id="rect256x256"
         width="192"
         height="192"
         x="-584"
         y="92"
         inkscape:label="256x256"
         transform="scale(-1,1)" />
      <rect
         inkscape:label="256x256"
         y="188"
         x="-376"
         height="96"
         width="96"
         id="rect3949"
         style="display:inline;overflow:visible;visibility:visible;fill:#e9e9e9;fill-opacity:1;fill-rule:nonzero;stroke:none;stroke-width:2;marker:none;enable-background:accumulate"
         transform="scale(-1,1)" />
      <rect
         style="display:inline;overflow:visible;visibility:visible;fill:#e9e9e9;fill-opacity:1;fill-rule:nonzero;stroke:none;stroke-width:2;marker:none;enable-background:accumulate"
         id="rect3951"
         width="64"
         height="64"
         x="-264"
         y="220"
         inkscape:label="48x48"
         transform="scale(-1,1)" />
      <g
         id="layer1-1"
         inkscape:label="places"
         style="display:inline"
         transform="translate(322.49999,-78.49832)" />
      <g
         id="layer14"
         inkscape:label="mimetypes"
         style="display:inline"
         transform="translate(81.49979,538.50168)" />
      <g
         id="layer15"
         inkscape:label="emblems"
         style="display:inline"
         transform="translate(81.49979,538.50168)" />
      <g
         id="g71291"
         inkscape:label="emotes"
         style="display:inline"
         transform="translate(81.49979,538.50168)" />
      <g
         id="layer2"
         inkscape:label="categories"
         style="display:inline"
         transform="translate(322.49999,71.501679)" />
      <g
         id="g6058"
         inkscape:label="apps"
         style="display:inline"
         transform="translate(322.49999,71.501679)" />
      <g
         id="layer12"
         inkscape:label="actions"
         style="display:inline"
         transform="translate(81.49979,538.50168)" />
    </g>
    <g
       inkscape:groupmode="layer"
       id="layer6"
       inkscape:label="Symbols"
       style="display:inline">
      <path
         inkscape:connector-curvature="0"
         d="m 160,247.99997 c -7.91339,0 -15.03704,2.81174 -20.94497,7.17182 L 160,277.99121 180.78197,255.09029 C 174.89688,250.77862 167.85262,247.99997 160,247.99997 Z"
         id="path5095"
         sodipodi:nodetypes="scccs"
         style="color:#000000;display:inline;overflow:visible;visibility:visible;opacity:0.5;fill:#000000;fill-opacity:1;fill-rule:nonzero;stroke:none;stroke-width:1;marker:none;filter:url(#filter5097);enable-background:accumulate" />
      <rect
         ry="3"
         rx="3"
         y="-260"
         x="-280"
         height="56"
         width="56"
         id="rect4229"
         style="fill:#cccccc;fill-opacity:1;stroke:none"
         transform="matrix(0,-1,-1,0,0,0)" />
      <circle
         r="3"
         cy="227"
         cx="257"
         id="path4231"
         style="opacity:0.2;fill:#000000;fill-opacity:1;stroke:none" />
      <circle
         r="3"
         cy="227"
         cx="207"
         style="opacity:0.2;fill:#000000;fill-opacity:1;stroke:none"
         id="path4233" />
      <circle
         r="3"
         cy="277"
         cx="207"
         id="path4235"
         style="opacity:0.2;fill:#000000;fill-opacity:1;stroke:none" />
      <circle
         r="3"
         cy="277"
         cx="257"
         style="opacity:0.2;fill:#000000;fill-opacity:1;stroke:none"
         id="path4237" />
      <rect
         transform="matrix(0,-1,-1,0,0,0)"
         style="fill:#cccccc;fill-opacity:1;stroke:none"
         id="rect4255"
         width="28"
         height="28"
         x="-282"
         y="-118"
         rx="1.5"
         ry="1.5" />
      <circle
         r="1.5"
         cy="255.5"
         cx="116.5"
         style="opacity:0.2;fill:#000000;fill-opacity:1;stroke:none"
         id="path4257" />
      <circle
         r="1.5"
         cy="255.5"
         cx="91.5"
         id="path4259"
         style="opacity:0.2;fill:#000000;fill-opacity:1;stroke:none" />
      <circle
         r="1.5"
         cy="280.5"
         cx="91.5"
         style="opacity:0.2;fill:#000000;fill-opacity:1;stroke:none"
         id="path4261" />
      <circle
         r="1.5"
         cy="280.5"
         cx="116.5"
         id="path4263"
         style="opacity:0.2;fill:#000000;fill-opacity:1;stroke:none" />
      <g
         id="g5101">
        <path
           inkscape:connector-curvature="0"
           d="m 160,246.99997 c -7.91339,0 -15.03704,2.81174 -20.94497,7.17182 L 160,276.99121 180.78197,254.09029 C 174.89688,249.77862 167.85262,246.99997 160,246.99997 Z"
           id="path5907"
           sodipodi:nodetypes="scccs"
           style="color:#000000;display:inline;overflow:visible;visibility:visible;opacity:1;fill:#2095f2;fill-opacity:1;fill-rule:nonzero;stroke:none;stroke-width:1;marker:none;enable-background:accumulate" />
        <path
           clip-path="url(#clipPath5078)"
           style="color:#000000;display:inline;overflow:visible;visibility:visible;fill:#000000;fill-opacity:1;fill-rule:nonzero;stroke:none;stroke-width:1;marker:none;enable-background:accumulate;filter:url(#filter5060);opacity:0.2"
           id="path5054"
           d="m 159.90379,252.9912 c -6.30366,0 -12.1542,2.06736 -16.85291,5.55887 l 16.94116,18.44114 16.76471,-18.44114 c -4.69874,-3.49151 -10.54922,-5.55887 -16.85296,-5.55887 z"
           inkscape:connector-curvature="0" />
        <path
           inkscape:connector-curvature="0"
           d="m 159.90379,252.9912 c -6.30366,0 -12.1542,2.06736 -16.85291,5.55887 l 16.94116,18.44114 16.76471,-18.44114 c -4.69874,-3.49151 -10.54922,-5.55887 -16.85296,-5.55887 z"
           id="path5949"
           style="color:#000000;display:inline;overflow:visible;visibility:visible;fill:#4daaf5;fill-opacity:1;fill-rule:nonzero;stroke:none;stroke-width:1;marker:none;enable-background:accumulate" />
        <path
           clip-path="url(#clipPath5085)"
           inkscape:connector-curvature="0"
           d="m 159.90379,258.9912 c -4.72777,0 -9.11564,1.55052 -12.63969,4.16915 l 12.70588,13.83086 12.57353,-13.83086 c -3.52405,-2.61863 -7.91193,-4.16915 -12.63972,-4.16915 z"
           id="path5056"
           style="color:#000000;display:inline;overflow:visible;visibility:visible;fill:#000000;fill-opacity:1;fill-rule:nonzero;stroke:none;stroke-width:1;marker:none;enable-background:accumulate;filter:url(#filter5064);opacity:0.2" />
        <path
           style="color:#000000;display:inline;overflow:visible;visibility:visible;fill:#79bff7;fill-opacity:1;fill-rule:nonzero;stroke:none;stroke-width:1;marker:none;enable-background:accumulate"
           id="path5015"
           d="m 159.90379,258.9912 c -4.72777,0 -9.11564,1.55052 -12.63969,4.16915 l 12.70588,13.83086 12.57353,-13.83086 c -3.52405,-2.61863 -7.91193,-4.16915 -12.63972,-4.16915 z"
           inkscape:connector-curvature="0" />
        <path
           clip-path="url(#clipPath5091)"
           style="color:#000000;display:inline;overflow:visible;visibility:visible;fill:#000000;fill-opacity:1;fill-rule:nonzero;stroke:none;stroke-width:1;marker:none;enable-background:accumulate;filter:url(#filter5068);opacity:0.2"
           id="path5058"
           d="m 159.90376,264.99122 c -3.15181,0 -6.07708,1.03368 -8.42644,2.77943 l 8.47057,9.22056 8.38237,-9.22056 c -2.34938,-1.74575 -5.27462,-2.77943 -8.4265,-2.77943 z"
           inkscape:connector-curvature="0" />
        <path
           inkscape:connector-curvature="0"
           d="m 159.90376,264.99122 c -3.15181,0 -6.07708,1.03368 -8.42644,2.77943 l 8.47057,9.22056 8.38237,-9.22056 c -2.34938,-1.74575 -5.27462,-2.77943 -8.4265,-2.77943 z"
           id="path5017"
           style="color:#000000;display:inline;overflow:visible;visibility:visible;fill:#a6d5fa;fill-opacity:1;fill-rule:nonzero;stroke:none;stroke-width:1;marker:none;enable-background:accumulate" />
      </g>
      <g
         id="g5110"
         transform="matrix(2.0005842,0,0,2.0005842,7.906528,-286.14424)">
        <path
           inkscape:connector-curvature="0"
           d="m 160,247.49982 c -7.91339,0 -15.03704,2.81174 -20.94497,7.17182 L 160,277.49106 180.78197,254.59014 C 174.89688,250.27847 167.85262,247.49982 160,247.49982 Z"
           id="path5126"
           sodipodi:nodetypes="scccs"
           style="color:#000000;display:inline;overflow:visible;visibility:visible;opacity:0.5;fill:#000000;fill-opacity:1;fill-rule:nonzero;stroke:none;stroke-width:1;marker:none;enable-background:accumulate;filter:url(#filter5128)" />
        <path
           style="color:#000000;display:inline;overflow:visible;visibility:visible;opacity:1;fill:#2095f2;fill-opacity:1;fill-rule:nonzero;stroke:none;stroke-width:1;marker:none;enable-background:accumulate"
           sodipodi:nodetypes="scccs"
           id="path5112"
           d="m 160,246.99997 c -7.91339,0 -15.03704,2.81174 -20.94497,7.17182 L 160,276.99121 180.78197,254.09029 C 174.89688,249.77862 167.85262,246.99997 160,246.99997 Z"
           inkscape:connector-curvature="0" />
        <path
           inkscape:connector-curvature="0"
           d="m 159.90379,252.9912 c -6.30366,0 -12.1542,2.06736 -16.85291,5.55887 l 16.94116,18.44114 16.76471,-18.44114 c -4.69874,-3.49151 -10.54922,-5.55887 -16.85296,-5.55887 z"
           id="path5114"
           style="color:#000000;display:inline;overflow:visible;visibility:visible;opacity:0.2;fill:#000000;fill-opacity:1;fill-rule:nonzero;stroke:none;stroke-width:1;marker:none;filter:url(#filter5060);enable-background:accumulate"
           clip-path="url(#clipPath5078)" />
        <path
           style="color:#000000;display:inline;overflow:visible;visibility:visible;fill:#4daaf5;fill-opacity:1;fill-rule:nonzero;stroke:none;stroke-width:1;marker:none;enable-background:accumulate"
           id="path5116"
           d="m 159.90379,252.9912 c -6.30366,0 -12.1542,2.06736 -16.85291,5.55887 l 16.94116,18.44114 16.76471,-18.44114 c -4.69874,-3.49151 -10.54922,-5.55887 -16.85296,-5.55887 z"
           inkscape:connector-curvature="0" />
        <path
           style="color:#000000;display:inline;overflow:visible;visibility:visible;opacity:0.2;fill:#000000;fill-opacity:1;fill-rule:nonzero;stroke:none;stroke-width:1;marker:none;filter:url(#filter5064);enable-background:accumulate"
           id="path5118"
           d="m 159.90379,258.9912 c -4.72777,0 -9.11564,1.55052 -12.63969,4.16915 l 12.70588,13.83086 12.57353,-13.83086 c -3.52405,-2.61863 -7.91193,-4.16915 -12.63972,-4.16915 z"
           inkscape:connector-curvature="0"
           clip-path="url(#clipPath5085)" />
        <path
           inkscape:connector-curvature="0"
           d="m 159.90379,258.9912 c -4.72777,0 -9.11564,1.55052 -12.63969,4.16915 l 12.70588,13.83086 12.57353,-13.83086 c -3.52405,-2.61863 -7.91193,-4.16915 -12.63972,-4.16915 z"
           id="path5120"
           style="color:#000000;display:inline;overflow:visible;visibility:visible;fill:#79bff7;fill-opacity:1;fill-rule:nonzero;stroke:none;stroke-width:1;marker:none;enable-background:accumulate" />
        <path
           inkscape:connector-curvature="0"
           d="m 159.90376,264.99122 c -3.15181,0 -6.07708,1.03368 -8.42644,2.77943 l 8.47057,9.22056 8.38237,-9.22056 c -2.34938,-1.74575 -5.27462,-2.77943 -8.4265,-2.77943 z"
           id="path5122"
           style="color:#000000;display:inline;overflow:visible;visibility:visible;opacity:0.2;fill:#000000;fill-opacity:1;fill-rule:nonzero;stroke:none;stroke-width:1;marker:none;filter:url(#filter5068);enable-background:accumulate"
           clip-path="url(#clipPath5091)" />
        <path
           style="color:#000000;display:inline;overflow:visible;visibility:visible;fill:#a6d5fa;fill-opacity:1;fill-rule:nonzero;stroke:none;stroke-width:1;marker:none;enable-background:accumulate"
           id="path5124"
           d="m 159.90376,264.99122 c -3.15181,0 -6.07708,1.03368 -8.42644,2.77943 l 8.47057,9.22056 8.38237,-9.22056 c -2.34938,-1.74575 -5.27462,-2.77943 -8.4265,-2.77943 z"
           inkscape:connector-curvature="0" />
      </g>
      <g
         transform="matrix(4.0011684,0,0,4.0011684,-151.86085,-855.67976)"
         id="g5132">
        <path
           style="color:#000000;display:inline;overflow:visible;visibility:visible;opacity:0.5;fill:#000000;fill-opacity:1;fill-rule:nonzero;stroke:none;stroke-width:1;marker:none;filter:url(#filter5128);enable-background:accumulate"
           sodipodi:nodetypes="scccs"
           id="path5134"
           d="m 160,247.49982 c -7.91339,0 -15.03704,2.81174 -20.94497,7.17182 L 160,277.49106 180.78197,254.59014 C 174.89688,250.27847 167.85262,247.49982 160,247.49982 Z"
           inkscape:connector-curvature="0" />
        <path
           inkscape:connector-curvature="0"
           d="m 160,246.99997 c -7.91339,0 -15.03704,2.81174 -20.94497,7.17182 L 160,276.99121 180.78197,254.09029 C 174.89688,249.77862 167.85262,246.99997 160,246.99997 Z"
           id="path5136"
           sodipodi:nodetypes="scccs"
           style="color:#000000;display:inline;overflow:visible;visibility:visible;opacity:1;fill:#2095f2;fill-opacity:1;fill-rule:nonzero;stroke:none;stroke-width:1;marker:none;enable-background:accumulate" />
        <path
           clip-path="url(#clipPath5078)"
           style="color:#000000;display:inline;overflow:visible;visibility:visible;opacity:0.2;fill:#000000;fill-opacity:1;fill-rule:nonzero;stroke:none;stroke-width:1;marker:none;filter:url(#filter5060);enable-background:accumulate"
           id="path5138"
           d="m 159.90379,252.9912 c -6.30366,0 -12.1542,2.06736 -16.85291,5.55887 l 16.94116,18.44114 16.76471,-18.44114 c -4.69874,-3.49151 -10.54922,-5.55887 -16.85296,-5.55887 z"
           inkscape:connector-curvature="0" />
        <path
           inkscape:connector-curvature="0"
           d="m 159.90379,252.9912 c -6.30366,0 -12.1542,2.06736 -16.85291,5.55887 l 16.94116,18.44114 16.76471,-18.44114 c -4.69874,-3.49151 -10.54922,-5.55887 -16.85296,-5.55887 z"
           id="path5140"
           style="color:#000000;display:inline;overflow:visible;visibility:visible;fill:#4daaf5;fill-opacity:1;fill-rule:nonzero;stroke:none;stroke-width:1;marker:none;enable-background:accumulate" />
        <path
           clip-path="url(#clipPath5085)"
           inkscape:connector-curvature="0"
           d="m 159.90379,258.9912 c -4.72777,0 -9.11564,1.55052 -12.63969,4.16915 l 12.70588,13.83086 12.57353,-13.83086 c -3.52405,-2.61863 -7.91193,-4.16915 -12.63972,-4.16915 z"
           id="path5142"
           style="color:#000000;display:inline;overflow:visible;visibility:visible;opacity:0.2;fill:#000000;fill-opacity:1;fill-rule:nonzero;stroke:none;stroke-width:1;marker:none;filter:url(#filter5064);enable-background:accumulate" />
        <path
           style="color:#000000;display:inline;overflow:visible;visibility:visible;fill:#79bff7;fill-opacity:1;fill-rule:nonzero;stroke:none;stroke-width:1;marker:none;enable-background:accumulate"
           id="path5144"
           d="m 159.90379,258.9912 c -4.72777,0 -9.11564,1.55052 -12.63969,4.16915 l 12.70588,13.83086 12.57353,-13.83086 c -3.52405,-2.61863 -7.91193,-4.16915 -12.63972,-4.16915 z"
           inkscape:connector-curvature="0" />
        <path
           clip-path="url(#clipPath5091)"
           style="color:#000000;display:inline;overflow:visible;visibility:visible;opacity:0.2;fill:#000000;fill-opacity:1;fill-rule:nonzero;stroke:none;stroke-width:1;marker:none;filter:url(#filter5068);enable-background:accumulate"
           id="path5146"
           d="m 159.90376,264.99122 c -3.15181,0 -6.07708,1.03368 -8.42644,2.77943 l 8.47057,9.22056 8.38237,-9.22056 c -2.34938,-1.74575 -5.27462,-2.77943 -8.4265,-2.77943 z"
           inkscape:connector-curvature="0" />
        <path
           inkscape:connector-curvature="0"
           d="m 159.90376,264.99122 c -3.15181,0 -6.07708,1.03368 -8.42644,2.77943 l 8.47057,9.22056 8.38237,-9.22056 c -2.34938,-1.74575 -5.27462,-2.77943 -8.4265,-2.77943 z"
           id="path5148"
           style="color:#000000;display:inline;overflow:visible;visibility:visible;fill:#a6d5fa;fill-opacity:1;fill-rule:nonzero;stroke:none;stroke-width:1;marker:none;enable-background:accumulate" />
      </g>
      <g
         id="g5150"
         transform="matrix(0.50014604,0,0,0.50014604,-20.023366,141.46394)">
        <path
           inkscape:connector-curvature="0"
           d="m 160,248.99939 c -7.91339,0 -15.03704,2.81174 -20.94497,7.17182 L 160,278.99063 180.78197,256.08971 C 174.89688,251.77804 167.85262,248.99939 160,248.99939 Z"
           id="path5182"
           sodipodi:nodetypes="scccs"
           style="color:#000000;display:inline;overflow:visible;visibility:visible;opacity:0.2;fill:#000000;fill-opacity:1;fill-rule:nonzero;stroke:none;stroke-width:1;marker:none;enable-background:accumulate" />
        <path
           style="color:#000000;display:inline;overflow:visible;visibility:visible;opacity:1;fill:#2095f2;fill-opacity:1;fill-rule:nonzero;stroke:none;stroke-width:1;marker:none;enable-background:accumulate"
           sodipodi:nodetypes="scccs"
           id="path5152"
           d="m 160,246.99997 c -7.91339,0 -15.03704,2.81174 -20.94497,7.17182 L 160,276.99121 180.78197,254.09029 C 174.89688,249.77862 167.85262,246.99997 160,246.99997 Z"
           inkscape:connector-curvature="0" />
        <path
           inkscape:connector-curvature="0"
           d="m 159.90379,252.9912 c -6.30366,0 -12.1542,2.06736 -16.85291,5.55887 l 16.94116,18.44114 16.76471,-18.44114 c -4.69874,-3.49151 -10.54922,-5.55887 -16.85296,-5.55887 z"
           id="path5154"
           style="color:#000000;display:inline;overflow:visible;visibility:visible;opacity:0.2;fill:#000000;fill-opacity:1;fill-rule:nonzero;stroke:none;stroke-width:1;marker:none;filter:url(#filter5060);enable-background:accumulate"
           clip-path="url(#clipPath5078)" />
        <path
           style="color:#000000;display:inline;overflow:visible;visibility:visible;fill:#4daaf5;fill-opacity:1;fill-rule:nonzero;stroke:none;stroke-width:1;marker:none;enable-background:accumulate"
           id="path5156"
           d="m 159.90379,252.9912 c -6.30366,0 -12.1542,2.06736 -16.85291,5.55887 l 16.94116,18.44114 16.76471,-18.44114 c -4.69874,-3.49151 -10.54922,-5.55887 -16.85296,-5.55887 z"
           inkscape:connector-curvature="0" />
        <path
           style="color:#000000;display:inline;overflow:visible;visibility:visible;opacity:0.2;fill:#000000;fill-opacity:1;fill-rule:nonzero;stroke:none;stroke-width:1;marker:none;filter:url(#filter5064);enable-background:accumulate"
           id="path5158"
           d="m 159.90379,258.9912 c -4.72777,0 -9.11564,1.55052 -12.63969,4.16915 l 12.70588,13.83086 12.57353,-13.83086 c -3.52405,-2.61863 -7.91193,-4.16915 -12.63972,-4.16915 z"
           inkscape:connector-curvature="0"
           clip-path="url(#clipPath5085)" />
        <path
           inkscape:connector-curvature="0"
           d="m 159.90379,258.9912 c -4.72777,0 -9.11564,1.55052 -12.63969,4.16915 l 12.70588,13.83086 12.57353,-13.83086 c -3.52405,-2.61863 -7.91193,-4.16915 -12.63972,-4.16915 z"
           id="path5160"
           style="color:#000000;display:inline;overflow:visible;visibility:visible;fill:#79bff7;fill-opacity:1;fill-rule:nonzero;stroke:none;stroke-width:1;marker:none;enable-background:accumulate" />
        <path
           inkscape:connector-curvature="0"
           d="m 159.90376,264.99122 c -3.15181,0 -6.07708,1.03368 -8.42644,2.77943 l 8.47057,9.22056 8.38237,-9.22056 c -2.34938,-1.74575 -5.27462,-2.77943 -8.4265,-2.77943 z"
           id="path5162"
           style="color:#000000;display:inline;overflow:visible;visibility:visible;opacity:0.2;fill:#000000;fill-opacity:1;fill-rule:nonzero;stroke:none;stroke-width:1;marker:none;filter:url(#filter5068);enable-background:accumulate"
           clip-path="url(#clipPath5091)" />
        <path
           style="color:#000000;display:inline;overflow:visible;visibility:visible;fill:#a6d5fa;fill-opacity:1;fill-rule:nonzero;stroke:none;stroke-width:1;marker:none;enable-background:accumulate"
           id="path5164"
           d="m 159.90376,264.99122 c -3.15181,0 -6.07708,1.03368 -8.42644,2.77943 l 8.47057,9.22056 8.38237,-9.22056 c -2.34938,-1.74575 -5.27462,-2.77943 -8.4265,-2.77943 z"
           inkscape:connector-curvature="0" />
      </g>
      <g
         transform="matrix(0.38344532,0,0,0.38344532,-37.351251,176.28902)"
         id="g5166">
        <path
           inkscape:connector-curvature="0"
           d="m 160,246.99997 c -7.91339,0 -15.03704,2.81174 -20.94497,7.17182 L 160,276.99121 180.78197,254.09029 C 174.89688,249.77862 167.85262,246.99997 160,246.99997 Z"
           id="path5168"
           sodipodi:nodetypes="scccs"
           style="color:#000000;display:inline;overflow:visible;visibility:visible;opacity:1;fill:#2095f2;fill-opacity:1;fill-rule:nonzero;stroke:none;stroke-width:1;marker:none;enable-background:accumulate" />
        <path
           clip-path="url(#clipPath5078)"
           style="color:#000000;display:inline;overflow:visible;visibility:visible;opacity:0.2;fill:#000000;fill-opacity:1;fill-rule:nonzero;stroke:none;stroke-width:1;marker:none;filter:url(#filter5060);enable-background:accumulate"
           id="path5170"
           d="m 159.90379,252.9912 c -6.30366,0 -12.1542,2.06736 -16.85291,5.55887 l 16.94116,18.44114 16.76471,-18.44114 c -4.69874,-3.49151 -10.54922,-5.55887 -16.85296,-5.55887 z"
           inkscape:connector-curvature="0" />
        <path
           inkscape:connector-curvature="0"
           d="m 159.90379,252.9912 c -6.30366,0 -12.1542,2.06736 -16.85291,5.55887 l 16.94116,18.44114 16.76471,-18.44114 c -4.69874,-3.49151 -10.54922,-5.55887 -16.85296,-5.55887 z"
           id="path5172"
           style="color:#000000;display:inline;overflow:visible;visibility:visible;fill:#4daaf5;fill-opacity:1;fill-rule:nonzero;stroke:none;stroke-width:1;marker:none;enable-background:accumulate" />
        <path
           clip-path="url(#clipPath5085)"
           inkscape:connector-curvature="0"
           d="m 159.90379,258.9912 c -4.72777,0 -9.11564,1.55052 -12.63969,4.16915 l 12.70588,13.83086 12.57353,-13.83086 c -3.52405,-2.61863 -7.91193,-4.16915 -12.63972,-4.16915 z"
           id="path5174"
           style="color:#000000;display:inline;overflow:visible;visibility:visible;opacity:0.2;fill:#000000;fill-opacity:1;fill-rule:nonzero;stroke:none;stroke-width:1;marker:none;filter:url(#filter5064);enable-background:accumulate" />
        <path
           style="color:#000000;display:inline;overflow:visible;visibility:visible;fill:#79bff7;fill-opacity:1;fill-rule:nonzero;stroke:none;stroke-width:1;marker:none;enable-background:accumulate"
           id="path5176"
           d="m 159.90379,258.9912 c -4.72777,0 -9.11564,1.55052 -12.63969,4.16915 l 12.70588,13.83086 12.57353,-13.83086 c -3.52405,-2.61863 -7.91193,-4.16915 -12.63972,-4.16915 z"
           inkscape:connector-curvature="0" />
        <path
           clip-path="url(#clipPath5091)"
           style="color:#000000;display:inline;overflow:visible;visibility:visible;opacity:0.2;fill:#000000;fill-opacity:1;fill-rule:nonzero;stroke:none;stroke-width:1;marker:none;filter:url(#filter5068);enable-background:accumulate"
           id="path5178"
           d="m 159.90376,264.99122 c -3.15181,0 -6.07708,1.03368 -8.42644,2.77943 l 8.47057,9.22056 8.38237,-9.22056 c -2.34938,-1.74575 -5.27462,-2.77943 -8.4265,-2.77943 z"
           inkscape:connector-curvature="0" />
        <path
           inkscape:connector-curvature="0"
           d="m 159.90376,264.99122 c -3.15181,0 -6.07708,1.03368 -8.42644,2.77943 l 8.47057,9.22056 8.38237,-9.22056 c -2.34938,-1.74575 -5.27462,-2.77943 -8.4265,-2.77943 z"
           id="path5180"
           style="color:#000000;display:inline;overflow:visible;visibility:visible;fill:#a6d5fa;fill-opacity:1;fill-rule:nonzero;stroke:none;stroke-width:1;marker:none;enable-background:accumulate" />
      </g>
    </g>
  </g>
</svg>
