<?xml version="1.0" encoding="UTF-8" standalone="no"?>
<svg
   xmlns:osb="http://www.openswatchbook.org/uri/2009/osb"
   xmlns:dc="http://purl.org/dc/elements/1.1/"
   xmlns:cc="http://creativecommons.org/ns#"
   xmlns:rdf="http://www.w3.org/1999/02/22-rdf-syntax-ns#"
   xmlns:svg="http://www.w3.org/2000/svg"
   xmlns="http://www.w3.org/2000/svg"
   xmlns:sodipodi="http://sodipodi.sourceforge.net/DTD/sodipodi-0.dtd"
   xmlns:inkscape="http://www.inkscape.org/namespaces/inkscape"
   height="22"
   version="1.1"
   width="22"
   enable-background="new"
   id="svg2990"
   inkscape:version="0.48.5 r10040"
   sodipodi:docname="battery-good.svg">
  <sodipodi:namedview
     pagecolor="#ffffff"
     bordercolor="#666666"
     borderopacity="1"
     objecttolerance="10"
     gridtolerance="10"
     guidetolerance="10"
     inkscape:pageopacity="0"
     inkscape:pageshadow="2"
     inkscape:window-width="640"
     inkscape:window-height="480"
     id="namedview3001"
     showgrid="false"
     inkscape:zoom="1"
     inkscape:cx="11"
     inkscape:cy="11"
     inkscape:window-x="65"
     inkscape:window-y="24"
     inkscape:window-maximized="0"
     inkscape:current-layer="layer9" />
  <metadata
     id="metadata90">
    <rdf:RDF>
      <cc:Work
         rdf:about="">
        <dc:format>image/svg+xml</dc:format>
        <dc:type
           rdf:resource="http://purl.org/dc/dcmitype/StillImage" />
      </cc:Work>
    </rdf:RDF>
  </metadata>
  <defs
     id="defs7386">
    <linearGradient
       id="linearGradient5606"
       osb:paint="solid">
      <stop
         id="stop5608" />
    </linearGradient>
  </defs>
  <g
     inkscape:groupmode="layer"
     id="layer9"
     inkscape:label="status"
     transform="translate(-281.0002,376.00336)">
    <path
       inkscape:connector-curvature="0"
       d="m 291.0002,-371.00336 0,1 4,0 0,-1 z m -2.15625,1 c -0.28125,0.0469 -0.84375,0.25 -0.84375,1 l 0,11 c 0,1 1,1 1,1 l 8,0 c 1,0 1,-1 1,-1 l 0,-11 c 0,0 0,-1 -1,-1 l -8,0 c 0,0 -0.0625,-0.0156 -0.15625,0 z"
       id="path7425"
       sodipodi:nodetypes="ccccccsscsccscc"
       style="opacity:0.35;fill:#dbdee0" />
    <path
       inkscape:connector-curvature="0"
       d="m 288.0002,-365 0,7 c 0,1 1,1 1,1 l 8,0 c 1,0 1,-1 1,-1 l 0,-7 z"
       id="path6020"
       style="fill:#dbdee0"
       sodipodi:nodetypes="cscsccc" />
  </g>
</svg>
