<?xml version="1.0" encoding="UTF-8" standalone="no"?>
<svg xmlns="http://www.w3.org/2000/svg" xmlns:sodipodi="http://sodipodi.sourceforge.net/DTD/sodipodi-0.dtd" xmlns:inkscape="http://www.inkscape.org/namespaces/inkscape" height="22" version="1.1" width="22" enable-background="new">
 <metadata id="metadata90"/>
 <defs id="defs7386">
  <linearGradient id="linearGradient5606" osb:paint="solid">
   <stop id="stop5608"/>
  </linearGradient>
  <filter inkscape:collect="always" color-interpolation-filters="sRGB" id="filter7554">
   <feBlend inkscape:collect="always" id="feBlend7556" in2="BackgroundImage" mode="darken"/>
  </filter>
 </defs>
 <g inkscape:groupmode="layer" id="layer9" inkscape:label="status" transform="translate(-485.0004,431.00336)">
  <g id="g9699" inkscape:label="network-wired" transform="translate(-9.99978,-24.00336)">
   <path inkscape:connector-curvature="0" d="m 508.99998,-393.99664 5.5,-4.5 -5.5,-4.5 c 0.004,0.003 0,1.33333 0,2 -1,0 -2,0 -3,0 0,1.66667 0,3.33333 0,5 1,0 2,0 3,0 0,0.66667 0,2 0,2 z" id="path9701" sodipodi:nodetypes="cccccccc" opacity="0.35" fill="#dbdee0" color="#000000"/>
   <path inkscape:connector-curvature="0" d="m 504.99998,-396.99664 -5.5,4.5 5.5,4.5 c -0.004,-0.003 0,-1.33333 0,-2 1,0 3,0 3,0 l 0,-2.1875 0,-0.8125 0,-2 c 0,0 -2,0 -3,0 0,-0.66667 0,-2 0,-2 z" id="path9705" sodipodi:nodetypes="cccccccccc" opacity="0.35" fill="#dbdee0" color="#000000"/>
  </g>
 </g>
</svg>
