<?xml version="1.0" encoding="UTF-8" standalone="no"?>
<svg xmlns="http://www.w3.org/2000/svg" xmlns:sodipodi="http://sodipodi.sourceforge.net/DTD/sodipodi-0.dtd" xmlns:inkscape="http://www.inkscape.org/namespaces/inkscape" height="22" version="1.1" width="22" enable-background="new">
 <metadata id="metadata90"/>
 <defs id="defs7386">
  <linearGradient id="linearGradient5606" osb:paint="solid">
   <stop id="stop5608"/>
  </linearGradient>
 </defs>
 <g inkscape:groupmode="layer" id="layer9" inkscape:label="status" transform="translate(-421.0002,362)">
  <path d="M 11.9375 4.0625 C 7.46753 4.0625 3.90625 7.68167 3.90625 12.03125 C 3.90625 14.23195 4.82926 16.23696 6.3125 17.6875 L 7.375 16.625 C 6.1869 15.44926 5.4375 13.8353 5.4375 12.03125 C 5.4375 8.4414 8.34765 5.53125 11.9375 5.53125 C 15.52735 5.53125 18.4375 8.4414 18.4375 12.03125 C 18.4375 13.8353 17.6881 15.44926 16.5 16.625 L 17.5625 17.6875 C 19.04574 16.23696 19.96875 14.23195 19.96875 12.03125 C 19.96875 7.68167 16.40748 4.0625 11.9375 4.0625 z M 11.9375 7.0625 C 9.12438 7.0625 6.90625 9.33853 6.90625 12.03125 C 6.90625 13.41344 7.48785 14.66032 8.4375 15.5625 L 9.46875 14.53125 C 8.82518 13.8952 8.4375 13.00909 8.4375 12.03125 C 8.4375 10.09825 10.0045 8.53125 11.9375 8.53125 C 13.8705 8.53125 15.4375 10.09825 15.4375 12.03125 C 15.4375 13.00909 15.04982 13.8952 14.40625 14.53125 L 15.4375 15.5625 C 16.38715 14.66032 16.96875 13.41344 16.96875 12.03125 C 16.96875 9.33853 14.75062 7.0625 11.9375 7.0625 z M 11.9375 10.03125 C 10.832931 10.03125 9.9375 10.926681 9.9375 12.03125 C 9.9375 13.135819 10.832931 14.03125 11.9375 14.03125 C 13.042069 14.03125 13.9375 13.135819 13.9375 12.03125 C 13.9375 10.926681 13.042069 10.03125 11.9375 10.03125 z " transform="translate(421.0002,-362)" id="path6116" color="#000000" stroke-width="1.927" fill="#dbdee0"/>
  <path id="path5707" transform="translate(421.0002,-362)" d="M 11.9375 4.0625 C 7.46753 4.0625 3.90625 7.68167 3.90625 12.03125 C 3.90625 14.23195 4.82926 16.23696 6.3125 17.6875 L 7.375 16.625 C 6.1869 15.44926 5.4375 13.8353 5.4375 12.03125 C 5.4375 8.4414 8.34765 5.53125 11.9375 5.53125 C 15.52735 5.53125 18.4375 8.4414 18.4375 12.03125 C 18.4375 13.8353 17.6881 15.44926 16.5 16.625 L 17.5625 17.6875 C 19.04574 16.23696 19.96875 14.23195 19.96875 12.03125 C 19.96875 7.68167 16.40748 4.0625 11.9375 4.0625 z M 11.9375 7.0625 C 9.12438 7.0625 6.90625 9.33853 6.90625 12.03125 C 6.90625 13.41344 7.48785 14.66032 8.4375 15.5625 L 9.46875 14.53125 C 8.82518 13.8952 8.4375 13.00909 8.4375 12.03125 C 8.4375 10.09825 10.0045 8.53125 11.9375 8.53125 C 13.8705 8.53125 15.4375 10.09825 15.4375 12.03125 C 15.4375 13.00909 15.04982 13.8952 14.40625 14.53125 L 15.4375 15.5625 C 16.38715 14.66032 16.96875 13.41344 16.96875 12.03125 C 16.96875 9.33853 14.75062 7.0625 11.9375 7.0625 z M 11.9375 10.03125 C 10.832931 10.03125 9.9375 10.926681 9.9375 12.03125 C 9.9375 13.135819 10.832931 14.03125 11.9375 14.03125 C 13.042069 14.03125 13.9375 13.135819 13.9375 12.03125 C 13.9375 10.926681 13.042069 10.03125 11.9375 10.03125 z " color="#000000" stroke-width="1.927" fill="#dbdee0"/>
 </g>
</svg>
