<?xml version="1.0" encoding="UTF-8" standalone="no"?>
<svg xmlns="http://www.w3.org/2000/svg" xmlns:sodipodi="http://sodipodi.sourceforge.net/DTD/sodipodi-0.dtd" xmlns:inkscape="http://www.inkscape.org/namespaces/inkscape" height="22" version="1.1" width="22" enable-background="new">
 <metadata id="metadata90"/>
 <defs id="defs7386">
  <linearGradient id="linearGradient5606" osb:paint="solid">
   <stop id="stop5608"/>
  </linearGradient>
  <filter inkscape:collect="always" color-interpolation-filters="sRGB" id="filter7554">
   <feBlend inkscape:collect="always" id="feBlend7556" in2="BackgroundImage" mode="darken"/>
  </filter>
 </defs>
 <g inkscape:groupmode="layer" id="layer9" inkscape:label="status" transform="translate(-281.0002,428.00336)">
  <path d="m 293.03145,-422.00336 c -3.03435,0 -5.76588,1.07815 -8.03125,2.75 l 8.03125,8.75 0.96875,-1.0625 0,-0.4375 0,-1 1,0 c 0.0168,-1.63737 1.35439,-3 3,-3 l 0.0312,0 2.96875,-3.28125 c -2.25661,-1.65329 -4.9577,-2.71875 -7.96875,-2.71875 z" id="path5907" inkscape:connector-curvature="0" opacity="0.35" fill="#dbdee0" color="#000000"/>
  <path d="M 12,9 C 9.76744,9 7.69538,9.73219 6.03125,10.96875 l 6,6.53125 L 13,16.4375 13,16 l 0,-1 1,0 c 0.0168,-1.63737 1.35439,-3 3,-3 0.0107,0 0.02065,-1.2e-4 0.03125,0 l 0.9375,-1.03125 C 16.30462,9.73219 14.23256,9 12,9 z m 5,4 c -1.108,0 -2,0.91081 -2,2.03125 L 15,16 l -1,0 0,1 0,2 0,1 1,0 4,0 1,0 0,-1 0,-2 0,-1 -1,0 0,-0.96875 C 19,13.91125 18.108,13 17,13 z m 0,1 c 0.554,0 1,0.44236 1,1 l 0,1 -2,0 0,-1 c 0,-0.55764 0.446,-1 1,-1 z" transform="translate(281.0002,-428.00336)" id="path5949" inkscape:connector-curvature="0" fill="#dbdee0" color="#000000"/>
 </g>
</svg>
