<?xml version="1.0" encoding="UTF-8" standalone="no"?>
<svg xmlns="http://www.w3.org/2000/svg" xmlns:sodipodi="http://sodipodi.sourceforge.net/DTD/sodipodi-0.dtd" xmlns:inkscape="http://www.inkscape.org/namespaces/inkscape" height="22" version="1.1" width="22" enable-background="new">
 <metadata id="metadata90"/>
 <defs id="defs7386">
  <linearGradient id="linearGradient5606" osb:paint="solid">
   <stop id="stop5608"/>
  </linearGradient>
  <filter inkscape:collect="always" color-interpolation-filters="sRGB" id="filter7554">
   <feBlend inkscape:collect="always" id="feBlend7556" in2="BackgroundImage" mode="darken"/>
  </filter>
 </defs>
 <g inkscape:groupmode="layer" id="layer9" inkscape:label="status" transform="translate(-485.0004,451.00336)">
  <path inkscape:connector-curvature="0" d="m 499.0002,-447 c 0.004,0.003 0,1.33333 0,2 l -3,0 0,4 4,0 c 0.67626,0 1.26337,0.33287 1.625,0.84375 l 2.875,-2.34375 -5.5,-4.5 z m -6.96875,8.4375 -2.53125,2.0625 5.5,4.5 c -0.004,-0.003 0,-1.33333 0,-2 l 3,0 0,-2.1875 0,-0.8125 -4,0 c -0.95911,0 -1.7718,-0.6642 -1.96875,-1.5625 z" id="path9644" opacity="0.35" fill="#dbdee0" color="#000000"/>
  <path inkscape:connector-curvature="0" d="m 494.0004,-440.00336 c -0.55228,0 -1,0.44772 -1,1 0,0.55228 0.44772,1 1,1 0.55228,0 1,-0.44772 1,-1 0,-0.55228 -0.44772,-1 -1,-1 z m 3,0 c -0.55228,0 -1,0.44772 -1,1 0,0.55228 0.44772,1 1,1 0.55228,0 1,-0.44772 1,-1 0,-0.55228 -0.44772,-1 -1,-1 z m 3,0 c -0.55228,0 -1,0.44772 -1,1 0,0.55228 0.44772,1 1,1 0.55228,0 1,-0.44772 1,-1 0,-0.55228 -0.44772,-1 -1,-1 z" id="path5858-0" fill="#dbdee0"/>
 </g>
</svg>
