<?xml version="1.0" encoding="UTF-8" standalone="no"?>
<!-- Created with Inkscape (http://www.inkscape.org/) -->

<svg
   xmlns:osb="http://www.openswatchbook.org/uri/2009/osb"
   xmlns:dc="http://purl.org/dc/elements/1.1/"
   xmlns:cc="http://creativecommons.org/ns#"
   xmlns:rdf="http://www.w3.org/1999/02/22-rdf-syntax-ns#"
   xmlns:svg="http://www.w3.org/2000/svg"
   xmlns="http://www.w3.org/2000/svg"
   xmlns:xlink="http://www.w3.org/1999/xlink"
   xmlns:sodipodi="http://sodipodi.sourceforge.net/DTD/sodipodi-0.dtd"
   xmlns:inkscape="http://www.inkscape.org/namespaces/inkscape"
   inkscape:export-ydpi="90.000000"
   inkscape:export-xdpi="90.000000"
   width="736"
   height="544"
   id="svg11300"
   sodipodi:version="0.32"
   inkscape:version="0.91 r13725"
   sodipodi:docname="folders.svg"
   inkscape:output_extension="org.inkscape.output.svg.inkscape"
   version="1.0"
   style="display:inline;enable-background:new"
   inkscape:export-filename="/home/sam/paper-template.png">
  <title
     id="title3004">Paper Icon Theme</title>
  <sodipodi:namedview
     stroke="#ef2929"
     fill="#f57900"
     id="base"
     pagecolor="#ffffff"
     bordercolor="#666666"
     borderopacity="0.25490196"
     inkscape:pageopacity="0"
     inkscape:pageshadow="2"
     inkscape:zoom="1"
     inkscape:cx="203.43749"
     inkscape:cy="42.803576"
     inkscape:current-layer="layer6"
     showgrid="false"
     inkscape:grid-bbox="true"
     inkscape:document-units="px"
     inkscape:showpageshadow="false"
     inkscape:window-width="1366"
     inkscape:window-height="704"
     inkscape:window-x="0"
     inkscape:window-y="27"
     width="400px"
     height="300px"
     inkscape:snap-nodes="true"
     inkscape:snap-bbox="true"
     gridtolerance="10000"
     inkscape:object-nodes="true"
     inkscape:snap-grids="true"
     showguides="true"
     inkscape:guide-bbox="true"
     inkscape:window-maximized="1"
     inkscape:object-paths="true"
     inkscape:snap-intersection-paths="true"
     inkscape:snap-smooth-nodes="true"
     inkscape:snap-midpoints="true">
    <inkscape:grid
       spacingy="1px"
       spacingx="1px"
       id="grid5883"
       type="xygrid"
       enabled="true"
       visible="true"
       empspacing="4"
       snapvisiblegridlinesonly="true" />
    <inkscape:grid
       type="xygrid"
       id="grid11592"
       empspacing="2"
       visible="true"
       enabled="false"
       spacingx="0.5px"
       spacingy="0.5px"
       color="#ff0000"
       opacity="0.1254902"
       empcolor="#ff0000"
       empopacity="0.25098039"
       snapvisiblegridlinesonly="true" />
  </sodipodi:namedview>
  <defs
     id="defs3">
    <clipPath
       clipPathUnits="userSpaceOnUse"
       id="clipPath4718">
      <path
         style="fill:#bb9e7b;fill-opacity:1;stroke:none"
         d="m 288,260 0,-56 c 0,-2.216 1.79756,-4.24472 4,-4 l 32,0 8,8 32.20504,0 c 0,0 3.79496,0 3.79496,4 l 0,48 c 0,2.21598 -1.784,4 -4,4 l -72,0 c -2.216,0 -4,-1.784 -4,-4 z"
         id="path4720"
         inkscape:connector-curvature="0"
         sodipodi:nodetypes="sssccccssss" />
    </clipPath>
    <clipPath
       clipPathUnits="userSpaceOnUse"
       id="clipPath7328">
      <path
         style="fill:#bb9e7b;fill-opacity:1;stroke:none"
         d="m 240,100 0,-256 c 0,-0.2208 0,-24 24,-24 l 176,0 48,48 176,0 c 13.296,0 24,10.704 24,24 l 0,208 c 0,13.296 -10.704,24 -24,24 l -400,0 c -13.296,0 -24,-10.704 -24,-24 z"
         id="path7330"
         inkscape:connector-curvature="0"
         sodipodi:nodetypes="scsccssssss" />
    </clipPath>
    <filter
       inkscape:collect="always"
       style="color-interpolation-filters:sRGB"
       id="filter4198"
       x="-0.022714286"
       width="1.0454286"
       y="-0.02544"
       height="1.05088">
      <feGaussianBlur
         inkscape:collect="always"
         stdDeviation="4.24"
         id="feGaussianBlur4200" />
    </filter>
    <linearGradient
       osb:paint="solid"
       id="linearGradient5606">
      <stop
         style="stop-color:#000000;stop-opacity:1;"
         offset="0"
         id="stop5608" />
    </linearGradient>
    <filter
       inkscape:collect="always"
       style="color-interpolation-filters:sRGB"
       id="filter4590"
       x="-0.06"
       width="1.12"
       y="-0.06"
       height="1.12">
      <feGaussianBlur
         inkscape:collect="always"
         stdDeviation="0.35"
         id="feGaussianBlur4592" />
    </filter>
    <filter
       inkscape:collect="always"
       style="color-interpolation-filters:sRGB"
       id="filter4877"
       x="-0.07"
       width="1.14"
       y="-0.0525"
       height="1.105">
      <feGaussianBlur
         inkscape:collect="always"
         stdDeviation="0.35"
         id="feGaussianBlur4879" />
    </filter>
    <filter
       inkscape:collect="always"
       style="color-interpolation-filters:sRGB"
       id="filter4881"
       x="-0.053571429"
       width="1.1071429"
       y="-0.068181818"
       height="1.1363636">
      <feGaussianBlur
         inkscape:collect="always"
         stdDeviation="10"
         id="feGaussianBlur4883" />
    </filter>
  </defs>
  <metadata
     id="metadata4">
    <rdf:RDF>
      <cc:Work
         rdf:about="">
        <dc:format>image/svg+xml</dc:format>
        <dc:type
           rdf:resource="http://purl.org/dc/dcmitype/StillImage" />
        <dc:creator>
          <cc:Agent>
            <dc:title>Sam Hewitt</dc:title>
          </cc:Agent>
        </dc:creator>
        <dc:source />
        <cc:license
           rdf:resource="http://creativecommons.org/licenses/by-sa/3.0/" />
        <dc:title>Paper Icon Theme</dc:title>
        <dc:subject>
          <rdf:Bag />
        </dc:subject>
        <dc:date />
        <dc:rights>
          <cc:Agent>
            <dc:title />
          </cc:Agent>
        </dc:rights>
        <dc:publisher>
          <cc:Agent>
            <dc:title />
          </cc:Agent>
        </dc:publisher>
        <dc:identifier />
        <dc:relation />
        <dc:language />
        <dc:coverage />
        <dc:description />
        <dc:contributor>
          <cc:Agent>
            <dc:title />
          </cc:Agent>
        </dc:contributor>
      </cc:Work>
      <cc:Work
         rdf:about="">
        <dc:format>image/svg+xml</dc:format>
        <dc:type
           rdf:resource="http://purl.org/dc/dcmitype/StillImage" />
      </cc:Work>
    </rdf:RDF>
  </metadata>
  <g
     style="display:inline"
     inkscape:groupmode="layer"
     inkscape:label="Folder (clone source)"
     id="layer1"
     transform="translate(0,244)">
    <g
       style="display:none"
       inkscape:label="Baseplate (inode-directory)"
       id="layer7"
       inkscape:groupmode="layer">
      <text
         y="331.74512"
         xml:space="preserve"
         x="15.006836"
         style="font-style:normal;font-variant:normal;font-weight:normal;font-stretch:normal;font-size:18px;font-family:'DejaVu Sans';-inkscape-font-specification:'DejaVu Sans';display:inline;fill:#000000;fill-opacity:1;stroke:none;enable-background:new"
         inkscape:label="context"
         id="context"><tspan
           style="font-style:normal;font-variant:normal;font-weight:normal;font-stretch:normal;font-family:'DejaVu Sans';-inkscape-font-specification:'DejaVu Sans'"
           y="331.74512"
           x="15.006836"
           sodipodi:role="line"
           id="tspan3933">mimetypes</tspan></text>
      <text
         y="331.74512"
         xml:space="preserve"
         x="142.48828"
         style="font-style:normal;font-variant:normal;font-weight:bold;font-stretch:normal;font-size:18px;line-height:125%;font-family:'DejaVu Sans';-inkscape-font-specification:'DejaVu Sans Bold';text-align:start;writing-mode:lr-tb;text-anchor:start;display:inline;fill:#000000;fill-opacity:1;stroke:none;enable-background:new"
         sodipodi:linespacing="125%"
         inkscape:label="icon-name"
         id="icon-name"><tspan
           style="font-style:normal;font-variant:normal;font-weight:bold;font-stretch:normal;font-size:18px;font-family:'DejaVu Sans';-inkscape-font-specification:'DejaVu Sans Bold'"
           y="331.74512"
           x="142.48828"
           sodipodi:role="line"
           id="tspan3937">inode-directory</tspan></text>
      <rect
         style="display:inline;overflow:visible;visibility:visible;fill:#e9e9e9;fill-opacity:1;fill-rule:nonzero;stroke:none;stroke-width:2;marker:none;enable-background:accumulate"
         id="rect16x16"
         width="16"
         height="16"
         x="-32"
         y="268"
         inkscape:label="16x16"
         transform="scale(-1,1)" />
      <rect
         style="display:inline;overflow:visible;visibility:visible;fill:#e9e9e9;fill-opacity:1;fill-rule:nonzero;stroke:none;stroke-width:2;marker:none;enable-background:accumulate"
         id="rect24x24"
         width="24"
         height="24"
         x="-76"
         y="260"
         inkscape:label="24x24"
         transform="scale(-1,1)" />
      <rect
         style="display:inline;overflow:visible;visibility:visible;fill:#e9e9e9;fill-opacity:1;fill-rule:nonzero;stroke:none;stroke-width:2;marker:none;enable-background:accumulate"
         id="rect32x32"
         width="32"
         height="32"
         x="-128"
         y="252"
         inkscape:label="32x32"
         transform="scale(-1,1)" />
      <rect
         inkscape:label="48x48"
         y="236"
         x="-192"
         height="48"
         width="48"
         id="rect48x48"
         style="display:inline;overflow:visible;visibility:visible;fill:#e9e9e9;fill-opacity:1;fill-rule:nonzero;stroke:none;stroke-width:2;marker:none;enable-background:accumulate"
         transform="scale(-1,1)" />
      <rect
         style="display:inline;overflow:visible;visibility:visible;fill:#e9e9e9;fill-opacity:1;fill-rule:nonzero;stroke:none;stroke-width:2;marker:none;enable-background:accumulate"
         id="rect3951"
         width="512"
         height="512"
         x="-720"
         y="-228"
         inkscape:label="48x48"
         transform="scale(-1,1)" />
    </g>
    <g
       inkscape:groupmode="layer"
       id="g5642"
       inkscape:label="Baseplate (folder)"
       style="display:none">
      <text
         id="text5644"
         inkscape:label="context"
         style="font-style:normal;font-variant:normal;font-weight:normal;font-stretch:normal;font-size:18px;font-family:'DejaVu Sans';-inkscape-font-specification:'DejaVu Sans';display:inline;fill:#000000;fill-opacity:1;stroke:none;enable-background:new"
         x="15.006836"
         xml:space="preserve"
         y="331.74512"><tspan
           id="tspan5646"
           sodipodi:role="line"
           x="15.006836"
           y="331.74512"
           style="font-style:normal;font-variant:normal;font-weight:normal;font-stretch:normal;font-family:'DejaVu Sans';-inkscape-font-specification:'DejaVu Sans'">places</tspan></text>
      <text
         id="text5648"
         inkscape:label="icon-name"
         sodipodi:linespacing="125%"
         style="font-style:normal;font-variant:normal;font-weight:bold;font-stretch:normal;font-size:18px;line-height:125%;font-family:'DejaVu Sans';-inkscape-font-specification:'DejaVu Sans Bold';text-align:start;writing-mode:lr-tb;text-anchor:start;display:inline;fill:#000000;fill-opacity:1;stroke:none;enable-background:new"
         x="142.48828"
         xml:space="preserve"
         y="331.74512"><tspan
           id="tspan5650"
           sodipodi:role="line"
           x="142.48828"
           y="331.74512"
           style="font-style:normal;font-variant:normal;font-weight:bold;font-stretch:normal;font-size:18px;font-family:'DejaVu Sans';-inkscape-font-specification:'DejaVu Sans Bold'">folder</tspan></text>
      <rect
         transform="scale(-1,1)"
         inkscape:label="16x16"
         y="268"
         x="-32"
         height="16"
         width="16"
         id="rect5652"
         style="display:inline;overflow:visible;visibility:visible;fill:#e9e9e9;fill-opacity:1;fill-rule:nonzero;stroke:none;stroke-width:2;marker:none;enable-background:accumulate" />
      <rect
         transform="scale(-1,1)"
         inkscape:label="24x24"
         y="260"
         x="-76"
         height="24"
         width="24"
         id="rect5654"
         style="display:inline;overflow:visible;visibility:visible;fill:#e9e9e9;fill-opacity:1;fill-rule:nonzero;stroke:none;stroke-width:2;marker:none;enable-background:accumulate" />
      <rect
         transform="scale(-1,1)"
         inkscape:label="32x32"
         y="252"
         x="-128"
         height="32"
         width="32"
         id="rect5656"
         style="display:inline;overflow:visible;visibility:visible;fill:#e9e9e9;fill-opacity:1;fill-rule:nonzero;stroke:none;stroke-width:2;marker:none;enable-background:accumulate" />
      <rect
         transform="scale(-1,1)"
         style="display:inline;overflow:visible;visibility:visible;fill:#e9e9e9;fill-opacity:1;fill-rule:nonzero;stroke:none;stroke-width:2;marker:none;enable-background:accumulate"
         id="rect5658"
         width="48"
         height="48"
         x="-192"
         y="236"
         inkscape:label="48x48" />
      <rect
         transform="scale(-1,1)"
         inkscape:label="48x48"
         y="-228"
         x="-720"
         height="512"
         width="512"
         id="rect5664"
         style="display:inline;overflow:visible;visibility:visible;fill:#e9e9e9;fill-opacity:1;fill-rule:nonzero;stroke:none;stroke-width:2;marker:none;enable-background:accumulate" />
    </g>
    <g
       inkscape:groupmode="layer"
       id="layer6"
       inkscape:label="Symbols"
       style="display:inline">
      <g
         id="g4315">
        <path
           style="opacity:0.2;fill:#000000;fill-opacity:1;stroke:#000000;stroke-width:0;stroke-miterlimit:4;stroke-dasharray:none;stroke-opacity:1;filter:url(#filter4198)"
           d="m 264,-158 c -24,0 -24,23.7792 -24,24 l 0,96 0,160 0,96 c 0,13.296 10.704,24 24,24 l 400,0 c 13.296,0 24,-10.704 24,-24 l 0,-96 0,-208 c 0,-3.40647 -0.70777,-6.64054 -1.97656,-9.57031 -2.46961,-6.44528 -8.04418,-13.84886 -20.58203,-14.38281 C 664.96415,-109.98116 664.48454,-110 664,-110 l -176,0 -48,-48 -176,0 z"
           id="path4202"
           inkscape:connector-curvature="0" />
        <path
           inkscape:connector-curvature="0"
           id="path7332"
           d="m 264,-158 c -24,0 -24,23.7792 -24,24 l 0,96 0,160 0,96 c 0,13.296 10.704,24 24,24 l 400,0 c 13.296,0 24,-10.704 24,-24 l 0,-96 0,-208 c 0,-3.40647 -0.70777,-6.64054 -1.97656,-9.57031 -2.46961,-6.44528 -8.04418,-13.84886 -20.58203,-14.38281 C 664.96415,-109.98116 664.48454,-110 664,-110 l -176,0 -48,-48 -176,0 z"
           style="opacity:0.05;fill:#000000;fill-opacity:1;stroke:#000000;stroke-width:8;stroke-miterlimit:4;stroke-dasharray:none;stroke-opacity:1;filter:url(#filter4198)" />
        <path
           style="fill:#bb9e7b;fill-opacity:1;stroke:none"
           d="m 240,116 0,-256 c 0,-0.2208 0,-24 24,-24 l 176,0 48,48 176,0 c 13.296,0 24,10.704 24,24 l 0,208 c 0,13.296 -10.704,24 -24,24 l -400,0 c -13.296,0 -24,-10.704 -24,-24 z"
           id="path3300"
           inkscape:connector-curvature="0"
           sodipodi:nodetypes="scsccssssss" />
        <path
           inkscape:connector-curvature="0"
           id="path7310"
           d="m 264,-164 c -24,0 -24,23.7792 -24,24 l 0,2 c 0,-0.2208 0,-24 24,-24 l 176,0 48,48 176,0 c 13.296,0 24,10.704 24,24 l 0,-2 c 0,-13.296 -10.704,-24 -24,-24 l -176,0 -48,-48 -176,0 z"
           style="opacity:0.2;fill:#ffffff;fill-opacity:1;stroke:none" />
        <path
           clip-path="url(#clipPath7328)"
           style="opacity:0.3;fill:#000000;fill-opacity:1;stroke:none;filter:url(#filter4881)"
           d="m 688,196 0,-304 c 0,0.2208 0,-24 -24,-24 l -176,0 -48,48 -176,0 c -13.296,0 -24,10.704 -24,24 l 0,256 c 0,13.296 10.704,24 24,24 l 400,0 c 13.296,0 24,-10.704 24,-24 z"
           id="path7320"
           inkscape:connector-curvature="0"
           sodipodi:nodetypes="scsccssssss"
           transform="translate(0,20)" />
        <path
           sodipodi:nodetypes="scsccssssss"
           inkscape:connector-curvature="0"
           id="rect3292"
           d="m 688,212 0,-304 c 0,0.2208 0,-24 -24,-24 l -176,0 -48,48 -176,0 c -13.296,0 -24,10.704 -24,24 l 0,256 c 0,13.296 10.704,24 24,24 l 400,0 c 13.296,0 24,-10.704 24,-24 z"
           style="fill:#c6ae91;fill-opacity:1;stroke:none" />
        <path
           inkscape:connector-curvature="0"
           id="path7312"
           d="m 488,-116 -48,48 -176,0 c -13.296,0 -24,10.704 -24,24 l 0,2 c 0,-13.296 10.704,-24 24,-24 l 176,0 48,-48 176,0 c 24,0 24,24.2208 24,24 l 0,-2 c 0,0.2208 0,-24 -24,-24 l -176,0 z"
           style="opacity:0.2;fill:#ffffff;fill-opacity:1;stroke:none" />
        <path
           inkscape:connector-curvature="0"
           id="path7355"
           d="m 240,210 0,2 c 0,13.296 10.704,24 24,24 l 400,0 c 13.296,0 24,-10.704 24,-24 l 0,-2 c 0,13.296 -10.704,24 -24,24 l -400,0 c -13.296,0 -24,-10.704 -24,-24 z"
           style="opacity:0.1;fill:#000000;fill-opacity:1;stroke:none" />
        <path
           style="fill:#bb9e7b;fill-opacity:1;stroke:none"
           d="m 16.000279,279.99581 0,-9.99609 c 0,-0.55385 0.449264,-1.06088 0.999721,-0.99972 l 5.997767,0 1.999442,1.99944 6.049014,0 c 0,0 0.948475,0 0.948475,0.99972 l 0,7.99665 c 0,0.55384 -0.445875,0.99972 -0.999721,0.99972 l -13.994977,0 c -0.553846,0 -0.999721,-0.44587 -0.999721,-0.99972 z"
           id="path4600"
           inkscape:connector-curvature="0"
           sodipodi:nodetypes="sssccccssss" />
        <path
           sodipodi:nodetypes="sssccccssss"
           inkscape:connector-curvature="0"
           id="path4602"
           d="m 31.994698,281.99526 0,-9.9961 c 0,-0.55384 -0.445877,-0.99972 -0.999721,-0.99972 l -5.997768,0 -1.999442,1.99944 -5.997767,0 c -0.999721,0 -0.999721,0.95811 -0.999721,0.95811 l 0,8.03827 c 0,0.55384 0.445875,0.99972 0.999721,0.99972 l 13.994977,0 c 0.553846,0 0.999721,-0.44588 0.999721,-0.99972 z"
           style="fill:#c6ae91;fill-opacity:1;stroke:none" />
        <path
           style="fill:#bb9e7b;fill-opacity:1;stroke:none"
           d="m 148,272 0,-28 c 0,-1.108 0.89878,-2.12236 2,-2 l 16,0 4,4 16.10252,0 c 0,0 1.89748,0 1.89748,2 l 0,24 c 0,1.10799 -0.892,2 -2,2 l -36,0 c -1.108,0 -2,-0.892 -2,-2 z"
           id="path4159"
           inkscape:connector-curvature="0"
           sodipodi:nodetypes="sssccccssss" />
        <path
           sodipodi:nodetypes="sssccccssss"
           inkscape:connector-curvature="0"
           id="rect3454"
           d="m 188,276 0,-28 c 0,-1.108 -0.89878,-2.12236 -2,-2 l -16,0 -4,4 -16,0 c -2,0 -2,1.91674 -2,1.91674 L 148,276 c 0,1.10799 0.892,2 2,2 l 36,0 c 1.108,0 2,-0.892 2,-2 z"
           style="fill:#c6ae91;fill-opacity:1;stroke:none" />
        <path
           sodipodi:nodetypes="sscsccccs"
           inkscape:connector-curvature="0"
           id="path4298"
           d="m 150,242 c -1.108,0 -2,0.892 -2,2 l 0,1 c 0,-1.108 0.892,-2 2,-2 l 16,0 4,4 0,-1 -4,-4 z"
           style="opacity:0.2;fill:#ffffff;fill-opacity:1;stroke:none" />
        <path
           inkscape:connector-curvature="0"
           id="path4161"
           d="m 170,246 -4,4 -16,0 c -2,0 -2,1.90625 -2,1.90625 l 0,1 c 0,0 0,-1.90625 2,-1.90625 l 16,0 4,-4 16,0 c 1.10122,-0.12236 2,0.892 2,2 l 0,-1 c 0,-1.108 -0.89878,-2.12236 -2,-2 l -16,0 z"
           style="opacity:0.2;fill:#ffffff;fill-opacity:1;stroke:none" />
        <path
           sodipodi:nodetypes="sssccssssss"
           inkscape:connector-curvature="0"
           id="path4112"
           d="m 97.999999,273.50827 0,-15.98236 c 0,-0.83008 0.691182,-1.69206 1.498346,-1.49834 l 10.987875,0 2.99669,2.99669 10.98787,0 c 0.83008,0 1.49834,0.66826 1.49834,1.49835 l 0,12.98566 c 0,0.83009 -0.66826,1.49835 -1.49834,1.49835 l -24.972435,0 c -0.830084,0 -1.498346,-0.66826 -1.498346,-1.49835 z"
           style="fill:#bb9e7b;fill-opacity:1;stroke:none" />
        <path
           sodipodi:nodetypes="ccsscsccc"
           inkscape:connector-curvature="0"
           id="path4127"
           d="m 112.96875,258.53125 -2.46875,2.5 -11,0 c -0.830084,0 -1.5,0.66991 -1.5,1.5 l 0,1 c 0,-0.83009 0.669916,-1.5 1.5,-1.5 l 11,0 2.96875,-3 z"
           style="opacity:0.1;fill:#000000;fill-opacity:1;stroke:none" />
        <path
           style="fill:#c6ae91;fill-opacity:1;stroke:none"
           d="m 125.96912,279.50166 0,-18.97905 c 0,-0.83009 -0.67166,-1.5735 -1.49834,-1.49835 l -10.98787,0 -2.99669,2.99669 -10.987875,0 c -0.830084,0 -1.498346,0.66826 -1.498346,1.49835 l 0,15.98236 c 0,0.83008 0.668262,1.49834 1.498346,1.49834 l 24.972435,0 c 0.83008,0 1.49834,-0.66826 1.49834,-1.49834 z"
           id="path4114"
           inkscape:connector-curvature="0"
           sodipodi:nodetypes="sssccssssss" />
        <path
           sodipodi:nodetypes="cscccccccc"
           inkscape:connector-curvature="0"
           id="path4133"
           d="M 99.1875,256 C 98.514467,256.04656 98,256.80493 98,257.53125 l 0,1 c 0,-0.83008 0.692836,-1.69372 1.5,-1.5 l 11,0 2.46875,2.5 0.5,-0.5 -2.96875,-3 -11,0 c -0.100896,-0.0242 -0.216352,-0.0379 -0.3125,-0.0312 z"
           style="opacity:0.2;fill:#ffffff;fill-opacity:1;stroke:none" />
        <path
           inkscape:connector-curvature="0"
           id="path4135"
           d="m 113.46875,259.03125 -2.96875,3 -11,0 c -0.830084,0 -1.5,0.66991 -1.5,1.5 l 0,1 c 0,-0.83009 0.669916,-1.5 1.5,-1.5 l 11,0 2.96875,-3 11,0 c 0.82668,-0.0752 1.5,0.66991 1.5,1.5 l 0,-1 c 0,-0.83009 -0.67332,-1.57515 -1.5,-1.5 l -11,0 z"
           style="opacity:0.1;fill:#ffffff;fill-opacity:1;stroke:none" />
        <path
           sodipodi:nodetypes="sssccccssss"
           inkscape:connector-curvature="0"
           id="path4234"
           d="m 54.000279,277.99581 0,-13.99609 c 0,-0.55385 0.449264,-1.06088 0.999721,-0.99972 l 7.997767,0 1.999442,1.99944 8.049014,0 c 0,0 0.948475,0 0.948475,0.99972 l 0,11.99665 c 0,0.55384 -0.445875,0.99972 -0.999721,0.99972 l -17.994977,0 c -0.553846,0 -0.999721,-0.44587 -0.999721,-0.99972 z"
           style="fill:#bb9e7b;fill-opacity:1;stroke:none" />
        <path
           style="fill:#c6ae91;fill-opacity:1;stroke:none"
           d="m 73.994698,279.99526 0,-13.9961 c 0,-0.55384 -0.449264,-1.06088 -0.999721,-0.99972 l -7.997768,0 -1.999442,1.99944 -7.997767,0 c -0.999721,0 -0.999721,0.95811 -0.999721,0.95811 l 0,12.03827 c 0,0.55384 0.445875,0.99972 0.999721,0.99972 l 17.994977,0 c 0.553846,0 0.999721,-0.44588 0.999721,-0.99972 z"
           id="path4236"
           inkscape:connector-curvature="0"
           sodipodi:nodetypes="sssccccssss" />
        <path
           inkscape:connector-curvature="0"
           id="path4244"
           d="M 54.8125,263 C 54.357745,263.06365 54,263.51538 54,264 l 0,1 c 0,-0.55385 0.449543,-1.06116 1,-1 l 8,0 1.5,1.5 0.5,-0.5 -2,-2 -8,0 c -0.06881,-0.008 -0.122535,-0.009 -0.1875,0 z m 18.90625,2.3125 C 73.888351,265.49935 74,265.73326 74,266 c 0,-0.34007 -0.133321,-0.5394 -0.28125,-0.6875 z M 73.03125,266 c 0,0 0.188133,0.0313 0.40625,0.125 -0.129014,-0.0664 -0.252191,-0.13564 -0.40625,-0.125 z"
           style="opacity:0.2;fill:#ffffff;fill-opacity:1;stroke:none" />
        <path
           inkscape:connector-curvature="0"
           id="path4246"
           d="m 65,265 -2,2 -8,0 c -0.999721,0 -1,0.96875 -1,0.96875 l 0,1 c 0,0 2.79e-4,-0.96875 1,-0.96875 l 8,0 2,-2 8,0 c 0.550457,-0.0612 1,0.44616 1,1 l 0,-1 c 0,-0.55384 -0.449543,-1.06116 -1,-1 l -8,0 z"
           style="opacity:0.1;fill:#ffffff;fill-opacity:1;stroke:none" />
        <path
           sodipodi:nodetypes="ccsccsccc"
           inkscape:connector-curvature="0"
           id="path4260"
           d="m 64.5,264.5 -1.5,1.5 -8,0 c -0.999721,0 -1,0.96875 -1,0.96875 l 0,1 c 0,0 2.79e-4,-0.96875 1,-0.96875 l 8,0 2,-2 z"
           style="opacity:0.1;fill:#000000;fill-opacity:1;stroke:none" />
        <path
           style="opacity:0.4;fill:none;stroke:none"
           d="m 54.875,263.5 c -0.578732,0.25534 -0.314857,0.96999 -0.375,1.46873 0,5.01043 0,10.02085 0,15.03127 0.06001,0.68358 0.83869,0.46293 1.307279,0.5 5.730907,0 11.461814,0 17.192721,0 0.683582,-0.06 0.462928,-0.83869 0.5,-1.30728 -0.0065,-4.44195 0.01307,-8.88485 -0.0098,-13.3262 -0.127761,-0.48918 -0.588941,-0.34535 -0.997103,-0.36647 -2.570604,0 -5.141209,0 -7.711814,0 -0.624056,-0.6955 -1.317418,-1.32896 -1.96875,-2.00005 -2.645833,0 -5.291667,0 -7.9375,0 z"
           id="path4290"
           inkscape:connector-curvature="0" />
        <path
           style="opacity:0.05;fill:#000000;fill-opacity:1;stroke:none"
           d="m 169,246 -3,3 -16,0 c -2,0 -2,1.90625 -2,1.90625 l 0,1 c 0,0 0,-1.90625 2,-1.90625 l 16,0 3.5,-3.5 z"
           id="path4518"
           inkscape:connector-curvature="0"
           sodipodi:nodetypes="ccsccsccc" />
        <path
           style="opacity:0.1;fill:#ffffff;fill-opacity:1;stroke:none"
           d="m 24.998047,271 -2,1.99805 -5.998047,0 c -0.999721,0 -1,0.95898 -1,0.95898 l 0,1 c 0,0 2.79e-4,-0.95898 1,-0.95898 l 5.998047,0 2,-1.99805 5.996094,0 c 0.553844,0 1,0.44616 1,1 l 0,-1 c 0,-0.55384 -0.446156,-1 -1,-1 l -5.996094,0 z"
           id="path4604"
           inkscape:connector-curvature="0" />
        <path
           style="opacity:0.1;fill:#ffffff;fill-opacity:1;stroke:none"
           d="m 17.001953,269 c -0.553844,0 -1,0.44616 -1,1 l 0,1 c 0,-0.55384 0.446156,-1 1,-1 l 5.996094,0 1.5,1.5 0.5,-0.5 5.996094,0 c 0.413815,0 0.767523,0.24851 0.919921,0.60547 -0.09705,-0.27545 -0.32126,-0.60742 -0.917968,-0.60742 l -5.998047,0 -2,-1.99805 -5.996094,0 z m 14.916016,2.61914 c 0.04811,0.1173 0.07617,0.24586 0.07617,0.38086 l 0,0.9375 c 3.4e-5,0.002 0.002,0.0195 0.002,0.0195 l 0,-1 c 0,0 -0.01746,-0.15817 -0.07813,-0.33789 z"
           id="path4609"
           inkscape:connector-curvature="0" />
        <path
           style="opacity:0.1;fill:#000000;fill-opacity:1;stroke:none"
           d="m 24.497209,270.49944 -1.499162,1.49861 -5.998047,0 c -0.999721,0 -1,0.95898 -1,0.95898 l 0,1 c 0,0 2.79e-4,-0.95898 1,-0.95898 l 5.998047,0 1.999162,-1.99861 z"
           id="path4713"
           inkscape:connector-curvature="0"
           sodipodi:nodetypes="ccsccsccc" />
        <path
           style="opacity:0.1;fill:#000000;fill-opacity:1;stroke:none"
           d="m 98,278.50195 0,1 C 98,280.33203 98.667963,281 99.498047,281 l 24.972653,0 c 0.83008,0 1.49805,-0.66797 1.49805,-1.49805 l 0,-1 c 0,0.83008 -0.66797,1.49805 -1.49805,1.49805 l -24.972653,0 C 98.667963,280 98,279.33203 98,278.50195 Z"
           id="path4515"
           inkscape:connector-curvature="0" />
        <path
           style="opacity:0.1;fill:#000000;fill-opacity:1;stroke:none"
           d="m 148,275 0,1 c 0,1.10799 0.892,2 2,2 l 36,0 c 1.108,0 2,-0.892 2,-2 l 0,-1 c 0,1.108 -0.892,2 -2,2 l -36,0 c -1.108,0 -2,-0.89201 -2,-2 z"
           id="path4520"
           inkscape:connector-curvature="0" />
        <path
           style="opacity:0.1;fill:#000000;fill-opacity:1;stroke:none"
           d="m 16,280.99609 0,1 c 0,0.55384 0.446154,0.99805 1,0.99805 l 13.994141,0 c 0.553846,0 1,-0.44421 1,-0.99805 l 0,-1 c 0,0.55384 -0.446154,0.99805 -1,0.99805 l -13.994141,0 c -0.553846,0 -1,-0.44421 -1,-0.99805 z"
           id="path4542"
           inkscape:connector-curvature="0" />
        <path
           style="opacity:0.1;fill:#000000;fill-opacity:1;stroke:none"
           d="m 54,278.99609 0,1 c 0,0.55384 0.446154,0.99805 1,0.99805 l 17.994141,0 c 0.553846,0 1,-0.44421 1,-0.99805 l 0,-1 c 0,0.55384 -0.446154,0.99805 -1,0.99805 l -17.994141,0 c -0.553846,0 -1,-0.44421 -1,-0.99805 z"
           id="path4544"
           inkscape:connector-curvature="0" />
      </g>
    </g>
  </g>
  <g
     transform="translate(0,244)"
     id="g4204"
     inkscape:label="Music"
     inkscape:groupmode="layer"
     style="display:inline">
    <g
       style="display:none"
       inkscape:label="Baseplate"
       id="g4226"
       inkscape:groupmode="layer">
      <text
         y="-292.25488"
         xml:space="preserve"
         x="15.006836"
         style="font-style:normal;font-variant:normal;font-weight:normal;font-stretch:normal;font-size:18px;font-family:'DejaVu Sans';-inkscape-font-specification:'DejaVu Sans';display:inline;fill:#000000;fill-opacity:1;stroke:none;enable-background:new"
         inkscape:label="context"
         id="text4228"><tspan
           style="font-style:normal;font-variant:normal;font-weight:normal;font-stretch:normal;font-family:'DejaVu Sans';-inkscape-font-specification:'DejaVu Sans'"
           y="-292.25488"
           x="15.006836"
           sodipodi:role="line"
           id="tspan4230">places</tspan></text>
      <text
         y="-292.25488"
         xml:space="preserve"
         x="142.48828"
         style="font-style:normal;font-variant:normal;font-weight:bold;font-stretch:normal;font-size:18px;line-height:125%;font-family:'DejaVu Sans';-inkscape-font-specification:'DejaVu Sans Bold';text-align:start;writing-mode:lr-tb;text-anchor:start;display:inline;fill:#000000;fill-opacity:1;stroke:none;enable-background:new"
         sodipodi:linespacing="125%"
         inkscape:label="icon-name"
         id="text4232"><tspan
           style="font-style:normal;font-variant:normal;font-weight:bold;font-stretch:normal;font-size:18px;font-family:'DejaVu Sans';-inkscape-font-specification:'DejaVu Sans Bold'"
           y="-292.25488"
           x="142.48828"
           sodipodi:role="line"
           id="tspan4234">folder-music</tspan></text>
      <rect
         style="display:inline;overflow:visible;visibility:visible;fill:#e9e9e9;fill-opacity:1;fill-rule:nonzero;stroke:none;stroke-width:2;marker:none;enable-background:accumulate"
         id="rect4236"
         width="16"
         height="16"
         x="-32"
         y="-356"
         inkscape:label="16x16"
         transform="scale(-1,1)" />
      <rect
         style="display:inline;overflow:visible;visibility:visible;fill:#e9e9e9;fill-opacity:1;fill-rule:nonzero;stroke:none;stroke-width:2;marker:none;enable-background:accumulate"
         id="rect4238"
         width="24"
         height="24"
         x="-76"
         y="-364"
         inkscape:label="24x24"
         transform="scale(-1,1)" />
      <rect
         style="display:inline;overflow:visible;visibility:visible;fill:#e9e9e9;fill-opacity:1;fill-rule:nonzero;stroke:none;stroke-width:2;marker:none;enable-background:accumulate"
         id="rect4240"
         width="32"
         height="32"
         x="-128"
         y="-372"
         inkscape:label="32x32"
         transform="scale(-1,1)" />
      <rect
         inkscape:label="48x48"
         y="-388"
         x="-192"
         height="48"
         width="48"
         id="rect4242"
         style="display:inline;overflow:visible;visibility:visible;fill:#e9e9e9;fill-opacity:1;fill-rule:nonzero;stroke:none;stroke-width:2;marker:none;enable-background:accumulate"
         transform="scale(-1,1)" />
      <rect
         style="display:inline;overflow:visible;visibility:visible;fill:#e9e9e9;fill-opacity:1;fill-rule:nonzero;stroke:none;stroke-width:2;marker:none;enable-background:accumulate"
         id="rect4244"
         width="512"
         height="512"
         x="-720"
         y="-852"
         inkscape:label="48x48"
         transform="scale(-1,1)" />
    </g>
    <g
       style="display:inline"
       inkscape:label="Symbols"
       id="g4246"
       inkscape:groupmode="layer">
      <use
         style="display:inline;enable-background:new"
         x="0"
         y="0"
         xlink:href="#g4315"
         id="use4350"
         transform="translate(0,-624)"
         width="100%"
         height="100%" />
      <g
         id="g4580"
         inkscape:label="places"
         style="display:inline;enable-background:new"
         transform="matrix(12.000001,0,0,12.000001,-5348.0007,-2792.0002)">
        <g
           id="g4582">
          <rect
             transform="translate(315.99998,546.99999)"
             y="-365"
             x="168"
             height="15.999999"
             width="15.999999"
             id="rect4584"
             style="display:inline;opacity:0.1;fill:none;fill-opacity:1;stroke:none;stroke-width:8;stroke-linecap:round;stroke-linejoin:round;stroke-miterlimit:4;stroke-dasharray:none;stroke-opacity:1;enable-background:new" />
          <path
             inkscape:connector-curvature="0"
             d="m 489,183.50001 c 0,0 0,0 0,1 l 0,7.1875 c -0.31647,-0.11352 -0.64447,-0.1875 -1,-0.1875 -1.65685,0 -3,1.34315 -3,3 0,1.65685 1.34315,3 3,3 1.65685,0 3,-1.34315 3,-3 l 0,-7 6,0 0,4.1875 c -0.31647,-0.11352 -0.64447,-0.1875 -1,-0.1875 -1.65685,0 -3,1.34315 -3,3 0,1.65685 1.34315,3 3,3 1.65685,0 3,-1.34315 3,-3 l 0,-11 c 0,0 0,0 -1,0 z"
             id="path4588"
             sodipodi:nodetypes="cccsssscccsssscsc"
             style="opacity:0.2;fill:#000000;fill-opacity:1;stroke:none;filter:url(#filter4590)" />
          <path
             style="fill:#ffffff;fill-opacity:1;stroke:none"
             sodipodi:nodetypes="cccsssscccsssscsc"
             id="path4586"
             d="m 489,183 c 0,0 0,0 0,1 l 0,7.1875 C 488.68353,191.07398 488.35553,191 488,191 c -1.65685,0 -3,1.34315 -3,3 0,1.65685 1.34315,3 3,3 1.65685,0 3,-1.34315 3,-3 l 0,-7 6,0 0,4.1875 C 496.68353,191.07398 496.35553,191 496,191 c -1.65685,0 -3,1.34315 -3,3 0,1.65685 1.34315,3 3,3 1.65685,0 3,-1.34315 3,-3 l 0,-11 c 0,0 0,0 -1,0 z"
             inkscape:connector-curvature="0" />
        </g>
      </g>
      <g
         transform="translate(-316.99998,-548.99999)"
         style="display:inline;enable-background:new"
         inkscape:label="places"
         id="g4546">
        <g
           id="g4570">
          <rect
             style="display:inline;opacity:0.1;fill:none;fill-opacity:1;stroke:none;stroke-width:8;stroke-linecap:round;stroke-linejoin:round;stroke-miterlimit:4;stroke-dasharray:none;stroke-opacity:1;enable-background:new"
             id="rect4544"
             width="15.999999"
             height="15.999999"
             x="168"
             y="-365"
             transform="translate(315.99998,546.99999)" />
          <path
             style="opacity:0.2;fill:#000000;fill-opacity:1;stroke:none"
             sodipodi:nodetypes="cccsssscccsssscsc"
             id="path4594"
             d="m 489,184 c 0,0 0,0 0,1 l 0,7.1875 C 488.68353,192.07398 488.35553,192 488,192 c -1.65685,0 -3,1.34315 -3,3 0,1.65685 1.34315,3 3,3 1.65685,0 3,-1.34315 3,-3 l 0,-7 6,0 0,4.1875 C 496.68353,192.07398 496.35553,192 496,192 c -1.65685,0 -3,1.34315 -3,3 0,1.65685 1.34315,3 3,3 1.65685,0 3,-1.34315 3,-3 l 0,-11 c 0,0 0,0 -1,0 z"
             inkscape:connector-curvature="0" />
          <path
             inkscape:connector-curvature="0"
             d="m 489,183 c 0,0 0,0 0,1 l 0,7.1875 C 488.68353,191.07398 488.35553,191 488,191 c -1.65685,0 -3,1.34315 -3,3 0,1.65685 1.34315,3 3,3 1.65685,0 3,-1.34315 3,-3 l 0,-7 6,0 0,4.1875 C 496.68353,191.07398 496.35553,191 496,191 c -1.65685,0 -3,1.34315 -3,3 0,1.65685 1.34315,3 3,3 1.65685,0 3,-1.34315 3,-3 l 0,-11 c 0,0 0,0 -1,0 z"
             id="path4550"
             sodipodi:nodetypes="cccsssscccsssscsc"
             style="fill:#ffffff;fill-opacity:1;stroke:none" />
        </g>
      </g>
      <g
         id="g4596"
         inkscape:label="places"
         style="display:inline;enable-background:new"
         transform="matrix(0.50000003,0,0,0.50000003,-177.50001,-444.50001)">
        <g
           id="g4598">
          <rect
             transform="translate(315.99998,546.99999)"
             y="-365"
             x="168"
             height="15.999999"
             width="15.999999"
             id="rect4600"
             style="display:inline;opacity:0.1;fill:none;fill-opacity:1;stroke:none;stroke-width:8;stroke-linecap:round;stroke-linejoin:round;stroke-miterlimit:4;stroke-dasharray:none;stroke-opacity:1;enable-background:new" />
          <path
             inkscape:connector-curvature="0"
             d="m 489,185.00001 c 0,0 0,0 0,1 l 0,7.1875 c -0.31647,-0.11352 -0.64447,-0.1875 -1,-0.1875 -1.65685,0 -3,1.34315 -3,3 0,1.65685 1.34315,3 3,3 1.65685,0 3,-1.34315 3,-3 l 0,-7 6,0 0,4.1875 c -0.31647,-0.11352 -0.64447,-0.1875 -1,-0.1875 -1.65685,0 -3,1.34315 -3,3 0,1.65685 1.34315,3 3,3 1.65685,0 3,-1.34315 3,-3 l 0,-11 c 0,0 0,0 -1,0 z"
             id="path4603"
             sodipodi:nodetypes="cccsssscccsssscsc"
             style="opacity:0.2;fill:#000000;fill-opacity:1;stroke:none" />
          <path
             style="fill:#ffffff;fill-opacity:1;stroke:none"
             sodipodi:nodetypes="cccsssscccsssscsc"
             id="path4605"
             d="m 489,183 c 0,0 0,0 0,1 l 0,7.1875 C 488.68353,191.07398 488.35553,191 488,191 c -1.65685,0 -3,1.34315 -3,3 0,1.65685 1.34315,3 3,3 1.65685,0 3,-1.34315 3,-3 l 0,-7 6,0 0,4.1875 C 496.68353,191.07398 496.35553,191 496,191 c -1.65685,0 -3,1.34315 -3,3 0,1.65685 1.34315,3 3,3 1.65685,0 3,-1.34315 3,-3 l 0,-11 c 0,0 0,0 -1,0 z"
             inkscape:connector-curvature="0" />
        </g>
      </g>
      <g
         transform="matrix(0.50000003,0,0,0.50000003,-219.50001,-441.50001)"
         style="display:inline;enable-background:new"
         inkscape:label="places"
         id="g4607">
        <g
           id="g4609">
          <rect
             style="display:inline;opacity:0.1;fill:none;fill-opacity:1;stroke:none;stroke-width:8;stroke-linecap:round;stroke-linejoin:round;stroke-miterlimit:4;stroke-dasharray:none;stroke-opacity:1;enable-background:new"
             id="rect4611"
             width="15.999999"
             height="15.999999"
             x="168"
             y="-365"
             transform="translate(315.99998,546.99999)" />
          <path
             inkscape:connector-curvature="0"
             d="m 489,183 c 0,0 0,0 0,1 l 0,7.1875 C 488.68353,191.07398 488.35553,191 488,191 c -1.65685,0 -3,1.34315 -3,3 0,1.65685 1.34315,3 3,3 1.65685,0 3,-1.34315 3,-3 l 0,-7 6,0 0,4.1875 C 496.68353,191.07398 496.35553,191 496,191 c -1.65685,0 -3,1.34315 -3,3 0,1.65685 1.34315,3 3,3 1.65685,0 3,-1.34315 3,-3 l 0,-11 c 0,0 0,0 -1,0 z"
             id="path4615"
             sodipodi:nodetypes="cccsssscccsssscsc"
             style="fill:#ffffff;fill-opacity:1;stroke:none" />
        </g>
      </g>
    </g>
  </g>
  <g
     style="display:inline"
     inkscape:groupmode="layer"
     inkscape:label="Download"
     id="g4637"
     transform="translate(0,244)">
    <g
       inkscape:groupmode="layer"
       id="g4639"
       inkscape:label="Baseplate"
       style="display:none">
      <text
         id="text4641"
         inkscape:label="context"
         style="font-style:normal;font-variant:normal;font-weight:normal;font-stretch:normal;font-size:18px;font-family:'DejaVu Sans';-inkscape-font-specification:'DejaVu Sans';display:inline;fill:#000000;fill-opacity:1;stroke:none;enable-background:new"
         x="15.006836"
         xml:space="preserve"
         y="-932.25488"><tspan
           id="tspan4643"
           sodipodi:role="line"
           x="15.006836"
           y="-932.25488"
           style="font-style:normal;font-variant:normal;font-weight:normal;font-stretch:normal;font-family:'DejaVu Sans';-inkscape-font-specification:'DejaVu Sans'">places</tspan></text>
      <text
         id="text4645"
         inkscape:label="icon-name"
         sodipodi:linespacing="125%"
         style="font-style:normal;font-variant:normal;font-weight:bold;font-stretch:normal;font-size:18px;line-height:125%;font-family:'DejaVu Sans';-inkscape-font-specification:'DejaVu Sans Bold';text-align:start;writing-mode:lr-tb;text-anchor:start;display:inline;fill:#000000;fill-opacity:1;stroke:none;enable-background:new"
         x="142.48828"
         xml:space="preserve"
         y="-932.25488"><tspan
           id="tspan4647"
           sodipodi:role="line"
           x="142.48828"
           y="-932.25488"
           style="font-style:normal;font-variant:normal;font-weight:bold;font-stretch:normal;font-size:18px;font-family:'DejaVu Sans';-inkscape-font-specification:'DejaVu Sans Bold'">folder-download</tspan></text>
      <rect
         transform="scale(-1,1)"
         inkscape:label="16x16"
         y="-996"
         x="-32"
         height="16"
         width="16"
         id="rect4649"
         style="display:inline;overflow:visible;visibility:visible;fill:#e9e9e9;fill-opacity:1;fill-rule:nonzero;stroke:none;stroke-width:2;marker:none;enable-background:accumulate" />
      <rect
         transform="scale(-1,1)"
         inkscape:label="24x24"
         y="-1004"
         x="-76"
         height="24"
         width="24"
         id="rect4651"
         style="display:inline;overflow:visible;visibility:visible;fill:#e9e9e9;fill-opacity:1;fill-rule:nonzero;stroke:none;stroke-width:2;marker:none;enable-background:accumulate" />
      <rect
         transform="scale(-1,1)"
         inkscape:label="32x32"
         y="-1012"
         x="-128"
         height="32"
         width="32"
         id="rect4653"
         style="display:inline;overflow:visible;visibility:visible;fill:#e9e9e9;fill-opacity:1;fill-rule:nonzero;stroke:none;stroke-width:2;marker:none;enable-background:accumulate" />
      <rect
         transform="scale(-1,1)"
         style="display:inline;overflow:visible;visibility:visible;fill:#e9e9e9;fill-opacity:1;fill-rule:nonzero;stroke:none;stroke-width:2;marker:none;enable-background:accumulate"
         id="rect4655"
         width="48"
         height="48"
         x="-192"
         y="-1028"
         inkscape:label="48x48" />
      <rect
         transform="scale(-1,1)"
         inkscape:label="48x48"
         y="-1492"
         x="-720"
         height="512"
         width="512"
         id="rect4657"
         style="display:inline;overflow:visible;visibility:visible;fill:#e9e9e9;fill-opacity:1;fill-rule:nonzero;stroke:none;stroke-width:2;marker:none;enable-background:accumulate" />
    </g>
    <g
       inkscape:groupmode="layer"
       id="g4659"
       inkscape:label="Symbols"
       style="display:inline">
      <use
         height="100%"
         width="100%"
         transform="translate(0,-1264)"
         id="use4661"
         xlink:href="#g4315"
         y="0"
         x="0"
         style="display:inline;enable-background:new" />
      <g
         id="g4811">
        <rect
           style="display:inline;opacity:0.1;fill:none;fill-opacity:1;stroke:none;stroke-width:8;stroke-linecap:round;stroke-linejoin:round;stroke-miterlimit:4;stroke-dasharray:none;stroke-opacity:1;enable-background:new"
           id="rect4677"
           width="15.999999"
           height="15.999999"
           x="167"
           y="-1007" />
        <g
           transform="translate(-279,-1213)"
           style="display:inline"
           inkscape:label="places"
           id="layer1-7">
          <path
             inkscape:connector-curvature="0"
             d="m 456,207 0,6 2.5,0 -4.5,7 -4.5,-7 2.5,0 0,-6 z m -8,14 12,0 0,2 -12,0 z"
             id="path4816"
             sodipodi:nodetypes="ccccccccccccc"
             style="fill:#000000;fill-opacity:1;stroke:none;opacity:0.2" />
          <path
             style="fill:#ffffff;fill-opacity:1;stroke:none"
             sodipodi:nodetypes="ccccccccccccc"
             id="path7087"
             d="m 456,206 0,6 2.5,0 -4.5,7 -4.5,-7 2.5,0 0,-6 z m -8,14 12,0 0,2 -12,0 z"
             inkscape:connector-curvature="0" />
        </g>
      </g>
      <g
         id="g4873"
         inkscape:label="places"
         style="display:inline;opacity:0.2;fill:#000000;fill-opacity:1;filter:url(#filter4877)"
         transform="matrix(12.000001,0,0,12.000001,-4888.0005,-3732.0002)">
        <path
           inkscape:connector-curvature="0"
           d="m 456,206 0,6 2.5,0 -4.5,7 -4.5,-7 2.5,0 0,-6 z m -8,14 12,0 0,2 -12,0 z"
           id="path4875"
           sodipodi:nodetypes="ccccccccccccc"
           style="fill:#000000;fill-opacity:1;stroke:none" />
      </g>
      <g
         transform="matrix(12.000001,0,0,12.000001,-4888.0005,-3740.0002)"
         style="display:inline;opacity:1;fill:#ffffff;fill-opacity:1"
         inkscape:label="places"
         id="g4822">
        <path
           style="fill:#ffffff;fill-opacity:1;stroke:none"
           sodipodi:nodetypes="ccccccccccccc"
           id="path4826"
           d="m 456,206 0,6 2.5,0 -4.5,7 -4.5,-7 2.5,0 0,-6 z m -8,14 12,0 0,2 -12,0 z"
           inkscape:connector-curvature="0" />
      </g>
      <g
         id="g4840"
         transform="matrix(0.50000003,0,0,0.50000003,-19.500005,-490.49997)">
        <rect
           y="-1007"
           x="167"
           height="15.999999"
           width="15.999999"
           id="rect4842"
           style="display:inline;opacity:0.1;fill:none;fill-opacity:1;stroke:none;stroke-width:8;stroke-linecap:round;stroke-linejoin:round;stroke-miterlimit:4;stroke-dasharray:none;stroke-opacity:1;enable-background:new" />
        <g
           id="g4844"
           inkscape:label="places"
           style="display:inline"
           transform="translate(-279,-1213)">
          <path
             style="opacity:0.2;fill:#000000;fill-opacity:1;stroke:none"
             sodipodi:nodetypes="ccccccccccccc"
             id="path4846"
             d="m 456,208 0,6 2.5,0 -4.5,7 -4.5,-7 2.5,0 0,-6 z m -8,14 12,0 0,2 -12,0 z"
             inkscape:connector-curvature="0" />
          <path
             inkscape:connector-curvature="0"
             d="m 456,206 0,6 2.5,0 -4.5,7 -4.5,-7 2.5,0 0,-6 z m -8,14 12,0 0,2 -12,0 z"
             id="path4848"
             sodipodi:nodetypes="ccccccccccccc"
             style="fill:#ffffff;fill-opacity:1;stroke:none" />
        </g>
      </g>
      <g
         id="g4854"
         inkscape:label="places"
         style="display:inline"
         transform="matrix(0.50000003,0,0,0.50000003,-200.00001,-1094)">
        <path
           inkscape:connector-curvature="0"
           d="m 456,206 0,6 2.5,0 -4.5,7 -4.5,-7 2.5,0 0,-6 z m -8,14 12,0 0,2 -12,0 z"
           id="path4858"
           sodipodi:nodetypes="ccccccccccccc"
           style="fill:#ffffff;fill-opacity:1;stroke:none" />
      </g>
    </g>
  </g>
</svg>
