<?xml version="1.0" encoding="UTF-8" standalone="no"?>
<!-- Created with Inkscape (http://www.inkscape.org/) -->

<svg
   xmlns:dc="http://purl.org/dc/elements/1.1/"
   xmlns:cc="http://creativecommons.org/ns#"
   xmlns:rdf="http://www.w3.org/1999/02/22-rdf-syntax-ns#"
   xmlns:svg="http://www.w3.org/2000/svg"
   xmlns="http://www.w3.org/2000/svg"
   xmlns:sodipodi="http://sodipodi.sourceforge.net/DTD/sodipodi-0.dtd"
   xmlns:inkscape="http://www.inkscape.org/namespaces/inkscape"
   inkscape:export-ydpi="90.000000"
   inkscape:export-xdpi="90.000000"
   width="736"
   height="544"
   id="svg11300"
   sodipodi:version="0.32"
   inkscape:version="0.91 r"
   sodipodi:docname="trash.svg"
   inkscape:output_extension="org.inkscape.output.svg.inkscape"
   version="1.0"
   style="display:inline;enable-background:new"
   inkscape:export-filename="/home/sam/paper-template.png">
  <title
     id="title3004">Paper Icon Theme</title>
  <sodipodi:namedview
     stroke="#ef2929"
     fill="#f57900"
     id="base"
     pagecolor="#ffffff"
     bordercolor="#666666"
     borderopacity="0.25490196"
     inkscape:pageopacity="0"
     inkscape:pageshadow="2"
     inkscape:zoom="1"
     inkscape:cx="65.619478"
     inkscape:cy="25.411414"
     inkscape:current-layer="layer6"
     showgrid="false"
     inkscape:grid-bbox="true"
     inkscape:document-units="px"
     inkscape:showpageshadow="false"
     inkscape:window-width="1920"
     inkscape:window-height="1018"
     inkscape:window-x="0"
     inkscape:window-y="32"
     width="400px"
     height="300px"
     inkscape:snap-nodes="true"
     inkscape:snap-bbox="true"
     gridtolerance="10000"
     inkscape:object-nodes="true"
     inkscape:snap-grids="true"
     showguides="true"
     inkscape:guide-bbox="true"
     inkscape:window-maximized="1"
     inkscape:bbox-nodes="true"
     inkscape:snap-bbox-edge-midpoints="true"
     inkscape:snap-intersection-paths="true"
     inkscape:object-paths="true"
     inkscape:snap-smooth-nodes="true"
     inkscape:snap-midpoints="true">
    <inkscape:grid
       spacingy="1px"
       spacingx="1px"
       id="grid5883"
       type="xygrid"
       enabled="true"
       visible="true"
       empspacing="4"
       snapvisiblegridlinesonly="true" />
    <inkscape:grid
       type="xygrid"
       id="grid11592"
       empspacing="2"
       visible="true"
       enabled="false"
       spacingx="0.5px"
       spacingy="0.5px"
       color="#ff0000"
       opacity="0.1254902"
       empcolor="#ff0000"
       empopacity="0.25098039"
       snapvisiblegridlinesonly="true" />
  </sodipodi:namedview>
  <defs
     id="defs3">
    <filter
       inkscape:collect="always"
       style="color-interpolation-filters:sRGB"
       id="filter4194"
       x="-0.026000001"
       width="1.052"
       y="-0.022285715"
       height="1.0445714">
      <feGaussianBlur
         inkscape:collect="always"
         stdDeviation="4.16"
         id="feGaussianBlur4196" />
    </filter>
  </defs>
  <metadata
     id="metadata4">
    <rdf:RDF>
      <cc:Work
         rdf:about="">
        <dc:format>image/svg+xml</dc:format>
        <dc:type
           rdf:resource="http://purl.org/dc/dcmitype/StillImage" />
        <dc:creator>
          <cc:Agent>
            <dc:title>Sam Hewitt</dc:title>
          </cc:Agent>
        </dc:creator>
        <dc:source />
        <cc:license
           rdf:resource="http://creativecommons.org/licenses/by-sa/3.0/" />
        <dc:title>Paper Icon Theme</dc:title>
        <dc:subject>
          <rdf:Bag />
        </dc:subject>
        <dc:date />
        <dc:rights>
          <cc:Agent>
            <dc:title />
          </cc:Agent>
        </dc:rights>
        <dc:publisher>
          <cc:Agent>
            <dc:title />
          </cc:Agent>
        </dc:publisher>
        <dc:identifier />
        <dc:relation />
        <dc:language />
        <dc:coverage />
        <dc:description />
        <dc:contributor>
          <cc:Agent>
            <dc:title />
          </cc:Agent>
        </dc:contributor>
      </cc:Work>
      <cc:Work
         rdf:about="">
        <dc:format>image/svg+xml</dc:format>
        <dc:type
           rdf:resource="http://purl.org/dc/dcmitype/StillImage" />
      </cc:Work>
      <cc:License
         rdf:about="http://creativecommons.org/licenses/by-sa/3.0/">
        <cc:permits
           rdf:resource="http://creativecommons.org/ns#Reproduction" />
        <cc:permits
           rdf:resource="http://creativecommons.org/ns#Distribution" />
        <cc:requires
           rdf:resource="http://creativecommons.org/ns#Notice" />
        <cc:requires
           rdf:resource="http://creativecommons.org/ns#Attribution" />
        <cc:permits
           rdf:resource="http://creativecommons.org/ns#DerivativeWorks" />
        <cc:requires
           rdf:resource="http://creativecommons.org/ns#ShareAlike" />
      </cc:License>
    </rdf:RDF>
  </metadata>
  <g
     style="display:inline"
     inkscape:groupmode="layer"
     inkscape:label="user-trash"
     id="layer1"
     transform="translate(0,244)">
    <g
       style="display:none"
       inkscape:label="Baseplate"
       id="layer7"
       inkscape:groupmode="layer">
      <text
         y="332.76685"
         xml:space="preserve"
         x="15.006836"
         style="font-style:normal;font-variant:normal;font-weight:normal;font-stretch:normal;font-size:18px;font-family:'DejaVu Sans';-inkscape-font-specification:'DejaVu Sans';display:inline;fill:#000000;fill-opacity:1;stroke:none;enable-background:new"
         inkscape:label="context"
         id="context"><tspan
           style="font-style:normal;font-variant:normal;font-weight:normal;font-stretch:normal;font-family:'DejaVu Sans';-inkscape-font-specification:'DejaVu Sans'"
           y="332.76685"
           x="15.006836"
           sodipodi:role="line"
           id="tspan3933">places</tspan></text>
      <text
         y="332.76685"
         xml:space="preserve"
         x="142.48828"
         style="font-style:normal;font-variant:normal;font-weight:bold;font-stretch:normal;font-size:18px;line-height:125%;font-family:'DejaVu Sans';-inkscape-font-specification:'DejaVu Sans Bold';text-align:start;writing-mode:lr-tb;text-anchor:start;display:inline;fill:#000000;fill-opacity:1;stroke:none;enable-background:new"
         sodipodi:linespacing="125%"
         inkscape:label="icon-name"
         id="icon-name"><tspan
           style="font-style:normal;font-variant:normal;font-weight:bold;font-stretch:normal;font-size:18px;font-family:'DejaVu Sans';-inkscape-font-specification:'DejaVu Sans Bold'"
           y="332.76685"
           x="142.48828"
           sodipodi:role="line"
           id="tspan3937">user-trash</tspan></text>
      <rect
         style="display:inline;overflow:visible;visibility:visible;fill:#ececec;fill-opacity:1;fill-rule:nonzero;stroke:none;stroke-width:2;marker:none;enable-background:accumulate"
         id="rect16x16"
         width="16"
         height="16"
         x="-32"
         y="268"
         inkscape:label="16x16"
         transform="scale(-1,1)" />
      <rect
         style="display:inline;overflow:visible;visibility:visible;fill:#e6e6e6;fill-opacity:1;fill-rule:nonzero;stroke:none;stroke-width:2;marker:none;enable-background:accumulate"
         id="rect24x24"
         width="24"
         height="24"
         x="-76"
         y="260"
         inkscape:label="24x24"
         transform="scale(-1,1)" />
      <rect
         style="display:inline;overflow:visible;visibility:visible;fill:#e6e6e6;fill-opacity:1;fill-rule:nonzero;stroke:none;stroke-width:2;marker:none;enable-background:accumulate"
         id="rect32x32"
         width="32"
         height="32"
         x="-128"
         y="252"
         inkscape:label="32x32"
         transform="scale(-1,1)" />
      <rect
         inkscape:label="48x48"
         y="236"
         x="-192"
         height="48"
         width="48"
         id="rect48x48"
         style="display:inline;overflow:visible;visibility:visible;fill:#e6e6e6;fill-opacity:1;fill-rule:nonzero;stroke:none;stroke-width:2;marker:none;enable-background:accumulate"
         transform="scale(-1,1)" />
      <text
         xml:space="preserve"
         style="font-style:normal;font-weight:normal;font-size:40px;line-height:125%;font-family:sans-serif;letter-spacing:0px;word-spacing:0px;fill:#000000;fill-opacity:1;stroke:none;stroke-width:1px;stroke-linecap:butt;stroke-linejoin:miter;stroke-opacity:1"
         x="48"
         y="60"
         id="text4185"
         sodipodi:linespacing="125%"><tspan
           sodipodi:role="line"
           id="tspan4187"
           x="48"
           y="60" /></text>
      <rect
         style="display:inline;overflow:visible;visibility:visible;fill:#e6e6e6;fill-opacity:1;fill-rule:nonzero;stroke:none;stroke-width:2;marker:none;enable-background:accumulate"
         id="rect3951"
         width="512"
         height="512"
         x="-720"
         y="-228"
         inkscape:label="48x48"
         transform="scale(-1,1)" />
    </g>
    <g
       inkscape:groupmode="layer"
       id="layer6"
       inkscape:label="Symbols"
       style="display:inline">
      <path
         style="opacity:0.2;fill:#000000;fill-opacity:1;stroke:none"
         d="m 56,263 c -0.554,0 -1,0.446 -1,1 l 0,2 1,0 0,15 c 0,2 2,2 2,2 l 12,0 c 2,0 2,-2 2,-2 l 0,-15 1,0 0,-2 c -0.02829,-0.55328 -0.446,-1 -1,-1 z"
         id="path4363"
         inkscape:connector-curvature="0"
         sodipodi:nodetypes="ssccscsccccss" />
      <path
         style="opacity:1;fill:#78909c;fill-opacity:1;stroke:none;stroke-width:8;stroke-linecap:round;stroke-linejoin:miter;stroke-miterlimit:4;stroke-dasharray:none;stroke-opacity:1"
         d="m 61,261 6,0 0,2 -6,0 z"
         id="rect4314"
         inkscape:connector-curvature="0"
         sodipodi:nodetypes="ccccc" />
      <path
         sodipodi:nodetypes="cccscsc"
         inkscape:connector-curvature="0"
         id="path4318"
         d="m 72,280 0,-16 -16,0 0,16 c 0,2 2,2 2,2 l 12,0 c 2,0 2,-2 2,-2 z"
         style="opacity:1;fill:#607d8b;fill-opacity:1;stroke:none" />
      <rect
         ry="1"
         y="263"
         x="63"
         height="16"
         width="2"
         id="rect4320"
         style="opacity:0.2;fill:#000000;fill-opacity:1;stroke:none;stroke-width:8;stroke-linecap:round;stroke-linejoin:miter;stroke-miterlimit:4;stroke-dasharray:none;stroke-opacity:1" />
      <rect
         ry="1"
         y="263"
         x="58"
         height="16"
         width="2"
         id="rect4322"
         style="opacity:0.2;fill:#000000;fill-opacity:1;stroke:none;stroke-width:8;stroke-linecap:round;stroke-linejoin:miter;stroke-miterlimit:4;stroke-dasharray:none;stroke-opacity:1" />
      <rect
         style="opacity:0.2;fill:#000000;fill-opacity:1;stroke:none;stroke-width:8;stroke-linecap:round;stroke-linejoin:miter;stroke-miterlimit:4;stroke-dasharray:none;stroke-opacity:1"
         id="rect4324"
         width="2"
         height="16"
         x="68"
         y="263"
         ry="1" />
      <path
         style="opacity:1;fill:#78909c;fill-opacity:1;stroke:none"
         d="m 73,263 0,2 -18,0 0,-2 c 0,-0.554 0.446,-1 1,-1 l 16,0 c 0.554,0 1,0.446 1,1 z"
         id="path4326"
         inkscape:connector-curvature="0"
         sodipodi:nodetypes="sccssss" />
      <path
         style="opacity:0.05;fill:#000000;fill-opacity:1;stroke:none;stroke-width:8;stroke-linecap:round;stroke-linejoin:miter;stroke-miterlimit:4;stroke-dasharray:none;stroke-opacity:1"
         d="m 56,265 16,0 0,1 -16,0 z"
         id="rect4330"
         inkscape:connector-curvature="0"
         sodipodi:nodetypes="ccccc" />
      <path
         style="color:#000000;font-style:normal;font-variant:normal;font-weight:normal;font-stretch:normal;font-size:medium;line-height:normal;font-family:Sans;-inkscape-font-specification:Sans;text-indent:0;text-align:start;text-decoration:none;text-decoration-line:none;letter-spacing:normal;word-spacing:normal;text-transform:none;direction:ltr;block-progression:tb;writing-mode:lr-tb;baseline-shift:baseline;text-anchor:start;display:inline;overflow:visible;visibility:visible;opacity:0.2;fill:#000000;fill-opacity:1;stroke:none;stroke-width:2;marker:none;enable-background:accumulate"
         d="m 107,255 0,0.99414 -6,0 c 0,0 -2,0.005 -2,2.00586 l 0,2 1,0 0,21 c 1e-4,1.04716 0.95284,1.9999 2,2 l 17,0 2,0 c 1.04716,-10e-5 1.9999,-0.95284 2,-2 l 0,-21.00586 1,0 L 124,258 c 0,-2 -2,-2.00586 -2,-2.00586 l -6,0 L 116,255 Z"
         id="path4294"
         inkscape:connector-curvature="0"
         sodipodi:nodetypes="cccscccccccccscccc" />
      <path
         style="color:#000000;font-style:normal;font-variant:normal;font-weight:normal;font-stretch:normal;font-size:medium;line-height:normal;font-family:Sans;-inkscape-font-specification:Sans;text-indent:0;text-align:start;text-decoration:none;text-decoration-line:none;letter-spacing:normal;word-spacing:normal;text-transform:none;direction:ltr;block-progression:tb;writing-mode:lr-tb;baseline-shift:baseline;text-anchor:start;display:inline;overflow:visible;visibility:visible;fill:#607d8b;fill-opacity:1;stroke:none;stroke-width:2;marker:none;enable-background:accumulate"
         d="m 100,258 0,22 c 1e-4,1.04716 0.95284,1.9999 2,2 l 17,0 2,0 c 1.04716,-10e-5 1.9999,-0.95284 2,-2 l 0,-22 z"
         id="path4282"
         inkscape:connector-curvature="0"
         sodipodi:nodetypes="cccccccc" />
      <rect
         style="opacity:0.2;fill:#000000;fill-opacity:1;stroke:none;stroke-width:8;stroke-linecap:round;stroke-linejoin:miter;stroke-miterlimit:4;stroke-dasharray:none;stroke-opacity:1"
         id="rect4288"
         width="3"
         height="21"
         x="104"
         y="257"
         ry="1.5" />
      <rect
         ry="1.5"
         y="257"
         x="110"
         height="21"
         width="3"
         id="rect4290"
         style="opacity:0.2;fill:#000000;fill-opacity:1;stroke:none;stroke-width:8;stroke-linecap:round;stroke-linejoin:miter;stroke-miterlimit:4;stroke-dasharray:none;stroke-opacity:1" />
      <rect
         style="opacity:0.2;fill:#000000;fill-opacity:1;stroke:none;stroke-width:8;stroke-linecap:round;stroke-linejoin:miter;stroke-miterlimit:4;stroke-dasharray:none;stroke-opacity:1"
         id="rect4292"
         width="3"
         height="21"
         x="116"
         y="257"
         ry="1.5" />
      <path
         sodipodi:nodetypes="ccccccccccc"
         inkscape:connector-curvature="0"
         id="path4284"
         d="m 99,257 0,2 25.0004,-0.006 L 124,257 c 0,-2 -1.9996,-2.00672 -1.9996,-2.00672 l -6,0 L 116,254 l -9,0 4e-4,0.99328 -6,0 c 0,0 -2.0004,0.006 -2.0004,2.00672 z"
         style="color:#000000;font-style:normal;font-variant:normal;font-weight:normal;font-stretch:normal;font-size:medium;line-height:normal;font-family:Sans;-inkscape-font-specification:Sans;text-indent:0;text-align:start;text-decoration:none;text-decoration-line:none;letter-spacing:normal;word-spacing:normal;text-transform:none;direction:ltr;block-progression:tb;writing-mode:lr-tb;baseline-shift:baseline;text-anchor:start;display:inline;overflow:visible;visibility:visible;fill:#78909c;fill-opacity:1;stroke:none;stroke-width:2;marker:none;enable-background:accumulate" />
      <rect
         style="opacity:1;fill:#78909c;fill-opacity:1;stroke:none;stroke-width:8;stroke-linecap:round;stroke-linejoin:miter;stroke-miterlimit:4;stroke-dasharray:none;stroke-opacity:1"
         id="rect4259"
         width="11"
         height="4"
         x="163"
         y="240"
         ry="1" />
      <path
         style="opacity:0.2;fill:#000000;fill-opacity:1;stroke:none"
         d="M 154 487 C 152.892 487 152 487.892 152 489 L 152 493 L 153 493 L 153 523 C 153 524.108 153.892 525 155 525 L 182 525 C 183.108 525 184 524.108 184 523 L 184 493 L 185 493 L 185 489 C 185 487.892 184.108 487 183 487 L 154 487 z "
         transform="translate(0,-244)"
         id="path4241" />
      <path
         style="opacity:0.1;fill:#000000;fill-opacity:1;stroke:#000000;stroke-width:8;stroke-miterlimit:4;stroke-dasharray:none;stroke-opacity:1;filter:url(#filter4194)"
         d="m 640,232 16,-424 -384,0 16,424 c 0.5016,13.28656 10.704,24 24,24 l 304,0 c 13.296,0 23.49864,-10.71344 24,-24 z"
         id="path4198"
         inkscape:connector-curvature="0"
         sodipodi:nodetypes="sccssss" />
      <path
         style="opacity:1;fill:#607d8b;fill-opacity:1;stroke:none"
         d="m 184,278 0,-32 -31,0 0,32 c 0,1.108 0.892,2 2,2 l 27,0 c 1.108,0 2,-0.892 2,-2 z"
         id="rect4203"
         inkscape:connector-curvature="0"
         sodipodi:nodetypes="sccssss" />
      <path
         sodipodi:nodetypes="sccssss"
         inkscape:connector-curvature="0"
         id="path4173"
         d="m 640,232 16,-424 -384,0 16,424 c 0.5016,13.28656 10.704,24 24,24 l 304,0 c 13.296,0 23.49864,-10.71344 24,-24 z"
         style="opacity:0.2;fill:#000000;fill-opacity:1;stroke:none;filter:url(#filter4194)" />
      <path
         style="opacity:0.8;fill:#78909c;fill-opacity:1;stroke:none"
         d="m 640,228 16,-424 -384,0 16,424 c 0.5016,13.28656 10.704,24 24,24 l 304,0 c 13.296,0 23.49864,-10.71344 24,-24 z"
         id="rect4229"
         inkscape:connector-curvature="0"
         sodipodi:nodetypes="sccssss" />
      <path
         inkscape:connector-curvature="0"
         style="opacity:0.2;fill:#ffffff;fill-opacity:1;stroke:none"
         d="m 272,-196 0.0742,2 383.85156,0 0.0742,-2 -384,0 z"
         id="path4177" />
      <rect
         style="opacity:0.2;fill:#000000;fill-opacity:1;stroke:none;stroke-width:8;stroke-linecap:round;stroke-linejoin:miter;stroke-miterlimit:4;stroke-dasharray:none;stroke-opacity:1"
         id="rect4237"
         width="3"
         height="30"
         x="167"
         y="245"
         ry="1.5" />
      <rect
         style="opacity:0.2;fill:#000000;fill-opacity:1;stroke:none;stroke-width:8;stroke-linecap:round;stroke-linejoin:miter;stroke-miterlimit:4;stroke-dasharray:none;stroke-opacity:1"
         id="rect4233"
         width="3"
         height="30"
         x="159"
         y="245"
         ry="1.5" />
      <rect
         ry="1.5"
         y="245"
         x="175"
         height="30"
         width="3"
         id="rect4235"
         style="opacity:0.2;fill:#000000;fill-opacity:1;stroke:none;stroke-width:8;stroke-linecap:round;stroke-linejoin:miter;stroke-miterlimit:4;stroke-dasharray:none;stroke-opacity:1" />
      <path
         sodipodi:nodetypes="sccssss"
         inkscape:connector-curvature="0"
         id="path4231"
         d="m 185,244 0,4 -33,0 0,-4 c 0,-1.108 0.892,-2 2,-2 l 29,0 c 1.108,0 2,0.892 2,2 z"
         style="opacity:1;fill:#78909c;fill-opacity:1;stroke:none" />
      <path
         style="opacity:0.2;fill:#ffffff;fill-opacity:1;stroke:none"
         d="M 154 486 C 152.892 486 152 486.892 152 488 L 152 489 C 152 487.892 152.892 487 154 487 L 183 487 C 184.108 487 185 487.892 185 489 L 185 488 C 185 486.892 184.108 486 183 486 L 154 486 z "
         transform="translate(0,-244)"
         id="path4243" />
      <rect
         style="opacity:0.05;fill:#000000;fill-opacity:1;stroke:none;stroke-width:8;stroke-linecap:round;stroke-linejoin:miter;stroke-miterlimit:4;stroke-dasharray:none;stroke-opacity:1"
         id="rect4249"
         width="31"
         height="1"
         x="153"
         y="248" />
      <path
         sodipodi:nodetypes="cccccccc"
         inkscape:connector-curvature="0"
         id="path8476-3"
         d="m 18,271 0,11 c 5e-5,0.52358 0.47642,0.99995 1,1 l 8,0 1,0 c 0.52358,-5e-5 0.99995,-0.47642 1,-1 l 0,-11 z"
         style="color:#000000;font-style:normal;font-variant:normal;font-weight:normal;font-stretch:normal;font-size:medium;line-height:normal;font-family:Sans;-inkscape-font-specification:Sans;text-indent:0;text-align:start;text-decoration:none;text-decoration-line:none;letter-spacing:normal;word-spacing:normal;text-transform:none;direction:ltr;block-progression:tb;writing-mode:lr-tb;baseline-shift:baseline;text-anchor:start;display:inline;overflow:visible;visibility:visible;fill:#607d8b;fill-opacity:1;stroke:none;stroke-width:2;marker:none;enable-background:accumulate" />
      <rect
         y="271"
         x="20"
         height="10"
         width="1"
         id="rect4308"
         style="opacity:0.2;fill:#000000;fill-opacity:1;stroke:none;stroke-width:8;stroke-linecap:round;stroke-linejoin:miter;stroke-miterlimit:4;stroke-dasharray:none;stroke-opacity:1" />
      <rect
         style="opacity:0.2;fill:#000000;fill-opacity:1;stroke:none;stroke-width:8;stroke-linecap:round;stroke-linejoin:miter;stroke-miterlimit:4;stroke-dasharray:none;stroke-opacity:1"
         id="rect4310"
         width="1"
         height="10"
         x="26"
         y="271" />
      <path
         style="color:#000000;font-style:normal;font-variant:normal;font-weight:normal;font-stretch:normal;font-size:medium;line-height:normal;font-family:Sans;-inkscape-font-specification:Sans;text-indent:0;text-align:start;text-decoration:none;text-decoration-line:none;letter-spacing:normal;word-spacing:normal;text-transform:none;direction:ltr;block-progression:tb;writing-mode:lr-tb;baseline-shift:baseline;text-anchor:start;display:inline;overflow:visible;visibility:visible;opacity:0.2;fill:#ffffff;fill-opacity:1;stroke:none;stroke-width:2;marker:none;enable-background:accumulate"
         d="m 107,498 0,0.99414 -6,0 c 0,0 -2,0.005 -2,2.00586 l 0,1 c 0,-2.00072 2,-2.00586 2,-2.00586 l 6,0 0,-0.99414 9,0 0,0.99414 6,0 c 0,0 2,0.006 2,2.00586 l 0,-1 c 0,-2 -2,-2.00586 -2,-2.00586 l -6,0 L 116,498 Z"
         transform="translate(0,-244)"
         id="path4299"
         inkscape:connector-curvature="0"
         sodipodi:nodetypes="cccsccccccccscccc" />
      <path
         style="opacity:0.05;fill:#000000;fill-opacity:1;stroke:none;stroke-width:8;stroke-linecap:round;stroke-linejoin:miter;stroke-miterlimit:4;stroke-dasharray:none;stroke-opacity:1"
         d="m 100,259 24,0 0,1 -24,0 z"
         id="rect4304" />
      <rect
         y="271"
         x="23"
         height="10"
         width="1"
         id="rect4312"
         style="opacity:0.2;fill:#000000;fill-opacity:1;stroke:none;stroke-width:8;stroke-linecap:round;stroke-linejoin:miter;stroke-miterlimit:4;stroke-dasharray:none;stroke-opacity:1" />
      <path
         style="color:#000000;font-style:normal;font-variant:normal;font-weight:normal;font-stretch:normal;font-size:medium;line-height:normal;font-family:Sans;-inkscape-font-specification:Sans;text-indent:0;text-align:start;text-decoration:none;text-decoration-line:none;letter-spacing:normal;word-spacing:normal;text-transform:none;direction:ltr;block-progression:tb;writing-mode:lr-tb;baseline-shift:baseline;text-anchor:start;display:inline;overflow:visible;visibility:visible;fill:#78909c;fill-opacity:1;stroke:none;stroke-width:2;marker:none;enable-background:accumulate"
         d="m 17,271 0,1 13.0002,-0.003 L 30,271 c 0,-1 -0.9998,-1.00336 -0.9998,-1.00336 l -3,0 L 26,269 l -5,0 2e-4,0.99664 -3,0 c 0,0 -1.0002,0.003 -1.0002,1.00336 z"
         id="path8478-1"
         inkscape:connector-curvature="0"
         sodipodi:nodetypes="ccccccccccc" />
      <path
         style="opacity:0.2;fill:#ffffff;fill-opacity:1;stroke:none;stroke-width:8;stroke-linecap:round;stroke-linejoin:miter;stroke-miterlimit:4;stroke-dasharray:none;stroke-opacity:1"
         d="m 61,261 0,1 6,0 0,-1 z m 6,1 0,1 5,0 c 0.554,0 0.97171,0.44672 1,1 l 0,-1 c -0.02829,-0.55328 -0.456758,-1.10865 -1,-1 z m -6,0 -5,0 c -0.554,0 -1,0.446 -1,1 l 0,1 c 0,-0.554 0.456758,-1.10865 1,-1 l 5,0 z"
         id="rect4355"
         inkscape:connector-curvature="0"
         sodipodi:nodetypes="cccccccsccsccsscscc" />
    </g>
  </g>
  <g
     transform="translate(0,244)"
     id="g4242"
     inkscape:label="user-trash-full"
     inkscape:groupmode="layer"
     style="display:inline">
    <g
       inkscape:groupmode="layer"
       id="g4244"
       inkscape:label="Baseplate"
       style="display:none">
      <text
         id="text4246"
         inkscape:label="context"
         style="font-style:normal;font-variant:normal;font-weight:normal;font-stretch:normal;font-size:18px;font-family:'DejaVu Sans';-inkscape-font-specification:'DejaVu Sans';display:inline;fill:#000000;fill-opacity:1;stroke:none;enable-background:new"
         x="15.006836"
         xml:space="preserve"
         y="-307.23315"><tspan
           id="tspan4248"
           sodipodi:role="line"
           x="15.006836"
           y="-307.23315"
           style="font-style:normal;font-variant:normal;font-weight:normal;font-stretch:normal;font-family:'DejaVu Sans';-inkscape-font-specification:'DejaVu Sans'">status</tspan></text>
      <text
         id="text4250"
         inkscape:label="icon-name"
         sodipodi:linespacing="125%"
         style="font-style:normal;font-variant:normal;font-weight:bold;font-stretch:normal;font-size:18px;line-height:125%;font-family:'DejaVu Sans';-inkscape-font-specification:'DejaVu Sans Bold';text-align:start;writing-mode:lr-tb;text-anchor:start;display:inline;fill:#000000;fill-opacity:1;stroke:none;enable-background:new"
         x="142.48828"
         xml:space="preserve"
         y="-307.23315"><tspan
           id="tspan4252"
           sodipodi:role="line"
           x="142.48828"
           y="-307.23315"
           style="font-style:normal;font-variant:normal;font-weight:bold;font-stretch:normal;font-size:18px;font-family:'DejaVu Sans';-inkscape-font-specification:'DejaVu Sans Bold'">user-trash-full</tspan></text>
      <rect
         transform="scale(-1,1)"
         inkscape:label="16x16"
         y="-372"
         x="-32"
         height="16"
         width="16"
         id="rect4254"
         style="display:inline;overflow:visible;visibility:visible;fill:#ececec;fill-opacity:1;fill-rule:nonzero;stroke:none;stroke-width:2;marker:none;enable-background:accumulate" />
      <rect
         transform="scale(-1,1)"
         inkscape:label="24x24"
         y="-380"
         x="-76"
         height="24"
         width="24"
         id="rect4256"
         style="display:inline;overflow:visible;visibility:visible;fill:#e6e6e6;fill-opacity:1;fill-rule:nonzero;stroke:none;stroke-width:2;marker:none;enable-background:accumulate" />
      <rect
         transform="scale(-1,1)"
         inkscape:label="32x32"
         y="-388"
         x="-128"
         height="32"
         width="32"
         id="rect4258"
         style="display:inline;overflow:visible;visibility:visible;fill:#e6e6e6;fill-opacity:1;fill-rule:nonzero;stroke:none;stroke-width:2;marker:none;enable-background:accumulate" />
      <rect
         transform="scale(-1,1)"
         style="display:inline;overflow:visible;visibility:visible;fill:#e6e6e6;fill-opacity:1;fill-rule:nonzero;stroke:none;stroke-width:2;marker:none;enable-background:accumulate"
         id="rect4260"
         width="48"
         height="48"
         x="-192"
         y="-404"
         inkscape:label="48x48" />
      <text
         sodipodi:linespacing="125%"
         id="text4262"
         y="60"
         x="48"
         style="font-style:normal;font-weight:normal;font-size:40px;line-height:125%;font-family:sans-serif;letter-spacing:0px;word-spacing:0px;fill:#000000;fill-opacity:1;stroke:none;stroke-width:1px;stroke-linecap:butt;stroke-linejoin:miter;stroke-opacity:1"
         xml:space="preserve"><tspan
           y="60"
           x="48"
           id="tspan4264"
           sodipodi:role="line" /></text>
      <rect
         transform="scale(-1,1)"
         inkscape:label="48x48"
         y="-868"
         x="-720"
         height="512"
         width="512"
         id="rect4266"
         style="display:inline;overflow:visible;visibility:visible;fill:#e6e6e6;fill-opacity:1;fill-rule:nonzero;stroke:none;stroke-width:2;marker:none;enable-background:accumulate" />
    </g>
    <g
       style="display:inline"
       inkscape:label="Symbols"
       id="g4268"
       inkscape:groupmode="layer">
      <path
         style="display:inline;opacity:0.2;fill:#000000;fill-opacity:1;stroke:none;enable-background:new"
         d="m 30,-357 1,-13 -14,0 1,13 c 0.04249,0.55237 0.446,1 1,1 l 10,0 c 0.554,0 0.963148,-0.44723 1,-1 z"
         id="path4478"
         inkscape:connector-curvature="0"
         sodipodi:nodetypes="sccssss" />
      <path
         style="opacity:0.2;fill:#000000;fill-opacity:1;stroke:none"
         d="m 72,-358.5 1,-18.5 -18,0 0.999996,18.5 c 0.04485,0.82979 0.669,1.5 1.5,1.5 L 70.5,-357 c 0.831,0 1.5,-0.669 1.5,-1.5 z"
         id="path4480"
         inkscape:connector-curvature="0"
         sodipodi:nodetypes="sccssss" />
      <path
         style="opacity:0.2;fill:#000000;fill-opacity:1;stroke:none"
         d="m 123,-359 1,-26 -24,0 1,26 c 0.0426,1.10718 0.892,2 2,2 l 18,0 c 1.108,0 1.95742,-0.89282 2,-2 z"
         id="path4482"
         inkscape:connector-curvature="0"
         sodipodi:nodetypes="sccssss" />
      <path
         sodipodi:nodetypes="sccssss"
         inkscape:connector-curvature="0"
         id="path4484"
         d="m 640,-408 16,-424 -384,0 16,424 c 0.5016,13.28656 10.704,24 24,24 l 304,0 c 13.296,0 23.49864,-10.71344 24,-24 z"
         style="opacity:0.1;fill:#000000;fill-opacity:1;stroke:#000000;stroke-width:8;stroke-miterlimit:4;stroke-dasharray:none;stroke-opacity:1;filter:url(#filter4194)" />
      <path
         style="opacity:0.2;fill:#000000;fill-opacity:1;stroke:none"
         d="m 184,-361 2,-38 -36,0 2,38 c 0.0582,1.10647 0.892,2 2,2 l 28,0 c 1.108,0 2,-0.892 2,-2 z"
         id="path4486"
         inkscape:connector-curvature="0"
         sodipodi:nodetypes="sccssss" />
      <path
         sodipodi:nodetypes="sccssss"
         inkscape:connector-curvature="0"
         id="path4488"
         d="m 184,-362 2,-38 -36,0 2,38 c 0.0582,1.10647 0.892,2 2,2 l 28,0 c 1.108,0 2,-0.892 2,-2 z"
         style="opacity:1;fill:#cccccc;fill-opacity:1;stroke:none" />
      <path
         sodipodi:nodetypes="sccssss"
         inkscape:connector-curvature="0"
         id="path4490"
         d="m 72,-359.5 1,-18.5 -18,0 0.999996,18.5 c 0.04485,0.82979 0.669,1.5 1.5,1.5 L 70.5,-358 c 0.831,0 1.5,-0.669 1.5,-1.5 z"
         style="opacity:1;fill:#cccccc;fill-opacity:1;stroke:none" />
      <path
         sodipodi:nodetypes="sccssss"
         inkscape:connector-curvature="0"
         id="path4492"
         d="m 123,-360 1,-26 -24,0 1,26 c 0.0426,1.10718 0.892,2 2,2 l 18,0 c 1.108,0 1.95742,-0.89282 2,-2 z"
         style="opacity:1;fill:#cccccc;fill-opacity:1;stroke:none" />
      <path
         sodipodi:nodetypes="sccssss"
         inkscape:connector-curvature="0"
         id="path4494"
         d="m 30,-358 1,-13 -14,0 1,13 c 0.04249,0.55237 0.446,1 1,1 l 10,0 c 0.554,0 0.963148,-0.44723 1,-1 z"
         style="display:inline;opacity:1;fill:#cccccc;fill-opacity:1;stroke:none;enable-background:new" />
      <path
         inkscape:connector-curvature="0"
         id="path4496"
         d="m 150,-400 0.0527,1 35.89454,0 0.0527,-1 -36,0 z"
         style="opacity:0.2;fill:#ffffff;fill-opacity:1;stroke:none" />
      <path
         style="opacity:0.2;fill:#000000;fill-opacity:1;stroke:none;filter:url(#filter4194)"
         d="m 640,-408 16,-424 -384,0 16,424 c 0.5016,13.28656 10.704,24 24,24 l 304,0 c 13.296,0 23.49864,-10.71344 24,-24 z"
         id="path4498"
         inkscape:connector-curvature="0"
         sodipodi:nodetypes="sccssss" />
      <path
         sodipodi:nodetypes="sccssss"
         inkscape:connector-curvature="0"
         id="path4500"
         d="m 640,-412 16,-424 -384,0 16,424 c 0.5016,13.28656 10.704,24 24,24 l 304,0 c 13.296,0 23.49864,-10.71344 24,-24 z"
         style="opacity:1;fill:#cccccc;fill-opacity:1;stroke:none" />
      <path
         inkscape:connector-curvature="0"
         id="path4502"
         d="m 272,-836 0.0742,2 383.85156,0 0.0742,-2 -384,0 z"
         style="opacity:0.2;fill:#ffffff;fill-opacity:1;stroke:none" />
      <path
         inkscape:connector-curvature="0"
         id="path4504"
         d="m 100,-386 0.0391,1 23.92188,0 0.0391,-1 -24,0 z"
         style="opacity:0.2;fill:#ffffff;fill-opacity:1;stroke:none" />
      <path
         inkscape:connector-curvature="0"
         id="path4506"
         d="m 17,-371 0,1 14,0 0,-1 z"
         style="display:inline;opacity:0.2;fill:#ffffff;fill-opacity:1;stroke:none;enable-background:new"
         sodipodi:nodetypes="ccccc" />
      <path
         inkscape:connector-curvature="0"
         id="path4508"
         d="m 55,-378 0.05469,1 17.890624,0 0.05469,-1 -18,0 z"
         style="opacity:0.2;fill:#ffffff;fill-opacity:1;stroke:none" />
    </g>
  </g>
</svg>
