<?xml version="1.0" encoding="UTF-8" standalone="no"?>
<!-- Created with Inkscape (http://www.inkscape.org/) -->

<svg
   xmlns:dc="http://purl.org/dc/elements/1.1/"
   xmlns:cc="http://creativecommons.org/ns#"
   xmlns:rdf="http://www.w3.org/1999/02/22-rdf-syntax-ns#"
   xmlns:svg="http://www.w3.org/2000/svg"
   xmlns="http://www.w3.org/2000/svg"
   xmlns:xlink="http://www.w3.org/1999/xlink"
   xmlns:sodipodi="http://sodipodi.sourceforge.net/DTD/sodipodi-0.dtd"
   xmlns:inkscape="http://www.inkscape.org/namespaces/inkscape"
   inkscape:export-ydpi="90.000000"
   inkscape:export-xdpi="90.000000"
   width="600"
   height="224"
   id="svg11300"
   sodipodi:version="0.32"
   inkscape:version="0.48.4 r9939"
   sodipodi:docname="user-desktop.svg"
   inkscape:output_extension="org.inkscape.output.svg.inkscape"
   version="1.0"
   style="display:inline;enable-background:new"
   inkscape:export-filename="/home/sam/paper-template.png">
  <title
     id="title3004">Paper Icon Theme Template</title>
  <sodipodi:namedview
     stroke="#ef2929"
     fill="#f57900"
     id="base"
     pagecolor="#474747"
     bordercolor="#666666"
     borderopacity="0.25490196"
     inkscape:pageopacity="0"
     inkscape:pageshadow="2"
     inkscape:zoom="1"
     inkscape:cx="159.76874"
     inkscape:cy="24.571117"
     inkscape:current-layer="layer6"
     showgrid="false"
     inkscape:grid-bbox="true"
     inkscape:document-units="px"
     inkscape:showpageshadow="false"
     inkscape:window-width="1364"
     inkscape:window-height="701"
     inkscape:window-x="0"
     inkscape:window-y="28"
     width="400px"
     height="300px"
     inkscape:snap-nodes="true"
     inkscape:snap-bbox="true"
     gridtolerance="10000"
     inkscape:object-nodes="true"
     inkscape:snap-grids="true"
     showguides="true"
     inkscape:guide-bbox="true"
     inkscape:window-maximized="1">
    <inkscape:grid
       spacingy="1px"
       spacingx="1px"
       id="grid5883"
       type="xygrid"
       enabled="true"
       visible="true"
       empspacing="4"
       snapvisiblegridlinesonly="true" />
    <inkscape:grid
       type="xygrid"
       id="grid11592"
       empspacing="2"
       visible="true"
       enabled="false"
       spacingx="0.5px"
       spacingy="0.5px"
       color="#ff0000"
       opacity="0.1254902"
       empcolor="#ff0000"
       empopacity="0.25098039"
       snapvisiblegridlinesonly="true" />
    <sodipodi:guide
       orientation="0,1"
       position="0,224"
       id="guide4275" />
  </sodipodi:namedview>
  <defs
     id="defs3">
    <linearGradient
       inkscape:collect="always"
       id="linearGradient4199">
      <stop
         style="stop-color:#ffffff;stop-opacity:1;"
         offset="0"
         id="stop4201" />
      <stop
         style="stop-color:#ffffff;stop-opacity:0;"
         offset="1"
         id="stop4203" />
    </linearGradient>
    <clipPath
       clipPathUnits="userSpaceOnUse"
       id="clipPath4016">
      <path
         inkscape:connector-curvature="0"
         style="fill:#000000;fill-opacity:1;stroke:none;display:inline;enable-background:new"
         d="m 17,269 c -0.554,0 -1,0.446 -1,1 l 0,1 0,11 c 0,0.554 0.446,1 1,1 l 14,0 c 0.554,0 1,-0.446 1,-1 l 0,-11 0,-1 c 0,-0.554 -0.446,-1 -1,-1 z"
         id="path4018"
         sodipodi:nodetypes="sscsssscsss" />
    </clipPath>
    <filter
       inkscape:collect="always"
       id="filter4068"
       x="-0.14"
       width="1.28"
       y="-0.105"
       height="1.21">
      <feGaussianBlur
         inkscape:collect="always"
         stdDeviation="1.05"
         id="feGaussianBlur4070" />
    </filter>
    <filter
       inkscape:collect="always"
       id="filter4170"
       x="-0.14"
       width="1.28"
       y="-0.105"
       height="1.21">
      <feGaussianBlur
         inkscape:collect="always"
         stdDeviation="2.8"
         id="feGaussianBlur4172" />
    </filter>
    <filter
       inkscape:collect="always"
       id="filter4182">
      <feGaussianBlur
         inkscape:collect="always"
         stdDeviation="1.9"
         id="feGaussianBlur4184" />
    </filter>
    <filter
       inkscape:collect="always"
       id="filter4186"
       x="-0.14"
       width="1.28"
       y="-0.105"
       height="1.21">
      <feGaussianBlur
         inkscape:collect="always"
         stdDeviation="1.4"
         id="feGaussianBlur4188" />
    </filter>
    <filter
       inkscape:collect="always"
       id="filter4190">
      <feGaussianBlur
         inkscape:collect="always"
         stdDeviation="1.52"
         id="feGaussianBlur4192" />
    </filter>
    <linearGradient
       inkscape:collect="always"
       xlink:href="#linearGradient4199"
       id="linearGradient4205"
       x1="488"
       y1="16"
       x2="488"
       y2="208"
       gradientUnits="userSpaceOnUse" />
    <linearGradient
       inkscape:collect="always"
       xlink:href="#linearGradient4199"
       id="linearGradient4218"
       x1="328"
       y1="112"
       x2="328"
       y2="208"
       gradientUnits="userSpaceOnUse" />
    <linearGradient
       inkscape:collect="always"
       xlink:href="#linearGradient4199"
       id="linearGradient4231"
       x1="232"
       y1="144"
       x2="232"
       y2="208"
       gradientUnits="userSpaceOnUse" />
    <linearGradient
       inkscape:collect="always"
       xlink:href="#linearGradient4199"
       id="linearGradient4251"
       x1="160"
       y1="160"
       x2="160"
       y2="208"
       gradientUnits="userSpaceOnUse" />
    <filter
       inkscape:collect="always"
       id="filter3833"
       x="-0.14"
       width="1.28"
       y="-0.105"
       height="1.21">
      <feGaussianBlur
         inkscape:collect="always"
         stdDeviation="0.7"
         id="feGaussianBlur3835" />
    </filter>
  </defs>
  <metadata
     id="metadata4">
    <rdf:RDF>
      <cc:Work
         rdf:about="">
        <dc:format>image/svg+xml</dc:format>
        <dc:type
           rdf:resource="http://purl.org/dc/dcmitype/StillImage" />
        <dc:creator>
          <cc:Agent>
            <dc:title>Sam Hewitt</dc:title>
          </cc:Agent>
        </dc:creator>
        <dc:source />
        <cc:license
           rdf:resource="" />
        <dc:title>Paper Icon Theme Template</dc:title>
        <dc:subject>
          <rdf:Bag />
        </dc:subject>
        <dc:date />
        <dc:rights>
          <cc:Agent>
            <dc:title />
          </cc:Agent>
        </dc:rights>
        <dc:publisher>
          <cc:Agent>
            <dc:title />
          </cc:Agent>
        </dc:publisher>
        <dc:identifier />
        <dc:relation />
        <dc:language />
        <dc:coverage />
        <dc:description />
        <dc:contributor>
          <cc:Agent>
            <dc:title />
          </cc:Agent>
        </dc:contributor>
      </cc:Work>
      <cc:Work
         rdf:about="">
        <dc:format>image/svg+xml</dc:format>
        <dc:type
           rdf:resource="http://purl.org/dc/dcmitype/StillImage" />
      </cc:Work>
    </rdf:RDF>
  </metadata>
  <g
     style="display:inline"
     inkscape:groupmode="layer"
     inkscape:label="Icon"
     id="layer1"
     transform="translate(0,-76)">
    <g
       style="display:none"
       inkscape:label="Baseplate"
       id="layer7"
       inkscape:groupmode="layer">
      <text
         y="59.745117"
         xml:space="preserve"
         x="15.006836"
         style="font-size:18px;font-style:normal;font-variant:normal;font-weight:normal;font-stretch:normal;fill:#000000;fill-opacity:1;stroke:none;display:inline;enable-background:new;font-family:DejaVu Sans;-inkscape-font-specification:DejaVu Sans"
         inkscape:label="context"
         id="context"><tspan
           style="font-style:normal;font-variant:normal;font-weight:normal;font-stretch:normal;font-family:DejaVu Sans;-inkscape-font-specification:DejaVu Sans"
           y="59.745117"
           x="15.006836"
           sodipodi:role="line"
           id="tspan3933">places</tspan></text>
      <text
         y="59.745117"
         xml:space="preserve"
         x="142.48828"
         style="font-size:18px;font-style:normal;font-variant:normal;font-weight:bold;font-stretch:normal;text-align:start;line-height:125%;writing-mode:lr-tb;text-anchor:start;fill:#000000;fill-opacity:1;stroke:none;display:inline;enable-background:new;font-family:DejaVu Sans;-inkscape-font-specification:DejaVu Sans Bold"
         sodipodi:linespacing="125%"
         inkscape:label="icon-name"
         id="icon-name"><tspan
           style="font-size:18px;font-style:normal;font-variant:normal;font-weight:bold;font-stretch:normal;font-family:DejaVu Sans;-inkscape-font-specification:DejaVu Sans Bold"
           y="59.745117"
           x="142.48828"
           sodipodi:role="line"
           id="tspan3341">user-desktop</tspan></text>
      <rect
         style="fill:#e9e9e9;fill-opacity:1;fill-rule:nonzero;stroke:none;stroke-width:2;marker:none;visibility:visible;display:inline;overflow:visible;enable-background:accumulate"
         id="rect16x16"
         width="16"
         height="16"
         x="-32"
         y="268"
         inkscape:label="16x16"
         transform="scale(-1,1)" />
      <rect
         style="fill:#e9e9e9;fill-opacity:1;fill-rule:nonzero;stroke:none;stroke-width:2;marker:none;visibility:visible;display:inline;overflow:visible;enable-background:accumulate"
         id="rect24x24"
         width="24"
         height="24"
         x="-72"
         y="260"
         inkscape:label="24x24"
         transform="scale(-1,1)" />
      <rect
         style="fill:#e9e9e9;fill-opacity:1;fill-rule:nonzero;stroke:none;stroke-width:2;marker:none;visibility:visible;display:inline;overflow:visible;enable-background:accumulate"
         id="rect32x32"
         width="32"
         height="32"
         x="-120"
         y="252"
         inkscape:label="32x32"
         transform="scale(-1,1)" />
      <rect
         inkscape:label="48x48"
         y="236"
         x="-184"
         height="48"
         width="48"
         id="rect48x48"
         style="fill:#e9e9e9;fill-opacity:1;fill-rule:nonzero;stroke:none;stroke-width:2;marker:none;visibility:visible;display:inline;overflow:visible;enable-background:accumulate"
         transform="scale(-1,1)" />
      <rect
         style="fill:#e9e9e9;fill-opacity:1;fill-rule:nonzero;stroke:none;stroke-width:2;marker:none;visibility:visible;display:inline;overflow:visible;enable-background:accumulate"
         id="rect256x256"
         width="192"
         height="192"
         x="-584"
         y="92"
         inkscape:label="256x256"
         transform="scale(-1,1)" />
      <rect
         inkscape:label="256x256"
         y="188"
         x="-376"
         height="96"
         width="96"
         id="rect3949"
         style="fill:#e9e9e9;fill-opacity:1;fill-rule:nonzero;stroke:none;stroke-width:2;marker:none;visibility:visible;display:inline;overflow:visible;enable-background:accumulate"
         transform="scale(-1,1)" />
      <rect
         style="fill:#e9e9e9;fill-opacity:1;fill-rule:nonzero;stroke:none;stroke-width:2;marker:none;visibility:visible;display:inline;overflow:visible;enable-background:accumulate"
         id="rect3951"
         width="64"
         height="64"
         x="-264"
         y="220"
         inkscape:label="48x48"
         transform="scale(-1,1)" />
    </g>
    <g
       inkscape:groupmode="layer"
       id="layer6"
       inkscape:label="Symbols"
       style="display:inline">
      <path
         style="fill:#4ab3e4;fill-opacity:1;stroke:none"
         d="m 204,233 0,41 c 0,1.662 1.338,3 3,3 l 50,0 c 1.662,0 3,-1.338 3,-3 l 0,-41 -56,0 z"
         id="rect4229"
         inkscape:connector-curvature="0" />
      <path
         style="fill:#4d4d4d;fill-opacity:1;stroke:none"
         d="M 207 151 C 205.338 151 204 152.338 204 154 L 204 157 L 260 157 L 260 154 C 260 152.338 258.662 151 257 151 L 207 151 z "
         transform="translate(0,76)"
         id="rect4039" />
      <rect
         ry="1"
         rx="1"
         y="-70"
         x="-282"
         height="20"
         width="20"
         id="rect4243"
         style="fill:#cccccc;fill-opacity:1;stroke:none"
         transform="matrix(0,-1,-1,0,0,0)" />
      <path
         d="m 42,8 c 0,1.1045695 -0.895431,2 -2,2 -1.104569,0 -2,-0.8954305 -2,-2 0,-1.1045695 0.895431,-2 2,-2 1.104569,0 2,0.8954305 2,2 z"
         sodipodi:ry="2"
         sodipodi:rx="2"
         sodipodi:cy="8"
         sodipodi:cx="40"
         id="path4245"
         style="opacity:0.2;fill:#000000;fill-opacity:1;stroke:none"
         sodipodi:type="arc"
         transform="matrix(0.5,0,0,0.5,49,259)" />
      <path
         transform="matrix(0.5,0,0,0.5,31,277)"
         sodipodi:type="arc"
         style="opacity:0.2;fill:#000000;fill-opacity:1;stroke:none"
         id="path4247"
         sodipodi:cx="40"
         sodipodi:cy="8"
         sodipodi:rx="2"
         sodipodi:ry="2"
         d="m 42,8 c 0,1.1045695 -0.895431,2 -2,2 -1.104569,0 -2,-0.8954305 -2,-2 0,-1.1045695 0.895431,-2 2,-2 1.104569,0 2,0.8954305 2,2 z" />
      <path
         transform="matrix(0.5,0,0,-0.5,49,285)"
         sodipodi:type="arc"
         style="opacity:0.2;fill:#000000;fill-opacity:1;stroke:none"
         id="path4249"
         sodipodi:cx="40"
         sodipodi:cy="8"
         sodipodi:rx="2"
         sodipodi:ry="2"
         d="m 42,8 c 0,1.1045695 -0.895431,2 -2,2 -1.104569,0 -2,-0.8954305 -2,-2 0,-1.1045695 0.895431,-2 2,-2 1.104569,0 2,0.8954305 2,2 z" />
      <path
         d="m 42,8 c 0,1.1045695 -0.895431,2 -2,2 -1.104569,0 -2,-0.8954305 -2,-2 0,-1.1045695 0.895431,-2 2,-2 1.104569,0 2,0.8954305 2,2 z"
         sodipodi:ry="2"
         sodipodi:rx="2"
         sodipodi:cy="8"
         sodipodi:cx="40"
         id="path4251"
         style="opacity:0.2;fill:#000000;fill-opacity:1;stroke:none"
         sodipodi:type="arc"
         transform="matrix(0.5,0,0,-0.5,31,267)" />
      <rect
         transform="matrix(0,-1,-1,0,0,0)"
         style="fill:#cccccc;fill-opacity:1;stroke:none"
         id="rect4255"
         width="28"
         height="28"
         x="-282"
         y="-118"
         rx="1.5"
         ry="1.5" />
      <path
         transform="matrix(0.75,0,0,0.75,86.5,249.5)"
         sodipodi:type="arc"
         style="opacity:0.2;fill:#000000;fill-opacity:1;stroke:none"
         id="path4257"
         sodipodi:cx="40"
         sodipodi:cy="8"
         sodipodi:rx="2"
         sodipodi:ry="2"
         d="m 42,8 c 0,1.1045695 -0.895431,2 -2,2 -1.104569,0 -2,-0.8954305 -2,-2 0,-1.1045695 0.895431,-2 2,-2 1.104569,0 2,0.8954305 2,2 z" />
      <path
         d="m 42,8 c 0,1.1045695 -0.895431,2 -2,2 -1.104569,0 -2,-0.8954305 -2,-2 0,-1.1045695 0.895431,-2 2,-2 1.104569,0 2,0.8954305 2,2 z"
         sodipodi:ry="2"
         sodipodi:rx="2"
         sodipodi:cy="8"
         sodipodi:cx="40"
         id="path4259"
         style="opacity:0.2;fill:#000000;fill-opacity:1;stroke:none"
         sodipodi:type="arc"
         transform="matrix(0.75,0,0,0.75,61.5,249.5)" />
      <path
         transform="matrix(0.75,0,0,0.75,61.5,274.5)"
         sodipodi:type="arc"
         style="opacity:0.2;fill:#000000;fill-opacity:1;stroke:none"
         id="path4261"
         sodipodi:cx="40"
         sodipodi:cy="8"
         sodipodi:rx="2"
         sodipodi:ry="2"
         d="m 42,8 c 0,1.1045695 -0.895431,2 -2,2 -1.104569,0 -2,-0.8954305 -2,-2 0,-1.1045695 0.895431,-2 2,-2 1.104569,0 2,0.8954305 2,2 z" />
      <path
         d="m 42,8 c 0,1.1045695 -0.895431,2 -2,2 -1.104569,0 -2,-0.8954305 -2,-2 0,-1.1045695 0.895431,-2 2,-2 1.104569,0 2,0.8954305 2,2 z"
         sodipodi:ry="2"
         sodipodi:rx="2"
         sodipodi:cy="8"
         sodipodi:cx="40"
         id="path4263"
         style="opacity:0.2;fill:#000000;fill-opacity:1;stroke:none"
         sodipodi:type="arc"
         transform="matrix(0.75,0,0,0.75,86.5,274.5)" />
      <path
         style="fill:#4ab3e4;fill-opacity:1;stroke:none;display:inline;enable-background:new"
         d="m 16,271 0,11 c 0,0.554 0.446,1 1,1 l 14,0 c 0.554,0 1,-0.446 1,-1 l 0,-11 z"
         id="rect4265"
         inkscape:connector-curvature="0"
         sodipodi:nodetypes="csssscc" />
      <path
         style="fill:#4ab3e4;fill-opacity:1;stroke:none"
         d="m 140,247 0,30 c 0,1.108 0.892,2 2,2 l 36,0 c 1.108,0 2,-0.892 2,-2 l 0,-30 z"
         id="rect4203"
         inkscape:connector-curvature="0"
         sodipodi:nodetypes="csssscc" />
      <path
         style="fill:#4d4d4d;fill-opacity:1;stroke:none"
         d="m 142,243 c -1.108,0 -2,0.892 -2,2 l 0,2 40,0 0,-2 c 0,-1.108 -0.892,-2 -2,-2 z"
         id="rect3328"
         inkscape:connector-curvature="0"
         sodipodi:nodetypes="ssccsss" />
      <path
         style="opacity:0.1;fill:#ffffff;fill-opacity:1;stroke:none"
         d="m 142,243 c -1.108,0 -2,0.892 -2,2 l 0,1 c 0,-1.108 0.892,-2 2,-2 l 36,0 c 1.108,0 2,0.892 2,2 l 0,-1 c 0,-1.108 -0.892,-2 -2,-2 z"
         id="path3345"
         inkscape:connector-curvature="0"
         sodipodi:nodetypes="sscsscsss" />
      <path
         id="path4118"
         d="m 142,279 c -1.108,0 -2,-0.892 -2,-2 l 0,-1 c 0,1.108 0.892,2 2,2 l 36,0 c 1.108,0 2,-0.892 2,-2 l 0,1 c 0,1.108 -0.892,2 -2,2 z"
         style="opacity:0.2;fill:#000000;fill-opacity:1;stroke:none"
         inkscape:connector-curvature="0"
         sodipodi:nodetypes="sscsscsss" />
      <path
         style="opacity:0.20000000000000001;fill:#000000;fill-opacity:1;stroke:none;display:inline;enable-background:new;filter:url(#filter3833)"
         d="m 165,259 c -0.554,0 -1,0.446 -1,1 l 0,14 c 0,0.554 0.446,1 1,1 l 10,0 c 0.554,0 1,-0.446 1,-1 l 0,-9 -6,-6 z"
         id="path4155"
         inkscape:connector-curvature="0"
         sodipodi:nodetypes="ssssssccs" />
      <path
         style="fill:#e1e1e1;fill-opacity:1;stroke:none;display:inline;enable-background:new"
         d="m 165,258 c -0.554,0 -1,0.446 -1,1 l 0,14 c 0,0.554 0.446,1 1,1 l 10,0 c 0.554,0 1,-0.446 1,-1 l 0,-9 -6,-6 z"
         id="rect4137"
         inkscape:connector-curvature="0"
         sodipodi:nodetypes="ssssssccs" />
      <path
         style="fill:#f5f5f5;fill-opacity:1;stroke:none;display:inline;enable-background:new"
         d="m 170,258 0,5 c 0,0.55228 0.44772,1 1,1 l 5,0 z"
         id="path4147"
         inkscape:connector-curvature="0"
         sodipodi:nodetypes="csscc" />
      <path
         style="fill:#4d4d4d;fill-opacity:1;stroke:none;display:inline;enable-background:new"
         d="m 17,269 c -0.554,0 -1,0.446 -1,1 l 0,1 16,0 0,-1 c 0,-0.554 -0.446,-1 -1,-1 z"
         id="rect3228"
         inkscape:connector-curvature="0"
         sodipodi:nodetypes="ssccsss" />
      <path
         style="opacity:0.2;fill:none;stroke:#000000;stroke-width:2;stroke-miterlimit:4;stroke-opacity:1;stroke-dasharray:none;display:inline;enable-background:new"
         d="m 17,269 c -0.554,0 -1,0.446 -1,1 l 0,1 0,11 c 0,0.554 0.446,1 1,1 l 14,0 c 0.554,0 1,-0.446 1,-1 l 0,-11 0,-1 c 0,-0.554 -0.446,-1 -1,-1 z"
         id="path3236"
         clip-path="url(#clipPath4016)"
         inkscape:connector-curvature="0"
         sodipodi:nodetypes="sscsssscsss" />
      <path
         style="fill:#ffffff;fill-opacity:1;stroke:none;opacity:0.1"
         d="M 207 151 C 205.338 151 204 152.338 204 154 L 204 155 C 204 153.338 205.338 152 207 152 L 257 152 C 258.662 152 260 153.338 260 155 L 260 154 C 260 152.338 258.662 151 257 151 L 207 151 z "
         transform="translate(0,76)"
         id="path4048" />
      <path
         id="path4053"
         d="m 207,277 c -1.662,0 -3,-1.338 -3,-3 l 0,-1 c 0,1.662 1.338,3 3,3 l 50,0 c 1.662,0 3,-1.338 3,-3 l 0,1 c 0,1.662 -1.338,3 -3,3 l -50,0 z"
         style="opacity:0.20000000000000001;fill:#000000;fill-opacity:1;stroke:none"
         inkscape:connector-curvature="0" />
      <path
         style="opacity:0.2;fill:#000000;fill-opacity:1;stroke:none;display:inline;filter:url(#filter4068);enable-background:new"
         d="m 237.5,248 c -0.831,0 -1.5,0.669 -1.5,1.5 l 0,21 c 0,0.831 0.669,1.5 1.5,1.5 l 15,0 c 0.831,0 1.5,-0.669 1.5,-1.5 l 0,-13.5 -9,-9 -7.5,0 z"
         id="path4059"
         inkscape:connector-curvature="0" />
      <path
         sodipodi:nodetypes="ssssssccs"
         inkscape:connector-curvature="0"
         id="path4055"
         d="m 237.5,247 c -0.831,0 -1.5,0.669 -1.5,1.5 l 0,21 c 0,0.831 0.669,1.5 1.5,1.5 l 15,0 c 0.831,0 1.5,-0.669 1.5,-1.5 l 0,-13.5 -9,-9 z"
         style="fill:#e1e1e1;fill-opacity:1;stroke:none;display:inline;enable-background:new" />
      <path
         sodipodi:nodetypes="csscc"
         inkscape:connector-curvature="0"
         id="path4057"
         d="m 245,247 0,7.5 c 0,0.82842 0.67158,1.5 1.5,1.5 l 7.5,0 z"
         style="fill:#f5f5f5;fill-opacity:1;stroke:none;display:inline;enable-background:new" />
      <path
         style="opacity:0.50000000000000000;fill:#000000;fill-opacity:1;stroke:none;filter:url(#filter4182)"
         d="m 292,201 c -2.216,0 -4,1.784 -4,4 l 0,4 0,60 c 0,2.216 1.784,4 4,4 l 72,0 c 2.216,0 4,-1.784 4,-4 l 0,-60 0,-4 c 0,-2.216 -1.784,-4 -4,-4 l -72,0 z"
         id="path4114"
         inkscape:connector-curvature="0" />
      <path
         sodipodi:nodetypes="csssscc"
         inkscape:connector-curvature="0"
         id="path4083"
         d="m 288,208 0,60 c 0,2.216 1.784,4 4,4 l 72,0 c 2.216,0 4,-1.784 4,-4 l 0,-60 z"
         style="fill:#4ab3e4;fill-opacity:1;stroke:none" />
      <path
         sodipodi:nodetypes="ssccsss"
         inkscape:connector-curvature="0"
         id="path4085"
         d="m 292,200 c -2.216,0 -4,1.784 -4,4 l 0,4 80,0 0,-4 c 0,-2.216 -1.784,-4 -4,-4 z"
         style="fill:#4d4d4d;fill-opacity:1;stroke:none" />
      <path
         inkscape:connector-curvature="0"
         style="opacity:0.1;fill:#ffffff;fill-opacity:1;stroke:none"
         d="m 292,200 c -2.216,0 -4,1.784 -4,4 l 0,1 c 0,-2.216 1.784,-4 4,-4 l 72,0 c 2.216,0 4,1.784 4,4 l 0,-1 c 0,-2.216 -1.784,-4 -4,-4 l -72,0 z"
         id="path4087" />
      <path
         inkscape:connector-curvature="0"
         style="opacity:0.2;fill:#000000;fill-opacity:1;stroke:none"
         d="m 288,267 0,1 c 0,2.216 1.784,4 4,4 l 72,0 c 2.216,0 4,-1.784 4,-4 l 0,-1 c 0,2.216 -1.784,4 -4,4 l -72,0 c -2.216,0 -4,-1.784 -4,-4 z"
         id="path4089" />
      <path
         sodipodi:nodetypes="ssssssccs"
         inkscape:connector-curvature="0"
         id="path4091"
         d="m 340,234 c -1.108,0 -2,0.892 -2,2 l 0,28 c 0,1.108 0.892,2 2,2 l 20,0 c 1.108,0 2,-0.892 2,-2 l 0,-18 -12,-12 z"
         style="opacity:0.2;fill:#000000;fill-opacity:1;stroke:none;display:inline;filter:url(#filter4186);enable-background:new" />
      <path
         sodipodi:nodetypes="ssssssccs"
         inkscape:connector-curvature="0"
         id="path4093"
         d="m 340,233 c -1.108,0 -2,0.892 -2,2 l 0,28 c 0,1.108 0.892,2 2,2 l 20,0 c 1.108,0 2,-0.892 2,-2 l 0,-18 -12,-12 z"
         style="fill:#e1e1e1;fill-opacity:1;stroke:none;display:inline;enable-background:new" />
      <path
         sodipodi:nodetypes="csscc"
         inkscape:connector-curvature="0"
         id="path4095"
         d="m 350,233 0,10 c 0,1.10456 0.89544,2 2,2 l 10,0 z"
         style="fill:#f5f5f5;fill-opacity:1;stroke:none;display:inline;enable-background:new" />
      <path
         inkscape:connector-curvature="0"
         id="path4136"
         d="m 416,118 c -4.432,0 -8,3.568 -8,8 l 0,8 0,120 c 0,4.432 3.568,8 8,8 l 144,0 c 4.432,0 8,-3.568 8,-8 l 0,-120 0,-8 c 0,-4.432 -3.568,-8 -8,-8 l -144,0 z"
         style="opacity:0.50000000000000000;fill:#000000;fill-opacity:1;stroke:none;filter:url(#filter4190)" />
      <path
         style="fill:#4ab3e4;fill-opacity:1;stroke:none"
         d="m 408,132 0,120 c 0,4.432 3.568,8 8,8 l 144,0 c 4.432,0 8,-3.568 8,-8 l 0,-120 z"
         id="path4138"
         inkscape:connector-curvature="0"
         sodipodi:nodetypes="csssscc" />
      <path
         style="fill:#4d4d4d;fill-opacity:1;stroke:none"
         d="m 416,116 c -4.432,0 -8,3.568 -8,8 l 0,8 160,0 0,-8 c 0,-4.432 -3.568,-8 -8,-8 z"
         id="path4140"
         inkscape:connector-curvature="0"
         sodipodi:nodetypes="ssccsss" />
      <path
         style="opacity:0.1;fill:#ffffff;fill-opacity:1;stroke:none"
         d="M 416 40 C 411.568 40 408 43.568 408 48 L 408 49 C 408 44.568 411.568 41 416 41 L 560 41 C 564.432 41 568 44.568 568 49 L 568 48 C 568 43.568 564.432 40 560 40 L 416 40 z "
         transform="translate(0,76)"
         id="path4142" />
      <path
         style="opacity:0.2;fill:#000000;fill-opacity:1;stroke:none"
         d="M 408 175 L 408 176 C 408 180.432 411.568 184 416 184 L 560 184 C 564.432 184 568 180.432 568 176 L 568 175 C 568 179.432 564.432 183 560 183 L 416 183 C 411.568 183 408 179.432 408 175 z "
         transform="translate(0,76)"
         id="path4144" />
      <path
         style="opacity:0.2;fill:#000000;fill-opacity:1;stroke:none;display:inline;filter:url(#filter4170);enable-background:new"
         d="m 512,183 c -2.216,0 -4,1.784 -4,4 l 0,56 c 0,2.216 1.784,4 4,4 l 40,0 c 2.216,0 4,-1.784 4,-4 l 0,-36 -24,-24 z"
         id="path4146"
         inkscape:connector-curvature="0"
         sodipodi:nodetypes="ssssssccs" />
      <path
         style="fill:#e1e1e1;fill-opacity:1;stroke:none;display:inline;enable-background:new"
         d="m 512,182 c -2.216,0 -4,1.784 -4,4 l 0,56 c 0,2.216 1.784,4 4,4 l 40,0 c 2.216,0 4,-1.784 4,-4 l 0,-36 -24,-24 z"
         id="path4148"
         inkscape:connector-curvature="0"
         sodipodi:nodetypes="ssssssccs" />
      <path
         style="fill:#f5f5f5;fill-opacity:1;stroke:none;display:inline;enable-background:new"
         d="m 532,182 0,20 c 0,2.20912 1.79088,4 4,4 l 20,0 z"
         id="path4150"
         inkscape:connector-curvature="0"
         sodipodi:nodetypes="csscc" />
      <path
         style="fill:url(#linearGradient4205);fill-opacity:1;stroke:none;opacity:0.20000000000000001"
         d="M 416 40 C 411.568 40 408 43.568 408 48 L 408 56 L 408 176 C 408 180.432 411.568 184 416 184 L 560 184 C 564.432 184 568 180.432 568 176 L 568 56 L 568 48 C 568 43.568 564.432 40 560 40 L 416 40 z "
         transform="translate(0,76)"
         id="path4194" />
      <path
         style="fill:url(#linearGradient4218);fill-opacity:1;stroke:none;opacity:0.20000000000000001"
         d="M 292 124 C 289.784 124 288 125.784 288 128 L 288 132 L 288 192 C 288 194.216 289.784 196 292 196 L 364 196 C 366.216 196 368 194.216 368 192 L 368 132 L 368 128 C 368 125.784 366.216 124 364 124 L 292 124 z "
         transform="translate(0,76)"
         id="path4207" />
      <path
         style="fill:url(#linearGradient4231);fill-opacity:1;stroke:none;opacity:0.2"
         d="M 207 151 C 205.338 151 204 152.338 204 154 L 204 157 L 204 198 C 204 199.662 205.338 201 207 201 L 257 201 C 258.662 201 260 199.662 260 198 L 260 157 L 260 154 C 260 152.338 258.662 151 257 151 L 207 151 z "
         transform="translate(0,76)"
         id="path4220" />
      <path
         style="fill:url(#linearGradient4251);fill-opacity:1;stroke:none;opacity:0.2"
         d="M 142 167 C 140.892 167 140 167.892 140 169 L 140 171 L 140 201 C 140 202.108 140.892 203 142 203 L 178 203 C 179.108 203 180 202.108 180 201 L 180 171 L 180 169 C 180 167.892 179.108 167 178 167 L 142 167 z "
         id="path4240"
         transform="translate(0,76)" />
    </g>
  </g>
</svg>
