<?xml version="1.0" encoding="UTF-8" standalone="no"?>
<!-- Created with Inkscape (http://www.inkscape.org/) -->

<svg
   xmlns:dc="http://purl.org/dc/elements/1.1/"
   xmlns:cc="http://creativecommons.org/ns#"
   xmlns:rdf="http://www.w3.org/1999/02/22-rdf-syntax-ns#"
   xmlns:svg="http://www.w3.org/2000/svg"
   xmlns="http://www.w3.org/2000/svg"
   xmlns:sodipodi="http://sodipodi.sourceforge.net/DTD/sodipodi-0.dtd"
   xmlns:inkscape="http://www.inkscape.org/namespaces/inkscape"
   inkscape:export-ydpi="90.000000"
   inkscape:export-xdpi="90.000000"
   width="600"
   height="224"
   id="svg11300"
   sodipodi:version="0.32"
   inkscape:version="0.91 r13725"
   sodipodi:docname="workspace-switcher-right-top.svg"
   inkscape:output_extension="org.inkscape.output.svg.inkscape"
   version="1.0"
   style="display:inline;enable-background:new"
   inkscape:export-filename="/home/sam/paper-template.png">
  <title
     id="title3004">Paper Icon Theme</title>
  <sodipodi:namedview
     stroke="#ef2929"
     fill="#f57900"
     id="base"
     pagecolor="#e0e0e0"
     bordercolor="#666666"
     borderopacity="0.25490196"
     inkscape:pageopacity="0"
     inkscape:pageshadow="2"
     inkscape:zoom="1"
     inkscape:cx="120.45806"
     inkscape:cy="39.696699"
     inkscape:current-layer="layer7"
     showgrid="false"
     inkscape:grid-bbox="true"
     inkscape:document-units="px"
     inkscape:showpageshadow="false"
     inkscape:window-width="1301"
     inkscape:window-height="744"
     inkscape:window-x="65"
     inkscape:window-y="24"
     width="400px"
     height="300px"
     inkscape:snap-nodes="true"
     inkscape:snap-bbox="true"
     gridtolerance="10000"
     inkscape:object-nodes="true"
     inkscape:snap-grids="true"
     showguides="true"
     inkscape:guide-bbox="true"
     inkscape:window-maximized="1"
     inkscape:bbox-nodes="true"
     inkscape:snap-bbox-edge-midpoints="true">
    <inkscape:grid
       spacingy="1px"
       spacingx="1px"
       id="grid5883"
       type="xygrid"
       enabled="true"
       visible="true"
       empspacing="4"
       snapvisiblegridlinesonly="true" />
    <inkscape:grid
       type="xygrid"
       id="grid11592"
       empspacing="2"
       visible="true"
       enabled="false"
       spacingx="0.5px"
       spacingy="0.5px"
       color="#ff0000"
       opacity="0.1254902"
       empcolor="#ff0000"
       empopacity="0.25098039"
       snapvisiblegridlinesonly="true" />
    <sodipodi:guide
       orientation="0,1"
       position="0,224"
       id="guide4275" />
  </sodipodi:namedview>
  <defs
     id="defs3">
    <filter
       inkscape:collect="always"
       style="color-interpolation-filters:sRGB"
       id="filter4819"
       x="-0.054"
       width="1.108"
       y="-0.0675"
       height="1.135">
      <feGaussianBlur
         inkscape:collect="always"
         stdDeviation="0.9"
         id="feGaussianBlur4821" />
    </filter>
    <filter
       inkscape:collect="always"
       style="color-interpolation-filters:sRGB"
       id="filter4192"
       x="-0.10857143"
       width="1.2171429"
       y="-0.13411765"
       height="1.2682353">
      <feGaussianBlur
         inkscape:collect="always"
         stdDeviation="0.95"
         id="feGaussianBlur4194" />
    </filter>
    <filter
       inkscape:collect="always"
       style="color-interpolation-filters:sRGB"
       id="filter4302"
       x="-0.054"
       width="1.108"
       y="-0.0675"
       height="1.135">
      <feGaussianBlur
         inkscape:collect="always"
         stdDeviation="1.8"
         id="feGaussianBlur4304" />
    </filter>
    <filter
       inkscape:collect="always"
       style="color-interpolation-filters:sRGB"
       id="filter4308"
       x="-0.054"
       width="1.108"
       y="-0.0675"
       height="1.135">
      <feGaussianBlur
         inkscape:collect="always"
         stdDeviation="3.6"
         id="feGaussianBlur4310" />
    </filter>
    <filter
       inkscape:collect="always"
       style="color-interpolation-filters:sRGB"
       id="filter4314"
       x="-0.10909091"
       width="1.2181818"
       y="-0.13333333"
       height="1.2666667">
      <feGaussianBlur
         inkscape:collect="always"
         stdDeviation="4"
         id="feGaussianBlur4316" />
    </filter>
    <filter
       inkscape:collect="always"
       style="color-interpolation-filters:sRGB"
       id="filter4320"
       x="-0.10909091"
       width="1.2181818"
       y="-0.13333333"
       height="1.2666667">
      <feGaussianBlur
         inkscape:collect="always"
         stdDeviation="2"
         id="feGaussianBlur4322" />
    </filter>
    <filter
       inkscape:collect="always"
       style="color-interpolation-filters:sRGB"
       id="filter4328"
       x="-0.10875"
       width="1.2175"
       y="-0.13384615"
       height="1.2676923">
      <feGaussianBlur
         inkscape:collect="always"
         stdDeviation="1.45"
         id="feGaussianBlur4330" />
    </filter>
    <filter
       inkscape:collect="always"
       style="color-interpolation-filters:sRGB"
       id="filter4359"
       x="-0.053571494"
       width="1.107143"
       y="-0.068181712"
       height="1.1363634">
      <feGaussianBlur
         inkscape:collect="always"
         stdDeviation="1.2499968"
         id="feGaussianBlur4361" />
    </filter>
    <filter
       inkscape:collect="always"
       style="color-interpolation-filters:sRGB"
       id="filter4396"
       x="-0.05357146"
       width="1.1071429"
       y="-0.068181767"
       height="1.1363635">
      <feGaussianBlur
         inkscape:collect="always"
         stdDeviation="0.62499866"
         id="feGaussianBlur4398" />
    </filter>
    <filter
       inkscape:collect="always"
       style="color-interpolation-filters:sRGB"
       id="filter4402"
       x="-0.108"
       width="1.216"
       y="-0.135"
       height="1.27">
      <feGaussianBlur
         inkscape:collect="always"
         stdDeviation="0.675"
         id="feGaussianBlur4404" />
    </filter>
  </defs>
  <metadata
     id="metadata4">
    <rdf:RDF>
      <cc:Work
         rdf:about="">
        <dc:format>image/svg+xml</dc:format>
        <dc:type
           rdf:resource="http://purl.org/dc/dcmitype/StillImage" />
        <dc:creator>
          <cc:Agent>
            <dc:title>Sam Hewitt</dc:title>
          </cc:Agent>
        </dc:creator>
        <dc:source />
        <cc:license
           rdf:resource="http://creativecommons.org/licenses/by-sa/3.0/" />
        <dc:title>Paper Icon Theme</dc:title>
        <dc:subject>
          <rdf:Bag />
        </dc:subject>
        <dc:date />
        <dc:rights>
          <cc:Agent>
            <dc:title />
          </cc:Agent>
        </dc:rights>
        <dc:publisher>
          <cc:Agent>
            <dc:title />
          </cc:Agent>
        </dc:publisher>
        <dc:identifier />
        <dc:relation />
        <dc:language />
        <dc:coverage />
        <dc:description />
        <dc:contributor>
          <cc:Agent>
            <dc:title />
          </cc:Agent>
        </dc:contributor>
      </cc:Work>
      <cc:Work
         rdf:about="">
        <dc:format>image/svg+xml</dc:format>
        <dc:type
           rdf:resource="http://purl.org/dc/dcmitype/StillImage" />
      </cc:Work>
    </rdf:RDF>
  </metadata>
  <g
     style="display:inline"
     inkscape:groupmode="layer"
     inkscape:label="Icon"
     id="layer1"
     transform="translate(0,-76)">
    <g
       style="display:none"
       inkscape:label="Baseplate"
       id="layer7"
       inkscape:groupmode="layer">
      <text
         y="59.745117"
         xml:space="preserve"
         x="15.006836"
         style="font-style:normal;font-variant:normal;font-weight:normal;font-stretch:normal;font-size:18px;font-family:'DejaVu Sans';-inkscape-font-specification:'DejaVu Sans';display:inline;fill:#000000;fill-opacity:1;stroke:none;enable-background:new"
         inkscape:label="context"
         id="context"><tspan
           style="font-style:normal;font-variant:normal;font-weight:normal;font-stretch:normal;font-family:'DejaVu Sans';-inkscape-font-specification:'DejaVu Sans'"
           y="59.745117"
           x="15.006836"
           sodipodi:role="line"
           id="tspan3933">places</tspan></text>
      <text
         y="59.745117"
         xml:space="preserve"
         x="142.48828"
         style="font-style:normal;font-variant:normal;font-weight:bold;font-stretch:normal;font-size:18px;line-height:125%;font-family:'DejaVu Sans';-inkscape-font-specification:'DejaVu Sans Bold';text-align:start;writing-mode:lr-tb;text-anchor:start;display:inline;fill:#000000;fill-opacity:1;stroke:none;enable-background:new"
         sodipodi:linespacing="125%"
         inkscape:label="icon-name"
         id="icon-name"><tspan
           style="font-style:normal;font-variant:normal;font-weight:bold;font-stretch:normal;font-size:18px;font-family:'DejaVu Sans';-inkscape-font-specification:'DejaVu Sans Bold'"
           y="59.745117"
           x="142.48828"
           sodipodi:role="line"
           id="tspan3937">workspace-switcher-right-top</tspan></text>
      <rect
         style="display:inline;overflow:visible;visibility:visible;fill:#e9e9e9;fill-opacity:1;fill-rule:nonzero;stroke:none;stroke-width:2;marker:none;enable-background:accumulate"
         id="rect16x16"
         width="16"
         height="16"
         x="-32"
         y="268"
         inkscape:label="16x16"
         transform="scale(-1,1)" />
      <rect
         style="display:inline;overflow:visible;visibility:visible;fill:#e9e9e9;fill-opacity:1;fill-rule:nonzero;stroke:none;stroke-width:2;marker:none;enable-background:accumulate"
         id="rect24x24"
         width="24"
         height="24"
         x="-72"
         y="260"
         inkscape:label="24x24"
         transform="scale(-1,1)" />
      <rect
         style="display:inline;overflow:visible;visibility:visible;fill:#e9e9e9;fill-opacity:1;fill-rule:nonzero;stroke:none;stroke-width:2;marker:none;enable-background:accumulate"
         id="rect32x32"
         width="32"
         height="32"
         x="-120"
         y="252"
         inkscape:label="32x32"
         transform="scale(-1,1)" />
      <rect
         inkscape:label="48x48"
         y="236"
         x="-184"
         height="48"
         width="48"
         id="rect48x48"
         style="display:inline;overflow:visible;visibility:visible;fill:#e9e9e9;fill-opacity:1;fill-rule:nonzero;stroke:none;stroke-width:2;marker:none;enable-background:accumulate"
         transform="scale(-1,1)" />
      <rect
         style="display:inline;overflow:visible;visibility:visible;fill:#e9e9e9;fill-opacity:1;fill-rule:nonzero;stroke:none;stroke-width:2;marker:none;enable-background:accumulate"
         id="rect256x256"
         width="192"
         height="192"
         x="-584"
         y="92"
         inkscape:label="256x256"
         transform="scale(-1,1)" />
      <rect
         inkscape:label="256x256"
         y="188"
         x="-376"
         height="96"
         width="96"
         id="rect3949"
         style="display:inline;overflow:visible;visibility:visible;fill:#e9e9e9;fill-opacity:1;fill-rule:nonzero;stroke:none;stroke-width:2;marker:none;enable-background:accumulate"
         transform="scale(-1,1)" />
      <rect
         style="display:inline;overflow:visible;visibility:visible;fill:#e9e9e9;fill-opacity:1;fill-rule:nonzero;stroke:none;stroke-width:2;marker:none;enable-background:accumulate"
         id="rect3951"
         width="64"
         height="64"
         x="-264"
         y="220"
         inkscape:label="48x48"
         transform="scale(-1,1)" />
    </g>
    <g
       inkscape:groupmode="layer"
       id="layer6"
       inkscape:label="Symbols"
       style="display:inline">
      <rect
         ry="1.5"
         rx="1.5"
         y="-118"
         x="-280"
         height="27.999924"
         width="21.999969"
         id="rect4378"
         style="fill:#000000;fill-opacity:1;stroke:none;opacity:0.5;filter:url(#filter4396)"
         transform="matrix(0,-1,-1,0,0,0)" />
      <rect
         transform="matrix(0,-1,-1,0,0,0)"
         style="opacity:0.5;fill:#000000;fill-opacity:1;stroke:none;filter:url(#filter4359)"
         id="rect4332"
         width="43.999954"
         height="55.999786"
         x="-275"
         y="-260"
         rx="3"
         ry="3" />
      <rect
         transform="matrix(0,-1,-1,0,0,1)"
         style="opacity:0.5;fill:#000000;fill-opacity:1;stroke:none;filter:url(#filter4308)"
         id="rect4306"
         width="128"
         height="160"
         x="-253"
         y="-568"
         rx="8"
         ry="8" />
      <rect
         ry="4"
         rx="4"
         y="-368"
         x="-269"
         height="80"
         width="64"
         id="rect4300"
         style="fill:#000000;fill-opacity:1;stroke:none;opacity:0.5;filter:url(#filter4302)"
         transform="matrix(0,-1,-1,0,0,0)" />
      <rect
         transform="matrix(0,-1,-1,0,0,0)"
         style="fill:#4ab3e4;fill-opacity:1;stroke:none"
         id="rect4288"
         width="64"
         height="80"
         x="-268"
         y="-368"
         rx="4"
         ry="4" />
      <path
         style="fill:#ffffff;fill-opacity:1;stroke:none;opacity:0.1"
         d="M 292 128 C 289.784 128 288 129.784 288 132 L 288 133 C 288 130.784 289.784 129 292 129 L 364 129 C 366.216 129 368 130.784 368 133 L 368 132 C 368 129.784 366.216 128 364 128 L 292 128 z "
         transform="translate(0,76)"
         id="rect4290" />
      <rect
         ry="8"
         rx="8"
         y="-568"
         x="-252"
         height="160"
         width="128"
         id="rect4189"
         style="fill:#4ab3e4;fill-opacity:1;stroke:none"
         transform="matrix(0,-1,-1,0,0,0)" />
      <path
         style="fill:#ffffff;fill-opacity:1;stroke:none;opacity:0.1"
         d="M 416 48 C 411.568 48 408 51.568 408 56 L 408 57 C 408 52.568 411.568 49 416 49 L 560 49 C 564.432 49 568 52.568 568 57 L 568 56 C 568 51.568 564.432 48 560 48 L 416 48 z "
         transform="translate(0,76)"
         id="rect4292" />
      <rect
         ry="2"
         rx="2"
         y="-180"
         x="-277"
         height="40"
         width="32"
         id="rect4817"
         style="fill:#000000;fill-opacity:1;stroke:none;opacity:0.5;filter:url(#filter4819)"
         transform="matrix(0,-1,-1,0,0,0)" />
      <rect
         ry="3"
         rx="3"
         y="-260"
         x="-274"
         height="55.999847"
         width="43.999939"
         id="rect4229"
         style="fill:#4ab3e4;fill-opacity:1;stroke:none"
         transform="matrix(0,-1,-1,0,0,0)" />
      <path
         style="fill:#ffffff;fill-opacity:1;stroke:none;opacity:0.1"
         d="M 207 154 C 205.338 154 204 155.338 204 157 L 204 158 C 204 156.338 205.338 155 207 155 L 257 155 C 258.662 155 260 156.338 260 158 L 260 157 C 260 155.338 258.662 154 257 154 L 207 154 z "
         transform="translate(0,76)"
         id="rect4350" />
      <rect
         ry="1.5"
         rx="1.5"
         y="-70"
         x="-282"
         height="20"
         width="20"
         id="rect4243"
         style="fill:#4ab3e4;fill-opacity:1;stroke:none"
         transform="matrix(0,-1,-1,0,0,0)" />
      <rect
         transform="matrix(0,-1,-1,0,0,0)"
         style="display:inline;fill:#4ab3e4;fill-opacity:1;stroke:none;enable-background:new"
         id="rect4265"
         width="16"
         height="16"
         x="-284"
         y="-32"
         rx="1"
         ry="1" />
      <path
         style="fill:#4ab3e4;fill-opacity:1;stroke:none"
         d="M 142 168 C 142 168 140 168 140 170 L 140 184 L 140 198 C 140 199.108 140.892 200 142 200 L 178 200 C 179.108 200 180 199.108 180 198 L 180 170 C 180 168.892 179.108 168 178 168 L 160 168 L 142 168 z "
         transform="translate(0,76)"
         id="rect4801" />
      <path
         style="fill:#ffffff;fill-opacity:1;stroke:none;opacity:0.1"
         d="M 142 168 C 140.892 168 140 168.892 140 170 L 140 171 C 140 169.892 140.892 169 142 169 L 178 169 C 179.108 169 180 169.892 180 171 L 180 170 C 180 168.892 179.108 168 178 168 L 142 168 z "
         transform="translate(0,76)"
         id="rect4823" />
      <rect
         ry="1"
         rx="1"
         y="243"
         x="160"
         height="18"
         width="22"
         id="rect4190"
         style="opacity:0.2;fill:#000000;fill-opacity:1;stroke:none;stroke-width:6;stroke-linejoin:round;stroke-miterlimit:4;stroke-dasharray:none;stroke-opacity:1;filter:url(#filter4192)" />
      <rect
         style="opacity:1;fill:#ebebeb;fill-opacity:1;stroke:none;stroke-width:6;stroke-linejoin:round;stroke-miterlimit:4;stroke-dasharray:none;stroke-opacity:1"
         id="rect4188"
         width="22"
         height="18"
         x="160"
         y="242"
         rx="1"
         ry="1" />
      <path
         style="opacity:0.1;fill:#ffffff;fill-opacity:1;stroke:none;stroke-width:6;stroke-linejoin:round;stroke-miterlimit:4;stroke-dasharray:none;stroke-opacity:1"
         d="m 161,242 c -0.554,0 -1,0.446 -1,1 l 0,1 c 0,-0.554 0.446,-1 1,-1 l 20,0 c 0.554,0 1,0.446 1,1 l 0,-1 c 0,-0.554 -0.446,-1 -1,-1 l -20,0 z"
         id="rect4196"
         inkscape:connector-curvature="0" />
      <rect
         style="opacity:0.2;fill:#000000;fill-opacity:1;stroke:none;stroke-width:6;stroke-linejoin:round;stroke-miterlimit:4;stroke-dasharray:none;stroke-opacity:1;filter:url(#filter4320)"
         id="rect4318"
         width="44"
         height="36"
         x="328"
         y="201"
         rx="2"
         ry="2" />
      <rect
         ry="2"
         rx="2"
         y="200"
         x="328"
         height="36"
         width="44"
         id="rect4272"
         style="opacity:1;fill:#ebebeb;fill-opacity:1;stroke:none;stroke-width:6;stroke-linejoin:round;stroke-miterlimit:4;stroke-dasharray:none;stroke-opacity:1" />
      <rect
         ry="4"
         rx="4"
         y="117"
         x="488"
         height="72"
         width="88"
         id="rect4312"
         style="opacity:0.2;fill:#000000;fill-opacity:1;stroke:none;stroke-width:6;stroke-linejoin:round;stroke-miterlimit:4;stroke-dasharray:none;stroke-opacity:1;filter:url(#filter4314)" />
      <rect
         style="opacity:1;fill:#ebebeb;fill-opacity:1;stroke:none;stroke-width:6;stroke-linejoin:round;stroke-miterlimit:4;stroke-dasharray:none;stroke-opacity:1"
         id="rect4282"
         width="88"
         height="72"
         x="488"
         y="116"
         rx="4"
         ry="4" />
      <rect
         ry="1"
         rx="1"
         y="-232"
         x="-253"
         height="30"
         width="24"
         id="rect4326"
         style="opacity:0.2;fill:#000000;fill-opacity:1;stroke:none;filter:url(#filter4328)"
         transform="matrix(0,-1,-1,0,30,0)" />
      <rect
         transform="matrix(0,-1,-1,0,0,0)"
         style="fill:#ebebeb;fill-opacity:1;stroke:none"
         id="rect4324"
         width="24"
         height="30"
         x="-252"
         y="-262"
         rx="1"
         ry="1" />
      <rect
         transform="matrix(0,-1,-1,0,0,0)"
         style="fill:#4ab3e4;fill-opacity:1;stroke:none"
         id="rect4363"
         width="21.999969"
         height="27.999924"
         x="-279"
         y="-118"
         rx="1.5"
         ry="1.5" />
      <path
         style="fill:#ffffff;fill-opacity:1;stroke:none;opacity:0.1"
         d="M 91.5 181 C 90.669 181 90 181.669 90 182.5 L 90 183.5 C 90 182.669 90.669 182 91.5 182 L 116.5 182 C 117.331 182 118 182.669 118 183.5 L 118 182.5 C 118 181.669 117.331 181 116.5 181 L 91.5 181 z "
         transform="translate(0,76)"
         id="rect4373" />
      <rect
         transform="matrix(0,-1,-1,0,15,0)"
         style="opacity:0.2;fill:#000000;fill-opacity:1;stroke:none;filter:url(#filter4402)"
         id="rect4400"
         width="12"
         height="15"
         x="-269"
         y="-104"
         rx="0.5"
         ry="0.5" />
      <rect
         ry="0.5"
         rx="0.5"
         y="-119"
         x="-268"
         height="15"
         width="12"
         id="rect4365"
         style="fill:#ebebeb;fill-opacity:1;stroke:none"
         transform="matrix(0,-1,-1,0,0,0)" />
    </g>
  </g>
</svg>
