<svg xmlns="http://www.w3.org/2000/svg" width="16" height="16">
    <path d="m 911.5002,-594 c -0.831,0 -1.5,0.669 -1.5,1.5 v 1.5 h -3 c -0.554,0 -1,0.446 -1,1 v 3 h 1.5 c 0.831,0 1.5,0.669 1.5,1.5 0,0.831 -0.669,1.5 -1.5,1.5 h -1.5 v 3 c 0,0.554 0.446,1 1,1 h 3 v -1.5 c 0,-0.831 0.669,-1.5 1.5,-1.5 0.831,0 1.5,0.669 1.5,1.5 v 1.5 h 3 c 0.554,0 1,-0.446 1,-1 v -3 h 1.5 c 0.831,0 1.5,-0.669 1.5,-1.5 0,-0.831 -0.669,-1.5 -1.5,-1.5 h -1.5 v -3 c 0,-0.554 -0.446,-1 -1,-1 h -3 v -1.5 c 0,-0.831 -0.669,-1.5 -1.5,-1.5 z" fill="#4c5263" transform="translate(-905 595)"/>
</svg>
