<svg xmlns="http://www.w3.org/2000/svg" width="16" height="16">
    <path d="M0 1.007v1h1v8c0 1 1 1 1 1h5v1.25L4.28 14.1c-.259.126-.351.514-.188.75.164.237.542.261.75.063L7.5 13.1l2.658 1.813c.208.198.586.174.75-.063.163-.236.07-.624-.188-.75L8 12.257v-1.25h5s1.008 0 1-1v-8h1v-1H1zm5 3v2h2a2 2 0 11-2-2zm3 0h4v1H8zm0 2h3v1H8z" style="line-height:normal;-inkscape-font-specification:Sans;text-indent:0;text-align:start;text-decoration-line:none;text-transform:none;marker:none" color="#000" font-weight="400" font-family="Sans" overflow="visible" fill="#4c5263"/>
</svg>
