<svg xmlns="http://www.w3.org/2000/svg" width="16" height="16">
    <path d="M768-574.004c-2 .004-2 2.004-2 2.004.019 3.398-.014 6.969 0 10 0 2 2 2 2 2h10s2 0 2-2v-10c0-2-2-2-2-2l-10-.004zm2.5 3.004a1.5 1.5 0 011.5 1.5 1.5 1.5 0 01-1.5 1.5 1.5 1.5 0 01-1.5-1.5 1.5 1.5 0 011.5-1.5zm3 5c.446 0 .833.213 1.072.475.24.261.375.552.5.802s.24.46.344.573c.104.113.155.15.334.15H777v1h-1.25c-.446 0-.832-.213-1.072-.475-.24-.261-.375-.552-.5-.802s-.24-.46-.344-.573c-.104-.113-.155-.15-.334-.15-.179 0-.23.037-.334.15-.104.114-.219.323-.344.573-.125.25-.26.54-.5.802s-.626.475-1.072.475H769v-1h2.25c.18 0 .23-.037.334-.15.104-.114.219-.323.344-.573.125-.25.26-.54.5-.802s.626-.475 1.072-.475z" fill="#4c5263" filter="url(#filter14069)" transform="translate(-765 575.003)"/>
</svg>
