<svg xmlns="http://www.w3.org/2000/svg" width="16" height="16">
    <path d="m 825.0002,-574 v 1 h 1 v 8 c 0,1 1,1 1,1 h 5 v 1.25 l -2.72,1.84375 c -0.25877,0.12539 -0.35118,0.51358 -0.1875,0.75 0.16368,0.23642 0.54155,0.26054 0.75,0.0625 l 2.6575,-1.8125 2.6575,1.8125 c 0.20845,0.19808 0.58632,0.17396 0.75,-0.0625 0.16368,-0.23642 0.0713,-0.62461 -0.1875,-0.75 l -2.72,-1.84375 V -564 h 5 c 0,0 1.00788,-3e-5 1,-1 v -8 h 1 v -1 h -1 -13 z m 5,3 v 2 h 2 c 0,1.10457 -0.89543,2 -2,2 -1.10457,0 -2,-0.89543 -2,-2 0,-1.10457 0.89543,-2 2,-2 z m 3,0 h 4 v 1 h -4 z m 0,2 h 3 v 1 h -3 z" style="line-height:normal;-inkscape-font-specification:Sans;text-indent:0;text-align:start;text-decoration-line:none;text-transform:none;marker:none" color="#000" font-weight="400" font-family="Sans" overflow="visible" fill="#4c5263" transform="translate(-825 575.007)"/>
</svg>
