<?xml version="1.0" encoding="UTF-8" standalone="no"?>
<!-- Created with Inkscape (http://www.inkscape.org/) -->

<svg
   xmlns:dc="http://purl.org/dc/elements/1.1/"
   xmlns:cc="http://creativecommons.org/ns#"
   xmlns:rdf="http://www.w3.org/1999/02/22-rdf-syntax-ns#"
   xmlns:svg="http://www.w3.org/2000/svg"
   xmlns="http://www.w3.org/2000/svg"
   xmlns:sodipodi="http://sodipodi.sourceforge.net/DTD/sodipodi-0.dtd"
   xmlns:inkscape="http://www.inkscape.org/namespaces/inkscape"
   inkscape:export-ydpi="90.000000"
   inkscape:export-xdpi="90.000000"
   width="736"
   height="544"
   id="svg11300"
   sodipodi:version="0.32"
   inkscape:version="0.91 r"
   sodipodi:docname="web-facebook-messenger.svg"
   inkscape:output_extension="org.inkscape.output.svg.inkscape"
   version="1.0"
   style="display:inline;enable-background:new"
   inkscape:export-filename="/home/sam/paper-template.png">
  <title
     id="title3004">Paper Icon Theme Template</title>
  <sodipodi:namedview
     stroke="#ef2929"
     fill="#f57900"
     id="base"
     pagecolor="#6b6b6b"
     bordercolor="#000000"
     borderopacity="0.25490196"
     inkscape:pageopacity="0"
     inkscape:pageshadow="2"
     inkscape:zoom="1"
     inkscape:cx="54.637724"
     inkscape:cy="285.59373"
     inkscape:current-layer="layer6"
     showgrid="false"
     inkscape:grid-bbox="true"
     inkscape:document-units="px"
     inkscape:showpageshadow="false"
     inkscape:window-width="1920"
     inkscape:window-height="1024"
     inkscape:window-x="0"
     inkscape:window-y="30"
     width="400px"
     height="300px"
     inkscape:snap-nodes="true"
     inkscape:snap-bbox="true"
     gridtolerance="10000"
     inkscape:object-nodes="true"
     inkscape:snap-grids="true"
     showguides="true"
     inkscape:guide-bbox="true"
     inkscape:window-maximized="1"
     inkscape:bbox-paths="true"
     inkscape:snap-bbox-midpoints="true"
     inkscape:snap-global="true"
     inkscape:object-paths="true"
     inkscape:snap-intersection-paths="true"
     inkscape:snap-smooth-nodes="true">
    <inkscape:grid
       spacingy="1px"
       spacingx="1px"
       id="grid5883"
       type="xygrid"
       enabled="true"
       visible="true"
       empspacing="4"
       snapvisiblegridlinesonly="true" />
    <inkscape:grid
       type="xygrid"
       id="grid11592"
       empspacing="2"
       visible="true"
       enabled="false"
       spacingx="0.5px"
       spacingy="0.5px"
       color="#ff0000"
       opacity="0.1254902"
       empcolor="#ff0000"
       empopacity="0.25098039"
       snapvisiblegridlinesonly="true" />
  </sodipodi:namedview>
  <defs
     id="defs3">
    <filter
       inkscape:collect="always"
       style="color-interpolation-filters:sRGB"
       id="filter4399"
       x="-0.0242"
       width="1.0484"
       y="-0.023803279"
       height="1.0476066">
      <feGaussianBlur
         inkscape:collect="always"
         stdDeviation="4.84"
         id="feGaussianBlur4401" />
    </filter>
  </defs>
  <metadata
     id="metadata4">
    <rdf:RDF>
      <cc:Work
         rdf:about="">
        <dc:format>image/svg+xml</dc:format>
        <dc:type
           rdf:resource="http://purl.org/dc/dcmitype/StillImage" />
        <dc:creator>
          <cc:Agent>
            <dc:title>Sam Hewitt</dc:title>
          </cc:Agent>
        </dc:creator>
        <dc:source />
        <cc:license
           rdf:resource="http://creativecommons.org/licenses/by-sa/3.0/" />
        <dc:title>Paper Icon Theme Template</dc:title>
        <dc:subject>
          <rdf:Bag />
        </dc:subject>
        <dc:date />
        <dc:rights>
          <cc:Agent>
            <dc:title />
          </cc:Agent>
        </dc:rights>
        <dc:publisher>
          <cc:Agent>
            <dc:title />
          </cc:Agent>
        </dc:publisher>
        <dc:identifier />
        <dc:relation />
        <dc:language />
        <dc:coverage />
        <dc:description />
        <dc:contributor>
          <cc:Agent>
            <dc:title />
          </cc:Agent>
        </dc:contributor>
      </cc:Work>
      <cc:Work
         rdf:about="">
        <dc:format>image/svg+xml</dc:format>
        <dc:type
           rdf:resource="http://purl.org/dc/dcmitype/StillImage" />
      </cc:Work>
      <cc:License
         rdf:about="http://creativecommons.org/licenses/by-sa/3.0/">
        <cc:permits
           rdf:resource="http://creativecommons.org/ns#Reproduction" />
        <cc:permits
           rdf:resource="http://creativecommons.org/ns#Distribution" />
        <cc:requires
           rdf:resource="http://creativecommons.org/ns#Notice" />
        <cc:requires
           rdf:resource="http://creativecommons.org/ns#Attribution" />
        <cc:permits
           rdf:resource="http://creativecommons.org/ns#DerivativeWorks" />
        <cc:requires
           rdf:resource="http://creativecommons.org/ns#ShareAlike" />
      </cc:License>
    </rdf:RDF>
  </metadata>
  <g
     style="display:inline"
     inkscape:groupmode="layer"
     inkscape:label="Icon"
     id="layer1"
     transform="translate(0,244)">
    <g
       style="display:none"
       inkscape:label="Baseplate"
       id="layer7"
       inkscape:groupmode="layer">
      <text
         y="337.74512"
         xml:space="preserve"
         x="15.006836"
         style="font-style:normal;font-variant:normal;font-weight:normal;font-stretch:normal;font-size:18px;font-family:'DejaVu Sans';-inkscape-font-specification:'DejaVu Sans';display:inline;fill:#000000;fill-opacity:1;stroke:none;enable-background:new"
         inkscape:label="context"
         id="context"><tspan
           style="font-style:normal;font-variant:normal;font-weight:normal;font-stretch:normal;font-family:'DejaVu Sans';-inkscape-font-specification:'DejaVu Sans'"
           y="337.74512"
           x="15.006836"
           sodipodi:role="line"
           id="tspan3933">web</tspan></text>
      <text
         y="337.74512"
         xml:space="preserve"
         x="142.48828"
         style="font-style:normal;font-variant:normal;font-weight:bold;font-stretch:normal;font-size:18px;line-height:125%;font-family:'DejaVu Sans';-inkscape-font-specification:'DejaVu Sans Bold';text-align:start;writing-mode:lr-tb;text-anchor:start;display:inline;fill:#000000;fill-opacity:1;stroke:none;enable-background:new"
         sodipodi:linespacing="125%"
         inkscape:label="icon-name"
         id="icon-name"><tspan
           style="font-style:normal;font-variant:normal;font-weight:bold;font-stretch:normal;font-size:18px;font-family:'DejaVu Sans';-inkscape-font-specification:'DejaVu Sans Bold'"
           y="337.74512"
           x="142.48828"
           sodipodi:role="line"
           id="tspan3937">web-facebook-messenger</tspan></text>
      <rect
         style="display:inline;overflow:visible;visibility:visible;fill:#d3d7cf;fill-opacity:1;fill-rule:nonzero;stroke:none;stroke-width:2;marker:none;enable-background:accumulate"
         id="rect16x16"
         width="16"
         height="16"
         x="-32"
         y="268"
         inkscape:label="16x16"
         transform="scale(-1,1)" />
      <rect
         style="display:inline;overflow:visible;visibility:visible;fill:#d3d7cf;fill-opacity:1;fill-rule:nonzero;stroke:none;stroke-width:2;marker:none;enable-background:accumulate"
         id="rect24x24"
         width="24"
         height="24"
         x="-76"
         y="260"
         inkscape:label="24x24"
         transform="scale(-1,1)" />
      <rect
         style="display:inline;overflow:visible;visibility:visible;fill:#d3d7cf;fill-opacity:1;fill-rule:nonzero;stroke:none;stroke-width:2;marker:none;enable-background:accumulate"
         id="rect32x32"
         width="32"
         height="32"
         x="-128"
         y="252"
         inkscape:label="32x32"
         transform="scale(-1,1)" />
      <rect
         inkscape:label="48x48"
         y="236"
         x="-192"
         height="48"
         width="48"
         id="rect48x48"
         style="display:inline;overflow:visible;visibility:visible;fill:#d3d7cf;fill-opacity:1;fill-rule:nonzero;stroke:none;stroke-width:2;marker:none;enable-background:accumulate"
         transform="scale(-1,1)" />
      <rect
         style="display:inline;overflow:visible;visibility:visible;fill:#d3d7cf;fill-opacity:1;fill-rule:nonzero;stroke:none;stroke-width:2;marker:none;enable-background:accumulate"
         id="rect3951"
         width="512"
         height="512"
         x="-720"
         y="-228"
         inkscape:label="48x48"
         transform="scale(-1,1)" />
    </g>
    <g
       inkscape:groupmode="layer"
       id="layer6"
       inkscape:label="Symbols"
       style="display:inline">
      <path
         id="path4397"
         d="M 464,-207 A 240,224 0 0 0 224,17 240,224 0 0 0 312,190.17773 L 312,281 395.43359,231.55859 A 240,224 0 0 0 464,241 240,224 0 0 0 704,17 240,224 0 0 0 464,-207 Z"
         style="opacity:0.2;fill:#000000;fill-opacity:1;filter:url(#filter4399)"
         inkscape:connector-curvature="0" />
      <path
         id="path4369"
         d="m 64,262 a 10.999999,10 0 0 0 -11,10 10.999999,10 0 0 0 4,7.70703 L 57,284 61.53125,281.73438 A 10.999999,10 0 0 0 64,282 10.999999,10 0 0 0 75,272 10.999999,10 0 0 0 64,262 Z"
         style="opacity:0.2;fill:#000000;fill-opacity:1"
         inkscape:connector-curvature="0" />
      <path
         id="path4371"
         d="m 112,255 a 13.999999,13.066666 0 0 0 -14,13.06641 13.999999,13.066666 0 0 0 5,10.00781 l 0,4.92578 4.67188,-2.51562 A 13.999999,13.066666 0 0 0 112,281.13281 13.999999,13.066666 0 0 0 126,268.06641 13.999999,13.066666 0 0 0 112,255 Z"
         style="opacity:0.2;fill:#000000;fill-opacity:1"
         inkscape:connector-curvature="0" />
      <path
         id="path4367"
         d="m 168,240 a 21,19.6 0 0 0 -21,19.59961 21,19.6 0 0 0 7,14.58203 l 0,7.81836 7.30273,-3.84375 A 21,19.6 0 0 0 168,279.19922 21,19.6 0 0 0 189,259.59961 21,19.6 0 0 0 168,240 Z"
         style="opacity:0.2;fill:#000000;fill-opacity:1"
         inkscape:connector-curvature="0" />
      <path
         inkscape:connector-curvature="0"
         style="opacity:0.2;fill:#000000;fill-opacity:1"
         d="M 464,-209 A 240,224 0 0 0 224,15 240,224 0 0 0 312,188.17773 L 312,279 395.43359,229.55859 A 240,224 0 0 0 464,239 240,224 0 0 0 704,15 240,224 0 0 0 464,-209 Z"
         id="path4365" />
      <path
         inkscape:connector-curvature="0"
         id="path4247"
         d="M 464,-211 A 240,224 0 0 0 224,13 240,224 0 0 0 312,186.17773 L 312,277 395.43359,227.55859 A 240,224 0 0 0 464,237 240,224 0 0 0 704,13 240,224 0 0 0 464,-211 Z"
         style="opacity:1;fill:#03a9f4;fill-opacity:1" />
      <path
         style="fill:#ffffff;fill-opacity:1;fill-rule:evenodd;stroke:none;stroke-width:1px;stroke-linecap:butt;stroke-linejoin:miter;stroke-opacity:1"
         d="M 312,84 440,-52 504,12 616,-52 488,84 424,20 Z"
         id="path4274"
         inkscape:connector-curvature="0"
         sodipodi:nodetypes="ccccccc" />
      <path
         style="opacity:1;fill:#03a9f4;fill-opacity:1"
         d="M 168 483 A 21 19.6 0 0 0 147 502.59961 A 21 19.6 0 0 0 154 517.18164 L 154 525 L 161.30273 521.15625 A 21 19.6 0 0 0 168 522.19922 A 21 19.6 0 0 0 189 502.59961 A 21 19.6 0 0 0 168 483 z "
         id="ellipse4288"
         transform="translate(0,-244)" />
      <path
         sodipodi:nodetypes="ccccccc"
         inkscape:connector-curvature="0"
         id="path4292"
         d="m 154.7,264.9 11.2,-11.9 5.6,5.6 9.8,-5.6 -11.2,11.9 -5.6,-5.6 z"
         style="fill:#ffffff;fill-opacity:1;fill-rule:evenodd;stroke:none;stroke-width:1px;stroke-linecap:butt;stroke-linejoin:miter;stroke-opacity:1" />
      <path
         style="opacity:1;fill:#03a9f4;fill-opacity:1"
         d="M 64 505 A 10.999999 10 0 0 0 53 515 A 10.999999 10 0 0 0 57 522.70703 L 57 527 L 61.53125 524.73438 A 10.999999 10 0 0 0 64 525 A 10.999999 10 0 0 0 75 515 A 10.999999 10 0 0 0 64 505 z "
         transform="translate(0,-244)"
         id="ellipse4298" />
      <path
         style="fill:#ffffff;fill-opacity:1;fill-rule:evenodd;stroke:none;stroke-width:1px;stroke-linecap:butt;stroke-linejoin:miter;stroke-opacity:1"
         d="m 57.033332,274.11667 5.866666,-6.23333 2.933333,2.93333 5.133333,-2.93333 -5.866666,6.23333 -2.933333,-2.93333 z"
         id="path4302"
         inkscape:connector-curvature="0"
         sodipodi:nodetypes="ccccccc" />
      <path
         style="opacity:1;fill:#03a9f4;fill-opacity:1"
         d="M 112 498 A 13.999999 13.066666 0 0 0 98 511.06641 A 13.999999 13.066666 0 0 0 103 521.07422 L 103 526 L 107.67188 523.48438 A 13.999999 13.066666 0 0 0 112 524.13281 A 13.999999 13.066666 0 0 0 126 511.06641 A 13.999999 13.066666 0 0 0 112 498 z "
         transform="translate(0,-244)"
         id="ellipse4319" />
      <path
         style="fill:#ffffff;fill-opacity:1;fill-rule:evenodd;stroke:none;stroke-width:1px;stroke-linecap:butt;stroke-linejoin:miter;stroke-opacity:1"
         d="m 103.13333,271.26666 7.46667,-7.93333 3.73333,3.73333 6.53334,-3.73333 -7.46667,7.93333 -3.73333,-3.73333 z"
         id="path4323"
         inkscape:connector-curvature="0"
         sodipodi:nodetypes="ccccccc" />
      <path
         style="opacity:1;fill:#03a9f4;fill-opacity:1"
         d="M 24 513 A 7.000001 6.5333343 0 0 0 17 519.5332 A 7.000001 6.5333343 0 0 0 19 524.10547 L 19 527 L 21.4375 525.60742 A 7.000001 6.5333343 0 0 0 24 526.06641 A 7.000001 6.5333343 0 0 0 31 519.5332 A 7.000001 6.5333343 0 0 0 24 513 z "
         transform="translate(0,-244)"
         id="ellipse4329" />
      <path
         sodipodi:nodetypes="ccccccc"
         inkscape:connector-curvature="0"
         id="path4333"
         d="M 19.566666,277.63334 23.3,273.66667 l 1.866667,1.86667 3.266667,-1.86667 -3.733334,3.96667 -1.866667,-1.86667 z"
         style="fill:#ffffff;fill-opacity:1;fill-rule:evenodd;stroke:none;stroke-width:1px;stroke-linecap:butt;stroke-linejoin:miter;stroke-opacity:1" />
      <path
         style="opacity:0.1;fill:#ffffff;fill-opacity:1"
         d="M 64 505 A 10.999999 10 0 0 0 53 515 A 10.999999 10 0 0 0 53.023438 515.40625 A 10.999999 10 0 0 1 64 506 A 10.999999 10 0 0 1 74.976562 515.58594 A 10.999999 10 0 0 0 75 515 A 10.999999 10 0 0 0 64 505 z "
         transform="translate(0,-244)"
         id="path4377" />
      <path
         style="opacity:0.1;fill:#ffffff;fill-opacity:1"
         d="M 112 498 A 13.999999 13.066666 0 0 0 98 511.06641 A 13.999999 13.066666 0 0 0 98.021484 511.48047 A 13.999999 13.066666 0 0 1 112 499 A 13.999999 13.066666 0 0 1 125.97852 511.65234 A 13.999999 13.066666 0 0 0 126 511.06641 A 13.999999 13.066666 0 0 0 112 498 z "
         transform="translate(0,-244)"
         id="path4382" />
      <path
         style="opacity:0.1;fill:#ffffff;fill-opacity:1"
         d="M 168 483 A 21 19.6 0 0 0 147 502.59961 A 21 19.6 0 0 0 147.02344 503.00977 A 21 19.6 0 0 1 168 484 A 21 19.6 0 0 1 188.97852 503.18555 A 21 19.6 0 0 0 189 502.59961 A 21 19.6 0 0 0 168 483 z "
         transform="translate(0,-244)"
         id="path4387" />
      <path
         style="opacity:0.1;fill:#ffffff;fill-opacity:1"
         d="M 464 33 A 240 224 0 0 0 224 257 A 240 224 0 0 0 224.04492 257.82227 A 240 224 0 0 1 464 35 A 240 224 0 0 1 703.95508 258.17188 A 240 224 0 0 0 704 257 A 240 224 0 0 0 464 33 z "
         transform="translate(0,-244)"
         id="path4392" />
    </g>
  </g>
</svg>
