<?xml version="1.0" encoding="UTF-8" standalone="no"?>
<!-- Created with Inkscape (http://www.inkscape.org/) -->

<svg
   xmlns:dc="http://purl.org/dc/elements/1.1/"
   xmlns:cc="http://creativecommons.org/ns#"
   xmlns:rdf="http://www.w3.org/1999/02/22-rdf-syntax-ns#"
   xmlns:svg="http://www.w3.org/2000/svg"
   xmlns="http://www.w3.org/2000/svg"
   xmlns:sodipodi="http://sodipodi.sourceforge.net/DTD/sodipodi-0.dtd"
   xmlns:inkscape="http://www.inkscape.org/namespaces/inkscape"
   inkscape:export-ydpi="90.000000"
   inkscape:export-xdpi="90.000000"
   width="736"
   height="544"
   id="svg11300"
   sodipodi:version="0.32"
   inkscape:version="0.91 r"
   sodipodi:docname="web-google-hangouts.svg"
   inkscape:output_extension="org.inkscape.output.svg.inkscape"
   version="1.0"
   style="display:inline;enable-background:new"
   inkscape:export-filename="/home/sam/paper-template.png">
  <title
     id="title3004">Paper Icon Theme Template</title>
  <sodipodi:namedview
     stroke="#ef2929"
     fill="#f57900"
     id="base"
     pagecolor="#6b6b6b"
     bordercolor="#000000"
     borderopacity="0.25490196"
     inkscape:pageopacity="0"
     inkscape:pageshadow="2"
     inkscape:zoom="1"
     inkscape:cx="133.44854"
     inkscape:cy="54.048457"
     inkscape:current-layer="layer6"
     showgrid="false"
     inkscape:grid-bbox="true"
     inkscape:document-units="px"
     inkscape:showpageshadow="false"
     inkscape:window-width="1920"
     inkscape:window-height="1024"
     inkscape:window-x="0"
     inkscape:window-y="30"
     width="400px"
     height="300px"
     inkscape:snap-nodes="true"
     inkscape:snap-bbox="true"
     gridtolerance="10000"
     inkscape:object-nodes="true"
     inkscape:snap-grids="true"
     showguides="true"
     inkscape:guide-bbox="true"
     inkscape:window-maximized="1"
     inkscape:bbox-paths="true"
     inkscape:snap-bbox-midpoints="true"
     inkscape:snap-global="true"
     inkscape:object-paths="true"
     inkscape:snap-intersection-paths="true"
     inkscape:snap-smooth-nodes="true">
    <inkscape:grid
       spacingy="1px"
       spacingx="1px"
       id="grid5883"
       type="xygrid"
       enabled="true"
       visible="true"
       empspacing="4"
       snapvisiblegridlinesonly="true" />
    <inkscape:grid
       type="xygrid"
       id="grid11592"
       empspacing="2"
       visible="true"
       enabled="false"
       spacingx="0.5px"
       spacingy="0.5px"
       color="#ff0000"
       opacity="0.1254902"
       empcolor="#ff0000"
       empopacity="0.25098039"
       snapvisiblegridlinesonly="true" />
  </sodipodi:namedview>
  <defs
     id="defs3">
    <filter
       inkscape:collect="always"
       style="color-interpolation-filters:sRGB"
       id="filter4431"
       x="-0.026"
       width="1.052"
       y="-0.022285714"
       height="1.0445714">
      <feGaussianBlur
         inkscape:collect="always"
         stdDeviation="4.16"
         id="feGaussianBlur4433" />
    </filter>
  </defs>
  <metadata
     id="metadata4">
    <rdf:RDF>
      <cc:Work
         rdf:about="">
        <dc:format>image/svg+xml</dc:format>
        <dc:type
           rdf:resource="http://purl.org/dc/dcmitype/StillImage" />
        <dc:creator>
          <cc:Agent>
            <dc:title>Sam Hewitt</dc:title>
          </cc:Agent>
        </dc:creator>
        <dc:source />
        <cc:license
           rdf:resource="http://creativecommons.org/licenses/by-sa/3.0/" />
        <dc:title>Paper Icon Theme Template</dc:title>
        <dc:subject>
          <rdf:Bag />
        </dc:subject>
        <dc:date />
        <dc:rights>
          <cc:Agent>
            <dc:title />
          </cc:Agent>
        </dc:rights>
        <dc:publisher>
          <cc:Agent>
            <dc:title />
          </cc:Agent>
        </dc:publisher>
        <dc:identifier />
        <dc:relation />
        <dc:language />
        <dc:coverage />
        <dc:description />
        <dc:contributor>
          <cc:Agent>
            <dc:title />
          </cc:Agent>
        </dc:contributor>
      </cc:Work>
      <cc:Work
         rdf:about="">
        <dc:format>image/svg+xml</dc:format>
        <dc:type
           rdf:resource="http://purl.org/dc/dcmitype/StillImage" />
      </cc:Work>
      <cc:License
         rdf:about="http://creativecommons.org/licenses/by-sa/3.0/">
        <cc:permits
           rdf:resource="http://creativecommons.org/ns#Reproduction" />
        <cc:permits
           rdf:resource="http://creativecommons.org/ns#Distribution" />
        <cc:requires
           rdf:resource="http://creativecommons.org/ns#Notice" />
        <cc:requires
           rdf:resource="http://creativecommons.org/ns#Attribution" />
        <cc:permits
           rdf:resource="http://creativecommons.org/ns#DerivativeWorks" />
        <cc:requires
           rdf:resource="http://creativecommons.org/ns#ShareAlike" />
      </cc:License>
    </rdf:RDF>
  </metadata>
  <g
     style="display:inline"
     inkscape:groupmode="layer"
     inkscape:label="Icon"
     id="layer1"
     transform="translate(0,244)">
    <g
       style="display:none"
       inkscape:label="Baseplate"
       id="layer7"
       inkscape:groupmode="layer">
      <text
         y="337.74512"
         xml:space="preserve"
         x="15.006836"
         style="font-style:normal;font-variant:normal;font-weight:normal;font-stretch:normal;font-size:18px;font-family:'DejaVu Sans';-inkscape-font-specification:'DejaVu Sans';display:inline;fill:#000000;fill-opacity:1;stroke:none;enable-background:new"
         inkscape:label="context"
         id="context"><tspan
           style="font-style:normal;font-variant:normal;font-weight:normal;font-stretch:normal;font-family:'DejaVu Sans';-inkscape-font-specification:'DejaVu Sans'"
           y="337.74512"
           x="15.006836"
           sodipodi:role="line"
           id="tspan3933">web</tspan></text>
      <text
         y="337.74512"
         xml:space="preserve"
         x="142.48828"
         style="font-style:normal;font-variant:normal;font-weight:bold;font-stretch:normal;font-size:18px;line-height:125%;font-family:'DejaVu Sans';-inkscape-font-specification:'DejaVu Sans Bold';text-align:start;writing-mode:lr-tb;text-anchor:start;display:inline;fill:#000000;fill-opacity:1;stroke:none;enable-background:new"
         sodipodi:linespacing="125%"
         inkscape:label="icon-name"
         id="icon-name"><tspan
           style="font-style:normal;font-variant:normal;font-weight:bold;font-stretch:normal;font-size:18px;font-family:'DejaVu Sans';-inkscape-font-specification:'DejaVu Sans Bold'"
           y="337.74512"
           x="142.48828"
           sodipodi:role="line"
           id="tspan3937">web-google-hangouts</tspan></text>
      <rect
         style="display:inline;overflow:visible;visibility:visible;fill:#d3d7cf;fill-opacity:1;fill-rule:nonzero;stroke:none;stroke-width:2;marker:none;enable-background:accumulate"
         id="rect16x16"
         width="16"
         height="16"
         x="-32"
         y="268"
         inkscape:label="16x16"
         transform="scale(-1,1)" />
      <rect
         style="display:inline;overflow:visible;visibility:visible;fill:#d3d7cf;fill-opacity:1;fill-rule:nonzero;stroke:none;stroke-width:2;marker:none;enable-background:accumulate"
         id="rect24x24"
         width="24"
         height="24"
         x="-76"
         y="260"
         inkscape:label="24x24"
         transform="scale(-1,1)" />
      <rect
         style="display:inline;overflow:visible;visibility:visible;fill:#d3d7cf;fill-opacity:1;fill-rule:nonzero;stroke:none;stroke-width:2;marker:none;enable-background:accumulate"
         id="rect32x32"
         width="32"
         height="32"
         x="-128"
         y="252"
         inkscape:label="32x32"
         transform="scale(-1,1)" />
      <rect
         inkscape:label="48x48"
         y="236"
         x="-192"
         height="48"
         width="48"
         id="rect48x48"
         style="display:inline;overflow:visible;visibility:visible;fill:#d3d7cf;fill-opacity:1;fill-rule:nonzero;stroke:none;stroke-width:2;marker:none;enable-background:accumulate"
         transform="scale(-1,1)" />
      <rect
         style="display:inline;overflow:visible;visibility:visible;fill:#d3d7cf;fill-opacity:1;fill-rule:nonzero;stroke:none;stroke-width:2;marker:none;enable-background:accumulate"
         id="rect3951"
         width="512"
         height="512"
         x="-720"
         y="-228"
         inkscape:label="48x48"
         transform="scale(-1,1)" />
    </g>
    <g
       inkscape:groupmode="layer"
       id="layer6"
       inkscape:label="Symbols"
       style="display:inline">
      <path
         inkscape:connector-curvature="0"
         id="path4429"
         d="M 464,-192 A 192.00004,192.00004 0 0 0 272,0 192.00004,192.00004 0 0 0 464,192 l 0,64 C 493.53847,256 656,147.69234 656,0 A 192.00004,192.00004 0 0 0 464,-192 Z"
         style="opacity:0.2;fill:#000000;fill-opacity:1;stroke:none;stroke-width:16;stroke-linecap:square;stroke-linejoin:miter;stroke-miterlimit:4;stroke-dasharray:none;stroke-opacity:1;filter:url(#filter4431)" />
      <path
         style="opacity:0.2;fill:#000000;fill-opacity:1;stroke:none;stroke-width:16;stroke-linecap:square;stroke-linejoin:miter;stroke-miterlimit:4;stroke-dasharray:none;stroke-opacity:1"
         d="M 464,-194 A 192.00004,192.00004 0 0 0 272,-2 192.00004,192.00004 0 0 0 464,190 l 0,64 C 493.53847,254 656,145.69234 656,-2 A 192.00004,192.00004 0 0 0 464,-194 Z"
         id="path4427"
         inkscape:connector-curvature="0" />
      <path
         id="path4421"
         d="m 168,240 a 18,18 0 0 0 -18,18 18,18 0 0 0 18,18 l 0,6 c 2.64069,0 16.60315,-9.23627 17.89453,-22.09961 a 18,18 0 0 0 0.0215,-0.20117 C 185.96635,259.13859 186,258.57377 186,258 a 18,18 0 0 0 -18,-18 z"
         style="opacity:0.2;fill:#000000;fill-opacity:1;stroke:none;stroke-width:16;stroke-linecap:square;stroke-linejoin:miter;stroke-miterlimit:4;stroke-dasharray:none;stroke-opacity:1"
         inkscape:connector-curvature="0" />
      <path
         id="path4423"
         d="m 112,255 a 12.000003,12.000003 0 0 0 -12,12 12.000003,12.000003 0 0 0 12,12 l 0,4 c 1.76043,0 11.06839,-6.15717 11.92969,-14.73242 a 12.000003,12.000003 0 0 0 0.0137,-0.13672 C 123.97682,267.75767 124,267.38193 124,267 a 12.000003,12.000003 0 0 0 -12,-12 z"
         style="opacity:0.2;fill:#000000;fill-opacity:1;stroke:none;stroke-width:16;stroke-linecap:square;stroke-linejoin:miter;stroke-miterlimit:4;stroke-dasharray:none;stroke-opacity:1"
         inkscape:connector-curvature="0" />
      <path
         id="path4425"
         d="m 64,263 a 9,9 0 0 0 -9,9 9,9 0 0 0 9,9 l 0,3 c 1.252135,0 7.581933,-4.15782 8.785156,-10.07227 a 9,9 0 0 0 0.06055,-0.30859 c 0.03036,-0.17754 0.06134,-0.35464 0.08203,-0.53516 A 9,9 0 0 0 73,272 9,9 0 0 0 64,263 Z"
         style="opacity:0.2;fill:#000000;fill-opacity:1;stroke:none;stroke-width:16;stroke-linecap:square;stroke-linejoin:miter;stroke-miterlimit:4;stroke-dasharray:none;stroke-opacity:1"
         inkscape:connector-curvature="0" />
      <path
         inkscape:connector-curvature="0"
         id="circle4264"
         d="M 464,-196 A 192.00004,192.00004 0 0 0 272,-4 192.00004,192.00004 0 0 0 464,188 l 0,64 C 493.53847,252 656,143.69234 656,-4 A 192.00004,192.00004 0 0 0 464,-196 Z"
         style="opacity:1;fill:#16a05d;fill-opacity:1;stroke:none;stroke-width:16;stroke-linecap:square;stroke-linejoin:miter;stroke-miterlimit:4;stroke-dasharray:none;stroke-opacity:1" />
      <path
         sodipodi:nodetypes="cccccccc"
         inkscape:connector-curvature="0"
         id="path4268"
         d="m 367.99999,-59.999901 0,79.999804 40.00001,0 0,38.666675 c 21.33334,0 40.00001,-17.333337 40.00001,-38.666675 l 0,-21.3333378 0,-58.6664662 z"
         style="opacity:1;fill:#ffffff;fill-opacity:1;stroke:none;stroke-width:16;stroke-linecap:square;stroke-linejoin:miter;stroke-miterlimit:4;stroke-dasharray:none;stroke-opacity:1" />
      <path
         style="opacity:1;fill:#ffffff;fill-opacity:1;stroke:none;stroke-width:16;stroke-linecap:square;stroke-linejoin:miter;stroke-miterlimit:4;stroke-dasharray:none;stroke-opacity:1"
         d="m 479.99999,-59.999901 0,79.999804 40.00001,0 0,38.666675 c 21.33334,0 40.00001,-17.333337 40.00001,-38.666675 l 0,-21.3333378 0,-58.6664662 z"
         id="path4272"
         inkscape:connector-curvature="0"
         sodipodi:nodetypes="cccccccc" />
      <path
         style="opacity:1;fill:#16a05d;fill-opacity:1;stroke:none;stroke-width:16;stroke-linecap:square;stroke-linejoin:miter;stroke-miterlimit:4;stroke-dasharray:none;stroke-opacity:1"
         d="M 168 483 A 18 18 0 0 0 150 501 A 18 18 0 0 0 168 519 L 168 525 C 170.64069 525 184.60315 515.76373 185.89453 502.90039 A 18 18 0 0 0 185.91602 502.69922 C 185.96635 502.13859 186 501.57377 186 501 A 18 18 0 0 0 168 483 z "
         transform="translate(0,-244)"
         id="circle4240" />
      <path
         sodipodi:nodetypes="cccccccc"
         inkscape:connector-curvature="0"
         id="path4244"
         d="m 158,251 0,8 4,0 0,4 c 2,0 4,-2 4,-4 l 0,-2 0,-6 z"
         style="opacity:1;fill:#ffffff;fill-opacity:1;stroke:none;stroke-width:16;stroke-linecap:square;stroke-linejoin:miter;stroke-miterlimit:4;stroke-dasharray:none;stroke-opacity:1" />
      <path
         style="opacity:1;fill:#ffffff;fill-opacity:1;stroke:none;stroke-width:16;stroke-linecap:square;stroke-linejoin:miter;stroke-miterlimit:4;stroke-dasharray:none;stroke-opacity:1"
         d="m 170,251 0,8 4,0 0,4 c 2,0 4,-2 4,-4 l 0,-2 0,-6 z"
         id="path4246"
         inkscape:connector-curvature="0"
         sodipodi:nodetypes="cccccccc" />
      <path
         style="opacity:1;fill:#16a05d;fill-opacity:1;stroke:none;stroke-width:16;stroke-linecap:square;stroke-linejoin:miter;stroke-miterlimit:4;stroke-dasharray:none;stroke-opacity:1"
         d="M 112 498 A 12.000003 12.000003 0 0 0 100 510 A 12.000003 12.000003 0 0 0 112 522 L 112 526 C 113.76043 526 123.06839 519.84283 123.92969 511.26758 A 12.000003 12.000003 0 0 0 123.94336 511.13086 C 123.97682 510.75767 124 510.38193 124 510 A 12.000003 12.000003 0 0 0 112 498 z "
         transform="translate(0,-244)"
         id="circle4252" />
      <path
         sodipodi:nodetypes="cccccccc"
         inkscape:connector-curvature="0"
         id="path4256"
         d="m 106,261.99999 0,5.00001 3,0 0,3 c 1.25,0 2,-1.75 2,-3 l 0,-1.25 0,-3.75001 z"
         style="opacity:1;fill:#ffffff;fill-opacity:1;stroke:none;stroke-width:16;stroke-linecap:square;stroke-linejoin:miter;stroke-miterlimit:4;stroke-dasharray:none;stroke-opacity:1" />
      <path
         style="opacity:1;fill:#ffffff;fill-opacity:1;stroke:none;stroke-width:16;stroke-linecap:square;stroke-linejoin:miter;stroke-miterlimit:4;stroke-dasharray:none;stroke-opacity:1"
         d="m 113,261.99999 0,5.00001 3,0 0,3 c 1.25,0 2,-1.75 2,-3 l 0,-1.25 0,-3.75001 z"
         id="path4339"
         inkscape:connector-curvature="0"
         sodipodi:nodetypes="cccccccc" />
      <path
         style="opacity:1;fill:#16a05d;fill-opacity:1;stroke:none;stroke-width:16;stroke-linecap:square;stroke-linejoin:miter;stroke-miterlimit:4;stroke-dasharray:none;stroke-opacity:1"
         d="M 64 506 A 9 9 0 0 0 55 515 A 9 9 0 0 0 64 524 L 64 527 C 65.252135 527 71.581933 522.84218 72.785156 516.92773 A 9 9 0 0 0 72.845703 516.61914 C 72.876059 516.4416 72.907045 516.2645 72.927734 516.08398 A 9 9 0 0 0 73 515 A 9 9 0 0 0 64 506 z "
         transform="translate(0,-244)"
         id="path4212" />
      <path
         style="opacity:1;fill:#ffffff;fill-opacity:1;stroke:none;stroke-width:16;stroke-linecap:square;stroke-linejoin:miter;stroke-miterlimit:4;stroke-dasharray:none;stroke-opacity:1"
         d="m 59,268 0,4 2,0 0,2 c 1,0 2,-1 2,-2 l 0,-1 0,-3 z"
         id="rect4220"
         inkscape:connector-curvature="0"
         sodipodi:nodetypes="cccccccc" />
      <path
         sodipodi:nodetypes="cccccccc"
         inkscape:connector-curvature="0"
         id="path4227"
         d="m 65,268 0,4 2,0 0,2 c 1,0 2,-1 2,-2 l 0,-1 0,-3 z"
         style="opacity:1;fill:#ffffff;fill-opacity:1;stroke:none;stroke-width:16;stroke-linecap:square;stroke-linejoin:miter;stroke-miterlimit:4;stroke-dasharray:none;stroke-opacity:1" />
      <circle
         style="opacity:1;fill:#16a05d;fill-opacity:1;stroke:none;stroke-width:16;stroke-linecap:square;stroke-linejoin:miter;stroke-miterlimit:4;stroke-dasharray:none;stroke-opacity:1"
         id="circle4345"
         cx="24"
         cy="275"
         r="6.9999995" />
      <path
         style="fill:#16a05d;fill-opacity:1;fill-rule:evenodd;stroke:none;stroke-width:1px;stroke-linecap:butt;stroke-linejoin:miter;stroke-opacity:1"
         d="m 23.999999,284 0,-9 7,0 c 0,5.38461 -5.923077,9 -7,9 z"
         id="path4347"
         inkscape:connector-curvature="0"
         sodipodi:nodetypes="cccc" />
      <path
         style="display:inline;enable-background:new;opacity:1;fill:#ffffff;fill-opacity:1;stroke:none;stroke-width:16;stroke-linecap:square;stroke-linejoin:miter;stroke-miterlimit:4;stroke-dasharray:none;stroke-opacity:1"
         d="m 20,273 0,2.91667 1.749999,0 0,1.75 c 0.729166,0 1.166667,-1.02083 1.166667,-1.75 l 0,-0.72917 0,-2.1875 z"
         id="path4349"
         inkscape:connector-curvature="0"
         sodipodi:nodetypes="cccccccc" />
      <path
         sodipodi:nodetypes="cccccccc"
         inkscape:connector-curvature="0"
         id="path4351"
         d="m 25,273 0,2.91667 1.749999,0 0,1.75 c 0.729166,0 1.166667,-1.02083 1.166667,-1.75 l 0,-0.72917 0,-2.1875 z"
         style="display:inline;enable-background:new;opacity:1;fill:#ffffff;fill-opacity:1;stroke:none;stroke-width:16;stroke-linecap:square;stroke-linejoin:miter;stroke-miterlimit:4;stroke-dasharray:none;stroke-opacity:1" />
      <path
         style="opacity:0.2;fill:#ffffff;fill-opacity:1;stroke:none;stroke-width:16;stroke-linecap:square;stroke-linejoin:miter;stroke-miterlimit:4;stroke-dasharray:none;stroke-opacity:1"
         d="M 464 48 A 192.00004 192.00004 0 0 0 272 240 A 192.00004 192.00004 0 0 0 272.04102 240.82812 A 192.00004 192.00004 0 0 1 464 50 A 192.00004 192.00004 0 0 1 655.98633 241.71094 C 655.99117 241.14074 656 240.57138 656 240 A 192.00004 192.00004 0 0 0 464 48 z "
         transform="translate(0,-244)"
         id="path4435" />
      <path
         style="opacity:0.1;fill:#ffffff;fill-opacity:1;stroke:none;stroke-width:16;stroke-linecap:square;stroke-linejoin:miter;stroke-miterlimit:4;stroke-dasharray:none;stroke-opacity:1"
         d="M 168 483 A 18 18 0 0 0 150 501 A 18 18 0 0 0 150.02148 501.41406 A 18 18 0 0 1 168 484 A 18 18 0 0 1 185.97461 501.50195 C 185.98005 501.33389 186 501.1695 186 501 A 18 18 0 0 0 168 483 z "
         transform="translate(0,-244)"
         id="path4440" />
      <path
         style="opacity:0.1;fill:#ffffff;fill-opacity:1;stroke:none;stroke-width:16;stroke-linecap:square;stroke-linejoin:miter;stroke-miterlimit:4;stroke-dasharray:none;stroke-opacity:1"
         d="M 112 498 A 12.000003 12.000003 0 0 0 100 510 A 12.000003 12.000003 0 0 0 100.01953 510.40625 A 12.000003 12.000003 0 0 1 112 499 A 12.000003 12.000003 0 0 1 123.97461 510.50195 C 123.98262 510.33454 124 510.16953 124 510 A 12.000003 12.000003 0 0 0 112 498 z "
         transform="translate(0,-244)"
         id="path4442" />
      <path
         style="opacity:0.1;fill:#ffffff;fill-opacity:1;stroke:none;stroke-width:16;stroke-linecap:square;stroke-linejoin:miter;stroke-miterlimit:4;stroke-dasharray:none;stroke-opacity:1"
         d="M 64 506 A 9 9 0 0 0 55 515 A 9 9 0 0 0 55.021484 515.42383 A 9 9 0 0 1 64 507 A 9 9 0 0 1 72.974609 515.47852 A 9 9 0 0 0 73 515 A 9 9 0 0 0 64 506 z "
         transform="translate(0,-244)"
         id="path4444" />
    </g>
  </g>
</svg>
