<svg xmlns="http://www.w3.org/2000/svg" width="16" height="16">
    <g color="#bebebe" fill="#4c5263">
        <path d="m 793.0002,-414.00391 c -3.86599,0 -7,3.13401 -7,7 0,3.86599 3.13401,7 7,7 3.86599,0 7,-3.13401 7,-7 0,-3.86599 -3.13401,-7 -7,-7 z m -3,4.00391 c 0.55407,0 1,0.44945 1,1 0,0.55064 -0.44593,1 -1,1 -0.55424,0 -1,-0.44936 -1,-1 0,-0.55055 0.44576,-1 1,-1 z m 6,0 c 0.55415,0 1,0.44945 1,1 0,0.55064 -0.44585,1 -1,1 -0.55407,0 -1,-0.44936 -1,-1 0,-0.55055 0.44593,-1 1,-1 z m -7,2.49609 c 0.82843,0 1.5,0.67157 1.5,1.5 0,0.82843 -0.67157,1.5 -1.5,1.5 -0.82843,0 -1.5,-0.67157 -1.5,-1.5 0,-0.82843 0.67157,-1.5 1.5,-1.5 z m 8,0 c 0.82843,0 1.5,0.67157 1.5,1.5 0,0.82843 -0.67157,1.5 -1.5,1.5 -0.82843,0 -1.5,-0.67157 -1.5,-1.5 0,-0.82843 0.67157,-1.5 1.5,-1.5 z m -5.5,4.5 h 3 c 0.277,0 0.5,0.18776 0.5,0.4375 v 0.125 c 0,0.24974 -0.223,0.4375 -0.5,0.4375 h -3 c -0.277,0 -0.5,-0.18776 -0.5,-0.4375 v -0.125 c 0,-0.24974 0.223,-0.4375 0.5,-0.4375 z" style="marker:none" overflow="visible" transform="translate(-785 415.003)"/>
        <path d="m 789.00041,-407.50336 c -0.82843,0 -1.5,0.67157 -1.5,1.5 0,0.82843 0.67157,1.5 1.5,1.5 0.82843,0 1.5,-0.67157 1.5,-1.5 0,-0.82843 -0.67157,-1.5 -1.5,-1.5 z m 8,0 c -0.82843,0 -1.5,0.67157 -1.5,1.5 0,0.82843 0.67157,1.5 1.5,1.5 0.82843,0 1.5,-0.67157 1.5,-1.5 0,-0.82843 -0.67157,-1.5 -1.5,-1.5 z" style="marker:none" overflow="visible" opacity=".35" transform="translate(-785 415.003)"/>
    </g>
</svg>
