<svg xmlns="http://www.w3.org/2000/svg" width="16" height="16">
    <path d="M2.094 4.25A6.94 6.94 0 001 8a7 7 0 0014 0 6.94 6.94 0 00-1.094-3.75c-.307.107-.62.2-.969.28C11.6 4.838 9.893 5 8 5c-1.893 0-3.6-.163-4.938-.47a8.951 8.951 0 01-.968-.28zM5 6.002a1 1 0 110 2 1 1 0 010-2zm6 0a1 1 0 110 2 1 1 0 010-2zM5.174 10.83A4 4 0 008 12.003a4 4 0 002.826-1.173l.707.707A4.999 4.999 0 018 13.003a4.999 4.999 0 01-3.533-1.466z" style="marker:none" color="#bebebe" overflow="visible" fill="#4c5263"/>
    <path d="M8 0C6.168 0 4.518.166 3.289.448c-.615.14-1.123.304-1.518.52a1.846 1.846 0 00-.514.388A.97.97 0 001 1.99v.021c0 .25.115.473.257.633.143.16.316.28.514.387.395.215.903.38 1.518.521 1.229.282 2.88.447 4.71.447 1.832 0 3.484-.165 4.713-.447.615-.14 1.123-.306 1.518-.521a1.83 1.83 0 00.512-.387.97.97 0 00.258-.633V1.99a.97.97 0 00-.258-.633 1.837 1.837 0 00-.512-.389c-.395-.215-.903-.379-1.518-.52C11.483.169 9.831 0 8 0zm0 1c1.77 0 3.367.167 4.488.423.56.129 1.003.282 1.264.424a.91.91 0 01.212.152.906.906 0 01-.212.153c-.261.141-.704.297-1.264.426-1.12.256-2.719.421-4.488.421-1.77 0-3.368-.165-4.489-.421-.56-.129-1.003-.285-1.263-.426a.904.904 0 01-.213-.153.912.912 0 01.213-.152c.26-.142.703-.295 1.263-.424C4.632 1.167 6.23 1 8 1zm-6 .99c0 .013.004 0 .002.01.003.008-.002-.004-.002.011zm12 0v.021c0-.016-.005-.003-.002-.012-.002-.008.002.004.002-.01z" style="line-height:normal;font-variant-ligatures:normal;font-variant-position:normal;font-variant-caps:normal;font-variant-numeric:normal;font-variant-alternates:normal;font-feature-settings:normal;text-indent:0;text-align:start;text-decoration-line:none;text-decoration-style:solid;text-decoration-color:#000;text-transform:none;text-orientation:mixed;white-space:normal;shape-padding:0;isolation:auto;mix-blend-mode:normal;solid-color:#000;solid-opacity:1;marker:none" color="#000" font-weight="400" font-family="sans-serif" overflow="visible" fill="#555"/>
</svg>
