<svg xmlns="http://www.w3.org/2000/svg" width="16" height="16">
    <g fill="#4c5263">
        <path d="m 749.0002,-414 -0.75,3 h 9.5 l -0.75,-3 -4,0.5 z m -1,4 -3,2 h 16 l -3,-2 z" transform="translate(-745 415)"/>
        <path d="m 747.0002,-407 c 0,3.3137 2.68629,6 6,6 3.31371,0 6,-2.6863 6,-6 z m 3.5,1.99609 h 5 c 0.277,0 0.5,0.223 0.5,0.5 0,0.277 -0.223,0.5 -0.5,0.5 h -5 c -0.277,0 -0.5,-0.223 -0.5,-0.5 0,-0.277 0.223,-0.5 0.5,-0.5 z" style="marker:none" color="#bebebe" overflow="visible" transform="translate(-745 415)"/>
    </g>
</svg>
