<svg xmlns="http://www.w3.org/2000/svg" width="16" height="16">
    <path d="m 873.0002,-414.00391 c -3.86599,0 -7,3.13401 -7,7 0,3.86599 3.13401,7 7,7 3.86599,0 7,-3.13401 7,-7 0,-3.86599 -3.13401,-7 -7,-7 z m -3,4.00391 c 0.55407,0 1,0.44945 1,1 0,0.55064 -0.44593,1 -1,1 -0.55424,0 -1,-0.44936 -1,-1 0,-0.55055 0.44576,-1 1,-1 z m 6,0 c 0.55415,0 1,0.44945 1,1 0,0.55064 -0.44585,1 -1,1 -0.55407,0 -1,-0.44936 -1,-1 0,-0.55055 0.44593,-1 1,-1 z m -8,4 c 0,0 2,1 5,1 h 3.99219 c -0.94262,1.25683 -2.42115,1.99754 -3.99219,2 -2.25,0 -4.5,-1 -5,-3 z" style="marker:none" color="#bebebe" overflow="visible" fill="#4c5263" transform="translate(-865 415.003)"/>
</svg>
