<svg xmlns="http://www.w3.org/2000/svg" width="16" height="16">
    <path d="m 933.00019,-414.00336 c 3.86599,0 7,3.13401 7,7 0,3.86599 -3.13401,7 -7,7 -3.86599,0 -7,-3.13401 -7,-7 0,-3.86599 3.13401,-7 7,-7 z m -2.46875,3 c -0.73437,0 -1.46875,0.44603 -1.53125,1.3125 -0.125,1.73294 1.5,-0.33848 3,0 0,-0.86647 -0.73438,-1.3125 -1.46875,-1.3125 z m 4.9375,0 c -0.73437,0 -1.46875,0.44603 -1.46875,1.3125 1.5,-0.33848 3.125,1.73294 3,0 -0.0625,-0.86647 -0.79688,-1.3125 -1.53125,-1.3125 z m -2.46875,3 c -1.38071,0 -2.5,1.34315 -2.5,3 0,1.65685 1.11929,3 2.5,3 1.38071,0 2.5,-1.34315 2.5,-3 0,-1.65685 -1.11929,-3 -2.5,-3 z" style="marker:none" color="#bebebe" overflow="visible" fill="#4c5263" transform="translate(-925 415.003)"/>
</svg>
