<svg xmlns="http://www.w3.org/2000/svg" width="16" height="16">
    <g color="#bebebe" fill="#4c5263">
        <path d="M8 1a7 7 0 100 14A7 7 0 008 1zM5 5.002a1 1 0 110 2 1 1 0 010-2zm6 0a1 1 0 110 2 1 1 0 010-2zM4 7.5a1.5 1.5 0 110 3 1.5 1.5 0 010-3zm8 0a1.5 1.5 0 110 3 1.5 1.5 0 010-3zM6.5 12h3c.277 0 .5.188.5.438v.125c0 .25-.223.437-.5.437h-3c-.277 0-.5-.187-.5-.437v-.125c0-.25.223-.438.5-.438z" style="marker:none" overflow="visible"/>
        <path d="M4 7.5a1.5 1.5 0 100 3 1.5 1.5 0 000-3zm8 0a1.5 1.5 0 100 3 1.5 1.5 0 000-3z" style="marker:none" overflow="visible" opacity=".35"/>
    </g>
</svg>
