<svg xmlns="http://www.w3.org/2000/svg" width="16" height="16">
    <path d="m 773.0002,-394 c -2.02964,0 -3.84644,0.86996 -5.125,2.25 0.35167,-0.1447 0.72114,-0.25 1.125,-0.25 1.39107,0 2.53544,0.96568 2.875,2.25 0.35167,-0.1447 0.72114,-0.25 1.125,-0.25 0.40386,0 0.77333,0.1053 1.125,0.25 0.33956,-1.28432 1.48393,-2.25 2.875,-2.25 0.40386,0 0.77333,0.1053 1.125,0.25 -1.27856,-1.38004 -3.09536,-2.25 -5.125,-2.25 z m -4,3 c -1.10457,0 -2,0.89543 -2,2 0,1.10457 0.89543,2 2,2 1.10457,0 2,-0.89543 2,-2 0,0.55064 -0.44593,1 -1,1 -0.55424,0 -1,-0.44936 -1,-1 0,-0.55055 0.44576,-1 1,-1 0.55407,0 1,0.44945 1,1 0,-1.10457 -0.89543,-2 -2,-2 z m 8,0 c -1.10457,0 -2,0.89543 -2,2 0,-0.55055 0.44593,-1 1,-1 0.55415,0 1,0.44945 1,1 0,0.55064 -0.44585,1 -1,1 -0.55407,0 -1,-0.44936 -1,-1 0,1.10457 0.89543,2 2,2 1.10457,0 2,-0.89543 2,-2 0,-1.10457 -0.89543,-2 -2,-2 z m -4,2 c -0.37464,0 -0.73151,0.10201 -1.03125,0.28125 -0.14632,1.52032 -1.41006,2.71875 -2.96875,2.71875 -1.38071,0 -2.52573,-0.94901 -2.875,-2.21875 -0.0701,0.39743 -0.125,0.80122 -0.125,1.21875 0,3.86599 3.13401,7 7,7 3.86599,0 7,-3.13401 7,-7 0,-0.41753 -0.0549,-0.82132 -0.125,-1.21875 -0.34927,1.26974 -1.49429,2.21875 -2.875,2.21875 -1.55869,0 -2.82243,-1.19843 -2.96875,-2.71875 C 773.73171,-388.89799 773.37484,-389 773.0002,-389 Z m -2.82617,3.82617 c 0.74922,0.75042 1.76576,1.17283 2.82617,1.17383 1.06041,-10e-4 2.07695,-0.42341 2.82617,-1.17383 l 0.70703,0.70703 c -0.93673,0.93797 -2.20759,1.4658 -3.5332,1.4668 -1.32561,-10e-4 -2.59647,-0.52883 -3.5332,-1.4668 z" style="marker:none" color="#bebebe" overflow="visible" fill="#4c5263" transform="translate(-765 395.003)"/>
</svg>
