<svg xmlns="http://www.w3.org/2000/svg" width="16" height="16">
    <path d="M8 1a7 7 0 100 14A7 7 0 008 1zM5 5.002a1 1 0 110 2 1 1 0 010-2zm6 0a1 1 0 110 2 1 1 0 010-2zM12.104 6.9l.205.207.843.844c.272.272.452.636.452 1.048 0 .825-.676 1.5-1.5 1.5-.825 0-1.5-.675-1.5-1.5 0-.412.177-.776.449-1.048l.843-.844zM8 10.003a4.999 4.999 0 013.533 1.467l-.707.707A4 4 0 008 11.003a4 4 0 00-2.826 1.174l-.707-.707A5 5 0 018 10.003z" style="marker:none" color="#bebebe" overflow="visible" fill="#4c5263"/>
</svg>
