<svg xmlns="http://www.w3.org/2000/svg" width="16" height="16">
    <path d="m 873.0002,-434.00391 c -3.86599,0 -7,3.13401 -7,7 0,3.86599 3.13401,7 7,7 3.86599,0 7,-3.13401 7,-7 0,-3.86599 -3.13401,-7 -7,-7 z m -3,4.00391 c 0.55407,0 1,0.44945 1,1 0,0.55064 -0.44593,1 -1,1 -0.55424,0 -1,-0.44936 -1,-1 0,-0.55055 0.44576,-1 1,-1 z m 4.5,1 h 3 c 0.277,0 0.5,0.21909 0.5,0.49609 0,0.277 -0.223,0.5 -0.5,0.5 h -3 c -0.277,0 -0.5,-0.223 -0.5,-0.5 0,-0.277 0.223,-0.49609 0.5,-0.49609 z m -4.32617,3.82617 c 0.74922,0.75042 1.76576,1.17283 2.82617,1.17383 1.06041,-10e-4 2.07695,-0.42341 2.82617,-1.17383 l 0.70703,0.70703 c -0.93673,0.93797 -2.20759,1.4658 -3.5332,1.4668 -1.32561,-10e-4 -2.59647,-0.52883 -3.5332,-1.4668 z" style="marker:none" color="#bebebe" overflow="visible" fill="#4c5263" transform="translate(-865 435.003)"/>
</svg>
