<svg xmlns="http://www.w3.org/2000/svg" width="16" height="16">
    <path d="m 853.0002,-434.03516 c -3.86599,0 -7,3.13401 -7,7 0,3.86599 3.13401,7 7,7 3.86599,0 7,-3.13401 7,-7 0,-3.86599 -3.13401,-7 -7,-7 z m -3,4.03516 c 0.55407,0 1,0.44945 1,1 0,0.55064 -0.44593,1 -1,1 -0.55424,0 -1,-0.44936 -1,-1 0,-0.55055 0.44576,-1 1,-1 z m 6,0 c 0.55415,0 1,0.44945 1,1 0,0.55064 -0.44585,1 -1,1 -0.55407,0 -1,-0.44936 -1,-1 0,-0.55055 0.44593,-1 1,-1 z m -7.57617,5 h 9.15625 c -0.79488,1.8213 -2.59288,2.99901 -4.58008,3 -1.98579,-0.003 -3.78186,-1.18 -4.57617,-3 z" style="marker:none" color="#bebebe" overflow="visible" fill="#4c5263" transform="translate(-845 435.035)"/>
</svg>
