<?xml version="1.0" encoding="UTF-8" standalone="no"?>
<svg xmlns="http://www.w3.org/2000/svg" xmlns:sodipodi="http://sodipodi.sourceforge.net/DTD/sodipodi-0.dtd" xmlns:inkscape="http://www.inkscape.org/namespaces/inkscape" height="24" version="1.1" width="24" enable-background="new">
 <metadata id="metadata90"/>
 <defs id="defs7386">
  <linearGradient id="linearGradient5606" osb:paint="solid">
   <stop id="stop5608"/>
  </linearGradient>
 </defs>
 <g inkscape:groupmode="layer" id="layer9" inkscape:label="status" transform="translate(-360.96897,363)">
  <path d="m 373.00022,-357 c -3.03435,0 -5.76588,1.07815 -8.03125,2.75 l 8.03125,8.75 7.96875,-8.78125 C 378.71236,-355.93454 376.01127,-357 373.00022,-357 z m -3.03125,3 6,0 c 1.108,0 2,0.892 2,2 0,1.108 -0.892,2 -2,2 l -6,0 c -1.108,0 -2,-0.892 -2,-2 0,-1.108 0.892,-2 2,-2 z" id="path7627" inkscape:connector-curvature="0" opacity="0.35" fill="#ffffff" color="#000000"/>
  <path inkscape:connector-curvature="0" d="m 370.00022,-353 c -0.55228,0 -1,0.44772 -1,1 0,0.55228 0.44772,1 1,1 0.55228,0 1,-0.44772 1,-1 0,-0.55228 -0.44772,-1 -1,-1 z m 3,0 c -0.55228,0 -1,0.44772 -1,1 0,0.55228 0.44772,1 1,1 0.55228,0 1,-0.44772 1,-1 0,-0.55228 -0.44772,-1 -1,-1 z m 3,0 c -0.55228,0 -1,0.44772 -1,1 0,0.55228 0.44772,1 1,1 0.55228,0 1,-0.44772 1,-1 0,-0.55228 -0.44772,-1 -1,-1 z" id="path4955" fill="#ffffff"/>
 </g>
</svg>
