<?xml version="1.0" encoding="UTF-8" standalone="no"?>
<svg xmlns="http://www.w3.org/2000/svg" xmlns:sodipodi="http://sodipodi.sourceforge.net/DTD/sodipodi-0.dtd" xmlns:inkscape="http://www.inkscape.org/namespaces/inkscape" width="24" height="24" version="1.1">
 <metadata id="metadata3401"/>
 <g id="layer1" inkscape:label="Layer 1" inkscape:groupmode="layer" transform="translate(0,8)">
  <path d="m 13,-4 c -1,0 -1,1 -1,1 l 0,14 c 0,0 0,1 1,1 l 8,0 c 1,0 1,-1 1,-1 l 0,-14 c 0,0 0,-1 -1,-1 z m 0.9998,2.003359 6,0 0,11 -6,0 z" id="path23868" inkscape:connector-curvature="0" sodipodi:nodetypes="sccssccssscccs" fill="#ffffff"/>
  <path sodipodi:nodetypes="sscsssssssscsss" inkscape:connector-curvature="0" d="M 5.5,-4 C 5.223,-4 5,-3.777 5,-3.5 L 5,-3 3.5,-3 C 3.223,-3 3,-2.777 3,-2.5 l 0,14 C 3,11.777 3.223,12 3.5,12 l 6,0 C 9.777,12 10,11.777 10,11.5 l 0,-14 C 10,-2.777 9.777,-3 9.5,-3 L 8,-3 8,-3.5 C 8,-3.777 7.777,-4 7.5,-4 z" id="path3481" opacity="0.35" fill="#ffffff" stroke="#333333" stroke-linejoin="round" stroke-linecap="round" color="#bebebe" stroke-width="0"/>
  <path d="m 3,3 0,8.5 C 3,11.777 3.223,12 3.5,12 l 6,0 C 9.777,12 10,11.777 10,11.5 L 10,3 z" id="path2994" inkscape:connector-curvature="0" sodipodi:nodetypes="csssscc" fill="#ffffff" stroke="#333333" stroke-linejoin="round" stroke-linecap="round" color="#bebebe" stroke-width="0"/>
 </g>
</svg>
