<?xml version="1.0" encoding="UTF-8" standalone="no"?>
<!-- Created with Inkscape (http://www.inkscape.org/) -->

<svg
   xmlns:osb="http://www.openswatchbook.org/uri/2009/osb"
   xmlns:dc="http://purl.org/dc/elements/1.1/"
   xmlns:cc="http://creativecommons.org/ns#"
   xmlns:rdf="http://www.w3.org/1999/02/22-rdf-syntax-ns#"
   xmlns:svg="http://www.w3.org/2000/svg"
   xmlns="http://www.w3.org/2000/svg"
   xmlns:sodipodi="http://sodipodi.sourceforge.net/DTD/sodipodi-0.dtd"
   xmlns:inkscape="http://www.inkscape.org/namespaces/inkscape"
   inkscape:export-ydpi="90.000000"
   inkscape:export-xdpi="90.000000"
   width="736"
   height="544"
   id="svg11300"
   sodipodi:version="0.32"
   inkscape:version="0.91 r13725"
   sodipodi:docname="accessories-dictionary.svg"
   inkscape:output_extension="org.inkscape.output.svg.inkscape"
   version="1.0"
   style="display:inline;enable-background:new"
   inkscape:export-filename="/home/sam/paper-template.png">
  <title
     id="title3004">Paper Icon Theme</title>
  <sodipodi:namedview
     stroke="#ef2929"
     fill="#f57900"
     id="base"
     pagecolor="#484848"
     bordercolor="#666666"
     borderopacity="0.25490196"
     inkscape:pageopacity="0"
     inkscape:pageshadow="2"
     inkscape:zoom="1"
     inkscape:cx="267.23781"
     inkscape:cy="136.52771"
     inkscape:current-layer="layer6"
     showgrid="false"
     inkscape:grid-bbox="true"
     inkscape:document-units="px"
     inkscape:showpageshadow="false"
     inkscape:window-width="1920"
     inkscape:window-height="1023"
     inkscape:window-x="0"
     inkscape:window-y="27"
     width="400px"
     height="300px"
     inkscape:snap-nodes="true"
     inkscape:snap-bbox="true"
     gridtolerance="10000"
     inkscape:object-nodes="true"
     inkscape:snap-grids="true"
     showguides="true"
     inkscape:guide-bbox="true"
     inkscape:window-maximized="1"
     inkscape:snap-global="true"
     inkscape:snap-intersection-paths="true"
     inkscape:object-paths="true"
     inkscape:snap-smooth-nodes="true">
    <inkscape:grid
       spacingy="1px"
       spacingx="1px"
       id="grid5883"
       type="xygrid"
       enabled="true"
       visible="true"
       empspacing="4"
       snapvisiblegridlinesonly="true" />
    <inkscape:grid
       type="xygrid"
       id="grid11592"
       empspacing="2"
       visible="true"
       enabled="false"
       spacingx="0.5px"
       spacingy="0.5px"
       color="#ff0000"
       opacity="0.1254902"
       empcolor="#ff0000"
       empopacity="0.25098039"
       snapvisiblegridlinesonly="true" />
  </sodipodi:namedview>
  <defs
     id="defs3">
    <linearGradient
       osb:paint="solid"
       id="linearGradient5606">
      <stop
         style="stop-color:#000000;stop-opacity:1;"
         offset="0"
         id="stop5608" />
    </linearGradient>
    <clipPath
       clipPathUnits="userSpaceOnUse"
       id="clipPath4260">
      <path
         id="path4262"
         d="m 232,148 0,56 19,0 c 1.662,0 3,-1.338 3,-3 l 0,-50 c 0,-1.662 -1.338,-3 -3,-3 l -19,0 z"
         style="fill:#d8d8d8;fill-opacity:1;stroke:none"
         inkscape:connector-curvature="0" />
    </clipPath>
    <filter
       inkscape:collect="always"
       style="color-interpolation-filters:sRGB"
       id="filter4332"
       x="-0.027272727"
       width="1.0545455"
       y="-0.02142857"
       height="1.0428571">
      <feGaussianBlur
         inkscape:collect="always"
         stdDeviation="4"
         id="feGaussianBlur4334" />
    </filter>
    <filter
       inkscape:collect="always"
       style="color-interpolation-filters:sRGB"
       id="filter4338"
       x="-0.068000004"
       width="1.136"
       y="-0.014571429"
       height="1.0291429">
      <feGaussianBlur
         inkscape:collect="always"
         stdDeviation="1.36"
         id="feGaussianBlur4340" />
    </filter>
    <clipPath
       clipPathUnits="userSpaceOnUse"
       id="clipPath4419">
      <path
         inkscape:connector-curvature="0"
         id="path4421"
         d="m 168,240 0,40 14.02148,0 c 1.108,0 2,-0.892 2,-2 l 0,-36 c 0,-1.108 -0.892,-2 -2,-2 L 168,240 Z"
         style="fill:#d8d8d8;fill-opacity:1;stroke:none" />
    </clipPath>
    <filter
       inkscape:collect="always"
       style="color-interpolation-filters:sRGB"
       id="filter4201"
       x="-0.048020014"
       width="1.09604"
       y="-0.015997777"
       height="1.0319956">
      <feGaussianBlur
         inkscape:collect="always"
         stdDeviation="0.40016678"
         id="feGaussianBlur4203" />
    </filter>
  </defs>
  <metadata
     id="metadata4">
    <rdf:RDF>
      <cc:Work
         rdf:about="">
        <dc:format>image/svg+xml</dc:format>
        <dc:type
           rdf:resource="http://purl.org/dc/dcmitype/StillImage" />
        <dc:creator>
          <cc:Agent>
            <dc:title>Sam Hewitt</dc:title>
          </cc:Agent>
        </dc:creator>
        <dc:source />
        <cc:license
           rdf:resource="http://creativecommons.org/licenses/by-sa/3.0/" />
        <dc:title>Paper Icon Theme</dc:title>
        <dc:subject>
          <rdf:Bag />
        </dc:subject>
        <dc:date />
        <dc:rights>
          <cc:Agent>
            <dc:title />
          </cc:Agent>
        </dc:rights>
        <dc:publisher>
          <cc:Agent>
            <dc:title />
          </cc:Agent>
        </dc:publisher>
        <dc:identifier />
        <dc:relation />
        <dc:language />
        <dc:coverage />
        <dc:description />
        <dc:contributor>
          <cc:Agent>
            <dc:title />
          </cc:Agent>
        </dc:contributor>
      </cc:Work>
      <cc:Work
         rdf:about="">
        <dc:format>image/svg+xml</dc:format>
        <dc:type
           rdf:resource="http://purl.org/dc/dcmitype/StillImage" />
      </cc:Work>
    </rdf:RDF>
  </metadata>
  <g
     style="display:inline"
     inkscape:groupmode="layer"
     inkscape:label="Icon"
     id="layer1"
     transform="translate(0,244)">
    <g
       style="display:none"
       inkscape:label="Baseplate"
       id="layer7"
       inkscape:groupmode="layer">
      <text
         y="332.48523"
         xml:space="preserve"
         x="15.006836"
         style="font-style:normal;font-variant:normal;font-weight:normal;font-stretch:normal;font-size:18px;font-family:'DejaVu Sans';-inkscape-font-specification:'DejaVu Sans';display:inline;fill:#000000;fill-opacity:1;stroke:none;enable-background:new"
         inkscape:label="context"
         id="context"><tspan
           style="font-style:normal;font-variant:normal;font-weight:normal;font-stretch:normal;font-family:'DejaVu Sans';-inkscape-font-specification:'DejaVu Sans'"
           y="332.48523"
           x="15.006836"
           sodipodi:role="line"
           id="tspan3933">apps</tspan></text>
      <text
         y="332.48523"
         xml:space="preserve"
         x="142.48828"
         style="font-style:normal;font-variant:normal;font-weight:bold;font-stretch:normal;font-size:18px;line-height:125%;font-family:'DejaVu Sans';-inkscape-font-specification:'DejaVu Sans Bold';text-align:start;writing-mode:lr-tb;text-anchor:start;display:inline;fill:#000000;fill-opacity:1;stroke:none;enable-background:new"
         sodipodi:linespacing="125%"
         inkscape:label="icon-name"
         id="icon-name"><tspan
           style="font-style:normal;font-variant:normal;font-weight:bold;font-stretch:normal;font-size:18px;font-family:'DejaVu Sans';-inkscape-font-specification:'DejaVu Sans Bold'"
           y="332.48523"
           x="142.48828"
           sodipodi:role="line"
           id="tspan3937">accessories-dictionary</tspan></text>
      <rect
         style="display:inline;overflow:visible;visibility:visible;fill:#e9e9e9;fill-opacity:1;fill-rule:nonzero;stroke:none;stroke-width:2;marker:none;enable-background:accumulate"
         id="rect16x16"
         width="16"
         height="16"
         x="-32"
         y="268"
         inkscape:label="16x16"
         transform="scale(-1,1)" />
      <rect
         style="display:inline;overflow:visible;visibility:visible;fill:#e9e9e9;fill-opacity:1;fill-rule:nonzero;stroke:none;stroke-width:2;marker:none;enable-background:accumulate"
         id="rect24x24"
         width="24"
         height="24"
         x="-76"
         y="260"
         inkscape:label="24x24"
         transform="scale(-1,1)" />
      <rect
         style="display:inline;overflow:visible;visibility:visible;fill:#e9e9e9;fill-opacity:1;fill-rule:nonzero;stroke:none;stroke-width:2;marker:none;enable-background:accumulate"
         id="rect32x32"
         width="32"
         height="32"
         x="-128"
         y="252"
         inkscape:label="32x32"
         transform="scale(-1,1)" />
      <rect
         inkscape:label="48x48"
         y="236"
         x="-192"
         height="48"
         width="48"
         id="rect48x48"
         style="display:inline;overflow:visible;visibility:visible;fill:#e9e9e9;fill-opacity:1;fill-rule:nonzero;stroke:none;stroke-width:2;marker:none;enable-background:accumulate"
         transform="scale(-1,1)" />
      <rect
         style="display:inline;overflow:visible;visibility:visible;fill:#e9e9e9;fill-opacity:1;fill-rule:nonzero;stroke:none;stroke-width:2;marker:none;enable-background:accumulate"
         id="rect3951"
         width="512"
         height="512"
         x="-720"
         y="-228"
         inkscape:label="48x48"
         transform="scale(-1,1)" />
    </g>
    <g
       inkscape:groupmode="layer"
       id="layer6"
       inkscape:label="Symbols"
       style="display:inline">
      <path
         style="opacity:0.2;fill:#000000;fill-opacity:1;stroke:none;filter:url(#filter4332)"
         d="M 602.44531 35.867188 C 601.64088 35.859502 600.82531 35.902905 600 36 L 464 52 L 312 52 C 298.704 52 288 62.704 288 76 L 288 476 C 288 489.296 298.704 500 312 500 L 464 500 L 600 516 C 610.84119 517.27543 620.05155 509.23953 623.00391 498.96484 C 632.86148 495.98104 640 486.85698 640 476 L 640 76 C 640 65.143016 632.86148 56.018957 623.00391 53.035156 C 620.27631 43.542658 612.20786 35.960457 602.44531 35.867188 z "
         transform="translate(0,-244)"
         id="path4281" />
      <rect
         style="opacity:0.2;fill:#000000;fill-opacity:1;stroke:none;stroke-width:8;stroke-linecap:round;stroke-linejoin:miter;stroke-miterlimit:4;stroke-dasharray:none;stroke-opacity:1"
         id="rect4489"
         width="18"
         height="22"
         x="55"
         y="262"
         rx="1"
         ry="1" />
      <rect
         style="opacity:1;fill:#e6e6e6;fill-opacity:1;stroke:none;stroke-width:8;stroke-linecap:round;stroke-linejoin:miter;stroke-miterlimit:4;stroke-dasharray:none;stroke-opacity:1"
         id="rect4480"
         width="18"
         height="22"
         x="-73"
         y="261"
         rx="1"
         ry="1"
         transform="scale(-1,1)" />
      <rect
         transform="matrix(0,-1,-1,0,0,0)"
         style="fill:#000000;fill-opacity:1;stroke:none;opacity:0.2"
         id="rect4460"
         width="28"
         height="22"
         x="-283"
         y="-123"
         rx="1.5"
         ry="1.5" />
      <path
         style="fill:#c9c9c9;fill-opacity:1;stroke:none"
         d="M 112 498 L 112 526 L 121.5 526 C 122.331 526 123 525.331 123 524.5 L 123 499.5 C 123 498.669 122.331 498 121.5 498 L 112 498 z "
         id="rect4255"
         transform="translate(0,-244)" />
      <path
         style="opacity:0.2;fill:#000000;fill-opacity:1;stroke:none"
         d="m 154.02148,241 c -1.108,0 -2,0.892 -2,2 l 0,36 c 0,1.108 0.892,2 2,2 L 168,281 l 14.02148,0 c 1.108,0 2,-0.892 2,-2 l 0,-36 c 0,-1.108 -0.892,-2 -2,-2 L 168,241 l -13.97852,0 z"
         id="path4410"
         inkscape:connector-curvature="0" />
      <path
         style="opacity:0.1;fill:#000000;fill-opacity:1;stroke:#000000;stroke-width:8;stroke-miterlimit:4;stroke-dasharray:none;stroke-opacity:1;filter:url(#filter4332)"
         d="M 602.44531 35.867188 C 601.64088 35.859502 600.82531 35.902905 600 36 L 464 52 L 312 52 C 298.704 52 288 62.704 288 76 L 288 476 C 288 489.296 298.704 500 312 500 L 464 500 L 600 516 C 610.84119 517.27543 620.05155 509.23953 623.00391 498.96484 C 632.86148 495.98104 640 486.85698 640 476 L 640 76 C 640 65.143016 632.86148 56.018957 623.00391 53.035156 C 620.27631 43.542658 612.20786 35.960457 602.44531 35.867188 z "
         transform="translate(0,-244)"
         id="path4336" />
      <path
         style="display:inline;fill:#e6e6e6;fill-opacity:1;stroke:none;enable-background:new"
         d="M 19 512 C 18.446 512 18 512.446 18 513 L 18 527 C 18 527.554 18.446 528 19 528 L 24 528 L 24 512 L 19 512 z "
         transform="translate(0,-244)"
         id="rect4265" />
      <path
         sodipodi:nodetypes="ssssccs"
         inkscape:connector-curvature="0"
         id="path8375"
         d="m 154.02098,240 c -1.108,0 -2,0.892 -2,2 l 0,36 c 0,1.108 0.892,2 2,2 L 168,280 l 0,-40 z"
         style="opacity:1;fill:#e6e6e6;fill-opacity:1;stroke:none" />
      <path
         inkscape:connector-curvature="0"
         style="fill:#e6e6e6;fill-opacity:1;stroke:none"
         d="m 312,-196 c -13.296,0 -24,10.704 -24,24 l 0,400 c 0,13.296 10.704,24 24,24 l 152,0 0,-448 -152,0 z"
         id="rect4239" />
      <path
         inkscape:connector-curvature="0"
         style="fill:#e6e6e6;fill-opacity:1;stroke:none"
         d="m 464,-196 0,448 152,0 c 13.296,0 24,-10.704 24,-24 l 0,-400 c 0,-13.296 -10.704,-24 -24,-24 l -152,0 z"
         id="rect4229" />
      <path
         sodipodi:nodetypes="ccssssc"
         inkscape:connector-curvature="0"
         id="path4247"
         transform="matrix(8,0,0,8,-1392,-1380)"
         d="m 232,148 0,56 17,2 c 1.65062,0.19419 3,-1.338 3,-3 l 0,-54 c 0,-1.662 -1.34938,-3.19419 -3,-3 z"
         style="opacity:0.2;fill:#000000;fill-opacity:1;stroke:none;filter:url(#filter4201)"
         clip-path="url(#clipPath4260)" />
      <path
         style="opacity:0.5;fill:#ffffff;fill-opacity:1;stroke:none"
         d="m 312,-272 c -13.296,0 -24,10.704 -24,24 l 0,2 c 0,-13.296 10.704,-24 24,-24 l 152,0 152,0 c 13.296,0 24,10.704 24,24 l 0,-2 c 0,-13.296 -10.704,-24 -24,-24 l -152,0 -152,0 z"
         transform="translate(0,76)"
         id="path4286"
         inkscape:connector-curvature="0" />
      <path
         style="fill:#f9f9f9;fill-opacity:1;stroke:none"
         d="m 464,-196 0,448 136,16 c 13.20496,1.55352 24,-10.704 24,-24 l 0,-432 c 0,-13.296 -10.79504,-25.55352 -24,-24 z"
         id="rect4230"
         inkscape:connector-curvature="0"
         sodipodi:nodetypes="ccssssc" />
      <path
         sodipodi:nodetypes="cccccccc"
         inkscape:connector-curvature="0"
         id="path4304"
         d="m 424,-200 c -8,0 -8,8 -8,8 l 0,216 24,-16 24,16 0,-216 c 0,-8 -8,-8 -8,-8 z"
         style="display:inline;opacity:0.2;fill:#000000;fill-opacity:1;stroke:none;filter:url(#filter4338);enable-background:new" />
      <path
         style="display:inline;fill:#f44336;fill-opacity:1;stroke:none;enable-background:new"
         d="m 424,-212 c -8,0 -8,8 -8,8 l 0,224 24,-16 24,16 0,-224 c 0,-8 -8,-8 -8,-8 z"
         id="path4264"
         inkscape:connector-curvature="0"
         sodipodi:nodetypes="cccccccc" />
      <path
         style="opacity:0.8;fill:#ffffff;fill-opacity:1;stroke:none"
         d="m 602.44531,-288.13281 c -0.80443,-0.008 -1.62,0.0357 -2.44531,0.13281 l -136,16 0,2 136,-16 c 13.20496,-1.55352 24,10.704 24,24 l 0,-2 c 0,-12.465 -9.48816,-24.01753 -21.55469,-24.13281 z"
         transform="translate(0,76)"
         id="path4294"
         inkscape:connector-curvature="0" />
      <path
         style="display:inline;opacity:0.1;fill:#ffffff;fill-opacity:1;stroke:none;enable-background:new"
         d="m 424,-288 c -8,0 -8,8 -8,8 l 0,2 c 0,0 0,-8 8,-8 l 32,0 c 0,0 8,0 8,8 l 0,-2 c 0,-8 -8,-8 -8,-8 z"
         transform="translate(0,76)"
         id="path4299"
         inkscape:connector-curvature="0"
         sodipodi:nodetypes="sccsccscs" />
      <path
         inkscape:connector-curvature="0"
         id="rect4203"
         d="m 168,240 0,40 14.02148,0 c 1.108,0 2,-0.892 2,-2 l 0,-36 c 0,-1.108 -0.892,-2 -2,-2 L 168,240 Z"
         style="fill:#e6e6e6;fill-opacity:1;stroke:none" />
      <path
         style="fill:#e6e6e6;fill-opacity:1;stroke:none"
         d="m 168,240 0,40 14.02148,0 c 1.108,0 2,-0.892 2,-2 l 0,-36 c 0,-1.108 -0.892,-2 -2,-2 L 168,240 Z"
         id="path4355"
         inkscape:connector-curvature="0" />
      <path
         sodipodi:nodetypes="ccssssc"
         style="opacity:0.1;fill:#000000;fill-opacity:1;stroke:none"
         d="m 169,240 0,40 12.02148,2 c 1.09298,0.18184 2,-0.892 2,-2 l 0,-40 c 0,-1.108 -0.90702,-2.18184 -2,-2 z"
         id="path4415"
         inkscape:connector-curvature="0"
         clip-path="url(#clipPath4419)" />
      <path
         style="opacity:0.4;fill:#ffffff;fill-opacity:1;stroke:none"
         d="M 154.02148 484 C 152.91348 484 152.02148 484.892 152.02148 486 L 152.02148 487 C 152.02148 485.892 152.91348 485 154.02148 485 L 168 485 L 182.02148 485 C 183.12948 485 184.02148 485.892 184.02148 487 L 184.02148 486 C 184.02148 484.892 183.12948 484 182.02148 484 L 168 484 L 154.02148 484 z "
         transform="translate(0,-244)"
         id="path4374" />
      <path
         sodipodi:nodetypes="cccccccc"
         inkscape:connector-curvature="0"
         id="path4452"
         d="m 164,240 c -1,0 -1,1 -1,1 l 0,16.5 2.5,-1.5 2.5,1.5 0,-16.5 c 0,-1 -1,-1 -1,-1 z"
         style="display:inline;opacity:0.2;fill:#000000;fill-opacity:1;stroke:none;enable-background:new" />
      <path
         style="display:inline;fill:#f44336;fill-opacity:1;stroke:none;enable-background:new"
         d="m 164,239 c -1,0 -1,1 -1,1 l 0,16.5 2.5,-1.5 2.5,1.5 0,-16.5 c 0,-1 -1,-1 -1,-1 z"
         id="path5078-2"
         inkscape:connector-curvature="0"
         sodipodi:nodetypes="cccccccc" />
      <path
         inkscape:connector-curvature="0"
         style="display:inline;opacity:0.1;fill:#ffffff;fill-opacity:1;stroke:none;enable-background:new"
         d="m 164,239 c -1,0 -1,1 -1,1 l 0,1 c 0,0 0,-1 1,-1 l 3,0 c 0,0 1,0 1,1 l 0,-1 c 0,-1 -1,-1 -1,-1 l -3,0 z"
         id="path4447" />
      <path
         inkscape:connector-curvature="0"
         id="path4372"
         d="m 168,240 0,40 12.02148,2 c 1.09298,0.18184 2,-0.892 2,-2 l 0,-40 c 0,-1.108 -0.90702,-2.18184 -2,-2 z"
         style="fill:#f9f9f9;fill-opacity:1;stroke:none"
         sodipodi:nodetypes="ccssssc" />
      <path
         style="fill:#ffffff;fill-opacity:1;stroke:none;opacity:0.5"
         d="M 180.42188 481.98828 C 180.29247 481.97416 180.15811 481.97727 180.02148 482 L 168 484 L 168 485 L 180.02148 483 C 181.11446 482.81816 182.02148 483.892 182.02148 485 L 182.02148 484 C 182.02148 483.0305 181.3277 482.08715 180.42188 481.98828 z "
         transform="translate(0,-244)"
         id="path4405" />
      <path
         style="fill:#e6e6e6;fill-opacity:1;stroke:none"
         d="m 102.5,498 c -0.831,0 -1.5,0.669 -1.5,1.5 l 0,25 c 0,0.831 0.669,1.5 1.5,1.5 l 9.5,0 0,-28 z"
         id="rect4423"
         transform="translate(0,-244)"
         inkscape:connector-curvature="0"
         sodipodi:nodetypes="ssssccs" />
      <path
         style="display:inline;fill:#ebebeb;fill-opacity:1;stroke:none;enable-background:new"
         d="m 24,512 0,16 5,0 c 0.554,0 1,-0.446 1,-1 l 0,-14 c 0,-0.554 -0.446,-1 -1,-1 z"
         transform="translate(0,-244)"
         id="rect4425"
         inkscape:connector-curvature="0"
         sodipodi:nodetypes="ccssssc" />
      <path
         sodipodi:nodetypes="cccccc"
         inkscape:connector-curvature="0"
         id="path4433"
         d="m 22,268 0,7 1,0 1,0 0,-7 z"
         style="display:inline;fill:#f44336;fill-opacity:1;stroke:none;enable-background:new" />
      <path
         style="display:inline;fill:#ffffff;fill-opacity:1;stroke:none;enable-background:new;opacity:0.2"
         d="M 19 512 C 18.446 512 18 512.446 18 513 L 18 514 C 18 513.446 18.446 513 19 513 L 24 513 L 29 513 C 29.554 513 30 513.446 30 514 L 30 513 C 30 512.446 29.554 512 29 512 L 24 512 L 19 512 z "
         transform="translate(0,-244)"
         id="path4435" />
      <path
         style="fill:#ffffff;fill-opacity:1;stroke:none;opacity:0.4"
         d="M 102.5 498 C 101.669 498 101 498.669 101 499.5 L 101 500.5 C 101 499.669 101.669 499 102.5 499 L 121.5 499 C 122.331 499 123 499.669 123 500.5 L 123 499.5 C 123 498.669 122.331 498 121.5 498 L 102.5 498 z "
         transform="translate(0,-244)"
         id="rect4448" />
      <path
         sodipodi:nodetypes="cccccccc"
         inkscape:connector-curvature="0"
         id="path4471"
         d="m 108.8,253 c -0.8,0 -0.8,0.8 -0.8,0.8 l 0,14.2 2,-2 2,2 0,-14.2 c 0,-0.8 -0.8,-0.8 -0.8,-0.8 z"
         style="display:inline;fill:#f44336;fill-opacity:1;stroke:none;enable-background:new" />
      <path
         style="fill:#f9f9f9;fill-opacity:1;stroke:none"
         d="m 112,498 0,28 8.5,1 c 0.82531,0.0971 1.5,-0.669 1.5,-1.5 l 0,-27 c 0,-0.831 -0.67469,-1.5971 -1.5,-1.5 z"
         id="rect4443"
         inkscape:connector-curvature="0"
         sodipodi:nodetypes="ccssssc"
         transform="translate(0,-244)" />
      <path
         style="fill:#ffffff;fill-opacity:1;stroke:none;opacity:0.5"
         d="M 120.5 497 L 112 498 L 112 499 L 120.5 498 C 121.32531 497.9029 122 498.669 122 499.5 L 122 498.5 C 122 497.669 121.32531 496.9029 120.5 497 z "
         transform="translate(0,-244)"
         id="path4453" />
      <path
         style="display:inline;fill:#ffffff;fill-opacity:1;stroke:none;enable-background:new;opacity:0.1"
         d="M 108.80078 497 C 108.00078 497 108 497.80078 108 497.80078 L 108 498.80078 C 108 498.80078 108.00078 498 108.80078 498 L 111.19922 498 C 111.19922 498 112 498.00078 112 498.80078 L 112 497.80078 C 112 497.00078 111.19922 497 111.19922 497 L 108.80078 497 z "
         transform="translate(0,-244)"
         id="path4473" />
      <rect
         ry="1"
         rx="1"
         y="261"
         x="55"
         height="22"
         width="18"
         id="rect4482"
         style="opacity:1;fill:#e6e6e6;fill-opacity:1;stroke:none;stroke-width:8;stroke-linecap:round;stroke-linejoin:miter;stroke-miterlimit:4;stroke-dasharray:none;stroke-opacity:1" />
      <path
         style="opacity:0.4;fill:#ffffff;fill-opacity:1;stroke:none;stroke-width:8;stroke-linecap:round;stroke-linejoin:miter;stroke-miterlimit:4;stroke-dasharray:none;stroke-opacity:1"
         d="M 56 505 C 55.446 505 55 505.446 55 506 L 55 507 C 55 506.446 55.446 506 56 506 L 72 506 C 72.554 506 73 506.446 73 507 L 73 506 C 73 505.446 72.554 505 72 505 L 56 505 z "
         transform="translate(0,-244)"
         id="rect4491" />
      <path
         style="opacity:1;fill:#f9f9f9;fill-opacity:1;stroke:none;stroke-width:8;stroke-linecap:round;stroke-linejoin:miter;stroke-miterlimit:4;stroke-dasharray:none;stroke-opacity:1"
         d="m 64,505 0,22 7,1 c 0.548432,0.0784 1,-0.446 1,-1 l 0,-22 c 0,-0.554 -0.451568,-1.07835 -1,-1 z"
         transform="translate(0,-244)"
         id="rect4486"
         inkscape:connector-curvature="0"
         sodipodi:nodetypes="ccssssc" />
      <path
         style="opacity:0.5;fill:#ffffff;fill-opacity:1;stroke:none;stroke-width:8;stroke-linecap:round;stroke-linejoin:miter;stroke-miterlimit:4;stroke-dasharray:none;stroke-opacity:1"
         d="M 71.201172 503.99805 C 71.136338 503.99013 71.068554 503.99021 71 504 L 64 505 L 64 506 L 71 505 C 71.548432 504.92165 72 505.446 72 506 L 72 505 C 72 504.51525 71.655011 504.0535 71.201172 503.99805 z "
         transform="translate(0,-244)"
         id="path4498" />
      <path
         style="display:inline;fill:#f44336;fill-opacity:1;stroke:none;enable-background:new"
         d="m 61,260 0,12 1,-1 1,0 1,1 0,-12 z"
         id="path4505"
         inkscape:connector-curvature="0"
         sodipodi:nodetypes="ccccccc" />
      <path
         style="display:inline;fill:#ffffff;fill-opacity:1;stroke:none;enable-background:new;opacity:0.1"
         d="M 61 504 L 61 505 L 64 505 L 64 504 L 61 504 z "
         transform="translate(0,-244)"
         id="path4507" />
    </g>
  </g>
</svg>
