<?xml version="1.0" encoding="UTF-8" standalone="no"?>
<!-- Created with Inkscape (http://www.inkscape.org/) -->

<svg
   xmlns:dc="http://purl.org/dc/elements/1.1/"
   xmlns:cc="http://creativecommons.org/ns#"
   xmlns:rdf="http://www.w3.org/1999/02/22-rdf-syntax-ns#"
   xmlns:svg="http://www.w3.org/2000/svg"
   xmlns="http://www.w3.org/2000/svg"
   xmlns:sodipodi="http://sodipodi.sourceforge.net/DTD/sodipodi-0.dtd"
   xmlns:inkscape="http://www.inkscape.org/namespaces/inkscape"
   inkscape:export-ydpi="90.000000"
   inkscape:export-xdpi="90.000000"
   width="736"
   height="544"
   id="svg11300"
   sodipodi:version="0.32"
   inkscape:version="0.91 r13725"
   sodipodi:docname="accessories-paint.svg"
   inkscape:output_extension="org.inkscape.output.svg.inkscape"
   version="1.0"
   style="display:inline;enable-background:new"
   inkscape:export-filename="/home/sam/paper-template.png">
  <title
     id="title3004">Paper Icon Theme Template</title>
  <sodipodi:namedview
     stroke="#ef2929"
     fill="#f57900"
     id="base"
     pagecolor="#ffffff"
     bordercolor="#666666"
     borderopacity="0.25490196"
     inkscape:pageopacity="0"
     inkscape:pageshadow="2"
     inkscape:zoom="1"
     inkscape:cx="-56.77705"
     inkscape:cy="19.088568"
     inkscape:current-layer="g4181"
     showgrid="false"
     inkscape:grid-bbox="true"
     inkscape:document-units="px"
     inkscape:showpageshadow="false"
     inkscape:window-width="1366"
     inkscape:window-height="704"
     inkscape:window-x="0"
     inkscape:window-y="27"
     width="400px"
     height="300px"
     inkscape:snap-nodes="true"
     inkscape:snap-bbox="true"
     gridtolerance="10000"
     inkscape:object-nodes="true"
     inkscape:snap-grids="true"
     showguides="true"
     inkscape:guide-bbox="true"
     inkscape:window-maximized="1"
     inkscape:bbox-paths="true"
     inkscape:snap-bbox-midpoints="true"
     inkscape:snap-global="true"
     inkscape:object-paths="true"
     inkscape:snap-intersection-paths="true"
     inkscape:snap-smooth-nodes="true">
    <inkscape:grid
       spacingy="1px"
       spacingx="1px"
       id="grid5883"
       type="xygrid"
       enabled="true"
       visible="true"
       empspacing="4"
       snapvisiblegridlinesonly="true" />
    <inkscape:grid
       type="xygrid"
       id="grid11592"
       empspacing="2"
       visible="true"
       enabled="false"
       spacingx="0.5px"
       spacingy="0.5px"
       color="#ff0000"
       opacity="0.1254902"
       empcolor="#ff0000"
       empopacity="0.25098039"
       snapvisiblegridlinesonly="true" />
  </sodipodi:namedview>
  <defs
     id="defs3">
    <filter
       inkscape:collect="always"
       style="color-interpolation-filters:sRGB"
       id="filter4271"
       x="-0.024"
       width="1.048"
       y="-0.024"
       height="1.048">
      <feGaussianBlur
         inkscape:collect="always"
         stdDeviation="4.48"
         id="feGaussianBlur4273" />
    </filter>
  </defs>
  <metadata
     id="metadata4">
    <rdf:RDF>
      <cc:Work
         rdf:about="">
        <dc:format>image/svg+xml</dc:format>
        <dc:type
           rdf:resource="http://purl.org/dc/dcmitype/StillImage" />
        <dc:creator>
          <cc:Agent>
            <dc:title>Sam Hewitt</dc:title>
          </cc:Agent>
        </dc:creator>
        <dc:source />
        <cc:license
           rdf:resource="http://creativecommons.org/licenses/by-sa/3.0/" />
        <dc:title>Paper Icon Theme Template</dc:title>
        <dc:subject>
          <rdf:Bag />
        </dc:subject>
        <dc:date />
        <dc:rights>
          <cc:Agent>
            <dc:title />
          </cc:Agent>
        </dc:rights>
        <dc:publisher>
          <cc:Agent>
            <dc:title />
          </cc:Agent>
        </dc:publisher>
        <dc:identifier />
        <dc:relation />
        <dc:language />
        <dc:coverage />
        <dc:description />
        <dc:contributor>
          <cc:Agent>
            <dc:title />
          </cc:Agent>
        </dc:contributor>
      </cc:Work>
      <cc:Work
         rdf:about="">
        <dc:format>image/svg+xml</dc:format>
        <dc:type
           rdf:resource="http://purl.org/dc/dcmitype/StillImage" />
      </cc:Work>
      <cc:License
         rdf:about="http://creativecommons.org/licenses/by-sa/3.0/">
        <cc:permits
           rdf:resource="http://creativecommons.org/ns#Reproduction" />
        <cc:permits
           rdf:resource="http://creativecommons.org/ns#Distribution" />
        <cc:requires
           rdf:resource="http://creativecommons.org/ns#Notice" />
        <cc:requires
           rdf:resource="http://creativecommons.org/ns#Attribution" />
        <cc:permits
           rdf:resource="http://creativecommons.org/ns#DerivativeWorks" />
        <cc:requires
           rdf:resource="http://creativecommons.org/ns#ShareAlike" />
      </cc:License>
    </rdf:RDF>
  </metadata>
  <g
     style="display:inline"
     inkscape:groupmode="layer"
     inkscape:label="Icon"
     id="layer1"
     transform="translate(0,244)">
    <g
       style="display:none"
       inkscape:label="Baseplate (accessories-paint)"
       id="layer7"
       inkscape:groupmode="layer">
      <text
         y="337.74512"
         xml:space="preserve"
         x="15.006836"
         style="font-style:normal;font-variant:normal;font-weight:normal;font-stretch:normal;font-size:18px;font-family:'DejaVu Sans';-inkscape-font-specification:'DejaVu Sans';display:inline;fill:#000000;fill-opacity:1;stroke:none;enable-background:new"
         inkscape:label="context"
         id="context"><tspan
           style="font-style:normal;font-variant:normal;font-weight:normal;font-stretch:normal;font-family:'DejaVu Sans';-inkscape-font-specification:'DejaVu Sans'"
           y="337.74512"
           x="15.006836"
           sodipodi:role="line"
           id="tspan3933">apps</tspan></text>
      <text
         y="337.74512"
         xml:space="preserve"
         x="142.48828"
         style="font-style:normal;font-variant:normal;font-weight:bold;font-stretch:normal;font-size:18px;line-height:125%;font-family:'DejaVu Sans';-inkscape-font-specification:'DejaVu Sans Bold';text-align:start;writing-mode:lr-tb;text-anchor:start;display:inline;fill:#000000;fill-opacity:1;stroke:none;enable-background:new"
         sodipodi:linespacing="125%"
         inkscape:label="icon-name"
         id="icon-name"><tspan
           style="font-style:normal;font-variant:normal;font-weight:bold;font-stretch:normal;font-size:18px;font-family:'DejaVu Sans';-inkscape-font-specification:'DejaVu Sans Bold'"
           y="337.74512"
           x="142.48828"
           sodipodi:role="line"
           id="tspan3937">accessories-paint</tspan></text>
      <rect
         style="display:inline;overflow:visible;visibility:visible;fill:#e9e9e9;fill-opacity:1;fill-rule:nonzero;stroke:none;stroke-width:2;marker:none;enable-background:accumulate"
         id="rect16x16"
         width="16"
         height="16"
         x="-32"
         y="268"
         inkscape:label="16x16"
         transform="scale(-1,1)" />
      <rect
         style="display:inline;overflow:visible;visibility:visible;fill:#e9e9e9;fill-opacity:1;fill-rule:nonzero;stroke:none;stroke-width:2;marker:none;enable-background:accumulate"
         id="rect24x24"
         width="24"
         height="24"
         x="-76"
         y="260"
         inkscape:label="24x24"
         transform="scale(-1,1)" />
      <rect
         style="display:inline;overflow:visible;visibility:visible;fill:#e9e9e9;fill-opacity:1;fill-rule:nonzero;stroke:none;stroke-width:2;marker:none;enable-background:accumulate"
         id="rect32x32"
         width="32"
         height="32"
         x="-128"
         y="252"
         inkscape:label="32x32"
         transform="scale(-1,1)" />
      <rect
         inkscape:label="48x48"
         y="236"
         x="-192"
         height="48"
         width="48"
         id="rect48x48"
         style="display:inline;overflow:visible;visibility:visible;fill:#e9e9e9;fill-opacity:1;fill-rule:nonzero;stroke:none;stroke-width:2;marker:none;enable-background:accumulate"
         transform="scale(-1,1)" />
      <rect
         style="display:inline;overflow:visible;visibility:visible;fill:#e9e9e9;fill-opacity:1;fill-rule:nonzero;stroke:none;stroke-width:2;marker:none;enable-background:accumulate"
         id="rect3951"
         width="512"
         height="512"
         x="-720"
         y="-228"
         inkscape:label="48x48"
         transform="scale(-1,1)" />
    </g>
    <g
       inkscape:groupmode="layer"
       id="g4181"
       inkscape:label="Baseplate (applications-graphics)"
       style="display:none">
      <text
         id="text4183"
         inkscape:label="context"
         style="font-style:normal;font-variant:normal;font-weight:normal;font-stretch:normal;font-size:18px;font-family:'DejaVu Sans';-inkscape-font-specification:'DejaVu Sans';display:inline;fill:#000000;fill-opacity:1;stroke:none;enable-background:new"
         x="15.006836"
         xml:space="preserve"
         y="337.74512"><tspan
           id="tspan4185"
           sodipodi:role="line"
           x="15.006836"
           y="337.74512"
           style="font-style:normal;font-variant:normal;font-weight:normal;font-stretch:normal;font-family:'DejaVu Sans';-inkscape-font-specification:'DejaVu Sans'">categories</tspan></text>
      <text
         id="text4187"
         inkscape:label="icon-name"
         sodipodi:linespacing="125%"
         style="font-style:normal;font-variant:normal;font-weight:bold;font-stretch:normal;font-size:18px;line-height:125%;font-family:'DejaVu Sans';-inkscape-font-specification:'DejaVu Sans Bold';text-align:start;writing-mode:lr-tb;text-anchor:start;display:inline;fill:#000000;fill-opacity:1;stroke:none;enable-background:new"
         x="142.48828"
         xml:space="preserve"
         y="337.74512"><tspan
           id="tspan4189"
           sodipodi:role="line"
           x="142.48828"
           y="337.74512"
           style="font-style:normal;font-variant:normal;font-weight:bold;font-stretch:normal;font-size:18px;font-family:'DejaVu Sans';-inkscape-font-specification:'DejaVu Sans Bold'">applications-graphics</tspan></text>
      <rect
         transform="scale(-1,1)"
         inkscape:label="16x16"
         y="268"
         x="-32"
         height="16"
         width="16"
         id="rect4191"
         style="display:inline;overflow:visible;visibility:visible;fill:#e9e9e9;fill-opacity:1;fill-rule:nonzero;stroke:none;stroke-width:2;marker:none;enable-background:accumulate" />
      <rect
         transform="scale(-1,1)"
         inkscape:label="24x24"
         y="260"
         x="-76"
         height="24"
         width="24"
         id="rect4193"
         style="display:inline;overflow:visible;visibility:visible;fill:#e9e9e9;fill-opacity:1;fill-rule:nonzero;stroke:none;stroke-width:2;marker:none;enable-background:accumulate" />
      <rect
         transform="scale(-1,1)"
         inkscape:label="32x32"
         y="252"
         x="-128"
         height="32"
         width="32"
         id="rect4195"
         style="display:inline;overflow:visible;visibility:visible;fill:#e9e9e9;fill-opacity:1;fill-rule:nonzero;stroke:none;stroke-width:2;marker:none;enable-background:accumulate" />
      <rect
         transform="scale(-1,1)"
         style="display:inline;overflow:visible;visibility:visible;fill:#e9e9e9;fill-opacity:1;fill-rule:nonzero;stroke:none;stroke-width:2;marker:none;enable-background:accumulate"
         id="rect4197"
         width="48"
         height="48"
         x="-192"
         y="236"
         inkscape:label="48x48" />
      <rect
         transform="scale(-1,1)"
         inkscape:label="48x48"
         y="-228"
         x="-720"
         height="512"
         width="512"
         id="rect4199"
         style="display:inline;overflow:visible;visibility:visible;fill:#e9e9e9;fill-opacity:1;fill-rule:nonzero;stroke:none;stroke-width:2;marker:none;enable-background:accumulate" />
    </g>
    <g
       inkscape:groupmode="layer"
       id="layer6"
       inkscape:label="Symbols"
       style="display:inline">
      <path
         inkscape:connector-curvature="0"
         d="m 112,255 c -7.73111,0 -14,6.26889 -14,14 0,7.73111 6.26889,14 14,14 1.29111,0 2.33333,-1.04222 2.33333,-2.33333 0,-0.60667 -0.23333,-1.15112 -0.60666,-1.57112 -0.35778,-0.40444 -0.59112,-0.94888 -0.59112,-1.54 0,-1.2911 1.04223,-2.33333 2.33334,-2.33333 l 2.75333,0 c 4.29333,0 7.77778,-3.48444 7.77778,-7.77777 C 126,260.56889 119.73111,255 112,255 Z"
         id="path4311"
         style="display:inline;fill:#000000;fill-opacity:1;enable-background:new;opacity:0.2"
         sodipodi:nodetypes="sssscsssss" />
      <path
         sodipodi:nodetypes="sssscsssss"
         style="display:inline;fill:#000000;fill-opacity:1;enable-background:new;opacity:0.2"
         id="path4313"
         d="m 64,262 c -6.074442,0 -11,4.92556 -11,11 0,6.07444 4.925558,11 11,11 1.014442,0 1.833332,-0.81889 1.833332,-1.83333 0,-0.47667 -0.183332,-0.90445 -0.476663,-1.23445 -0.281111,-0.31778 -0.464448,-0.74555 -0.464448,-1.21 0,-1.01444 0.81889,-1.83333 1.833337,-1.83333 l 2.163332,0 C 72.262221,277.88889 75,275.15111 75,271.77778 75,266.37556 70.074442,262 64,262 Z"
         inkscape:connector-curvature="0" />
      <path
         sodipodi:nodetypes="sssscsssss"
         style="display:inline;fill:#000000;fill-opacity:1;enable-background:new;opacity:0.1;filter:url(#filter4271);stroke:#000000;stroke-opacity:1;stroke-width:8;stroke-miterlimit:4;stroke-dasharray:none"
         id="path4275"
         d="m 464,-192 c -123.69773,0 -224,100.302272 -224,224 0,123.69773 100.30227,224 224,224 20.65773,0 37.3333,-16.67557 37.3333,-37.3333 0,-9.7067 -3.7333,-18.41784 -9.7066,-25.13784 -5.72443,-6.47113 -9.45784,-15.18216 -9.45784,-24.64 0,-20.65772 16.67557,-37.33329 37.33341,-37.33329 l 44.0533,0 C 632.24886,131.55557 688,75.804432 688,7.111136 688,-102.89773 587.69773,-192 464,-192 Z"
         inkscape:connector-curvature="0" />
      <path
         inkscape:connector-curvature="0"
         d="m 464,-192 c -123.69773,0 -224,100.302272 -224,224 0,123.69773 100.30227,224 224,224 20.65773,0 37.3333,-16.67557 37.3333,-37.3333 0,-9.7067 -3.7333,-18.41784 -9.7066,-25.13784 -5.72443,-6.47113 -9.45784,-15.18216 -9.45784,-24.64 0,-20.65772 16.67557,-37.33329 37.33341,-37.33329 l 44.0533,0 C 632.24886,131.55557 688,75.804432 688,7.111136 688,-102.89773 587.69773,-192 464,-192 Z"
         id="path4269"
         style="display:inline;fill:#000000;fill-opacity:1;enable-background:new;opacity:0.2;filter:url(#filter4271)"
         sodipodi:nodetypes="sssscsssss" />
      <path
         sodipodi:nodetypes="sssscsssss"
         style="display:inline;fill:#000000;fill-opacity:1;enable-background:new;opacity:0.2"
         id="path4202"
         d="m 168,241 c -11.04444,0 -20,8.95556 -20,20 0,11.04444 8.95556,20 20,20 1.84444,0 3.33333,-1.48889 3.33333,-3.33333 0,-0.86667 -0.33333,-1.64445 -0.86666,-2.24445 -0.51111,-0.57778 -0.84445,-1.35555 -0.84445,-2.2 0,-1.84444 1.48889,-3.33333 3.33334,-3.33333 l 3.93333,0 C 183.02222,269.88889 188,264.91111 188,258.77778 188,248.95556 179.04444,241 168,241 Z"
         inkscape:connector-curvature="0" />
      <path
         inkscape:connector-curvature="0"
         d="m 168,240 c -11.04444,0 -20,8.95556 -20,20 0,11.04444 8.95556,20 20,20 1.84444,0 3.33333,-1.48889 3.33333,-3.33333 0,-0.86667 -0.33333,-1.64445 -0.86666,-2.24445 -0.51111,-0.57778 -0.84445,-1.35555 -0.84445,-2.2 0,-1.84444 1.48889,-3.33333 3.33334,-3.33333 l 3.93333,0 C 183.02222,268.88889 188,263.91111 188,257.77778 188,247.95556 179.04444,240 168,240 Z"
         id="path4"
         style="display:inline;fill:#ebebeb;fill-opacity:1;enable-background:new"
         sodipodi:nodetypes="sssscsssss" />
      <circle
         r="3.5"
         cy="249.5"
         cx="162.5"
         id="circle4159"
         style="display:inline;opacity:1;fill:#fec006;fill-opacity:1;stroke:none;stroke-width:1;stroke-linecap:round;stroke-linejoin:round;stroke-miterlimit:4;stroke-dasharray:none;stroke-opacity:1;enable-background:new" />
      <circle
         style="display:inline;opacity:1;fill:#4bae4f;fill-opacity:1;stroke:none;stroke-width:1;stroke-linecap:round;stroke-linejoin:round;stroke-miterlimit:4;stroke-dasharray:none;stroke-opacity:1;enable-background:new"
         id="circle4161"
         cx="173.5"
         cy="248.5"
         r="3.5" />
      <circle
         style="display:inline;opacity:1;fill:#f34235;fill-opacity:1;stroke:none;stroke-width:1;stroke-linecap:round;stroke-linejoin:round;stroke-miterlimit:4;stroke-dasharray:none;stroke-opacity:1;enable-background:new"
         id="path4153"
         cx="156.5"
         cy="259.5"
         r="3.5" />
      <circle
         r="3.5"
         cy="257.5"
         cx="180.5"
         id="circle4163"
         style="display:inline;opacity:1;fill:#2095f2;fill-opacity:1;stroke:none;stroke-width:1;stroke-linecap:round;stroke-linejoin:round;stroke-miterlimit:4;stroke-dasharray:none;stroke-opacity:1;enable-background:new" />
      <path
         style="display:inline;enable-background:new;fill:#ffffff;fill-opacity:1;opacity:0.2"
         d="M 168 484 C 156.95556 484 148 492.95556 148 504 C 148 504.16765 148.00762 504.33333 148.01172 504.5 C 148.27792 493.68723 157.12321 485 168 485 C 178.80181 485 187.60083 492.61141 187.98242 502.13477 C 187.98624 502.01516 188 501.89787 188 501.77734 C 188 491.95512 179.04444 484 168 484 z M 169.67188 516.73242 C 169.6481 516.89344 169.62305 517.0549 169.62305 517.22266 C 169.62305 518.06711 169.95569 518.8441 170.4668 519.42188 C 170.89157 519.89975 171.18148 520.49383 171.28516 521.15234 C 171.30856 520.99258 171.33398 520.8324 171.33398 520.66602 C 171.33398 519.79935 171.00013 519.02187 170.4668 518.42188 C 170.0609 517.96304 169.77563 517.37675 169.67188 516.73242 z "
         transform="translate(0,-244)"
         id="path4197" />
      <path
         sodipodi:nodetypes="sssscsssss"
         style="display:inline;fill:#ebebeb;fill-opacity:1;enable-background:new"
         id="path4213"
         d="m 112,254 c -7.73111,0 -14,6.26889 -14,14 0,7.73111 6.26889,14 14,14 1.29111,0 2.33333,-1.04222 2.33333,-2.33333 0,-0.60667 -0.23333,-1.15112 -0.60666,-1.57112 -0.35778,-0.40444 -0.59112,-0.94888 -0.59112,-1.54 0,-1.2911 1.04223,-2.33333 2.33334,-2.33333 l 2.75333,0 c 4.29333,0 7.77778,-3.48444 7.77778,-7.77777 C 126,259.56889 119.73111,254 112,254 Z"
         inkscape:connector-curvature="0" />
      <circle
         style="display:inline;opacity:1;fill:#fec006;fill-opacity:1;stroke:none;stroke-width:1;stroke-linecap:round;stroke-linejoin:round;stroke-miterlimit:4;stroke-dasharray:none;stroke-opacity:1;enable-background:new"
         id="circle4215"
         cx="108.15"
         cy="260.64999"
         r="2.45" />
      <circle
         r="2.45"
         cy="259.95001"
         cx="115.85"
         id="circle4217"
         style="display:inline;opacity:1;fill:#4bae4f;fill-opacity:1;stroke:none;stroke-width:1;stroke-linecap:round;stroke-linejoin:round;stroke-miterlimit:4;stroke-dasharray:none;stroke-opacity:1;enable-background:new" />
      <circle
         r="2.45"
         cy="267.64999"
         cx="103.95"
         id="circle4219"
         style="display:inline;opacity:1;fill:#f34235;fill-opacity:1;stroke:none;stroke-width:1;stroke-linecap:round;stroke-linejoin:round;stroke-miterlimit:4;stroke-dasharray:none;stroke-opacity:1;enable-background:new" />
      <circle
         style="display:inline;opacity:1;fill:#2095f2;fill-opacity:1;stroke:none;stroke-width:1;stroke-linecap:round;stroke-linejoin:round;stroke-miterlimit:4;stroke-dasharray:none;stroke-opacity:1;enable-background:new"
         id="circle4221"
         cx="120.75"
         cy="266.25"
         r="2.45" />
      <path
         inkscape:connector-curvature="0"
         d="m 64,261 c -6.074442,0 -11,4.92556 -11,11 0,6.07444 4.925558,11 11,11 1.014442,0 1.833332,-0.81889 1.833332,-1.83333 0,-0.47667 -0.183332,-0.90445 -0.476663,-1.23445 -0.281111,-0.31778 -0.464448,-0.74555 -0.464448,-1.21 0,-1.01444 0.81889,-1.83333 1.833337,-1.83333 l 2.163332,0 C 72.262221,276.88889 75,274.15111 75,270.77778 75,265.37556 70.074442,261 64,261 Z"
         id="path4225"
         style="display:inline;fill:#ebebeb;fill-opacity:1;enable-background:new"
         sodipodi:nodetypes="sssscsssss" />
      <circle
         r="1.925"
         cy="266.22501"
         cx="60.974998"
         id="circle4227"
         style="display:inline;opacity:1;fill:#fec006;fill-opacity:1;stroke:none;stroke-width:1;stroke-linecap:round;stroke-linejoin:round;stroke-miterlimit:4;stroke-dasharray:none;stroke-opacity:1;enable-background:new" />
      <circle
         style="display:inline;opacity:1;fill:#4bae4f;fill-opacity:1;stroke:none;stroke-width:1;stroke-linecap:round;stroke-linejoin:round;stroke-miterlimit:4;stroke-dasharray:none;stroke-opacity:1;enable-background:new"
         id="circle4229"
         cx="67.025002"
         cy="265.67499"
         r="1.925" />
      <circle
         style="display:inline;opacity:1;fill:#f34235;fill-opacity:1;stroke:none;stroke-width:1;stroke-linecap:round;stroke-linejoin:round;stroke-miterlimit:4;stroke-dasharray:none;stroke-opacity:1;enable-background:new"
         id="circle4231"
         cx="57.674999"
         cy="271.72501"
         r="1.925" />
      <circle
         r="1.925"
         cy="270.625"
         cx="70.875"
         id="circle4233"
         style="display:inline;opacity:1;fill:#2095f2;fill-opacity:1;stroke:none;stroke-width:1;stroke-linecap:round;stroke-linejoin:round;stroke-miterlimit:4;stroke-dasharray:none;stroke-opacity:1;enable-background:new" />
      <path
         sodipodi:nodetypes="sssscsssss"
         style="display:inline;fill:#ebebeb;fill-opacity:1;enable-background:new"
         id="path4237"
         d="m 24,268 c -4.417776,0 -8,3.58222 -8,8 0,4.41778 3.582224,8 8,8 0.737776,0 1.333332,-0.59556 1.333332,-1.33333 0,-0.34667 -0.133332,-0.65778 -0.346664,-0.89778 -0.204444,-0.23111 -0.33778,-0.54222 -0.33778,-0.88 0,-0.73778 0.595556,-1.33333 1.333336,-1.33333 l 1.573332,0 C 30.008888,279.55556 32,277.56444 32,275.11111 32,271.18222 28.417776,268 24,268 Z"
         inkscape:connector-curvature="0" />
      <circle
         style="display:inline;opacity:1;fill:#fec006;fill-opacity:1;stroke:none;stroke-width:1;stroke-linecap:round;stroke-linejoin:round;stroke-miterlimit:4;stroke-dasharray:none;stroke-opacity:1;enable-background:new"
         id="circle4239"
         cx="21.799999"
         cy="271.79999"
         r="1.4" />
      <circle
         r="1.4"
         cy="271.39999"
         cx="26.200001"
         id="circle4241"
         style="display:inline;opacity:1;fill:#4bae4f;fill-opacity:1;stroke:none;stroke-width:1;stroke-linecap:round;stroke-linejoin:round;stroke-miterlimit:4;stroke-dasharray:none;stroke-opacity:1;enable-background:new" />
      <circle
         r="1.4"
         cy="275.79999"
         cx="19.4"
         id="circle4243"
         style="display:inline;opacity:1;fill:#f34235;fill-opacity:1;stroke:none;stroke-width:1;stroke-linecap:round;stroke-linejoin:round;stroke-miterlimit:4;stroke-dasharray:none;stroke-opacity:1;enable-background:new" />
      <circle
         style="display:inline;opacity:1;fill:#2095f2;fill-opacity:1;stroke:none;stroke-width:1;stroke-linecap:round;stroke-linejoin:round;stroke-miterlimit:4;stroke-dasharray:none;stroke-opacity:1;enable-background:new"
         id="circle4245"
         cx="29"
         cy="275"
         r="1.4" />
      <path
         sodipodi:nodetypes="sssscsssss"
         style="display:inline;fill:#ebebeb;fill-opacity:1;enable-background:new"
         id="path4249"
         d="m 464,-194 c -123.69773,0 -224,100.302272 -224,224 0,123.69773 100.30227,224 224,224 20.65773,0 37.3333,-16.67557 37.3333,-37.3333 0,-9.7067 -3.7333,-18.41784 -9.7066,-25.13784 -5.72443,-6.47113 -9.45784,-15.18216 -9.45784,-24.64 0,-20.65772 16.67557,-37.33329 37.33341,-37.33329 l 44.0533,0 C 632.24886,129.55557 688,73.804432 688,5.111136 688,-104.89773 587.69773,-194 464,-194 Z"
         inkscape:connector-curvature="0" />
      <circle
         style="display:inline;opacity:1;fill:#fec006;fill-opacity:1;stroke:none;stroke-width:1;stroke-linecap:round;stroke-linejoin:round;stroke-miterlimit:4;stroke-dasharray:none;stroke-opacity:1;enable-background:new"
         id="circle4251"
         cx="394"
         cy="-92"
         r="40" />
      <circle
         r="40"
         cy="-108"
         cx="520"
         id="circle4253"
         style="display:inline;opacity:1;fill:#4bae4f;fill-opacity:1;stroke:none;stroke-width:1;stroke-linecap:round;stroke-linejoin:round;stroke-miterlimit:4;stroke-dasharray:none;stroke-opacity:1;enable-background:new" />
      <circle
         r="40"
         cy="20"
         cx="328"
         id="circle4255"
         style="display:inline;opacity:1;fill:#f34235;fill-opacity:1;stroke:none;stroke-width:1;stroke-linecap:round;stroke-linejoin:round;stroke-miterlimit:4;stroke-dasharray:none;stroke-opacity:1;enable-background:new" />
      <circle
         style="display:inline;opacity:1;fill:#2095f2;fill-opacity:1;stroke:none;stroke-width:1;stroke-linecap:round;stroke-linejoin:round;stroke-miterlimit:4;stroke-dasharray:none;stroke-opacity:1;enable-background:new"
         id="circle4257"
         cx="600"
         cy="-12"
         r="40" />
      <path
         style="display:inline;fill:#ffffff;fill-opacity:1;enable-background:new;opacity:0.2"
         d="M 464 48 C 340.30227 48 240 148.30227 240 272 C 240 272.33431 240.01025 272.66603 240.01172 273 C 240.55186 149.76327 340.63658 50 464 50 C 587.34011 50 687.40868 138.59044 687.98633 248.16016 C 687.98923 247.81024 688 247.46193 688 247.11133 C 688 137.10246 587.69773 48 464 48 z M 482.19336 409.88672 C 482.18458 410.22077 482.16797 410.55246 482.16797 410.88867 C 482.16797 420.34651 485.90252 429.05817 491.62695 435.5293 C 497.39159 442.01455 501.05864 450.35693 501.30859 459.65625 C 501.31715 459.32641 501.33398 458.99796 501.33398 458.66602 C 501.33398 448.95932 497.60025 440.2493 491.62695 433.5293 C 486.10499 427.28704 482.446 418.95729 482.19336 409.88672 z "
         transform="translate(0,-244)"
         id="path4264" />
    </g>
  </g>
</svg>
