<?xml version="1.0" encoding="UTF-8" standalone="no"?>
<!-- Created with Inkscape (http://www.inkscape.org/) -->

<svg
   xmlns:osb="http://www.openswatchbook.org/uri/2009/osb"
   xmlns:dc="http://purl.org/dc/elements/1.1/"
   xmlns:cc="http://creativecommons.org/ns#"
   xmlns:rdf="http://www.w3.org/1999/02/22-rdf-syntax-ns#"
   xmlns:svg="http://www.w3.org/2000/svg"
   xmlns="http://www.w3.org/2000/svg"
   xmlns:sodipodi="http://sodipodi.sourceforge.net/DTD/sodipodi-0.dtd"
   xmlns:inkscape="http://www.inkscape.org/namespaces/inkscape"
   inkscape:export-ydpi="90.000000"
   inkscape:export-xdpi="90.000000"
   width="736"
   height="544"
   id="svg11300"
   sodipodi:version="0.32"
   inkscape:version="0.91 r"
   sodipodi:docname="accessories-clipboard.svg"
   inkscape:output_extension="org.inkscape.output.svg.inkscape"
   version="1.0"
   style="display:inline;enable-background:new"
   inkscape:export-filename="/home/sam/paper-template.png">
  <title
     id="title3004">Paper Icon Theme</title>
  <sodipodi:namedview
     stroke="#ef2929"
     fill="#f57900"
     id="base"
     pagecolor="#545454"
     bordercolor="#666666"
     borderopacity="0.25490196"
     inkscape:pageopacity="0"
     inkscape:pageshadow="2"
     inkscape:zoom="1"
     inkscape:cx="228.32405"
     inkscape:cy="113.22688"
     inkscape:current-layer="layer6"
     showgrid="false"
     inkscape:grid-bbox="true"
     inkscape:document-units="px"
     inkscape:showpageshadow="false"
     inkscape:window-width="1920"
     inkscape:window-height="1023"
     inkscape:window-x="0"
     inkscape:window-y="27"
     width="400px"
     height="300px"
     inkscape:snap-nodes="true"
     inkscape:snap-bbox="true"
     gridtolerance="10000"
     inkscape:object-nodes="true"
     inkscape:snap-grids="true"
     showguides="true"
     inkscape:guide-bbox="true"
     inkscape:window-maximized="1"
     inkscape:bbox-nodes="true"
     inkscape:snap-bbox-edge-midpoints="true"
     inkscape:snap-bbox-midpoints="true">
    <inkscape:grid
       spacingy="1px"
       spacingx="1px"
       id="grid5883"
       type="xygrid"
       enabled="true"
       visible="true"
       empspacing="4"
       snapvisiblegridlinesonly="true" />
    <inkscape:grid
       type="xygrid"
       id="grid11592"
       empspacing="2"
       visible="true"
       enabled="false"
       spacingx="0.5px"
       spacingy="0.5px"
       color="#ff0000"
       opacity="0.1254902"
       empcolor="#ff0000"
       empopacity="0.25098039"
       snapvisiblegridlinesonly="true" />
  </sodipodi:namedview>
  <defs
     id="defs3">
    <clipPath
       clipPathUnits="userSpaceOnUse"
       id="clipPath4193">
      <rect
         transform="matrix(0,-1,-1,0,0,0)"
         style="fill:#c03630;fill-opacity:1;stroke:none"
         id="rect4195"
         width="56"
         height="56"
         x="-280"
         y="-260"
         rx="3"
         ry="3" />
    </clipPath>
    <clipPath
       clipPathUnits="userSpaceOnUse"
       id="clipPath4255">
      <rect
         ry="2"
         rx="2"
         y="-180"
         x="-280"
         height="40"
         width="40"
         id="rect4257"
         style="fill:#c03630;fill-opacity:1;stroke:none"
         transform="matrix(0,-1,-1,0,0,0)" />
    </clipPath>
    <clipPath
       clipPathUnits="userSpaceOnUse"
       id="clipPath4275">
      <rect
         ry="1"
         rx="1"
         y="-32"
         x="-284"
         height="16"
         width="16"
         id="rect4277"
         style="display:inline;fill:#c03630;fill-opacity:1;stroke:none;enable-background:new"
         transform="matrix(0,-1,-1,0,0,0)" />
    </clipPath>
    <linearGradient
       osb:paint="solid"
       id="linearGradient5606">
      <stop
         style="stop-color:#000000;stop-opacity:1;"
         offset="0"
         id="stop5608" />
    </linearGradient>
    <clipPath
       clipPathUnits="userSpaceOnUse"
       id="clipPath4266-4">
      <path
         id="path4268-0"
         d="m 146,240 c -1.108,0 -2,0.892 -2,2 l 0,36 c 0,1.108 0.892,2 2,2 l 28,0 c 1.108,0 2,-0.892 2,-2 l 0,-26 -12,-12 -18,0 z"
         style="fill:#ffffff;fill-opacity:1;stroke:none"
         inkscape:connector-curvature="0" />
    </clipPath>
    <clipPath
       clipPathUnits="userSpaceOnUse"
       id="clipPath4140-8">
      <path
         id="path4142-3"
         d="m 213,224 c -1.662,0 -3,1.338 -3,3 l 0,50 c 0,1.662 1.338,3 3,3 l 38,0 c 1.662,0 3,-1.338 3,-3 l 0,-35 -18,-18 -23,0 z"
         style="fill:#e1e1e1;fill-opacity:1;stroke:none"
         inkscape:connector-curvature="0" />
    </clipPath>
    <clipPath
       clipPathUnits="userSpaceOnUse"
       id="clipPath4168">
      <path
         id="path4170"
         d="m 94.5,254 c -0.831,0 -1.5,0.669 -1.5,1.5 l 0,25 c 0,0.831 0.669,1.5 1.5,1.5 l 19,0 c 0.831,0 1.5,-0.669 1.5,-1.5 l 0,-18.5 -8,-8 -12.5,0 z"
         style="fill:#e1e1e1;fill-opacity:1;stroke:none"
         inkscape:connector-curvature="0" />
    </clipPath>
    <clipPath
       clipPathUnits="userSpaceOnUse"
       id="clipPath4278">
      <path
         sodipodi:nodetypes="ssssssccs"
         style="fill:#e1e1e1;fill-opacity:1;stroke:none"
         d="m 300,196 c -2.216,0 -4,1.784 -4,4 l 0,72 c 0,2.216 1.784,4 4,4 l 56,0 c 2.216,0 4,-1.784 4,-4 l 0,-52 -24,-24 z"
         id="path4280"
         inkscape:connector-curvature="0" />
    </clipPath>
    <clipPath
       clipPathUnits="userSpaceOnUse"
       id="clipPath4754">
      <path
         sodipodi:nodetypes="ssssssccs"
         style="fill:#e1e1e1;fill-opacity:1;stroke:none"
         d="m 300,196 c -2.216,0 -4,1.784 -4,4 l 0,72 c 0,2.216 1.784,4 4,4 l 56,0 c 2.216,0 4,-1.784 4,-4 l 0,-52 -24,-24 z"
         id="path4756"
         inkscape:connector-curvature="0" />
    </clipPath>
    <clipPath
       clipPathUnits="userSpaceOnUse"
       id="clipPath4227">
      <path
         style="fill:#000000;fill-opacity:1;stroke:none;stroke-width:5;stroke-miterlimit:4;stroke-dasharray:none;stroke-opacity:1"
         d="m 184,278 0,-36 c 0,-1.108 -0.892,-2 -2,-2 l -28,0 c -1.108,0 -2,0.892 -2,2 l 0,36 c 0,1.108 0.892,2 2,2 l 28,0 c 1.108,0 2,-0.892 2,-2 z"
         id="path4229"
         inkscape:connector-curvature="0"
         sodipodi:nodetypes="sssssssss" />
    </clipPath>
    <clipPath
       clipPathUnits="userSpaceOnUse"
       id="clipPath4240">
      <path
         sodipodi:nodetypes="ccccc"
         inkscape:connector-curvature="0"
         id="path4242"
         d="m 155,243 26,0 0,34 -26,0 z"
         style="opacity:1;fill:#ebebeb;fill-opacity:1;stroke:none;stroke-width:6;stroke-linecap:round;stroke-linejoin:round;stroke-miterlimit:4;stroke-dasharray:none;stroke-opacity:1" />
    </clipPath>
    <filter
       inkscape:collect="always"
       style="color-interpolation-filters:sRGB"
       id="filter4824"
       x="-0.025565217"
       width="1.0511304"
       y="-0.022615385"
       height="1.0452308">
      <feGaussianBlur
         inkscape:collect="always"
         stdDeviation="3.92"
         id="feGaussianBlur4826" />
    </filter>
    <filter
       inkscape:collect="always"
       style="color-interpolation-filters:sRGB"
       id="filter4854"
       x="-0.053333333"
       width="1.1066667"
       y="-0.068571429"
       height="1.1371429">
      <feGaussianBlur
         inkscape:collect="always"
         stdDeviation="3.2"
         id="feGaussianBlur4856" />
    </filter>
    <filter
       inkscape:collect="always"
       style="color-interpolation-filters:sRGB"
       id="filter4860"
       x="-0.025894737"
       width="1.0517895"
       y="-0.022363636"
       height="1.0447273">
      <feGaussianBlur
         inkscape:collect="always"
         stdDeviation="3.28"
         id="feGaussianBlur4862" />
    </filter>
    <filter
       inkscape:collect="always"
       style="color-interpolation-filters:sRGB"
       id="filter4890"
       x="-0.12"
       width="1.24"
       y="-0.12"
       height="1.24">
      <feGaussianBlur
         inkscape:collect="always"
         stdDeviation="2.4"
         id="feGaussianBlur4892" />
    </filter>
  </defs>
  <metadata
     id="metadata4">
    <rdf:RDF>
      <cc:Work
         rdf:about="">
        <dc:format>image/svg+xml</dc:format>
        <dc:type
           rdf:resource="http://purl.org/dc/dcmitype/StillImage" />
        <dc:creator>
          <cc:Agent>
            <dc:title>Sam Hewitt</dc:title>
          </cc:Agent>
        </dc:creator>
        <dc:source />
        <cc:license
           rdf:resource="http://creativecommons.org/licenses/by-sa/3.0/" />
        <dc:title>Paper Icon Theme</dc:title>
        <dc:subject>
          <rdf:Bag />
        </dc:subject>
        <dc:date />
        <dc:rights>
          <cc:Agent>
            <dc:title />
          </cc:Agent>
        </dc:rights>
        <dc:publisher>
          <cc:Agent>
            <dc:title />
          </cc:Agent>
        </dc:publisher>
        <dc:identifier />
        <dc:relation />
        <dc:language />
        <dc:coverage />
        <dc:description />
        <dc:contributor>
          <cc:Agent>
            <dc:title />
          </cc:Agent>
        </dc:contributor>
      </cc:Work>
      <cc:Work
         rdf:about="">
        <dc:format>image/svg+xml</dc:format>
        <dc:type
           rdf:resource="http://purl.org/dc/dcmitype/StillImage" />
      </cc:Work>
      <cc:License
         rdf:about="http://creativecommons.org/licenses/by-sa/3.0/">
        <cc:permits
           rdf:resource="http://creativecommons.org/ns#Reproduction" />
        <cc:permits
           rdf:resource="http://creativecommons.org/ns#Distribution" />
        <cc:requires
           rdf:resource="http://creativecommons.org/ns#Notice" />
        <cc:requires
           rdf:resource="http://creativecommons.org/ns#Attribution" />
        <cc:permits
           rdf:resource="http://creativecommons.org/ns#DerivativeWorks" />
        <cc:requires
           rdf:resource="http://creativecommons.org/ns#ShareAlike" />
      </cc:License>
    </rdf:RDF>
  </metadata>
  <g
     style="display:inline"
     inkscape:groupmode="layer"
     inkscape:label="Icon"
     id="layer1"
     transform="translate(0,244)">
    <g
       style="display:none"
       inkscape:label="Baseplate"
       id="layer7"
       inkscape:groupmode="layer">
      <text
         y="332.76685"
         xml:space="preserve"
         x="15.006836"
         style="font-style:normal;font-variant:normal;font-weight:normal;font-stretch:normal;font-size:18px;font-family:'DejaVu Sans';-inkscape-font-specification:'DejaVu Sans';display:inline;fill:#000000;fill-opacity:1;stroke:none;enable-background:new"
         inkscape:label="context"
         id="context"><tspan
           style="font-style:normal;font-variant:normal;font-weight:normal;font-stretch:normal;font-family:'DejaVu Sans';-inkscape-font-specification:'DejaVu Sans'"
           y="332.76685"
           x="15.006836"
           sodipodi:role="line"
           id="tspan3933">apps</tspan></text>
      <text
         y="332.76685"
         xml:space="preserve"
         x="142.48828"
         style="font-style:normal;font-variant:normal;font-weight:bold;font-stretch:normal;font-size:18px;line-height:125%;font-family:'DejaVu Sans';-inkscape-font-specification:'DejaVu Sans Bold';text-align:start;writing-mode:lr-tb;text-anchor:start;display:inline;fill:#000000;fill-opacity:1;stroke:none;enable-background:new"
         sodipodi:linespacing="125%"
         inkscape:label="icon-name"
         id="icon-name"><tspan
           style="font-style:normal;font-variant:normal;font-weight:bold;font-stretch:normal;font-size:18px;font-family:'DejaVu Sans';-inkscape-font-specification:'DejaVu Sans Bold'"
           y="332.76685"
           x="142.48828"
           sodipodi:role="line"
           id="tspan3937">accessories-clipboard</tspan></text>
      <rect
         style="display:inline;overflow:visible;visibility:visible;fill:#e9e9e9;fill-opacity:1;fill-rule:nonzero;stroke:none;stroke-width:2;marker:none;enable-background:accumulate"
         id="rect16x16"
         width="16"
         height="16"
         x="-32"
         y="268"
         inkscape:label="16x16"
         transform="scale(-1,1)" />
      <rect
         style="display:inline;overflow:visible;visibility:visible;fill:#e9e9e9;fill-opacity:1;fill-rule:nonzero;stroke:none;stroke-width:2;marker:none;enable-background:accumulate"
         id="rect24x24"
         width="24"
         height="24"
         x="-76"
         y="260"
         inkscape:label="24x24"
         transform="scale(-1,1)" />
      <rect
         style="display:inline;overflow:visible;visibility:visible;fill:#e9e9e9;fill-opacity:1;fill-rule:nonzero;stroke:none;stroke-width:2;marker:none;enable-background:accumulate"
         id="rect32x32"
         width="32"
         height="32"
         x="-128"
         y="252"
         inkscape:label="32x32"
         transform="scale(-1,1)" />
      <rect
         inkscape:label="48x48"
         y="236"
         x="-192"
         height="48"
         width="48"
         id="rect48x48"
         style="display:inline;overflow:visible;visibility:visible;fill:#e9e9e9;fill-opacity:1;fill-rule:nonzero;stroke:none;stroke-width:2;marker:none;enable-background:accumulate"
         transform="scale(-1,1)" />
      <rect
         style="display:inline;overflow:visible;visibility:visible;fill:#e9e9e9;fill-opacity:1;fill-rule:nonzero;stroke:none;stroke-width:2;marker:none;enable-background:accumulate"
         id="rect3951"
         width="512"
         height="512"
         x="-720"
         y="-228"
         inkscape:label="48x48"
         transform="scale(-1,1)" />
    </g>
    <g
       inkscape:groupmode="layer"
       id="layer6"
       inkscape:label="Symbols"
       style="display:inline">
      <rect
         ry="24"
         rx="24"
         y="-640"
         x="-256"
         height="368"
         width="416"
         id="rect4828"
         style="display:inline;opacity:0.1;fill:#000000;fill-opacity:1;stroke:none;enable-background:new;filter:url(#filter4824)"
         transform="matrix(0,-1,-1,0,0,0)" />
      <rect
         transform="matrix(0,-1,-1,0,0,0)"
         style="display:inline;opacity:0.2;fill:#000000;fill-opacity:1;stroke:none;enable-background:new;filter:url(#filter4824)"
         id="rect4822"
         width="416"
         height="368"
         x="-256"
         y="-640"
         rx="24"
         ry="24" />
      <rect
         ry="24"
         rx="24"
         y="-640"
         x="-254"
         height="368"
         width="416"
         id="rect4820"
         style="display:inline;fill:#000000;fill-opacity:1;stroke:none;enable-background:new;opacity:0.2"
         transform="matrix(0,-1,-1,0,0,0)" />
      <rect
         transform="matrix(0,-1,-1,0,0,0)"
         style="display:inline;fill:#000000;fill-opacity:1;stroke:none;enable-background:new;opacity:0.2"
         id="rect4777"
         width="26"
         height="24"
         x="-283"
         y="-124"
         rx="2"
         ry="2" />
      <rect
         ry="1.5"
         rx="1.5"
         y="-73"
         x="-284"
         height="18"
         width="20"
         id="rect4779"
         style="display:inline;fill:#000000;fill-opacity:1;stroke:none;enable-background:new;opacity:0.2"
         transform="matrix(0,-1,-1,0,0,0)" />
      <rect
         transform="matrix(0,-1,-1,0,0,0)"
         style="display:inline;fill:#000000;fill-opacity:1;stroke:none;enable-background:new;opacity:0.2"
         id="rect4781"
         width="37"
         height="36"
         x="-281"
         y="-186"
         rx="3"
         ry="3" />
      <rect
         transform="matrix(0,-1,-1,0,0,0)"
         style="display:inline;fill:#a1887f;fill-opacity:1;stroke:none;enable-background:new"
         id="rect4662"
         width="416"
         height="368"
         x="-252"
         y="-640"
         rx="24"
         ry="24" />
      <path
         style="display:inline;fill:#ffffff;fill-opacity:1;stroke:none;enable-background:new;opacity:0.2"
         d="M 296 80 C 282.704 80 272 90.704 272 104 L 272 106 C 272 92.704 282.704 82 296 82 L 616 82 C 629.296 82 640 92.704 640 106 L 640 104 C 640 90.704 629.296 80 616 80 L 296 80 z "
         transform="translate(0,-244)"
         id="rect4815" />
      <rect
         y="-128"
         x="304"
         height="352"
         width="304"
         id="rect4858"
         style="opacity:0.2;fill:#000000;fill-opacity:1;stroke:none;stroke-width:8;stroke-linecap:round;stroke-linejoin:miter;stroke-miterlimit:4;stroke-dasharray:none;stroke-opacity:0.62886598;filter:url(#filter4860)" />
      <rect
         style="opacity:1;fill:#ffffff;fill-opacity:1;stroke:none;stroke-width:8;stroke-linecap:round;stroke-linejoin:miter;stroke-miterlimit:4;stroke-dasharray:none;stroke-opacity:0.62886598"
         id="rect4664"
         width="304"
         height="352"
         x="304"
         y="-132" />
      <rect
         ry="2"
         rx="2"
         y="-124"
         x="-282"
         height="24"
         width="26"
         id="rect4636"
         style="display:inline;fill:#a1887f;fill-opacity:1;stroke:none;enable-background:new"
         transform="matrix(0,-1,-1,0,0,0)" />
      <path
         style="display:inline;fill:#ffffff;fill-opacity:1;stroke:none;enable-background:new;opacity:0.2"
         d="M 102 500 C 100.892 500 100 500.892 100 502 L 100 503 C 100 501.892 100.892 501 102 501 L 122 501 C 123.108 501 124 501.892 124 503 L 124 502 C 124 500.892 123.108 500 122 500 L 102 500 z "
         transform="translate(0,-244)"
         id="rect4894" />
      <rect
         style="opacity:0.2;fill:#000000;fill-opacity:1;stroke:none;stroke-width:8;stroke-linecap:round;stroke-linejoin:miter;stroke-miterlimit:4;stroke-dasharray:none;stroke-opacity:0.62886598"
         id="rect4904"
         width="20"
         height="22"
         x="102"
         y="259" />
      <rect
         y="258"
         x="102"
         height="22"
         width="20"
         id="rect4638"
         style="opacity:1;fill:#ffffff;fill-opacity:1;stroke:none;stroke-width:8;stroke-linecap:round;stroke-linejoin:miter;stroke-miterlimit:4;stroke-dasharray:none;stroke-opacity:0.62886598" />
      <path
         style="opacity:1;fill:#999999;fill-opacity:1;stroke:none;stroke-width:8;stroke-linecap:round;stroke-linejoin:miter;stroke-miterlimit:4;stroke-dasharray:none;stroke-opacity:0.62886598"
         d="m 112,496 c -1.662,0 -3,1.338 -3,3 l 0,2 -2,0 c -0.554,0 -1,0.446 -1,1 l 0,3 12,0 0,-3 c 0,-0.554 -0.446,-1 -1,-1 l -2,0 0,-2 c 0,-1.662 -1.338,-3 -3,-3 z"
         id="circle4642"
         transform="translate(0,-244)"
         inkscape:connector-curvature="0"
         sodipodi:nodetypes="sscssccsscss" />
      <rect
         transform="matrix(0,-1,-1,0,0,0)"
         style="display:inline;fill:#a1887f;fill-opacity:1;stroke:none;enable-background:new"
         id="rect4265"
         width="15"
         height="14"
         x="-284"
         y="-31"
         rx="1"
         ry="1" />
      <rect
         style="opacity:1;fill:#ffffff;fill-opacity:1;stroke:none;stroke-width:8;stroke-linecap:round;stroke-linejoin:miter;stroke-miterlimit:4;stroke-dasharray:none;stroke-opacity:0.62886598"
         id="rect4615"
         width="10"
         height="11"
         x="19"
         y="271" />
      <path
         style="opacity:1;fill:#999999;fill-opacity:1;stroke:none;stroke-width:8;stroke-linecap:round;stroke-linejoin:miter;stroke-miterlimit:4;stroke-dasharray:none;stroke-opacity:0.62886598"
         d="m 24,267 c -1.108,0 -2,0.892 -2,2 l 0,1 c -0.554,0 -1,0.446 -1,1 l 0,1 1,0 2,0 2,0 1,0 0,-1 c 0,-0.554 -0.446,-1 -1,-1 l 0,-1 c 0,-1.108 -0.892,-2 -2,-2 z"
         id="rect4606"
         inkscape:connector-curvature="0" />
      <circle
         style="opacity:1;fill:#ffffff;fill-opacity:1;stroke:none;stroke-width:8;stroke-linecap:round;stroke-linejoin:miter;stroke-miterlimit:4;stroke-dasharray:none;stroke-opacity:0.62886598"
         id="path4613"
         cx="24"
         cy="269"
         r="1" />
      <rect
         transform="matrix(0,-1,-1,0,0,0)"
         style="display:inline;fill:#a1887f;fill-opacity:1;stroke:none;enable-background:new"
         id="rect4652"
         width="20"
         height="18"
         x="-283"
         y="-73"
         rx="1.5"
         ry="1.5" />
      <rect
         y="266"
         x="57"
         height="16"
         width="14"
         id="rect4906"
         style="opacity:0.2;fill:#000000;fill-opacity:1;stroke:none;stroke-width:8;stroke-linecap:round;stroke-linejoin:miter;stroke-miterlimit:4;stroke-dasharray:none;stroke-opacity:0.62886598" />
      <path
         style="display:inline;fill:#ffffff;fill-opacity:1;stroke:none;enable-background:new;opacity:0.2"
         d="M 56.5 507 C 55.669 507 55 507.669 55 508.5 L 55 509.5 C 55 508.669 55.669 508 56.5 508 L 71.5 508 C 72.331 508 73 508.669 73 509.5 L 73 508.5 C 73 507.669 72.331 507 71.5 507 L 56.5 507 z "
         transform="translate(0,-244)"
         id="rect4899" />
      <rect
         style="opacity:1;fill:#ffffff;fill-opacity:1;stroke:none;stroke-width:8;stroke-linecap:round;stroke-linejoin:miter;stroke-miterlimit:4;stroke-dasharray:none;stroke-opacity:0.62886598"
         id="rect4654"
         width="14"
         height="16"
         x="57"
         y="265" />
      <path
         inkscape:connector-curvature="0"
         id="path4771"
         d="m 64,261 c 0,0 -2,0 -2,2 l 0,1 -1,0 c -0.554,0 -1.06473,0.44979 -1,1 l 0,1 8,0 0,-1 c 0,-0.554 -0.446,-1 -1,-1 l -1,0 0,-1 c 0,-2 -2,-2 -2,-2 z"
         style="opacity:1;fill:#999999;fill-opacity:1;stroke:none;stroke-width:8;stroke-linecap:round;stroke-linejoin:miter;stroke-miterlimit:4;stroke-dasharray:none;stroke-opacity:0.62886598"
         sodipodi:nodetypes="csccsccsccsc" />
      <circle
         r="1"
         cy="264"
         cx="64"
         id="circle4926"
         style="opacity:0.2;fill:#000000;fill-opacity:1;stroke:none;stroke-width:8;stroke-linecap:round;stroke-linejoin:miter;stroke-miterlimit:4;stroke-dasharray:none;stroke-opacity:0.62886598" />
      <circle
         style="opacity:1;fill:#ffffff;fill-opacity:1;stroke:none;stroke-width:8;stroke-linecap:round;stroke-linejoin:miter;stroke-miterlimit:4;stroke-dasharray:none;stroke-opacity:0.62886598"
         id="circle4658"
         cx="64"
         cy="263"
         r="1" />
      <path
         id="path4848"
         d="m 456,-208 c -22.16,0 -40,17.84 -40,40 l 0,16 0,8 -9,0 c -12.742,0 -23,10.258 -23,23 l 0,2 0,23 144,0 0,-24 0,-1 c 0,-12.742 -10.258,-23 -23,-23 l -9,0 0,-8 0,-16 c 0,-22.16 -17.84,-40 -40,-40 z"
         style="opacity:0.2;fill:#000000;fill-opacity:1;stroke:none;stroke-width:8;stroke-linecap:round;stroke-linejoin:miter;stroke-miterlimit:4;stroke-dasharray:none;stroke-opacity:0.62886598;filter:url(#filter4854)"
         inkscape:connector-curvature="0" />
      <path
         style="opacity:1;fill:#999999;fill-opacity:1;stroke:none;stroke-width:8;stroke-linecap:round;stroke-linejoin:miter;stroke-miterlimit:4;stroke-dasharray:none;stroke-opacity:0.62886598"
         d="M 456 32 C 433.84 32 416 49.84 416 72 L 416 88 L 416 96 L 407 96 C 394.258 96 384 106.258 384 119 L 384 121 L 384 144 L 528 144 L 528 120 L 528 119 C 528 106.258 517.742 96 505 96 L 496 96 L 496 88 L 496 72 C 496 49.84 478.16 32 456 32 z "
         transform="translate(0,-244)"
         id="rect4670" />
      <circle
         r="24"
         cy="-166"
         cx="456"
         id="circle4864"
         style="opacity:0.1;fill:#000000;fill-opacity:1;stroke:none;stroke-width:8;stroke-linecap:round;stroke-linejoin:miter;stroke-miterlimit:4;stroke-dasharray:none;stroke-opacity:0.62886598;filter:url(#filter4890)" />
      <circle
         style="opacity:1;fill:#ffffff;fill-opacity:1;stroke:none;stroke-width:8;stroke-linecap:round;stroke-linejoin:miter;stroke-miterlimit:4;stroke-dasharray:none;stroke-opacity:0.62886598"
         id="circle4668"
         cx="456"
         cy="-172"
         r="24" />
      <circle
         style="opacity:0.2;fill:#000000;fill-opacity:1;stroke:none;stroke-width:8;stroke-linecap:round;stroke-linejoin:miter;stroke-miterlimit:4;stroke-dasharray:none;stroke-opacity:0.62886598"
         id="circle4917"
         cx="112"
         cy="256"
         r="1.9999999" />
      <circle
         r="1.9999999"
         cy="255"
         cx="112"
         id="circle4689"
         style="opacity:1;fill:#ffffff;fill-opacity:1;stroke:none;stroke-width:8;stroke-linecap:round;stroke-linejoin:miter;stroke-miterlimit:4;stroke-dasharray:none;stroke-opacity:0.62886598" />
      <rect
         ry="3"
         rx="3"
         y="-186"
         x="-280"
         height="36"
         width="37"
         id="rect4745"
         style="display:inline;fill:#a1887f;fill-opacity:1;stroke:none;enable-background:new"
         transform="matrix(0,-1,-1,0,0,0)" />
      <path
         style="display:inline;fill:#ffffff;fill-opacity:1;stroke:none;enable-background:new;opacity:0.2"
         d="M 153 487 C 151.338 487 150 488.338 150 490 L 150 491 C 150 489.338 151.338 488 153 488 L 183 488 C 184.662 488 186 489.338 186 491 L 186 490 C 186 488.338 184.662 487 183 487 L 153 487 z "
         transform="translate(0,-244)"
         id="rect4801" />
      <rect
         style="opacity:0.2;fill:#000000;fill-opacity:1;stroke:none;stroke-width:8;stroke-linecap:round;stroke-linejoin:miter;stroke-miterlimit:4;stroke-dasharray:none;stroke-opacity:0.62886598"
         id="rect4806"
         width="30"
         height="31"
         x="153"
         y="247" />
      <rect
         y="246"
         x="153"
         height="31"
         width="30"
         id="rect4747"
         style="opacity:1;fill:#ffffff;fill-opacity:1;stroke:none;stroke-width:8;stroke-linecap:round;stroke-linejoin:miter;stroke-miterlimit:4;stroke-dasharray:none;stroke-opacity:0.62886598" />
      <path
         style="opacity:1;fill:#999999;fill-opacity:1;stroke:none;stroke-width:8;stroke-linecap:round;stroke-linejoin:miter;stroke-miterlimit:4;stroke-dasharray:none;stroke-opacity:0.62886598"
         d="m 168,482 c -2.216,0 -4,1.784 -4,4 l 0,2 -2,0 c -1.108,0 -2,0.892 -2,2 l 0,1 0,3 8,0 8,0 0,-3 0,-1 c 0,-1.108 -0.892,-2 -2,-2 l -2,0 0,-2 c 0,-2.216 -1.784,-4 -4,-4 z"
         transform="translate(0,-244)"
         id="rect4757"
         inkscape:connector-curvature="0"
         sodipodi:nodetypes="sscsscccccsscss" />
      <circle
         style="opacity:0.2;fill:#000000;fill-opacity:1;stroke:none;stroke-width:8;stroke-linecap:round;stroke-linejoin:miter;stroke-miterlimit:4;stroke-dasharray:none;stroke-opacity:0.62886598"
         id="circle4919"
         cx="168"
         cy="243"
         r="2" />
      <circle
         r="2"
         cy="242"
         cx="168"
         id="circle4759"
         style="opacity:1;fill:#ffffff;fill-opacity:1;stroke:none;stroke-width:8;stroke-linecap:round;stroke-linejoin:miter;stroke-miterlimit:4;stroke-dasharray:none;stroke-opacity:0.62886598" />
      <path
         style="opacity:0.2;fill:#ffffff;fill-opacity:1;stroke:none;stroke-width:8;stroke-linecap:round;stroke-linejoin:miter;stroke-miterlimit:4;stroke-dasharray:none;stroke-opacity:0.62886598"
         d="M 168 482 C 165.784 482 164 483.784 164 486 L 164 487 C 164 484.784 165.784 483 168 483 C 170.216 483 172 484.784 172 487 L 172 486 C 172 483.784 170.216 482 168 482 z M 162 488 C 160.892 488 160 488.892 160 490 L 160 491 C 160 489.892 160.892 489 162 489 L 164 489 L 164 488 L 162 488 z M 172 488 L 172 489 L 174 489 C 175.108 489 176 489.892 176 491 L 176 490 C 176 488.892 175.108 488 174 488 L 172 488 z "
         transform="translate(0,-244)"
         id="rect4785" />
      <path
         style="opacity:0.2;fill:#ffffff;fill-opacity:1;stroke:none;stroke-width:8;stroke-linecap:round;stroke-linejoin:miter;stroke-miterlimit:4;stroke-dasharray:none;stroke-opacity:0.62886598"
         d="M 456 32 C 433.84 32 416 49.84 416 72 L 416 74 C 416 51.84 433.84 34 456 34 C 478.16 34 496 51.84 496 74 L 496 72 C 496 49.84 478.16 32 456 32 z M 407 96 C 394.258 96 384 106.258 384 119 L 384 121 C 384 108.258 394.258 98 407 98 L 416 98 L 416 96 L 407 96 z M 496 96 L 496 98 L 505 98 C 517.742 98 528 108.258 528 121 L 528 120 L 528 119 C 528 106.258 517.742 96 505 96 L 496 96 z "
         transform="translate(0,-244)"
         id="path4833" />
      <path
         style="opacity:0.2;fill:#ffffff;fill-opacity:1;stroke:none;stroke-width:8;stroke-linecap:round;stroke-linejoin:miter;stroke-miterlimit:4;stroke-dasharray:none;stroke-opacity:0.62886598"
         d="M 112 496 C 110.338 496 109 497.338 109 499 L 109 500 C 109 498.338 110.338 497 112 497 C 113.662 497 115 498.338 115 500 L 115 499 C 115 497.338 113.662 496 112 496 z M 107 501 C 106.446 501 106 501.446 106 502 L 106 503 C 106 502.446 106.446 502 107 502 L 109 502 L 109 501 L 107 501 z M 115 501 L 115 502 L 117 502 C 117.554 502 118 502.446 118 503 L 118 502 C 118 501.446 117.554 501 117 501 L 115 501 z "
         transform="translate(0,-244)"
         id="path4910" />
      <path
         style="opacity:0.2;fill:#ffffff;fill-opacity:1;stroke:none;stroke-width:8;stroke-linecap:round;stroke-linejoin:miter;stroke-miterlimit:4;stroke-dasharray:none;stroke-opacity:0.62886598"
         d="M 64 505 C 64 505 62 505 62 507 L 62 508 C 62 506 64 506 64 506 C 64 506 66 506 66 508 L 66 507 C 66 505 64 505 64 505 z M 66 508 L 66 509 L 67 509 C 67.554 509 68 509.446 68 510 L 68 509 C 68 508.446 67.554 508 67 508 L 66 508 z M 62 508 L 61 508 C 60.446 508 59.93527 508.44979 60 509 L 60 510 C 59.93527 509.44979 60.446 509 61 509 L 62 509 L 62 508 z "
         transform="translate(0,-244)"
         id="path4921" />
    </g>
  </g>
</svg>
