<?xml version="1.0" encoding="UTF-8" standalone="no"?>
<!-- Created with Inkscape (http://www.inkscape.org/) -->

<svg
   xmlns:osb="http://www.openswatchbook.org/uri/2009/osb"
   xmlns:dc="http://purl.org/dc/elements/1.1/"
   xmlns:cc="http://creativecommons.org/ns#"
   xmlns:rdf="http://www.w3.org/1999/02/22-rdf-syntax-ns#"
   xmlns:svg="http://www.w3.org/2000/svg"
   xmlns="http://www.w3.org/2000/svg"
   xmlns:sodipodi="http://sodipodi.sourceforge.net/DTD/sodipodi-0.dtd"
   xmlns:inkscape="http://www.inkscape.org/namespaces/inkscape"
   inkscape:export-ydpi="90.000000"
   inkscape:export-xdpi="90.000000"
   width="736"
   height="544"
   id="svg11300"
   sodipodi:version="0.32"
   inkscape:version="0.91 r13725"
   sodipodi:docname="accessories-notes.svg"
   inkscape:output_extension="org.inkscape.output.svg.inkscape"
   version="1.0"
   style="display:inline;enable-background:new"
   inkscape:export-filename="/home/sam/paper-template.png">
  <title
     id="title3004">Paper Icon Theme</title>
  <sodipodi:namedview
     stroke="#ef2929"
     fill="#f57900"
     id="base"
     pagecolor="#474747"
     bordercolor="#666666"
     borderopacity="0.25490196"
     inkscape:pageopacity="0"
     inkscape:pageshadow="2"
     inkscape:zoom="1"
     inkscape:cx="275.8447"
     inkscape:cy="167.22605"
     inkscape:current-layer="layer6"
     showgrid="false"
     inkscape:grid-bbox="true"
     inkscape:document-units="px"
     inkscape:showpageshadow="false"
     inkscape:window-width="1920"
     inkscape:window-height="1019"
     inkscape:window-x="0"
     inkscape:window-y="27"
     width="400px"
     height="300px"
     inkscape:snap-nodes="true"
     inkscape:snap-bbox="true"
     gridtolerance="10000"
     inkscape:object-nodes="true"
     inkscape:snap-grids="true"
     showguides="true"
     inkscape:guide-bbox="true"
     inkscape:window-maximized="1"
     inkscape:bbox-nodes="true"
     inkscape:snap-bbox-edge-midpoints="false"
     inkscape:object-paths="true"
     inkscape:snap-intersection-paths="true"
     inkscape:snap-smooth-nodes="true"
     inkscape:snap-global="true"
     inkscape:snap-bbox-midpoints="true">
    <inkscape:grid
       spacingy="1px"
       spacingx="1px"
       id="grid5883"
       type="xygrid"
       enabled="true"
       visible="true"
       empspacing="4"
       snapvisiblegridlinesonly="true" />
    <inkscape:grid
       type="xygrid"
       id="grid11592"
       empspacing="2"
       visible="true"
       enabled="false"
       spacingx="0.5px"
       spacingy="0.5px"
       color="#ff0000"
       opacity="0.1254902"
       empcolor="#ff0000"
       empopacity="0.25098039"
       snapvisiblegridlinesonly="true" />
  </sodipodi:namedview>
  <defs
     id="defs3">
    <clipPath
       clipPathUnits="userSpaceOnUse"
       id="clipPath4401">
      <path
         sodipodi:nodetypes="ssssccsss"
         inkscape:connector-curvature="0"
         id="path4403"
         d="m 416,108 c -4.432,0 -8,3.568 -8,8 l 0,144 c 0,4.432 3.568,8 8,8 l 96,0 56,-56 0,-96 c 0,-4.432 -3.568,-8 -8,-8 z"
         style="fill:#fecd38;fill-opacity:1;stroke:none" />
    </clipPath>
    <clipPath
       clipPathUnits="userSpaceOnUse"
       id="clipPath4415">
      <path
         sodipodi:nodetypes="ssssccsss"
         inkscape:connector-curvature="0"
         id="path4417"
         d="m 292,196 c -2.216,0 -4,1.784 -4,4 l 0,72 c 0,2.216 1.784,4 4,4 l 44,0 32,-32 0,-44 c 0,-2.216 -1.784,-4 -4,-4 z"
         style="fill:#fecd38;fill-opacity:1;stroke:none" />
    </clipPath>
    <clipPath
       clipPathUnits="userSpaceOnUse"
       id="clipPath4463">
      <path
         sodipodi:nodetypes="ssssccsss"
         inkscape:connector-curvature="0"
         id="path4465"
         d="m 207,224 c -1.662,0 -3,1.338 -3,3 l 0,50 c 0,1.662 1.338,3 3,3 l 29,0 24,-24 0,-29 c 0,-1.662 -1.338,-3 -3,-3 z"
         style="fill:#fecd38;fill-opacity:1;stroke:none" />
    </clipPath>
    <filter
       inkscape:collect="always"
       style="color-interpolation-filters:sRGB"
       id="filter4467"
       x="-0.12"
       width="1.24"
       y="-0.12"
       height="1.24">
      <feGaussianBlur
         inkscape:collect="always"
         stdDeviation="1.2"
         id="feGaussianBlur4469" />
    </filter>
    <clipPath
       clipPathUnits="userSpaceOnUse"
       id="clipPath4473">
      <path
         sodipodi:nodetypes="ssssccsss"
         inkscape:connector-curvature="0"
         id="path4475"
         d="m 142,240 c -1.108,0 -2,0.892 -2,2 l 0,36 c 0,1.108 0.892,2 2,2 l 22,0 16,-16 0,-22 c 0,-1.108 -0.892,-2 -2,-2 z"
         style="fill:#fecd38;fill-opacity:1;stroke:none" />
    </clipPath>
    <filter
       inkscape:collect="always"
       style="color-interpolation-filters:sRGB"
       id="filter4477"
       x="-0.12"
       width="1.24"
       y="-0.12"
       height="1.24">
      <feGaussianBlur
         inkscape:collect="always"
         stdDeviation="0.8"
         id="feGaussianBlur4479" />
    </filter>
    <clipPath
       clipPathUnits="userSpaceOnUse"
       id="clipPath4483">
      <path
         sodipodi:nodetypes="ssssccsss"
         inkscape:connector-curvature="0"
         id="path4485"
         d="m 91.5,254 c -0.831,0 -1.5,0.669 -1.5,1.5 l 0,25 c 0,0.831 0.669,1.5 1.5,1.5 l 16.5,0 10,-10 0,-16.5 c 0,-0.831 -0.669,-1.5 -1.5,-1.5 z"
         style="fill:#fecd38;fill-opacity:1;stroke:none" />
    </clipPath>
    <filter
       inkscape:collect="always"
       style="color-interpolation-filters:sRGB"
       id="filter4487"
       x="-0.12"
       width="1.24"
       y="-0.12"
       height="1.24">
      <feGaussianBlur
         inkscape:collect="always"
         stdDeviation="0.5"
         id="feGaussianBlur4489" />
    </filter>
    <clipPath
       clipPathUnits="userSpaceOnUse"
       id="clipPath4493">
      <path
         sodipodi:nodetypes="ssssccsss"
         inkscape:connector-curvature="0"
         id="path4495"
         d="m 51,262 c -0.554,0 -1,0.446 -1,1 l 0,18 c 0,0.554 0.446,1 1,1 l 11,0 8,-8 0,-11 c 0,-0.554 -0.446,-1 -1,-1 z"
         style="fill:#fecd38;fill-opacity:1;stroke:none" />
    </clipPath>
    <clipPath
       clipPathUnits="userSpaceOnUse"
       id="clipPath4499">
      <path
         sodipodi:nodetypes="ssssccsss"
         inkscape:connector-curvature="0"
         id="path4501"
         d="m 17,268 c -0.554,0 -1,0.446 -1,1 l 0,14 c 0,0.554 0.446,1 1,1 l 9,0 6,-6 0,-9 c 0,-0.554 -0.446,-1 -1,-1 z"
         style="display:inline;fill:#fecd38;fill-opacity:1;stroke:none;enable-background:new" />
    </clipPath>
    <linearGradient
       osb:paint="solid"
       id="linearGradient5606">
      <stop
         style="stop-color:#000000;stop-opacity:1;"
         offset="0"
         id="stop5608" />
    </linearGradient>
    <filter
       inkscape:collect="always"
       style="color-interpolation-filters:sRGB"
       id="filter4331"
       x="-0.024"
       width="1.048"
       y="-0.024"
       height="1.048">
      <feGaussianBlur
         inkscape:collect="always"
         stdDeviation="0.56"
         id="feGaussianBlur4333" />
    </filter>
  </defs>
  <metadata
     id="metadata4">
    <rdf:RDF>
      <cc:Work
         rdf:about="">
        <dc:format>image/svg+xml</dc:format>
        <dc:type
           rdf:resource="http://purl.org/dc/dcmitype/StillImage" />
        <dc:creator>
          <cc:Agent>
            <dc:title>Sam Hewitt</dc:title>
          </cc:Agent>
        </dc:creator>
        <dc:source />
        <cc:license
           rdf:resource="http://creativecommons.org/licenses/by-sa/3.0/" />
        <dc:title>Paper Icon Theme</dc:title>
        <dc:subject>
          <rdf:Bag />
        </dc:subject>
        <dc:date />
        <dc:rights>
          <cc:Agent>
            <dc:title />
          </cc:Agent>
        </dc:rights>
        <dc:publisher>
          <cc:Agent>
            <dc:title />
          </cc:Agent>
        </dc:publisher>
        <dc:identifier />
        <dc:relation />
        <dc:language />
        <dc:coverage />
        <dc:description />
        <dc:contributor>
          <cc:Agent>
            <dc:title />
          </cc:Agent>
        </dc:contributor>
      </cc:Work>
      <cc:Work
         rdf:about="">
        <dc:format>image/svg+xml</dc:format>
        <dc:type
           rdf:resource="http://purl.org/dc/dcmitype/StillImage" />
      </cc:Work>
    </rdf:RDF>
  </metadata>
  <g
     style="display:inline"
     inkscape:groupmode="layer"
     inkscape:label="Icon"
     id="layer1"
     transform="translate(0,244)">
    <g
       style="display:none"
       inkscape:label="Baseplate"
       id="layer7"
       inkscape:groupmode="layer"
       sodipodi:insensitive="true">
      <text
         y="332.25586"
         xml:space="preserve"
         x="15.006836"
         style="font-style:normal;font-variant:normal;font-weight:normal;font-stretch:normal;font-size:18px;font-family:'DejaVu Sans';-inkscape-font-specification:'DejaVu Sans';display:inline;fill:#000000;fill-opacity:1;stroke:none;enable-background:new"
         inkscape:label="context"
         id="context"><tspan
           style="font-style:normal;font-variant:normal;font-weight:normal;font-stretch:normal;font-family:'DejaVu Sans';-inkscape-font-specification:'DejaVu Sans'"
           y="332.25586"
           x="15.006836"
           sodipodi:role="line"
           id="tspan3933">apps</tspan></text>
      <text
         y="332.25586"
         xml:space="preserve"
         x="142.48828"
         style="font-style:normal;font-variant:normal;font-weight:bold;font-stretch:normal;font-size:18px;line-height:125%;font-family:'DejaVu Sans';-inkscape-font-specification:'DejaVu Sans Bold';text-align:start;writing-mode:lr-tb;text-anchor:start;display:inline;fill:#000000;fill-opacity:1;stroke:none;enable-background:new"
         sodipodi:linespacing="125%"
         inkscape:label="icon-name"
         id="icon-name"><tspan
           style="font-style:normal;font-variant:normal;font-weight:bold;font-stretch:normal;font-size:18px;font-family:'DejaVu Sans';-inkscape-font-specification:'DejaVu Sans Bold'"
           y="332.25586"
           x="142.48828"
           sodipodi:role="line"
           id="tspan3937">accessories-notes</tspan></text>
      <rect
         style="display:inline;overflow:visible;visibility:visible;fill:#e9e9e9;fill-opacity:1;fill-rule:nonzero;stroke:none;stroke-width:2;marker:none;enable-background:accumulate"
         id="rect16x16"
         width="16"
         height="16"
         x="-32"
         y="268"
         inkscape:label="16x16"
         transform="scale(-1,1)" />
      <rect
         style="display:inline;overflow:visible;visibility:visible;fill:#e9e9e9;fill-opacity:1;fill-rule:nonzero;stroke:none;stroke-width:2;marker:none;enable-background:accumulate"
         id="rect24x24"
         width="24"
         height="24"
         x="-72"
         y="260"
         inkscape:label="24x24"
         transform="scale(-1,1)" />
      <rect
         style="display:inline;overflow:visible;visibility:visible;fill:#e9e9e9;fill-opacity:1;fill-rule:nonzero;stroke:none;stroke-width:2;marker:none;enable-background:accumulate"
         id="rect32x32"
         width="32"
         height="32"
         x="-128"
         y="252"
         inkscape:label="32x32"
         transform="scale(-1,1)" />
      <rect
         inkscape:label="48x48"
         y="236"
         x="-192"
         height="48"
         width="48"
         id="rect48x48"
         style="display:inline;overflow:visible;visibility:visible;fill:#e9e9e9;fill-opacity:1;fill-rule:nonzero;stroke:none;stroke-width:2;marker:none;enable-background:accumulate"
         transform="scale(-1,1)" />
      <rect
         style="display:inline;overflow:visible;visibility:visible;fill:#e9e9e9;fill-opacity:1;fill-rule:nonzero;stroke:none;stroke-width:2;marker:none;enable-background:accumulate"
         id="rect3951"
         width="512"
         height="512"
         x="-720"
         y="-228"
         inkscape:label="48x48"
         transform="scale(-1,1)" />
    </g>
    <g
       inkscape:groupmode="layer"
       id="layer6"
       inkscape:label="Symbols"
       style="display:inline">
      <path
         transform="matrix(8,0,0,8,-1392,-1992)"
         sodipodi:nodetypes="ssssccsss"
         inkscape:connector-curvature="0"
         style="opacity:0.1;fill:#000000;fill-opacity:1;stroke:#000000;stroke-opacity:1;filter:url(#filter4331)"
         d="m 207,225 c -1.662,0 -3,1.338 -3,3 l 0,50 c 0,1.662 1.338,3 3,3 l 29,0 24,-24 0,-29 c 0,-1.662 -1.338,-3 -3,-3 z"
         id="path4335" />
      <path
         id="path4231"
         d="m 150,241 c -1.108,0 -2,0.892 -2,2 l 0,36 c 0,1.108 0.892,2 2,2 l 22,0 16,-16 0,-22 c 0,-1.108 -0.892,-2 -2,-2 z"
         style="opacity:0.2;fill:#000000;fill-opacity:1;stroke:none"
         inkscape:connector-curvature="0"
         sodipodi:nodetypes="ssssccsss" />
      <path
         id="path4235"
         d="m 207,225 c -1.662,0 -3,1.338 -3,3 l 0,50 c 0,1.662 1.338,3 3,3 l 29,0 24,-24 0,-29 c 0,-1.662 -1.338,-3 -3,-3 z"
         style="opacity:0.2;fill:#000000;fill-opacity:1;stroke:none;filter:url(#filter4331)"
         inkscape:connector-curvature="0"
         sodipodi:nodetypes="ssssccsss"
         transform="matrix(8,0,0,8,-1392,-1992)" />
      <path
         id="path4237"
         d="m 51,263 c -0.554,0 -1,0.446 -1,1 l 0,18 c 0,0.554 0.446,1 1,1 l 11,0 8,-8 0,-11 c 0,-0.554 -0.446,-1 -1,-1 z"
         style="opacity:0.2;fill:#000000;fill-opacity:1;stroke:none"
         inkscape:connector-curvature="0"
         sodipodi:nodetypes="ssssccsss" />
      <path
         id="path4239"
         d="m 99.5,255 c -0.831,0 -1.5,0.669 -1.5,1.5 l 0,25 c 0,0.831 0.669,1.5 1.5,1.5 l 16.5,0 10,-10 0,-16.5 c 0,-0.831 -0.669,-1.5 -1.5,-1.5 z"
         style="opacity:0.2;fill:#000000;fill-opacity:1;stroke:none"
         inkscape:connector-curvature="0"
         sodipodi:nodetypes="ssssccsss" />
      <path
         style="fill:#f9ce1d;fill-opacity:1;stroke:none"
         d="m 150,240 c -1.108,0 -2,0.892 -2,2 l 0,36 c 0,1.108 0.892,2 2,2 l 22,0 16,-16 0,-22 c 0,-1.108 -0.892,-2 -2,-2 z"
         id="rect4203"
         inkscape:connector-curvature="0"
         sodipodi:nodetypes="ssssccsss" />
      <path
         style="fill:#f9ce1d;fill-opacity:1;stroke:none"
         d="m 51,186 c -0.554,0 -1,0.446 -1,1 l 0,18 c 0,0.554 0.446,1 1,1 l 11,0 8,-8 0,-11 c 0,-0.554 -0.446,-1 -1,-1 z"
         transform="translate(0,76)"
         id="rect4243"
         inkscape:connector-curvature="0"
         sodipodi:nodetypes="ssssccsss" />
      <path
         style="fill:#f9ce1d;fill-opacity:1;stroke:none"
         d="m 100,254 c 0,0 -2,0 -2,2 l 0,24 c 0,2 2,2 2,2 l 16,0 10,-10 0,-16 c 0,-2 -2,-2 -2,-2 z"
         id="rect4255"
         inkscape:connector-curvature="0"
         sodipodi:nodetypes="csscccscc" />
      <path
         style="display:inline;fill:#f9ce1d;fill-opacity:1;stroke:none;enable-background:new"
         d="m 17,192 c -0.554,0 -1,0.446 -1,1 l 0,14 c 0,0.554 0.446,1 1,1 l 9,0 6,-6 0,-9 c 0,-0.554 -0.446,-1 -1,-1 z"
         transform="translate(0,76)"
         id="rect4265"
         inkscape:connector-curvature="0"
         sodipodi:nodetypes="ssssccsss" />
      <path
         sodipodi:nodetypes="cssccaac"
         inkscape:connector-curvature="0"
         id="path4318"
         d="m 155,260.00016 2.19055,0.0475 c 4.31152,0.0935 8.40665,1.16726 9.93452,3.53606 3.5647,5.52676 -3.49576,7.31887 -6.33252,3.41575 -2.65095,-4.2842 -1.73486,-13.18496 2.08461,-14.21854 6.91122,-1.57329 8.06054,9.39099 12.31055,7.24446 3.27502,-1.6541 -2.06657,-9.16022 1.13733,-10.94818 1.37682,-0.76834 4.26071,2.05432 4.26071,2.05432"
         style="opacity:0.2;fill:none;fill-rule:evenodd;stroke:#ffffff;stroke-width:1.99999976;stroke-linecap:square;stroke-linejoin:miter;stroke-miterlimit:4;stroke-dasharray:none;stroke-opacity:1" />
      <path
         style="opacity:1;fill:none;fill-rule:evenodd;stroke:#cb9a05;stroke-width:1.99999976;stroke-linecap:square;stroke-linejoin:miter;stroke-miterlimit:4;stroke-dasharray:none;stroke-opacity:1"
         d="m 155,259 2.19055,0.0475 c 4.31152,0.0935 8.40665,1.16726 9.93452,3.53606 3.5647,5.52676 -3.49576,7.31887 -6.33252,3.41575 -2.65095,-4.2842 -1.73486,-13.18496 2.08461,-14.21854 6.91122,-1.57329 8.06054,9.39099 12.31055,7.24446 3.27502,-1.6541 -2.06657,-9.16022 1.13733,-10.94818 1.37682,-0.76834 4.26071,2.05432 4.26071,2.05432"
         id="path4207"
         inkscape:connector-curvature="0"
         sodipodi:nodetypes="cssccaac" />
      <path
         sodipodi:nodetypes="csscc"
         style="display:inline;opacity:0.2;fill:#000000;fill-opacity:1;stroke:none;filter:url(#filter4477);enable-background:new"
         d="m 180,265 -14,0 c -1.10457,0 -2,0.89544 -2,2 l 0,14 z"
         id="path4357"
         inkscape:connector-curvature="0"
         clip-path="url(#clipPath4473)"
         transform="translate(8,0)" />
      <path
         inkscape:connector-curvature="0"
         id="path4240"
         d="m 188,264 -14,0 c -1.10457,0 -2,0.89544 -2,2 l 0,14 z"
         style="display:inline;opacity:1;fill:#fff59d;fill-opacity:1;stroke:none;enable-background:new"
         sodipodi:nodetypes="csscc" />
      <path
         sodipodi:nodetypes="ccccc"
         inkscape:connector-curvature="0"
         id="path4359"
         d="m 70,274 -8,8 0,-7 c 0,0 0,-1 1,-1 z"
         style="display:inline;opacity:0.05;fill:#000000;fill-opacity:1;stroke:#000000;stroke-width:2;stroke-linecap:butt;stroke-linejoin:miter;stroke-miterlimit:4;stroke-dasharray:none;stroke-opacity:1;enable-background:new"
         clip-path="url(#clipPath4493)" />
      <path
         style="display:inline;opacity:1;fill:#fff59d;fill-opacity:1;stroke:none;stroke-width:1px;stroke-linecap:butt;stroke-linejoin:miter;stroke-opacity:1;enable-background:new"
         d="m 70,274 -8,8 0,-7 c 0,0 0,-1 1,-1 z"
         id="path3315"
         inkscape:connector-curvature="0"
         sodipodi:nodetypes="ccccc" />
      <path
         style="display:inline;opacity:0.05;fill:#000000;fill-opacity:1;stroke:#000000;stroke-width:2;stroke-miterlimit:4;stroke-dasharray:none;stroke-opacity:1;enable-background:new"
         d="m 32,278 -6,6 0,-5 c 0,0 0,-1 1,-1 z"
         id="path4361"
         inkscape:connector-curvature="0"
         sodipodi:nodetypes="ccccc"
         clip-path="url(#clipPath4499)" />
      <path
         sodipodi:nodetypes="ccccc"
         inkscape:connector-curvature="0"
         id="path4088"
         d="m 32,278 -6,6 0,-5 c 0,0 0,-1 1,-1 z"
         style="display:inline;opacity:1;fill:#fff59d;fill-opacity:1;stroke:none;enable-background:new" />
      <path
         style="display:inline;opacity:0.2;fill:#000000;fill-opacity:1;stroke:none;filter:url(#filter4487);enable-background:new"
         d="m 118,272 -8.5,0 c -0.82843,0 -1.5,0.67158 -1.5,1.5 l 0,8.5 z"
         id="path4365"
         inkscape:connector-curvature="0"
         sodipodi:nodetypes="csscc"
         clip-path="url(#clipPath4483)"
         transform="translate(8,0)" />
      <path
         sodipodi:nodetypes="csscc"
         inkscape:connector-curvature="0"
         id="path4172"
         d="m 126,272 -8.5,0 c -0.82843,0 -1.5,0.67158 -1.5,1.5 l 0,8.5 z"
         style="display:inline;fill:#fff59d;fill-opacity:1;stroke:none;enable-background:new" />
      <path
         style="opacity:0.1;fill:#ffffff;fill-opacity:1;stroke:none"
         d="m 150,240 c -1.108,0 -2,0.892 -2,2 l 0,1 c 0,-1.108 0.892,-2 2,-2 l 36,0 c 1.108,0 2,0.892 2,2 l 0,-1 c 0,-1.108 -0.892,-2 -2,-2 z"
         id="path4245"
         inkscape:connector-curvature="0"
         sodipodi:nodetypes="sscsscsss" />
      <path
         style="opacity:0.1;fill:#ffffff;fill-opacity:1;stroke:none"
         d="m 51,186 c -0.554,0 -1,0.446 -1,1 l 0,1 c 0,-0.554 0.446,-1 1,-1 l 18,0 c 0.554,0 1,0.446 1,1 l 0,-1 c 0,-0.554 -0.446,-1 -1,-1 z"
         transform="translate(0,76)"
         id="path4251"
         inkscape:connector-curvature="0"
         sodipodi:nodetypes="sscsscsss" />
      <path
         style="opacity:0.1;fill:#ffffff;fill-opacity:1;stroke:none"
         d="m 100,254 c -0.831,0 -2,1.169 -2,2 l 0,1 c 0,-0.831 1.169,-2 2,-2 l 24,0 c 0.831,0 2,1.169 2,2 l 0,-1 c 0,-0.831 -1.169,-2 -2,-2 z"
         id="path4253"
         inkscape:connector-curvature="0"
         sodipodi:nodetypes="sscsscsss" />
      <path
         style="display:inline;opacity:0.1;fill:#ffffff;fill-opacity:1;stroke:none;enable-background:new"
         d="m 17,192 c -0.554,0 -1,0.446 -1,1 l 0,1 c 0,-0.554 0.446,-1 1,-1 l 14,0 c 0.554,0 1,0.446 1,1 l 0,-1 c 0,-0.554 -0.446,-1 -1,-1 z"
         transform="translate(0,76)"
         id="path4255"
         inkscape:connector-curvature="0"
         sodipodi:nodetypes="sscsscsss" />
      <path
         style="display:inline;opacity:0.2;fill:#ffffff;fill-opacity:1;stroke:none;enable-background:new"
         d="m 174,264 c -1.10457,0 -2,0.89544 -2,2 l 0,1 c 0,-1.10456 0.89543,-2 2,-2 l 13,0 1,-1 -14,0 z"
         id="path4320"
         inkscape:connector-curvature="0" />
      <path
         style="display:inline;opacity:0.1;fill:#ffffff;fill-opacity:1;stroke:none;stroke-width:1px;stroke-linecap:butt;stroke-linejoin:miter;stroke-opacity:1;enable-background:new"
         d="m 63,198 c -1,0 -1,1 -1,1 l 0,1 c 0,0 0,-1 1,-1 l 6,0 1,-1 -7,0 z"
         transform="translate(0,76)"
         id="path4322"
         inkscape:connector-curvature="0" />
      <path
         style="display:inline;opacity:0.1;fill:#ffffff;fill-opacity:1;stroke:none;enable-background:new"
         d="m 27,202 c -1,0 -1,1 -1,1 l 0,1 c 0,0 0,-1 1,-1 l 4,0 1,-1 -5,0 z"
         transform="translate(0,76)"
         id="path4324"
         inkscape:connector-curvature="0" />
      <path
         style="display:inline;opacity:0.2;fill:#ffffff;fill-opacity:1;stroke:none;enable-background:new"
         d="m 117.5,272 c -0.82843,0 -1.5,0.67158 -1.5,1.5 l 0,1 c 0,-0.82842 0.67157,-1.5 1.5,-1.5 l 7.5,0 1,-1 -8.5,0 z"
         id="path4328"
         inkscape:connector-curvature="0" />
      <path
         style="fill:#f9ce1d;fill-opacity:1;stroke:none"
         d="m 264,-196 c -13.296,0 -24,10.704 -24,24 l 0,400 c 0,13.296 10.704,24 24,24 l 232,0 192,-192 0,-232 c 0,-13.296 -10.704,-24 -24,-24 z"
         id="rect4229"
         inkscape:connector-curvature="0"
         sodipodi:nodetypes="ssssccsss" />
      <path
         sodipodi:nodetypes="csscc"
         inkscape:connector-curvature="0"
         id="path4363"
         d="m 260,258 -21,0 c -1.65685,0 -3,1.34316 -3,3 l 0,21 z"
         style="display:inline;opacity:0.2;fill:#000000;fill-opacity:1;stroke:none;filter:url(#filter4467);enable-background:new"
         clip-path="url(#clipPath4463)"
         transform="matrix(8,0,0,8,-1392,-1988)" />
      <path
         style="display:inline;opacity:1;fill:#fff59d;fill-opacity:1;stroke:none;enable-background:new"
         d="m 688,60 -168,0 c -13.2548,0 -24,10.74528 -24,24 l 0,168 z"
         id="path4145"
         inkscape:connector-curvature="0"
         sodipodi:nodetypes="csscc" />
      <path
         style="opacity:0.2;fill:#ffffff;fill-opacity:1;stroke:none"
         d="M 264 48 C 250.704 48 240 58.704 240 72 L 240 74 C 240 60.704 250.704 50 264 50 L 664 50 C 677.296 50 688 60.704 688 74 L 688 72 C 688 58.704 677.296 48 664 48 L 264 48 z "
         transform="translate(0,-244)"
         id="path4249" />
      <path
         style="display:inline;opacity:0.2;fill:#ffffff;fill-opacity:1;stroke:none;enable-background:new"
         d="M 520 304 C 506.7452 304 496 314.74528 496 328 L 496 330 C 496 316.74528 506.7452 306 520 306 L 686 306 L 688 304 L 520 304 z "
         id="path4326"
         transform="translate(0,-244)" />
      <path
         style="opacity:0.2;fill:none;fill-rule:evenodd;stroke:#ffffff;stroke-width:1;stroke-linecap:square;stroke-linejoin:miter;stroke-miterlimit:4;stroke-dasharray:none;stroke-opacity:1"
         d="m 53,273.49969 1.16133,0.0251 c 2.28576,0.0494 4.4568,0.61669 5.2668,1.8682 1.88984,2.91995 -1.85328,3.86678 -3.3572,1.80464 -1.4054,-2.26347 -0.91974,-6.966 1.10516,-7.51207 3.664,-0.83122 4.27332,4.96153 6.52647,3.82746 1.73626,-0.87391 -2.13282,-3.73154 0.60296,-5.78425 0.66352,-0.49785 2.25883,1.08536 2.25883,1.08536"
         id="path4321"
         inkscape:connector-curvature="0"
         sodipodi:nodetypes="cssccasc" />
      <path
         sodipodi:nodetypes="cssccasc"
         inkscape:connector-curvature="0"
         id="path4213"
         d="m 53,272.49953 1.16133,0.0251 c 2.28576,0.0494 4.4568,0.61669 5.2668,1.8682 1.88984,2.91995 -1.85328,3.86678 -3.3572,1.80464 -1.4054,-2.26347 -0.91974,-6.966 1.10516,-7.51207 3.664,-0.83122 4.27332,4.96153 6.52647,3.82746 1.73626,-0.87391 -2.13282,-3.73154 0.60296,-5.78425 0.66352,-0.49785 2.25883,1.08536 2.25883,1.08536"
         style="opacity:1;fill:none;fill-rule:evenodd;stroke:#cb9a05;stroke-width:1;stroke-linecap:square;stroke-linejoin:miter;stroke-miterlimit:4;stroke-dasharray:none;stroke-opacity:1" />
      <path
         sodipodi:nodetypes="cssccasc"
         inkscape:connector-curvature="0"
         id="path4323"
         d="m 19.51068,277.50982 0.7519,0.0162 c 1.479908,0.0319 2.885541,0.3984 3.409973,1.20693 1.22357,1.88641 -1.199901,2.49811 -2.173609,1.16588 -0.909922,-1.4623 -0.595483,-4.50033 0.715532,-4.85312 2.372245,-0.537 2.766748,3.20536 4.225543,2.4727 1.124135,-0.56458 -1.380888,-2.41073 0.390384,-3.73687 0.429594,-0.32163 1.462472,0.70119 1.462472,0.70119"
         style="opacity:0.2;fill:none;fill-rule:evenodd;stroke:#ffffff;stroke-width:1;stroke-linecap:square;stroke-linejoin:miter;stroke-miterlimit:4;stroke-dasharray:none;stroke-opacity:1" />
      <path
         style="opacity:1;fill:none;fill-rule:evenodd;stroke:#cb9a05;stroke-width:1;stroke-linecap:square;stroke-linejoin:miter;stroke-miterlimit:4;stroke-dasharray:none;stroke-opacity:1"
         d="m 19.51068,276.50966 0.7519,0.0162 c 1.479908,0.0319 2.885541,0.3984 3.409973,1.20693 1.22357,1.88641 -1.199901,2.49811 -2.173609,1.16588 -0.909922,-1.4623 -0.595483,-4.50033 0.715532,-4.85312 2.372245,-0.537 2.766748,3.20536 4.225543,2.4727 1.124135,-0.56458 -1.380888,-2.41073 0.390384,-3.73687 0.429594,-0.32163 1.462472,0.70119 1.462472,0.70119"
         id="path4215"
         inkscape:connector-curvature="0"
         sodipodi:nodetypes="cssccasc" />
      <path
         sodipodi:nodetypes="cssccaac"
         inkscape:connector-curvature="0"
         id="path4325"
         d="m 103,269.00016 1.50381,0.0326 c 2.95982,0.0641 5.77109,0.79989 6.81995,2.42319 2.44715,3.78739 -2.3998,5.0155 -4.34722,2.34075 -1.81985,-2.93589 -1.19097,-9.03541 1.43107,-9.7437 4.7445,-1.07816 5.5335,6.43546 8.4511,4.96449 2.24827,-1.13352 -1.41454,-6.27675 0.78077,-7.50259 0.94473,-0.52753 2.92495,1.40779 2.92495,1.40779"
         style="opacity:0.2;fill:none;fill-rule:evenodd;stroke:#ffffff;stroke-width:2;stroke-linecap:square;stroke-linejoin:miter;stroke-miterlimit:4;stroke-dasharray:none;stroke-opacity:1" />
      <path
         style="opacity:1;fill:none;fill-rule:evenodd;stroke:#cb9a05;stroke-width:2;stroke-linecap:square;stroke-linejoin:miter;stroke-miterlimit:4;stroke-dasharray:none;stroke-opacity:1"
         d="m 103,268 1.50381,0.0326 c 2.95982,0.0641 5.77109,0.79989 6.81995,2.42319 2.44715,3.78739 -2.3998,5.0155 -4.34722,2.34075 -1.81985,-2.93589 -1.19097,-9.03541 1.43107,-9.7437 4.7445,-1.07816 5.5335,6.43546 8.4511,4.96449 2.24827,-1.13352 -1.41454,-6.27675 0.78077,-7.50259 0.94473,-0.52753 2.92495,1.40779 2.92495,1.40779"
         id="path4217"
         inkscape:connector-curvature="0"
         sodipodi:nodetypes="cssccaac" />
      <path
         style="opacity:0.2;fill:none;fill-rule:evenodd;stroke:#ffffff;stroke-width:15.99999905;stroke-linecap:square;stroke-linejoin:miter;stroke-miterlimit:4;stroke-dasharray:none;stroke-opacity:1"
         d="m 312,6 25.72886,0.559736 c 50.64049,1.101693 98.73938,13.754793 116.68481,41.668326 41.8688,65.126388 -41.05906,86.244308 -74.37791,40.250608 -31.13645,-50.484277 -20.37661,-155.369308 24.48455,-167.548837 81.17498,-18.539383 94.61829,110.573233 144.59222,85.367478 38.6016,-19.469799 -24.40449,-107.961031 13.35839,-129.011471 16.18555,-9.02243 50.04369,24.20775 50.04369,24.20775"
         id="path4329"
         inkscape:connector-curvature="0"
         sodipodi:nodetypes="cssccaac" />
      <path
         sodipodi:nodetypes="cssccaac"
         inkscape:connector-curvature="0"
         id="path4219"
         d="m 312,4 25.72886,0.559736 c 50.64049,1.101693 98.73938,13.754793 116.68481,41.668326 41.8688,65.126388 -41.05906,86.244308 -74.37791,40.250608 -31.13645,-50.484277 -20.37661,-155.369308 24.48455,-167.548837 81.17498,-18.539383 94.61829,110.573233 144.59222,85.367478 38.6016,-19.469799 -24.40449,-107.961031 13.35839,-129.011471 16.18555,-9.02243 50.04369,24.20775 50.04369,24.20775"
         style="opacity:1;fill:none;fill-rule:evenodd;stroke:#cb9a05;stroke-width:15.99999905;stroke-linecap:square;stroke-linejoin:miter;stroke-miterlimit:4;stroke-dasharray:none;stroke-opacity:1" />
    </g>
  </g>
</svg>
