<?xml version="1.0" encoding="UTF-8" standalone="no"?>
<!-- Created with Inkscape (http://www.inkscape.org/) -->

<svg
   xmlns:dc="http://purl.org/dc/elements/1.1/"
   xmlns:cc="http://creativecommons.org/ns#"
   xmlns:rdf="http://www.w3.org/1999/02/22-rdf-syntax-ns#"
   xmlns:svg="http://www.w3.org/2000/svg"
   xmlns="http://www.w3.org/2000/svg"
   xmlns:sodipodi="http://sodipodi.sourceforge.net/DTD/sodipodi-0.dtd"
   xmlns:inkscape="http://www.inkscape.org/namespaces/inkscape"
   inkscape:export-ydpi="90.000000"
   inkscape:export-xdpi="90.000000"
   width="736"
   height="544"
   id="svg11300"
   sodipodi:version="0.32"
   inkscape:version="0.91 r13725"
   sodipodi:docname="keys.svg"
   inkscape:output_extension="org.inkscape.output.svg.inkscape"
   version="1.0"
   style="display:inline;enable-background:new"
   inkscape:export-filename="/home/sam/paper-template.png">
  <title
     id="title3004">Paper Icon Theme Template</title>
  <sodipodi:namedview
     stroke="#ef2929"
     fill="#f57900"
     id="base"
     pagecolor="#646464"
     bordercolor="#666666"
     borderopacity="0.25490196"
     inkscape:pageopacity="0"
     inkscape:pageshadow="2"
     inkscape:zoom="1"
     inkscape:cx="205.10124"
     inkscape:cy="582.37098"
     inkscape:current-layer="layer6"
     showgrid="false"
     inkscape:grid-bbox="true"
     inkscape:document-units="px"
     inkscape:showpageshadow="false"
     inkscape:window-width="1920"
     inkscape:window-height="1019"
     inkscape:window-x="0"
     inkscape:window-y="27"
     width="400px"
     height="300px"
     inkscape:snap-nodes="true"
     inkscape:snap-bbox="true"
     gridtolerance="10000"
     inkscape:object-nodes="true"
     inkscape:snap-grids="true"
     showguides="true"
     inkscape:guide-bbox="true"
     inkscape:window-maximized="1"
     inkscape:bbox-paths="true"
     inkscape:snap-bbox-midpoints="true"
     inkscape:snap-global="true"
     inkscape:object-paths="true"
     inkscape:snap-intersection-paths="true"
     inkscape:snap-smooth-nodes="true">
    <inkscape:grid
       spacingy="1px"
       spacingx="1px"
       id="grid5883"
       type="xygrid"
       enabled="true"
       visible="true"
       empspacing="4"
       snapvisiblegridlinesonly="true" />
    <inkscape:grid
       type="xygrid"
       id="grid11592"
       empspacing="2"
       visible="true"
       enabled="false"
       spacingx="0.5px"
       spacingy="0.5px"
       color="#ff0000"
       opacity="0.1254902"
       empcolor="#ff0000"
       empopacity="0.25098039"
       snapvisiblegridlinesonly="true" />
  </sodipodi:namedview>
  <defs
     id="defs3">
    <filter
       inkscape:collect="always"
       style="color-interpolation-filters:sRGB"
       id="filter4431"
       x="-0.018857143"
       width="1.0377143"
       y="-0.033"
       height="1.066">
      <feGaussianBlur
         inkscape:collect="always"
         stdDeviation="3.52"
         id="feGaussianBlur4433" />
    </filter>
    <filter
       inkscape:collect="always"
       style="color-interpolation-filters:sRGB"
       id="filter4441"
       x="-0.12"
       width="1.24"
       y="-0.12"
       height="1.24">
      <feGaussianBlur
         inkscape:collect="always"
         stdDeviation="0.17142857"
         id="feGaussianBlur4443" />
    </filter>
  </defs>
  <metadata
     id="metadata4">
    <rdf:RDF>
      <cc:Work
         rdf:about="">
        <dc:format>image/svg+xml</dc:format>
        <dc:type
           rdf:resource="http://purl.org/dc/dcmitype/StillImage" />
        <dc:creator>
          <cc:Agent>
            <dc:title>Sam Hewitt</dc:title>
          </cc:Agent>
        </dc:creator>
        <dc:source />
        <cc:license
           rdf:resource="http://creativecommons.org/licenses/by-sa/3.0/" />
        <dc:title>Paper Icon Theme Template</dc:title>
        <dc:subject>
          <rdf:Bag />
        </dc:subject>
        <dc:date />
        <dc:rights>
          <cc:Agent>
            <dc:title />
          </cc:Agent>
        </dc:rights>
        <dc:publisher>
          <cc:Agent>
            <dc:title />
          </cc:Agent>
        </dc:publisher>
        <dc:identifier />
        <dc:relation />
        <dc:language />
        <dc:coverage />
        <dc:description />
        <dc:contributor>
          <cc:Agent>
            <dc:title />
          </cc:Agent>
        </dc:contributor>
      </cc:Work>
      <cc:Work
         rdf:about="">
        <dc:format>image/svg+xml</dc:format>
        <dc:type
           rdf:resource="http://purl.org/dc/dcmitype/StillImage" />
      </cc:Work>
      <cc:License
         rdf:about="http://creativecommons.org/licenses/by-sa/3.0/">
        <cc:permits
           rdf:resource="http://creativecommons.org/ns#Reproduction" />
        <cc:permits
           rdf:resource="http://creativecommons.org/ns#Distribution" />
        <cc:requires
           rdf:resource="http://creativecommons.org/ns#Notice" />
        <cc:requires
           rdf:resource="http://creativecommons.org/ns#Attribution" />
        <cc:permits
           rdf:resource="http://creativecommons.org/ns#DerivativeWorks" />
        <cc:requires
           rdf:resource="http://creativecommons.org/ns#ShareAlike" />
      </cc:License>
    </rdf:RDF>
  </metadata>
  <g
     style="display:inline"
     inkscape:groupmode="layer"
     inkscape:label="password-manager"
     id="layer1"
     transform="translate(0,244)">
    <g
       style="display:none"
       inkscape:label="Baseplate (password-manager)"
       id="layer7"
       inkscape:groupmode="layer">
      <text
         y="337.74512"
         xml:space="preserve"
         x="15.006836"
         style="font-style:normal;font-variant:normal;font-weight:normal;font-stretch:normal;font-size:18px;font-family:'DejaVu Sans';-inkscape-font-specification:'DejaVu Sans';display:inline;fill:#000000;fill-opacity:1;stroke:none;enable-background:new"
         inkscape:label="context"
         id="context"><tspan
           style="font-style:normal;font-variant:normal;font-weight:normal;font-stretch:normal;font-family:'DejaVu Sans';-inkscape-font-specification:'DejaVu Sans'"
           y="337.74512"
           x="15.006836"
           sodipodi:role="line"
           id="tspan3933">apps</tspan></text>
      <text
         y="337.74512"
         xml:space="preserve"
         x="142.48828"
         style="font-style:normal;font-variant:normal;font-weight:bold;font-stretch:normal;font-size:18px;line-height:125%;font-family:'DejaVu Sans';-inkscape-font-specification:'DejaVu Sans Bold';text-align:start;writing-mode:lr-tb;text-anchor:start;display:inline;fill:#000000;fill-opacity:1;stroke:none;enable-background:new"
         sodipodi:linespacing="125%"
         inkscape:label="icon-name"
         id="icon-name"><tspan
           style="font-style:normal;font-variant:normal;font-weight:bold;font-stretch:normal;font-size:18px;font-family:'DejaVu Sans';-inkscape-font-specification:'DejaVu Sans Bold'"
           y="337.74512"
           x="142.48828"
           sodipodi:role="line"
           id="tspan3937">password-manager</tspan></text>
      <rect
         style="display:inline;overflow:visible;visibility:visible;fill:#e9e9e9;fill-opacity:1;fill-rule:nonzero;stroke:none;stroke-width:2;marker:none;enable-background:accumulate"
         id="rect16x16"
         width="16"
         height="16"
         x="-32"
         y="268"
         inkscape:label="16x16"
         transform="scale(-1,1)" />
      <rect
         style="display:inline;overflow:visible;visibility:visible;fill:#e9e9e9;fill-opacity:1;fill-rule:nonzero;stroke:none;stroke-width:2;marker:none;enable-background:accumulate"
         id="rect24x24"
         width="24"
         height="24"
         x="-76"
         y="260"
         inkscape:label="24x24"
         transform="scale(-1,1)" />
      <rect
         style="display:inline;overflow:visible;visibility:visible;fill:#e9e9e9;fill-opacity:1;fill-rule:nonzero;stroke:none;stroke-width:2;marker:none;enable-background:accumulate"
         id="rect32x32"
         width="32"
         height="32"
         x="-128"
         y="252"
         inkscape:label="32x32"
         transform="scale(-1,1)" />
      <rect
         inkscape:label="48x48"
         y="236"
         x="-192"
         height="48"
         width="48"
         id="rect48x48"
         style="display:inline;overflow:visible;visibility:visible;fill:#e9e9e9;fill-opacity:1;fill-rule:nonzero;stroke:none;stroke-width:2;marker:none;enable-background:accumulate"
         transform="scale(-1,1)" />
      <rect
         style="display:inline;overflow:visible;visibility:visible;fill:#e9e9e9;fill-opacity:1;fill-rule:nonzero;stroke:none;stroke-width:2;marker:none;enable-background:accumulate"
         id="rect3951"
         width="512"
         height="512"
         x="-720"
         y="-228.00002"
         inkscape:label="48x48"
         transform="scale(-1,1)" />
    </g>
    <g
       inkscape:groupmode="layer"
       id="g4176"
       inkscape:label="Baseplate (dialog-authentication)"
       style="display:none">
      <text
         id="text4178"
         inkscape:label="context"
         style="font-style:normal;font-variant:normal;font-weight:normal;font-stretch:normal;font-size:18px;font-family:'DejaVu Sans';-inkscape-font-specification:'DejaVu Sans';display:inline;fill:#000000;fill-opacity:1;stroke:none;enable-background:new"
         x="15.006836"
         xml:space="preserve"
         y="337.74512"><tspan
           id="tspan4180"
           sodipodi:role="line"
           x="15.006836"
           y="337.74512"
           style="font-style:normal;font-variant:normal;font-weight:normal;font-stretch:normal;font-family:'DejaVu Sans';-inkscape-font-specification:'DejaVu Sans'">status</tspan></text>
      <text
         id="text4182"
         inkscape:label="icon-name"
         sodipodi:linespacing="125%"
         style="font-style:normal;font-variant:normal;font-weight:bold;font-stretch:normal;font-size:18px;line-height:125%;font-family:'DejaVu Sans';-inkscape-font-specification:'DejaVu Sans Bold';text-align:start;writing-mode:lr-tb;text-anchor:start;display:inline;fill:#000000;fill-opacity:1;stroke:none;enable-background:new"
         x="142.48828"
         xml:space="preserve"
         y="337.74512"><tspan
           id="tspan4184"
           sodipodi:role="line"
           x="142.48828"
           y="337.74512"
           style="font-style:normal;font-variant:normal;font-weight:bold;font-stretch:normal;font-size:18px;font-family:'DejaVu Sans';-inkscape-font-specification:'DejaVu Sans Bold'">dialog-authentication</tspan></text>
      <rect
         transform="scale(-1,1)"
         inkscape:label="16x16"
         y="268"
         x="-32"
         height="16"
         width="16"
         id="rect4186"
         style="display:inline;overflow:visible;visibility:visible;fill:#e9e9e9;fill-opacity:1;fill-rule:nonzero;stroke:none;stroke-width:2;marker:none;enable-background:accumulate" />
      <rect
         transform="scale(-1,1)"
         inkscape:label="24x24"
         y="260"
         x="-76"
         height="24"
         width="24"
         id="rect4188"
         style="display:inline;overflow:visible;visibility:visible;fill:#e9e9e9;fill-opacity:1;fill-rule:nonzero;stroke:none;stroke-width:2;marker:none;enable-background:accumulate" />
      <rect
         transform="scale(-1,1)"
         inkscape:label="32x32"
         y="252"
         x="-128"
         height="32"
         width="32"
         id="rect4190"
         style="display:inline;overflow:visible;visibility:visible;fill:#e9e9e9;fill-opacity:1;fill-rule:nonzero;stroke:none;stroke-width:2;marker:none;enable-background:accumulate" />
      <rect
         transform="scale(-1,1)"
         style="display:inline;overflow:visible;visibility:visible;fill:#e9e9e9;fill-opacity:1;fill-rule:nonzero;stroke:none;stroke-width:2;marker:none;enable-background:accumulate"
         id="rect4192"
         width="48"
         height="48"
         x="-192"
         y="236"
         inkscape:label="48x48" />
      <rect
         transform="scale(-1,1)"
         inkscape:label="48x48"
         y="-228.00002"
         x="-720"
         height="512"
         width="512"
         id="rect4194"
         style="display:inline;overflow:visible;visibility:visible;fill:#e9e9e9;fill-opacity:1;fill-rule:nonzero;stroke:none;stroke-width:2;marker:none;enable-background:accumulate" />
    </g>
    <g
       inkscape:groupmode="layer"
       id="layer6"
       inkscape:label="Symbols"
       style="display:inline">
      <g
         id="g4398">
        <path
           sodipodi:nodetypes="cscccccccccc"
           inkscape:connector-curvature="0"
           id="path4435"
           d="m 368,-96 c -70.69245,0 -128,57.30755 -128,128 0,70.69245 57.30755,128 128,128 52.09096,-0.0751 98.94053,-31.71032 118.47461,-80 L 576,80 l 0,48 80,0 0,-48 32,0 0,-96 -201.66211,0 C 466.82258,-64.24361 420.0411,-95.86931 368,-96 Z"
           style="opacity:0.1;fill:#000000;fill-opacity:1;stroke:#000000;stroke-width:8;stroke-linecap:round;stroke-linejoin:miter;stroke-miterlimit:4;stroke-dasharray:none;stroke-opacity:1;filter:url(#filter4431)" />
        <path
           style="opacity:0.2;fill:#000000;fill-opacity:1;stroke:none;stroke-width:8;stroke-linecap:round;stroke-linejoin:miter;stroke-miterlimit:4;stroke-dasharray:none;stroke-opacity:1;filter:url(#filter4431)"
           d="m 368,-96 c -70.69245,0 -128,57.30755 -128,128 0,70.69245 57.30755,128 128,128 52.09096,-0.0751 98.94053,-31.71032 118.47461,-80 L 576,80 l 0,48 80,0 0,-48 32,0 0,-96 -201.66211,0 C 466.82258,-64.24361 420.0411,-95.86931 368,-96 Z"
           id="path4429"
           inkscape:connector-curvature="0"
           sodipodi:nodetypes="cscccccccccc" />
        <path
           inkscape:connector-curvature="0"
           id="rect4395"
           d="m 59,267 a 6,6 0 0 0 -6,6 6,6 0 0 0 6,6 6,6 0 0 0 5.648438,-4 L 69,275 l 0,3 4,0 0,-3 2,0 0,-4 -10.349609,0 A 6,6 0 0 0 59,267 Z"
           style="opacity:0.2;fill:#000000;fill-opacity:1;stroke:none;stroke-width:8;stroke-linecap:round;stroke-linejoin:miter;stroke-miterlimit:4;stroke-dasharray:none;stroke-opacity:1" />
        <path
           style="display:inline;opacity:0.2;fill:#000000;fill-opacity:1;stroke:none;stroke-width:31;stroke-miterlimit:4;stroke-dasharray:none;stroke-opacity:1;enable-background:new"
           d="m 20.5,273.00336 c -2.48528,0 -4.5,2.01472 -4.5,4.5 0,2.48528 2.01472,4.5 4.5,4.5 1.90471,-0.003 3.60143,-1.20422 4.23633,-3 l 3.26367,-0.004 0,2 3,0 0,-2.00391 1,0.004 0,-3 -7.26367,0.004 c -0.6349,-1.79578 -2.33162,-2.99733 -4.23633,-3 z"
           id="path4393"
           inkscape:connector-curvature="0"
           sodipodi:nodetypes="ssccccccccccs" />
        <path
           inkscape:connector-curvature="0"
           id="rect4386"
           d="m 159,250 a 10.999999,10.999999 0 0 0 -11,11 10.999999,10.999999 0 0 0 11,11 10.999999,10.999999 0 0 0 10.57227,-8 l 8.42773,0 0,5.02734 6.96484,0 0,-5.02734 3.03516,0 0,-7 -18.75391,0 A 10.999999,10.999999 0 0 0 159,250 Z"
           style="opacity:0.2;fill:#000000;fill-opacity:1;stroke:none;stroke-width:8;stroke-linecap:round;stroke-linejoin:miter;stroke-miterlimit:4;stroke-dasharray:none;stroke-opacity:1" />
        <path
           inkscape:connector-curvature="0"
           id="rect4379"
           d="m 106,261 a 8,8 0 0 0 -8,8 8,8 0 0 0 8,8 8,8 0 0 0 7.41016,-5 l 4.58984,0 0,3 5,0 0,-3 3,0 0,-6 -12.58789,0 A 8,8 0 0 0 106,261 Z"
           style="opacity:0.2;fill:#000000;fill-opacity:1;stroke:none;stroke-width:8;stroke-linecap:round;stroke-linejoin:miter;stroke-miterlimit:4;stroke-dasharray:none;stroke-opacity:1" />
        <path
           inkscape:connector-curvature="0"
           id="rect4297"
           transform="translate(0,-244)"
           d="m 159,493 a 10.999999,10.999999 0 0 0 -11,11 10.999999,10.999999 0 0 0 11,11 10.999999,10.999999 0 0 0 10.57227,-8 l 8.42773,0 0,5.02734 6.96484,0 0,-5.02734 3.03516,0 0,-7 -18.75391,0 A 10.999999,10.999999 0 0 0 159,493 Z"
           style="opacity:1;fill:#c3c4b4;fill-opacity:1;stroke:none;stroke-width:8;stroke-linecap:round;stroke-linejoin:miter;stroke-miterlimit:4;stroke-dasharray:none;stroke-opacity:1" />
        <circle
           r="4"
           cy="261"
           cx="159"
           id="circle4353"
           style="opacity:0.2;fill:#000000;fill-opacity:1;stroke:none;stroke-width:8;stroke-linecap:round;stroke-linejoin:miter;stroke-miterlimit:4;stroke-dasharray:none;stroke-opacity:1" />
        <circle
           style="opacity:1;fill:#f9f9f9;fill-opacity:1;stroke:none;stroke-width:8;stroke-linecap:round;stroke-linejoin:miter;stroke-miterlimit:4;stroke-dasharray:none;stroke-opacity:1"
           id="circle4303"
           cx="159"
           cy="260"
           r="4" />
        <path
           sodipodi:nodetypes="cscccccccccc"
           inkscape:connector-curvature="0"
           id="rect4262"
           transform="translate(0,-244)"
           d="m 368,144 c -70.69245,0 -128,57.30755 -128,128 0,70.69245 57.30755,128 128,128 52.09096,-0.0751 98.94053,-31.71032 118.47461,-80 L 576,320 l 0,48 80,0 0,-48 32,0 0,-96 -201.66211,0 C 466.82258,175.75639 420.0411,144.13069 368,144 Z"
           style="opacity:1;fill:#c3c4b4;fill-opacity:1;stroke:none;stroke-width:8;stroke-linecap:round;stroke-linejoin:miter;stroke-miterlimit:4;stroke-dasharray:none;stroke-opacity:1" />
        <path
           sodipodi:nodetypes="ssccccccccccs"
           inkscape:connector-curvature="0"
           id="path10910"
           d="m 20.5,272.00336 c -2.48528,0 -4.5,2.01472 -4.5,4.5 0,2.48528 2.01472,4.5 4.5,4.5 1.90471,-0.003 3.60143,-1.20422 4.23633,-3 l 3.26367,-0.004 0,2 3,0 0,-2.00391 1,0.004 0,-3 -7.26367,0.004 c -0.6349,-1.79578 -2.33162,-2.99733 -4.23633,-3 z"
           style="display:inline;opacity:1;fill:#c3c4b4;fill-opacity:1;stroke:none;stroke-width:31;stroke-miterlimit:4;stroke-dasharray:none;stroke-opacity:1;enable-background:new" />
        <circle
           style="opacity:0.2;fill:#000000;fill-opacity:1;stroke:none;stroke-width:8;stroke-linecap:round;stroke-linejoin:miter;stroke-miterlimit:4;stroke-dasharray:none;stroke-opacity:1"
           id="circle4355"
           cx="20.5"
           cy="277.5"
           r="1.5" />
        <circle
           r="1.5"
           cy="276.5"
           cx="20.5"
           id="path4162"
           style="opacity:1;fill:#f9f9f9;fill-opacity:1;stroke:none;stroke-width:8;stroke-linecap:round;stroke-linejoin:miter;stroke-miterlimit:4;stroke-dasharray:none;stroke-opacity:1" />
        <circle
           transform="matrix(28,0,0,28,-208,-7712.0941)"
           style="opacity:0.2;fill:#000000;fill-opacity:1;stroke:none;stroke-width:8;stroke-linecap:round;stroke-linejoin:miter;stroke-miterlimit:4;stroke-dasharray:none;stroke-opacity:1;filter:url(#filter4441)"
           id="circle4188"
           cx="20.571428"
           cy="276.71768"
           r="1.7142857" />
        <circle
           r="48"
           cy="27.999893"
           cx="368"
           id="circle4178"
           style="opacity:1;fill:#f9f9f9;fill-opacity:1;stroke:none;stroke-width:8;stroke-linecap:round;stroke-linejoin:miter;stroke-miterlimit:4;stroke-dasharray:none;stroke-opacity:1" />
        <path
           inkscape:connector-curvature="0"
           id="rect4327"
           transform="translate(0,-244)"
           d="m 106,504 a 8,8 0 0 0 -8,8 8,8 0 0 0 8,8 8,8 0 0 0 7.41016,-5 l 4.58984,0 0,3 5,0 0,-3 3,0 0,-6 -12.58789,0 A 8,8 0 0 0 106,504 Z"
           style="opacity:1;fill:#c3c4b4;fill-opacity:1;stroke:none;stroke-width:8;stroke-linecap:round;stroke-linejoin:miter;stroke-miterlimit:4;stroke-dasharray:none;stroke-opacity:1" />
        <circle
           style="opacity:0.2;fill:#000000;fill-opacity:1;stroke:none;stroke-width:8;stroke-linecap:round;stroke-linejoin:miter;stroke-miterlimit:4;stroke-dasharray:none;stroke-opacity:1"
           id="circle4357"
           cx="106"
           cy="269"
           r="3.0000005" />
        <circle
           r="3.0000005"
           cy="268"
           cx="106"
           id="circle4333"
           style="opacity:1;fill:#f9f9f9;fill-opacity:1;stroke:none;stroke-width:8;stroke-linecap:round;stroke-linejoin:miter;stroke-miterlimit:4;stroke-dasharray:none;stroke-opacity:1" />
        <path
           inkscape:connector-curvature="0"
           id="rect4345"
           transform="translate(0,-244)"
           d="m 59,510 a 6,6 0 0 0 -6,6 6,6 0 0 0 6,6 6,6 0 0 0 5.648438,-4 L 69,518 l 0,3 4,0 0,-3 2,0 0,-4 -10.349609,0 A 6,6 0 0 0 59,510 Z"
           style="opacity:1;fill:#c3c4b4;fill-opacity:1;stroke:none;stroke-width:8;stroke-linecap:round;stroke-linejoin:miter;stroke-miterlimit:4;stroke-dasharray:none;stroke-opacity:1" />
        <circle
           r="2"
           cy="273"
           cx="59"
           id="circle4359"
           style="opacity:0.2;fill:#000000;fill-opacity:1;stroke:none;stroke-width:8;stroke-linecap:round;stroke-linejoin:miter;stroke-miterlimit:4;stroke-dasharray:none;stroke-opacity:1" />
        <circle
           style="opacity:1;fill:#f9f9f9;fill-opacity:1;stroke:none;stroke-width:8;stroke-linecap:round;stroke-linejoin:miter;stroke-miterlimit:4;stroke-dasharray:none;stroke-opacity:1"
           id="circle4351"
           cx="59"
           cy="272"
           r="2" />
        <path
           inkscape:connector-curvature="0"
           id="path4403"
           transform="translate(0,-244)"
           d="m 159,493 a 10.999999,10.999999 0 0 0 -11,11 10.999999,10.999999 0 0 0 0.0215,0.41406 A 10.999999,10.999999 0 0 1 159,494 a 10.999999,10.999999 0 0 1 10.24609,7 L 188,501 l 0,-1 -18.75391,0 A 10.999999,10.999999 0 0 0 159,493 Z"
           style="opacity:0.2;fill:#ffffff;fill-opacity:1;stroke:none;stroke-width:8;stroke-linecap:round;stroke-linejoin:miter;stroke-miterlimit:4;stroke-dasharray:none;stroke-opacity:1" />
        <path
           inkscape:connector-curvature="0"
           id="path4410"
           transform="translate(0,-244)"
           d="m 106,504 a 8,8 0 0 0 -8,8 8,8 0 0 0 0.02148,0.42383 A 8,8 0 0 1 106,505 a 8,8 0 0 1 7.41211,5 L 126,510 l 0,-1 -12.58789,0 A 8,8 0 0 0 106,504 Z"
           style="opacity:0.2;fill:#ffffff;fill-opacity:1;stroke:none;stroke-width:8;stroke-linecap:round;stroke-linejoin:miter;stroke-miterlimit:4;stroke-dasharray:none;stroke-opacity:1" />
        <path
           inkscape:connector-curvature="0"
           id="path4415"
           transform="translate(0,-244)"
           d="m 59,510 a 6,6 0 0 0 -6,6 6,6 0 0 0 0.02539,0.50195 A 6,6 0 0 1 59,511 a 6,6 0 0 1 5.650391,4 L 75,515 l 0,-1 -10.349609,0 A 6,6 0 0 0 59,510 Z"
           style="opacity:0.2;fill:#ffffff;fill-opacity:1;stroke:none;stroke-width:8;stroke-linecap:round;stroke-linejoin:miter;stroke-miterlimit:4;stroke-dasharray:none;stroke-opacity:1" />
        <path
           inkscape:connector-curvature="0"
           id="path4418"
           transform="translate(0,-244)"
           d="m 20.5,516.00391 c -2.48528,0 -4.5,2.01472 -4.5,4.5 0,0.1714 0.03212,0.33358 0.05078,0.5 0.251896,-2.24661 2.135342,-4 4.449219,-4 1.90471,0.003 3.601428,1.20422 4.236328,3 L 32,520 l 0,-1 -7.263672,0.004 c -0.6349,-1.79578 -2.331618,-2.99733 -4.236328,-3 z"
           style="display:inline;opacity:0.2;fill:#ffffff;fill-opacity:1;stroke:none;stroke-width:31;stroke-miterlimit:4;stroke-dasharray:none;stroke-opacity:1;enable-background:new" />
      </g>
      <path
         id="path4229"
         d="m 369,-100 c -70.69245,0 -128,57.30755 -128,128 0,0.33424 0.009,0.66636 0.0117,1 0.53837,-70.23126 57.63007,-127 127.98828,-127 52.0411,0.13069 98.82258,31.75639 118.33789,80 L 689,-18 l 0,-2 -201.66211,0 C 467.82258,-68.24361 421.0411,-99.86931 369,-100 Z"
         style="display:inline;enable-background:new;opacity:0.2;fill:#ffffff;fill-opacity:1;stroke:none;stroke-width:8;stroke-linecap:round;stroke-linejoin:miter;stroke-miterlimit:4;stroke-dasharray:none;stroke-opacity:1"
         inkscape:connector-curvature="0" />
    </g>
  </g>
  <g
     transform="translate(0,244)"
     id="g4186"
     inkscape:label="keepass"
     inkscape:groupmode="layer"
     style="display:inline">
    <g
       inkscape:groupmode="layer"
       id="g4188"
       inkscape:label="Baseplate"
       style="display:none">
      <text
         id="text4190"
         inkscape:label="context"
         style="font-style:normal;font-variant:normal;font-weight:normal;font-stretch:normal;font-size:18px;font-family:'DejaVu Sans';-inkscape-font-specification:'DejaVu Sans';display:inline;fill:#000000;fill-opacity:1;stroke:none;enable-background:new"
         x="15.006836"
         xml:space="preserve"
         y="-302.25488"><tspan
           id="tspan4192"
           sodipodi:role="line"
           x="15.006836"
           y="-302.25488"
           style="font-style:normal;font-variant:normal;font-weight:normal;font-stretch:normal;font-family:'DejaVu Sans';-inkscape-font-specification:'DejaVu Sans'">apps</tspan></text>
      <text
         id="text4194"
         inkscape:label="icon-name"
         sodipodi:linespacing="125%"
         style="font-style:normal;font-variant:normal;font-weight:bold;font-stretch:normal;font-size:18px;line-height:125%;font-family:'DejaVu Sans';-inkscape-font-specification:'DejaVu Sans Bold';text-align:start;writing-mode:lr-tb;text-anchor:start;display:inline;fill:#000000;fill-opacity:1;stroke:none;enable-background:new"
         x="142.48828"
         xml:space="preserve"
         y="-302.25488"><tspan
           id="tspan4196"
           sodipodi:role="line"
           x="142.48828"
           y="-302.25488"
           style="font-style:normal;font-variant:normal;font-weight:bold;font-stretch:normal;font-size:18px;font-family:'DejaVu Sans';-inkscape-font-specification:'DejaVu Sans Bold'">keepass</tspan></text>
      <rect
         transform="scale(-1,1)"
         inkscape:label="16x16"
         y="-372"
         x="-32"
         height="16"
         width="16"
         id="rect4198"
         style="display:inline;overflow:visible;visibility:visible;fill:#e9e9e9;fill-opacity:1;fill-rule:nonzero;stroke:none;stroke-width:2;marker:none;enable-background:accumulate" />
      <rect
         transform="scale(-1,1)"
         inkscape:label="24x24"
         y="-380"
         x="-76"
         height="24"
         width="24"
         id="rect4200"
         style="display:inline;overflow:visible;visibility:visible;fill:#e9e9e9;fill-opacity:1;fill-rule:nonzero;stroke:none;stroke-width:2;marker:none;enable-background:accumulate" />
      <rect
         transform="scale(-1,1)"
         inkscape:label="32x32"
         y="-388"
         x="-128"
         height="32"
         width="32"
         id="rect4202"
         style="display:inline;overflow:visible;visibility:visible;fill:#e9e9e9;fill-opacity:1;fill-rule:nonzero;stroke:none;stroke-width:2;marker:none;enable-background:accumulate" />
      <rect
         transform="scale(-1,1)"
         style="display:inline;overflow:visible;visibility:visible;fill:#e9e9e9;fill-opacity:1;fill-rule:nonzero;stroke:none;stroke-width:2;marker:none;enable-background:accumulate"
         id="rect4204"
         width="48"
         height="48"
         x="-192"
         y="-404"
         inkscape:label="48x48" />
      <rect
         transform="scale(-1,1)"
         inkscape:label="48x48"
         y="-868"
         x="-720"
         height="512"
         width="512"
         id="rect4206"
         style="display:inline;overflow:visible;visibility:visible;fill:#e9e9e9;fill-opacity:1;fill-rule:nonzero;stroke:none;stroke-width:2;marker:none;enable-background:accumulate" />
    </g>
    <g
       style="display:inline"
       inkscape:label="Symbols"
       id="g4228"
       inkscape:groupmode="layer">
      <path
         sodipodi:nodetypes="cscccccccccc"
         inkscape:connector-curvature="0"
         id="path4432"
         d="m 369,-736 c -70.69245,0 -128,57.30755 -128,128 0,70.69245 57.30755,128 128,128 52.09096,-0.0751 98.94053,-31.71032 118.47461,-80 l 89.52539,0 0,48 80,0 0,-48 32,0 0,-96 -201.66211,0 C 467.82258,-704.24361 421.0411,-735.86931 369,-736 Z"
         style="opacity:0.1;fill:#000000;fill-opacity:1;stroke:#000000;stroke-width:8;stroke-linecap:round;stroke-linejoin:miter;stroke-miterlimit:4;stroke-dasharray:none;stroke-opacity:1;filter:url(#filter4431)" />
      <path
         style="opacity:0.2;fill:#000000;fill-opacity:1;stroke:none;stroke-width:8;stroke-linecap:round;stroke-linejoin:miter;stroke-miterlimit:4;stroke-dasharray:none;stroke-opacity:1;filter:url(#filter4431)"
         d="m 369,-736 c -70.69245,0 -128,57.30755 -128,128 0,70.69245 57.30755,128 128,128 52.09096,-0.0751 98.94053,-31.71032 118.47461,-80 l 89.52539,0 0,48 80,0 0,-48 32,0 0,-96 -201.66211,0 C 467.82258,-704.24361 421.0411,-735.86931 369,-736 Z"
         id="path4434"
         inkscape:connector-curvature="0"
         sodipodi:nodetypes="cscccccccccc" />
      <path
         inkscape:connector-curvature="0"
         id="path4436"
         d="m 60,-373 a 6,6 0 0 0 -6,6 6,6 0 0 0 6,6 6,6 0 0 0 5.648438,-4 L 70,-365 l 0,3 4,0 0,-3 2,0 0,-4 -10.349609,0 A 6,6 0 0 0 60,-373 Z"
         style="opacity:0.2;fill:#000000;fill-opacity:1;stroke:none;stroke-width:8;stroke-linecap:round;stroke-linejoin:miter;stroke-miterlimit:4;stroke-dasharray:none;stroke-opacity:1" />
      <path
         style="display:inline;opacity:0.2;fill:#000000;fill-opacity:1;stroke:none;stroke-width:31;stroke-miterlimit:4;stroke-dasharray:none;stroke-opacity:1;enable-background:new"
         d="m 21.5,-366.99664 c -2.48528,0 -4.5,2.01472 -4.5,4.5 0,2.48528 2.01472,4.5 4.5,4.5 1.90471,-0.003 3.60143,-1.20422 4.23633,-3 l 3.26367,-0.004 0,2 3,0 0,-2.00391 1,0.004 0,-3 -7.26367,0.004 c -0.6349,-1.79578 -2.33162,-2.99733 -4.23633,-3 z"
         id="path4438"
         inkscape:connector-curvature="0"
         sodipodi:nodetypes="ssccccccccccs" />
      <path
         inkscape:connector-curvature="0"
         id="path4440"
         d="m 160,-390 a 10.999999,10.999999 0 0 0 -11,11 10.999999,10.999999 0 0 0 11,11 10.999999,10.999999 0 0 0 10.57227,-8 l 8.42773,0 0,5.02734 6.96484,0 0,-5.02734 3.03516,0 0,-7 -18.75391,0 A 10.999999,10.999999 0 0 0 160,-390 Z"
         style="opacity:0.2;fill:#000000;fill-opacity:1;stroke:none;stroke-width:8;stroke-linecap:round;stroke-linejoin:miter;stroke-miterlimit:4;stroke-dasharray:none;stroke-opacity:1" />
      <path
         inkscape:connector-curvature="0"
         id="path4442"
         d="m 107,-379 a 8,8 0 0 0 -8,8 8,8 0 0 0 8,8 8,8 0 0 0 7.41016,-5 l 4.58984,0 0,3 5,0 0,-3 3,0 0,-6 -12.58789,0 A 8,8 0 0 0 107,-379 Z"
         style="opacity:0.2;fill:#000000;fill-opacity:1;stroke:none;stroke-width:8;stroke-linecap:round;stroke-linejoin:miter;stroke-miterlimit:4;stroke-dasharray:none;stroke-opacity:1" />
      <path
         inkscape:connector-curvature="0"
         id="path4444"
         d="m 160,-391 a 10.999999,10.999999 0 0 0 -11,11 10.999999,10.999999 0 0 0 11,11 10.999999,10.999999 0 0 0 10.57227,-8 l 8.42773,0 0,5.02734 6.96484,0 0,-5.02734 3.03516,0 0,-7 -18.75391,0 A 10.999999,10.999999 0 0 0 160,-391 Z"
         style="opacity:1;fill:#4bae4f;fill-opacity:1;stroke:none;stroke-width:8;stroke-linecap:round;stroke-linejoin:miter;stroke-miterlimit:4;stroke-dasharray:none;stroke-opacity:1" />
      <circle
         r="4"
         cy="-379"
         cx="160"
         id="circle4446"
         style="opacity:0.2;fill:#000000;fill-opacity:1;stroke:none;stroke-width:8;stroke-linecap:round;stroke-linejoin:miter;stroke-miterlimit:4;stroke-dasharray:none;stroke-opacity:1" />
      <circle
         style="opacity:1;fill:#f9f9f9;fill-opacity:1;stroke:none;stroke-width:8;stroke-linecap:round;stroke-linejoin:miter;stroke-miterlimit:4;stroke-dasharray:none;stroke-opacity:1"
         id="circle4448"
         cx="160"
         cy="-380"
         r="4" />
      <path
         sodipodi:nodetypes="cscccccccccc"
         inkscape:connector-curvature="0"
         id="path4450"
         d="m 369,-740 c -70.69245,0 -128,57.30755 -128,128 0,70.69245 57.30755,128 128,128 52.09096,-0.0751 98.94053,-31.71032 118.47461,-80 l 89.52539,0 0,48 80,0 0,-48 32,0 0,-96 -201.66211,0 C 467.82258,-708.24361 421.0411,-739.86931 369,-740 Z"
         style="opacity:1;fill:#4bae4f;fill-opacity:1;stroke:none;stroke-width:8;stroke-linecap:round;stroke-linejoin:miter;stroke-miterlimit:4;stroke-dasharray:none;stroke-opacity:1" />
      <path
         sodipodi:nodetypes="ssccccccccccs"
         inkscape:connector-curvature="0"
         id="path4452"
         d="m 21.5,-367.99664 c -2.48528,0 -4.5,2.01472 -4.5,4.5 0,2.48528 2.01472,4.5 4.5,4.5 1.90471,-0.003 3.60143,-1.20422 4.23633,-3 l 3.26367,-0.004 0,2 3,0 0,-2.00391 1,0.004 0,-3 -7.26367,0.004 c -0.6349,-1.79578 -2.33162,-2.99733 -4.23633,-3 z"
         style="display:inline;opacity:1;fill:#4bae4f;fill-opacity:1;stroke:none;stroke-width:31;stroke-miterlimit:4;stroke-dasharray:none;stroke-opacity:1;enable-background:new" />
      <circle
         style="opacity:0.2;fill:#000000;fill-opacity:1;stroke:none;stroke-width:8;stroke-linecap:round;stroke-linejoin:miter;stroke-miterlimit:4;stroke-dasharray:none;stroke-opacity:1"
         id="circle4454"
         cx="21.5"
         cy="-362.5"
         r="1.5" />
      <circle
         r="1.5"
         cy="-363.5"
         cx="21.5"
         id="circle4456"
         style="opacity:1;fill:#f9f9f9;fill-opacity:1;stroke:none;stroke-width:8;stroke-linecap:round;stroke-linejoin:miter;stroke-miterlimit:4;stroke-dasharray:none;stroke-opacity:1" />
      <circle
         transform="matrix(28,0,0,28,-207,-8352.0941)"
         style="opacity:0.2;fill:#000000;fill-opacity:1;stroke:none;stroke-width:8;stroke-linecap:round;stroke-linejoin:miter;stroke-miterlimit:4;stroke-dasharray:none;stroke-opacity:1;filter:url(#filter4441)"
         id="circle4458"
         cx="20.571428"
         cy="276.71768"
         r="1.7142857" />
      <circle
         r="48"
         cy="-612.00012"
         cx="369"
         id="circle4460"
         style="opacity:1;fill:#f9f9f9;fill-opacity:1;stroke:none;stroke-width:8;stroke-linecap:round;stroke-linejoin:miter;stroke-miterlimit:4;stroke-dasharray:none;stroke-opacity:1" />
      <path
         inkscape:connector-curvature="0"
         id="path4462"
         d="m 107,-380 a 8,8 0 0 0 -8,8 8,8 0 0 0 8,8 8,8 0 0 0 7.41016,-5 l 4.58984,0 0,3 5,0 0,-3 3,0 0,-6 -12.58789,0 A 8,8 0 0 0 107,-380 Z"
         style="opacity:1;fill:#4bae4f;fill-opacity:1;stroke:none;stroke-width:8;stroke-linecap:round;stroke-linejoin:miter;stroke-miterlimit:4;stroke-dasharray:none;stroke-opacity:1" />
      <circle
         style="opacity:0.2;fill:#000000;fill-opacity:1;stroke:none;stroke-width:8;stroke-linecap:round;stroke-linejoin:miter;stroke-miterlimit:4;stroke-dasharray:none;stroke-opacity:1"
         id="circle4464"
         cx="107"
         cy="-371"
         r="3.0000005" />
      <circle
         r="3.0000005"
         cy="-372"
         cx="107"
         id="circle4466"
         style="opacity:1;fill:#f9f9f9;fill-opacity:1;stroke:none;stroke-width:8;stroke-linecap:round;stroke-linejoin:miter;stroke-miterlimit:4;stroke-dasharray:none;stroke-opacity:1" />
      <path
         inkscape:connector-curvature="0"
         id="path4468"
         d="m 60,-374 a 6,6 0 0 0 -6,6 6,6 0 0 0 6,6 6,6 0 0 0 5.648438,-4 L 70,-366 l 0,3 4,0 0,-3 2,0 0,-4 -10.349609,0 A 6,6 0 0 0 60,-374 Z"
         style="opacity:1;fill:#4bae4f;fill-opacity:1;stroke:none;stroke-width:8;stroke-linecap:round;stroke-linejoin:miter;stroke-miterlimit:4;stroke-dasharray:none;stroke-opacity:1" />
      <circle
         r="2"
         cy="-367"
         cx="60"
         id="circle4470"
         style="opacity:0.2;fill:#000000;fill-opacity:1;stroke:none;stroke-width:8;stroke-linecap:round;stroke-linejoin:miter;stroke-miterlimit:4;stroke-dasharray:none;stroke-opacity:1" />
      <circle
         style="opacity:1;fill:#f9f9f9;fill-opacity:1;stroke:none;stroke-width:8;stroke-linecap:round;stroke-linejoin:miter;stroke-miterlimit:4;stroke-dasharray:none;stroke-opacity:1"
         id="circle4472"
         cx="60"
         cy="-368"
         r="2" />
      <path
         inkscape:connector-curvature="0"
         id="path4474"
         d="m 160,-391 a 10.999999,10.999999 0 0 0 -11,11 10.999999,10.999999 0 0 0 0.0215,0.41406 A 10.999999,10.999999 0 0 1 160,-390 a 10.999999,10.999999 0 0 1 10.24609,7 l 18.75391,0 0,-1 -18.75391,0 A 10.999999,10.999999 0 0 0 160,-391 Z"
         style="opacity:0.2;fill:#ffffff;fill-opacity:1;stroke:none;stroke-width:8;stroke-linecap:round;stroke-linejoin:miter;stroke-miterlimit:4;stroke-dasharray:none;stroke-opacity:1" />
      <path
         inkscape:connector-curvature="0"
         id="path4476"
         d="m 107,-380 a 8,8 0 0 0 -8,8 8,8 0 0 0 0.02148,0.42383 A 8,8 0 0 1 107,-379 a 8,8 0 0 1 7.41211,5 l 12.58789,0 0,-1 -12.58789,0 A 8,8 0 0 0 107,-380 Z"
         style="opacity:0.2;fill:#ffffff;fill-opacity:1;stroke:none;stroke-width:8;stroke-linecap:round;stroke-linejoin:miter;stroke-miterlimit:4;stroke-dasharray:none;stroke-opacity:1" />
      <path
         inkscape:connector-curvature="0"
         id="path4478"
         d="m 60,-374 a 6,6 0 0 0 -6,6 6,6 0 0 0 0.02539,0.50195 A 6,6 0 0 1 60,-373 a 6,6 0 0 1 5.650391,4 L 76,-369 l 0,-1 -10.349609,0 A 6,6 0 0 0 60,-374 Z"
         style="opacity:0.2;fill:#ffffff;fill-opacity:1;stroke:none;stroke-width:8;stroke-linecap:round;stroke-linejoin:miter;stroke-miterlimit:4;stroke-dasharray:none;stroke-opacity:1" />
      <path
         inkscape:connector-curvature="0"
         id="path4480"
         d="m 21.5,-367.99609 c -2.48528,0 -4.5,2.01472 -4.5,4.5 0,0.1714 0.03212,0.33358 0.05078,0.5 0.251896,-2.24661 2.135342,-4 4.449219,-4 1.90471,0.003 3.601428,1.20422 4.236328,3 L 33,-364 l 0,-1 -7.263672,0.004 c -0.6349,-1.79578 -2.331618,-2.99733 -4.236328,-3 z"
         style="display:inline;opacity:0.2;fill:#ffffff;fill-opacity:1;stroke:none;stroke-width:31;stroke-miterlimit:4;stroke-dasharray:none;stroke-opacity:1;enable-background:new" />
      <path
         style="opacity:0.2;fill:#ffffff;fill-opacity:1;stroke:none;stroke-width:8;stroke-linecap:round;stroke-linejoin:miter;stroke-miterlimit:4;stroke-dasharray:none;stroke-opacity:1"
         d="M 369 -496 C 298.30755 -496 241 -438.69245 241 -368 C 241 -367.66576 241.00916 -367.33364 241.01172 -367 C 241.55009 -437.23126 298.64179 -494 369 -494 C 421.0411 -493.86931 467.82258 -462.24361 487.33789 -414 L 689 -414 L 689 -416 L 487.33789 -416 C 467.82258 -464.24361 421.0411 -495.86931 369 -496 z "
         transform="translate(0,-244)"
         id="path4224" />
    </g>
  </g>
</svg>
