<?xml version="1.0" encoding="UTF-8" standalone="no"?>
<!-- Created with Inkscape (http://www.inkscape.org/) -->

<svg
   xmlns:osb="http://www.openswatchbook.org/uri/2009/osb"
   xmlns:dc="http://purl.org/dc/elements/1.1/"
   xmlns:cc="http://creativecommons.org/ns#"
   xmlns:rdf="http://www.w3.org/1999/02/22-rdf-syntax-ns#"
   xmlns:svg="http://www.w3.org/2000/svg"
   xmlns="http://www.w3.org/2000/svg"
   xmlns:sodipodi="http://sodipodi.sourceforge.net/DTD/sodipodi-0.dtd"
   xmlns:inkscape="http://www.inkscape.org/namespaces/inkscape"
   inkscape:export-ydpi="90.000000"
   inkscape:export-xdpi="90.000000"
   width="736"
   height="544"
   id="svg11300"
   sodipodi:version="0.32"
   inkscape:version="0.91 r13725"
   sodipodi:docname="multimedia-video-player.svg"
   inkscape:output_extension="org.inkscape.output.svg.inkscape"
   version="1.0"
   style="display:inline;enable-background:new"
   inkscape:export-filename="/home/sam/paper-template.png">
  <title
     id="title3004">Paper Icon Theme</title>
  <sodipodi:namedview
     stroke="#ef2929"
     fill="#f57900"
     id="base"
     pagecolor="#171717"
     bordercolor="#666666"
     borderopacity="0.25490196"
     inkscape:pageopacity="0"
     inkscape:pageshadow="2"
     inkscape:zoom="1"
     inkscape:cx="261.69309"
     inkscape:cy="277.10859"
     inkscape:current-layer="layer6"
     showgrid="false"
     inkscape:grid-bbox="true"
     inkscape:document-units="px"
     inkscape:showpageshadow="false"
     inkscape:window-width="1920"
     inkscape:window-height="1019"
     inkscape:window-x="0"
     inkscape:window-y="27"
     width="400px"
     height="300px"
     inkscape:snap-nodes="true"
     inkscape:snap-bbox="true"
     gridtolerance="10000"
     inkscape:object-nodes="true"
     inkscape:snap-grids="true"
     showguides="true"
     inkscape:guide-bbox="true"
     inkscape:window-maximized="1">
    <inkscape:grid
       spacingy="1px"
       spacingx="1px"
       id="grid5883"
       type="xygrid"
       enabled="true"
       visible="true"
       empspacing="4"
       snapvisiblegridlinesonly="true" />
    <inkscape:grid
       type="xygrid"
       id="grid11592"
       empspacing="2"
       visible="true"
       enabled="false"
       spacingx="0.5px"
       spacingy="0.5px"
       color="#ff0000"
       opacity="0.1254902"
       empcolor="#ff0000"
       empopacity="0.25098039"
       snapvisiblegridlinesonly="true" />
  </sodipodi:namedview>
  <defs
     id="defs3">
    <filter
       inkscape:collect="always"
       style="color-interpolation-filters:sRGB"
       id="filter4215"
       x="-0.022285715"
       width="1.0445714"
       y="-0.026000001"
       height="1.052">
      <feGaussianBlur
         inkscape:collect="always"
         stdDeviation="4.16"
         id="feGaussianBlur4217" />
    </filter>
    <linearGradient
       osb:paint="solid"
       id="linearGradient5606">
      <stop
         id="stop5608" />
    </linearGradient>
    <filter
       inkscape:collect="always"
       style="color-interpolation-filters:sRGB"
       id="filter4221"
       x="-0.12493932"
       width="1.2498786"
       y="-0.11544495"
       height="1.2308899">
      <feGaussianBlur
         inkscape:collect="always"
         stdDeviation="0.63362783"
         id="feGaussianBlur4223" />
    </filter>
  </defs>
  <metadata
     id="metadata4">
    <rdf:RDF>
      <cc:Work
         rdf:about="">
        <dc:format>image/svg+xml</dc:format>
        <dc:type
           rdf:resource="http://purl.org/dc/dcmitype/StillImage" />
        <dc:creator>
          <cc:Agent>
            <dc:title>Sam Hewitt</dc:title>
          </cc:Agent>
        </dc:creator>
        <dc:source />
        <cc:license
           rdf:resource="http://creativecommons.org/licenses/by-sa/3.0/" />
        <dc:title>Paper Icon Theme</dc:title>
        <dc:subject>
          <rdf:Bag />
        </dc:subject>
        <dc:date />
        <dc:rights>
          <cc:Agent>
            <dc:title />
          </cc:Agent>
        </dc:rights>
        <dc:publisher>
          <cc:Agent>
            <dc:title />
          </cc:Agent>
        </dc:publisher>
        <dc:identifier />
        <dc:relation />
        <dc:language />
        <dc:coverage />
        <dc:description />
        <dc:contributor>
          <cc:Agent>
            <dc:title />
          </cc:Agent>
        </dc:contributor>
      </cc:Work>
      <cc:Work
         rdf:about="">
        <dc:format>image/svg+xml</dc:format>
        <dc:type
           rdf:resource="http://purl.org/dc/dcmitype/StillImage" />
      </cc:Work>
      <cc:License
         rdf:about="http://creativecommons.org/licenses/by-sa/3.0/">
        <cc:permits
           rdf:resource="http://creativecommons.org/ns#Reproduction" />
        <cc:permits
           rdf:resource="http://creativecommons.org/ns#Distribution" />
        <cc:requires
           rdf:resource="http://creativecommons.org/ns#Notice" />
        <cc:requires
           rdf:resource="http://creativecommons.org/ns#Attribution" />
        <cc:permits
           rdf:resource="http://creativecommons.org/ns#DerivativeWorks" />
        <cc:requires
           rdf:resource="http://creativecommons.org/ns#ShareAlike" />
      </cc:License>
    </rdf:RDF>
  </metadata>
  <g
     style="display:inline"
     inkscape:groupmode="layer"
     inkscape:label="Icon"
     id="layer1"
     transform="translate(0,244)">
    <g
       style="display:none"
       inkscape:label="Baseplate"
       id="layer7"
       inkscape:groupmode="layer">
      <text
         y="332.48523"
         xml:space="preserve"
         x="15.006836"
         style="font-style:normal;font-variant:normal;font-weight:normal;font-stretch:normal;font-size:18px;font-family:'DejaVu Sans';-inkscape-font-specification:'DejaVu Sans';display:inline;fill:#000000;fill-opacity:1;stroke:none;enable-background:new"
         inkscape:label="context"
         id="context"><tspan
           style="font-style:normal;font-variant:normal;font-weight:normal;font-stretch:normal;font-family:'DejaVu Sans';-inkscape-font-specification:'DejaVu Sans'"
           y="332.48523"
           x="15.006836"
           sodipodi:role="line"
           id="tspan3933">apps</tspan></text>
      <text
         y="332.48523"
         xml:space="preserve"
         x="142.48828"
         style="font-style:normal;font-variant:normal;font-weight:bold;font-stretch:normal;font-size:18px;line-height:125%;font-family:'DejaVu Sans';-inkscape-font-specification:'DejaVu Sans Bold';text-align:start;writing-mode:lr-tb;text-anchor:start;display:inline;fill:#000000;fill-opacity:1;stroke:none;enable-background:new"
         sodipodi:linespacing="125%"
         inkscape:label="icon-name"
         id="icon-name"><tspan
           style="font-style:normal;font-variant:normal;font-weight:bold;font-stretch:normal;font-size:18px;font-family:'DejaVu Sans';-inkscape-font-specification:'DejaVu Sans Bold'"
           y="332.48523"
           x="142.48828"
           sodipodi:role="line"
           id="tspan3937">multimedia-video-player</tspan></text>
      <rect
         style="display:inline;overflow:visible;visibility:visible;fill:#e9e9e9;fill-opacity:1;fill-rule:nonzero;stroke:none;stroke-width:2;marker:none;enable-background:accumulate"
         id="rect16x16"
         width="16"
         height="16"
         x="-32"
         y="268"
         inkscape:label="16x16"
         transform="scale(-1,1)" />
      <rect
         style="display:inline;overflow:visible;visibility:visible;fill:#e9e9e9;fill-opacity:1;fill-rule:nonzero;stroke:none;stroke-width:2;marker:none;enable-background:accumulate"
         id="rect24x24"
         width="24"
         height="24"
         x="-76"
         y="260"
         inkscape:label="24x24"
         transform="scale(-1,1)" />
      <rect
         style="display:inline;overflow:visible;visibility:visible;fill:#e9e9e9;fill-opacity:1;fill-rule:nonzero;stroke:none;stroke-width:2;marker:none;enable-background:accumulate"
         id="rect32x32"
         width="32"
         height="32"
         x="-128"
         y="252"
         inkscape:label="32x32"
         transform="scale(-1,1)" />
      <rect
         inkscape:label="48x48"
         y="236"
         x="-192"
         height="48"
         width="48"
         id="rect48x48"
         style="display:inline;overflow:visible;visibility:visible;fill:#e9e9e9;fill-opacity:1;fill-rule:nonzero;stroke:none;stroke-width:2;marker:none;enable-background:accumulate"
         transform="scale(-1,1)" />
      <rect
         style="display:inline;overflow:visible;visibility:visible;fill:#e9e9e9;fill-opacity:1;fill-rule:nonzero;stroke:none;stroke-width:2;marker:none;enable-background:accumulate"
         id="rect3951"
         width="512"
         height="512"
         x="-720"
         y="-228"
         inkscape:label="48x48"
         transform="scale(-1,1)" />
    </g>
    <g
       inkscape:groupmode="layer"
       id="layer6"
       inkscape:label="Symbols"
       style="display:inline">
      <rect
         transform="matrix(0,-1,-1,0,0,0)"
         style="opacity:0.2;fill:#000000;fill-opacity:1;stroke:none"
         id="rect4190"
         width="18"
         height="20"
         x="-282"
         y="-74"
         rx="1"
         ry="1" />
      <path
         sodipodi:nodetypes="ssccsss"
         inkscape:connector-curvature="0"
         style="display:inline;opacity:0.2;fill:#000000;fill-opacity:1;stroke:none;enable-background:new"
         d="m 186,279 c 1.108,0 2,-0.892 2,-2 l 0,-16 -40,0 0,16 c 0,1.108 0.892,2 2,2 z"
         id="path4186" />
      <path
         id="path4188"
         d="m 98,269 0,10.5 c 0,0.831 0.669,1.5 1.5,1.5 l 25,0 c 0.831,0 1.5,-0.669 1.5,-1.5 l 0,-10.5 -28,0 z"
         style="opacity:0.2;fill:#000000;fill-opacity:1;stroke:none"
         inkscape:connector-curvature="0" />
      <rect
         ry="24"
         rx="24"
         y="-688"
         x="-224"
         height="448"
         width="384"
         id="rect4219"
         style="opacity:0.1;fill:#000000;fill-opacity:1;stroke:#000000;stroke-width:8;stroke-miterlimit:4;stroke-dasharray:none;stroke-opacity:1;filter:url(#filter4215)"
         transform="matrix(0,-1,-1,0,0,0)" />
      <path
         style="opacity:1;fill:#6a1b9a;fill-opacity:1;stroke:none"
         d="m 188,276 0,-32 c 0,-1.108 -0.892,-2 -2,-2 l -36,0 c -1.108,0 -2,0.892 -2,2 l 0,32 c 0,1.108 0.892,2 2,2 l 36,0 c 1.108,0 2,-0.892 2,-2 z"
         id="rect4203"
         inkscape:connector-curvature="0"
         sodipodi:nodetypes="sssssssss" />
      <path
         style="color:#000000;font-style:normal;font-variant:normal;font-weight:normal;font-stretch:normal;font-size:medium;line-height:normal;font-family:sans-serif;text-indent:0;text-align:start;text-decoration:none;text-decoration-line:none;text-decoration-style:solid;text-decoration-color:#000000;letter-spacing:normal;word-spacing:normal;text-transform:none;direction:ltr;block-progression:tb;writing-mode:lr-tb;baseline-shift:baseline;text-anchor:start;white-space:normal;clip-rule:nonzero;display:inline;overflow:visible;visibility:visible;opacity:1;isolation:auto;mix-blend-mode:normal;color-interpolation:sRGB;color-interpolation-filters:linearRGB;solid-color:#000000;solid-opacity:1;fill:#d1c4e9;fill-opacity:1;fill-rule:nonzero;stroke:none;stroke-width:1.17114806;stroke-linecap:butt;stroke-linejoin:round;stroke-miterlimit:4;stroke-dasharray:none;stroke-dashoffset:0;stroke-opacity:1;color-rendering:auto;image-rendering:auto;shape-rendering:auto;text-rendering:auto;enable-background:accumulate"
         d="m 161.71033,251 c -0.65206,-0.0116 -0.76423,0.77565 -0.71033,1.34431 0.005,5.32172 -0.008,10.64411 0.006,15.96542 0.0573,0.63627 0.78498,0.89048 1.19867,0.49591 4.42137,-2.72456 10.85258,-5.43038 15.2678,-8.16666 0.48173,-0.37663 0.29723,-1.25373 -0.24045,-1.43604 -4.42147,-2.71378 -10.83624,-5.4424 -15.26191,-8.14688 -0.0827,-0.0369 -0.17149,-0.056 -0.26036,-0.0561 z"
         id="path4352"
         inkscape:connector-curvature="0"
         sodipodi:nodetypes="ccccccccc" />
      <rect
         ry="1"
         rx="1"
         y="-74"
         x="-281"
         height="20"
         width="18"
         id="rect4243"
         style="opacity:1;fill:#6a1b9a;fill-opacity:1;stroke:none"
         transform="matrix(0,-1,-1,0,0,0)" />
      <rect
         transform="matrix(0,-1,-1,0,0,0)"
         style="opacity:1;fill:#6a1b9a;fill-opacity:1;stroke:none"
         id="rect4255"
         width="24.000015"
         height="28"
         x="-280"
         y="-126"
         rx="1.5"
         ry="1.5" />
      <rect
         transform="matrix(0,-1,-1,0,0,0)"
         style="display:inline;opacity:1;fill:#6a1b9a;fill-opacity:1;stroke:none;enable-background:new"
         id="rect4265"
         width="14"
         height="16"
         x="-283"
         y="-32"
         rx="1"
         ry="1" />
      <path
         style="opacity:0.2;fill:#ffffff;fill-opacity:1;stroke:none"
         d="m 55,263 c -0.554,0 -1,0.446 -1,1 l 0,1 c 0,-0.554 0.446,-1 1,-1 l 18,0 c 0.554,0 1,0.446 1,1 l 0,-1 c 0,-0.554 -0.446,-1 -1,-1 l -18,0 z"
         id="rect4089"
         inkscape:connector-curvature="0" />
      <path
         style="display:inline;opacity:0.1;fill:#ffffff;fill-opacity:1;stroke:none;enable-background:new"
         d="m 17,193 c -0.554,0 -1,0.446 -1,1 l 0,1 c 0,-0.554 0.446,-1 1,-1 l 14,0 c 0.554,0 1,0.446 1,1 l 0,-1 c 0,-0.554 -0.446,-1 -1,-1 l -14,0 z"
         transform="translate(0,76)"
         id="rect4093"
         inkscape:connector-curvature="0" />
      <rect
         transform="matrix(0,-1,-1,0,0,0)"
         style="opacity:0.2;fill:#000000;fill-opacity:1;stroke:none;filter:url(#filter4215)"
         id="rect4022"
         width="384"
         height="448"
         x="-224"
         y="-688"
         rx="24"
         ry="24" />
      <rect
         ry="24"
         rx="24"
         y="-688"
         x="-164"
         height="448"
         width="384"
         id="rect4229"
         style="opacity:1;fill:#6a1b9a;fill-opacity:1;stroke:none"
         transform="matrix(0,1,-1,0,0,0)" />
      <path
         sodipodi:nodetypes="ccccccccc"
         inkscape:connector-curvature="0"
         id="path4215"
         d="m 304,10.414062 c -0.32368,-1.7e-4 -0.58611,0.262263 -0.58594,0.585938 l 0,12 c -1.2e-4,0.445169 0.47685,0.727698 0.86719,0.513672 l 11,-6 c 0.40583,-0.222211 0.40583,-0.805133 0,-1.027344 l -9.90039,-5.40039 -1.09961,-0.59961 c -0.0862,-0.04732 -0.18292,-0.07217 -0.28125,-0.07227 z"
         style="color:#000000;font-style:normal;font-variant:normal;font-weight:normal;font-stretch:normal;font-size:medium;line-height:normal;font-family:sans-serif;text-indent:0;text-align:start;text-decoration:none;text-decoration-line:none;text-decoration-style:solid;text-decoration-color:#000000;letter-spacing:normal;word-spacing:normal;text-transform:none;direction:ltr;block-progression:tb;writing-mode:lr-tb;baseline-shift:baseline;text-anchor:start;white-space:normal;clip-rule:nonzero;display:inline;overflow:visible;visibility:visible;opacity:0.2;isolation:auto;mix-blend-mode:normal;color-interpolation:sRGB;color-interpolation-filters:linearRGB;solid-color:#000000;solid-opacity:1;fill:#000000;fill-opacity:1;fill-rule:nonzero;stroke:none;stroke-width:1.17114806;stroke-linecap:butt;stroke-linejoin:round;stroke-miterlimit:4;stroke-dasharray:none;stroke-dashoffset:0;stroke-opacity:1;filter:url(#filter4221);color-rendering:auto;image-rendering:auto;shape-rendering:auto;text-rendering:auto;enable-background:accumulate"
         transform="matrix(13.638347,0,0,13.664759,-3754.0662,-194.28746)" />
      <path
         style="color:#000000;font-style:normal;font-variant:normal;font-weight:normal;font-stretch:normal;font-size:medium;line-height:normal;font-family:sans-serif;text-indent:0;text-align:start;text-decoration:none;text-decoration-line:none;text-decoration-style:solid;text-decoration-color:#000000;letter-spacing:normal;word-spacing:normal;text-transform:none;direction:ltr;block-progression:tb;writing-mode:lr-tb;baseline-shift:baseline;text-anchor:start;white-space:normal;clip-rule:nonzero;display:inline;overflow:visible;visibility:visible;opacity:1;isolation:auto;mix-blend-mode:normal;color-interpolation:sRGB;color-interpolation-filters:linearRGB;solid-color:#000000;solid-opacity:1;fill:#d1c4e9;fill-opacity:1;fill-rule:nonzero;stroke:none;stroke-width:1.17114806;stroke-linecap:butt;stroke-linejoin:round;stroke-miterlimit:4;stroke-dasharray:none;stroke-dashoffset:0;stroke-opacity:1;color-rendering:auto;image-rendering:auto;shape-rendering:auto;text-rendering:auto;enable-background:accumulate"
         d="m 391.99129,-61.981813 c -4.41446,-0.0023 -7.99357,3.583761 -7.99126,8.006702 l 0,163.977111 c -0.002,6.08312 6.50345,9.94381 11.82704,7.0192 L 545.84889,35.032647 c 5.53485,-3.03646 5.53485,-11.001948 0,-14.038408 l -135.02495,-73.795028 -14.99687,-8.193526 c -1.17562,-0.646616 -2.49472,-0.986186 -3.83578,-0.987552 z"
         id="path3807-1-1-9-38-4"
         inkscape:connector-curvature="0"
         sodipodi:nodetypes="ccccccccc" />
      <path
         style="opacity:0.2;fill:#ffffff;fill-opacity:1;stroke:none"
         d="m 264,-240 c -13.296,0 -24,10.704 -24,24 l 0,2 c 0,-13.296 10.704,-24 24,-24 l 400,0 c 13.296,0 24,10.704 24,24 l 0,-2 c 0,-13.296 -10.704,-24 -24,-24 l -400,0 z"
         transform="translate(0,76)"
         id="rect3233"
         inkscape:connector-curvature="0" />
      <path
         sodipodi:nodetypes="ccccccccc"
         inkscape:connector-curvature="0"
         id="path4375"
         d="m 60.399556,267.5 c -0.220718,-1.1e-4 -0.399669,0.17919 -0.399553,0.40034 l 0,8.19885 c -8.2e-5,0.30416 0.325164,0.49719 0.591337,0.35096 l 7.500911,-4.09942 c 0.276736,-0.15183 0.276736,-0.5501 0,-0.70193 l -6.751086,-3.68975 -0.749825,-0.40967 c -0.05878,-0.0323 -0.124733,-0.0493 -0.191784,-0.0494 z"
         style="color:#000000;font-style:normal;font-variant:normal;font-weight:normal;font-stretch:normal;font-size:medium;line-height:normal;font-family:sans-serif;text-indent:0;text-align:start;text-decoration:none;text-decoration-line:none;text-decoration-style:solid;text-decoration-color:#000000;letter-spacing:normal;word-spacing:normal;text-transform:none;direction:ltr;block-progression:tb;writing-mode:lr-tb;baseline-shift:baseline;text-anchor:start;white-space:normal;clip-rule:nonzero;display:inline;overflow:visible;visibility:visible;opacity:1;isolation:auto;mix-blend-mode:normal;color-interpolation:sRGB;color-interpolation-filters:linearRGB;solid-color:#000000;solid-opacity:1;fill:#d1c4e9;fill-opacity:1;fill-rule:nonzero;stroke:none;stroke-width:1.17114806;stroke-linecap:butt;stroke-linejoin:round;stroke-miterlimit:4;stroke-dasharray:none;stroke-dashoffset:0;stroke-opacity:1;color-rendering:auto;image-rendering:auto;shape-rendering:auto;text-rendering:auto;enable-background:accumulate" />
      <path
         style="opacity:0.1;fill:#ffffff;fill-opacity:1;stroke:none"
         d="M 150 486 C 148.892 486 148 486.892 148 488 L 148 489 C 148 487.892 148.892 487 150 487 L 186 487 C 187.108 487 188 487.892 188 489 L 188 488 C 188 486.892 187.108 486 186 486 L 150 486 z "
         transform="translate(0,-244)"
         id="path4231" />
      <path
         style="display:inline;opacity:0.1;fill:#ffffff;fill-opacity:1;stroke:none;enable-background:new"
         d="M 99.5 500 C 98.669 500 98 500.669 98 501.5 L 98 502.5 C 98 501.669 98.669 501 99.5 501 L 124.5 501 C 125.331 501 126 501.669 126 502.5 L 126 501.5 C 126 500.669 125.331 500 124.5 500 L 99.5 500 z "
         transform="translate(0,-244)"
         id="path4236" />
      <path
         style="color:#000000;font-style:normal;font-variant:normal;font-weight:normal;font-stretch:normal;font-size:medium;line-height:normal;font-family:sans-serif;text-indent:0;text-align:start;text-decoration:none;text-decoration-line:none;text-decoration-style:solid;text-decoration-color:#000000;letter-spacing:normal;word-spacing:normal;text-transform:none;direction:ltr;block-progression:tb;writing-mode:lr-tb;baseline-shift:baseline;text-anchor:start;white-space:normal;clip-rule:nonzero;display:inline;overflow:visible;visibility:visible;opacity:1;isolation:auto;mix-blend-mode:normal;color-interpolation:sRGB;color-interpolation-filters:linearRGB;solid-color:#000000;solid-opacity:1;fill:#d1c4e9;fill-opacity:1;fill-rule:nonzero;stroke:none;stroke-width:1.17114806;stroke-linecap:butt;stroke-linejoin:round;stroke-miterlimit:4;stroke-dasharray:none;stroke-dashoffset:0;stroke-opacity:1;color-rendering:auto;image-rendering:auto;shape-rendering:auto;text-rendering:auto;enable-background:accumulate"
         d="m 107.53274,261.99999 c -0.29429,-1.5e-4 -0.5329,0.23892 -0.53275,0.53378 l 0,10.93181 c -1e-4,0.40554 0.43357,0.66292 0.78847,0.46795 l 10.00146,-5.46591 c 0.36899,-0.20243 0.36899,-0.73346 0,-0.93589 l -9.00167,-4.91967 -0.99979,-0.54623 c -0.0784,-0.0431 -0.16631,-0.0657 -0.25572,-0.0658 z"
         id="path4362"
         inkscape:connector-curvature="0"
         sodipodi:nodetypes="ccccccccc" />
      <path
         style="color:#000000;font-style:normal;font-variant:normal;font-weight:normal;font-stretch:normal;font-size:medium;line-height:normal;font-family:sans-serif;text-indent:0;text-align:start;text-decoration:none;text-decoration-line:none;text-decoration-style:solid;text-decoration-color:#000000;letter-spacing:normal;word-spacing:normal;text-transform:none;direction:ltr;block-progression:tb;writing-mode:lr-tb;baseline-shift:baseline;text-anchor:start;white-space:normal;clip-rule:nonzero;display:inline;overflow:visible;visibility:visible;opacity:1;isolation:auto;mix-blend-mode:normal;color-interpolation:sRGB;color-interpolation-filters:linearRGB;solid-color:#000000;solid-opacity:1;fill:#d1c4e9;fill-opacity:1;fill-rule:nonzero;stroke:none;stroke-width:1.17114806;stroke-linecap:butt;stroke-linejoin:round;stroke-miterlimit:4;stroke-dasharray:none;stroke-dashoffset:0;stroke-opacity:1;color-rendering:auto;image-rendering:auto;shape-rendering:auto;text-rendering:auto;enable-background:accumulate"
         d="m 21.31076,272.5 c -0.17167,-9e-5 -0.310854,0.13937 -0.310764,0.31137 l 0,6.37689 c -6.4e-5,0.23656 0.252906,0.3867 0.459929,0.27297 l 5.834042,-3.18845 c 0.215239,-0.11808 0.215239,-0.42785 0,-0.54594 l -5.250844,-2.8698 -0.583198,-0.31864 c -0.04572,-0.0251 -0.09701,-0.0384 -0.149165,-0.0384 z"
         id="path4381"
         inkscape:connector-curvature="0"
         sodipodi:nodetypes="ccccccccc" />
      <path
         style="color:#000000;font-style:normal;font-variant:normal;font-weight:normal;font-stretch:normal;font-size:medium;line-height:normal;font-family:sans-serif;text-indent:0;text-align:start;text-decoration:none;text-decoration-line:none;text-decoration-style:solid;text-decoration-color:#000000;letter-spacing:normal;word-spacing:normal;text-transform:none;direction:ltr;block-progression:tb;writing-mode:lr-tb;baseline-shift:baseline;text-anchor:start;white-space:normal;clip-rule:nonzero;display:inline;overflow:visible;visibility:visible;opacity:0.5;isolation:auto;mix-blend-mode:normal;color-interpolation:sRGB;color-interpolation-filters:linearRGB;solid-color:#000000;solid-opacity:1;fill:#ffffff;fill-opacity:1;fill-rule:nonzero;stroke:none;stroke-width:1.17114806;stroke-linecap:butt;stroke-linejoin:round;stroke-miterlimit:4;stroke-dasharray:none;stroke-dashoffset:0;stroke-opacity:1;color-rendering:auto;image-rendering:auto;shape-rendering:auto;text-rendering:auto;enable-background:accumulate"
         d="M 391.99219 182.01758 C 387.57773 182.01528 383.99769 185.60245 384 190.02539 L 384 192.02539 C 383.99768 187.60245 387.57773 184.01526 391.99219 184.01758 C 393.33325 184.01894 394.65055 184.35924 395.82617 185.00586 L 410.82422 193.19922 L 545.84961 266.99414 C 548.28096 268.32799 549.64223 270.61317 549.9375 273.01367 C 550.31439 269.94954 548.95311 266.69675 545.84961 264.99414 L 410.82422 191.19922 L 395.82617 183.00586 C 394.65055 182.35924 393.33325 182.01894 391.99219 182.01758 z "
         transform="translate(0,-244)"
         id="path4229" />
    </g>
  </g>
</svg>
