<?xml version="1.0" encoding="UTF-8" standalone="no"?>
<!-- Created with Inkscape (http://www.inkscape.org/) -->

<svg
   xmlns:dc="http://purl.org/dc/elements/1.1/"
   xmlns:cc="http://creativecommons.org/ns#"
   xmlns:rdf="http://www.w3.org/1999/02/22-rdf-syntax-ns#"
   xmlns:svg="http://www.w3.org/2000/svg"
   xmlns="http://www.w3.org/2000/svg"
   xmlns:sodipodi="http://sodipodi.sourceforge.net/DTD/sodipodi-0.dtd"
   xmlns:inkscape="http://www.inkscape.org/namespaces/inkscape"
   inkscape:export-ydpi="90.000000"
   inkscape:export-xdpi="90.000000"
   width="736"
   height="544"
   id="svg11300"
   sodipodi:version="0.32"
   inkscape:version="0.91 r13725"
   sodipodi:docname="multimedia-photo-manager.svg"
   inkscape:output_extension="org.inkscape.output.svg.inkscape"
   version="1.0"
   style="display:inline;enable-background:new"
   inkscape:export-filename="/home/sam/paper-template.png">
  <title
     id="title3004">Paper Icon Theme Template</title>
  <sodipodi:namedview
     stroke="#ef2929"
     fill="#f57900"
     id="base"
     pagecolor="#6b6b6b"
     bordercolor="#000000"
     borderopacity="0.25490196"
     inkscape:pageopacity="0"
     inkscape:pageshadow="2"
     inkscape:zoom="1"
     inkscape:cx="303.56287"
     inkscape:cy="151.42515"
     inkscape:current-layer="layer6"
     showgrid="false"
     inkscape:grid-bbox="true"
     inkscape:document-units="px"
     inkscape:showpageshadow="false"
     inkscape:window-width="1920"
     inkscape:window-height="1019"
     inkscape:window-x="0"
     inkscape:window-y="27"
     width="400px"
     height="300px"
     inkscape:snap-nodes="true"
     inkscape:snap-bbox="true"
     gridtolerance="10000"
     inkscape:object-nodes="true"
     inkscape:snap-grids="true"
     showguides="true"
     inkscape:guide-bbox="true"
     inkscape:window-maximized="1"
     inkscape:bbox-paths="true"
     inkscape:snap-bbox-midpoints="true"
     inkscape:snap-global="true"
     inkscape:object-paths="true"
     inkscape:snap-intersection-paths="true"
     inkscape:snap-smooth-nodes="true">
    <inkscape:grid
       spacingy="1px"
       spacingx="1px"
       id="grid5883"
       type="xygrid"
       enabled="true"
       visible="true"
       empspacing="4"
       snapvisiblegridlinesonly="true" />
    <inkscape:grid
       type="xygrid"
       id="grid11592"
       empspacing="2"
       visible="true"
       enabled="false"
       spacingx="0.5px"
       spacingy="0.5px"
       color="#ff0000"
       opacity="0.1254902"
       empcolor="#ff0000"
       empopacity="0.25098039"
       snapvisiblegridlinesonly="true" />
  </sodipodi:namedview>
  <defs
     id="defs3">
    <filter
       inkscape:collect="always"
       style="color-interpolation-filters:sRGB"
       id="filter4209"
       x="-0.06"
       width="1.12"
       y="-0.06"
       height="1.12">
      <feGaussianBlur
         inkscape:collect="always"
         stdDeviation="3.15"
         id="feGaussianBlur4211" />
    </filter>
    <filter
       inkscape:collect="always"
       style="color-interpolation-filters:sRGB"
       id="filter4256"
       x="-0.018"
       width="1.036"
       y="-0.036"
       height="1.072">
      <feGaussianBlur
         inkscape:collect="always"
         stdDeviation="1.68"
         id="feGaussianBlur4258" />
    </filter>
    <clipPath
       clipPathUnits="userSpaceOnUse"
       id="clipPath4262">
      <path
         style="fill:#1ea362;fill-opacity:1;stroke:none"
         d="M 464,28 352,140 352,28 Z"
         id="path4264"
         inkscape:connector-curvature="0" />
    </clipPath>
    <filter
       inkscape:collect="always"
       style="color-interpolation-filters:sRGB"
       id="filter4355"
       x="-0.024"
       width="1.048"
       y="-0.024"
       height="1.048">
      <feGaussianBlur
         inkscape:collect="always"
         stdDeviation="4.8"
         id="feGaussianBlur4357" />
    </filter>
  </defs>
  <metadata
     id="metadata4">
    <rdf:RDF>
      <cc:Work
         rdf:about="">
        <dc:format>image/svg+xml</dc:format>
        <dc:type
           rdf:resource="http://purl.org/dc/dcmitype/StillImage" />
        <dc:creator>
          <cc:Agent>
            <dc:title>Sam Hewitt</dc:title>
          </cc:Agent>
        </dc:creator>
        <dc:source />
        <cc:license
           rdf:resource="http://creativecommons.org/licenses/by-sa/3.0/" />
        <dc:title>Paper Icon Theme Template</dc:title>
        <dc:subject>
          <rdf:Bag />
        </dc:subject>
        <dc:date />
        <dc:rights>
          <cc:Agent>
            <dc:title />
          </cc:Agent>
        </dc:rights>
        <dc:publisher>
          <cc:Agent>
            <dc:title />
          </cc:Agent>
        </dc:publisher>
        <dc:identifier />
        <dc:relation />
        <dc:language />
        <dc:coverage />
        <dc:description />
        <dc:contributor>
          <cc:Agent>
            <dc:title />
          </cc:Agent>
        </dc:contributor>
      </cc:Work>
      <cc:Work
         rdf:about="">
        <dc:format>image/svg+xml</dc:format>
        <dc:type
           rdf:resource="http://purl.org/dc/dcmitype/StillImage" />
      </cc:Work>
      <cc:License
         rdf:about="http://creativecommons.org/licenses/by-sa/3.0/">
        <cc:permits
           rdf:resource="http://creativecommons.org/ns#Reproduction" />
        <cc:permits
           rdf:resource="http://creativecommons.org/ns#Distribution" />
        <cc:requires
           rdf:resource="http://creativecommons.org/ns#Notice" />
        <cc:requires
           rdf:resource="http://creativecommons.org/ns#Attribution" />
        <cc:permits
           rdf:resource="http://creativecommons.org/ns#DerivativeWorks" />
        <cc:requires
           rdf:resource="http://creativecommons.org/ns#ShareAlike" />
      </cc:License>
    </rdf:RDF>
  </metadata>
  <g
     style="display:inline"
     inkscape:groupmode="layer"
     inkscape:label="Icon"
     id="layer1"
     transform="translate(0,244)">
    <g
       style="display:none"
       inkscape:label="Baseplate"
       id="layer7"
       inkscape:groupmode="layer">
      <text
         y="337.74512"
         xml:space="preserve"
         x="15.006836"
         style="font-style:normal;font-variant:normal;font-weight:normal;font-stretch:normal;font-size:18px;font-family:'DejaVu Sans';-inkscape-font-specification:'DejaVu Sans';display:inline;fill:#000000;fill-opacity:1;stroke:none;enable-background:new"
         inkscape:label="context"
         id="context"><tspan
           style="font-style:normal;font-variant:normal;font-weight:normal;font-stretch:normal;font-family:'DejaVu Sans';-inkscape-font-specification:'DejaVu Sans'"
           y="337.74512"
           x="15.006836"
           sodipodi:role="line"
           id="tspan3933">apps</tspan></text>
      <text
         y="337.74512"
         xml:space="preserve"
         x="142.48828"
         style="font-style:normal;font-variant:normal;font-weight:bold;font-stretch:normal;font-size:18px;line-height:125%;font-family:'DejaVu Sans';-inkscape-font-specification:'DejaVu Sans Bold';text-align:start;writing-mode:lr-tb;text-anchor:start;display:inline;fill:#000000;fill-opacity:1;stroke:none;enable-background:new"
         sodipodi:linespacing="125%"
         inkscape:label="icon-name"
         id="icon-name"><tspan
           style="font-style:normal;font-variant:normal;font-weight:bold;font-stretch:normal;font-size:18px;font-family:'DejaVu Sans';-inkscape-font-specification:'DejaVu Sans Bold'"
           y="337.74512"
           x="142.48828"
           sodipodi:role="line"
           id="tspan3937">multimedia-photo-manager</tspan></text>
      <rect
         style="display:inline;overflow:visible;visibility:visible;fill:#d3d7cf;fill-opacity:1;fill-rule:nonzero;stroke:none;stroke-width:2;marker:none;enable-background:accumulate"
         id="rect16x16"
         width="16"
         height="16"
         x="-32"
         y="268"
         inkscape:label="16x16"
         transform="scale(-1,1)" />
      <rect
         style="display:inline;overflow:visible;visibility:visible;fill:#d3d7cf;fill-opacity:1;fill-rule:nonzero;stroke:none;stroke-width:2;marker:none;enable-background:accumulate"
         id="rect24x24"
         width="24"
         height="24"
         x="-76"
         y="260"
         inkscape:label="24x24"
         transform="scale(-1,1)" />
      <rect
         style="display:inline;overflow:visible;visibility:visible;fill:#d3d7cf;fill-opacity:1;fill-rule:nonzero;stroke:none;stroke-width:2;marker:none;enable-background:accumulate"
         id="rect32x32"
         width="32"
         height="32"
         x="-128"
         y="252"
         inkscape:label="32x32"
         transform="scale(-1,1)" />
      <rect
         inkscape:label="48x48"
         y="236"
         x="-192"
         height="48"
         width="48"
         id="rect48x48"
         style="display:inline;overflow:visible;visibility:visible;fill:#d3d7cf;fill-opacity:1;fill-rule:nonzero;stroke:none;stroke-width:2;marker:none;enable-background:accumulate"
         transform="scale(-1,1)" />
      <rect
         style="display:inline;overflow:visible;visibility:visible;fill:#d3d7cf;fill-opacity:1;fill-rule:nonzero;stroke:none;stroke-width:2;marker:none;enable-background:accumulate"
         id="rect3951"
         width="512"
         height="512"
         x="-720"
         y="-228"
         inkscape:label="48x48"
         transform="scale(-1,1)" />
    </g>
    <g
       inkscape:groupmode="layer"
       id="layer6"
       inkscape:label="Symbols"
       style="display:inline">
      <path
         style="fill:#000000;fill-opacity:1;stroke:none;opacity:0.2"
         d="m 64,261 0,6 -6,0 -6,6 6,0 0,6 6,6 0,-6 6,0 6,-6 -6,0 0,-6 -6,-6 z"
         id="path4594"
         inkscape:connector-curvature="0" />
      <path
         style="fill:#000000;fill-opacity:1;stroke:none;opacity:0.2"
         d="m 112,253 0,8 -8,0 -8,8 8,0 0,8 8,8 0,-8 8,0 8,-8 -8,0 0,-8 -8,-8 z"
         id="path4577"
         inkscape:connector-curvature="0" />
      <path
         style="fill:#000000;fill-opacity:1;stroke:none;opacity:0.2"
         d="m 168,237 0,12 -12,0 -12,12 12,0 0,12 12,12 0,-12 12,0 12,-12 -12,0 0,-12 -12,-12 z"
         id="path4519"
         inkscape:connector-curvature="0" />
      <path
         inkscape:connector-curvature="0"
         id="path4359"
         d="m 464,-208 0,120 -120,0 -120,120 120,0 0,120 120,120 0,-120 120,0 120,-120 -120,0 0,-120 -120,-120 z"
         style="fill:#000000;fill-opacity:1;stroke:none;filter:url(#filter4355);opacity:0.1" />
      <path
         style="fill:#000000;fill-opacity:1;stroke:none;filter:url(#filter4355);opacity:0.2"
         d="m 464,-208 0,120 -120,0 -120,120 120,0 0,120 120,120 0,-120 120,0 120,-120 -120,0 0,-120 -120,-120 z"
         id="path4338"
         inkscape:connector-curvature="0" />
      <path
         style="fill:#fec006;fill-opacity:1;stroke:none"
         d="M 344,-92.000003 C 408.32562,-65.268502 437.94935,-19.608726 464,28 l -240.00001,0 z"
         id="path4093-0"
         inkscape:connector-curvature="0"
         sodipodi:nodetypes="cccc" />
      <path
         inkscape:connector-curvature="0"
         id="path4095-4"
         d="M 584,-92.000003 C 555.84763,-21.196101 509.2694,1.7004243 464,28 l 0,-240.00001 z"
         style="fill:#f34235;fill-opacity:1;stroke:none"
         sodipodi:nodetypes="cccc" />
      <path
         style="fill:#4bae4f;fill-opacity:1;stroke:none"
         d="M 344,148 464,268.00001 464,28 C 412.16952,52.225976 374.6804,95.573877 344,148 Z"
         id="path4097-8"
         inkscape:connector-curvature="0"
         sodipodi:nodetypes="cccc" />
      <path
         inkscape:connector-curvature="0"
         id="path4099"
         d="M 584,148 C 528.78965,121.52035 487.40308,82.752776 464,28 l 240.00001,0 z"
         style="fill:#2095f2;fill-opacity:1;stroke:none"
         sodipodi:nodetypes="cccc" />
      <path
         style="fill:#9c27b0;fill-opacity:1;stroke:none"
         d="M 464,28 584,-92.000003 584,28 Z"
         id="path4101"
         inkscape:connector-curvature="0" />
      <path
         inkscape:connector-curvature="0"
         id="path4103"
         d="M 464,28 344,148 344,28 Z"
         style="fill:#1ea362;fill-opacity:1;stroke:none" />
      <path
         id="path4272"
         d="m 344,148 2.14285,0 L 465.51506,28.627793 C 465.00438,28.420771 464.51575,28.205071 464,28 Z"
         style="opacity:0.2;fill:#ffffff;fill-opacity:1;stroke:none"
         inkscape:connector-curvature="0"
         sodipodi:nodetypes="ccccc" />
      <path
         style="fill:#3e50b4;fill-opacity:1;stroke:none"
         d="M 584,148 464,28 l 0,120 z"
         id="path4105"
         inkscape:connector-curvature="0" />
      <path
         clip-path="url(#clipPath4262)"
         style="opacity:0.1;fill:#000000;fill-opacity:1;stroke:none;filter:url(#filter4256)"
         d="m 352,-80 c 60.03725,24.9494 87.68606,67.56519 112,112 l -224,0 z"
         id="path4266"
         inkscape:connector-curvature="0"
         sodipodi:nodetypes="cccc"
         transform="matrix(0,-1.0714286,1.0714286,0,434,525.14287)" />
      <path
         style="opacity:0.2;fill:#000000;fill-opacity:1;stroke:none;filter:url(#filter4209)"
         d="m 464,-31 -21,42 -42,21 42,21 21,42 21,-42 42,-21 -42,-21 -21,-42 z"
         id="path4198"
         inkscape:connector-curvature="0"
         transform="matrix(1.0714286,0,0,1.0714286,-33.14287,-2.0000008)" />
      <path
         inkscape:connector-curvature="0"
         id="path4107"
         d="M 344,-92.000003 464,28 464,-92.000003 Z"
         style="fill:#fe9700;fill-opacity:1;stroke:none" />
      <path
         transform="matrix(-1.0714286,0,0,-1.0714286,961.14287,58.000001)"
         sodipodi:nodetypes="cccc"
         inkscape:connector-curvature="0"
         id="path4268"
         d="m 352,-80 c 60.03725,24.9494 87.68606,67.56519 112,112 l -224,0 z"
         style="opacity:0.1;fill:#000000;fill-opacity:1;stroke:none;filter:url(#filter4256)"
         clip-path="url(#clipPath4262)" />
      <path
         clip-path="url(#clipPath4262)"
         style="opacity:0.05;fill:#000000;fill-opacity:1;stroke:none;filter:url(#filter4256)"
         d="m 352,-80 c 60.03725,24.9494 87.68606,67.56519 112,112 l -224,0 z"
         id="path4270"
         inkscape:connector-curvature="0"
         sodipodi:nodetypes="cccc"
         transform="matrix(0,1.0714286,-1.0714286,0,494,-469.14287)" />
      <path
         sodipodi:nodetypes="cccc"
         inkscape:connector-curvature="0"
         id="path4254"
         d="m 352,-80 c 60.03725,24.9494 87.68606,67.56519 112,112 l -224,0 z"
         style="opacity:0.1;fill:#000000;fill-opacity:1;stroke:none;filter:url(#filter4256)"
         clip-path="url(#clipPath4262)"
         transform="matrix(1.0714286,0,0,1.0714286,-33.14287,-2.0000008)" />
      <path
         inkscape:connector-curvature="0"
         style="fill:#ffffff;fill-opacity:1;stroke:none"
         d="M 464,-39.500002 441.5,5.4999994 396.5,28 464,36.571429 531.5,28 486.5,5.4999994 Z"
         id="path4109"
         sodipodi:nodetypes="ccccccc" />
      <path
         inkscape:connector-curvature="0"
         style="fill:#ebebeb;fill-opacity:1;stroke:none"
         d="m 396.5,28 45,22.500001 L 464,95.500002 464,28 396.5,28 Z"
         id="path4111" />
      <path
         style="opacity:0.4;fill:#ffffff;fill-opacity:1;stroke:none"
         d="m 464,27.999999 c 0.30801,0.720622 0.63163,1.427765 0.94587,2.142857 l 236.91128,0 2.14286,-2.142857 -240.00001,0 z"
         id="path4236"
         inkscape:connector-curvature="0" />
      <path
         id="path4113"
         d="M 531.5,28 486.5,50.500001 464,95.500002 464,28 l 67.5,0 z"
         style="fill:#dfdfdf;fill-opacity:1;stroke:none"
         inkscape:connector-curvature="0" />
      <path
         style="opacity:0.4;fill:#ffffff;fill-opacity:1;stroke:none"
         d="m 344,-92.000004 -120.00001,120.000003 2.14286,0 L 344,-89.857147 l 120,0 0,-2.142857 -120,0 z"
         id="path4241"
         inkscape:connector-curvature="0" />
      <path
         style="opacity:0.4;fill:#ffffff;fill-opacity:1;stroke:none"
         d="m 464,-212.00001 0,2.14286 119.37221,119.37221 c 0.20702,-0.510685 0.42272,-0.99931 0.62779,-1.515064 L 464,-212.00001 Z"
         id="path4249"
         inkscape:connector-curvature="0" />
      <path
         sodipodi:nodetypes="ccccc"
         inkscape:connector-curvature="0"
         style="opacity:0.1;fill:#ffffff;fill-opacity:1;stroke:none"
         d="m 344,-92.000003 0,2.142857 119.37221,119.37221 C 463.57923,29.004379 463.79493,28.515754 464,28 Z"
         id="path4276" />
      <path
         sodipodi:nodetypes="cccc"
         inkscape:connector-curvature="0"
         id="path4361"
         d="m 155.99999,248.00001 c 6.43256,2.67315 9.39493,7.23913 12,12 l -24,0 z"
         style="fill:#fec006;fill-opacity:1;stroke:none" />
      <path
         sodipodi:nodetypes="cccc"
         style="fill:#f34235;fill-opacity:1;stroke:none"
         d="m 179.99999,248.00001 c -2.81524,7.08039 -7.47306,9.37004 -12,12 l 0,-24 z"
         id="path4363"
         inkscape:connector-curvature="0" />
      <path
         sodipodi:nodetypes="cccc"
         inkscape:connector-curvature="0"
         id="path4365"
         d="m 155.99999,272.00001 12,12 0,-24 c -5.18305,2.4226 -8.93196,6.75739 -12,12 z"
         style="fill:#4bae4f;fill-opacity:1;stroke:none" />
      <path
         sodipodi:nodetypes="cccc"
         style="fill:#2095f2;fill-opacity:1;stroke:none"
         d="m 179.99999,272.00001 c -5.52103,-2.64796 -9.65969,-6.52472 -12,-12 l 24,0 z"
         id="path4367"
         inkscape:connector-curvature="0" />
      <path
         inkscape:connector-curvature="0"
         id="path4369"
         d="m 167.99999,260.00001 12,-12 0,12 z"
         style="fill:#9c27b0;fill-opacity:1;stroke:none" />
      <path
         style="fill:#1ea362;fill-opacity:1;stroke:none"
         d="m 167.99999,260.00001 -12,12 0,-12 z"
         id="path4371"
         inkscape:connector-curvature="0" />
      <path
         inkscape:connector-curvature="0"
         id="path4373"
         d="m 179.99999,272.00001 -12,-12 0,12 z"
         style="fill:#3e50b4;fill-opacity:1;stroke:none" />
      <path
         style="fill:#fe9700;fill-opacity:1;stroke:none"
         d="m 155.99999,248.00001 12,12 0,-12 z"
         id="path4375"
         inkscape:connector-curvature="0" />
      <path
         style="fill:#000000;fill-opacity:1;stroke:none;opacity:0.2"
         d="m 168,254 -2.25,4.75 -4.75,2.25 4.75,2.25 2.25,4.75 2.25,-4.75 L 175,261 170.25,258.75 168,254 Z"
         id="path4512"
         inkscape:connector-curvature="0" />
      <path
         sodipodi:nodetypes="ccccccc"
         id="path4377"
         d="m 168,253 -2.25001,4.75001 L 161,260 167.99999,260.85715 175,260 l -4.75001,-2.24999 z"
         style="fill:#ffffff;fill-opacity:1;stroke:none"
         inkscape:connector-curvature="0" />
      <path
         id="path4379"
         d="m 161,260 4.74999,2.25001 L 168,267 l -1e-5,-6.99999 z"
         style="fill:#ebebeb;fill-opacity:1;stroke:none"
         inkscape:connector-curvature="0"
         sodipodi:nodetypes="ccccc" />
      <path
         style="fill:#ffffff;fill-opacity:1;stroke:none;opacity:0.1"
         d="M 168 504 C 168.14512 504.33951 168.29623 504.6727 168.45508 505 L 191 505 L 192 504 L 168 504 z "
         transform="translate(0,-244)"
         id="path4544" />
      <path
         inkscape:connector-curvature="0"
         style="fill:#dfdfdf;fill-opacity:1;stroke:none"
         d="m 175,260 -4.75001,2.25001 L 168,267 l -1e-5,-6.99999 z"
         id="path4381"
         sodipodi:nodetypes="ccccc" />
      <path
         style="fill:#fec006;fill-opacity:1;stroke:none"
         d="m 57.99999,266.00001 c 3.216281,1.33657 4.697467,3.61956 6,6 l -12.000001,0 z"
         id="path4398"
         inkscape:connector-curvature="0"
         sodipodi:nodetypes="cccc" />
      <path
         inkscape:connector-curvature="0"
         id="path4400"
         d="m 69.99999,266.00001 c -1.407619,3.54019 -3.73653,4.68502 -6,6 l 0,-12 z"
         style="fill:#f34235;fill-opacity:1;stroke:none"
         sodipodi:nodetypes="cccc" />
      <path
         style="fill:#4bae4f;fill-opacity:1;stroke:none"
         d="m 57.99999,278.00001 6,6 0,-12 c -2.591524,1.2113 -4.46598,3.37869 -6,6 z"
         id="path4402"
         inkscape:connector-curvature="0"
         sodipodi:nodetypes="cccc" />
      <path
         inkscape:connector-curvature="0"
         id="path4404"
         d="m 69.99999,278.00001 c -2.760517,-1.32398 -4.829846,-3.26236 -6,-6 l 12,0 z"
         style="fill:#2095f2;fill-opacity:1;stroke:none"
         sodipodi:nodetypes="cccc" />
      <path
         style="fill:#9c27b0;fill-opacity:1;stroke:none"
         d="m 63.99999,272.00001 6,-6 0,6 z"
         id="path4406"
         inkscape:connector-curvature="0" />
      <path
         inkscape:connector-curvature="0"
         id="path4408"
         d="m 63.99999,272.00001 -6,6 0,-6 z"
         style="fill:#1ea362;fill-opacity:1;stroke:none" />
      <path
         style="fill:#3e50b4;fill-opacity:1;stroke:none"
         d="m 69.99999,278.00001 -6,-6 0,6 z"
         id="path4410"
         inkscape:connector-curvature="0" />
      <path
         inkscape:connector-curvature="0"
         id="path4412"
         d="m 57.99999,266.00001 6,6 0,-6 z"
         style="fill:#fe9700;fill-opacity:1;stroke:none" />
      <path
         style="fill:#000000;fill-opacity:1;stroke:none;opacity:0.2"
         d="m 64,269.625 -1.125,2.25 -2.25,1.125 2.25,1.125 1.125,2.25 1.125,-2.25 2.25,-1.125 -2.25,-1.125 -1.125,-2.25 z"
         id="path4619"
         inkscape:connector-curvature="0" />
      <path
         inkscape:connector-curvature="0"
         style="fill:#ffffff;fill-opacity:1;stroke:none"
         d="m 63.99999,268.62501 -1.125,2.25 -2.25,1.125 3.375,0.42857 3.375,-0.42857 -2.25,-1.125 z"
         id="path4414"
         sodipodi:nodetypes="ccccccc" />
      <path
         inkscape:connector-curvature="0"
         style="fill:#ebebeb;fill-opacity:1;stroke:none"
         d="m 60.62499,272.00001 2.25,1.125 1.125,2.25 0,-3.375 -3.375,0 z"
         id="path4416" />
      <path
         id="path4418"
         d="m 67.37499,272.00001 -2.25,1.125 -1.125,2.25 0,-3.375 3.375,0 z"
         style="fill:#dfdfdf;fill-opacity:1;stroke:none"
         inkscape:connector-curvature="0" />
      <path
         sodipodi:nodetypes="cccc"
         inkscape:connector-curvature="0"
         id="path4422"
         d="m 19.999989,272.00001 c 2.144187,0.89105 3.131644,2.41305 3.999999,4 l -7.999999,0 z"
         style="fill:#fec006;fill-opacity:1;stroke:none" />
      <path
         sodipodi:nodetypes="cccc"
         style="fill:#f34235;fill-opacity:1;stroke:none"
         d="m 27.999988,272.00001 c -0.938413,2.36013 -2.49102,3.12335 -4,4 l 0,-8 z"
         id="path4424"
         inkscape:connector-curvature="0" />
      <path
         sodipodi:nodetypes="cccc"
         inkscape:connector-curvature="0"
         id="path4426"
         d="m 19.999989,280.00001 3.999999,4 0,-8 c -1.727682,0.80754 -2.97732,2.25247 -3.999999,4 z"
         style="fill:#4bae4f;fill-opacity:1;stroke:none" />
      <path
         sodipodi:nodetypes="cccc"
         style="fill:#2095f2;fill-opacity:1;stroke:none"
         d="m 27.999988,280.00001 c -1.840345,-0.88265 -3.219897,-2.1749 -4,-4 l 8,0 z"
         id="path4428"
         inkscape:connector-curvature="0" />
      <path
         inkscape:connector-curvature="0"
         id="path4430"
         d="m 23.999988,276.00001 4,-4 0,4 z"
         style="fill:#9c27b0;fill-opacity:1;stroke:none" />
      <path
         style="fill:#1ea362;fill-opacity:1;stroke:none"
         d="m 23.999988,276.00001 -3.999999,4 0,-4 z"
         id="path4432"
         inkscape:connector-curvature="0"
         sodipodi:nodetypes="cccc" />
      <path
         inkscape:connector-curvature="0"
         id="path4434"
         d="m 27.999988,280.00001 -4,-4 0,4 z"
         style="fill:#3e50b4;fill-opacity:1;stroke:none"
         sodipodi:nodetypes="cccc" />
      <path
         id="path4633"
         d="M 24,275 23.25,276.25 22,277 23.25,277.75 24,279 24.75,277.75 26,277 24.75,276.25 24,275 Z"
         style="fill:#000000;fill-opacity:1;stroke:none;opacity:0.2"
         inkscape:connector-curvature="0" />
      <path
         style="fill:#fe9700;fill-opacity:1;stroke:none"
         d="m 19.999989,272.00001 3.999999,4 0,-4 z"
         id="path4436"
         inkscape:connector-curvature="0" />
      <path
         sodipodi:nodetypes="ccccccc"
         id="path4438"
         d="M 24,274 23.249988,275.25001 22,276 23.999988,276.28573 26,276 24.749988,275.25001 Z"
         style="fill:#ffffff;fill-opacity:1;stroke:none"
         inkscape:connector-curvature="0" />
      <path
         id="path4440"
         d="m 22,276 1.249988,0.75001 L 24,278 l -1.2e-5,-1.99999 z"
         style="fill:#ebebeb;fill-opacity:1;stroke:none"
         inkscape:connector-curvature="0"
         sodipodi:nodetypes="ccccc" />
      <path
         inkscape:connector-curvature="0"
         style="fill:#dfdfdf;fill-opacity:1;stroke:none"
         d="M 26,276 24.749988,276.75001 24,278 l -1.2e-5,-1.99999 z"
         id="path4442"
         sodipodi:nodetypes="ccccc" />
      <path
         style="fill:#fec006;fill-opacity:1;stroke:none"
         d="m 103.99999,260.00001 c 4.28838,1.7821 6.26329,4.82608 8,8 l -15.999999,0 z"
         id="path4446"
         inkscape:connector-curvature="0"
         sodipodi:nodetypes="cccc" />
      <path
         inkscape:connector-curvature="0"
         id="path4448"
         d="m 119.99999,260.00001 c -1.87683,4.72026 -4.98204,6.24669 -8,8 l 0,-16 z"
         style="fill:#f34235;fill-opacity:1;stroke:none"
         sodipodi:nodetypes="cccc" />
      <path
         style="fill:#4bae4f;fill-opacity:1;stroke:none"
         d="m 103.99999,276.00001 8,8 0,-16 c -3.45536,1.61506 -5.95464,4.50492 -8,8 z"
         id="path4450"
         inkscape:connector-curvature="0"
         sodipodi:nodetypes="cccc" />
      <path
         inkscape:connector-curvature="0"
         id="path4452"
         d="m 119.99999,276.00001 c -3.68069,-1.76531 -6.43979,-4.34982 -8,-8 l 16,0 z"
         style="fill:#2095f2;fill-opacity:1;stroke:none"
         sodipodi:nodetypes="cccc" />
      <path
         style="fill:#9c27b0;fill-opacity:1;stroke:none"
         d="m 111.99999,268.00001 8,-8 0,8 z"
         id="path4454"
         inkscape:connector-curvature="0" />
      <path
         inkscape:connector-curvature="0"
         id="path4456"
         d="m 111.99999,268.00001 -8,8 0,-8 z"
         style="fill:#1ea362;fill-opacity:1;stroke:none" />
      <path
         style="fill:#3e50b4;fill-opacity:1;stroke:none"
         d="m 119.99999,276.00001 -8,-8 0,8 z"
         id="path4458"
         inkscape:connector-curvature="0" />
      <path
         inkscape:connector-curvature="0"
         id="path4460"
         d="m 103.99999,260.00001 8,8 0,-8 z"
         style="fill:#fe9700;fill-opacity:1;stroke:none" />
      <path
         style="fill:#ffffff;fill-opacity:1;stroke:none;opacity:0.1"
         d="M 168 480 L 168 481 L 179.69922 492.69922 C 179.80006 492.46738 179.90342 492.24291 180 492 L 168 480 z M 156 492 L 144 504 L 145 504 L 156 493 L 168 493 L 168 492 L 156 492 z "
         transform="translate(0,-244)"
         id="path4536" />
      <path
         style="fill:#ffffff;fill-opacity:1;stroke:none;opacity:0.1"
         d="M 112 512 C 112.14766 512.34547 112.31547 512.67342 112.48438 513 L 127 513 L 128 512 L 112 512 z "
         transform="translate(0,-244)"
         id="path4563" />
      <path
         style="fill:#ffffff;fill-opacity:1;stroke:none;opacity:0.1"
         d="M 112 496 L 112 497 L 119.69922 504.69922 C 119.8023 504.47243 119.90326 504.24329 120 504 L 112 496 z M 104 504 L 96 512 L 97 512 L 104 505 L 112 505 L 112 504 L 104 504 z "
         transform="translate(0,-244)"
         id="path4560" />
      <path
         id="path4575"
         d="m 112,264.5 -1.5,3 -3,1.5 3,1.5 1.5,3 1.5,-3 3,-1.5 -3,-1.5 -1.5,-3 z"
         style="fill:#000000;fill-opacity:1;stroke:none;opacity:0.2"
         inkscape:connector-curvature="0" />
      <path
         inkscape:connector-curvature="0"
         style="fill:#ffffff;fill-opacity:1;stroke:none"
         d="m 111.99999,263.50001 -1.5,3 -3,1.5 4.5,0.57143 4.5,-0.57143 -3,-1.5 z"
         id="path4462"
         sodipodi:nodetypes="ccccccc" />
      <path
         inkscape:connector-curvature="0"
         style="fill:#ebebeb;fill-opacity:1;stroke:none"
         d="m 107.49999,268.00001 3,1.5 1.5,3 0,-4.5 -4.5,0 z"
         id="path4464" />
      <path
         id="path4466"
         d="m 116.49999,268.00001 -3,1.5 -1.5,3 0,-4.5 4.5,0 z"
         style="fill:#dfdfdf;fill-opacity:1;stroke:none"
         inkscape:connector-curvature="0" />
    </g>
  </g>
</svg>
