<?xml version="1.0" encoding="UTF-8" standalone="no"?>
<!-- Created with Inkscape (http://www.inkscape.org/) -->

<svg
   xmlns:osb="http://www.openswatchbook.org/uri/2009/osb"
   xmlns:dc="http://purl.org/dc/elements/1.1/"
   xmlns:cc="http://creativecommons.org/ns#"
   xmlns:rdf="http://www.w3.org/1999/02/22-rdf-syntax-ns#"
   xmlns:svg="http://www.w3.org/2000/svg"
   xmlns="http://www.w3.org/2000/svg"
   xmlns:sodipodi="http://sodipodi.sourceforge.net/DTD/sodipodi-0.dtd"
   xmlns:inkscape="http://www.inkscape.org/namespaces/inkscape"
   inkscape:export-ydpi="90.000000"
   inkscape:export-xdpi="90.000000"
   width="600"
   height="224"
   id="svg11300"
   sodipodi:version="0.32"
   inkscape:version="0.91 r13725"
   sodipodi:docname="preferences-system-brightness-lock.svg"
   inkscape:output_extension="org.inkscape.output.svg.inkscape"
   version="1.0"
   style="display:inline;enable-background:new"
   inkscape:export-filename="/home/sam/paper-template.png">
  <title
     id="title3004">Paper Icon Theme Template</title>
  <sodipodi:namedview
     stroke="#ef2929"
     fill="#f57900"
     id="base"
     pagecolor="#5c5c5c"
     bordercolor="#666666"
     borderopacity="0.25490196"
     inkscape:pageopacity="0"
     inkscape:pageshadow="2"
     inkscape:zoom="1"
     inkscape:cx="286.875"
     inkscape:cy="44.000001"
     inkscape:current-layer="layer6"
     showgrid="false"
     inkscape:grid-bbox="true"
     inkscape:document-units="px"
     inkscape:showpageshadow="false"
     inkscape:window-width="1301"
     inkscape:window-height="744"
     inkscape:window-x="65"
     inkscape:window-y="24"
     width="400px"
     height="300px"
     inkscape:snap-nodes="true"
     inkscape:snap-bbox="true"
     gridtolerance="10000"
     inkscape:object-nodes="true"
     inkscape:snap-grids="true"
     showguides="true"
     inkscape:guide-bbox="true"
     inkscape:window-maximized="1"
     inkscape:bbox-nodes="true"
     inkscape:snap-bbox-edge-midpoints="true"
     inkscape:snap-bbox-midpoints="true">
    <inkscape:grid
       spacingy="1px"
       spacingx="1px"
       id="grid5883"
       type="xygrid"
       enabled="true"
       visible="true"
       empspacing="4"
       snapvisiblegridlinesonly="true" />
    <inkscape:grid
       type="xygrid"
       id="grid11592"
       empspacing="2"
       visible="true"
       enabled="false"
       spacingx="0.5px"
       spacingy="0.5px"
       color="#ff0000"
       opacity="0.1254902"
       empcolor="#ff0000"
       empopacity="0.25098039"
       snapvisiblegridlinesonly="true" />
    <sodipodi:guide
       orientation="0,1"
       position="0,224"
       id="guide4275" />
  </sodipodi:namedview>
  <defs
     id="defs3">
    <linearGradient
       osb:paint="solid"
       id="linearGradient5606">
      <stop
         style="stop-color:#000000;stop-opacity:1;"
         offset="0"
         id="stop5608" />
    </linearGradient>
    <filter
       inkscape:collect="always"
       style="color-interpolation-filters:sRGB"
       id="filter4524"
       x="-0.06"
       width="1.12"
       y="-0.06"
       height="1.12">
      <feGaussianBlur
         inkscape:collect="always"
         stdDeviation="1.0921875"
         id="feGaussianBlur4526" />
    </filter>
    <filter
       inkscape:collect="always"
       style="color-interpolation-filters:sRGB"
       id="filter4564"
       x="-0.06"
       width="1.12"
       y="-0.06"
       height="1.12">
      <feGaussianBlur
         inkscape:collect="always"
         stdDeviation="4.36875"
         id="feGaussianBlur4566" />
    </filter>
    <filter
       inkscape:collect="always"
       style="color-interpolation-filters:sRGB"
       id="filter4568"
       x="-0.06"
       width="1.12"
       y="-0.06"
       height="1.12">
      <feGaussianBlur
         inkscape:collect="always"
         stdDeviation="2.184375"
         id="feGaussianBlur4570" />
    </filter>
    <filter
       inkscape:collect="always"
       style="color-interpolation-filters:sRGB"
       id="filter4576"
       x="-0.059999995"
       width="1.12"
       y="-0.060000005"
       height="1.12">
      <feGaussianBlur
         inkscape:collect="always"
         stdDeviation="1.4562501"
         id="feGaussianBlur4578" />
    </filter>
    <filter
       inkscape:collect="always"
       style="color-interpolation-filters:sRGB"
       id="filter4588"
       x="-0.18"
       width="1.36"
       y="-0.09"
       height="1.18">
      <feGaussianBlur
         inkscape:collect="always"
         stdDeviation="3.6"
         id="feGaussianBlur4590" />
    </filter>
    <filter
       inkscape:collect="always"
       style="color-interpolation-filters:sRGB"
       id="filter4592"
       x="-0.18"
       width="1.36"
       y="-0.09"
       height="1.18">
      <feGaussianBlur
         inkscape:collect="always"
         stdDeviation="1.8"
         id="feGaussianBlur4594" />
    </filter>
    <filter
       inkscape:collect="always"
       style="color-interpolation-filters:sRGB"
       id="filter4596"
       x="-0.18"
       width="1.36"
       y="-0.09"
       height="1.18">
      <feGaussianBlur
         inkscape:collect="always"
         stdDeviation="1.2"
         id="feGaussianBlur4598" />
    </filter>
    <filter
       inkscape:collect="always"
       style="color-interpolation-filters:sRGB"
       id="filter4600"
       x="-0.18"
       width="1.36"
       y="-0.09"
       height="1.18">
      <feGaussianBlur
         inkscape:collect="always"
         stdDeviation="0.9"
         id="feGaussianBlur4602" />
    </filter>
    <filter
       inkscape:collect="always"
       style="color-interpolation-filters:sRGB"
       id="filter4614"
       x="-0.059999997"
       width="1.12"
       y="-0.060000003"
       height="1.12">
      <feGaussianBlur
         inkscape:collect="always"
         stdDeviation="0.72812504"
         id="feGaussianBlur4616" />
    </filter>
  </defs>
  <metadata
     id="metadata4">
    <rdf:RDF>
      <cc:Work
         rdf:about="">
        <dc:format>image/svg+xml</dc:format>
        <dc:type
           rdf:resource="http://purl.org/dc/dcmitype/StillImage" />
        <dc:creator>
          <cc:Agent>
            <dc:title>Sam Hewitt</dc:title>
          </cc:Agent>
        </dc:creator>
        <dc:source />
        <cc:license
           rdf:resource="http://creativecommons.org/licenses/by-nc-sa/3.0/" />
        <dc:title>Paper Icon Theme Template</dc:title>
        <dc:subject>
          <rdf:Bag />
        </dc:subject>
        <dc:date />
        <dc:rights>
          <cc:Agent>
            <dc:title />
          </cc:Agent>
        </dc:rights>
        <dc:publisher>
          <cc:Agent>
            <dc:title />
          </cc:Agent>
        </dc:publisher>
        <dc:identifier />
        <dc:relation />
        <dc:language />
        <dc:coverage />
        <dc:description />
        <dc:contributor>
          <cc:Agent>
            <dc:title />
          </cc:Agent>
        </dc:contributor>
      </cc:Work>
      <cc:Work
         rdf:about="">
        <dc:format>image/svg+xml</dc:format>
        <dc:type
           rdf:resource="http://purl.org/dc/dcmitype/StillImage" />
      </cc:Work>
      <cc:License
         rdf:about="http://creativecommons.org/licenses/by-nc-sa/3.0/">
        <cc:permits
           rdf:resource="http://creativecommons.org/ns#Reproduction" />
        <cc:permits
           rdf:resource="http://creativecommons.org/ns#Distribution" />
        <cc:requires
           rdf:resource="http://creativecommons.org/ns#Notice" />
        <cc:requires
           rdf:resource="http://creativecommons.org/ns#Attribution" />
        <cc:prohibits
           rdf:resource="http://creativecommons.org/ns#CommercialUse" />
        <cc:permits
           rdf:resource="http://creativecommons.org/ns#DerivativeWorks" />
        <cc:requires
           rdf:resource="http://creativecommons.org/ns#ShareAlike" />
      </cc:License>
    </rdf:RDF>
  </metadata>
  <g
     style="display:inline"
     inkscape:groupmode="layer"
     inkscape:label="Icon"
     id="layer1"
     transform="translate(0,-76)">
    <g
       style="display:none"
       inkscape:label="Baseplate"
       id="layer7"
       inkscape:groupmode="layer">
      <text
         y="59.745117"
         xml:space="preserve"
         x="15.006836"
         style="font-style:normal;font-variant:normal;font-weight:normal;font-stretch:normal;font-size:18px;font-family:'DejaVu Sans';-inkscape-font-specification:'DejaVu Sans';display:inline;fill:#000000;fill-opacity:1;stroke:none;enable-background:new"
         inkscape:label="context"
         id="context"><tspan
           style="font-style:normal;font-variant:normal;font-weight:normal;font-stretch:normal;font-family:'DejaVu Sans';-inkscape-font-specification:'DejaVu Sans'"
           y="59.745117"
           x="15.006836"
           sodipodi:role="line"
           id="tspan3933">apps</tspan></text>
      <text
         y="59.745117"
         xml:space="preserve"
         x="142.48828"
         style="font-style:normal;font-variant:normal;font-weight:bold;font-stretch:normal;font-size:18px;line-height:125%;font-family:'DejaVu Sans';-inkscape-font-specification:'DejaVu Sans Bold';text-align:start;writing-mode:lr-tb;text-anchor:start;display:inline;fill:#000000;fill-opacity:1;stroke:none;enable-background:new"
         sodipodi:linespacing="125%"
         inkscape:label="icon-name"
         id="icon-name"><tspan
           style="font-style:normal;font-variant:normal;font-weight:bold;font-stretch:normal;font-size:18px;font-family:'DejaVu Sans';-inkscape-font-specification:'DejaVu Sans Bold'"
           y="59.745117"
           x="142.48828"
           sodipodi:role="line"
           id="tspan3937">preferences-system-brightness-lock</tspan></text>
      <rect
         style="display:inline;overflow:visible;visibility:visible;fill:#e9e9e9;fill-opacity:1;fill-rule:nonzero;stroke:none;stroke-width:2;marker:none;enable-background:accumulate"
         id="rect16x16"
         width="16"
         height="16"
         x="-32"
         y="268"
         inkscape:label="16x16"
         transform="scale(-1,1)" />
      <rect
         style="display:inline;overflow:visible;visibility:visible;fill:#e9e9e9;fill-opacity:1;fill-rule:nonzero;stroke:none;stroke-width:2;marker:none;enable-background:accumulate"
         id="rect24x24"
         width="24"
         height="24"
         x="-72"
         y="260"
         inkscape:label="24x24"
         transform="scale(-1,1)" />
      <rect
         style="display:inline;overflow:visible;visibility:visible;fill:#e9e9e9;fill-opacity:1;fill-rule:nonzero;stroke:none;stroke-width:2;marker:none;enable-background:accumulate"
         id="rect32x32"
         width="32"
         height="32"
         x="-120"
         y="252"
         inkscape:label="32x32"
         transform="scale(-1,1)" />
      <rect
         inkscape:label="48x48"
         y="236"
         x="-184"
         height="48"
         width="48"
         id="rect48x48"
         style="display:inline;overflow:visible;visibility:visible;fill:#e9e9e9;fill-opacity:1;fill-rule:nonzero;stroke:none;stroke-width:2;marker:none;enable-background:accumulate"
         transform="scale(-1,1)" />
      <rect
         style="display:inline;overflow:visible;visibility:visible;fill:#e9e9e9;fill-opacity:1;fill-rule:nonzero;stroke:none;stroke-width:2;marker:none;enable-background:accumulate"
         id="rect256x256"
         width="192"
         height="192"
         x="-584"
         y="92"
         inkscape:label="256x256"
         transform="scale(-1,1)" />
      <rect
         inkscape:label="256x256"
         y="188"
         x="-376"
         height="96"
         width="96"
         id="rect3949"
         style="display:inline;overflow:visible;visibility:visible;fill:#e9e9e9;fill-opacity:1;fill-rule:nonzero;stroke:none;stroke-width:2;marker:none;enable-background:accumulate"
         transform="scale(-1,1)" />
      <rect
         style="display:inline;overflow:visible;visibility:visible;fill:#e9e9e9;fill-opacity:1;fill-rule:nonzero;stroke:none;stroke-width:2;marker:none;enable-background:accumulate"
         id="rect3951"
         width="64"
         height="64"
         x="-264"
         y="220"
         inkscape:label="48x48"
         transform="scale(-1,1)" />
    </g>
    <g
       inkscape:groupmode="layer"
       id="layer6"
       inkscape:label="Symbols"
       style="display:inline">
      <path
         inkscape:connector-curvature="0"
         style="opacity:0.05;fill:#000000;fill-opacity:1;stroke:#000000;stroke-width:2;stroke-linejoin:round;stroke-miterlimit:4;stroke-dasharray:none;stroke-opacity:1"
         d="M 60,261.68555 56.685547,265 52,265 52,269.68555 48.685547,273 52,276.31445 52,281 56.685547,281 60,284.31445 63.314453,281 68,281 68,276.31445 71.314453,273 68,269.68555 68,265 63.314453,265 60,261.68555 Z"
         id="path4620" />
      <path
         id="path4618"
         d="M 60,261.68555 56.685547,265 52,265 52,269.68555 48.685547,273 52,276.31445 52,281 56.685547,281 60,284.31445 63.314453,281 68,281 68,276.31445 71.314453,273 68,269.68555 68,265 63.314453,265 60,261.68555 Z"
         style="opacity:0.5;fill:#000000;fill-opacity:1;stroke:none;stroke-width:6;stroke-linejoin:round;stroke-miterlimit:4;stroke-dasharray:none;stroke-opacity:1"
         inkscape:connector-curvature="0" />
      <path
         style="fill:#000000;fill-opacity:1;stroke:none;opacity:0.5;filter:url(#filter4614)"
         d="m 104,254.4375 c -1.47557,1.45607 -2.88804,3.11383 -4.380862,4.5625 l -5.619141,0 0,5.61914 c -1.44888,1.49286 -3.106243,2.90525 -4.5625,4.38086 1.456112,1.47561 3.113744,2.94399 4.5625,4.44141 l 0,5.55859 5.619141,0 c 1.492862,1.44884 2.905252,3.10624 4.380862,4.5625 1.47561,-1.45611 2.94399,-3.11378 4.44141,-4.5625 l 5.55859,0 0,-5.56055 c 1.4488,-1.49721 3.10636,-2.96396 4.5625,-4.43945 -1.45613,-1.47563 -3.11373,-2.88791 -4.5625,-4.38086 L 114,259 l -5.55859,0 C 106.94407,257.55117 105.47554,255.89369 104,254.4375 Z M 104,263 c -3.31359,0 -6.000003,2.68641 -6.000003,6 0,3.31359 2.686413,6 6.000003,6 z"
         id="path4608"
         inkscape:connector-curvature="0"
         sodipodi:nodetypes="ccccccccccccccccccscc" />
      <path
         sodipodi:nodetypes="ccccccccccccccccccscc"
         inkscape:connector-curvature="0"
         id="path4558"
         d="m 230.87503,223.875 c -2.95114,2.91214 -5.77608,6.22766 -8.76171,9.125 l -11.23829,0 0,11.23828 c -2.89776,2.98572 -6.21248,5.8105 -9.125,8.76172 2.91223,2.95122 6.22749,5.88798 9.125,8.88282 l 0,11.11718 11.23829,0 c 2.98571,2.89768 5.81049,6.21248 8.76171,9.125 2.95122,-2.91222 5.88798,-6.22756 8.88282,-9.125 l 11.11718,0 0,-11.1211 c 2.8976,-2.99442 6.21273,-5.92792 9.12501,-8.8789 -2.91226,-2.95126 -6.22747,-5.77582 -9.12501,-8.76172 l 0,-11.23828 -11.11718,0 c -2.99468,-2.89766 -5.93174,-6.21262 -8.88282,-9.125 z m 0,17.125 c -6.62718,0 -12,5.37282 -12,12 0,6.62718 5.37282,12 12,12 z"
         style="fill:#000000;fill-opacity:1;stroke:none;opacity:0.5;filter:url(#filter4576)" />
      <path
         style="fill:#000000;fill-opacity:1;stroke:none;opacity:0.5;filter:url(#filter4568)"
         d="m 328,193.31253 c -4.42671,4.36821 -8.66412,9.34149 -13.14258,13.6875 l -16.85742,0 0,16.85742 c -4.34664,4.47858 -9.31873,8.71575 -13.6875,13.14258 4.36834,4.42683 9.34123,8.83197 13.6875,13.32423 l 0,16.67577 16.85742,0 c 4.47858,4.34652 8.71575,9.31872 13.14258,13.6875 4.42683,-4.36833 8.83197,-9.34134 13.32423,-13.6875 l 16.67577,0 0,-16.68165 c 4.3464,-4.49163 9.31908,-8.89188 13.6875,-13.31835 -4.36839,-4.42689 -9.34119,-8.66373 -13.6875,-13.14258 l 0,-16.85742 -16.67577,0 C 336.83221,202.65354 332.42662,197.6811 328,193.31253 Z m 0,25.6875 c -9.94077,0 -18,8.05923 -18,18 0,9.94077 8.05923,18 18,18 z"
         id="path4560"
         inkscape:connector-curvature="0"
         sodipodi:nodetypes="ccccccccccccccccccscc" />
      <path
         sodipodi:nodetypes="ccccccccccccccccccscc"
         inkscape:connector-curvature="0"
         id="path4562"
         d="m 488.00009,103.62501 c -8.85342,8.73642 -17.32824,18.68298 -26.28515,27.375 l -33.71485,0 0,33.71484 c -8.69328,8.95716 -18.63746,17.4315 -27.375,26.28516 8.73667,8.85366 18.68246,17.66394 27.375,26.64846 l 0,33.35154 33.71485,0 c 8.95715,8.69304 17.43149,18.63744 26.28515,27.375 8.85366,-8.73666 17.66394,-18.68268 26.64846,-27.375 l 33.35154,0 0,-33.3633 c 8.6928,-8.98326 18.63816,-17.78376 27.375,-26.6367 -8.73678,-8.85378 -18.68238,-17.32746 -27.375,-26.28516 l 0,-33.71484 -33.35154,0 c -8.98404,-8.69298 -17.79522,-18.63786 -26.64846,-27.375 z m 0,51.375 c -19.88154,0 -36,16.11846 -36,36 0,19.88154 16.11846,36 36,36 z"
         style="opacity:0.5;fill:#000000;fill-opacity:1;stroke:none;filter:url(#filter4564)" />
      <path
         sodipodi:nodetypes="ccccccccccccccccccscc"
         inkscape:connector-curvature="0"
         id="path4522"
         d="m 160.00001,239.15529 c -2.21336,2.1841 -4.33206,4.67074 -6.57129,6.84375 l -8.42871,0 0,8.42871 c -2.17332,2.23929 -4.65937,4.35787 -6.84375,6.57129 2.18417,2.21341 4.67061,4.41598 6.84375,6.66211 l 0,8.33789 8.42871,0 c 2.23929,2.17326 4.35787,4.65936 6.57129,6.84375 2.21341,-2.18417 4.41598,-4.67067 6.66211,-6.84375 l 8.33789,0 0,-8.34083 c 2.1732,-2.24581 4.65954,-4.44594 6.84375,-6.65917 -2.1842,-2.21345 -4.6706,-4.33187 -6.84375,-6.57129 l 0,-8.42871 -8.33789,0 c -2.24601,-2.17325 -4.4488,-4.65947 -6.66211,-6.84375 z m 0,12.84375 c -4.97039,0 -9,4.02961 -9,9 0,4.97038 4.02961,9 9,9 z"
         style="fill:#000000;fill-opacity:1;stroke:none;filter:url(#filter4524);opacity:0.5" />
      <path
         style="opacity:1;fill:#5f7c8a;fill-opacity:1;stroke:none;stroke-width:6;stroke-linejoin:round;stroke-miterlimit:4;stroke-dasharray:none;stroke-opacity:1"
         d="M 60 184.68555 L 56.685547 188 L 52 188 L 52 192.68555 L 48.685547 196 L 52 199.31445 L 52 204 L 56.685547 204 L 60 207.31445 L 63.314453 204 L 68 204 L 68 199.31445 L 71.314453 196 L 68 192.68555 L 68 188 L 63.314453 188 L 60 184.68555 z "
         transform="translate(0,76)"
         id="rect4479" />
      <path
         style="opacity:1;fill:#ffffff;fill-opacity:1;stroke:none;stroke-width:6;stroke-linejoin:round;stroke-miterlimit:4;stroke-dasharray:none;stroke-opacity:1"
         d="m 60.000001,266 a 6,6 0 0 0 -6,6 6,6 0 0 0 6,6 l 0,-12 z"
         id="path4477"
         inkscape:connector-curvature="0" />
      <path
         style="fill:#5f7c8a;fill-opacity:1;stroke:none"
         d="m 160.00001,238.15529 c -2.21336,2.1841 -4.33206,4.67074 -6.57129,6.84375 l -8.42871,0 0,8.42871 c -2.17332,2.23929 -4.65937,4.35787 -6.84375,6.57129 2.18417,2.21341 4.67061,4.41598 6.84375,6.66211 l 0,8.33789 8.42871,0 c 2.23929,2.17326 4.35787,4.65936 6.57129,6.84375 2.21341,-2.18417 4.41598,-4.67067 6.66211,-6.84375 l 8.33789,0 0,-8.34083 c 2.1732,-2.24581 4.65954,-4.44594 6.84375,-6.65917 -2.1842,-2.21345 -4.6706,-4.33187 -6.84375,-6.57129 l 0,-8.42871 -8.33789,0 c -2.24601,-2.17325 -4.4488,-4.65947 -6.66211,-6.84375 z m 0,12.84375 c -4.97039,0 -9,4.02961 -9,9 0,4.97038 4.02961,9 9,9 z"
         id="path4443"
         inkscape:connector-curvature="0"
         sodipodi:nodetypes="ccccccccccccccccccscc" />
      <path
         style="opacity:0.2;fill:#000000;fill-opacity:1;stroke:none;stroke-width:6;stroke-linejoin:round;stroke-miterlimit:4;stroke-dasharray:none;stroke-opacity:1;filter:url(#filter4600)"
         d="m 160,249 a 12,12 0 0 0 -12,12 12,12 0 0 0 12,12 l 0,-24 z"
         id="path4580"
         inkscape:connector-curvature="0" />
      <path
         inkscape:connector-curvature="0"
         id="path4445"
         d="m 160,248 a 12,12 0 0 0 -12,12 12,12 0 0 0 12,12 l 0,-24 z"
         style="opacity:1;fill:#ffffff;fill-opacity:1;stroke:none;stroke-width:6;stroke-linejoin:round;stroke-miterlimit:4;stroke-dasharray:none;stroke-opacity:1" />
      <path
         sodipodi:nodetypes="ccccccccccccccccccscc"
         inkscape:connector-curvature="0"
         id="rect3762"
         d="m 104,253.4375 c -1.47557,1.45607 -2.88804,3.11383 -4.380862,4.5625 l -5.619141,0 0,5.61914 c -1.44888,1.49286 -3.106243,2.90525 -4.5625,4.38086 1.456112,1.47561 3.113744,2.94399 4.5625,4.44141 l 0,5.55859 5.619141,0 c 1.492862,1.44884 2.905252,3.10624 4.380862,4.5625 1.47561,-1.45611 2.94399,-3.11378 4.44141,-4.5625 l 5.55859,0 0,-5.56055 c 1.4488,-1.49721 3.10636,-2.96396 4.5625,-4.43945 -1.45613,-1.47563 -3.11373,-2.88791 -4.5625,-4.38086 L 114,258 l -5.55859,0 C 106.94407,256.55117 105.47554,254.89369 104,253.4375 Z M 104,262 c -3.31359,0 -6.000003,2.68641 -6.000003,6 0,3.31359 2.686413,6 6.000003,6 z"
         style="fill:#5f7c8a;fill-opacity:1;stroke:none" />
      <path
         style="opacity:1;fill:#ffffff;fill-opacity:1;stroke:none;stroke-width:6;stroke-linejoin:round;stroke-miterlimit:4;stroke-dasharray:none;stroke-opacity:1"
         d="m 104,260 a 8,8 0 0 0 -8,8 8,8 0 0 0 8,8 l 0,-16 z"
         id="path4421"
         inkscape:connector-curvature="0" />
      <path
         style="fill:#5f7c8a;fill-opacity:1;stroke:none"
         d="m 230.87503,222.87498 c -2.95114,2.91214 -5.77608,6.22766 -8.76171,9.125 l -11.23829,0 0,11.23828 c -2.89776,2.98572 -6.21248,5.8105 -9.125,8.76172 2.91223,2.95122 6.22749,5.88798 9.125,8.88282 l 0,11.11718 11.23829,0 c 2.98571,2.89768 5.81049,6.21248 8.76171,9.125 2.95122,-2.91222 5.88798,-6.22756 8.88282,-9.125 l 11.11718,0 0,-11.1211 c 2.8976,-2.99442 6.21273,-5.92792 9.12501,-8.8789 -2.91226,-2.95126 -6.22747,-5.77582 -9.12501,-8.76172 l 0,-11.23828 -11.11718,0 c -2.99468,-2.89766 -5.93174,-6.21262 -8.88282,-9.125 z m 0,17.125 c -6.62718,0 -12,5.37282 -12,12 0,6.62718 5.37282,12 12,12 z"
         id="path4435"
         inkscape:connector-curvature="0"
         sodipodi:nodetypes="ccccccccccccccccccscc" />
      <path
         style="opacity:0.2;fill:#000000;fill-opacity:1;stroke:none;stroke-width:6;stroke-linejoin:round;stroke-miterlimit:4;stroke-dasharray:none;stroke-opacity:1;filter:url(#filter4596)"
         d="m 230.875,238 a 16,16 0 0 0 -16,16 16,16 0 0 0 16,16 l 0,-32 z"
         id="path4582"
         inkscape:connector-curvature="0" />
      <path
         inkscape:connector-curvature="0"
         id="path4437"
         d="m 230.875,236 a 16,16 0 0 0 -16,16 16,16 0 0 0 16,16 l 0,-32 z"
         style="opacity:1;fill:#ffffff;fill-opacity:1;stroke:none;stroke-width:6;stroke-linejoin:round;stroke-miterlimit:4;stroke-dasharray:none;stroke-opacity:1" />
      <path
         sodipodi:nodetypes="ccccccccccccccccccscc"
         inkscape:connector-curvature="0"
         id="path4451"
         d="m 328,192.31251 c -4.42671,4.36821 -8.66412,9.34149 -13.14258,13.6875 l -16.85742,0 0,16.85742 c -4.34664,4.47858 -9.31873,8.71575 -13.6875,13.14258 4.36834,4.42683 9.34123,8.83197 13.6875,13.32423 l 0,16.67577 16.85742,0 c 4.47858,4.34652 8.71575,9.31872 13.14258,13.6875 4.42683,-4.36833 8.83197,-9.34134 13.32423,-13.6875 l 16.67577,0 0,-16.68165 c 4.3464,-4.49163 9.31908,-8.89188 13.6875,-13.31835 -4.36839,-4.42689 -9.34119,-8.66373 -13.6875,-13.14258 l 0,-16.85742 -16.67577,0 C 336.83221,201.65352 332.42662,196.68108 328,192.31251 Z m 0,25.6875 c -9.94077,0 -18,8.05923 -18,18 0,9.94077 8.05923,18 18,18 z"
         style="fill:#5f7c8a;fill-opacity:1;stroke:none" />
      <path
         inkscape:connector-curvature="0"
         id="path4584"
         d="m 328,214 a 24,24 0 0 0 -24,24 24,24 0 0 0 24,24 l 0,-48 z"
         style="opacity:0.4;fill:#000000;fill-opacity:1;stroke:none;stroke-width:6;stroke-linejoin:round;stroke-miterlimit:4;stroke-dasharray:none;stroke-opacity:1;filter:url(#filter4592)" />
      <path
         style="opacity:1;fill:#ffffff;fill-opacity:1;stroke:none;stroke-width:6;stroke-linejoin:round;stroke-miterlimit:4;stroke-dasharray:none;stroke-opacity:1"
         d="m 328,212 a 24,24 0 0 0 -24,24 24,24 0 0 0 24,24 l 0,-48 z"
         id="path4453"
         inkscape:connector-curvature="0" />
      <path
         style="fill:#5f7c8a;fill-opacity:1;stroke:none"
         d="m 488.00009,100.62499 c -8.85342,8.73642 -17.32824,18.68298 -26.28515,27.375 l -33.71485,0 0,33.71484 c -8.69328,8.95716 -18.63746,17.4315 -27.375,26.28516 8.73667,8.85366 18.68246,17.66394 27.375,26.64846 l 0,33.35154 33.71485,0 c 8.95715,8.69304 17.43149,18.63744 26.28515,27.375 8.85366,-8.73666 17.66394,-18.68268 26.64846,-27.375 l 33.35154,0 0,-33.3633 c 8.6928,-8.98326 18.63816,-17.78376 27.375,-26.6367 -8.73678,-8.85378 -18.68238,-17.32746 -27.375,-26.28516 l 0,-33.71484 -33.35154,0 c -8.98404,-8.69298 -17.79522,-18.63786 -26.64846,-27.375 z m 0,51.375 c -19.88154,0 -36,16.11846 -36,36 0,19.88154 16.11846,36 36,36 z"
         id="path4459"
         inkscape:connector-curvature="0"
         sodipodi:nodetypes="ccccccccccccccccccscc" />
      <path
         style="opacity:0.2;fill:#000000;fill-opacity:1;stroke:none;stroke-width:6;stroke-linejoin:round;stroke-miterlimit:4;stroke-dasharray:none;stroke-opacity:1;filter:url(#filter4588)"
         d="m 488.00001,142 a 48,48 0 0 0 -48,48 48,48 0 0 0 48,48 l 0,-96 z"
         id="path4586"
         inkscape:connector-curvature="0" />
      <path
         inkscape:connector-curvature="0"
         id="path4461"
         d="m 488.00001,140 a 48,48 0 0 0 -48,48 48,48 0 0 0 48,48 l 0,-96 z"
         style="opacity:1;fill:#ffffff;fill-opacity:1;stroke:none;stroke-width:6;stroke-linejoin:round;stroke-miterlimit:4;stroke-dasharray:none;stroke-opacity:1" />
      <path
         style="fill:#5f7c8a;fill-opacity:1;stroke:none"
         d="m 24.000004,268.71875 c -0.737785,0.72803 -1.44402,1.55691 -2.19043,2.28125 l -2.80957,0 0,2.80957 c -0.72444,0.74643 -1.553122,1.45263 -2.28125,2.19043 0.728056,0.7378 1.556872,1.47199 2.28125,2.2207 l 0,2.7793 2.80957,0 c 0.74643,0.72442 1.452625,1.55312 2.19043,2.28125 0.737805,-0.72805 1.471995,-1.55689 2.220705,-2.28125 l 2.779295,0 0,-2.78028 c 0.7244,-0.7486 1.55318,-1.48197 2.28125,-2.21972 -0.728065,-0.73782 -1.556865,-1.44396 -2.28125,-2.19043 l 0,-2.80957 -2.779295,0 c -0.74867,-0.72442 -1.482935,-1.55316 -2.220705,-2.28125 z m 0,4.28125 c -1.656795,0 -3,1.3432 -3,3 0,1.65679 1.343205,3 3,3 z"
         id="path4467"
         inkscape:connector-curvature="0"
         sodipodi:nodetypes="ccccccccccccccccccscc" />
      <path
         inkscape:connector-curvature="0"
         id="path4469"
         d="m 24.000001,272 a 4,4 0 0 0 -4,4 4,4 0 0 0 4,4 l 0,-8 z"
         style="opacity:1;fill:#ffffff;fill-opacity:1;stroke:none;stroke-width:6;stroke-linejoin:round;stroke-miterlimit:4;stroke-dasharray:none;stroke-opacity:1" />
      <path
         inkscape:connector-curvature="0"
         id="path4507"
         d="m 160.00001,238.15626 c -2.21336,2.18411 -4.33108,4.67074 -6.57031,6.84375 l -8.42969,0 0,1 8.42969,0 c 2.23923,-2.17301 4.35695,-4.65965 6.57031,-6.84375 2.21331,2.18428 4.4161,4.6705 6.66211,6.84375 l 8.33789,0 0,-1 -8.33789,0 c -2.24601,-2.17325 -4.4488,-4.65946 -6.66211,-6.84375 z m -15,15.27148 c -2.17332,2.23929 -4.65936,4.35885 -6.84375,6.57227 0.16522,0.16743 0.34136,0.33463 0.50977,0.50195 2.05813,-2.03393 4.325,-4.00425 6.33398,-6.07422 l 0,-1 z m 30,0 0,1 c 2.00883,2.07009 4.27595,4.04029 6.33398,6.07422 0.16841,-0.16729 0.34455,-0.33454 0.50977,-0.50195 -2.1842,-2.21345 -4.67059,-4.33284 -6.84375,-6.57227 z"
         style="opacity:0.1;fill:#ffffff;fill-opacity:1;stroke:none" />
      <path
         style="fill:#ffffff;fill-opacity:1;stroke:none;opacity:0.1"
         d="M 230.875 146.875 C 227.92386 149.78714 225.09891 153.10266 222.11328 156 L 210.875 156 L 210.875 157 L 222.11328 157 C 225.09891 154.10266 227.92386 150.78714 230.875 147.875 C 233.82608 150.78738 236.76313 154.10234 239.75781 157 L 250.875 157 L 250.875 156 L 239.75781 156 C 236.76313 153.10234 233.82608 149.78738 230.875 146.875 z M 210.875 167.23828 C 207.97724 170.224 204.66252 173.04878 201.75 176 C 201.91526 176.16748 202.09206 176.33456 202.25977 176.50195 C 205.04756 173.73089 208.1417 171.05455 210.875 168.23828 L 210.875 167.23828 z M 250.875 167.23828 L 250.875 168.23828 C 253.6081 171.05472 256.70261 173.73088 259.49023 176.50195 C 259.65795 176.33459 259.83473 176.16746 260 176 C 257.08774 173.04874 253.77254 170.22418 250.875 167.23828 z "
         transform="translate(0,76)"
         id="path4528" />
      <path
         style="fill:#ffffff;fill-opacity:1;stroke:none;opacity:0.1"
         d="M 328 116.3125 C 323.57329 120.68071 319.33588 125.65399 314.85742 130 L 298 130 L 298 131 L 314.85742 131 C 319.33588 126.65399 323.57329 121.68071 328 117.3125 C 332.42662 121.68107 336.8322 126.65351 341.32422 131 L 358 131 L 358 130 L 341.32422 130 C 336.8322 125.65351 332.42662 120.68107 328 116.3125 z M 298 146.85742 C 293.65336 151.336 288.68127 155.57317 284.3125 160 C 284.47767 160.16738 284.65544 160.33463 284.82227 160.50195 C 289.06803 156.25575 293.81774 152.16663 298 147.85742 L 298 146.85742 z M 358 146.85742 L 358 147.85742 C 362.18194 152.16689 366.93226 156.25572 371.17773 160.50195 C 371.34462 160.33461 371.52228 160.16741 371.6875 160 C 367.31911 155.57311 362.34631 151.33627 358 146.85742 z "
         transform="translate(0,76)"
         id="path4530" />
      <path
         style="fill:#ffffff;fill-opacity:1;stroke:none;opacity:0.1"
         d="M 488 24.625 C 479.14658 33.36142 470.67175 43.30798 461.71484 52 L 428 52 L 428 53 L 461.71484 53 C 470.67175 44.30798 479.14658 34.36142 488 25.625 C 496.85324 34.36214 505.6644 44.30702 514.64844 53 L 548 53 L 548 52 L 514.64844 52 C 505.6644 43.30702 496.85324 33.36214 488 24.625 z M 428 85.714844 C 419.30672 94.672004 409.36254 103.14634 400.625 112 C 400.78995 112.16716 400.96116 112.33482 401.12695 112.50195 C 409.74359 103.82887 419.47055 95.5032 428 86.714844 L 428 85.714844 z M 548 85.714844 L 548 86.714844 C 556.5288 95.503729 566.25707 103.82878 574.87305 112.50195 C 575.03885 112.33484 575.21005 112.16715 575.375 112 C 566.63822 103.14622 556.69262 94.672544 548 85.714844 z "
         transform="translate(0,76)"
         id="path4532" />
      <path
         style="opacity:0.1;fill:#ffffff;fill-opacity:1;stroke:none;stroke-width:6;stroke-linejoin:round;stroke-miterlimit:4;stroke-dasharray:none;stroke-opacity:1"
         d="M 60 184.68555 L 56.685547 188 L 52 188 L 52 189 L 56.685547 189 L 60 185.68555 L 63.314453 189 L 68 189 L 68 188 L 63.314453 188 L 60 184.68555 z M 52 192.68555 L 48.685547 196 L 49.185547 196.5 L 52 193.68555 L 52 192.68555 z M 68 192.68555 L 68 193.68555 L 70.814453 196.5 L 71.314453 196 L 68 192.68555 z "
         transform="translate(0,76)"
         id="path4543" />
      <path
         style="fill:#ffffff;fill-opacity:1;stroke:none;opacity:0.1"
         d="M 104 177.4375 C 102.52443 178.89357 101.11196 180.55133 99.619141 182 L 94 182 L 94 183 L 99.619141 183 C 101.11196 181.55133 102.52443 179.89357 104 178.4375 C 105.47554 179.89369 106.94407 181.55117 108.44141 183 L 114 183 L 114 182 L 108.44141 182 C 106.94407 180.55117 105.47554 178.89369 104 177.4375 z M 94 187.61914 C 92.55112 189.112 90.893757 190.52439 89.4375 192 C 89.603225 192.16794 89.78669 192.3361 89.957031 192.50391 C 91.283565 191.20715 92.71584 189.94228 94 188.61914 L 94 187.61914 z M 114 187.61914 L 114 188.61914 C 115.28406 189.94236 116.71648 191.20715 118.04297 192.50391 C 118.21338 192.33607 118.3967 192.168 118.5625 192 C 117.10637 190.52437 115.44877 189.11209 114 187.61914 z "
         transform="translate(0,76)"
         id="path4545" />
      <path
         style="fill:#ffffff;fill-opacity:1;stroke:none;opacity:0.1"
         d="M 24 192.71875 C 23.262215 193.44678 22.556957 194.27566 21.810547 195 L 19 195 L 19 196 L 21.810547 196 C 22.556957 195.27566 23.262215 194.44678 24 193.71875 C 24.73777 194.44684 25.472033 195.27558 26.220703 196 L 29 196 L 29 195 L 26.220703 195 C 25.472033 194.27558 24.73777 193.44684 24 192.71875 z M 19 197.80859 C 18.27556 198.55502 17.446878 199.2622 16.71875 200 C 16.883944 200.16741 17.063156 200.33666 17.236328 200.50391 C 17.826419 199.94169 18.439883 199.38571 19 198.80859 L 19 197.80859 z M 29 197.80859 L 29 198.80859 C 29.559751 199.38541 30.17193 199.94203 30.761719 200.50391 C 30.935313 200.33634 31.115661 200.16779 31.28125 200 C 30.553185 199.26218 29.724385 198.55506 29 197.80859 z "
         transform="translate(0,76)"
         id="path4547" />
    </g>
  </g>
</svg>
