<?xml version="1.0" encoding="UTF-8" standalone="no"?>
<!-- Created with Inkscape (http://www.inkscape.org/) -->

<svg
   xmlns:dc="http://purl.org/dc/elements/1.1/"
   xmlns:cc="http://creativecommons.org/ns#"
   xmlns:rdf="http://www.w3.org/1999/02/22-rdf-syntax-ns#"
   xmlns:svg="http://www.w3.org/2000/svg"
   xmlns="http://www.w3.org/2000/svg"
   xmlns:sodipodi="http://sodipodi.sourceforge.net/DTD/sodipodi-0.dtd"
   xmlns:inkscape="http://www.inkscape.org/namespaces/inkscape"
   inkscape:export-ydpi="90.000000"
   inkscape:export-xdpi="90.000000"
   width="736"
   height="544"
   id="svg11300"
   sodipodi:version="0.32"
   inkscape:version="0.91 r13725"
   sodipodi:docname="gnome-boxes.svg"
   inkscape:output_extension="org.inkscape.output.svg.inkscape"
   version="1.0"
   style="display:inline;enable-background:new"
   inkscape:export-filename="/home/sam/paper-template.png">
  <title
     id="title3004">Paper Icon Theme Template</title>
  <sodipodi:namedview
     stroke="#ef2929"
     fill="#f57900"
     id="base"
     pagecolor="#777777"
     bordercolor="#666666"
     borderopacity="0.25490196"
     inkscape:pageopacity="0"
     inkscape:pageshadow="2"
     inkscape:zoom="1"
     inkscape:cx="356.80873"
     inkscape:cy="284.15019"
     inkscape:current-layer="layer6"
     showgrid="false"
     inkscape:grid-bbox="true"
     inkscape:document-units="px"
     inkscape:showpageshadow="false"
     inkscape:window-width="1366"
     inkscape:window-height="704"
     inkscape:window-x="0"
     inkscape:window-y="27"
     width="400px"
     height="300px"
     inkscape:snap-nodes="true"
     inkscape:snap-bbox="true"
     gridtolerance="10000"
     inkscape:object-nodes="false"
     inkscape:snap-grids="true"
     showguides="true"
     inkscape:guide-bbox="true"
     inkscape:window-maximized="1"
     inkscape:bbox-paths="true"
     inkscape:snap-bbox-midpoints="true"
     inkscape:snap-global="true"
     inkscape:object-paths="false"
     inkscape:snap-intersection-paths="true"
     inkscape:snap-smooth-nodes="true">
    <inkscape:grid
       spacingy="1px"
       spacingx="1px"
       id="grid5883"
       type="xygrid"
       enabled="true"
       visible="true"
       empspacing="4"
       snapvisiblegridlinesonly="true" />
    <inkscape:grid
       type="xygrid"
       id="grid11592"
       empspacing="2"
       visible="true"
       enabled="false"
       spacingx="0.5px"
       spacingy="0.5px"
       color="#ff0000"
       opacity="0.1254902"
       empcolor="#ff0000"
       empopacity="0.25098039"
       snapvisiblegridlinesonly="true" />
  </sodipodi:namedview>
  <defs
     id="defs3">
    <filter
       inkscape:collect="always"
       style="color-interpolation-filters:sRGB"
       id="filter4614"
       x="-0.024"
       width="1.048"
       y="-0.024"
       height="1.048">
      <feGaussianBlur
         inkscape:collect="always"
         stdDeviation="4.48"
         id="feGaussianBlur4616" />
    </filter>
    <filter
       inkscape:collect="always"
       style="color-interpolation-filters:sRGB"
       id="filter4671"
       x="-0.012"
       width="1.024"
       y="-0.012"
       height="1.024">
      <feGaussianBlur
         inkscape:collect="always"
         stdDeviation="1.92"
         id="feGaussianBlur4673" />
    </filter>
    <filter
       inkscape:collect="always"
       style="color-interpolation-filters:sRGB"
       id="filter4677"
       x="-0.024"
       width="1.048"
       y="-0.024"
       height="1.048">
      <feGaussianBlur
         inkscape:collect="always"
         stdDeviation="4.48"
         id="feGaussianBlur4679" />
    </filter>
  </defs>
  <metadata
     id="metadata4">
    <rdf:RDF>
      <cc:Work
         rdf:about="">
        <dc:format>image/svg+xml</dc:format>
        <dc:type
           rdf:resource="http://purl.org/dc/dcmitype/StillImage" />
        <dc:creator>
          <cc:Agent>
            <dc:title>Sam Hewitt</dc:title>
          </cc:Agent>
        </dc:creator>
        <dc:source />
        <cc:license
           rdf:resource="http://creativecommons.org/licenses/by-sa/3.0/" />
        <dc:title>Paper Icon Theme Template</dc:title>
        <dc:subject>
          <rdf:Bag />
        </dc:subject>
        <dc:date />
        <dc:rights>
          <cc:Agent>
            <dc:title />
          </cc:Agent>
        </dc:rights>
        <dc:publisher>
          <cc:Agent>
            <dc:title />
          </cc:Agent>
        </dc:publisher>
        <dc:identifier />
        <dc:relation />
        <dc:language />
        <dc:coverage />
        <dc:description />
        <dc:contributor>
          <cc:Agent>
            <dc:title />
          </cc:Agent>
        </dc:contributor>
      </cc:Work>
      <cc:Work
         rdf:about="">
        <dc:format>image/svg+xml</dc:format>
        <dc:type
           rdf:resource="http://purl.org/dc/dcmitype/StillImage" />
      </cc:Work>
      <cc:License
         rdf:about="http://creativecommons.org/licenses/by-sa/3.0/">
        <cc:permits
           rdf:resource="http://creativecommons.org/ns#Reproduction" />
        <cc:permits
           rdf:resource="http://creativecommons.org/ns#Distribution" />
        <cc:requires
           rdf:resource="http://creativecommons.org/ns#Notice" />
        <cc:requires
           rdf:resource="http://creativecommons.org/ns#Attribution" />
        <cc:permits
           rdf:resource="http://creativecommons.org/ns#DerivativeWorks" />
        <cc:requires
           rdf:resource="http://creativecommons.org/ns#ShareAlike" />
      </cc:License>
    </rdf:RDF>
  </metadata>
  <g
     style="display:inline"
     inkscape:groupmode="layer"
     inkscape:label="Icon"
     id="layer1"
     transform="translate(0,244)">
    <g
       style="display:none"
       inkscape:label="Baseplate"
       id="layer7"
       inkscape:groupmode="layer">
      <text
         y="337.74512"
         xml:space="preserve"
         x="15.006836"
         style="font-style:normal;font-variant:normal;font-weight:normal;font-stretch:normal;font-size:18px;font-family:'DejaVu Sans';-inkscape-font-specification:'DejaVu Sans';display:inline;fill:#000000;fill-opacity:1;stroke:none;enable-background:new"
         inkscape:label="context"
         id="context"><tspan
           style="font-style:normal;font-variant:normal;font-weight:normal;font-stretch:normal;font-family:'DejaVu Sans';-inkscape-font-specification:'DejaVu Sans'"
           y="337.74512"
           x="15.006836"
           sodipodi:role="line"
           id="tspan3933">apps</tspan></text>
      <text
         y="337.74512"
         xml:space="preserve"
         x="142.48828"
         style="font-style:normal;font-variant:normal;font-weight:bold;font-stretch:normal;font-size:18px;line-height:125%;font-family:'DejaVu Sans';-inkscape-font-specification:'DejaVu Sans Bold';text-align:start;writing-mode:lr-tb;text-anchor:start;display:inline;fill:#000000;fill-opacity:1;stroke:none;enable-background:new"
         sodipodi:linespacing="125%"
         inkscape:label="icon-name"
         id="icon-name"><tspan
           style="font-style:normal;font-variant:normal;font-weight:bold;font-stretch:normal;font-size:18px;font-family:'DejaVu Sans';-inkscape-font-specification:'DejaVu Sans Bold'"
           y="337.74512"
           x="142.48828"
           sodipodi:role="line"
           id="tspan3937">gnome-boxes</tspan></text>
      <rect
         style="display:inline;overflow:visible;visibility:visible;fill:#e9e9e9;fill-opacity:1;fill-rule:nonzero;stroke:none;stroke-width:2;marker:none;enable-background:accumulate"
         id="rect16x16"
         width="16"
         height="16"
         x="-32"
         y="268"
         inkscape:label="16x16"
         transform="scale(-1,1)" />
      <rect
         style="display:inline;overflow:visible;visibility:visible;fill:#e9e9e9;fill-opacity:1;fill-rule:nonzero;stroke:none;stroke-width:2;marker:none;enable-background:accumulate"
         id="rect24x24"
         width="24"
         height="24"
         x="-76"
         y="260"
         inkscape:label="24x24"
         transform="scale(-1,1)" />
      <rect
         style="display:inline;overflow:visible;visibility:visible;fill:#e9e9e9;fill-opacity:1;fill-rule:nonzero;stroke:none;stroke-width:2;marker:none;enable-background:accumulate"
         id="rect32x32"
         width="32"
         height="32"
         x="-128"
         y="252"
         inkscape:label="32x32"
         transform="scale(-1,1)" />
      <rect
         inkscape:label="48x48"
         y="236"
         x="-192"
         height="48"
         width="48"
         id="rect48x48"
         style="display:inline;overflow:visible;visibility:visible;fill:#e9e9e9;fill-opacity:1;fill-rule:nonzero;stroke:none;stroke-width:2;marker:none;enable-background:accumulate"
         transform="scale(-1,1)" />
      <rect
         style="display:inline;overflow:visible;visibility:visible;fill:#e9e9e9;fill-opacity:1;fill-rule:nonzero;stroke:none;stroke-width:2;marker:none;enable-background:accumulate"
         id="rect3951"
         width="512"
         height="512"
         x="-720"
         y="-228"
         inkscape:label="48x48"
         transform="scale(-1,1)" />
    </g>
    <g
       inkscape:groupmode="layer"
       id="layer6"
       inkscape:label="Symbols"
       style="display:inline">
      <path
         inkscape:connector-curvature="0"
         id="path4618"
         d="m 288,-192 a 48,48 0 0 0 -48,48 48,48 0 0 0 32,45.20117 l 0,261.60547 A 48,48 0 0 0 240,208 a 48,48 0 0 0 48,48 48,48 0 0 0 45.20117,-32 l 261.60547,0 A 48,48 0 0 0 640,256 48,48 0 0 0 688,208 48,48 0 0 0 656,162.79883 l 0,-261.60547 A 48,48 0 0 0 688,-144 a 48,48 0 0 0 -48,-48 48,48 0 0 0 -45.20117,32 l -261.60547,0 A 48,48 0 0 0 288,-192 Z m 45.20117,64 261.60547,0 a 48,48 0 0 0 6.0957,11.78516 l -40.67578,40.67578 A 32,32 0 0 0 544,-80 32,32 0 0 0 516.33203,-64 l -104.6543,0 A 32,32 0 0 0 384,-80 a 32,32 0 0 0 -16.22656,4.46094 l -40.69336,-40.69336 A 48,48 0 0 0 333.20117,-128 Z m 279.03125,23.08008 A 48,48 0 0 0 624,-98.79883 l 0,261.60547 a 48,48 0 0 0 -11.78516,6.0957 L 571.53906,128.22656 A 32,32 0 0 0 576,112 32,32 0 0 0 560,84.33203 l 0,-104.6543 A 32,32 0 0 0 576,-48 32,32 0 0 0 571.53906,-64.22656 l 40.69336,-40.69336 z m -296.44726,0.0176 40.67578,40.67578 A 32,32 0 0 0 352,-48 a 32,32 0 0 0 16,27.66797 l 0,104.6543 A 32,32 0 0 0 352,112 a 32,32 0 0 0 4.46094,16.22656 l -40.69336,40.69336 A 48,48 0 0 0 304,162.79883 l 0,-261.60547 a 48,48 0 0 0 11.78516,-6.0957 z M 411.66797,-32 l 104.6543,0 A 32,32 0 0 0 528,-20.33203 l 0,104.6543 A 32,32 0 0 0 516.33203,96 l -104.6543,0 A 32,32 0 0 0 400,84.33203 l 0,-104.6543 A 32,32 0 0 0 411.66797,-32 Z m 0,160 104.6543,0 A 32,32 0 0 0 544,144 a 32,32 0 0 0 16.22656,-4.46094 l 40.69336,40.69336 A 48,48 0 0 0 594.79883,192 l -261.60547,0 a 48,48 0 0 0 -6.0957,-11.78516 l 40.67578,-40.67578 A 32,32 0 0 0 384,144 32,32 0 0 0 411.66797,128 Z"
         style="display:inline;opacity:0.1;fill:#000000;fill-opacity:1;stroke:#000000;stroke-width:8;stroke-linecap:round;stroke-linejoin:miter;stroke-miterlimit:4;stroke-dasharray:none;stroke-opacity:1;enable-background:new;filter:url(#filter4614)" />
      <path
         id="path4661"
         d="m 272,-160 0,16 0,368 384,0 0,-384 -384,0 z m 43.3125,32 297.375,0 -64,64 -169.375,0 -64,-64 z M 304,-116.6875 l 64,64 0,4.6875 0,164.6875 -64,64 0,-297.375 z m 320,0 0,297.375 -64,-64 0,-169.375 64,-64 z M 400,-32 l 128,0 0,128 -128,0 0,-128 z m -20.6875,160 169.375,0 64,64 -297.375,0 64,-64 z"
         style="color:#000000;font-style:normal;font-variant:normal;font-weight:normal;font-stretch:normal;font-size:medium;line-height:normal;font-family:sans-serif;text-indent:0;text-align:start;text-decoration:none;text-decoration-line:none;text-decoration-style:solid;text-decoration-color:#000000;letter-spacing:normal;word-spacing:normal;text-transform:none;direction:ltr;block-progression:tb;writing-mode:lr-tb;baseline-shift:baseline;text-anchor:start;white-space:normal;clip-rule:nonzero;display:inline;overflow:visible;visibility:visible;opacity:0.2;isolation:auto;mix-blend-mode:normal;color-interpolation:sRGB;color-interpolation-filters:linearRGB;solid-color:#000000;solid-opacity:1;fill:#000000;fill-opacity:1;fill-rule:nonzero;stroke:none;stroke-width:32;stroke-linecap:round;stroke-linejoin:miter;stroke-miterlimit:4;stroke-dasharray:none;stroke-dashoffset:0;stroke-opacity:1;color-rendering:auto;image-rendering:auto;shape-rendering:auto;text-rendering:auto;enable-background:accumulate;filter:url(#filter4671)"
         inkscape:connector-curvature="0" />
      <path
         id="path4659"
         d="m 55,264 0,1 0,17 18,0 0,-18 -18,0 z m 2.707031,2 12.585938,0 -3,3 -6.585938,0 -3,-3 z M 57,266.70703 l 3,3 0,6.58594 -3,3 0,-12.58594 z m 14,0 0,12.58594 -3,-3 0,-6.58594 3,-3 z M 61,270 l 6,0 0,6 -6,0 0,-6 z m -0.292969,7 6.585938,0 3,3 -12.585938,0 3,-3 z"
         style="color:#000000;font-style:normal;font-variant:normal;font-weight:normal;font-stretch:normal;font-size:medium;line-height:normal;font-family:sans-serif;text-indent:0;text-align:start;text-decoration:none;text-decoration-line:none;text-decoration-style:solid;text-decoration-color:#000000;letter-spacing:normal;word-spacing:normal;text-transform:none;direction:ltr;block-progression:tb;writing-mode:lr-tb;baseline-shift:baseline;text-anchor:start;white-space:normal;clip-rule:nonzero;display:inline;overflow:visible;visibility:visible;opacity:0.2;isolation:auto;mix-blend-mode:normal;color-interpolation:sRGB;color-interpolation-filters:linearRGB;solid-color:#000000;solid-opacity:1;fill:#000000;fill-opacity:1;fill-rule:nonzero;stroke:none;stroke-width:1.00000012;stroke-linecap:round;stroke-linejoin:miter;stroke-miterlimit:4;stroke-dasharray:none;stroke-dashoffset:0;stroke-opacity:1;color-rendering:auto;image-rendering:auto;shape-rendering:auto;text-rendering:auto;enable-background:accumulate"
         inkscape:connector-curvature="0" />
      <path
         id="path4554"
         d="m 100,257 0,1.5 0,22.5 24,0 0,-24 -24,0 z m 3.70703,3 16.58594,0 -3.39649,3.39648 0.70704,0.70704 3.39648,-3.39649 0,16.58594 -3.39648,-3.39649 -0.70704,0.70704 3.39649,3.39648 -16.58594,0 3.39649,-3.39648 -0.70704,-0.70704 -3.39648,3.39649 0,-16.58594 3.39648,3.39649 0.70704,-0.70704 L 103.70703,260 Z m 3.29297,4 0,1 0,9 10,0 0,-10 -10,0 z m 2,2 6,0 0,6 -6,0 0,-6 z"
         style="color:#000000;font-style:normal;font-variant:normal;font-weight:normal;font-stretch:normal;font-size:medium;line-height:normal;font-family:sans-serif;text-indent:0;text-align:start;text-decoration:none;text-decoration-line:none;text-decoration-style:solid;text-decoration-color:#000000;letter-spacing:normal;word-spacing:normal;text-transform:none;direction:ltr;block-progression:tb;writing-mode:lr-tb;baseline-shift:baseline;text-anchor:start;white-space:normal;clip-rule:nonzero;display:inline;overflow:visible;visibility:visible;opacity:0.2;isolation:auto;mix-blend-mode:normal;color-interpolation:sRGB;color-interpolation-filters:linearRGB;solid-color:#000000;solid-opacity:1;fill:#000000;fill-opacity:1;fill-rule:nonzero;stroke:none;stroke-width:2;stroke-linecap:round;stroke-linejoin:miter;stroke-miterlimit:4;stroke-dasharray:none;stroke-dashoffset:0;stroke-opacity:1;color-rendering:auto;image-rendering:auto;shape-rendering:auto;text-rendering:auto;enable-background:accumulate"
         inkscape:connector-curvature="0" />
      <path
         id="path4537"
         d="m 151,244 0,2 0,32 34,0 0,-34 -34,0 z m 5.41406,4 23.17188,0 -5,5 -13.17188,0 -5,-5 z M 155,249.41406 l 5,5 0,13.17188 -5,5 0,-23.17188 z m 26,0 0,23.17188 -5,-5 0,-13.17188 5,-5 z M 162,255 l 12,0 0,12 -12,0 0,-12 z m -0.58594,14 13.17188,0 5,5 -23.17188,0 5,-5 z"
         style="color:#000000;font-style:normal;font-variant:normal;font-weight:normal;font-stretch:normal;font-size:medium;line-height:normal;font-family:sans-serif;text-indent:0;text-align:start;text-decoration:none;text-decoration-line:none;text-decoration-style:solid;text-decoration-color:#000000;letter-spacing:normal;word-spacing:normal;text-transform:none;direction:ltr;block-progression:tb;writing-mode:lr-tb;baseline-shift:baseline;text-anchor:start;white-space:normal;clip-rule:nonzero;display:inline;overflow:visible;visibility:visible;opacity:0.2;isolation:auto;mix-blend-mode:normal;color-interpolation:sRGB;color-interpolation-filters:linearRGB;solid-color:#000000;solid-opacity:1;fill:#000000;fill-opacity:1;fill-rule:nonzero;stroke:none;stroke-width:2;stroke-linecap:round;stroke-linejoin:miter;stroke-miterlimit:4;stroke-dasharray:none;stroke-dashoffset:0;stroke-opacity:1;color-rendering:auto;image-rendering:auto;shape-rendering:auto;text-rendering:auto;enable-background:accumulate"
         inkscape:connector-curvature="0" />
      <rect
         y="269.5"
         x="17.5"
         height="13"
         width="13"
         id="rect4460"
         style="opacity:1;fill:none;fill-opacity:1;stroke:#c4c4c4;stroke-width:1.00000012;stroke-linecap:round;stroke-linejoin:miter;stroke-miterlimit:4;stroke-dasharray:none;stroke-opacity:1" />
      <path
         style="color:#000000;font-style:normal;font-variant:normal;font-weight:normal;font-stretch:normal;font-size:medium;line-height:normal;font-family:sans-serif;text-indent:0;text-align:start;text-decoration:none;text-decoration-line:none;text-decoration-style:solid;text-decoration-color:#000000;letter-spacing:normal;word-spacing:normal;text-transform:none;direction:ltr;block-progression:tb;writing-mode:lr-tb;baseline-shift:baseline;text-anchor:start;white-space:normal;clip-rule:nonzero;display:inline;overflow:visible;visibility:visible;opacity:1;isolation:auto;mix-blend-mode:normal;color-interpolation:sRGB;color-interpolation-filters:linearRGB;solid-color:#000000;solid-opacity:1;fill:#c4c4c4;fill-opacity:1;fill-rule:nonzero;stroke:none;stroke-width:32;stroke-linecap:round;stroke-linejoin:miter;stroke-miterlimit:4;stroke-dasharray:none;stroke-dashoffset:0;stroke-opacity:1;color-rendering:auto;image-rendering:auto;shape-rendering:auto;text-rendering:auto;enable-background:accumulate"
         d="M 272 80 L 272 96 L 272 464 L 656 464 L 656 80 L 272 80 z M 315.3125 112 L 612.6875 112 L 548.6875 176 L 379.3125 176 L 315.3125 112 z M 304 123.3125 L 368 187.3125 L 368 192 L 368 356.6875 L 304 420.6875 L 304 123.3125 z M 624 123.3125 L 624 420.6875 L 560 356.6875 L 560 187.3125 L 624 123.3125 z M 400 208 L 528 208 L 528 336 L 400 336 L 400 208 z M 379.3125 368 L 548.6875 368 L 612.6875 432 L 315.3125 432 L 379.3125 368 z "
         id="rect4170"
         transform="translate(0,-244)" />
      <path
         style="color:#000000;font-style:normal;font-variant:normal;font-weight:normal;font-stretch:normal;font-size:medium;line-height:normal;font-family:sans-serif;text-indent:0;text-align:start;text-decoration:none;text-decoration-line:none;text-decoration-style:solid;text-decoration-color:#000000;letter-spacing:normal;word-spacing:normal;text-transform:none;direction:ltr;block-progression:tb;writing-mode:lr-tb;baseline-shift:baseline;text-anchor:start;white-space:normal;clip-rule:nonzero;display:inline;overflow:visible;visibility:visible;opacity:0.2;isolation:auto;mix-blend-mode:normal;color-interpolation:sRGB;color-interpolation-filters:linearRGB;solid-color:#000000;solid-opacity:1;fill:#ffffff;fill-opacity:1;fill-rule:nonzero;stroke:none;stroke-width:32;stroke-linecap:round;stroke-linejoin:miter;stroke-miterlimit:4;stroke-dasharray:none;stroke-dashoffset:0;stroke-opacity:1;color-rendering:auto;image-rendering:auto;shape-rendering:auto;text-rendering:auto;enable-background:accumulate"
         d="M 272 80 L 272 82 L 656 82 L 656 80 L 272 80 z M 315.3125 114 L 379.3125 178 L 548.6875 178 L 612.6875 114 L 610.6875 114 L 548.6875 176 L 379.3125 176 L 317.3125 114 L 315.3125 114 z M 400 336 L 400 338 L 528 338 L 528 336 L 400 336 z M 368 356.6875 L 304 420.6875 L 304 422.6875 L 368 358.6875 L 368 356.6875 z M 560 356.6875 L 560 358.6875 L 624 422.6875 L 624 420.6875 L 560 356.6875 z M 317.3125 432 L 315.3125 434 L 612.6875 434 L 610.6875 432 L 317.3125 432 z "
         transform="translate(0,-244)"
         id="path4620" />
      <path
         id="path4675"
         d="m 288,-192 a 48,48 0 0 0 -48,48 48,48 0 0 0 48,48 48,48 0 0 0 48,-48 48,48 0 0 0 -48,-48 z m 352,0 a 48,48 0 0 0 -48,48 48,48 0 0 0 48,48 48,48 0 0 0 48,-48 48,48 0 0 0 -48,-48 z M 384,-80 a 32,32 0 0 0 -32,32 32,32 0 0 0 32,32 32,32 0 0 0 32,-32 32,32 0 0 0 -32,-32 z m 160,0 a 32,32 0 0 0 -32,32 32,32 0 0 0 32,32 32,32 0 0 0 32,-32 32,32 0 0 0 -32,-32 z M 384,80 a 32,32 0 0 0 -32,32 32,32 0 0 0 32,32 32,32 0 0 0 32,-32 32,32 0 0 0 -32,-32 z m 160,0 a 32,32 0 0 0 -32,32 32,32 0 0 0 32,32 32,32 0 0 0 32,-32 32,32 0 0 0 -32,-32 z m -256,80 a 48,48 0 0 0 -48,48 48,48 0 0 0 48,48 48,48 0 0 0 48,-48 48,48 0 0 0 -48,-48 z m 352,0 a 48,48 0 0 0 -48,48 48,48 0 0 0 48,48 48,48 0 0 0 48,-48 48,48 0 0 0 -48,-48 z"
         style="display:inline;opacity:0.2;fill:#000000;fill-opacity:1;stroke:none;stroke-width:8;stroke-linecap:round;stroke-linejoin:miter;stroke-miterlimit:4;stroke-dasharray:none;stroke-opacity:1;enable-background:new;filter:url(#filter4677)"
         inkscape:connector-curvature="0" />
      <path
         style="display:inline;opacity:1;fill:#d8d8d8;fill-opacity:1;stroke:none;stroke-width:8;stroke-linecap:round;stroke-linejoin:miter;stroke-miterlimit:4;stroke-dasharray:none;stroke-opacity:1;enable-background:new"
         d="M 288 48 A 48 48 0 0 0 240 96 A 48 48 0 0 0 288 144 A 48 48 0 0 0 336 96 A 48 48 0 0 0 288 48 z M 640 48 A 48 48 0 0 0 592 96 A 48 48 0 0 0 640 144 A 48 48 0 0 0 688 96 A 48 48 0 0 0 640 48 z M 384 160 A 32 32 0 0 0 352 192 A 32 32 0 0 0 384 224 A 32 32 0 0 0 416 192 A 32 32 0 0 0 384 160 z M 544 160 A 32 32 0 0 0 512 192 A 32 32 0 0 0 544 224 A 32 32 0 0 0 576 192 A 32 32 0 0 0 544 160 z M 384 320 A 32 32 0 0 0 352 352 A 32 32 0 0 0 384 384 A 32 32 0 0 0 416 352 A 32 32 0 0 0 384 320 z M 544 320 A 32 32 0 0 0 512 352 A 32 32 0 0 0 544 384 A 32 32 0 0 0 576 352 A 32 32 0 0 0 544 320 z M 288 400 A 48 48 0 0 0 240 448 A 48 48 0 0 0 288 496 A 48 48 0 0 0 336 448 A 48 48 0 0 0 288 400 z M 640 400 A 48 48 0 0 0 592 448 A 48 48 0 0 0 640 496 A 48 48 0 0 0 688 448 A 48 48 0 0 0 640 400 z "
         id="path4147"
         transform="translate(0,-244)" />
      <path
         style="color:#000000;font-style:normal;font-variant:normal;font-weight:normal;font-stretch:normal;font-size:medium;line-height:normal;font-family:sans-serif;text-indent:0;text-align:start;text-decoration:none;text-decoration-line:none;text-decoration-style:solid;text-decoration-color:#000000;letter-spacing:normal;word-spacing:normal;text-transform:none;direction:ltr;block-progression:tb;writing-mode:lr-tb;baseline-shift:baseline;text-anchor:start;white-space:normal;clip-rule:nonzero;display:inline;overflow:visible;visibility:visible;opacity:1;isolation:auto;mix-blend-mode:normal;color-interpolation:sRGB;color-interpolation-filters:linearRGB;solid-color:#000000;solid-opacity:1;fill:#c4c4c4;fill-opacity:1;fill-rule:nonzero;stroke:none;stroke-width:2;stroke-linecap:round;stroke-linejoin:miter;stroke-miterlimit:4;stroke-dasharray:none;stroke-dashoffset:0;stroke-opacity:1;color-rendering:auto;image-rendering:auto;shape-rendering:auto;text-rendering:auto;enable-background:accumulate"
         d="M 151 487 L 151 489 L 151 521 L 185 521 L 185 487 L 151 487 z M 156.41406 491 L 179.58594 491 L 174.58594 496 L 161.41406 496 L 156.41406 491 z M 155 492.41406 L 160 497.41406 L 160 510.58594 L 155 515.58594 L 155 492.41406 z M 181 492.41406 L 181 515.58594 L 176 510.58594 L 176 497.41406 L 181 492.41406 z M 162 498 L 174 498 L 174 510 L 162 510 L 162 498 z M 161.41406 512 L 174.58594 512 L 179.58594 517 L 156.41406 517 L 161.41406 512 z "
         transform="translate(0,-244)"
         id="rect4354" />
      <path
         style="color:#000000;font-style:normal;font-variant:normal;font-weight:normal;font-stretch:normal;font-size:medium;line-height:normal;font-family:sans-serif;text-indent:0;text-align:start;text-decoration:none;text-decoration-line:none;text-decoration-style:solid;text-decoration-color:#000000;letter-spacing:normal;word-spacing:normal;text-transform:none;direction:ltr;block-progression:tb;writing-mode:lr-tb;baseline-shift:baseline;text-anchor:start;white-space:normal;clip-rule:nonzero;display:inline;overflow:visible;visibility:visible;opacity:1;isolation:auto;mix-blend-mode:normal;color-interpolation:sRGB;color-interpolation-filters:linearRGB;solid-color:#000000;solid-opacity:1;fill:#c4c4c4;fill-opacity:1;fill-rule:nonzero;stroke:none;stroke-width:1.00000012;stroke-linecap:round;stroke-linejoin:miter;stroke-miterlimit:4;stroke-dasharray:none;stroke-dashoffset:0;stroke-opacity:1;color-rendering:auto;image-rendering:auto;shape-rendering:auto;text-rendering:auto;enable-background:accumulate"
         d="M 55 507 L 55 508 L 55 525 L 73 525 L 73 507 L 55 507 z M 57.707031 509 L 70.292969 509 L 67.292969 512 L 60.707031 512 L 57.707031 509 z M 57 509.70703 L 60 512.70703 L 60 519.29297 L 57 522.29297 L 57 509.70703 z M 71 509.70703 L 71 522.29297 L 68 519.29297 L 68 512.70703 L 71 509.70703 z M 61 513 L 67 513 L 67 519 L 61 519 L 61 513 z M 60.707031 520 L 67.292969 520 L 70.292969 523 L 57.707031 523 L 60.707031 520 z "
         transform="translate(0,-244)"
         id="rect4384" />
      <path
         style="display:inline;opacity:0.2;fill:#000000;fill-opacity:1;stroke:none;stroke-width:8;stroke-linecap:round;stroke-linejoin:miter;stroke-miterlimit:4;stroke-dasharray:none;stroke-opacity:1;enable-background:new"
         d="M 56 506 A 3 3 0 0 0 53 509 A 3 3 0 0 0 56 512 A 3 3 0 0 0 59 509 A 3 3 0 0 0 56 506 z M 72 506 A 3 3 0 0 0 69 509 A 3 3 0 0 0 72 512 A 3 3 0 0 0 75 509 A 3 3 0 0 0 72 506 z M 60.5 512 C 59.671573 512 59 512.67157 59 513.5 C 59 514.32843 59.671573 515 60.5 515 C 61.328427 515 62 514.32843 62 513.5 C 62 512.67157 61.328427 512 60.5 512 z M 67.5 512 C 66.671573 512 66 512.67157 66 513.5 C 66 514.32843 66.671573 515 67.5 515 C 68.328427 515 69 514.32843 69 513.5 C 69 512.67157 68.328427 512 67.5 512 z M 60.5 519 A 1.5000002 1.5000002 0 0 0 59 520.5 A 1.5000002 1.5000002 0 0 0 60.5 522 A 1.5000002 1.5000002 0 0 0 62 520.5 A 1.5000002 1.5000002 0 0 0 60.5 519 z M 67.5 519 A 1.5000002 1.5000002 0 0 0 66 520.5 A 1.5000002 1.5000002 0 0 0 67.5 522 A 1.5000002 1.5000002 0 0 0 69 520.5 A 1.5000002 1.5000002 0 0 0 67.5 519 z M 56 522 A 2.9999998 2.9999998 0 0 0 53 525 A 2.9999998 2.9999998 0 0 0 56 528 A 2.9999998 2.9999998 0 0 0 59 525 A 2.9999998 2.9999998 0 0 0 56 522 z M 72 522 A 2.9999998 2.9999998 0 0 0 69 525 A 2.9999998 2.9999998 0 0 0 72 528 A 2.9999998 2.9999998 0 0 0 75 525 A 2.9999998 2.9999998 0 0 0 72 522 z "
         transform="translate(0,-244)"
         id="path4640" />
      <path
         style="display:inline;opacity:1;fill:#d8d8d8;fill-opacity:1;stroke:none;stroke-width:8;stroke-linecap:round;stroke-linejoin:miter;stroke-miterlimit:4;stroke-dasharray:none;stroke-opacity:1;enable-background:new"
         d="M 56 505 A 3 3 0 0 0 53 508 A 3 3 0 0 0 56 511 A 3 3 0 0 0 59 508 A 3 3 0 0 0 56 505 z M 72 505 A 3 3 0 0 0 69 508 A 3 3 0 0 0 72 511 A 3 3 0 0 0 75 508 A 3 3 0 0 0 72 505 z M 60.5 511 A 1.5000002 1.5000002 0 0 0 59 512.5 A 1.5000002 1.5000002 0 0 0 60.5 514 A 1.5000002 1.5000002 0 0 0 62 512.5 A 1.5000002 1.5000002 0 0 0 60.5 511 z M 67.5 511 A 1.5000002 1.5000002 0 0 0 66 512.5 A 1.5000002 1.5000002 0 0 0 67.5 514 A 1.5000002 1.5000002 0 0 0 69 512.5 A 1.5000002 1.5000002 0 0 0 67.5 511 z M 60.5 518 A 1.5000002 1.5000002 0 0 0 59 519.5 A 1.5000002 1.5000002 0 0 0 60.5 521 A 1.5000002 1.5000002 0 0 0 62 519.5 A 1.5000002 1.5000002 0 0 0 60.5 518 z M 67.5 518 A 1.5000002 1.5000002 0 0 0 66 519.5 A 1.5000002 1.5000002 0 0 0 67.5 521 A 1.5000002 1.5000002 0 0 0 69 519.5 A 1.5000002 1.5000002 0 0 0 67.5 518 z M 56 521 A 2.9999998 2.9999998 0 0 0 53 524 A 2.9999998 2.9999998 0 0 0 56 527 A 2.9999998 2.9999998 0 0 0 59 524 A 2.9999998 2.9999998 0 0 0 56 521 z M 72 521 A 2.9999998 2.9999998 0 0 0 69 524 A 2.9999998 2.9999998 0 0 0 72 527 A 2.9999998 2.9999998 0 0 0 75 524 A 2.9999998 2.9999998 0 0 0 72 521 z "
         transform="translate(0,-244)"
         id="circle4396" />
      <rect
         style="opacity:1;fill:none;fill-opacity:1;stroke:#c4c4c4;stroke-width:1.00000012;stroke-linecap:round;stroke-linejoin:miter;stroke-miterlimit:4;stroke-dasharray:none;stroke-opacity:1"
         id="rect4414"
         width="7.0000005"
         height="7.0000005"
         x="20.5"
         y="272.5" />
      <path
         sodipodi:nodetypes="cc"
         inkscape:connector-curvature="0"
         id="path4418"
         d="m 16.5,268.5 4,4"
         style="fill:none;fill-rule:evenodd;stroke:#c4c4c4;stroke-width:1.00000012;stroke-linecap:butt;stroke-linejoin:miter;stroke-miterlimit:4;stroke-dasharray:none;stroke-opacity:1" />
      <path
         sodipodi:nodetypes="cc"
         inkscape:connector-curvature="0"
         id="path4420"
         d="m 27.500001,272.5 4,-4"
         style="fill:none;fill-rule:evenodd;stroke:#c4c4c4;stroke-width:1.00000012;stroke-linecap:butt;stroke-linejoin:miter;stroke-miterlimit:4;stroke-dasharray:none;stroke-opacity:1" />
      <path
         sodipodi:nodetypes="cc"
         inkscape:connector-curvature="0"
         id="path4422"
         d="m 27.500001,279.5 4,4"
         style="fill:none;fill-rule:evenodd;stroke:#c4c4c4;stroke-width:1.00000012;stroke-linecap:butt;stroke-linejoin:miter;stroke-miterlimit:4;stroke-dasharray:none;stroke-opacity:1" />
      <path
         sodipodi:nodetypes="cc"
         inkscape:connector-curvature="0"
         id="path4424"
         d="m 20.5,279.5 -4,4"
         style="fill:none;fill-rule:evenodd;stroke:#c4c4c4;stroke-width:1.00000012;stroke-linecap:butt;stroke-linejoin:miter;stroke-miterlimit:4;stroke-dasharray:none;stroke-opacity:1" />
      <circle
         r="1.5"
         cy="269.5"
         cx="17.5"
         id="circle4426"
         style="display:inline;opacity:1;fill:#d8d8d8;fill-opacity:1;stroke:none;stroke-width:8;stroke-linecap:round;stroke-linejoin:miter;stroke-miterlimit:4;stroke-dasharray:none;stroke-opacity:1;enable-background:new" />
      <circle
         style="display:inline;opacity:1;fill:#d8d8d8;fill-opacity:1;stroke:none;stroke-width:8;stroke-linecap:round;stroke-linejoin:miter;stroke-miterlimit:4;stroke-dasharray:none;stroke-opacity:1;enable-background:new"
         id="circle4428"
         cx="30.5"
         cy="269.5"
         r="1.5" />
      <circle
         style="display:inline;opacity:1;fill:#d8d8d8;fill-opacity:1;stroke:none;stroke-width:8;stroke-linecap:round;stroke-linejoin:miter;stroke-miterlimit:4;stroke-dasharray:none;stroke-opacity:1;enable-background:new"
         id="circle4434"
         cx="20.5"
         cy="272.5"
         r="1.5000002" />
      <circle
         r="1.5000002"
         cy="272.5"
         cx="27.500002"
         id="circle4436"
         style="display:inline;opacity:1;fill:#d8d8d8;fill-opacity:1;stroke:none;stroke-width:8;stroke-linecap:round;stroke-linejoin:miter;stroke-miterlimit:4;stroke-dasharray:none;stroke-opacity:1;enable-background:new" />
      <circle
         style="display:inline;opacity:1;fill:#d8d8d8;fill-opacity:1;stroke:none;stroke-width:8;stroke-linecap:round;stroke-linejoin:miter;stroke-miterlimit:4;stroke-dasharray:none;stroke-opacity:1;enable-background:new"
         id="circle4438"
         cx="27.500002"
         cy="279.5"
         r="1.5000002" />
      <circle
         r="1.5000002"
         cy="279.5"
         cx="20.5"
         id="circle4440"
         style="display:inline;opacity:1;fill:#d8d8d8;fill-opacity:1;stroke:none;stroke-width:8;stroke-linecap:round;stroke-linejoin:miter;stroke-miterlimit:4;stroke-dasharray:none;stroke-opacity:1;enable-background:new" />
      <circle
         style="display:inline;opacity:1;fill:#d8d8d8;fill-opacity:1;stroke:none;stroke-width:8;stroke-linecap:round;stroke-linejoin:miter;stroke-miterlimit:4;stroke-dasharray:none;stroke-opacity:1;enable-background:new"
         id="circle4456"
         cx="17.5"
         cy="282.5"
         r="1.5" />
      <circle
         r="1.5"
         cy="282.5"
         cx="30.5"
         id="circle4458"
         style="display:inline;opacity:1;fill:#d8d8d8;fill-opacity:1;stroke:none;stroke-width:8;stroke-linecap:round;stroke-linejoin:miter;stroke-miterlimit:4;stroke-dasharray:none;stroke-opacity:1;enable-background:new" />
      <path
         style="color:#000000;font-style:normal;font-variant:normal;font-weight:normal;font-stretch:normal;font-size:medium;line-height:normal;font-family:sans-serif;text-indent:0;text-align:start;text-decoration:none;text-decoration-line:none;text-decoration-style:solid;text-decoration-color:#000000;letter-spacing:normal;word-spacing:normal;text-transform:none;direction:ltr;block-progression:tb;writing-mode:lr-tb;baseline-shift:baseline;text-anchor:start;white-space:normal;clip-rule:nonzero;display:inline;overflow:visible;visibility:visible;opacity:1;isolation:auto;mix-blend-mode:normal;color-interpolation:sRGB;color-interpolation-filters:linearRGB;solid-color:#000000;solid-opacity:1;fill:#c4c4c4;fill-opacity:1;fill-rule:nonzero;stroke:none;stroke-width:2;stroke-linecap:round;stroke-linejoin:miter;stroke-miterlimit:4;stroke-dasharray:none;stroke-dashoffset:0;stroke-opacity:1;color-rendering:auto;image-rendering:auto;shape-rendering:auto;text-rendering:auto;enable-background:accumulate"
         d="M 100 500 L 100 501.5 L 100 524 L 124 524 L 124 500 L 100 500 z M 103.70703 503 L 120.29297 503 L 116.89648 506.39648 L 117.60352 507.10352 L 121 503.70703 L 121 520.29297 L 117.60352 516.89648 L 116.89648 517.60352 L 120.29297 521 L 103.70703 521 L 107.10352 517.60352 L 106.39648 516.89648 L 103 520.29297 L 103 503.70703 L 106.39648 507.10352 L 107.10352 506.39648 L 103.70703 503 z M 107 507 L 107 508 L 107 517 L 117 517 L 117 507 L 107 507 z M 109 509 L 115 509 L 115 515 L 109 515 L 109 509 z "
         transform="translate(0,-244)"
         id="rect4464" />
      <path
         id="path4507"
         d="m 101.5,255 a 3.5,3.5 0 0 0 -3.5,3.5 3.5,3.5 0 0 0 3.5,3.5 3.5,3.5 0 0 0 3.5,-3.5 3.5,3.5 0 0 0 -3.5,-3.5 z m 21,0 a 3.5,3.5 0 0 0 -3.5,3.5 3.5,3.5 0 0 0 3.5,3.5 3.5,3.5 0 0 0 3.5,-3.5 3.5,3.5 0 0 0 -3.5,-3.5 z m -14.5,8 a 2,2 0 0 0 -2,2 2,2 0 0 0 2,2 2,2 0 0 0 2,-2 2,2 0 0 0 -2,-2 z m 8,0 a 2,2 0 0 0 -2,2 2,2 0 0 0 2,2 2,2 0 0 0 2,-2 2,2 0 0 0 -2,-2 z m -8,8 a 2,2 0 0 0 -2,2 2,2 0 0 0 2,2 2,2 0 0 0 2,-2 2,2 0 0 0 -2,-2 z m 8,0 a 2,2 0 0 0 -2,2 2,2 0 0 0 2,2 2,2 0 0 0 2,-2 2,2 0 0 0 -2,-2 z m -14.5,5 a 3.5,3.5 0 0 0 -3.5,3.5 3.5,3.5 0 0 0 3.5,3.5 3.5,3.5 0 0 0 3.5,-3.5 3.5,3.5 0 0 0 -3.5,-3.5 z m 21,0 a 3.5,3.5 0 0 0 -3.5,3.5 3.5,3.5 0 0 0 3.5,3.5 3.5,3.5 0 0 0 3.5,-3.5 3.5,3.5 0 0 0 -3.5,-3.5 z"
         style="display:inline;opacity:0.2;fill:#000000;fill-opacity:1;stroke:none;stroke-width:8;stroke-linecap:round;stroke-linejoin:miter;stroke-miterlimit:4;stroke-dasharray:none;stroke-opacity:1;enable-background:new"
         inkscape:connector-curvature="0" />
      <path
         style="display:inline;opacity:1;fill:#d8d8d8;fill-opacity:1;stroke:none;stroke-width:8;stroke-linecap:round;stroke-linejoin:miter;stroke-miterlimit:4;stroke-dasharray:none;stroke-opacity:1;enable-background:new"
         d="M 101.5 498 A 3.5 3.5 0 0 0 98 501.5 A 3.5 3.5 0 0 0 101.5 505 A 3.5 3.5 0 0 0 105 501.5 A 3.5 3.5 0 0 0 101.5 498 z M 122.5 498 A 3.5 3.5 0 0 0 119 501.5 A 3.5 3.5 0 0 0 122.5 505 A 3.5 3.5 0 0 0 126 501.5 A 3.5 3.5 0 0 0 122.5 498 z M 108 506 A 2 2 0 0 0 106 508 A 2 2 0 0 0 108 510 A 2 2 0 0 0 110 508 A 2 2 0 0 0 108 506 z M 116 506 A 2 2 0 0 0 114 508 A 2 2 0 0 0 116 510 A 2 2 0 0 0 118 508 A 2 2 0 0 0 116 506 z M 108 514 A 2 2 0 0 0 106 516 A 2 2 0 0 0 108 518 A 2 2 0 0 0 110 516 A 2 2 0 0 0 108 514 z M 116 514 A 2 2 0 0 0 114 516 A 2 2 0 0 0 116 518 A 2 2 0 0 0 118 516 A 2 2 0 0 0 116 514 z M 101.5 519 A 3.5 3.5 0 0 0 98 522.5 A 3.5 3.5 0 0 0 101.5 526 A 3.5 3.5 0 0 0 105 522.5 A 3.5 3.5 0 0 0 101.5 519 z M 122.5 519 A 3.5 3.5 0 0 0 119 522.5 A 3.5 3.5 0 0 0 122.5 526 A 3.5 3.5 0 0 0 126 522.5 A 3.5 3.5 0 0 0 122.5 519 z "
         transform="translate(0,-244)"
         id="circle4476" />
      <path
         style="color:#000000;font-style:normal;font-variant:normal;font-weight:normal;font-stretch:normal;font-size:medium;line-height:normal;font-family:sans-serif;text-indent:0;text-align:start;text-decoration:none;text-decoration-line:none;text-decoration-style:solid;text-decoration-color:#000000;letter-spacing:normal;word-spacing:normal;text-transform:none;direction:ltr;block-progression:tb;writing-mode:lr-tb;baseline-shift:baseline;text-anchor:start;white-space:normal;clip-rule:nonzero;display:inline;overflow:visible;visibility:visible;opacity:0.2;isolation:auto;mix-blend-mode:normal;color-interpolation:sRGB;color-interpolation-filters:linearRGB;solid-color:#000000;solid-opacity:1;fill:#ffffff;fill-opacity:1;fill-rule:nonzero;stroke:none;stroke-width:2;stroke-linecap:round;stroke-linejoin:miter;stroke-miterlimit:4;stroke-dasharray:none;stroke-dashoffset:0;stroke-opacity:1;color-rendering:auto;image-rendering:auto;shape-rendering:auto;text-rendering:auto;enable-background:accumulate"
         d="M 151 487 L 151 488 L 185 488 L 185 487 L 151 487 z M 156.41406 492 L 161.41406 497 L 174.58594 497 L 179.58594 492 L 178.58594 492 L 174.58594 496 L 161.41406 496 L 157.41406 492 L 156.41406 492 z M 162 510 L 162 511 L 174 511 L 174 510 L 162 510 z M 160 510.58594 L 155 515.58594 L 155 516.58594 L 160 511.58594 L 160 510.58594 z M 176 510.58594 L 176 511.58594 L 181 516.58594 L 181 515.58594 L 176 510.58594 z M 157.41406 517 L 156.41406 518 L 179.58594 518 L 178.58594 517 L 157.41406 517 z "
         transform="translate(0,-244)"
         id="path4556" />
      <path
         id="path4539"
         d="m 153,241 a 5,5 0 0 0 -5,5 5,5 0 0 0 5,5 5,5 0 0 0 5,-5 5,5 0 0 0 -5,-5 z m 30,0 a 5,5 0 0 0 -5,5 5,5 0 0 0 5,5 5,5 0 0 0 5,-5 5,5 0 0 0 -5,-5 z m -22,10 a 3,3 0 0 0 -3,3 3,3 0 0 0 3,3 3,3 0 0 0 3,-3 3,3 0 0 0 -3,-3 z m 14,0 a 3,3 0 0 0 -3,3 3,3 0 0 0 3,3 3,3 0 0 0 3,-3 3,3 0 0 0 -3,-3 z m -14,14 a 3,3 0 0 0 -3,3 3,3 0 0 0 3,3 3,3 0 0 0 3,-3 3,3 0 0 0 -3,-3 z m 14,0 a 3,3 0 0 0 -3,3 3,3 0 0 0 3,3 3,3 0 0 0 3,-3 3,3 0 0 0 -3,-3 z m -22,6 a 5,5 0 0 0 -5,5 5,5 0 0 0 5,5 5,5 0 0 0 5,-5 5,5 0 0 0 -5,-5 z m 30,0 a 5,5 0 0 0 -5,5 5,5 0 0 0 5,5 5,5 0 0 0 5,-5 5,5 0 0 0 -5,-5 z"
         style="display:inline;opacity:0.2;fill:#000000;fill-opacity:1;stroke:none;stroke-width:8;stroke-linecap:round;stroke-linejoin:miter;stroke-miterlimit:4;stroke-dasharray:none;stroke-opacity:1;enable-background:new"
         inkscape:connector-curvature="0" />
      <path
         style="display:inline;opacity:1;fill:#d8d8d8;fill-opacity:1;stroke:none;stroke-width:8;stroke-linecap:round;stroke-linejoin:miter;stroke-miterlimit:4;stroke-dasharray:none;stroke-opacity:1;enable-background:new"
         d="M 153 484 A 5 5 0 0 0 148 489 A 5 5 0 0 0 153 494 A 5 5 0 0 0 158 489 A 5 5 0 0 0 153 484 z M 183 484 A 5 5 0 0 0 178 489 A 5 5 0 0 0 183 494 A 5 5 0 0 0 188 489 A 5 5 0 0 0 183 484 z M 161 494 A 3 3 0 0 0 158 497 A 3 3 0 0 0 161 500 A 3 3 0 0 0 164 497 A 3 3 0 0 0 161 494 z M 175 494 A 3 3 0 0 0 172 497 A 3 3 0 0 0 175 500 A 3 3 0 0 0 178 497 A 3 3 0 0 0 175 494 z M 161 508 A 3 3 0 0 0 158 511 A 3 3 0 0 0 161 514 A 3 3 0 0 0 164 511 A 3 3 0 0 0 161 508 z M 175 508 A 3 3 0 0 0 172 511 A 3 3 0 0 0 175 514 A 3 3 0 0 0 178 511 A 3 3 0 0 0 175 508 z M 153 514 A 5 5 0 0 0 148 519 A 5 5 0 0 0 153 524 A 5 5 0 0 0 158 519 A 5 5 0 0 0 153 514 z M 183 514 A 5 5 0 0 0 178 519 A 5 5 0 0 0 183 524 A 5 5 0 0 0 188 519 A 5 5 0 0 0 183 514 z "
         id="circle4366"
         transform="translate(0,-244)" />
      <path
         style="display:inline;opacity:0.2;fill:#ffffff;fill-opacity:1;stroke:none;stroke-width:8;stroke-linecap:round;stroke-linejoin:miter;stroke-miterlimit:4;stroke-dasharray:none;stroke-opacity:1;enable-background:new"
         d="M 153 484 A 5 5 0 0 0 148 489 A 5 5 0 0 0 148.02734 489.51562 A 5 5 0 0 1 153 485 A 5 5 0 0 1 157.97266 489.48438 A 5 5 0 0 0 158 489 A 5 5 0 0 0 153 484 z M 183 484 A 5 5 0 0 0 178 489 A 5 5 0 0 0 178.02734 489.51562 A 5 5 0 0 1 183 485 A 5 5 0 0 1 187.97266 489.48438 A 5 5 0 0 0 188 489 A 5 5 0 0 0 183 484 z M 161 494 A 3 3 0 0 0 158 497 A 3 3 0 0 0 158.04297 497.48633 A 3 3 0 0 1 161 495 A 3 3 0 0 1 163.95703 497.51367 A 3 3 0 0 0 164 497 A 3 3 0 0 0 161 494 z M 175 494 A 3 3 0 0 0 172 497 A 3 3 0 0 0 172.04297 497.48633 A 3 3 0 0 1 175 495 A 3 3 0 0 1 177.95703 497.51367 A 3 3 0 0 0 178 497 A 3 3 0 0 0 175 494 z M 161 508 A 3 3 0 0 0 158 511 A 3 3 0 0 0 158.04297 511.48633 A 3 3 0 0 1 161 509 A 3 3 0 0 1 163.95703 511.51367 A 3 3 0 0 0 164 511 A 3 3 0 0 0 161 508 z M 175 508 A 3 3 0 0 0 172 511 A 3 3 0 0 0 172.04297 511.48633 A 3 3 0 0 1 175 509 A 3 3 0 0 1 177.95703 511.51367 A 3 3 0 0 0 178 511 A 3 3 0 0 0 175 508 z M 153 514 A 5 5 0 0 0 148 519 A 5 5 0 0 0 148.02734 519.51562 A 5 5 0 0 1 153 515 A 5 5 0 0 1 157.97266 519.48438 A 5 5 0 0 0 158 519 A 5 5 0 0 0 153 514 z M 183 514 A 5 5 0 0 0 178 519 A 5 5 0 0 0 178.02734 519.51562 A 5 5 0 0 1 183 515 A 5 5 0 0 1 187.97266 519.48438 A 5 5 0 0 0 188 519 A 5 5 0 0 0 183 514 z "
         transform="translate(0,-244)"
         id="path4561" />
      <path
         style="display:inline;opacity:0.2;fill:#ffffff;fill-opacity:1;stroke:none;stroke-width:8;stroke-linecap:round;stroke-linejoin:miter;stroke-miterlimit:4;stroke-dasharray:none;stroke-opacity:1;enable-background:new"
         d="M 288 48 A 48 48 0 0 0 240 96 A 48 48 0 0 0 240.04102 96.832031 A 48 48 0 0 1 288 50 A 48 48 0 0 1 335.95898 97.167969 A 48 48 0 0 0 336 96 A 48 48 0 0 0 288 48 z M 640 48 A 48 48 0 0 0 592 96 A 48 48 0 0 0 592.04102 96.832031 A 48 48 0 0 1 640 50 A 48 48 0 0 1 687.95898 97.167969 A 48 48 0 0 0 688 96 A 48 48 0 0 0 640 48 z M 384 160 A 32 32 0 0 0 352 192 A 32 32 0 0 0 352.04102 192.82812 A 32 32 0 0 1 384 162 A 32 32 0 0 1 415.95898 193.17188 A 32 32 0 0 0 416 192 A 32 32 0 0 0 384 160 z M 544 160 A 32 32 0 0 0 512 192 A 32 32 0 0 0 512.04102 192.82812 A 32 32 0 0 1 544 162 A 32 32 0 0 1 575.95898 193.17188 A 32 32 0 0 0 576 192 A 32 32 0 0 0 544 160 z M 384 320 A 32 32 0 0 0 352 352 A 32 32 0 0 0 352.04102 352.82812 A 32 32 0 0 1 384 322 A 32 32 0 0 1 415.95898 353.17188 A 32 32 0 0 0 416 352 A 32 32 0 0 0 384 320 z M 544 320 A 32 32 0 0 0 512 352 A 32 32 0 0 0 512.04102 352.82812 A 32 32 0 0 1 544 322 A 32 32 0 0 1 575.95898 353.17188 A 32 32 0 0 0 576 352 A 32 32 0 0 0 544 320 z M 288 400 A 48 48 0 0 0 240 448 A 48 48 0 0 0 240.04102 448.83203 A 48 48 0 0 1 288 402 A 48 48 0 0 1 335.95898 449.16797 A 48 48 0 0 0 336 448 A 48 48 0 0 0 288 400 z M 640 400 A 48 48 0 0 0 592 448 A 48 48 0 0 0 592.04102 448.83203 A 48 48 0 0 1 640 402 A 48 48 0 0 1 687.95898 449.16797 A 48 48 0 0 0 688 448 A 48 48 0 0 0 640 400 z "
         transform="translate(0,-244)"
         id="path4589" />
    </g>
  </g>
</svg>
