<?xml version="1.0" encoding="UTF-8" standalone="no"?>
<!-- Created with Inkscape (http://www.inkscape.org/) -->

<svg
   xmlns:osb="http://www.openswatchbook.org/uri/2009/osb"
   xmlns:dc="http://purl.org/dc/elements/1.1/"
   xmlns:cc="http://creativecommons.org/ns#"
   xmlns:rdf="http://www.w3.org/1999/02/22-rdf-syntax-ns#"
   xmlns:svg="http://www.w3.org/2000/svg"
   xmlns="http://www.w3.org/2000/svg"
   xmlns:sodipodi="http://sodipodi.sourceforge.net/DTD/sodipodi-0.dtd"
   xmlns:inkscape="http://www.inkscape.org/namespaces/inkscape"
   inkscape:export-ydpi="90.000000"
   inkscape:export-xdpi="90.000000"
   width="736"
   height="544"
   id="svg11300"
   sodipodi:version="0.32"
   inkscape:version="0.91 r13725"
   sodipodi:docname="help.svg"
   inkscape:output_extension="org.inkscape.output.svg.inkscape"
   version="1.0"
   style="display:inline;enable-background:new"
   inkscape:export-filename="/home/sam/paper-template.png">
  <title
     id="title3004">Paper Icon Theme</title>
  <sodipodi:namedview
     stroke="#ef2929"
     fill="#f57900"
     id="base"
     pagecolor="#484848"
     bordercolor="#666666"
     borderopacity="0.25490196"
     inkscape:pageopacity="0"
     inkscape:pageshadow="2"
     inkscape:zoom="1"
     inkscape:cx="186.84456"
     inkscape:cy="34.225296"
     inkscape:current-layer="g4199"
     showgrid="false"
     inkscape:grid-bbox="true"
     inkscape:document-units="px"
     inkscape:showpageshadow="false"
     inkscape:window-width="1366"
     inkscape:window-height="704"
     inkscape:window-x="0"
     inkscape:window-y="27"
     width="400px"
     height="300px"
     inkscape:snap-nodes="true"
     inkscape:snap-bbox="true"
     gridtolerance="10000"
     inkscape:object-nodes="true"
     inkscape:snap-grids="true"
     showguides="true"
     inkscape:guide-bbox="true"
     inkscape:window-maximized="1"
     inkscape:snap-global="true"
     inkscape:snap-intersection-paths="true"
     inkscape:object-paths="true"
     inkscape:snap-smooth-nodes="true">
    <inkscape:grid
       spacingy="1px"
       spacingx="1px"
       id="grid5883"
       type="xygrid"
       enabled="true"
       visible="true"
       empspacing="4"
       snapvisiblegridlinesonly="true" />
    <inkscape:grid
       type="xygrid"
       id="grid11592"
       empspacing="2"
       visible="true"
       enabled="false"
       spacingx="0.5px"
       spacingy="0.5px"
       color="#ff0000"
       opacity="0.1254902"
       empcolor="#ff0000"
       empopacity="0.25098039"
       snapvisiblegridlinesonly="true" />
  </sodipodi:namedview>
  <defs
     id="defs3">
    <linearGradient
       osb:paint="solid"
       id="linearGradient5606">
      <stop
         style="stop-color:#000000;stop-opacity:1;"
         offset="0"
         id="stop5608" />
    </linearGradient>
    <filter
       inkscape:collect="always"
       style="color-interpolation-filters:sRGB"
       id="filter4253"
       x="-0.12005003"
       width="1.2401001"
       y="-0.039994445"
       height="1.079989">
      <feGaussianBlur
         inkscape:collect="always"
         stdDeviation="1.000417"
         id="feGaussianBlur4255" />
    </filter>
    <clipPath
       clipPathUnits="userSpaceOnUse"
       id="clipPath4260">
      <path
         id="path4262"
         d="m 232,148 0,56 19,0 c 1.662,0 3,-1.338 3,-3 l 0,-50 c 0,-1.662 -1.338,-3 -3,-3 l -19,0 z"
         style="fill:#d8d8d8;fill-opacity:1;stroke:none"
         inkscape:connector-curvature="0" />
    </clipPath>
    <filter
       inkscape:collect="always"
       style="color-interpolation-filters:sRGB"
       id="filter4332"
       x="-0.027272727"
       width="1.0545455"
       y="-0.02142857"
       height="1.0428571">
      <feGaussianBlur
         inkscape:collect="always"
         stdDeviation="4"
         id="feGaussianBlur4334" />
    </filter>
    <clipPath
       clipPathUnits="userSpaceOnUse"
       id="clipPath4419">
      <path
         inkscape:connector-curvature="0"
         id="path4421"
         d="m 168,240 0,40 14.02148,0 c 1.108,0 2,-0.892 2,-2 l 0,-36 c 0,-1.108 -0.892,-2 -2,-2 L 168,240 Z"
         style="fill:#d8d8d8;fill-opacity:1;stroke:none" />
    </clipPath>
  </defs>
  <metadata
     id="metadata4">
    <rdf:RDF>
      <cc:Work
         rdf:about="">
        <dc:format>image/svg+xml</dc:format>
        <dc:type
           rdf:resource="http://purl.org/dc/dcmitype/StillImage" />
        <dc:creator>
          <cc:Agent>
            <dc:title>Sam Hewitt</dc:title>
          </cc:Agent>
        </dc:creator>
        <dc:source />
        <cc:license
           rdf:resource="http://creativecommons.org/licenses/by-sa/3.0/" />
        <dc:title>Paper Icon Theme</dc:title>
        <dc:subject>
          <rdf:Bag />
        </dc:subject>
        <dc:date />
        <dc:rights>
          <cc:Agent>
            <dc:title />
          </cc:Agent>
        </dc:rights>
        <dc:publisher>
          <cc:Agent>
            <dc:title />
          </cc:Agent>
        </dc:publisher>
        <dc:identifier />
        <dc:relation />
        <dc:language />
        <dc:coverage />
        <dc:description />
        <dc:contributor>
          <cc:Agent>
            <dc:title />
          </cc:Agent>
        </dc:contributor>
      </cc:Work>
      <cc:Work
         rdf:about="">
        <dc:format>image/svg+xml</dc:format>
        <dc:type
           rdf:resource="http://purl.org/dc/dcmitype/StillImage" />
      </cc:Work>
    </rdf:RDF>
  </metadata>
  <g
     style="display:inline"
     inkscape:groupmode="layer"
     inkscape:label="Icon"
     id="layer1"
     transform="translate(0,244)">
    <g
       style="display:none"
       inkscape:label="Baseplate (help-browser)"
       id="layer7"
       inkscape:groupmode="layer">
      <text
         y="332.48523"
         xml:space="preserve"
         x="15.006836"
         style="font-style:normal;font-variant:normal;font-weight:normal;font-stretch:normal;font-size:18px;font-family:'DejaVu Sans';-inkscape-font-specification:'DejaVu Sans';display:inline;fill:#000000;fill-opacity:1;stroke:none;enable-background:new"
         inkscape:label="context"
         id="context"><tspan
           style="font-style:normal;font-variant:normal;font-weight:normal;font-stretch:normal;font-family:'DejaVu Sans';-inkscape-font-specification:'DejaVu Sans'"
           y="332.48523"
           x="15.006836"
           sodipodi:role="line"
           id="tspan3933">apps</tspan></text>
      <text
         y="332.48523"
         xml:space="preserve"
         x="142.48828"
         style="font-style:normal;font-variant:normal;font-weight:bold;font-stretch:normal;font-size:18px;line-height:125%;font-family:'DejaVu Sans';-inkscape-font-specification:'DejaVu Sans Bold';text-align:start;writing-mode:lr-tb;text-anchor:start;display:inline;fill:#000000;fill-opacity:1;stroke:none;enable-background:new"
         sodipodi:linespacing="125%"
         inkscape:label="icon-name"
         id="icon-name"><tspan
           style="font-style:normal;font-variant:normal;font-weight:bold;font-stretch:normal;font-size:18px;font-family:'DejaVu Sans';-inkscape-font-specification:'DejaVu Sans Bold'"
           y="332.48523"
           x="142.48828"
           sodipodi:role="line"
           id="tspan3937">help-browser</tspan></text>
      <rect
         style="display:inline;overflow:visible;visibility:visible;fill:#e9e9e9;fill-opacity:1;fill-rule:nonzero;stroke:none;stroke-width:2;marker:none;enable-background:accumulate"
         id="rect16x16"
         width="16"
         height="16"
         x="-32"
         y="268"
         inkscape:label="16x16"
         transform="scale(-1,1)" />
      <rect
         style="display:inline;overflow:visible;visibility:visible;fill:#e9e9e9;fill-opacity:1;fill-rule:nonzero;stroke:none;stroke-width:2;marker:none;enable-background:accumulate"
         id="rect24x24"
         width="24"
         height="24"
         x="-76"
         y="260"
         inkscape:label="24x24"
         transform="scale(-1,1)" />
      <rect
         style="display:inline;overflow:visible;visibility:visible;fill:#e9e9e9;fill-opacity:1;fill-rule:nonzero;stroke:none;stroke-width:2;marker:none;enable-background:accumulate"
         id="rect32x32"
         width="32"
         height="32"
         x="-128"
         y="252"
         inkscape:label="32x32"
         transform="scale(-1,1)" />
      <rect
         inkscape:label="48x48"
         y="236"
         x="-192"
         height="48"
         width="48"
         id="rect48x48"
         style="display:inline;overflow:visible;visibility:visible;fill:#e9e9e9;fill-opacity:1;fill-rule:nonzero;stroke:none;stroke-width:2;marker:none;enable-background:accumulate"
         transform="scale(-1,1)" />
      <rect
         style="display:inline;overflow:visible;visibility:visible;fill:#e9e9e9;fill-opacity:1;fill-rule:nonzero;stroke:none;stroke-width:2;marker:none;enable-background:accumulate"
         id="rect3951"
         width="512"
         height="512"
         x="-720"
         y="-228"
         inkscape:label="48x48"
         transform="scale(-1,1)" />
    </g>
    <g
       inkscape:groupmode="layer"
       id="g4199"
       inkscape:label="Baseplate (system-help)"
       style="display:none">
      <text
         id="text4201"
         inkscape:label="context"
         style="font-style:normal;font-variant:normal;font-weight:normal;font-stretch:normal;font-size:18px;font-family:'DejaVu Sans';-inkscape-font-specification:'DejaVu Sans';display:inline;fill:#000000;fill-opacity:1;stroke:none;enable-background:new"
         x="15.006836"
         xml:space="preserve"
         y="332.48523"><tspan
           id="tspan4203"
           sodipodi:role="line"
           x="15.006836"
           y="332.48523"
           style="font-style:normal;font-variant:normal;font-weight:normal;font-stretch:normal;font-family:'DejaVu Sans';-inkscape-font-specification:'DejaVu Sans'">categories</tspan></text>
      <text
         id="text4205"
         inkscape:label="icon-name"
         sodipodi:linespacing="125%"
         style="font-style:normal;font-variant:normal;font-weight:bold;font-stretch:normal;font-size:18px;line-height:125%;font-family:'DejaVu Sans';-inkscape-font-specification:'DejaVu Sans Bold';text-align:start;writing-mode:lr-tb;text-anchor:start;display:inline;fill:#000000;fill-opacity:1;stroke:none;enable-background:new"
         x="142.48828"
         xml:space="preserve"
         y="332.48523"><tspan
           id="tspan4207"
           sodipodi:role="line"
           x="142.48828"
           y="332.48523"
           style="font-style:normal;font-variant:normal;font-weight:bold;font-stretch:normal;font-size:18px;font-family:'DejaVu Sans';-inkscape-font-specification:'DejaVu Sans Bold'">system-help</tspan></text>
      <rect
         transform="scale(-1,1)"
         inkscape:label="16x16"
         y="268"
         x="-32"
         height="16"
         width="16"
         id="rect4209"
         style="display:inline;overflow:visible;visibility:visible;fill:#e9e9e9;fill-opacity:1;fill-rule:nonzero;stroke:none;stroke-width:2;marker:none;enable-background:accumulate" />
      <rect
         transform="scale(-1,1)"
         inkscape:label="24x24"
         y="260"
         x="-76"
         height="24"
         width="24"
         id="rect4211"
         style="display:inline;overflow:visible;visibility:visible;fill:#e9e9e9;fill-opacity:1;fill-rule:nonzero;stroke:none;stroke-width:2;marker:none;enable-background:accumulate" />
      <rect
         transform="scale(-1,1)"
         inkscape:label="32x32"
         y="252"
         x="-128"
         height="32"
         width="32"
         id="rect4213"
         style="display:inline;overflow:visible;visibility:visible;fill:#e9e9e9;fill-opacity:1;fill-rule:nonzero;stroke:none;stroke-width:2;marker:none;enable-background:accumulate" />
      <rect
         transform="scale(-1,1)"
         style="display:inline;overflow:visible;visibility:visible;fill:#e9e9e9;fill-opacity:1;fill-rule:nonzero;stroke:none;stroke-width:2;marker:none;enable-background:accumulate"
         id="rect4215"
         width="48"
         height="48"
         x="-192"
         y="236"
         inkscape:label="48x48" />
      <rect
         transform="scale(-1,1)"
         inkscape:label="48x48"
         y="-228"
         x="-720"
         height="512"
         width="512"
         id="rect4217"
         style="display:inline;overflow:visible;visibility:visible;fill:#e9e9e9;fill-opacity:1;fill-rule:nonzero;stroke:none;stroke-width:2;marker:none;enable-background:accumulate" />
    </g>
    <g
       inkscape:groupmode="layer"
       id="layer6"
       inkscape:label="Symbols"
       style="display:inline">
      <path
         style="opacity:0.2;fill:#000000;fill-opacity:1;stroke:none;filter:url(#filter4332)"
         d="M 602.44531 35.867188 C 601.64088 35.859502 600.82531 35.902905 600 36 L 464 52 L 312 52 C 298.704 52 288 62.704 288 76 L 288 476 C 288 489.296 298.704 500 312 500 L 464 500 L 600 516 C 610.84119 517.27543 620.05155 509.23953 623.00391 498.96484 C 632.86148 495.98104 640 486.85698 640 476 L 640 76 C 640 65.143016 632.86148 56.018957 623.00391 53.035156 C 620.27631 43.542658 612.20786 35.960457 602.44531 35.867188 z "
         transform="translate(0,-244)"
         id="path4281" />
      <rect
         style="opacity:0.2;fill:#000000;fill-opacity:1;stroke:none;stroke-width:8;stroke-linecap:round;stroke-linejoin:miter;stroke-miterlimit:4;stroke-dasharray:none;stroke-opacity:1"
         id="rect4489"
         width="18"
         height="22"
         x="55"
         y="262"
         rx="1"
         ry="1" />
      <rect
         style="opacity:1;fill:#435ece;fill-opacity:1;stroke:none;stroke-width:8;stroke-linecap:round;stroke-linejoin:miter;stroke-miterlimit:4;stroke-dasharray:none;stroke-opacity:1"
         id="rect4480"
         width="18"
         height="22"
         x="-73"
         y="261"
         rx="1"
         ry="1"
         transform="scale(-1,1)" />
      <rect
         transform="matrix(0,-1,-1,0,0,0)"
         style="fill:#000000;fill-opacity:1;stroke:none;opacity:0.2"
         id="rect4460"
         width="28"
         height="22"
         x="-283"
         y="-123"
         rx="1.5"
         ry="1.5" />
      <path
         style="fill:#324ec1;fill-opacity:1;stroke:none"
         d="M 112 498 L 112 526 L 121.5 526 C 122.331 526 123 525.331 123 524.5 L 123 499.5 C 123 498.669 122.331 498 121.5 498 L 112 498 z "
         id="rect4255"
         transform="translate(0,-244)" />
      <path
         style="opacity:0.2;fill:#000000;fill-opacity:1;stroke:none"
         d="m 154.02148,241 c -1.108,0 -2,0.892 -2,2 l 0,36 c 0,1.108 0.892,2 2,2 L 168,281 l 14.02148,0 c 1.108,0 2,-0.892 2,-2 l 0,-36 c 0,-1.108 -0.892,-2 -2,-2 L 168,241 l -13.97852,0 z"
         id="path4410"
         inkscape:connector-curvature="0" />
      <path
         style="opacity:0.1;fill:#000000;fill-opacity:1;stroke:#000000;stroke-width:8;stroke-miterlimit:4;stroke-dasharray:none;stroke-opacity:1;filter:url(#filter4332)"
         d="M 602.44531 35.867188 C 601.64088 35.859502 600.82531 35.902905 600 36 L 464 52 L 312 52 C 298.704 52 288 62.704 288 76 L 288 476 C 288 489.296 298.704 500 312 500 L 464 500 L 600 516 C 610.84119 517.27543 620.05155 509.23953 623.00391 498.96484 C 632.86148 495.98104 640 486.85698 640 476 L 640 76 C 640 65.143016 632.86148 56.018957 623.00391 53.035156 C 620.27631 43.542658 612.20786 35.960457 602.44531 35.867188 z "
         transform="translate(0,-244)"
         id="path4336" />
      <path
         style="display:inline;fill:#435ece;fill-opacity:1;stroke:none;enable-background:new"
         d="M 19 512 C 18.446 512 18 512.446 18 513 L 18 527 C 18 527.554 18.446 528 19 528 L 24 528 L 24 512 L 19 512 z "
         transform="translate(0,-244)"
         id="rect4265" />
      <path
         sodipodi:nodetypes="ssssccs"
         inkscape:connector-curvature="0"
         id="path8375"
         d="m 154.02148,240 c -1.108,0 -2,0.892 -2,2 l 0,36 c 0,1.108 0.892,2 2,2 l 13.97902,0 0,-40 z"
         style="opacity:1;fill:#435ece;fill-opacity:1;stroke:none" />
      <path
         inkscape:connector-curvature="0"
         style="fill:#435ece;fill-opacity:1;stroke:none"
         d="m 312,-196 c -13.296,0 -24,10.704 -24,24 l 0,400 c 0,13.296 10.704,24 24,24 l 152,0 0,-448 -152,0 z"
         id="rect4239" />
      <path
         inkscape:connector-curvature="0"
         style="fill:#435ece;fill-opacity:1;stroke:none"
         d="m 464,-196 0,448 152,0 c 13.296,0 24,-10.704 24,-24 l 0,-400 c 0,-13.296 -10.704,-24 -24,-24 l -152,0 z"
         id="rect4229" />
      <path
         sodipodi:nodetypes="ccssssc"
         inkscape:connector-curvature="0"
         id="path4247"
         transform="matrix(8,0,0,8,-1392,-1380)"
         d="m 232,148 0,56 17,2 c 1.65062,0.19419 3,-1.338 3,-3 l 0,-54 c 0,-1.662 -1.34938,-3.19419 -3,-3 z"
         style="opacity:0.5;fill:#000000;fill-opacity:1;stroke:none;filter:url(#filter4253)"
         clip-path="url(#clipPath4260)" />
      <path
         style="opacity:0.2;fill:#ffffff;fill-opacity:1;stroke:none"
         d="m 312,-272 c -13.296,0 -24,10.704 -24,24 l 0,2 c 0,-13.296 10.704,-24 24,-24 l 152,0 152,0 c 13.296,0 24,10.704 24,24 l 0,-2 c 0,-13.296 -10.704,-24 -24,-24 l -152,0 -152,0 z"
         transform="translate(0,76)"
         id="path4286"
         inkscape:connector-curvature="0" />
      <path
         style="opacity:0.2;fill:#ffffff;fill-opacity:1;stroke:none"
         d="m 602.44531,-288.13281 c -0.80443,-0.008 -1.62,0.0357 -2.44531,0.13281 l -136,16 0,2 136,-16 c 13.20496,-1.55352 24,10.704 24,24 l 0,-2 c 0,-12.465 -9.48816,-24.01753 -21.55469,-24.13281 z"
         transform="translate(0,76)"
         id="path4294"
         inkscape:connector-curvature="0" />
      <path
         inkscape:connector-curvature="0"
         id="rect4203"
         d="m 168,240 0,40 14.02148,0 c 1.108,0 2,-0.892 2,-2 l 0,-36 c 0,-1.108 -0.892,-2 -2,-2 L 168,240 Z"
         style="fill:#435ece;fill-opacity:1;stroke:none" />
      <path
         style="fill:#435ece;fill-opacity:1;stroke:none"
         d="m 168,240 0,40 14.02148,0 c 1.108,0 2,-0.892 2,-2 l 0,-36 c 0,-1.108 -0.892,-2 -2,-2 L 168,240 Z"
         id="path4355"
         inkscape:connector-curvature="0" />
      <path
         sodipodi:nodetypes="ccssssc"
         style="opacity:0.1;fill:#000000;fill-opacity:1;stroke:none"
         d="m 169,240 0,40 12.02148,2 c 1.09298,0.18184 2,-0.892 2,-2 l 0,-40 c 0,-1.108 -0.90702,-2.18184 -2,-2 z"
         id="path4415"
         inkscape:connector-curvature="0"
         clip-path="url(#clipPath4419)" />
      <path
         style="opacity:0.2;fill:#ffffff;fill-opacity:1;stroke:none"
         d="M 154.02148 484 C 152.91348 484 152.02148 484.892 152.02148 486 L 152.02148 487 C 152.02148 485.892 152.91348 485 154.02148 485 L 168 485 L 182.02148 485 C 183.12948 485 184.02148 485.892 184.02148 487 L 184.02148 486 C 184.02148 484.892 183.12948 484 182.02148 484 L 168 484 L 154.02148 484 z "
         transform="translate(0,-244)"
         id="path4374" />
      <path
         inkscape:connector-curvature="0"
         id="path4372"
         d="m 168,240 0,40 12.02148,2 c 1.09298,0.18184 2,-0.892 2,-2 l 0,-40 c 0,-1.108 -0.90702,-2.18184 -2,-2 z"
         style="fill:#5c77e7;fill-opacity:1;stroke:none"
         sodipodi:nodetypes="ccssssc" />
      <path
         style="fill:#ffffff;fill-opacity:1;stroke:none;opacity:0.2"
         d="M 180.42188 481.98828 C 180.29247 481.97416 180.15811 481.97727 180.02148 482 L 168 484 L 168 485 L 180.02148 483 C 181.11446 482.81816 182.02148 483.892 182.02148 485 L 182.02148 484 C 182.02148 483.0305 181.3277 482.08715 180.42188 481.98828 z "
         id="path4405"
         transform="translate(0,-244)" />
      <path
         style="fill:#435ece;fill-opacity:1;stroke:none"
         d="m 102.5,498 c -0.831,0 -1.5,0.669 -1.5,1.5 l 0,25 c 0,0.831 0.669,1.5 1.5,1.5 l 9.5,0 0,-28 z"
         id="rect4423"
         transform="translate(0,-244)"
         inkscape:connector-curvature="0"
         sodipodi:nodetypes="ssssccs" />
      <path
         style="display:inline;fill:#5c77e7;fill-opacity:1;stroke:none;enable-background:new"
         d="m 24,512 0,16 5,0 c 0.554,0 1,-0.446 1,-1 l 0,-14 c 0,-0.554 -0.446,-1 -1,-1 z"
         transform="translate(0,-244)"
         id="rect4425"
         inkscape:connector-curvature="0"
         sodipodi:nodetypes="ccssssc" />
      <path
         style="display:inline;fill:#ffffff;fill-opacity:1;stroke:none;enable-background:new;opacity:0.2"
         d="M 19 512 C 18.446 512 18 512.446 18 513 L 18 514 C 18 513.446 18.446 513 19 513 L 24 513 L 29 513 C 29.554 513 30 513.446 30 514 L 30 513 C 30 512.446 29.554 512 29 512 L 24 512 L 19 512 z "
         transform="translate(0,-244)"
         id="path4435" />
      <path
         style="fill:#ffffff;fill-opacity:1;stroke:none;opacity:0.2"
         d="M 102.5 498 C 101.669 498 101 498.669 101 499.5 L 101 500.5 C 101 499.669 101.669 499 102.5 499 L 121.5 499 C 122.331 499 123 499.669 123 500.5 L 123 499.5 C 123 498.669 122.331 498 121.5 498 L 102.5 498 z "
         transform="translate(0,-244)"
         id="rect4448" />
      <path
         style="fill:#5c77e7;fill-opacity:1;stroke:none"
         d="m 112,498 0,28 8.5,1 c 0.82531,0.0971 1.5,-0.669 1.5,-1.5 l 0,-27 c 0,-0.831 -0.67469,-1.5971 -1.5,-1.5 z"
         id="rect4443"
         inkscape:connector-curvature="0"
         sodipodi:nodetypes="ccssssc"
         transform="translate(0,-244)" />
      <path
         style="fill:#ffffff;fill-opacity:1;stroke:none;opacity:0.2"
         d="M 120.5 497 L 112 498 L 112 499 L 120.5 498 C 121.32531 497.9029 122 498.669 122 499.5 L 122 498.5 C 122 497.669 121.32531 496.9029 120.5 497 z "
         transform="translate(0,-244)"
         id="path4453" />
      <rect
         ry="1"
         rx="1"
         y="261"
         x="55"
         height="22"
         width="18"
         id="rect4482"
         style="opacity:1;fill:#435ece;fill-opacity:1;stroke:none;stroke-width:8;stroke-linecap:round;stroke-linejoin:miter;stroke-miterlimit:4;stroke-dasharray:none;stroke-opacity:1" />
      <path
         style="opacity:0.2;fill:#ffffff;fill-opacity:1;stroke:none;stroke-width:8;stroke-linecap:round;stroke-linejoin:miter;stroke-miterlimit:4;stroke-dasharray:none;stroke-opacity:1"
         d="M 56 505 C 55.446 505 55 505.446 55 506 L 55 507 C 55 506.446 55.446 506 56 506 L 72 506 C 72.554 506 73 506.446 73 507 L 73 506 C 73 505.446 72.554 505 72 505 L 56 505 z "
         transform="translate(0,-244)"
         id="rect4491" />
      <path
         style="opacity:1;fill:#5c77e7;fill-opacity:1;stroke:none;stroke-width:8;stroke-linecap:round;stroke-linejoin:miter;stroke-miterlimit:4;stroke-dasharray:none;stroke-opacity:1"
         d="m 64,505 0,22 7,1 c 0.548432,0.0784 1,-0.446 1,-1 l 0,-22 c 0,-0.554 -0.451568,-1.07835 -1,-1 z"
         transform="translate(0,-244)"
         id="rect4486"
         inkscape:connector-curvature="0"
         sodipodi:nodetypes="ccssssc" />
      <path
         style="opacity:0.2;fill:#ffffff;fill-opacity:1;stroke:none;stroke-width:8;stroke-linecap:round;stroke-linejoin:miter;stroke-miterlimit:4;stroke-dasharray:none;stroke-opacity:1"
         d="M 71.201172 503.99805 C 71.136338 503.99013 71.068554 503.99021 71 504 L 64 505 L 64 506 L 71 505 C 71.548432 504.92165 72 505.446 72 506 L 72 505 C 72 504.51525 71.655011 504.0535 71.201172 503.99805 z "
         transform="translate(0,-244)"
         id="path4498" />
      <g
         id="g4874">
        <path
           style="display:inline;fill:#d9dff5;fill-opacity:1;stroke:none;enable-background:new"
           d="m 64,265 c -2.21,0 -4,1.79 -4,4 l 2,0 c 0,-1.1 0.9,-2 2,-2 l 0,-2 z m 0,6.87891 c -0.612552,0.70803 -1,1.61741 -1,2.62109 l 0,0.5 1,0 0,-3.12109 z M 63,277 l 0,2 1,0 0,-2 -1,0 z"
           id="path4-7-5"
           inkscape:connector-curvature="0" />
        <path
           sodipodi:nodetypes="ccscccccccscccccc"
           inkscape:connector-curvature="0"
           id="path4646"
           d="m 64,265 0,2 c 0.9625,0 1.75,0.76742 1.75,1.86742 0,0.55 -0.192364,1.05016 -0.516114,1.41016 l -1.085204,1.39234 c -0.05517,0.0639 -0.09725,0.14104 -0.148682,0.20899 L 64,275 l 0.875,-0.0884 c 0,-1.5 0.393682,-2.14427 1.023682,-2.87427 l 0.787841,-0.91992 c 0.49875,-0.57 0.813477,-1.37 0.813477,-2.25 0,-2.21 -1.146447,-4.22097 -3.5,-3.86742 z m 0,12 0,2 0.875,0.22097 0,-2.04419 z"
           style="display:inline;fill:#ffffff;fill-opacity:1;stroke:none;enable-background:new;opacity:0.7" />
      </g>
      <path
         style="display:inline;opacity:0.7;fill:#ffffff;fill-opacity:1;stroke:none;enable-background:new"
         clip-path="none"
         d="m 168,246 0,4 c 1.87265,-0.33397 3,1.91132 3,4.11132 0,1.1 -0.32,2.25949 -0.875,2.97949 l -1.875,2.25294 c -0.09,0.12167 -0.16578,0.24603 -0.25,0.375 l 0,6.28125 1.5,0.27831 c 0,-3 0.67,-4.19625 1.75,-5.65625 l 1.34375,-1.84375 c 0.855,-1.14 1.40625,-2.90699 1.40625,-4.66699 0,-4.42 -2.51801,-8.77927 -6,-8.11132 z m 0,24 0,4 1.5,0.61036 0,-4.33205 z"
         id="path3330"
         inkscape:connector-curvature="0"
         sodipodi:nodetypes="ccscccccccscccccc" />
      <path
         style="display:inline;opacity:1;fill:#d9dff5;fill-opacity:1;stroke:none;enable-background:new"
         d="m 168.26365,246 c -4.42,0 -8.22902,3.58 -8.22902,8 l 4,0 c 0,-2.2 2.02902,-4 4.22902,-4 z M 168,259.71875 c -1.23797,1.41937 -1.96537,3.26204 -1.96537,5.28125 l 0,1 2.22902,0 z M 166.03463,270 l 0,4 2.22902,0 0,-4 z"
         id="path4-7"
         inkscape:connector-curvature="0"
         sodipodi:nodetypes="ccccccscccccccc" />
      <path
         style="display:inline;fill:#d9dff5;fill-opacity:1;stroke:none;enable-background:new"
         d="m 111.5,502 c -3.315,0 -6,2.685 -6,6 l 3,0 c 0,-1.65 1.35,-3 3,-3 0.17089,0 0.33671,0.023 0.5,0.0508 l 0,-3.02539 C 111.83463,502.01172 111.66892,502 111.5,502 Z m 0.5,9.75781 -0.24414,0.24805 C 110.67586,513.10086 110,514.6 110,516.25 l 0,0.75 2,0 z M 110,519 l 0,3 2,0 0,-3 z"
         id="path4-7-6"
         transform="translate(0,-244)"
         inkscape:connector-curvature="0"
         sodipodi:nodetypes="sccsccsccscccccccc" />
      <path
         style="display:inline;opacity:0.7;fill:#ffffff;fill-opacity:1;stroke:none;enable-background:new"
         d="m 112,502.02539 0,3.02539 c 1.4133,0.24059 2.5,1.91205 2.5,3.39116 0,0.825 -0.32977,1.57523 -0.88477,2.11523 L 112,511.75781 112,517 l 1,0.5 c 0,-2.25 0.67586,-3.2072 1.75586,-4.3022 l 1.34961,-1.38086 c 0.855,-0.855 1.39453,-2.055 1.39453,-3.375 0,-3.14608 -2.41991,-6.16193 -5.5,-6.41655 z m -0.24414,9.98047 c -0.27,0.27375 -0.51531,0.57219 -0.73047,0.89258 0.21524,-0.32031 0.46047,-0.61883 0.73047,-0.89258 z m -0.73047,0.89258 c -0.21516,0.32039 -0.40086,0.66242 -0.55273,1.02148 0.15198,-0.35895 0.33749,-0.70117 0.55273,-1.02148 z M 112,519 l 0,3 1,0.5 0,-3 z"
         id="path4894"
         transform="translate(0,-244)"
         inkscape:connector-curvature="0"
         sodipodi:nodetypes="ccsccccccscccccccccccc" />
      <path
         style="display:inline;fill:#d9dff5;fill-opacity:1;stroke:none;enable-background:new"
         d="m 24,514 0,2 c 1.1,0 2,0.9 2,2 0,0.55 -0.264038,0.87369 -0.634038,1.23369 l -1.19604,0.86201 C 24.106912,520.1596 24.058749,520.2193 24,520.28125 L 24,523 l 1,0 c 0,-1.5 0.449922,-1.27655 1.169922,-2.00655 l 0.90039,-0.91992 C 27.640312,519.50353 28,518.88 28,518 c 0,-2.21 -1.79,-4 -4,-4 z m 0,10 0,2 1,0 0,-2 z"
         transform="translate(0,-244)"
         id="path4-7-0"
         inkscape:connector-curvature="0"
         sodipodi:nodetypes="ccscccccccscccccc" />
      <path
         style="display:inline;fill:#d9dff5;fill-opacity:1;stroke:none;enable-background:new"
         d="M 24 514 C 21.79 514 20 515.79 20 518 L 22 518 C 22 516.9 22.9 516 24 516 L 24 514 z M 24 520.28125 C 23.38738 520.9273 23 521.49626 23 522.5 L 23 523 L 24 523 L 24 520.28125 z M 23 524 L 23 526 L 24 526 L 24 524 L 23 524 z "
         transform="translate(0,-244)"
         id="path4914" />
      <path
         style="fill:#5c77e7;fill-opacity:1;stroke:none"
         d="m 464,-196 0,448 136,16 c 13.20496,1.55352 24,-10.704 24,-24 l 0,-432 c 0,-13.296 -10.79504,-25.55352 -24,-24 z"
         id="rect4230"
         inkscape:connector-curvature="0"
         sodipodi:nodetypes="ccssssc" />
      <path
         style="color:#000000;font-style:normal;font-variant:normal;font-weight:normal;font-stretch:normal;font-size:medium;line-height:normal;font-family:sans-serif;text-indent:0;text-align:start;text-decoration:none;text-decoration-line:none;text-decoration-style:solid;text-decoration-color:#000000;letter-spacing:normal;word-spacing:normal;text-transform:none;direction:ltr;block-progression:tb;writing-mode:lr-tb;baseline-shift:baseline;text-anchor:start;white-space:normal;clip-rule:nonzero;display:inline;overflow:visible;visibility:visible;opacity:0.7;isolation:auto;mix-blend-mode:normal;color-interpolation:sRGB;color-interpolation-filters:linearRGB;solid-color:#000000;solid-opacity:1;fill:#ffffff;fill-opacity:1;fill-rule:nonzero;stroke:none;stroke-width:8;stroke-linecap:butt;stroke-linejoin:miter;stroke-miterlimit:4;stroke-dasharray:none;stroke-dashoffset:0;stroke-opacity:1;color-rendering:auto;image-rendering:auto;shape-rendering:auto;text-rendering:auto;enable-background:new"
         d="m 470.95652,-124 c -2.34648,0 -4.66638,0.13347 -6.95652,0.38281 l 0,48.5293 c 2.23997,-0.5894 4.56571,-0.91211 6.95652,-0.91211 17.2332,0 31.30435,16.18182 31.30435,36 0,9.93333 -3.43387,18.87167 -6.33492,22.11719 l -24.49218,28.47656 0.003,-0.002 c -0.16434,0.19152 -0.31795,0.39464 -0.48063,0.58789 -2.55947,3.23337 -4.87354,6.47263 -6.95652,9.78125 L 464,92 l 27.82609,4 0,-12 0,-4 c 0,-29.2 6.98414,-39.37835 13.16746,-46.58789 L 526.80741,7.82812 C 537.35294,-4.29943 544,-21.30909 544,-40 c 0,-46.35988 -32.73054,-84 -73.04348,-84 z M 464,124 l 0,48 0,0 27.82609,4 0,-4 0,-44 L 464,124 Z"
         id="path4-7-10"
         inkscape:connector-curvature="0"
         sodipodi:nodetypes="sccssccccccccsccsscccccccc" />
      <path
         style="color:#000000;font-style:normal;font-variant:normal;font-weight:normal;font-stretch:normal;font-size:medium;line-height:normal;font-family:sans-serif;text-indent:0;text-align:start;text-decoration:none;text-decoration-line:none;text-decoration-style:solid;text-decoration-color:#000000;letter-spacing:normal;word-spacing:normal;text-transform:none;direction:ltr;block-progression:tb;writing-mode:lr-tb;baseline-shift:baseline;text-anchor:start;white-space:normal;clip-rule:nonzero;display:inline;overflow:visible;visibility:visible;opacity:1;isolation:auto;mix-blend-mode:normal;color-interpolation:sRGB;color-interpolation-filters:linearRGB;solid-color:#000000;solid-opacity:1;fill:#d9dff5;fill-opacity:1;fill-rule:nonzero;stroke:none;stroke-width:8;stroke-linecap:butt;stroke-linejoin:miter;stroke-miterlimit:4;stroke-dasharray:none;stroke-dashoffset:0;stroke-opacity:1;color-rendering:auto;image-rendering:auto;shape-rendering:auto;text-rendering:auto;enable-background:new"
         d="M 464 120.38281 C 421.38685 124.41728 388 160.33857 388 204 L 388 208 L 436 208 L 436 204 C 436 186.93125 448.0082 172.57115 464 168.91211 L 464 120.38281 z M 464 264.96094 C 458.54826 272.49098 454.48607 280.38175 451.69922 289.39062 C 449.2427 297.38931 448.01202 305.69507 448 314 L 448 336 L 464 336 L 464 264.96094 z M 448 368 L 448 416 L 464 416 L 464 368 L 448 368 z "
         id="path4959"
         transform="translate(0,-244)" />
    </g>
  </g>
</svg>
