<?xml version="1.0" encoding="UTF-8" standalone="no"?>
<!-- Created with Inkscape (http://www.inkscape.org/) -->

<svg
   xmlns:dc="http://purl.org/dc/elements/1.1/"
   xmlns:cc="http://creativecommons.org/ns#"
   xmlns:rdf="http://www.w3.org/1999/02/22-rdf-syntax-ns#"
   xmlns:svg="http://www.w3.org/2000/svg"
   xmlns="http://www.w3.org/2000/svg"
   xmlns:xlink="http://www.w3.org/1999/xlink"
   xmlns:sodipodi="http://sodipodi.sourceforge.net/DTD/sodipodi-0.dtd"
   xmlns:inkscape="http://www.inkscape.org/namespaces/inkscape"
   inkscape:export-ydpi="90.000000"
   inkscape:export-xdpi="90.000000"
   width="736"
   height="544"
   id="svg11300"
   sodipodi:version="0.32"
   inkscape:version="0.91 r13725"
   sodipodi:docname="locks.svg"
   inkscape:output_extension="org.inkscape.output.svg.inkscape"
   version="1.0"
   style="display:inline;enable-background:new"
   inkscape:export-filename="/home/sam/paper-template.png">
  <title
     id="title3004">Paper Icon Theme</title>
  <sodipodi:namedview
     stroke="#ef2929"
     fill="#f57900"
     id="base"
     pagecolor="#6b6b6b"
     bordercolor="#666666"
     borderopacity="0.25490196"
     inkscape:pageopacity="0"
     inkscape:pageshadow="2"
     inkscape:zoom="1"
     inkscape:cx="28.63724"
     inkscape:cy="790.7942"
     inkscape:current-layer="g4276"
     showgrid="false"
     inkscape:grid-bbox="true"
     inkscape:document-units="px"
     inkscape:showpageshadow="false"
     inkscape:window-width="1366"
     inkscape:window-height="704"
     inkscape:window-x="0"
     inkscape:window-y="27"
     width="400px"
     height="300px"
     inkscape:snap-nodes="true"
     inkscape:snap-bbox="true"
     gridtolerance="10000"
     inkscape:object-nodes="true"
     inkscape:snap-grids="true"
     showguides="true"
     inkscape:guide-bbox="true"
     inkscape:window-maximized="1"
     inkscape:bbox-nodes="true"
     inkscape:snap-bbox-edge-midpoints="true">
    <inkscape:grid
       spacingy="1px"
       spacingx="1px"
       id="grid5883"
       type="xygrid"
       enabled="true"
       visible="true"
       empspacing="4"
       snapvisiblegridlinesonly="true" />
    <inkscape:grid
       type="xygrid"
       id="grid11592"
       empspacing="2"
       visible="true"
       enabled="false"
       spacingx="0.5px"
       spacingy="0.5px"
       color="#ff0000"
       opacity="0.1254902"
       empcolor="#ff0000"
       empopacity="0.25098039"
       snapvisiblegridlinesonly="true" />
  </sodipodi:namedview>
  <defs
     id="defs3">
    <filter
       inkscape:collect="always"
       style="color-interpolation-filters:sRGB"
       id="filter4241"
       x="-0.027272727"
       width="1.0545455"
       y="-0.02142857"
       height="1.0428571">
      <feGaussianBlur
         inkscape:collect="always"
         stdDeviation="4"
         id="feGaussianBlur4243" />
    </filter>
  </defs>
  <metadata
     id="metadata4">
    <rdf:RDF>
      <cc:Work
         rdf:about="">
        <dc:format>image/svg+xml</dc:format>
        <dc:type
           rdf:resource="http://purl.org/dc/dcmitype/StillImage" />
        <dc:creator>
          <cc:Agent>
            <dc:title>Sam Hewitt</dc:title>
          </cc:Agent>
        </dc:creator>
        <dc:source />
        <cc:license
           rdf:resource="http://creativecommons.org/licenses/by-sa/3.0/" />
        <dc:title>Paper Icon Theme</dc:title>
        <dc:subject>
          <rdf:Bag />
        </dc:subject>
        <dc:date />
        <dc:rights>
          <cc:Agent>
            <dc:title />
          </cc:Agent>
        </dc:rights>
        <dc:publisher>
          <cc:Agent>
            <dc:title />
          </cc:Agent>
        </dc:publisher>
        <dc:identifier />
        <dc:relation />
        <dc:language />
        <dc:coverage />
        <dc:description />
        <dc:contributor>
          <cc:Agent>
            <dc:title />
          </cc:Agent>
        </dc:contributor>
      </cc:Work>
      <cc:Work
         rdf:about="">
        <dc:format>image/svg+xml</dc:format>
        <dc:type
           rdf:resource="http://purl.org/dc/dcmitype/StillImage" />
      </cc:Work>
      <cc:License
         rdf:about="http://creativecommons.org/licenses/by-sa/3.0/">
        <cc:permits
           rdf:resource="http://creativecommons.org/ns#Reproduction" />
        <cc:permits
           rdf:resource="http://creativecommons.org/ns#Distribution" />
        <cc:requires
           rdf:resource="http://creativecommons.org/ns#Notice" />
        <cc:requires
           rdf:resource="http://creativecommons.org/ns#Attribution" />
        <cc:permits
           rdf:resource="http://creativecommons.org/ns#DerivativeWorks" />
        <cc:requires
           rdf:resource="http://creativecommons.org/ns#ShareAlike" />
      </cc:License>
    </rdf:RDF>
  </metadata>
  <g
     style="display:inline"
     inkscape:groupmode="layer"
     inkscape:label="changes-prevent"
     id="layer1"
     transform="translate(0,244)">
    <g
       style="display:none"
       inkscape:label="Baseplate"
       id="layer7"
       inkscape:groupmode="layer">
      <text
         y="332.48523"
         xml:space="preserve"
         x="15.006836"
         style="font-style:normal;font-variant:normal;font-weight:normal;font-stretch:normal;font-size:18px;font-family:'DejaVu Sans';-inkscape-font-specification:'DejaVu Sans';display:inline;fill:#000000;fill-opacity:1;stroke:none;enable-background:new"
         inkscape:label="context"
         id="context"><tspan
           style="font-style:normal;font-variant:normal;font-weight:normal;font-stretch:normal;font-family:'DejaVu Sans';-inkscape-font-specification:'DejaVu Sans'"
           y="332.48523"
           x="15.006836"
           sodipodi:role="line"
           id="tspan3933">status</tspan></text>
      <text
         y="332.48523"
         xml:space="preserve"
         x="142.48828"
         style="font-style:normal;font-variant:normal;font-weight:bold;font-stretch:normal;font-size:18px;line-height:125%;font-family:'DejaVu Sans';-inkscape-font-specification:'DejaVu Sans Bold';text-align:start;writing-mode:lr-tb;text-anchor:start;display:inline;fill:#000000;fill-opacity:1;stroke:none;enable-background:new"
         sodipodi:linespacing="125%"
         inkscape:label="icon-name"
         id="icon-name"><tspan
           style="font-style:normal;font-variant:normal;font-weight:bold;font-stretch:normal;font-size:18px;font-family:'DejaVu Sans';-inkscape-font-specification:'DejaVu Sans Bold'"
           y="332.48523"
           x="142.48828"
           sodipodi:role="line"
           id="tspan3937">changes-prevent</tspan></text>
      <rect
         style="display:inline;overflow:visible;visibility:visible;fill:#e9e9e9;fill-opacity:1;fill-rule:nonzero;stroke:none;stroke-width:2;marker:none;enable-background:accumulate"
         id="rect16x16"
         width="16"
         height="16"
         x="-32"
         y="268"
         inkscape:label="16x16"
         transform="scale(-1,1)" />
      <rect
         style="display:inline;overflow:visible;visibility:visible;fill:#e9e9e9;fill-opacity:1;fill-rule:nonzero;stroke:none;stroke-width:2;marker:none;enable-background:accumulate"
         id="rect24x24"
         width="24"
         height="24"
         x="-76"
         y="260"
         inkscape:label="24x24"
         transform="scale(-1,1)" />
      <rect
         style="display:inline;overflow:visible;visibility:visible;fill:#e9e9e9;fill-opacity:1;fill-rule:nonzero;stroke:none;stroke-width:2;marker:none;enable-background:accumulate"
         id="rect32x32"
         width="32"
         height="32"
         x="-128"
         y="252"
         inkscape:label="32x32"
         transform="scale(-1,1)" />
      <rect
         inkscape:label="48x48"
         y="236"
         x="-192"
         height="48"
         width="48"
         id="rect48x48"
         style="display:inline;overflow:visible;visibility:visible;fill:#e9e9e9;fill-opacity:1;fill-rule:nonzero;stroke:none;stroke-width:2;marker:none;enable-background:accumulate"
         transform="scale(-1,1)" />
      <rect
         style="display:inline;overflow:visible;visibility:visible;fill:#e9e9e9;fill-opacity:1;fill-rule:nonzero;stroke:none;stroke-width:2;marker:none;enable-background:accumulate"
         id="rect3951"
         width="512"
         height="512"
         x="-720"
         y="-228"
         inkscape:label="48x48"
         transform="scale(-1,1)" />
    </g>
    <g
       inkscape:groupmode="layer"
       id="layer6"
       inkscape:label="Symbols"
       style="display:inline">
      <g
         id="g4339">
        <path
           style="opacity:0.1;fill:#000000;fill-opacity:1;stroke:#000000;stroke-width:8;stroke-linecap:round;stroke-linejoin:round;stroke-miterlimit:4;stroke-dasharray:none;stroke-opacity:1;filter:url(#filter4241)"
           d="m 464,-192 c -70.912,0 -128,57.088 -128,128 l 0,48 -25.59376,0 C 297.99664,-16 288,-6.00336 288,6.40624 l 0,227.18752 C 288,246.00336 297.99664,256 310.40624,256 l 307.18752,0 C 630.00336,256 640,246.00336 640,233.59376 L 640,6.40624 C 640,-6.00336 630.00336,-16 617.59376,-16 L 592,-16 l 0,-48 c 0,-70.912 -57.088,-128 -128,-128 z m 0,48 c 44.32,0 80,35.68 80,80 l 0,48 -160,0 0,-48 c 0,-44.32 35.68,-80 80,-80 z"
           id="path4245"
           inkscape:connector-curvature="0" />
        <path
           inkscape:connector-curvature="0"
           id="path4373"
           d="m 112,255 c -4.432,0 -8,3.568 -8,8 l 0,3 -1.59961,0 C 101.62479,266 101,266.62479 101,267.40039 l 0,14.19922 c 0,0.7756 0.62479,1.40039 1.40039,1.40039 l 19.19922,0 C 122.37521,283 123,282.37521 123,281.59961 l 0,-14.19922 C 123,266.62479 122.37521,266 121.59961,266 L 120,266 l 0,-3 c 0,-4.432 -3.568,-8 -8,-8 z m 0,3 c 2.77,0 5,2.23 5,5 l 0,3 -10,0 0,-3 c 0,-2.77 2.23,-5 5,-5 z"
           style="opacity:0.2;fill:#000000;fill-opacity:1;stroke:none;stroke-width:2;stroke-linecap:round;stroke-linejoin:round;stroke-miterlimit:4;stroke-dasharray:none;stroke-opacity:1" />
        <path
           inkscape:connector-curvature="0"
           id="path4311"
           d="m 64,263 c -3.324,0 -6,2.67597 -6,6 l 0,2 -1,0 c -0.554,0 -1,0.446 -1,1 l 0,10 c 0,0.554 0.446,1 1,1 l 14,0 c 0.554,0 1,-0.446 1,-1 l 0,-10 c 0,-0.554 -0.446,-1 -1,-1 l -1,0 0,-2 c 0,-3.32403 -2.676,-6 -6,-6 z m 0,2 c 2.216,0 4,1.78399 4,4 l 0,2 -8,0 0,-2 c 0,-2.21601 1.784,-4 4,-4 z"
           style="opacity:0.2;fill:#000000;fill-opacity:1;stroke:none" />
        <path
           inkscape:connector-curvature="0"
           id="path4204"
           d="m 168,241 c -6.648,0 -12,5.35195 -12,12 l 0,4 -2,0 c -1.108,0 -2,0.892 -2,2 l 0,20 c 0,1.108 0.892,2 2,2 l 28,0 c 1.108,0 2,-0.892 2,-2 l 0,-20 c 0,-1.108 -0.892,-2 -2,-2 l -2,0 0,-4 c 0,-6.64805 -5.352,-12 -12,-12 z m 0,4 c 4.432,0 8,3.56798 8,8 l 0,4 -16,0 0,-4 c 0,-4.43202 3.568,-8 8,-8 z"
           style="opacity:0.2;fill:#000000;fill-opacity:1;stroke:none" />
        <path
           inkscape:connector-curvature="0"
           id="rect4185"
           transform="translate(0,76)"
           d="m 168,164 c -6.648,0 -12,5.35195 -12,12 l 0,4 4,0 0,-3 0,-1 c 0,-4.43202 3.568,-8 8,-8 4.432,0 8,3.56798 8,8 l 0,1 0,3 4,0 0,-4 c 0,-6.64805 -5.352,-12 -12,-12 z"
           style="fill:#ebebeb;fill-opacity:1;stroke:none" />
        <rect
           ry="2"
           rx="2"
           y="-184"
           x="-280"
           height="32"
           width="24.000046"
           id="rect4203"
           style="fill:#fecd38;fill-opacity:1;stroke:none"
           transform="matrix(0,-1,-1,0,0,0)" />
        <rect
           ry="1"
           rx="1"
           y="-31"
           x="-284"
           height="14"
           width="10"
           id="rect4265"
           style="display:inline;fill:#fecd38;fill-opacity:1;stroke:none;enable-background:new"
           transform="matrix(0,-1,-1,0,0,0)" />
        <path
           inkscape:connector-curvature="0"
           id="path4194"
           d="m 168,240 c -6.648,0 -12,5.35195 -12,12 l 0,1 c 0,-6.64805 5.352,-12 12,-12 6.648,0 12,5.35195 12,12 l 0,-1 c 0,-6.64805 -5.352,-12 -12,-12 z"
           style="opacity:0.2;fill:#ffffff;fill-opacity:1;stroke:none" />
        <path
           inkscape:connector-curvature="0"
           id="rect4196"
           d="m 154,256 c -1.108,0 -2,0.892 -2,2 l 0,1 c 0,-1.108 0.892,-2 2,-2 l 28,0 c 1.108,0 2,0.892 2,2 l 0,-1 c 0,-1.108 -0.892,-2 -2,-2 l -28,0 z"
           style="opacity:0.2;fill:#ffffff;fill-opacity:1;stroke:none" />
        <path
           style="fill:#ebebeb;fill-opacity:1;stroke:none"
           d="m 64,262 c -3.324,0 -6,2.67597 -6,6 l 0,2 2,0 0,-2 c 0,-2.21601 1.784,-4 4,-4 2.216,0 4,1.78399 4,4 l 0,2 2,0 0,-2 c 0,-3.32403 -2.676,-6 -6,-6 z"
           id="path4295"
           inkscape:connector-curvature="0" />
        <rect
           transform="matrix(0,-1,-1,0,0,0)"
           style="fill:#fecd38;fill-opacity:1;stroke:none"
           id="rect4297"
           width="12.000023"
           height="16"
           x="-282"
           y="-72"
           rx="1"
           ry="1" />
        <path
           inkscape:connector-curvature="0"
           id="path4301"
           d="m 64,262 c -3.324,0 -6,2.67597 -6,6 l 0,1 c 0,-3.32403 2.676,-6 6,-6 3.324,0 6,2.67597 6,6 l 0,-1 c 0,-3.32403 -2.676,-6 -6,-6 z"
           style="opacity:0.1;fill:#ffffff;fill-opacity:1;stroke:none" />
        <path
           inkscape:connector-curvature="0"
           id="rect4303"
           d="m 57,270 c -0.554,0 -1,0.446 -1,1 l 0,1 c 0,-0.554 0.446,-1 1,-1 l 14,0 c 0.554,0 1,0.446 1,1 l 0,-1 c 0,-0.554 -0.446,-1 -1,-1 l -14,0 z"
           style="opacity:0.1;fill:#ffffff;fill-opacity:1;stroke:none" />
        <path
           inkscape:connector-curvature="0"
           id="path4367"
           d="m 112,254 c -4.432,0 -8,3.568 -8,8 l 0,3 3,0 0,-3 c 0,-2.77 2.23,-5 5,-5 2.77,0 5,2.23 5,5 l 0,3 3,0 0,-3 c 0,-4.432 -3.568,-8 -8,-8 z"
           style="opacity:1;fill:#ebebeb;fill-opacity:1;stroke:none;stroke-width:2;stroke-linecap:round;stroke-linejoin:round;stroke-miterlimit:4;stroke-dasharray:none;stroke-opacity:1" />
        <rect
           transform="matrix(0,-1,-1,0,0,0)"
           style="fill:#fecd38;fill-opacity:1;stroke:none"
           id="rect4369"
           width="17"
           height="22"
           x="-282"
           y="-123"
           rx="1.4"
           ry="1.4" />
        <path
           inkscape:connector-curvature="0"
           id="path4384"
           d="m 112,254 c -4.432,0 -8,3.568 -8,8 l 0,1 c 0,-4.432 3.568,-8 8,-8 4.432,0 8,3.568 8,8 l 0,-1 c 0,-4.432 -3.568,-8 -8,-8 z"
           style="opacity:0.1;fill:#ffffff;fill-opacity:1;stroke:none;stroke-width:2;stroke-linecap:round;stroke-linejoin:round;stroke-miterlimit:4;stroke-dasharray:none;stroke-opacity:1" />
        <path
           inkscape:connector-curvature="0"
           id="rect4386"
           d="M 102.40039,265 C 101.62479,265 101,265.62479 101,266.40039 l 0,1 C 101,266.62479 101.62479,266 102.40039,266 l 19.19922,0 c 0.7756,0 1.40039,0.62479 1.40039,1.40039 l 0,-1 C 123,265.62479 122.37521,265 121.59961,265 l -19.19922,0 z"
           style="opacity:0.1;fill:#ffffff;fill-opacity:1;stroke:none" />
        <path
           inkscape:connector-curvature="0"
           id="rect4395"
           transform="translate(0,76)"
           d="m 24,192 c -2.77,0 -5,2.23 -5,5 l 0,1 2,0 0,-1 c 0,-1.662 1.338,-3 3,-3 1.662,0 3,1.338 3,3 l 0,1 2,0 0,-1 c 0,-2.77 -2.23,-5 -5,-5 z"
           style="display:inline;fill:#ebebeb;fill-opacity:1;stroke:none;enable-background:new" />
        <path
           inkscape:connector-curvature="0"
           id="rect4406"
           transform="translate(0,76)"
           d="m 18,198 c -0.554,0 -1,0.446 -1,1 l 0,1 c 0,-0.554 0.446,-1 1,-1 l 12,0 c 0.554,0 1,0.446 1,1 l 0,-1 c 0,-0.554 -0.446,-1 -1,-1 l -12,0 z"
           style="display:inline;opacity:0.1;fill:#ffffff;fill-opacity:1;stroke:none;enable-background:new" />
        <path
           inkscape:connector-curvature="0"
           id="path4408"
           transform="translate(0,76)"
           d="m 24,192 c -2.77,0 -5,2.23 -5,5 l 0,1 c 0,-2.77 2.23,-5 5,-5 2.77,0 5,2.23 5,5 l 0,-1 c 0,-2.77 -2.23,-5 -5,-5 z"
           style="display:inline;opacity:0.1;fill:#ffffff;fill-opacity:1;stroke:none;enable-background:new" />
        <rect
           ry="0"
           rx="0"
           y="260"
           x="152"
           height="16"
           width="32"
           id="rect4544"
           style="opacity:1;fill:#fed96a;fill-opacity:1;stroke:none;stroke-width:2;stroke-linecap:round;stroke-linejoin:round;stroke-miterlimit:4;stroke-dasharray:none;stroke-opacity:1" />
        <path
           inkscape:connector-curvature="0"
           id="path4352"
           d="m 464,-192 c -70.912,0 -128,57.088 -128,128 l 0,48 -25.59376,0 C 297.99664,-16 288,-6.00336 288,6.40624 l 0,227.18752 C 288,246.00336 297.99664,256 310.40624,256 l 307.18752,0 C 630.00336,256 640,246.00336 640,233.59376 L 640,6.40624 C 640,-6.00336 630.00336,-16 617.59376,-16 L 592,-16 l 0,-48 c 0,-70.912 -57.088,-128 -128,-128 z m 0,48 c 44.32,0 80,35.68 80,80 l 0,48 -160,0 0,-48 c 0,-44.32 35.68,-80 80,-80 z"
           style="opacity:0.2;fill:#000000;fill-opacity:1;stroke:none;stroke-width:2;stroke-linecap:round;stroke-linejoin:round;stroke-miterlimit:4;stroke-dasharray:none;stroke-opacity:1;filter:url(#filter4241)" />
        <path
           inkscape:connector-curvature="0"
           id="rect4324"
           transform="translate(0,76)"
           d="m 464,-272 c -70.912,0 -128,57.088 -128,128 l 0,48 48,0 0,-32 0,-8 0,-8 c 0,-44.32 35.68,-80 80,-80 44.32,0 80,35.68 80,80 l 0,8 0,8 0,32 48,0 0,-48 c 0,-70.912 -57.088,-128 -128,-128 z"
           style="opacity:1;fill:#ebebeb;fill-opacity:1;stroke:none;stroke-width:2;stroke-linecap:round;stroke-linejoin:round;stroke-miterlimit:4;stroke-dasharray:none;stroke-opacity:1" />
        <rect
           ry="22.4"
           rx="22.4"
           y="-640"
           x="-252"
           height="352"
           width="272"
           id="rect4322"
           style="fill:#fecd38;fill-opacity:1;stroke:none"
           transform="matrix(0,-1,-1,0,0,0)" />
        <path
           id="path4342"
           d="m 464,-196 c -70.912,0 -128,57.088 -128,128 l 0,8 c 0,-70.912 57.088,-128 128,-128 70.912,0 128,57.088 128,128 l 0,-8 c 0,-70.912 -57.088,-128 -128,-128 z"
           style="opacity:0.2;fill:#ffffff;fill-opacity:1;stroke:none;stroke-width:2;stroke-linecap:round;stroke-linejoin:round;stroke-miterlimit:4;stroke-dasharray:none;stroke-opacity:1"
           inkscape:connector-curvature="0" />
        <path
           inkscape:connector-curvature="0"
           id="rect4344"
           transform="translate(0,76)"
           d="M 310.40625,-96 C 297.99665,-96 288,-86.00335 288,-73.59375 l 0,2 C 288,-84.00335 297.99665,-94 310.40625,-94 l 307.1875,0 C 630.00335,-94 640,-84.00335 640,-71.59375 l 0,-2 C 640,-86.00335 630.00335,-96 617.59375,-96 l -307.1875,0 z"
           style="opacity:0.2;fill:#ffffff;fill-opacity:1;stroke:none" />
        <rect
           style="opacity:1;fill:#fed96a;fill-opacity:1;stroke:none;stroke-width:2;stroke-linecap:round;stroke-linejoin:round;stroke-miterlimit:4;stroke-dasharray:none;stroke-opacity:1"
           id="rect4550"
           width="352"
           height="176"
           x="288"
           y="28"
           rx="0"
           ry="0" />
        <rect
           ry="0"
           rx="0"
           y="268"
           x="101"
           height="11"
           width="22"
           id="rect4552"
           style="opacity:1;fill:#fed96a;fill-opacity:1;stroke:none;stroke-width:2;stroke-linecap:round;stroke-linejoin:round;stroke-miterlimit:4;stroke-dasharray:none;stroke-opacity:1" />
        <rect
           style="opacity:1;fill:#fed96a;fill-opacity:1;stroke:none;stroke-width:2;stroke-linecap:round;stroke-linejoin:round;stroke-miterlimit:4;stroke-dasharray:none;stroke-opacity:1"
           id="rect4554"
           width="16"
           height="8"
           x="56"
           y="272"
           rx="0"
           ry="0" />
        <rect
           ry="0"
           rx="0"
           y="276"
           x="17"
           height="6"
           width="14"
           id="rect4556"
           style="opacity:1;fill:#fed96a;fill-opacity:1;stroke:none;stroke-width:2;stroke-linecap:round;stroke-linejoin:round;stroke-miterlimit:4;stroke-dasharray:none;stroke-opacity:1" />
      </g>
    </g>
  </g>
  <g
     transform="translate(0,244)"
     id="g4254"
     inkscape:label="network-vpn"
     inkscape:groupmode="layer"
     style="display:inline">
    <g
       inkscape:groupmode="layer"
       id="g4256"
       inkscape:label="Baseplate"
       style="display:none">
      <text
         id="text4258"
         inkscape:label="context"
         style="font-style:normal;font-variant:normal;font-weight:normal;font-stretch:normal;font-size:18px;font-family:'DejaVu Sans';-inkscape-font-specification:'DejaVu Sans';display:inline;fill:#000000;fill-opacity:1;stroke:none;enable-background:new"
         x="15.006836"
         xml:space="preserve"
         y="-307.51477"><tspan
           id="tspan4260"
           sodipodi:role="line"
           x="15.006836"
           y="-307.51477"
           style="font-style:normal;font-variant:normal;font-weight:normal;font-stretch:normal;font-family:'DejaVu Sans';-inkscape-font-specification:'DejaVu Sans'">devices</tspan></text>
      <text
         id="text4262"
         inkscape:label="icon-name"
         sodipodi:linespacing="125%"
         style="font-style:normal;font-variant:normal;font-weight:bold;font-stretch:normal;font-size:18px;line-height:125%;font-family:'DejaVu Sans';-inkscape-font-specification:'DejaVu Sans Bold';text-align:start;writing-mode:lr-tb;text-anchor:start;display:inline;fill:#000000;fill-opacity:1;stroke:none;enable-background:new"
         x="142.48828"
         xml:space="preserve"
         y="-307.51477"><tspan
           id="tspan4264"
           sodipodi:role="line"
           x="142.48828"
           y="-307.51477"
           style="font-style:normal;font-variant:normal;font-weight:bold;font-stretch:normal;font-size:18px;font-family:'DejaVu Sans';-inkscape-font-specification:'DejaVu Sans Bold'">network-vpn</tspan></text>
      <rect
         transform="scale(-1,1)"
         inkscape:label="16x16"
         y="-372"
         x="-32"
         height="16"
         width="16"
         id="rect4266"
         style="display:inline;overflow:visible;visibility:visible;fill:#e9e9e9;fill-opacity:1;fill-rule:nonzero;stroke:none;stroke-width:2;marker:none;enable-background:accumulate" />
      <rect
         transform="scale(-1,1)"
         inkscape:label="24x24"
         y="-380"
         x="-76"
         height="24"
         width="24"
         id="rect4268"
         style="display:inline;overflow:visible;visibility:visible;fill:#e9e9e9;fill-opacity:1;fill-rule:nonzero;stroke:none;stroke-width:2;marker:none;enable-background:accumulate" />
      <rect
         transform="scale(-1,1)"
         inkscape:label="32x32"
         y="-388"
         x="-128"
         height="32"
         width="32"
         id="rect4270"
         style="display:inline;overflow:visible;visibility:visible;fill:#e9e9e9;fill-opacity:1;fill-rule:nonzero;stroke:none;stroke-width:2;marker:none;enable-background:accumulate" />
      <rect
         transform="scale(-1,1)"
         style="display:inline;overflow:visible;visibility:visible;fill:#e9e9e9;fill-opacity:1;fill-rule:nonzero;stroke:none;stroke-width:2;marker:none;enable-background:accumulate"
         id="rect4272"
         width="48"
         height="48"
         x="-192"
         y="-404"
         inkscape:label="48x48" />
      <rect
         transform="scale(-1,1)"
         inkscape:label="48x48"
         y="-868"
         x="-720"
         height="512"
         width="512"
         id="rect4274"
         style="display:inline;overflow:visible;visibility:visible;fill:#e9e9e9;fill-opacity:1;fill-rule:nonzero;stroke:none;stroke-width:2;marker:none;enable-background:accumulate" />
    </g>
    <g
       style="display:inline"
       inkscape:label="Symbols"
       id="g4276"
       inkscape:groupmode="layer">
      <use
         style="display:inline;enable-background:new"
         x="0"
         y="0"
         xlink:href="#g4339"
         id="use4371"
         transform="translate(0,-640)"
         width="100%"
         height="100%" />
    </g>
  </g>
</svg>
