<?xml version="1.0" encoding="UTF-8" standalone="no"?>
<!-- Created with Inkscape (http://www.inkscape.org/) -->

<svg
   xmlns:osb="http://www.openswatchbook.org/uri/2009/osb"
   xmlns:dc="http://purl.org/dc/elements/1.1/"
   xmlns:cc="http://creativecommons.org/ns#"
   xmlns:rdf="http://www.w3.org/1999/02/22-rdf-syntax-ns#"
   xmlns:svg="http://www.w3.org/2000/svg"
   xmlns="http://www.w3.org/2000/svg"
   xmlns:sodipodi="http://sodipodi.sourceforge.net/DTD/sodipodi-0.dtd"
   xmlns:inkscape="http://www.inkscape.org/namespaces/inkscape"
   inkscape:export-ydpi="90.000000"
   inkscape:export-xdpi="90.000000"
   width="736"
   height="544"
   id="svg11300"
   sodipodi:version="0.32"
   inkscape:version="0.91 r13725"
   sodipodi:docname="multimedia-video-player.svg"
   inkscape:output_extension="org.inkscape.output.svg.inkscape"
   version="1.0"
   style="display:inline;enable-background:new"
   inkscape:export-filename="/home/sam/paper-template.png">
  <title
     id="title3004">Paper Icon Theme</title>
  <sodipodi:namedview
     stroke="#ef2929"
     fill="#f57900"
     id="base"
     pagecolor="#474747"
     bordercolor="#666666"
     borderopacity="0.25490196"
     inkscape:pageopacity="0"
     inkscape:pageshadow="2"
     inkscape:zoom="1"
     inkscape:cx="82.937498"
     inkscape:cy="35.213622"
     inkscape:current-layer="layer6"
     showgrid="false"
     inkscape:grid-bbox="true"
     inkscape:document-units="px"
     inkscape:showpageshadow="false"
     inkscape:window-width="1920"
     inkscape:window-height="1018"
     inkscape:window-x="0"
     inkscape:window-y="32"
     width="400px"
     height="300px"
     inkscape:snap-nodes="true"
     inkscape:snap-bbox="true"
     gridtolerance="10000"
     inkscape:object-nodes="true"
     inkscape:snap-grids="true"
     showguides="true"
     inkscape:guide-bbox="true"
     inkscape:window-maximized="1">
    <inkscape:grid
       spacingy="1px"
       spacingx="1px"
       id="grid5883"
       type="xygrid"
       enabled="true"
       visible="true"
       empspacing="4"
       snapvisiblegridlinesonly="true" />
    <inkscape:grid
       type="xygrid"
       id="grid11592"
       empspacing="2"
       visible="true"
       enabled="false"
       spacingx="0.5px"
       spacingy="0.5px"
       color="#ff0000"
       opacity="0.1254902"
       empcolor="#ff0000"
       empopacity="0.25098039"
       snapvisiblegridlinesonly="true" />
  </sodipodi:namedview>
  <defs
     id="defs3">
    <filter
       inkscape:collect="always"
       style="color-interpolation-filters:sRGB"
       id="filter4215"
       x="-0.022285715"
       width="1.0445714"
       y="-0.026000001"
       height="1.052">
      <feGaussianBlur
         inkscape:collect="always"
         stdDeviation="4.16"
         id="feGaussianBlur4217" />
    </filter>
    <linearGradient
       osb:paint="solid"
       id="linearGradient5606">
      <stop
         id="stop5608" />
    </linearGradient>
  </defs>
  <metadata
     id="metadata4">
    <rdf:RDF>
      <cc:Work
         rdf:about="">
        <dc:format>image/svg+xml</dc:format>
        <dc:type
           rdf:resource="http://purl.org/dc/dcmitype/StillImage" />
        <dc:creator>
          <cc:Agent>
            <dc:title>Sam Hewitt</dc:title>
          </cc:Agent>
        </dc:creator>
        <dc:source />
        <cc:license
           rdf:resource="http://creativecommons.org/licenses/by-sa/3.0/" />
        <dc:title>Paper Icon Theme</dc:title>
        <dc:subject>
          <rdf:Bag />
        </dc:subject>
        <dc:date />
        <dc:rights>
          <cc:Agent>
            <dc:title />
          </cc:Agent>
        </dc:rights>
        <dc:publisher>
          <cc:Agent>
            <dc:title />
          </cc:Agent>
        </dc:publisher>
        <dc:identifier />
        <dc:relation />
        <dc:language />
        <dc:coverage />
        <dc:description />
        <dc:contributor>
          <cc:Agent>
            <dc:title />
          </cc:Agent>
        </dc:contributor>
      </cc:Work>
      <cc:Work
         rdf:about="">
        <dc:format>image/svg+xml</dc:format>
        <dc:type
           rdf:resource="http://purl.org/dc/dcmitype/StillImage" />
      </cc:Work>
    </rdf:RDF>
  </metadata>
  <g
     style="display:inline"
     inkscape:groupmode="layer"
     inkscape:label="Icon"
     id="layer1"
     transform="translate(0,244)">
    <g
       style="display:none"
       inkscape:label="Baseplate"
       id="layer7"
       inkscape:groupmode="layer">
      <text
         y="332.48523"
         xml:space="preserve"
         x="15.006836"
         style="font-style:normal;font-variant:normal;font-weight:normal;font-stretch:normal;font-size:18px;font-family:'DejaVu Sans';-inkscape-font-specification:'DejaVu Sans';display:inline;fill:#000000;fill-opacity:1;stroke:none;enable-background:new"
         inkscape:label="context"
         id="context"><tspan
           style="font-style:normal;font-variant:normal;font-weight:normal;font-stretch:normal;font-family:'DejaVu Sans';-inkscape-font-specification:'DejaVu Sans'"
           y="332.48523"
           x="15.006836"
           sodipodi:role="line"
           id="tspan3933">apps</tspan></text>
      <text
         y="332.48523"
         xml:space="preserve"
         x="142.48828"
         style="font-style:normal;font-variant:normal;font-weight:bold;font-stretch:normal;font-size:18px;line-height:125%;font-family:'DejaVu Sans';-inkscape-font-specification:'DejaVu Sans Bold';text-align:start;writing-mode:lr-tb;text-anchor:start;display:inline;fill:#000000;fill-opacity:1;stroke:none;enable-background:new"
         sodipodi:linespacing="125%"
         inkscape:label="icon-name"
         id="icon-name"><tspan
           style="font-style:normal;font-variant:normal;font-weight:bold;font-stretch:normal;font-size:18px;font-family:'DejaVu Sans';-inkscape-font-specification:'DejaVu Sans Bold'"
           y="332.48523"
           x="142.48828"
           sodipodi:role="line"
           id="tspan3937">multimedia-video-player</tspan></text>
      <rect
         style="display:inline;overflow:visible;visibility:visible;fill:#e9e9e9;fill-opacity:1;fill-rule:nonzero;stroke:none;stroke-width:2;marker:none;enable-background:accumulate"
         id="rect16x16"
         width="16"
         height="16"
         x="-32"
         y="268"
         inkscape:label="16x16"
         transform="scale(-1,1)" />
      <rect
         style="display:inline;overflow:visible;visibility:visible;fill:#e9e9e9;fill-opacity:1;fill-rule:nonzero;stroke:none;stroke-width:2;marker:none;enable-background:accumulate"
         id="rect24x24"
         width="24"
         height="24"
         x="-76"
         y="260"
         inkscape:label="24x24"
         transform="scale(-1,1)" />
      <rect
         style="display:inline;overflow:visible;visibility:visible;fill:#e9e9e9;fill-opacity:1;fill-rule:nonzero;stroke:none;stroke-width:2;marker:none;enable-background:accumulate"
         id="rect32x32"
         width="32"
         height="32"
         x="-128"
         y="252"
         inkscape:label="32x32"
         transform="scale(-1,1)" />
      <rect
         inkscape:label="48x48"
         y="236"
         x="-192"
         height="48"
         width="48"
         id="rect48x48"
         style="display:inline;overflow:visible;visibility:visible;fill:#e9e9e9;fill-opacity:1;fill-rule:nonzero;stroke:none;stroke-width:2;marker:none;enable-background:accumulate"
         transform="scale(-1,1)" />
      <rect
         style="display:inline;overflow:visible;visibility:visible;fill:#e9e9e9;fill-opacity:1;fill-rule:nonzero;stroke:none;stroke-width:2;marker:none;enable-background:accumulate"
         id="rect3951"
         width="512"
         height="512"
         x="-720"
         y="-228"
         inkscape:label="48x48"
         transform="scale(-1,1)" />
    </g>
    <g
       inkscape:groupmode="layer"
       id="layer6"
       inkscape:label="Symbols"
       style="display:inline">
      <rect
         ry="24"
         rx="24"
         y="-688"
         x="-224"
         height="448"
         width="384"
         id="rect4219"
         style="opacity:0.1;fill:#000000;fill-opacity:1;stroke:#000000;stroke-width:8;stroke-miterlimit:4;stroke-dasharray:none;stroke-opacity:1;filter:url(#filter4215)"
         transform="matrix(0,-1,-1,0,0,0)" />
      <path
         style="opacity:1;fill:#311535;fill-opacity:1;stroke:none"
         d="m 188,276 0,-32 c 0,-1.108 -0.892,-2 -2,-2 l -36,0 c -1.108,0 -2,0.892 -2,2 l 0,32 c 0,1.108 0.892,2 2,2 l 36,0 c 1.108,0 2,-0.892 2,-2 z"
         id="rect4203"
         inkscape:connector-curvature="0"
         sodipodi:nodetypes="sssssssss" />
      <g
         transform="matrix(1.2122975,0,0,1.2146452,158.07368,250.28242)"
         id="g4348"
         style="opacity:0.8;fill:#ffffff;fill-opacity:1;stroke:#ffffff;stroke-width:13.18532085;stroke-linejoin:round;stroke-miterlimit:4;stroke-dasharray:none;stroke-opacity:1;enable-background:new">
        <g
           style="fill:#ffffff;fill-opacity:1;stroke:#ffffff;stroke-width:13.18532085;stroke-linejoin:round;stroke-miterlimit:4;stroke-dasharray:none;stroke-opacity:1"
           id="g4350"
           inkscape:label="actions"
           transform="translate(-301.0002,-9)">
          <path
             sodipodi:nodetypes="ccccccccc"
             inkscape:connector-curvature="0"
             id="path4352"
             d="m 304,10.414062 c -0.32368,-1.7e-4 -0.58611,0.262263 -0.58594,0.585938 l 0,12 c -1.2e-4,0.445169 0.47685,0.727698 0.86719,0.513672 l 11,-6 c 0.40583,-0.222211 0.40583,-0.805133 0,-1.027344 l -9.90039,-5.40039 -1.09961,-0.59961 c -0.0862,-0.04732 -0.18292,-0.07217 -0.28125,-0.07227 z"
             style="color:#000000;font-style:normal;font-variant:normal;font-weight:normal;font-stretch:normal;font-size:medium;line-height:normal;font-family:sans-serif;text-indent:0;text-align:start;text-decoration:none;text-decoration-line:none;text-decoration-style:solid;text-decoration-color:#000000;letter-spacing:normal;word-spacing:normal;text-transform:none;direction:ltr;block-progression:tb;writing-mode:lr-tb;baseline-shift:baseline;text-anchor:start;white-space:normal;clip-rule:nonzero;display:inline;overflow:visible;visibility:visible;opacity:1;isolation:auto;mix-blend-mode:normal;color-interpolation:sRGB;color-interpolation-filters:linearRGB;solid-color:#000000;solid-opacity:1;fill:#ffffff;fill-opacity:1;fill-rule:nonzero;stroke:none;stroke-width:1.17114806;stroke-linecap:butt;stroke-linejoin:round;stroke-miterlimit:4;stroke-dasharray:none;stroke-dashoffset:0;stroke-opacity:1;color-rendering:auto;image-rendering:auto;shape-rendering:auto;text-rendering:auto;enable-background:accumulate" />
        </g>
      </g>
      <rect
         ry="1"
         rx="1"
         y="-74"
         x="-281"
         height="20"
         width="18"
         id="rect4243"
         style="opacity:1;fill:#311535;fill-opacity:1;stroke:none"
         transform="matrix(0,-1,-1,0,0,0)" />
      <rect
         transform="matrix(0,-1,-1,0,0,0)"
         style="opacity:1;fill:#311535;fill-opacity:1;stroke:none"
         id="rect4255"
         width="24.000015"
         height="28"
         x="-280"
         y="-126"
         rx="1.5"
         ry="1.5" />
      <rect
         transform="matrix(0,-1,-1,0,0,0)"
         style="display:inline;opacity:1;fill:#311535;fill-opacity:1;stroke:none;enable-background:new"
         id="rect4265"
         width="14"
         height="16"
         x="-283"
         y="-32"
         rx="1"
         ry="1" />
      <path
         style="opacity:0.2;fill:#ffffff;fill-opacity:1;stroke:none"
         d="m 55,263 c -0.554,0 -1,0.446 -1,1 l 0,1 c 0,-0.554 0.446,-1 1,-1 l 18,0 c 0.554,0 1,0.446 1,1 l 0,-1 c 0,-0.554 -0.446,-1 -1,-1 l -18,0 z"
         id="rect4089"
         inkscape:connector-curvature="0" />
      <path
         style="display:inline;opacity:0.1;fill:#ffffff;fill-opacity:1;stroke:none;enable-background:new"
         d="m 17,193 c -0.554,0 -1,0.446 -1,1 l 0,1 c 0,-0.554 0.446,-1 1,-1 l 14,0 c 0.554,0 1,0.446 1,1 l 0,-1 c 0,-0.554 -0.446,-1 -1,-1 l -14,0 z"
         transform="translate(0,76)"
         id="rect4093"
         inkscape:connector-curvature="0" />
      <path
         id="path4439"
         d="m 186,278 c 1.108,0 2,-0.892 2,-2 l 0,-16 -40,0 0,16 c 0,1.108 0.892,2 2,2 z"
         style="display:inline;opacity:0.05;fill:#ffffff;fill-opacity:1;stroke:none;enable-background:new"
         inkscape:connector-curvature="0"
         sodipodi:nodetypes="ssccsss" />
      <rect
         transform="matrix(0,-1,-1,0,0,0)"
         style="opacity:0.2;fill:#000000;fill-opacity:1;stroke:none;filter:url(#filter4215)"
         id="rect4022"
         width="384"
         height="448"
         x="-224"
         y="-688"
         rx="24"
         ry="24" />
      <rect
         ry="24"
         rx="24"
         y="-688"
         x="-164"
         height="448"
         width="384"
         id="rect4229"
         style="opacity:1;fill:#311535;fill-opacity:1;stroke:none"
         transform="matrix(0,1,-1,0,0,0)" />
      <g
         style="opacity:0.8;fill:#ffffff;fill-opacity:1;stroke:#ffffff;stroke-width:1.17202854;stroke-linejoin:round;stroke-miterlimit:4;stroke-dasharray:none;stroke-opacity:1;enable-background:new"
         id="g4336"
         transform="matrix(13.638347,0,0,13.664759,348.07894,-81.30463)">
        <g
           transform="translate(-301.0002,-9)"
           inkscape:label="actions"
           id="layer12"
           style="fill:#ffffff;fill-opacity:1;stroke:#ffffff;stroke-width:1.17202854;stroke-linejoin:round;stroke-miterlimit:4;stroke-dasharray:none;stroke-opacity:1">
          <path
             style="color:#000000;font-style:normal;font-variant:normal;font-weight:normal;font-stretch:normal;font-size:medium;line-height:normal;font-family:sans-serif;text-indent:0;text-align:start;text-decoration:none;text-decoration-line:none;text-decoration-style:solid;text-decoration-color:#000000;letter-spacing:normal;word-spacing:normal;text-transform:none;direction:ltr;block-progression:tb;writing-mode:lr-tb;baseline-shift:baseline;text-anchor:start;white-space:normal;clip-rule:nonzero;display:inline;overflow:visible;visibility:visible;opacity:1;isolation:auto;mix-blend-mode:normal;color-interpolation:sRGB;color-interpolation-filters:linearRGB;solid-color:#000000;solid-opacity:1;fill:#ffffff;fill-opacity:1;fill-rule:nonzero;stroke:none;stroke-width:1.17114806;stroke-linecap:butt;stroke-linejoin:round;stroke-miterlimit:4;stroke-dasharray:none;stroke-dashoffset:0;stroke-opacity:1;color-rendering:auto;image-rendering:auto;shape-rendering:auto;text-rendering:auto;enable-background:accumulate"
             d="m 304,10.414062 c -0.32368,-1.7e-4 -0.58611,0.262263 -0.58594,0.585938 l 0,12 c -1.2e-4,0.445169 0.47685,0.727698 0.86719,0.513672 l 11,-6 c 0.40583,-0.222211 0.40583,-0.805133 0,-1.027344 l -9.90039,-5.40039 -1.09961,-0.59961 c -0.0862,-0.04732 -0.18292,-0.07217 -0.28125,-0.07227 z"
             id="path3807-1-1-9-38-4"
             inkscape:connector-curvature="0"
             sodipodi:nodetypes="ccccccccc" />
        </g>
      </g>
      <path
         style="opacity:0.3;fill:#ffffff;fill-opacity:1;stroke:none"
         d="m 264,-240 c -13.296,0 -24,10.704 -24,24 l 0,2 c 0,-13.296 10.704,-24 24,-24 l 400,0 c 13.296,0 24,10.704 24,24 l 0,-2 c 0,-13.296 -10.704,-24 -24,-24 l -400,0 z"
         transform="translate(0,76)"
         id="rect3233"
         inkscape:connector-curvature="0" />
      <g
         transform="matrix(0.68190094,0,0,0.68323794,58.353986,266.53386)"
         id="g4371"
         style="opacity:0.8;fill:#ffffff;fill-opacity:1;stroke:#ffffff;stroke-width:23.44085503;stroke-linejoin:round;stroke-miterlimit:4;stroke-dasharray:none;stroke-opacity:1;enable-background:new">
        <g
           style="fill:#ffffff;fill-opacity:1;stroke:#ffffff;stroke-width:23.44085503;stroke-linejoin:round;stroke-miterlimit:4;stroke-dasharray:none;stroke-opacity:1"
           id="g4373"
           inkscape:label="actions"
           transform="translate(-301.0002,-9)">
          <path
             sodipodi:nodetypes="ccccccccc"
             inkscape:connector-curvature="0"
             id="path4375"
             d="m 304,10.414062 c -0.32368,-1.7e-4 -0.58611,0.262263 -0.58594,0.585938 l 0,12 c -1.2e-4,0.445169 0.47685,0.727698 0.86719,0.513672 l 11,-6 c 0.40583,-0.222211 0.40583,-0.805133 0,-1.027344 l -9.90039,-5.40039 -1.09961,-0.59961 c -0.0862,-0.04732 -0.18292,-0.07217 -0.28125,-0.07227 z"
             style="color:#000000;font-style:normal;font-variant:normal;font-weight:normal;font-stretch:normal;font-size:medium;line-height:normal;font-family:sans-serif;text-indent:0;text-align:start;text-decoration:none;text-decoration-line:none;text-decoration-style:solid;text-decoration-color:#000000;letter-spacing:normal;word-spacing:normal;text-transform:none;direction:ltr;block-progression:tb;writing-mode:lr-tb;baseline-shift:baseline;text-anchor:start;white-space:normal;clip-rule:nonzero;display:inline;overflow:visible;visibility:visible;opacity:1;isolation:auto;mix-blend-mode:normal;color-interpolation:sRGB;color-interpolation-filters:linearRGB;solid-color:#000000;solid-opacity:1;fill:#ffffff;fill-opacity:1;fill-rule:nonzero;stroke:none;stroke-width:1.17114806;stroke-linecap:butt;stroke-linejoin:round;stroke-miterlimit:4;stroke-dasharray:none;stroke-dashoffset:0;stroke-opacity:1;color-rendering:auto;image-rendering:auto;shape-rendering:auto;text-rendering:auto;enable-background:accumulate" />
        </g>
      </g>
      <path
         sodipodi:nodetypes="ssccsss"
         inkscape:connector-curvature="0"
         style="display:inline;opacity:0.05;fill:#ffffff;fill-opacity:1;stroke:none;enable-background:new"
         d="m 73,280 c 0.554,0 1,-0.446 1,-1 l 0,-7 -20,0 0,7 c 0,0.554 0.446,1 1,1 z"
         id="path4504" />
      <path
         id="path4508"
         d="m 73,264 c 0.554,0 1,0.446 1,1 l 0,7 -20,0 0,-7 c 0,-0.554 0.446,-1 1,-1 z"
         style="display:inline;opacity:0.05;fill:#000000;fill-opacity:1;stroke:none;enable-background:new"
         inkscape:connector-curvature="0"
         sodipodi:nodetypes="ssccsss" />
      <path
         style="opacity:0.1;fill:#ffffff;fill-opacity:1;stroke:none"
         d="M 150 486 C 148.892 486 148 486.892 148 488 L 148 489 C 148 487.892 148.892 487 150 487 L 186 487 C 187.108 487 188 487.892 188 489 L 188 488 C 188 486.892 187.108 486 186 486 L 150 486 z "
         transform="translate(0,-244)"
         id="path4231" />
      <path
         style="display:inline;opacity:0.1;fill:#ffffff;fill-opacity:1;stroke:none;enable-background:new"
         d="M 99.5 500 C 98.669 500 98 500.669 98 501.5 L 98 502.5 C 98 501.669 98.669 501 99.5 501 L 124.5 501 C 125.331 501 126 501.669 126 502.5 L 126 501.5 C 126 500.669 125.331 500 124.5 500 L 99.5 500 z "
         transform="translate(0,-244)"
         id="path4236" />
      <path
         style="opacity:0.05;fill:#ffffff;fill-opacity:1;stroke:none"
         d="m 240,-48 0,166 c 0,13.296 10.704,24 24,24 l 400,0 c 13.296,0 24,-10.704 24,-24 l 0,-166 z"
         id="rect4226"
         inkscape:connector-curvature="0"
         sodipodi:nodetypes="csssscc"
         transform="translate(0,76)" />
      <path
         sodipodi:nodetypes="ssccsss"
         inkscape:connector-curvature="0"
         style="display:inline;opacity:0.05;fill:#000000;fill-opacity:1;stroke:none;enable-background:new"
         d="m 186,243 c 1.108,0 2,0.892 2,2 l 0,15 -40,0 0,-15 c 0,-1.108 0.892,-2 2,-2 z"
         id="path4354" />
      <path
         sodipodi:nodetypes="csssscc"
         inkscape:connector-curvature="0"
         id="path4356"
         d="m 240,28 0,-166 c 0,-13.296 10.704,-24 24,-24 l 400,0 c 13.296,0 24,10.704 24,24 l 0,166 z"
         style="opacity:0.05;fill:#000000;fill-opacity:1;stroke:none" />
      <g
         style="opacity:0.8;fill:#ffffff;fill-opacity:1;stroke:#ffffff;stroke-width:17.58042908;stroke-linejoin:round;stroke-miterlimit:4;stroke-dasharray:none;stroke-opacity:1;enable-background:new"
         id="g4358"
         transform="matrix(0.90922314,0,0,0.91098392,104.80526,260.71181)">
        <g
           transform="translate(-301.0002,-9)"
           inkscape:label="actions"
           id="g4360"
           style="fill:#ffffff;fill-opacity:1;stroke:#ffffff;stroke-width:17.58042908;stroke-linejoin:round;stroke-miterlimit:4;stroke-dasharray:none;stroke-opacity:1">
          <path
             style="color:#000000;font-style:normal;font-variant:normal;font-weight:normal;font-stretch:normal;font-size:medium;line-height:normal;font-family:sans-serif;text-indent:0;text-align:start;text-decoration:none;text-decoration-line:none;text-decoration-style:solid;text-decoration-color:#000000;letter-spacing:normal;word-spacing:normal;text-transform:none;direction:ltr;block-progression:tb;writing-mode:lr-tb;baseline-shift:baseline;text-anchor:start;white-space:normal;clip-rule:nonzero;display:inline;overflow:visible;visibility:visible;opacity:1;isolation:auto;mix-blend-mode:normal;color-interpolation:sRGB;color-interpolation-filters:linearRGB;solid-color:#000000;solid-opacity:1;fill:#ffffff;fill-opacity:1;fill-rule:nonzero;stroke:none;stroke-width:1.17114806;stroke-linecap:butt;stroke-linejoin:round;stroke-miterlimit:4;stroke-dasharray:none;stroke-dashoffset:0;stroke-opacity:1;color-rendering:auto;image-rendering:auto;shape-rendering:auto;text-rendering:auto;enable-background:accumulate"
             d="m 304,10.414062 c -0.32368,-1.7e-4 -0.58611,0.262263 -0.58594,0.585938 l 0,12 c -1.2e-4,0.445169 0.47685,0.727698 0.86719,0.513672 l 11,-6 c 0.40583,-0.222211 0.40583,-0.805133 0,-1.027344 l -9.90039,-5.40039 -1.09961,-0.59961 c -0.0862,-0.04732 -0.18292,-0.07217 -0.28125,-0.07227 z"
             id="path4362"
             inkscape:connector-curvature="0"
             sodipodi:nodetypes="ccccccccc" />
        </g>
      </g>
      <path
         style="opacity:0.05;fill:#ffffff;fill-opacity:1;stroke:none"
         d="M 98 512 L 98 522.5 C 98 523.331 98.669 524 99.5 524 L 124.5 524 C 125.331 524 126 523.331 126 522.5 L 126 512 L 98 512 z "
         transform="translate(0,-244)"
         id="rect4364" />
      <path
         id="path4369"
         d="m 98,268 0,-9.5 c 0,-0.831 0.669,-1.5 1.5,-1.5 l 25,0 c 0.831,0 1.5,0.669 1.5,1.5 l 0,9.5 z"
         style="opacity:0.05;fill:#000000;fill-opacity:1;stroke:none"
         inkscape:connector-curvature="0"
         sodipodi:nodetypes="csssscc" />
      <g
         style="opacity:0.8;fill:#ffffff;fill-opacity:1;stroke:#ffffff;stroke-width:30.13824272;stroke-linejoin:round;stroke-miterlimit:4;stroke-dasharray:none;stroke-opacity:1;enable-background:new"
         id="g4377"
         transform="matrix(0.5303674,0,0,0.53140729,19.719767,271.74856)">
        <g
           transform="translate(-301.0002,-9)"
           inkscape:label="actions"
           id="g4379"
           style="fill:#ffffff;fill-opacity:1;stroke:#ffffff;stroke-width:30.13824272;stroke-linejoin:round;stroke-miterlimit:4;stroke-dasharray:none;stroke-opacity:1">
          <path
             style="color:#000000;font-style:normal;font-variant:normal;font-weight:normal;font-stretch:normal;font-size:medium;line-height:normal;font-family:sans-serif;text-indent:0;text-align:start;text-decoration:none;text-decoration-line:none;text-decoration-style:solid;text-decoration-color:#000000;letter-spacing:normal;word-spacing:normal;text-transform:none;direction:ltr;block-progression:tb;writing-mode:lr-tb;baseline-shift:baseline;text-anchor:start;white-space:normal;clip-rule:nonzero;display:inline;overflow:visible;visibility:visible;opacity:1;isolation:auto;mix-blend-mode:normal;color-interpolation:sRGB;color-interpolation-filters:linearRGB;solid-color:#000000;solid-opacity:1;fill:#ffffff;fill-opacity:1;fill-rule:nonzero;stroke:none;stroke-width:1.17114806;stroke-linecap:butt;stroke-linejoin:round;stroke-miterlimit:4;stroke-dasharray:none;stroke-dashoffset:0;stroke-opacity:1;color-rendering:auto;image-rendering:auto;shape-rendering:auto;text-rendering:auto;enable-background:accumulate"
             d="m 304,10.414062 c -0.32368,-1.7e-4 -0.58611,0.262263 -0.58594,0.585938 l 0,12 c -1.2e-4,0.445169 0.47685,0.727698 0.86719,0.513672 l 11,-6 c 0.40583,-0.222211 0.40583,-0.805133 0,-1.027344 l -9.90039,-5.40039 -1.09961,-0.59961 c -0.0862,-0.04732 -0.18292,-0.07217 -0.28125,-0.07227 z"
             id="path4381"
             inkscape:connector-curvature="0"
             sodipodi:nodetypes="ccccccccc" />
        </g>
      </g>
    </g>
  </g>
</svg>
