<?xml version="1.0" encoding="UTF-8" standalone="no"?>
<!-- Created with Inkscape (http://www.inkscape.org/) -->

<svg
   xmlns:osb="http://www.openswatchbook.org/uri/2009/osb"
   xmlns:dc="http://purl.org/dc/elements/1.1/"
   xmlns:cc="http://creativecommons.org/ns#"
   xmlns:rdf="http://www.w3.org/1999/02/22-rdf-syntax-ns#"
   xmlns:svg="http://www.w3.org/2000/svg"
   xmlns="http://www.w3.org/2000/svg"
   xmlns:sodipodi="http://sodipodi.sourceforge.net/DTD/sodipodi-0.dtd"
   xmlns:inkscape="http://www.inkscape.org/namespaces/inkscape"
   inkscape:export-ydpi="90.000000"
   inkscape:export-xdpi="90.000000"
   width="736"
   height="544"
   id="svg11300"
   sodipodi:version="0.32"
   inkscape:version="0.91 r13725"
   sodipodi:docname="network-wired.svg"
   inkscape:output_extension="org.inkscape.output.svg.inkscape"
   version="1.0"
   style="display:inline;enable-background:new"
   inkscape:export-filename="/home/sam/paper-template.png">
  <title
     id="title3004">Paper Icon Theme</title>
  <sodipodi:namedview
     stroke="#ef2929"
     fill="#f57900"
     id="base"
     pagecolor="#a6a6a6"
     bordercolor="#666666"
     borderopacity="0.25490196"
     inkscape:pageopacity="0"
     inkscape:pageshadow="2"
     inkscape:zoom="1"
     inkscape:cx="256.91153"
     inkscape:cy="38.467575"
     inkscape:current-layer="layer6"
     showgrid="false"
     inkscape:grid-bbox="true"
     inkscape:document-units="px"
     inkscape:showpageshadow="false"
     inkscape:window-width="1366"
     inkscape:window-height="704"
     inkscape:window-x="0"
     inkscape:window-y="27"
     width="400px"
     height="300px"
     inkscape:snap-nodes="true"
     inkscape:snap-bbox="true"
     gridtolerance="10000"
     inkscape:object-nodes="true"
     inkscape:snap-grids="true"
     showguides="true"
     inkscape:guide-bbox="true"
     inkscape:window-maximized="1"
     inkscape:bbox-nodes="true"
     inkscape:snap-bbox-edge-midpoints="true"
     inkscape:snap-intersection-paths="true"
     inkscape:object-paths="true"
     inkscape:snap-smooth-nodes="true"
     inkscape:snap-midpoints="true">
    <inkscape:grid
       spacingy="1px"
       spacingx="1px"
       id="grid5883"
       type="xygrid"
       enabled="true"
       visible="true"
       empspacing="4"
       snapvisiblegridlinesonly="true" />
    <inkscape:grid
       type="xygrid"
       id="grid11592"
       empspacing="2"
       visible="true"
       enabled="false"
       spacingx="0.5px"
       spacingy="0.5px"
       color="#ff0000"
       opacity="0.1254902"
       empcolor="#ff0000"
       empopacity="0.25098039"
       snapvisiblegridlinesonly="true" />
  </sodipodi:namedview>
  <defs
     id="defs3">
    <linearGradient
       osb:paint="solid"
       id="linearGradient5606">
      <stop
         style="stop-color:#000000;stop-opacity:1;"
         offset="0"
         id="stop5608" />
    </linearGradient>
    <clipPath
       clipPathUnits="userSpaceOnUse"
       id="clipPath4617">
      <path
         inkscape:connector-curvature="0"
         d="m 212,237 40,0 0,28 -8,0 -4,4 -16,0 -4,-4 -8,0 z"
         id="path4619"
         sodipodi:nodetypes="ccccccccc"
         style="opacity:1;fill:#3f3f3f;fill-opacity:1;stroke:none;stroke-width:2;stroke-linecap:round;stroke-linejoin:round;stroke-miterlimit:4;stroke-dasharray:none;stroke-opacity:1" />
    </clipPath>
    <clipPath
       clipPathUnits="userSpaceOnUse"
       id="clipPath4301">
      <path
         sodipodi:nodetypes="ccccccccc"
         inkscape:connector-curvature="0"
         id="path4303"
         d="m 146,250 28,0 0,18 -4.48438,0 -4,4 -11.03124,0 -4,-4 L 146,268 Z"
         style="color:#000000;font-style:normal;font-variant:normal;font-weight:normal;font-stretch:normal;font-size:medium;line-height:normal;font-family:sans-serif;text-indent:0;text-align:start;text-decoration:none;text-decoration-line:none;text-decoration-style:solid;text-decoration-color:#000000;letter-spacing:normal;word-spacing:normal;text-transform:none;direction:ltr;block-progression:tb;writing-mode:lr-tb;baseline-shift:baseline;text-anchor:start;white-space:normal;clip-rule:nonzero;display:inline;overflow:visible;visibility:visible;opacity:1;isolation:auto;mix-blend-mode:normal;color-interpolation:sRGB;color-interpolation-filters:linearRGB;solid-color:#000000;solid-opacity:1;fill:#3f3f3f;fill-opacity:1;fill-rule:nonzero;stroke:none;stroke-width:12;stroke-linecap:butt;stroke-linejoin:miter;stroke-miterlimit:4;stroke-dasharray:none;stroke-dashoffset:0;stroke-opacity:1;color-rendering:auto;image-rendering:auto;shape-rendering:auto;text-rendering:auto;enable-background:accumulate" />
    </clipPath>
    <filter
       inkscape:collect="always"
       style="color-interpolation-filters:sRGB"
       id="filter4225"
       x="-0.022285715"
       width="1.0445714"
       y="-0.026000001"
       height="1.052">
      <feGaussianBlur
         inkscape:collect="always"
         stdDeviation="4.16"
         id="feGaussianBlur4227" />
    </filter>
  </defs>
  <metadata
     id="metadata4">
    <rdf:RDF>
      <cc:Work
         rdf:about="">
        <dc:format>image/svg+xml</dc:format>
        <dc:type
           rdf:resource="http://purl.org/dc/dcmitype/StillImage" />
        <dc:creator>
          <cc:Agent>
            <dc:title>Sam Hewitt</dc:title>
          </cc:Agent>
        </dc:creator>
        <dc:source />
        <cc:license
           rdf:resource="http://creativecommons.org/licenses/by-sa/3.0/" />
        <dc:title>Paper Icon Theme</dc:title>
        <dc:subject>
          <rdf:Bag />
        </dc:subject>
        <dc:date />
        <dc:rights>
          <cc:Agent>
            <dc:title />
          </cc:Agent>
        </dc:rights>
        <dc:publisher>
          <cc:Agent>
            <dc:title />
          </cc:Agent>
        </dc:publisher>
        <dc:identifier />
        <dc:relation />
        <dc:language />
        <dc:coverage />
        <dc:description />
        <dc:contributor>
          <cc:Agent>
            <dc:title />
          </cc:Agent>
        </dc:contributor>
      </cc:Work>
      <cc:Work
         rdf:about="">
        <dc:format>image/svg+xml</dc:format>
        <dc:type
           rdf:resource="http://purl.org/dc/dcmitype/StillImage" />
      </cc:Work>
      <cc:License
         rdf:about="http://creativecommons.org/licenses/by-sa/3.0/">
        <cc:permits
           rdf:resource="http://creativecommons.org/ns#Reproduction" />
        <cc:permits
           rdf:resource="http://creativecommons.org/ns#Distribution" />
        <cc:requires
           rdf:resource="http://creativecommons.org/ns#Notice" />
        <cc:requires
           rdf:resource="http://creativecommons.org/ns#Attribution" />
        <cc:permits
           rdf:resource="http://creativecommons.org/ns#DerivativeWorks" />
        <cc:requires
           rdf:resource="http://creativecommons.org/ns#ShareAlike" />
      </cc:License>
    </rdf:RDF>
  </metadata>
  <g
     style="display:inline"
     inkscape:groupmode="layer"
     inkscape:label="network-wired"
     id="layer1"
     transform="translate(0,244)">
    <g
       style="display:none"
       inkscape:label="Baseplate"
       id="layer7"
       inkscape:groupmode="layer">
      <text
         y="339.74512"
         xml:space="preserve"
         x="15.006836"
         style="font-style:normal;font-variant:normal;font-weight:normal;font-stretch:normal;font-size:18px;font-family:'DejaVu Sans';-inkscape-font-specification:'DejaVu Sans';display:inline;fill:#000000;fill-opacity:1;stroke:none;enable-background:new"
         inkscape:label="context"
         id="context"><tspan
           style="font-style:normal;font-variant:normal;font-weight:normal;font-stretch:normal;font-family:'DejaVu Sans';-inkscape-font-specification:'DejaVu Sans'"
           y="339.74512"
           x="15.006836"
           sodipodi:role="line"
           id="tspan3933">devices</tspan></text>
      <text
         y="339.74512"
         xml:space="preserve"
         x="142.48828"
         style="font-style:normal;font-variant:normal;font-weight:bold;font-stretch:normal;font-size:18px;line-height:125%;font-family:'DejaVu Sans';-inkscape-font-specification:'DejaVu Sans Bold';text-align:start;writing-mode:lr-tb;text-anchor:start;display:inline;fill:#000000;fill-opacity:1;stroke:none;enable-background:new"
         sodipodi:linespacing="125%"
         inkscape:label="icon-name"
         id="icon-name"><tspan
           style="font-style:normal;font-variant:normal;font-weight:bold;font-stretch:normal;font-size:18px;font-family:'DejaVu Sans';-inkscape-font-specification:'DejaVu Sans Bold'"
           y="339.74512"
           x="142.48828"
           sodipodi:role="line"
           id="tspan4607">network-wired</tspan></text>
      <rect
         style="display:inline;overflow:visible;visibility:visible;fill:#e9e9e9;fill-opacity:1;fill-rule:nonzero;stroke:none;stroke-width:2;marker:none;enable-background:accumulate"
         id="rect16x16"
         width="16"
         height="16"
         x="-32"
         y="268"
         inkscape:label="16x16"
         transform="scale(-1,1)" />
      <rect
         style="display:inline;overflow:visible;visibility:visible;fill:#e9e9e9;fill-opacity:1;fill-rule:nonzero;stroke:none;stroke-width:2;marker:none;enable-background:accumulate"
         id="rect24x24"
         width="24"
         height="24"
         x="-74"
         y="260"
         inkscape:label="24x24"
         transform="scale(-1,1)" />
      <rect
         style="display:inline;overflow:visible;visibility:visible;fill:#e9e9e9;fill-opacity:1;fill-rule:nonzero;stroke:none;stroke-width:2;marker:none;enable-background:accumulate"
         id="rect32x32"
         width="32"
         height="32"
         x="-128"
         y="252"
         inkscape:label="32x32"
         transform="scale(-1,1)" />
      <rect
         inkscape:label="48x48"
         y="236"
         x="-192"
         height="48"
         width="48"
         id="rect48x48"
         style="display:inline;overflow:visible;visibility:visible;fill:#e9e9e9;fill-opacity:1;fill-rule:nonzero;stroke:none;stroke-width:2;marker:none;enable-background:accumulate"
         transform="scale(-1,1)" />
      <rect
         style="display:inline;enable-background:accumulate;overflow:visible;visibility:visible;fill:#e9e9e9;fill-opacity:1;fill-rule:nonzero;stroke:none;stroke-width:2;marker:none"
         id="rect3951"
         width="512"
         height="512"
         x="-720"
         y="-228"
         inkscape:label="48x48"
         transform="scale(-1,1)" />
    </g>
    <g
       inkscape:groupmode="layer"
       id="layer6"
       inkscape:label="Symbols"
       style="display:inline">
      <path
         inkscape:connector-curvature="0"
         d="m 272,-152 c 0,0 -32,0 -32,32 l 0,288 c 0,32 32,32 32,32 l 64,0 32,32 192,0 32,-32 64,0 c 0,0 32,4.15808 32,-32 l 0,-288 c 0,-32 -32,-32 -32,-32 z"
         id="path4229"
         sodipodi:nodetypes="cssccccccsscc"
         style="opacity:0.1;fill:#000000;fill-opacity:1;stroke:#000000;stroke-width:8;stroke-linecap:round;stroke-linejoin:round;stroke-miterlimit:4;stroke-dasharray:none;stroke-opacity:1;filter:url(#filter4225)" />
      <path
         style="opacity:0.2;fill:#000000;fill-opacity:1;stroke:none"
         d="m 53.5,265 c 0,0 -1.5,0 -1.5,1.5 l 0,12 c 0,0 0,1.5 1.5,1.5 l 2.5,0 2,2 8,0 2,-2 2.5,0 c 0,0 1.5,0 1.5,-1.5 l 0,-12 C 72,265 70.5,265 70.5,265 Z"
         id="path4220"
         inkscape:connector-curvature="0"
         sodipodi:nodetypes="cscscccccsscc" />
      <path
         sodipodi:nodetypes="cscscccccsscc"
         inkscape:connector-curvature="0"
         id="path4213"
         d="m 53.5,264 c 0,0 -1.5,0 -1.5,1.5 l 0,12 c 0,0 0,1.5 1.5,1.5 l 2.5,0 2,2 8,0 2,-2 2.5,0 c 0,0 1.5,0 1.5,-1.5 l 0,-12 C 72,264 70.5,264 70.5,264 Z"
         style="fill:#ebebeb;fill-opacity:1;stroke:none;" />
      <path
         style="color:#000000;font-style:normal;font-variant:normal;font-weight:normal;font-stretch:normal;font-size:medium;line-height:normal;font-family:sans-serif;text-indent:0;text-align:start;text-decoration:none;text-decoration-line:none;text-decoration-style:solid;text-decoration-color:#000000;letter-spacing:normal;word-spacing:normal;text-transform:none;direction:ltr;block-progression:tb;writing-mode:lr-tb;baseline-shift:baseline;text-anchor:start;white-space:normal;clip-rule:nonzero;display:inline;overflow:visible;visibility:visible;opacity:0.4;isolation:auto;mix-blend-mode:normal;color-interpolation:sRGB;color-interpolation-filters:linearRGB;solid-color:#000000;solid-opacity:1;fill:#ffffff;fill-opacity:1;fill-rule:nonzero;stroke:none;stroke-width:12;stroke-linecap:butt;stroke-linejoin:miter;stroke-miterlimit:4;stroke-dasharray:none;stroke-dashoffset:0;stroke-opacity:1;color-rendering:auto;image-rendering:auto;shape-rendering:auto;text-rendering:auto;enable-background:accumulate;"
         d="m 55,268 14,0 0,9 -2.24219,0 -2,2 -5.51562,0 -2,-2 L 55,277 Z"
         id="path4283"
         inkscape:connector-curvature="0"
         sodipodi:nodetypes="ccccccccc" />
      <path
         sodipodi:nodetypes="ccccccccc"
         inkscape:connector-curvature="0"
         id="path4215"
         d="m 55,267 14,0 0,9 -2.24219,0 -2,2 -5.51562,0 -2,-2 L 55,276 Z"
         style="color:#000000;font-style:normal;font-variant:normal;font-weight:normal;font-stretch:normal;font-size:medium;line-height:normal;font-family:sans-serif;text-indent:0;text-align:start;text-decoration:none;text-decoration-line:none;text-decoration-style:solid;text-decoration-color:#000000;letter-spacing:normal;word-spacing:normal;text-transform:none;direction:ltr;block-progression:tb;writing-mode:lr-tb;baseline-shift:baseline;text-anchor:start;white-space:normal;clip-rule:nonzero;display:inline;overflow:visible;visibility:visible;opacity:1;isolation:auto;mix-blend-mode:normal;color-interpolation:sRGB;color-interpolation-filters:linearRGB;solid-color:#000000;solid-opacity:1;fill:#3f3f3f;fill-opacity:1;fill-rule:nonzero;stroke:none;stroke-width:12;stroke-linecap:butt;stroke-linejoin:miter;stroke-miterlimit:4;stroke-dasharray:none;stroke-dashoffset:0;stroke-opacity:1;color-rendering:auto;image-rendering:auto;shape-rendering:auto;text-rendering:auto;enable-background:accumulate;" />
      <path
         sodipodi:nodetypes="cscscccccsscc"
         inkscape:connector-curvature="0"
         id="path4196"
         d="m 151,245 c 0,0 -3,0 -3,3 l 0,24 c 0,0 0,3 3,3 l 5,0 4,4 16,0 4,-4 5,0 c 0,0 3,0 3,-3 l 0,-24 c 0,-3 -3,-3 -3,-3 z"
         style="opacity:0.2;fill:#000000;fill-opacity:1;stroke:none" />
      <path
         inkscape:connector-curvature="0"
         d="m 100,258 c 0,0 -2,0 -2,2 l 0,18 c 0,2 2,2 2,2 l 4,0 2,2 12,0 2,-2 4,0 c 0,0 2,0.25988 2,-2 l 0,-18 c 0,-2 -2,-2 -2,-2 z"
         id="path4625"
         sodipodi:nodetypes="cssccccccsscc"
         style="opacity:0.2;fill:#000000;fill-opacity:1;stroke:none;stroke-width:2;stroke-linecap:round;stroke-linejoin:round;stroke-miterlimit:4;stroke-dasharray:none;stroke-opacity:1" />
      <path
         style="opacity:1;fill:#ebebeb;fill-opacity:1;stroke:none;stroke-width:2;stroke-linecap:round;stroke-linejoin:round;stroke-miterlimit:4;stroke-dasharray:none;stroke-opacity:1;"
         sodipodi:nodetypes="cssccccccsscc"
         id="path4601"
         d="m 100,257 c 0,0 -2,0 -2,2 l 0,18 c 0,2 2,2 2,2 l 4,0 2,2 12,0 2,-2 4,0 c 0,0 2,0.25988 2,-2 l 0,-18 c 0,-2 -2,-2 -2,-2 z"
         inkscape:connector-curvature="0" />
      <path
         inkscape:connector-curvature="0"
         d="m 18,270 c 0,0 -1,0 -1,1 l 0,9 c 0,1 1,1 1,1 l 2,0 1,1 6,0 1,-1 2,0 c 0,0 1,0.12994 1,-1 l 0,-9 c 0,-1 -1,-1 -1,-1 z"
         id="path6542"
         sodipodi:nodetypes="cssccccccsscc"
         style="opacity:1;fill:#ebebeb;fill-opacity:1;stroke:none;stroke-width:2;stroke-linecap:round;stroke-linejoin:round;stroke-miterlimit:4;stroke-dasharray:none;stroke-opacity:1;" />
      <path
         style="opacity:0.4;fill:#ffffff;fill-opacity:1;stroke:none;stroke-width:2;stroke-linecap:round;stroke-linejoin:round;stroke-miterlimit:4;stroke-dasharray:none;stroke-opacity:1;"
         sodipodi:nodetypes="ccccccccc"
         id="path4287"
         d="m 102,262 20,0 0,14 -4,0 -2,2 -8,0 -2,-2 -4,0 z"
         inkscape:connector-curvature="0" />
      <path
         inkscape:connector-curvature="0"
         d="m 102,261 20,0 0,14 -4,0 -2,2 -8,0 -2,-2 -4,0 z"
         id="path4621"
         sodipodi:nodetypes="ccccccccc"
         style="opacity:1;fill:#3f3f3f;fill-opacity:1;stroke:none;stroke-width:2;stroke-linecap:round;stroke-linejoin:round;stroke-miterlimit:4;stroke-dasharray:none;stroke-opacity:1;" />
      <path
         inkscape:connector-curvature="0"
         d="m 19,273 10,0 0,7 -2,0 -1,1 -4,0 -1,-1 -2,0 z"
         id="path4289"
         sodipodi:nodetypes="ccccccccc"
         style="opacity:0.4;fill:#ffffff;fill-opacity:1;stroke:none;stroke-width:2;stroke-linecap:round;stroke-linejoin:round;stroke-miterlimit:4;stroke-dasharray:none;stroke-opacity:1;" />
      <path
         style="opacity:1;fill:#3f3f3f;fill-opacity:1;stroke:none;stroke-width:2;stroke-linecap:round;stroke-linejoin:round;stroke-miterlimit:4;stroke-dasharray:none;stroke-opacity:1;"
         sodipodi:nodetypes="ccccccccc"
         id="path4623"
         d="m 19,272 10,0 0,7 -2,0 -1,1 -4,0 -1,-1 -2,0 z"
         inkscape:connector-curvature="0" />
      <path
         style="opacity:0.1;fill:#ffffff;fill-opacity:1;stroke:none;stroke-width:2;stroke-linecap:round;stroke-linejoin:round;stroke-miterlimit:4;stroke-dasharray:none;stroke-opacity:1;"
         d="m 100,257 c 0,0 -2,0 -2,2 l 0,1 c 0,-2 2,-2 2,-2 l 24,0 c 0,0 2,0 2,2 l 0,-1 c 0,-2 -2,-2 -2,-2 l -24,0 z"
         id="path4637"
         inkscape:connector-curvature="0" />
      <path
         style="opacity:0.2;fill:#000000;fill-opacity:1;stroke:none;stroke-width:2;stroke-linecap:round;stroke-linejoin:round;stroke-miterlimit:4;stroke-dasharray:none;stroke-opacity:1;filter:url(#filter4225)"
         sodipodi:nodetypes="cssccccccsscc"
         id="path4631"
         d="m 272,-152 c 0,0 -32,0 -32,32 l 0,288 c 0,32 32,32 32,32 l 64,0 32,32 192,0 32,-32 64,0 c 0,0 32,4.15808 32,-32 l 0,-288 c 0,-32 -32,-32 -32,-32 z"
         inkscape:connector-curvature="0" />
      <path
         inkscape:connector-curvature="0"
         d="m 272,-156 c 0,0 -32,0 -32,32 l 0,288 c 0,32 32,32 32,32 l 64,0 32,32 192,0 32,-32 64,0 c 0,0 32,4.15808 32,-32 l 0,-288 c 0,-32 -32,-32 -32,-32 z"
         id="path4603"
         sodipodi:nodetypes="cssccccccsscc"
         style="opacity:1;fill:#ebebeb;fill-opacity:1;stroke:none;stroke-width:2;stroke-linecap:round;stroke-linejoin:round;stroke-miterlimit:4;stroke-dasharray:none;stroke-opacity:1" />
      <path
         inkscape:connector-curvature="0"
         d="m 304,-90 320,0 0,224 -64,0 -32,32 -128,0 -32,-32 -64,0 z"
         id="path4285"
         sodipodi:nodetypes="ccccccccc"
         style="opacity:0.4;fill:#ffffff;fill-opacity:1;stroke:none;stroke-width:2;stroke-linecap:round;stroke-linejoin:round;stroke-miterlimit:4;stroke-dasharray:none;stroke-opacity:1" />
      <path
         style="opacity:1;fill:#3f3f3f;fill-opacity:1;stroke:none;stroke-width:2;stroke-linecap:round;stroke-linejoin:round;stroke-miterlimit:4;stroke-dasharray:none;stroke-opacity:1"
         sodipodi:nodetypes="ccccccccc"
         id="path4611"
         d="m 304,-92 320,0 0,224 -64,0 -32,32 -128,0 -32,-32 -64,0 z"
         inkscape:connector-curvature="0" />
      <path
         style="opacity:0.2;fill:#ffffff;fill-opacity:1;stroke:none;stroke-width:2;stroke-linecap:round;stroke-linejoin:round;stroke-miterlimit:4;stroke-dasharray:none;stroke-opacity:1"
         d="M 272 88 C 272 88 240 88 240 120 L 240 122 C 240 90 272 90 272 90 L 656 90 C 656 90 688 90 688 122 L 688 120 C 688 88 656 88 656 88 L 272 88 z "
         transform="translate(0,-244)"
         id="path4639" />
      <path
         style="fill:#ebebeb;fill-opacity:1;stroke:none;"
         d="m 151,244 c 0,0 -3,0 -3,3 l 0,24 c 0,0 0,3 3,3 l 5,0 4,4 16,0 4,-4 5,0 c 0,0 3,0 3,-3 l 0,-24 c 0,-3 -3,-3 -3,-3 z"
         id="rect4203"
         inkscape:connector-curvature="0"
         sodipodi:nodetypes="cscscccccsscc" />
      <path
         sodipodi:nodetypes="ccccccccc"
         inkscape:connector-curvature="0"
         id="path4291"
         d="m 154,251 28,0 0,18 -4.48438,0 -4,4 -11.03124,0 -4,-4 L 154,269 Z"
         style="color:#000000;font-style:normal;font-variant:normal;font-weight:normal;font-stretch:normal;font-size:medium;line-height:normal;font-family:sans-serif;text-indent:0;text-align:start;text-decoration:none;text-decoration-line:none;text-decoration-style:solid;text-decoration-color:#000000;letter-spacing:normal;word-spacing:normal;text-transform:none;direction:ltr;block-progression:tb;writing-mode:lr-tb;baseline-shift:baseline;text-anchor:start;white-space:normal;clip-rule:nonzero;display:inline;overflow:visible;visibility:visible;opacity:0.4;isolation:auto;mix-blend-mode:normal;color-interpolation:sRGB;color-interpolation-filters:linearRGB;solid-color:#000000;solid-opacity:1;fill:#ffffff;fill-opacity:1;fill-rule:nonzero;stroke:none;stroke-width:12;stroke-linecap:butt;stroke-linejoin:miter;stroke-miterlimit:4;stroke-dasharray:none;stroke-dashoffset:0;stroke-opacity:1;color-rendering:auto;image-rendering:auto;shape-rendering:auto;text-rendering:auto;enable-background:accumulate;" />
      <path
         style="color:#000000;font-style:normal;font-variant:normal;font-weight:normal;font-stretch:normal;font-size:medium;line-height:normal;font-family:sans-serif;text-indent:0;text-align:start;text-decoration:none;text-decoration-line:none;text-decoration-style:solid;text-decoration-color:#000000;letter-spacing:normal;word-spacing:normal;text-transform:none;direction:ltr;block-progression:tb;writing-mode:lr-tb;baseline-shift:baseline;text-anchor:start;white-space:normal;clip-rule:nonzero;display:inline;overflow:visible;visibility:visible;opacity:1;isolation:auto;mix-blend-mode:normal;color-interpolation:sRGB;color-interpolation-filters:linearRGB;solid-color:#000000;solid-opacity:1;fill:#3f3f3f;fill-opacity:1;fill-rule:nonzero;stroke:none;stroke-width:12;stroke-linecap:butt;stroke-linejoin:miter;stroke-miterlimit:4;stroke-dasharray:none;stroke-dashoffset:0;stroke-opacity:1;color-rendering:auto;image-rendering:auto;shape-rendering:auto;text-rendering:auto;enable-background:accumulate;"
         d="m 154,250 28,0 0,18 -4.48438,0 -4,4 -11.03124,0 -4,-4 L 154,268 Z"
         id="path4189"
         inkscape:connector-curvature="0"
         sodipodi:nodetypes="ccccccccc" />
      <path
         style="opacity:0.1;fill:#ffffff;fill-opacity:1;stroke:none;"
         d="m 151,244 c 0,0 -3,0 -3,3 l 0,1 c 0,-3 3,-3 3,-3 l 34,0 c 0,0 3,0 3,3 l 0,-1 c 0,-3 -3,-3 -3,-3 l -34,0 z"
         id="path4202"
         inkscape:connector-curvature="0" />
      <path
         style="opacity:0.1;fill:#ffffff;fill-opacity:1;stroke:none;"
         d="m 53.5,264 c 0,0 -1.5,0 -1.5,1.5 l 0,1 c 0,-1.5 1.5,-1.5 1.5,-1.5 l 17,0 c 0,0 1.5,0 1.5,1.5 l 0,-1 C 72,264 70.5,264 70.5,264 l -17,0 z"
         id="path4224"
         inkscape:connector-curvature="0" />
    </g>
  </g>
</svg>
