<?xml version="1.0" encoding="UTF-8" standalone="no"?>
<!-- Created with Inkscape (http://www.inkscape.org/) -->

<svg
   xmlns:osb="http://www.openswatchbook.org/uri/2009/osb"
   xmlns:dc="http://purl.org/dc/elements/1.1/"
   xmlns:cc="http://creativecommons.org/ns#"
   xmlns:rdf="http://www.w3.org/1999/02/22-rdf-syntax-ns#"
   xmlns:svg="http://www.w3.org/2000/svg"
   xmlns="http://www.w3.org/2000/svg"
   xmlns:sodipodi="http://sodipodi.sourceforge.net/DTD/sodipodi-0.dtd"
   xmlns:inkscape="http://www.inkscape.org/namespaces/inkscape"
   inkscape:export-ydpi="90.000000"
   inkscape:export-xdpi="90.000000"
   width="600"
   height="224"
   id="svg11300"
   sodipodi:version="0.32"
   inkscape:version="0.91 r"
   sodipodi:docname="scanner.svg"
   inkscape:output_extension="org.inkscape.output.svg.inkscape"
   version="1.0"
   style="display:inline;enable-background:new"
   inkscape:export-filename="/home/sam/paper-template.png">
  <title
     id="title3004">Paper Icon Theme</title>
  <sodipodi:namedview
     stroke="#ef2929"
     fill="#f57900"
     id="base"
     pagecolor="#454545"
     bordercolor="#666666"
     borderopacity="0.25490196"
     inkscape:pageopacity="0"
     inkscape:pageshadow="2"
     inkscape:zoom="1"
     inkscape:cx="359.29976"
     inkscape:cy="61.76992"
     inkscape:current-layer="layer7"
     showgrid="false"
     inkscape:grid-bbox="true"
     inkscape:document-units="px"
     inkscape:showpageshadow="false"
     inkscape:window-width="1366"
     inkscape:window-height="716"
     inkscape:window-x="0"
     inkscape:window-y="27"
     width="400px"
     height="300px"
     inkscape:snap-nodes="true"
     inkscape:snap-bbox="true"
     gridtolerance="10000"
     inkscape:object-nodes="true"
     inkscape:snap-grids="true"
     showguides="true"
     inkscape:guide-bbox="true"
     inkscape:window-maximized="1"
     inkscape:bbox-nodes="true"
     inkscape:snap-bbox-edge-midpoints="true"
     inkscape:snap-bbox-midpoints="true"
     inkscape:bbox-paths="true">
    <inkscape:grid
       spacingy="1px"
       spacingx="1px"
       id="grid5883"
       type="xygrid"
       enabled="true"
       visible="true"
       empspacing="4"
       snapvisiblegridlinesonly="true" />
    <inkscape:grid
       type="xygrid"
       id="grid11592"
       empspacing="2"
       visible="true"
       enabled="false"
       spacingx="0.5px"
       spacingy="0.5px"
       color="#ff0000"
       opacity="0.1254902"
       empcolor="#ff0000"
       empopacity="0.25098039"
       snapvisiblegridlinesonly="true" />
    <sodipodi:guide
       orientation="0,1"
       position="0,224"
       id="guide4275" />
  </sodipodi:namedview>
  <defs
     id="defs3">
    <filter
       inkscape:collect="always"
       style="color-interpolation-filters:sRGB"
       id="filter4221"
       x="-0.040500034"
       width="1.0810001"
       y="-0.032399978"
       height="1.0648">
      <feGaussianBlur
         inkscape:collect="always"
         stdDeviation="0.54000046"
         id="feGaussianBlur4223" />
    </filter>
    <filter
       inkscape:collect="always"
       style="color-interpolation-filters:sRGB"
       id="filter4235"
       x="-0.027"
       width="1.054"
       y="-0.0216"
       height="1.0432">
      <feGaussianBlur
         inkscape:collect="always"
         stdDeviation="0.72"
         id="feGaussianBlur4237" />
    </filter>
    <filter
       inkscape:collect="always"
       style="color-interpolation-filters:sRGB"
       id="filter4249"
       x="-0.027272744"
       width="1.0545455"
       y="-0.021428561"
       height="1.0428571">
      <feGaussianBlur
         inkscape:collect="always"
         stdDeviation="0.25000015"
         id="feGaussianBlur4251" />
    </filter>
    <filter
       inkscape:collect="always"
       style="color-interpolation-filters:sRGB"
       id="filter4287"
       x="-0.027272727"
       width="1.0545455"
       y="-0.021428571"
       height="1.0428571">
      <feGaussianBlur
         inkscape:collect="always"
         stdDeviation="0.5"
         id="feGaussianBlur4289" />
    </filter>
    <filter
       inkscape:collect="always"
       style="color-interpolation-filters:sRGB"
       id="filter4314"
       x="-0.027"
       width="1.054"
       y="-0.0216"
       height="1.0432">
      <feGaussianBlur
         inkscape:collect="always"
         stdDeviation="1.44"
         id="feGaussianBlur4316" />
    </filter>
    <linearGradient
       osb:paint="solid"
       id="linearGradient5606">
      <stop
         style="stop-color:#000000;stop-opacity:1;"
         offset="0"
         id="stop5608" />
    </linearGradient>
  </defs>
  <metadata
     id="metadata4">
    <rdf:RDF>
      <cc:Work
         rdf:about="">
        <dc:format>image/svg+xml</dc:format>
        <dc:type
           rdf:resource="http://purl.org/dc/dcmitype/StillImage" />
        <dc:creator>
          <cc:Agent>
            <dc:title>Sam Hewitt</dc:title>
          </cc:Agent>
        </dc:creator>
        <dc:source />
        <cc:license
           rdf:resource="http://creativecommons.org/licenses/by-sa/3.0/" />
        <dc:title>Paper Icon Theme</dc:title>
        <dc:subject>
          <rdf:Bag />
        </dc:subject>
        <dc:date />
        <dc:rights>
          <cc:Agent>
            <dc:title />
          </cc:Agent>
        </dc:rights>
        <dc:publisher>
          <cc:Agent>
            <dc:title />
          </cc:Agent>
        </dc:publisher>
        <dc:identifier />
        <dc:relation />
        <dc:language />
        <dc:coverage />
        <dc:description />
        <dc:contributor>
          <cc:Agent>
            <dc:title />
          </cc:Agent>
        </dc:contributor>
      </cc:Work>
      <cc:Work
         rdf:about="">
        <dc:format>image/svg+xml</dc:format>
        <dc:type
           rdf:resource="http://purl.org/dc/dcmitype/StillImage" />
      </cc:Work>
    </rdf:RDF>
  </metadata>
  <g
     style="display:inline"
     inkscape:groupmode="layer"
     inkscape:label="Icon"
     id="layer1"
     transform="translate(0,-76)">
    <g
       style="display:none"
       inkscape:label="Baseplate"
       id="layer7"
       inkscape:groupmode="layer">
      <text
         y="59.745117"
         xml:space="preserve"
         x="15.006836"
         style="font-style:normal;font-variant:normal;font-weight:normal;font-stretch:normal;font-size:18px;font-family:'DejaVu Sans';-inkscape-font-specification:'DejaVu Sans';display:inline;fill:#000000;fill-opacity:1;stroke:none;enable-background:new"
         inkscape:label="context"
         id="context"><tspan
           style="font-style:normal;font-variant:normal;font-weight:normal;font-stretch:normal;font-family:'DejaVu Sans';-inkscape-font-specification:'DejaVu Sans'"
           y="59.745117"
           x="15.006836"
           sodipodi:role="line"
           id="tspan3933">devices</tspan></text>
      <text
         y="59.745117"
         xml:space="preserve"
         x="142.48828"
         style="font-style:normal;font-variant:normal;font-weight:bold;font-stretch:normal;font-size:18px;line-height:125%;font-family:'DejaVu Sans';-inkscape-font-specification:'DejaVu Sans Bold';text-align:start;writing-mode:lr-tb;text-anchor:start;display:inline;fill:#000000;fill-opacity:1;stroke:none;enable-background:new"
         sodipodi:linespacing="125%"
         inkscape:label="icon-name"
         id="icon-name"><tspan
           style="font-style:normal;font-variant:normal;font-weight:bold;font-stretch:normal;font-size:18px;font-family:'DejaVu Sans';-inkscape-font-specification:'DejaVu Sans Bold'"
           y="59.745117"
           x="142.48828"
           sodipodi:role="line"
           id="tspan3937">scanner</tspan></text>
      <rect
         style="display:inline;overflow:visible;visibility:visible;fill:#e9e9e9;fill-opacity:1;fill-rule:nonzero;stroke:none;stroke-width:2;marker:none;enable-background:accumulate"
         id="rect16x16"
         width="16"
         height="16"
         x="-32"
         y="268"
         inkscape:label="16x16"
         transform="scale(-1,1)" />
      <rect
         style="display:inline;overflow:visible;visibility:visible;fill:#e9e9e9;fill-opacity:1;fill-rule:nonzero;stroke:none;stroke-width:2;marker:none;enable-background:accumulate"
         id="rect24x24"
         width="24"
         height="24"
         x="-72"
         y="260"
         inkscape:label="24x24"
         transform="scale(-1,1)" />
      <rect
         style="display:inline;overflow:visible;visibility:visible;fill:#e9e9e9;fill-opacity:1;fill-rule:nonzero;stroke:none;stroke-width:2;marker:none;enable-background:accumulate"
         id="rect32x32"
         width="32"
         height="32"
         x="-120"
         y="252"
         inkscape:label="32x32"
         transform="scale(-1,1)" />
      <rect
         inkscape:label="48x48"
         y="236"
         x="-184"
         height="48"
         width="48"
         id="rect48x48"
         style="display:inline;overflow:visible;visibility:visible;fill:#e9e9e9;fill-opacity:1;fill-rule:nonzero;stroke:none;stroke-width:2;marker:none;enable-background:accumulate"
         transform="scale(-1,1)" />
      <rect
         style="display:inline;overflow:visible;visibility:visible;fill:#e9e9e9;fill-opacity:1;fill-rule:nonzero;stroke:none;stroke-width:2;marker:none;enable-background:accumulate"
         id="rect256x256"
         width="192"
         height="192"
         x="-584"
         y="92"
         inkscape:label="256x256"
         transform="scale(-1,1)" />
      <rect
         inkscape:label="256x256"
         y="188"
         x="-376"
         height="96"
         width="96"
         id="rect3949"
         style="display:inline;overflow:visible;visibility:visible;fill:#e9e9e9;fill-opacity:1;fill-rule:nonzero;stroke:none;stroke-width:2;marker:none;enable-background:accumulate"
         transform="scale(-1,1)" />
      <rect
         style="display:inline;overflow:visible;visibility:visible;fill:#e9e9e9;fill-opacity:1;fill-rule:nonzero;stroke:none;stroke-width:2;marker:none;enable-background:accumulate"
         id="rect3951"
         width="64"
         height="64"
         x="-264"
         y="220"
         inkscape:label="48x48"
         transform="scale(-1,1)" />
    </g>
    <g
       inkscape:groupmode="layer"
       id="layer6"
       inkscape:label="Symbols"
       style="display:inline">
      <rect
         ry="2"
         rx="2"
         y="-115"
         x="-283"
         height="22"
         width="28.000031"
         id="rect4247"
         style="fill:#000000;fill-opacity:1;stroke:none;opacity:0.5;filter:url(#filter4249)"
         transform="matrix(0,-1,-1,0,0,0)" />
      <rect
         ry="4"
         rx="4"
         y="-360"
         x="197"
         height="64"
         width="80"
         id="rect4225"
         style="fill:#000000;fill-opacity:1;stroke:none;opacity:0.5;filter:url(#filter4235)"
         transform="matrix(0,1,-1,0,0,0)" />
      <rect
         transform="matrix(0,-1,-1,0,0,0)"
         style="fill:#000000;fill-opacity:1;stroke:none;opacity:0.5;filter:url(#filter4287)"
         id="rect4269"
         width="56"
         height="44"
         x="-281"
         y="-254"
         rx="3"
         ry="3" />
      <rect
         ry="1.5"
         rx="1.5"
         y="-68"
         x="-283"
         height="16"
         width="20"
         id="rect4322"
         style="fill:#000000;fill-opacity:1;stroke:#000000;opacity:0.05;stroke-opacity:1;stroke-width:2;stroke-miterlimit:4;stroke-dasharray:none"
         transform="matrix(0,-1,-1,0,0,0)" />
      <rect
         transform="matrix(0,-1,-1,0,0,0)"
         style="fill:#000000;fill-opacity:1;stroke:none;opacity:0.5"
         id="rect4320"
         width="20"
         height="16"
         x="-283"
         y="-68"
         rx="1.5"
         ry="1.5" />
      <rect
         transform="matrix(0,-1,-1,0,0,0)"
         style="fill:#000000;fill-opacity:1;stroke:none;opacity:0.5;filter:url(#filter4314)"
         id="rect4300"
         width="160"
         height="128"
         x="-269"
         y="-552"
         rx="8"
         ry="8" />
      <rect
         ry="2"
         rx="2"
         y="-176"
         x="-281"
         height="32"
         width="40.000061"
         id="rect4211"
         style="fill:#000000;fill-opacity:1;stroke:none;opacity:0.5;filter:url(#filter4221)"
         transform="matrix(0,-1,-1,0,0,0)" />
      <rect
         transform="matrix(0,-1,-1,0,0,0)"
         style="fill:#9d9d9d;fill-opacity:1;stroke:none"
         id="rect4203"
         width="40.000061"
         height="32"
         x="-280"
         y="-176"
         rx="2"
         ry="2" />
      <rect
         transform="matrix(0,-1,-1,0,0,0)"
         style="display:inline;fill:#ebebeb;fill-opacity:1;stroke:none;enable-background:new"
         id="rect4369"
         width="34"
         height="26"
         x="-277"
         y="-173"
         rx="0"
         ry="0" />
      <rect
         transform="matrix(0,-1,-1,0,0,0)"
         style="fill:#9d9d9d;fill-opacity:1;stroke:none"
         id="rect4217"
         width="80"
         height="64"
         x="-276"
         y="-360"
         rx="4"
         ry="4" />
      <rect
         ry="0"
         rx="0"
         y="-354"
         x="-270"
         height="52"
         width="68"
         id="rect4273"
         style="display:inline;fill:#ebebeb;fill-opacity:1;stroke:none;enable-background:new"
         transform="matrix(0,-1,-1,0,0,0)" />
      <rect
         ry="3"
         rx="3"
         y="-254"
         x="-280"
         height="44"
         width="56"
         id="rect4229"
         style="fill:#9d9d9d;fill-opacity:1;stroke:none"
         transform="matrix(0,-1,-1,0,0,0)" />
      <rect
         ry="1.5"
         rx="1.5"
         y="-68"
         x="-282"
         height="16"
         width="20"
         id="rect4243"
         style="fill:#9d9d9d;fill-opacity:1;stroke:none"
         transform="matrix(0,-1,-1,0,0,0)" />
      <rect
         transform="matrix(0,-1,-1,0,0,0)"
         style="fill:#9d9d9d;fill-opacity:1;stroke:none"
         id="rect4255"
         width="28.000031"
         height="22"
         x="-282"
         y="-115"
         rx="2"
         ry="2" />
      <rect
         transform="matrix(0,-1,-1,0,0,0)"
         style="display:inline;fill:#9d9d9d;fill-opacity:1;stroke:none;enable-background:new"
         id="rect4265"
         width="16"
         height="14"
         x="-284"
         y="-31"
         rx="1"
         ry="1" />
      <path
         style="fill:#ffffff;fill-opacity:1;stroke:none;opacity:0.1"
         d="M 146 164 C 144.892 164 144 164.892 144 166 L 144 167 C 144 165.892 144.892 165 146 165 L 174 165 C 175.108 165 176 165.892 176 167 L 176 166 C 176 164.892 175.108 164 174 164 L 146 164 z "
         transform="translate(0,76)"
         id="rect4196" />
      <path
         style="fill:#ffffff;fill-opacity:1;stroke:none;opacity:0.1"
         d="M 300 120 C 297.784 120 296 121.784 296 124 L 296 125 C 296 122.784 297.784 121 300 121 L 356 121 C 358.216 121 360 122.784 360 125 L 360 124 C 360 121.784 358.216 120 356 120 L 300 120 z "
         transform="translate(0,76)"
         id="rect4198" />
      <path
         style="fill:#ffffff;fill-opacity:1;stroke:none;opacity:0.1"
         d="M 53.5 186 C 52.669 186 52 186.669 52 187.5 L 52 188.5 C 52 187.669 52.669 187 53.5 187 L 66.5 187 C 67.331 187 68 187.669 68 188.5 L 68 187.5 C 68 186.669 67.331 186 66.5 186 L 53.5 186 z "
         transform="translate(0,76)"
         id="rect4200" />
      <path
         style="fill:#ffffff;fill-opacity:1;stroke:none;opacity:0.1"
         d="M 95 178 C 93.892 178 93 178.892 93 180 L 93 181 C 93 179.892 93.892 179 95 179 L 113 179 C 114.108 179 115 179.892 115 181 L 115 180 C 115 178.892 114.108 178 113 178 L 95 178 z "
         transform="translate(0,76)"
         id="rect4241" />
      <path
         style="fill:#ffffff;fill-opacity:1;stroke:none;opacity:0.1"
         d="M 213 148 C 211.338 148 210 149.338 210 151 L 210 152 C 210 150.338 211.338 149 213 149 L 251 149 C 252.662 149 254 150.338 254 152 L 254 151 C 254 149.338 252.662 148 251 148 L 213 148 z "
         transform="translate(0,76)"
         id="rect4263" />
      <rect
         ry="8"
         rx="8"
         y="-552"
         x="-268"
         height="128"
         width="160"
         id="rect4291"
         style="fill:#9d9d9d;fill-opacity:1;stroke:none"
         transform="matrix(0,-1,-1,0,0,0)" />
      <path
         style="fill:#ffffff;fill-opacity:1;stroke:none;opacity:0.1"
         d="M 432 32 C 427.568 32 424 35.568 424 40 L 424 41 C 424 36.568 427.568 33 432 33 L 544 33 C 548.432 33 552 36.568 552 41 L 552 40 C 552 35.568 548.432 32 544 32 L 432 32 z "
         transform="translate(0,76)"
         id="rect4295" />
      <g
         id="g4635"
         inkscape:label="actions"
         style="display:inline;fill:#ffffff;fill-opacity:1;enable-background:new"
         transform="matrix(4.0008799,0,0,4.0008799,-1532.4518,272.01409)" />
      <g
         transform="matrix(2.00044,0,0,2.00044,-682.22612,278.00705)"
         style="display:inline;fill:#ffffff;fill-opacity:1;enable-background:new"
         inkscape:label="actions"
         id="g4627" />
      <g
         id="g4260">
        <path
           transform="matrix(0,-1,-1,0,0,0)"
           id="rect4230"
           d="m -260,-179 c 1.662,0 3,1.338 3,3 l 0,32 c 0,1.662 -1.338,3 -3,3 -1.662,0 -3,-1.338 -3,-3 l 0,-32 c 0,-1.662 1.338,-3 3,-3 z"
           style="opacity:0.05;fill:#fffbd8;fill-opacity:1;stroke:none" />
        <path
           transform="matrix(0,1,-1,0,0,0)"
           id="rect4228"
           d="m 259.96875,-178 0.0625,0 c 1.09069,0 1.96875,0.892 1.96875,2 l 0,32 c 0,1.108 -0.87806,2 -1.96875,2 l -0.0625,0 C 258.87806,-142 258,-142.892 258,-144 l 0,-32 c 0,-1.108 0.87806,-2 1.96875,-2 z"
           style="opacity:0.1;fill:#fffbd8;fill-opacity:1;stroke:none" />
        <path
           transform="matrix(0,-1,-1,0,0,0)"
           id="rect4226"
           d="m -260,-177 c 0.554,0 1,0.446 1,1 l 0,32 c 0,0.554 -0.446,1 -1,1 -0.554,0 -1,-0.446 -1,-1 l 0,-32 c 0,-0.554 0.446,-1 1,-1 z"
           style="opacity:1;fill:#fffbd8;fill-opacity:1;stroke:none" />
      </g>
      <path
         inkscape:connector-curvature="0"
         id="path4269"
         d="m 364,235.9375 0,0.125 c 0,2.18138 -1.784,3.9375 -4,3.9375 l -64,0 c -2.216,0 -4,-1.75612 -4,-3.9375 l 0,-0.125 C 292,233.75612 293.784,232 296,232 l 64,0 c 2.216,0 4,1.75612 4,3.9375 z"
         style="opacity:0.05;fill:#fffbd8;fill-opacity:1;stroke:none" />
      <path
         inkscape:connector-curvature="0"
         id="path4271"
         d="m 362,236 c 0,-1.108 -0.892,-2 -2,-2 l -64,0 c -1.108,0 -2,0.892 -2,2 0,1.108 0.892,2 2,2 l 64,0 c 1.108,0 2,-0.892 2,-2 z"
         style="opacity:1;fill:#fffbd8;fill-opacity:1;stroke:none" />
      <path
         style="opacity:0.1;fill:#fffbd8;fill-opacity:1;stroke:#fffbd8;stroke-opacity:1;stroke-width:2;stroke-miterlimit:4;stroke-dasharray:none"
         d="m 362,236 c 0,-1.108 -0.892,-2 -2,-2 l -64,0 c -1.108,0 -2,0.892 -2,2 0,1.108 0.892,2 2,2 l 64,0 c 1.108,0 2,-0.892 2,-2 z"
         id="path4278"
         inkscape:connector-curvature="0" />
    </g>
  </g>
</svg>
