<?xml version="1.0" encoding="UTF-8" standalone="no"?>
<!-- Created with Inkscape (http://www.inkscape.org/) -->

<svg
   xmlns:osb="http://www.openswatchbook.org/uri/2009/osb"
   xmlns:dc="http://purl.org/dc/elements/1.1/"
   xmlns:cc="http://creativecommons.org/ns#"
   xmlns:rdf="http://www.w3.org/1999/02/22-rdf-syntax-ns#"
   xmlns:svg="http://www.w3.org/2000/svg"
   xmlns="http://www.w3.org/2000/svg"
   xmlns:sodipodi="http://sodipodi.sourceforge.net/DTD/sodipodi-0.dtd"
   xmlns:inkscape="http://www.inkscape.org/namespaces/inkscape"
   inkscape:export-ydpi="90.000000"
   inkscape:export-xdpi="90.000000"
   width="736"
   height="544"
   id="svg11300"
   sodipodi:version="0.32"
   inkscape:version="0.91 r13725"
   sodipodi:docname="scanner.svg"
   inkscape:output_extension="org.inkscape.output.svg.inkscape"
   version="1.0"
   style="display:inline;enable-background:new"
   inkscape:export-filename="/home/sam/paper-template.png">
  <title
     id="title3004">Paper Icon Theme</title>
  <sodipodi:namedview
     stroke="#ef2929"
     fill="#f57900"
     id="base"
     pagecolor="#454545"
     bordercolor="#666666"
     borderopacity="0.25490196"
     inkscape:pageopacity="0"
     inkscape:pageshadow="2"
     inkscape:zoom="1"
     inkscape:cx="409.25283"
     inkscape:cy="146.04334"
     inkscape:current-layer="layer6"
     showgrid="false"
     inkscape:grid-bbox="true"
     inkscape:document-units="px"
     inkscape:showpageshadow="false"
     inkscape:window-width="1366"
     inkscape:window-height="704"
     inkscape:window-x="0"
     inkscape:window-y="27"
     width="400px"
     height="300px"
     inkscape:snap-nodes="true"
     inkscape:snap-bbox="true"
     gridtolerance="10000"
     inkscape:object-nodes="true"
     inkscape:snap-grids="true"
     showguides="true"
     inkscape:guide-bbox="true"
     inkscape:window-maximized="1"
     inkscape:bbox-nodes="true"
     inkscape:snap-bbox-edge-midpoints="true"
     inkscape:snap-bbox-midpoints="true"
     inkscape:bbox-paths="true">
    <inkscape:grid
       spacingy="1px"
       spacingx="1px"
       id="grid5883"
       type="xygrid"
       enabled="true"
       visible="true"
       empspacing="4"
       snapvisiblegridlinesonly="true" />
    <inkscape:grid
       type="xygrid"
       id="grid11592"
       empspacing="2"
       visible="true"
       enabled="false"
       spacingx="0.5px"
       spacingy="0.5px"
       color="#ff0000"
       opacity="0.1254902"
       empcolor="#ff0000"
       empopacity="0.25098039"
       snapvisiblegridlinesonly="true" />
  </sodipodi:namedview>
  <defs
     id="defs3">
    <linearGradient
       osb:paint="solid"
       id="linearGradient5606">
      <stop
         style="stop-color:#000000;stop-opacity:1;"
         offset="0"
         id="stop5608" />
    </linearGradient>
    <filter
       inkscape:collect="always"
       style="color-interpolation-filters:sRGB"
       id="filter4478"
       x="-0.027272727"
       width="1.0545455"
       y="-0.02142857"
       height="1.0428571">
      <feGaussianBlur
         inkscape:collect="always"
         stdDeviation="4"
         id="feGaussianBlur4480" />
    </filter>
  </defs>
  <metadata
     id="metadata4">
    <rdf:RDF>
      <cc:Work
         rdf:about="">
        <dc:format>image/svg+xml</dc:format>
        <dc:type
           rdf:resource="http://purl.org/dc/dcmitype/StillImage" />
        <dc:creator>
          <cc:Agent>
            <dc:title>Sam Hewitt</dc:title>
          </cc:Agent>
        </dc:creator>
        <dc:source />
        <cc:license
           rdf:resource="http://creativecommons.org/licenses/by-sa/3.0/" />
        <dc:title>Paper Icon Theme</dc:title>
        <dc:subject>
          <rdf:Bag />
        </dc:subject>
        <dc:date />
        <dc:rights>
          <cc:Agent>
            <dc:title />
          </cc:Agent>
        </dc:rights>
        <dc:publisher>
          <cc:Agent>
            <dc:title />
          </cc:Agent>
        </dc:publisher>
        <dc:identifier />
        <dc:relation />
        <dc:language />
        <dc:coverage />
        <dc:description />
        <dc:contributor>
          <cc:Agent>
            <dc:title />
          </cc:Agent>
        </dc:contributor>
      </cc:Work>
      <cc:Work
         rdf:about="">
        <dc:format>image/svg+xml</dc:format>
        <dc:type
           rdf:resource="http://purl.org/dc/dcmitype/StillImage" />
      </cc:Work>
      <cc:License
         rdf:about="http://creativecommons.org/licenses/by-sa/3.0/">
        <cc:permits
           rdf:resource="http://creativecommons.org/ns#Reproduction" />
        <cc:permits
           rdf:resource="http://creativecommons.org/ns#Distribution" />
        <cc:requires
           rdf:resource="http://creativecommons.org/ns#Notice" />
        <cc:requires
           rdf:resource="http://creativecommons.org/ns#Attribution" />
        <cc:permits
           rdf:resource="http://creativecommons.org/ns#DerivativeWorks" />
        <cc:requires
           rdf:resource="http://creativecommons.org/ns#ShareAlike" />
      </cc:License>
    </rdf:RDF>
  </metadata>
  <g
     style="display:inline"
     inkscape:groupmode="layer"
     inkscape:label="Icon"
     id="layer1"
     transform="translate(0,244)">
    <g
       style="display:none"
       inkscape:label="Baseplate"
       id="layer7"
       inkscape:groupmode="layer">
      <text
         y="339.74512"
         xml:space="preserve"
         x="15.006836"
         style="font-style:normal;font-variant:normal;font-weight:normal;font-stretch:normal;font-size:18px;font-family:'DejaVu Sans';-inkscape-font-specification:'DejaVu Sans';display:inline;fill:#000000;fill-opacity:1;stroke:none;enable-background:new"
         inkscape:label="context"
         id="context"><tspan
           style="font-style:normal;font-variant:normal;font-weight:normal;font-stretch:normal;font-family:'DejaVu Sans';-inkscape-font-specification:'DejaVu Sans'"
           y="339.74512"
           x="15.006836"
           sodipodi:role="line"
           id="tspan3933">devices</tspan></text>
      <text
         y="339.74512"
         xml:space="preserve"
         x="142.48828"
         style="font-style:normal;font-variant:normal;font-weight:bold;font-stretch:normal;font-size:18px;line-height:125%;font-family:'DejaVu Sans';-inkscape-font-specification:'DejaVu Sans Bold';text-align:start;writing-mode:lr-tb;text-anchor:start;display:inline;fill:#000000;fill-opacity:1;stroke:none;enable-background:new"
         sodipodi:linespacing="125%"
         inkscape:label="icon-name"
         id="icon-name"><tspan
           style="font-style:normal;font-variant:normal;font-weight:bold;font-stretch:normal;font-size:18px;font-family:'DejaVu Sans';-inkscape-font-specification:'DejaVu Sans Bold'"
           y="339.74512"
           x="142.48828"
           sodipodi:role="line"
           id="tspan3937">scanner</tspan></text>
      <rect
         style="display:inline;overflow:visible;visibility:visible;fill:#e9e9e9;fill-opacity:1;fill-rule:nonzero;stroke:none;stroke-width:2;marker:none;enable-background:accumulate"
         id="rect16x16"
         width="16"
         height="16"
         x="-32"
         y="268"
         inkscape:label="16x16"
         transform="scale(-1,1)" />
      <rect
         style="display:inline;overflow:visible;visibility:visible;fill:#e9e9e9;fill-opacity:1;fill-rule:nonzero;stroke:none;stroke-width:2;marker:none;enable-background:accumulate"
         id="rect24x24"
         width="24"
         height="24"
         x="-74"
         y="260"
         inkscape:label="24x24"
         transform="scale(-1,1)" />
      <rect
         style="display:inline;overflow:visible;visibility:visible;fill:#e9e9e9;fill-opacity:1;fill-rule:nonzero;stroke:none;stroke-width:2;marker:none;enable-background:accumulate"
         id="rect32x32"
         width="32"
         height="32"
         x="-128"
         y="252"
         inkscape:label="32x32"
         transform="scale(-1,1)" />
      <rect
         inkscape:label="48x48"
         y="236"
         x="-192"
         height="48"
         width="48"
         id="rect48x48"
         style="display:inline;overflow:visible;visibility:visible;fill:#e9e9e9;fill-opacity:1;fill-rule:nonzero;stroke:none;stroke-width:2;marker:none;enable-background:accumulate"
         transform="scale(-1,1)" />
      <rect
         style="display:inline;overflow:visible;visibility:visible;fill:#e9e9e9;fill-opacity:1;fill-rule:nonzero;stroke:none;stroke-width:2;marker:none;enable-background:accumulate"
         id="rect3951"
         width="512"
         height="512"
         x="-720"
         y="-228"
         inkscape:label="48x48"
         transform="scale(-1,1)" />
    </g>
    <g
       inkscape:groupmode="layer"
       id="layer6"
       inkscape:label="Symbols"
       style="display:inline">
      <rect
         ry="24"
         rx="24"
         y="-640"
         x="-256"
         height="352"
         width="448"
         id="rect4482"
         style="opacity:0.1;fill:#000000;fill-opacity:1;stroke:#000000;stroke-width:8;stroke-miterlimit:4;stroke-dasharray:none;stroke-opacity:1;filter:url(#filter4478)"
         transform="matrix(0,-1,-1,0,0,0)" />
      <rect
         ry="2"
         rx="2"
         y="-115"
         x="-283"
         height="22"
         width="28.000031"
         id="rect4247"
         style="opacity:0.2;fill:#000000;fill-opacity:1;stroke:none"
         transform="matrix(0,-1,-1,0,8,0)" />
      <rect
         transform="matrix(0,-1,-1,0,0,0)"
         style="opacity:0.2;fill:#000000;fill-opacity:1;stroke:none"
         id="rect4320"
         width="20"
         height="16"
         x="-283"
         y="-70"
         rx="1.5"
         ry="1.5" />
      <rect
         ry="2"
         rx="2"
         y="-176"
         x="-281"
         height="32"
         width="40.000061"
         id="rect4211"
         style="opacity:0.02;fill:#000000;fill-opacity:1;stroke:none"
         transform="matrix(0,-1,-1,0,8,0)" />
      <rect
         transform="matrix(0,-1,-1,0,0,0)"
         style="fill:#9d9d9d;fill-opacity:1;stroke:none"
         id="rect4203"
         width="40.000061"
         height="32"
         x="-280"
         y="-184"
         rx="2"
         ry="2" />
      <rect
         transform="matrix(0,-1,-1,0,0,0)"
         style="display:inline;fill:#ebebeb;fill-opacity:1;stroke:none;enable-background:new"
         id="rect4369"
         width="34"
         height="26"
         x="-277"
         y="-181"
         rx="0"
         ry="0" />
      <rect
         ry="1.5"
         rx="1.5"
         y="-70"
         x="-282"
         height="16"
         width="20"
         id="rect4243"
         style="fill:#9d9d9d;fill-opacity:1;stroke:none"
         transform="matrix(0,-1,-1,0,0,0)" />
      <rect
         transform="matrix(0,-1,-1,0,0,0)"
         style="display:inline;fill:#ebebeb;fill-opacity:1;stroke:none;enable-background:new"
         id="rect4528"
         width="16"
         height="11.999992"
         x="-280"
         y="-68"
         rx="0"
         ry="0" />
      <rect
         transform="matrix(0,-1,-1,0,0,0)"
         style="fill:#9d9d9d;fill-opacity:1;stroke:none"
         id="rect4255"
         width="28.000031"
         height="22"
         x="-282"
         y="-123"
         rx="2"
         ry="2" />
      <rect
         transform="matrix(0,-1,-1,0,0,0)"
         style="display:inline;fill:#9d9d9d;fill-opacity:1;stroke:none;enable-background:new"
         id="rect4265"
         width="16"
         height="14"
         x="-284"
         y="-31"
         rx="1"
         ry="1" />
      <rect
         ry="0"
         rx="0"
         y="-29"
         x="-282"
         height="10"
         width="12"
         id="rect4536"
         style="display:inline;fill:#ebebeb;fill-opacity:1;stroke:none;enable-background:new"
         transform="matrix(0,-1,-1,0,0,0)" />
      <path
         style="opacity:0.1;fill:#ffffff;fill-opacity:1;stroke:none"
         d="m 154,240 c -1.108,0 -2,0.892 -2,2 l 0,1 c 0,-1.108 0.892,-2 2,-2 l 28,0 c 1.108,0 2,0.892 2,2 l 0,-1 c 0,-1.108 -0.892,-2 -2,-2 l -28,0 z"
         id="rect4196"
         inkscape:connector-curvature="0" />
      <path
         style="opacity:0.1;fill:#ffffff;fill-opacity:1;stroke:none"
         d="m 55.5,262 c -0.831,0 -1.5,0.669 -1.5,1.5 l 0,1 c 0,-0.831 0.669,-1.5 1.5,-1.5 l 13,0 c 0.831,0 1.5,0.669 1.5,1.5 l 0,-1 c 0,-0.831 -0.669,-1.5 -1.5,-1.5 l -13,0 z"
         id="rect4200"
         inkscape:connector-curvature="0" />
      <path
         style="opacity:0.1;fill:#ffffff;fill-opacity:1;stroke:none"
         d="m 103,254 c -1.108,0 -2,0.892 -2,2 l 0,1 c 0,-1.108 0.892,-2 2,-2 l 18,0 c 1.108,0 2,0.892 2,2 l 0,-1 c 0,-1.108 -0.892,-2 -2,-2 l -18,0 z"
         id="rect4241"
         inkscape:connector-curvature="0" />
      <path
         inkscape:connector-curvature="0"
         style="opacity:0.05;fill:#fffbd8;fill-opacity:1;stroke:none"
         d="m 187,260 c 0,-1.662 -1.338,-3 -3,-3 l -32,0 c -1.662,0 -3,1.338 -3,3 0,1.662 1.338,3 3,3 l 32,0 c 1.662,0 3,-1.338 3,-3 z"
         id="rect4230" />
      <path
         inkscape:connector-curvature="0"
         style="opacity:0.1;fill:#fffbd8;fill-opacity:1;stroke:none"
         d="m 186,259.96875 0,0.0625 C 186,261.12194 185.108,262 184,262 l -32,0 c -1.108,0 -2,-0.87806 -2,-1.96875 l 0,-0.0625 C 150,258.87806 150.892,258 152,258 l 32,0 c 1.108,0 2,0.87806 2,1.96875 z"
         id="rect4228" />
      <path
         inkscape:connector-curvature="0"
         style="opacity:1;fill:#fffbd8;fill-opacity:1;stroke:none"
         d="m 185,260 c 0,-0.554 -0.446,-1 -1,-1 l -32,0 c -0.554,0 -1,0.446 -1,1 0,0.554 0.446,1 1,1 l 32,0 c 0.554,0 1,-0.446 1,-1 z"
         id="rect4226" />
      <rect
         transform="matrix(0,-1,-1,0,0,0)"
         style="opacity:0.2;fill:#000000;fill-opacity:1;stroke:none;filter:url(#filter4478)"
         id="rect4269"
         width="448"
         height="352"
         x="-256"
         y="-640"
         rx="24"
         ry="24" />
      <rect
         ry="24"
         rx="24"
         y="-640"
         x="-252"
         height="352"
         width="448"
         id="rect4229"
         style="fill:#9d9d9d;fill-opacity:1;stroke:none"
         transform="matrix(0,-1,-1,0,0,0)" />
      <path
         style="opacity:0.1;fill:#ffffff;fill-opacity:1;stroke:none"
         d="M 312 48 C 298.704 48 288 58.704 288 72 L 288 74 C 288 60.704 298.704 50 312 50 L 616 50 C 629.296 50 640 60.704 640 74 L 640 72 C 640 58.704 629.296 48 616 48 L 312 48 z "
         transform="translate(0,-244)"
         id="rect4263" />
      <rect
         ry="0"
         rx="0"
         y="-608"
         x="-220"
         height="288"
         width="384"
         id="rect4193"
         style="display:inline;fill:#ebebeb;fill-opacity:1;stroke:none;enable-background:new"
         transform="matrix(0,-1,-1,0,0,0)" />
      <rect
         style="opacity:0.05;fill:#fffbd8;fill-opacity:1;stroke:#fffbd8;stroke-width:32;stroke-linecap:round;stroke-linejoin:miter;stroke-miterlimit:4;stroke-dasharray:none;stroke-opacity:1"
         id="rect4491"
         width="368"
         height="16"
         x="280"
         y="20"
         rx="8"
         ry="8" />
      <rect
         ry="8"
         rx="8"
         y="20"
         x="280"
         height="16"
         width="368"
         id="rect4489"
         style="opacity:1;fill:#fffbd8;fill-opacity:1;stroke:#fffbd8;stroke-width:16;stroke-linecap:round;stroke-linejoin:miter;stroke-miterlimit:4;stroke-dasharray:none;stroke-opacity:1" />
      <rect
         ry="0"
         rx="0"
         y="-121"
         x="-280"
         height="18"
         width="24"
         id="rect4499"
         style="display:inline;fill:#ebebeb;fill-opacity:1;stroke:none;enable-background:new"
         transform="matrix(0,-1,-1,0,0,0)" />
      <path
         id="path4493"
         d="m 126,268 c 0,-1.662 -1.338,-3 -3,-3 l -22,0 c -1.662,0 -3,1.338 -3,3 0,1.662 1.338,3 3,3 l 22,0 c 1.662,0 3,-1.338 3,-3 z"
         style="opacity:0.05;fill:#fffbd8;fill-opacity:1;stroke:none"
         inkscape:connector-curvature="0"
         sodipodi:nodetypes="sssssss" />
      <path
         id="path4495"
         d="m 125,267.96875 0,0.0625 C 125,269.12194 124.108,270 123,270 l -22,0 c -1.108,0 -2,-0.87806 -2,-1.96875 l 0,-0.0625 C 99,266.87806 99.892,266 101,266 l 22,0 c 1.108,0 2,0.87806 2,1.96875 z"
         style="opacity:0.1;fill:#fffbd8;fill-opacity:1;stroke:none"
         inkscape:connector-curvature="0"
         sodipodi:nodetypes="sssssssss" />
      <path
         id="path4497"
         d="m 124,268 c 0,-0.554 -0.446,-1 -1,-1 l -22,0 c -0.554,0 -1,0.446 -1,1 0,0.554 0.446,1 1,1 l 22,0 c 0.554,0 1,-0.446 1,-1 z"
         style="opacity:1;fill:#fffbd8;fill-opacity:1;stroke:none"
         inkscape:connector-curvature="0"
         sodipodi:nodetypes="sssssss" />
      <path
         style="opacity:0.05;fill:#fffbd8;fill-opacity:1;stroke:none"
         d="M 54 513 L 54 519 L 70 519 L 70 513 L 54 513 z "
         id="path4501"
         transform="translate(0,-244)" />
      <path
         style="opacity:0.1;fill:#fffbd8;fill-opacity:1;stroke:none"
         d="M 54 514 L 54 518 L 70 518 L 70 514 L 54 514 z "
         id="path4503"
         transform="translate(0,-244)" />
      <path
         style="opacity:1;fill:#fffbd8;fill-opacity:1;stroke:none"
         d="M 54 515 L 54 517 L 70 517 L 70 515 L 54 515 z "
         id="path4505"
         transform="translate(0,-244)" />
      <path
         id="path4530"
         d="m 17,273 0,6 14,0 0,-6 z"
         style="opacity:0.05;fill:#fffbd8;fill-opacity:1;stroke:none"
         inkscape:connector-curvature="0"
         sodipodi:nodetypes="ccccc" />
      <path
         id="path4532"
         d="m 17,274 0,4 14,0 0,-4 z"
         style="opacity:0.1;fill:#fffbd8;fill-opacity:1;stroke:none"
         inkscape:connector-curvature="0"
         sodipodi:nodetypes="ccccc" />
      <path
         id="path4534"
         d="m 17,275 0,2 14,0 0,-2 z"
         style="opacity:1;fill:#fffbd8;fill-opacity:1;stroke:none"
         inkscape:connector-curvature="0"
         sodipodi:nodetypes="ccccc" />
      <rect
         ry="8"
         rx="8"
         y="20"
         x="280"
         height="16"
         width="368"
         id="rect4185"
         style="opacity:0.01;fill:#fffbd8;fill-opacity:1;stroke:#fffbd8;stroke-width:48;stroke-linecap:round;stroke-linejoin:miter;stroke-miterlimit:4;stroke-dasharray:none;stroke-opacity:1" />
    </g>
  </g>
</svg>
