<?xml version="1.0" encoding="UTF-8" standalone="no"?>
<!-- Created with Inkscape (http://www.inkscape.org/) -->

<svg
   xmlns:dc="http://purl.org/dc/elements/1.1/"
   xmlns:cc="http://creativecommons.org/ns#"
   xmlns:rdf="http://www.w3.org/1999/02/22-rdf-syntax-ns#"
   xmlns:svg="http://www.w3.org/2000/svg"
   xmlns="http://www.w3.org/2000/svg"
   xmlns:xlink="http://www.w3.org/1999/xlink"
   xmlns:sodipodi="http://sodipodi.sourceforge.net/DTD/sodipodi-0.dtd"
   xmlns:inkscape="http://www.inkscape.org/namespaces/inkscape"
   inkscape:export-ydpi="90.000000"
   inkscape:export-xdpi="90.000000"
   width="736"
   height="544"
   id="svg11300"
   sodipodi:version="0.32"
   inkscape:version="0.91 r13725"
   sodipodi:docname="square-emblems.svg"
   inkscape:output_extension="org.inkscape.output.svg.inkscape"
   version="1.0"
   style="display:inline;enable-background:new"
   inkscape:export-filename="/home/sam/paper-template.png">
  <title
     id="title3004">Paper Icon Theme</title>
  <sodipodi:namedview
     stroke="#ef2929"
     fill="#f57900"
     id="base"
     pagecolor="#474747"
     bordercolor="#666666"
     borderopacity="0.25490196"
     inkscape:pageopacity="0"
     inkscape:pageshadow="2"
     inkscape:zoom="1"
     inkscape:cx="257.84445"
     inkscape:cy="761.71122"
     inkscape:current-layer="g4346"
     showgrid="false"
     inkscape:grid-bbox="true"
     inkscape:document-units="px"
     inkscape:showpageshadow="false"
     inkscape:window-width="1366"
     inkscape:window-height="704"
     inkscape:window-x="0"
     inkscape:window-y="27"
     width="400px"
     height="300px"
     inkscape:snap-nodes="true"
     inkscape:snap-bbox="true"
     gridtolerance="10000"
     inkscape:object-nodes="true"
     inkscape:snap-grids="true"
     showguides="false"
     inkscape:guide-bbox="true"
     inkscape:window-maximized="1"
     inkscape:object-paths="true"
     inkscape:snap-intersection-paths="true"
     inkscape:snap-smooth-nodes="true"
     inkscape:snap-bbox-midpoints="true"
     inkscape:snap-bbox-edge-midpoints="true">
    <inkscape:grid
       spacingy="1px"
       spacingx="1px"
       id="grid5883"
       type="xygrid"
       enabled="true"
       visible="true"
       empspacing="4"
       snapvisiblegridlinesonly="true" />
    <inkscape:grid
       type="xygrid"
       id="grid11592"
       empspacing="2"
       visible="true"
       enabled="false"
       spacingx="0.5px"
       spacingy="0.5px"
       color="#ff0000"
       opacity="0.1254902"
       empcolor="#ff0000"
       empopacity="0.25098039"
       snapvisiblegridlinesonly="true" />
  </sodipodi:namedview>
  <defs
     id="defs3">
    <linearGradient
       id="linearGradient4015">
      <stop
         style="stop-color:#000000;stop-opacity:1;"
         offset="0"
         id="stop4017" />
      <stop
         style="stop-color:#000000;stop-opacity:0;"
         offset="1"
         id="stop4019" />
    </linearGradient>
    <linearGradient
       inkscape:collect="always"
       id="linearGradient4001">
      <stop
         style="stop-color:#ffffff;stop-opacity:1;"
         offset="0"
         id="stop4003" />
      <stop
         style="stop-color:#ffffff;stop-opacity:0;"
         offset="1"
         id="stop4005" />
    </linearGradient>
    <linearGradient
       inkscape:collect="always"
       xlink:href="#linearGradient4001"
       id="linearGradient4050"
       gradientUnits="userSpaceOnUse"
       gradientTransform="matrix(1,0,0,-1,0,368)"
       x1="160"
       y1="184"
       x2="160"
       y2="164" />
    <filter
       inkscape:collect="always"
       style="color-interpolation-filters:sRGB"
       id="filter4227"
       x="-0.024"
       width="1.048"
       y="-0.024"
       height="1.048">
      <feGaussianBlur
         inkscape:collect="always"
         stdDeviation="4.48"
         id="feGaussianBlur4229" />
    </filter>
  </defs>
  <metadata
     id="metadata4">
    <rdf:RDF>
      <cc:Work
         rdf:about="">
        <dc:format>image/svg+xml</dc:format>
        <dc:type
           rdf:resource="http://purl.org/dc/dcmitype/StillImage" />
        <dc:creator>
          <cc:Agent>
            <dc:title>Sam Hewitt</dc:title>
          </cc:Agent>
        </dc:creator>
        <dc:source />
        <cc:license
           rdf:resource="http://creativecommons.org/licenses/by-sa/3.0/" />
        <dc:title>Paper Icon Theme</dc:title>
        <dc:subject>
          <rdf:Bag />
        </dc:subject>
        <dc:date />
        <dc:rights>
          <cc:Agent>
            <dc:title />
          </cc:Agent>
        </dc:rights>
        <dc:publisher>
          <cc:Agent>
            <dc:title />
          </cc:Agent>
        </dc:publisher>
        <dc:identifier />
        <dc:relation />
        <dc:language />
        <dc:coverage />
        <dc:description />
        <dc:contributor>
          <cc:Agent>
            <dc:title />
          </cc:Agent>
        </dc:contributor>
      </cc:Work>
      <cc:Work
         rdf:about="">
        <dc:format>image/svg+xml</dc:format>
        <dc:type
           rdf:resource="http://purl.org/dc/dcmitype/StillImage" />
      </cc:Work>
    </rdf:RDF>
  </metadata>
  <g
     style="display:inline"
     inkscape:groupmode="layer"
     inkscape:label="emblem-unreadable"
     id="layer1"
     transform="translate(0,244)">
    <g
       style="display:none"
       inkscape:label="Baseplate"
       id="layer7"
       inkscape:groupmode="layer">
      <text
         y="332.48523"
         xml:space="preserve"
         x="33.006836"
         style="font-style:normal;font-variant:normal;font-weight:normal;font-stretch:normal;font-size:18px;font-family:'DejaVu Sans';-inkscape-font-specification:'DejaVu Sans';display:inline;fill:#000000;fill-opacity:1;stroke:none;enable-background:new"
         inkscape:label="context"
         id="context"><tspan
           style="font-style:normal;font-variant:normal;font-weight:normal;font-stretch:normal;font-family:'DejaVu Sans';-inkscape-font-specification:'DejaVu Sans'"
           y="332.48523"
           x="33.006836"
           sodipodi:role="line"
           id="tspan3933">emblems</tspan></text>
      <text
         y="332.48523"
         xml:space="preserve"
         x="160.48828"
         style="font-style:normal;font-variant:normal;font-weight:bold;font-stretch:normal;font-size:18px;line-height:125%;font-family:'DejaVu Sans';-inkscape-font-specification:'DejaVu Sans Bold';text-align:start;writing-mode:lr-tb;text-anchor:start;display:inline;fill:#000000;fill-opacity:1;stroke:none;enable-background:new"
         sodipodi:linespacing="125%"
         inkscape:label="icon-name"
         id="icon-name"><tspan
           style="font-style:normal;font-variant:normal;font-weight:bold;font-stretch:normal;font-size:18px;font-family:'DejaVu Sans';-inkscape-font-specification:'DejaVu Sans Bold'"
           y="332.48523"
           x="160.48828"
           sodipodi:role="line"
           id="tspan3937">emblem-unreadable</tspan></text>
      <rect
         style="display:inline;overflow:visible;visibility:visible;fill:#e9e9e9;fill-opacity:1;fill-rule:nonzero;stroke:none;stroke-width:2;marker:none;enable-background:accumulate"
         id="rect16x16"
         width="16"
         height="16"
         x="-50"
         y="268"
         inkscape:label="16x16"
         transform="scale(-1,1)" />
      <rect
         style="display:inline;overflow:visible;visibility:visible;fill:#e9e9e9;fill-opacity:1;fill-rule:nonzero;stroke:none;stroke-width:2;marker:none;enable-background:accumulate"
         id="rect24x24"
         width="24"
         height="24"
         x="-94"
         y="260"
         inkscape:label="24x24"
         transform="scale(-1,1)" />
      <rect
         style="display:inline;overflow:visible;visibility:visible;fill:#e9e9e9;fill-opacity:1;fill-rule:nonzero;stroke:none;stroke-width:2;marker:none;enable-background:accumulate"
         id="rect32x32"
         width="32"
         height="32"
         x="-146"
         y="252"
         inkscape:label="32x32"
         transform="scale(-1,1)" />
      <rect
         inkscape:label="48x48"
         y="236"
         x="-210"
         height="48"
         width="48"
         id="rect48x48"
         style="display:inline;overflow:visible;visibility:visible;fill:#e9e9e9;fill-opacity:1;fill-rule:nonzero;stroke:none;stroke-width:2;marker:none;enable-background:accumulate"
         transform="scale(-1,1)" />
      <rect
         style="display:inline;overflow:visible;visibility:visible;fill:#e9e9e9;fill-opacity:1;fill-rule:nonzero;stroke:none;stroke-width:2;marker:none;enable-background:accumulate"
         id="rect3951"
         width="512"
         height="512"
         x="-738"
         y="-228"
         inkscape:label="48x48"
         transform="scale(-1,1)" />
      <rect
         transform="scale(-1,1)"
         inkscape:label="16x16"
         y="276"
         x="-18"
         height="8"
         width="8"
         id="rect4208"
         style="display:inline;overflow:visible;visibility:visible;fill:#e9e9e9;fill-opacity:1;fill-rule:nonzero;stroke:none;stroke-width:2;marker:none;enable-background:accumulate" />
    </g>
    <g
       inkscape:groupmode="layer"
       id="layer6"
       inkscape:label="Symbols"
       style="display:inline">
      <g
         id="g4239"
         transform="translate(18,0)">
        <path
           style="opacity:0.2;fill:#000000;fill-opacity:1;stroke:none"
           d="m 98,280.5 0,1 c 0,0.831 0.669,1.5 1.5,1.5 l 25,0 c 0.831,0 1.5,-0.669 1.5,-1.5 l 0,-1 c 0,0.831 -0.669,1.5 -1.5,1.5 l -25,0 c -0.831,0 -1.5,-0.669 -1.5,-1.5 z"
           id="path4201"
           inkscape:connector-curvature="0" />
        <path
           style="opacity:0.2;fill:#000000;fill-opacity:1;stroke:none"
           d="m 54,281 0,1 c 0,0.554 0.446,1 1,1 l 18,0 c 0.554,0 1,-0.446 1,-1 l 0,-1 c 0,0.554 -0.446,1 -1,1 l -18,0 c -0.554,0 -1,-0.446 -1,-1 z"
           id="path4204"
           inkscape:connector-curvature="0" />
        <rect
           transform="matrix(0,-1,-1,0,0,0)"
           style="opacity:0.1;fill:#000000;fill-opacity:1;stroke:#000000;stroke-width:8;stroke-miterlimit:4;stroke-dasharray:none;stroke-opacity:1;filter:url(#filter4227)"
           id="rect4233"
           width="448"
           height="448"
           x="-256"
           y="-688"
           rx="24"
           ry="24" />
        <rect
           transform="matrix(0,-1,-1,0,0,0)"
           style="opacity:0.2;fill:#000000;fill-opacity:1;stroke:none"
           id="rect4220"
           width="40"
           height="40"
           x="-281"
           y="-188"
           rx="2"
           ry="2" />
        <rect
           ry="2"
           rx="2"
           y="-188"
           x="-280"
           height="40"
           width="40"
           id="rect4203"
           style="fill:#b1b1b1;fill-opacity:1;stroke:none"
           transform="matrix(0,-1,-1,0,0,0)" />
        <rect
           transform="matrix(0,-1,-1,0,0,0)"
           style="fill:#b1b1b1;fill-opacity:1;stroke:none"
           id="rect4243"
           width="20"
           height="20"
           x="-282"
           y="-74"
           rx="1"
           ry="1" />
        <rect
           ry="1.5"
           rx="1.5"
           y="-126"
           x="-282"
           height="28"
           width="28"
           id="rect4255"
           style="fill:#b1b1b1;fill-opacity:1;stroke:none"
           transform="matrix(0,-1,-1,0,0,0)" />
        <rect
           ry="1"
           rx="1"
           y="-32"
           x="-284"
           height="16"
           width="16"
           id="rect4265"
           style="display:inline;fill:#b1b1b1;fill-opacity:1;stroke:none;enable-background:new"
           transform="matrix(0,-1,-1,0,0,0)" />
        <path
           inkscape:connector-curvature="0"
           style="opacity:0.1;fill:#ffffff;fill-opacity:1;stroke:none"
           d="m 148,243 0,-1 c 0,-1.108 0.892,-2 2,-2 l 36,0 c 1.108,0 2,0.892 2,2 l 0,1 c 0,-1.108 -0.892,-2 -2,-2 l -36,0 c -1.108,0 -2,0.892 -2,2 z"
           id="path4068" />
        <path
           inkscape:connector-curvature="0"
           id="path4203"
           d="m 99.5,254 c -0.831,0 -1.5,0.669 -1.5,1.5 l 0,1 c 0,-0.831 0.669,-1.5 1.5,-1.5 l 25,0 c 0.831,0 1.5,0.669 1.5,1.5 l 0,-1 c 0,-0.831 -0.669,-1.5 -1.5,-1.5 l -25,0 z"
           style="opacity:0.2;fill:#ffffff;fill-opacity:1;stroke:none" />
        <rect
           ry="24"
           rx="24"
           y="-688"
           x="-256"
           height="448"
           width="448"
           id="rect4224"
           style="opacity:0.2;fill:#000000;fill-opacity:1;stroke:none;filter:url(#filter4227)"
           transform="matrix(0,-1,-1,0,0,0)" />
        <rect
           transform="matrix(0,-1,-1,0,0,0)"
           style="fill:#b1b1b1;fill-opacity:1;stroke:none"
           id="rect4229"
           width="448"
           height="448"
           x="-252"
           y="-688"
           rx="24"
           ry="24" />
        <path
           inkscape:connector-curvature="0"
           id="rect4232"
           transform="translate(0,76)"
           d="m 264,-272 c -13.296,0 -24,10.704 -24,24 l 0,2 c 0,-13.296 10.704,-24 24,-24 l 400,0 c 13.296,0 24,10.704 24,24 l 0,-2 c 0,-13.296 -10.704,-24 -24,-24 l -400,0 z"
           style="opacity:0.1;fill:#ffffff;fill-opacity:1;stroke:none" />
        <path
           inkscape:connector-curvature="0"
           id="path4266"
           d="m 55,262 c -0.554,0 -1,0.446 -1,1 l 0,1 c 0,-0.554 0.446,-1 1,-1 l 18,0 c 0.554,0 1,0.446 1,1 l 0,-1 c 0,-0.554 -0.446,-1 -1,-1 l -18,0 z"
           style="opacity:0.2;fill:#ffffff;fill-opacity:1;stroke:none" />
        <path
           inkscape:connector-curvature="0"
           id="path4283"
           transform="translate(0,76)"
           d="m 17,192 c -0.554,0 -1,0.446 -1,1 l 0,1 c 0,-0.554 0.446,-1 1,-1 l 14,0 c 0.554,0 1,0.446 1,1 l 0,-1 c 0,-0.554 -0.446,-1 -1,-1 l -14,0 z"
           style="display:inline;opacity:0.2;fill:#ffffff;fill-opacity:1;stroke:none;enable-background:new" />
        <path
           inkscape:connector-curvature="0"
           id="rect4231"
           d="m 98,279.5 0,1 c 0,0.831 0.669,1.5 1.5,1.5 l 25,0 c 0.831,0 1.5,-0.669 1.5,-1.5 l 0,-1 c 0,0.831 -0.669,1.5 -1.5,1.5 l -25,0 c -0.831,0 -1.5,-0.669 -1.5,-1.5 z"
           style="opacity:0.2;fill:#000000;fill-opacity:1;stroke:none" />
        <path
           inkscape:connector-curvature="0"
           id="rect4241"
           d="m 54,280 0,1 c 0,0.554 0.446,1 1,1 l 18,0 c 0.554,0 1,-0.446 1,-1 l 0,-1 c 0,0.554 -0.446,1 -1,1 l -18,0 c -0.554,0 -1,-0.446 -1,-1 z"
           style="opacity:0.2;fill:#000000;fill-opacity:1;stroke:none" />
        <path
           style="opacity:0.2;fill:#000000;fill-opacity:1;stroke:none"
           d="m 264,252 c -13.296,0 -24,-10.704 -24,-24 l 0,-2 c 0,13.296 10.704,24 24,24 l 400,0 c 13.296,0 24,-10.704 24,-24 l 0,2 c 0,13.296 -10.704,24 -24,24 l -400,0 z"
           id="path4199"
           inkscape:connector-curvature="0" />
        <path
           id="path4206"
           d="m 148,277 0,1 c 0,1.108 0.892,2 2,2 l 36,0 c 1.108,0 2,-0.892 2,-2 l 0,-1 c 0,1.108 -0.892,2 -2,2 l -36,0 c -1.108,0 -2,-0.892 -2,-2 z"
           style="opacity:0.2;fill:#000000;fill-opacity:1;stroke:none"
           inkscape:connector-curvature="0" />
        <rect
           transform="matrix(0,-1,-1,0,0,0)"
           style="display:inline;fill:#b1b1b1;fill-opacity:1;stroke:none;enable-background:new"
           id="rect4210"
           width="8"
           height="8"
           x="-284"
           y="0"
           rx="1"
           ry="1" />
      </g>
      <g
         transform="matrix(10,0,0,10,-1198,-2568)"
         id="g4316"
         style="display:inline;opacity:0.2;stroke:#ffffff;stroke-opacity:1;enable-background:new">
        <path
           inkscape:connector-curvature="0"
           id="path4318"
           d="m 156.8,248.8 22.4,22.4"
           style="fill:none;fill-rule:evenodd;stroke:#ffffff;stroke-width:5;stroke-linecap:butt;stroke-linejoin:miter;stroke-miterlimit:4;stroke-dasharray:none;stroke-opacity:1"
           sodipodi:nodetypes="cc" />
        <path
           style="fill:none;fill-rule:evenodd;stroke:#ffffff;stroke-width:5;stroke-linecap:butt;stroke-linejoin:miter;stroke-miterlimit:4;stroke-dasharray:none;stroke-opacity:1"
           d="m 156.8,271.2 22.4,-22.4"
           id="path4320"
           inkscape:connector-curvature="0"
           sodipodi:nodetypes="cc" />
      </g>
      <g
         style="display:inline;opacity:1;stroke:#5e5e5e;stroke-opacity:1;enable-background:new"
         id="g4310"
         transform="matrix(10,0,0,10,-1198,-2572)">
        <path
           sodipodi:nodetypes="cc"
           style="fill:none;fill-rule:evenodd;stroke:#5e5e5e;stroke-width:5;stroke-linecap:butt;stroke-linejoin:miter;stroke-miterlimit:4;stroke-dasharray:none;stroke-opacity:1"
           d="m 156.8,248.8 22.4,22.4"
           id="path4312"
           inkscape:connector-curvature="0" />
        <path
           sodipodi:nodetypes="cc"
           inkscape:connector-curvature="0"
           id="path4314"
           d="m 156.8,271.2 22.4,-22.4"
           style="fill:none;fill-rule:evenodd;stroke:#5e5e5e;stroke-width:5;stroke-linecap:butt;stroke-linejoin:miter;stroke-miterlimit:4;stroke-dasharray:none;stroke-opacity:1" />
      </g>
      <g
         id="g4265"
         style="display:inline;opacity:1;stroke:#5e5e5e;stroke-opacity:1;enable-background:new"
         transform="translate(18,0)">
        <path
           inkscape:connector-curvature="0"
           id="path4261"
           d="m 158,250 20,20"
           style="fill:none;fill-rule:evenodd;stroke:#5e5e5e;stroke-width:5;stroke-linecap:butt;stroke-linejoin:miter;stroke-miterlimit:4;stroke-dasharray:none;stroke-opacity:1"
           sodipodi:nodetypes="cc" />
        <path
           style="fill:none;fill-rule:evenodd;stroke:#5e5e5e;stroke-width:5;stroke-linecap:butt;stroke-linejoin:miter;stroke-miterlimit:4;stroke-dasharray:none;stroke-opacity:1"
           d="m 158,270 20,-20"
           id="path4263"
           inkscape:connector-curvature="0"
           sodipodi:nodetypes="cc" />
      </g>
      <g
         style="display:inline;opacity:1;stroke:#5e5e5e;stroke-opacity:1;enable-background:new"
         id="g4269"
         transform="translate(-38,8)">
        <path
           sodipodi:nodetypes="cc"
           style="fill:none;fill-rule:evenodd;stroke:#5e5e5e;stroke-width:3.5;stroke-linecap:butt;stroke-linejoin:miter;stroke-miterlimit:4;stroke-dasharray:none;stroke-opacity:1"
           d="m 161,253 14,14"
           id="path4271"
           inkscape:connector-curvature="0" />
        <path
           sodipodi:nodetypes="cc"
           inkscape:connector-curvature="0"
           id="path4273"
           d="m 161,267 14,-14"
           style="fill:none;fill-rule:evenodd;stroke:#5e5e5e;stroke-width:3.5;stroke-linecap:butt;stroke-linejoin:miter;stroke-miterlimit:4;stroke-dasharray:none;stroke-opacity:1" />
      </g>
      <g
         transform="translate(-86,12)"
         id="g4277"
         style="display:inline;opacity:1;stroke:#5e5e5e;stroke-opacity:1;enable-background:new">
        <path
           inkscape:connector-curvature="0"
           id="path4279"
           d="m 163,255 10,10"
           style="fill:none;fill-rule:evenodd;stroke:#5e5e5e;stroke-width:2.5;stroke-linecap:butt;stroke-linejoin:miter;stroke-miterlimit:4;stroke-dasharray:none;stroke-opacity:1"
           sodipodi:nodetypes="cc" />
        <path
           style="fill:none;fill-rule:evenodd;stroke:#5e5e5e;stroke-width:2.5;stroke-linecap:butt;stroke-linejoin:miter;stroke-miterlimit:4;stroke-dasharray:none;stroke-opacity:1"
           d="m 163,265 10,-10"
           id="path4281"
           inkscape:connector-curvature="0"
           sodipodi:nodetypes="cc" />
      </g>
      <g
         style="display:inline;opacity:1;stroke:#5e5e5e;stroke-opacity:1;enable-background:new"
         id="g4283"
         transform="translate(-126,16)">
        <path
           sodipodi:nodetypes="cc"
           style="fill:none;fill-rule:evenodd;stroke:#5e5e5e;stroke-width:2;stroke-linecap:square;stroke-linejoin:miter;stroke-miterlimit:4;stroke-dasharray:none;stroke-opacity:1"
           d="m 164,256 8,8"
           id="path4285"
           inkscape:connector-curvature="0" />
        <path
           sodipodi:nodetypes="cc"
           inkscape:connector-curvature="0"
           id="path4287"
           d="m 164,264 8,-8"
           style="fill:none;fill-rule:evenodd;stroke:#5e5e5e;stroke-width:2;stroke-linecap:square;stroke-linejoin:miter;stroke-miterlimit:4;stroke-dasharray:none;stroke-opacity:1" />
      </g>
      <g
         transform="translate(-154,20)"
         id="g4289"
         style="display:inline;opacity:1;stroke:#5e5e5e;stroke-opacity:1;enable-background:new">
        <path
           inkscape:connector-curvature="0"
           id="path4291"
           d="m 166,258 4,4"
           style="fill:none;fill-rule:evenodd;stroke:#5e5e5e;stroke-width:2;stroke-linecap:round;stroke-linejoin:miter;stroke-miterlimit:4;stroke-dasharray:none;stroke-opacity:1"
           sodipodi:nodetypes="cc" />
        <path
           style="fill:none;fill-rule:evenodd;stroke:#5e5e5e;stroke-width:2;stroke-linecap:round;stroke-linejoin:miter;stroke-miterlimit:4;stroke-dasharray:none;stroke-opacity:1"
           d="m 166,262 4,-4"
           id="path4293"
           inkscape:connector-curvature="0"
           sodipodi:nodetypes="cc" />
      </g>
    </g>
  </g>
  <g
     transform="translate(0,244)"
     id="g4322"
     inkscape:label="emblem-readonly"
     inkscape:groupmode="layer"
     style="display:inline">
    <g
       inkscape:groupmode="layer"
       id="g4324"
       inkscape:label="Baseplate"
       style="display:none">
      <text
         id="text4326"
         inkscape:label="context"
         style="font-style:normal;font-variant:normal;font-weight:normal;font-stretch:normal;font-size:18px;font-family:'DejaVu Sans';-inkscape-font-specification:'DejaVu Sans';display:inline;fill:#000000;fill-opacity:1;stroke:none;enable-background:new"
         x="33.006836"
         xml:space="preserve"
         y="-307.51477"><tspan
           id="tspan4328"
           sodipodi:role="line"
           x="33.006836"
           y="-307.51477"
           style="font-style:normal;font-variant:normal;font-weight:normal;font-stretch:normal;font-family:'DejaVu Sans';-inkscape-font-specification:'DejaVu Sans'">emblems</tspan></text>
      <text
         id="text4330"
         inkscape:label="icon-name"
         sodipodi:linespacing="125%"
         style="font-style:normal;font-variant:normal;font-weight:bold;font-stretch:normal;font-size:18px;line-height:125%;font-family:'DejaVu Sans';-inkscape-font-specification:'DejaVu Sans Bold';text-align:start;writing-mode:lr-tb;text-anchor:start;display:inline;fill:#000000;fill-opacity:1;stroke:none;enable-background:new"
         x="160.48828"
         xml:space="preserve"
         y="-307.51477"><tspan
           id="tspan4332"
           sodipodi:role="line"
           x="160.48828"
           y="-307.51477"
           style="font-style:normal;font-variant:normal;font-weight:bold;font-stretch:normal;font-size:18px;font-family:'DejaVu Sans';-inkscape-font-specification:'DejaVu Sans Bold'">emblem-readonly</tspan></text>
      <rect
         transform="scale(-1,1)"
         inkscape:label="16x16"
         y="-372"
         x="-50"
         height="16"
         width="16"
         id="rect4334"
         style="display:inline;overflow:visible;visibility:visible;fill:#e9e9e9;fill-opacity:1;fill-rule:nonzero;stroke:none;stroke-width:2;marker:none;enable-background:accumulate" />
      <rect
         transform="scale(-1,1)"
         inkscape:label="24x24"
         y="-380"
         x="-94"
         height="24"
         width="24"
         id="rect4336"
         style="display:inline;overflow:visible;visibility:visible;fill:#e9e9e9;fill-opacity:1;fill-rule:nonzero;stroke:none;stroke-width:2;marker:none;enable-background:accumulate" />
      <rect
         transform="scale(-1,1)"
         inkscape:label="32x32"
         y="-388"
         x="-146"
         height="32"
         width="32"
         id="rect4338"
         style="display:inline;overflow:visible;visibility:visible;fill:#e9e9e9;fill-opacity:1;fill-rule:nonzero;stroke:none;stroke-width:2;marker:none;enable-background:accumulate" />
      <rect
         transform="scale(-1,1)"
         style="display:inline;overflow:visible;visibility:visible;fill:#e9e9e9;fill-opacity:1;fill-rule:nonzero;stroke:none;stroke-width:2;marker:none;enable-background:accumulate"
         id="rect4340"
         width="48"
         height="48"
         x="-210"
         y="-404"
         inkscape:label="48x48" />
      <rect
         transform="scale(-1,1)"
         inkscape:label="48x48"
         y="-868"
         x="-738"
         height="512"
         width="512"
         id="rect4342"
         style="display:inline;overflow:visible;visibility:visible;fill:#e9e9e9;fill-opacity:1;fill-rule:nonzero;stroke:none;stroke-width:2;marker:none;enable-background:accumulate" />
      <rect
         style="display:inline;overflow:visible;visibility:visible;fill:#e9e9e9;fill-opacity:1;fill-rule:nonzero;stroke:none;stroke-width:2;marker:none;enable-background:accumulate"
         id="rect4344"
         width="8"
         height="8"
         x="-18"
         y="-364"
         inkscape:label="16x16"
         transform="scale(-1,1)" />
    </g>
    <g
       style="display:inline"
       inkscape:label="Symbols"
       id="g4346"
       inkscape:groupmode="layer">
      <use
         style="display:inline;enable-background:new"
         x="0"
         y="0"
         xlink:href="#g4239"
         id="use4432"
         transform="translate(0,-640)"
         width="100%"
         height="100%" />
      <path
         sodipodi:nodetypes="sscsssssssscssssccss"
         id="path4467"
         d="m 82,-374 c -2.216,0 -4,1.82162 -4,4.0625 l 0,1.9375 -1,0 c -0.554,0 -1,0.446 -1,1 l 0,6 c 0,0.554 0.446,1 1,1 l 10,0 c 0.554,0 1,-0.446 1,-1 l 0,-6 c 0,-0.554 -0.446,-1 -1,-1 l -1,0 0,-1.9375 C 86,-372.1775 84.216,-374 82,-374 Z m 0,2 c 1.108,0 2,0.892 2,2 l 0,2 -4,0 0,-2 c 0,-1.108 0.892,-2 2,-2 z"
         style="display:inline;enable-background:accumulate;color:#000000;overflow:visible;visibility:visible;fill:#ffffff;fill-opacity:1;fill-rule:nonzero;stroke:none;stroke-width:1;marker:none;opacity:0.2"
         inkscape:connector-curvature="0" />
      <path
         sodipodi:nodetypes="ssccccccccccccssssccss"
         style="display:inline;enable-background:new;fill:#ffffff;fill-opacity:1;stroke:none;opacity:0.2"
         d="m 130,-382 c -3.324,0 -6,2.73255 -6,6.09375 l 0,2.90625 -3,0 0,3 0,6 0,3 3,0 12,0 3,0 0,-3 0,-6 0,-3 -3,0 0,-2.90625 C 136,-379.26595 133.324,-382 130,-382 Z m 0,3 c 1.662,0 3,1.3272 3,3 l 0,3 -6,0 0,-3 c 0,-1.6728 1.338,-3 3,-3 z"
         id="path4469"
         inkscape:connector-curvature="0" />
      <path
         inkscape:connector-curvature="0"
         id="path4471"
         d="m 488,-760 c -44.32,0 -80,36.434 -80,81.25 l 0,38.75 -40,0 0,40 0,80 0,56 40,0 160,0 40,0 0,-56 0,-80 0,-40 -40,0 0,-38.75 C 568,-723.546 532.32,-760 488,-760 Z m 0,40 c 22.16,0 40,17.696 40,40 l 0,40 -80,0 0,-40 c 0,-22.304 17.84,-40 40,-40 z"
         style="display:inline;opacity:0.2;fill:#ffffff;fill-opacity:1;stroke:none;enable-background:new"
         sodipodi:nodetypes="ssccccccccccccssssccss" />
      <path
         inkscape:connector-curvature="0"
         style="color:#000000;display:inline;overflow:visible;visibility:visible;opacity:0.2;fill:#ffffff;fill-opacity:1;fill-rule:nonzero;stroke:none;stroke-width:1;marker:none;enable-background:accumulate"
         d="m 186,-394 c -4.432,0 -8,3.64324 -8,8.125 l 0,3.875 -2,0 -2,0 0,17 2,0 22,0 0,-2 0,-13 0,-2 -4,0 0,-3.875 c 0,-4.48 -3.568,-8.125 -8,-8.125 z m 0,4 c 2.216,0 4,1.784 4,4 l 0,4 -8,0 0,-4 c 0,-2.216 1.784,-4 4,-4 z"
         id="path4473"
         sodipodi:nodetypes="ssccccccccccssssccss" />
      <path
         inkscape:connector-curvature="0"
         id="path6628"
         d="m 14,-363 c -1.108,0 -2,1 -2,2.03125 l 0,0.96875 -1,0 0,1 0,1 0,1 1,0 4,0 1,0 0,-1 0,-1 0,-1 -1,0 0,-0.96875 C 16,-362.08865 15.108,-363 14,-363 Z m 0,1 c 0.554,0 1,0.4424 1,1 l 0,1 -2,0 0,-1 c 0,-0.5576 0.446,-1 1,-1 z"
         style="display:inline;enable-background:new;fill:#5e5e5e;fill-opacity:1;stroke:none"
         sodipodi:nodetypes="ssccccccccccccssssccss" />
      <path
         inkscape:connector-curvature="0"
         style="display:inline;enable-background:accumulate;color:#000000;overflow:visible;visibility:visible;fill:#5e5e5e;fill-opacity:1;fill-rule:nonzero;stroke:none;stroke-width:1;marker:none"
         d="m 82,-375 c -2.216,0 -4,1.82162 -4,4.0625 l 0,1.9375 -1,0 c -0.554,0 -1,0.446 -1,1 l 0,6 c 0,0.554 0.446,1 1,1 l 10,0 c 0.554,0 1,-0.446 1,-1 l 0,-6 c 0,-0.554 -0.446,-1 -1,-1 l -1,0 0,-1.9375 C 86,-373.1775 84.216,-375 82,-375 Z m 0,2 c 1.108,0 2,0.892 2,2 l 0,2 -4,0 0,-2 c 0,-1.108 0.892,-2 2,-2 z"
         id="path5985"
         sodipodi:nodetypes="sscsssssssscssssccss" />
      <path
         inkscape:connector-curvature="0"
         id="path6628-0"
         d="m 130,-383 c -3.324,0 -6,2.73255 -6,6.09375 l 0,2.90625 -3,0 0,3 0,6 0,3 3,0 12,0 3,0 0,-3 0,-6 0,-3 -3,0 0,-2.90625 C 136,-380.26595 133.324,-383 130,-383 Z m 0,3 c 1.662,0 3,1.3272 3,3 l 0,3 -6,0 0,-3 c 0,-1.6728 1.338,-3 3,-3 z"
         style="display:inline;enable-background:new;fill:#555555;fill-opacity:1;stroke:none"
         sodipodi:nodetypes="ssccccccccccccssssccss" />
      <path
         sodipodi:nodetypes="ssccccccccccccssssccss"
         style="display:inline;enable-background:new;fill:#555555;fill-opacity:1;stroke:none"
         d="m 488,-764 c -44.32,0 -80,36.434 -80,81.25 l 0,38.75 -40,0 0,40 0,80 0,56 40,0 160,0 40,0 0,-56 0,-80 0,-40 -40,0 0,-38.75 C 568,-727.546 532.32,-764 488,-764 Z m 0,40 c 22.16,0 40,17.696 40,40 l 0,40 -80,0 0,-40 c 0,-22.304 17.84,-40 40,-40 z"
         id="path4463"
         inkscape:connector-curvature="0" />
      <path
         sodipodi:nodetypes="ssccccccccccssssccss"
         id="path4465"
         d="m 186,-395 c -4.432,0 -8,3.64324 -8,8.125 l 0,3.875 -2,0 -2,0 0,17 2,0 22,0 0,-2 0,-13 0,-2 -4,0 0,-3.875 c 0,-4.48 -3.568,-8.125 -8,-8.125 z m 0,4 c 2.216,0 4,1.784 4,4 l 0,4 -8,0 0,-4 c 0,-2.216 1.784,-4 4,-4 z"
         style="color:#000000;display:inline;overflow:visible;visibility:visible;fill:#5e5e5e;fill-opacity:1;fill-rule:nonzero;stroke:none;stroke-width:1;marker:none;enable-background:accumulate"
         inkscape:connector-curvature="0" />
      <path
         id="path4494"
         d="m 42,-369 c -1.662,0 -3,1.338 -3,3 l 0,0.54688 0,1.45312 -2,0 0,2.5 0,2 0,1.5 2,0 6,0 2,0 0,-1.5 0,-2 0,-2.5 -2,0 0,-1.45312 L 45,-366 c 0,-1.662 -1.338,-3 -3,-3 z m 0,2 c 0.554,0 1,0.446 1,1 l 0,2 -2,0 0,-2 c 0,-0.554 0.446,-1 1,-1 z"
         style="display:inline;opacity:0.2;fill:#ffffff;fill-opacity:1;stroke:none;enable-background:new"
         inkscape:connector-curvature="0"
         sodipodi:nodetypes="ssccccccccccccccssssccss" />
      <path
         style="display:inline;fill:#555555;fill-opacity:1;stroke:none;enable-background:new"
         d="m 42,-126 c -1.662,0 -3,1.338 -3,3 l 0,0.54688 0,1.45312 -2,0 0,2.5 0,2 0,1.5 2,0 6,0 2,0 0,-1.5 0,-2 0,-2.5 -2,0 0,-1.45312 L 45,-123 c 0,-1.662 -1.338,-3 -3,-3 z m 0,2 c 0.554,0 1,0.446 1,1 l 0,2 -2,0 0,-2 c 0,-0.554 0.446,-1 1,-1 z"
         transform="translate(0,-244)"
         id="path4484"
         inkscape:connector-curvature="0"
         sodipodi:nodetypes="ssccccccccccccccssssccss" />
    </g>
  </g>
</svg>
