<?xml version="1.0" encoding="UTF-8" standalone="no"?>
<!-- Created with Inkscape (http://www.inkscape.org/) -->

<svg
   xmlns:dc="http://purl.org/dc/elements/1.1/"
   xmlns:cc="http://creativecommons.org/ns#"
   xmlns:rdf="http://www.w3.org/1999/02/22-rdf-syntax-ns#"
   xmlns:svg="http://www.w3.org/2000/svg"
   xmlns="http://www.w3.org/2000/svg"
   xmlns:xlink="http://www.w3.org/1999/xlink"
   xmlns:sodipodi="http://sodipodi.sourceforge.net/DTD/sodipodi-0.dtd"
   xmlns:inkscape="http://www.inkscape.org/namespaces/inkscape"
   inkscape:export-ydpi="90.000000"
   inkscape:export-xdpi="90.000000"
   width="736"
   height="544"
   id="svg11300"
   sodipodi:version="0.32"
   inkscape:version="0.91 r13725"
   sodipodi:docname="system-software-update.svg"
   inkscape:output_extension="org.inkscape.output.svg.inkscape"
   version="1.0"
   style="display:inline;enable-background:new"
   inkscape:export-filename="/home/sam/paper-template.png">
  <title
     id="title3004">Paper Icon Theme</title>
  <sodipodi:namedview
     stroke="#ef2929"
     fill="#f57900"
     id="base"
     pagecolor="#474747"
     bordercolor="#666666"
     borderopacity="0.25490196"
     inkscape:pageopacity="0"
     inkscape:pageshadow="2"
     inkscape:zoom="1"
     inkscape:cx="547.56359"
     inkscape:cy="274.72031"
     inkscape:current-layer="layer6"
     showgrid="false"
     inkscape:grid-bbox="true"
     inkscape:document-units="px"
     inkscape:showpageshadow="false"
     inkscape:window-width="1366"
     inkscape:window-height="704"
     inkscape:window-x="0"
     inkscape:window-y="27"
     width="400px"
     height="300px"
     inkscape:snap-nodes="true"
     inkscape:snap-bbox="true"
     gridtolerance="10000"
     inkscape:object-nodes="true"
     inkscape:snap-grids="true"
     showguides="true"
     inkscape:guide-bbox="true"
     inkscape:window-maximized="1"
     inkscape:object-paths="true"
     inkscape:snap-intersection-paths="true"
     inkscape:snap-smooth-nodes="true">
    <inkscape:grid
       spacingy="1px"
       spacingx="1px"
       id="grid5883"
       type="xygrid"
       enabled="true"
       visible="true"
       empspacing="4"
       snapvisiblegridlinesonly="true" />
    <inkscape:grid
       type="xygrid"
       id="grid11592"
       empspacing="2"
       visible="true"
       enabled="false"
       spacingx="0.5px"
       spacingy="0.5px"
       color="#ff0000"
       opacity="0.1254902"
       empcolor="#ff0000"
       empopacity="0.25098039"
       snapvisiblegridlinesonly="true" />
  </sodipodi:namedview>
  <defs
     id="defs3">
    <linearGradient
       id="linearGradient4015">
      <stop
         style="stop-color:#000000;stop-opacity:1;"
         offset="0"
         id="stop4017" />
      <stop
         style="stop-color:#000000;stop-opacity:0;"
         offset="1"
         id="stop4019" />
    </linearGradient>
    <linearGradient
       inkscape:collect="always"
       id="linearGradient4001">
      <stop
         style="stop-color:#ffffff;stop-opacity:1;"
         offset="0"
         id="stop4003" />
      <stop
         style="stop-color:#ffffff;stop-opacity:0;"
         offset="1"
         id="stop4005" />
    </linearGradient>
    <linearGradient
       inkscape:collect="always"
       xlink:href="#linearGradient4001"
       id="linearGradient4050"
       gradientUnits="userSpaceOnUse"
       gradientTransform="matrix(1,0,0,-1,0,368)"
       x1="160"
       y1="184"
       x2="160"
       y2="164" />
    <filter
       inkscape:collect="always"
       style="color-interpolation-filters:sRGB"
       id="filter4227"
       x="-0.024"
       width="1.048"
       y="-0.024"
       height="1.048">
      <feGaussianBlur
         inkscape:collect="always"
         stdDeviation="4.48"
         id="feGaussianBlur4229" />
    </filter>
    <filter
       inkscape:collect="always"
       style="color-interpolation-filters:sRGB"
       id="filter4239"
       x="-0.054995839"
       width="1.1099917"
       y="-0.066005997"
       height="1.132012">
      <feGaussianBlur
         inkscape:collect="always"
         stdDeviation="7.9207204"
         id="feGaussianBlur4241" />
    </filter>
  </defs>
  <metadata
     id="metadata4">
    <rdf:RDF>
      <cc:Work
         rdf:about="">
        <dc:format>image/svg+xml</dc:format>
        <dc:type
           rdf:resource="http://purl.org/dc/dcmitype/StillImage" />
        <dc:creator>
          <cc:Agent>
            <dc:title>Sam Hewitt</dc:title>
          </cc:Agent>
        </dc:creator>
        <dc:source />
        <cc:license
           rdf:resource="http://creativecommons.org/licenses/by-sa/3.0/" />
        <dc:title>Paper Icon Theme</dc:title>
        <dc:subject>
          <rdf:Bag />
        </dc:subject>
        <dc:date />
        <dc:rights>
          <cc:Agent>
            <dc:title />
          </cc:Agent>
        </dc:rights>
        <dc:publisher>
          <cc:Agent>
            <dc:title />
          </cc:Agent>
        </dc:publisher>
        <dc:identifier />
        <dc:relation />
        <dc:language />
        <dc:coverage />
        <dc:description />
        <dc:contributor>
          <cc:Agent>
            <dc:title />
          </cc:Agent>
        </dc:contributor>
      </cc:Work>
      <cc:Work
         rdf:about="">
        <dc:format>image/svg+xml</dc:format>
        <dc:type
           rdf:resource="http://purl.org/dc/dcmitype/StillImage" />
      </cc:Work>
    </rdf:RDF>
  </metadata>
  <g
     style="display:inline"
     inkscape:groupmode="layer"
     inkscape:label="Icon"
     id="layer1"
     transform="translate(0,244)">
    <g
       style="display:none"
       inkscape:label="Baseplate"
       id="layer7"
       inkscape:groupmode="layer">
      <text
         y="332.48523"
         xml:space="preserve"
         x="15.006836"
         style="font-style:normal;font-variant:normal;font-weight:normal;font-stretch:normal;font-size:18px;font-family:'DejaVu Sans';-inkscape-font-specification:'DejaVu Sans';display:inline;fill:#000000;fill-opacity:1;stroke:none;enable-background:new"
         inkscape:label="context"
         id="context"><tspan
           style="font-style:normal;font-variant:normal;font-weight:normal;font-stretch:normal;font-family:'DejaVu Sans';-inkscape-font-specification:'DejaVu Sans'"
           y="332.48523"
           x="15.006836"
           sodipodi:role="line"
           id="tspan3933">apps</tspan></text>
      <text
         y="332.48523"
         xml:space="preserve"
         x="142.48828"
         style="font-style:normal;font-variant:normal;font-weight:bold;font-stretch:normal;font-size:18px;line-height:125%;font-family:'DejaVu Sans';-inkscape-font-specification:'DejaVu Sans Bold';text-align:start;writing-mode:lr-tb;text-anchor:start;display:inline;fill:#000000;fill-opacity:1;stroke:none;enable-background:new"
         sodipodi:linespacing="125%"
         inkscape:label="icon-name"
         id="icon-name"><tspan
           style="font-style:normal;font-variant:normal;font-weight:bold;font-stretch:normal;font-size:18px;font-family:'DejaVu Sans';-inkscape-font-specification:'DejaVu Sans Bold'"
           y="332.48523"
           x="142.48828"
           sodipodi:role="line"
           id="tspan3937">system-software-update</tspan></text>
      <rect
         style="display:inline;overflow:visible;visibility:visible;fill:#e9e9e9;fill-opacity:1;fill-rule:nonzero;stroke:none;stroke-width:2;marker:none;enable-background:accumulate"
         id="rect16x16"
         width="16"
         height="16"
         x="-32"
         y="268"
         inkscape:label="16x16"
         transform="scale(-1,1)" />
      <rect
         style="display:inline;overflow:visible;visibility:visible;fill:#e9e9e9;fill-opacity:1;fill-rule:nonzero;stroke:none;stroke-width:2;marker:none;enable-background:accumulate"
         id="rect24x24"
         width="24"
         height="24"
         x="-76"
         y="260"
         inkscape:label="24x24"
         transform="scale(-1,1)" />
      <rect
         style="display:inline;overflow:visible;visibility:visible;fill:#e9e9e9;fill-opacity:1;fill-rule:nonzero;stroke:none;stroke-width:2;marker:none;enable-background:accumulate"
         id="rect32x32"
         width="32"
         height="32"
         x="-128"
         y="252"
         inkscape:label="32x32"
         transform="scale(-1,1)" />
      <rect
         inkscape:label="48x48"
         y="236"
         x="-192"
         height="48"
         width="48"
         id="rect48x48"
         style="display:inline;overflow:visible;visibility:visible;fill:#e9e9e9;fill-opacity:1;fill-rule:nonzero;stroke:none;stroke-width:2;marker:none;enable-background:accumulate"
         transform="scale(-1,1)" />
      <rect
         style="display:inline;overflow:visible;visibility:visible;fill:#e9e9e9;fill-opacity:1;fill-rule:nonzero;stroke:none;stroke-width:2;marker:none;enable-background:accumulate"
         id="rect3951"
         width="512"
         height="512"
         x="-720"
         y="-228"
         inkscape:label="48x48"
         transform="scale(-1,1)" />
    </g>
    <g
       inkscape:groupmode="layer"
       id="layer6"
       inkscape:label="Symbols"
       style="display:inline">
      <rect
         ry="24"
         rx="24"
         y="-688"
         x="-256"
         height="448"
         width="448"
         id="rect4233"
         style="opacity:0.1;fill:#000000;fill-opacity:1;stroke:#000000;stroke-width:8;stroke-miterlimit:4;stroke-dasharray:none;stroke-opacity:1;filter:url(#filter4227)"
         transform="matrix(0,-1,-1,0,0,0)" />
      <rect
         ry="2"
         rx="2"
         y="-188"
         x="-281"
         height="40"
         width="40"
         id="rect4220"
         style="opacity:0.2;fill:#000000;fill-opacity:1;stroke:none"
         transform="matrix(0,-1,-1,0,0,0)" />
      <rect
         transform="matrix(0,-1,-1,0,0,0)"
         style="fill:#f58411;fill-opacity:1;stroke:none"
         id="rect4203"
         width="40"
         height="40"
         x="-280"
         y="-188"
         rx="2"
         ry="2" />
      <rect
         ry="1"
         rx="1"
         y="-74"
         x="-282"
         height="20"
         width="20"
         id="rect4243"
         style="fill:#f58411;fill-opacity:1;stroke:none"
         transform="matrix(0,-1,-1,0,0,0)" />
      <rect
         transform="matrix(0,-1,-1,0,0,0)"
         style="fill:#f58411;fill-opacity:1;stroke:none"
         id="rect4255"
         width="28"
         height="28"
         x="-282"
         y="-126"
         rx="1.5"
         ry="1.5" />
      <rect
         transform="matrix(0,-1,-1,0,0,0)"
         style="display:inline;fill:#f58411;fill-opacity:1;stroke:none;enable-background:new"
         id="rect4265"
         width="16"
         height="16"
         x="-284"
         y="-32"
         rx="1"
         ry="1" />
      <path
         id="path4068"
         d="m 148,243 0,-1 c 0,-1.108 0.892,-2 2,-2 l 36,0 c 1.108,0 2,0.892 2,2 l 0,1 c 0,-1.108 -0.892,-2 -2,-2 l -36,0 c -1.108,0 -2,0.892 -2,2 z"
         style="opacity:0.1;fill:#ffffff;fill-opacity:1;stroke:none"
         inkscape:connector-curvature="0" />
      <path
         style="opacity:0.1;fill:#ffffff;fill-opacity:1;stroke:none"
         d="m 186,280 c 1.108,0 2,-0.892 2,-2 l 0,-18 -40,0 0,18 c 0,1.108 0.892,2 2,2 z"
         id="path4009"
         inkscape:connector-curvature="0"
         sodipodi:nodetypes="ssccsss" />
      <path
         inkscape:connector-curvature="0"
         id="path4272"
         d="m 168.026,248 c 2.73504,0.006 5.50833,0.85839 7.67465,2.5456 1.52293,1.75445 -1.37887,3.63328 -2.68581,1.92257 -3.93434,-2.38055 -9.4829,-1.54242 -12.44304,2.0167 -1.57486,1.76621 -2.46223,4.12311 -2.4518,6.48913 0.86667,0 1.73333,0 2.6,0 -1.38667,2.08 -2.77333,4.16 -4.16,6.24 -1.38667,-2.08 -2.77333,-4.16 -4.16,-6.24 0.86667,0 1.73333,0 2.6,0 -0.0827,-5.64944 3.98019,-11.02303 9.43488,-12.48618 1.17031,-0.32076 2.376,-0.50041 3.59112,-0.48782 z m 11.414,6.76 c 1.38667,2.08 2.77333,4.16 4.16,6.24 -0.86667,0 -1.73333,0 -2.6,0 0.0737,5.71686 -4.09302,11.15112 -9.64327,12.53714 -3.74521,1.04586 -7.98014,0.2827 -11.0582,-2.11014 -1.57051,-1.78367 1.37165,-3.64447 2.69073,-1.91812 3.81188,2.31274 9.14988,1.57921 12.15873,-1.72399 1.74252,-1.79536 2.74536,-4.28252 2.73201,-6.78489 -0.86667,0 -1.73333,0 -2.6,0 1.38667,-2.08 2.77333,-4.16 4.16,-6.24 z"
         style="display:inline;opacity:0.2;fill:#000000;fill-opacity:1;fill-rule:nonzero;stroke:none;enable-background:new" />
      <path
         style="display:inline;fill:#ffffff;fill-opacity:1;fill-rule:nonzero;stroke:none;enable-background:new"
         d="m 168.026,247 c 2.73504,0.006 5.50833,0.85839 7.67465,2.5456 1.52293,1.75445 -1.37887,3.63328 -2.68581,1.92257 -3.93434,-2.38055 -9.4829,-1.54242 -12.44304,2.0167 -1.57486,1.76621 -2.46223,4.12311 -2.4518,6.48913 0.86667,0 1.73333,0 2.6,0 -1.38667,2.08 -2.77333,4.16 -4.16,6.24 -1.38667,-2.08 -2.77333,-4.16 -4.16,-6.24 0.86667,0 1.73333,0 2.6,0 -0.0827,-5.64944 3.98019,-11.02303 9.43488,-12.48618 1.17031,-0.32076 2.376,-0.50041 3.59112,-0.48782 z m 11.414,6.76 c 1.38667,2.08 2.77333,4.16 4.16,6.24 -0.86667,0 -1.73333,0 -2.6,0 0.0737,5.71686 -4.09302,11.15112 -9.64327,12.53714 -3.74521,1.04586 -7.98014,0.2827 -11.0582,-2.11014 -1.57051,-1.78367 1.37165,-3.64447 2.69073,-1.91812 3.81188,2.31274 9.14988,1.57921 12.15873,-1.72399 1.74252,-1.79536 2.74536,-4.28252 2.73201,-6.78489 -0.86667,0 -1.73333,0 -2.6,0 1.38667,-2.08 2.77333,-4.16 4.16,-6.24 z"
         id="path2995"
         inkscape:connector-curvature="0" />
      <path
         style="display:inline;opacity:0.2;fill:#000000;fill-opacity:1;fill-rule:nonzero;stroke:none;enable-background:new"
         d="m 112.02,259.00214 c 2.10387,0.004 4.23716,0.66031 5.90357,1.95815 1.17148,1.34959 -1.06067,2.79483 -2.06601,1.4789 -3.02641,-1.83119 -7.29453,-1.18647 -9.57156,1.55131 -1.21142,1.35863 -1.89402,3.17163 -1.886,4.99165 0.66668,0 1.33333,0 2,0 -1.06667,1.59998 -2.13333,3.19999 -3.2,4.79999 -1.06667,-1.6 -2.13333,-3.20001 -3.2,-4.79999 0.66667,0 1.33332,0 2,0 -0.0636,-4.34573 3.06168,-8.47926 7.25759,-9.60476 0.90024,-0.24674 1.82769,-0.38494 2.76241,-0.37525 z m 8.77999,5.2 c 1.06666,1.6 2.13333,3.2 3.20001,4.8 -0.66667,0 -1.33333,0 -2,0 0.0566,4.39759 -3.14848,8.57778 -7.41791,9.64395 -2.88093,0.80451 -6.13856,0.21746 -8.5063,-1.62319 -1.20808,-1.37205 1.05511,-2.80343 2.06979,-1.47548 2.93221,1.77905 7.03837,1.2148 9.35287,-1.32613 1.34039,-1.38105 2.11182,-3.29425 2.10155,-5.21915 -0.66667,0 -1.33334,0 -2,0 1.06667,-1.6 2.13333,-3.2 3.2,-4.8 z"
         id="path4280"
         inkscape:connector-curvature="0" />
      <path
         style="opacity:0.1;fill:#ffffff;fill-opacity:1;stroke:none"
         d="m 98,268 0,11.5 c 0,0.831 0.669,1.5 1.5,1.5 l 25,0 c 0.831,0 1.5,-0.669 1.5,-1.5 l 0,-11.5 -28,0 z"
         id="rect4192"
         inkscape:connector-curvature="0" />
      <path
         style="opacity:0.2;fill:#ffffff;fill-opacity:1;stroke:none"
         d="m 99.5,254 c -0.831,0 -1.5,0.669 -1.5,1.5 l 0,1 c 0,-0.831 0.669,-1.5 1.5,-1.5 l 25,0 c 0.831,0 1.5,0.669 1.5,1.5 l 0,-1 c 0,-0.831 -0.669,-1.5 -1.5,-1.5 l -25,0 z"
         id="path4203"
         inkscape:connector-curvature="0" />
      <rect
         transform="matrix(0,-1,-1,0,0,0)"
         style="opacity:0.2;fill:#000000;fill-opacity:1;stroke:none;filter:url(#filter4227)"
         id="rect4224"
         width="448"
         height="448"
         x="-256"
         y="-688"
         rx="24"
         ry="24" />
      <rect
         ry="24"
         rx="24"
         y="-688"
         x="-252"
         height="448"
         width="448"
         id="rect4229"
         style="fill:#f58411;fill-opacity:1;stroke:none"
         transform="matrix(0,-1,-1,0,0,0)" />
      <path
         style="opacity:0.1;fill:#ffffff;fill-opacity:1;stroke:none"
         d="m 264,-272 c -13.296,0 -24,10.704 -24,24 l 0,2 c 0,-13.296 10.704,-24 24,-24 l 400,0 c 13.296,0 24,10.704 24,24 l 0,-2 c 0,-13.296 -10.704,-24 -24,-24 l -400,0 z"
         transform="translate(0,76)"
         id="rect4232"
         inkscape:connector-curvature="0" />
      <path
         style="opacity:0.1;fill:#ffffff;fill-opacity:1;stroke:none"
         d="m 664,252 c 13.296,0 24,-10.704 24,-24 l 0,-200 -448,0 0,200 c 0,13.296 10.704,24 24,24 z"
         id="rect4211"
         inkscape:connector-curvature="0"
         sodipodi:nodetypes="ssccsss" />
      <path
         inkscape:connector-curvature="0"
         id="path4274"
         d="m 464.288,-107.99312 c 30.30088,0.064 61.02552,9.50984 85.02568,28.20208 16.87216,19.4372 -15.27624,40.25224 -29.75544,21.29968 -43.5876,-26.37352 -105.05888,-17.08808 -137.85352,22.34256 -17.44744,19.56744 -27.2784,45.67904 -27.16296,71.8916 9.60176,0 19.20328,0 28.8048,0 C 367.984,58.78656 352.62144,81.83048 337.25888,104.87424 321.89632,81.83048 306.53376,58.78656 291.1712,35.7428 c 9.6016,0 19.20312,0 28.80488,0 -0.91632,-62.5888 44.09552,-122.1216 104.52672,-138.33152 12.9656,-3.5536 26.3232,-5.54392 39.7852,-5.4044 z m 126.45304,74.8924 c 15.36256,23.04384 30.72512,46.08776 46.08776,69.13152 -9.6016,0 -19.20312,0 -28.8048,0 0.81664,63.33584 -45.3456,123.54064 -106.8356,138.89608 -41.49232,11.58688 -88.41008,3.132 -122.5112,-23.37776 -17.39928,-19.7608 15.19608,-40.37624 29.80992,-21.2504 42.23088,25.62232 101.36944,17.49576 134.70376,-19.0996 19.30504,-19.89048 30.4152,-47.44512 30.26736,-75.16832 -9.60168,0 -19.2032,0 -28.8048,0 15.36264,-23.04376 30.72512,-46.08768 46.08768,-69.13152 z"
         style="display:inline;opacity:0.2;fill:#000000;fill-opacity:1;fill-rule:nonzero;stroke:none;filter:url(#filter4239);enable-background:new" />
      <path
         style="display:inline;fill:#ffffff;fill-opacity:1;fill-rule:nonzero;stroke:none;enable-background:new"
         d="m 464.288,-115.99312 c 30.30088,0.064 61.02552,9.50984 85.02568,28.20208 16.87216,19.4372 -15.27624,40.25224 -29.75544,21.29968 -43.5876,-26.37352 -105.05888,-17.08808 -137.85352,22.34256 -17.44744,19.56744 -27.2784,45.67904 -27.16296,71.8916 9.60176,0 19.20328,0 28.8048,0 C 367.984,50.78656 352.62144,73.83048 337.25888,96.87424 321.89632,73.83048 306.53376,50.78656 291.1712,27.7428 c 9.6016,0 19.20312,0 28.80488,0 -0.91632,-62.5888 44.09552,-122.1216 104.52672,-138.33152 12.9656,-3.5536 26.3232,-5.54392 39.7852,-5.4044 z m 126.45304,74.8924 c 15.36256,23.04384 30.72512,46.08776 46.08776,69.13152 -9.6016,0 -19.20312,0 -28.8048,0 0.81664,63.33584 -45.3456,123.54064 -106.8356,138.89608 -41.49232,11.58688 -88.41008,3.132 -122.5112,-23.37776 -17.39928,-19.7608 15.19608,-40.37624 29.80992,-21.2504 42.23088,25.62232 101.36944,17.49576 134.70376,-19.0996 19.30504,-19.89048 30.4152,-47.44512 30.26736,-75.16832 -9.60168,0 -19.2032,0 -28.8048,0 15.36264,-23.04376 30.72512,-46.08768 46.08768,-69.13152 z"
         id="path4245"
         inkscape:connector-curvature="0" />
      <path
         style="opacity:0.2;fill:#ffffff;fill-opacity:1;stroke:none"
         d="m 55,262 c -0.554,0 -1,0.446 -1,1 l 0,1 c 0,-0.554 0.446,-1 1,-1 l 18,0 c 0.554,0 1,0.446 1,1 l 0,-1 c 0,-0.554 -0.446,-1 -1,-1 l -18,0 z"
         id="path4266"
         inkscape:connector-curvature="0" />
      <path
         style="display:inline;opacity:0.2;fill:#000000;fill-opacity:1;fill-rule:nonzero;stroke:none;enable-background:new"
         d="m 64.014003,266.00033 c 1.472958,0.003 2.966522,0.46228 4.133185,1.37094 0.820181,0.94485 -0.742586,1.9567 -1.44644,1.03539 -2.118843,-1.28204 -5.107026,-0.83067 -6.701213,1.0861 -0.848143,0.9512 -1.326042,2.22051 -1.32042,3.49473 0.466741,0 0.933482,0 1.400233,0 -0.746798,1.12019 -1.493585,2.24038 -2.240372,3.36056 -0.746798,-1.12018 -1.493575,-2.24037 -2.240373,-3.36056 0.466741,0 0.933481,0 1.400233,0 -0.04448,-3.04251 2.14353,-5.93647 5.081165,-6.72444 0.630266,-0.17275 1.279597,-0.2695 1.934002,-0.26272 z m 6.147022,3.64061 c 0.746787,1.12018 1.493574,2.24037 2.240372,3.36056 -0.466751,0 -0.933492,0 -1.400232,0 0.03974,3.07882 -2.204301,6.00544 -5.1934,6.75189 -2.016981,0.56325 -4.297713,0.15225 -5.955405,-1.13642 -0.845795,-0.9606 0.738709,-1.96274 1.449101,-1.03301 2.052892,1.24553 4.927678,0.85048 6.548102,-0.92846 0.938437,-0.96689 1.478517,-2.30635 1.471322,-3.654 -0.466751,0 -0.933492,0 -1.400233,0 0.746798,-1.12019 1.493575,-2.24038 2.240373,-3.36056 z"
         id="path4276"
         inkscape:connector-curvature="0" />
      <path
         inkscape:connector-curvature="0"
         id="path4259"
         d="m 64.014003,265.00033 c 1.472958,0.003 2.966522,0.46228 4.133185,1.37094 0.820181,0.94485 -0.742586,1.9567 -1.44644,1.03539 -2.118843,-1.28204 -5.107026,-0.83067 -6.701213,1.0861 -0.848143,0.9512 -1.326042,2.22051 -1.32042,3.49473 0.466741,0 0.933482,0 1.400233,0 -0.746798,1.12019 -1.493585,2.24038 -2.240372,3.36056 -0.746798,-1.12018 -1.493575,-2.24037 -2.240373,-3.36056 0.466741,0 0.933481,0 1.400233,0 -0.04448,-3.04251 2.14353,-5.93647 5.081165,-6.72444 0.630266,-0.17275 1.279597,-0.2695 1.934002,-0.26272 z m 6.147022,3.64061 c 0.746787,1.12018 1.493574,2.24037 2.240372,3.36056 -0.466751,0 -0.933492,0 -1.400232,0 0.03974,3.07882 -2.204301,6.00544 -5.1934,6.75189 -2.016981,0.56325 -4.297713,0.15225 -5.955405,-1.13642 -0.845795,-0.9606 0.738709,-1.96274 1.449101,-1.03301 2.052892,1.24553 4.927678,0.85048 6.548102,-0.92846 0.938437,-0.96689 1.478517,-2.30635 1.471322,-3.654 -0.466751,0 -0.933492,0 -1.400233,0 0.746798,-1.12019 1.493575,-2.24038 2.240373,-3.36056 z"
         style="display:inline;fill:#ffffff;fill-opacity:1;fill-rule:nonzero;stroke:none;enable-background:new" />
      <path
         style="display:inline;opacity:0.2;fill:#ffffff;fill-opacity:1;stroke:none;enable-background:new"
         d="m 17,192 c -0.554,0 -1,0.446 -1,1 l 0,1 c 0,-0.554 0.446,-1 1,-1 l 14,0 c 0.554,0 1,0.446 1,1 l 0,-1 c 0,-0.554 -0.446,-1 -1,-1 l -14,0 z"
         transform="translate(0,76)"
         id="path4283"
         inkscape:connector-curvature="0" />
      <path
         inkscape:connector-curvature="0"
         id="path4278"
         d="m 24.009999,272.00024 c 1.052111,0.002 2.118932,0.3302 2.952276,0.97923 0.585845,0.67491 -0.530422,1.39766 -1.033166,0.73958 -1.513465,-0.91574 -3.647881,-0.59333 -4.786586,0.77578 -0.60581,0.67943 -0.947166,1.58607 -0.943155,2.49624 0.333395,0 0.666778,0 1.000166,0 -0.533421,0.80012 -1.066843,1.60027 -1.600265,2.40039 -0.533422,-0.80012 -1.066844,-1.60027 -1.600266,-2.40039 0.333389,0 0.666772,0 1.000166,0 -0.03183,-2.17322 1.531094,-4.24033 3.629398,-4.80318 0.450194,-0.12338 0.913999,-0.1925 1.381432,-0.18765 z m 4.39072,2.60043 c 0.533433,0.80013 1.066844,1.60027 1.600277,2.4004 -0.333389,0 -0.666778,0 -1.000166,0 0.02833,2.19915 -1.574499,4.2896 -3.70957,4.82277 -1.440705,0.40233 -3.069793,0.10878 -4.253858,-0.81173 -0.604138,-0.68613 0.527643,-1.40194 1.035066,-0.73785 1.466349,0.88966 3.519776,0.60749 4.677209,-0.66318 0.670321,-0.69064 1.056088,-1.6474 1.050954,-2.61001 -0.333388,0 -0.666777,0 -1.000166,0 0.533422,-0.80013 1.066844,-1.60027 1.600266,-2.4004 z"
         style="display:inline;opacity:0.2;fill:#000000;fill-opacity:1;fill-rule:nonzero;stroke:none;enable-background:new" />
      <path
         style="display:inline;fill:#ffffff;fill-opacity:1;fill-rule:nonzero;stroke:none;enable-background:new"
         d="m 24.009999,271.00024 c 1.052111,0.002 2.118932,0.3302 2.952276,0.97923 0.585845,0.67491 -0.530422,1.39766 -1.033166,0.73958 -1.513465,-0.91574 -3.647881,-0.59333 -4.786586,0.77578 -0.60581,0.67943 -0.947166,1.58607 -0.943155,2.49624 0.333395,0 0.666778,0 1.000166,0 -0.533421,0.80012 -1.066843,1.60027 -1.600265,2.40039 -0.533422,-0.80012 -1.066844,-1.60027 -1.600266,-2.40039 0.333389,0 0.666772,0 1.000166,0 -0.03183,-2.17322 1.531094,-4.24033 3.629398,-4.80318 0.450194,-0.12338 0.913999,-0.1925 1.381432,-0.18765 z m 4.39072,2.60043 c 0.533433,0.80013 1.066844,1.60027 1.600277,2.4004 -0.333389,0 -0.666778,0 -1.000166,0 0.02833,2.19915 -1.574499,4.2896 -3.70957,4.82277 -1.440705,0.40233 -3.069793,0.10878 -4.253858,-0.81173 -0.604138,-0.68613 0.527643,-1.40194 1.035066,-0.73785 1.466349,0.88966 3.519776,0.60749 4.677209,-0.66318 0.670321,-0.69064 1.056088,-1.6474 1.050954,-2.61001 -0.333388,0 -0.666777,0 -1.000166,0 0.533422,-0.80013 1.066844,-1.60027 1.600266,-2.4004 z"
         id="path4273"
         inkscape:connector-curvature="0" />
      <path
         inkscape:connector-curvature="0"
         id="path4249"
         d="m 112.02,258.00214 c 2.10387,0.004 4.23716,0.66031 5.90357,1.95815 1.17148,1.34959 -1.06067,2.79483 -2.06601,1.4789 -3.02641,-1.83119 -7.29453,-1.18647 -9.57156,1.55131 -1.21142,1.35863 -1.89402,3.17163 -1.886,4.99165 0.66668,0 1.33333,0 2,0 -1.06667,1.59998 -2.13333,3.19999 -3.2,4.79999 -1.06667,-1.6 -2.13333,-3.20001 -3.2,-4.79999 0.66667,0 1.33332,0 2,0 -0.0636,-4.34573 3.06168,-8.47926 7.25759,-9.60476 0.90024,-0.24674 1.82769,-0.38494 2.76241,-0.37525 z m 8.77999,5.2 c 1.06666,1.6 2.13333,3.2 3.20001,4.8 -0.66667,0 -1.33333,0 -2,0 0.0566,4.39759 -3.14848,8.57778 -7.41791,9.64395 -2.88093,0.80451 -6.13856,0.21746 -8.5063,-1.62319 -1.20808,-1.37205 1.05511,-2.80343 2.06979,-1.47548 2.93221,1.77905 7.03837,1.2148 9.35287,-1.32613 1.34039,-1.38105 2.11182,-3.29425 2.10155,-5.21915 -0.66667,0 -1.33334,0 -2,0 1.06667,-1.6 2.13333,-3.2 3.2,-4.8 z"
         style="display:inline;fill:#ffffff;fill-opacity:1;fill-rule:nonzero;stroke:none;enable-background:new" />
      <path
         style="opacity:0.2;fill:#000000;fill-opacity:1;stroke:none"
         d="m 98,279.5 0,1 c 0,0.831 0.669,1.5 1.5,1.5 l 25,0 c 0.831,0 1.5,-0.669 1.5,-1.5 l 0,-1 c 0,0.831 -0.669,1.5 -1.5,1.5 l -25,0 c -0.831,0 -1.5,-0.669 -1.5,-1.5 z"
         id="rect4231"
         inkscape:connector-curvature="0" />
      <path
         style="opacity:0.2;fill:#000000;fill-opacity:1;stroke:none"
         d="m 54,280 0,1 c 0,0.554 0.446,1 1,1 l 18,0 c 0.554,0 1,-0.446 1,-1 l 0,-1 c 0,0.554 -0.446,1 -1,1 l -18,0 c -0.554,0 -1,-0.446 -1,-1 z"
         id="rect4241"
         inkscape:connector-curvature="0" />
      <path
         style="display:inline;opacity:0.2;fill:#000000;fill-opacity:1;stroke:none;enable-background:new"
         d="m 16,282 0,1 c 0,0.554 0.446,1 1,1 l 14,0 c 0.554,0 1,-0.446 1,-1 l 0,-1 c 0,0.554 -0.446,1 -1,1 l -14,0 c -0.554,0 -1,-0.446 -1,-1 z"
         id="rect4247"
         inkscape:connector-curvature="0" />
    </g>
  </g>
</svg>
