<?xml version="1.0" encoding="UTF-8" standalone="no"?>
<!-- Created with Inkscape (http://www.inkscape.org/) -->

<svg
   xmlns:dc="http://purl.org/dc/elements/1.1/"
   xmlns:cc="http://creativecommons.org/ns#"
   xmlns:rdf="http://www.w3.org/1999/02/22-rdf-syntax-ns#"
   xmlns:svg="http://www.w3.org/2000/svg"
   xmlns="http://www.w3.org/2000/svg"
   xmlns:sodipodi="http://sodipodi.sourceforge.net/DTD/sodipodi-0.dtd"
   xmlns:inkscape="http://www.inkscape.org/namespaces/inkscape"
   inkscape:export-ydpi="90.000000"
   inkscape:export-xdpi="90.000000"
   width="736"
   height="544"
   id="svg11300"
   sodipodi:version="0.32"
   inkscape:version="0.91 r13725"
   sodipodi:docname="trash.svg"
   inkscape:output_extension="org.inkscape.output.svg.inkscape"
   version="1.0"
   style="display:inline;enable-background:new"
   inkscape:export-filename="/home/sam/paper-template.png">
  <title
     id="title3004">Paper Icon Theme</title>
  <sodipodi:namedview
     stroke="#ef2929"
     fill="#f57900"
     id="base"
     pagecolor="#727272"
     bordercolor="#666666"
     borderopacity="0.25490196"
     inkscape:pageopacity="0"
     inkscape:pageshadow="2"
     inkscape:zoom="1"
     inkscape:cx="277.42484"
     inkscape:cy="802.37676"
     inkscape:current-layer="g4268"
     showgrid="false"
     inkscape:grid-bbox="true"
     inkscape:document-units="px"
     inkscape:showpageshadow="false"
     inkscape:window-width="1366"
     inkscape:window-height="704"
     inkscape:window-x="0"
     inkscape:window-y="27"
     width="400px"
     height="300px"
     inkscape:snap-nodes="true"
     inkscape:snap-bbox="true"
     gridtolerance="10000"
     inkscape:object-nodes="true"
     inkscape:snap-grids="true"
     showguides="true"
     inkscape:guide-bbox="true"
     inkscape:window-maximized="1"
     inkscape:bbox-nodes="true"
     inkscape:snap-bbox-edge-midpoints="true"
     inkscape:snap-intersection-paths="true"
     inkscape:object-paths="true"
     inkscape:snap-smooth-nodes="true"
     inkscape:snap-midpoints="true">
    <inkscape:grid
       spacingy="1px"
       spacingx="1px"
       id="grid5883"
       type="xygrid"
       enabled="true"
       visible="true"
       empspacing="4"
       snapvisiblegridlinesonly="true" />
    <inkscape:grid
       type="xygrid"
       id="grid11592"
       empspacing="2"
       visible="true"
       enabled="false"
       spacingx="0.5px"
       spacingy="0.5px"
       color="#ff0000"
       opacity="0.1254902"
       empcolor="#ff0000"
       empopacity="0.25098039"
       snapvisiblegridlinesonly="true" />
  </sodipodi:namedview>
  <defs
     id="defs3">
    <filter
       inkscape:collect="always"
       style="color-interpolation-filters:sRGB"
       id="filter4194"
       x="-0.026000001"
       width="1.052"
       y="-0.022285715"
       height="1.0445714">
      <feGaussianBlur
         inkscape:collect="always"
         stdDeviation="4.16"
         id="feGaussianBlur4196" />
    </filter>
  </defs>
  <metadata
     id="metadata4">
    <rdf:RDF>
      <cc:Work
         rdf:about="">
        <dc:format>image/svg+xml</dc:format>
        <dc:type
           rdf:resource="http://purl.org/dc/dcmitype/StillImage" />
        <dc:creator>
          <cc:Agent>
            <dc:title>Sam Hewitt</dc:title>
          </cc:Agent>
        </dc:creator>
        <dc:source />
        <cc:license
           rdf:resource="http://creativecommons.org/licenses/by-sa/3.0/" />
        <dc:title>Paper Icon Theme</dc:title>
        <dc:subject>
          <rdf:Bag />
        </dc:subject>
        <dc:date />
        <dc:rights>
          <cc:Agent>
            <dc:title />
          </cc:Agent>
        </dc:rights>
        <dc:publisher>
          <cc:Agent>
            <dc:title />
          </cc:Agent>
        </dc:publisher>
        <dc:identifier />
        <dc:relation />
        <dc:language />
        <dc:coverage />
        <dc:description />
        <dc:contributor>
          <cc:Agent>
            <dc:title />
          </cc:Agent>
        </dc:contributor>
      </cc:Work>
      <cc:Work
         rdf:about="">
        <dc:format>image/svg+xml</dc:format>
        <dc:type
           rdf:resource="http://purl.org/dc/dcmitype/StillImage" />
      </cc:Work>
      <cc:License
         rdf:about="http://creativecommons.org/licenses/by-sa/3.0/">
        <cc:permits
           rdf:resource="http://creativecommons.org/ns#Reproduction" />
        <cc:permits
           rdf:resource="http://creativecommons.org/ns#Distribution" />
        <cc:requires
           rdf:resource="http://creativecommons.org/ns#Notice" />
        <cc:requires
           rdf:resource="http://creativecommons.org/ns#Attribution" />
        <cc:permits
           rdf:resource="http://creativecommons.org/ns#DerivativeWorks" />
        <cc:requires
           rdf:resource="http://creativecommons.org/ns#ShareAlike" />
      </cc:License>
    </rdf:RDF>
  </metadata>
  <g
     style="display:inline"
     inkscape:groupmode="layer"
     inkscape:label="user-trash"
     id="layer1"
     transform="translate(0,244)">
    <g
       style="display:none"
       inkscape:label="Baseplate"
       id="layer7"
       inkscape:groupmode="layer">
      <text
         y="332.76685"
         xml:space="preserve"
         x="15.006836"
         style="font-style:normal;font-variant:normal;font-weight:normal;font-stretch:normal;font-size:18px;font-family:'DejaVu Sans';-inkscape-font-specification:'DejaVu Sans';display:inline;fill:#000000;fill-opacity:1;stroke:none;enable-background:new"
         inkscape:label="context"
         id="context"><tspan
           style="font-style:normal;font-variant:normal;font-weight:normal;font-stretch:normal;font-family:'DejaVu Sans';-inkscape-font-specification:'DejaVu Sans'"
           y="332.76685"
           x="15.006836"
           sodipodi:role="line"
           id="tspan3933">places</tspan></text>
      <text
         y="332.76685"
         xml:space="preserve"
         x="142.48828"
         style="font-style:normal;font-variant:normal;font-weight:bold;font-stretch:normal;font-size:18px;line-height:125%;font-family:'DejaVu Sans';-inkscape-font-specification:'DejaVu Sans Bold';text-align:start;writing-mode:lr-tb;text-anchor:start;display:inline;fill:#000000;fill-opacity:1;stroke:none;enable-background:new"
         sodipodi:linespacing="125%"
         inkscape:label="icon-name"
         id="icon-name"><tspan
           style="font-style:normal;font-variant:normal;font-weight:bold;font-stretch:normal;font-size:18px;font-family:'DejaVu Sans';-inkscape-font-specification:'DejaVu Sans Bold'"
           y="332.76685"
           x="142.48828"
           sodipodi:role="line"
           id="tspan3937">user-trash</tspan></text>
      <rect
         style="display:inline;overflow:visible;visibility:visible;fill:#ececec;fill-opacity:1;fill-rule:nonzero;stroke:none;stroke-width:2;marker:none;enable-background:accumulate"
         id="rect16x16"
         width="16"
         height="16"
         x="-32"
         y="268"
         inkscape:label="16x16"
         transform="scale(-1,1)" />
      <rect
         style="display:inline;overflow:visible;visibility:visible;fill:#e6e6e6;fill-opacity:1;fill-rule:nonzero;stroke:none;stroke-width:2;marker:none;enable-background:accumulate"
         id="rect24x24"
         width="24"
         height="24"
         x="-76"
         y="260"
         inkscape:label="24x24"
         transform="scale(-1,1)" />
      <rect
         style="display:inline;overflow:visible;visibility:visible;fill:#e6e6e6;fill-opacity:1;fill-rule:nonzero;stroke:none;stroke-width:2;marker:none;enable-background:accumulate"
         id="rect32x32"
         width="32"
         height="32"
         x="-128"
         y="252"
         inkscape:label="32x32"
         transform="scale(-1,1)" />
      <rect
         inkscape:label="48x48"
         y="236"
         x="-192"
         height="48"
         width="48"
         id="rect48x48"
         style="display:inline;overflow:visible;visibility:visible;fill:#e6e6e6;fill-opacity:1;fill-rule:nonzero;stroke:none;stroke-width:2;marker:none;enable-background:accumulate"
         transform="scale(-1,1)" />
      <text
         xml:space="preserve"
         style="font-style:normal;font-weight:normal;font-size:40px;line-height:125%;font-family:sans-serif;letter-spacing:0px;word-spacing:0px;fill:#000000;fill-opacity:1;stroke:none;stroke-width:1px;stroke-linecap:butt;stroke-linejoin:miter;stroke-opacity:1"
         x="48"
         y="60"
         id="text4185"
         sodipodi:linespacing="125%"><tspan
           sodipodi:role="line"
           id="tspan4187"
           x="48"
           y="60" /></text>
      <rect
         style="display:inline;overflow:visible;visibility:visible;fill:#e6e6e6;fill-opacity:1;fill-rule:nonzero;stroke:none;stroke-width:2;marker:none;enable-background:accumulate"
         id="rect3951"
         width="512"
         height="512"
         x="-720"
         y="-228"
         inkscape:label="48x48"
         transform="scale(-1,1)" />
    </g>
    <g
       inkscape:groupmode="layer"
       id="layer6"
       inkscape:label="Symbols"
       style="display:inline">
      <g
         id="g4303">
        <path
           style="display:inline;opacity:0.2;fill:#000000;fill-opacity:1;stroke:none;enable-background:new"
           d="m 30,283 1,-13 -14,0 1,13 c 0.04249,0.55237 0.446,1 1,1 l 10,0 c 0.554,0 0.963148,-0.44723 1,-1 z"
           id="path4325"
           inkscape:connector-curvature="0"
           sodipodi:nodetypes="sccssss" />
        <path
           style="opacity:0.2;fill:#000000;fill-opacity:1;stroke:none"
           d="m 72,281.5 1,-18.5 -18,0 0.999996,18.5 c 0.04485,0.82979 0.669,1.5 1.5,1.5 L 70.5,283 c 0.831,0 1.5,-0.669 1.5,-1.5 z"
           id="path4221"
           inkscape:connector-curvature="0"
           sodipodi:nodetypes="sccssss" />
        <path
           style="opacity:0.2;fill:#000000;fill-opacity:1;stroke:none"
           d="m 123,281 1,-26 -24,0 1,26 c 0.0426,1.10718 0.892,2 2,2 l 18,0 c 1.108,0 1.95742,-0.89282 2,-2 z"
           id="path4207"
           inkscape:connector-curvature="0"
           sodipodi:nodetypes="sccssss" />
        <path
           sodipodi:nodetypes="sccssss"
           inkscape:connector-curvature="0"
           id="path4198"
           d="m 640,232 16,-424 -384,0 16,424 c 0.5016,13.28656 10.704,24 24,24 l 304,0 c 13.296,0 23.49864,-10.71344 24,-24 z"
           style="opacity:0.1;fill:#000000;fill-opacity:1;stroke:#000000;stroke-width:8;stroke-miterlimit:4;stroke-dasharray:none;stroke-opacity:1;filter:url(#filter4194)" />
        <path
           style="opacity:0.2;fill:#000000;fill-opacity:1;stroke:none"
           d="m 184,279 2,-38 -36,0 2,38 c 0.0582,1.10647 0.892,2 2,2 l 28,0 c 1.108,0 2,-0.892 2,-2 z"
           id="path4197"
           inkscape:connector-curvature="0"
           sodipodi:nodetypes="sccssss" />
        <path
           sodipodi:nodetypes="sccssss"
           inkscape:connector-curvature="0"
           id="rect4203"
           d="m 184,278 2,-38 -36,0 2,38 c 0.0582,1.10647 0.892,2 2,2 l 28,0 c 1.108,0 2,-0.892 2,-2 z"
           style="opacity:0.5;fill:#ffffff;fill-opacity:1;stroke:none" />
        <path
           sodipodi:nodetypes="sccssss"
           inkscape:connector-curvature="0"
           id="rect4243"
           d="m -280.5,-72 18.5,-1 0,18 -18.5,-0.999996 c -0.82979,-0.04485 -1.5,-0.669 -1.5,-1.5 L -282,-70.5 c 0,-0.831 0.669,-1.5 1.5,-1.5 z"
           style="opacity:0.5;fill:#ffffff;fill-opacity:1;stroke:none"
           transform="matrix(0,-1,-1,0,0,0)" />
        <path
           sodipodi:nodetypes="sccssss"
           inkscape:connector-curvature="0"
           id="rect4255"
           d="m -280,-123 26,-1 0,24 -26,-1 c -1.10718,-0.0426 -2,-0.892 -2,-2 l 0,-18 c 0,-1.108 0.89282,-1.95742 2,-2 z"
           style="opacity:0.5;fill:#ffffff;fill-opacity:1;stroke:none"
           transform="matrix(0,-1,-1,0,0,0)" />
        <path
           sodipodi:nodetypes="sccssss"
           inkscape:connector-curvature="0"
           id="rect4265"
           d="m 30,282 1,-13 -14,0 1,13 c 0.04249,0.55237 0.446,1 1,1 l 10,0 c 0.554,0 0.963148,-0.44723 1,-1 z"
           style="display:inline;opacity:0.5;fill:#ffffff;fill-opacity:1;stroke:none;enable-background:new" />
        <path
           inkscape:connector-curvature="0"
           id="path4203"
           d="m 150,240 0.0527,1 35.89454,0 0.0527,-1 -36,0 z"
           style="opacity:0.2;fill:#ffffff;fill-opacity:1;stroke:none" />
        <path
           style="opacity:0.2;fill:#000000;fill-opacity:1;stroke:none;filter:url(#filter4194)"
           d="m 640,232 16,-424 -384,0 16,424 c 0.5016,13.28656 10.704,24 24,24 l 304,0 c 13.296,0 23.49864,-10.71344 24,-24 z"
           id="path4173"
           inkscape:connector-curvature="0"
           sodipodi:nodetypes="sccssss" />
        <path
           sodipodi:nodetypes="sccssss"
           inkscape:connector-curvature="0"
           id="rect4229"
           d="m 640,228 16,-424 -384,0 16,424 c 0.5016,13.28656 10.704,24 24,24 l 304,0 c 13.296,0 23.49864,-10.71344 24,-24 z"
           style="opacity:0.5;fill:#ffffff;fill-opacity:1;stroke:none" />
        <path
           id="path4177"
           transform="translate(0,-244)"
           d="M 272 48 L 272.07422 50 L 655.92578 50 L 656 48 L 272 48 z "
           style="opacity:0.2;fill:#ffffff;fill-opacity:1;stroke:none" />
        <path
           inkscape:connector-curvature="0"
           id="path4201"
           transform="translate(0,76)"
           d="m 100,178 0.0391,1 23.92188,0 0.0391,-1 -24,0 z"
           style="opacity:0.2;fill:#ffffff;fill-opacity:1;stroke:none" />
        <path
           inkscape:connector-curvature="0"
           id="path4212"
           d="m 17,269 0,1 14,0 0,-1 z"
           style="display:inline;opacity:0.2;fill:#ffffff;fill-opacity:1;stroke:none;enable-background:new"
           sodipodi:nodetypes="ccccc" />
        <path
           inkscape:connector-curvature="0"
           id="path4216"
           transform="translate(0,76)"
           d="m 55,186 0.05469,1 17.890624,0 L 73,186 55,186 Z"
           style="opacity:0.2;fill:#ffffff;fill-opacity:1;stroke:none" />
      </g>
    </g>
  </g>
  <g
     transform="translate(0,244)"
     id="g4242"
     inkscape:label="user-trash-full"
     inkscape:groupmode="layer"
     style="display:inline">
    <g
       inkscape:groupmode="layer"
       id="g4244"
       inkscape:label="Baseplate"
       style="display:none">
      <text
         id="text4246"
         inkscape:label="context"
         style="font-style:normal;font-variant:normal;font-weight:normal;font-stretch:normal;font-size:18px;font-family:'DejaVu Sans';-inkscape-font-specification:'DejaVu Sans';display:inline;fill:#000000;fill-opacity:1;stroke:none;enable-background:new"
         x="15.006836"
         xml:space="preserve"
         y="-307.23315"><tspan
           id="tspan4248"
           sodipodi:role="line"
           x="15.006836"
           y="-307.23315"
           style="font-style:normal;font-variant:normal;font-weight:normal;font-stretch:normal;font-family:'DejaVu Sans';-inkscape-font-specification:'DejaVu Sans'">status</tspan></text>
      <text
         id="text4250"
         inkscape:label="icon-name"
         sodipodi:linespacing="125%"
         style="font-style:normal;font-variant:normal;font-weight:bold;font-stretch:normal;font-size:18px;line-height:125%;font-family:'DejaVu Sans';-inkscape-font-specification:'DejaVu Sans Bold';text-align:start;writing-mode:lr-tb;text-anchor:start;display:inline;fill:#000000;fill-opacity:1;stroke:none;enable-background:new"
         x="142.48828"
         xml:space="preserve"
         y="-307.23315"><tspan
           id="tspan4252"
           sodipodi:role="line"
           x="142.48828"
           y="-307.23315"
           style="font-style:normal;font-variant:normal;font-weight:bold;font-stretch:normal;font-size:18px;font-family:'DejaVu Sans';-inkscape-font-specification:'DejaVu Sans Bold'">user-trash-full</tspan></text>
      <rect
         transform="scale(-1,1)"
         inkscape:label="16x16"
         y="-372"
         x="-32"
         height="16"
         width="16"
         id="rect4254"
         style="display:inline;overflow:visible;visibility:visible;fill:#ececec;fill-opacity:1;fill-rule:nonzero;stroke:none;stroke-width:2;marker:none;enable-background:accumulate" />
      <rect
         transform="scale(-1,1)"
         inkscape:label="24x24"
         y="-380"
         x="-76"
         height="24"
         width="24"
         id="rect4256"
         style="display:inline;overflow:visible;visibility:visible;fill:#e6e6e6;fill-opacity:1;fill-rule:nonzero;stroke:none;stroke-width:2;marker:none;enable-background:accumulate" />
      <rect
         transform="scale(-1,1)"
         inkscape:label="32x32"
         y="-388"
         x="-128"
         height="32"
         width="32"
         id="rect4258"
         style="display:inline;overflow:visible;visibility:visible;fill:#e6e6e6;fill-opacity:1;fill-rule:nonzero;stroke:none;stroke-width:2;marker:none;enable-background:accumulate" />
      <rect
         transform="scale(-1,1)"
         style="display:inline;overflow:visible;visibility:visible;fill:#e6e6e6;fill-opacity:1;fill-rule:nonzero;stroke:none;stroke-width:2;marker:none;enable-background:accumulate"
         id="rect4260"
         width="48"
         height="48"
         x="-192"
         y="-404"
         inkscape:label="48x48" />
      <text
         sodipodi:linespacing="125%"
         id="text4262"
         y="60"
         x="48"
         style="font-style:normal;font-weight:normal;font-size:40px;line-height:125%;font-family:sans-serif;letter-spacing:0px;word-spacing:0px;fill:#000000;fill-opacity:1;stroke:none;stroke-width:1px;stroke-linecap:butt;stroke-linejoin:miter;stroke-opacity:1"
         xml:space="preserve"><tspan
           y="60"
           x="48"
           id="tspan4264"
           sodipodi:role="line" /></text>
      <rect
         transform="scale(-1,1)"
         inkscape:label="48x48"
         y="-868"
         x="-720"
         height="512"
         width="512"
         id="rect4266"
         style="display:inline;overflow:visible;visibility:visible;fill:#e6e6e6;fill-opacity:1;fill-rule:nonzero;stroke:none;stroke-width:2;marker:none;enable-background:accumulate" />
    </g>
    <g
       style="display:inline"
       inkscape:label="Symbols"
       id="g4268"
       inkscape:groupmode="layer">
      <g
         id="use4320"
         transform="translate(0,-640)">
        <path
           sodipodi:nodetypes="sccssss"
           inkscape:connector-curvature="0"
           id="path4478"
           d="m 30,283 1,-13 -14,0 1,13 c 0.04249,0.55237 0.446,1 1,1 l 10,0 c 0.554,0 0.963148,-0.44723 1,-1 z"
           style="display:inline;opacity:0.2;fill:#000000;fill-opacity:1;stroke:none;enable-background:new" />
        <path
           sodipodi:nodetypes="sccssss"
           inkscape:connector-curvature="0"
           id="path4480"
           d="m 72,281.5 1,-18.5 -18,0 0.999996,18.5 c 0.04485,0.82979 0.669,1.5 1.5,1.5 L 70.5,283 c 0.831,0 1.5,-0.669 1.5,-1.5 z"
           style="opacity:0.2;fill:#000000;fill-opacity:1;stroke:none" />
        <path
           sodipodi:nodetypes="sccssss"
           inkscape:connector-curvature="0"
           id="path4482"
           d="m 123,281 1,-26 -24,0 1,26 c 0.0426,1.10718 0.892,2 2,2 l 18,0 c 1.108,0 1.95742,-0.89282 2,-2 z"
           style="opacity:0.2;fill:#000000;fill-opacity:1;stroke:none" />
        <path
           style="opacity:0.1;fill:#000000;fill-opacity:1;stroke:#000000;stroke-width:8;stroke-miterlimit:4;stroke-dasharray:none;stroke-opacity:1;filter:url(#filter4194)"
           d="m 640,232 16,-424 -384,0 16,424 c 0.5016,13.28656 10.704,24 24,24 l 304,0 c 13.296,0 23.49864,-10.71344 24,-24 z"
           id="path4484"
           inkscape:connector-curvature="0"
           sodipodi:nodetypes="sccssss" />
        <path
           sodipodi:nodetypes="sccssss"
           inkscape:connector-curvature="0"
           id="path4486"
           d="m 184,279 2,-38 -36,0 2,38 c 0.0582,1.10647 0.892,2 2,2 l 28,0 c 1.108,0 2,-0.892 2,-2 z"
           style="opacity:0.2;fill:#000000;fill-opacity:1;stroke:none" />
        <path
           style="opacity:0.75;fill:#ffffff;fill-opacity:1;stroke:none"
           d="m 184,278 2,-38 -36,0 2,38 c 0.0582,1.10647 0.892,2 2,2 l 28,0 c 1.108,0 2,-0.892 2,-2 z"
           id="path4488"
           inkscape:connector-curvature="0"
           sodipodi:nodetypes="sccssss" />
        <path
           transform="matrix(0,-1,-1,0,0,0)"
           style="opacity:0.75;fill:#ffffff;fill-opacity:1;stroke:none"
           d="m -280.5,-72 18.5,-1 0,18 -18.5,-0.999996 c -0.82979,-0.04485 -1.5,-0.669 -1.5,-1.5 L -282,-70.5 c 0,-0.831 0.669,-1.5 1.5,-1.5 z"
           id="path4490"
           inkscape:connector-curvature="0"
           sodipodi:nodetypes="sccssss" />
        <path
           transform="matrix(0,-1,-1,0,0,0)"
           style="opacity:0.75;fill:#ffffff;fill-opacity:1;stroke:none"
           d="m -280,-123 26,-1 0,24 -26,-1 c -1.10718,-0.0426 -2,-0.892 -2,-2 l 0,-18 c 0,-1.108 0.89282,-1.95742 2,-2 z"
           id="path4492"
           inkscape:connector-curvature="0"
           sodipodi:nodetypes="sccssss" />
        <path
           style="display:inline;opacity:0.75;fill:#ffffff;fill-opacity:1;stroke:none;enable-background:new"
           d="m 30,282 1,-13 -14,0 1,13 c 0.04249,0.55237 0.446,1 1,1 l 10,0 c 0.554,0 0.963148,-0.44723 1,-1 z"
           id="path4494"
           inkscape:connector-curvature="0"
           sodipodi:nodetypes="sccssss" />
        <path
           style="opacity:0.2;fill:#ffffff;fill-opacity:1;stroke:none"
           d="m 150,240 0.0527,1 35.89454,0 0.0527,-1 -36,0 z"
           id="path4496"
           inkscape:connector-curvature="0" />
        <path
           sodipodi:nodetypes="sccssss"
           inkscape:connector-curvature="0"
           id="path4498"
           d="m 640,232 16,-424 -384,0 16,424 c 0.5016,13.28656 10.704,24 24,24 l 304,0 c 13.296,0 23.49864,-10.71344 24,-24 z"
           style="opacity:0.2;fill:#000000;fill-opacity:1;stroke:none;filter:url(#filter4194)" />
        <path
           style="opacity:0.75;fill:#ffffff;fill-opacity:1;stroke:none"
           d="m 640,228 16,-424 -384,0 16,424 c 0.5016,13.28656 10.704,24 24,24 l 304,0 c 13.296,0 23.49864,-10.71344 24,-24 z"
           id="path4500"
           inkscape:connector-curvature="0"
           sodipodi:nodetypes="sccssss" />
        <path
           style="opacity:0.2;fill:#ffffff;fill-opacity:1;stroke:none"
           d="m 272,48 0.0742,2 383.85156,0 L 656,48 272,48 Z"
           transform="translate(0,-244)"
           id="path4502"
           inkscape:connector-curvature="0" />
        <path
           style="opacity:0.2;fill:#ffffff;fill-opacity:1;stroke:none"
           d="m 100,178 0.0391,1 23.92188,0 0.0391,-1 -24,0 z"
           transform="translate(0,76)"
           id="path4504"
           inkscape:connector-curvature="0" />
        <path
           sodipodi:nodetypes="ccccc"
           style="display:inline;opacity:0.2;fill:#ffffff;fill-opacity:1;stroke:none;enable-background:new"
           d="m 17,269 0,1 14,0 0,-1 z"
           id="path4506"
           inkscape:connector-curvature="0" />
        <path
           style="opacity:0.2;fill:#ffffff;fill-opacity:1;stroke:none"
           d="m 55,186 0.05469,1 17.890624,0 L 73,186 55,186 Z"
           transform="translate(0,76)"
           id="path4508"
           inkscape:connector-curvature="0" />
      </g>
    </g>
  </g>
</svg>
